M48
; DRILL file {KiCad 8.0.1} date 2024-05-12T14:44:28-0400
; FORMAT={-:-/ absolute / inch / decimal}
; #@! TF.CreationDate,2024-05-12T14:44:28-04:00
; #@! TF.GenerationSoftware,Kicad,Pcbnew,8.0.1
; #@! TF.FileFunction,Plated,1,2,PTH
FMAT,2
INCH
; #@! TA.AperFunction,Plated,PTH,ViaDrill
T1C0.0118
; #@! TA.AperFunction,Plated,PTH,ComponentDrill
T2C0.0650
%
G90
G05
T1
X2.8543Y-2.6772
X2.8543Y-2.7165
X2.8543Y-2.7559
X2.8543Y-2.7953
X2.8543Y-2.8346
X3.0118Y-2.6772
X3.0118Y-2.7165
X3.0118Y-2.7559
X3.0118Y-2.7953
X3.0118Y-2.8346
X3.4055Y-2.8937
X3.4449Y-2.8937
X3.9173Y-2.8937
X3.9567Y-2.8937
X4.3504Y-2.6772
X4.3504Y-2.7165
X4.3504Y-2.7559
X4.3504Y-2.7953
X4.3504Y-2.8346
X4.5079Y-2.6772
X4.5079Y-2.7165
X4.5079Y-2.7559
X4.5079Y-2.7953
X4.5079Y-2.8346
T2
X3.1496Y-3.0039
X3.1496Y-3.1496
X3.3858Y-3.0039
X3.3858Y-3.1496
X3.9764Y-3.0039
X3.9764Y-3.1496
X4.2126Y-3.0039
X4.2126Y-3.1496
M30
