%TF.GenerationSoftware,KiCad,Pcbnew,8.0.1*%
%TF.CreationDate,2024-05-12T14:44:29-04:00*%
%TF.ProjectId,gate-drive-board,67617465-2d64-4726-9976-652d626f6172,rev?*%
%TF.SameCoordinates,Original*%
%TF.FileFunction,Copper,L2,Bot*%
%TF.FilePolarity,Positive*%
%FSLAX46Y46*%
G04 Gerber Fmt 4.6, Leading zero omitted, Abs format (unit mm)*
G04 Created by KiCad (PCBNEW 8.0.1) date 2024-05-12 14:44:29*
%MOMM*%
%LPD*%
G01*
G04 APERTURE LIST*
%TA.AperFunction,ComponentPad*%
%ADD10C,3.000000*%
%TD*%
%TA.AperFunction,ViaPad*%
%ADD11C,0.600000*%
%TD*%
G04 APERTURE END LIST*
D10*
%TO.P,J4,1,Pin_1*%
%TO.N,/G2*%
X107000000Y-80000000D03*
X107000000Y-76300000D03*
%TD*%
%TO.P,J3,1,Pin_1*%
%TO.N,/E2*%
X101000000Y-80000000D03*
X101000000Y-76300000D03*
%TD*%
%TO.P,J2,1,Pin_1*%
%TO.N,/E1*%
X86000000Y-80000000D03*
X86000000Y-76300000D03*
%TD*%
%TO.P,J1,1,Pin_1*%
%TO.N,/G1*%
X80000000Y-80000000D03*
X80000000Y-76300000D03*
%TD*%
D11*
%TO.N,/E1*%
X87500000Y-73500000D03*
X86500000Y-73500000D03*
%TO.N,/E2*%
X100500000Y-73500000D03*
X99500000Y-73500000D03*
X114500000Y-68000000D03*
X114500000Y-69000000D03*
X114500000Y-70000000D03*
X114500000Y-71000000D03*
X114500000Y-72000000D03*
X110500000Y-72000000D03*
X110500000Y-71000000D03*
X110500000Y-70000000D03*
X110500000Y-69000000D03*
X110500000Y-68000000D03*
%TO.N,/E1*%
X72500000Y-72000000D03*
X72500000Y-71000000D03*
X72500000Y-70000000D03*
X72500000Y-69000000D03*
X72500000Y-68000000D03*
X76500000Y-72000000D03*
X76500000Y-71000000D03*
X76500000Y-70000000D03*
X76500000Y-69000000D03*
X76500000Y-68000000D03*
%TD*%
%TA.AperFunction,Conductor*%
%TO.N,/E1*%
G36*
X91943039Y-67620185D02*
G01*
X91988794Y-67672989D01*
X92000000Y-67724500D01*
X92000000Y-81775500D01*
X91980315Y-81842539D01*
X91927511Y-81888294D01*
X91876000Y-81899500D01*
X81173310Y-81899500D01*
X81106271Y-81879815D01*
X81060516Y-81827011D01*
X81050572Y-81757853D01*
X81079597Y-81694297D01*
X81099000Y-81676233D01*
X81313387Y-81515745D01*
X81313387Y-81515744D01*
X81313395Y-81515739D01*
X81515739Y-81313395D01*
X81687226Y-81084315D01*
X81824367Y-80833161D01*
X81924369Y-80565046D01*
X81985196Y-80285428D01*
X82005610Y-80000000D01*
X81985196Y-79714572D01*
X81924369Y-79434954D01*
X81824367Y-79166839D01*
X81687226Y-78915685D01*
X81687224Y-78915682D01*
X81515745Y-78686612D01*
X81515729Y-78686594D01*
X81313405Y-78484270D01*
X81313387Y-78484254D01*
X81084317Y-78312775D01*
X81084309Y-78312770D01*
X80985528Y-78258832D01*
X80936123Y-78209427D01*
X80921271Y-78141154D01*
X80945688Y-78075690D01*
X80985528Y-78041168D01*
X80987070Y-78040325D01*
X81084315Y-77987226D01*
X81313395Y-77815739D01*
X81515739Y-77613395D01*
X81687226Y-77384315D01*
X81824367Y-77133161D01*
X81924369Y-76865046D01*
X81985196Y-76585428D01*
X82005610Y-76300000D01*
X81985196Y-76014572D01*
X81924369Y-75734954D01*
X81824367Y-75466839D01*
X81687226Y-75215685D01*
X81687224Y-75215682D01*
X81515745Y-74986612D01*
X81515729Y-74986594D01*
X81313405Y-74784270D01*
X81313387Y-74784254D01*
X81084317Y-74612775D01*
X81084309Y-74612770D01*
X80833166Y-74475635D01*
X80833167Y-74475635D01*
X80725915Y-74435632D01*
X80565046Y-74375631D01*
X80565043Y-74375630D01*
X80565037Y-74375628D01*
X80285433Y-74314804D01*
X80000001Y-74294390D01*
X79999999Y-74294390D01*
X79714566Y-74314804D01*
X79434962Y-74375628D01*
X79166833Y-74475635D01*
X78915690Y-74612770D01*
X78915682Y-74612775D01*
X78686612Y-74784254D01*
X78686594Y-74784270D01*
X78484270Y-74986594D01*
X78484254Y-74986612D01*
X78312775Y-75215682D01*
X78312770Y-75215690D01*
X78175635Y-75466833D01*
X78075628Y-75734962D01*
X78014804Y-76014566D01*
X77994390Y-76299998D01*
X77994390Y-76300001D01*
X78014804Y-76585433D01*
X78075628Y-76865037D01*
X78175635Y-77133166D01*
X78312770Y-77384309D01*
X78312775Y-77384317D01*
X78484254Y-77613387D01*
X78484270Y-77613405D01*
X78686594Y-77815729D01*
X78686612Y-77815745D01*
X78915682Y-77987224D01*
X78915690Y-77987229D01*
X79014471Y-78041168D01*
X79063876Y-78090573D01*
X79078728Y-78158846D01*
X79054311Y-78224311D01*
X79014471Y-78258832D01*
X78915690Y-78312770D01*
X78915682Y-78312775D01*
X78686612Y-78484254D01*
X78686594Y-78484270D01*
X78484270Y-78686594D01*
X78484254Y-78686612D01*
X78312775Y-78915682D01*
X78312770Y-78915690D01*
X78175635Y-79166833D01*
X78075628Y-79434962D01*
X78014804Y-79714566D01*
X77994390Y-79999998D01*
X77994390Y-80000001D01*
X78014804Y-80285433D01*
X78075628Y-80565037D01*
X78175635Y-80833166D01*
X78312770Y-81084309D01*
X78312775Y-81084317D01*
X78484254Y-81313387D01*
X78484270Y-81313405D01*
X78686594Y-81515729D01*
X78686612Y-81515745D01*
X78901000Y-81676233D01*
X78942872Y-81732166D01*
X78947856Y-81801858D01*
X78914371Y-81863181D01*
X78853048Y-81896666D01*
X78826690Y-81899500D01*
X72006093Y-81899500D01*
X71993939Y-81898903D01*
X71836671Y-81883413D01*
X71812830Y-81878671D01*
X71740146Y-81856623D01*
X71667460Y-81834574D01*
X71645005Y-81825273D01*
X71560482Y-81780094D01*
X71511034Y-81753663D01*
X71490824Y-81740159D01*
X71373398Y-81643791D01*
X71356208Y-81626601D01*
X71259840Y-81509175D01*
X71246336Y-81488965D01*
X71234525Y-81466868D01*
X71174724Y-81354989D01*
X71165427Y-81332544D01*
X71121326Y-81187163D01*
X71116587Y-81163335D01*
X71101097Y-81006061D01*
X71100500Y-80993907D01*
X71100500Y-68506092D01*
X71101097Y-68493938D01*
X71109983Y-68403719D01*
X71116587Y-68336662D01*
X71121326Y-68312838D01*
X71165428Y-68167451D01*
X71174722Y-68145014D01*
X71246340Y-68011027D01*
X71259835Y-67990830D01*
X71356213Y-67873392D01*
X71373392Y-67856213D01*
X71490830Y-67759835D01*
X71511027Y-67746340D01*
X71645014Y-67674722D01*
X71667451Y-67665428D01*
X71812838Y-67621326D01*
X71836662Y-67616587D01*
X71993939Y-67601097D01*
X72006093Y-67600500D01*
X91876000Y-67600500D01*
X91943039Y-67620185D01*
G37*
%TD.AperFunction*%
%TD*%
%TA.AperFunction,Conductor*%
%TO.N,/E2*%
G36*
X115006061Y-67601097D02*
G01*
X115163335Y-67616587D01*
X115187163Y-67621326D01*
X115332544Y-67665427D01*
X115354989Y-67674724D01*
X115488967Y-67746337D01*
X115509175Y-67759840D01*
X115626601Y-67856208D01*
X115643791Y-67873398D01*
X115740159Y-67990824D01*
X115753663Y-68011034D01*
X115825272Y-68145003D01*
X115834575Y-68167462D01*
X115878671Y-68312830D01*
X115883413Y-68336670D01*
X115898903Y-68493937D01*
X115899500Y-68506092D01*
X115899500Y-80993907D01*
X115898903Y-81006062D01*
X115883413Y-81163329D01*
X115878671Y-81187169D01*
X115834575Y-81332537D01*
X115825272Y-81354996D01*
X115753663Y-81488965D01*
X115740159Y-81509175D01*
X115643791Y-81626601D01*
X115626601Y-81643791D01*
X115509175Y-81740159D01*
X115488965Y-81753663D01*
X115354996Y-81825272D01*
X115332537Y-81834575D01*
X115187169Y-81878671D01*
X115163329Y-81883413D01*
X115047425Y-81894828D01*
X115006060Y-81898903D01*
X114993907Y-81899500D01*
X108173310Y-81899500D01*
X108106271Y-81879815D01*
X108060516Y-81827011D01*
X108050572Y-81757853D01*
X108079597Y-81694297D01*
X108099000Y-81676233D01*
X108313387Y-81515745D01*
X108313387Y-81515744D01*
X108313395Y-81515739D01*
X108515739Y-81313395D01*
X108687226Y-81084315D01*
X108824367Y-80833161D01*
X108924369Y-80565046D01*
X108985196Y-80285428D01*
X109005610Y-80000000D01*
X108985196Y-79714572D01*
X108924369Y-79434954D01*
X108824367Y-79166839D01*
X108687226Y-78915685D01*
X108687224Y-78915682D01*
X108515745Y-78686612D01*
X108515729Y-78686594D01*
X108313405Y-78484270D01*
X108313387Y-78484254D01*
X108084317Y-78312775D01*
X108084309Y-78312770D01*
X107985528Y-78258832D01*
X107936123Y-78209427D01*
X107921271Y-78141154D01*
X107945688Y-78075690D01*
X107985528Y-78041168D01*
X107987070Y-78040325D01*
X108084315Y-77987226D01*
X108313395Y-77815739D01*
X108515739Y-77613395D01*
X108687226Y-77384315D01*
X108824367Y-77133161D01*
X108924369Y-76865046D01*
X108985196Y-76585428D01*
X109005610Y-76300000D01*
X108985196Y-76014572D01*
X108924369Y-75734954D01*
X108824367Y-75466839D01*
X108687226Y-75215685D01*
X108687224Y-75215682D01*
X108515745Y-74986612D01*
X108515729Y-74986594D01*
X108313405Y-74784270D01*
X108313387Y-74784254D01*
X108084317Y-74612775D01*
X108084309Y-74612770D01*
X107833166Y-74475635D01*
X107833167Y-74475635D01*
X107725915Y-74435632D01*
X107565046Y-74375631D01*
X107565043Y-74375630D01*
X107565037Y-74375628D01*
X107285433Y-74314804D01*
X107000001Y-74294390D01*
X106999999Y-74294390D01*
X106714566Y-74314804D01*
X106434962Y-74375628D01*
X106166833Y-74475635D01*
X105915690Y-74612770D01*
X105915682Y-74612775D01*
X105686612Y-74784254D01*
X105686594Y-74784270D01*
X105484270Y-74986594D01*
X105484254Y-74986612D01*
X105312775Y-75215682D01*
X105312770Y-75215690D01*
X105175635Y-75466833D01*
X105075628Y-75734962D01*
X105014804Y-76014566D01*
X104994390Y-76299998D01*
X104994390Y-76300001D01*
X105014804Y-76585433D01*
X105075628Y-76865037D01*
X105175635Y-77133166D01*
X105312770Y-77384309D01*
X105312775Y-77384317D01*
X105484254Y-77613387D01*
X105484270Y-77613405D01*
X105686594Y-77815729D01*
X105686612Y-77815745D01*
X105915682Y-77987224D01*
X105915690Y-77987229D01*
X106014471Y-78041168D01*
X106063876Y-78090573D01*
X106078728Y-78158846D01*
X106054311Y-78224311D01*
X106014471Y-78258832D01*
X105915690Y-78312770D01*
X105915682Y-78312775D01*
X105686612Y-78484254D01*
X105686594Y-78484270D01*
X105484270Y-78686594D01*
X105484254Y-78686612D01*
X105312775Y-78915682D01*
X105312770Y-78915690D01*
X105175635Y-79166833D01*
X105075628Y-79434962D01*
X105014804Y-79714566D01*
X104994390Y-79999998D01*
X104994390Y-80000001D01*
X105014804Y-80285433D01*
X105075628Y-80565037D01*
X105175635Y-80833166D01*
X105312770Y-81084309D01*
X105312775Y-81084317D01*
X105484254Y-81313387D01*
X105484270Y-81313405D01*
X105686594Y-81515729D01*
X105686612Y-81515745D01*
X105901000Y-81676233D01*
X105942872Y-81732166D01*
X105947856Y-81801858D01*
X105914371Y-81863181D01*
X105853048Y-81896666D01*
X105826690Y-81899500D01*
X95124000Y-81899500D01*
X95056961Y-81879815D01*
X95011206Y-81827011D01*
X95000000Y-81775500D01*
X95000000Y-67724500D01*
X95019685Y-67657461D01*
X95072489Y-67611706D01*
X95124000Y-67600500D01*
X114973071Y-67600500D01*
X114993907Y-67600500D01*
X115006061Y-67601097D01*
G37*
%TD.AperFunction*%
%TD*%
M02*
