%TF.GenerationSoftware,KiCad,Pcbnew,8.0.1*%
%TF.CreationDate,2024-05-12T14:44:29-04:00*%
%TF.ProjectId,gate-drive-board,67617465-2d64-4726-9976-652d626f6172,rev?*%
%TF.SameCoordinates,Original*%
%TF.FileFunction,Legend,Top*%
%TF.FilePolarity,Positive*%
%FSLAX46Y46*%
G04 Gerber Fmt 4.6, Leading zero omitted, Abs format (unit mm)*
G04 Created by KiCad (PCBNEW 8.0.1) date 2024-05-12 14:44:29*
%MOMM*%
%LPD*%
G01*
G04 APERTURE LIST*
%ADD10C,0.100000*%
%ADD11C,0.150000*%
%ADD12C,0.120000*%
G04 APERTURE END LIST*
D10*
X97553884Y-77348609D02*
X97887217Y-77348609D01*
X98030074Y-77872419D02*
X97553884Y-77872419D01*
X97553884Y-77872419D02*
X97553884Y-76872419D01*
X97553884Y-76872419D02*
X98030074Y-76872419D01*
X98411027Y-76967657D02*
X98458646Y-76920038D01*
X98458646Y-76920038D02*
X98553884Y-76872419D01*
X98553884Y-76872419D02*
X98791979Y-76872419D01*
X98791979Y-76872419D02*
X98887217Y-76920038D01*
X98887217Y-76920038D02*
X98934836Y-76967657D01*
X98934836Y-76967657D02*
X98982455Y-77062895D01*
X98982455Y-77062895D02*
X98982455Y-77158133D01*
X98982455Y-77158133D02*
X98934836Y-77300990D01*
X98934836Y-77300990D02*
X98363408Y-77872419D01*
X98363408Y-77872419D02*
X98982455Y-77872419D01*
X95577693Y-76920038D02*
X95482455Y-76872419D01*
X95482455Y-76872419D02*
X95339598Y-76872419D01*
X95339598Y-76872419D02*
X95196741Y-76920038D01*
X95196741Y-76920038D02*
X95101503Y-77015276D01*
X95101503Y-77015276D02*
X95053884Y-77110514D01*
X95053884Y-77110514D02*
X95006265Y-77300990D01*
X95006265Y-77300990D02*
X95006265Y-77443847D01*
X95006265Y-77443847D02*
X95053884Y-77634323D01*
X95053884Y-77634323D02*
X95101503Y-77729561D01*
X95101503Y-77729561D02*
X95196741Y-77824800D01*
X95196741Y-77824800D02*
X95339598Y-77872419D01*
X95339598Y-77872419D02*
X95434836Y-77872419D01*
X95434836Y-77872419D02*
X95577693Y-77824800D01*
X95577693Y-77824800D02*
X95625312Y-77777180D01*
X95625312Y-77777180D02*
X95625312Y-77443847D01*
X95625312Y-77443847D02*
X95434836Y-77443847D01*
X96006265Y-76967657D02*
X96053884Y-76920038D01*
X96053884Y-76920038D02*
X96149122Y-76872419D01*
X96149122Y-76872419D02*
X96387217Y-76872419D01*
X96387217Y-76872419D02*
X96482455Y-76920038D01*
X96482455Y-76920038D02*
X96530074Y-76967657D01*
X96530074Y-76967657D02*
X96577693Y-77062895D01*
X96577693Y-77062895D02*
X96577693Y-77158133D01*
X96577693Y-77158133D02*
X96530074Y-77300990D01*
X96530074Y-77300990D02*
X95958646Y-77872419D01*
X95958646Y-77872419D02*
X96577693Y-77872419D01*
X91077693Y-76920038D02*
X90982455Y-76872419D01*
X90982455Y-76872419D02*
X90839598Y-76872419D01*
X90839598Y-76872419D02*
X90696741Y-76920038D01*
X90696741Y-76920038D02*
X90601503Y-77015276D01*
X90601503Y-77015276D02*
X90553884Y-77110514D01*
X90553884Y-77110514D02*
X90506265Y-77300990D01*
X90506265Y-77300990D02*
X90506265Y-77443847D01*
X90506265Y-77443847D02*
X90553884Y-77634323D01*
X90553884Y-77634323D02*
X90601503Y-77729561D01*
X90601503Y-77729561D02*
X90696741Y-77824800D01*
X90696741Y-77824800D02*
X90839598Y-77872419D01*
X90839598Y-77872419D02*
X90934836Y-77872419D01*
X90934836Y-77872419D02*
X91077693Y-77824800D01*
X91077693Y-77824800D02*
X91125312Y-77777180D01*
X91125312Y-77777180D02*
X91125312Y-77443847D01*
X91125312Y-77443847D02*
X90934836Y-77443847D01*
X92077693Y-77872419D02*
X91506265Y-77872419D01*
X91791979Y-77872419D02*
X91791979Y-76872419D01*
X91791979Y-76872419D02*
X91696741Y-77015276D01*
X91696741Y-77015276D02*
X91601503Y-77110514D01*
X91601503Y-77110514D02*
X91506265Y-77158133D01*
X88053884Y-77348609D02*
X88387217Y-77348609D01*
X88530074Y-77872419D02*
X88053884Y-77872419D01*
X88053884Y-77872419D02*
X88053884Y-76872419D01*
X88053884Y-76872419D02*
X88530074Y-76872419D01*
X89482455Y-77872419D02*
X88911027Y-77872419D01*
X89196741Y-77872419D02*
X89196741Y-76872419D01*
X89196741Y-76872419D02*
X89101503Y-77015276D01*
X89101503Y-77015276D02*
X89006265Y-77110514D01*
X89006265Y-77110514D02*
X88911027Y-77158133D01*
X93500000Y-74500000D02*
X93500000Y-80500000D01*
X93500000Y-69000000D02*
X93500000Y-74500000D01*
D11*
X85634819Y-71166666D02*
X85158628Y-71499999D01*
X85634819Y-71738094D02*
X84634819Y-71738094D01*
X84634819Y-71738094D02*
X84634819Y-71357142D01*
X84634819Y-71357142D02*
X84682438Y-71261904D01*
X84682438Y-71261904D02*
X84730057Y-71214285D01*
X84730057Y-71214285D02*
X84825295Y-71166666D01*
X84825295Y-71166666D02*
X84968152Y-71166666D01*
X84968152Y-71166666D02*
X85063390Y-71214285D01*
X85063390Y-71214285D02*
X85111009Y-71261904D01*
X85111009Y-71261904D02*
X85158628Y-71357142D01*
X85158628Y-71357142D02*
X85158628Y-71738094D01*
X84968152Y-70309523D02*
X85634819Y-70309523D01*
X84587200Y-70547618D02*
X85301485Y-70785713D01*
X85301485Y-70785713D02*
X85301485Y-70166666D01*
X102274819Y-71166666D02*
X101798628Y-71499999D01*
X102274819Y-71738094D02*
X101274819Y-71738094D01*
X101274819Y-71738094D02*
X101274819Y-71357142D01*
X101274819Y-71357142D02*
X101322438Y-71261904D01*
X101322438Y-71261904D02*
X101370057Y-71214285D01*
X101370057Y-71214285D02*
X101465295Y-71166666D01*
X101465295Y-71166666D02*
X101608152Y-71166666D01*
X101608152Y-71166666D02*
X101703390Y-71214285D01*
X101703390Y-71214285D02*
X101751009Y-71261904D01*
X101751009Y-71261904D02*
X101798628Y-71357142D01*
X101798628Y-71357142D02*
X101798628Y-71738094D01*
X101370057Y-70785713D02*
X101322438Y-70738094D01*
X101322438Y-70738094D02*
X101274819Y-70642856D01*
X101274819Y-70642856D02*
X101274819Y-70404761D01*
X101274819Y-70404761D02*
X101322438Y-70309523D01*
X101322438Y-70309523D02*
X101370057Y-70261904D01*
X101370057Y-70261904D02*
X101465295Y-70214285D01*
X101465295Y-70214285D02*
X101560533Y-70214285D01*
X101560533Y-70214285D02*
X101703390Y-70261904D01*
X101703390Y-70261904D02*
X102274819Y-70833332D01*
X102274819Y-70833332D02*
X102274819Y-70214285D01*
D12*
%TO.C,R4*%
X86090000Y-71727064D02*
X86090000Y-70272936D01*
X87910000Y-71727064D02*
X87910000Y-70272936D01*
%TO.C,R2*%
X100910000Y-70272936D02*
X100910000Y-71727064D01*
X99090000Y-70272936D02*
X99090000Y-71727064D01*
%TO.C,R3*%
X80138748Y-68390000D02*
X80861252Y-68390000D01*
X80138748Y-73610000D02*
X80861252Y-73610000D01*
%TO.C,R1*%
X106861252Y-73610000D02*
X106138748Y-73610000D01*
X106861252Y-68390000D02*
X106138748Y-68390000D01*
D10*
%TO.C,D2*%
X102025000Y-70100000D02*
X102025000Y-69750000D01*
X103975000Y-70100000D02*
X103975000Y-69750000D01*
X103975000Y-69750000D02*
X102025000Y-69750000D01*
X102275000Y-72400000D02*
X102025000Y-72400000D01*
X102025000Y-72400000D02*
X102025000Y-72150000D01*
X103975000Y-72100000D02*
X103975000Y-72400000D01*
X103975000Y-72400000D02*
X103750000Y-72400000D01*
X103975000Y-69850000D02*
X102025000Y-69850000D01*
X103975000Y-69950000D02*
X102025000Y-69950000D01*
%TO.C,D1*%
X83025000Y-70025000D02*
X83025000Y-69675000D01*
X84975000Y-70025000D02*
X84975000Y-69675000D01*
X84975000Y-69675000D02*
X83025000Y-69675000D01*
X83275000Y-72325000D02*
X83025000Y-72325000D01*
X83025000Y-72325000D02*
X83025000Y-72075000D01*
X84975000Y-72025000D02*
X84975000Y-72325000D01*
X84975000Y-72325000D02*
X84750000Y-72325000D01*
X84975000Y-69775000D02*
X83025000Y-69775000D01*
X84975000Y-69875000D02*
X83025000Y-69875000D01*
%TD*%
M02*
