%TF.GenerationSoftware,KiCad,Pcbnew,8.0.1*%
%TF.CreationDate,2024-05-12T14:44:29-04:00*%
%TF.ProjectId,gate-drive-board,67617465-2d64-4726-9976-652d626f6172,rev?*%
%TF.SameCoordinates,Original*%
%TF.FileFunction,Copper,L1,Top*%
%TF.FilePolarity,Positive*%
%FSLAX46Y46*%
G04 Gerber Fmt 4.6, Leading zero omitted, Abs format (unit mm)*
G04 Created by KiCad (PCBNEW 8.0.1) date 2024-05-12 14:44:29*
%MOMM*%
%LPD*%
G01*
G04 APERTURE LIST*
G04 Aperture macros list*
%AMRoundRect*
0 Rectangle with rounded corners*
0 $1 Rounding radius*
0 $2 $3 $4 $5 $6 $7 $8 $9 X,Y pos of 4 corners*
0 Add a 4 corners polygon primitive as box body*
4,1,4,$2,$3,$4,$5,$6,$7,$8,$9,$2,$3,0*
0 Add four circle primitives for the rounded corners*
1,1,$1+$1,$2,$3*
1,1,$1+$1,$4,$5*
1,1,$1+$1,$6,$7*
1,1,$1+$1,$8,$9*
0 Add four rect primitives between the rounded corners*
20,1,$1+$1,$2,$3,$4,$5,0*
20,1,$1+$1,$4,$5,$6,$7,0*
20,1,$1+$1,$6,$7,$8,$9,0*
20,1,$1+$1,$8,$9,$2,$3,0*%
G04 Aperture macros list end*
%TA.AperFunction,SMDPad,CuDef*%
%ADD10RoundRect,0.250000X0.625000X-0.400000X0.625000X0.400000X-0.625000X0.400000X-0.625000X-0.400000X0*%
%TD*%
%TA.AperFunction,SMDPad,CuDef*%
%ADD11RoundRect,0.250000X-0.625000X0.400000X-0.625000X-0.400000X0.625000X-0.400000X0.625000X0.400000X0*%
%TD*%
%TA.AperFunction,SMDPad,CuDef*%
%ADD12RoundRect,0.250000X-1.400000X-2.000000X1.400000X-2.000000X1.400000X2.000000X-1.400000X2.000000X0*%
%TD*%
%TA.AperFunction,SMDPad,CuDef*%
%ADD13RoundRect,0.250000X1.400000X2.000000X-1.400000X2.000000X-1.400000X-2.000000X1.400000X-2.000000X0*%
%TD*%
%TA.AperFunction,SMDPad,CuDef*%
%ADD14RoundRect,0.250000X-0.412500X-2.350000X0.412500X-2.350000X0.412500X2.350000X-0.412500X2.350000X0*%
%TD*%
%TA.AperFunction,SMDPad,CuDef*%
%ADD15RoundRect,0.250000X0.412500X2.350000X-0.412500X2.350000X-0.412500X-2.350000X0.412500X-2.350000X0*%
%TD*%
%TA.AperFunction,ComponentPad*%
%ADD16C,3.000000*%
%TD*%
%TA.AperFunction,SMDPad,CuDef*%
%ADD17R,0.950000X0.900000*%
%TD*%
%TA.AperFunction,ViaPad*%
%ADD18C,0.600000*%
%TD*%
G04 APERTURE END LIST*
D10*
%TO.P,R4,1*%
%TO.N,/E1*%
X87000000Y-72550000D03*
%TO.P,R4,2*%
%TO.N,/G1IN*%
X87000000Y-69450000D03*
%TD*%
D11*
%TO.P,R2,1*%
%TO.N,/G2IN*%
X100000000Y-69450000D03*
%TO.P,R2,2*%
%TO.N,/E2*%
X100000000Y-72550000D03*
%TD*%
D12*
%TO.P,D3,1,A1*%
%TO.N,/E2*%
X112500000Y-70100000D03*
%TO.P,D3,2,A2*%
%TO.N,/G2*%
X112500000Y-78900000D03*
%TD*%
D13*
%TO.P,D4,1,A1*%
%TO.N,/G1*%
X74500000Y-78900000D03*
%TO.P,D4,2,A2*%
%TO.N,/E1*%
X74500000Y-70100000D03*
%TD*%
D14*
%TO.P,R3,1*%
%TO.N,/G1*%
X79287500Y-71000000D03*
%TO.P,R3,2*%
%TO.N,/G1IN*%
X81712500Y-71000000D03*
%TD*%
D15*
%TO.P,R1,1*%
%TO.N,/G2*%
X107712500Y-71000000D03*
%TO.P,R1,2*%
%TO.N,/G2IN*%
X105287500Y-71000000D03*
%TD*%
D16*
%TO.P,J4,1,Pin_1*%
%TO.N,/G2*%
X107000000Y-80000000D03*
X107000000Y-76300000D03*
%TD*%
%TO.P,J3,1,Pin_1*%
%TO.N,/E2*%
X101000000Y-80000000D03*
X101000000Y-76300000D03*
%TD*%
%TO.P,J2,1,Pin_1*%
%TO.N,/E1*%
X86000000Y-80000000D03*
X86000000Y-76300000D03*
%TD*%
%TO.P,J1,1,Pin_1*%
%TO.N,/G1*%
X80000000Y-80000000D03*
X80000000Y-76300000D03*
%TD*%
D17*
%TO.P,D2,K*%
%TO.N,/G2IN*%
X103000000Y-69500000D03*
%TO.P,D2,A*%
%TO.N,/G2*%
X103000000Y-72650000D03*
%TD*%
%TO.P,D1,K*%
%TO.N,/G1IN*%
X84000000Y-69425000D03*
%TO.P,D1,A*%
%TO.N,/G1*%
X84000000Y-72575000D03*
%TD*%
D18*
%TO.N,/E1*%
X87500000Y-73500000D03*
X86500000Y-73500000D03*
%TO.N,/E2*%
X100500000Y-73500000D03*
X99500000Y-73500000D03*
X114500000Y-68000000D03*
X114500000Y-69000000D03*
X114500000Y-70000000D03*
X114500000Y-71000000D03*
X114500000Y-72000000D03*
X110500000Y-72000000D03*
X110500000Y-71000000D03*
X110500000Y-70000000D03*
X110500000Y-69000000D03*
X110500000Y-68000000D03*
%TO.N,/E1*%
X72500000Y-72000000D03*
X72500000Y-71000000D03*
X72500000Y-70000000D03*
X72500000Y-69000000D03*
X72500000Y-68000000D03*
X76500000Y-72000000D03*
X76500000Y-71000000D03*
X76500000Y-70000000D03*
X76500000Y-69000000D03*
X76500000Y-68000000D03*
%TD*%
%TA.AperFunction,Conductor*%
%TO.N,/G1*%
G36*
X79943039Y-68519685D02*
G01*
X79988794Y-68572489D01*
X80000000Y-68624000D01*
X80000000Y-74500000D01*
X80781209Y-74500000D01*
X80832490Y-74511101D01*
X80885317Y-74535096D01*
X80885321Y-74535097D01*
X81103579Y-74590094D01*
X81103581Y-74590094D01*
X81103588Y-74590096D01*
X81235783Y-74600500D01*
X82000000Y-74600499D01*
X82000000Y-79000000D01*
X82000000Y-81775500D01*
X81980315Y-81842539D01*
X81927511Y-81888294D01*
X81876000Y-81899500D01*
X72624000Y-81899500D01*
X72556961Y-81879815D01*
X72511206Y-81827011D01*
X72500000Y-81775500D01*
X72500000Y-74624000D01*
X72519685Y-74556961D01*
X72572489Y-74511206D01*
X72624000Y-74500000D01*
X78500000Y-74500000D01*
X78500000Y-68624000D01*
X78519685Y-68556961D01*
X78572489Y-68511206D01*
X78624000Y-68500000D01*
X79876000Y-68500000D01*
X79943039Y-68519685D01*
G37*
%TD.AperFunction*%
%TD*%
%TA.AperFunction,Conductor*%
%TO.N,/G1*%
G36*
X84443039Y-72019685D02*
G01*
X84488794Y-72072489D01*
X84500000Y-72124000D01*
X84500000Y-74467867D01*
X84484396Y-74528087D01*
X82000000Y-79000000D01*
X82000000Y-74500000D01*
X82487707Y-74012292D01*
X82536224Y-73982323D01*
X82590089Y-73964394D01*
X82637504Y-73948613D01*
X82758543Y-73870825D01*
X82811347Y-73825070D01*
X82905567Y-73716336D01*
X82965338Y-73585459D01*
X82977538Y-73543909D01*
X83008831Y-73491168D01*
X83500000Y-73000000D01*
X83500000Y-72124000D01*
X83519685Y-72056961D01*
X83572489Y-72011206D01*
X83624000Y-72000000D01*
X84376000Y-72000000D01*
X84443039Y-72019685D01*
G37*
%TD.AperFunction*%
%TD*%
%TA.AperFunction,Conductor*%
%TO.N,/G2*%
G36*
X108443039Y-68519685D02*
G01*
X108488794Y-68572489D01*
X108500000Y-68624000D01*
X108500000Y-74500000D01*
X114376000Y-74500000D01*
X114443039Y-74519685D01*
X114488794Y-74572489D01*
X114500000Y-74624000D01*
X114500000Y-81775500D01*
X114480315Y-81842539D01*
X114427511Y-81888294D01*
X114376000Y-81899500D01*
X105124000Y-81899500D01*
X105056961Y-81879815D01*
X105011206Y-81827011D01*
X105000000Y-81775500D01*
X105000000Y-79000000D01*
X105000000Y-74600499D01*
X105764216Y-74600499D01*
X105896412Y-74590096D01*
X106114683Y-74535096D01*
X106167510Y-74511101D01*
X106218791Y-74500000D01*
X107000000Y-74500000D01*
X107000000Y-68624000D01*
X107019685Y-68556961D01*
X107072489Y-68511206D01*
X107124000Y-68500000D01*
X108376000Y-68500000D01*
X108443039Y-68519685D01*
G37*
%TD.AperFunction*%
%TD*%
%TA.AperFunction,Conductor*%
%TO.N,/G2*%
G36*
X103443039Y-72019685D02*
G01*
X103488794Y-72072489D01*
X103500000Y-72124000D01*
X103500000Y-73000000D01*
X104213498Y-73713498D01*
X104231355Y-73736082D01*
X104282285Y-73818652D01*
X104282288Y-73818656D01*
X104406344Y-73942712D01*
X104488920Y-73993645D01*
X104511499Y-74011499D01*
X105000000Y-74500000D01*
X105000000Y-79000000D01*
X102515604Y-74528087D01*
X102500000Y-74467867D01*
X102500000Y-72124000D01*
X102519685Y-72056961D01*
X102572489Y-72011206D01*
X102624000Y-72000000D01*
X103376000Y-72000000D01*
X103443039Y-72019685D01*
G37*
%TD.AperFunction*%
%TD*%
%TA.AperFunction,Conductor*%
%TO.N,/E2*%
G36*
X102443039Y-78519685D02*
G01*
X102488794Y-78572489D01*
X102500000Y-78624000D01*
X102500000Y-81376000D01*
X102480315Y-81443039D01*
X102427511Y-81488794D01*
X102376000Y-81500000D01*
X97624000Y-81500000D01*
X97556961Y-81480315D01*
X97511206Y-81427511D01*
X97500000Y-81376000D01*
X97500000Y-78624000D01*
X97519685Y-78556961D01*
X97572489Y-78511206D01*
X97624000Y-78500000D01*
X102376000Y-78500000D01*
X102443039Y-78519685D01*
G37*
%TD.AperFunction*%
%TD*%
%TA.AperFunction,Conductor*%
%TO.N,/E1*%
G36*
X89443039Y-78519685D02*
G01*
X89488794Y-78572489D01*
X89500000Y-78624000D01*
X89500000Y-81376000D01*
X89480315Y-81443039D01*
X89427511Y-81488794D01*
X89376000Y-81500000D01*
X84624000Y-81500000D01*
X84556961Y-81480315D01*
X84511206Y-81427511D01*
X84500000Y-81376000D01*
X84500000Y-78624000D01*
X84519685Y-78556961D01*
X84572489Y-78511206D01*
X84624000Y-78500000D01*
X89376000Y-78500000D01*
X89443039Y-78519685D01*
G37*
%TD.AperFunction*%
%TD*%
%TA.AperFunction,Conductor*%
%TO.N,/G1IN*%
G36*
X91943039Y-68519685D02*
G01*
X91988794Y-68572489D01*
X92000000Y-68624000D01*
X92000000Y-81376000D01*
X91980315Y-81443039D01*
X91927511Y-81488794D01*
X91876000Y-81500000D01*
X90624000Y-81500000D01*
X90556961Y-81480315D01*
X90511206Y-81427511D01*
X90500000Y-81376000D01*
X90500000Y-77500000D01*
X90500000Y-70500000D01*
X85500000Y-70500000D01*
X82500000Y-70500000D01*
X82500000Y-73376000D01*
X82480315Y-73443039D01*
X82427511Y-73488794D01*
X82376000Y-73500000D01*
X81124000Y-73500000D01*
X81056961Y-73480315D01*
X81011206Y-73427511D01*
X81000000Y-73376000D01*
X81000000Y-68624000D01*
X81019685Y-68556961D01*
X81072489Y-68511206D01*
X81124000Y-68500000D01*
X91876000Y-68500000D01*
X91943039Y-68519685D01*
G37*
%TD.AperFunction*%
%TD*%
%TA.AperFunction,Conductor*%
%TO.N,/G1IN*%
G36*
X90500000Y-77500000D02*
G01*
X88624000Y-77500000D01*
X88556961Y-77480315D01*
X88511206Y-77427511D01*
X88500000Y-77376000D01*
X88500000Y-73923122D01*
X88501262Y-73905475D01*
X88505500Y-73876000D01*
X88505500Y-72124000D01*
X88500710Y-72079446D01*
X88500000Y-72066193D01*
X88500000Y-71500000D01*
X88035943Y-71500000D01*
X87970847Y-71481539D01*
X87944340Y-71465189D01*
X87944335Y-71465187D01*
X87944334Y-71465186D01*
X87777797Y-71410001D01*
X87777795Y-71410000D01*
X87675010Y-71399500D01*
X86324998Y-71399500D01*
X86324981Y-71399501D01*
X86222203Y-71410000D01*
X86222200Y-71410001D01*
X86055662Y-71465187D01*
X86029152Y-71481539D01*
X85964056Y-71500000D01*
X85624000Y-71500000D01*
X85556961Y-71480315D01*
X85511206Y-71427511D01*
X85500000Y-71376000D01*
X85500000Y-70500000D01*
X90500000Y-70500000D01*
X90500000Y-77500000D01*
G37*
%TD.AperFunction*%
%TD*%
%TA.AperFunction,Conductor*%
%TO.N,/G2IN*%
G36*
X105943039Y-68519685D02*
G01*
X105988794Y-68572489D01*
X106000000Y-68624000D01*
X106000000Y-73376000D01*
X105980315Y-73443039D01*
X105927511Y-73488794D01*
X105876000Y-73500000D01*
X105124000Y-73500000D01*
X105056961Y-73480315D01*
X105011206Y-73427511D01*
X105000000Y-73376000D01*
X105000000Y-70500000D01*
X101500000Y-70500000D01*
X96500000Y-70500000D01*
X96500000Y-77500000D01*
X96500000Y-81376000D01*
X96480315Y-81443039D01*
X96427511Y-81488794D01*
X96376000Y-81500000D01*
X95124000Y-81500000D01*
X95056961Y-81480315D01*
X95011206Y-81427511D01*
X95000000Y-81376000D01*
X95000000Y-68624000D01*
X95019685Y-68556961D01*
X95072489Y-68511206D01*
X95124000Y-68500000D01*
X105876000Y-68500000D01*
X105943039Y-68519685D01*
G37*
%TD.AperFunction*%
%TD*%
%TA.AperFunction,Conductor*%
%TO.N,/G2IN*%
G36*
X101500000Y-71376000D02*
G01*
X101480315Y-71443039D01*
X101427511Y-71488794D01*
X101376000Y-71500000D01*
X101035943Y-71500000D01*
X100970847Y-71481539D01*
X100944340Y-71465189D01*
X100944335Y-71465187D01*
X100944334Y-71465186D01*
X100777797Y-71410001D01*
X100777795Y-71410000D01*
X100675010Y-71399500D01*
X99324998Y-71399500D01*
X99324981Y-71399501D01*
X99222203Y-71410000D01*
X99222200Y-71410001D01*
X99055662Y-71465187D01*
X99029152Y-71481539D01*
X98964056Y-71500000D01*
X98500000Y-71500000D01*
X98500000Y-72076877D01*
X98498738Y-72094523D01*
X98494500Y-72123998D01*
X98494500Y-73876007D01*
X98499289Y-73920541D01*
X98500000Y-73933797D01*
X98500000Y-77376000D01*
X98480315Y-77443039D01*
X98427511Y-77488794D01*
X98376000Y-77500000D01*
X96500000Y-77500000D01*
X96500000Y-70500000D01*
X101500000Y-70500000D01*
X101500000Y-71376000D01*
G37*
%TD.AperFunction*%
%TD*%
%TA.AperFunction,Conductor*%
%TO.N,/E2*%
G36*
X114943039Y-67620185D02*
G01*
X114988794Y-67672989D01*
X115000000Y-67724500D01*
X115000000Y-72376000D01*
X114980315Y-72443039D01*
X114927511Y-72488794D01*
X114876000Y-72500000D01*
X110124000Y-72500000D01*
X110056961Y-72480315D01*
X110011206Y-72427511D01*
X110000000Y-72376000D01*
X110000000Y-67724500D01*
X110019685Y-67657461D01*
X110072489Y-67611706D01*
X110124000Y-67600500D01*
X114876000Y-67600500D01*
X114943039Y-67620185D01*
G37*
%TD.AperFunction*%
%TD*%
%TA.AperFunction,Conductor*%
%TO.N,/E1*%
G36*
X76943039Y-67620185D02*
G01*
X76988794Y-67672989D01*
X77000000Y-67724500D01*
X77000000Y-72376000D01*
X76980315Y-72443039D01*
X76927511Y-72488794D01*
X76876000Y-72500000D01*
X72124000Y-72500000D01*
X72056961Y-72480315D01*
X72011206Y-72427511D01*
X72000000Y-72376000D01*
X72000000Y-67724500D01*
X72019685Y-67657461D01*
X72072489Y-67611706D01*
X72124000Y-67600500D01*
X76876000Y-67600500D01*
X76943039Y-67620185D01*
G37*
%TD.AperFunction*%
%TD*%
%TA.AperFunction,Conductor*%
%TO.N,/E2*%
G36*
X100943039Y-72019685D02*
G01*
X100988794Y-72072489D01*
X101000000Y-72124000D01*
X101000000Y-73876000D01*
X100980315Y-73943039D01*
X100927511Y-73988794D01*
X100876000Y-74000000D01*
X99124000Y-74000000D01*
X99056961Y-73980315D01*
X99011206Y-73927511D01*
X99000000Y-73876000D01*
X99000000Y-72124000D01*
X99019685Y-72056961D01*
X99072489Y-72011206D01*
X99124000Y-72000000D01*
X100876000Y-72000000D01*
X100943039Y-72019685D01*
G37*
%TD.AperFunction*%
%TD*%
%TA.AperFunction,Conductor*%
%TO.N,/E1*%
G36*
X87943039Y-72019685D02*
G01*
X87988794Y-72072489D01*
X88000000Y-72124000D01*
X88000000Y-73876000D01*
X87980315Y-73943039D01*
X87927511Y-73988794D01*
X87876000Y-74000000D01*
X86124000Y-74000000D01*
X86056961Y-73980315D01*
X86011206Y-73927511D01*
X86000000Y-73876000D01*
X86000000Y-72124000D01*
X86019685Y-72056961D01*
X86072489Y-72011206D01*
X86124000Y-72000000D01*
X87876000Y-72000000D01*
X87943039Y-72019685D01*
G37*
%TD.AperFunction*%
%TD*%
M02*
