%TF.GenerationSoftware,KiCad,Pcbnew,8.0.1*%
%TF.CreationDate,2024-07-11T23:08:47-04:00*%
%TF.ProjectId,booster-tc-driver,626f6f73-7465-4722-9d74-632d64726976,rev?*%
%TF.SameCoordinates,Original*%
%TF.FileFunction,Legend,Top*%
%TF.FilePolarity,Positive*%
%FSLAX46Y46*%
G04 Gerber Fmt 4.6, Leading zero omitted, Abs format (unit mm)*
G04 Created by KiCad (PCBNEW 8.0.1) date 2024-07-11 23:08:47*
%MOMM*%
%LPD*%
G01*
G04 APERTURE LIST*
%ADD10C,0.100000*%
%ADD11C,0.254000*%
%ADD12C,0.150000*%
%ADD13C,0.200000*%
%ADD14C,0.120000*%
%ADD15C,0.152400*%
%ADD16C,0.127000*%
G04 APERTURE END LIST*
D10*
X20000000Y-16000000D02*
X20000000Y-88000000D01*
X65300000Y-16000000D02*
X65300000Y-88000000D01*
D11*
X56574318Y-34489762D02*
X55304318Y-34489762D01*
X56453365Y-33159285D02*
X56513842Y-33219761D01*
X56513842Y-33219761D02*
X56574318Y-33401190D01*
X56574318Y-33401190D02*
X56574318Y-33522142D01*
X56574318Y-33522142D02*
X56513842Y-33703571D01*
X56513842Y-33703571D02*
X56392889Y-33824523D01*
X56392889Y-33824523D02*
X56271937Y-33885000D01*
X56271937Y-33885000D02*
X56030032Y-33945476D01*
X56030032Y-33945476D02*
X55848603Y-33945476D01*
X55848603Y-33945476D02*
X55606699Y-33885000D01*
X55606699Y-33885000D02*
X55485746Y-33824523D01*
X55485746Y-33824523D02*
X55364794Y-33703571D01*
X55364794Y-33703571D02*
X55304318Y-33522142D01*
X55304318Y-33522142D02*
X55304318Y-33401190D01*
X55304318Y-33401190D02*
X55364794Y-33219761D01*
X55364794Y-33219761D02*
X55425270Y-33159285D01*
X56574318Y-32554523D02*
X56574318Y-32312619D01*
X56574318Y-32312619D02*
X56513842Y-32191666D01*
X56513842Y-32191666D02*
X56453365Y-32131190D01*
X56453365Y-32131190D02*
X56271937Y-32010238D01*
X56271937Y-32010238D02*
X56030032Y-31949761D01*
X56030032Y-31949761D02*
X55546222Y-31949761D01*
X55546222Y-31949761D02*
X55425270Y-32010238D01*
X55425270Y-32010238D02*
X55364794Y-32070714D01*
X55364794Y-32070714D02*
X55304318Y-32191666D01*
X55304318Y-32191666D02*
X55304318Y-32433571D01*
X55304318Y-32433571D02*
X55364794Y-32554523D01*
X55364794Y-32554523D02*
X55425270Y-32615000D01*
X55425270Y-32615000D02*
X55546222Y-32675476D01*
X55546222Y-32675476D02*
X55848603Y-32675476D01*
X55848603Y-32675476D02*
X55969556Y-32615000D01*
X55969556Y-32615000D02*
X56030032Y-32554523D01*
X56030032Y-32554523D02*
X56090508Y-32433571D01*
X56090508Y-32433571D02*
X56090508Y-32191666D01*
X56090508Y-32191666D02*
X56030032Y-32070714D01*
X56030032Y-32070714D02*
X55969556Y-32010238D01*
X55969556Y-32010238D02*
X55848603Y-31949761D01*
X63074318Y-38239762D02*
X61804318Y-38239762D01*
X62953365Y-36909285D02*
X63013842Y-36969761D01*
X63013842Y-36969761D02*
X63074318Y-37151190D01*
X63074318Y-37151190D02*
X63074318Y-37272142D01*
X63074318Y-37272142D02*
X63013842Y-37453571D01*
X63013842Y-37453571D02*
X62892889Y-37574523D01*
X62892889Y-37574523D02*
X62771937Y-37635000D01*
X62771937Y-37635000D02*
X62530032Y-37695476D01*
X62530032Y-37695476D02*
X62348603Y-37695476D01*
X62348603Y-37695476D02*
X62106699Y-37635000D01*
X62106699Y-37635000D02*
X61985746Y-37574523D01*
X61985746Y-37574523D02*
X61864794Y-37453571D01*
X61864794Y-37453571D02*
X61804318Y-37272142D01*
X61804318Y-37272142D02*
X61804318Y-37151190D01*
X61804318Y-37151190D02*
X61864794Y-36969761D01*
X61864794Y-36969761D02*
X61925270Y-36909285D01*
X62348603Y-36183571D02*
X62288127Y-36304523D01*
X62288127Y-36304523D02*
X62227651Y-36365000D01*
X62227651Y-36365000D02*
X62106699Y-36425476D01*
X62106699Y-36425476D02*
X62046222Y-36425476D01*
X62046222Y-36425476D02*
X61925270Y-36365000D01*
X61925270Y-36365000D02*
X61864794Y-36304523D01*
X61864794Y-36304523D02*
X61804318Y-36183571D01*
X61804318Y-36183571D02*
X61804318Y-35941666D01*
X61804318Y-35941666D02*
X61864794Y-35820714D01*
X61864794Y-35820714D02*
X61925270Y-35760238D01*
X61925270Y-35760238D02*
X62046222Y-35699761D01*
X62046222Y-35699761D02*
X62106699Y-35699761D01*
X62106699Y-35699761D02*
X62227651Y-35760238D01*
X62227651Y-35760238D02*
X62288127Y-35820714D01*
X62288127Y-35820714D02*
X62348603Y-35941666D01*
X62348603Y-35941666D02*
X62348603Y-36183571D01*
X62348603Y-36183571D02*
X62409080Y-36304523D01*
X62409080Y-36304523D02*
X62469556Y-36365000D01*
X62469556Y-36365000D02*
X62590508Y-36425476D01*
X62590508Y-36425476D02*
X62832413Y-36425476D01*
X62832413Y-36425476D02*
X62953365Y-36365000D01*
X62953365Y-36365000D02*
X63013842Y-36304523D01*
X63013842Y-36304523D02*
X63074318Y-36183571D01*
X63074318Y-36183571D02*
X63074318Y-35941666D01*
X63074318Y-35941666D02*
X63013842Y-35820714D01*
X63013842Y-35820714D02*
X62953365Y-35760238D01*
X62953365Y-35760238D02*
X62832413Y-35699761D01*
X62832413Y-35699761D02*
X62590508Y-35699761D01*
X62590508Y-35699761D02*
X62469556Y-35760238D01*
X62469556Y-35760238D02*
X62409080Y-35820714D01*
X62409080Y-35820714D02*
X62348603Y-35941666D01*
X50959318Y-34489762D02*
X49689318Y-34489762D01*
X50838365Y-33159285D02*
X50898842Y-33219761D01*
X50898842Y-33219761D02*
X50959318Y-33401190D01*
X50959318Y-33401190D02*
X50959318Y-33522142D01*
X50959318Y-33522142D02*
X50898842Y-33703571D01*
X50898842Y-33703571D02*
X50777889Y-33824523D01*
X50777889Y-33824523D02*
X50656937Y-33885000D01*
X50656937Y-33885000D02*
X50415032Y-33945476D01*
X50415032Y-33945476D02*
X50233603Y-33945476D01*
X50233603Y-33945476D02*
X49991699Y-33885000D01*
X49991699Y-33885000D02*
X49870746Y-33824523D01*
X49870746Y-33824523D02*
X49749794Y-33703571D01*
X49749794Y-33703571D02*
X49689318Y-33522142D01*
X49689318Y-33522142D02*
X49689318Y-33401190D01*
X49689318Y-33401190D02*
X49749794Y-33219761D01*
X49749794Y-33219761D02*
X49810270Y-33159285D01*
X49689318Y-32735952D02*
X49689318Y-31889285D01*
X49689318Y-31889285D02*
X50959318Y-32433571D01*
X43824318Y-38489762D02*
X42554318Y-38489762D01*
X43703365Y-37159285D02*
X43763842Y-37219761D01*
X43763842Y-37219761D02*
X43824318Y-37401190D01*
X43824318Y-37401190D02*
X43824318Y-37522142D01*
X43824318Y-37522142D02*
X43763842Y-37703571D01*
X43763842Y-37703571D02*
X43642889Y-37824523D01*
X43642889Y-37824523D02*
X43521937Y-37885000D01*
X43521937Y-37885000D02*
X43280032Y-37945476D01*
X43280032Y-37945476D02*
X43098603Y-37945476D01*
X43098603Y-37945476D02*
X42856699Y-37885000D01*
X42856699Y-37885000D02*
X42735746Y-37824523D01*
X42735746Y-37824523D02*
X42614794Y-37703571D01*
X42614794Y-37703571D02*
X42554318Y-37522142D01*
X42554318Y-37522142D02*
X42554318Y-37401190D01*
X42554318Y-37401190D02*
X42614794Y-37219761D01*
X42614794Y-37219761D02*
X42675270Y-37159285D01*
X42554318Y-36070714D02*
X42554318Y-36312619D01*
X42554318Y-36312619D02*
X42614794Y-36433571D01*
X42614794Y-36433571D02*
X42675270Y-36494047D01*
X42675270Y-36494047D02*
X42856699Y-36615000D01*
X42856699Y-36615000D02*
X43098603Y-36675476D01*
X43098603Y-36675476D02*
X43582413Y-36675476D01*
X43582413Y-36675476D02*
X43703365Y-36615000D01*
X43703365Y-36615000D02*
X43763842Y-36554523D01*
X43763842Y-36554523D02*
X43824318Y-36433571D01*
X43824318Y-36433571D02*
X43824318Y-36191666D01*
X43824318Y-36191666D02*
X43763842Y-36070714D01*
X43763842Y-36070714D02*
X43703365Y-36010238D01*
X43703365Y-36010238D02*
X43582413Y-35949761D01*
X43582413Y-35949761D02*
X43280032Y-35949761D01*
X43280032Y-35949761D02*
X43159080Y-36010238D01*
X43159080Y-36010238D02*
X43098603Y-36070714D01*
X43098603Y-36070714D02*
X43038127Y-36191666D01*
X43038127Y-36191666D02*
X43038127Y-36433571D01*
X43038127Y-36433571D02*
X43098603Y-36554523D01*
X43098603Y-36554523D02*
X43159080Y-36615000D01*
X43159080Y-36615000D02*
X43280032Y-36675476D01*
D12*
X49459580Y-57392857D02*
X49507200Y-57440476D01*
X49507200Y-57440476D02*
X49554819Y-57583333D01*
X49554819Y-57583333D02*
X49554819Y-57678571D01*
X49554819Y-57678571D02*
X49507200Y-57821428D01*
X49507200Y-57821428D02*
X49411961Y-57916666D01*
X49411961Y-57916666D02*
X49316723Y-57964285D01*
X49316723Y-57964285D02*
X49126247Y-58011904D01*
X49126247Y-58011904D02*
X48983390Y-58011904D01*
X48983390Y-58011904D02*
X48792914Y-57964285D01*
X48792914Y-57964285D02*
X48697676Y-57916666D01*
X48697676Y-57916666D02*
X48602438Y-57821428D01*
X48602438Y-57821428D02*
X48554819Y-57678571D01*
X48554819Y-57678571D02*
X48554819Y-57583333D01*
X48554819Y-57583333D02*
X48602438Y-57440476D01*
X48602438Y-57440476D02*
X48650057Y-57392857D01*
X49554819Y-56440476D02*
X49554819Y-57011904D01*
X49554819Y-56726190D02*
X48554819Y-56726190D01*
X48554819Y-56726190D02*
X48697676Y-56821428D01*
X48697676Y-56821428D02*
X48792914Y-56916666D01*
X48792914Y-56916666D02*
X48840533Y-57011904D01*
X48983390Y-55869047D02*
X48935771Y-55964285D01*
X48935771Y-55964285D02*
X48888152Y-56011904D01*
X48888152Y-56011904D02*
X48792914Y-56059523D01*
X48792914Y-56059523D02*
X48745295Y-56059523D01*
X48745295Y-56059523D02*
X48650057Y-56011904D01*
X48650057Y-56011904D02*
X48602438Y-55964285D01*
X48602438Y-55964285D02*
X48554819Y-55869047D01*
X48554819Y-55869047D02*
X48554819Y-55678571D01*
X48554819Y-55678571D02*
X48602438Y-55583333D01*
X48602438Y-55583333D02*
X48650057Y-55535714D01*
X48650057Y-55535714D02*
X48745295Y-55488095D01*
X48745295Y-55488095D02*
X48792914Y-55488095D01*
X48792914Y-55488095D02*
X48888152Y-55535714D01*
X48888152Y-55535714D02*
X48935771Y-55583333D01*
X48935771Y-55583333D02*
X48983390Y-55678571D01*
X48983390Y-55678571D02*
X48983390Y-55869047D01*
X48983390Y-55869047D02*
X49031009Y-55964285D01*
X49031009Y-55964285D02*
X49078628Y-56011904D01*
X49078628Y-56011904D02*
X49173866Y-56059523D01*
X49173866Y-56059523D02*
X49364342Y-56059523D01*
X49364342Y-56059523D02*
X49459580Y-56011904D01*
X49459580Y-56011904D02*
X49507200Y-55964285D01*
X49507200Y-55964285D02*
X49554819Y-55869047D01*
X49554819Y-55869047D02*
X49554819Y-55678571D01*
X49554819Y-55678571D02*
X49507200Y-55583333D01*
X49507200Y-55583333D02*
X49459580Y-55535714D01*
X49459580Y-55535714D02*
X49364342Y-55488095D01*
X49364342Y-55488095D02*
X49173866Y-55488095D01*
X49173866Y-55488095D02*
X49078628Y-55535714D01*
X49078628Y-55535714D02*
X49031009Y-55583333D01*
X49031009Y-55583333D02*
X48983390Y-55678571D01*
X54059580Y-85392857D02*
X54107200Y-85440476D01*
X54107200Y-85440476D02*
X54154819Y-85583333D01*
X54154819Y-85583333D02*
X54154819Y-85678571D01*
X54154819Y-85678571D02*
X54107200Y-85821428D01*
X54107200Y-85821428D02*
X54011961Y-85916666D01*
X54011961Y-85916666D02*
X53916723Y-85964285D01*
X53916723Y-85964285D02*
X53726247Y-86011904D01*
X53726247Y-86011904D02*
X53583390Y-86011904D01*
X53583390Y-86011904D02*
X53392914Y-85964285D01*
X53392914Y-85964285D02*
X53297676Y-85916666D01*
X53297676Y-85916666D02*
X53202438Y-85821428D01*
X53202438Y-85821428D02*
X53154819Y-85678571D01*
X53154819Y-85678571D02*
X53154819Y-85583333D01*
X53154819Y-85583333D02*
X53202438Y-85440476D01*
X53202438Y-85440476D02*
X53250057Y-85392857D01*
X54154819Y-84440476D02*
X54154819Y-85011904D01*
X54154819Y-84726190D02*
X53154819Y-84726190D01*
X53154819Y-84726190D02*
X53297676Y-84821428D01*
X53297676Y-84821428D02*
X53392914Y-84916666D01*
X53392914Y-84916666D02*
X53440533Y-85011904D01*
X53154819Y-83535714D02*
X53154819Y-84011904D01*
X53154819Y-84011904D02*
X53631009Y-84059523D01*
X53631009Y-84059523D02*
X53583390Y-84011904D01*
X53583390Y-84011904D02*
X53535771Y-83916666D01*
X53535771Y-83916666D02*
X53535771Y-83678571D01*
X53535771Y-83678571D02*
X53583390Y-83583333D01*
X53583390Y-83583333D02*
X53631009Y-83535714D01*
X53631009Y-83535714D02*
X53726247Y-83488095D01*
X53726247Y-83488095D02*
X53964342Y-83488095D01*
X53964342Y-83488095D02*
X54059580Y-83535714D01*
X54059580Y-83535714D02*
X54107200Y-83583333D01*
X54107200Y-83583333D02*
X54154819Y-83678571D01*
X54154819Y-83678571D02*
X54154819Y-83916666D01*
X54154819Y-83916666D02*
X54107200Y-84011904D01*
X54107200Y-84011904D02*
X54059580Y-84059523D01*
X31104819Y-74916666D02*
X30628628Y-75249999D01*
X31104819Y-75488094D02*
X30104819Y-75488094D01*
X30104819Y-75488094D02*
X30104819Y-75107142D01*
X30104819Y-75107142D02*
X30152438Y-75011904D01*
X30152438Y-75011904D02*
X30200057Y-74964285D01*
X30200057Y-74964285D02*
X30295295Y-74916666D01*
X30295295Y-74916666D02*
X30438152Y-74916666D01*
X30438152Y-74916666D02*
X30533390Y-74964285D01*
X30533390Y-74964285D02*
X30581009Y-75011904D01*
X30581009Y-75011904D02*
X30628628Y-75107142D01*
X30628628Y-75107142D02*
X30628628Y-75488094D01*
X30104819Y-74059523D02*
X30104819Y-74249999D01*
X30104819Y-74249999D02*
X30152438Y-74345237D01*
X30152438Y-74345237D02*
X30200057Y-74392856D01*
X30200057Y-74392856D02*
X30342914Y-74488094D01*
X30342914Y-74488094D02*
X30533390Y-74535713D01*
X30533390Y-74535713D02*
X30914342Y-74535713D01*
X30914342Y-74535713D02*
X31009580Y-74488094D01*
X31009580Y-74488094D02*
X31057200Y-74440475D01*
X31057200Y-74440475D02*
X31104819Y-74345237D01*
X31104819Y-74345237D02*
X31104819Y-74154761D01*
X31104819Y-74154761D02*
X31057200Y-74059523D01*
X31057200Y-74059523D02*
X31009580Y-74011904D01*
X31009580Y-74011904D02*
X30914342Y-73964285D01*
X30914342Y-73964285D02*
X30676247Y-73964285D01*
X30676247Y-73964285D02*
X30581009Y-74011904D01*
X30581009Y-74011904D02*
X30533390Y-74059523D01*
X30533390Y-74059523D02*
X30485771Y-74154761D01*
X30485771Y-74154761D02*
X30485771Y-74345237D01*
X30485771Y-74345237D02*
X30533390Y-74440475D01*
X30533390Y-74440475D02*
X30581009Y-74488094D01*
X30581009Y-74488094D02*
X30676247Y-74535713D01*
X22064819Y-53748094D02*
X21064819Y-53748094D01*
X21064819Y-53748094D02*
X21064819Y-53509999D01*
X21064819Y-53509999D02*
X21112438Y-53367142D01*
X21112438Y-53367142D02*
X21207676Y-53271904D01*
X21207676Y-53271904D02*
X21302914Y-53224285D01*
X21302914Y-53224285D02*
X21493390Y-53176666D01*
X21493390Y-53176666D02*
X21636247Y-53176666D01*
X21636247Y-53176666D02*
X21826723Y-53224285D01*
X21826723Y-53224285D02*
X21921961Y-53271904D01*
X21921961Y-53271904D02*
X22017200Y-53367142D01*
X22017200Y-53367142D02*
X22064819Y-53509999D01*
X22064819Y-53509999D02*
X22064819Y-53748094D01*
X21064819Y-52843332D02*
X21064819Y-52176666D01*
X21064819Y-52176666D02*
X22064819Y-52605237D01*
X59429580Y-58142857D02*
X59477200Y-58190476D01*
X59477200Y-58190476D02*
X59524819Y-58333333D01*
X59524819Y-58333333D02*
X59524819Y-58428571D01*
X59524819Y-58428571D02*
X59477200Y-58571428D01*
X59477200Y-58571428D02*
X59381961Y-58666666D01*
X59381961Y-58666666D02*
X59286723Y-58714285D01*
X59286723Y-58714285D02*
X59096247Y-58761904D01*
X59096247Y-58761904D02*
X58953390Y-58761904D01*
X58953390Y-58761904D02*
X58762914Y-58714285D01*
X58762914Y-58714285D02*
X58667676Y-58666666D01*
X58667676Y-58666666D02*
X58572438Y-58571428D01*
X58572438Y-58571428D02*
X58524819Y-58428571D01*
X58524819Y-58428571D02*
X58524819Y-58333333D01*
X58524819Y-58333333D02*
X58572438Y-58190476D01*
X58572438Y-58190476D02*
X58620057Y-58142857D01*
X58524819Y-57238095D02*
X58524819Y-57714285D01*
X58524819Y-57714285D02*
X59001009Y-57761904D01*
X59001009Y-57761904D02*
X58953390Y-57714285D01*
X58953390Y-57714285D02*
X58905771Y-57619047D01*
X58905771Y-57619047D02*
X58905771Y-57380952D01*
X58905771Y-57380952D02*
X58953390Y-57285714D01*
X58953390Y-57285714D02*
X59001009Y-57238095D01*
X59001009Y-57238095D02*
X59096247Y-57190476D01*
X59096247Y-57190476D02*
X59334342Y-57190476D01*
X59334342Y-57190476D02*
X59429580Y-57238095D01*
X59429580Y-57238095D02*
X59477200Y-57285714D01*
X59477200Y-57285714D02*
X59524819Y-57380952D01*
X59524819Y-57380952D02*
X59524819Y-57619047D01*
X59524819Y-57619047D02*
X59477200Y-57714285D01*
X59477200Y-57714285D02*
X59429580Y-57761904D01*
X58524819Y-56333333D02*
X58524819Y-56523809D01*
X58524819Y-56523809D02*
X58572438Y-56619047D01*
X58572438Y-56619047D02*
X58620057Y-56666666D01*
X58620057Y-56666666D02*
X58762914Y-56761904D01*
X58762914Y-56761904D02*
X58953390Y-56809523D01*
X58953390Y-56809523D02*
X59334342Y-56809523D01*
X59334342Y-56809523D02*
X59429580Y-56761904D01*
X59429580Y-56761904D02*
X59477200Y-56714285D01*
X59477200Y-56714285D02*
X59524819Y-56619047D01*
X59524819Y-56619047D02*
X59524819Y-56428571D01*
X59524819Y-56428571D02*
X59477200Y-56333333D01*
X59477200Y-56333333D02*
X59429580Y-56285714D01*
X59429580Y-56285714D02*
X59334342Y-56238095D01*
X59334342Y-56238095D02*
X59096247Y-56238095D01*
X59096247Y-56238095D02*
X59001009Y-56285714D01*
X59001009Y-56285714D02*
X58953390Y-56333333D01*
X58953390Y-56333333D02*
X58905771Y-56428571D01*
X58905771Y-56428571D02*
X58905771Y-56619047D01*
X58905771Y-56619047D02*
X58953390Y-56714285D01*
X58953390Y-56714285D02*
X59001009Y-56761904D01*
X59001009Y-56761904D02*
X59096247Y-56809523D01*
X24309580Y-75892857D02*
X24357200Y-75940476D01*
X24357200Y-75940476D02*
X24404819Y-76083333D01*
X24404819Y-76083333D02*
X24404819Y-76178571D01*
X24404819Y-76178571D02*
X24357200Y-76321428D01*
X24357200Y-76321428D02*
X24261961Y-76416666D01*
X24261961Y-76416666D02*
X24166723Y-76464285D01*
X24166723Y-76464285D02*
X23976247Y-76511904D01*
X23976247Y-76511904D02*
X23833390Y-76511904D01*
X23833390Y-76511904D02*
X23642914Y-76464285D01*
X23642914Y-76464285D02*
X23547676Y-76416666D01*
X23547676Y-76416666D02*
X23452438Y-76321428D01*
X23452438Y-76321428D02*
X23404819Y-76178571D01*
X23404819Y-76178571D02*
X23404819Y-76083333D01*
X23404819Y-76083333D02*
X23452438Y-75940476D01*
X23452438Y-75940476D02*
X23500057Y-75892857D01*
X24404819Y-74940476D02*
X24404819Y-75511904D01*
X24404819Y-75226190D02*
X23404819Y-75226190D01*
X23404819Y-75226190D02*
X23547676Y-75321428D01*
X23547676Y-75321428D02*
X23642914Y-75416666D01*
X23642914Y-75416666D02*
X23690533Y-75511904D01*
X23404819Y-74083333D02*
X23404819Y-74273809D01*
X23404819Y-74273809D02*
X23452438Y-74369047D01*
X23452438Y-74369047D02*
X23500057Y-74416666D01*
X23500057Y-74416666D02*
X23642914Y-74511904D01*
X23642914Y-74511904D02*
X23833390Y-74559523D01*
X23833390Y-74559523D02*
X24214342Y-74559523D01*
X24214342Y-74559523D02*
X24309580Y-74511904D01*
X24309580Y-74511904D02*
X24357200Y-74464285D01*
X24357200Y-74464285D02*
X24404819Y-74369047D01*
X24404819Y-74369047D02*
X24404819Y-74178571D01*
X24404819Y-74178571D02*
X24357200Y-74083333D01*
X24357200Y-74083333D02*
X24309580Y-74035714D01*
X24309580Y-74035714D02*
X24214342Y-73988095D01*
X24214342Y-73988095D02*
X23976247Y-73988095D01*
X23976247Y-73988095D02*
X23881009Y-74035714D01*
X23881009Y-74035714D02*
X23833390Y-74083333D01*
X23833390Y-74083333D02*
X23785771Y-74178571D01*
X23785771Y-74178571D02*
X23785771Y-74369047D01*
X23785771Y-74369047D02*
X23833390Y-74464285D01*
X23833390Y-74464285D02*
X23881009Y-74511904D01*
X23881009Y-74511904D02*
X23976247Y-74559523D01*
X55857142Y-36759580D02*
X55809523Y-36807200D01*
X55809523Y-36807200D02*
X55666666Y-36854819D01*
X55666666Y-36854819D02*
X55571428Y-36854819D01*
X55571428Y-36854819D02*
X55428571Y-36807200D01*
X55428571Y-36807200D02*
X55333333Y-36711961D01*
X55333333Y-36711961D02*
X55285714Y-36616723D01*
X55285714Y-36616723D02*
X55238095Y-36426247D01*
X55238095Y-36426247D02*
X55238095Y-36283390D01*
X55238095Y-36283390D02*
X55285714Y-36092914D01*
X55285714Y-36092914D02*
X55333333Y-35997676D01*
X55333333Y-35997676D02*
X55428571Y-35902438D01*
X55428571Y-35902438D02*
X55571428Y-35854819D01*
X55571428Y-35854819D02*
X55666666Y-35854819D01*
X55666666Y-35854819D02*
X55809523Y-35902438D01*
X55809523Y-35902438D02*
X55857142Y-35950057D01*
X56714285Y-35854819D02*
X56523809Y-35854819D01*
X56523809Y-35854819D02*
X56428571Y-35902438D01*
X56428571Y-35902438D02*
X56380952Y-35950057D01*
X56380952Y-35950057D02*
X56285714Y-36092914D01*
X56285714Y-36092914D02*
X56238095Y-36283390D01*
X56238095Y-36283390D02*
X56238095Y-36664342D01*
X56238095Y-36664342D02*
X56285714Y-36759580D01*
X56285714Y-36759580D02*
X56333333Y-36807200D01*
X56333333Y-36807200D02*
X56428571Y-36854819D01*
X56428571Y-36854819D02*
X56619047Y-36854819D01*
X56619047Y-36854819D02*
X56714285Y-36807200D01*
X56714285Y-36807200D02*
X56761904Y-36759580D01*
X56761904Y-36759580D02*
X56809523Y-36664342D01*
X56809523Y-36664342D02*
X56809523Y-36426247D01*
X56809523Y-36426247D02*
X56761904Y-36331009D01*
X56761904Y-36331009D02*
X56714285Y-36283390D01*
X56714285Y-36283390D02*
X56619047Y-36235771D01*
X56619047Y-36235771D02*
X56428571Y-36235771D01*
X56428571Y-36235771D02*
X56333333Y-36283390D01*
X56333333Y-36283390D02*
X56285714Y-36331009D01*
X56285714Y-36331009D02*
X56238095Y-36426247D01*
X57428571Y-35854819D02*
X57523809Y-35854819D01*
X57523809Y-35854819D02*
X57619047Y-35902438D01*
X57619047Y-35902438D02*
X57666666Y-35950057D01*
X57666666Y-35950057D02*
X57714285Y-36045295D01*
X57714285Y-36045295D02*
X57761904Y-36235771D01*
X57761904Y-36235771D02*
X57761904Y-36473866D01*
X57761904Y-36473866D02*
X57714285Y-36664342D01*
X57714285Y-36664342D02*
X57666666Y-36759580D01*
X57666666Y-36759580D02*
X57619047Y-36807200D01*
X57619047Y-36807200D02*
X57523809Y-36854819D01*
X57523809Y-36854819D02*
X57428571Y-36854819D01*
X57428571Y-36854819D02*
X57333333Y-36807200D01*
X57333333Y-36807200D02*
X57285714Y-36759580D01*
X57285714Y-36759580D02*
X57238095Y-36664342D01*
X57238095Y-36664342D02*
X57190476Y-36473866D01*
X57190476Y-36473866D02*
X57190476Y-36235771D01*
X57190476Y-36235771D02*
X57238095Y-36045295D01*
X57238095Y-36045295D02*
X57285714Y-35950057D01*
X57285714Y-35950057D02*
X57333333Y-35902438D01*
X57333333Y-35902438D02*
X57428571Y-35854819D01*
X63189580Y-63642857D02*
X63237200Y-63690476D01*
X63237200Y-63690476D02*
X63284819Y-63833333D01*
X63284819Y-63833333D02*
X63284819Y-63928571D01*
X63284819Y-63928571D02*
X63237200Y-64071428D01*
X63237200Y-64071428D02*
X63141961Y-64166666D01*
X63141961Y-64166666D02*
X63046723Y-64214285D01*
X63046723Y-64214285D02*
X62856247Y-64261904D01*
X62856247Y-64261904D02*
X62713390Y-64261904D01*
X62713390Y-64261904D02*
X62522914Y-64214285D01*
X62522914Y-64214285D02*
X62427676Y-64166666D01*
X62427676Y-64166666D02*
X62332438Y-64071428D01*
X62332438Y-64071428D02*
X62284819Y-63928571D01*
X62284819Y-63928571D02*
X62284819Y-63833333D01*
X62284819Y-63833333D02*
X62332438Y-63690476D01*
X62332438Y-63690476D02*
X62380057Y-63642857D01*
X63284819Y-62690476D02*
X63284819Y-63261904D01*
X63284819Y-62976190D02*
X62284819Y-62976190D01*
X62284819Y-62976190D02*
X62427676Y-63071428D01*
X62427676Y-63071428D02*
X62522914Y-63166666D01*
X62522914Y-63166666D02*
X62570533Y-63261904D01*
X62380057Y-62309523D02*
X62332438Y-62261904D01*
X62332438Y-62261904D02*
X62284819Y-62166666D01*
X62284819Y-62166666D02*
X62284819Y-61928571D01*
X62284819Y-61928571D02*
X62332438Y-61833333D01*
X62332438Y-61833333D02*
X62380057Y-61785714D01*
X62380057Y-61785714D02*
X62475295Y-61738095D01*
X62475295Y-61738095D02*
X62570533Y-61738095D01*
X62570533Y-61738095D02*
X62713390Y-61785714D01*
X62713390Y-61785714D02*
X63284819Y-62357142D01*
X63284819Y-62357142D02*
X63284819Y-61738095D01*
X62607142Y-60384819D02*
X62273809Y-59908628D01*
X62035714Y-60384819D02*
X62035714Y-59384819D01*
X62035714Y-59384819D02*
X62416666Y-59384819D01*
X62416666Y-59384819D02*
X62511904Y-59432438D01*
X62511904Y-59432438D02*
X62559523Y-59480057D01*
X62559523Y-59480057D02*
X62607142Y-59575295D01*
X62607142Y-59575295D02*
X62607142Y-59718152D01*
X62607142Y-59718152D02*
X62559523Y-59813390D01*
X62559523Y-59813390D02*
X62511904Y-59861009D01*
X62511904Y-59861009D02*
X62416666Y-59908628D01*
X62416666Y-59908628D02*
X62035714Y-59908628D01*
X62988095Y-59480057D02*
X63035714Y-59432438D01*
X63035714Y-59432438D02*
X63130952Y-59384819D01*
X63130952Y-59384819D02*
X63369047Y-59384819D01*
X63369047Y-59384819D02*
X63464285Y-59432438D01*
X63464285Y-59432438D02*
X63511904Y-59480057D01*
X63511904Y-59480057D02*
X63559523Y-59575295D01*
X63559523Y-59575295D02*
X63559523Y-59670533D01*
X63559523Y-59670533D02*
X63511904Y-59813390D01*
X63511904Y-59813390D02*
X62940476Y-60384819D01*
X62940476Y-60384819D02*
X63559523Y-60384819D01*
X64035714Y-60384819D02*
X64226190Y-60384819D01*
X64226190Y-60384819D02*
X64321428Y-60337200D01*
X64321428Y-60337200D02*
X64369047Y-60289580D01*
X64369047Y-60289580D02*
X64464285Y-60146723D01*
X64464285Y-60146723D02*
X64511904Y-59956247D01*
X64511904Y-59956247D02*
X64511904Y-59575295D01*
X64511904Y-59575295D02*
X64464285Y-59480057D01*
X64464285Y-59480057D02*
X64416666Y-59432438D01*
X64416666Y-59432438D02*
X64321428Y-59384819D01*
X64321428Y-59384819D02*
X64130952Y-59384819D01*
X64130952Y-59384819D02*
X64035714Y-59432438D01*
X64035714Y-59432438D02*
X63988095Y-59480057D01*
X63988095Y-59480057D02*
X63940476Y-59575295D01*
X63940476Y-59575295D02*
X63940476Y-59813390D01*
X63940476Y-59813390D02*
X63988095Y-59908628D01*
X63988095Y-59908628D02*
X64035714Y-59956247D01*
X64035714Y-59956247D02*
X64130952Y-60003866D01*
X64130952Y-60003866D02*
X64321428Y-60003866D01*
X64321428Y-60003866D02*
X64416666Y-59956247D01*
X64416666Y-59956247D02*
X64464285Y-59908628D01*
X64464285Y-59908628D02*
X64511904Y-59813390D01*
X52333333Y-79729819D02*
X52000000Y-79253628D01*
X51761905Y-79729819D02*
X51761905Y-78729819D01*
X51761905Y-78729819D02*
X52142857Y-78729819D01*
X52142857Y-78729819D02*
X52238095Y-78777438D01*
X52238095Y-78777438D02*
X52285714Y-78825057D01*
X52285714Y-78825057D02*
X52333333Y-78920295D01*
X52333333Y-78920295D02*
X52333333Y-79063152D01*
X52333333Y-79063152D02*
X52285714Y-79158390D01*
X52285714Y-79158390D02*
X52238095Y-79206009D01*
X52238095Y-79206009D02*
X52142857Y-79253628D01*
X52142857Y-79253628D02*
X51761905Y-79253628D01*
X53190476Y-79063152D02*
X53190476Y-79729819D01*
X52952381Y-78682200D02*
X52714286Y-79396485D01*
X52714286Y-79396485D02*
X53333333Y-79396485D01*
X53357142Y-40054819D02*
X53023809Y-39578628D01*
X52785714Y-40054819D02*
X52785714Y-39054819D01*
X52785714Y-39054819D02*
X53166666Y-39054819D01*
X53166666Y-39054819D02*
X53261904Y-39102438D01*
X53261904Y-39102438D02*
X53309523Y-39150057D01*
X53309523Y-39150057D02*
X53357142Y-39245295D01*
X53357142Y-39245295D02*
X53357142Y-39388152D01*
X53357142Y-39388152D02*
X53309523Y-39483390D01*
X53309523Y-39483390D02*
X53261904Y-39531009D01*
X53261904Y-39531009D02*
X53166666Y-39578628D01*
X53166666Y-39578628D02*
X52785714Y-39578628D01*
X53690476Y-39054819D02*
X54309523Y-39054819D01*
X54309523Y-39054819D02*
X53976190Y-39435771D01*
X53976190Y-39435771D02*
X54119047Y-39435771D01*
X54119047Y-39435771D02*
X54214285Y-39483390D01*
X54214285Y-39483390D02*
X54261904Y-39531009D01*
X54261904Y-39531009D02*
X54309523Y-39626247D01*
X54309523Y-39626247D02*
X54309523Y-39864342D01*
X54309523Y-39864342D02*
X54261904Y-39959580D01*
X54261904Y-39959580D02*
X54214285Y-40007200D01*
X54214285Y-40007200D02*
X54119047Y-40054819D01*
X54119047Y-40054819D02*
X53833333Y-40054819D01*
X53833333Y-40054819D02*
X53738095Y-40007200D01*
X53738095Y-40007200D02*
X53690476Y-39959580D01*
X55261904Y-40054819D02*
X54690476Y-40054819D01*
X54976190Y-40054819D02*
X54976190Y-39054819D01*
X54976190Y-39054819D02*
X54880952Y-39197676D01*
X54880952Y-39197676D02*
X54785714Y-39292914D01*
X54785714Y-39292914D02*
X54690476Y-39340533D01*
X55607142Y-73539580D02*
X55559523Y-73587200D01*
X55559523Y-73587200D02*
X55416666Y-73634819D01*
X55416666Y-73634819D02*
X55321428Y-73634819D01*
X55321428Y-73634819D02*
X55178571Y-73587200D01*
X55178571Y-73587200D02*
X55083333Y-73491961D01*
X55083333Y-73491961D02*
X55035714Y-73396723D01*
X55035714Y-73396723D02*
X54988095Y-73206247D01*
X54988095Y-73206247D02*
X54988095Y-73063390D01*
X54988095Y-73063390D02*
X55035714Y-72872914D01*
X55035714Y-72872914D02*
X55083333Y-72777676D01*
X55083333Y-72777676D02*
X55178571Y-72682438D01*
X55178571Y-72682438D02*
X55321428Y-72634819D01*
X55321428Y-72634819D02*
X55416666Y-72634819D01*
X55416666Y-72634819D02*
X55559523Y-72682438D01*
X55559523Y-72682438D02*
X55607142Y-72730057D01*
X56511904Y-72634819D02*
X56035714Y-72634819D01*
X56035714Y-72634819D02*
X55988095Y-73111009D01*
X55988095Y-73111009D02*
X56035714Y-73063390D01*
X56035714Y-73063390D02*
X56130952Y-73015771D01*
X56130952Y-73015771D02*
X56369047Y-73015771D01*
X56369047Y-73015771D02*
X56464285Y-73063390D01*
X56464285Y-73063390D02*
X56511904Y-73111009D01*
X56511904Y-73111009D02*
X56559523Y-73206247D01*
X56559523Y-73206247D02*
X56559523Y-73444342D01*
X56559523Y-73444342D02*
X56511904Y-73539580D01*
X56511904Y-73539580D02*
X56464285Y-73587200D01*
X56464285Y-73587200D02*
X56369047Y-73634819D01*
X56369047Y-73634819D02*
X56130952Y-73634819D01*
X56130952Y-73634819D02*
X56035714Y-73587200D01*
X56035714Y-73587200D02*
X55988095Y-73539580D01*
X57178571Y-72634819D02*
X57273809Y-72634819D01*
X57273809Y-72634819D02*
X57369047Y-72682438D01*
X57369047Y-72682438D02*
X57416666Y-72730057D01*
X57416666Y-72730057D02*
X57464285Y-72825295D01*
X57464285Y-72825295D02*
X57511904Y-73015771D01*
X57511904Y-73015771D02*
X57511904Y-73253866D01*
X57511904Y-73253866D02*
X57464285Y-73444342D01*
X57464285Y-73444342D02*
X57416666Y-73539580D01*
X57416666Y-73539580D02*
X57369047Y-73587200D01*
X57369047Y-73587200D02*
X57273809Y-73634819D01*
X57273809Y-73634819D02*
X57178571Y-73634819D01*
X57178571Y-73634819D02*
X57083333Y-73587200D01*
X57083333Y-73587200D02*
X57035714Y-73539580D01*
X57035714Y-73539580D02*
X56988095Y-73444342D01*
X56988095Y-73444342D02*
X56940476Y-73253866D01*
X56940476Y-73253866D02*
X56940476Y-73015771D01*
X56940476Y-73015771D02*
X56988095Y-72825295D01*
X56988095Y-72825295D02*
X57035714Y-72730057D01*
X57035714Y-72730057D02*
X57083333Y-72682438D01*
X57083333Y-72682438D02*
X57178571Y-72634819D01*
X38771905Y-48094819D02*
X38771905Y-47094819D01*
X38771905Y-47094819D02*
X39010000Y-47094819D01*
X39010000Y-47094819D02*
X39152857Y-47142438D01*
X39152857Y-47142438D02*
X39248095Y-47237676D01*
X39248095Y-47237676D02*
X39295714Y-47332914D01*
X39295714Y-47332914D02*
X39343333Y-47523390D01*
X39343333Y-47523390D02*
X39343333Y-47666247D01*
X39343333Y-47666247D02*
X39295714Y-47856723D01*
X39295714Y-47856723D02*
X39248095Y-47951961D01*
X39248095Y-47951961D02*
X39152857Y-48047200D01*
X39152857Y-48047200D02*
X39010000Y-48094819D01*
X39010000Y-48094819D02*
X38771905Y-48094819D01*
X39914762Y-47523390D02*
X39819524Y-47475771D01*
X39819524Y-47475771D02*
X39771905Y-47428152D01*
X39771905Y-47428152D02*
X39724286Y-47332914D01*
X39724286Y-47332914D02*
X39724286Y-47285295D01*
X39724286Y-47285295D02*
X39771905Y-47190057D01*
X39771905Y-47190057D02*
X39819524Y-47142438D01*
X39819524Y-47142438D02*
X39914762Y-47094819D01*
X39914762Y-47094819D02*
X40105238Y-47094819D01*
X40105238Y-47094819D02*
X40200476Y-47142438D01*
X40200476Y-47142438D02*
X40248095Y-47190057D01*
X40248095Y-47190057D02*
X40295714Y-47285295D01*
X40295714Y-47285295D02*
X40295714Y-47332914D01*
X40295714Y-47332914D02*
X40248095Y-47428152D01*
X40248095Y-47428152D02*
X40200476Y-47475771D01*
X40200476Y-47475771D02*
X40105238Y-47523390D01*
X40105238Y-47523390D02*
X39914762Y-47523390D01*
X39914762Y-47523390D02*
X39819524Y-47571009D01*
X39819524Y-47571009D02*
X39771905Y-47618628D01*
X39771905Y-47618628D02*
X39724286Y-47713866D01*
X39724286Y-47713866D02*
X39724286Y-47904342D01*
X39724286Y-47904342D02*
X39771905Y-47999580D01*
X39771905Y-47999580D02*
X39819524Y-48047200D01*
X39819524Y-48047200D02*
X39914762Y-48094819D01*
X39914762Y-48094819D02*
X40105238Y-48094819D01*
X40105238Y-48094819D02*
X40200476Y-48047200D01*
X40200476Y-48047200D02*
X40248095Y-47999580D01*
X40248095Y-47999580D02*
X40295714Y-47904342D01*
X40295714Y-47904342D02*
X40295714Y-47713866D01*
X40295714Y-47713866D02*
X40248095Y-47618628D01*
X40248095Y-47618628D02*
X40200476Y-47571009D01*
X40200476Y-47571009D02*
X40105238Y-47523390D01*
X42946666Y-13994819D02*
X42946666Y-14709104D01*
X42946666Y-14709104D02*
X42899047Y-14851961D01*
X42899047Y-14851961D02*
X42803809Y-14947200D01*
X42803809Y-14947200D02*
X42660952Y-14994819D01*
X42660952Y-14994819D02*
X42565714Y-14994819D01*
X43375238Y-14090057D02*
X43422857Y-14042438D01*
X43422857Y-14042438D02*
X43518095Y-13994819D01*
X43518095Y-13994819D02*
X43756190Y-13994819D01*
X43756190Y-13994819D02*
X43851428Y-14042438D01*
X43851428Y-14042438D02*
X43899047Y-14090057D01*
X43899047Y-14090057D02*
X43946666Y-14185295D01*
X43946666Y-14185295D02*
X43946666Y-14280533D01*
X43946666Y-14280533D02*
X43899047Y-14423390D01*
X43899047Y-14423390D02*
X43327619Y-14994819D01*
X43327619Y-14994819D02*
X43946666Y-14994819D01*
X40949819Y-49011904D02*
X41759342Y-49011904D01*
X41759342Y-49011904D02*
X41854580Y-48964285D01*
X41854580Y-48964285D02*
X41902200Y-48916666D01*
X41902200Y-48916666D02*
X41949819Y-48821428D01*
X41949819Y-48821428D02*
X41949819Y-48630952D01*
X41949819Y-48630952D02*
X41902200Y-48535714D01*
X41902200Y-48535714D02*
X41854580Y-48488095D01*
X41854580Y-48488095D02*
X41759342Y-48440476D01*
X41759342Y-48440476D02*
X40949819Y-48440476D01*
X41378390Y-47821428D02*
X41330771Y-47916666D01*
X41330771Y-47916666D02*
X41283152Y-47964285D01*
X41283152Y-47964285D02*
X41187914Y-48011904D01*
X41187914Y-48011904D02*
X41140295Y-48011904D01*
X41140295Y-48011904D02*
X41045057Y-47964285D01*
X41045057Y-47964285D02*
X40997438Y-47916666D01*
X40997438Y-47916666D02*
X40949819Y-47821428D01*
X40949819Y-47821428D02*
X40949819Y-47630952D01*
X40949819Y-47630952D02*
X40997438Y-47535714D01*
X40997438Y-47535714D02*
X41045057Y-47488095D01*
X41045057Y-47488095D02*
X41140295Y-47440476D01*
X41140295Y-47440476D02*
X41187914Y-47440476D01*
X41187914Y-47440476D02*
X41283152Y-47488095D01*
X41283152Y-47488095D02*
X41330771Y-47535714D01*
X41330771Y-47535714D02*
X41378390Y-47630952D01*
X41378390Y-47630952D02*
X41378390Y-47821428D01*
X41378390Y-47821428D02*
X41426009Y-47916666D01*
X41426009Y-47916666D02*
X41473628Y-47964285D01*
X41473628Y-47964285D02*
X41568866Y-48011904D01*
X41568866Y-48011904D02*
X41759342Y-48011904D01*
X41759342Y-48011904D02*
X41854580Y-47964285D01*
X41854580Y-47964285D02*
X41902200Y-47916666D01*
X41902200Y-47916666D02*
X41949819Y-47821428D01*
X41949819Y-47821428D02*
X41949819Y-47630952D01*
X41949819Y-47630952D02*
X41902200Y-47535714D01*
X41902200Y-47535714D02*
X41854580Y-47488095D01*
X41854580Y-47488095D02*
X41759342Y-47440476D01*
X41759342Y-47440476D02*
X41568866Y-47440476D01*
X41568866Y-47440476D02*
X41473628Y-47488095D01*
X41473628Y-47488095D02*
X41426009Y-47535714D01*
X41426009Y-47535714D02*
X41378390Y-47630952D01*
D11*
X24741905Y-37529318D02*
X24741905Y-38436461D01*
X24741905Y-38436461D02*
X24681428Y-38617889D01*
X24681428Y-38617889D02*
X24560476Y-38738842D01*
X24560476Y-38738842D02*
X24379047Y-38799318D01*
X24379047Y-38799318D02*
X24258095Y-38799318D01*
X26011905Y-38799318D02*
X25286190Y-38799318D01*
X25649047Y-38799318D02*
X25649047Y-37529318D01*
X25649047Y-37529318D02*
X25528095Y-37710746D01*
X25528095Y-37710746D02*
X25407143Y-37831699D01*
X25407143Y-37831699D02*
X25286190Y-37892175D01*
X26798095Y-37529318D02*
X26919048Y-37529318D01*
X26919048Y-37529318D02*
X27040000Y-37589794D01*
X27040000Y-37589794D02*
X27100476Y-37650270D01*
X27100476Y-37650270D02*
X27160952Y-37771222D01*
X27160952Y-37771222D02*
X27221429Y-38013127D01*
X27221429Y-38013127D02*
X27221429Y-38315508D01*
X27221429Y-38315508D02*
X27160952Y-38557413D01*
X27160952Y-38557413D02*
X27100476Y-38678365D01*
X27100476Y-38678365D02*
X27040000Y-38738842D01*
X27040000Y-38738842D02*
X26919048Y-38799318D01*
X26919048Y-38799318D02*
X26798095Y-38799318D01*
X26798095Y-38799318D02*
X26677143Y-38738842D01*
X26677143Y-38738842D02*
X26616667Y-38678365D01*
X26616667Y-38678365D02*
X26556190Y-38557413D01*
X26556190Y-38557413D02*
X26495714Y-38315508D01*
X26495714Y-38315508D02*
X26495714Y-38013127D01*
X26495714Y-38013127D02*
X26556190Y-37771222D01*
X26556190Y-37771222D02*
X26616667Y-37650270D01*
X26616667Y-37650270D02*
X26677143Y-37589794D01*
X26677143Y-37589794D02*
X26798095Y-37529318D01*
D10*
X23626667Y-79909800D02*
X23769524Y-79957419D01*
X23769524Y-79957419D02*
X24007619Y-79957419D01*
X24007619Y-79957419D02*
X24102857Y-79909800D01*
X24102857Y-79909800D02*
X24150476Y-79862180D01*
X24150476Y-79862180D02*
X24198095Y-79766942D01*
X24198095Y-79766942D02*
X24198095Y-79671704D01*
X24198095Y-79671704D02*
X24150476Y-79576466D01*
X24150476Y-79576466D02*
X24102857Y-79528847D01*
X24102857Y-79528847D02*
X24007619Y-79481228D01*
X24007619Y-79481228D02*
X23817143Y-79433609D01*
X23817143Y-79433609D02*
X23721905Y-79385990D01*
X23721905Y-79385990D02*
X23674286Y-79338371D01*
X23674286Y-79338371D02*
X23626667Y-79243133D01*
X23626667Y-79243133D02*
X23626667Y-79147895D01*
X23626667Y-79147895D02*
X23674286Y-79052657D01*
X23674286Y-79052657D02*
X23721905Y-79005038D01*
X23721905Y-79005038D02*
X23817143Y-78957419D01*
X23817143Y-78957419D02*
X24055238Y-78957419D01*
X24055238Y-78957419D02*
X24198095Y-79005038D01*
X24531429Y-78957419D02*
X24769524Y-79957419D01*
X24769524Y-79957419D02*
X24960000Y-79243133D01*
X24960000Y-79243133D02*
X25150476Y-79957419D01*
X25150476Y-79957419D02*
X25388572Y-78957419D01*
X26293333Y-79957419D02*
X25721905Y-79957419D01*
X26007619Y-79957419D02*
X26007619Y-78957419D01*
X26007619Y-78957419D02*
X25912381Y-79100276D01*
X25912381Y-79100276D02*
X25817143Y-79195514D01*
X25817143Y-79195514D02*
X25721905Y-79243133D01*
D12*
X56357142Y-59209580D02*
X56309523Y-59257200D01*
X56309523Y-59257200D02*
X56166666Y-59304819D01*
X56166666Y-59304819D02*
X56071428Y-59304819D01*
X56071428Y-59304819D02*
X55928571Y-59257200D01*
X55928571Y-59257200D02*
X55833333Y-59161961D01*
X55833333Y-59161961D02*
X55785714Y-59066723D01*
X55785714Y-59066723D02*
X55738095Y-58876247D01*
X55738095Y-58876247D02*
X55738095Y-58733390D01*
X55738095Y-58733390D02*
X55785714Y-58542914D01*
X55785714Y-58542914D02*
X55833333Y-58447676D01*
X55833333Y-58447676D02*
X55928571Y-58352438D01*
X55928571Y-58352438D02*
X56071428Y-58304819D01*
X56071428Y-58304819D02*
X56166666Y-58304819D01*
X56166666Y-58304819D02*
X56309523Y-58352438D01*
X56309523Y-58352438D02*
X56357142Y-58400057D01*
X57261904Y-58304819D02*
X56785714Y-58304819D01*
X56785714Y-58304819D02*
X56738095Y-58781009D01*
X56738095Y-58781009D02*
X56785714Y-58733390D01*
X56785714Y-58733390D02*
X56880952Y-58685771D01*
X56880952Y-58685771D02*
X57119047Y-58685771D01*
X57119047Y-58685771D02*
X57214285Y-58733390D01*
X57214285Y-58733390D02*
X57261904Y-58781009D01*
X57261904Y-58781009D02*
X57309523Y-58876247D01*
X57309523Y-58876247D02*
X57309523Y-59114342D01*
X57309523Y-59114342D02*
X57261904Y-59209580D01*
X57261904Y-59209580D02*
X57214285Y-59257200D01*
X57214285Y-59257200D02*
X57119047Y-59304819D01*
X57119047Y-59304819D02*
X56880952Y-59304819D01*
X56880952Y-59304819D02*
X56785714Y-59257200D01*
X56785714Y-59257200D02*
X56738095Y-59209580D01*
X57880952Y-58733390D02*
X57785714Y-58685771D01*
X57785714Y-58685771D02*
X57738095Y-58638152D01*
X57738095Y-58638152D02*
X57690476Y-58542914D01*
X57690476Y-58542914D02*
X57690476Y-58495295D01*
X57690476Y-58495295D02*
X57738095Y-58400057D01*
X57738095Y-58400057D02*
X57785714Y-58352438D01*
X57785714Y-58352438D02*
X57880952Y-58304819D01*
X57880952Y-58304819D02*
X58071428Y-58304819D01*
X58071428Y-58304819D02*
X58166666Y-58352438D01*
X58166666Y-58352438D02*
X58214285Y-58400057D01*
X58214285Y-58400057D02*
X58261904Y-58495295D01*
X58261904Y-58495295D02*
X58261904Y-58542914D01*
X58261904Y-58542914D02*
X58214285Y-58638152D01*
X58214285Y-58638152D02*
X58166666Y-58685771D01*
X58166666Y-58685771D02*
X58071428Y-58733390D01*
X58071428Y-58733390D02*
X57880952Y-58733390D01*
X57880952Y-58733390D02*
X57785714Y-58781009D01*
X57785714Y-58781009D02*
X57738095Y-58828628D01*
X57738095Y-58828628D02*
X57690476Y-58923866D01*
X57690476Y-58923866D02*
X57690476Y-59114342D01*
X57690476Y-59114342D02*
X57738095Y-59209580D01*
X57738095Y-59209580D02*
X57785714Y-59257200D01*
X57785714Y-59257200D02*
X57880952Y-59304819D01*
X57880952Y-59304819D02*
X58071428Y-59304819D01*
X58071428Y-59304819D02*
X58166666Y-59257200D01*
X58166666Y-59257200D02*
X58214285Y-59209580D01*
X58214285Y-59209580D02*
X58261904Y-59114342D01*
X58261904Y-59114342D02*
X58261904Y-58923866D01*
X58261904Y-58923866D02*
X58214285Y-58828628D01*
X58214285Y-58828628D02*
X58166666Y-58781009D01*
X58166666Y-58781009D02*
X58071428Y-58733390D01*
D10*
X42404404Y-87110080D02*
X42404404Y-86300557D01*
X42404404Y-86300557D02*
X42356785Y-86205319D01*
X42356785Y-86205319D02*
X42309166Y-86157700D01*
X42309166Y-86157700D02*
X42213928Y-86110080D01*
X42213928Y-86110080D02*
X42023452Y-86110080D01*
X42023452Y-86110080D02*
X41928214Y-86157700D01*
X41928214Y-86157700D02*
X41880595Y-86205319D01*
X41880595Y-86205319D02*
X41832976Y-86300557D01*
X41832976Y-86300557D02*
X41832976Y-87110080D01*
X40928214Y-87110080D02*
X41118690Y-87110080D01*
X41118690Y-87110080D02*
X41213928Y-87062461D01*
X41213928Y-87062461D02*
X41261547Y-87014842D01*
X41261547Y-87014842D02*
X41356785Y-86871985D01*
X41356785Y-86871985D02*
X41404404Y-86681509D01*
X41404404Y-86681509D02*
X41404404Y-86300557D01*
X41404404Y-86300557D02*
X41356785Y-86205319D01*
X41356785Y-86205319D02*
X41309166Y-86157700D01*
X41309166Y-86157700D02*
X41213928Y-86110080D01*
X41213928Y-86110080D02*
X41023452Y-86110080D01*
X41023452Y-86110080D02*
X40928214Y-86157700D01*
X40928214Y-86157700D02*
X40880595Y-86205319D01*
X40880595Y-86205319D02*
X40832976Y-86300557D01*
X40832976Y-86300557D02*
X40832976Y-86538652D01*
X40832976Y-86538652D02*
X40880595Y-86633890D01*
X40880595Y-86633890D02*
X40928214Y-86681509D01*
X40928214Y-86681509D02*
X41023452Y-86729128D01*
X41023452Y-86729128D02*
X41213928Y-86729128D01*
X41213928Y-86729128D02*
X41309166Y-86681509D01*
X41309166Y-86681509D02*
X41356785Y-86633890D01*
X41356785Y-86633890D02*
X41404404Y-86538652D01*
X51234404Y-89360080D02*
X51234404Y-88550557D01*
X51234404Y-88550557D02*
X51186785Y-88455319D01*
X51186785Y-88455319D02*
X51139166Y-88407700D01*
X51139166Y-88407700D02*
X51043928Y-88360080D01*
X51043928Y-88360080D02*
X50853452Y-88360080D01*
X50853452Y-88360080D02*
X50758214Y-88407700D01*
X50758214Y-88407700D02*
X50710595Y-88455319D01*
X50710595Y-88455319D02*
X50662976Y-88550557D01*
X50662976Y-88550557D02*
X50662976Y-89360080D01*
X49710595Y-89360080D02*
X50186785Y-89360080D01*
X50186785Y-89360080D02*
X50234404Y-88883890D01*
X50234404Y-88883890D02*
X50186785Y-88931509D01*
X50186785Y-88931509D02*
X50091547Y-88979128D01*
X50091547Y-88979128D02*
X49853452Y-88979128D01*
X49853452Y-88979128D02*
X49758214Y-88931509D01*
X49758214Y-88931509D02*
X49710595Y-88883890D01*
X49710595Y-88883890D02*
X49662976Y-88788652D01*
X49662976Y-88788652D02*
X49662976Y-88550557D01*
X49662976Y-88550557D02*
X49710595Y-88455319D01*
X49710595Y-88455319D02*
X49758214Y-88407700D01*
X49758214Y-88407700D02*
X49853452Y-88360080D01*
X49853452Y-88360080D02*
X50091547Y-88360080D01*
X50091547Y-88360080D02*
X50186785Y-88407700D01*
X50186785Y-88407700D02*
X50234404Y-88455319D01*
D12*
X22021905Y-58844819D02*
X22021905Y-57844819D01*
X22021905Y-57844819D02*
X22260000Y-57844819D01*
X22260000Y-57844819D02*
X22402857Y-57892438D01*
X22402857Y-57892438D02*
X22498095Y-57987676D01*
X22498095Y-57987676D02*
X22545714Y-58082914D01*
X22545714Y-58082914D02*
X22593333Y-58273390D01*
X22593333Y-58273390D02*
X22593333Y-58416247D01*
X22593333Y-58416247D02*
X22545714Y-58606723D01*
X22545714Y-58606723D02*
X22498095Y-58701961D01*
X22498095Y-58701961D02*
X22402857Y-58797200D01*
X22402857Y-58797200D02*
X22260000Y-58844819D01*
X22260000Y-58844819D02*
X22021905Y-58844819D01*
X23498095Y-57844819D02*
X23021905Y-57844819D01*
X23021905Y-57844819D02*
X22974286Y-58321009D01*
X22974286Y-58321009D02*
X23021905Y-58273390D01*
X23021905Y-58273390D02*
X23117143Y-58225771D01*
X23117143Y-58225771D02*
X23355238Y-58225771D01*
X23355238Y-58225771D02*
X23450476Y-58273390D01*
X23450476Y-58273390D02*
X23498095Y-58321009D01*
X23498095Y-58321009D02*
X23545714Y-58416247D01*
X23545714Y-58416247D02*
X23545714Y-58654342D01*
X23545714Y-58654342D02*
X23498095Y-58749580D01*
X23498095Y-58749580D02*
X23450476Y-58797200D01*
X23450476Y-58797200D02*
X23355238Y-58844819D01*
X23355238Y-58844819D02*
X23117143Y-58844819D01*
X23117143Y-58844819D02*
X23021905Y-58797200D01*
X23021905Y-58797200D02*
X22974286Y-58749580D01*
X34833333Y-71359580D02*
X34785714Y-71407200D01*
X34785714Y-71407200D02*
X34642857Y-71454819D01*
X34642857Y-71454819D02*
X34547619Y-71454819D01*
X34547619Y-71454819D02*
X34404762Y-71407200D01*
X34404762Y-71407200D02*
X34309524Y-71311961D01*
X34309524Y-71311961D02*
X34261905Y-71216723D01*
X34261905Y-71216723D02*
X34214286Y-71026247D01*
X34214286Y-71026247D02*
X34214286Y-70883390D01*
X34214286Y-70883390D02*
X34261905Y-70692914D01*
X34261905Y-70692914D02*
X34309524Y-70597676D01*
X34309524Y-70597676D02*
X34404762Y-70502438D01*
X34404762Y-70502438D02*
X34547619Y-70454819D01*
X34547619Y-70454819D02*
X34642857Y-70454819D01*
X34642857Y-70454819D02*
X34785714Y-70502438D01*
X34785714Y-70502438D02*
X34833333Y-70550057D01*
X35166667Y-70454819D02*
X35785714Y-70454819D01*
X35785714Y-70454819D02*
X35452381Y-70835771D01*
X35452381Y-70835771D02*
X35595238Y-70835771D01*
X35595238Y-70835771D02*
X35690476Y-70883390D01*
X35690476Y-70883390D02*
X35738095Y-70931009D01*
X35738095Y-70931009D02*
X35785714Y-71026247D01*
X35785714Y-71026247D02*
X35785714Y-71264342D01*
X35785714Y-71264342D02*
X35738095Y-71359580D01*
X35738095Y-71359580D02*
X35690476Y-71407200D01*
X35690476Y-71407200D02*
X35595238Y-71454819D01*
X35595238Y-71454819D02*
X35309524Y-71454819D01*
X35309524Y-71454819D02*
X35214286Y-71407200D01*
X35214286Y-71407200D02*
X35166667Y-71359580D01*
X34523892Y-32859580D02*
X34476273Y-32907200D01*
X34476273Y-32907200D02*
X34333416Y-32954819D01*
X34333416Y-32954819D02*
X34238178Y-32954819D01*
X34238178Y-32954819D02*
X34095321Y-32907200D01*
X34095321Y-32907200D02*
X34000083Y-32811961D01*
X34000083Y-32811961D02*
X33952464Y-32716723D01*
X33952464Y-32716723D02*
X33904845Y-32526247D01*
X33904845Y-32526247D02*
X33904845Y-32383390D01*
X33904845Y-32383390D02*
X33952464Y-32192914D01*
X33952464Y-32192914D02*
X34000083Y-32097676D01*
X34000083Y-32097676D02*
X34095321Y-32002438D01*
X34095321Y-32002438D02*
X34238178Y-31954819D01*
X34238178Y-31954819D02*
X34333416Y-31954819D01*
X34333416Y-31954819D02*
X34476273Y-32002438D01*
X34476273Y-32002438D02*
X34523892Y-32050057D01*
X35381035Y-32288152D02*
X35381035Y-32954819D01*
X35142940Y-31907200D02*
X34904845Y-32621485D01*
X34904845Y-32621485D02*
X35523892Y-32621485D01*
X35809607Y-31954819D02*
X36428654Y-31954819D01*
X36428654Y-31954819D02*
X36095321Y-32335771D01*
X36095321Y-32335771D02*
X36238178Y-32335771D01*
X36238178Y-32335771D02*
X36333416Y-32383390D01*
X36333416Y-32383390D02*
X36381035Y-32431009D01*
X36381035Y-32431009D02*
X36428654Y-32526247D01*
X36428654Y-32526247D02*
X36428654Y-32764342D01*
X36428654Y-32764342D02*
X36381035Y-32859580D01*
X36381035Y-32859580D02*
X36333416Y-32907200D01*
X36333416Y-32907200D02*
X36238178Y-32954819D01*
X36238178Y-32954819D02*
X35952464Y-32954819D01*
X35952464Y-32954819D02*
X35857226Y-32907200D01*
X35857226Y-32907200D02*
X35809607Y-32859580D01*
X22021905Y-60844819D02*
X22021905Y-59844819D01*
X22021905Y-59844819D02*
X22260000Y-59844819D01*
X22260000Y-59844819D02*
X22402857Y-59892438D01*
X22402857Y-59892438D02*
X22498095Y-59987676D01*
X22498095Y-59987676D02*
X22545714Y-60082914D01*
X22545714Y-60082914D02*
X22593333Y-60273390D01*
X22593333Y-60273390D02*
X22593333Y-60416247D01*
X22593333Y-60416247D02*
X22545714Y-60606723D01*
X22545714Y-60606723D02*
X22498095Y-60701961D01*
X22498095Y-60701961D02*
X22402857Y-60797200D01*
X22402857Y-60797200D02*
X22260000Y-60844819D01*
X22260000Y-60844819D02*
X22021905Y-60844819D01*
X23450476Y-59844819D02*
X23260000Y-59844819D01*
X23260000Y-59844819D02*
X23164762Y-59892438D01*
X23164762Y-59892438D02*
X23117143Y-59940057D01*
X23117143Y-59940057D02*
X23021905Y-60082914D01*
X23021905Y-60082914D02*
X22974286Y-60273390D01*
X22974286Y-60273390D02*
X22974286Y-60654342D01*
X22974286Y-60654342D02*
X23021905Y-60749580D01*
X23021905Y-60749580D02*
X23069524Y-60797200D01*
X23069524Y-60797200D02*
X23164762Y-60844819D01*
X23164762Y-60844819D02*
X23355238Y-60844819D01*
X23355238Y-60844819D02*
X23450476Y-60797200D01*
X23450476Y-60797200D02*
X23498095Y-60749580D01*
X23498095Y-60749580D02*
X23545714Y-60654342D01*
X23545714Y-60654342D02*
X23545714Y-60416247D01*
X23545714Y-60416247D02*
X23498095Y-60321009D01*
X23498095Y-60321009D02*
X23450476Y-60273390D01*
X23450476Y-60273390D02*
X23355238Y-60225771D01*
X23355238Y-60225771D02*
X23164762Y-60225771D01*
X23164762Y-60225771D02*
X23069524Y-60273390D01*
X23069524Y-60273390D02*
X23021905Y-60321009D01*
X23021905Y-60321009D02*
X22974286Y-60416247D01*
X27021905Y-58844819D02*
X27021905Y-57844819D01*
X27021905Y-57844819D02*
X27260000Y-57844819D01*
X27260000Y-57844819D02*
X27402857Y-57892438D01*
X27402857Y-57892438D02*
X27498095Y-57987676D01*
X27498095Y-57987676D02*
X27545714Y-58082914D01*
X27545714Y-58082914D02*
X27593333Y-58273390D01*
X27593333Y-58273390D02*
X27593333Y-58416247D01*
X27593333Y-58416247D02*
X27545714Y-58606723D01*
X27545714Y-58606723D02*
X27498095Y-58701961D01*
X27498095Y-58701961D02*
X27402857Y-58797200D01*
X27402857Y-58797200D02*
X27260000Y-58844819D01*
X27260000Y-58844819D02*
X27021905Y-58844819D01*
X27926667Y-57844819D02*
X28545714Y-57844819D01*
X28545714Y-57844819D02*
X28212381Y-58225771D01*
X28212381Y-58225771D02*
X28355238Y-58225771D01*
X28355238Y-58225771D02*
X28450476Y-58273390D01*
X28450476Y-58273390D02*
X28498095Y-58321009D01*
X28498095Y-58321009D02*
X28545714Y-58416247D01*
X28545714Y-58416247D02*
X28545714Y-58654342D01*
X28545714Y-58654342D02*
X28498095Y-58749580D01*
X28498095Y-58749580D02*
X28450476Y-58797200D01*
X28450476Y-58797200D02*
X28355238Y-58844819D01*
X28355238Y-58844819D02*
X28069524Y-58844819D01*
X28069524Y-58844819D02*
X27974286Y-58797200D01*
X27974286Y-58797200D02*
X27926667Y-58749580D01*
D11*
X23346667Y-64369318D02*
X23346667Y-65276461D01*
X23346667Y-65276461D02*
X23286190Y-65457889D01*
X23286190Y-65457889D02*
X23165238Y-65578842D01*
X23165238Y-65578842D02*
X22983809Y-65639318D01*
X22983809Y-65639318D02*
X22862857Y-65639318D01*
X23830476Y-64369318D02*
X24616667Y-64369318D01*
X24616667Y-64369318D02*
X24193333Y-64853127D01*
X24193333Y-64853127D02*
X24374762Y-64853127D01*
X24374762Y-64853127D02*
X24495714Y-64913603D01*
X24495714Y-64913603D02*
X24556190Y-64974080D01*
X24556190Y-64974080D02*
X24616667Y-65095032D01*
X24616667Y-65095032D02*
X24616667Y-65397413D01*
X24616667Y-65397413D02*
X24556190Y-65518365D01*
X24556190Y-65518365D02*
X24495714Y-65578842D01*
X24495714Y-65578842D02*
X24374762Y-65639318D01*
X24374762Y-65639318D02*
X24011905Y-65639318D01*
X24011905Y-65639318D02*
X23890952Y-65578842D01*
X23890952Y-65578842D02*
X23830476Y-65518365D01*
D12*
X61857142Y-34159580D02*
X61809523Y-34207200D01*
X61809523Y-34207200D02*
X61666666Y-34254819D01*
X61666666Y-34254819D02*
X61571428Y-34254819D01*
X61571428Y-34254819D02*
X61428571Y-34207200D01*
X61428571Y-34207200D02*
X61333333Y-34111961D01*
X61333333Y-34111961D02*
X61285714Y-34016723D01*
X61285714Y-34016723D02*
X61238095Y-33826247D01*
X61238095Y-33826247D02*
X61238095Y-33683390D01*
X61238095Y-33683390D02*
X61285714Y-33492914D01*
X61285714Y-33492914D02*
X61333333Y-33397676D01*
X61333333Y-33397676D02*
X61428571Y-33302438D01*
X61428571Y-33302438D02*
X61571428Y-33254819D01*
X61571428Y-33254819D02*
X61666666Y-33254819D01*
X61666666Y-33254819D02*
X61809523Y-33302438D01*
X61809523Y-33302438D02*
X61857142Y-33350057D01*
X62761904Y-33254819D02*
X62285714Y-33254819D01*
X62285714Y-33254819D02*
X62238095Y-33731009D01*
X62238095Y-33731009D02*
X62285714Y-33683390D01*
X62285714Y-33683390D02*
X62380952Y-33635771D01*
X62380952Y-33635771D02*
X62619047Y-33635771D01*
X62619047Y-33635771D02*
X62714285Y-33683390D01*
X62714285Y-33683390D02*
X62761904Y-33731009D01*
X62761904Y-33731009D02*
X62809523Y-33826247D01*
X62809523Y-33826247D02*
X62809523Y-34064342D01*
X62809523Y-34064342D02*
X62761904Y-34159580D01*
X62761904Y-34159580D02*
X62714285Y-34207200D01*
X62714285Y-34207200D02*
X62619047Y-34254819D01*
X62619047Y-34254819D02*
X62380952Y-34254819D01*
X62380952Y-34254819D02*
X62285714Y-34207200D01*
X62285714Y-34207200D02*
X62238095Y-34159580D01*
X63142857Y-33254819D02*
X63761904Y-33254819D01*
X63761904Y-33254819D02*
X63428571Y-33635771D01*
X63428571Y-33635771D02*
X63571428Y-33635771D01*
X63571428Y-33635771D02*
X63666666Y-33683390D01*
X63666666Y-33683390D02*
X63714285Y-33731009D01*
X63714285Y-33731009D02*
X63761904Y-33826247D01*
X63761904Y-33826247D02*
X63761904Y-34064342D01*
X63761904Y-34064342D02*
X63714285Y-34159580D01*
X63714285Y-34159580D02*
X63666666Y-34207200D01*
X63666666Y-34207200D02*
X63571428Y-34254819D01*
X63571428Y-34254819D02*
X63285714Y-34254819D01*
X63285714Y-34254819D02*
X63190476Y-34207200D01*
X63190476Y-34207200D02*
X63142857Y-34159580D01*
X50384819Y-85541666D02*
X49908628Y-85874999D01*
X50384819Y-86113094D02*
X49384819Y-86113094D01*
X49384819Y-86113094D02*
X49384819Y-85732142D01*
X49384819Y-85732142D02*
X49432438Y-85636904D01*
X49432438Y-85636904D02*
X49480057Y-85589285D01*
X49480057Y-85589285D02*
X49575295Y-85541666D01*
X49575295Y-85541666D02*
X49718152Y-85541666D01*
X49718152Y-85541666D02*
X49813390Y-85589285D01*
X49813390Y-85589285D02*
X49861009Y-85636904D01*
X49861009Y-85636904D02*
X49908628Y-85732142D01*
X49908628Y-85732142D02*
X49908628Y-86113094D01*
X49384819Y-84636904D02*
X49384819Y-85113094D01*
X49384819Y-85113094D02*
X49861009Y-85160713D01*
X49861009Y-85160713D02*
X49813390Y-85113094D01*
X49813390Y-85113094D02*
X49765771Y-85017856D01*
X49765771Y-85017856D02*
X49765771Y-84779761D01*
X49765771Y-84779761D02*
X49813390Y-84684523D01*
X49813390Y-84684523D02*
X49861009Y-84636904D01*
X49861009Y-84636904D02*
X49956247Y-84589285D01*
X49956247Y-84589285D02*
X50194342Y-84589285D01*
X50194342Y-84589285D02*
X50289580Y-84636904D01*
X50289580Y-84636904D02*
X50337200Y-84684523D01*
X50337200Y-84684523D02*
X50384819Y-84779761D01*
X50384819Y-84779761D02*
X50384819Y-85017856D01*
X50384819Y-85017856D02*
X50337200Y-85113094D01*
X50337200Y-85113094D02*
X50289580Y-85160713D01*
X23604819Y-73392857D02*
X23128628Y-73726190D01*
X23604819Y-73964285D02*
X22604819Y-73964285D01*
X22604819Y-73964285D02*
X22604819Y-73583333D01*
X22604819Y-73583333D02*
X22652438Y-73488095D01*
X22652438Y-73488095D02*
X22700057Y-73440476D01*
X22700057Y-73440476D02*
X22795295Y-73392857D01*
X22795295Y-73392857D02*
X22938152Y-73392857D01*
X22938152Y-73392857D02*
X23033390Y-73440476D01*
X23033390Y-73440476D02*
X23081009Y-73488095D01*
X23081009Y-73488095D02*
X23128628Y-73583333D01*
X23128628Y-73583333D02*
X23128628Y-73964285D01*
X22700057Y-73011904D02*
X22652438Y-72964285D01*
X22652438Y-72964285D02*
X22604819Y-72869047D01*
X22604819Y-72869047D02*
X22604819Y-72630952D01*
X22604819Y-72630952D02*
X22652438Y-72535714D01*
X22652438Y-72535714D02*
X22700057Y-72488095D01*
X22700057Y-72488095D02*
X22795295Y-72440476D01*
X22795295Y-72440476D02*
X22890533Y-72440476D01*
X22890533Y-72440476D02*
X23033390Y-72488095D01*
X23033390Y-72488095D02*
X23604819Y-73059523D01*
X23604819Y-73059523D02*
X23604819Y-72440476D01*
X23604819Y-71488095D02*
X23604819Y-72059523D01*
X23604819Y-71773809D02*
X22604819Y-71773809D01*
X22604819Y-71773809D02*
X22747676Y-71869047D01*
X22747676Y-71869047D02*
X22842914Y-71964285D01*
X22842914Y-71964285D02*
X22890533Y-72059523D01*
X42857142Y-26424819D02*
X42523809Y-25948628D01*
X42285714Y-26424819D02*
X42285714Y-25424819D01*
X42285714Y-25424819D02*
X42666666Y-25424819D01*
X42666666Y-25424819D02*
X42761904Y-25472438D01*
X42761904Y-25472438D02*
X42809523Y-25520057D01*
X42809523Y-25520057D02*
X42857142Y-25615295D01*
X42857142Y-25615295D02*
X42857142Y-25758152D01*
X42857142Y-25758152D02*
X42809523Y-25853390D01*
X42809523Y-25853390D02*
X42761904Y-25901009D01*
X42761904Y-25901009D02*
X42666666Y-25948628D01*
X42666666Y-25948628D02*
X42285714Y-25948628D01*
X43238095Y-25520057D02*
X43285714Y-25472438D01*
X43285714Y-25472438D02*
X43380952Y-25424819D01*
X43380952Y-25424819D02*
X43619047Y-25424819D01*
X43619047Y-25424819D02*
X43714285Y-25472438D01*
X43714285Y-25472438D02*
X43761904Y-25520057D01*
X43761904Y-25520057D02*
X43809523Y-25615295D01*
X43809523Y-25615295D02*
X43809523Y-25710533D01*
X43809523Y-25710533D02*
X43761904Y-25853390D01*
X43761904Y-25853390D02*
X43190476Y-26424819D01*
X43190476Y-26424819D02*
X43809523Y-26424819D01*
X44380952Y-25853390D02*
X44285714Y-25805771D01*
X44285714Y-25805771D02*
X44238095Y-25758152D01*
X44238095Y-25758152D02*
X44190476Y-25662914D01*
X44190476Y-25662914D02*
X44190476Y-25615295D01*
X44190476Y-25615295D02*
X44238095Y-25520057D01*
X44238095Y-25520057D02*
X44285714Y-25472438D01*
X44285714Y-25472438D02*
X44380952Y-25424819D01*
X44380952Y-25424819D02*
X44571428Y-25424819D01*
X44571428Y-25424819D02*
X44666666Y-25472438D01*
X44666666Y-25472438D02*
X44714285Y-25520057D01*
X44714285Y-25520057D02*
X44761904Y-25615295D01*
X44761904Y-25615295D02*
X44761904Y-25662914D01*
X44761904Y-25662914D02*
X44714285Y-25758152D01*
X44714285Y-25758152D02*
X44666666Y-25805771D01*
X44666666Y-25805771D02*
X44571428Y-25853390D01*
X44571428Y-25853390D02*
X44380952Y-25853390D01*
X44380952Y-25853390D02*
X44285714Y-25901009D01*
X44285714Y-25901009D02*
X44238095Y-25948628D01*
X44238095Y-25948628D02*
X44190476Y-26043866D01*
X44190476Y-26043866D02*
X44190476Y-26234342D01*
X44190476Y-26234342D02*
X44238095Y-26329580D01*
X44238095Y-26329580D02*
X44285714Y-26377200D01*
X44285714Y-26377200D02*
X44380952Y-26424819D01*
X44380952Y-26424819D02*
X44571428Y-26424819D01*
X44571428Y-26424819D02*
X44666666Y-26377200D01*
X44666666Y-26377200D02*
X44714285Y-26329580D01*
X44714285Y-26329580D02*
X44761904Y-26234342D01*
X44761904Y-26234342D02*
X44761904Y-26043866D01*
X44761904Y-26043866D02*
X44714285Y-25948628D01*
X44714285Y-25948628D02*
X44666666Y-25901009D01*
X44666666Y-25901009D02*
X44571428Y-25853390D01*
X32857142Y-66039580D02*
X32809523Y-66087200D01*
X32809523Y-66087200D02*
X32666666Y-66134819D01*
X32666666Y-66134819D02*
X32571428Y-66134819D01*
X32571428Y-66134819D02*
X32428571Y-66087200D01*
X32428571Y-66087200D02*
X32333333Y-65991961D01*
X32333333Y-65991961D02*
X32285714Y-65896723D01*
X32285714Y-65896723D02*
X32238095Y-65706247D01*
X32238095Y-65706247D02*
X32238095Y-65563390D01*
X32238095Y-65563390D02*
X32285714Y-65372914D01*
X32285714Y-65372914D02*
X32333333Y-65277676D01*
X32333333Y-65277676D02*
X32428571Y-65182438D01*
X32428571Y-65182438D02*
X32571428Y-65134819D01*
X32571428Y-65134819D02*
X32666666Y-65134819D01*
X32666666Y-65134819D02*
X32809523Y-65182438D01*
X32809523Y-65182438D02*
X32857142Y-65230057D01*
X33238095Y-65230057D02*
X33285714Y-65182438D01*
X33285714Y-65182438D02*
X33380952Y-65134819D01*
X33380952Y-65134819D02*
X33619047Y-65134819D01*
X33619047Y-65134819D02*
X33714285Y-65182438D01*
X33714285Y-65182438D02*
X33761904Y-65230057D01*
X33761904Y-65230057D02*
X33809523Y-65325295D01*
X33809523Y-65325295D02*
X33809523Y-65420533D01*
X33809523Y-65420533D02*
X33761904Y-65563390D01*
X33761904Y-65563390D02*
X33190476Y-66134819D01*
X33190476Y-66134819D02*
X33809523Y-66134819D01*
X34714285Y-65134819D02*
X34238095Y-65134819D01*
X34238095Y-65134819D02*
X34190476Y-65611009D01*
X34190476Y-65611009D02*
X34238095Y-65563390D01*
X34238095Y-65563390D02*
X34333333Y-65515771D01*
X34333333Y-65515771D02*
X34571428Y-65515771D01*
X34571428Y-65515771D02*
X34666666Y-65563390D01*
X34666666Y-65563390D02*
X34714285Y-65611009D01*
X34714285Y-65611009D02*
X34761904Y-65706247D01*
X34761904Y-65706247D02*
X34761904Y-65944342D01*
X34761904Y-65944342D02*
X34714285Y-66039580D01*
X34714285Y-66039580D02*
X34666666Y-66087200D01*
X34666666Y-66087200D02*
X34571428Y-66134819D01*
X34571428Y-66134819D02*
X34333333Y-66134819D01*
X34333333Y-66134819D02*
X34238095Y-66087200D01*
X34238095Y-66087200D02*
X34190476Y-66039580D01*
X41354819Y-39642857D02*
X40878628Y-39976190D01*
X41354819Y-40214285D02*
X40354819Y-40214285D01*
X40354819Y-40214285D02*
X40354819Y-39833333D01*
X40354819Y-39833333D02*
X40402438Y-39738095D01*
X40402438Y-39738095D02*
X40450057Y-39690476D01*
X40450057Y-39690476D02*
X40545295Y-39642857D01*
X40545295Y-39642857D02*
X40688152Y-39642857D01*
X40688152Y-39642857D02*
X40783390Y-39690476D01*
X40783390Y-39690476D02*
X40831009Y-39738095D01*
X40831009Y-39738095D02*
X40878628Y-39833333D01*
X40878628Y-39833333D02*
X40878628Y-40214285D01*
X40450057Y-39261904D02*
X40402438Y-39214285D01*
X40402438Y-39214285D02*
X40354819Y-39119047D01*
X40354819Y-39119047D02*
X40354819Y-38880952D01*
X40354819Y-38880952D02*
X40402438Y-38785714D01*
X40402438Y-38785714D02*
X40450057Y-38738095D01*
X40450057Y-38738095D02*
X40545295Y-38690476D01*
X40545295Y-38690476D02*
X40640533Y-38690476D01*
X40640533Y-38690476D02*
X40783390Y-38738095D01*
X40783390Y-38738095D02*
X41354819Y-39309523D01*
X41354819Y-39309523D02*
X41354819Y-38690476D01*
X40354819Y-38357142D02*
X40354819Y-37738095D01*
X40354819Y-37738095D02*
X40735771Y-38071428D01*
X40735771Y-38071428D02*
X40735771Y-37928571D01*
X40735771Y-37928571D02*
X40783390Y-37833333D01*
X40783390Y-37833333D02*
X40831009Y-37785714D01*
X40831009Y-37785714D02*
X40926247Y-37738095D01*
X40926247Y-37738095D02*
X41164342Y-37738095D01*
X41164342Y-37738095D02*
X41259580Y-37785714D01*
X41259580Y-37785714D02*
X41307200Y-37833333D01*
X41307200Y-37833333D02*
X41354819Y-37928571D01*
X41354819Y-37928571D02*
X41354819Y-38214285D01*
X41354819Y-38214285D02*
X41307200Y-38309523D01*
X41307200Y-38309523D02*
X41259580Y-38357142D01*
X42857142Y-29559580D02*
X42809523Y-29607200D01*
X42809523Y-29607200D02*
X42666666Y-29654819D01*
X42666666Y-29654819D02*
X42571428Y-29654819D01*
X42571428Y-29654819D02*
X42428571Y-29607200D01*
X42428571Y-29607200D02*
X42333333Y-29511961D01*
X42333333Y-29511961D02*
X42285714Y-29416723D01*
X42285714Y-29416723D02*
X42238095Y-29226247D01*
X42238095Y-29226247D02*
X42238095Y-29083390D01*
X42238095Y-29083390D02*
X42285714Y-28892914D01*
X42285714Y-28892914D02*
X42333333Y-28797676D01*
X42333333Y-28797676D02*
X42428571Y-28702438D01*
X42428571Y-28702438D02*
X42571428Y-28654819D01*
X42571428Y-28654819D02*
X42666666Y-28654819D01*
X42666666Y-28654819D02*
X42809523Y-28702438D01*
X42809523Y-28702438D02*
X42857142Y-28750057D01*
X43761904Y-28654819D02*
X43285714Y-28654819D01*
X43285714Y-28654819D02*
X43238095Y-29131009D01*
X43238095Y-29131009D02*
X43285714Y-29083390D01*
X43285714Y-29083390D02*
X43380952Y-29035771D01*
X43380952Y-29035771D02*
X43619047Y-29035771D01*
X43619047Y-29035771D02*
X43714285Y-29083390D01*
X43714285Y-29083390D02*
X43761904Y-29131009D01*
X43761904Y-29131009D02*
X43809523Y-29226247D01*
X43809523Y-29226247D02*
X43809523Y-29464342D01*
X43809523Y-29464342D02*
X43761904Y-29559580D01*
X43761904Y-29559580D02*
X43714285Y-29607200D01*
X43714285Y-29607200D02*
X43619047Y-29654819D01*
X43619047Y-29654819D02*
X43380952Y-29654819D01*
X43380952Y-29654819D02*
X43285714Y-29607200D01*
X43285714Y-29607200D02*
X43238095Y-29559580D01*
X44666666Y-28988152D02*
X44666666Y-29654819D01*
X44428571Y-28607200D02*
X44190476Y-29321485D01*
X44190476Y-29321485D02*
X44809523Y-29321485D01*
X27021905Y-60844819D02*
X27021905Y-59844819D01*
X27021905Y-59844819D02*
X27260000Y-59844819D01*
X27260000Y-59844819D02*
X27402857Y-59892438D01*
X27402857Y-59892438D02*
X27498095Y-59987676D01*
X27498095Y-59987676D02*
X27545714Y-60082914D01*
X27545714Y-60082914D02*
X27593333Y-60273390D01*
X27593333Y-60273390D02*
X27593333Y-60416247D01*
X27593333Y-60416247D02*
X27545714Y-60606723D01*
X27545714Y-60606723D02*
X27498095Y-60701961D01*
X27498095Y-60701961D02*
X27402857Y-60797200D01*
X27402857Y-60797200D02*
X27260000Y-60844819D01*
X27260000Y-60844819D02*
X27021905Y-60844819D01*
X28450476Y-60178152D02*
X28450476Y-60844819D01*
X28212381Y-59797200D02*
X27974286Y-60511485D01*
X27974286Y-60511485D02*
X28593333Y-60511485D01*
X51039580Y-56755357D02*
X51087200Y-56802976D01*
X51087200Y-56802976D02*
X51134819Y-56945833D01*
X51134819Y-56945833D02*
X51134819Y-57041071D01*
X51134819Y-57041071D02*
X51087200Y-57183928D01*
X51087200Y-57183928D02*
X50991961Y-57279166D01*
X50991961Y-57279166D02*
X50896723Y-57326785D01*
X50896723Y-57326785D02*
X50706247Y-57374404D01*
X50706247Y-57374404D02*
X50563390Y-57374404D01*
X50563390Y-57374404D02*
X50372914Y-57326785D01*
X50372914Y-57326785D02*
X50277676Y-57279166D01*
X50277676Y-57279166D02*
X50182438Y-57183928D01*
X50182438Y-57183928D02*
X50134819Y-57041071D01*
X50134819Y-57041071D02*
X50134819Y-56945833D01*
X50134819Y-56945833D02*
X50182438Y-56802976D01*
X50182438Y-56802976D02*
X50230057Y-56755357D01*
X51134819Y-55802976D02*
X51134819Y-56374404D01*
X51134819Y-56088690D02*
X50134819Y-56088690D01*
X50134819Y-56088690D02*
X50277676Y-56183928D01*
X50277676Y-56183928D02*
X50372914Y-56279166D01*
X50372914Y-56279166D02*
X50420533Y-56374404D01*
X50468152Y-54945833D02*
X51134819Y-54945833D01*
X50087200Y-55183928D02*
X50801485Y-55422023D01*
X50801485Y-55422023D02*
X50801485Y-54802976D01*
X28857142Y-59404819D02*
X28523809Y-58928628D01*
X28285714Y-59404819D02*
X28285714Y-58404819D01*
X28285714Y-58404819D02*
X28666666Y-58404819D01*
X28666666Y-58404819D02*
X28761904Y-58452438D01*
X28761904Y-58452438D02*
X28809523Y-58500057D01*
X28809523Y-58500057D02*
X28857142Y-58595295D01*
X28857142Y-58595295D02*
X28857142Y-58738152D01*
X28857142Y-58738152D02*
X28809523Y-58833390D01*
X28809523Y-58833390D02*
X28761904Y-58881009D01*
X28761904Y-58881009D02*
X28666666Y-58928628D01*
X28666666Y-58928628D02*
X28285714Y-58928628D01*
X29809523Y-59404819D02*
X29238095Y-59404819D01*
X29523809Y-59404819D02*
X29523809Y-58404819D01*
X29523809Y-58404819D02*
X29428571Y-58547676D01*
X29428571Y-58547676D02*
X29333333Y-58642914D01*
X29333333Y-58642914D02*
X29238095Y-58690533D01*
X30666666Y-58738152D02*
X30666666Y-59404819D01*
X30428571Y-58357200D02*
X30190476Y-59071485D01*
X30190476Y-59071485D02*
X30809523Y-59071485D01*
X62319819Y-69603333D02*
X63034104Y-69603333D01*
X63034104Y-69603333D02*
X63176961Y-69650952D01*
X63176961Y-69650952D02*
X63272200Y-69746190D01*
X63272200Y-69746190D02*
X63319819Y-69889047D01*
X63319819Y-69889047D02*
X63319819Y-69984285D01*
X63319819Y-68603333D02*
X63319819Y-69174761D01*
X63319819Y-68889047D02*
X62319819Y-68889047D01*
X62319819Y-68889047D02*
X62462676Y-68984285D01*
X62462676Y-68984285D02*
X62557914Y-69079523D01*
X62557914Y-69079523D02*
X62605533Y-69174761D01*
X55450057Y-80782738D02*
X55402438Y-80877976D01*
X55402438Y-80877976D02*
X55307200Y-80973214D01*
X55307200Y-80973214D02*
X55164342Y-81116071D01*
X55164342Y-81116071D02*
X55116723Y-81211309D01*
X55116723Y-81211309D02*
X55116723Y-81306547D01*
X55354819Y-81258928D02*
X55307200Y-81354166D01*
X55307200Y-81354166D02*
X55211961Y-81449404D01*
X55211961Y-81449404D02*
X55021485Y-81497023D01*
X55021485Y-81497023D02*
X54688152Y-81497023D01*
X54688152Y-81497023D02*
X54497676Y-81449404D01*
X54497676Y-81449404D02*
X54402438Y-81354166D01*
X54402438Y-81354166D02*
X54354819Y-81258928D01*
X54354819Y-81258928D02*
X54354819Y-81068452D01*
X54354819Y-81068452D02*
X54402438Y-80973214D01*
X54402438Y-80973214D02*
X54497676Y-80877976D01*
X54497676Y-80877976D02*
X54688152Y-80830357D01*
X54688152Y-80830357D02*
X55021485Y-80830357D01*
X55021485Y-80830357D02*
X55211961Y-80877976D01*
X55211961Y-80877976D02*
X55307200Y-80973214D01*
X55307200Y-80973214D02*
X55354819Y-81068452D01*
X55354819Y-81068452D02*
X55354819Y-81258928D01*
X55354819Y-79877976D02*
X55354819Y-80449404D01*
X55354819Y-80163690D02*
X54354819Y-80163690D01*
X54354819Y-80163690D02*
X54497676Y-80258928D01*
X54497676Y-80258928D02*
X54592914Y-80354166D01*
X54592914Y-80354166D02*
X54640533Y-80449404D01*
X54738095Y-58854819D02*
X54738095Y-59664342D01*
X54738095Y-59664342D02*
X54785714Y-59759580D01*
X54785714Y-59759580D02*
X54833333Y-59807200D01*
X54833333Y-59807200D02*
X54928571Y-59854819D01*
X54928571Y-59854819D02*
X55119047Y-59854819D01*
X55119047Y-59854819D02*
X55214285Y-59807200D01*
X55214285Y-59807200D02*
X55261904Y-59759580D01*
X55261904Y-59759580D02*
X55309523Y-59664342D01*
X55309523Y-59664342D02*
X55309523Y-58854819D01*
X56309523Y-59854819D02*
X55738095Y-59854819D01*
X56023809Y-59854819D02*
X56023809Y-58854819D01*
X56023809Y-58854819D02*
X55928571Y-58997676D01*
X55928571Y-58997676D02*
X55833333Y-59092914D01*
X55833333Y-59092914D02*
X55738095Y-59140533D01*
X21607142Y-49289580D02*
X21559523Y-49337200D01*
X21559523Y-49337200D02*
X21416666Y-49384819D01*
X21416666Y-49384819D02*
X21321428Y-49384819D01*
X21321428Y-49384819D02*
X21178571Y-49337200D01*
X21178571Y-49337200D02*
X21083333Y-49241961D01*
X21083333Y-49241961D02*
X21035714Y-49146723D01*
X21035714Y-49146723D02*
X20988095Y-48956247D01*
X20988095Y-48956247D02*
X20988095Y-48813390D01*
X20988095Y-48813390D02*
X21035714Y-48622914D01*
X21035714Y-48622914D02*
X21083333Y-48527676D01*
X21083333Y-48527676D02*
X21178571Y-48432438D01*
X21178571Y-48432438D02*
X21321428Y-48384819D01*
X21321428Y-48384819D02*
X21416666Y-48384819D01*
X21416666Y-48384819D02*
X21559523Y-48432438D01*
X21559523Y-48432438D02*
X21607142Y-48480057D01*
X22559523Y-49384819D02*
X21988095Y-49384819D01*
X22273809Y-49384819D02*
X22273809Y-48384819D01*
X22273809Y-48384819D02*
X22178571Y-48527676D01*
X22178571Y-48527676D02*
X22083333Y-48622914D01*
X22083333Y-48622914D02*
X21988095Y-48670533D01*
X23035714Y-49384819D02*
X23226190Y-49384819D01*
X23226190Y-49384819D02*
X23321428Y-49337200D01*
X23321428Y-49337200D02*
X23369047Y-49289580D01*
X23369047Y-49289580D02*
X23464285Y-49146723D01*
X23464285Y-49146723D02*
X23511904Y-48956247D01*
X23511904Y-48956247D02*
X23511904Y-48575295D01*
X23511904Y-48575295D02*
X23464285Y-48480057D01*
X23464285Y-48480057D02*
X23416666Y-48432438D01*
X23416666Y-48432438D02*
X23321428Y-48384819D01*
X23321428Y-48384819D02*
X23130952Y-48384819D01*
X23130952Y-48384819D02*
X23035714Y-48432438D01*
X23035714Y-48432438D02*
X22988095Y-48480057D01*
X22988095Y-48480057D02*
X22940476Y-48575295D01*
X22940476Y-48575295D02*
X22940476Y-48813390D01*
X22940476Y-48813390D02*
X22988095Y-48908628D01*
X22988095Y-48908628D02*
X23035714Y-48956247D01*
X23035714Y-48956247D02*
X23130952Y-49003866D01*
X23130952Y-49003866D02*
X23321428Y-49003866D01*
X23321428Y-49003866D02*
X23416666Y-48956247D01*
X23416666Y-48956247D02*
X23464285Y-48908628D01*
X23464285Y-48908628D02*
X23511904Y-48813390D01*
D11*
X47404318Y-65717619D02*
X48432413Y-65717619D01*
X48432413Y-65717619D02*
X48553365Y-65657142D01*
X48553365Y-65657142D02*
X48613842Y-65596666D01*
X48613842Y-65596666D02*
X48674318Y-65475714D01*
X48674318Y-65475714D02*
X48674318Y-65233809D01*
X48674318Y-65233809D02*
X48613842Y-65112857D01*
X48613842Y-65112857D02*
X48553365Y-65052380D01*
X48553365Y-65052380D02*
X48432413Y-64991904D01*
X48432413Y-64991904D02*
X47404318Y-64991904D01*
X47404318Y-64508095D02*
X47404318Y-63721904D01*
X47404318Y-63721904D02*
X47888127Y-64145238D01*
X47888127Y-64145238D02*
X47888127Y-63963809D01*
X47888127Y-63963809D02*
X47948603Y-63842857D01*
X47948603Y-63842857D02*
X48009080Y-63782381D01*
X48009080Y-63782381D02*
X48130032Y-63721904D01*
X48130032Y-63721904D02*
X48432413Y-63721904D01*
X48432413Y-63721904D02*
X48553365Y-63782381D01*
X48553365Y-63782381D02*
X48613842Y-63842857D01*
X48613842Y-63842857D02*
X48674318Y-63963809D01*
X48674318Y-63963809D02*
X48674318Y-64326666D01*
X48674318Y-64326666D02*
X48613842Y-64447619D01*
X48613842Y-64447619D02*
X48553365Y-64508095D01*
X32596667Y-46869318D02*
X32596667Y-47776461D01*
X32596667Y-47776461D02*
X32536190Y-47957889D01*
X32536190Y-47957889D02*
X32415238Y-48078842D01*
X32415238Y-48078842D02*
X32233809Y-48139318D01*
X32233809Y-48139318D02*
X32112857Y-48139318D01*
X33080476Y-46869318D02*
X33927143Y-46869318D01*
X33927143Y-46869318D02*
X33382857Y-48139318D01*
D12*
X49607142Y-38804819D02*
X49273809Y-38328628D01*
X49035714Y-38804819D02*
X49035714Y-37804819D01*
X49035714Y-37804819D02*
X49416666Y-37804819D01*
X49416666Y-37804819D02*
X49511904Y-37852438D01*
X49511904Y-37852438D02*
X49559523Y-37900057D01*
X49559523Y-37900057D02*
X49607142Y-37995295D01*
X49607142Y-37995295D02*
X49607142Y-38138152D01*
X49607142Y-38138152D02*
X49559523Y-38233390D01*
X49559523Y-38233390D02*
X49511904Y-38281009D01*
X49511904Y-38281009D02*
X49416666Y-38328628D01*
X49416666Y-38328628D02*
X49035714Y-38328628D01*
X49988095Y-37900057D02*
X50035714Y-37852438D01*
X50035714Y-37852438D02*
X50130952Y-37804819D01*
X50130952Y-37804819D02*
X50369047Y-37804819D01*
X50369047Y-37804819D02*
X50464285Y-37852438D01*
X50464285Y-37852438D02*
X50511904Y-37900057D01*
X50511904Y-37900057D02*
X50559523Y-37995295D01*
X50559523Y-37995295D02*
X50559523Y-38090533D01*
X50559523Y-38090533D02*
X50511904Y-38233390D01*
X50511904Y-38233390D02*
X49940476Y-38804819D01*
X49940476Y-38804819D02*
X50559523Y-38804819D01*
X51416666Y-38138152D02*
X51416666Y-38804819D01*
X51178571Y-37757200D02*
X50940476Y-38471485D01*
X50940476Y-38471485D02*
X51559523Y-38471485D01*
X51704819Y-39964285D02*
X50704819Y-39964285D01*
X50704819Y-39964285D02*
X50704819Y-39726190D01*
X50704819Y-39726190D02*
X50752438Y-39583333D01*
X50752438Y-39583333D02*
X50847676Y-39488095D01*
X50847676Y-39488095D02*
X50942914Y-39440476D01*
X50942914Y-39440476D02*
X51133390Y-39392857D01*
X51133390Y-39392857D02*
X51276247Y-39392857D01*
X51276247Y-39392857D02*
X51466723Y-39440476D01*
X51466723Y-39440476D02*
X51561961Y-39488095D01*
X51561961Y-39488095D02*
X51657200Y-39583333D01*
X51657200Y-39583333D02*
X51704819Y-39726190D01*
X51704819Y-39726190D02*
X51704819Y-39964285D01*
X51704819Y-38440476D02*
X51704819Y-39011904D01*
X51704819Y-38726190D02*
X50704819Y-38726190D01*
X50704819Y-38726190D02*
X50847676Y-38821428D01*
X50847676Y-38821428D02*
X50942914Y-38916666D01*
X50942914Y-38916666D02*
X50990533Y-39011904D01*
X51133390Y-37869047D02*
X51085771Y-37964285D01*
X51085771Y-37964285D02*
X51038152Y-38011904D01*
X51038152Y-38011904D02*
X50942914Y-38059523D01*
X50942914Y-38059523D02*
X50895295Y-38059523D01*
X50895295Y-38059523D02*
X50800057Y-38011904D01*
X50800057Y-38011904D02*
X50752438Y-37964285D01*
X50752438Y-37964285D02*
X50704819Y-37869047D01*
X50704819Y-37869047D02*
X50704819Y-37678571D01*
X50704819Y-37678571D02*
X50752438Y-37583333D01*
X50752438Y-37583333D02*
X50800057Y-37535714D01*
X50800057Y-37535714D02*
X50895295Y-37488095D01*
X50895295Y-37488095D02*
X50942914Y-37488095D01*
X50942914Y-37488095D02*
X51038152Y-37535714D01*
X51038152Y-37535714D02*
X51085771Y-37583333D01*
X51085771Y-37583333D02*
X51133390Y-37678571D01*
X51133390Y-37678571D02*
X51133390Y-37869047D01*
X51133390Y-37869047D02*
X51181009Y-37964285D01*
X51181009Y-37964285D02*
X51228628Y-38011904D01*
X51228628Y-38011904D02*
X51323866Y-38059523D01*
X51323866Y-38059523D02*
X51514342Y-38059523D01*
X51514342Y-38059523D02*
X51609580Y-38011904D01*
X51609580Y-38011904D02*
X51657200Y-37964285D01*
X51657200Y-37964285D02*
X51704819Y-37869047D01*
X51704819Y-37869047D02*
X51704819Y-37678571D01*
X51704819Y-37678571D02*
X51657200Y-37583333D01*
X51657200Y-37583333D02*
X51609580Y-37535714D01*
X51609580Y-37535714D02*
X51514342Y-37488095D01*
X51514342Y-37488095D02*
X51323866Y-37488095D01*
X51323866Y-37488095D02*
X51228628Y-37535714D01*
X51228628Y-37535714D02*
X51181009Y-37583333D01*
X51181009Y-37583333D02*
X51133390Y-37678571D01*
X38107142Y-46679580D02*
X38059523Y-46727200D01*
X38059523Y-46727200D02*
X37916666Y-46774819D01*
X37916666Y-46774819D02*
X37821428Y-46774819D01*
X37821428Y-46774819D02*
X37678571Y-46727200D01*
X37678571Y-46727200D02*
X37583333Y-46631961D01*
X37583333Y-46631961D02*
X37535714Y-46536723D01*
X37535714Y-46536723D02*
X37488095Y-46346247D01*
X37488095Y-46346247D02*
X37488095Y-46203390D01*
X37488095Y-46203390D02*
X37535714Y-46012914D01*
X37535714Y-46012914D02*
X37583333Y-45917676D01*
X37583333Y-45917676D02*
X37678571Y-45822438D01*
X37678571Y-45822438D02*
X37821428Y-45774819D01*
X37821428Y-45774819D02*
X37916666Y-45774819D01*
X37916666Y-45774819D02*
X38059523Y-45822438D01*
X38059523Y-45822438D02*
X38107142Y-45870057D01*
X39059523Y-46774819D02*
X38488095Y-46774819D01*
X38773809Y-46774819D02*
X38773809Y-45774819D01*
X38773809Y-45774819D02*
X38678571Y-45917676D01*
X38678571Y-45917676D02*
X38583333Y-46012914D01*
X38583333Y-46012914D02*
X38488095Y-46060533D01*
X39392857Y-45774819D02*
X40059523Y-45774819D01*
X40059523Y-45774819D02*
X39630952Y-46774819D01*
X21833333Y-44704819D02*
X21500000Y-44228628D01*
X21261905Y-44704819D02*
X21261905Y-43704819D01*
X21261905Y-43704819D02*
X21642857Y-43704819D01*
X21642857Y-43704819D02*
X21738095Y-43752438D01*
X21738095Y-43752438D02*
X21785714Y-43800057D01*
X21785714Y-43800057D02*
X21833333Y-43895295D01*
X21833333Y-43895295D02*
X21833333Y-44038152D01*
X21833333Y-44038152D02*
X21785714Y-44133390D01*
X21785714Y-44133390D02*
X21738095Y-44181009D01*
X21738095Y-44181009D02*
X21642857Y-44228628D01*
X21642857Y-44228628D02*
X21261905Y-44228628D01*
X22404762Y-44133390D02*
X22309524Y-44085771D01*
X22309524Y-44085771D02*
X22261905Y-44038152D01*
X22261905Y-44038152D02*
X22214286Y-43942914D01*
X22214286Y-43942914D02*
X22214286Y-43895295D01*
X22214286Y-43895295D02*
X22261905Y-43800057D01*
X22261905Y-43800057D02*
X22309524Y-43752438D01*
X22309524Y-43752438D02*
X22404762Y-43704819D01*
X22404762Y-43704819D02*
X22595238Y-43704819D01*
X22595238Y-43704819D02*
X22690476Y-43752438D01*
X22690476Y-43752438D02*
X22738095Y-43800057D01*
X22738095Y-43800057D02*
X22785714Y-43895295D01*
X22785714Y-43895295D02*
X22785714Y-43942914D01*
X22785714Y-43942914D02*
X22738095Y-44038152D01*
X22738095Y-44038152D02*
X22690476Y-44085771D01*
X22690476Y-44085771D02*
X22595238Y-44133390D01*
X22595238Y-44133390D02*
X22404762Y-44133390D01*
X22404762Y-44133390D02*
X22309524Y-44181009D01*
X22309524Y-44181009D02*
X22261905Y-44228628D01*
X22261905Y-44228628D02*
X22214286Y-44323866D01*
X22214286Y-44323866D02*
X22214286Y-44514342D01*
X22214286Y-44514342D02*
X22261905Y-44609580D01*
X22261905Y-44609580D02*
X22309524Y-44657200D01*
X22309524Y-44657200D02*
X22404762Y-44704819D01*
X22404762Y-44704819D02*
X22595238Y-44704819D01*
X22595238Y-44704819D02*
X22690476Y-44657200D01*
X22690476Y-44657200D02*
X22738095Y-44609580D01*
X22738095Y-44609580D02*
X22785714Y-44514342D01*
X22785714Y-44514342D02*
X22785714Y-44323866D01*
X22785714Y-44323866D02*
X22738095Y-44228628D01*
X22738095Y-44228628D02*
X22690476Y-44181009D01*
X22690476Y-44181009D02*
X22595238Y-44133390D01*
X42857142Y-24009580D02*
X42809523Y-24057200D01*
X42809523Y-24057200D02*
X42666666Y-24104819D01*
X42666666Y-24104819D02*
X42571428Y-24104819D01*
X42571428Y-24104819D02*
X42428571Y-24057200D01*
X42428571Y-24057200D02*
X42333333Y-23961961D01*
X42333333Y-23961961D02*
X42285714Y-23866723D01*
X42285714Y-23866723D02*
X42238095Y-23676247D01*
X42238095Y-23676247D02*
X42238095Y-23533390D01*
X42238095Y-23533390D02*
X42285714Y-23342914D01*
X42285714Y-23342914D02*
X42333333Y-23247676D01*
X42333333Y-23247676D02*
X42428571Y-23152438D01*
X42428571Y-23152438D02*
X42571428Y-23104819D01*
X42571428Y-23104819D02*
X42666666Y-23104819D01*
X42666666Y-23104819D02*
X42809523Y-23152438D01*
X42809523Y-23152438D02*
X42857142Y-23200057D01*
X43761904Y-23104819D02*
X43285714Y-23104819D01*
X43285714Y-23104819D02*
X43238095Y-23581009D01*
X43238095Y-23581009D02*
X43285714Y-23533390D01*
X43285714Y-23533390D02*
X43380952Y-23485771D01*
X43380952Y-23485771D02*
X43619047Y-23485771D01*
X43619047Y-23485771D02*
X43714285Y-23533390D01*
X43714285Y-23533390D02*
X43761904Y-23581009D01*
X43761904Y-23581009D02*
X43809523Y-23676247D01*
X43809523Y-23676247D02*
X43809523Y-23914342D01*
X43809523Y-23914342D02*
X43761904Y-24009580D01*
X43761904Y-24009580D02*
X43714285Y-24057200D01*
X43714285Y-24057200D02*
X43619047Y-24104819D01*
X43619047Y-24104819D02*
X43380952Y-24104819D01*
X43380952Y-24104819D02*
X43285714Y-24057200D01*
X43285714Y-24057200D02*
X43238095Y-24009580D01*
X44714285Y-23104819D02*
X44238095Y-23104819D01*
X44238095Y-23104819D02*
X44190476Y-23581009D01*
X44190476Y-23581009D02*
X44238095Y-23533390D01*
X44238095Y-23533390D02*
X44333333Y-23485771D01*
X44333333Y-23485771D02*
X44571428Y-23485771D01*
X44571428Y-23485771D02*
X44666666Y-23533390D01*
X44666666Y-23533390D02*
X44714285Y-23581009D01*
X44714285Y-23581009D02*
X44761904Y-23676247D01*
X44761904Y-23676247D02*
X44761904Y-23914342D01*
X44761904Y-23914342D02*
X44714285Y-24009580D01*
X44714285Y-24009580D02*
X44666666Y-24057200D01*
X44666666Y-24057200D02*
X44571428Y-24104819D01*
X44571428Y-24104819D02*
X44333333Y-24104819D01*
X44333333Y-24104819D02*
X44238095Y-24057200D01*
X44238095Y-24057200D02*
X44190476Y-24009580D01*
X61857142Y-30984819D02*
X61523809Y-30508628D01*
X61285714Y-30984819D02*
X61285714Y-29984819D01*
X61285714Y-29984819D02*
X61666666Y-29984819D01*
X61666666Y-29984819D02*
X61761904Y-30032438D01*
X61761904Y-30032438D02*
X61809523Y-30080057D01*
X61809523Y-30080057D02*
X61857142Y-30175295D01*
X61857142Y-30175295D02*
X61857142Y-30318152D01*
X61857142Y-30318152D02*
X61809523Y-30413390D01*
X61809523Y-30413390D02*
X61761904Y-30461009D01*
X61761904Y-30461009D02*
X61666666Y-30508628D01*
X61666666Y-30508628D02*
X61285714Y-30508628D01*
X62190476Y-29984819D02*
X62809523Y-29984819D01*
X62809523Y-29984819D02*
X62476190Y-30365771D01*
X62476190Y-30365771D02*
X62619047Y-30365771D01*
X62619047Y-30365771D02*
X62714285Y-30413390D01*
X62714285Y-30413390D02*
X62761904Y-30461009D01*
X62761904Y-30461009D02*
X62809523Y-30556247D01*
X62809523Y-30556247D02*
X62809523Y-30794342D01*
X62809523Y-30794342D02*
X62761904Y-30889580D01*
X62761904Y-30889580D02*
X62714285Y-30937200D01*
X62714285Y-30937200D02*
X62619047Y-30984819D01*
X62619047Y-30984819D02*
X62333333Y-30984819D01*
X62333333Y-30984819D02*
X62238095Y-30937200D01*
X62238095Y-30937200D02*
X62190476Y-30889580D01*
X63190476Y-30080057D02*
X63238095Y-30032438D01*
X63238095Y-30032438D02*
X63333333Y-29984819D01*
X63333333Y-29984819D02*
X63571428Y-29984819D01*
X63571428Y-29984819D02*
X63666666Y-30032438D01*
X63666666Y-30032438D02*
X63714285Y-30080057D01*
X63714285Y-30080057D02*
X63761904Y-30175295D01*
X63761904Y-30175295D02*
X63761904Y-30270533D01*
X63761904Y-30270533D02*
X63714285Y-30413390D01*
X63714285Y-30413390D02*
X63142857Y-30984819D01*
X63142857Y-30984819D02*
X63761904Y-30984819D01*
X38607142Y-44459580D02*
X38559523Y-44507200D01*
X38559523Y-44507200D02*
X38416666Y-44554819D01*
X38416666Y-44554819D02*
X38321428Y-44554819D01*
X38321428Y-44554819D02*
X38178571Y-44507200D01*
X38178571Y-44507200D02*
X38083333Y-44411961D01*
X38083333Y-44411961D02*
X38035714Y-44316723D01*
X38035714Y-44316723D02*
X37988095Y-44126247D01*
X37988095Y-44126247D02*
X37988095Y-43983390D01*
X37988095Y-43983390D02*
X38035714Y-43792914D01*
X38035714Y-43792914D02*
X38083333Y-43697676D01*
X38083333Y-43697676D02*
X38178571Y-43602438D01*
X38178571Y-43602438D02*
X38321428Y-43554819D01*
X38321428Y-43554819D02*
X38416666Y-43554819D01*
X38416666Y-43554819D02*
X38559523Y-43602438D01*
X38559523Y-43602438D02*
X38607142Y-43650057D01*
X38988095Y-43650057D02*
X39035714Y-43602438D01*
X39035714Y-43602438D02*
X39130952Y-43554819D01*
X39130952Y-43554819D02*
X39369047Y-43554819D01*
X39369047Y-43554819D02*
X39464285Y-43602438D01*
X39464285Y-43602438D02*
X39511904Y-43650057D01*
X39511904Y-43650057D02*
X39559523Y-43745295D01*
X39559523Y-43745295D02*
X39559523Y-43840533D01*
X39559523Y-43840533D02*
X39511904Y-43983390D01*
X39511904Y-43983390D02*
X38940476Y-44554819D01*
X38940476Y-44554819D02*
X39559523Y-44554819D01*
X40416666Y-43554819D02*
X40226190Y-43554819D01*
X40226190Y-43554819D02*
X40130952Y-43602438D01*
X40130952Y-43602438D02*
X40083333Y-43650057D01*
X40083333Y-43650057D02*
X39988095Y-43792914D01*
X39988095Y-43792914D02*
X39940476Y-43983390D01*
X39940476Y-43983390D02*
X39940476Y-44364342D01*
X39940476Y-44364342D02*
X39988095Y-44459580D01*
X39988095Y-44459580D02*
X40035714Y-44507200D01*
X40035714Y-44507200D02*
X40130952Y-44554819D01*
X40130952Y-44554819D02*
X40321428Y-44554819D01*
X40321428Y-44554819D02*
X40416666Y-44507200D01*
X40416666Y-44507200D02*
X40464285Y-44459580D01*
X40464285Y-44459580D02*
X40511904Y-44364342D01*
X40511904Y-44364342D02*
X40511904Y-44126247D01*
X40511904Y-44126247D02*
X40464285Y-44031009D01*
X40464285Y-44031009D02*
X40416666Y-43983390D01*
X40416666Y-43983390D02*
X40321428Y-43935771D01*
X40321428Y-43935771D02*
X40130952Y-43935771D01*
X40130952Y-43935771D02*
X40035714Y-43983390D01*
X40035714Y-43983390D02*
X39988095Y-44031009D01*
X39988095Y-44031009D02*
X39940476Y-44126247D01*
X35359580Y-22142857D02*
X35407200Y-22190476D01*
X35407200Y-22190476D02*
X35454819Y-22333333D01*
X35454819Y-22333333D02*
X35454819Y-22428571D01*
X35454819Y-22428571D02*
X35407200Y-22571428D01*
X35407200Y-22571428D02*
X35311961Y-22666666D01*
X35311961Y-22666666D02*
X35216723Y-22714285D01*
X35216723Y-22714285D02*
X35026247Y-22761904D01*
X35026247Y-22761904D02*
X34883390Y-22761904D01*
X34883390Y-22761904D02*
X34692914Y-22714285D01*
X34692914Y-22714285D02*
X34597676Y-22666666D01*
X34597676Y-22666666D02*
X34502438Y-22571428D01*
X34502438Y-22571428D02*
X34454819Y-22428571D01*
X34454819Y-22428571D02*
X34454819Y-22333333D01*
X34454819Y-22333333D02*
X34502438Y-22190476D01*
X34502438Y-22190476D02*
X34550057Y-22142857D01*
X34550057Y-21761904D02*
X34502438Y-21714285D01*
X34502438Y-21714285D02*
X34454819Y-21619047D01*
X34454819Y-21619047D02*
X34454819Y-21380952D01*
X34454819Y-21380952D02*
X34502438Y-21285714D01*
X34502438Y-21285714D02*
X34550057Y-21238095D01*
X34550057Y-21238095D02*
X34645295Y-21190476D01*
X34645295Y-21190476D02*
X34740533Y-21190476D01*
X34740533Y-21190476D02*
X34883390Y-21238095D01*
X34883390Y-21238095D02*
X35454819Y-21809523D01*
X35454819Y-21809523D02*
X35454819Y-21190476D01*
X35454819Y-20238095D02*
X35454819Y-20809523D01*
X35454819Y-20523809D02*
X34454819Y-20523809D01*
X34454819Y-20523809D02*
X34597676Y-20619047D01*
X34597676Y-20619047D02*
X34692914Y-20714285D01*
X34692914Y-20714285D02*
X34740533Y-20809523D01*
X58253819Y-87519285D02*
X57253819Y-87519285D01*
X57253819Y-87519285D02*
X57253819Y-87281190D01*
X57253819Y-87281190D02*
X57301438Y-87138333D01*
X57301438Y-87138333D02*
X57396676Y-87043095D01*
X57396676Y-87043095D02*
X57491914Y-86995476D01*
X57491914Y-86995476D02*
X57682390Y-86947857D01*
X57682390Y-86947857D02*
X57825247Y-86947857D01*
X57825247Y-86947857D02*
X58015723Y-86995476D01*
X58015723Y-86995476D02*
X58110961Y-87043095D01*
X58110961Y-87043095D02*
X58206200Y-87138333D01*
X58206200Y-87138333D02*
X58253819Y-87281190D01*
X58253819Y-87281190D02*
X58253819Y-87519285D01*
X58253819Y-85995476D02*
X58253819Y-86566904D01*
X58253819Y-86281190D02*
X57253819Y-86281190D01*
X57253819Y-86281190D02*
X57396676Y-86376428D01*
X57396676Y-86376428D02*
X57491914Y-86471666D01*
X57491914Y-86471666D02*
X57539533Y-86566904D01*
X57253819Y-85138333D02*
X57253819Y-85328809D01*
X57253819Y-85328809D02*
X57301438Y-85424047D01*
X57301438Y-85424047D02*
X57349057Y-85471666D01*
X57349057Y-85471666D02*
X57491914Y-85566904D01*
X57491914Y-85566904D02*
X57682390Y-85614523D01*
X57682390Y-85614523D02*
X58063342Y-85614523D01*
X58063342Y-85614523D02*
X58158580Y-85566904D01*
X58158580Y-85566904D02*
X58206200Y-85519285D01*
X58206200Y-85519285D02*
X58253819Y-85424047D01*
X58253819Y-85424047D02*
X58253819Y-85233571D01*
X58253819Y-85233571D02*
X58206200Y-85138333D01*
X58206200Y-85138333D02*
X58158580Y-85090714D01*
X58158580Y-85090714D02*
X58063342Y-85043095D01*
X58063342Y-85043095D02*
X57825247Y-85043095D01*
X57825247Y-85043095D02*
X57730009Y-85090714D01*
X57730009Y-85090714D02*
X57682390Y-85138333D01*
X57682390Y-85138333D02*
X57634771Y-85233571D01*
X57634771Y-85233571D02*
X57634771Y-85424047D01*
X57634771Y-85424047D02*
X57682390Y-85519285D01*
X57682390Y-85519285D02*
X57730009Y-85566904D01*
X57730009Y-85566904D02*
X57825247Y-85614523D01*
X51933333Y-55679580D02*
X51885714Y-55727200D01*
X51885714Y-55727200D02*
X51742857Y-55774819D01*
X51742857Y-55774819D02*
X51647619Y-55774819D01*
X51647619Y-55774819D02*
X51504762Y-55727200D01*
X51504762Y-55727200D02*
X51409524Y-55631961D01*
X51409524Y-55631961D02*
X51361905Y-55536723D01*
X51361905Y-55536723D02*
X51314286Y-55346247D01*
X51314286Y-55346247D02*
X51314286Y-55203390D01*
X51314286Y-55203390D02*
X51361905Y-55012914D01*
X51361905Y-55012914D02*
X51409524Y-54917676D01*
X51409524Y-54917676D02*
X51504762Y-54822438D01*
X51504762Y-54822438D02*
X51647619Y-54774819D01*
X51647619Y-54774819D02*
X51742857Y-54774819D01*
X51742857Y-54774819D02*
X51885714Y-54822438D01*
X51885714Y-54822438D02*
X51933333Y-54870057D01*
X52790476Y-55108152D02*
X52790476Y-55774819D01*
X52552381Y-54727200D02*
X52314286Y-55441485D01*
X52314286Y-55441485D02*
X52933333Y-55441485D01*
D10*
X49904404Y-87027580D02*
X49904404Y-86218057D01*
X49904404Y-86218057D02*
X49856785Y-86122819D01*
X49856785Y-86122819D02*
X49809166Y-86075200D01*
X49809166Y-86075200D02*
X49713928Y-86027580D01*
X49713928Y-86027580D02*
X49523452Y-86027580D01*
X49523452Y-86027580D02*
X49428214Y-86075200D01*
X49428214Y-86075200D02*
X49380595Y-86122819D01*
X49380595Y-86122819D02*
X49332976Y-86218057D01*
X49332976Y-86218057D02*
X49332976Y-87027580D01*
X48428214Y-86694247D02*
X48428214Y-86027580D01*
X48666309Y-87075200D02*
X48904404Y-86360914D01*
X48904404Y-86360914D02*
X48285357Y-86360914D01*
D12*
X38666666Y-57949619D02*
X38666666Y-58663904D01*
X38666666Y-58663904D02*
X38619047Y-58806761D01*
X38619047Y-58806761D02*
X38523809Y-58902000D01*
X38523809Y-58902000D02*
X38380952Y-58949619D01*
X38380952Y-58949619D02*
X38285714Y-58949619D01*
X39285714Y-58378190D02*
X39190476Y-58330571D01*
X39190476Y-58330571D02*
X39142857Y-58282952D01*
X39142857Y-58282952D02*
X39095238Y-58187714D01*
X39095238Y-58187714D02*
X39095238Y-58140095D01*
X39095238Y-58140095D02*
X39142857Y-58044857D01*
X39142857Y-58044857D02*
X39190476Y-57997238D01*
X39190476Y-57997238D02*
X39285714Y-57949619D01*
X39285714Y-57949619D02*
X39476190Y-57949619D01*
X39476190Y-57949619D02*
X39571428Y-57997238D01*
X39571428Y-57997238D02*
X39619047Y-58044857D01*
X39619047Y-58044857D02*
X39666666Y-58140095D01*
X39666666Y-58140095D02*
X39666666Y-58187714D01*
X39666666Y-58187714D02*
X39619047Y-58282952D01*
X39619047Y-58282952D02*
X39571428Y-58330571D01*
X39571428Y-58330571D02*
X39476190Y-58378190D01*
X39476190Y-58378190D02*
X39285714Y-58378190D01*
X39285714Y-58378190D02*
X39190476Y-58425809D01*
X39190476Y-58425809D02*
X39142857Y-58473428D01*
X39142857Y-58473428D02*
X39095238Y-58568666D01*
X39095238Y-58568666D02*
X39095238Y-58759142D01*
X39095238Y-58759142D02*
X39142857Y-58854380D01*
X39142857Y-58854380D02*
X39190476Y-58902000D01*
X39190476Y-58902000D02*
X39285714Y-58949619D01*
X39285714Y-58949619D02*
X39476190Y-58949619D01*
X39476190Y-58949619D02*
X39571428Y-58902000D01*
X39571428Y-58902000D02*
X39619047Y-58854380D01*
X39619047Y-58854380D02*
X39666666Y-58759142D01*
X39666666Y-58759142D02*
X39666666Y-58568666D01*
X39666666Y-58568666D02*
X39619047Y-58473428D01*
X39619047Y-58473428D02*
X39571428Y-58425809D01*
X39571428Y-58425809D02*
X39476190Y-58378190D01*
X61857142Y-27459580D02*
X61809523Y-27507200D01*
X61809523Y-27507200D02*
X61666666Y-27554819D01*
X61666666Y-27554819D02*
X61571428Y-27554819D01*
X61571428Y-27554819D02*
X61428571Y-27507200D01*
X61428571Y-27507200D02*
X61333333Y-27411961D01*
X61333333Y-27411961D02*
X61285714Y-27316723D01*
X61285714Y-27316723D02*
X61238095Y-27126247D01*
X61238095Y-27126247D02*
X61238095Y-26983390D01*
X61238095Y-26983390D02*
X61285714Y-26792914D01*
X61285714Y-26792914D02*
X61333333Y-26697676D01*
X61333333Y-26697676D02*
X61428571Y-26602438D01*
X61428571Y-26602438D02*
X61571428Y-26554819D01*
X61571428Y-26554819D02*
X61666666Y-26554819D01*
X61666666Y-26554819D02*
X61809523Y-26602438D01*
X61809523Y-26602438D02*
X61857142Y-26650057D01*
X62714285Y-26554819D02*
X62523809Y-26554819D01*
X62523809Y-26554819D02*
X62428571Y-26602438D01*
X62428571Y-26602438D02*
X62380952Y-26650057D01*
X62380952Y-26650057D02*
X62285714Y-26792914D01*
X62285714Y-26792914D02*
X62238095Y-26983390D01*
X62238095Y-26983390D02*
X62238095Y-27364342D01*
X62238095Y-27364342D02*
X62285714Y-27459580D01*
X62285714Y-27459580D02*
X62333333Y-27507200D01*
X62333333Y-27507200D02*
X62428571Y-27554819D01*
X62428571Y-27554819D02*
X62619047Y-27554819D01*
X62619047Y-27554819D02*
X62714285Y-27507200D01*
X62714285Y-27507200D02*
X62761904Y-27459580D01*
X62761904Y-27459580D02*
X62809523Y-27364342D01*
X62809523Y-27364342D02*
X62809523Y-27126247D01*
X62809523Y-27126247D02*
X62761904Y-27031009D01*
X62761904Y-27031009D02*
X62714285Y-26983390D01*
X62714285Y-26983390D02*
X62619047Y-26935771D01*
X62619047Y-26935771D02*
X62428571Y-26935771D01*
X62428571Y-26935771D02*
X62333333Y-26983390D01*
X62333333Y-26983390D02*
X62285714Y-27031009D01*
X62285714Y-27031009D02*
X62238095Y-27126247D01*
X63761904Y-27554819D02*
X63190476Y-27554819D01*
X63476190Y-27554819D02*
X63476190Y-26554819D01*
X63476190Y-26554819D02*
X63380952Y-26697676D01*
X63380952Y-26697676D02*
X63285714Y-26792914D01*
X63285714Y-26792914D02*
X63190476Y-26840533D01*
X26142857Y-26890419D02*
X26190476Y-26842800D01*
X26190476Y-26842800D02*
X26333333Y-26795180D01*
X26333333Y-26795180D02*
X26428571Y-26795180D01*
X26428571Y-26795180D02*
X26571428Y-26842800D01*
X26571428Y-26842800D02*
X26666666Y-26938038D01*
X26666666Y-26938038D02*
X26714285Y-27033276D01*
X26714285Y-27033276D02*
X26761904Y-27223752D01*
X26761904Y-27223752D02*
X26761904Y-27366609D01*
X26761904Y-27366609D02*
X26714285Y-27557085D01*
X26714285Y-27557085D02*
X26666666Y-27652323D01*
X26666666Y-27652323D02*
X26571428Y-27747561D01*
X26571428Y-27747561D02*
X26428571Y-27795180D01*
X26428571Y-27795180D02*
X26333333Y-27795180D01*
X26333333Y-27795180D02*
X26190476Y-27747561D01*
X26190476Y-27747561D02*
X26142857Y-27699942D01*
X25285714Y-27461847D02*
X25285714Y-26795180D01*
X25523809Y-27842800D02*
X25761904Y-27128514D01*
X25761904Y-27128514D02*
X25142857Y-27128514D01*
X24285714Y-27795180D02*
X24761904Y-27795180D01*
X24761904Y-27795180D02*
X24809523Y-27318990D01*
X24809523Y-27318990D02*
X24761904Y-27366609D01*
X24761904Y-27366609D02*
X24666666Y-27414228D01*
X24666666Y-27414228D02*
X24428571Y-27414228D01*
X24428571Y-27414228D02*
X24333333Y-27366609D01*
X24333333Y-27366609D02*
X24285714Y-27318990D01*
X24285714Y-27318990D02*
X24238095Y-27223752D01*
X24238095Y-27223752D02*
X24238095Y-26985657D01*
X24238095Y-26985657D02*
X24285714Y-26890419D01*
X24285714Y-26890419D02*
X24333333Y-26842800D01*
X24333333Y-26842800D02*
X24428571Y-26795180D01*
X24428571Y-26795180D02*
X24666666Y-26795180D01*
X24666666Y-26795180D02*
X24761904Y-26842800D01*
X24761904Y-26842800D02*
X24809523Y-26890419D01*
X59104819Y-41892857D02*
X58628628Y-42226190D01*
X59104819Y-42464285D02*
X58104819Y-42464285D01*
X58104819Y-42464285D02*
X58104819Y-42083333D01*
X58104819Y-42083333D02*
X58152438Y-41988095D01*
X58152438Y-41988095D02*
X58200057Y-41940476D01*
X58200057Y-41940476D02*
X58295295Y-41892857D01*
X58295295Y-41892857D02*
X58438152Y-41892857D01*
X58438152Y-41892857D02*
X58533390Y-41940476D01*
X58533390Y-41940476D02*
X58581009Y-41988095D01*
X58581009Y-41988095D02*
X58628628Y-42083333D01*
X58628628Y-42083333D02*
X58628628Y-42464285D01*
X58104819Y-41559523D02*
X58104819Y-40940476D01*
X58104819Y-40940476D02*
X58485771Y-41273809D01*
X58485771Y-41273809D02*
X58485771Y-41130952D01*
X58485771Y-41130952D02*
X58533390Y-41035714D01*
X58533390Y-41035714D02*
X58581009Y-40988095D01*
X58581009Y-40988095D02*
X58676247Y-40940476D01*
X58676247Y-40940476D02*
X58914342Y-40940476D01*
X58914342Y-40940476D02*
X59009580Y-40988095D01*
X59009580Y-40988095D02*
X59057200Y-41035714D01*
X59057200Y-41035714D02*
X59104819Y-41130952D01*
X59104819Y-41130952D02*
X59104819Y-41416666D01*
X59104819Y-41416666D02*
X59057200Y-41511904D01*
X59057200Y-41511904D02*
X59009580Y-41559523D01*
X58104819Y-40321428D02*
X58104819Y-40226190D01*
X58104819Y-40226190D02*
X58152438Y-40130952D01*
X58152438Y-40130952D02*
X58200057Y-40083333D01*
X58200057Y-40083333D02*
X58295295Y-40035714D01*
X58295295Y-40035714D02*
X58485771Y-39988095D01*
X58485771Y-39988095D02*
X58723866Y-39988095D01*
X58723866Y-39988095D02*
X58914342Y-40035714D01*
X58914342Y-40035714D02*
X59009580Y-40083333D01*
X59009580Y-40083333D02*
X59057200Y-40130952D01*
X59057200Y-40130952D02*
X59104819Y-40226190D01*
X59104819Y-40226190D02*
X59104819Y-40321428D01*
X59104819Y-40321428D02*
X59057200Y-40416666D01*
X59057200Y-40416666D02*
X59009580Y-40464285D01*
X59009580Y-40464285D02*
X58914342Y-40511904D01*
X58914342Y-40511904D02*
X58723866Y-40559523D01*
X58723866Y-40559523D02*
X58485771Y-40559523D01*
X58485771Y-40559523D02*
X58295295Y-40511904D01*
X58295295Y-40511904D02*
X58200057Y-40464285D01*
X58200057Y-40464285D02*
X58152438Y-40416666D01*
X58152438Y-40416666D02*
X58104819Y-40321428D01*
X51269642Y-56884819D02*
X50936309Y-56408628D01*
X50698214Y-56884819D02*
X50698214Y-55884819D01*
X50698214Y-55884819D02*
X51079166Y-55884819D01*
X51079166Y-55884819D02*
X51174404Y-55932438D01*
X51174404Y-55932438D02*
X51222023Y-55980057D01*
X51222023Y-55980057D02*
X51269642Y-56075295D01*
X51269642Y-56075295D02*
X51269642Y-56218152D01*
X51269642Y-56218152D02*
X51222023Y-56313390D01*
X51222023Y-56313390D02*
X51174404Y-56361009D01*
X51174404Y-56361009D02*
X51079166Y-56408628D01*
X51079166Y-56408628D02*
X50698214Y-56408628D01*
X51650595Y-55980057D02*
X51698214Y-55932438D01*
X51698214Y-55932438D02*
X51793452Y-55884819D01*
X51793452Y-55884819D02*
X52031547Y-55884819D01*
X52031547Y-55884819D02*
X52126785Y-55932438D01*
X52126785Y-55932438D02*
X52174404Y-55980057D01*
X52174404Y-55980057D02*
X52222023Y-56075295D01*
X52222023Y-56075295D02*
X52222023Y-56170533D01*
X52222023Y-56170533D02*
X52174404Y-56313390D01*
X52174404Y-56313390D02*
X51602976Y-56884819D01*
X51602976Y-56884819D02*
X52222023Y-56884819D01*
X52602976Y-55980057D02*
X52650595Y-55932438D01*
X52650595Y-55932438D02*
X52745833Y-55884819D01*
X52745833Y-55884819D02*
X52983928Y-55884819D01*
X52983928Y-55884819D02*
X53079166Y-55932438D01*
X53079166Y-55932438D02*
X53126785Y-55980057D01*
X53126785Y-55980057D02*
X53174404Y-56075295D01*
X53174404Y-56075295D02*
X53174404Y-56170533D01*
X53174404Y-56170533D02*
X53126785Y-56313390D01*
X53126785Y-56313390D02*
X52555357Y-56884819D01*
X52555357Y-56884819D02*
X53174404Y-56884819D01*
X26083333Y-56539580D02*
X26035714Y-56587200D01*
X26035714Y-56587200D02*
X25892857Y-56634819D01*
X25892857Y-56634819D02*
X25797619Y-56634819D01*
X25797619Y-56634819D02*
X25654762Y-56587200D01*
X25654762Y-56587200D02*
X25559524Y-56491961D01*
X25559524Y-56491961D02*
X25511905Y-56396723D01*
X25511905Y-56396723D02*
X25464286Y-56206247D01*
X25464286Y-56206247D02*
X25464286Y-56063390D01*
X25464286Y-56063390D02*
X25511905Y-55872914D01*
X25511905Y-55872914D02*
X25559524Y-55777676D01*
X25559524Y-55777676D02*
X25654762Y-55682438D01*
X25654762Y-55682438D02*
X25797619Y-55634819D01*
X25797619Y-55634819D02*
X25892857Y-55634819D01*
X25892857Y-55634819D02*
X26035714Y-55682438D01*
X26035714Y-55682438D02*
X26083333Y-55730057D01*
X27035714Y-56634819D02*
X26464286Y-56634819D01*
X26750000Y-56634819D02*
X26750000Y-55634819D01*
X26750000Y-55634819D02*
X26654762Y-55777676D01*
X26654762Y-55777676D02*
X26559524Y-55872914D01*
X26559524Y-55872914D02*
X26464286Y-55920533D01*
X57083333Y-77754819D02*
X56607143Y-77754819D01*
X56607143Y-77754819D02*
X56607143Y-76754819D01*
X57369048Y-76850057D02*
X57416667Y-76802438D01*
X57416667Y-76802438D02*
X57511905Y-76754819D01*
X57511905Y-76754819D02*
X57750000Y-76754819D01*
X57750000Y-76754819D02*
X57845238Y-76802438D01*
X57845238Y-76802438D02*
X57892857Y-76850057D01*
X57892857Y-76850057D02*
X57940476Y-76945295D01*
X57940476Y-76945295D02*
X57940476Y-77040533D01*
X57940476Y-77040533D02*
X57892857Y-77183390D01*
X57892857Y-77183390D02*
X57321429Y-77754819D01*
X57321429Y-77754819D02*
X57940476Y-77754819D01*
X48785714Y-36704819D02*
X48785714Y-35704819D01*
X48785714Y-35704819D02*
X49023809Y-35704819D01*
X49023809Y-35704819D02*
X49166666Y-35752438D01*
X49166666Y-35752438D02*
X49261904Y-35847676D01*
X49261904Y-35847676D02*
X49309523Y-35942914D01*
X49309523Y-35942914D02*
X49357142Y-36133390D01*
X49357142Y-36133390D02*
X49357142Y-36276247D01*
X49357142Y-36276247D02*
X49309523Y-36466723D01*
X49309523Y-36466723D02*
X49261904Y-36561961D01*
X49261904Y-36561961D02*
X49166666Y-36657200D01*
X49166666Y-36657200D02*
X49023809Y-36704819D01*
X49023809Y-36704819D02*
X48785714Y-36704819D01*
X50309523Y-36704819D02*
X49738095Y-36704819D01*
X50023809Y-36704819D02*
X50023809Y-35704819D01*
X50023809Y-35704819D02*
X49928571Y-35847676D01*
X49928571Y-35847676D02*
X49833333Y-35942914D01*
X49833333Y-35942914D02*
X49738095Y-35990533D01*
X50690476Y-35800057D02*
X50738095Y-35752438D01*
X50738095Y-35752438D02*
X50833333Y-35704819D01*
X50833333Y-35704819D02*
X51071428Y-35704819D01*
X51071428Y-35704819D02*
X51166666Y-35752438D01*
X51166666Y-35752438D02*
X51214285Y-35800057D01*
X51214285Y-35800057D02*
X51261904Y-35895295D01*
X51261904Y-35895295D02*
X51261904Y-35990533D01*
X51261904Y-35990533D02*
X51214285Y-36133390D01*
X51214285Y-36133390D02*
X50642857Y-36704819D01*
X50642857Y-36704819D02*
X51261904Y-36704819D01*
X61004819Y-42464285D02*
X60004819Y-42464285D01*
X60004819Y-42464285D02*
X60004819Y-42226190D01*
X60004819Y-42226190D02*
X60052438Y-42083333D01*
X60052438Y-42083333D02*
X60147676Y-41988095D01*
X60147676Y-41988095D02*
X60242914Y-41940476D01*
X60242914Y-41940476D02*
X60433390Y-41892857D01*
X60433390Y-41892857D02*
X60576247Y-41892857D01*
X60576247Y-41892857D02*
X60766723Y-41940476D01*
X60766723Y-41940476D02*
X60861961Y-41988095D01*
X60861961Y-41988095D02*
X60957200Y-42083333D01*
X60957200Y-42083333D02*
X61004819Y-42226190D01*
X61004819Y-42226190D02*
X61004819Y-42464285D01*
X61004819Y-40940476D02*
X61004819Y-41511904D01*
X61004819Y-41226190D02*
X60004819Y-41226190D01*
X60004819Y-41226190D02*
X60147676Y-41321428D01*
X60147676Y-41321428D02*
X60242914Y-41416666D01*
X60242914Y-41416666D02*
X60290533Y-41511904D01*
X60004819Y-40607142D02*
X60004819Y-39940476D01*
X60004819Y-39940476D02*
X61004819Y-40369047D01*
X59159580Y-79892857D02*
X59207200Y-79940476D01*
X59207200Y-79940476D02*
X59254819Y-80083333D01*
X59254819Y-80083333D02*
X59254819Y-80178571D01*
X59254819Y-80178571D02*
X59207200Y-80321428D01*
X59207200Y-80321428D02*
X59111961Y-80416666D01*
X59111961Y-80416666D02*
X59016723Y-80464285D01*
X59016723Y-80464285D02*
X58826247Y-80511904D01*
X58826247Y-80511904D02*
X58683390Y-80511904D01*
X58683390Y-80511904D02*
X58492914Y-80464285D01*
X58492914Y-80464285D02*
X58397676Y-80416666D01*
X58397676Y-80416666D02*
X58302438Y-80321428D01*
X58302438Y-80321428D02*
X58254819Y-80178571D01*
X58254819Y-80178571D02*
X58254819Y-80083333D01*
X58254819Y-80083333D02*
X58302438Y-79940476D01*
X58302438Y-79940476D02*
X58350057Y-79892857D01*
X58254819Y-79559523D02*
X58254819Y-78940476D01*
X58254819Y-78940476D02*
X58635771Y-79273809D01*
X58635771Y-79273809D02*
X58635771Y-79130952D01*
X58635771Y-79130952D02*
X58683390Y-79035714D01*
X58683390Y-79035714D02*
X58731009Y-78988095D01*
X58731009Y-78988095D02*
X58826247Y-78940476D01*
X58826247Y-78940476D02*
X59064342Y-78940476D01*
X59064342Y-78940476D02*
X59159580Y-78988095D01*
X59159580Y-78988095D02*
X59207200Y-79035714D01*
X59207200Y-79035714D02*
X59254819Y-79130952D01*
X59254819Y-79130952D02*
X59254819Y-79416666D01*
X59254819Y-79416666D02*
X59207200Y-79511904D01*
X59207200Y-79511904D02*
X59159580Y-79559523D01*
X58588152Y-78083333D02*
X59254819Y-78083333D01*
X58207200Y-78321428D02*
X58921485Y-78559523D01*
X58921485Y-78559523D02*
X58921485Y-77940476D01*
X61857142Y-40509580D02*
X61809523Y-40557200D01*
X61809523Y-40557200D02*
X61666666Y-40604819D01*
X61666666Y-40604819D02*
X61571428Y-40604819D01*
X61571428Y-40604819D02*
X61428571Y-40557200D01*
X61428571Y-40557200D02*
X61333333Y-40461961D01*
X61333333Y-40461961D02*
X61285714Y-40366723D01*
X61285714Y-40366723D02*
X61238095Y-40176247D01*
X61238095Y-40176247D02*
X61238095Y-40033390D01*
X61238095Y-40033390D02*
X61285714Y-39842914D01*
X61285714Y-39842914D02*
X61333333Y-39747676D01*
X61333333Y-39747676D02*
X61428571Y-39652438D01*
X61428571Y-39652438D02*
X61571428Y-39604819D01*
X61571428Y-39604819D02*
X61666666Y-39604819D01*
X61666666Y-39604819D02*
X61809523Y-39652438D01*
X61809523Y-39652438D02*
X61857142Y-39700057D01*
X62761904Y-39604819D02*
X62285714Y-39604819D01*
X62285714Y-39604819D02*
X62238095Y-40081009D01*
X62238095Y-40081009D02*
X62285714Y-40033390D01*
X62285714Y-40033390D02*
X62380952Y-39985771D01*
X62380952Y-39985771D02*
X62619047Y-39985771D01*
X62619047Y-39985771D02*
X62714285Y-40033390D01*
X62714285Y-40033390D02*
X62761904Y-40081009D01*
X62761904Y-40081009D02*
X62809523Y-40176247D01*
X62809523Y-40176247D02*
X62809523Y-40414342D01*
X62809523Y-40414342D02*
X62761904Y-40509580D01*
X62761904Y-40509580D02*
X62714285Y-40557200D01*
X62714285Y-40557200D02*
X62619047Y-40604819D01*
X62619047Y-40604819D02*
X62380952Y-40604819D01*
X62380952Y-40604819D02*
X62285714Y-40557200D01*
X62285714Y-40557200D02*
X62238095Y-40509580D01*
X63285714Y-40604819D02*
X63476190Y-40604819D01*
X63476190Y-40604819D02*
X63571428Y-40557200D01*
X63571428Y-40557200D02*
X63619047Y-40509580D01*
X63619047Y-40509580D02*
X63714285Y-40366723D01*
X63714285Y-40366723D02*
X63761904Y-40176247D01*
X63761904Y-40176247D02*
X63761904Y-39795295D01*
X63761904Y-39795295D02*
X63714285Y-39700057D01*
X63714285Y-39700057D02*
X63666666Y-39652438D01*
X63666666Y-39652438D02*
X63571428Y-39604819D01*
X63571428Y-39604819D02*
X63380952Y-39604819D01*
X63380952Y-39604819D02*
X63285714Y-39652438D01*
X63285714Y-39652438D02*
X63238095Y-39700057D01*
X63238095Y-39700057D02*
X63190476Y-39795295D01*
X63190476Y-39795295D02*
X63190476Y-40033390D01*
X63190476Y-40033390D02*
X63238095Y-40128628D01*
X63238095Y-40128628D02*
X63285714Y-40176247D01*
X63285714Y-40176247D02*
X63380952Y-40223866D01*
X63380952Y-40223866D02*
X63571428Y-40223866D01*
X63571428Y-40223866D02*
X63666666Y-40176247D01*
X63666666Y-40176247D02*
X63714285Y-40128628D01*
X63714285Y-40128628D02*
X63761904Y-40033390D01*
X49459580Y-40142857D02*
X49507200Y-40190476D01*
X49507200Y-40190476D02*
X49554819Y-40333333D01*
X49554819Y-40333333D02*
X49554819Y-40428571D01*
X49554819Y-40428571D02*
X49507200Y-40571428D01*
X49507200Y-40571428D02*
X49411961Y-40666666D01*
X49411961Y-40666666D02*
X49316723Y-40714285D01*
X49316723Y-40714285D02*
X49126247Y-40761904D01*
X49126247Y-40761904D02*
X48983390Y-40761904D01*
X48983390Y-40761904D02*
X48792914Y-40714285D01*
X48792914Y-40714285D02*
X48697676Y-40666666D01*
X48697676Y-40666666D02*
X48602438Y-40571428D01*
X48602438Y-40571428D02*
X48554819Y-40428571D01*
X48554819Y-40428571D02*
X48554819Y-40333333D01*
X48554819Y-40333333D02*
X48602438Y-40190476D01*
X48602438Y-40190476D02*
X48650057Y-40142857D01*
X48888152Y-39285714D02*
X49554819Y-39285714D01*
X48507200Y-39523809D02*
X49221485Y-39761904D01*
X49221485Y-39761904D02*
X49221485Y-39142857D01*
X48888152Y-38333333D02*
X49554819Y-38333333D01*
X48507200Y-38571428D02*
X49221485Y-38809523D01*
X49221485Y-38809523D02*
X49221485Y-38190476D01*
X39454819Y-40714285D02*
X38454819Y-40714285D01*
X38454819Y-40714285D02*
X38454819Y-40476190D01*
X38454819Y-40476190D02*
X38502438Y-40333333D01*
X38502438Y-40333333D02*
X38597676Y-40238095D01*
X38597676Y-40238095D02*
X38692914Y-40190476D01*
X38692914Y-40190476D02*
X38883390Y-40142857D01*
X38883390Y-40142857D02*
X39026247Y-40142857D01*
X39026247Y-40142857D02*
X39216723Y-40190476D01*
X39216723Y-40190476D02*
X39311961Y-40238095D01*
X39311961Y-40238095D02*
X39407200Y-40333333D01*
X39407200Y-40333333D02*
X39454819Y-40476190D01*
X39454819Y-40476190D02*
X39454819Y-40714285D01*
X39454819Y-39190476D02*
X39454819Y-39761904D01*
X39454819Y-39476190D02*
X38454819Y-39476190D01*
X38454819Y-39476190D02*
X38597676Y-39571428D01*
X38597676Y-39571428D02*
X38692914Y-39666666D01*
X38692914Y-39666666D02*
X38740533Y-39761904D01*
X39454819Y-38238095D02*
X39454819Y-38809523D01*
X39454819Y-38523809D02*
X38454819Y-38523809D01*
X38454819Y-38523809D02*
X38597676Y-38619047D01*
X38597676Y-38619047D02*
X38692914Y-38714285D01*
X38692914Y-38714285D02*
X38740533Y-38809523D01*
X62607142Y-55429580D02*
X62559523Y-55477200D01*
X62559523Y-55477200D02*
X62416666Y-55524819D01*
X62416666Y-55524819D02*
X62321428Y-55524819D01*
X62321428Y-55524819D02*
X62178571Y-55477200D01*
X62178571Y-55477200D02*
X62083333Y-55381961D01*
X62083333Y-55381961D02*
X62035714Y-55286723D01*
X62035714Y-55286723D02*
X61988095Y-55096247D01*
X61988095Y-55096247D02*
X61988095Y-54953390D01*
X61988095Y-54953390D02*
X62035714Y-54762914D01*
X62035714Y-54762914D02*
X62083333Y-54667676D01*
X62083333Y-54667676D02*
X62178571Y-54572438D01*
X62178571Y-54572438D02*
X62321428Y-54524819D01*
X62321428Y-54524819D02*
X62416666Y-54524819D01*
X62416666Y-54524819D02*
X62559523Y-54572438D01*
X62559523Y-54572438D02*
X62607142Y-54620057D01*
X63511904Y-54524819D02*
X63035714Y-54524819D01*
X63035714Y-54524819D02*
X62988095Y-55001009D01*
X62988095Y-55001009D02*
X63035714Y-54953390D01*
X63035714Y-54953390D02*
X63130952Y-54905771D01*
X63130952Y-54905771D02*
X63369047Y-54905771D01*
X63369047Y-54905771D02*
X63464285Y-54953390D01*
X63464285Y-54953390D02*
X63511904Y-55001009D01*
X63511904Y-55001009D02*
X63559523Y-55096247D01*
X63559523Y-55096247D02*
X63559523Y-55334342D01*
X63559523Y-55334342D02*
X63511904Y-55429580D01*
X63511904Y-55429580D02*
X63464285Y-55477200D01*
X63464285Y-55477200D02*
X63369047Y-55524819D01*
X63369047Y-55524819D02*
X63130952Y-55524819D01*
X63130952Y-55524819D02*
X63035714Y-55477200D01*
X63035714Y-55477200D02*
X62988095Y-55429580D01*
X63892857Y-54524819D02*
X64559523Y-54524819D01*
X64559523Y-54524819D02*
X64130952Y-55524819D01*
X30604819Y-68142857D02*
X30128628Y-68476190D01*
X30604819Y-68714285D02*
X29604819Y-68714285D01*
X29604819Y-68714285D02*
X29604819Y-68333333D01*
X29604819Y-68333333D02*
X29652438Y-68238095D01*
X29652438Y-68238095D02*
X29700057Y-68190476D01*
X29700057Y-68190476D02*
X29795295Y-68142857D01*
X29795295Y-68142857D02*
X29938152Y-68142857D01*
X29938152Y-68142857D02*
X30033390Y-68190476D01*
X30033390Y-68190476D02*
X30081009Y-68238095D01*
X30081009Y-68238095D02*
X30128628Y-68333333D01*
X30128628Y-68333333D02*
X30128628Y-68714285D01*
X30604819Y-67190476D02*
X30604819Y-67761904D01*
X30604819Y-67476190D02*
X29604819Y-67476190D01*
X29604819Y-67476190D02*
X29747676Y-67571428D01*
X29747676Y-67571428D02*
X29842914Y-67666666D01*
X29842914Y-67666666D02*
X29890533Y-67761904D01*
X29604819Y-66857142D02*
X29604819Y-66238095D01*
X29604819Y-66238095D02*
X29985771Y-66571428D01*
X29985771Y-66571428D02*
X29985771Y-66428571D01*
X29985771Y-66428571D02*
X30033390Y-66333333D01*
X30033390Y-66333333D02*
X30081009Y-66285714D01*
X30081009Y-66285714D02*
X30176247Y-66238095D01*
X30176247Y-66238095D02*
X30414342Y-66238095D01*
X30414342Y-66238095D02*
X30509580Y-66285714D01*
X30509580Y-66285714D02*
X30557200Y-66333333D01*
X30557200Y-66333333D02*
X30604819Y-66428571D01*
X30604819Y-66428571D02*
X30604819Y-66714285D01*
X30604819Y-66714285D02*
X30557200Y-66809523D01*
X30557200Y-66809523D02*
X30509580Y-66857142D01*
X30459580Y-47392857D02*
X30507200Y-47440476D01*
X30507200Y-47440476D02*
X30554819Y-47583333D01*
X30554819Y-47583333D02*
X30554819Y-47678571D01*
X30554819Y-47678571D02*
X30507200Y-47821428D01*
X30507200Y-47821428D02*
X30411961Y-47916666D01*
X30411961Y-47916666D02*
X30316723Y-47964285D01*
X30316723Y-47964285D02*
X30126247Y-48011904D01*
X30126247Y-48011904D02*
X29983390Y-48011904D01*
X29983390Y-48011904D02*
X29792914Y-47964285D01*
X29792914Y-47964285D02*
X29697676Y-47916666D01*
X29697676Y-47916666D02*
X29602438Y-47821428D01*
X29602438Y-47821428D02*
X29554819Y-47678571D01*
X29554819Y-47678571D02*
X29554819Y-47583333D01*
X29554819Y-47583333D02*
X29602438Y-47440476D01*
X29602438Y-47440476D02*
X29650057Y-47392857D01*
X29554819Y-47059523D02*
X29554819Y-46440476D01*
X29554819Y-46440476D02*
X29935771Y-46773809D01*
X29935771Y-46773809D02*
X29935771Y-46630952D01*
X29935771Y-46630952D02*
X29983390Y-46535714D01*
X29983390Y-46535714D02*
X30031009Y-46488095D01*
X30031009Y-46488095D02*
X30126247Y-46440476D01*
X30126247Y-46440476D02*
X30364342Y-46440476D01*
X30364342Y-46440476D02*
X30459580Y-46488095D01*
X30459580Y-46488095D02*
X30507200Y-46535714D01*
X30507200Y-46535714D02*
X30554819Y-46630952D01*
X30554819Y-46630952D02*
X30554819Y-46916666D01*
X30554819Y-46916666D02*
X30507200Y-47011904D01*
X30507200Y-47011904D02*
X30459580Y-47059523D01*
X29554819Y-45583333D02*
X29554819Y-45773809D01*
X29554819Y-45773809D02*
X29602438Y-45869047D01*
X29602438Y-45869047D02*
X29650057Y-45916666D01*
X29650057Y-45916666D02*
X29792914Y-46011904D01*
X29792914Y-46011904D02*
X29983390Y-46059523D01*
X29983390Y-46059523D02*
X30364342Y-46059523D01*
X30364342Y-46059523D02*
X30459580Y-46011904D01*
X30459580Y-46011904D02*
X30507200Y-45964285D01*
X30507200Y-45964285D02*
X30554819Y-45869047D01*
X30554819Y-45869047D02*
X30554819Y-45678571D01*
X30554819Y-45678571D02*
X30507200Y-45583333D01*
X30507200Y-45583333D02*
X30459580Y-45535714D01*
X30459580Y-45535714D02*
X30364342Y-45488095D01*
X30364342Y-45488095D02*
X30126247Y-45488095D01*
X30126247Y-45488095D02*
X30031009Y-45535714D01*
X30031009Y-45535714D02*
X29983390Y-45583333D01*
X29983390Y-45583333D02*
X29935771Y-45678571D01*
X29935771Y-45678571D02*
X29935771Y-45869047D01*
X29935771Y-45869047D02*
X29983390Y-45964285D01*
X29983390Y-45964285D02*
X30031009Y-46011904D01*
X30031009Y-46011904D02*
X30126247Y-46059523D01*
X41333333Y-74054819D02*
X41000000Y-73578628D01*
X40761905Y-74054819D02*
X40761905Y-73054819D01*
X40761905Y-73054819D02*
X41142857Y-73054819D01*
X41142857Y-73054819D02*
X41238095Y-73102438D01*
X41238095Y-73102438D02*
X41285714Y-73150057D01*
X41285714Y-73150057D02*
X41333333Y-73245295D01*
X41333333Y-73245295D02*
X41333333Y-73388152D01*
X41333333Y-73388152D02*
X41285714Y-73483390D01*
X41285714Y-73483390D02*
X41238095Y-73531009D01*
X41238095Y-73531009D02*
X41142857Y-73578628D01*
X41142857Y-73578628D02*
X40761905Y-73578628D01*
X41666667Y-73054819D02*
X42285714Y-73054819D01*
X42285714Y-73054819D02*
X41952381Y-73435771D01*
X41952381Y-73435771D02*
X42095238Y-73435771D01*
X42095238Y-73435771D02*
X42190476Y-73483390D01*
X42190476Y-73483390D02*
X42238095Y-73531009D01*
X42238095Y-73531009D02*
X42285714Y-73626247D01*
X42285714Y-73626247D02*
X42285714Y-73864342D01*
X42285714Y-73864342D02*
X42238095Y-73959580D01*
X42238095Y-73959580D02*
X42190476Y-74007200D01*
X42190476Y-74007200D02*
X42095238Y-74054819D01*
X42095238Y-74054819D02*
X41809524Y-74054819D01*
X41809524Y-74054819D02*
X41714286Y-74007200D01*
X41714286Y-74007200D02*
X41666667Y-73959580D01*
X61289580Y-71392857D02*
X61337200Y-71440476D01*
X61337200Y-71440476D02*
X61384819Y-71583333D01*
X61384819Y-71583333D02*
X61384819Y-71678571D01*
X61384819Y-71678571D02*
X61337200Y-71821428D01*
X61337200Y-71821428D02*
X61241961Y-71916666D01*
X61241961Y-71916666D02*
X61146723Y-71964285D01*
X61146723Y-71964285D02*
X60956247Y-72011904D01*
X60956247Y-72011904D02*
X60813390Y-72011904D01*
X60813390Y-72011904D02*
X60622914Y-71964285D01*
X60622914Y-71964285D02*
X60527676Y-71916666D01*
X60527676Y-71916666D02*
X60432438Y-71821428D01*
X60432438Y-71821428D02*
X60384819Y-71678571D01*
X60384819Y-71678571D02*
X60384819Y-71583333D01*
X60384819Y-71583333D02*
X60432438Y-71440476D01*
X60432438Y-71440476D02*
X60480057Y-71392857D01*
X61384819Y-70440476D02*
X61384819Y-71011904D01*
X61384819Y-70726190D02*
X60384819Y-70726190D01*
X60384819Y-70726190D02*
X60527676Y-70821428D01*
X60527676Y-70821428D02*
X60622914Y-70916666D01*
X60622914Y-70916666D02*
X60670533Y-71011904D01*
X61384819Y-69488095D02*
X61384819Y-70059523D01*
X61384819Y-69773809D02*
X60384819Y-69773809D01*
X60384819Y-69773809D02*
X60527676Y-69869047D01*
X60527676Y-69869047D02*
X60622914Y-69964285D01*
X60622914Y-69964285D02*
X60670533Y-70059523D01*
X26454819Y-19533333D02*
X27169104Y-19533333D01*
X27169104Y-19533333D02*
X27311961Y-19580952D01*
X27311961Y-19580952D02*
X27407200Y-19676190D01*
X27407200Y-19676190D02*
X27454819Y-19819047D01*
X27454819Y-19819047D02*
X27454819Y-19914285D01*
X26454819Y-18628571D02*
X26454819Y-18819047D01*
X26454819Y-18819047D02*
X26502438Y-18914285D01*
X26502438Y-18914285D02*
X26550057Y-18961904D01*
X26550057Y-18961904D02*
X26692914Y-19057142D01*
X26692914Y-19057142D02*
X26883390Y-19104761D01*
X26883390Y-19104761D02*
X27264342Y-19104761D01*
X27264342Y-19104761D02*
X27359580Y-19057142D01*
X27359580Y-19057142D02*
X27407200Y-19009523D01*
X27407200Y-19009523D02*
X27454819Y-18914285D01*
X27454819Y-18914285D02*
X27454819Y-18723809D01*
X27454819Y-18723809D02*
X27407200Y-18628571D01*
X27407200Y-18628571D02*
X27359580Y-18580952D01*
X27359580Y-18580952D02*
X27264342Y-18533333D01*
X27264342Y-18533333D02*
X27026247Y-18533333D01*
X27026247Y-18533333D02*
X26931009Y-18580952D01*
X26931009Y-18580952D02*
X26883390Y-18628571D01*
X26883390Y-18628571D02*
X26835771Y-18723809D01*
X26835771Y-18723809D02*
X26835771Y-18914285D01*
X26835771Y-18914285D02*
X26883390Y-19009523D01*
X26883390Y-19009523D02*
X26931009Y-19057142D01*
X26931009Y-19057142D02*
X27026247Y-19104761D01*
X44474819Y-26923333D02*
X45189104Y-26923333D01*
X45189104Y-26923333D02*
X45331961Y-26970952D01*
X45331961Y-26970952D02*
X45427200Y-27066190D01*
X45427200Y-27066190D02*
X45474819Y-27209047D01*
X45474819Y-27209047D02*
X45474819Y-27304285D01*
X44808152Y-26018571D02*
X45474819Y-26018571D01*
X44427200Y-26256666D02*
X45141485Y-26494761D01*
X45141485Y-26494761D02*
X45141485Y-25875714D01*
X52429819Y-50411904D02*
X53239342Y-50411904D01*
X53239342Y-50411904D02*
X53334580Y-50364285D01*
X53334580Y-50364285D02*
X53382200Y-50316666D01*
X53382200Y-50316666D02*
X53429819Y-50221428D01*
X53429819Y-50221428D02*
X53429819Y-50030952D01*
X53429819Y-50030952D02*
X53382200Y-49935714D01*
X53382200Y-49935714D02*
X53334580Y-49888095D01*
X53334580Y-49888095D02*
X53239342Y-49840476D01*
X53239342Y-49840476D02*
X52429819Y-49840476D01*
X53429819Y-49316666D02*
X53429819Y-49126190D01*
X53429819Y-49126190D02*
X53382200Y-49030952D01*
X53382200Y-49030952D02*
X53334580Y-48983333D01*
X53334580Y-48983333D02*
X53191723Y-48888095D01*
X53191723Y-48888095D02*
X53001247Y-48840476D01*
X53001247Y-48840476D02*
X52620295Y-48840476D01*
X52620295Y-48840476D02*
X52525057Y-48888095D01*
X52525057Y-48888095D02*
X52477438Y-48935714D01*
X52477438Y-48935714D02*
X52429819Y-49030952D01*
X52429819Y-49030952D02*
X52429819Y-49221428D01*
X52429819Y-49221428D02*
X52477438Y-49316666D01*
X52477438Y-49316666D02*
X52525057Y-49364285D01*
X52525057Y-49364285D02*
X52620295Y-49411904D01*
X52620295Y-49411904D02*
X52858390Y-49411904D01*
X52858390Y-49411904D02*
X52953628Y-49364285D01*
X52953628Y-49364285D02*
X53001247Y-49316666D01*
X53001247Y-49316666D02*
X53048866Y-49221428D01*
X53048866Y-49221428D02*
X53048866Y-49030952D01*
X53048866Y-49030952D02*
X53001247Y-48935714D01*
X53001247Y-48935714D02*
X52953628Y-48888095D01*
X52953628Y-48888095D02*
X52858390Y-48840476D01*
X23594819Y-53728094D02*
X22594819Y-53728094D01*
X22594819Y-53728094D02*
X22594819Y-53489999D01*
X22594819Y-53489999D02*
X22642438Y-53347142D01*
X22642438Y-53347142D02*
X22737676Y-53251904D01*
X22737676Y-53251904D02*
X22832914Y-53204285D01*
X22832914Y-53204285D02*
X23023390Y-53156666D01*
X23023390Y-53156666D02*
X23166247Y-53156666D01*
X23166247Y-53156666D02*
X23356723Y-53204285D01*
X23356723Y-53204285D02*
X23451961Y-53251904D01*
X23451961Y-53251904D02*
X23547200Y-53347142D01*
X23547200Y-53347142D02*
X23594819Y-53489999D01*
X23594819Y-53489999D02*
X23594819Y-53728094D01*
X22690057Y-52775713D02*
X22642438Y-52728094D01*
X22642438Y-52728094D02*
X22594819Y-52632856D01*
X22594819Y-52632856D02*
X22594819Y-52394761D01*
X22594819Y-52394761D02*
X22642438Y-52299523D01*
X22642438Y-52299523D02*
X22690057Y-52251904D01*
X22690057Y-52251904D02*
X22785295Y-52204285D01*
X22785295Y-52204285D02*
X22880533Y-52204285D01*
X22880533Y-52204285D02*
X23023390Y-52251904D01*
X23023390Y-52251904D02*
X23594819Y-52823332D01*
X23594819Y-52823332D02*
X23594819Y-52204285D01*
X52607142Y-77709580D02*
X52559523Y-77757200D01*
X52559523Y-77757200D02*
X52416666Y-77804819D01*
X52416666Y-77804819D02*
X52321428Y-77804819D01*
X52321428Y-77804819D02*
X52178571Y-77757200D01*
X52178571Y-77757200D02*
X52083333Y-77661961D01*
X52083333Y-77661961D02*
X52035714Y-77566723D01*
X52035714Y-77566723D02*
X51988095Y-77376247D01*
X51988095Y-77376247D02*
X51988095Y-77233390D01*
X51988095Y-77233390D02*
X52035714Y-77042914D01*
X52035714Y-77042914D02*
X52083333Y-76947676D01*
X52083333Y-76947676D02*
X52178571Y-76852438D01*
X52178571Y-76852438D02*
X52321428Y-76804819D01*
X52321428Y-76804819D02*
X52416666Y-76804819D01*
X52416666Y-76804819D02*
X52559523Y-76852438D01*
X52559523Y-76852438D02*
X52607142Y-76900057D01*
X52940476Y-76804819D02*
X53559523Y-76804819D01*
X53559523Y-76804819D02*
X53226190Y-77185771D01*
X53226190Y-77185771D02*
X53369047Y-77185771D01*
X53369047Y-77185771D02*
X53464285Y-77233390D01*
X53464285Y-77233390D02*
X53511904Y-77281009D01*
X53511904Y-77281009D02*
X53559523Y-77376247D01*
X53559523Y-77376247D02*
X53559523Y-77614342D01*
X53559523Y-77614342D02*
X53511904Y-77709580D01*
X53511904Y-77709580D02*
X53464285Y-77757200D01*
X53464285Y-77757200D02*
X53369047Y-77804819D01*
X53369047Y-77804819D02*
X53083333Y-77804819D01*
X53083333Y-77804819D02*
X52988095Y-77757200D01*
X52988095Y-77757200D02*
X52940476Y-77709580D01*
X54464285Y-76804819D02*
X53988095Y-76804819D01*
X53988095Y-76804819D02*
X53940476Y-77281009D01*
X53940476Y-77281009D02*
X53988095Y-77233390D01*
X53988095Y-77233390D02*
X54083333Y-77185771D01*
X54083333Y-77185771D02*
X54321428Y-77185771D01*
X54321428Y-77185771D02*
X54416666Y-77233390D01*
X54416666Y-77233390D02*
X54464285Y-77281009D01*
X54464285Y-77281009D02*
X54511904Y-77376247D01*
X54511904Y-77376247D02*
X54511904Y-77614342D01*
X54511904Y-77614342D02*
X54464285Y-77709580D01*
X54464285Y-77709580D02*
X54416666Y-77757200D01*
X54416666Y-77757200D02*
X54321428Y-77804819D01*
X54321428Y-77804819D02*
X54083333Y-77804819D01*
X54083333Y-77804819D02*
X53988095Y-77757200D01*
X53988095Y-77757200D02*
X53940476Y-77709580D01*
X50429580Y-59916666D02*
X50477200Y-59964285D01*
X50477200Y-59964285D02*
X50524819Y-60107142D01*
X50524819Y-60107142D02*
X50524819Y-60202380D01*
X50524819Y-60202380D02*
X50477200Y-60345237D01*
X50477200Y-60345237D02*
X50381961Y-60440475D01*
X50381961Y-60440475D02*
X50286723Y-60488094D01*
X50286723Y-60488094D02*
X50096247Y-60535713D01*
X50096247Y-60535713D02*
X49953390Y-60535713D01*
X49953390Y-60535713D02*
X49762914Y-60488094D01*
X49762914Y-60488094D02*
X49667676Y-60440475D01*
X49667676Y-60440475D02*
X49572438Y-60345237D01*
X49572438Y-60345237D02*
X49524819Y-60202380D01*
X49524819Y-60202380D02*
X49524819Y-60107142D01*
X49524819Y-60107142D02*
X49572438Y-59964285D01*
X49572438Y-59964285D02*
X49620057Y-59916666D01*
X50524819Y-59440475D02*
X50524819Y-59249999D01*
X50524819Y-59249999D02*
X50477200Y-59154761D01*
X50477200Y-59154761D02*
X50429580Y-59107142D01*
X50429580Y-59107142D02*
X50286723Y-59011904D01*
X50286723Y-59011904D02*
X50096247Y-58964285D01*
X50096247Y-58964285D02*
X49715295Y-58964285D01*
X49715295Y-58964285D02*
X49620057Y-59011904D01*
X49620057Y-59011904D02*
X49572438Y-59059523D01*
X49572438Y-59059523D02*
X49524819Y-59154761D01*
X49524819Y-59154761D02*
X49524819Y-59345237D01*
X49524819Y-59345237D02*
X49572438Y-59440475D01*
X49572438Y-59440475D02*
X49620057Y-59488094D01*
X49620057Y-59488094D02*
X49715295Y-59535713D01*
X49715295Y-59535713D02*
X49953390Y-59535713D01*
X49953390Y-59535713D02*
X50048628Y-59488094D01*
X50048628Y-59488094D02*
X50096247Y-59440475D01*
X50096247Y-59440475D02*
X50143866Y-59345237D01*
X50143866Y-59345237D02*
X50143866Y-59154761D01*
X50143866Y-59154761D02*
X50096247Y-59059523D01*
X50096247Y-59059523D02*
X50048628Y-59011904D01*
X50048628Y-59011904D02*
X49953390Y-58964285D01*
X51474819Y-26923333D02*
X52189104Y-26923333D01*
X52189104Y-26923333D02*
X52331961Y-26970952D01*
X52331961Y-26970952D02*
X52427200Y-27066190D01*
X52427200Y-27066190D02*
X52474819Y-27209047D01*
X52474819Y-27209047D02*
X52474819Y-27304285D01*
X51474819Y-25970952D02*
X51474819Y-26447142D01*
X51474819Y-26447142D02*
X51951009Y-26494761D01*
X51951009Y-26494761D02*
X51903390Y-26447142D01*
X51903390Y-26447142D02*
X51855771Y-26351904D01*
X51855771Y-26351904D02*
X51855771Y-26113809D01*
X51855771Y-26113809D02*
X51903390Y-26018571D01*
X51903390Y-26018571D02*
X51951009Y-25970952D01*
X51951009Y-25970952D02*
X52046247Y-25923333D01*
X52046247Y-25923333D02*
X52284342Y-25923333D01*
X52284342Y-25923333D02*
X52379580Y-25970952D01*
X52379580Y-25970952D02*
X52427200Y-26018571D01*
X52427200Y-26018571D02*
X52474819Y-26113809D01*
X52474819Y-26113809D02*
X52474819Y-26351904D01*
X52474819Y-26351904D02*
X52427200Y-26447142D01*
X52427200Y-26447142D02*
X52379580Y-26494761D01*
X32804819Y-40642857D02*
X32328628Y-40976190D01*
X32804819Y-41214285D02*
X31804819Y-41214285D01*
X31804819Y-41214285D02*
X31804819Y-40833333D01*
X31804819Y-40833333D02*
X31852438Y-40738095D01*
X31852438Y-40738095D02*
X31900057Y-40690476D01*
X31900057Y-40690476D02*
X31995295Y-40642857D01*
X31995295Y-40642857D02*
X32138152Y-40642857D01*
X32138152Y-40642857D02*
X32233390Y-40690476D01*
X32233390Y-40690476D02*
X32281009Y-40738095D01*
X32281009Y-40738095D02*
X32328628Y-40833333D01*
X32328628Y-40833333D02*
X32328628Y-41214285D01*
X32804819Y-39690476D02*
X32804819Y-40261904D01*
X32804819Y-39976190D02*
X31804819Y-39976190D01*
X31804819Y-39976190D02*
X31947676Y-40071428D01*
X31947676Y-40071428D02*
X32042914Y-40166666D01*
X32042914Y-40166666D02*
X32090533Y-40261904D01*
X31804819Y-39071428D02*
X31804819Y-38976190D01*
X31804819Y-38976190D02*
X31852438Y-38880952D01*
X31852438Y-38880952D02*
X31900057Y-38833333D01*
X31900057Y-38833333D02*
X31995295Y-38785714D01*
X31995295Y-38785714D02*
X32185771Y-38738095D01*
X32185771Y-38738095D02*
X32423866Y-38738095D01*
X32423866Y-38738095D02*
X32614342Y-38785714D01*
X32614342Y-38785714D02*
X32709580Y-38833333D01*
X32709580Y-38833333D02*
X32757200Y-38880952D01*
X32757200Y-38880952D02*
X32804819Y-38976190D01*
X32804819Y-38976190D02*
X32804819Y-39071428D01*
X32804819Y-39071428D02*
X32757200Y-39166666D01*
X32757200Y-39166666D02*
X32709580Y-39214285D01*
X32709580Y-39214285D02*
X32614342Y-39261904D01*
X32614342Y-39261904D02*
X32423866Y-39309523D01*
X32423866Y-39309523D02*
X32185771Y-39309523D01*
X32185771Y-39309523D02*
X31995295Y-39261904D01*
X31995295Y-39261904D02*
X31900057Y-39214285D01*
X31900057Y-39214285D02*
X31852438Y-39166666D01*
X31852438Y-39166666D02*
X31804819Y-39071428D01*
D13*
%TO.C,IC9*%
X53420000Y-36725000D02*
X53420000Y-35200000D01*
X53550000Y-34850000D02*
X53550000Y-31650000D01*
X58450000Y-34850000D02*
X53550000Y-34850000D01*
X53550000Y-31650000D02*
X58450000Y-31650000D01*
X58450000Y-31650000D02*
X58450000Y-34850000D01*
%TO.C,IC8*%
X59920000Y-40475000D02*
X59920000Y-38950000D01*
X60050000Y-38600000D02*
X60050000Y-35400000D01*
X64950000Y-38600000D02*
X60050000Y-38600000D01*
X60050000Y-35400000D02*
X64950000Y-35400000D01*
X64950000Y-35400000D02*
X64950000Y-38600000D01*
%TO.C,IC7*%
X47805000Y-36725000D02*
X47805000Y-35200000D01*
X47935000Y-34850000D02*
X47935000Y-31650000D01*
X52835000Y-34850000D02*
X47935000Y-34850000D01*
X47935000Y-31650000D02*
X52835000Y-31650000D01*
X52835000Y-31650000D02*
X52835000Y-34850000D01*
%TO.C,IC6*%
X40670000Y-40725000D02*
X40670000Y-39200000D01*
X40800000Y-38850000D02*
X40800000Y-35650000D01*
X45700000Y-38850000D02*
X40800000Y-38850000D01*
X40800000Y-35650000D02*
X45700000Y-35650000D01*
X45700000Y-35650000D02*
X45700000Y-38850000D01*
D14*
%TO.C,C18*%
X46340000Y-56038748D02*
X46340000Y-57461252D01*
X48160000Y-56038748D02*
X48160000Y-57461252D01*
%TO.C,C15*%
X54640000Y-85461252D02*
X54640000Y-84038748D01*
X57360000Y-85461252D02*
X57360000Y-84038748D01*
%TO.C,R6*%
X28265000Y-74522936D02*
X28265000Y-74977064D01*
X29735000Y-74522936D02*
X29735000Y-74977064D01*
D10*
%TO.C,D7*%
X22525000Y-51675000D02*
X22750000Y-51675000D01*
X22525000Y-51975000D02*
X22525000Y-51675000D01*
X22525000Y-53975000D02*
X22525000Y-54325000D01*
X22525000Y-54125000D02*
X24475000Y-54125000D01*
X22525000Y-54225000D02*
X24475000Y-54225000D01*
X22525000Y-54325000D02*
X24475000Y-54325000D01*
X24225000Y-51675000D02*
X24475000Y-51675000D01*
X24475000Y-51675000D02*
X24475000Y-51925000D01*
X24475000Y-53975000D02*
X24475000Y-54325000D01*
D14*
%TO.C,C56*%
X59990000Y-57646267D02*
X59990000Y-57353733D01*
X61010000Y-57646267D02*
X61010000Y-57353733D01*
%TO.C,C16*%
X24890000Y-75961252D02*
X24890000Y-74538748D01*
X27610000Y-75961252D02*
X27610000Y-74538748D01*
%TO.C,C60*%
X55788748Y-37340000D02*
X57211252Y-37340000D01*
X55788748Y-39160000D02*
X57211252Y-39160000D01*
%TO.C,C12*%
X60890000Y-62853733D02*
X60890000Y-63146267D01*
X61910000Y-62853733D02*
X61910000Y-63146267D01*
%TO.C,R29*%
X63504724Y-57977500D02*
X62995276Y-57977500D01*
X63504724Y-59022500D02*
X62995276Y-59022500D01*
%TO.C,R4*%
X52727064Y-76890000D02*
X52272936Y-76890000D01*
X52727064Y-78360000D02*
X52272936Y-78360000D01*
%TO.C,R31*%
X53772936Y-40515000D02*
X54227064Y-40515000D01*
X53772936Y-41985000D02*
X54227064Y-41985000D01*
%TO.C,C50*%
X56396267Y-71240000D02*
X56103733Y-71240000D01*
X56396267Y-72260000D02*
X56103733Y-72260000D01*
D10*
%TO.C,D8*%
X38175000Y-44775000D02*
X38425000Y-44775000D01*
X38175000Y-45025000D02*
X38175000Y-44775000D01*
X38175000Y-46725000D02*
X38175000Y-46500000D01*
X38475000Y-46725000D02*
X38175000Y-46725000D01*
X40475000Y-44775000D02*
X40825000Y-44775000D01*
X40475000Y-46725000D02*
X40825000Y-46725000D01*
X40625000Y-46725000D02*
X40625000Y-44775000D01*
X40725000Y-46725000D02*
X40725000Y-44775000D01*
X40825000Y-46725000D02*
X40825000Y-44775000D01*
D13*
%TO.C,J2*%
X41105000Y-16190000D02*
X43645000Y-16190000D01*
X41105000Y-23810000D02*
X41105000Y-16190000D01*
X41105000Y-23810000D02*
X43645000Y-23810000D01*
X43645000Y-16690000D02*
X43645000Y-16190000D01*
X43645000Y-16690000D02*
X51730000Y-16690000D01*
X43645000Y-23310000D02*
X43645000Y-23810000D01*
X43645000Y-23310000D02*
X51730000Y-23310000D01*
X51730000Y-16190000D02*
X54270000Y-16190000D01*
X51730000Y-16690000D02*
X51730000Y-16190000D01*
X51730000Y-23310000D02*
X51730000Y-23810000D01*
X51730000Y-23810000D02*
X54270000Y-23810000D01*
X54270000Y-16690000D02*
X54270000Y-16190000D01*
X54270000Y-23310000D02*
X54270000Y-23810000D01*
X62355000Y-16690000D02*
X54270000Y-16690000D01*
X62355000Y-16690000D02*
X62355000Y-16190000D01*
X62355000Y-23310000D02*
X54270000Y-23310000D01*
X62355000Y-23310000D02*
X62355000Y-23810000D01*
X64895000Y-16190000D02*
X62355000Y-16190000D01*
X64895000Y-23810000D02*
X62355000Y-23810000D01*
X64895000Y-23810000D02*
X64895000Y-16190000D01*
D14*
%TO.C,U8*%
X42335000Y-44390000D02*
X42590000Y-44390000D01*
X42335000Y-48250000D02*
X42335000Y-44390000D01*
X42335000Y-48250000D02*
X42335000Y-52110000D01*
X42335000Y-52110000D02*
X42590000Y-52110000D01*
X52855000Y-44390000D02*
X52600000Y-44390000D01*
X52855000Y-48250000D02*
X52855000Y-44390000D01*
X52855000Y-48250000D02*
X52855000Y-52110000D01*
X52855000Y-52110000D02*
X52600000Y-52110000D01*
X42590000Y-52962500D02*
X42120000Y-53302500D01*
X42120000Y-52622500D01*
X42590000Y-52962500D01*
G36*
X42590000Y-52962500D02*
G01*
X42120000Y-53302500D01*
X42120000Y-52622500D01*
X42590000Y-52962500D01*
G37*
D10*
%TO.C,J10*%
X23230000Y-41445000D02*
X23230000Y-35095000D01*
X24500000Y-41445000D02*
X23230000Y-41445000D01*
X25770000Y-35095000D02*
X28310000Y-35095000D01*
X28310000Y-35095000D02*
X28310000Y-41445000D01*
%TO.C,SW1*%
X20460000Y-78000000D02*
X28460000Y-78000000D01*
X20460000Y-88040000D02*
X20460000Y-78000000D01*
X28460000Y-78000000D02*
X28460000Y-88040000D01*
X28460000Y-88040000D02*
X20460000Y-88040000D01*
D14*
%TO.C,C58*%
X57711252Y-56090000D02*
X56288748Y-56090000D01*
X57711252Y-57910000D02*
X56288748Y-57910000D01*
%TO.C,U6*%
D10*
X35642500Y-88067500D02*
X28657500Y-88067500D01*
X28657500Y-76732500D01*
X35642500Y-76732500D01*
X35642500Y-88067500D01*
%TO.C,U5*%
X50457500Y-87985000D02*
X43472500Y-87985000D01*
X43472500Y-76650000D01*
X50457500Y-76650000D01*
X50457500Y-87985000D01*
%TO.C,D5*%
X21425000Y-55525000D02*
X21675000Y-55525000D01*
X21425000Y-55775000D02*
X21425000Y-55525000D01*
X21425000Y-57475000D02*
X21425000Y-57250000D01*
X21725000Y-57475000D02*
X21425000Y-57475000D01*
X23725000Y-55525000D02*
X24075000Y-55525000D01*
X23725000Y-57475000D02*
X24075000Y-57475000D01*
X23875000Y-57475000D02*
X23875000Y-55525000D01*
X23975000Y-57475000D02*
X23975000Y-55525000D01*
X24075000Y-57475000D02*
X24075000Y-55525000D01*
D15*
%TO.C,C3*%
X30365000Y-71000000D02*
X31635000Y-71000000D01*
X31000000Y-70365000D02*
X31000000Y-71635000D01*
X40372100Y-71000000D02*
G75*
G02*
X29627900Y-71000000I-5372100J0D01*
G01*
X29627900Y-71000000D02*
G75*
G02*
X40372100Y-71000000I5372100J0D01*
G01*
%TO.C,C43*%
X30531750Y-32500000D02*
X31801750Y-32500000D01*
X31166750Y-31865000D02*
X31166750Y-33135000D01*
X40538850Y-32500000D02*
G75*
G02*
X29794650Y-32500000I-5372100J0D01*
G01*
X29794650Y-32500000D02*
G75*
G02*
X40538850Y-32500000I5372100J0D01*
G01*
D10*
%TO.C,D6*%
X21425000Y-57525000D02*
X21675000Y-57525000D01*
X21425000Y-57775000D02*
X21425000Y-57525000D01*
X21425000Y-59475000D02*
X21425000Y-59250000D01*
X21725000Y-59475000D02*
X21425000Y-59475000D01*
X23725000Y-57525000D02*
X24075000Y-57525000D01*
X23725000Y-59475000D02*
X24075000Y-59475000D01*
X23875000Y-59475000D02*
X23875000Y-57525000D01*
X23975000Y-59475000D02*
X23975000Y-57525000D01*
X24075000Y-59475000D02*
X24075000Y-57525000D01*
%TO.C,D3*%
X26425000Y-55525000D02*
X26675000Y-55525000D01*
X26425000Y-55775000D02*
X26425000Y-55525000D01*
X26425000Y-57475000D02*
X26425000Y-57250000D01*
X26725000Y-57475000D02*
X26425000Y-57475000D01*
X28725000Y-55525000D02*
X29075000Y-55525000D01*
X28725000Y-57475000D02*
X29075000Y-57475000D01*
X28875000Y-57475000D02*
X28875000Y-55525000D01*
X28975000Y-57475000D02*
X28975000Y-55525000D01*
X29075000Y-57475000D02*
X29075000Y-55525000D01*
%TO.C,J3*%
X21230000Y-68195000D02*
X21230000Y-61845000D01*
X23770000Y-68195000D02*
X21230000Y-68195000D01*
X25040000Y-61845000D02*
X26310000Y-61845000D01*
X26310000Y-61845000D02*
X26310000Y-68195000D01*
D14*
%TO.C,C53*%
X63211252Y-30140000D02*
X61788748Y-30140000D01*
X63211252Y-32860000D02*
X61788748Y-32860000D01*
%TO.C,R5*%
X50840000Y-86102064D02*
X50840000Y-84647936D01*
X52660000Y-86102064D02*
X52660000Y-84647936D01*
%TO.C,R21*%
X20765000Y-72522936D02*
X20765000Y-72977064D01*
X22235000Y-72522936D02*
X22235000Y-72977064D01*
%TO.C,R28*%
X42776263Y-26895000D02*
X44223737Y-26895000D01*
X42776263Y-29605000D02*
X44223737Y-29605000D01*
%TO.C,C25*%
X33646267Y-63740000D02*
X33353733Y-63740000D01*
X33646267Y-64760000D02*
X33353733Y-64760000D01*
%TO.C,R23*%
X38515000Y-38772936D02*
X38515000Y-39227064D01*
X39985000Y-38772936D02*
X39985000Y-39227064D01*
%TO.C,C54*%
X42788748Y-30140000D02*
X44211252Y-30140000D01*
X42788748Y-32860000D02*
X44211252Y-32860000D01*
D10*
%TO.C,D4*%
X26425000Y-57525000D02*
X26675000Y-57525000D01*
X26425000Y-57775000D02*
X26425000Y-57525000D01*
X26425000Y-59475000D02*
X26425000Y-59250000D01*
X26725000Y-59475000D02*
X26425000Y-59475000D01*
X28725000Y-57525000D02*
X29075000Y-57525000D01*
X28725000Y-59475000D02*
X29075000Y-59475000D01*
X28875000Y-59475000D02*
X28875000Y-57525000D01*
X28975000Y-59475000D02*
X28975000Y-57525000D01*
X29075000Y-59475000D02*
X29075000Y-57525000D01*
D14*
%TO.C,C14*%
X48740000Y-55966233D02*
X48740000Y-56258767D01*
X49760000Y-55966233D02*
X49760000Y-56258767D01*
%TO.C,R14*%
X29138748Y-59890000D02*
X29861252Y-59890000D01*
X29138748Y-65110000D02*
X29861252Y-65110000D01*
D15*
%TO.C,J1*%
X59639200Y-66095000D02*
X60909200Y-66730000D01*
X59639200Y-67365000D02*
X59639200Y-66095000D01*
X60909200Y-66730000D02*
X59639200Y-67365000D01*
X61036200Y-65968000D02*
X61036200Y-72572000D01*
X61036200Y-72572000D02*
X61719966Y-72572000D01*
X61719966Y-65968000D02*
X61036200Y-65968000D01*
X64010034Y-72572000D02*
X64693800Y-72572000D01*
X64693800Y-65968000D02*
X64010034Y-65968000D01*
X64693800Y-72572000D02*
X64693800Y-65968000D01*
D14*
%TO.C,Q1*%
X50940000Y-80687500D02*
X50940000Y-80037500D01*
X50940000Y-80687500D02*
X50940000Y-81337500D01*
X54060000Y-80687500D02*
X54060000Y-80037500D01*
X54060000Y-80687500D02*
X54060000Y-81337500D01*
X54340000Y-79765000D02*
X54010000Y-79525000D01*
X54340000Y-79285000D01*
X54340000Y-79765000D01*
G36*
X54340000Y-79765000D02*
G01*
X54010000Y-79525000D01*
X54340000Y-79285000D01*
X54340000Y-79765000D01*
G37*
%TO.C,U1*%
X51890000Y-61640000D02*
X51890000Y-62090000D01*
X51890000Y-68860000D02*
X51890000Y-68410000D01*
X52340000Y-61640000D02*
X51890000Y-61640000D01*
X52340000Y-68860000D02*
X51890000Y-68860000D01*
X58660000Y-61640000D02*
X59110000Y-61640000D01*
X58660000Y-68860000D02*
X59110000Y-68860000D01*
X59110000Y-61640000D02*
X59110000Y-62090000D01*
X59110000Y-68860000D02*
X59110000Y-68410000D01*
X51300000Y-62090000D02*
X50960000Y-61620000D01*
X51640000Y-61620000D01*
X51300000Y-62090000D01*
G36*
X51300000Y-62090000D02*
G01*
X50960000Y-61620000D01*
X51640000Y-61620000D01*
X51300000Y-62090000D01*
G37*
%TO.C,C19*%
X22396267Y-46990000D02*
X22103733Y-46990000D01*
X22396267Y-48010000D02*
X22103733Y-48010000D01*
D10*
%TO.C,U3*%
X48475000Y-63150000D02*
X47175000Y-63150000D01*
X48475000Y-66350000D02*
X47175000Y-66350000D01*
D13*
X49225000Y-65850000D02*
X49225000Y-65850000D01*
X49225000Y-66050000D02*
X49225000Y-66050000D01*
X49225000Y-65850000D02*
G75*
G02*
X49225000Y-66050000I0J-100000D01*
G01*
X49225000Y-66050000D02*
G75*
G02*
X49225000Y-65850000I0J100000D01*
G01*
D10*
%TO.C,J7*%
X30480000Y-50695000D02*
X30480000Y-44345000D01*
X33020000Y-50695000D02*
X30480000Y-50695000D01*
X34290000Y-44345000D02*
X35560000Y-44345000D01*
X35560000Y-44345000D02*
X35560000Y-50695000D01*
D14*
%TO.C,R24*%
X50022936Y-39265000D02*
X50477064Y-39265000D01*
X50022936Y-40735000D02*
X50477064Y-40735000D01*
%TO.C,D18*%
X52140000Y-37950000D02*
X52140000Y-40210000D01*
X52140000Y-40210000D02*
X53860000Y-40210000D01*
X53860000Y-40210000D02*
X53860000Y-37950000D01*
%TO.C,C17*%
X38603733Y-47240000D02*
X38896267Y-47240000D01*
X38603733Y-48260000D02*
X38896267Y-48260000D01*
%TO.C,R8*%
X21772936Y-45015000D02*
X22227064Y-45015000D01*
X21772936Y-46485000D02*
X22227064Y-46485000D01*
%TO.C,C55*%
X42788748Y-24590000D02*
X44211252Y-24590000D01*
X42788748Y-26410000D02*
X44211252Y-26410000D01*
%TO.C,R32*%
X63223737Y-26895000D02*
X61776263Y-26895000D01*
X63223737Y-29605000D02*
X61776263Y-29605000D01*
%TO.C,C26*%
X39961252Y-41340000D02*
X38538748Y-41340000D01*
X39961252Y-43160000D02*
X38538748Y-43160000D01*
D15*
%TO.C,C21*%
X34365000Y-25500000D02*
X35635000Y-25500000D01*
X35000000Y-26135000D02*
X35000000Y-24865000D01*
X40372100Y-21500000D02*
G75*
G02*
X29627900Y-21500000I-5372100J0D01*
G01*
X29627900Y-21500000D02*
G75*
G02*
X40372100Y-21500000I5372100J0D01*
G01*
D16*
%TO.C,D16*%
X58941000Y-80472000D02*
X59449000Y-80472000D01*
X58941000Y-81488000D02*
X58941000Y-80472000D01*
X59449000Y-74940000D02*
X59834000Y-74940000D01*
X59449000Y-80472000D02*
X59449000Y-74940000D01*
X59449000Y-81488000D02*
X58941000Y-81488000D01*
X59449000Y-87830000D02*
X59449000Y-81488000D01*
X64419000Y-74940000D02*
X64034000Y-74940000D01*
X64419000Y-74940000D02*
X64419000Y-87830000D01*
X64419000Y-87830000D02*
X59449000Y-87830000D01*
D13*
X65234000Y-80980000D02*
G75*
G02*
X65034000Y-80980000I-100000J0D01*
G01*
X65034000Y-80980000D02*
G75*
G02*
X65234000Y-80980000I100000J0D01*
G01*
D14*
%TO.C,C4*%
X51838748Y-56265000D02*
X52361252Y-56265000D01*
X51838748Y-57735000D02*
X52361252Y-57735000D01*
%TO.C,U4*%
D10*
X43142500Y-87985000D02*
X36157500Y-87985000D01*
X36157500Y-76650000D01*
X43142500Y-76650000D01*
X43142500Y-87985000D01*
D15*
%TO.C,J8*%
X32904000Y-56117800D02*
X32904000Y-58913461D01*
X32904000Y-62576141D02*
X32904000Y-63382199D01*
X32904000Y-63382199D02*
X45096000Y-63382199D01*
X35171961Y-56117800D02*
X32904000Y-56117800D01*
X37171959Y-56117800D02*
X36828041Y-56117800D01*
X39171961Y-56117800D02*
X38828039Y-56117800D01*
X41171959Y-56117800D02*
X40828041Y-56117800D01*
X45096000Y-56117800D02*
X42828039Y-56117800D01*
X45096000Y-58913461D02*
X45096000Y-56117800D01*
X45096000Y-63382199D02*
X45096000Y-62576141D01*
D14*
%TO.C,C61*%
X63211252Y-24340000D02*
X61788748Y-24340000D01*
X63211252Y-26160000D02*
X61788748Y-26160000D01*
D15*
%TO.C,C45*%
X29500000Y-27885000D02*
X29500000Y-26615000D01*
X30135000Y-27250000D02*
X28865000Y-27250000D01*
X30872100Y-27250000D02*
G75*
G02*
X20127900Y-27250000I-5372100J0D01*
G01*
X20127900Y-27250000D02*
G75*
G02*
X30872100Y-27250000I5372100J0D01*
G01*
D14*
%TO.C,R30*%
X56265000Y-41022936D02*
X56265000Y-41477064D01*
X57735000Y-41022936D02*
X57735000Y-41477064D01*
%TO.C,R22*%
X52167224Y-54477500D02*
X51657776Y-54477500D01*
X52167224Y-55522500D02*
X51657776Y-55522500D01*
%TO.C,C1*%
X26396267Y-54240000D02*
X26103733Y-54240000D01*
X26396267Y-55260000D02*
X26103733Y-55260000D01*
%TO.C,L2*%
X58510000Y-74440000D02*
X55990000Y-74440000D01*
X58510000Y-76560000D02*
X55990000Y-76560000D01*
%TO.C,D12*%
X48540000Y-37140000D02*
X48540000Y-38860000D01*
X48540000Y-38860000D02*
X50800000Y-38860000D01*
X50800000Y-37140000D02*
X48540000Y-37140000D01*
%TO.C,D17*%
X57940000Y-39790000D02*
X57940000Y-42050000D01*
X59660000Y-39790000D02*
X57940000Y-39790000D01*
X59660000Y-42050000D02*
X59660000Y-39790000D01*
%TO.C,C34*%
X55140000Y-78538748D02*
X55140000Y-79961252D01*
X57860000Y-78538748D02*
X57860000Y-79961252D01*
%TO.C,C59*%
X61788748Y-41090000D02*
X63211252Y-41090000D01*
X61788748Y-42910000D02*
X63211252Y-42910000D01*
%TO.C,C44*%
X46340000Y-38788748D02*
X46340000Y-40211252D01*
X48160000Y-38788748D02*
X48160000Y-40211252D01*
%TO.C,D11*%
X36390000Y-38040000D02*
X36390000Y-40300000D01*
X38110000Y-38040000D02*
X36390000Y-38040000D01*
X38110000Y-40300000D02*
X38110000Y-38040000D01*
%TO.C,C57*%
X62988748Y-56015000D02*
X63511252Y-56015000D01*
X62988748Y-57485000D02*
X63511252Y-57485000D01*
%TO.C,R13*%
X27765000Y-67272936D02*
X27765000Y-67727064D01*
X29235000Y-67272936D02*
X29235000Y-67727064D01*
%TO.C,C36*%
X27340000Y-46038748D02*
X27340000Y-47461252D01*
X29160000Y-46038748D02*
X29160000Y-47461252D01*
%TO.C,R3*%
X41272936Y-74515000D02*
X41727064Y-74515000D01*
X41272936Y-75985000D02*
X41727064Y-75985000D01*
%TO.C,C11*%
X58990000Y-70603733D02*
X58990000Y-70896267D01*
X60010000Y-70603733D02*
X60010000Y-70896267D01*
D10*
%TO.C,J6*%
X21700000Y-16450000D02*
X21700000Y-16950000D01*
X21700000Y-16450000D02*
X22200000Y-16450000D01*
X21710000Y-21600000D02*
X21710000Y-21100000D01*
X21710000Y-21600000D02*
X22210000Y-21600000D01*
X28280000Y-21590000D02*
X27780000Y-21590000D01*
X28280000Y-21590000D02*
X28280000Y-21090000D01*
X28300000Y-16450000D02*
X27800000Y-16450000D01*
X28300000Y-16450000D02*
X28300000Y-16950000D01*
%TO.C,J4*%
X46200000Y-29340000D02*
X46200000Y-28840000D01*
X46200000Y-29340000D02*
X46700000Y-29340000D01*
X46220000Y-24200000D02*
X46220000Y-24700000D01*
X46220000Y-24200000D02*
X46720000Y-24200000D01*
X52790000Y-24190000D02*
X52290000Y-24190000D01*
X52790000Y-24190000D02*
X52790000Y-24690000D01*
X52800000Y-29340000D02*
X52300000Y-29340000D01*
X52800000Y-29340000D02*
X52800000Y-28840000D01*
D14*
%TO.C,U9*%
X53815000Y-45790000D02*
X54070000Y-45790000D01*
X53815000Y-49650000D02*
X53815000Y-45790000D01*
X53815000Y-49650000D02*
X53815000Y-53510000D01*
X53815000Y-53510000D02*
X54070000Y-53510000D01*
X64335000Y-45790000D02*
X64080000Y-45790000D01*
X64335000Y-49650000D02*
X64335000Y-45790000D01*
X64335000Y-49650000D02*
X64335000Y-53510000D01*
X64335000Y-53510000D02*
X64080000Y-53510000D01*
X54070000Y-54362500D02*
X53600000Y-54702500D01*
X53600000Y-54022500D01*
X54070000Y-54362500D01*
G36*
X54070000Y-54362500D02*
G01*
X53600000Y-54702500D01*
X53600000Y-54022500D01*
X54070000Y-54362500D01*
G37*
D10*
%TO.C,D2*%
X20275000Y-52025000D02*
X20275000Y-51675000D01*
X20275000Y-54325000D02*
X20275000Y-54075000D01*
X20525000Y-54325000D02*
X20275000Y-54325000D01*
X22225000Y-51675000D02*
X20275000Y-51675000D01*
X22225000Y-51775000D02*
X20275000Y-51775000D01*
X22225000Y-51875000D02*
X20275000Y-51875000D01*
X22225000Y-52025000D02*
X22225000Y-51675000D01*
X22225000Y-54025000D02*
X22225000Y-54325000D01*
X22225000Y-54325000D02*
X22000000Y-54325000D01*
D14*
%TO.C,C35*%
X53961252Y-74590000D02*
X52538748Y-74590000D01*
X53961252Y-76410000D02*
X52538748Y-76410000D01*
%TO.C,C9*%
X50990000Y-59896267D02*
X50990000Y-59603733D01*
X52010000Y-59896267D02*
X52010000Y-59603733D01*
D10*
%TO.C,J5*%
X53200000Y-29340000D02*
X53200000Y-28840000D01*
X53200000Y-29340000D02*
X53700000Y-29340000D01*
X53220000Y-24200000D02*
X53220000Y-24700000D01*
X53220000Y-24200000D02*
X53720000Y-24200000D01*
X59790000Y-24190000D02*
X59290000Y-24190000D01*
X59790000Y-24190000D02*
X59790000Y-24690000D01*
X59800000Y-29340000D02*
X59300000Y-29340000D01*
X59800000Y-29340000D02*
X59800000Y-28840000D01*
D14*
%TO.C,R10*%
X33265000Y-40227064D02*
X33265000Y-39772936D01*
X34735000Y-40227064D02*
X34735000Y-39772936D01*
%TD*%
M02*
