%TF.GenerationSoftware,KiCad,Pcbnew,8.0.1*%
%TF.CreationDate,2024-07-11T23:08:47-04:00*%
%TF.ProjectId,booster-tc-driver,626f6f73-7465-4722-9d74-632d64726976,rev?*%
%TF.SameCoordinates,Original*%
%TF.FileFunction,Copper,L4,Bot*%
%TF.FilePolarity,Positive*%
%FSLAX46Y46*%
G04 Gerber Fmt 4.6, Leading zero omitted, Abs format (unit mm)*
G04 Created by KiCad (PCBNEW 8.0.1) date 2024-07-11 23:08:47*
%MOMM*%
%LPD*%
G01*
G04 APERTURE LIST*
G04 Aperture macros list*
%AMRoundRect*
0 Rectangle with rounded corners*
0 $1 Rounding radius*
0 $2 $3 $4 $5 $6 $7 $8 $9 X,Y pos of 4 corners*
0 Add a 4 corners polygon primitive as box body*
4,1,4,$2,$3,$4,$5,$6,$7,$8,$9,$2,$3,0*
0 Add four circle primitives for the rounded corners*
1,1,$1+$1,$2,$3*
1,1,$1+$1,$4,$5*
1,1,$1+$1,$6,$7*
1,1,$1+$1,$8,$9*
0 Add four rect primitives between the rounded corners*
20,1,$1+$1,$2,$3,$4,$5,0*
20,1,$1+$1,$4,$5,$6,$7,0*
20,1,$1+$1,$6,$7,$8,$9,0*
20,1,$1+$1,$8,$9,$2,$3,0*%
G04 Aperture macros list end*
%TA.AperFunction,SMDPad,CuDef*%
%ADD10RoundRect,0.237500X0.237500X-0.300000X0.237500X0.300000X-0.237500X0.300000X-0.237500X-0.300000X0*%
%TD*%
%TA.AperFunction,ComponentPad*%
%ADD11R,1.240000X1.240000*%
%TD*%
%TA.AperFunction,ComponentPad*%
%ADD12C,1.240000*%
%TD*%
%TA.AperFunction,ComponentPad*%
%ADD13C,1.524000*%
%TD*%
%TA.AperFunction,ComponentPad*%
%ADD14C,1.400000*%
%TD*%
%TA.AperFunction,ComponentPad*%
%ADD15R,1.397000X1.397000*%
%TD*%
%TA.AperFunction,ComponentPad*%
%ADD16C,1.397000*%
%TD*%
%TA.AperFunction,ComponentPad*%
%ADD17C,1.168400*%
%TD*%
%TA.AperFunction,ComponentPad*%
%ADD18R,1.620000X1.620000*%
%TD*%
%TA.AperFunction,ComponentPad*%
%ADD19C,1.620000*%
%TD*%
%TA.AperFunction,ComponentPad*%
%ADD20C,2.020000*%
%TD*%
%TA.AperFunction,SMDPad,CuDef*%
%ADD21RoundRect,0.250000X-0.412500X-0.650000X0.412500X-0.650000X0.412500X0.650000X-0.412500X0.650000X0*%
%TD*%
%TA.AperFunction,SMDPad,CuDef*%
%ADD22R,1.200000X0.450000*%
%TD*%
%TA.AperFunction,SMDPad,CuDef*%
%ADD23RoundRect,0.250000X-0.450000X0.350000X-0.450000X-0.350000X0.450000X-0.350000X0.450000X0.350000X0*%
%TD*%
%TA.AperFunction,SMDPad,CuDef*%
%ADD24RoundRect,0.250000X0.412500X0.650000X-0.412500X0.650000X-0.412500X-0.650000X0.412500X-0.650000X0*%
%TD*%
%TA.AperFunction,SMDPad,CuDef*%
%ADD25RoundRect,0.250000X0.475000X-0.337500X0.475000X0.337500X-0.475000X0.337500X-0.475000X-0.337500X0*%
%TD*%
%TA.AperFunction,SMDPad,CuDef*%
%ADD26RoundRect,0.237500X-0.237500X0.300000X-0.237500X-0.300000X0.237500X-0.300000X0.237500X0.300000X0*%
%TD*%
%TA.AperFunction,SMDPad,CuDef*%
%ADD27R,1.525000X0.700000*%
%TD*%
%TA.AperFunction,SMDPad,CuDef*%
%ADD28RoundRect,0.150000X0.150000X-0.825000X0.150000X0.825000X-0.150000X0.825000X-0.150000X-0.825000X0*%
%TD*%
%TA.AperFunction,HeatsinkPad*%
%ADD29R,3.000000X2.290000*%
%TD*%
%TA.AperFunction,SMDPad,CuDef*%
%ADD30RoundRect,0.250000X-1.100000X0.412500X-1.100000X-0.412500X1.100000X-0.412500X1.100000X0.412500X0*%
%TD*%
%TA.AperFunction,SMDPad,CuDef*%
%ADD31RoundRect,0.237500X0.300000X0.237500X-0.300000X0.237500X-0.300000X-0.237500X0.300000X-0.237500X0*%
%TD*%
%TA.AperFunction,SMDPad,CuDef*%
%ADD32R,4.250000X4.500000*%
%TD*%
%TA.AperFunction,SMDPad,CuDef*%
%ADD33RoundRect,0.375000X0.625000X0.375000X-0.625000X0.375000X-0.625000X-0.375000X0.625000X-0.375000X0*%
%TD*%
%TA.AperFunction,SMDPad,CuDef*%
%ADD34RoundRect,0.500000X0.500000X1.400000X-0.500000X1.400000X-0.500000X-1.400000X0.500000X-1.400000X0*%
%TD*%
%TA.AperFunction,SMDPad,CuDef*%
%ADD35RoundRect,0.237500X-0.237500X0.250000X-0.237500X-0.250000X0.237500X-0.250000X0.237500X0.250000X0*%
%TD*%
%TA.AperFunction,SMDPad,CuDef*%
%ADD36RoundRect,0.150000X-0.825000X-0.150000X0.825000X-0.150000X0.825000X0.150000X-0.825000X0.150000X0*%
%TD*%
%TA.AperFunction,HeatsinkPad*%
%ADD37R,2.290000X3.000000*%
%TD*%
%TA.AperFunction,SMDPad,CuDef*%
%ADD38RoundRect,0.250000X-0.475000X0.337500X-0.475000X-0.337500X0.475000X-0.337500X0.475000X0.337500X0*%
%TD*%
%TA.AperFunction,SMDPad,CuDef*%
%ADD39RoundRect,0.250000X1.100000X-0.412500X1.100000X0.412500X-1.100000X0.412500X-1.100000X-0.412500X0*%
%TD*%
%TA.AperFunction,SMDPad,CuDef*%
%ADD40RoundRect,0.250000X0.800000X-0.450000X0.800000X0.450000X-0.800000X0.450000X-0.800000X-0.450000X0*%
%TD*%
%TA.AperFunction,SMDPad,CuDef*%
%ADD41RoundRect,0.250000X-0.800000X0.450000X-0.800000X-0.450000X0.800000X-0.450000X0.800000X0.450000X0*%
%TD*%
%TA.AperFunction,SMDPad,CuDef*%
%ADD42RoundRect,0.250000X0.650000X-0.412500X0.650000X0.412500X-0.650000X0.412500X-0.650000X-0.412500X0*%
%TD*%
%TA.AperFunction,SMDPad,CuDef*%
%ADD43R,2.179320X1.620520*%
%TD*%
%TA.AperFunction,SMDPad,CuDef*%
%ADD44R,0.900000X0.950000*%
%TD*%
%TA.AperFunction,SMDPad,CuDef*%
%ADD45RoundRect,0.250000X0.450000X-0.350000X0.450000X0.350000X-0.450000X0.350000X-0.450000X-0.350000X0*%
%TD*%
%TA.AperFunction,SMDPad,CuDef*%
%ADD46RoundRect,0.237500X-0.300000X-0.237500X0.300000X-0.237500X0.300000X0.237500X-0.300000X0.237500X0*%
%TD*%
%TA.AperFunction,SMDPad,CuDef*%
%ADD47RoundRect,0.250000X0.350000X0.450000X-0.350000X0.450000X-0.350000X-0.450000X0.350000X-0.450000X0*%
%TD*%
%TA.AperFunction,SMDPad,CuDef*%
%ADD48R,1.050000X3.750000*%
%TD*%
%TA.AperFunction,SMDPad,CuDef*%
%ADD49R,10.500000X8.300000*%
%TD*%
%TA.AperFunction,SMDPad,CuDef*%
%ADD50R,4.500000X4.250000*%
%TD*%
%TA.AperFunction,SMDPad,CuDef*%
%ADD51R,0.450000X1.200000*%
%TD*%
%TA.AperFunction,SMDPad,CuDef*%
%ADD52RoundRect,0.250000X-0.350000X-0.450000X0.350000X-0.450000X0.350000X0.450000X-0.350000X0.450000X0*%
%TD*%
%TA.AperFunction,SMDPad,CuDef*%
%ADD53R,1.070000X1.370000*%
%TD*%
%TA.AperFunction,SMDPad,CuDef*%
%ADD54R,10.000000X9.000000*%
%TD*%
%TA.AperFunction,SMDPad,CuDef*%
%ADD55RoundRect,0.250000X-0.650000X0.412500X-0.650000X-0.412500X0.650000X-0.412500X0.650000X0.412500X0*%
%TD*%
%TA.AperFunction,ViaPad*%
%ADD56C,0.600000*%
%TD*%
%TA.AperFunction,Conductor*%
%ADD57C,0.500000*%
%TD*%
%TA.AperFunction,Conductor*%
%ADD58C,1.000000*%
%TD*%
%TA.AperFunction,Conductor*%
%ADD59C,0.200000*%
%TD*%
%TA.AperFunction,Conductor*%
%ADD60C,0.600000*%
%TD*%
%TA.AperFunction,Conductor*%
%ADD61C,0.400000*%
%TD*%
G04 APERTURE END LIST*
D10*
%TO.P,C63,1*%
%TO.N,/VBUS_SENSE*%
X64200000Y-61125000D03*
%TO.P,C63,2*%
%TO.N,GND*%
X64200000Y-59400000D03*
%TD*%
D11*
%TO.P,J2,01,01*%
%TO.N,/I_L_IN*%
X49000000Y-21000000D03*
D12*
%TO.P,J2,02,02*%
%TO.N,+24V*%
X49000000Y-19000000D03*
%TO.P,J2,03,03*%
%TO.N,GND*%
X51000000Y-21000000D03*
%TO.P,J2,04,04*%
%TO.N,/PFC*%
X51000000Y-19000000D03*
%TO.P,J2,05,05*%
%TO.N,GND*%
X53000000Y-21000000D03*
%TO.P,J2,06,06*%
%TO.N,/SCR*%
X53000000Y-19000000D03*
%TO.P,J2,07,07*%
%TO.N,GND*%
X55000000Y-21000000D03*
%TO.P,J2,08,08*%
%TO.N,/VBUS_IN*%
X55000000Y-19000000D03*
%TO.P,J2,09,09*%
%TO.N,+5V*%
X57000000Y-21000000D03*
%TO.P,J2,10,10*%
%TO.N,/VAC_IN*%
X57000000Y-19000000D03*
%TD*%
D13*
%TO.P,SW1,1,A*%
%TO.N,GND*%
X23460000Y-71840000D03*
X23460000Y-82000000D03*
X26000000Y-82000000D03*
%TO.P,SW1,2,B*%
%TO.N,Net-(SW1-B)*%
X23460000Y-74380000D03*
%TO.P,SW1,3,C*%
%TO.N,VDD*%
X23460000Y-76920000D03*
%TD*%
D14*
%TO.P,U6,1,GND*%
%TO.N,GND*%
X34055000Y-84582500D03*
%TO.P,U6,2,OUT*%
%TO.N,/INT*%
X32150000Y-84582500D03*
%TO.P,U6,3,VCC*%
%TO.N,+5V*%
X30245000Y-84582500D03*
%TD*%
%TO.P,U5,1,K*%
%TO.N,Net-(U5-K)*%
X48250000Y-84500000D03*
%TO.P,U5,2,A*%
%TO.N,+5V*%
X45710000Y-84500000D03*
%TD*%
D15*
%TO.P,C3,1*%
%TO.N,VDD*%
X32500000Y-71000000D03*
D16*
%TO.P,C3,2*%
%TO.N,GND*%
X37500000Y-71000000D03*
%TD*%
D15*
%TO.P,C43,1*%
%TO.N,VDRIVE*%
X32666750Y-32500000D03*
D16*
%TO.P,C43,2*%
%TO.N,GND*%
X37666750Y-32500000D03*
%TD*%
D17*
%TO.P,J1,1,1*%
%TO.N,VDD*%
X62230000Y-66730000D03*
%TO.P,J1,2,2*%
%TO.N,/TMS*%
X63500000Y-66730000D03*
%TO.P,J1,3,3*%
%TO.N,GND*%
X62230000Y-68000000D03*
%TO.P,J1,4,4*%
%TO.N,/TCK*%
X63500000Y-68000000D03*
%TO.P,J1,5,5*%
%TO.N,GND*%
X62230000Y-69270000D03*
%TO.P,J1,6,6*%
%TO.N,/TDO*%
X63500000Y-69270000D03*
%TO.P,J1,7,7*%
%TO.N,unconnected-(J1-Pad7)*%
X62230000Y-70540000D03*
%TO.P,J1,8,8*%
%TO.N,/TDI*%
X63500000Y-70540000D03*
%TO.P,J1,9,9*%
%TO.N,unconnected-(J1-Pad9)*%
X62230000Y-71810000D03*
%TO.P,J1,10,10*%
%TO.N,/RST*%
X63500000Y-71810000D03*
%TD*%
D15*
%TO.P,C21,1*%
%TO.N,+24V*%
X35000000Y-24000000D03*
D16*
%TO.P,C21,2*%
%TO.N,GND*%
X35000000Y-19000000D03*
%TD*%
D18*
%TO.P,D16,1*%
%TO.N,+5V*%
X63204000Y-80980000D03*
D19*
%TO.P,D16,2*%
%TO.N,Net-(IC4-LED1)*%
X60664000Y-80980000D03*
%TO.P,D16,3*%
%TO.N,+5V*%
X63204000Y-78440000D03*
%TO.P,D16,4*%
%TO.N,Net-(IC4-LED2)*%
X60664000Y-78440000D03*
%TO.P,D16,5*%
%TO.N,+5V*%
X63204000Y-75900000D03*
%TO.P,D16,6*%
%TO.N,Net-(IC4-LED3)*%
X60664000Y-75900000D03*
%TD*%
D14*
%TO.P,U4,1,GND*%
%TO.N,GND*%
X41555000Y-84500000D03*
%TO.P,U4,2,OUT*%
%TO.N,/USART_RX*%
X39650000Y-84500000D03*
%TO.P,U4,3,VCC*%
%TO.N,+5V*%
X37745000Y-84500000D03*
%TD*%
D15*
%TO.P,C45,1*%
%TO.N,+12V*%
X28000000Y-27250000D03*
D16*
%TO.P,C45,2*%
%TO.N,GND*%
X23000000Y-27250000D03*
%TD*%
D20*
%TO.P,J6,1*%
%TO.N,GND*%
X25000000Y-17750000D03*
%TO.P,J6,2*%
%TO.N,+24V*%
X25000000Y-20290000D03*
%TD*%
%TO.P,J4,1*%
%TO.N,/Gate Drive Out/GDT1_B*%
X49500000Y-28040000D03*
%TO.P,J4,2*%
%TO.N,/Gate Drive Out/GDT1_A*%
X49500000Y-25500000D03*
%TD*%
%TO.P,J5,1*%
%TO.N,/Gate Drive Out/GDT2_B*%
X56500000Y-28040000D03*
%TO.P,J5,2*%
%TO.N,/Gate Drive Out/GDT2_A*%
X56500000Y-25500000D03*
%TD*%
D21*
%TO.P,C42,1*%
%TO.N,Net-(U7-BST)*%
X24937500Y-48500000D03*
%TO.P,C42,2*%
%TO.N,Net-(D15-K)*%
X28062500Y-48500000D03*
%TD*%
D22*
%TO.P,IC1,1,W*%
%TO.N,GND*%
X59500000Y-46050000D03*
%TO.P,IC1,2,VDD*%
%TO.N,+5V*%
X59500000Y-46700000D03*
%TO.P,IC1,3,GND*%
%TO.N,GND*%
X59500000Y-47350000D03*
%TO.P,IC1,4,CLK*%
%TO.N,/SPI_CLK*%
X59500000Y-48000000D03*
%TO.P,IC1,5,SDI*%
%TO.N,/SPI_MOSI*%
X57000000Y-48000000D03*
%TO.P,IC1,6,~{CS}*%
%TO.N,/CS_FAN*%
X57000000Y-47350000D03*
%TO.P,IC1,7,B*%
%TO.N,GND*%
X57000000Y-46700000D03*
%TO.P,IC1,8,A*%
%TO.N,Net-(IC1-A)*%
X57000000Y-46050000D03*
%TD*%
D23*
%TO.P,R9,1*%
%TO.N,/VREF*%
X46750000Y-69000000D03*
%TO.P,R9,2*%
%TO.N,/VAC_SENSE*%
X46750000Y-71000000D03*
%TD*%
D24*
%TO.P,C28,1*%
%TO.N,Net-(U2-FB)*%
X60312500Y-42000000D03*
%TO.P,C28,2*%
%TO.N,GND*%
X57187500Y-42000000D03*
%TD*%
D25*
%TO.P,C39,1*%
%TO.N,Net-(U7-SS)*%
X24000000Y-38737500D03*
%TO.P,C39,2*%
%TO.N,GND*%
X24000000Y-36662500D03*
%TD*%
D21*
%TO.P,C24,1*%
%TO.N,GND*%
X49187500Y-50000000D03*
%TO.P,C24,2*%
%TO.N,+24V*%
X52312500Y-50000000D03*
%TD*%
D26*
%TO.P,C37,1*%
%TO.N,GND*%
X22000000Y-33137500D03*
%TO.P,C37,2*%
%TO.N,Net-(C37-Pad2)*%
X22000000Y-34862500D03*
%TD*%
D27*
%TO.P,IC4,1,PGND*%
%TO.N,GND*%
X51788000Y-85195000D03*
%TO.P,IC4,2,GND*%
X51788000Y-83925000D03*
%TO.P,IC4,3,PWM3*%
%TO.N,/LED_VBUS*%
X51788000Y-82655000D03*
%TO.P,IC4,4,PWM2*%
%TO.N,/LED_TMP*%
X51788000Y-81385000D03*
%TO.P,IC4,5,PWM1*%
%TO.N,/LED_I_IN*%
X51788000Y-80115000D03*
%TO.P,IC4,6,RSET3*%
%TO.N,Net-(IC4-RSET3)*%
X51788000Y-78845000D03*
%TO.P,IC4,7,RSET2*%
%TO.N,Net-(IC4-RSET2)*%
X51788000Y-77575000D03*
%TO.P,IC4,8,RSET1*%
%TO.N,Net-(IC4-RSET1)*%
X51788000Y-76305000D03*
%TO.P,IC4,9,LED3*%
%TO.N,Net-(IC4-LED3)*%
X57212000Y-76305000D03*
%TO.P,IC4,10,LED2*%
%TO.N,Net-(IC4-LED2)*%
X57212000Y-77575000D03*
%TO.P,IC4,11,LED1*%
%TO.N,Net-(IC4-LED1)*%
X57212000Y-78845000D03*
%TO.P,IC4,12,NC_1*%
%TO.N,unconnected-(IC4-NC_1-Pad12)*%
X57212000Y-80115000D03*
%TO.P,IC4,13,NC_2*%
%TO.N,unconnected-(IC4-NC_2-Pad13)*%
X57212000Y-81385000D03*
%TO.P,IC4,14,NC_3*%
%TO.N,unconnected-(IC4-NC_3-Pad14)*%
X57212000Y-82655000D03*
%TO.P,IC4,15,OE*%
%TO.N,VDD*%
X57212000Y-83925000D03*
%TO.P,IC4,16,VDD*%
X57212000Y-85195000D03*
%TD*%
D28*
%TO.P,U7,1,LX*%
%TO.N,Net-(D15-K)*%
X25500000Y-46000000D03*
%TO.P,U7,2,BST*%
%TO.N,Net-(U7-BST)*%
X24230000Y-46000000D03*
%TO.P,U7,3,GND*%
%TO.N,GND*%
X22960000Y-46000000D03*
%TO.P,U7,4,FSW*%
%TO.N,Net-(U7-FSW)*%
X21690000Y-46000000D03*
%TO.P,U7,5,COMP*%
%TO.N,Net-(U7-COMP)*%
X21690000Y-41050000D03*
%TO.P,U7,6,FB*%
%TO.N,Net-(U7-FB)*%
X22960000Y-41050000D03*
%TO.P,U7,7,SS*%
%TO.N,Net-(U7-SS)*%
X24230000Y-41050000D03*
%TO.P,U7,8,EN*%
%TO.N,/DRIVE_EN*%
X25500000Y-41050000D03*
D29*
%TO.P,U7,9,VIN*%
%TO.N,+24V*%
X23595000Y-43525000D03*
%TD*%
D30*
%TO.P,C47,1*%
%TO.N,GND*%
X52750000Y-35937500D03*
%TO.P,C47,2*%
%TO.N,/VFAN_OUT*%
X52750000Y-39062500D03*
%TD*%
D24*
%TO.P,C27,1*%
%TO.N,GND*%
X57312500Y-50000000D03*
%TO.P,C27,2*%
%TO.N,+24V*%
X54187500Y-50000000D03*
%TD*%
D31*
%TO.P,C7,1*%
%TO.N,/VAC_SENSE*%
X44862500Y-71000000D03*
%TO.P,C7,2*%
%TO.N,GND*%
X43137500Y-71000000D03*
%TD*%
D32*
%TO.P,L4,1,1*%
%TO.N,Net-(D14-K)*%
X49500000Y-58250000D03*
%TO.P,L4,2,2*%
%TO.N,/VFAN_OUT*%
X60020000Y-58250000D03*
%TD*%
D33*
%TO.P,U10,1,IN*%
%TO.N,+5V*%
X28400000Y-64950000D03*
%TO.P,U10,2,GND*%
%TO.N,GND*%
X28400000Y-67250000D03*
D34*
X22100000Y-67250000D03*
D33*
%TO.P,U10,3,OUT*%
%TO.N,VDD*%
X28400000Y-69550000D03*
%TD*%
D35*
%TO.P,R26,1*%
%TO.N,GND*%
X53500000Y-72837500D03*
%TO.P,R26,2*%
%TO.N,Net-(IC4-RSET2)*%
X53500000Y-74662500D03*
%TD*%
D36*
%TO.P,U2,1,LX*%
%TO.N,Net-(D14-K)*%
X47845000Y-47905000D03*
%TO.P,U2,2,BST*%
%TO.N,Net-(U2-BST)*%
X47845000Y-46635000D03*
%TO.P,U2,3,GND*%
%TO.N,GND*%
X47845000Y-45365000D03*
%TO.P,U2,4,FSW*%
%TO.N,Net-(U2-FSW)*%
X47845000Y-44095000D03*
%TO.P,U2,5,COMP*%
%TO.N,Net-(U2-COMP)*%
X52795000Y-44095000D03*
%TO.P,U2,6,FB*%
%TO.N,Net-(U2-FB)*%
X52795000Y-45365000D03*
%TO.P,U2,7,SS*%
%TO.N,Net-(U2-SS)*%
X52795000Y-46635000D03*
%TO.P,U2,8,EN*%
%TO.N,/FAN_EN*%
X52795000Y-47905000D03*
D37*
%TO.P,U2,9,VIN*%
%TO.N,+24V*%
X50320000Y-46000000D03*
%TD*%
D23*
%TO.P,R12,1*%
%TO.N,Net-(C31-Pad2)*%
X55250000Y-41750000D03*
%TO.P,R12,2*%
%TO.N,Net-(U2-COMP)*%
X55250000Y-43750000D03*
%TD*%
D31*
%TO.P,C10,1*%
%TO.N,GND*%
X58862500Y-71750000D03*
%TO.P,C10,2*%
%TO.N,/VREF*%
X57137500Y-71750000D03*
%TD*%
D23*
%TO.P,R16,1*%
%TO.N,Net-(C37-Pad2)*%
X21500000Y-36500000D03*
%TO.P,R16,2*%
%TO.N,Net-(U7-COMP)*%
X21500000Y-38500000D03*
%TD*%
D38*
%TO.P,C30,1*%
%TO.N,Net-(U2-SS)*%
X55000000Y-45712500D03*
%TO.P,C30,2*%
%TO.N,GND*%
X55000000Y-47787500D03*
%TD*%
D25*
%TO.P,C62,1*%
%TO.N,/DRIVE_EN*%
X26250000Y-38825000D03*
%TO.P,C62,2*%
%TO.N,GND*%
X26250000Y-36750000D03*
%TD*%
D39*
%TO.P,C2,1*%
%TO.N,+5V*%
X34750000Y-54562500D03*
%TO.P,C2,2*%
%TO.N,GND*%
X34750000Y-51437500D03*
%TD*%
D40*
%TO.P,D15,1,K*%
%TO.N,Net-(D15-K)*%
X28000000Y-46200000D03*
%TO.P,D15,2,A*%
%TO.N,GND*%
X28000000Y-41800000D03*
%TD*%
D41*
%TO.P,D14,1,K*%
%TO.N,Net-(D14-K)*%
X45250000Y-50050000D03*
%TO.P,D14,2,A*%
%TO.N,GND*%
X45250000Y-54450000D03*
%TD*%
D35*
%TO.P,R27,1*%
%TO.N,GND*%
X51750000Y-72837500D03*
%TO.P,R27,2*%
%TO.N,Net-(IC4-RSET1)*%
X51750000Y-74662500D03*
%TD*%
D42*
%TO.P,C6,1*%
%TO.N,+5V*%
X41750000Y-53812500D03*
%TO.P,C6,2*%
%TO.N,GND*%
X41750000Y-50687500D03*
%TD*%
D39*
%TO.P,C46,1*%
%TO.N,+5V*%
X38750000Y-54562500D03*
%TO.P,C46,2*%
%TO.N,GND*%
X38750000Y-51437500D03*
%TD*%
D43*
%TO.P,D1,1,K*%
%TO.N,VDD*%
X32250000Y-68860740D03*
%TO.P,D1,2,A*%
%TO.N,GND*%
X32250000Y-64639260D03*
%TD*%
D44*
%TO.P,D10,A*%
%TO.N,/VAC_SENSE*%
X44675000Y-73000000D03*
%TO.P,D10,K*%
%TO.N,VDD*%
X47825000Y-73000000D03*
%TD*%
D35*
%TO.P,R25,1*%
%TO.N,GND*%
X50000000Y-72837500D03*
%TO.P,R25,2*%
%TO.N,Net-(IC4-RSET3)*%
X50000000Y-74662500D03*
%TD*%
D31*
%TO.P,C13,1*%
%TO.N,/THERM2*%
X50362500Y-71250000D03*
%TO.P,C13,2*%
%TO.N,GND*%
X48637500Y-71250000D03*
%TD*%
D42*
%TO.P,C32,1*%
%TO.N,VDD*%
X35000000Y-67562500D03*
%TO.P,C32,2*%
%TO.N,GND*%
X35000000Y-64437500D03*
%TD*%
D45*
%TO.P,R18,1*%
%TO.N,VDRIVE*%
X28250000Y-38750000D03*
%TO.P,R18,2*%
%TO.N,Net-(U7-FB)*%
X28250000Y-36750000D03*
%TD*%
D39*
%TO.P,C48,1*%
%TO.N,/VFAN_OUT*%
X56250000Y-39062500D03*
%TO.P,C48,2*%
%TO.N,GND*%
X56250000Y-35937500D03*
%TD*%
D30*
%TO.P,C20,1*%
%TO.N,+5V*%
X34500000Y-57937500D03*
%TO.P,C20,2*%
%TO.N,GND*%
X34500000Y-61062500D03*
%TD*%
D39*
%TO.P,C49,1*%
%TO.N,/VFAN_OUT*%
X59750000Y-39062500D03*
%TO.P,C49,2*%
%TO.N,GND*%
X59750000Y-35937500D03*
%TD*%
D46*
%TO.P,C31,1*%
%TO.N,GND*%
X51525000Y-42250000D03*
%TO.P,C31,2*%
%TO.N,Net-(C31-Pad2)*%
X53250000Y-42250000D03*
%TD*%
%TO.P,C38,1*%
%TO.N,GND*%
X48637500Y-68500000D03*
%TO.P,C38,2*%
%TO.N,/THERM1*%
X50362500Y-68500000D03*
%TD*%
D42*
%TO.P,C40,1*%
%TO.N,GND*%
X30000000Y-32562500D03*
%TO.P,C40,2*%
%TO.N,+5V*%
X30000000Y-29437500D03*
%TD*%
D23*
%TO.P,R17,1*%
%TO.N,Net-(IC2-A)*%
X24000000Y-30000000D03*
%TO.P,R17,2*%
%TO.N,Net-(U7-FB)*%
X24000000Y-32000000D03*
%TD*%
D43*
%TO.P,D13,1,K*%
%TO.N,+5V*%
X42000000Y-56139260D03*
%TO.P,D13,2,A*%
%TO.N,GND*%
X42000000Y-60360740D03*
%TD*%
D30*
%TO.P,C5,1*%
%TO.N,+5V*%
X38750000Y-57937500D03*
%TO.P,C5,2*%
%TO.N,GND*%
X38750000Y-61062500D03*
%TD*%
D47*
%TO.P,R15,1*%
%TO.N,GND*%
X23000000Y-48500000D03*
%TO.P,R15,2*%
%TO.N,Net-(U7-FSW)*%
X21000000Y-48500000D03*
%TD*%
D24*
%TO.P,C41,1*%
%TO.N,Net-(U7-FB)*%
X27062500Y-34500000D03*
%TO.P,C41,2*%
%TO.N,GND*%
X23937500Y-34500000D03*
%TD*%
D48*
%TO.P,IC5,1,INPUT*%
%TO.N,+24V*%
X44540000Y-31650000D03*
%TO.P,IC5,3,OUTPUT*%
%TO.N,+12V*%
X39460000Y-31650000D03*
D49*
%TO.P,IC5,4,GND*%
%TO.N,GND*%
X42000000Y-21150000D03*
%TD*%
D24*
%TO.P,C51,1*%
%TO.N,+12V*%
X27062500Y-24750000D03*
%TO.P,C51,2*%
%TO.N,GND*%
X23937500Y-24750000D03*
%TD*%
D50*
%TO.P,L5,1,1*%
%TO.N,Net-(D15-K)*%
X36500000Y-46750000D03*
%TO.P,L5,2,2*%
%TO.N,VDRIVE*%
X36500000Y-36230000D03*
%TD*%
D47*
%TO.P,R2,1*%
%TO.N,/VFAN_OUT*%
X64150000Y-42000000D03*
%TO.P,R2,2*%
%TO.N,Net-(U2-FB)*%
X62150000Y-42000000D03*
%TD*%
D45*
%TO.P,R7,1*%
%TO.N,/VAC_SENSE*%
X42750000Y-75250000D03*
%TO.P,R7,2*%
%TO.N,/VAC_IN*%
X42750000Y-73250000D03*
%TD*%
D51*
%TO.P,IC2,1,W*%
%TO.N,GND*%
X26025000Y-29750000D03*
%TO.P,IC2,2,VDD*%
%TO.N,+5V*%
X26675000Y-29750000D03*
%TO.P,IC2,3,GND*%
%TO.N,GND*%
X27325000Y-29750000D03*
%TO.P,IC2,4,CLK*%
%TO.N,/SPI_CLK*%
X27975000Y-29750000D03*
%TO.P,IC2,5,SDI*%
%TO.N,/SPI_MOSI*%
X27975000Y-32250000D03*
%TO.P,IC2,6,~{CS}*%
%TO.N,/CS_DRIVE*%
X27325000Y-32250000D03*
%TO.P,IC2,7,B*%
%TO.N,GND*%
X26675000Y-32250000D03*
%TO.P,IC2,8,A*%
%TO.N,Net-(IC2-A)*%
X26025000Y-32250000D03*
%TD*%
D47*
%TO.P,R11,1*%
%TO.N,GND*%
X49250000Y-42250000D03*
%TO.P,R11,2*%
%TO.N,Net-(U2-FSW)*%
X47250000Y-42250000D03*
%TD*%
%TO.P,R1,1*%
%TO.N,Net-(IC1-A)*%
X59500000Y-44250000D03*
%TO.P,R1,2*%
%TO.N,Net-(U2-FB)*%
X57500000Y-44250000D03*
%TD*%
D44*
%TO.P,D9,A*%
%TO.N,GND*%
X47825000Y-75000000D03*
%TO.P,D9,K*%
%TO.N,/VAC_SENSE*%
X44675000Y-75000000D03*
%TD*%
D21*
%TO.P,C8,1*%
%TO.N,GND*%
X55687500Y-73750000D03*
%TO.P,C8,2*%
%TO.N,/VREF*%
X58812500Y-73750000D03*
%TD*%
D30*
%TO.P,C29,1*%
%TO.N,GND*%
X63250000Y-35937500D03*
%TO.P,C29,2*%
%TO.N,/VFAN_OUT*%
X63250000Y-39062500D03*
%TD*%
D42*
%TO.P,C33,1*%
%TO.N,VDD*%
X37500000Y-67562500D03*
%TO.P,C33,2*%
%TO.N,GND*%
X37500000Y-64437500D03*
%TD*%
D24*
%TO.P,C52,1*%
%TO.N,GND*%
X51812500Y-33000000D03*
%TO.P,C52,2*%
%TO.N,+24V*%
X48687500Y-33000000D03*
%TD*%
D52*
%TO.P,R34,1*%
%TO.N,/THERM1*%
X52000000Y-68500000D03*
%TO.P,R34,2*%
%TO.N,/VREF*%
X54000000Y-68500000D03*
%TD*%
%TO.P,R33,1*%
%TO.N,/THERM2*%
X52000000Y-71000000D03*
%TO.P,R33,2*%
%TO.N,/VREF*%
X54000000Y-71000000D03*
%TD*%
D53*
%TO.P,IC3,1,CTL*%
%TO.N,+24V*%
X22840000Y-51595000D03*
%TO.P,IC3,2,VCC*%
X24560000Y-51595000D03*
%TO.P,IC3,3,GND_1*%
%TO.N,GND*%
X26280000Y-51595000D03*
%TO.P,IC3,4,VO*%
%TO.N,+5V*%
X28000000Y-51595000D03*
%TO.P,IC3,5,ADJ*%
%TO.N,GND*%
X29720000Y-51595000D03*
D54*
%TO.P,IC3,6,GND_2*%
X26280000Y-57720000D03*
%TD*%
D55*
%TO.P,C22,1*%
%TO.N,GND*%
X61750000Y-44687500D03*
%TO.P,C22,2*%
%TO.N,+5V*%
X61750000Y-47812500D03*
%TD*%
%TO.P,C23,1*%
%TO.N,Net-(U2-BST)*%
X44750000Y-44937500D03*
%TO.P,C23,2*%
%TO.N,Net-(D14-K)*%
X44750000Y-48062500D03*
%TD*%
D56*
%TO.N,GND*%
X56000000Y-46750000D03*
X49362500Y-76137500D03*
X67500000Y-64500000D03*
X39250000Y-62750000D03*
X29000000Y-31500000D03*
X29000000Y-43000000D03*
X43000000Y-72000000D03*
X58491012Y-63094895D03*
X18000000Y-17000000D03*
X67500000Y-67000000D03*
X67500000Y-84500000D03*
X67500000Y-44500000D03*
X23000000Y-33500000D03*
X18000000Y-29500000D03*
X53250000Y-85250000D03*
X62750000Y-50000000D03*
X18000000Y-27000000D03*
X67500000Y-27000000D03*
X18000000Y-69500000D03*
X67500000Y-59500000D03*
X18000000Y-67000000D03*
X67500000Y-17000000D03*
X22500000Y-49500000D03*
X67500000Y-74500000D03*
X41500000Y-37500000D03*
X67500000Y-22000000D03*
X55500000Y-82000000D03*
X46250000Y-45000000D03*
X67500000Y-19500000D03*
X18000000Y-32000000D03*
X29750000Y-37000000D03*
X47750000Y-68000000D03*
X26000000Y-31000000D03*
X18000000Y-74500000D03*
X59250000Y-52250000D03*
X37000000Y-50750000D03*
X67500000Y-37000000D03*
X67500000Y-24500000D03*
X50250000Y-50000000D03*
X58529926Y-70613775D03*
X67500000Y-32000000D03*
X29000000Y-44000000D03*
X33250000Y-62750000D03*
X18000000Y-59500000D03*
X43250000Y-58750000D03*
X18000000Y-52000000D03*
X18000000Y-57000000D03*
X18000000Y-84500000D03*
X52750000Y-62250000D03*
X18000000Y-24500000D03*
X28000000Y-43000000D03*
X67500000Y-87000000D03*
X53250000Y-84000000D03*
X67500000Y-47000000D03*
X18000000Y-54500000D03*
X18000000Y-22000000D03*
X18000000Y-87000000D03*
X55531387Y-71038612D03*
X18000000Y-19500000D03*
X67500000Y-57000000D03*
X46250000Y-45750000D03*
X18000000Y-72000000D03*
X67500000Y-79500000D03*
X49500000Y-72000000D03*
X63250000Y-46750000D03*
X18000000Y-79500000D03*
X28000000Y-44000000D03*
X49149999Y-64650000D03*
X18000000Y-82000000D03*
X67500000Y-29500000D03*
X67500000Y-42000000D03*
X67500000Y-39500000D03*
X67500000Y-52000000D03*
X18000000Y-42000000D03*
X23000000Y-50000000D03*
X67500000Y-62000000D03*
X50000000Y-75750000D03*
X35250000Y-62750000D03*
X32000000Y-49750000D03*
X38250000Y-62750000D03*
X67500000Y-72000000D03*
X67500000Y-69500000D03*
X18000000Y-37000000D03*
X53250000Y-43250000D03*
X61250000Y-38000000D03*
X50000000Y-33250000D03*
X18000000Y-44500000D03*
X36250000Y-62750000D03*
X18000000Y-49500000D03*
X67500000Y-77000000D03*
X18000000Y-47000000D03*
X56250000Y-50000000D03*
X67500000Y-49500000D03*
X37000000Y-50000000D03*
X67500000Y-82000000D03*
X18000000Y-62000000D03*
X53905000Y-33471500D03*
X67500000Y-34500000D03*
X18000000Y-39500000D03*
X18000000Y-77000000D03*
X34250000Y-62750000D03*
X18000000Y-34500000D03*
X52487651Y-58762349D03*
X18000000Y-64500000D03*
X67500000Y-54500000D03*
%TO.N,+5V*%
X29500000Y-30500000D03*
X26750000Y-64750000D03*
X26750000Y-64000000D03*
X61750000Y-46500000D03*
X40250000Y-76500000D03*
X26780000Y-49970000D03*
%TO.N,VDD*%
X58750000Y-69500000D03*
X20750000Y-53500000D03*
X31500000Y-66250000D03*
X58750000Y-75705000D03*
X27750000Y-71000000D03*
X58750000Y-84000000D03*
X28500000Y-71000000D03*
X51500000Y-61750000D03*
X28500000Y-71750000D03*
X58511854Y-62295164D03*
X29250000Y-71750000D03*
X29250000Y-71000000D03*
X33000000Y-66250000D03*
X27750000Y-71750000D03*
X32250000Y-66250000D03*
X40250000Y-53500000D03*
X46750000Y-73000000D03*
%TO.N,+12V*%
X25500000Y-27500000D03*
%TO.N,+24V*%
X21750000Y-43000000D03*
X25250000Y-50250000D03*
X51000000Y-48750000D03*
X25750000Y-43250000D03*
X21750000Y-43750000D03*
X25750000Y-44000000D03*
X50500000Y-48000000D03*
X24500000Y-50250000D03*
X51500000Y-49250000D03*
%TO.N,Net-(D11-A)*%
X45250000Y-38250000D03*
X39250000Y-42250000D03*
%TO.N,/VFAN_OUT*%
X33750000Y-43500000D03*
%TO.N,/SPI_CLK*%
X28000000Y-28500000D03*
X63600000Y-63600000D03*
%TO.N,/SPI_MOSI*%
X63250150Y-64250150D03*
X28250000Y-34500000D03*
%TO.N,/CS_FAN*%
X52750000Y-63750000D03*
%TO.N,/CS_DRIVE*%
X28250000Y-33500000D03*
X62723847Y-61634703D03*
%TO.N,/PFC*%
X44750000Y-63750000D03*
X56250000Y-63750000D03*
%TO.N,/USART_RX*%
X42500000Y-76500000D03*
X52762331Y-65697170D03*
X45000000Y-67250000D03*
%TO.N,/FAN_EN*%
X52750000Y-63000000D03*
%TO.N,/LED_TMP*%
X46500000Y-76250000D03*
%TO.N,/LED_I_IN*%
X47250000Y-76250000D03*
%TO.N,/LED_VBUS*%
X45750000Y-76250000D03*
%TO.N,Net-(D17-A)*%
X61750000Y-37250000D03*
X64500000Y-37750000D03*
%TO.N,Net-(IC9-G1)*%
X61750000Y-43500000D03*
X56500000Y-37500000D03*
%TO.N,GDT2_DIS*%
X56500000Y-58750000D03*
X55500000Y-59500000D03*
%TO.N,/I_L*%
X41750000Y-64000000D03*
X58000000Y-66500000D03*
%TO.N,/VBUS_SENSE*%
X21250000Y-52500000D03*
X62940511Y-62300331D03*
%TO.N,/VAC_IN*%
X40750000Y-65250000D03*
%TO.N,/VAC_SENSE*%
X59750000Y-68750000D03*
%TO.N,/VREF*%
X56307988Y-70846531D03*
%TO.N,/RST*%
X55250000Y-67250000D03*
%TO.N,/TDI*%
X57250000Y-62250000D03*
%TO.N,/DRIVE_EN*%
X57500000Y-64500000D03*
%TO.N,/SCR*%
X44250000Y-64250000D03*
X56750000Y-64250000D03*
%TO.N,/THERM1*%
X40204699Y-64000000D03*
X53000000Y-67750000D03*
%TO.N,/THERM2*%
X39000000Y-64250000D03*
X53000000Y-67000000D03*
X51000000Y-70000000D03*
%TD*%
D57*
%TO.N,+5V*%
X29350000Y-64950000D02*
X28400000Y-64950000D01*
X30245000Y-65845000D02*
X29350000Y-64950000D01*
X30245000Y-84582500D02*
X30245000Y-65845000D01*
D58*
%TO.N,GND*%
X23000000Y-47000000D02*
X23000000Y-46040000D01*
D59*
X29000000Y-32462500D02*
X29000000Y-31500000D01*
X51525000Y-42250000D02*
X51500000Y-42250000D01*
X56000000Y-47037500D02*
X56000000Y-46750000D01*
X50250000Y-50000000D02*
X49187500Y-50000000D01*
X63250000Y-46000000D02*
X63250000Y-46750000D01*
X29200000Y-37550000D02*
X29750000Y-37000000D01*
X56337500Y-46700000D02*
X57000000Y-46700000D01*
X22500000Y-49000000D02*
X23000000Y-48500000D01*
X26000000Y-30800000D02*
X26000000Y-31000000D01*
X61500000Y-50000000D02*
X62750000Y-50000000D01*
X52050000Y-43250000D02*
X53250000Y-43250000D01*
X48250000Y-68500000D02*
X47750000Y-68000000D01*
X24000000Y-36662500D02*
X24000000Y-34562500D01*
X56037500Y-40850000D02*
X52925000Y-40850000D01*
D58*
X26280000Y-51595000D02*
X26280000Y-57720000D01*
D59*
X26125000Y-28850000D02*
X26025000Y-28950000D01*
X48225000Y-75000000D02*
X47825000Y-75000000D01*
X56000000Y-46750000D02*
X56287500Y-46750000D01*
D58*
X23000000Y-47500000D02*
X23000000Y-47000000D01*
D59*
X24037500Y-36500000D02*
X24000000Y-36462500D01*
D58*
X22100000Y-67250000D02*
X28400000Y-67250000D01*
D59*
X22500000Y-49500000D02*
X22500000Y-49000000D01*
X26550000Y-31350000D02*
X26675000Y-31475000D01*
D60*
X46250000Y-45000000D02*
X46250000Y-45750000D01*
D59*
X58529926Y-70613775D02*
X58529926Y-71417426D01*
X64400000Y-59537500D02*
X66337500Y-59537500D01*
X55531387Y-71038612D02*
X55687500Y-71194725D01*
X43137500Y-71862500D02*
X43000000Y-72000000D01*
X50000000Y-72250000D02*
X50000000Y-72837500D01*
X58529926Y-71417426D02*
X58862500Y-71750000D01*
X49362500Y-76137500D02*
X48225000Y-75000000D01*
X22575000Y-33137500D02*
X23937500Y-34500000D01*
D58*
X22100000Y-67250000D02*
X20250000Y-67250000D01*
D59*
X59500000Y-46050000D02*
X58351471Y-46050000D01*
D58*
X23000000Y-48500000D02*
X23000000Y-47500000D01*
X52750000Y-34626500D02*
X53905000Y-33471500D01*
D59*
X49500000Y-71750000D02*
X49500000Y-72000000D01*
X56250000Y-50000000D02*
X57312500Y-50000000D01*
X59500000Y-46050000D02*
X60387500Y-46050000D01*
X35000000Y-19000000D02*
X35250000Y-19250000D01*
X50750000Y-42250000D02*
X50500000Y-42250000D01*
X27325000Y-29750000D02*
X27325000Y-28975000D01*
D58*
X42000000Y-60360740D02*
X39776760Y-60360740D01*
D59*
X50250000Y-42250000D02*
X49750000Y-42250000D01*
X60275000Y-47350000D02*
X60500000Y-47575000D01*
X26675000Y-31475000D02*
X26675000Y-32250000D01*
X26250000Y-36750000D02*
X27050000Y-37550000D01*
X61750000Y-44687500D02*
X61937500Y-44687500D01*
X58351471Y-46050000D02*
X57701471Y-46700000D01*
X49500000Y-72000000D02*
X49750000Y-72000000D01*
X26000000Y-31000000D02*
X26200000Y-31000000D01*
X26025000Y-28950000D02*
X26025000Y-29750000D01*
D60*
X47845000Y-45365000D02*
X46615000Y-45365000D01*
D58*
X20250000Y-67250000D02*
X19250000Y-67250000D01*
D59*
X43137500Y-71000000D02*
X43137500Y-71862500D01*
X48637500Y-68500000D02*
X48250000Y-68500000D01*
X49000000Y-71250000D02*
X49500000Y-71750000D01*
X40100000Y-19250000D02*
X42000000Y-21150000D01*
X60500000Y-47575000D02*
X60500000Y-49000000D01*
D58*
X35250000Y-19250000D02*
X40100000Y-19250000D01*
D59*
X51843000Y-85250000D02*
X51788000Y-85195000D01*
X26200000Y-31000000D02*
X26675000Y-31475000D01*
X30000000Y-32562500D02*
X29100000Y-32562500D01*
D58*
X39776760Y-60360740D02*
X38500000Y-61637500D01*
X29720000Y-51595000D02*
X29720000Y-54280000D01*
D59*
X59050000Y-36250000D02*
X59025000Y-36225000D01*
D58*
X52750000Y-35937500D02*
X52750000Y-34626500D01*
D59*
X48637500Y-71250000D02*
X49000000Y-71250000D01*
X51345500Y-83925000D02*
X51788000Y-83925000D01*
D58*
X23937500Y-24750000D02*
X23937500Y-26312500D01*
D59*
X59500000Y-47350000D02*
X60275000Y-47350000D01*
X51500000Y-42250000D02*
X50750000Y-42250000D01*
X26025000Y-30825000D02*
X26000000Y-30800000D01*
X60387500Y-46050000D02*
X61750000Y-44687500D01*
X61937500Y-44687500D02*
X63250000Y-46000000D01*
X52925000Y-40850000D02*
X51525000Y-42250000D01*
X57187500Y-42000000D02*
X56037500Y-40850000D01*
X57701471Y-46700000D02*
X57000000Y-46700000D01*
X41750000Y-50950000D02*
X41750000Y-50687500D01*
X23000000Y-46040000D02*
X22960000Y-46000000D01*
X49750000Y-72000000D02*
X50000000Y-72250000D01*
X29720000Y-54280000D02*
X26280000Y-57720000D01*
X27325000Y-28975000D02*
X27200000Y-28850000D01*
X50500000Y-42250000D02*
X50250000Y-42250000D01*
X50000000Y-72837500D02*
X51750000Y-72837500D01*
X55000000Y-48037500D02*
X56000000Y-47037500D01*
X26025000Y-29750000D02*
X26025000Y-30825000D01*
X51750000Y-72837500D02*
X53500000Y-72837500D01*
X55687500Y-71194725D02*
X55687500Y-73250000D01*
X51525000Y-42725000D02*
X52050000Y-43250000D01*
X29100000Y-32562500D02*
X29000000Y-32462500D01*
X28850000Y-31350000D02*
X26550000Y-31350000D01*
D58*
X66437500Y-35937500D02*
X67500000Y-37000000D01*
D59*
X29000000Y-31500000D02*
X28850000Y-31350000D01*
X56287500Y-46750000D02*
X56337500Y-46700000D01*
D58*
X45250000Y-54450000D02*
X41750000Y-50950000D01*
D59*
X22000000Y-33137500D02*
X22575000Y-33137500D01*
X60500000Y-49000000D02*
X61500000Y-50000000D01*
D58*
X52750000Y-35937500D02*
X66437500Y-35937500D01*
D60*
X46615000Y-45365000D02*
X46250000Y-45000000D01*
D58*
X51812500Y-35000000D02*
X52750000Y-35937500D01*
D59*
X51525000Y-42250000D02*
X51525000Y-42725000D01*
X27050000Y-37550000D02*
X29200000Y-37550000D01*
D58*
X23937500Y-26312500D02*
X23000000Y-27250000D01*
D59*
X27200000Y-28850000D02*
X26125000Y-28850000D01*
D58*
X51812500Y-33000000D02*
X51812500Y-35000000D01*
D59*
X24000000Y-34562500D02*
X23937500Y-34500000D01*
D57*
%TO.N,+5V*%
X44560000Y-85650000D02*
X45710000Y-84500000D01*
X37745000Y-84500000D02*
X41490053Y-80754947D01*
X41490053Y-80754947D02*
X41490053Y-77740053D01*
D58*
X26780000Y-49970000D02*
X26970000Y-49970000D01*
D57*
X63204000Y-75900000D02*
X63204000Y-78440000D01*
D58*
X30810000Y-50210000D02*
X32100000Y-51500000D01*
D57*
X31395000Y-85732500D02*
X30245000Y-84582500D01*
X59500024Y-85999976D02*
X63204000Y-82296000D01*
X45710000Y-84500000D02*
X47209976Y-85999976D01*
D58*
X32100000Y-52737500D02*
X34500000Y-55137500D01*
D59*
X28937500Y-30500000D02*
X29500000Y-30500000D01*
D58*
X32100000Y-51500000D02*
X32100000Y-52737500D01*
D59*
X28787500Y-30650000D02*
X28937500Y-30500000D01*
D58*
X26750000Y-64750000D02*
X28200000Y-64750000D01*
D59*
X26775000Y-30650000D02*
X28787500Y-30650000D01*
D57*
X41490053Y-77740053D02*
X40250000Y-76500000D01*
D59*
X26675000Y-29750000D02*
X26675000Y-30550000D01*
D57*
X47209976Y-85999976D02*
X59500024Y-85999976D01*
X63204000Y-82296000D02*
X63204000Y-80980000D01*
D59*
X29500000Y-30500000D02*
X29500000Y-29937500D01*
D57*
X37745000Y-84500000D02*
X36512500Y-85732500D01*
D59*
X60637500Y-46700000D02*
X61750000Y-47812500D01*
D58*
X28000000Y-50695000D02*
X28000000Y-51595000D01*
X27695000Y-50695000D02*
X28000000Y-50695000D01*
X26970000Y-49970000D02*
X27695000Y-50695000D01*
D57*
X37745000Y-84500000D02*
X38895000Y-85650000D01*
D58*
X28000000Y-50695000D02*
X28485000Y-50210000D01*
D57*
X38895000Y-85650000D02*
X44560000Y-85650000D01*
D59*
X61750000Y-46500000D02*
X61750000Y-47812500D01*
D58*
X28200000Y-64750000D02*
X28400000Y-64950000D01*
D57*
X36512500Y-85732500D02*
X31395000Y-85732500D01*
D59*
X59500000Y-46700000D02*
X60637500Y-46700000D01*
D58*
X28485000Y-50210000D02*
X30810000Y-50210000D01*
D59*
X29500000Y-29937500D02*
X30000000Y-29437500D01*
D58*
X26750000Y-64000000D02*
X26750000Y-64750000D01*
D57*
X63204000Y-78440000D02*
X63204000Y-80980000D01*
D59*
X26675000Y-30550000D02*
X26775000Y-30650000D01*
%TO.N,VDD*%
X57212000Y-83925000D02*
X57212000Y-85195000D01*
X47825000Y-73000000D02*
X46750000Y-73000000D01*
X58675000Y-83925000D02*
X58750000Y-84000000D01*
X57212000Y-83925000D02*
X58675000Y-83925000D01*
D58*
%TO.N,+12V*%
X38911500Y-31101500D02*
X39460000Y-31650000D01*
X25500000Y-27500000D02*
X27750000Y-27500000D01*
X28000000Y-27250000D02*
X28000000Y-25687500D01*
X28000000Y-25687500D02*
X27062500Y-24750000D01*
X27750000Y-27500000D02*
X28000000Y-27250000D01*
X30225430Y-27250000D02*
X34076930Y-31101500D01*
X28000000Y-27250000D02*
X30225430Y-27250000D01*
X34076930Y-31101500D02*
X38911500Y-31101500D01*
%TO.N,+24V*%
X52312500Y-50000000D02*
X54187500Y-50000000D01*
X42650000Y-31040000D02*
X37610000Y-26000000D01*
X47337500Y-31650000D02*
X48687500Y-33000000D01*
X50320000Y-48007500D02*
X52312500Y-50000000D01*
X44540000Y-31650000D02*
X47337500Y-31650000D01*
X24560000Y-51595000D02*
X24560000Y-50310000D01*
X22840000Y-51595000D02*
X24560000Y-51595000D01*
X43930000Y-31040000D02*
X44540000Y-31650000D01*
X37610000Y-26000000D02*
X35250000Y-26000000D01*
X24560000Y-50310000D02*
X24500000Y-50250000D01*
X35000000Y-25750000D02*
X35000000Y-24000000D01*
X50320000Y-46000000D02*
X50320000Y-48007500D01*
X35250000Y-26000000D02*
X35000000Y-25750000D01*
X42650000Y-31040000D02*
X43930000Y-31040000D01*
X24500000Y-50250000D02*
X25250000Y-50250000D01*
D59*
%TO.N,Net-(U2-BST)*%
X45785000Y-46635000D02*
X44750000Y-45600000D01*
X47845000Y-46635000D02*
X45785000Y-46635000D01*
X44750000Y-45600000D02*
X44750000Y-44937500D01*
D58*
%TO.N,Net-(D14-K)*%
X47750000Y-56000000D02*
X47750000Y-50000000D01*
D59*
X45407500Y-47905000D02*
X45250000Y-48062500D01*
X49500000Y-57750000D02*
X47845000Y-56095000D01*
X47845000Y-47905000D02*
X45407500Y-47905000D01*
D58*
X47750000Y-48000000D02*
X47845000Y-47905000D01*
D59*
X47687500Y-48062500D02*
X47845000Y-47905000D01*
D58*
X47750000Y-50000000D02*
X47700000Y-50050000D01*
X47845000Y-56095000D02*
X47750000Y-56000000D01*
X47750000Y-50000000D02*
X47750000Y-48000000D01*
X47700000Y-50050000D02*
X45250000Y-50050000D01*
D59*
%TO.N,Net-(U2-FB)*%
X54520256Y-44695000D02*
X54565256Y-44650000D01*
X57100000Y-44650000D02*
X57500000Y-44250000D01*
X53465000Y-44695000D02*
X54520256Y-44695000D01*
X52795000Y-45365000D02*
X53465000Y-44695000D01*
X60312500Y-42000000D02*
X59750000Y-42000000D01*
X62250000Y-42000000D02*
X60312500Y-42000000D01*
X54565256Y-44650000D02*
X57100000Y-44650000D01*
X59750000Y-42000000D02*
X57500000Y-44250000D01*
D58*
%TO.N,/VFAN_OUT*%
X64250000Y-42000000D02*
X64250000Y-40062500D01*
X51875000Y-39500000D02*
X52312500Y-39062500D01*
X36000000Y-39500000D02*
X51875000Y-39500000D01*
X33750000Y-41750000D02*
X36000000Y-39500000D01*
X63250000Y-39062500D02*
X52750000Y-39062500D01*
X64250000Y-40062500D02*
X63250000Y-39062500D01*
X33750000Y-43500000D02*
X33750000Y-41750000D01*
X60020000Y-56000000D02*
X64250000Y-51770000D01*
X64250000Y-51770000D02*
X64250000Y-42000000D01*
X52312500Y-39062500D02*
X52750000Y-39062500D01*
D59*
%TO.N,Net-(U2-SS)*%
X52795000Y-46635000D02*
X54327500Y-46635000D01*
X54327500Y-46635000D02*
X55000000Y-45962500D01*
%TO.N,Net-(C31-Pad2)*%
X55250000Y-42000000D02*
X53500000Y-42000000D01*
X53500000Y-42000000D02*
X53250000Y-42250000D01*
%TO.N,Net-(C37-Pad2)*%
X21500000Y-35362500D02*
X22000000Y-34862500D01*
X21500000Y-36500000D02*
X21500000Y-35362500D01*
%TO.N,Net-(U7-SS)*%
X24230000Y-38767500D02*
X24000000Y-38537500D01*
X24230000Y-41050000D02*
X24230000Y-38767500D01*
%TO.N,Net-(U7-FB)*%
X26500000Y-34500000D02*
X24000000Y-32000000D01*
X26400000Y-34500000D02*
X25000000Y-35900000D01*
X27062500Y-35197244D02*
X27062500Y-34500000D01*
X25000000Y-37259744D02*
X24709744Y-37550000D01*
X28250000Y-35687500D02*
X27062500Y-34500000D01*
X27062500Y-34500000D02*
X26400000Y-34500000D01*
X27062500Y-34500000D02*
X26500000Y-34500000D01*
X25000000Y-35900000D02*
X25000000Y-37259744D01*
X23390256Y-37550000D02*
X24709744Y-37550000D01*
X22960000Y-37980256D02*
X22960000Y-41050000D01*
X28250000Y-36750000D02*
X28250000Y-35687500D01*
X23390256Y-37550000D02*
X22960000Y-37980256D01*
D58*
%TO.N,Net-(D15-K)*%
X28062500Y-48500000D02*
X34750000Y-48500000D01*
D59*
X25700000Y-46200000D02*
X25500000Y-46000000D01*
X28000000Y-48437500D02*
X28062500Y-48500000D01*
D58*
X28000000Y-46200000D02*
X28000000Y-48437500D01*
D59*
X27562500Y-46637500D02*
X28000000Y-46200000D01*
X34750000Y-48500000D02*
X36500000Y-46750000D01*
D58*
X28000000Y-46200000D02*
X25700000Y-46200000D01*
D59*
%TO.N,Net-(U7-BST)*%
X24230000Y-48292500D02*
X24437500Y-48500000D01*
X24230000Y-46000000D02*
X24230000Y-48292500D01*
%TO.N,/SPI_CLK*%
X27975000Y-28525000D02*
X28000000Y-28500000D01*
X59500000Y-50924264D02*
X59500000Y-48000000D01*
X57844895Y-63594895D02*
X56750000Y-62500000D01*
X57600000Y-60650000D02*
X57600000Y-52824264D01*
X27975000Y-29750000D02*
X27975000Y-28525000D01*
X59093014Y-63200000D02*
X58698119Y-63594895D01*
X56750000Y-62500000D02*
X56750000Y-61500000D01*
X63600000Y-63600000D02*
X63200000Y-63200000D01*
X56750000Y-61500000D02*
X57600000Y-60650000D01*
X63200000Y-63200000D02*
X59093014Y-63200000D01*
X58698119Y-63594895D02*
X57844895Y-63594895D01*
X57600000Y-52824264D02*
X59500000Y-50924264D01*
%TO.N,Net-(IC1-A)*%
X59500000Y-44250000D02*
X57700000Y-46050000D01*
X57700000Y-46050000D02*
X57000000Y-46050000D01*
%TO.N,/SPI_MOSI*%
X58822383Y-63894895D02*
X57682763Y-63894895D01*
X57300000Y-52700000D02*
X59000000Y-51000000D01*
X57375000Y-48000000D02*
X57000000Y-48000000D01*
X28250000Y-34500000D02*
X28850000Y-33900000D01*
X59000000Y-49625000D02*
X57375000Y-48000000D01*
X57300000Y-60450000D02*
X57300000Y-52700000D01*
X62500000Y-63500000D02*
X59217278Y-63500000D01*
X59217278Y-63500000D02*
X58822383Y-63894895D01*
X63250150Y-64250150D02*
X62500000Y-63500000D01*
X28850000Y-33900000D02*
X28850000Y-33251471D01*
X56450000Y-61300000D02*
X57300000Y-60450000D01*
X59000000Y-51000000D02*
X59000000Y-49625000D01*
X28850000Y-33251471D02*
X27975000Y-32376471D01*
X57682763Y-63894895D02*
X56450000Y-62662132D01*
X56450000Y-62662132D02*
X56450000Y-61300000D01*
X27975000Y-32376471D02*
X27975000Y-32250000D01*
%TO.N,/CS_FAN*%
X52750000Y-63750000D02*
X57000000Y-59500000D01*
X56400000Y-47350000D02*
X56025000Y-47725000D01*
X55650000Y-49250000D02*
X55650000Y-51000000D01*
X57000000Y-47350000D02*
X56400000Y-47350000D01*
X57000000Y-52350000D02*
X55650000Y-51000000D01*
X56025000Y-47725000D02*
X56025000Y-48875000D01*
X56025000Y-48875000D02*
X55650000Y-49250000D01*
X57000000Y-59500000D02*
X57000000Y-52350000D01*
%TO.N,Net-(IC2-A)*%
X26025000Y-32025000D02*
X26025000Y-32250000D01*
X24000000Y-30000000D02*
X26025000Y-32025000D01*
%TO.N,/CS_DRIVE*%
X27325000Y-32250000D02*
X27325000Y-33050000D01*
X27900000Y-33150000D02*
X28250000Y-33500000D01*
X27325000Y-33050000D02*
X27425000Y-33150000D01*
X27425000Y-33150000D02*
X27900000Y-33150000D01*
%TO.N,/PFC*%
X55402830Y-64597170D02*
X56250000Y-63750000D01*
X49500000Y-63750000D02*
X50347170Y-64597170D01*
X50347170Y-64597170D02*
X55402830Y-64597170D01*
X44750000Y-63750000D02*
X49500000Y-63750000D01*
%TO.N,/USART_RX*%
X45050000Y-67200000D02*
X45000000Y-67250000D01*
X51700000Y-67200000D02*
X45050000Y-67200000D01*
X52762331Y-65697170D02*
X52762331Y-66137669D01*
X42500000Y-81650000D02*
X42500000Y-76500000D01*
X39650000Y-84500000D02*
X42500000Y-81650000D01*
X52762331Y-66137669D02*
X51700000Y-67200000D01*
%TO.N,Net-(U2-FSW)*%
X47845000Y-42345000D02*
X47750000Y-42250000D01*
X47845000Y-44095000D02*
X47845000Y-42345000D01*
%TO.N,Net-(U2-COMP)*%
X55155000Y-44095000D02*
X55250000Y-44000000D01*
X54905000Y-44095000D02*
X55250000Y-43750000D01*
X52795000Y-44095000D02*
X54905000Y-44095000D01*
%TO.N,Net-(U7-FSW)*%
X21690000Y-46000000D02*
X21690000Y-47810000D01*
X21690000Y-47810000D02*
X21000000Y-48500000D01*
%TO.N,Net-(U7-COMP)*%
X21690000Y-38810000D02*
X22000000Y-38500000D01*
X21690000Y-38690000D02*
X21500000Y-38500000D01*
X21690000Y-41050000D02*
X21690000Y-38690000D01*
%TO.N,/FAN_EN*%
X54709744Y-48675000D02*
X55250000Y-49215256D01*
X52795000Y-47905000D02*
X53565000Y-48675000D01*
X55000000Y-51250000D02*
X55250000Y-51000000D01*
X55250000Y-49215256D02*
X55250000Y-51000000D01*
X53565000Y-48675000D02*
X54709744Y-48675000D01*
X55000000Y-60750000D02*
X55000000Y-51250000D01*
X52750000Y-63000000D02*
X55000000Y-60750000D01*
D61*
%TO.N,Net-(IC4-LED1)*%
X57212000Y-78845000D02*
X58529000Y-78845000D01*
X58529000Y-78845000D02*
X60664000Y-80980000D01*
%TO.N,Net-(IC4-LED2)*%
X57212000Y-77575000D02*
X59799000Y-77575000D01*
X59799000Y-77575000D02*
X60664000Y-78440000D01*
D59*
%TO.N,Net-(IC4-LED3)*%
X60259000Y-76305000D02*
X60664000Y-75900000D01*
D61*
X57212000Y-76305000D02*
X60259000Y-76305000D01*
D59*
%TO.N,/LED_TMP*%
X46500000Y-76532843D02*
X47067157Y-77100000D01*
X46500000Y-76250000D02*
X46500000Y-76532843D01*
X48915686Y-77100000D02*
X49900000Y-78084314D01*
X47067157Y-77100000D02*
X48915686Y-77100000D01*
X49900000Y-78084314D02*
X49900000Y-81150000D01*
X49900000Y-81150000D02*
X50135000Y-81385000D01*
X50135000Y-81385000D02*
X51788000Y-81385000D01*
X51788000Y-81385000D02*
X52200500Y-81385000D01*
%TO.N,Net-(IC4-RSET1)*%
X51788000Y-76305000D02*
X51788000Y-74700500D01*
X51788000Y-74700500D02*
X51750000Y-74662500D01*
%TO.N,/LED_I_IN*%
X50325500Y-77944128D02*
X49081372Y-76700000D01*
X50325500Y-79825500D02*
X50325500Y-77944128D01*
X49081372Y-76700000D02*
X47700000Y-76700000D01*
X47700000Y-76700000D02*
X47250000Y-76250000D01*
X51788000Y-80115000D02*
X52200500Y-80115000D01*
X51788000Y-80115000D02*
X50615000Y-80115000D01*
X50615000Y-80115000D02*
X50325500Y-79825500D01*
%TO.N,/LED_VBUS*%
X49500000Y-82250000D02*
X49905000Y-82655000D01*
X48750000Y-77500000D02*
X49500000Y-78250000D01*
X51788000Y-82655000D02*
X52200500Y-82655000D01*
X46901471Y-77500000D02*
X48750000Y-77500000D01*
X49500000Y-78250000D02*
X49500000Y-82250000D01*
X45750000Y-76250000D02*
X45750000Y-76348529D01*
X45750000Y-76348529D02*
X46901471Y-77500000D01*
X49905000Y-82655000D02*
X51788000Y-82655000D01*
%TO.N,Net-(IC4-RSET3)*%
X50725500Y-75388000D02*
X50000000Y-74662500D01*
X50725500Y-78725500D02*
X50725500Y-75388000D01*
X50845000Y-78845000D02*
X50725500Y-78725500D01*
X51788000Y-78845000D02*
X50845000Y-78845000D01*
%TO.N,Net-(IC4-RSET2)*%
X51788000Y-77575000D02*
X52200500Y-77575000D01*
X52200500Y-77575000D02*
X53500000Y-76275500D01*
X53500000Y-76275500D02*
X53500000Y-74662500D01*
D58*
%TO.N,VDRIVE*%
X32770000Y-32500000D02*
X36500000Y-36230000D01*
D59*
X29480000Y-38750000D02*
X32000000Y-36230000D01*
X32666750Y-32500000D02*
X32770000Y-32500000D01*
X28250000Y-38750000D02*
X29480000Y-38750000D01*
X32000000Y-36230000D02*
X36500000Y-36230000D01*
%TO.N,GDT2_DIS*%
X55750000Y-58750000D02*
X56500000Y-58750000D01*
X55500000Y-59500000D02*
X55500000Y-59000000D01*
X55500000Y-59000000D02*
X55750000Y-58750000D01*
%TO.N,/I_L*%
X42947170Y-65197170D02*
X41750000Y-64000000D01*
X56697170Y-65197170D02*
X42947170Y-65197170D01*
X58000000Y-66500000D02*
X56697170Y-65197170D01*
%TO.N,/VBUS_SENSE*%
X63978342Y-61262500D02*
X64400000Y-61262500D01*
X62940511Y-62300331D02*
X63978342Y-61262500D01*
%TO.N,/VAC_IN*%
X41000000Y-73250000D02*
X42750000Y-73250000D01*
X40750000Y-73000000D02*
X41000000Y-73250000D01*
X40750000Y-65250000D02*
X40750000Y-73000000D01*
%TO.N,/VAC_SENSE*%
X46750000Y-71600000D02*
X47400000Y-72250000D01*
X44675000Y-71187500D02*
X44862500Y-71000000D01*
X54500000Y-74250000D02*
X54500000Y-74268324D01*
X44675000Y-73000000D02*
X44675000Y-71187500D01*
X47400000Y-72250000D02*
X48250000Y-72250000D01*
X54500000Y-74268324D02*
X55231676Y-75000000D01*
X49500000Y-73750000D02*
X49750000Y-73750000D01*
X49750000Y-73750000D02*
X53750000Y-73750000D01*
X48400000Y-72250000D02*
X49000000Y-72850000D01*
X55231676Y-75000000D02*
X60000000Y-75000000D01*
X53750000Y-73750000D02*
X54000000Y-73750000D01*
X49000000Y-73250000D02*
X49500000Y-73750000D01*
X44500000Y-75000000D02*
X44250000Y-75250000D01*
X44250000Y-75250000D02*
X42750000Y-75250000D01*
X44862500Y-71000000D02*
X46750000Y-71000000D01*
X54000000Y-73750000D02*
X54500000Y-74250000D01*
X44675000Y-73000000D02*
X44675000Y-75000000D01*
X60000000Y-75000000D02*
X60250000Y-74750000D01*
X60250000Y-69250000D02*
X59750000Y-68750000D01*
X48250000Y-72250000D02*
X48400000Y-72250000D01*
X46750000Y-71000000D02*
X46750000Y-71600000D01*
X60250000Y-74750000D02*
X60250000Y-69250000D01*
X44675000Y-75000000D02*
X44500000Y-75000000D01*
X49000000Y-72850000D02*
X49000000Y-73250000D01*
%TO.N,/VREF*%
X57362500Y-71800000D02*
X58812500Y-73250000D01*
X47000000Y-69250000D02*
X46750000Y-69000000D01*
X54000000Y-68500000D02*
X53100000Y-69400000D01*
X56307988Y-70846531D02*
X56307988Y-70522123D01*
X54000000Y-69750000D02*
X54000000Y-68500000D01*
X54000000Y-71000000D02*
X54000000Y-69750000D01*
X54250000Y-69750000D02*
X54000000Y-69750000D01*
X57261457Y-71800000D02*
X56307988Y-70846531D01*
X56307988Y-70522123D02*
X55535865Y-69750000D01*
X57362500Y-71800000D02*
X57261457Y-71800000D01*
X55535865Y-69750000D02*
X54250000Y-69750000D01*
X51400000Y-69400000D02*
X51250000Y-69250000D01*
X51250000Y-69250000D02*
X47000000Y-69250000D01*
X53100000Y-69400000D02*
X51400000Y-69400000D01*
%TO.N,/RST*%
X55250000Y-67250000D02*
X56250000Y-68250000D01*
X61863752Y-72694200D02*
X61000000Y-71830448D01*
X62615800Y-72694200D02*
X61863752Y-72694200D01*
X56250000Y-68250000D02*
X60000000Y-68250000D01*
X63500000Y-71810000D02*
X62615800Y-72694200D01*
X61000000Y-69250000D02*
X60000000Y-68250000D01*
X61000000Y-71830448D02*
X61000000Y-69250000D01*
%TO.N,/TDI*%
X63240511Y-62800000D02*
X59723797Y-62800000D01*
X59723797Y-62800000D02*
X58618961Y-61695164D01*
X57804836Y-61695164D02*
X57250000Y-62250000D01*
X63540511Y-63100000D02*
X63240511Y-62800000D01*
X63807107Y-63100000D02*
X63540511Y-63100000D01*
X64384200Y-63677093D02*
X63807107Y-63100000D01*
X58618961Y-61695164D02*
X57804836Y-61695164D01*
X63500000Y-70540000D02*
X64384200Y-69655800D01*
X64384200Y-69655800D02*
X64384200Y-63677093D01*
%TO.N,/DRIVE_EN*%
X56457107Y-63250000D02*
X55750000Y-63250000D01*
X26250000Y-38825000D02*
X25500000Y-39575000D01*
X46750000Y-53443324D02*
X46750000Y-60275000D01*
X43500000Y-50193324D02*
X46750000Y-53443324D01*
X50772170Y-64297170D02*
X54702830Y-64297170D01*
X43500000Y-48975000D02*
X43500000Y-50193324D01*
X25500000Y-39575000D02*
X25500000Y-41050000D01*
X54702830Y-64297170D02*
X55750000Y-63250000D01*
X46750000Y-60275000D02*
X50772170Y-64297170D01*
X57500000Y-64500000D02*
X57500000Y-64292893D01*
X25799999Y-40750001D02*
X29500001Y-40750001D01*
X57500000Y-64292893D02*
X56457107Y-63250000D01*
X25500000Y-41050000D02*
X25799999Y-40750001D01*
X33000000Y-44250000D02*
X38775000Y-44250000D01*
X29500001Y-40750001D02*
X33000000Y-44250000D01*
X38775000Y-44250000D02*
X43500000Y-48975000D01*
%TO.N,/SCR*%
X44250000Y-64250000D02*
X44957107Y-64250000D01*
X45157107Y-64050000D02*
X49257107Y-64050000D01*
X49257107Y-64050000D02*
X50104277Y-64897170D01*
X50104277Y-64897170D02*
X56102830Y-64897170D01*
X56102830Y-64897170D02*
X56750000Y-64250000D01*
X44957107Y-64250000D02*
X45157107Y-64050000D01*
%TO.N,/THERM1*%
X40914215Y-64000000D02*
X40204699Y-64000000D01*
X41900000Y-67150000D02*
X41900000Y-64985786D01*
X53000000Y-68250000D02*
X52750000Y-68500000D01*
X47042893Y-68000000D02*
X42750000Y-68000000D01*
X47542893Y-67500000D02*
X47042893Y-68000000D01*
X52000000Y-68500000D02*
X50362500Y-68500000D01*
X52750000Y-68500000D02*
X52000000Y-68500000D01*
X41900000Y-64985786D02*
X40914215Y-64000000D01*
X42750000Y-68000000D02*
X41900000Y-67150000D01*
X53000000Y-67750000D02*
X53000000Y-68250000D01*
X49362500Y-67500000D02*
X47542893Y-67500000D01*
X50362500Y-68500000D02*
X49362500Y-67500000D01*
%TO.N,/THERM2*%
X39400000Y-64650000D02*
X40998529Y-64650000D01*
X40998529Y-64650000D02*
X41500000Y-65151471D01*
X51750000Y-71250000D02*
X52000000Y-71000000D01*
X50362500Y-71250000D02*
X51750000Y-71250000D01*
X51000000Y-70000000D02*
X51000000Y-70500000D01*
X47750000Y-70500000D02*
X51000000Y-70500000D01*
X41500000Y-65151471D02*
X41500000Y-69250000D01*
X51500000Y-70500000D02*
X52000000Y-71000000D01*
X39000000Y-64250000D02*
X39400000Y-64650000D01*
X42350000Y-70100000D02*
X47350000Y-70100000D01*
X47350000Y-70100000D02*
X47750000Y-70500000D01*
X41500000Y-69250000D02*
X42350000Y-70100000D01*
X51000000Y-70500000D02*
X51500000Y-70500000D01*
%TD*%
%TA.AperFunction,Conductor*%
%TO.N,VDD*%
G36*
X29437539Y-68769685D02*
G01*
X29483294Y-68822489D01*
X29494500Y-68874000D01*
X29494500Y-71876000D01*
X29474815Y-71943039D01*
X29422011Y-71988794D01*
X29370500Y-72000000D01*
X27374000Y-72000000D01*
X27306961Y-71980315D01*
X27261206Y-71927511D01*
X27250000Y-71876000D01*
X27250000Y-68874000D01*
X27269685Y-68806961D01*
X27322489Y-68761206D01*
X27374000Y-68750000D01*
X29370500Y-68750000D01*
X29437539Y-68769685D01*
G37*
%TD.AperFunction*%
%TD*%
%TA.AperFunction,Conductor*%
%TO.N,GND*%
G36*
X69243039Y-16019685D02*
G01*
X69288794Y-16072489D01*
X69300000Y-16124000D01*
X69300000Y-87876000D01*
X69280315Y-87943039D01*
X69227511Y-87988794D01*
X69176000Y-88000000D01*
X65424000Y-88000000D01*
X65356961Y-87980315D01*
X65311206Y-87927511D01*
X65300000Y-87876000D01*
X65300000Y-37806352D01*
X65300780Y-37792468D01*
X65305565Y-37750002D01*
X65305565Y-37749998D01*
X65300780Y-37707531D01*
X65300000Y-37693647D01*
X65300000Y-37000000D01*
X66250000Y-37000000D01*
X66250000Y-34750000D01*
X65300000Y-34750000D01*
X65300000Y-16124000D01*
X65319685Y-16056961D01*
X65372489Y-16011206D01*
X65424000Y-16000000D01*
X69176000Y-16000000D01*
X69243039Y-16019685D01*
G37*
%TD.AperFunction*%
%TD*%
%TA.AperFunction,Conductor*%
%TO.N,GND*%
G36*
X23572539Y-48019685D02*
G01*
X23618294Y-48072489D01*
X23629500Y-48124000D01*
X23629500Y-48205830D01*
X23629499Y-48205848D01*
X23629499Y-48371554D01*
X23629498Y-48371554D01*
X23670423Y-48524285D01*
X23699358Y-48574400D01*
X23699359Y-48574404D01*
X23699360Y-48574404D01*
X23753544Y-48668255D01*
X23752200Y-48669030D01*
X23774070Y-48725596D01*
X23774500Y-48735915D01*
X23774500Y-49200001D01*
X23774501Y-49200019D01*
X23785000Y-49302796D01*
X23785001Y-49302799D01*
X23822489Y-49415928D01*
X23824891Y-49485756D01*
X23792465Y-49542612D01*
X23722862Y-49612216D01*
X23722858Y-49612221D01*
X23613371Y-49776079D01*
X23613364Y-49776092D01*
X23566184Y-49889998D01*
X23566184Y-49889999D01*
X23537949Y-49958163D01*
X23537947Y-49958171D01*
X23499752Y-50150191D01*
X23467367Y-50212102D01*
X23406652Y-50246676D01*
X23378135Y-50250000D01*
X22124000Y-50250000D01*
X22056961Y-50230315D01*
X22011206Y-50177511D01*
X22000000Y-50126000D01*
X22000000Y-49360941D01*
X22018462Y-49295844D01*
X22034814Y-49269334D01*
X22089999Y-49102797D01*
X22100500Y-49000009D01*
X22100499Y-48300098D01*
X22120183Y-48233060D01*
X22136819Y-48212417D01*
X22170517Y-48178719D01*
X22170517Y-48178718D01*
X22170520Y-48178716D01*
X22231850Y-48072489D01*
X22237906Y-48062000D01*
X22288473Y-48013785D01*
X22345293Y-48000000D01*
X23505500Y-48000000D01*
X23572539Y-48019685D01*
G37*
%TD.AperFunction*%
%TD*%
%TA.AperFunction,Conductor*%
%TO.N,+24V*%
G36*
X24908274Y-42369104D02*
G01*
X24940695Y-42389940D01*
X24941969Y-42388298D01*
X24948132Y-42393078D01*
X24948135Y-42393081D01*
X25089602Y-42476744D01*
X25131224Y-42488836D01*
X25247426Y-42522597D01*
X25247429Y-42522597D01*
X25247431Y-42522598D01*
X25284306Y-42525500D01*
X25284314Y-42525500D01*
X25715686Y-42525500D01*
X25715694Y-42525500D01*
X25752569Y-42522598D01*
X25752571Y-42522597D01*
X25752573Y-42522597D01*
X25841405Y-42496789D01*
X25911274Y-42496988D01*
X25969944Y-42534930D01*
X25998788Y-42598568D01*
X26000000Y-42615865D01*
X26000000Y-44434134D01*
X25980315Y-44501173D01*
X25927511Y-44546928D01*
X25858353Y-44556872D01*
X25841406Y-44553211D01*
X25752567Y-44527401D01*
X25715701Y-44524500D01*
X25715694Y-44524500D01*
X25284306Y-44524500D01*
X25284298Y-44524500D01*
X25247432Y-44527401D01*
X25247426Y-44527402D01*
X25089606Y-44573254D01*
X25089603Y-44573255D01*
X24948137Y-44656917D01*
X24941969Y-44661702D01*
X24940072Y-44659256D01*
X24891358Y-44685857D01*
X24821666Y-44680873D01*
X24789296Y-44660069D01*
X24788031Y-44661702D01*
X24781862Y-44656917D01*
X24640396Y-44573255D01*
X24640393Y-44573254D01*
X24482573Y-44527402D01*
X24482567Y-44527401D01*
X24445701Y-44524500D01*
X24445694Y-44524500D01*
X24014306Y-44524500D01*
X24014298Y-44524500D01*
X23977432Y-44527401D01*
X23977426Y-44527402D01*
X23819606Y-44573254D01*
X23819603Y-44573255D01*
X23678137Y-44656917D01*
X23671969Y-44661702D01*
X23670072Y-44659256D01*
X23621358Y-44685857D01*
X23551666Y-44680873D01*
X23519296Y-44660069D01*
X23518031Y-44661702D01*
X23511862Y-44656917D01*
X23370396Y-44573255D01*
X23370393Y-44573254D01*
X23212573Y-44527402D01*
X23212567Y-44527401D01*
X23175701Y-44524500D01*
X23175694Y-44524500D01*
X22744306Y-44524500D01*
X22744298Y-44524500D01*
X22707432Y-44527401D01*
X22707426Y-44527402D01*
X22549606Y-44573254D01*
X22549603Y-44573255D01*
X22408137Y-44656917D01*
X22401969Y-44661702D01*
X22400072Y-44659256D01*
X22351358Y-44685857D01*
X22281666Y-44680873D01*
X22249296Y-44660069D01*
X22248031Y-44661702D01*
X22241862Y-44656917D01*
X22100396Y-44573255D01*
X22100393Y-44573254D01*
X21942573Y-44527402D01*
X21942567Y-44527401D01*
X21905701Y-44524500D01*
X21905694Y-44524500D01*
X21474306Y-44524500D01*
X21474298Y-44524500D01*
X21437432Y-44527401D01*
X21408594Y-44535780D01*
X21338725Y-44535580D01*
X21280055Y-44497637D01*
X21251212Y-44433999D01*
X21250000Y-44416703D01*
X21250000Y-42633296D01*
X21269685Y-42566257D01*
X21322489Y-42520502D01*
X21391647Y-42510558D01*
X21408585Y-42514217D01*
X21437431Y-42522598D01*
X21474306Y-42525500D01*
X21474314Y-42525500D01*
X21905686Y-42525500D01*
X21905694Y-42525500D01*
X21942569Y-42522598D01*
X21942571Y-42522597D01*
X21942573Y-42522597D01*
X22031403Y-42496789D01*
X22100398Y-42476744D01*
X22241865Y-42393081D01*
X22241870Y-42393075D01*
X22248031Y-42388298D01*
X22249933Y-42390750D01*
X22298579Y-42364155D01*
X22368274Y-42369104D01*
X22400695Y-42389940D01*
X22401969Y-42388298D01*
X22408132Y-42393078D01*
X22408135Y-42393081D01*
X22549602Y-42476744D01*
X22591224Y-42488836D01*
X22707426Y-42522597D01*
X22707429Y-42522597D01*
X22707431Y-42522598D01*
X22744306Y-42525500D01*
X22744314Y-42525500D01*
X23175686Y-42525500D01*
X23175694Y-42525500D01*
X23212569Y-42522598D01*
X23212571Y-42522597D01*
X23212573Y-42522597D01*
X23301403Y-42496789D01*
X23370398Y-42476744D01*
X23511865Y-42393081D01*
X23511870Y-42393075D01*
X23518031Y-42388298D01*
X23519933Y-42390750D01*
X23568579Y-42364155D01*
X23638274Y-42369104D01*
X23670695Y-42389940D01*
X23671969Y-42388298D01*
X23678132Y-42393078D01*
X23678135Y-42393081D01*
X23819602Y-42476744D01*
X23861224Y-42488836D01*
X23977426Y-42522597D01*
X23977429Y-42522597D01*
X23977431Y-42522598D01*
X24014306Y-42525500D01*
X24014314Y-42525500D01*
X24445686Y-42525500D01*
X24445694Y-42525500D01*
X24482569Y-42522598D01*
X24482571Y-42522597D01*
X24482573Y-42522597D01*
X24571403Y-42496789D01*
X24640398Y-42476744D01*
X24781865Y-42393081D01*
X24781870Y-42393075D01*
X24788031Y-42388298D01*
X24789933Y-42390750D01*
X24838579Y-42364155D01*
X24908274Y-42369104D01*
G37*
%TD.AperFunction*%
%TD*%
%TA.AperFunction,Conductor*%
%TO.N,VDD*%
G36*
X38693039Y-65769685D02*
G01*
X38738794Y-65822489D01*
X38750000Y-65874000D01*
X38750000Y-69626000D01*
X38730315Y-69693039D01*
X38677511Y-69738794D01*
X38626000Y-69750000D01*
X31124000Y-69750000D01*
X31056961Y-69730315D01*
X31011206Y-69677511D01*
X31000000Y-69626000D01*
X31000000Y-66074019D01*
X31019685Y-66006980D01*
X31072489Y-65961225D01*
X31123995Y-65950019D01*
X33387532Y-65950019D01*
X33447143Y-65943611D01*
X33581991Y-65893316D01*
X33697206Y-65807066D01*
X33702727Y-65799691D01*
X33758660Y-65757819D01*
X33801995Y-65750000D01*
X38626000Y-65750000D01*
X38693039Y-65769685D01*
G37*
%TD.AperFunction*%
%TD*%
%TA.AperFunction,Conductor*%
%TO.N,+5V*%
G36*
X39989554Y-54256958D02*
G01*
X40070745Y-54285368D01*
X40070750Y-54285369D01*
X40249996Y-54305565D01*
X40250000Y-54305565D01*
X40250004Y-54305565D01*
X40429249Y-54285369D01*
X40429252Y-54285368D01*
X40429255Y-54285368D01*
X40510446Y-54256957D01*
X40551401Y-54250000D01*
X42876000Y-54250000D01*
X42943039Y-54269685D01*
X42988794Y-54322489D01*
X43000000Y-54374000D01*
X43000000Y-57901404D01*
X42980315Y-57968443D01*
X42927511Y-58014198D01*
X42916961Y-58018443D01*
X42910591Y-58020672D01*
X42900474Y-58024212D01*
X42747737Y-58120184D01*
X42654241Y-58213681D01*
X42592918Y-58247166D01*
X42566560Y-58250000D01*
X32874000Y-58250000D01*
X32806961Y-58230315D01*
X32761206Y-58177511D01*
X32750000Y-58126000D01*
X32750000Y-54374000D01*
X32769685Y-54306961D01*
X32822489Y-54261206D01*
X32874000Y-54250000D01*
X39948599Y-54250000D01*
X39989554Y-54256958D01*
G37*
%TD.AperFunction*%
%TD*%
%TA.AperFunction,Conductor*%
%TO.N,GND*%
G36*
X40250000Y-63078517D02*
G01*
X40230315Y-63145556D01*
X40177511Y-63191311D01*
X40139884Y-63201737D01*
X40025448Y-63214630D01*
X40025444Y-63214631D01*
X39855175Y-63274211D01*
X39702436Y-63370184D01*
X39574885Y-63497735D01*
X39574882Y-63497739D01*
X39565137Y-63513248D01*
X39512801Y-63559538D01*
X39443747Y-63570184D01*
X39394173Y-63552267D01*
X39349523Y-63524211D01*
X39179254Y-63464631D01*
X39179249Y-63464630D01*
X39000004Y-63444435D01*
X38999996Y-63444435D01*
X38820750Y-63464630D01*
X38820745Y-63464631D01*
X38650476Y-63524211D01*
X38497737Y-63620184D01*
X38370184Y-63747737D01*
X38274211Y-63900476D01*
X38214631Y-64070745D01*
X38214630Y-64070750D01*
X38194435Y-64249996D01*
X38194435Y-64250003D01*
X38214630Y-64429249D01*
X38214631Y-64429254D01*
X38274211Y-64599523D01*
X38355603Y-64729057D01*
X38370184Y-64752262D01*
X38497738Y-64879816D01*
X38650478Y-64975789D01*
X38767024Y-65016570D01*
X38823800Y-65057292D01*
X38849548Y-65122244D01*
X38836092Y-65190806D01*
X38787705Y-65241209D01*
X38719749Y-65257451D01*
X38708424Y-65256350D01*
X38626001Y-65244500D01*
X38626000Y-65244500D01*
X33801995Y-65244500D01*
X33801991Y-65244500D01*
X33712254Y-65252530D01*
X33712223Y-65252534D01*
X33668903Y-65260351D01*
X33668886Y-65260355D01*
X33582003Y-65284191D01*
X33455721Y-65353148D01*
X33399783Y-65395023D01*
X33393152Y-65401654D01*
X33379798Y-65413225D01*
X33371043Y-65419780D01*
X33305581Y-65444202D01*
X33296725Y-65444519D01*
X33007705Y-65444519D01*
X33006209Y-65444435D01*
X32993791Y-65444435D01*
X32992295Y-65444519D01*
X32257705Y-65444519D01*
X32256209Y-65444435D01*
X32243791Y-65444435D01*
X32242295Y-65444519D01*
X31507705Y-65444519D01*
X31506209Y-65444435D01*
X31493791Y-65444435D01*
X31492295Y-65444519D01*
X31124000Y-65444519D01*
X31056961Y-65424834D01*
X31011206Y-65372030D01*
X31000000Y-65320519D01*
X31000000Y-62970000D01*
X31000000Y-62500000D01*
X40250000Y-62500000D01*
X40250000Y-63078517D01*
G37*
%TD.AperFunction*%
%TD*%
%TA.AperFunction,Conductor*%
%TO.N,GND*%
G36*
X19943039Y-16019685D02*
G01*
X19988794Y-16072489D01*
X20000000Y-16124000D01*
X20000000Y-47639057D01*
X19981539Y-47704153D01*
X19965189Y-47730659D01*
X19965186Y-47730666D01*
X19910001Y-47897203D01*
X19910001Y-47897204D01*
X19910000Y-47897204D01*
X19899500Y-47999983D01*
X19899500Y-49000001D01*
X19899501Y-49000019D01*
X19910000Y-49102796D01*
X19910001Y-49102799D01*
X19965185Y-49269331D01*
X19965189Y-49269340D01*
X19972664Y-49281458D01*
X19981537Y-49295844D01*
X20000000Y-49360941D01*
X20000000Y-53198598D01*
X19993042Y-53239552D01*
X19989386Y-53250000D01*
X19250000Y-53250000D01*
X19250000Y-62250000D01*
X20000000Y-62241106D01*
X20000000Y-87876000D01*
X19980315Y-87943039D01*
X19927511Y-87988794D01*
X19876000Y-88000000D01*
X16124000Y-88000000D01*
X16056961Y-87980315D01*
X16011206Y-87927511D01*
X16000000Y-87876000D01*
X16000000Y-16124000D01*
X16019685Y-16056961D01*
X16072489Y-16011206D01*
X16124000Y-16000000D01*
X19876000Y-16000000D01*
X19943039Y-16019685D01*
G37*
%TD.AperFunction*%
%TD*%
%TA.AperFunction,Conductor*%
%TO.N,GND*%
G36*
X42693039Y-50019685D02*
G01*
X42738794Y-50072489D01*
X42750000Y-50124000D01*
X42750000Y-51626000D01*
X42730315Y-51693039D01*
X42677511Y-51738794D01*
X42626000Y-51750000D01*
X33224500Y-51750000D01*
X33157461Y-51730315D01*
X33111706Y-51677511D01*
X33100500Y-51626000D01*
X33100500Y-51401456D01*
X33062052Y-51208170D01*
X33062051Y-51208169D01*
X33062051Y-51208165D01*
X33062049Y-51208160D01*
X32986635Y-51026092D01*
X32986628Y-51026079D01*
X32877139Y-50862218D01*
X32877136Y-50862214D01*
X32786319Y-50771397D01*
X32752834Y-50710074D01*
X32750000Y-50683716D01*
X32750000Y-50124000D01*
X32769685Y-50056961D01*
X32822489Y-50011206D01*
X32874000Y-50000000D01*
X42626000Y-50000000D01*
X42693039Y-50019685D01*
G37*
%TD.AperFunction*%
%TD*%
%TA.AperFunction,Conductor*%
%TO.N,GND*%
G36*
X30750000Y-62500000D02*
G01*
X31000000Y-62500000D01*
X31000000Y-62970000D01*
X21404000Y-62970000D01*
X21336961Y-62950315D01*
X21291206Y-62897511D01*
X21280000Y-62846000D01*
X21280000Y-62225928D01*
X21780000Y-62220000D01*
X30750000Y-62220000D01*
X30750000Y-62500000D01*
G37*
%TD.AperFunction*%
%TD*%
%TA.AperFunction,Conductor*%
%TO.N,GND*%
G36*
X33054153Y-59018461D02*
G01*
X33080659Y-59034810D01*
X33080660Y-59034810D01*
X33080666Y-59034814D01*
X33247203Y-59089999D01*
X33349991Y-59100500D01*
X35650008Y-59100499D01*
X35752797Y-59089999D01*
X35919334Y-59034814D01*
X35945847Y-59018461D01*
X36010943Y-59000000D01*
X37239057Y-59000000D01*
X37304153Y-59018461D01*
X37330659Y-59034810D01*
X37330660Y-59034810D01*
X37330666Y-59034814D01*
X37497203Y-59089999D01*
X37599991Y-59100500D01*
X39900008Y-59100499D01*
X40002797Y-59089999D01*
X40086996Y-59062097D01*
X40156824Y-59059696D01*
X40216866Y-59095428D01*
X40248059Y-59157948D01*
X40250000Y-59179804D01*
X40250000Y-62500000D01*
X30750000Y-62500000D01*
X30750000Y-59124000D01*
X30769685Y-59056961D01*
X30822489Y-59011206D01*
X30874000Y-59000000D01*
X32989057Y-59000000D01*
X33054153Y-59018461D01*
G37*
%TD.AperFunction*%
%TD*%
%TA.AperFunction,Conductor*%
%TO.N,GND*%
G36*
X53693039Y-83769685D02*
G01*
X53738794Y-83822489D01*
X53750000Y-83874000D01*
X53750000Y-85125476D01*
X53730315Y-85192515D01*
X53677511Y-85238270D01*
X53626000Y-85249476D01*
X51374000Y-85249476D01*
X51306961Y-85229791D01*
X51261206Y-85176987D01*
X51250000Y-85125476D01*
X51250000Y-83874000D01*
X51269685Y-83806961D01*
X51322489Y-83761206D01*
X51374000Y-83750000D01*
X53626000Y-83750000D01*
X53693039Y-83769685D01*
G37*
%TD.AperFunction*%
%TD*%
%TA.AperFunction,Conductor*%
%TO.N,GND*%
G36*
X66250000Y-37000000D02*
G01*
X64801401Y-37000000D01*
X64760446Y-36993042D01*
X64679254Y-36964631D01*
X64679249Y-36964630D01*
X64500004Y-36944435D01*
X64499996Y-36944435D01*
X64320750Y-36964630D01*
X64320745Y-36964631D01*
X64239554Y-36993042D01*
X64198599Y-37000000D01*
X62598596Y-37000000D01*
X62531557Y-36980315D01*
X62485802Y-36927511D01*
X62481554Y-36916954D01*
X62475788Y-36900476D01*
X62379815Y-36747737D01*
X62252262Y-36620184D01*
X62099523Y-36524211D01*
X61929254Y-36464631D01*
X61929249Y-36464630D01*
X61750004Y-36444435D01*
X61749996Y-36444435D01*
X61570750Y-36464630D01*
X61570745Y-36464631D01*
X61400476Y-36524211D01*
X61247737Y-36620184D01*
X61120184Y-36747737D01*
X61024211Y-36900476D01*
X61018446Y-36916954D01*
X60977725Y-36973730D01*
X60912772Y-36999478D01*
X60901404Y-37000000D01*
X57183440Y-37000000D01*
X57116401Y-36980315D01*
X57095759Y-36963681D01*
X57002262Y-36870184D01*
X56849523Y-36774211D01*
X56679254Y-36714631D01*
X56679249Y-36714630D01*
X56500004Y-36694435D01*
X56499996Y-36694435D01*
X56320750Y-36714630D01*
X56320745Y-36714631D01*
X56150476Y-36774211D01*
X55997737Y-36870184D01*
X55904241Y-36963681D01*
X55842918Y-36997166D01*
X55816560Y-37000000D01*
X51374000Y-37000000D01*
X51306961Y-36980315D01*
X51261206Y-36927511D01*
X51250000Y-36876000D01*
X51250000Y-34874000D01*
X51269685Y-34806961D01*
X51322489Y-34761206D01*
X51374000Y-34750000D01*
X65300000Y-34750000D01*
X66250000Y-34750000D01*
X66250000Y-37000000D01*
G37*
%TD.AperFunction*%
%TD*%
%TA.AperFunction,Conductor*%
%TO.N,GND*%
G36*
X19964632Y-53320742D02*
G01*
X19964630Y-53320750D01*
X19944435Y-53499996D01*
X19944435Y-53500003D01*
X19964630Y-53679249D01*
X19964631Y-53679254D01*
X20024211Y-53849523D01*
X20120184Y-54002262D01*
X20247738Y-54129816D01*
X20400478Y-54225789D01*
X20570745Y-54285368D01*
X20570750Y-54285369D01*
X20749996Y-54305565D01*
X20750000Y-54305565D01*
X20750004Y-54305565D01*
X20929249Y-54285369D01*
X20929252Y-54285368D01*
X20929255Y-54285368D01*
X21099522Y-54225789D01*
X21252262Y-54129816D01*
X21379816Y-54002262D01*
X21475789Y-53849522D01*
X21510765Y-53749565D01*
X21551487Y-53692790D01*
X21616439Y-53667042D01*
X21685001Y-53680498D01*
X21735404Y-53728885D01*
X21751806Y-53790105D01*
X21779999Y-62219998D01*
X21780000Y-62220000D01*
X21280000Y-62225928D01*
X21279999Y-62225928D01*
X20119837Y-62239685D01*
X20000000Y-62241106D01*
X19250000Y-62250000D01*
X19250000Y-53250000D01*
X19989386Y-53250000D01*
X19964632Y-53320742D01*
G37*
%TD.AperFunction*%
%TD*%
%TA.AperFunction,Conductor*%
%TO.N,GND*%
G36*
X29266943Y-41370186D02*
G01*
X29287585Y-41386820D01*
X29463681Y-41562916D01*
X29497166Y-41624239D01*
X29500000Y-41650597D01*
X29500000Y-44376000D01*
X29480315Y-44443039D01*
X29427511Y-44488794D01*
X29376000Y-44500000D01*
X26629500Y-44500000D01*
X26562461Y-44480315D01*
X26516706Y-44427511D01*
X26505500Y-44376000D01*
X26505500Y-44285679D01*
X26512459Y-44244724D01*
X26535368Y-44179255D01*
X26555565Y-44000000D01*
X26535368Y-43820745D01*
X26535367Y-43820742D01*
X26512458Y-43755270D01*
X26505500Y-43714316D01*
X26505500Y-43535679D01*
X26512459Y-43494724D01*
X26535368Y-43429255D01*
X26555565Y-43250000D01*
X26535368Y-43070745D01*
X26535367Y-43070742D01*
X26512458Y-43005270D01*
X26505500Y-42964316D01*
X26505500Y-42615860D01*
X26504264Y-42580538D01*
X26503051Y-42563222D01*
X26500683Y-42540749D01*
X26500000Y-42527755D01*
X26500000Y-41474501D01*
X26519685Y-41407462D01*
X26572489Y-41361707D01*
X26624000Y-41350501D01*
X29199904Y-41350501D01*
X29266943Y-41370186D01*
G37*
%TD.AperFunction*%
%TD*%
M02*
