%TF.GenerationSoftware,KiCad,Pcbnew,8.0.1*%
%TF.CreationDate,2024-07-11T23:08:47-04:00*%
%TF.ProjectId,booster-tc-driver,626f6f73-7465-4722-9d74-632d64726976,rev?*%
%TF.SameCoordinates,Original*%
%TF.FileFunction,Soldermask,Bot*%
%TF.FilePolarity,Negative*%
%FSLAX46Y46*%
G04 Gerber Fmt 4.6, Leading zero omitted, Abs format (unit mm)*
G04 Created by KiCad (PCBNEW 8.0.1) date 2024-07-11 23:08:47*
%MOMM*%
%LPD*%
G01*
G04 APERTURE LIST*
G04 Aperture macros list*
%AMRoundRect*
0 Rectangle with rounded corners*
0 $1 Rounding radius*
0 $2 $3 $4 $5 $6 $7 $8 $9 X,Y pos of 4 corners*
0 Add a 4 corners polygon primitive as box body*
4,1,4,$2,$3,$4,$5,$6,$7,$8,$9,$2,$3,0*
0 Add four circle primitives for the rounded corners*
1,1,$1+$1,$2,$3*
1,1,$1+$1,$4,$5*
1,1,$1+$1,$6,$7*
1,1,$1+$1,$8,$9*
0 Add four rect primitives between the rounded corners*
20,1,$1+$1,$2,$3,$4,$5,0*
20,1,$1+$1,$4,$5,$6,$7,0*
20,1,$1+$1,$6,$7,$8,$9,0*
20,1,$1+$1,$8,$9,$2,$3,0*%
G04 Aperture macros list end*
%ADD10C,0.100000*%
%ADD11RoundRect,0.237500X0.237500X-0.300000X0.237500X0.300000X-0.237500X0.300000X-0.237500X-0.300000X0*%
%ADD12RoundRect,0.102000X-0.620000X-0.620000X0.620000X-0.620000X0.620000X0.620000X-0.620000X0.620000X0*%
%ADD13C,1.444000*%
%ADD14C,1.524000*%
%ADD15C,1.400000*%
%ADD16R,1.397000X1.397000*%
%ADD17C,1.397000*%
%ADD18C,1.168400*%
%ADD19RoundRect,0.102000X0.810000X-0.810000X0.810000X0.810000X-0.810000X0.810000X-0.810000X-0.810000X0*%
%ADD20C,1.824000*%
%ADD21C,2.020000*%
%ADD22RoundRect,0.250000X-0.412500X-0.650000X0.412500X-0.650000X0.412500X0.650000X-0.412500X0.650000X0*%
%ADD23R,1.200000X0.450000*%
%ADD24RoundRect,0.250000X-0.450000X0.350000X-0.450000X-0.350000X0.450000X-0.350000X0.450000X0.350000X0*%
%ADD25RoundRect,0.250000X0.412500X0.650000X-0.412500X0.650000X-0.412500X-0.650000X0.412500X-0.650000X0*%
%ADD26RoundRect,0.250000X0.475000X-0.337500X0.475000X0.337500X-0.475000X0.337500X-0.475000X-0.337500X0*%
%ADD27RoundRect,0.237500X-0.237500X0.300000X-0.237500X-0.300000X0.237500X-0.300000X0.237500X0.300000X0*%
%ADD28R,1.525000X0.700000*%
%ADD29RoundRect,0.150000X0.150000X-0.825000X0.150000X0.825000X-0.150000X0.825000X-0.150000X-0.825000X0*%
%ADD30R,3.000000X2.290000*%
%ADD31RoundRect,0.250000X-1.100000X0.412500X-1.100000X-0.412500X1.100000X-0.412500X1.100000X0.412500X0*%
%ADD32RoundRect,0.237500X0.300000X0.237500X-0.300000X0.237500X-0.300000X-0.237500X0.300000X-0.237500X0*%
%ADD33R,4.250000X4.500000*%
%ADD34RoundRect,0.375000X0.625000X0.375000X-0.625000X0.375000X-0.625000X-0.375000X0.625000X-0.375000X0*%
%ADD35RoundRect,0.500000X0.500000X1.400000X-0.500000X1.400000X-0.500000X-1.400000X0.500000X-1.400000X0*%
%ADD36RoundRect,0.237500X-0.237500X0.250000X-0.237500X-0.250000X0.237500X-0.250000X0.237500X0.250000X0*%
%ADD37RoundRect,0.150000X-0.825000X-0.150000X0.825000X-0.150000X0.825000X0.150000X-0.825000X0.150000X0*%
%ADD38R,2.290000X3.000000*%
%ADD39RoundRect,0.250000X-0.475000X0.337500X-0.475000X-0.337500X0.475000X-0.337500X0.475000X0.337500X0*%
%ADD40RoundRect,0.250000X1.100000X-0.412500X1.100000X0.412500X-1.100000X0.412500X-1.100000X-0.412500X0*%
%ADD41RoundRect,0.250000X0.800000X-0.450000X0.800000X0.450000X-0.800000X0.450000X-0.800000X-0.450000X0*%
%ADD42RoundRect,0.250000X-0.800000X0.450000X-0.800000X-0.450000X0.800000X-0.450000X0.800000X0.450000X0*%
%ADD43RoundRect,0.250000X0.650000X-0.412500X0.650000X0.412500X-0.650000X0.412500X-0.650000X-0.412500X0*%
%ADD44R,2.179320X1.620520*%
%ADD45R,0.900000X0.950000*%
%ADD46RoundRect,0.250000X0.450000X-0.350000X0.450000X0.350000X-0.450000X0.350000X-0.450000X-0.350000X0*%
%ADD47RoundRect,0.237500X-0.300000X-0.237500X0.300000X-0.237500X0.300000X0.237500X-0.300000X0.237500X0*%
%ADD48RoundRect,0.250000X0.350000X0.450000X-0.350000X0.450000X-0.350000X-0.450000X0.350000X-0.450000X0*%
%ADD49R,1.050000X3.750000*%
%ADD50R,10.500000X8.300000*%
%ADD51R,4.500000X4.250000*%
%ADD52R,0.450000X1.200000*%
%ADD53RoundRect,0.250000X-0.350000X-0.450000X0.350000X-0.450000X0.350000X0.450000X-0.350000X0.450000X0*%
%ADD54R,1.070000X1.370000*%
%ADD55R,10.000000X9.000000*%
%ADD56RoundRect,0.250000X-0.650000X0.412500X-0.650000X-0.412500X0.650000X-0.412500X0.650000X0.412500X0*%
G04 APERTURE END LIST*
D10*
X16000000Y-16000000D02*
X20000000Y-16000000D01*
X20000000Y-88000000D01*
X16000000Y-88000000D01*
X16000000Y-16000000D01*
G36*
X16000000Y-16000000D02*
G01*
X20000000Y-16000000D01*
X20000000Y-88000000D01*
X16000000Y-88000000D01*
X16000000Y-16000000D01*
G37*
X65300000Y-16000000D02*
X69300000Y-16000000D01*
X69300000Y-88000000D01*
X65300000Y-88000000D01*
X65300000Y-16000000D01*
G36*
X65300000Y-16000000D02*
G01*
X69300000Y-16000000D01*
X69300000Y-88000000D01*
X65300000Y-88000000D01*
X65300000Y-16000000D01*
G37*
D11*
%TO.C,C63*%
X64200000Y-61125000D03*
X64200000Y-59400000D03*
%TD*%
D12*
%TO.C,J2*%
X49000000Y-21000000D03*
D13*
X49000000Y-19000000D03*
X51000000Y-21000000D03*
X51000000Y-19000000D03*
X53000000Y-21000000D03*
X53000000Y-19000000D03*
X55000000Y-21000000D03*
X55000000Y-19000000D03*
X57000000Y-21000000D03*
X57000000Y-19000000D03*
%TD*%
D14*
%TO.C,SW1*%
X23460000Y-71840000D03*
X23460000Y-82000000D03*
X26000000Y-82000000D03*
X23460000Y-74380000D03*
X23460000Y-76920000D03*
%TD*%
D15*
%TO.C,U6*%
X34055000Y-84582500D03*
X32150000Y-84582500D03*
X30245000Y-84582500D03*
%TD*%
%TO.C,U5*%
X48250000Y-84500000D03*
X45710000Y-84500000D03*
%TD*%
D16*
%TO.C,C3*%
X32500000Y-71000000D03*
D17*
X37500000Y-71000000D03*
%TD*%
D16*
%TO.C,C43*%
X32666750Y-32500000D03*
D17*
X37666750Y-32500000D03*
%TD*%
D18*
%TO.C,J1*%
X62230000Y-66730000D03*
X63500000Y-66730000D03*
X62230000Y-68000000D03*
X63500000Y-68000000D03*
X62230000Y-69270000D03*
X63500000Y-69270000D03*
X62230000Y-70540000D03*
X63500000Y-70540000D03*
X62230000Y-71810000D03*
X63500000Y-71810000D03*
%TD*%
D16*
%TO.C,C21*%
X35000000Y-24000000D03*
D17*
X35000000Y-19000000D03*
%TD*%
D19*
%TO.C,D16*%
X63204000Y-80980000D03*
D20*
X60664000Y-80980000D03*
X63204000Y-78440000D03*
X60664000Y-78440000D03*
X63204000Y-75900000D03*
X60664000Y-75900000D03*
%TD*%
D15*
%TO.C,U4*%
X41555000Y-84500000D03*
X39650000Y-84500000D03*
X37745000Y-84500000D03*
%TD*%
D16*
%TO.C,C45*%
X28000000Y-27250000D03*
D17*
X23000000Y-27250000D03*
%TD*%
D21*
%TO.C,J6*%
X25000000Y-17750000D03*
X25000000Y-20290000D03*
%TD*%
%TO.C,J4*%
X49500000Y-28040000D03*
X49500000Y-25500000D03*
%TD*%
%TO.C,J5*%
X56500000Y-28040000D03*
X56500000Y-25500000D03*
%TD*%
D22*
%TO.C,C42*%
X24937500Y-48500000D03*
X28062500Y-48500000D03*
%TD*%
D23*
%TO.C,IC1*%
X59500000Y-46050000D03*
X59500000Y-46700000D03*
X59500000Y-47350000D03*
X59500000Y-48000000D03*
X57000000Y-48000000D03*
X57000000Y-47350000D03*
X57000000Y-46700000D03*
X57000000Y-46050000D03*
%TD*%
D24*
%TO.C,R9*%
X46750000Y-69000000D03*
X46750000Y-71000000D03*
%TD*%
D25*
%TO.C,C28*%
X60312500Y-42000000D03*
X57187500Y-42000000D03*
%TD*%
D26*
%TO.C,C39*%
X24000000Y-38737500D03*
X24000000Y-36662500D03*
%TD*%
D22*
%TO.C,C24*%
X49187500Y-50000000D03*
X52312500Y-50000000D03*
%TD*%
D27*
%TO.C,C37*%
X22000000Y-33137500D03*
X22000000Y-34862500D03*
%TD*%
D28*
%TO.C,IC4*%
X51788000Y-85195000D03*
X51788000Y-83925000D03*
X51788000Y-82655000D03*
X51788000Y-81385000D03*
X51788000Y-80115000D03*
X51788000Y-78845000D03*
X51788000Y-77575000D03*
X51788000Y-76305000D03*
X57212000Y-76305000D03*
X57212000Y-77575000D03*
X57212000Y-78845000D03*
X57212000Y-80115000D03*
X57212000Y-81385000D03*
X57212000Y-82655000D03*
X57212000Y-83925000D03*
X57212000Y-85195000D03*
%TD*%
D29*
%TO.C,U7*%
X25500000Y-46000000D03*
X24230000Y-46000000D03*
X22960000Y-46000000D03*
X21690000Y-46000000D03*
X21690000Y-41050000D03*
X22960000Y-41050000D03*
X24230000Y-41050000D03*
X25500000Y-41050000D03*
D30*
X23595000Y-43525000D03*
%TD*%
D31*
%TO.C,C47*%
X52750000Y-35937500D03*
X52750000Y-39062500D03*
%TD*%
D25*
%TO.C,C27*%
X57312500Y-50000000D03*
X54187500Y-50000000D03*
%TD*%
D32*
%TO.C,C7*%
X44862500Y-71000000D03*
X43137500Y-71000000D03*
%TD*%
D33*
%TO.C,L4*%
X49500000Y-58250000D03*
X60020000Y-58250000D03*
%TD*%
D34*
%TO.C,U10*%
X28400000Y-64950000D03*
X28400000Y-67250000D03*
D35*
X22100000Y-67250000D03*
D34*
X28400000Y-69550000D03*
%TD*%
D36*
%TO.C,R26*%
X53500000Y-72837500D03*
X53500000Y-74662500D03*
%TD*%
D37*
%TO.C,U2*%
X47845000Y-47905000D03*
X47845000Y-46635000D03*
X47845000Y-45365000D03*
X47845000Y-44095000D03*
X52795000Y-44095000D03*
X52795000Y-45365000D03*
X52795000Y-46635000D03*
X52795000Y-47905000D03*
D38*
X50320000Y-46000000D03*
%TD*%
D24*
%TO.C,R12*%
X55250000Y-41750000D03*
X55250000Y-43750000D03*
%TD*%
D32*
%TO.C,C10*%
X58862500Y-71750000D03*
X57137500Y-71750000D03*
%TD*%
D24*
%TO.C,R16*%
X21500000Y-36500000D03*
X21500000Y-38500000D03*
%TD*%
D39*
%TO.C,C30*%
X55000000Y-45712500D03*
X55000000Y-47787500D03*
%TD*%
D26*
%TO.C,C62*%
X26250000Y-38825000D03*
X26250000Y-36750000D03*
%TD*%
D40*
%TO.C,C2*%
X34750000Y-54562500D03*
X34750000Y-51437500D03*
%TD*%
D41*
%TO.C,D15*%
X28000000Y-46200000D03*
X28000000Y-41800000D03*
%TD*%
D42*
%TO.C,D14*%
X45250000Y-50050000D03*
X45250000Y-54450000D03*
%TD*%
D36*
%TO.C,R27*%
X51750000Y-72837500D03*
X51750000Y-74662500D03*
%TD*%
D43*
%TO.C,C6*%
X41750000Y-53812500D03*
X41750000Y-50687500D03*
%TD*%
D40*
%TO.C,C46*%
X38750000Y-54562500D03*
X38750000Y-51437500D03*
%TD*%
D44*
%TO.C,D1*%
X32250000Y-68860740D03*
X32250000Y-64639260D03*
%TD*%
D45*
%TO.C,D10*%
X44675000Y-73000000D03*
X47825000Y-73000000D03*
%TD*%
D36*
%TO.C,R25*%
X50000000Y-72837500D03*
X50000000Y-74662500D03*
%TD*%
D32*
%TO.C,C13*%
X50362500Y-71250000D03*
X48637500Y-71250000D03*
%TD*%
D43*
%TO.C,C32*%
X35000000Y-67562500D03*
X35000000Y-64437500D03*
%TD*%
D46*
%TO.C,R18*%
X28250000Y-38750000D03*
X28250000Y-36750000D03*
%TD*%
D40*
%TO.C,C48*%
X56250000Y-39062500D03*
X56250000Y-35937500D03*
%TD*%
D31*
%TO.C,C20*%
X34500000Y-57937500D03*
X34500000Y-61062500D03*
%TD*%
D40*
%TO.C,C49*%
X59750000Y-39062500D03*
X59750000Y-35937500D03*
%TD*%
D47*
%TO.C,C31*%
X51525000Y-42250000D03*
X53250000Y-42250000D03*
%TD*%
%TO.C,C38*%
X48637500Y-68500000D03*
X50362500Y-68500000D03*
%TD*%
D43*
%TO.C,C40*%
X30000000Y-32562500D03*
X30000000Y-29437500D03*
%TD*%
D24*
%TO.C,R17*%
X24000000Y-30000000D03*
X24000000Y-32000000D03*
%TD*%
D44*
%TO.C,D13*%
X42000000Y-56139260D03*
X42000000Y-60360740D03*
%TD*%
D31*
%TO.C,C5*%
X38750000Y-57937500D03*
X38750000Y-61062500D03*
%TD*%
D48*
%TO.C,R15*%
X23000000Y-48500000D03*
X21000000Y-48500000D03*
%TD*%
D25*
%TO.C,C41*%
X27062500Y-34500000D03*
X23937500Y-34500000D03*
%TD*%
D49*
%TO.C,IC5*%
X44540000Y-31650000D03*
X39460000Y-31650000D03*
D50*
X42000000Y-21150000D03*
%TD*%
D25*
%TO.C,C51*%
X27062500Y-24750000D03*
X23937500Y-24750000D03*
%TD*%
D51*
%TO.C,L5*%
X36500000Y-46750000D03*
X36500000Y-36230000D03*
%TD*%
D48*
%TO.C,R2*%
X64150000Y-42000000D03*
X62150000Y-42000000D03*
%TD*%
D46*
%TO.C,R7*%
X42750000Y-75250000D03*
X42750000Y-73250000D03*
%TD*%
D52*
%TO.C,IC2*%
X26025000Y-29750000D03*
X26675000Y-29750000D03*
X27325000Y-29750000D03*
X27975000Y-29750000D03*
X27975000Y-32250000D03*
X27325000Y-32250000D03*
X26675000Y-32250000D03*
X26025000Y-32250000D03*
%TD*%
D48*
%TO.C,R11*%
X49250000Y-42250000D03*
X47250000Y-42250000D03*
%TD*%
%TO.C,R1*%
X59500000Y-44250000D03*
X57500000Y-44250000D03*
%TD*%
D45*
%TO.C,D9*%
X47825000Y-75000000D03*
X44675000Y-75000000D03*
%TD*%
D22*
%TO.C,C8*%
X55687500Y-73750000D03*
X58812500Y-73750000D03*
%TD*%
D31*
%TO.C,C29*%
X63250000Y-35937500D03*
X63250000Y-39062500D03*
%TD*%
D43*
%TO.C,C33*%
X37500000Y-67562500D03*
X37500000Y-64437500D03*
%TD*%
D25*
%TO.C,C52*%
X51812500Y-33000000D03*
X48687500Y-33000000D03*
%TD*%
D53*
%TO.C,R34*%
X52000000Y-68500000D03*
X54000000Y-68500000D03*
%TD*%
%TO.C,R33*%
X52000000Y-71000000D03*
X54000000Y-71000000D03*
%TD*%
D54*
%TO.C,IC3*%
X22840000Y-51595000D03*
X24560000Y-51595000D03*
X26280000Y-51595000D03*
X28000000Y-51595000D03*
X29720000Y-51595000D03*
D55*
X26280000Y-57720000D03*
%TD*%
D56*
%TO.C,C22*%
X61750000Y-44687500D03*
X61750000Y-47812500D03*
%TD*%
%TO.C,C23*%
X44750000Y-44937500D03*
X44750000Y-48062500D03*
%TD*%
M02*
