%TF.GenerationSoftware,KiCad,Pcbnew,8.0.1*%
%TF.CreationDate,2024-07-11T23:08:46-04:00*%
%TF.ProjectId,booster-tc-driver,626f6f73-7465-4722-9d74-632d64726976,rev?*%
%TF.SameCoordinates,Original*%
%TF.FileFunction,Copper,L1,Top*%
%TF.FilePolarity,Positive*%
%FSLAX46Y46*%
G04 Gerber Fmt 4.6, Leading zero omitted, Abs format (unit mm)*
G04 Created by KiCad (PCBNEW 8.0.1) date 2024-07-11 23:08:46*
%MOMM*%
%LPD*%
G01*
G04 APERTURE LIST*
G04 Aperture macros list*
%AMRoundRect*
0 Rectangle with rounded corners*
0 $1 Rounding radius*
0 $2 $3 $4 $5 $6 $7 $8 $9 X,Y pos of 4 corners*
0 Add a 4 corners polygon primitive as box body*
4,1,4,$2,$3,$4,$5,$6,$7,$8,$9,$2,$3,0*
0 Add four circle primitives for the rounded corners*
1,1,$1+$1,$2,$3*
1,1,$1+$1,$4,$5*
1,1,$1+$1,$6,$7*
1,1,$1+$1,$8,$9*
0 Add four rect primitives between the rounded corners*
20,1,$1+$1,$2,$3,$4,$5,0*
20,1,$1+$1,$4,$5,$6,$7,0*
20,1,$1+$1,$6,$7,$8,$9,0*
20,1,$1+$1,$8,$9,$2,$3,0*%
G04 Aperture macros list end*
%TA.AperFunction,SMDPad,CuDef*%
%ADD10R,0.650000X1.525000*%
%TD*%
%TA.AperFunction,SMDPad,CuDef*%
%ADD11RoundRect,0.250000X-0.650000X0.412500X-0.650000X-0.412500X0.650000X-0.412500X0.650000X0.412500X0*%
%TD*%
%TA.AperFunction,SMDPad,CuDef*%
%ADD12RoundRect,0.250000X1.100000X-0.412500X1.100000X0.412500X-1.100000X0.412500X-1.100000X-0.412500X0*%
%TD*%
%TA.AperFunction,SMDPad,CuDef*%
%ADD13RoundRect,0.250000X-0.450000X0.350000X-0.450000X-0.350000X0.450000X-0.350000X0.450000X0.350000X0*%
%TD*%
%TA.AperFunction,SMDPad,CuDef*%
%ADD14R,0.950000X0.900000*%
%TD*%
%TA.AperFunction,SMDPad,CuDef*%
%ADD15RoundRect,0.237500X0.237500X-0.300000X0.237500X0.300000X-0.237500X0.300000X-0.237500X-0.300000X0*%
%TD*%
%TA.AperFunction,SMDPad,CuDef*%
%ADD16RoundRect,0.250000X-0.412500X-0.650000X0.412500X-0.650000X0.412500X0.650000X-0.412500X0.650000X0*%
%TD*%
%TA.AperFunction,SMDPad,CuDef*%
%ADD17RoundRect,0.237500X-0.237500X0.300000X-0.237500X-0.300000X0.237500X-0.300000X0.237500X0.300000X0*%
%TD*%
%TA.AperFunction,SMDPad,CuDef*%
%ADD18RoundRect,0.237500X0.250000X0.237500X-0.250000X0.237500X-0.250000X-0.237500X0.250000X-0.237500X0*%
%TD*%
%TA.AperFunction,SMDPad,CuDef*%
%ADD19RoundRect,0.250000X0.350000X0.450000X-0.350000X0.450000X-0.350000X-0.450000X0.350000X-0.450000X0*%
%TD*%
%TA.AperFunction,SMDPad,CuDef*%
%ADD20RoundRect,0.250000X-0.350000X-0.450000X0.350000X-0.450000X0.350000X0.450000X-0.350000X0.450000X0*%
%TD*%
%TA.AperFunction,SMDPad,CuDef*%
%ADD21RoundRect,0.237500X0.300000X0.237500X-0.300000X0.237500X-0.300000X-0.237500X0.300000X-0.237500X0*%
%TD*%
%TA.AperFunction,SMDPad,CuDef*%
%ADD22R,0.900000X0.950000*%
%TD*%
%TA.AperFunction,ComponentPad*%
%ADD23R,1.240000X1.240000*%
%TD*%
%TA.AperFunction,ComponentPad*%
%ADD24C,1.240000*%
%TD*%
%TA.AperFunction,SMDPad,CuDef*%
%ADD25RoundRect,0.150000X0.150000X-0.875000X0.150000X0.875000X-0.150000X0.875000X-0.150000X-0.875000X0*%
%TD*%
%TA.AperFunction,SMDPad,CuDef*%
%ADD26R,1.780000X5.970000*%
%TD*%
%TA.AperFunction,ComponentPad*%
%ADD27C,1.524000*%
%TD*%
%TA.AperFunction,SMDPad,CuDef*%
%ADD28RoundRect,0.250000X0.412500X0.650000X-0.412500X0.650000X-0.412500X-0.650000X0.412500X-0.650000X0*%
%TD*%
%TA.AperFunction,ComponentPad*%
%ADD29C,1.400000*%
%TD*%
%TA.AperFunction,ComponentPad*%
%ADD30R,1.397000X1.397000*%
%TD*%
%TA.AperFunction,ComponentPad*%
%ADD31C,1.397000*%
%TD*%
%TA.AperFunction,SMDPad,CuDef*%
%ADD32RoundRect,0.250000X0.412500X1.100000X-0.412500X1.100000X-0.412500X-1.100000X0.412500X-1.100000X0*%
%TD*%
%TA.AperFunction,SMDPad,CuDef*%
%ADD33RoundRect,0.250000X0.625000X-0.400000X0.625000X0.400000X-0.625000X0.400000X-0.625000X-0.400000X0*%
%TD*%
%TA.AperFunction,SMDPad,CuDef*%
%ADD34RoundRect,0.250000X-0.400000X-1.075000X0.400000X-1.075000X0.400000X1.075000X-0.400000X1.075000X0*%
%TD*%
%TA.AperFunction,SMDPad,CuDef*%
%ADD35RoundRect,0.250000X-0.412500X-1.100000X0.412500X-1.100000X0.412500X1.100000X-0.412500X1.100000X0*%
%TD*%
%TA.AperFunction,SMDPad,CuDef*%
%ADD36RoundRect,0.250000X-0.412500X-2.350000X0.412500X-2.350000X0.412500X2.350000X-0.412500X2.350000X0*%
%TD*%
%TA.AperFunction,ComponentPad*%
%ADD37C,1.168400*%
%TD*%
%TA.AperFunction,SMDPad,CuDef*%
%ADD38RoundRect,0.150000X-0.150000X0.587500X-0.150000X-0.587500X0.150000X-0.587500X0.150000X0.587500X0*%
%TD*%
%TA.AperFunction,SMDPad,CuDef*%
%ADD39RoundRect,0.075000X-0.662500X-0.075000X0.662500X-0.075000X0.662500X0.075000X-0.662500X0.075000X0*%
%TD*%
%TA.AperFunction,SMDPad,CuDef*%
%ADD40RoundRect,0.075000X-0.075000X-0.662500X0.075000X-0.662500X0.075000X0.662500X-0.075000X0.662500X0*%
%TD*%
%TA.AperFunction,SMDPad,CuDef*%
%ADD41R,1.900000X0.400000*%
%TD*%
%TA.AperFunction,SMDPad,CuDef*%
%ADD42RoundRect,0.200000X0.400000X-0.200000X0.400000X0.200000X-0.400000X0.200000X-0.400000X-0.200000X0*%
%TD*%
%TA.AperFunction,SMDPad,CuDef*%
%ADD43RoundRect,0.237500X-0.300000X-0.237500X0.300000X-0.237500X0.300000X0.237500X-0.300000X0.237500X0*%
%TD*%
%TA.AperFunction,SMDPad,CuDef*%
%ADD44RoundRect,0.250000X0.400000X1.075000X-0.400000X1.075000X-0.400000X-1.075000X0.400000X-1.075000X0*%
%TD*%
%TA.AperFunction,ComponentPad*%
%ADD45R,1.620000X1.620000*%
%TD*%
%TA.AperFunction,ComponentPad*%
%ADD46C,1.620000*%
%TD*%
%TA.AperFunction,SMDPad,CuDef*%
%ADD47RoundRect,0.250000X-0.337500X-0.475000X0.337500X-0.475000X0.337500X0.475000X-0.337500X0.475000X0*%
%TD*%
%TA.AperFunction,SMDPad,CuDef*%
%ADD48R,1.600200X2.997200*%
%TD*%
%TA.AperFunction,SMDPad,CuDef*%
%ADD49R,0.990600X5.511800*%
%TD*%
%TA.AperFunction,SMDPad,CuDef*%
%ADD50R,0.550000X1.600000*%
%TD*%
%TA.AperFunction,SMDPad,CuDef*%
%ADD51RoundRect,0.200000X-0.200000X-0.400000X0.200000X-0.400000X0.200000X0.400000X-0.200000X0.400000X0*%
%TD*%
%TA.AperFunction,SMDPad,CuDef*%
%ADD52RoundRect,0.200000X-0.400000X0.200000X-0.400000X-0.200000X0.400000X-0.200000X0.400000X0.200000X0*%
%TD*%
%TA.AperFunction,SMDPad,CuDef*%
%ADD53RoundRect,0.250000X-1.100000X0.412500X-1.100000X-0.412500X1.100000X-0.412500X1.100000X0.412500X0*%
%TD*%
%TA.AperFunction,ComponentPad*%
%ADD54C,2.020000*%
%TD*%
%TA.AperFunction,SMDPad,CuDef*%
%ADD55RoundRect,0.250000X0.450000X-0.350000X0.450000X0.350000X-0.450000X0.350000X-0.450000X-0.350000X0*%
%TD*%
%TA.AperFunction,ViaPad*%
%ADD56C,0.600000*%
%TD*%
%TA.AperFunction,Conductor*%
%ADD57C,0.500000*%
%TD*%
%TA.AperFunction,Conductor*%
%ADD58C,0.200000*%
%TD*%
%TA.AperFunction,Conductor*%
%ADD59C,1.000000*%
%TD*%
%TA.AperFunction,Conductor*%
%ADD60C,0.600000*%
%TD*%
G04 APERTURE END LIST*
D10*
%TO.P,IC9,1,S1*%
%TO.N,GND*%
X54095000Y-35962000D03*
%TO.P,IC9,2,G1*%
%TO.N,Net-(IC9-G1)*%
X55365000Y-35962000D03*
%TO.P,IC9,3,S2*%
%TO.N,VDRIVE*%
X56635000Y-35962000D03*
%TO.P,IC9,4,G2*%
%TO.N,Net-(D18-A)*%
X57905000Y-35962000D03*
%TO.P,IC9,5,D2_1*%
%TO.N,/Gate Drive Out/GDT2_B*%
X57905000Y-30538000D03*
%TO.P,IC9,6,D2_2*%
X56635000Y-30538000D03*
%TO.P,IC9,7,D1_1*%
X55365000Y-30538000D03*
%TO.P,IC9,8,D1_2*%
X54095000Y-30538000D03*
%TD*%
%TO.P,IC8,1,S1*%
%TO.N,GND*%
X60595000Y-39712000D03*
%TO.P,IC8,2,G1*%
%TO.N,Net-(IC8-G1)*%
X61865000Y-39712000D03*
%TO.P,IC8,3,S2*%
%TO.N,VDRIVE*%
X63135000Y-39712000D03*
%TO.P,IC8,4,G2*%
%TO.N,Net-(D17-A)*%
X64405000Y-39712000D03*
%TO.P,IC8,5,D2_1*%
%TO.N,Net-(IC8-D1_1)*%
X64405000Y-34288000D03*
%TO.P,IC8,6,D2_2*%
X63135000Y-34288000D03*
%TO.P,IC8,7,D1_1*%
X61865000Y-34288000D03*
%TO.P,IC8,8,D1_2*%
X60595000Y-34288000D03*
%TD*%
%TO.P,IC7,1,S1*%
%TO.N,GND*%
X48480000Y-35962000D03*
%TO.P,IC7,2,G1*%
%TO.N,Net-(IC7-G1)*%
X49750000Y-35962000D03*
%TO.P,IC7,3,S2*%
%TO.N,VDRIVE*%
X51020000Y-35962000D03*
%TO.P,IC7,4,G2*%
%TO.N,Net-(D12-A)*%
X52290000Y-35962000D03*
%TO.P,IC7,5,D2_1*%
%TO.N,/Gate Drive Out/GDT1_B*%
X52290000Y-30538000D03*
%TO.P,IC7,6,D2_2*%
X51020000Y-30538000D03*
%TO.P,IC7,7,D1_1*%
X49750000Y-30538000D03*
%TO.P,IC7,8,D1_2*%
X48480000Y-30538000D03*
%TD*%
%TO.P,IC6,1,S1*%
%TO.N,GND*%
X41345000Y-39962000D03*
%TO.P,IC6,2,G1*%
%TO.N,Net-(IC6-G1)*%
X42615000Y-39962000D03*
%TO.P,IC6,3,S2*%
%TO.N,VDRIVE*%
X43885000Y-39962000D03*
%TO.P,IC6,4,G2*%
%TO.N,Net-(D11-A)*%
X45155000Y-39962000D03*
%TO.P,IC6,5,D2_1*%
%TO.N,Net-(IC6-D1_1)*%
X45155000Y-34538000D03*
%TO.P,IC6,6,D2_2*%
X43885000Y-34538000D03*
%TO.P,IC6,7,D1_1*%
X42615000Y-34538000D03*
%TO.P,IC6,8,D1_2*%
X41345000Y-34538000D03*
%TD*%
D11*
%TO.P,C18,1*%
%TO.N,GND*%
X47250000Y-55187500D03*
%TO.P,C18,2*%
%TO.N,+12V*%
X47250000Y-58312500D03*
%TD*%
D12*
%TO.P,C15,1*%
%TO.N,+5V*%
X56000000Y-86312500D03*
%TO.P,C15,2*%
%TO.N,GND*%
X56000000Y-83187500D03*
%TD*%
D13*
%TO.P,R6,1*%
%TO.N,+5V*%
X29000000Y-73750000D03*
%TO.P,R6,2*%
%TO.N,/INT*%
X29000000Y-75750000D03*
%TD*%
D14*
%TO.P,D7,A*%
%TO.N,/VBUS_SENSE*%
X23500000Y-51425000D03*
%TO.P,D7,K*%
%TO.N,VDD*%
X23500000Y-54575000D03*
%TD*%
D15*
%TO.P,C56,1*%
%TO.N,GND*%
X60500000Y-58362500D03*
%TO.P,C56,2*%
%TO.N,GDT2_DIS*%
X60500000Y-56637500D03*
%TD*%
D12*
%TO.P,C16,1*%
%TO.N,+5V*%
X26250000Y-76812500D03*
%TO.P,C16,2*%
%TO.N,GND*%
X26250000Y-73687500D03*
%TD*%
D16*
%TO.P,C60,1*%
%TO.N,Net-(IC9-G1)*%
X54937500Y-38250000D03*
%TO.P,C60,2*%
%TO.N,Net-(D18-A)*%
X58062500Y-38250000D03*
%TD*%
D17*
%TO.P,C12,1*%
%TO.N,VDD*%
X61400000Y-62137500D03*
%TO.P,C12,2*%
%TO.N,GND*%
X61400000Y-63862500D03*
%TD*%
D18*
%TO.P,R29,1*%
%TO.N,GND*%
X64162500Y-58500000D03*
%TO.P,R29,2*%
%TO.N,Net-(U9-DT)*%
X62337500Y-58500000D03*
%TD*%
D19*
%TO.P,R4,1*%
%TO.N,/USART_TX*%
X53500000Y-77625000D03*
%TO.P,R4,2*%
%TO.N,GND*%
X51500000Y-77625000D03*
%TD*%
D20*
%TO.P,R31,1*%
%TO.N,VDRIVE*%
X53000000Y-41250000D03*
%TO.P,R31,2*%
%TO.N,Net-(D18-A)*%
X55000000Y-41250000D03*
%TD*%
D21*
%TO.P,C50,1*%
%TO.N,VDDA*%
X57112500Y-71750000D03*
%TO.P,C50,2*%
%TO.N,GND*%
X55387500Y-71750000D03*
%TD*%
D22*
%TO.P,D8,A*%
%TO.N,/I_L*%
X37925000Y-45750000D03*
%TO.P,D8,K*%
%TO.N,VDD*%
X41075000Y-45750000D03*
%TD*%
D23*
%TO.P,J2,01,01*%
%TO.N,/I_L_IN*%
X49000000Y-21000000D03*
D24*
%TO.P,J2,02,02*%
%TO.N,+24V*%
X49000000Y-19000000D03*
%TO.P,J2,03,03*%
%TO.N,GND*%
X51000000Y-21000000D03*
%TO.P,J2,04,04*%
%TO.N,/PFC*%
X51000000Y-19000000D03*
%TO.P,J2,05,05*%
%TO.N,GND*%
X53000000Y-21000000D03*
%TO.P,J2,06,06*%
%TO.N,/SCR*%
X53000000Y-19000000D03*
%TO.P,J2,07,07*%
%TO.N,GND*%
X55000000Y-21000000D03*
%TO.P,J2,08,08*%
%TO.N,/VBUS_IN*%
X55000000Y-19000000D03*
%TO.P,J2,09,09*%
%TO.N,+5V*%
X57000000Y-21000000D03*
%TO.P,J2,10,10*%
%TO.N,/VAC_IN*%
X57000000Y-19000000D03*
%TD*%
D25*
%TO.P,U8,1,INA*%
%TO.N,GDT1_INA*%
X43150000Y-52900000D03*
%TO.P,U8,2,INB*%
%TO.N,GDT1_INB*%
X44420000Y-52900000D03*
%TO.P,U8,3,VCCI*%
%TO.N,+12V*%
X45690000Y-52900000D03*
%TO.P,U8,4,GND*%
%TO.N,GND*%
X46960000Y-52900000D03*
%TO.P,U8,5,DIS*%
%TO.N,GDT1_DIS*%
X48230000Y-52900000D03*
%TO.P,U8,6,DT*%
%TO.N,Net-(U8-DT)*%
X49500000Y-52900000D03*
%TO.P,U8,7,NC*%
%TO.N,unconnected-(U8-NC-Pad7)*%
X50770000Y-52900000D03*
%TO.P,U8,8,VCCI*%
%TO.N,+12V*%
X52040000Y-52900000D03*
%TO.P,U8,9,VSSB*%
%TO.N,GND*%
X52040000Y-43600000D03*
%TO.P,U8,10,OUTB*%
%TO.N,Net-(IC7-G1)*%
X50770000Y-43600000D03*
%TO.P,U8,11,VDDB*%
%TO.N,+12V*%
X49500000Y-43600000D03*
%TO.P,U8,12,NC*%
%TO.N,unconnected-(U8-NC-Pad12)*%
X48230000Y-43600000D03*
%TO.P,U8,13,NC*%
%TO.N,unconnected-(U8-NC-Pad13)*%
X46960000Y-43600000D03*
%TO.P,U8,14,VSSA*%
%TO.N,GND*%
X45690000Y-43600000D03*
%TO.P,U8,15,OUTA*%
%TO.N,Net-(IC6-G1)*%
X44420000Y-43600000D03*
%TO.P,U8,16,VDDA*%
%TO.N,+12V*%
X43150000Y-43600000D03*
%TD*%
D26*
%TO.P,J10,1,1*%
%TO.N,+12V*%
X24500000Y-36750000D03*
%TO.P,J10,2,2*%
%TO.N,GND*%
X27040000Y-39790000D03*
%TD*%
D27*
%TO.P,SW1,1,A*%
%TO.N,GND*%
X23460000Y-71840000D03*
X23460000Y-82000000D03*
X26000000Y-82000000D03*
%TO.P,SW1,2,B*%
%TO.N,Net-(SW1-B)*%
X23460000Y-74380000D03*
%TO.P,SW1,3,C*%
%TO.N,VDD*%
X23460000Y-76920000D03*
%TD*%
D28*
%TO.P,C58,1*%
%TO.N,GND*%
X58562500Y-57000000D03*
%TO.P,C58,2*%
%TO.N,+12V*%
X55437500Y-57000000D03*
%TD*%
D29*
%TO.P,U6,1,GND*%
%TO.N,GND*%
X34055000Y-84582500D03*
%TO.P,U6,2,OUT*%
%TO.N,/INT*%
X32150000Y-84582500D03*
%TO.P,U6,3,VCC*%
%TO.N,+5V*%
X30245000Y-84582500D03*
%TD*%
%TO.P,U5,1,K*%
%TO.N,Net-(U5-K)*%
X48250000Y-84500000D03*
%TO.P,U5,2,A*%
%TO.N,+5V*%
X45710000Y-84500000D03*
%TD*%
D22*
%TO.P,D5,A*%
%TO.N,GND*%
X21175000Y-56500000D03*
%TO.P,D5,K*%
%TO.N,/CT-*%
X24325000Y-56500000D03*
%TD*%
D30*
%TO.P,C3,1*%
%TO.N,VDD*%
X32500000Y-71000000D03*
D31*
%TO.P,C3,2*%
%TO.N,GND*%
X37500000Y-71000000D03*
%TD*%
D30*
%TO.P,C43,1*%
%TO.N,VDRIVE*%
X32666750Y-32500000D03*
D31*
%TO.P,C43,2*%
%TO.N,GND*%
X37666750Y-32500000D03*
%TD*%
D22*
%TO.P,D6,A*%
%TO.N,GND*%
X21175000Y-58500000D03*
%TO.P,D6,K*%
%TO.N,/CT+*%
X24325000Y-58500000D03*
%TD*%
%TO.P,D3,A*%
%TO.N,/CT-*%
X26175000Y-56500000D03*
%TO.P,D3,K*%
%TO.N,Net-(C1-Pad1)*%
X29325000Y-56500000D03*
%TD*%
D26*
%TO.P,J3,1,1*%
%TO.N,/CT+*%
X25040000Y-66540000D03*
%TO.P,J3,2,2*%
%TO.N,/CT-*%
X22500000Y-63500000D03*
%TD*%
D32*
%TO.P,C53,1*%
%TO.N,Net-(IC8-D1_1)*%
X64062500Y-31500000D03*
%TO.P,C53,2*%
%TO.N,/Gate Drive Out/GDT2_A*%
X60937500Y-31500000D03*
%TD*%
D33*
%TO.P,R5,1*%
%TO.N,Net-(U5-K)*%
X51750000Y-86925000D03*
%TO.P,R5,2*%
%TO.N,Net-(Q1-D)*%
X51750000Y-83825000D03*
%TD*%
D13*
%TO.P,R21,1*%
%TO.N,Net-(SW1-B)*%
X21500000Y-71750000D03*
%TO.P,R21,2*%
%TO.N,/MODE_IN*%
X21500000Y-73750000D03*
%TD*%
D34*
%TO.P,R28,1*%
%TO.N,Net-(IC6-D1_1)*%
X41950000Y-28250000D03*
%TO.P,R28,2*%
%TO.N,Net-(C55-Pad1)*%
X45050000Y-28250000D03*
%TD*%
D21*
%TO.P,C25,1*%
%TO.N,/I_PRI*%
X34362500Y-64250000D03*
%TO.P,C25,2*%
%TO.N,GND*%
X32637500Y-64250000D03*
%TD*%
D13*
%TO.P,R23,1*%
%TO.N,VDRIVE*%
X39250000Y-38000000D03*
%TO.P,R23,2*%
%TO.N,Net-(D11-A)*%
X39250000Y-40000000D03*
%TD*%
D35*
%TO.P,C54,1*%
%TO.N,Net-(IC6-D1_1)*%
X41937500Y-31500000D03*
%TO.P,C54,2*%
%TO.N,/Gate Drive Out/GDT1_A*%
X45062500Y-31500000D03*
%TD*%
D22*
%TO.P,D4,A*%
%TO.N,/CT+*%
X26175000Y-58500000D03*
%TO.P,D4,K*%
%TO.N,Net-(C1-Pad1)*%
X29325000Y-58500000D03*
%TD*%
D17*
%TO.P,C14,1*%
%TO.N,GND*%
X49250000Y-55250000D03*
%TO.P,C14,2*%
%TO.N,GDT1_DIS*%
X49250000Y-56975000D03*
%TD*%
D36*
%TO.P,R14,1*%
%TO.N,Net-(C1-Pad1)*%
X28287500Y-62500000D03*
%TO.P,R14,2*%
%TO.N,GND*%
X30712500Y-62500000D03*
%TD*%
D37*
%TO.P,J1,1,1*%
%TO.N,VDD*%
X62230000Y-66730000D03*
%TO.P,J1,2,2*%
%TO.N,/TMS*%
X63500000Y-66730000D03*
%TO.P,J1,3,3*%
%TO.N,GND*%
X62230000Y-68000000D03*
%TO.P,J1,4,4*%
%TO.N,/TCK*%
X63500000Y-68000000D03*
%TO.P,J1,5,5*%
%TO.N,GND*%
X62230000Y-69270000D03*
%TO.P,J1,6,6*%
%TO.N,/TDO*%
X63500000Y-69270000D03*
%TO.P,J1,7,7*%
%TO.N,unconnected-(J1-Pad7)*%
X62230000Y-70540000D03*
%TO.P,J1,8,8*%
%TO.N,/TDI*%
X63500000Y-70540000D03*
%TO.P,J1,9,9*%
%TO.N,unconnected-(J1-Pad9)*%
X62230000Y-71810000D03*
%TO.P,J1,10,10*%
%TO.N,/RST*%
X63500000Y-71810000D03*
%TD*%
D38*
%TO.P,Q1,1,G*%
%TO.N,/USART_TX*%
X53450000Y-79750000D03*
%TO.P,Q1,2,S*%
%TO.N,GND*%
X51550000Y-79750000D03*
%TO.P,Q1,3,D*%
%TO.N,Net-(Q1-D)*%
X52500000Y-81625000D03*
%TD*%
D39*
%TO.P,U1,1,VBAT*%
%TO.N,VDD*%
X51337500Y-62500000D03*
%TO.P,U1,2,PC13*%
%TO.N,GDT1_INA*%
X51337500Y-63000000D03*
%TO.P,U1,3,PC14*%
%TO.N,/FAN_EN*%
X51337500Y-63500000D03*
%TO.P,U1,4,PC15*%
%TO.N,/CS_FAN*%
X51337500Y-64000000D03*
%TO.P,U1,5,PF0*%
%TO.N,Net-(U1-PF0)*%
X51337500Y-64500000D03*
%TO.P,U1,6,PF1*%
%TO.N,Net-(U1-PF1)*%
X51337500Y-65000000D03*
%TO.P,U1,7,PG10*%
%TO.N,/RST*%
X51337500Y-65500000D03*
%TO.P,U1,8,PA0*%
%TO.N,/I_PRI*%
X51337500Y-66000000D03*
%TO.P,U1,9,PA1*%
%TO.N,/CT+*%
X51337500Y-66500000D03*
%TO.P,U1,10,PA2*%
%TO.N,/THERM2*%
X51337500Y-67000000D03*
%TO.P,U1,11,PA3*%
%TO.N,/THERM1*%
X51337500Y-67500000D03*
%TO.P,U1,12,PA4*%
%TO.N,/CT-*%
X51337500Y-68000000D03*
D40*
%TO.P,U1,13,PA5*%
X52750000Y-69412500D03*
%TO.P,U1,14,PA6*%
%TO.N,/LED_VBUS*%
X53250000Y-69412500D03*
%TO.P,U1,15,PA7*%
%TO.N,/CT+*%
X53750000Y-69412500D03*
%TO.P,U1,16,PB0*%
%TO.N,/LED_TMP*%
X54250000Y-69412500D03*
%TO.P,U1,17,PB1*%
%TO.N,/LED_I_IN*%
X54750000Y-69412500D03*
%TO.P,U1,18,PB2*%
%TO.N,/INT*%
X55250000Y-69412500D03*
%TO.P,U1,19,VSSA*%
%TO.N,GND*%
X55750000Y-69412500D03*
%TO.P,U1,20,VREF+*%
%TO.N,/VREF*%
X56250000Y-69412500D03*
%TO.P,U1,21,VDDA*%
%TO.N,VDDA*%
X56750000Y-69412500D03*
%TO.P,U1,22,PB10*%
%TO.N,/USART_TX*%
X57250000Y-69412500D03*
%TO.P,U1,23,VSS*%
%TO.N,GND*%
X57750000Y-69412500D03*
%TO.P,U1,24,VDD*%
%TO.N,VDD*%
X58250000Y-69412500D03*
D39*
%TO.P,U1,25,PB11*%
%TO.N,/VAC_SENSE*%
X59662500Y-68000000D03*
%TO.P,U1,26,PB12*%
%TO.N,/MODE_IN*%
X59662500Y-67500000D03*
%TO.P,U1,27,PB13*%
%TO.N,/SPI_CLK*%
X59662500Y-67000000D03*
%TO.P,U1,28,PB14*%
%TO.N,/I_L*%
X59662500Y-66500000D03*
%TO.P,U1,29,PB15*%
%TO.N,/SPI_MOSI*%
X59662500Y-66000000D03*
%TO.P,U1,30,PA8*%
%TO.N,/VBUS_SENSE*%
X59662500Y-65500000D03*
%TO.P,U1,31,PA9*%
%TO.N,/PFC*%
X59662500Y-65000000D03*
%TO.P,U1,32,PA10*%
%TO.N,/DRIVE_EN*%
X59662500Y-64500000D03*
%TO.P,U1,33,PA11*%
%TO.N,/CS_DRIVE*%
X59662500Y-64000000D03*
%TO.P,U1,34,PA12*%
%TO.N,/SCR*%
X59662500Y-63500000D03*
%TO.P,U1,35,VSS*%
%TO.N,GND*%
X59662500Y-63000000D03*
%TO.P,U1,36,VDD*%
%TO.N,VDD*%
X59662500Y-62500000D03*
D40*
%TO.P,U1,37,PA13*%
%TO.N,/TMS*%
X58250000Y-61087500D03*
%TO.P,U1,38,PA14*%
%TO.N,/TCK*%
X57750000Y-61087500D03*
%TO.P,U1,39,PA15*%
%TO.N,/TDI*%
X57250000Y-61087500D03*
%TO.P,U1,40,PB3*%
%TO.N,/TDO*%
X56750000Y-61087500D03*
%TO.P,U1,41,PB4*%
%TO.N,GDT2_INB*%
X56250000Y-61087500D03*
%TO.P,U1,42,PB5*%
%TO.N,GDT2_DIS*%
X55750000Y-61087500D03*
%TO.P,U1,43,PB6*%
%TO.N,GDT2_INA*%
X55250000Y-61087500D03*
%TO.P,U1,44,PB7*%
%TO.N,GDT1_DIS*%
X54750000Y-61087500D03*
%TO.P,U1,45,PB8*%
%TO.N,/USART_RX*%
X54250000Y-61087500D03*
%TO.P,U1,46,PB9*%
%TO.N,GDT1_INB*%
X53750000Y-61087500D03*
%TO.P,U1,47,VSS*%
%TO.N,GND*%
X53250000Y-61087500D03*
%TO.P,U1,48,VDD*%
%TO.N,VDD*%
X52750000Y-61087500D03*
%TD*%
D21*
%TO.P,C19,1*%
%TO.N,/VBUS_SENSE*%
X23112500Y-47500000D03*
%TO.P,C19,2*%
%TO.N,GND*%
X21387500Y-47500000D03*
%TD*%
D41*
%TO.P,U3,1,INPUT*%
%TO.N,Net-(U1-PF1)*%
X47825000Y-65950000D03*
%TO.P,U3,2,GND*%
%TO.N,GND*%
X47825000Y-64750000D03*
%TO.P,U3,3,OUTPUT*%
%TO.N,Net-(U1-PF0)*%
X47825000Y-63550000D03*
%TD*%
D26*
%TO.P,J7,1,1*%
%TO.N,/VFAN_OUT*%
X34290000Y-49040000D03*
%TO.P,J7,2,2*%
%TO.N,GND*%
X31750000Y-46000000D03*
%TD*%
D20*
%TO.P,R24,1*%
%TO.N,VDRIVE*%
X49250000Y-40000000D03*
%TO.P,R24,2*%
%TO.N,Net-(D12-A)*%
X51250000Y-40000000D03*
%TD*%
D42*
%TO.P,D18,1,K*%
%TO.N,VDRIVE*%
X53000000Y-39550000D03*
%TO.P,D18,2,A*%
%TO.N,Net-(D18-A)*%
X53000000Y-37950000D03*
%TD*%
D43*
%TO.P,C17,1*%
%TO.N,/I_L*%
X37887500Y-47750000D03*
%TO.P,C17,2*%
%TO.N,GND*%
X39612500Y-47750000D03*
%TD*%
D20*
%TO.P,R8,1*%
%TO.N,/VBUS_IN*%
X21000000Y-45750000D03*
%TO.P,R8,2*%
%TO.N,/VBUS_SENSE*%
X23000000Y-45750000D03*
%TD*%
D16*
%TO.P,C55,1*%
%TO.N,Net-(C55-Pad1)*%
X41937500Y-25500000D03*
%TO.P,C55,2*%
%TO.N,/Gate Drive Out/GDT1_A*%
X45062500Y-25500000D03*
%TD*%
D44*
%TO.P,R32,1*%
%TO.N,Net-(IC8-D1_1)*%
X64050000Y-28250000D03*
%TO.P,R32,2*%
%TO.N,Net-(C61-Pad1)*%
X60950000Y-28250000D03*
%TD*%
D28*
%TO.P,C26,1*%
%TO.N,Net-(IC6-G1)*%
X40812500Y-42250000D03*
%TO.P,C26,2*%
%TO.N,Net-(D11-A)*%
X37687500Y-42250000D03*
%TD*%
D30*
%TO.P,C21,1*%
%TO.N,+24V*%
X35000000Y-24000000D03*
D31*
%TO.P,C21,2*%
%TO.N,GND*%
X35000000Y-19000000D03*
%TD*%
D45*
%TO.P,D16,1*%
%TO.N,+5V*%
X63204000Y-80980000D03*
D46*
%TO.P,D16,2*%
%TO.N,Net-(IC4-LED1)*%
X60664000Y-80980000D03*
%TO.P,D16,3*%
%TO.N,+5V*%
X63204000Y-78440000D03*
%TO.P,D16,4*%
%TO.N,Net-(IC4-LED2)*%
X60664000Y-78440000D03*
%TO.P,D16,5*%
%TO.N,+5V*%
X63204000Y-75900000D03*
%TO.P,D16,6*%
%TO.N,Net-(IC4-LED3)*%
X60664000Y-75900000D03*
%TD*%
D47*
%TO.P,C4,1*%
%TO.N,Net-(U8-DT)*%
X51062500Y-57000000D03*
%TO.P,C4,2*%
%TO.N,GND*%
X53137500Y-57000000D03*
%TD*%
D29*
%TO.P,U4,1,GND*%
%TO.N,GND*%
X41555000Y-84500000D03*
%TO.P,U4,2,OUT*%
%TO.N,/USART_RX*%
X39650000Y-84500000D03*
%TO.P,U4,3,VCC*%
%TO.N,+5V*%
X37745000Y-84500000D03*
%TD*%
D48*
%TO.P,J8,1,1*%
%TO.N,GND*%
X33600001Y-60744801D03*
D49*
X41999999Y-58494800D03*
D48*
X44399999Y-60744801D03*
D49*
%TO.P,J8,2,2*%
%TO.N,/THERM1*%
X40000001Y-58494800D03*
%TO.P,J8,3,3*%
%TO.N,GND*%
X37999999Y-58494800D03*
%TO.P,J8,4,4*%
%TO.N,/THERM2*%
X36000001Y-58494800D03*
%TD*%
D28*
%TO.P,C61,1*%
%TO.N,Net-(C61-Pad1)*%
X64062500Y-25250000D03*
%TO.P,C61,2*%
%TO.N,/Gate Drive Out/GDT2_A*%
X60937500Y-25250000D03*
%TD*%
D30*
%TO.P,C45,1*%
%TO.N,+12V*%
X28000000Y-27250000D03*
D31*
%TO.P,C45,2*%
%TO.N,GND*%
X23000000Y-27250000D03*
%TD*%
D13*
%TO.P,R30,1*%
%TO.N,VDRIVE*%
X57000000Y-40250000D03*
%TO.P,R30,2*%
%TO.N,Net-(D17-A)*%
X57000000Y-42250000D03*
%TD*%
D18*
%TO.P,R22,1*%
%TO.N,GND*%
X52825000Y-55000000D03*
%TO.P,R22,2*%
%TO.N,Net-(U8-DT)*%
X51000000Y-55000000D03*
%TD*%
D21*
%TO.P,C1,1*%
%TO.N,Net-(C1-Pad1)*%
X27112500Y-54750000D03*
%TO.P,C1,2*%
%TO.N,GND*%
X25387500Y-54750000D03*
%TD*%
D50*
%TO.P,L2,1,1*%
%TO.N,VDD*%
X57975000Y-75500000D03*
%TO.P,L2,2,2*%
%TO.N,VDDA*%
X56525000Y-75500000D03*
%TD*%
D51*
%TO.P,D12,1,K*%
%TO.N,VDRIVE*%
X49200000Y-38000000D03*
%TO.P,D12,2,A*%
%TO.N,Net-(D12-A)*%
X50800000Y-38000000D03*
%TD*%
D52*
%TO.P,D17,1,K*%
%TO.N,VDRIVE*%
X58800000Y-40450000D03*
%TO.P,D17,2,A*%
%TO.N,Net-(D17-A)*%
X58800000Y-42050000D03*
%TD*%
D53*
%TO.P,C34,1*%
%TO.N,VDDA*%
X56500000Y-77687500D03*
%TO.P,C34,2*%
%TO.N,GND*%
X56500000Y-80812500D03*
%TD*%
D16*
%TO.P,C59,1*%
%TO.N,Net-(IC8-G1)*%
X60937500Y-42000000D03*
%TO.P,C59,2*%
%TO.N,Net-(D17-A)*%
X64062500Y-42000000D03*
%TD*%
D11*
%TO.P,C44,1*%
%TO.N,Net-(IC7-G1)*%
X47250000Y-37937500D03*
%TO.P,C44,2*%
%TO.N,Net-(D12-A)*%
X47250000Y-41062500D03*
%TD*%
D52*
%TO.P,D11,1,K*%
%TO.N,VDRIVE*%
X37250000Y-38700000D03*
%TO.P,D11,2,A*%
%TO.N,Net-(D11-A)*%
X37250000Y-40300000D03*
%TD*%
D47*
%TO.P,C57,1*%
%TO.N,Net-(U9-DT)*%
X62212500Y-56750000D03*
%TO.P,C57,2*%
%TO.N,GND*%
X64287500Y-56750000D03*
%TD*%
D13*
%TO.P,R13,1*%
%TO.N,Net-(C1-Pad1)*%
X28500000Y-66500000D03*
%TO.P,R13,2*%
%TO.N,/I_PRI*%
X28500000Y-68500000D03*
%TD*%
D11*
%TO.P,C36,1*%
%TO.N,GND*%
X28250000Y-45187500D03*
%TO.P,C36,2*%
%TO.N,+24V*%
X28250000Y-48312500D03*
%TD*%
D20*
%TO.P,R3,1*%
%TO.N,+5V*%
X40500000Y-75250000D03*
%TO.P,R3,2*%
%TO.N,/USART_RX*%
X42500000Y-75250000D03*
%TD*%
D17*
%TO.P,C11,1*%
%TO.N,VDD*%
X59500000Y-69887500D03*
%TO.P,C11,2*%
%TO.N,GND*%
X59500000Y-71612500D03*
%TD*%
D54*
%TO.P,J6,1*%
%TO.N,GND*%
X25000000Y-17750000D03*
%TO.P,J6,2*%
%TO.N,+24V*%
X25000000Y-20290000D03*
%TD*%
%TO.P,J4,1*%
%TO.N,/Gate Drive Out/GDT1_B*%
X49500000Y-28040000D03*
%TO.P,J4,2*%
%TO.N,/Gate Drive Out/GDT1_A*%
X49500000Y-25500000D03*
%TD*%
D25*
%TO.P,U9,1,INA*%
%TO.N,GDT2_INA*%
X54630000Y-54300000D03*
%TO.P,U9,2,INB*%
%TO.N,GDT2_INB*%
X55900000Y-54300000D03*
%TO.P,U9,3,VCCI*%
%TO.N,+12V*%
X57170000Y-54300000D03*
%TO.P,U9,4,GND*%
%TO.N,GND*%
X58440000Y-54300000D03*
%TO.P,U9,5,DIS*%
%TO.N,GDT2_DIS*%
X59710000Y-54300000D03*
%TO.P,U9,6,DT*%
%TO.N,Net-(U9-DT)*%
X60980000Y-54300000D03*
%TO.P,U9,7,NC*%
%TO.N,unconnected-(U9-NC-Pad7)*%
X62250000Y-54300000D03*
%TO.P,U9,8,VCCI*%
%TO.N,+12V*%
X63520000Y-54300000D03*
%TO.P,U9,9,VSSB*%
%TO.N,GND*%
X63520000Y-45000000D03*
%TO.P,U9,10,OUTB*%
%TO.N,Net-(IC9-G1)*%
X62250000Y-45000000D03*
%TO.P,U9,11,VDDB*%
%TO.N,+12V*%
X60980000Y-45000000D03*
%TO.P,U9,12,NC*%
%TO.N,unconnected-(U9-NC-Pad12)*%
X59710000Y-45000000D03*
%TO.P,U9,13,NC*%
%TO.N,unconnected-(U9-NC-Pad13)*%
X58440000Y-45000000D03*
%TO.P,U9,14,VSSA*%
%TO.N,GND*%
X57170000Y-45000000D03*
%TO.P,U9,15,OUTA*%
%TO.N,Net-(IC8-G1)*%
X55900000Y-45000000D03*
%TO.P,U9,16,VDDA*%
%TO.N,+12V*%
X54630000Y-45000000D03*
%TD*%
D14*
%TO.P,D2,A*%
%TO.N,GND*%
X21250000Y-54575000D03*
%TO.P,D2,K*%
%TO.N,/VBUS_SENSE*%
X21250000Y-51425000D03*
%TD*%
D28*
%TO.P,C35,1*%
%TO.N,VDDA*%
X54812500Y-75500000D03*
%TO.P,C35,2*%
%TO.N,GND*%
X51687500Y-75500000D03*
%TD*%
D15*
%TO.P,C9,1*%
%TO.N,VDD*%
X51500000Y-60612500D03*
%TO.P,C9,2*%
%TO.N,GND*%
X51500000Y-58887500D03*
%TD*%
D54*
%TO.P,J5,1*%
%TO.N,/Gate Drive Out/GDT2_B*%
X56500000Y-28040000D03*
%TO.P,J5,2*%
%TO.N,/Gate Drive Out/GDT2_A*%
X56500000Y-25500000D03*
%TD*%
D55*
%TO.P,R10,1*%
%TO.N,/I_L*%
X34000000Y-41000000D03*
%TO.P,R10,2*%
%TO.N,/I_L_IN*%
X34000000Y-39000000D03*
%TD*%
D56*
%TO.N,GND*%
X56000000Y-46750000D03*
X49362500Y-76137500D03*
X67500000Y-64500000D03*
X39250000Y-62750000D03*
X29000000Y-31500000D03*
X29000000Y-43000000D03*
X43000000Y-72000000D03*
X58491012Y-63094895D03*
X18000000Y-17000000D03*
X67500000Y-67000000D03*
X67500000Y-84500000D03*
X67500000Y-44500000D03*
X23000000Y-33500000D03*
X18000000Y-29500000D03*
X53250000Y-85250000D03*
X62750000Y-50000000D03*
X18000000Y-27000000D03*
X67500000Y-27000000D03*
X18000000Y-69500000D03*
X67500000Y-59500000D03*
X18000000Y-67000000D03*
X67500000Y-17000000D03*
X22500000Y-49500000D03*
X67500000Y-74500000D03*
X41500000Y-37500000D03*
X67500000Y-22000000D03*
X55500000Y-82000000D03*
X46250000Y-45000000D03*
X67500000Y-19500000D03*
X18000000Y-32000000D03*
X29750000Y-37000000D03*
X47750000Y-68000000D03*
X26000000Y-31000000D03*
X18000000Y-74500000D03*
X59250000Y-52250000D03*
X37000000Y-50750000D03*
X67500000Y-37000000D03*
X67500000Y-24500000D03*
X50250000Y-50000000D03*
X58529926Y-70613775D03*
X67500000Y-32000000D03*
X29000000Y-44000000D03*
X33250000Y-62750000D03*
X18000000Y-59500000D03*
X43250000Y-58750000D03*
X18000000Y-52000000D03*
X18000000Y-57000000D03*
X18000000Y-84500000D03*
X52750000Y-62250000D03*
X18000000Y-24500000D03*
X28000000Y-43000000D03*
X67500000Y-87000000D03*
X53250000Y-84000000D03*
X67500000Y-47000000D03*
X18000000Y-54500000D03*
X18000000Y-22000000D03*
X18000000Y-87000000D03*
X55531387Y-71038612D03*
X18000000Y-19500000D03*
X67500000Y-57000000D03*
X46250000Y-45750000D03*
X18000000Y-72000000D03*
X67500000Y-79500000D03*
X49500000Y-72000000D03*
X63250000Y-46750000D03*
X18000000Y-79500000D03*
X28000000Y-44000000D03*
X49149999Y-64650000D03*
X18000000Y-82000000D03*
X67500000Y-29500000D03*
X67500000Y-42000000D03*
X67500000Y-39500000D03*
X67500000Y-52000000D03*
X18000000Y-42000000D03*
X23000000Y-50000000D03*
X67500000Y-62000000D03*
X50000000Y-75750000D03*
X35250000Y-62750000D03*
X32000000Y-49750000D03*
X38250000Y-62750000D03*
X67500000Y-72000000D03*
X67500000Y-69500000D03*
X18000000Y-37000000D03*
X53250000Y-43250000D03*
X61250000Y-38000000D03*
X50000000Y-33250000D03*
X18000000Y-44500000D03*
X36250000Y-62750000D03*
X18000000Y-49500000D03*
X67500000Y-77000000D03*
X18000000Y-47000000D03*
X56250000Y-50000000D03*
X67500000Y-49500000D03*
X37000000Y-50000000D03*
X67500000Y-82000000D03*
X18000000Y-62000000D03*
X53905000Y-33471500D03*
X67500000Y-34500000D03*
X18000000Y-39500000D03*
X18000000Y-77000000D03*
X34250000Y-62750000D03*
X18000000Y-34500000D03*
X52487651Y-58762349D03*
X18000000Y-64500000D03*
X67500000Y-54500000D03*
%TO.N,+5V*%
X29500000Y-30500000D03*
X26750000Y-64750000D03*
X26750000Y-64000000D03*
X61750000Y-46500000D03*
X40250000Y-76500000D03*
X26780000Y-49970000D03*
%TO.N,VDD*%
X58750000Y-69500000D03*
X20750000Y-53500000D03*
X31500000Y-66250000D03*
X58750000Y-75705000D03*
X27750000Y-71000000D03*
X58750000Y-84000000D03*
X28500000Y-71000000D03*
X51500000Y-61750000D03*
X28500000Y-71750000D03*
X58511854Y-62295164D03*
X29250000Y-71750000D03*
X29250000Y-71000000D03*
X33000000Y-66250000D03*
X27750000Y-71750000D03*
X32250000Y-66250000D03*
X40250000Y-53500000D03*
X46750000Y-73000000D03*
%TO.N,+12V*%
X25500000Y-27500000D03*
%TO.N,+24V*%
X21750000Y-43000000D03*
X25250000Y-50250000D03*
X51000000Y-48750000D03*
X25750000Y-43250000D03*
X21750000Y-43750000D03*
X25750000Y-44000000D03*
X50500000Y-48000000D03*
X24500000Y-50250000D03*
X51500000Y-49250000D03*
%TO.N,Net-(D11-A)*%
X45250000Y-38250000D03*
X39250000Y-42250000D03*
%TO.N,/VFAN_OUT*%
X33750000Y-43500000D03*
%TO.N,/SPI_CLK*%
X28000000Y-28500000D03*
X63600000Y-63600000D03*
%TO.N,/SPI_MOSI*%
X63250150Y-64250150D03*
X28250000Y-34500000D03*
%TO.N,/CS_FAN*%
X52750000Y-63750000D03*
%TO.N,/CS_DRIVE*%
X28250000Y-33500000D03*
X62723847Y-61634703D03*
%TO.N,/PFC*%
X44750000Y-63750000D03*
X56250000Y-63750000D03*
%TO.N,/USART_RX*%
X42500000Y-76500000D03*
X52762331Y-65697170D03*
X45000000Y-67250000D03*
%TO.N,/FAN_EN*%
X52750000Y-63000000D03*
%TO.N,/LED_TMP*%
X46500000Y-76250000D03*
%TO.N,/LED_I_IN*%
X47250000Y-76250000D03*
%TO.N,/LED_VBUS*%
X45750000Y-76250000D03*
%TO.N,Net-(D17-A)*%
X61750000Y-37250000D03*
X64500000Y-37750000D03*
%TO.N,Net-(IC9-G1)*%
X61750000Y-43500000D03*
X56500000Y-37500000D03*
%TO.N,GDT2_DIS*%
X56500000Y-58750000D03*
X55500000Y-59500000D03*
%TO.N,/I_L*%
X41750000Y-64000000D03*
X58000000Y-66500000D03*
%TO.N,/VBUS_SENSE*%
X21250000Y-52500000D03*
X62940511Y-62300331D03*
%TO.N,/VAC_IN*%
X40750000Y-65250000D03*
%TO.N,/VAC_SENSE*%
X59750000Y-68750000D03*
%TO.N,/VREF*%
X56307988Y-70846531D03*
%TO.N,/RST*%
X55250000Y-67250000D03*
%TO.N,/TDI*%
X57250000Y-62250000D03*
%TO.N,/DRIVE_EN*%
X57500000Y-64500000D03*
%TO.N,/SCR*%
X44250000Y-64250000D03*
X56750000Y-64250000D03*
%TO.N,/THERM1*%
X40204699Y-64000000D03*
X53000000Y-67750000D03*
%TO.N,/THERM2*%
X39000000Y-64250000D03*
X53000000Y-67000000D03*
X51000000Y-70000000D03*
%TD*%
D57*
%TO.N,+5V*%
X26250000Y-79597551D02*
X26250000Y-76812500D01*
X30245000Y-83592551D02*
X26250000Y-79597551D01*
X30245000Y-84582500D02*
X30245000Y-83592551D01*
D58*
%TO.N,GND*%
X55531387Y-71038612D02*
X55707988Y-70862011D01*
X55707988Y-70862011D02*
X55707988Y-69454512D01*
X55707988Y-69454512D02*
X55750000Y-69412500D01*
D59*
X46050000Y-45550000D02*
X46250000Y-45550000D01*
D58*
X52825000Y-53425000D02*
X56250000Y-50000000D01*
X58500000Y-56750000D02*
X58500000Y-54360000D01*
X59500000Y-71000000D02*
X59225000Y-70725000D01*
X52825000Y-55000000D02*
X52825000Y-53425000D01*
D59*
X45690000Y-45190000D02*
X46050000Y-45550000D01*
D60*
X33000000Y-62500000D02*
X30712500Y-62500000D01*
D58*
X55531387Y-71606113D02*
X55387500Y-71750000D01*
X41500000Y-37500000D02*
X41345000Y-37655000D01*
X59500000Y-71612500D02*
X59500000Y-71000000D01*
X59662500Y-63000000D02*
X60537500Y-63000000D01*
D59*
X52040000Y-43600000D02*
X52900000Y-43600000D01*
X52900000Y-43600000D02*
X53250000Y-43250000D01*
D58*
X61412500Y-59275000D02*
X63637500Y-59275000D01*
X59250000Y-52250000D02*
X59250000Y-52465001D01*
D57*
X38250000Y-62750000D02*
X38250000Y-58744801D01*
D58*
X51500000Y-75687500D02*
X51687500Y-75500000D01*
D59*
X28000000Y-44000000D02*
X29000000Y-44000000D01*
D58*
X25387500Y-54750000D02*
X24850000Y-54750000D01*
D59*
X41345000Y-37655000D02*
X41345000Y-39962000D01*
D58*
X32637500Y-63362500D02*
X33250000Y-62750000D01*
X24850000Y-54750000D02*
X23100000Y-56500000D01*
X25347500Y-73687500D02*
X26250000Y-73687500D01*
X60537500Y-63000000D02*
X61400000Y-63862500D01*
D59*
X29000000Y-44000000D02*
X29000000Y-43000000D01*
D57*
X38250000Y-58744801D02*
X37999999Y-58494800D01*
D58*
X51500000Y-77625000D02*
X51500000Y-75687500D01*
X59662500Y-63000000D02*
X58585907Y-63000000D01*
D59*
X45690000Y-43600000D02*
X45690000Y-45190000D01*
D57*
X43250000Y-59594802D02*
X44399999Y-60744801D01*
D58*
X46960000Y-52900000D02*
X46960000Y-55397500D01*
X52825000Y-56750000D02*
X53075000Y-57000000D01*
X46960000Y-55397500D02*
X47062500Y-55500000D01*
D60*
X60595000Y-39712000D02*
X61250000Y-38000000D01*
D58*
X64287500Y-58375000D02*
X64412500Y-58500000D01*
X49250000Y-55250000D02*
X47312500Y-55250000D01*
D59*
X57170000Y-46330000D02*
X56750000Y-46750000D01*
D58*
X49049999Y-64750000D02*
X49149999Y-64650000D01*
D59*
X31750000Y-49500000D02*
X31750000Y-46000000D01*
X28000000Y-43000000D02*
X29000000Y-43000000D01*
X57170000Y-45000000D02*
X57170000Y-46330000D01*
D58*
X23500000Y-72312500D02*
X23500000Y-71840000D01*
X28250000Y-45187500D02*
X28250000Y-44250000D01*
X28250000Y-44250000D02*
X28000000Y-44000000D01*
D59*
X46128762Y-45000000D02*
X46189381Y-45060619D01*
D58*
X47825000Y-64750000D02*
X49049999Y-64750000D01*
X58440000Y-53275001D02*
X58440000Y-54300000D01*
X56500000Y-80812500D02*
X56500000Y-81000000D01*
D57*
X43250000Y-58750000D02*
X42255199Y-58750000D01*
D58*
X53250000Y-61087500D02*
X53250000Y-61750000D01*
D59*
X27040000Y-42040000D02*
X28000000Y-43000000D01*
D58*
X52362500Y-58887500D02*
X52487651Y-58762349D01*
X47312500Y-55250000D02*
X47250000Y-55187500D01*
X60500000Y-58362500D02*
X61412500Y-59275000D01*
D59*
X28000000Y-43000000D02*
X28000000Y-44000000D01*
X48480000Y-34770000D02*
X50000000Y-33250000D01*
D58*
X51550000Y-79750000D02*
X51550000Y-77675000D01*
D59*
X45880000Y-45000000D02*
X46128762Y-45000000D01*
D58*
X51437500Y-75750000D02*
X51687500Y-75500000D01*
X55531387Y-71038612D02*
X55531387Y-71606113D01*
D59*
X48480000Y-34770000D02*
X48480000Y-35962000D01*
D58*
X56500000Y-81000000D02*
X55500000Y-82000000D01*
D57*
X42255199Y-58750000D02*
X41999999Y-58494800D01*
D58*
X45690000Y-43600000D02*
X45690000Y-44440000D01*
X50250000Y-50000000D02*
X48835001Y-50000000D01*
D59*
X45690000Y-45190000D02*
X45880000Y-45000000D01*
D58*
X56000000Y-83187500D02*
X54062500Y-83187500D01*
X58500000Y-54360000D02*
X58440000Y-54300000D01*
X64287500Y-56750000D02*
X64287500Y-58375000D01*
X52825000Y-55000000D02*
X52825000Y-56750000D01*
X46960000Y-51875001D02*
X46960000Y-52900000D01*
D59*
X33600001Y-60744801D02*
X33600001Y-62399999D01*
D58*
X47062500Y-55500000D02*
X47525000Y-55500000D01*
X59250000Y-52465001D02*
X58440000Y-53275001D01*
X39250000Y-47750000D02*
X39612500Y-47750000D01*
D57*
X43250000Y-58750000D02*
X43250000Y-59594802D01*
D59*
X33600001Y-62399999D02*
X33250000Y-62750000D01*
X63250000Y-46750000D02*
X63250000Y-45270000D01*
D58*
X54095000Y-33661500D02*
X53905000Y-33471500D01*
X63250000Y-45270000D02*
X63520000Y-45000000D01*
X37000000Y-50000000D02*
X39250000Y-47750000D01*
X21387500Y-47500000D02*
X18500000Y-47500000D01*
X53250000Y-61750000D02*
X52750000Y-62250000D01*
X23500000Y-71840000D02*
X25347500Y-73687500D01*
X58641151Y-70725000D02*
X58529926Y-70613775D01*
X32637500Y-64250000D02*
X32637500Y-63362500D01*
D59*
X54095000Y-35962000D02*
X54095000Y-33661500D01*
D58*
X58181365Y-70613775D02*
X57750000Y-70182410D01*
X57750000Y-70182410D02*
X57750000Y-69412500D01*
D59*
X27040000Y-39790000D02*
X27040000Y-42040000D01*
D58*
X23100000Y-56500000D02*
X21175000Y-56500000D01*
X51500000Y-58887500D02*
X52362500Y-58887500D01*
X33250000Y-62750000D02*
X33000000Y-62500000D01*
X32000000Y-49750000D02*
X31750000Y-49500000D01*
X63637500Y-59275000D02*
X64412500Y-58500000D01*
X21175000Y-54650000D02*
X21250000Y-54575000D01*
X64287500Y-56750000D02*
X66250000Y-56750000D01*
X59225000Y-70725000D02*
X58641151Y-70725000D01*
X58529926Y-70613775D02*
X58181365Y-70613775D01*
D59*
X56750000Y-46750000D02*
X56000000Y-46750000D01*
D58*
X55500000Y-82687500D02*
X56000000Y-83187500D01*
X48835001Y-50000000D02*
X46960000Y-51875001D01*
X18075000Y-54575000D02*
X18000000Y-54500000D01*
X54062500Y-83187500D02*
X53250000Y-84000000D01*
X50000000Y-75750000D02*
X51437500Y-75750000D01*
%TO.N,+5V*%
X29000000Y-74062500D02*
X29000000Y-73750000D01*
X60437500Y-86312500D02*
X63204000Y-83546000D01*
X40500000Y-76250000D02*
X40250000Y-76500000D01*
X56000000Y-86312500D02*
X60437500Y-86312500D01*
X63204000Y-83546000D02*
X63204000Y-80980000D01*
X26250000Y-76812500D02*
X29000000Y-74062500D01*
X40500000Y-75250000D02*
X40500000Y-76250000D01*
%TO.N,VDD*%
X40250000Y-53500000D02*
X41750000Y-52000000D01*
X59662500Y-62500000D02*
X61037500Y-62500000D01*
X58545000Y-75500000D02*
X57975000Y-75500000D01*
X41750000Y-46425000D02*
X41075000Y-45750000D01*
X58250000Y-69412500D02*
X58662500Y-69412500D01*
X59662500Y-62500000D02*
X58716690Y-62500000D01*
X22175000Y-53250000D02*
X20750000Y-53250000D01*
X51500000Y-62337500D02*
X51337500Y-62500000D01*
X61037500Y-62500000D02*
X61400000Y-62137500D01*
X58750000Y-75705000D02*
X58545000Y-75500000D01*
X52750000Y-61087500D02*
X51975000Y-61087500D01*
X41750000Y-52000000D02*
X41750000Y-46425000D01*
X58662500Y-69412500D02*
X58750000Y-69500000D01*
X23500000Y-54575000D02*
X22175000Y-53250000D01*
X51975000Y-61087500D02*
X51500000Y-60612500D01*
X58750000Y-69500000D02*
X58837500Y-69412500D01*
X59025000Y-69412500D02*
X59500000Y-69887500D01*
X51500000Y-60612500D02*
X51500000Y-61750000D01*
X51500000Y-61750000D02*
X51500000Y-62337500D01*
X58837500Y-69412500D02*
X59025000Y-69412500D01*
%TO.N,Net-(U8-DT)*%
X49500000Y-53500000D02*
X51000000Y-55000000D01*
X49500000Y-52900000D02*
X49500000Y-53500000D01*
X51000000Y-55000000D02*
X51000000Y-57000000D01*
D59*
%TO.N,+12V*%
X54630000Y-45000000D02*
X54440000Y-45190000D01*
X60750000Y-49750000D02*
X60000000Y-49750000D01*
X45690000Y-47164999D02*
X45690000Y-52900000D01*
X57170000Y-53275001D02*
X57170000Y-54300000D01*
X24500000Y-36750000D02*
X24500000Y-28500000D01*
X57250000Y-48500000D02*
X58000000Y-49250000D01*
D58*
X57170000Y-55267500D02*
X57170000Y-54300000D01*
D59*
X54000000Y-50940000D02*
X52040000Y-52900000D01*
X48550000Y-46750000D02*
X49500000Y-45800000D01*
X63520000Y-53270000D02*
X63520000Y-54300000D01*
X43150000Y-43600000D02*
X43150000Y-44624999D01*
D58*
X46000000Y-54750000D02*
X45690000Y-54440000D01*
X45690000Y-54440000D02*
X45690000Y-52900000D01*
D59*
X31268250Y-33898500D02*
X35750000Y-38380251D01*
X54000000Y-47500000D02*
X54000000Y-50940000D01*
D58*
X46000000Y-55784744D02*
X46000000Y-54750000D01*
D59*
X54000000Y-47500000D02*
X54526472Y-46973528D01*
X58500000Y-49750000D02*
X60000000Y-49750000D01*
X49500000Y-45800000D02*
X53830000Y-45800000D01*
X54000000Y-46500000D02*
X54026472Y-46473528D01*
X35750000Y-38380251D02*
X35750000Y-42725430D01*
X35750000Y-42725430D02*
X37024570Y-44000000D01*
D58*
X47250000Y-56750000D02*
X46750000Y-56250000D01*
D59*
X60750000Y-45230000D02*
X60750000Y-49750000D01*
D58*
X46750000Y-56250000D02*
X46465256Y-56250000D01*
D59*
X53830000Y-45800000D02*
X53352944Y-45800000D01*
D58*
X55437500Y-57000000D02*
X57170000Y-55267500D01*
D59*
X54000000Y-47500000D02*
X54000000Y-46500000D01*
X24500000Y-28500000D02*
X25500000Y-27500000D01*
D58*
X47250000Y-58312500D02*
X47250000Y-56750000D01*
D59*
X31268250Y-28819750D02*
X31268250Y-33898500D01*
D58*
X46465256Y-56250000D02*
X46000000Y-55784744D01*
D59*
X28000000Y-27250000D02*
X29698500Y-27250000D01*
X37024570Y-44000000D02*
X42750000Y-44000000D01*
X43150000Y-44624999D02*
X45275001Y-46750000D01*
X60750000Y-49750000D02*
X60750000Y-50500000D01*
X60980000Y-45000000D02*
X60750000Y-45230000D01*
X58000000Y-49250000D02*
X58000000Y-52445001D01*
X45275001Y-46750000D02*
X45690000Y-47164999D01*
X55744999Y-56750000D02*
X55375000Y-56750000D01*
X45275001Y-46750000D02*
X48550000Y-46750000D01*
X54440000Y-46887056D02*
X54526472Y-46973528D01*
X42750000Y-44000000D02*
X43150000Y-43600000D01*
X49500000Y-45800000D02*
X49500000Y-43600000D01*
X53830000Y-45800000D02*
X54630000Y-45000000D01*
X60000000Y-49750000D02*
X60750000Y-50500000D01*
X56052944Y-48500000D02*
X57250000Y-48500000D01*
X60750000Y-50500000D02*
X63520000Y-53270000D01*
X54440000Y-45190000D02*
X54440000Y-46887056D01*
X54526472Y-46973528D02*
X56052944Y-48500000D01*
X58000000Y-52445001D02*
X57170000Y-53275001D01*
X29698500Y-27250000D02*
X31268250Y-28819750D01*
X53352944Y-45800000D02*
X54026472Y-46473528D01*
X54026472Y-46473528D02*
X54526472Y-46973528D01*
X58000000Y-49250000D02*
X58500000Y-49750000D01*
D58*
%TO.N,+24V*%
X27050000Y-47112500D02*
X27050000Y-44550000D01*
X28250000Y-48312500D02*
X27050000Y-47112500D01*
X27050000Y-44550000D02*
X26500000Y-44000000D01*
X26500000Y-44000000D02*
X25750000Y-44000000D01*
%TO.N,Net-(D11-A)*%
X45155000Y-39962000D02*
X45155000Y-38345000D01*
X37250000Y-40300000D02*
X38950000Y-40300000D01*
X37687500Y-40737500D02*
X37250000Y-40300000D01*
X45155000Y-38345000D02*
X45250000Y-38250000D01*
X37687500Y-42250000D02*
X37687500Y-40737500D01*
X38950000Y-40300000D02*
X39250000Y-40000000D01*
X39250000Y-42250000D02*
X39250000Y-40000000D01*
D59*
%TO.N,/VFAN_OUT*%
X33750000Y-48500000D02*
X34290000Y-49040000D01*
X33750000Y-43500000D02*
X33750000Y-48500000D01*
D58*
%TO.N,Net-(D12-A)*%
X50800000Y-38000000D02*
X52290000Y-36510000D01*
X50800000Y-39550000D02*
X51250000Y-40000000D01*
X50187500Y-41062500D02*
X51250000Y-40000000D01*
X47250000Y-41062500D02*
X50187500Y-41062500D01*
X52290000Y-36510000D02*
X52290000Y-35962000D01*
X50800000Y-38000000D02*
X50800000Y-39550000D01*
%TO.N,/SPI_CLK*%
X60750000Y-67000000D02*
X61950000Y-65800000D01*
X63750150Y-63750150D02*
X63600000Y-63600000D01*
X62824264Y-65800000D02*
X63750150Y-64874114D01*
X59662500Y-67000000D02*
X60750000Y-67000000D01*
X61950000Y-65800000D02*
X62824264Y-65800000D01*
X63750150Y-64874114D02*
X63750150Y-63750150D01*
%TO.N,/SPI_MOSI*%
X63250150Y-64949850D02*
X62725000Y-65475000D01*
X61125000Y-65475000D02*
X60600000Y-66000000D01*
X60600000Y-66000000D02*
X59662500Y-66000000D01*
X62725000Y-65475000D02*
X61125000Y-65475000D01*
X63250150Y-64250150D02*
X63250150Y-64949850D01*
%TO.N,/CS_FAN*%
X51337500Y-64000000D02*
X52500000Y-64000000D01*
X52500000Y-64000000D02*
X52750000Y-63750000D01*
%TO.N,/CS_DRIVE*%
X60374700Y-64000000D02*
X59662500Y-64000000D01*
X62175000Y-64250300D02*
X61825300Y-64600000D01*
X62175000Y-62183550D02*
X62175000Y-64250300D01*
X62723847Y-61634703D02*
X62175000Y-62183550D01*
X60974700Y-64600000D02*
X60374700Y-64000000D01*
X61825300Y-64600000D02*
X60974700Y-64600000D01*
%TO.N,Net-(C1-Pad1)*%
X27112500Y-54750000D02*
X27575000Y-54750000D01*
D60*
X29325000Y-58500000D02*
X29325000Y-61462500D01*
D58*
X28500000Y-62712500D02*
X28287500Y-62500000D01*
D60*
X29325000Y-58500000D02*
X29325000Y-56500000D01*
X29325000Y-61462500D02*
X28287500Y-62500000D01*
D58*
X28500000Y-66500000D02*
X28500000Y-62712500D01*
X27575000Y-54750000D02*
X29325000Y-56500000D01*
%TO.N,/PFC*%
X56792893Y-65000000D02*
X56250000Y-64457107D01*
X59662500Y-65000000D02*
X56792893Y-65000000D01*
X35750000Y-63250000D02*
X35750000Y-62500000D01*
X48420000Y-18080000D02*
X50080000Y-18080000D01*
X44750000Y-63750000D02*
X43575736Y-63750000D01*
X35050000Y-59050000D02*
X34700000Y-58700000D01*
X50080000Y-18080000D02*
X51000000Y-19000000D01*
X34700000Y-58700000D02*
X33274264Y-58700000D01*
X35050000Y-61800000D02*
X35050000Y-59050000D01*
X43575736Y-63750000D02*
X41375736Y-65950000D01*
X35750000Y-62500000D02*
X35050000Y-61800000D01*
X26100000Y-51525736D02*
X26100000Y-46100000D01*
X41375736Y-65950000D02*
X38450000Y-65950000D01*
X27600000Y-21150000D02*
X45350000Y-21150000D01*
X21500000Y-41500000D02*
X21500000Y-27250000D01*
X38450000Y-65950000D02*
X35750000Y-63250000D01*
X45350000Y-21150000D02*
X48420000Y-18080000D01*
X33274264Y-58700000D02*
X26100000Y-51525736D01*
X44750000Y-63750000D02*
X44500000Y-63750000D01*
X56250000Y-64457107D02*
X56250000Y-63750000D01*
X21500000Y-27250000D02*
X27600000Y-21150000D01*
X26100000Y-46100000D02*
X21500000Y-41500000D01*
%TO.N,/USART_RX*%
X52762331Y-65237669D02*
X54250000Y-63750000D01*
X43500000Y-67250000D02*
X42500000Y-68250000D01*
X54250000Y-63750000D02*
X54250000Y-61087500D01*
X42500000Y-75250000D02*
X42500000Y-76500000D01*
X45000000Y-67250000D02*
X43500000Y-67250000D01*
X52762331Y-65697170D02*
X52762331Y-65237669D01*
X42500000Y-68250000D02*
X42500000Y-75250000D01*
%TO.N,Net-(U5-K)*%
X48250000Y-84500000D02*
X50675000Y-86925000D01*
X50675000Y-86925000D02*
X51750000Y-86925000D01*
%TO.N,/INT*%
X32150000Y-82768630D02*
X32150000Y-84582500D01*
X29000000Y-79618630D02*
X32150000Y-82768630D01*
X54550000Y-73700000D02*
X53950000Y-74300000D01*
X29000000Y-75750000D02*
X29000000Y-77250000D01*
X47401471Y-77250000D02*
X29000000Y-77250000D01*
X55250000Y-70471470D02*
X54550000Y-71171470D01*
X55250000Y-69412500D02*
X55250000Y-70471470D01*
X53950000Y-74300000D02*
X50351471Y-74300000D01*
X29000000Y-77250000D02*
X29000000Y-79618630D01*
X54550000Y-71171470D02*
X54550000Y-73700000D01*
X50351471Y-74300000D02*
X47401471Y-77250000D01*
%TO.N,/FAN_EN*%
X51337500Y-63500000D02*
X52250000Y-63500000D01*
X52250000Y-63500000D02*
X52750000Y-63000000D01*
%TO.N,Net-(SW1-B)*%
X23460000Y-73710000D02*
X21500000Y-71750000D01*
X23460000Y-74380000D02*
X23460000Y-73710000D01*
%TO.N,/MODE_IN*%
X62000000Y-81457107D02*
X58782107Y-84675000D01*
X28500000Y-83139526D02*
X24110474Y-78750000D01*
X24110474Y-78750000D02*
X23000000Y-78750000D01*
X59662500Y-67500000D02*
X60399999Y-67500000D01*
X60399999Y-67500000D02*
X60750000Y-67850001D01*
X28732500Y-85482500D02*
X28500000Y-85250000D01*
X34427793Y-85482500D02*
X28732500Y-85482500D01*
X60750000Y-74150000D02*
X62000000Y-75400000D01*
X49100000Y-83600000D02*
X36310293Y-83600000D01*
X21500000Y-77250000D02*
X21500000Y-73750000D01*
X62000000Y-75400000D02*
X62000000Y-81457107D01*
X58782107Y-84675000D02*
X50175000Y-84675000D01*
X28500000Y-85250000D02*
X28500000Y-83139526D01*
X36310293Y-83600000D02*
X34427793Y-85482500D01*
X50175000Y-84675000D02*
X49100000Y-83600000D01*
X60750000Y-67850001D02*
X60750000Y-74150000D01*
X23000000Y-78750000D02*
X21500000Y-77250000D01*
D59*
%TO.N,/Gate Drive Out/GDT1_B*%
X52290000Y-30538000D02*
X48480000Y-30538000D01*
X49095000Y-28420000D02*
X49500000Y-28015000D01*
X49095000Y-30788000D02*
X49095000Y-28420000D01*
%TO.N,/Gate Drive Out/GDT1_A*%
X45062500Y-31500000D02*
X47250000Y-29312500D01*
D58*
X45087500Y-25475000D02*
X45062500Y-25500000D01*
D59*
X47250000Y-25475000D02*
X45087500Y-25475000D01*
X49500000Y-25475000D02*
X47250000Y-25475000D01*
X47250000Y-29312500D02*
X47250000Y-25475000D01*
%TO.N,/Gate Drive Out/GDT2_A*%
X59250000Y-31000000D02*
X59750000Y-31500000D01*
D58*
X56750000Y-25500000D02*
X57000000Y-25250000D01*
D59*
X59250000Y-25250000D02*
X61187500Y-25250000D01*
X59250000Y-25250000D02*
X59250000Y-31000000D01*
D58*
X56500000Y-25500000D02*
X56750000Y-25500000D01*
D59*
X57000000Y-25250000D02*
X59250000Y-25250000D01*
X59750000Y-31500000D02*
X60937500Y-31500000D01*
D58*
X61187500Y-31500000D02*
X61187500Y-30874880D01*
%TO.N,/Gate Drive Out/GDT2_B*%
X56500000Y-30538000D02*
X56750000Y-30788000D01*
D59*
X56500000Y-28040000D02*
X56500000Y-30538000D01*
X57905000Y-30538000D02*
X54095000Y-30538000D01*
D58*
%TO.N,/LED_TMP*%
X46500000Y-76151471D02*
X46500000Y-76250000D01*
X53500000Y-73500000D02*
X49151471Y-73500000D01*
X54250000Y-70340099D02*
X53750000Y-70840100D01*
X53750000Y-70840100D02*
X53750000Y-73250000D01*
X54250000Y-69412500D02*
X54250000Y-70340099D01*
X53750000Y-73250000D02*
X53500000Y-73500000D01*
X49151471Y-73500000D02*
X46500000Y-76151471D01*
%TO.N,/LED_I_IN*%
X54150000Y-73534314D02*
X53784314Y-73900000D01*
X54150000Y-71005785D02*
X54150000Y-73534314D01*
X49600000Y-73900000D02*
X47250000Y-76250000D01*
X54750000Y-70405784D02*
X54150000Y-71005785D01*
X53784314Y-73900000D02*
X49600000Y-73900000D01*
X54750000Y-69412500D02*
X54750000Y-70405784D01*
%TO.N,/LED_VBUS*%
X53000000Y-73100000D02*
X48801471Y-73100000D01*
X53250000Y-69412500D02*
X53250000Y-72850000D01*
X53250000Y-72850000D02*
X53000000Y-73100000D01*
X45750000Y-76151471D02*
X45750000Y-76250000D01*
X48801471Y-73100000D02*
X45750000Y-76151471D01*
%TO.N,Net-(C55-Pad1)*%
X41937500Y-25500000D02*
X42300000Y-25500000D01*
D59*
X42300000Y-25500000D02*
X45050000Y-28250000D01*
D58*
%TO.N,Net-(U9-DT)*%
X62212500Y-58125000D02*
X62587500Y-58500000D01*
X62212500Y-56750000D02*
X62212500Y-58125000D01*
X62212500Y-56712500D02*
X60980000Y-55480000D01*
X60980000Y-55480000D02*
X60980000Y-54300000D01*
X62212500Y-56750000D02*
X62212500Y-56712500D01*
%TO.N,Net-(D17-A)*%
X58350000Y-42250000D02*
X58800000Y-41800000D01*
X59750000Y-37500000D02*
X60000000Y-37250000D01*
X64500000Y-39617000D02*
X64405000Y-39712000D01*
X64562500Y-42000000D02*
X64562500Y-39869500D01*
X64500000Y-37750000D02*
X64500000Y-39617000D01*
X60000000Y-37250000D02*
X61750000Y-37250000D01*
X58800000Y-42050000D02*
X59750000Y-41100000D01*
X59750000Y-41100000D02*
X59750000Y-37500000D01*
X57000000Y-42250000D02*
X58350000Y-42250000D01*
X64562500Y-39869500D02*
X64405000Y-39712000D01*
%TO.N,Net-(D18-A)*%
X58062500Y-38250000D02*
X56784744Y-38250000D01*
X58062500Y-38250000D02*
X58062500Y-37812500D01*
X54250000Y-40000000D02*
X54250000Y-40500000D01*
X55034744Y-40000000D02*
X54250000Y-40000000D01*
X56784744Y-38250000D02*
X55034744Y-40000000D01*
X53000000Y-38159744D02*
X54250000Y-39409744D01*
X53000000Y-37950000D02*
X53000000Y-38159744D01*
X57905000Y-37655000D02*
X57905000Y-35962000D01*
X54250000Y-39409744D02*
X54250000Y-40000000D01*
X58062500Y-37812500D02*
X57905000Y-37655000D01*
X54250000Y-40500000D02*
X55000000Y-41250000D01*
%TO.N,Net-(IC6-G1)*%
X40812500Y-43000000D02*
X40812500Y-42937500D01*
X44420000Y-43600000D02*
X44420000Y-42184500D01*
X42615000Y-41135000D02*
X42615000Y-39962000D01*
X40812500Y-42937500D02*
X42615000Y-41135000D01*
X42615000Y-40379500D02*
X42615000Y-39962000D01*
X44420000Y-42184500D02*
X42615000Y-40379500D01*
%TO.N,Net-(IC7-G1)*%
X46000000Y-41750000D02*
X46500000Y-42250000D01*
X46000000Y-39187500D02*
X46000000Y-41750000D01*
X49125000Y-37024500D02*
X48163000Y-37024500D01*
X50770000Y-42575001D02*
X50770000Y-43600000D01*
X49750000Y-36399500D02*
X49125000Y-37024500D01*
X47250000Y-37937500D02*
X46000000Y-39187500D01*
X48163000Y-37024500D02*
X47250000Y-37937500D01*
X49750000Y-35962000D02*
X49750000Y-36399500D01*
X46500000Y-42250000D02*
X50444999Y-42250000D01*
X50444999Y-42250000D02*
X50770000Y-42575001D01*
X49750000Y-35962000D02*
X49750000Y-36437500D01*
D59*
%TO.N,Net-(IC6-D1_1)*%
X41937500Y-31500000D02*
X41937500Y-33380500D01*
D58*
X41950000Y-31487500D02*
X41937500Y-31500000D01*
D59*
X41950000Y-28250000D02*
X41950000Y-31487500D01*
X45155000Y-34538000D02*
X41345000Y-34538000D01*
X41937500Y-33380500D02*
X43095000Y-34538000D01*
D58*
%TO.N,Net-(IC8-G1)*%
X61865000Y-39712000D02*
X61865000Y-41572500D01*
X55900000Y-43975001D02*
X55900000Y-45000000D01*
X60343750Y-42000000D02*
X58668750Y-43675000D01*
X56200001Y-43675000D02*
X55900000Y-43975001D01*
X61865000Y-41572500D02*
X61437500Y-42000000D01*
X58668750Y-43675000D02*
X56200001Y-43675000D01*
X61437500Y-42000000D02*
X60343750Y-42000000D01*
%TO.N,Net-(IC9-G1)*%
X56500000Y-37500000D02*
X55687500Y-37500000D01*
X55365000Y-35962000D02*
X55365000Y-37822500D01*
X61750000Y-43500000D02*
X61750000Y-44500000D01*
X55365000Y-37822500D02*
X54937500Y-38250000D01*
X55687500Y-37500000D02*
X54937500Y-38250000D01*
X61750000Y-44500000D02*
X62250000Y-45000000D01*
%TO.N,Net-(IC8-D1_1)*%
X64050000Y-31487500D02*
X64062500Y-31500000D01*
X64312500Y-28237500D02*
X64300000Y-28250000D01*
D59*
X64050000Y-28250000D02*
X64050000Y-31487500D01*
X64062500Y-34130500D02*
X64062500Y-31500000D01*
X64220000Y-34288000D02*
X60595000Y-34288000D01*
D58*
X64312500Y-34195500D02*
X64220000Y-34288000D01*
X64300000Y-31487500D02*
X64312500Y-31500000D01*
X64220000Y-34288000D02*
X64062500Y-34130500D01*
X64312500Y-34195500D02*
X64405000Y-34288000D01*
X64312500Y-31362500D02*
X64312500Y-31500000D01*
%TO.N,Net-(C61-Pad1)*%
X64200000Y-25250000D02*
X64312500Y-25250000D01*
X64062500Y-25250000D02*
X63950000Y-25250000D01*
D59*
X63950000Y-25250000D02*
X60950000Y-28250000D01*
D58*
%TO.N,GDT1_DIS*%
X52457410Y-58025000D02*
X54750000Y-60317590D01*
X48230000Y-52900000D02*
X48230000Y-53924999D01*
X48230000Y-53924999D02*
X48717501Y-54412500D01*
X49250000Y-56975000D02*
X50300000Y-58025000D01*
X49716722Y-54412500D02*
X50212500Y-54908278D01*
X50212500Y-56012500D02*
X49250000Y-56975000D01*
X50212500Y-54908278D02*
X50212500Y-56012500D01*
X48717501Y-54412500D02*
X49716722Y-54412500D01*
X54750000Y-60317590D02*
X54750000Y-61087500D01*
X50300000Y-58025000D02*
X52457410Y-58025000D01*
%TO.N,VDRIVE*%
X52100000Y-37537352D02*
X52612852Y-37024500D01*
D59*
X45765250Y-36189750D02*
X43750000Y-36189750D01*
D58*
X52612852Y-37024500D02*
X52915000Y-37024500D01*
D59*
X56635000Y-35962000D02*
X56635000Y-32135500D01*
X43885000Y-36324750D02*
X43885000Y-39962000D01*
X52750000Y-33020000D02*
X51020000Y-34750000D01*
D58*
X49250000Y-38050000D02*
X49200000Y-38000000D01*
X59250000Y-36070500D02*
X59570000Y-35750500D01*
D59*
X56500000Y-32000500D02*
X52500500Y-32000500D01*
X62250000Y-36000000D02*
X59819500Y-36000000D01*
X46750000Y-33250000D02*
X46750000Y-35205000D01*
D58*
X53000000Y-39550000D02*
X52100000Y-38650000D01*
X49419500Y-38000000D02*
X51020000Y-36399500D01*
D59*
X51000000Y-32000000D02*
X52500000Y-32000000D01*
X56635000Y-32135500D02*
X56500000Y-32000500D01*
D58*
X51020000Y-36399500D02*
X51020000Y-35962000D01*
X49250000Y-40000000D02*
X49250000Y-38050000D01*
D59*
X52750000Y-32250000D02*
X52750000Y-33020000D01*
D58*
X52100000Y-38650000D02*
X52100000Y-37537352D01*
D59*
X52500500Y-32000500D02*
X52500000Y-32000000D01*
D58*
X49200000Y-38000000D02*
X49419500Y-38000000D01*
X37250000Y-38700000D02*
X38550000Y-38700000D01*
X57000000Y-40250000D02*
X58750000Y-40250000D01*
X53250000Y-39550000D02*
X53000000Y-39300000D01*
D59*
X39189750Y-36189750D02*
X35500000Y-32500000D01*
D58*
X53000000Y-34984500D02*
X52765500Y-34750000D01*
D59*
X59395000Y-33145000D02*
X58250500Y-32000500D01*
D58*
X58750000Y-40250000D02*
X59250000Y-39750000D01*
D59*
X46750000Y-35205000D02*
X45765250Y-36189750D01*
X59819500Y-36000000D02*
X59395000Y-35575500D01*
X48000000Y-32000000D02*
X46750000Y-33250000D01*
X51000000Y-32000000D02*
X48000000Y-32000000D01*
X39189750Y-36189750D02*
X39189750Y-37939750D01*
D58*
X59250000Y-39750000D02*
X59250000Y-36070500D01*
D59*
X39189750Y-37939750D02*
X39250000Y-38000000D01*
D58*
X53000000Y-36939500D02*
X53000000Y-34984500D01*
D59*
X43750000Y-36189750D02*
X43885000Y-36324750D01*
D58*
X53250000Y-41000000D02*
X53250000Y-39550000D01*
D59*
X63135000Y-39712000D02*
X63135000Y-36885000D01*
D58*
X52915000Y-37024500D02*
X53000000Y-36939500D01*
D59*
X43750000Y-36189750D02*
X39189750Y-36189750D01*
X58250500Y-32000500D02*
X56500000Y-32000500D01*
X59395000Y-35575500D02*
X59395000Y-33145000D01*
X35500000Y-32500000D02*
X32666750Y-32500000D01*
X51020000Y-34750000D02*
X51020000Y-35962000D01*
X63135000Y-36885000D02*
X62250000Y-36000000D01*
D58*
X52765500Y-34750000D02*
X51020000Y-34750000D01*
X38550000Y-38700000D02*
X39250000Y-38000000D01*
D59*
X52500000Y-32000000D02*
X52750000Y-32250000D01*
D58*
%TO.N,GDT2_DIS*%
X60500000Y-56637500D02*
X59710000Y-55847500D01*
X55500000Y-59500000D02*
X55500000Y-59936218D01*
X58750000Y-58750000D02*
X60500000Y-57000000D01*
X55500000Y-59936218D02*
X55750000Y-60186218D01*
X59710000Y-55847500D02*
X59710000Y-54300000D01*
X60500000Y-57000000D02*
X60500000Y-56637500D01*
X56500000Y-58750000D02*
X58750000Y-58750000D01*
X55750000Y-60186218D02*
X55750000Y-61087500D01*
%TO.N,GDT1_INA*%
X50000000Y-60500000D02*
X49250000Y-59750000D01*
X46184314Y-59750000D02*
X43150000Y-56715686D01*
X50567590Y-63000000D02*
X50000000Y-62432410D01*
X51337500Y-63000000D02*
X50567590Y-63000000D01*
X49250000Y-59750000D02*
X46184314Y-59750000D01*
X43150000Y-56715686D02*
X43150000Y-52900000D01*
X50000000Y-62432410D02*
X50000000Y-60500000D01*
%TO.N,GDT1_INB*%
X53750000Y-61087500D02*
X53750000Y-60350001D01*
X46275000Y-59275000D02*
X44420000Y-57420000D01*
X49775000Y-59275000D02*
X46275000Y-59275000D01*
X53750000Y-60350001D02*
X53149999Y-59750000D01*
X44420000Y-57420000D02*
X44420000Y-52900000D01*
X53149999Y-59750000D02*
X50250000Y-59750000D01*
X50250000Y-59750000D02*
X49775000Y-59275000D01*
%TO.N,GDT2_INA*%
X54075000Y-54855000D02*
X54075000Y-59076904D01*
X54630000Y-54300000D02*
X54075000Y-54855000D01*
X55250000Y-60251904D02*
X55250000Y-61087500D01*
X54075000Y-59076904D02*
X55250000Y-60251904D01*
%TO.N,GDT2_INB*%
X56250000Y-59348529D02*
X55651471Y-58750000D01*
X54475000Y-58475000D02*
X54475000Y-56115256D01*
X54790256Y-55800000D02*
X55563629Y-55800000D01*
X55651471Y-58750000D02*
X54750000Y-58750000D01*
X54475000Y-56115256D02*
X54790256Y-55800000D01*
X54750000Y-58750000D02*
X54475000Y-58475000D01*
X55563629Y-55800000D02*
X55900000Y-55463629D01*
X55900000Y-55463629D02*
X55900000Y-54300000D01*
X56250000Y-61087500D02*
X56250000Y-59348529D01*
%TO.N,/I_L*%
X39010049Y-54500000D02*
X40524264Y-54500000D01*
X34000000Y-41000000D02*
X34000000Y-42106800D01*
X37887500Y-45787500D02*
X37925000Y-45750000D01*
X41104699Y-55080435D02*
X41104699Y-63354699D01*
X37643200Y-45750000D02*
X37925000Y-45750000D01*
X36400000Y-51889951D02*
X39010049Y-54500000D01*
X59662500Y-66500000D02*
X58000000Y-66500000D01*
X37887500Y-47750000D02*
X36400000Y-49237500D01*
X40524264Y-54500000D02*
X41104699Y-55080435D01*
X37887500Y-47750000D02*
X37887500Y-45787500D01*
X41104699Y-63354699D02*
X41750000Y-64000000D01*
X34000000Y-42106800D02*
X37643200Y-45750000D01*
X59662500Y-66500000D02*
X60399999Y-66500000D01*
X36400000Y-49237500D02*
X36400000Y-51889951D01*
%TO.N,/VBUS_SENSE*%
X23000000Y-47387500D02*
X23112500Y-47500000D01*
X21250000Y-51425000D02*
X21250000Y-52500000D01*
X62600000Y-64249564D02*
X62600000Y-62640842D01*
X62600000Y-62640842D02*
X62940511Y-62300331D01*
X21250000Y-49362500D02*
X21250000Y-51425000D01*
X23112500Y-47500000D02*
X21250000Y-49362500D01*
X62940511Y-62300331D02*
X62988148Y-62347968D01*
X60675736Y-65500000D02*
X61175736Y-65000000D01*
X59662500Y-65500000D02*
X60675736Y-65500000D01*
X61175736Y-65000000D02*
X61849564Y-65000000D01*
X61849564Y-65000000D02*
X62600000Y-64249564D01*
X21250000Y-51425000D02*
X23500000Y-51425000D01*
X23000000Y-45750000D02*
X23000000Y-47387500D01*
%TO.N,/I_PRI*%
X29150000Y-69150000D02*
X28500000Y-68500000D01*
X40327208Y-69150000D02*
X34400000Y-69150000D01*
X34400000Y-69150000D02*
X29150000Y-69150000D01*
X49633276Y-66500000D02*
X46424264Y-66500000D01*
X46424264Y-66500000D02*
X46074264Y-66150000D01*
X46074264Y-66150000D02*
X43327208Y-66150000D01*
X34362500Y-69112500D02*
X34400000Y-69150000D01*
X43327208Y-66150000D02*
X40327208Y-69150000D01*
X34362500Y-64250000D02*
X34362500Y-69112500D01*
X51337500Y-66000000D02*
X50133276Y-66000000D01*
X50133276Y-66000000D02*
X49633276Y-66500000D01*
%TO.N,VDDA*%
X57112500Y-70802514D02*
X57112500Y-71750000D01*
X56750000Y-69412500D02*
X56750000Y-70440014D01*
X57112500Y-74637500D02*
X57112500Y-71750000D01*
X56525000Y-75225000D02*
X57112500Y-74637500D01*
X56750000Y-70440014D02*
X57112500Y-70802514D01*
X56525000Y-75500000D02*
X56525000Y-75225000D01*
X54812500Y-75500000D02*
X56525000Y-75500000D01*
X56525000Y-77662500D02*
X56500000Y-77687500D01*
X56525000Y-75500000D02*
X56525000Y-77662500D01*
%TO.N,/CT-*%
X45500000Y-67042893D02*
X45207107Y-66750000D01*
X23875000Y-69850000D02*
X22500000Y-68475000D01*
X45207107Y-66750000D02*
X43575736Y-66750000D01*
D60*
X26175000Y-56500000D02*
X24325000Y-56500000D01*
D58*
X43575736Y-66750000D02*
X40475736Y-69850000D01*
X22500000Y-68475000D02*
X22500000Y-63500000D01*
X50567590Y-68000000D02*
X49867590Y-67300000D01*
X40475736Y-69850000D02*
X23875000Y-69850000D01*
X51337500Y-68000000D02*
X50567590Y-68000000D01*
X45500000Y-67300000D02*
X45500000Y-67042893D01*
X51337500Y-68000000D02*
X52750000Y-69412500D01*
X49867590Y-67300000D02*
X45500000Y-67300000D01*
D60*
X22500000Y-58325000D02*
X22500000Y-63500000D01*
X24325000Y-56500000D02*
X22500000Y-58325000D01*
%TO.N,/CT+*%
X24325000Y-58500000D02*
X25000000Y-58500000D01*
D58*
X43451472Y-66450000D02*
X40451472Y-69450000D01*
X25805000Y-69400000D02*
X25040000Y-68635000D01*
D60*
X24325000Y-58500000D02*
X24325000Y-58675000D01*
D58*
X45950000Y-66450000D02*
X43451472Y-66450000D01*
D60*
X25000000Y-58500000D02*
X25040000Y-58540000D01*
D58*
X53500000Y-66500000D02*
X53750000Y-66750000D01*
X49798961Y-66900000D02*
X46400000Y-66900000D01*
D60*
X25000000Y-66500000D02*
X25040000Y-66540000D01*
D58*
X40451472Y-69450000D02*
X25250000Y-69450000D01*
X25040000Y-69240000D02*
X25040000Y-66540000D01*
X25040000Y-68635000D02*
X25040000Y-66540000D01*
X25250000Y-69450000D02*
X25040000Y-69240000D01*
X51337500Y-66500000D02*
X50198962Y-66500000D01*
X46400000Y-66900000D02*
X45950000Y-66450000D01*
X50198962Y-66500000D02*
X49798961Y-66900000D01*
X51337500Y-66500000D02*
X53500000Y-66500000D01*
D60*
X25040000Y-58540000D02*
X25040000Y-66540000D01*
X25000000Y-58500000D02*
X26175000Y-58500000D01*
D58*
X53750000Y-66750000D02*
X53750000Y-69412500D01*
%TO.N,/I_L_IN*%
X45681370Y-21950000D02*
X46631372Y-21000000D01*
X34000000Y-39000000D02*
X34000000Y-37761621D01*
X27001500Y-30763121D02*
X27001500Y-26251500D01*
X31303000Y-21950000D02*
X45681370Y-21950000D01*
X46631372Y-21000000D02*
X49000000Y-21000000D01*
X27001500Y-26251500D02*
X31303000Y-21950000D01*
X34000000Y-37761621D02*
X27001500Y-30763121D01*
%TO.N,/VAC_IN*%
X26601500Y-26085815D02*
X26601500Y-31002971D01*
X36000000Y-51914215D02*
X38985785Y-54900000D01*
X40804699Y-65195301D02*
X40750000Y-65250000D01*
X36000000Y-44750000D02*
X36000000Y-51914215D01*
X33000000Y-37401471D02*
X33000000Y-41750000D01*
X31137314Y-21550000D02*
X26601500Y-26085815D01*
X57000000Y-19000000D02*
X55920000Y-20080000D01*
X45515685Y-21550000D02*
X31137314Y-21550000D01*
X38985785Y-54900000D02*
X40500000Y-54900000D01*
X40500000Y-54900000D02*
X40804699Y-55204699D01*
X33000000Y-41750000D02*
X36000000Y-44750000D01*
X46985686Y-20080000D02*
X45515685Y-21550000D01*
X26601500Y-31002971D02*
X33000000Y-37401471D01*
X55920000Y-20080000D02*
X46985686Y-20080000D01*
X40804699Y-55204699D02*
X40804699Y-65195301D01*
%TO.N,/VBUS_IN*%
X55000000Y-19000000D02*
X53280000Y-17280000D01*
X20750000Y-45500000D02*
X21000000Y-45750000D01*
X20750000Y-26868628D02*
X20750000Y-45500000D01*
X44934314Y-20250000D02*
X27368628Y-20250000D01*
X53280000Y-17280000D02*
X47904314Y-17280000D01*
X27368628Y-20250000D02*
X20750000Y-26868628D01*
X47904314Y-17280000D02*
X44934314Y-20250000D01*
%TO.N,/USART_TX*%
X58000000Y-71124328D02*
X58000000Y-73750000D01*
X58000000Y-73750000D02*
X59500000Y-75250000D01*
X57250000Y-70374328D02*
X58000000Y-71124328D01*
X53450000Y-79750000D02*
X53450000Y-77675000D01*
X57250000Y-69412500D02*
X57250000Y-70374328D01*
X59500000Y-75250000D02*
X59500000Y-78250000D01*
X59500000Y-78250000D02*
X58000000Y-79750000D01*
X58000000Y-79750000D02*
X53450000Y-79750000D01*
%TO.N,Net-(Q1-D)*%
X51750000Y-82375000D02*
X52500000Y-81625000D01*
X51750000Y-83825000D02*
X51750000Y-82375000D01*
%TO.N,/VAC_SENSE*%
X59750000Y-68750000D02*
X59750000Y-68087500D01*
X59750000Y-68087500D02*
X59662500Y-68000000D01*
%TO.N,/VREF*%
X56307988Y-70846531D02*
X56250000Y-70788543D01*
X56250000Y-70788543D02*
X56250000Y-69412500D01*
%TO.N,/RST*%
X55250000Y-67250000D02*
X54200000Y-66200000D01*
X54200000Y-66200000D02*
X52450000Y-66200000D01*
X52450000Y-66200000D02*
X52275000Y-66025000D01*
X51965988Y-65500000D02*
X51337500Y-65500000D01*
X52275000Y-65809012D02*
X51965988Y-65500000D01*
X52275000Y-66025000D02*
X52275000Y-65809012D01*
%TO.N,/TDO*%
X64700000Y-60200000D02*
X64150000Y-59650000D01*
X57417590Y-59650000D02*
X56750000Y-60317590D01*
X64700000Y-68070000D02*
X64700000Y-60200000D01*
X56750000Y-60317590D02*
X56750000Y-61087500D01*
X63500000Y-69270000D02*
X64700000Y-68070000D01*
X64150000Y-59650000D02*
X57417590Y-59650000D01*
%TO.N,/TMS*%
X58987500Y-60350000D02*
X58250000Y-61087500D01*
X64100000Y-60850000D02*
X63600000Y-60350000D01*
X64100000Y-66130000D02*
X64100000Y-60850000D01*
X63600000Y-60350000D02*
X58987500Y-60350000D01*
X63500000Y-66730000D02*
X64100000Y-66130000D01*
%TO.N,/TCK*%
X57750000Y-60317590D02*
X58017590Y-60050000D01*
X58017590Y-60050000D02*
X63800000Y-60050000D01*
X63800000Y-60050000D02*
X64400000Y-60650000D01*
X64400000Y-60650000D02*
X64400000Y-67100000D01*
X57750000Y-61087500D02*
X57750000Y-60317590D01*
X64400000Y-67100000D02*
X63500000Y-68000000D01*
%TO.N,/TDI*%
X57250000Y-61087500D02*
X57250000Y-62250000D01*
%TO.N,/DRIVE_EN*%
X59662500Y-64500000D02*
X57500000Y-64500000D01*
%TO.N,/SCR*%
X34750000Y-59196100D02*
X34553900Y-59000000D01*
X33150000Y-59000000D02*
X25800000Y-51650000D01*
X57344895Y-63594895D02*
X56750000Y-64189790D01*
X56750000Y-64189790D02*
X56750000Y-64250000D01*
X58698119Y-63594895D02*
X57344895Y-63594895D01*
X41500000Y-66250000D02*
X38050000Y-66250000D01*
X38050000Y-66250000D02*
X35300000Y-63500000D01*
X44250000Y-64250000D02*
X43500000Y-64250000D01*
X45000000Y-20750000D02*
X48070000Y-17680000D01*
X48070000Y-17680000D02*
X51680000Y-17680000D01*
X27434314Y-20750000D02*
X45000000Y-20750000D01*
X21150000Y-27034314D02*
X27434314Y-20750000D01*
X34750000Y-62957107D02*
X34750000Y-59196100D01*
X25800000Y-46342893D02*
X21150000Y-41692893D01*
X59662500Y-63500000D02*
X58793014Y-63500000D01*
X35300000Y-63500000D02*
X35292893Y-63500000D01*
X43500000Y-64250000D02*
X41500000Y-66250000D01*
X58793014Y-63500000D02*
X58698119Y-63594895D01*
X34553900Y-59000000D02*
X33150000Y-59000000D01*
X51680000Y-17680000D02*
X53000000Y-19000000D01*
X35292893Y-63500000D02*
X34750000Y-62957107D01*
X21150000Y-41692893D02*
X21150000Y-27034314D01*
X25800000Y-51650000D02*
X25800000Y-46342893D01*
%TO.N,Net-(U1-PF1)*%
X47825000Y-65950000D02*
X49617590Y-65950000D01*
X49617590Y-65950000D02*
X50567590Y-65000000D01*
%TO.N,Net-(U1-PF0)*%
X49617590Y-63550000D02*
X50567590Y-64500000D01*
X47825000Y-63550000D02*
X49617590Y-63550000D01*
%TO.N,/THERM1*%
X52750000Y-67500000D02*
X53000000Y-67750000D01*
X40000001Y-63795302D02*
X40204699Y-64000000D01*
X40000001Y-58494800D02*
X40000001Y-63795302D01*
X51337500Y-67500000D02*
X52750000Y-67500000D01*
%TO.N,/THERM2*%
X38799301Y-64250000D02*
X39000000Y-64250000D01*
X53000000Y-67000000D02*
X51337500Y-67000000D01*
X36000001Y-61450700D02*
X38799301Y-64250000D01*
X36000001Y-58494800D02*
X36000001Y-61450700D01*
%TD*%
%TA.AperFunction,Conductor*%
%TO.N,GND*%
G36*
X19943039Y-16019685D02*
G01*
X19988794Y-16072489D01*
X20000000Y-16124000D01*
X20000000Y-44889057D01*
X19981539Y-44954153D01*
X19965189Y-44980659D01*
X19965186Y-44980666D01*
X19910001Y-45147203D01*
X19910001Y-45147204D01*
X19910000Y-45147204D01*
X19899500Y-45249983D01*
X19899500Y-46250001D01*
X19899501Y-46250019D01*
X19910000Y-46352796D01*
X19910001Y-46352799D01*
X19965185Y-46519331D01*
X19965189Y-46519340D01*
X19972664Y-46531458D01*
X19981537Y-46545844D01*
X20000000Y-46610941D01*
X20000000Y-53198598D01*
X19993042Y-53239552D01*
X19964632Y-53320742D01*
X19964630Y-53320750D01*
X19944435Y-53499996D01*
X19944435Y-53500003D01*
X19964630Y-53679246D01*
X19964632Y-53679256D01*
X19993041Y-53760442D01*
X20000000Y-53801397D01*
X20000000Y-54250000D01*
X19750000Y-54250000D01*
X19750000Y-59000000D01*
X20000000Y-59000000D01*
X20000000Y-87876000D01*
X19980315Y-87943039D01*
X19927511Y-87988794D01*
X19876000Y-88000000D01*
X16124000Y-88000000D01*
X16056961Y-87980315D01*
X16011206Y-87927511D01*
X16000000Y-87876000D01*
X16000000Y-16124000D01*
X16019685Y-16056961D01*
X16072489Y-16011206D01*
X16124000Y-16000000D01*
X19876000Y-16000000D01*
X19943039Y-16019685D01*
G37*
%TD.AperFunction*%
%TD*%
%TA.AperFunction,Conductor*%
%TO.N,GND*%
G36*
X69243039Y-16019685D02*
G01*
X69288794Y-16072489D01*
X69300000Y-16124000D01*
X69300000Y-87876000D01*
X69280315Y-87943039D01*
X69227511Y-87988794D01*
X69176000Y-88000000D01*
X65424000Y-88000000D01*
X65356961Y-87980315D01*
X65311206Y-87927511D01*
X65300000Y-87876000D01*
X65300000Y-68160982D01*
X65300500Y-68153352D01*
X65300500Y-60116650D01*
X65300000Y-60109020D01*
X65300000Y-37806352D01*
X65300780Y-37792468D01*
X65305565Y-37750002D01*
X65305565Y-37749998D01*
X65300780Y-37707531D01*
X65300000Y-37693647D01*
X65300000Y-16124000D01*
X65319685Y-16056961D01*
X65372489Y-16011206D01*
X65424000Y-16000000D01*
X69176000Y-16000000D01*
X69243039Y-16019685D01*
G37*
%TD.AperFunction*%
%TD*%
%TA.AperFunction,Conductor*%
%TO.N,GND*%
G36*
X20489554Y-54256958D02*
G01*
X20570745Y-54285368D01*
X20570750Y-54285369D01*
X20749996Y-54305565D01*
X20750000Y-54305565D01*
X20750004Y-54305565D01*
X20929249Y-54285369D01*
X20929252Y-54285368D01*
X20929255Y-54285368D01*
X21010446Y-54256957D01*
X21051401Y-54250000D01*
X21626000Y-54250000D01*
X21693039Y-54269685D01*
X21738794Y-54322489D01*
X21750000Y-54374000D01*
X21750000Y-58019189D01*
X21740562Y-58066636D01*
X21730263Y-58091503D01*
X21730262Y-58091507D01*
X21730261Y-58091510D01*
X21730260Y-58091511D01*
X21699500Y-58246153D01*
X21699500Y-58876000D01*
X21679815Y-58943039D01*
X21627011Y-58988794D01*
X21575500Y-59000000D01*
X19750000Y-59000000D01*
X19750000Y-54250000D01*
X20000000Y-54250000D01*
X20448599Y-54250000D01*
X20489554Y-54256958D01*
G37*
%TD.AperFunction*%
%TD*%
M02*
