M48
; DRILL file {KiCad 8.0.1} date 2024-07-11T23:08:43-0400
; FORMAT={-:-/ absolute / inch / decimal}
; #@! TF.CreationDate,2024-07-11T23:08:43-04:00
; #@! TF.GenerationSoftware,Kicad,Pcbnew,8.0.1
; #@! TF.FileFunction,Plated,1,4,PTH
FMAT,2
INCH
; #@! TA.AperFunction,Plated,PTH,ViaDrill
T1C0.0118
; #@! TA.AperFunction,Plated,PTH,ComponentDrill
T2C0.0260
; #@! TA.AperFunction,Plated,PTH,ComponentDrill
T3C0.0300
; #@! TA.AperFunction,Plated,PTH,ComponentDrill
T4C0.0315
; #@! TA.AperFunction,Plated,PTH,ComponentDrill
T5C0.0350
; #@! TA.AperFunction,Plated,PTH,ComponentDrill
T6C0.0350
; #@! TA.AperFunction,Plated,PTH,ComponentDrill
T7C0.0374
; #@! TA.AperFunction,Plated,PTH,ComponentDrill
T8C0.0402
; #@! TA.AperFunction,Plated,PTH,ComponentDrill
T9C0.0425
%
G90
G05
T1
X0.7087Y-0.6693
X0.7087Y-0.7677
X0.7087Y-0.8661
X0.7087Y-0.9646
X0.7087Y-1.063
X0.7087Y-1.1614
X0.7087Y-1.2598
X0.7087Y-1.3583
X0.7087Y-1.4567
X0.7087Y-1.5551
X0.7087Y-1.6535
X0.7087Y-1.752
X0.7087Y-1.8504
X0.7087Y-1.9488
X0.7087Y-2.0472
X0.7087Y-2.1457
X0.7087Y-2.2441
X0.7087Y-2.3425
X0.7087Y-2.4409
X0.7087Y-2.5394
X0.7087Y-2.6378
X0.7087Y-2.7362
X0.7087Y-2.8346
X0.7087Y-2.9331
X0.7087Y-3.0315
X0.7087Y-3.1299
X0.7087Y-3.2283
X0.7087Y-3.3268
X0.7087Y-3.4252
X0.8169Y-2.1063
X0.8366Y-2.0669
X0.8563Y-1.6929
X0.8563Y-1.7224
X0.8858Y-1.9488
X0.9055Y-1.3189
X0.9055Y-1.9685
X0.9646Y-1.9783
X0.9941Y-1.9783
X1.0039Y-1.0827
X1.0138Y-1.7028
X1.0138Y-1.7323
X1.0236Y-1.2205
X1.0531Y-2.5197
X1.0531Y-2.5492
X1.0543Y-1.9673
X1.0925Y-2.7953
X1.0925Y-2.8248
X1.1024Y-1.122
X1.1024Y-1.6929
X1.1024Y-1.7323
X1.1122Y-1.3189
X1.1122Y-1.3583
X1.122Y-2.7953
X1.122Y-2.8248
X1.1417Y-1.2402
X1.1417Y-1.6929
X1.1417Y-1.7323
X1.1516Y-2.7953
X1.1516Y-2.8248
X1.1614Y-1.2008
X1.1713Y-1.4567
X1.2402Y-2.6083
X1.2598Y-1.9587
X1.2697Y-2.6083
X1.2992Y-2.6083
X1.3091Y-2.4705
X1.3287Y-1.7126
X1.3484Y-2.4705
X1.3878Y-2.4705
X1.4272Y-2.4705
X1.4567Y-1.9685
X1.4567Y-1.998
X1.5059Y-2.4705
X1.5354Y-2.5295
X1.5453Y-1.6634
X1.5453Y-2.4705
X1.5829Y-2.5197
X1.5846Y-2.1063
X1.5846Y-3.0118
X1.6043Y-2.5689
X1.6339Y-1.4764
X1.6437Y-2.5197
X1.6732Y-3.0118
X1.6929Y-2.8346
X1.7028Y-2.313
X1.7421Y-2.5295
X1.7618Y-2.5098
X1.7717Y-2.6476
X1.7815Y-1.5059
X1.8012Y-3.002
X1.8209Y-1.7717
X1.8209Y-1.8012
X1.8307Y-3.002
X1.8406Y-2.874
X1.8602Y-3.002
X1.8799Y-2.6772
X1.935Y-2.5453
X1.9434Y-2.9975
X1.9488Y-2.8346
X1.9685Y-1.3091
X1.9685Y-2.9823
X1.9783Y-1.9685
X1.9882Y-1.8898
X2.0079Y-1.9193
X2.0079Y-2.7559
X2.0276Y-1.939
X2.0276Y-2.4311
X2.0664Y-2.3135
X2.0768Y-2.4508
X2.0768Y-2.4803
X2.0768Y-2.5098
X2.0773Y-2.5865
X2.0866Y-2.6378
X2.0866Y-2.6673
X2.0965Y-1.7028
X2.0965Y-3.3071
X2.0965Y-3.3563
X2.1222Y-1.3178
X2.1752Y-2.6476
X2.185Y-2.3425
X2.185Y-3.2283
X2.1863Y-2.7968
X2.2047Y-1.8406
X2.2146Y-1.9685
X2.2146Y-2.5098
X2.2168Y-2.7892
X2.2244Y-1.4764
X2.2244Y-2.313
X2.2343Y-2.5295
X2.2539Y-2.4508
X2.2638Y-2.5394
X2.2835Y-2.6181
X2.3028Y-2.4841
X2.3036Y-2.4526
X2.3043Y-2.7801
X2.313Y-2.7362
X2.313Y-2.9805
X2.313Y-3.3071
X2.3327Y-2.0571
X2.3524Y-2.7067
X2.4114Y-1.4961
X2.4311Y-1.4665
X2.4311Y-1.7126
X2.4311Y-1.8307
X2.4694Y-2.4266
X2.4705Y-1.9685
X2.478Y-2.4528
X2.4902Y-1.8406
X2.4902Y-2.5295
X2.5039Y-2.5039
X2.5394Y-1.4862
X2.6575Y-0.6693
X2.6575Y-0.7677
X2.6575Y-0.8661
X2.6575Y-0.9646
X2.6575Y-1.063
X2.6575Y-1.1614
X2.6575Y-1.2598
X2.6575Y-1.3583
X2.6575Y-1.4567
X2.6575Y-1.5551
X2.6575Y-1.6535
X2.6575Y-1.752
X2.6575Y-1.8504
X2.6575Y-1.9488
X2.6575Y-2.0472
X2.6575Y-2.1457
X2.6575Y-2.2441
X2.6575Y-2.3425
X2.6575Y-2.4409
X2.6575Y-2.5394
X2.6575Y-2.6378
X2.6575Y-2.7362
X2.6575Y-2.8346
X2.6575Y-2.9331
X2.6575Y-3.0315
X2.6575Y-3.1299
X2.6575Y-3.2283
X2.6575Y-3.3268
X2.6575Y-3.4252
T2
X2.45Y-2.6272
X2.45Y-2.6772
X2.45Y-2.7272
X2.45Y-2.7772
X2.45Y-2.8272
X2.5Y-2.6272
X2.5Y-2.6772
X2.5Y-2.7272
X2.5Y-2.7772
X2.5Y-2.8272
T3
X0.9236Y-2.8283
X0.9236Y-2.9283
X0.9236Y-3.0283
T4
X1.1907Y-3.33
X1.2657Y-3.33
X1.3407Y-3.33
X1.486Y-3.3268
X1.561Y-3.3268
X1.636Y-3.3268
X1.7996Y-3.3268
X1.8996Y-3.3268
T5
X0.9055Y-1.0728
X1.1024Y-1.0728
X1.2795Y-2.7953
X1.2861Y-1.2795
X1.378Y-0.748
X1.378Y-0.9449
X1.4764Y-2.7953
X1.4829Y-1.2795
T6
X1.9291Y-0.748
X1.9291Y-0.8268
X2.0079Y-0.748
X2.0079Y-0.8268
X2.0866Y-0.748
X2.0866Y-0.8268
X2.1654Y-0.748
X2.1654Y-0.8268
X2.2441Y-0.748
X2.2441Y-0.8268
T7
X0.9236Y-3.2283
X1.0236Y-3.2283
T8
X0.9843Y-0.6988
X0.9843Y-0.7988
X1.9488Y-1.0039
X1.9488Y-1.1039
X2.2244Y-1.0039
X2.2244Y-1.1039
T9
X2.3883Y-2.9882
X2.3883Y-3.0882
X2.3883Y-3.1882
X2.4883Y-2.9882
X2.4883Y-3.0882
X2.4883Y-3.1882
M30
