%TF.GenerationSoftware,KiCad,Pcbnew,8.0.1*%
%TF.CreationDate,2024-07-11T23:08:47-04:00*%
%TF.ProjectId,booster-tc-driver,626f6f73-7465-4722-9d74-632d64726976,rev?*%
%TF.SameCoordinates,Original*%
%TF.FileFunction,Legend,Bot*%
%TF.FilePolarity,Positive*%
%FSLAX46Y46*%
G04 Gerber Fmt 4.6, Leading zero omitted, Abs format (unit mm)*
G04 Created by KiCad (PCBNEW 8.0.1) date 2024-07-11 23:08:47*
%MOMM*%
%LPD*%
G01*
G04 APERTURE LIST*
%ADD10C,0.100000*%
%ADD11C,0.150000*%
%ADD12C,0.254000*%
%ADD13C,0.120000*%
%ADD14C,0.200000*%
%ADD15C,0.127000*%
G04 APERTURE END LIST*
D10*
X65300000Y-16000000D02*
X65300000Y-88000000D01*
X20000000Y-16000000D02*
X20000000Y-88000000D01*
D11*
X65989580Y-59619642D02*
X66037200Y-59572023D01*
X66037200Y-59572023D02*
X66084819Y-59429166D01*
X66084819Y-59429166D02*
X66084819Y-59333928D01*
X66084819Y-59333928D02*
X66037200Y-59191071D01*
X66037200Y-59191071D02*
X65941961Y-59095833D01*
X65941961Y-59095833D02*
X65846723Y-59048214D01*
X65846723Y-59048214D02*
X65656247Y-59000595D01*
X65656247Y-59000595D02*
X65513390Y-59000595D01*
X65513390Y-59000595D02*
X65322914Y-59048214D01*
X65322914Y-59048214D02*
X65227676Y-59095833D01*
X65227676Y-59095833D02*
X65132438Y-59191071D01*
X65132438Y-59191071D02*
X65084819Y-59333928D01*
X65084819Y-59333928D02*
X65084819Y-59429166D01*
X65084819Y-59429166D02*
X65132438Y-59572023D01*
X65132438Y-59572023D02*
X65180057Y-59619642D01*
X65084819Y-60476785D02*
X65084819Y-60286309D01*
X65084819Y-60286309D02*
X65132438Y-60191071D01*
X65132438Y-60191071D02*
X65180057Y-60143452D01*
X65180057Y-60143452D02*
X65322914Y-60048214D01*
X65322914Y-60048214D02*
X65513390Y-60000595D01*
X65513390Y-60000595D02*
X65894342Y-60000595D01*
X65894342Y-60000595D02*
X65989580Y-60048214D01*
X65989580Y-60048214D02*
X66037200Y-60095833D01*
X66037200Y-60095833D02*
X66084819Y-60191071D01*
X66084819Y-60191071D02*
X66084819Y-60381547D01*
X66084819Y-60381547D02*
X66037200Y-60476785D01*
X66037200Y-60476785D02*
X65989580Y-60524404D01*
X65989580Y-60524404D02*
X65894342Y-60572023D01*
X65894342Y-60572023D02*
X65656247Y-60572023D01*
X65656247Y-60572023D02*
X65561009Y-60524404D01*
X65561009Y-60524404D02*
X65513390Y-60476785D01*
X65513390Y-60476785D02*
X65465771Y-60381547D01*
X65465771Y-60381547D02*
X65465771Y-60191071D01*
X65465771Y-60191071D02*
X65513390Y-60095833D01*
X65513390Y-60095833D02*
X65561009Y-60048214D01*
X65561009Y-60048214D02*
X65656247Y-60000595D01*
X65084819Y-60905357D02*
X65084819Y-61524404D01*
X65084819Y-61524404D02*
X65465771Y-61191071D01*
X65465771Y-61191071D02*
X65465771Y-61333928D01*
X65465771Y-61333928D02*
X65513390Y-61429166D01*
X65513390Y-61429166D02*
X65561009Y-61476785D01*
X65561009Y-61476785D02*
X65656247Y-61524404D01*
X65656247Y-61524404D02*
X65894342Y-61524404D01*
X65894342Y-61524404D02*
X65989580Y-61476785D01*
X65989580Y-61476785D02*
X66037200Y-61429166D01*
X66037200Y-61429166D02*
X66084819Y-61333928D01*
X66084819Y-61333928D02*
X66084819Y-61048214D01*
X66084819Y-61048214D02*
X66037200Y-60952976D01*
X66037200Y-60952976D02*
X65989580Y-60905357D01*
X27142857Y-50709580D02*
X27190476Y-50757200D01*
X27190476Y-50757200D02*
X27333333Y-50804819D01*
X27333333Y-50804819D02*
X27428571Y-50804819D01*
X27428571Y-50804819D02*
X27571428Y-50757200D01*
X27571428Y-50757200D02*
X27666666Y-50661961D01*
X27666666Y-50661961D02*
X27714285Y-50566723D01*
X27714285Y-50566723D02*
X27761904Y-50376247D01*
X27761904Y-50376247D02*
X27761904Y-50233390D01*
X27761904Y-50233390D02*
X27714285Y-50042914D01*
X27714285Y-50042914D02*
X27666666Y-49947676D01*
X27666666Y-49947676D02*
X27571428Y-49852438D01*
X27571428Y-49852438D02*
X27428571Y-49804819D01*
X27428571Y-49804819D02*
X27333333Y-49804819D01*
X27333333Y-49804819D02*
X27190476Y-49852438D01*
X27190476Y-49852438D02*
X27142857Y-49900057D01*
X26285714Y-50138152D02*
X26285714Y-50804819D01*
X26523809Y-49757200D02*
X26761904Y-50471485D01*
X26761904Y-50471485D02*
X26142857Y-50471485D01*
X25809523Y-49900057D02*
X25761904Y-49852438D01*
X25761904Y-49852438D02*
X25666666Y-49804819D01*
X25666666Y-49804819D02*
X25428571Y-49804819D01*
X25428571Y-49804819D02*
X25333333Y-49852438D01*
X25333333Y-49852438D02*
X25285714Y-49900057D01*
X25285714Y-49900057D02*
X25238095Y-49995295D01*
X25238095Y-49995295D02*
X25238095Y-50090533D01*
X25238095Y-50090533D02*
X25285714Y-50233390D01*
X25285714Y-50233390D02*
X25857142Y-50804819D01*
X25857142Y-50804819D02*
X25238095Y-50804819D01*
D12*
X59489762Y-47599318D02*
X59489762Y-46329318D01*
X58159285Y-47478365D02*
X58219761Y-47538842D01*
X58219761Y-47538842D02*
X58401190Y-47599318D01*
X58401190Y-47599318D02*
X58522142Y-47599318D01*
X58522142Y-47599318D02*
X58703571Y-47538842D01*
X58703571Y-47538842D02*
X58824523Y-47417889D01*
X58824523Y-47417889D02*
X58885000Y-47296937D01*
X58885000Y-47296937D02*
X58945476Y-47055032D01*
X58945476Y-47055032D02*
X58945476Y-46873603D01*
X58945476Y-46873603D02*
X58885000Y-46631699D01*
X58885000Y-46631699D02*
X58824523Y-46510746D01*
X58824523Y-46510746D02*
X58703571Y-46389794D01*
X58703571Y-46389794D02*
X58522142Y-46329318D01*
X58522142Y-46329318D02*
X58401190Y-46329318D01*
X58401190Y-46329318D02*
X58219761Y-46389794D01*
X58219761Y-46389794D02*
X58159285Y-46450270D01*
X56949761Y-47599318D02*
X57675476Y-47599318D01*
X57312619Y-47599318D02*
X57312619Y-46329318D01*
X57312619Y-46329318D02*
X57433571Y-46510746D01*
X57433571Y-46510746D02*
X57554523Y-46631699D01*
X57554523Y-46631699D02*
X57675476Y-46692175D01*
D11*
X45554819Y-69833333D02*
X45078628Y-69500000D01*
X45554819Y-69261905D02*
X44554819Y-69261905D01*
X44554819Y-69261905D02*
X44554819Y-69642857D01*
X44554819Y-69642857D02*
X44602438Y-69738095D01*
X44602438Y-69738095D02*
X44650057Y-69785714D01*
X44650057Y-69785714D02*
X44745295Y-69833333D01*
X44745295Y-69833333D02*
X44888152Y-69833333D01*
X44888152Y-69833333D02*
X44983390Y-69785714D01*
X44983390Y-69785714D02*
X45031009Y-69738095D01*
X45031009Y-69738095D02*
X45078628Y-69642857D01*
X45078628Y-69642857D02*
X45078628Y-69261905D01*
X45554819Y-70309524D02*
X45554819Y-70500000D01*
X45554819Y-70500000D02*
X45507200Y-70595238D01*
X45507200Y-70595238D02*
X45459580Y-70642857D01*
X45459580Y-70642857D02*
X45316723Y-70738095D01*
X45316723Y-70738095D02*
X45126247Y-70785714D01*
X45126247Y-70785714D02*
X44745295Y-70785714D01*
X44745295Y-70785714D02*
X44650057Y-70738095D01*
X44650057Y-70738095D02*
X44602438Y-70690476D01*
X44602438Y-70690476D02*
X44554819Y-70595238D01*
X44554819Y-70595238D02*
X44554819Y-70404762D01*
X44554819Y-70404762D02*
X44602438Y-70309524D01*
X44602438Y-70309524D02*
X44650057Y-70261905D01*
X44650057Y-70261905D02*
X44745295Y-70214286D01*
X44745295Y-70214286D02*
X44983390Y-70214286D01*
X44983390Y-70214286D02*
X45078628Y-70261905D01*
X45078628Y-70261905D02*
X45126247Y-70309524D01*
X45126247Y-70309524D02*
X45173866Y-70404762D01*
X45173866Y-70404762D02*
X45173866Y-70595238D01*
X45173866Y-70595238D02*
X45126247Y-70690476D01*
X45126247Y-70690476D02*
X45078628Y-70738095D01*
X45078628Y-70738095D02*
X44983390Y-70785714D01*
X55142857Y-40259580D02*
X55190476Y-40307200D01*
X55190476Y-40307200D02*
X55333333Y-40354819D01*
X55333333Y-40354819D02*
X55428571Y-40354819D01*
X55428571Y-40354819D02*
X55571428Y-40307200D01*
X55571428Y-40307200D02*
X55666666Y-40211961D01*
X55666666Y-40211961D02*
X55714285Y-40116723D01*
X55714285Y-40116723D02*
X55761904Y-39926247D01*
X55761904Y-39926247D02*
X55761904Y-39783390D01*
X55761904Y-39783390D02*
X55714285Y-39592914D01*
X55714285Y-39592914D02*
X55666666Y-39497676D01*
X55666666Y-39497676D02*
X55571428Y-39402438D01*
X55571428Y-39402438D02*
X55428571Y-39354819D01*
X55428571Y-39354819D02*
X55333333Y-39354819D01*
X55333333Y-39354819D02*
X55190476Y-39402438D01*
X55190476Y-39402438D02*
X55142857Y-39450057D01*
X54761904Y-39450057D02*
X54714285Y-39402438D01*
X54714285Y-39402438D02*
X54619047Y-39354819D01*
X54619047Y-39354819D02*
X54380952Y-39354819D01*
X54380952Y-39354819D02*
X54285714Y-39402438D01*
X54285714Y-39402438D02*
X54238095Y-39450057D01*
X54238095Y-39450057D02*
X54190476Y-39545295D01*
X54190476Y-39545295D02*
X54190476Y-39640533D01*
X54190476Y-39640533D02*
X54238095Y-39783390D01*
X54238095Y-39783390D02*
X54809523Y-40354819D01*
X54809523Y-40354819D02*
X54190476Y-40354819D01*
X53619047Y-39783390D02*
X53714285Y-39735771D01*
X53714285Y-39735771D02*
X53761904Y-39688152D01*
X53761904Y-39688152D02*
X53809523Y-39592914D01*
X53809523Y-39592914D02*
X53809523Y-39545295D01*
X53809523Y-39545295D02*
X53761904Y-39450057D01*
X53761904Y-39450057D02*
X53714285Y-39402438D01*
X53714285Y-39402438D02*
X53619047Y-39354819D01*
X53619047Y-39354819D02*
X53428571Y-39354819D01*
X53428571Y-39354819D02*
X53333333Y-39402438D01*
X53333333Y-39402438D02*
X53285714Y-39450057D01*
X53285714Y-39450057D02*
X53238095Y-39545295D01*
X53238095Y-39545295D02*
X53238095Y-39592914D01*
X53238095Y-39592914D02*
X53285714Y-39688152D01*
X53285714Y-39688152D02*
X53333333Y-39735771D01*
X53333333Y-39735771D02*
X53428571Y-39783390D01*
X53428571Y-39783390D02*
X53619047Y-39783390D01*
X53619047Y-39783390D02*
X53714285Y-39831009D01*
X53714285Y-39831009D02*
X53761904Y-39878628D01*
X53761904Y-39878628D02*
X53809523Y-39973866D01*
X53809523Y-39973866D02*
X53809523Y-40164342D01*
X53809523Y-40164342D02*
X53761904Y-40259580D01*
X53761904Y-40259580D02*
X53714285Y-40307200D01*
X53714285Y-40307200D02*
X53619047Y-40354819D01*
X53619047Y-40354819D02*
X53428571Y-40354819D01*
X53428571Y-40354819D02*
X53333333Y-40307200D01*
X53333333Y-40307200D02*
X53285714Y-40259580D01*
X53285714Y-40259580D02*
X53238095Y-40164342D01*
X53238095Y-40164342D02*
X53238095Y-39973866D01*
X53238095Y-39973866D02*
X53285714Y-39878628D01*
X53285714Y-39878628D02*
X53333333Y-39831009D01*
X53333333Y-39831009D02*
X53428571Y-39783390D01*
X26039580Y-37057142D02*
X26087200Y-37009523D01*
X26087200Y-37009523D02*
X26134819Y-36866666D01*
X26134819Y-36866666D02*
X26134819Y-36771428D01*
X26134819Y-36771428D02*
X26087200Y-36628571D01*
X26087200Y-36628571D02*
X25991961Y-36533333D01*
X25991961Y-36533333D02*
X25896723Y-36485714D01*
X25896723Y-36485714D02*
X25706247Y-36438095D01*
X25706247Y-36438095D02*
X25563390Y-36438095D01*
X25563390Y-36438095D02*
X25372914Y-36485714D01*
X25372914Y-36485714D02*
X25277676Y-36533333D01*
X25277676Y-36533333D02*
X25182438Y-36628571D01*
X25182438Y-36628571D02*
X25134819Y-36771428D01*
X25134819Y-36771428D02*
X25134819Y-36866666D01*
X25134819Y-36866666D02*
X25182438Y-37009523D01*
X25182438Y-37009523D02*
X25230057Y-37057142D01*
X25134819Y-37390476D02*
X25134819Y-38009523D01*
X25134819Y-38009523D02*
X25515771Y-37676190D01*
X25515771Y-37676190D02*
X25515771Y-37819047D01*
X25515771Y-37819047D02*
X25563390Y-37914285D01*
X25563390Y-37914285D02*
X25611009Y-37961904D01*
X25611009Y-37961904D02*
X25706247Y-38009523D01*
X25706247Y-38009523D02*
X25944342Y-38009523D01*
X25944342Y-38009523D02*
X26039580Y-37961904D01*
X26039580Y-37961904D02*
X26087200Y-37914285D01*
X26087200Y-37914285D02*
X26134819Y-37819047D01*
X26134819Y-37819047D02*
X26134819Y-37533333D01*
X26134819Y-37533333D02*
X26087200Y-37438095D01*
X26087200Y-37438095D02*
X26039580Y-37390476D01*
X26134819Y-38485714D02*
X26134819Y-38676190D01*
X26134819Y-38676190D02*
X26087200Y-38771428D01*
X26087200Y-38771428D02*
X26039580Y-38819047D01*
X26039580Y-38819047D02*
X25896723Y-38914285D01*
X25896723Y-38914285D02*
X25706247Y-38961904D01*
X25706247Y-38961904D02*
X25325295Y-38961904D01*
X25325295Y-38961904D02*
X25230057Y-38914285D01*
X25230057Y-38914285D02*
X25182438Y-38866666D01*
X25182438Y-38866666D02*
X25134819Y-38771428D01*
X25134819Y-38771428D02*
X25134819Y-38580952D01*
X25134819Y-38580952D02*
X25182438Y-38485714D01*
X25182438Y-38485714D02*
X25230057Y-38438095D01*
X25230057Y-38438095D02*
X25325295Y-38390476D01*
X25325295Y-38390476D02*
X25563390Y-38390476D01*
X25563390Y-38390476D02*
X25658628Y-38438095D01*
X25658628Y-38438095D02*
X25706247Y-38485714D01*
X25706247Y-38485714D02*
X25753866Y-38580952D01*
X25753866Y-38580952D02*
X25753866Y-38771428D01*
X25753866Y-38771428D02*
X25706247Y-38866666D01*
X25706247Y-38866666D02*
X25658628Y-38914285D01*
X25658628Y-38914285D02*
X25563390Y-38961904D01*
X51392857Y-50359580D02*
X51440476Y-50407200D01*
X51440476Y-50407200D02*
X51583333Y-50454819D01*
X51583333Y-50454819D02*
X51678571Y-50454819D01*
X51678571Y-50454819D02*
X51821428Y-50407200D01*
X51821428Y-50407200D02*
X51916666Y-50311961D01*
X51916666Y-50311961D02*
X51964285Y-50216723D01*
X51964285Y-50216723D02*
X52011904Y-50026247D01*
X52011904Y-50026247D02*
X52011904Y-49883390D01*
X52011904Y-49883390D02*
X51964285Y-49692914D01*
X51964285Y-49692914D02*
X51916666Y-49597676D01*
X51916666Y-49597676D02*
X51821428Y-49502438D01*
X51821428Y-49502438D02*
X51678571Y-49454819D01*
X51678571Y-49454819D02*
X51583333Y-49454819D01*
X51583333Y-49454819D02*
X51440476Y-49502438D01*
X51440476Y-49502438D02*
X51392857Y-49550057D01*
X51011904Y-49550057D02*
X50964285Y-49502438D01*
X50964285Y-49502438D02*
X50869047Y-49454819D01*
X50869047Y-49454819D02*
X50630952Y-49454819D01*
X50630952Y-49454819D02*
X50535714Y-49502438D01*
X50535714Y-49502438D02*
X50488095Y-49550057D01*
X50488095Y-49550057D02*
X50440476Y-49645295D01*
X50440476Y-49645295D02*
X50440476Y-49740533D01*
X50440476Y-49740533D02*
X50488095Y-49883390D01*
X50488095Y-49883390D02*
X51059523Y-50454819D01*
X51059523Y-50454819D02*
X50440476Y-50454819D01*
X49583333Y-49788152D02*
X49583333Y-50454819D01*
X49821428Y-49407200D02*
X50059523Y-50121485D01*
X50059523Y-50121485D02*
X49440476Y-50121485D01*
X20929580Y-33357142D02*
X20977200Y-33309523D01*
X20977200Y-33309523D02*
X21024819Y-33166666D01*
X21024819Y-33166666D02*
X21024819Y-33071428D01*
X21024819Y-33071428D02*
X20977200Y-32928571D01*
X20977200Y-32928571D02*
X20881961Y-32833333D01*
X20881961Y-32833333D02*
X20786723Y-32785714D01*
X20786723Y-32785714D02*
X20596247Y-32738095D01*
X20596247Y-32738095D02*
X20453390Y-32738095D01*
X20453390Y-32738095D02*
X20262914Y-32785714D01*
X20262914Y-32785714D02*
X20167676Y-32833333D01*
X20167676Y-32833333D02*
X20072438Y-32928571D01*
X20072438Y-32928571D02*
X20024819Y-33071428D01*
X20024819Y-33071428D02*
X20024819Y-33166666D01*
X20024819Y-33166666D02*
X20072438Y-33309523D01*
X20072438Y-33309523D02*
X20120057Y-33357142D01*
X20024819Y-33690476D02*
X20024819Y-34309523D01*
X20024819Y-34309523D02*
X20405771Y-33976190D01*
X20405771Y-33976190D02*
X20405771Y-34119047D01*
X20405771Y-34119047D02*
X20453390Y-34214285D01*
X20453390Y-34214285D02*
X20501009Y-34261904D01*
X20501009Y-34261904D02*
X20596247Y-34309523D01*
X20596247Y-34309523D02*
X20834342Y-34309523D01*
X20834342Y-34309523D02*
X20929580Y-34261904D01*
X20929580Y-34261904D02*
X20977200Y-34214285D01*
X20977200Y-34214285D02*
X21024819Y-34119047D01*
X21024819Y-34119047D02*
X21024819Y-33833333D01*
X21024819Y-33833333D02*
X20977200Y-33738095D01*
X20977200Y-33738095D02*
X20929580Y-33690476D01*
X20024819Y-34642857D02*
X20024819Y-35309523D01*
X20024819Y-35309523D02*
X21024819Y-34880952D01*
D12*
X55739762Y-81324318D02*
X55739762Y-80054318D01*
X54409285Y-81203365D02*
X54469761Y-81263842D01*
X54469761Y-81263842D02*
X54651190Y-81324318D01*
X54651190Y-81324318D02*
X54772142Y-81324318D01*
X54772142Y-81324318D02*
X54953571Y-81263842D01*
X54953571Y-81263842D02*
X55074523Y-81142889D01*
X55074523Y-81142889D02*
X55135000Y-81021937D01*
X55135000Y-81021937D02*
X55195476Y-80780032D01*
X55195476Y-80780032D02*
X55195476Y-80598603D01*
X55195476Y-80598603D02*
X55135000Y-80356699D01*
X55135000Y-80356699D02*
X55074523Y-80235746D01*
X55074523Y-80235746D02*
X54953571Y-80114794D01*
X54953571Y-80114794D02*
X54772142Y-80054318D01*
X54772142Y-80054318D02*
X54651190Y-80054318D01*
X54651190Y-80054318D02*
X54469761Y-80114794D01*
X54469761Y-80114794D02*
X54409285Y-80175270D01*
X53320714Y-80477651D02*
X53320714Y-81324318D01*
X53623095Y-79993842D02*
X53925476Y-80900984D01*
X53925476Y-80900984D02*
X53139285Y-80900984D01*
D11*
X26449819Y-42763095D02*
X27259342Y-42763095D01*
X27259342Y-42763095D02*
X27354580Y-42810714D01*
X27354580Y-42810714D02*
X27402200Y-42858333D01*
X27402200Y-42858333D02*
X27449819Y-42953571D01*
X27449819Y-42953571D02*
X27449819Y-43144047D01*
X27449819Y-43144047D02*
X27402200Y-43239285D01*
X27402200Y-43239285D02*
X27354580Y-43286904D01*
X27354580Y-43286904D02*
X27259342Y-43334523D01*
X27259342Y-43334523D02*
X26449819Y-43334523D01*
X26449819Y-43715476D02*
X26449819Y-44382142D01*
X26449819Y-44382142D02*
X27449819Y-43953571D01*
X50809580Y-36857142D02*
X50857200Y-36809523D01*
X50857200Y-36809523D02*
X50904819Y-36666666D01*
X50904819Y-36666666D02*
X50904819Y-36571428D01*
X50904819Y-36571428D02*
X50857200Y-36428571D01*
X50857200Y-36428571D02*
X50761961Y-36333333D01*
X50761961Y-36333333D02*
X50666723Y-36285714D01*
X50666723Y-36285714D02*
X50476247Y-36238095D01*
X50476247Y-36238095D02*
X50333390Y-36238095D01*
X50333390Y-36238095D02*
X50142914Y-36285714D01*
X50142914Y-36285714D02*
X50047676Y-36333333D01*
X50047676Y-36333333D02*
X49952438Y-36428571D01*
X49952438Y-36428571D02*
X49904819Y-36571428D01*
X49904819Y-36571428D02*
X49904819Y-36666666D01*
X49904819Y-36666666D02*
X49952438Y-36809523D01*
X49952438Y-36809523D02*
X50000057Y-36857142D01*
X50238152Y-37714285D02*
X50904819Y-37714285D01*
X49857200Y-37476190D02*
X50571485Y-37238095D01*
X50571485Y-37238095D02*
X50571485Y-37857142D01*
X49904819Y-38142857D02*
X49904819Y-38809523D01*
X49904819Y-38809523D02*
X50904819Y-38380952D01*
X56392857Y-48509580D02*
X56440476Y-48557200D01*
X56440476Y-48557200D02*
X56583333Y-48604819D01*
X56583333Y-48604819D02*
X56678571Y-48604819D01*
X56678571Y-48604819D02*
X56821428Y-48557200D01*
X56821428Y-48557200D02*
X56916666Y-48461961D01*
X56916666Y-48461961D02*
X56964285Y-48366723D01*
X56964285Y-48366723D02*
X57011904Y-48176247D01*
X57011904Y-48176247D02*
X57011904Y-48033390D01*
X57011904Y-48033390D02*
X56964285Y-47842914D01*
X56964285Y-47842914D02*
X56916666Y-47747676D01*
X56916666Y-47747676D02*
X56821428Y-47652438D01*
X56821428Y-47652438D02*
X56678571Y-47604819D01*
X56678571Y-47604819D02*
X56583333Y-47604819D01*
X56583333Y-47604819D02*
X56440476Y-47652438D01*
X56440476Y-47652438D02*
X56392857Y-47700057D01*
X56011904Y-47700057D02*
X55964285Y-47652438D01*
X55964285Y-47652438D02*
X55869047Y-47604819D01*
X55869047Y-47604819D02*
X55630952Y-47604819D01*
X55630952Y-47604819D02*
X55535714Y-47652438D01*
X55535714Y-47652438D02*
X55488095Y-47700057D01*
X55488095Y-47700057D02*
X55440476Y-47795295D01*
X55440476Y-47795295D02*
X55440476Y-47890533D01*
X55440476Y-47890533D02*
X55488095Y-48033390D01*
X55488095Y-48033390D02*
X56059523Y-48604819D01*
X56059523Y-48604819D02*
X55440476Y-48604819D01*
X55107142Y-47604819D02*
X54440476Y-47604819D01*
X54440476Y-47604819D02*
X54869047Y-48604819D01*
X44166666Y-69929580D02*
X44214285Y-69977200D01*
X44214285Y-69977200D02*
X44357142Y-70024819D01*
X44357142Y-70024819D02*
X44452380Y-70024819D01*
X44452380Y-70024819D02*
X44595237Y-69977200D01*
X44595237Y-69977200D02*
X44690475Y-69881961D01*
X44690475Y-69881961D02*
X44738094Y-69786723D01*
X44738094Y-69786723D02*
X44785713Y-69596247D01*
X44785713Y-69596247D02*
X44785713Y-69453390D01*
X44785713Y-69453390D02*
X44738094Y-69262914D01*
X44738094Y-69262914D02*
X44690475Y-69167676D01*
X44690475Y-69167676D02*
X44595237Y-69072438D01*
X44595237Y-69072438D02*
X44452380Y-69024819D01*
X44452380Y-69024819D02*
X44357142Y-69024819D01*
X44357142Y-69024819D02*
X44214285Y-69072438D01*
X44214285Y-69072438D02*
X44166666Y-69120057D01*
X43833332Y-69024819D02*
X43166666Y-69024819D01*
X43166666Y-69024819D02*
X43595237Y-70024819D01*
D12*
X52271666Y-66074318D02*
X52876428Y-66074318D01*
X52876428Y-66074318D02*
X52876428Y-64804318D01*
X51304047Y-65227651D02*
X51304047Y-66074318D01*
X51606428Y-64743842D02*
X51908809Y-65650984D01*
X51908809Y-65650984D02*
X51122618Y-65650984D01*
D11*
X26488094Y-62204819D02*
X26488094Y-63014342D01*
X26488094Y-63014342D02*
X26440475Y-63109580D01*
X26440475Y-63109580D02*
X26392856Y-63157200D01*
X26392856Y-63157200D02*
X26297618Y-63204819D01*
X26297618Y-63204819D02*
X26107142Y-63204819D01*
X26107142Y-63204819D02*
X26011904Y-63157200D01*
X26011904Y-63157200D02*
X25964285Y-63109580D01*
X25964285Y-63109580D02*
X25916666Y-63014342D01*
X25916666Y-63014342D02*
X25916666Y-62204819D01*
X24916666Y-63204819D02*
X25488094Y-63204819D01*
X25202380Y-63204819D02*
X25202380Y-62204819D01*
X25202380Y-62204819D02*
X25297618Y-62347676D01*
X25297618Y-62347676D02*
X25392856Y-62442914D01*
X25392856Y-62442914D02*
X25488094Y-62490533D01*
X24297618Y-62204819D02*
X24202380Y-62204819D01*
X24202380Y-62204819D02*
X24107142Y-62252438D01*
X24107142Y-62252438D02*
X24059523Y-62300057D01*
X24059523Y-62300057D02*
X24011904Y-62395295D01*
X24011904Y-62395295D02*
X23964285Y-62585771D01*
X23964285Y-62585771D02*
X23964285Y-62823866D01*
X23964285Y-62823866D02*
X24011904Y-63014342D01*
X24011904Y-63014342D02*
X24059523Y-63109580D01*
X24059523Y-63109580D02*
X24107142Y-63157200D01*
X24107142Y-63157200D02*
X24202380Y-63204819D01*
X24202380Y-63204819D02*
X24297618Y-63204819D01*
X24297618Y-63204819D02*
X24392856Y-63157200D01*
X24392856Y-63157200D02*
X24440475Y-63109580D01*
X24440475Y-63109580D02*
X24488094Y-63014342D01*
X24488094Y-63014342D02*
X24535713Y-62823866D01*
X24535713Y-62823866D02*
X24535713Y-62585771D01*
X24535713Y-62585771D02*
X24488094Y-62395295D01*
X24488094Y-62395295D02*
X24440475Y-62300057D01*
X24440475Y-62300057D02*
X24392856Y-62252438D01*
X24392856Y-62252438D02*
X24297618Y-62204819D01*
X52524819Y-73107142D02*
X52048628Y-72773809D01*
X52524819Y-72535714D02*
X51524819Y-72535714D01*
X51524819Y-72535714D02*
X51524819Y-72916666D01*
X51524819Y-72916666D02*
X51572438Y-73011904D01*
X51572438Y-73011904D02*
X51620057Y-73059523D01*
X51620057Y-73059523D02*
X51715295Y-73107142D01*
X51715295Y-73107142D02*
X51858152Y-73107142D01*
X51858152Y-73107142D02*
X51953390Y-73059523D01*
X51953390Y-73059523D02*
X52001009Y-73011904D01*
X52001009Y-73011904D02*
X52048628Y-72916666D01*
X52048628Y-72916666D02*
X52048628Y-72535714D01*
X51620057Y-73488095D02*
X51572438Y-73535714D01*
X51572438Y-73535714D02*
X51524819Y-73630952D01*
X51524819Y-73630952D02*
X51524819Y-73869047D01*
X51524819Y-73869047D02*
X51572438Y-73964285D01*
X51572438Y-73964285D02*
X51620057Y-74011904D01*
X51620057Y-74011904D02*
X51715295Y-74059523D01*
X51715295Y-74059523D02*
X51810533Y-74059523D01*
X51810533Y-74059523D02*
X51953390Y-74011904D01*
X51953390Y-74011904D02*
X52524819Y-73440476D01*
X52524819Y-73440476D02*
X52524819Y-74059523D01*
X51524819Y-74916666D02*
X51524819Y-74726190D01*
X51524819Y-74726190D02*
X51572438Y-74630952D01*
X51572438Y-74630952D02*
X51620057Y-74583333D01*
X51620057Y-74583333D02*
X51762914Y-74488095D01*
X51762914Y-74488095D02*
X51953390Y-74440476D01*
X51953390Y-74440476D02*
X52334342Y-74440476D01*
X52334342Y-74440476D02*
X52429580Y-74488095D01*
X52429580Y-74488095D02*
X52477200Y-74535714D01*
X52477200Y-74535714D02*
X52524819Y-74630952D01*
X52524819Y-74630952D02*
X52524819Y-74821428D01*
X52524819Y-74821428D02*
X52477200Y-74916666D01*
X52477200Y-74916666D02*
X52429580Y-74964285D01*
X52429580Y-74964285D02*
X52334342Y-75011904D01*
X52334342Y-75011904D02*
X52096247Y-75011904D01*
X52096247Y-75011904D02*
X52001009Y-74964285D01*
X52001009Y-74964285D02*
X51953390Y-74916666D01*
X51953390Y-74916666D02*
X51905771Y-74821428D01*
X51905771Y-74821428D02*
X51905771Y-74630952D01*
X51905771Y-74630952D02*
X51953390Y-74535714D01*
X51953390Y-74535714D02*
X52001009Y-74488095D01*
X52001009Y-74488095D02*
X52096247Y-74440476D01*
X51081904Y-48854819D02*
X51081904Y-49664342D01*
X51081904Y-49664342D02*
X51034285Y-49759580D01*
X51034285Y-49759580D02*
X50986666Y-49807200D01*
X50986666Y-49807200D02*
X50891428Y-49854819D01*
X50891428Y-49854819D02*
X50700952Y-49854819D01*
X50700952Y-49854819D02*
X50605714Y-49807200D01*
X50605714Y-49807200D02*
X50558095Y-49759580D01*
X50558095Y-49759580D02*
X50510476Y-49664342D01*
X50510476Y-49664342D02*
X50510476Y-48854819D01*
X50081904Y-48950057D02*
X50034285Y-48902438D01*
X50034285Y-48902438D02*
X49939047Y-48854819D01*
X49939047Y-48854819D02*
X49700952Y-48854819D01*
X49700952Y-48854819D02*
X49605714Y-48902438D01*
X49605714Y-48902438D02*
X49558095Y-48950057D01*
X49558095Y-48950057D02*
X49510476Y-49045295D01*
X49510476Y-49045295D02*
X49510476Y-49140533D01*
X49510476Y-49140533D02*
X49558095Y-49283390D01*
X49558095Y-49283390D02*
X50129523Y-49854819D01*
X50129523Y-49854819D02*
X49510476Y-49854819D01*
X54054819Y-42107142D02*
X53578628Y-41773809D01*
X54054819Y-41535714D02*
X53054819Y-41535714D01*
X53054819Y-41535714D02*
X53054819Y-41916666D01*
X53054819Y-41916666D02*
X53102438Y-42011904D01*
X53102438Y-42011904D02*
X53150057Y-42059523D01*
X53150057Y-42059523D02*
X53245295Y-42107142D01*
X53245295Y-42107142D02*
X53388152Y-42107142D01*
X53388152Y-42107142D02*
X53483390Y-42059523D01*
X53483390Y-42059523D02*
X53531009Y-42011904D01*
X53531009Y-42011904D02*
X53578628Y-41916666D01*
X53578628Y-41916666D02*
X53578628Y-41535714D01*
X54054819Y-43059523D02*
X54054819Y-42488095D01*
X54054819Y-42773809D02*
X53054819Y-42773809D01*
X53054819Y-42773809D02*
X53197676Y-42678571D01*
X53197676Y-42678571D02*
X53292914Y-42583333D01*
X53292914Y-42583333D02*
X53340533Y-42488095D01*
X53150057Y-43440476D02*
X53102438Y-43488095D01*
X53102438Y-43488095D02*
X53054819Y-43583333D01*
X53054819Y-43583333D02*
X53054819Y-43821428D01*
X53054819Y-43821428D02*
X53102438Y-43916666D01*
X53102438Y-43916666D02*
X53150057Y-43964285D01*
X53150057Y-43964285D02*
X53245295Y-44011904D01*
X53245295Y-44011904D02*
X53340533Y-44011904D01*
X53340533Y-44011904D02*
X53483390Y-43964285D01*
X53483390Y-43964285D02*
X54054819Y-43392857D01*
X54054819Y-43392857D02*
X54054819Y-44011904D01*
X58642857Y-70679580D02*
X58690476Y-70727200D01*
X58690476Y-70727200D02*
X58833333Y-70774819D01*
X58833333Y-70774819D02*
X58928571Y-70774819D01*
X58928571Y-70774819D02*
X59071428Y-70727200D01*
X59071428Y-70727200D02*
X59166666Y-70631961D01*
X59166666Y-70631961D02*
X59214285Y-70536723D01*
X59214285Y-70536723D02*
X59261904Y-70346247D01*
X59261904Y-70346247D02*
X59261904Y-70203390D01*
X59261904Y-70203390D02*
X59214285Y-70012914D01*
X59214285Y-70012914D02*
X59166666Y-69917676D01*
X59166666Y-69917676D02*
X59071428Y-69822438D01*
X59071428Y-69822438D02*
X58928571Y-69774819D01*
X58928571Y-69774819D02*
X58833333Y-69774819D01*
X58833333Y-69774819D02*
X58690476Y-69822438D01*
X58690476Y-69822438D02*
X58642857Y-69870057D01*
X57690476Y-70774819D02*
X58261904Y-70774819D01*
X57976190Y-70774819D02*
X57976190Y-69774819D01*
X57976190Y-69774819D02*
X58071428Y-69917676D01*
X58071428Y-69917676D02*
X58166666Y-70012914D01*
X58166666Y-70012914D02*
X58261904Y-70060533D01*
X57071428Y-69774819D02*
X56976190Y-69774819D01*
X56976190Y-69774819D02*
X56880952Y-69822438D01*
X56880952Y-69822438D02*
X56833333Y-69870057D01*
X56833333Y-69870057D02*
X56785714Y-69965295D01*
X56785714Y-69965295D02*
X56738095Y-70155771D01*
X56738095Y-70155771D02*
X56738095Y-70393866D01*
X56738095Y-70393866D02*
X56785714Y-70584342D01*
X56785714Y-70584342D02*
X56833333Y-70679580D01*
X56833333Y-70679580D02*
X56880952Y-70727200D01*
X56880952Y-70727200D02*
X56976190Y-70774819D01*
X56976190Y-70774819D02*
X57071428Y-70774819D01*
X57071428Y-70774819D02*
X57166666Y-70727200D01*
X57166666Y-70727200D02*
X57214285Y-70679580D01*
X57214285Y-70679580D02*
X57261904Y-70584342D01*
X57261904Y-70584342D02*
X57309523Y-70393866D01*
X57309523Y-70393866D02*
X57309523Y-70155771D01*
X57309523Y-70155771D02*
X57261904Y-69965295D01*
X57261904Y-69965295D02*
X57214285Y-69870057D01*
X57214285Y-69870057D02*
X57166666Y-69822438D01*
X57166666Y-69822438D02*
X57071428Y-69774819D01*
X20304819Y-36857142D02*
X19828628Y-36523809D01*
X20304819Y-36285714D02*
X19304819Y-36285714D01*
X19304819Y-36285714D02*
X19304819Y-36666666D01*
X19304819Y-36666666D02*
X19352438Y-36761904D01*
X19352438Y-36761904D02*
X19400057Y-36809523D01*
X19400057Y-36809523D02*
X19495295Y-36857142D01*
X19495295Y-36857142D02*
X19638152Y-36857142D01*
X19638152Y-36857142D02*
X19733390Y-36809523D01*
X19733390Y-36809523D02*
X19781009Y-36761904D01*
X19781009Y-36761904D02*
X19828628Y-36666666D01*
X19828628Y-36666666D02*
X19828628Y-36285714D01*
X20304819Y-37809523D02*
X20304819Y-37238095D01*
X20304819Y-37523809D02*
X19304819Y-37523809D01*
X19304819Y-37523809D02*
X19447676Y-37428571D01*
X19447676Y-37428571D02*
X19542914Y-37333333D01*
X19542914Y-37333333D02*
X19590533Y-37238095D01*
X19304819Y-38666666D02*
X19304819Y-38476190D01*
X19304819Y-38476190D02*
X19352438Y-38380952D01*
X19352438Y-38380952D02*
X19400057Y-38333333D01*
X19400057Y-38333333D02*
X19542914Y-38238095D01*
X19542914Y-38238095D02*
X19733390Y-38190476D01*
X19733390Y-38190476D02*
X20114342Y-38190476D01*
X20114342Y-38190476D02*
X20209580Y-38238095D01*
X20209580Y-38238095D02*
X20257200Y-38285714D01*
X20257200Y-38285714D02*
X20304819Y-38380952D01*
X20304819Y-38380952D02*
X20304819Y-38571428D01*
X20304819Y-38571428D02*
X20257200Y-38666666D01*
X20257200Y-38666666D02*
X20209580Y-38714285D01*
X20209580Y-38714285D02*
X20114342Y-38761904D01*
X20114342Y-38761904D02*
X19876247Y-38761904D01*
X19876247Y-38761904D02*
X19781009Y-38714285D01*
X19781009Y-38714285D02*
X19733390Y-38666666D01*
X19733390Y-38666666D02*
X19685771Y-38571428D01*
X19685771Y-38571428D02*
X19685771Y-38380952D01*
X19685771Y-38380952D02*
X19733390Y-38285714D01*
X19733390Y-38285714D02*
X19781009Y-38238095D01*
X19781009Y-38238095D02*
X19876247Y-38190476D01*
X53679580Y-46107142D02*
X53727200Y-46059523D01*
X53727200Y-46059523D02*
X53774819Y-45916666D01*
X53774819Y-45916666D02*
X53774819Y-45821428D01*
X53774819Y-45821428D02*
X53727200Y-45678571D01*
X53727200Y-45678571D02*
X53631961Y-45583333D01*
X53631961Y-45583333D02*
X53536723Y-45535714D01*
X53536723Y-45535714D02*
X53346247Y-45488095D01*
X53346247Y-45488095D02*
X53203390Y-45488095D01*
X53203390Y-45488095D02*
X53012914Y-45535714D01*
X53012914Y-45535714D02*
X52917676Y-45583333D01*
X52917676Y-45583333D02*
X52822438Y-45678571D01*
X52822438Y-45678571D02*
X52774819Y-45821428D01*
X52774819Y-45821428D02*
X52774819Y-45916666D01*
X52774819Y-45916666D02*
X52822438Y-46059523D01*
X52822438Y-46059523D02*
X52870057Y-46107142D01*
X52774819Y-46440476D02*
X52774819Y-47059523D01*
X52774819Y-47059523D02*
X53155771Y-46726190D01*
X53155771Y-46726190D02*
X53155771Y-46869047D01*
X53155771Y-46869047D02*
X53203390Y-46964285D01*
X53203390Y-46964285D02*
X53251009Y-47011904D01*
X53251009Y-47011904D02*
X53346247Y-47059523D01*
X53346247Y-47059523D02*
X53584342Y-47059523D01*
X53584342Y-47059523D02*
X53679580Y-47011904D01*
X53679580Y-47011904D02*
X53727200Y-46964285D01*
X53727200Y-46964285D02*
X53774819Y-46869047D01*
X53774819Y-46869047D02*
X53774819Y-46583333D01*
X53774819Y-46583333D02*
X53727200Y-46488095D01*
X53727200Y-46488095D02*
X53679580Y-46440476D01*
X52774819Y-47678571D02*
X52774819Y-47773809D01*
X52774819Y-47773809D02*
X52822438Y-47869047D01*
X52822438Y-47869047D02*
X52870057Y-47916666D01*
X52870057Y-47916666D02*
X52965295Y-47964285D01*
X52965295Y-47964285D02*
X53155771Y-48011904D01*
X53155771Y-48011904D02*
X53393866Y-48011904D01*
X53393866Y-48011904D02*
X53584342Y-47964285D01*
X53584342Y-47964285D02*
X53679580Y-47916666D01*
X53679580Y-47916666D02*
X53727200Y-47869047D01*
X53727200Y-47869047D02*
X53774819Y-47773809D01*
X53774819Y-47773809D02*
X53774819Y-47678571D01*
X53774819Y-47678571D02*
X53727200Y-47583333D01*
X53727200Y-47583333D02*
X53679580Y-47535714D01*
X53679580Y-47535714D02*
X53584342Y-47488095D01*
X53584342Y-47488095D02*
X53393866Y-47440476D01*
X53393866Y-47440476D02*
X53155771Y-47440476D01*
X53155771Y-47440476D02*
X52965295Y-47488095D01*
X52965295Y-47488095D02*
X52870057Y-47535714D01*
X52870057Y-47535714D02*
X52822438Y-47583333D01*
X52822438Y-47583333D02*
X52774819Y-47678571D01*
X28289580Y-37144642D02*
X28337200Y-37097023D01*
X28337200Y-37097023D02*
X28384819Y-36954166D01*
X28384819Y-36954166D02*
X28384819Y-36858928D01*
X28384819Y-36858928D02*
X28337200Y-36716071D01*
X28337200Y-36716071D02*
X28241961Y-36620833D01*
X28241961Y-36620833D02*
X28146723Y-36573214D01*
X28146723Y-36573214D02*
X27956247Y-36525595D01*
X27956247Y-36525595D02*
X27813390Y-36525595D01*
X27813390Y-36525595D02*
X27622914Y-36573214D01*
X27622914Y-36573214D02*
X27527676Y-36620833D01*
X27527676Y-36620833D02*
X27432438Y-36716071D01*
X27432438Y-36716071D02*
X27384819Y-36858928D01*
X27384819Y-36858928D02*
X27384819Y-36954166D01*
X27384819Y-36954166D02*
X27432438Y-37097023D01*
X27432438Y-37097023D02*
X27480057Y-37144642D01*
X27384819Y-38001785D02*
X27384819Y-37811309D01*
X27384819Y-37811309D02*
X27432438Y-37716071D01*
X27432438Y-37716071D02*
X27480057Y-37668452D01*
X27480057Y-37668452D02*
X27622914Y-37573214D01*
X27622914Y-37573214D02*
X27813390Y-37525595D01*
X27813390Y-37525595D02*
X28194342Y-37525595D01*
X28194342Y-37525595D02*
X28289580Y-37573214D01*
X28289580Y-37573214D02*
X28337200Y-37620833D01*
X28337200Y-37620833D02*
X28384819Y-37716071D01*
X28384819Y-37716071D02*
X28384819Y-37906547D01*
X28384819Y-37906547D02*
X28337200Y-38001785D01*
X28337200Y-38001785D02*
X28289580Y-38049404D01*
X28289580Y-38049404D02*
X28194342Y-38097023D01*
X28194342Y-38097023D02*
X27956247Y-38097023D01*
X27956247Y-38097023D02*
X27861009Y-38049404D01*
X27861009Y-38049404D02*
X27813390Y-38001785D01*
X27813390Y-38001785D02*
X27765771Y-37906547D01*
X27765771Y-37906547D02*
X27765771Y-37716071D01*
X27765771Y-37716071D02*
X27813390Y-37620833D01*
X27813390Y-37620833D02*
X27861009Y-37573214D01*
X27861009Y-37573214D02*
X27956247Y-37525595D01*
X27480057Y-38477976D02*
X27432438Y-38525595D01*
X27432438Y-38525595D02*
X27384819Y-38620833D01*
X27384819Y-38620833D02*
X27384819Y-38858928D01*
X27384819Y-38858928D02*
X27432438Y-38954166D01*
X27432438Y-38954166D02*
X27480057Y-39001785D01*
X27480057Y-39001785D02*
X27575295Y-39049404D01*
X27575295Y-39049404D02*
X27670533Y-39049404D01*
X27670533Y-39049404D02*
X27813390Y-39001785D01*
X27813390Y-39001785D02*
X28384819Y-38430357D01*
X28384819Y-38430357D02*
X28384819Y-39049404D01*
X37409580Y-52833333D02*
X37457200Y-52785714D01*
X37457200Y-52785714D02*
X37504819Y-52642857D01*
X37504819Y-52642857D02*
X37504819Y-52547619D01*
X37504819Y-52547619D02*
X37457200Y-52404762D01*
X37457200Y-52404762D02*
X37361961Y-52309524D01*
X37361961Y-52309524D02*
X37266723Y-52261905D01*
X37266723Y-52261905D02*
X37076247Y-52214286D01*
X37076247Y-52214286D02*
X36933390Y-52214286D01*
X36933390Y-52214286D02*
X36742914Y-52261905D01*
X36742914Y-52261905D02*
X36647676Y-52309524D01*
X36647676Y-52309524D02*
X36552438Y-52404762D01*
X36552438Y-52404762D02*
X36504819Y-52547619D01*
X36504819Y-52547619D02*
X36504819Y-52642857D01*
X36504819Y-52642857D02*
X36552438Y-52785714D01*
X36552438Y-52785714D02*
X36600057Y-52833333D01*
X36600057Y-53214286D02*
X36552438Y-53261905D01*
X36552438Y-53261905D02*
X36504819Y-53357143D01*
X36504819Y-53357143D02*
X36504819Y-53595238D01*
X36504819Y-53595238D02*
X36552438Y-53690476D01*
X36552438Y-53690476D02*
X36600057Y-53738095D01*
X36600057Y-53738095D02*
X36695295Y-53785714D01*
X36695295Y-53785714D02*
X36790533Y-53785714D01*
X36790533Y-53785714D02*
X36933390Y-53738095D01*
X36933390Y-53738095D02*
X37504819Y-53166667D01*
X37504819Y-53166667D02*
X37504819Y-53785714D01*
X30704819Y-42785714D02*
X29704819Y-42785714D01*
X29704819Y-42785714D02*
X29704819Y-43023809D01*
X29704819Y-43023809D02*
X29752438Y-43166666D01*
X29752438Y-43166666D02*
X29847676Y-43261904D01*
X29847676Y-43261904D02*
X29942914Y-43309523D01*
X29942914Y-43309523D02*
X30133390Y-43357142D01*
X30133390Y-43357142D02*
X30276247Y-43357142D01*
X30276247Y-43357142D02*
X30466723Y-43309523D01*
X30466723Y-43309523D02*
X30561961Y-43261904D01*
X30561961Y-43261904D02*
X30657200Y-43166666D01*
X30657200Y-43166666D02*
X30704819Y-43023809D01*
X30704819Y-43023809D02*
X30704819Y-42785714D01*
X30704819Y-44309523D02*
X30704819Y-43738095D01*
X30704819Y-44023809D02*
X29704819Y-44023809D01*
X29704819Y-44023809D02*
X29847676Y-43928571D01*
X29847676Y-43928571D02*
X29942914Y-43833333D01*
X29942914Y-43833333D02*
X29990533Y-43738095D01*
X29704819Y-45214285D02*
X29704819Y-44738095D01*
X29704819Y-44738095D02*
X30181009Y-44690476D01*
X30181009Y-44690476D02*
X30133390Y-44738095D01*
X30133390Y-44738095D02*
X30085771Y-44833333D01*
X30085771Y-44833333D02*
X30085771Y-45071428D01*
X30085771Y-45071428D02*
X30133390Y-45166666D01*
X30133390Y-45166666D02*
X30181009Y-45214285D01*
X30181009Y-45214285D02*
X30276247Y-45261904D01*
X30276247Y-45261904D02*
X30514342Y-45261904D01*
X30514342Y-45261904D02*
X30609580Y-45214285D01*
X30609580Y-45214285D02*
X30657200Y-45166666D01*
X30657200Y-45166666D02*
X30704819Y-45071428D01*
X30704819Y-45071428D02*
X30704819Y-44833333D01*
X30704819Y-44833333D02*
X30657200Y-44738095D01*
X30657200Y-44738095D02*
X30609580Y-44690476D01*
X43454819Y-51035714D02*
X42454819Y-51035714D01*
X42454819Y-51035714D02*
X42454819Y-51273809D01*
X42454819Y-51273809D02*
X42502438Y-51416666D01*
X42502438Y-51416666D02*
X42597676Y-51511904D01*
X42597676Y-51511904D02*
X42692914Y-51559523D01*
X42692914Y-51559523D02*
X42883390Y-51607142D01*
X42883390Y-51607142D02*
X43026247Y-51607142D01*
X43026247Y-51607142D02*
X43216723Y-51559523D01*
X43216723Y-51559523D02*
X43311961Y-51511904D01*
X43311961Y-51511904D02*
X43407200Y-51416666D01*
X43407200Y-51416666D02*
X43454819Y-51273809D01*
X43454819Y-51273809D02*
X43454819Y-51035714D01*
X43454819Y-52559523D02*
X43454819Y-51988095D01*
X43454819Y-52273809D02*
X42454819Y-52273809D01*
X42454819Y-52273809D02*
X42597676Y-52178571D01*
X42597676Y-52178571D02*
X42692914Y-52083333D01*
X42692914Y-52083333D02*
X42740533Y-51988095D01*
X42788152Y-53416666D02*
X43454819Y-53416666D01*
X42407200Y-53178571D02*
X43121485Y-52940476D01*
X43121485Y-52940476D02*
X43121485Y-53559523D01*
X50774819Y-73107142D02*
X50298628Y-72773809D01*
X50774819Y-72535714D02*
X49774819Y-72535714D01*
X49774819Y-72535714D02*
X49774819Y-72916666D01*
X49774819Y-72916666D02*
X49822438Y-73011904D01*
X49822438Y-73011904D02*
X49870057Y-73059523D01*
X49870057Y-73059523D02*
X49965295Y-73107142D01*
X49965295Y-73107142D02*
X50108152Y-73107142D01*
X50108152Y-73107142D02*
X50203390Y-73059523D01*
X50203390Y-73059523D02*
X50251009Y-73011904D01*
X50251009Y-73011904D02*
X50298628Y-72916666D01*
X50298628Y-72916666D02*
X50298628Y-72535714D01*
X49870057Y-73488095D02*
X49822438Y-73535714D01*
X49822438Y-73535714D02*
X49774819Y-73630952D01*
X49774819Y-73630952D02*
X49774819Y-73869047D01*
X49774819Y-73869047D02*
X49822438Y-73964285D01*
X49822438Y-73964285D02*
X49870057Y-74011904D01*
X49870057Y-74011904D02*
X49965295Y-74059523D01*
X49965295Y-74059523D02*
X50060533Y-74059523D01*
X50060533Y-74059523D02*
X50203390Y-74011904D01*
X50203390Y-74011904D02*
X50774819Y-73440476D01*
X50774819Y-73440476D02*
X50774819Y-74059523D01*
X49774819Y-74392857D02*
X49774819Y-75059523D01*
X49774819Y-75059523D02*
X50774819Y-74630952D01*
X43959580Y-52083333D02*
X44007200Y-52035714D01*
X44007200Y-52035714D02*
X44054819Y-51892857D01*
X44054819Y-51892857D02*
X44054819Y-51797619D01*
X44054819Y-51797619D02*
X44007200Y-51654762D01*
X44007200Y-51654762D02*
X43911961Y-51559524D01*
X43911961Y-51559524D02*
X43816723Y-51511905D01*
X43816723Y-51511905D02*
X43626247Y-51464286D01*
X43626247Y-51464286D02*
X43483390Y-51464286D01*
X43483390Y-51464286D02*
X43292914Y-51511905D01*
X43292914Y-51511905D02*
X43197676Y-51559524D01*
X43197676Y-51559524D02*
X43102438Y-51654762D01*
X43102438Y-51654762D02*
X43054819Y-51797619D01*
X43054819Y-51797619D02*
X43054819Y-51892857D01*
X43054819Y-51892857D02*
X43102438Y-52035714D01*
X43102438Y-52035714D02*
X43150057Y-52083333D01*
X43054819Y-52940476D02*
X43054819Y-52750000D01*
X43054819Y-52750000D02*
X43102438Y-52654762D01*
X43102438Y-52654762D02*
X43150057Y-52607143D01*
X43150057Y-52607143D02*
X43292914Y-52511905D01*
X43292914Y-52511905D02*
X43483390Y-52464286D01*
X43483390Y-52464286D02*
X43864342Y-52464286D01*
X43864342Y-52464286D02*
X43959580Y-52511905D01*
X43959580Y-52511905D02*
X44007200Y-52559524D01*
X44007200Y-52559524D02*
X44054819Y-52654762D01*
X44054819Y-52654762D02*
X44054819Y-52845238D01*
X44054819Y-52845238D02*
X44007200Y-52940476D01*
X44007200Y-52940476D02*
X43959580Y-52988095D01*
X43959580Y-52988095D02*
X43864342Y-53035714D01*
X43864342Y-53035714D02*
X43626247Y-53035714D01*
X43626247Y-53035714D02*
X43531009Y-52988095D01*
X43531009Y-52988095D02*
X43483390Y-52940476D01*
X43483390Y-52940476D02*
X43435771Y-52845238D01*
X43435771Y-52845238D02*
X43435771Y-52654762D01*
X43435771Y-52654762D02*
X43483390Y-52559524D01*
X43483390Y-52559524D02*
X43531009Y-52511905D01*
X43531009Y-52511905D02*
X43626247Y-52464286D01*
X41409580Y-52357142D02*
X41457200Y-52309523D01*
X41457200Y-52309523D02*
X41504819Y-52166666D01*
X41504819Y-52166666D02*
X41504819Y-52071428D01*
X41504819Y-52071428D02*
X41457200Y-51928571D01*
X41457200Y-51928571D02*
X41361961Y-51833333D01*
X41361961Y-51833333D02*
X41266723Y-51785714D01*
X41266723Y-51785714D02*
X41076247Y-51738095D01*
X41076247Y-51738095D02*
X40933390Y-51738095D01*
X40933390Y-51738095D02*
X40742914Y-51785714D01*
X40742914Y-51785714D02*
X40647676Y-51833333D01*
X40647676Y-51833333D02*
X40552438Y-51928571D01*
X40552438Y-51928571D02*
X40504819Y-52071428D01*
X40504819Y-52071428D02*
X40504819Y-52166666D01*
X40504819Y-52166666D02*
X40552438Y-52309523D01*
X40552438Y-52309523D02*
X40600057Y-52357142D01*
X40838152Y-53214285D02*
X41504819Y-53214285D01*
X40457200Y-52976190D02*
X41171485Y-52738095D01*
X41171485Y-52738095D02*
X41171485Y-53357142D01*
X40504819Y-54166666D02*
X40504819Y-53976190D01*
X40504819Y-53976190D02*
X40552438Y-53880952D01*
X40552438Y-53880952D02*
X40600057Y-53833333D01*
X40600057Y-53833333D02*
X40742914Y-53738095D01*
X40742914Y-53738095D02*
X40933390Y-53690476D01*
X40933390Y-53690476D02*
X41314342Y-53690476D01*
X41314342Y-53690476D02*
X41409580Y-53738095D01*
X41409580Y-53738095D02*
X41457200Y-53785714D01*
X41457200Y-53785714D02*
X41504819Y-53880952D01*
X41504819Y-53880952D02*
X41504819Y-54071428D01*
X41504819Y-54071428D02*
X41457200Y-54166666D01*
X41457200Y-54166666D02*
X41409580Y-54214285D01*
X41409580Y-54214285D02*
X41314342Y-54261904D01*
X41314342Y-54261904D02*
X41076247Y-54261904D01*
X41076247Y-54261904D02*
X40981009Y-54214285D01*
X40981009Y-54214285D02*
X40933390Y-54166666D01*
X40933390Y-54166666D02*
X40885771Y-54071428D01*
X40885771Y-54071428D02*
X40885771Y-53880952D01*
X40885771Y-53880952D02*
X40933390Y-53785714D01*
X40933390Y-53785714D02*
X40981009Y-53738095D01*
X40981009Y-53738095D02*
X41076247Y-53690476D01*
X47474285Y-71564819D02*
X47474285Y-70564819D01*
X47474285Y-70564819D02*
X47236190Y-70564819D01*
X47236190Y-70564819D02*
X47093333Y-70612438D01*
X47093333Y-70612438D02*
X46998095Y-70707676D01*
X46998095Y-70707676D02*
X46950476Y-70802914D01*
X46950476Y-70802914D02*
X46902857Y-70993390D01*
X46902857Y-70993390D02*
X46902857Y-71136247D01*
X46902857Y-71136247D02*
X46950476Y-71326723D01*
X46950476Y-71326723D02*
X46998095Y-71421961D01*
X46998095Y-71421961D02*
X47093333Y-71517200D01*
X47093333Y-71517200D02*
X47236190Y-71564819D01*
X47236190Y-71564819D02*
X47474285Y-71564819D01*
X45950476Y-71564819D02*
X46521904Y-71564819D01*
X46236190Y-71564819D02*
X46236190Y-70564819D01*
X46236190Y-70564819D02*
X46331428Y-70707676D01*
X46331428Y-70707676D02*
X46426666Y-70802914D01*
X46426666Y-70802914D02*
X46521904Y-70850533D01*
X45331428Y-70564819D02*
X45236190Y-70564819D01*
X45236190Y-70564819D02*
X45140952Y-70612438D01*
X45140952Y-70612438D02*
X45093333Y-70660057D01*
X45093333Y-70660057D02*
X45045714Y-70755295D01*
X45045714Y-70755295D02*
X44998095Y-70945771D01*
X44998095Y-70945771D02*
X44998095Y-71183866D01*
X44998095Y-71183866D02*
X45045714Y-71374342D01*
X45045714Y-71374342D02*
X45093333Y-71469580D01*
X45093333Y-71469580D02*
X45140952Y-71517200D01*
X45140952Y-71517200D02*
X45236190Y-71564819D01*
X45236190Y-71564819D02*
X45331428Y-71564819D01*
X45331428Y-71564819D02*
X45426666Y-71517200D01*
X45426666Y-71517200D02*
X45474285Y-71469580D01*
X45474285Y-71469580D02*
X45521904Y-71374342D01*
X45521904Y-71374342D02*
X45569523Y-71183866D01*
X45569523Y-71183866D02*
X45569523Y-70945771D01*
X45569523Y-70945771D02*
X45521904Y-70755295D01*
X45521904Y-70755295D02*
X45474285Y-70660057D01*
X45474285Y-70660057D02*
X45426666Y-70612438D01*
X45426666Y-70612438D02*
X45331428Y-70564819D01*
X49024819Y-73107142D02*
X48548628Y-72773809D01*
X49024819Y-72535714D02*
X48024819Y-72535714D01*
X48024819Y-72535714D02*
X48024819Y-72916666D01*
X48024819Y-72916666D02*
X48072438Y-73011904D01*
X48072438Y-73011904D02*
X48120057Y-73059523D01*
X48120057Y-73059523D02*
X48215295Y-73107142D01*
X48215295Y-73107142D02*
X48358152Y-73107142D01*
X48358152Y-73107142D02*
X48453390Y-73059523D01*
X48453390Y-73059523D02*
X48501009Y-73011904D01*
X48501009Y-73011904D02*
X48548628Y-72916666D01*
X48548628Y-72916666D02*
X48548628Y-72535714D01*
X48120057Y-73488095D02*
X48072438Y-73535714D01*
X48072438Y-73535714D02*
X48024819Y-73630952D01*
X48024819Y-73630952D02*
X48024819Y-73869047D01*
X48024819Y-73869047D02*
X48072438Y-73964285D01*
X48072438Y-73964285D02*
X48120057Y-74011904D01*
X48120057Y-74011904D02*
X48215295Y-74059523D01*
X48215295Y-74059523D02*
X48310533Y-74059523D01*
X48310533Y-74059523D02*
X48453390Y-74011904D01*
X48453390Y-74011904D02*
X49024819Y-73440476D01*
X49024819Y-73440476D02*
X49024819Y-74059523D01*
X48024819Y-74964285D02*
X48024819Y-74488095D01*
X48024819Y-74488095D02*
X48501009Y-74440476D01*
X48501009Y-74440476D02*
X48453390Y-74488095D01*
X48453390Y-74488095D02*
X48405771Y-74583333D01*
X48405771Y-74583333D02*
X48405771Y-74821428D01*
X48405771Y-74821428D02*
X48453390Y-74916666D01*
X48453390Y-74916666D02*
X48501009Y-74964285D01*
X48501009Y-74964285D02*
X48596247Y-75011904D01*
X48596247Y-75011904D02*
X48834342Y-75011904D01*
X48834342Y-75011904D02*
X48929580Y-74964285D01*
X48929580Y-74964285D02*
X48977200Y-74916666D01*
X48977200Y-74916666D02*
X49024819Y-74821428D01*
X49024819Y-74821428D02*
X49024819Y-74583333D01*
X49024819Y-74583333D02*
X48977200Y-74488095D01*
X48977200Y-74488095D02*
X48929580Y-74440476D01*
X50142857Y-70179580D02*
X50190476Y-70227200D01*
X50190476Y-70227200D02*
X50333333Y-70274819D01*
X50333333Y-70274819D02*
X50428571Y-70274819D01*
X50428571Y-70274819D02*
X50571428Y-70227200D01*
X50571428Y-70227200D02*
X50666666Y-70131961D01*
X50666666Y-70131961D02*
X50714285Y-70036723D01*
X50714285Y-70036723D02*
X50761904Y-69846247D01*
X50761904Y-69846247D02*
X50761904Y-69703390D01*
X50761904Y-69703390D02*
X50714285Y-69512914D01*
X50714285Y-69512914D02*
X50666666Y-69417676D01*
X50666666Y-69417676D02*
X50571428Y-69322438D01*
X50571428Y-69322438D02*
X50428571Y-69274819D01*
X50428571Y-69274819D02*
X50333333Y-69274819D01*
X50333333Y-69274819D02*
X50190476Y-69322438D01*
X50190476Y-69322438D02*
X50142857Y-69370057D01*
X49190476Y-70274819D02*
X49761904Y-70274819D01*
X49476190Y-70274819D02*
X49476190Y-69274819D01*
X49476190Y-69274819D02*
X49571428Y-69417676D01*
X49571428Y-69417676D02*
X49666666Y-69512914D01*
X49666666Y-69512914D02*
X49761904Y-69560533D01*
X48857142Y-69274819D02*
X48238095Y-69274819D01*
X48238095Y-69274819D02*
X48571428Y-69655771D01*
X48571428Y-69655771D02*
X48428571Y-69655771D01*
X48428571Y-69655771D02*
X48333333Y-69703390D01*
X48333333Y-69703390D02*
X48285714Y-69751009D01*
X48285714Y-69751009D02*
X48238095Y-69846247D01*
X48238095Y-69846247D02*
X48238095Y-70084342D01*
X48238095Y-70084342D02*
X48285714Y-70179580D01*
X48285714Y-70179580D02*
X48333333Y-70227200D01*
X48333333Y-70227200D02*
X48428571Y-70274819D01*
X48428571Y-70274819D02*
X48714285Y-70274819D01*
X48714285Y-70274819D02*
X48809523Y-70227200D01*
X48809523Y-70227200D02*
X48857142Y-70179580D01*
X37209580Y-65357142D02*
X37257200Y-65309523D01*
X37257200Y-65309523D02*
X37304819Y-65166666D01*
X37304819Y-65166666D02*
X37304819Y-65071428D01*
X37304819Y-65071428D02*
X37257200Y-64928571D01*
X37257200Y-64928571D02*
X37161961Y-64833333D01*
X37161961Y-64833333D02*
X37066723Y-64785714D01*
X37066723Y-64785714D02*
X36876247Y-64738095D01*
X36876247Y-64738095D02*
X36733390Y-64738095D01*
X36733390Y-64738095D02*
X36542914Y-64785714D01*
X36542914Y-64785714D02*
X36447676Y-64833333D01*
X36447676Y-64833333D02*
X36352438Y-64928571D01*
X36352438Y-64928571D02*
X36304819Y-65071428D01*
X36304819Y-65071428D02*
X36304819Y-65166666D01*
X36304819Y-65166666D02*
X36352438Y-65309523D01*
X36352438Y-65309523D02*
X36400057Y-65357142D01*
X36304819Y-65690476D02*
X36304819Y-66309523D01*
X36304819Y-66309523D02*
X36685771Y-65976190D01*
X36685771Y-65976190D02*
X36685771Y-66119047D01*
X36685771Y-66119047D02*
X36733390Y-66214285D01*
X36733390Y-66214285D02*
X36781009Y-66261904D01*
X36781009Y-66261904D02*
X36876247Y-66309523D01*
X36876247Y-66309523D02*
X37114342Y-66309523D01*
X37114342Y-66309523D02*
X37209580Y-66261904D01*
X37209580Y-66261904D02*
X37257200Y-66214285D01*
X37257200Y-66214285D02*
X37304819Y-66119047D01*
X37304819Y-66119047D02*
X37304819Y-65833333D01*
X37304819Y-65833333D02*
X37257200Y-65738095D01*
X37257200Y-65738095D02*
X37209580Y-65690476D01*
X36400057Y-66690476D02*
X36352438Y-66738095D01*
X36352438Y-66738095D02*
X36304819Y-66833333D01*
X36304819Y-66833333D02*
X36304819Y-67071428D01*
X36304819Y-67071428D02*
X36352438Y-67166666D01*
X36352438Y-67166666D02*
X36400057Y-67214285D01*
X36400057Y-67214285D02*
X36495295Y-67261904D01*
X36495295Y-67261904D02*
X36590533Y-67261904D01*
X36590533Y-67261904D02*
X36733390Y-67214285D01*
X36733390Y-67214285D02*
X37304819Y-66642857D01*
X37304819Y-66642857D02*
X37304819Y-67261904D01*
X30354819Y-37107142D02*
X29878628Y-36773809D01*
X30354819Y-36535714D02*
X29354819Y-36535714D01*
X29354819Y-36535714D02*
X29354819Y-36916666D01*
X29354819Y-36916666D02*
X29402438Y-37011904D01*
X29402438Y-37011904D02*
X29450057Y-37059523D01*
X29450057Y-37059523D02*
X29545295Y-37107142D01*
X29545295Y-37107142D02*
X29688152Y-37107142D01*
X29688152Y-37107142D02*
X29783390Y-37059523D01*
X29783390Y-37059523D02*
X29831009Y-37011904D01*
X29831009Y-37011904D02*
X29878628Y-36916666D01*
X29878628Y-36916666D02*
X29878628Y-36535714D01*
X30354819Y-38059523D02*
X30354819Y-37488095D01*
X30354819Y-37773809D02*
X29354819Y-37773809D01*
X29354819Y-37773809D02*
X29497676Y-37678571D01*
X29497676Y-37678571D02*
X29592914Y-37583333D01*
X29592914Y-37583333D02*
X29640533Y-37488095D01*
X29783390Y-38630952D02*
X29735771Y-38535714D01*
X29735771Y-38535714D02*
X29688152Y-38488095D01*
X29688152Y-38488095D02*
X29592914Y-38440476D01*
X29592914Y-38440476D02*
X29545295Y-38440476D01*
X29545295Y-38440476D02*
X29450057Y-38488095D01*
X29450057Y-38488095D02*
X29402438Y-38535714D01*
X29402438Y-38535714D02*
X29354819Y-38630952D01*
X29354819Y-38630952D02*
X29354819Y-38821428D01*
X29354819Y-38821428D02*
X29402438Y-38916666D01*
X29402438Y-38916666D02*
X29450057Y-38964285D01*
X29450057Y-38964285D02*
X29545295Y-39011904D01*
X29545295Y-39011904D02*
X29592914Y-39011904D01*
X29592914Y-39011904D02*
X29688152Y-38964285D01*
X29688152Y-38964285D02*
X29735771Y-38916666D01*
X29735771Y-38916666D02*
X29783390Y-38821428D01*
X29783390Y-38821428D02*
X29783390Y-38630952D01*
X29783390Y-38630952D02*
X29831009Y-38535714D01*
X29831009Y-38535714D02*
X29878628Y-38488095D01*
X29878628Y-38488095D02*
X29973866Y-38440476D01*
X29973866Y-38440476D02*
X30164342Y-38440476D01*
X30164342Y-38440476D02*
X30259580Y-38488095D01*
X30259580Y-38488095D02*
X30307200Y-38535714D01*
X30307200Y-38535714D02*
X30354819Y-38630952D01*
X30354819Y-38630952D02*
X30354819Y-38821428D01*
X30354819Y-38821428D02*
X30307200Y-38916666D01*
X30307200Y-38916666D02*
X30259580Y-38964285D01*
X30259580Y-38964285D02*
X30164342Y-39011904D01*
X30164342Y-39011904D02*
X29973866Y-39011904D01*
X29973866Y-39011904D02*
X29878628Y-38964285D01*
X29878628Y-38964285D02*
X29831009Y-38916666D01*
X29831009Y-38916666D02*
X29783390Y-38821428D01*
X58909580Y-36857142D02*
X58957200Y-36809523D01*
X58957200Y-36809523D02*
X59004819Y-36666666D01*
X59004819Y-36666666D02*
X59004819Y-36571428D01*
X59004819Y-36571428D02*
X58957200Y-36428571D01*
X58957200Y-36428571D02*
X58861961Y-36333333D01*
X58861961Y-36333333D02*
X58766723Y-36285714D01*
X58766723Y-36285714D02*
X58576247Y-36238095D01*
X58576247Y-36238095D02*
X58433390Y-36238095D01*
X58433390Y-36238095D02*
X58242914Y-36285714D01*
X58242914Y-36285714D02*
X58147676Y-36333333D01*
X58147676Y-36333333D02*
X58052438Y-36428571D01*
X58052438Y-36428571D02*
X58004819Y-36571428D01*
X58004819Y-36571428D02*
X58004819Y-36666666D01*
X58004819Y-36666666D02*
X58052438Y-36809523D01*
X58052438Y-36809523D02*
X58100057Y-36857142D01*
X58338152Y-37714285D02*
X59004819Y-37714285D01*
X57957200Y-37476190D02*
X58671485Y-37238095D01*
X58671485Y-37238095D02*
X58671485Y-37857142D01*
X58433390Y-38380952D02*
X58385771Y-38285714D01*
X58385771Y-38285714D02*
X58338152Y-38238095D01*
X58338152Y-38238095D02*
X58242914Y-38190476D01*
X58242914Y-38190476D02*
X58195295Y-38190476D01*
X58195295Y-38190476D02*
X58100057Y-38238095D01*
X58100057Y-38238095D02*
X58052438Y-38285714D01*
X58052438Y-38285714D02*
X58004819Y-38380952D01*
X58004819Y-38380952D02*
X58004819Y-38571428D01*
X58004819Y-38571428D02*
X58052438Y-38666666D01*
X58052438Y-38666666D02*
X58100057Y-38714285D01*
X58100057Y-38714285D02*
X58195295Y-38761904D01*
X58195295Y-38761904D02*
X58242914Y-38761904D01*
X58242914Y-38761904D02*
X58338152Y-38714285D01*
X58338152Y-38714285D02*
X58385771Y-38666666D01*
X58385771Y-38666666D02*
X58433390Y-38571428D01*
X58433390Y-38571428D02*
X58433390Y-38380952D01*
X58433390Y-38380952D02*
X58481009Y-38285714D01*
X58481009Y-38285714D02*
X58528628Y-38238095D01*
X58528628Y-38238095D02*
X58623866Y-38190476D01*
X58623866Y-38190476D02*
X58814342Y-38190476D01*
X58814342Y-38190476D02*
X58909580Y-38238095D01*
X58909580Y-38238095D02*
X58957200Y-38285714D01*
X58957200Y-38285714D02*
X59004819Y-38380952D01*
X59004819Y-38380952D02*
X59004819Y-38571428D01*
X59004819Y-38571428D02*
X58957200Y-38666666D01*
X58957200Y-38666666D02*
X58909580Y-38714285D01*
X58909580Y-38714285D02*
X58814342Y-38761904D01*
X58814342Y-38761904D02*
X58623866Y-38761904D01*
X58623866Y-38761904D02*
X58528628Y-38714285D01*
X58528628Y-38714285D02*
X58481009Y-38666666D01*
X58481009Y-38666666D02*
X58433390Y-38571428D01*
X32559580Y-58857142D02*
X32607200Y-58809523D01*
X32607200Y-58809523D02*
X32654819Y-58666666D01*
X32654819Y-58666666D02*
X32654819Y-58571428D01*
X32654819Y-58571428D02*
X32607200Y-58428571D01*
X32607200Y-58428571D02*
X32511961Y-58333333D01*
X32511961Y-58333333D02*
X32416723Y-58285714D01*
X32416723Y-58285714D02*
X32226247Y-58238095D01*
X32226247Y-58238095D02*
X32083390Y-58238095D01*
X32083390Y-58238095D02*
X31892914Y-58285714D01*
X31892914Y-58285714D02*
X31797676Y-58333333D01*
X31797676Y-58333333D02*
X31702438Y-58428571D01*
X31702438Y-58428571D02*
X31654819Y-58571428D01*
X31654819Y-58571428D02*
X31654819Y-58666666D01*
X31654819Y-58666666D02*
X31702438Y-58809523D01*
X31702438Y-58809523D02*
X31750057Y-58857142D01*
X31750057Y-59238095D02*
X31702438Y-59285714D01*
X31702438Y-59285714D02*
X31654819Y-59380952D01*
X31654819Y-59380952D02*
X31654819Y-59619047D01*
X31654819Y-59619047D02*
X31702438Y-59714285D01*
X31702438Y-59714285D02*
X31750057Y-59761904D01*
X31750057Y-59761904D02*
X31845295Y-59809523D01*
X31845295Y-59809523D02*
X31940533Y-59809523D01*
X31940533Y-59809523D02*
X32083390Y-59761904D01*
X32083390Y-59761904D02*
X32654819Y-59190476D01*
X32654819Y-59190476D02*
X32654819Y-59809523D01*
X31654819Y-60428571D02*
X31654819Y-60523809D01*
X31654819Y-60523809D02*
X31702438Y-60619047D01*
X31702438Y-60619047D02*
X31750057Y-60666666D01*
X31750057Y-60666666D02*
X31845295Y-60714285D01*
X31845295Y-60714285D02*
X32035771Y-60761904D01*
X32035771Y-60761904D02*
X32273866Y-60761904D01*
X32273866Y-60761904D02*
X32464342Y-60714285D01*
X32464342Y-60714285D02*
X32559580Y-60666666D01*
X32559580Y-60666666D02*
X32607200Y-60619047D01*
X32607200Y-60619047D02*
X32654819Y-60523809D01*
X32654819Y-60523809D02*
X32654819Y-60428571D01*
X32654819Y-60428571D02*
X32607200Y-60333333D01*
X32607200Y-60333333D02*
X32559580Y-60285714D01*
X32559580Y-60285714D02*
X32464342Y-60238095D01*
X32464342Y-60238095D02*
X32273866Y-60190476D01*
X32273866Y-60190476D02*
X32035771Y-60190476D01*
X32035771Y-60190476D02*
X31845295Y-60238095D01*
X31845295Y-60238095D02*
X31750057Y-60285714D01*
X31750057Y-60285714D02*
X31702438Y-60333333D01*
X31702438Y-60333333D02*
X31654819Y-60428571D01*
X62409580Y-36857142D02*
X62457200Y-36809523D01*
X62457200Y-36809523D02*
X62504819Y-36666666D01*
X62504819Y-36666666D02*
X62504819Y-36571428D01*
X62504819Y-36571428D02*
X62457200Y-36428571D01*
X62457200Y-36428571D02*
X62361961Y-36333333D01*
X62361961Y-36333333D02*
X62266723Y-36285714D01*
X62266723Y-36285714D02*
X62076247Y-36238095D01*
X62076247Y-36238095D02*
X61933390Y-36238095D01*
X61933390Y-36238095D02*
X61742914Y-36285714D01*
X61742914Y-36285714D02*
X61647676Y-36333333D01*
X61647676Y-36333333D02*
X61552438Y-36428571D01*
X61552438Y-36428571D02*
X61504819Y-36571428D01*
X61504819Y-36571428D02*
X61504819Y-36666666D01*
X61504819Y-36666666D02*
X61552438Y-36809523D01*
X61552438Y-36809523D02*
X61600057Y-36857142D01*
X61838152Y-37714285D02*
X62504819Y-37714285D01*
X61457200Y-37476190D02*
X62171485Y-37238095D01*
X62171485Y-37238095D02*
X62171485Y-37857142D01*
X62504819Y-38285714D02*
X62504819Y-38476190D01*
X62504819Y-38476190D02*
X62457200Y-38571428D01*
X62457200Y-38571428D02*
X62409580Y-38619047D01*
X62409580Y-38619047D02*
X62266723Y-38714285D01*
X62266723Y-38714285D02*
X62076247Y-38761904D01*
X62076247Y-38761904D02*
X61695295Y-38761904D01*
X61695295Y-38761904D02*
X61600057Y-38714285D01*
X61600057Y-38714285D02*
X61552438Y-38666666D01*
X61552438Y-38666666D02*
X61504819Y-38571428D01*
X61504819Y-38571428D02*
X61504819Y-38380952D01*
X61504819Y-38380952D02*
X61552438Y-38285714D01*
X61552438Y-38285714D02*
X61600057Y-38238095D01*
X61600057Y-38238095D02*
X61695295Y-38190476D01*
X61695295Y-38190476D02*
X61933390Y-38190476D01*
X61933390Y-38190476D02*
X62028628Y-38238095D01*
X62028628Y-38238095D02*
X62076247Y-38285714D01*
X62076247Y-38285714D02*
X62123866Y-38380952D01*
X62123866Y-38380952D02*
X62123866Y-38571428D01*
X62123866Y-38571428D02*
X62076247Y-38666666D01*
X62076247Y-38666666D02*
X62028628Y-38714285D01*
X62028628Y-38714285D02*
X61933390Y-38761904D01*
X53030357Y-44039580D02*
X53077976Y-44087200D01*
X53077976Y-44087200D02*
X53220833Y-44134819D01*
X53220833Y-44134819D02*
X53316071Y-44134819D01*
X53316071Y-44134819D02*
X53458928Y-44087200D01*
X53458928Y-44087200D02*
X53554166Y-43991961D01*
X53554166Y-43991961D02*
X53601785Y-43896723D01*
X53601785Y-43896723D02*
X53649404Y-43706247D01*
X53649404Y-43706247D02*
X53649404Y-43563390D01*
X53649404Y-43563390D02*
X53601785Y-43372914D01*
X53601785Y-43372914D02*
X53554166Y-43277676D01*
X53554166Y-43277676D02*
X53458928Y-43182438D01*
X53458928Y-43182438D02*
X53316071Y-43134819D01*
X53316071Y-43134819D02*
X53220833Y-43134819D01*
X53220833Y-43134819D02*
X53077976Y-43182438D01*
X53077976Y-43182438D02*
X53030357Y-43230057D01*
X52697023Y-43134819D02*
X52077976Y-43134819D01*
X52077976Y-43134819D02*
X52411309Y-43515771D01*
X52411309Y-43515771D02*
X52268452Y-43515771D01*
X52268452Y-43515771D02*
X52173214Y-43563390D01*
X52173214Y-43563390D02*
X52125595Y-43611009D01*
X52125595Y-43611009D02*
X52077976Y-43706247D01*
X52077976Y-43706247D02*
X52077976Y-43944342D01*
X52077976Y-43944342D02*
X52125595Y-44039580D01*
X52125595Y-44039580D02*
X52173214Y-44087200D01*
X52173214Y-44087200D02*
X52268452Y-44134819D01*
X52268452Y-44134819D02*
X52554166Y-44134819D01*
X52554166Y-44134819D02*
X52649404Y-44087200D01*
X52649404Y-44087200D02*
X52697023Y-44039580D01*
X51125595Y-44134819D02*
X51697023Y-44134819D01*
X51411309Y-44134819D02*
X51411309Y-43134819D01*
X51411309Y-43134819D02*
X51506547Y-43277676D01*
X51506547Y-43277676D02*
X51601785Y-43372914D01*
X51601785Y-43372914D02*
X51697023Y-43420533D01*
X50142857Y-70289580D02*
X50190476Y-70337200D01*
X50190476Y-70337200D02*
X50333333Y-70384819D01*
X50333333Y-70384819D02*
X50428571Y-70384819D01*
X50428571Y-70384819D02*
X50571428Y-70337200D01*
X50571428Y-70337200D02*
X50666666Y-70241961D01*
X50666666Y-70241961D02*
X50714285Y-70146723D01*
X50714285Y-70146723D02*
X50761904Y-69956247D01*
X50761904Y-69956247D02*
X50761904Y-69813390D01*
X50761904Y-69813390D02*
X50714285Y-69622914D01*
X50714285Y-69622914D02*
X50666666Y-69527676D01*
X50666666Y-69527676D02*
X50571428Y-69432438D01*
X50571428Y-69432438D02*
X50428571Y-69384819D01*
X50428571Y-69384819D02*
X50333333Y-69384819D01*
X50333333Y-69384819D02*
X50190476Y-69432438D01*
X50190476Y-69432438D02*
X50142857Y-69480057D01*
X49809523Y-69384819D02*
X49190476Y-69384819D01*
X49190476Y-69384819D02*
X49523809Y-69765771D01*
X49523809Y-69765771D02*
X49380952Y-69765771D01*
X49380952Y-69765771D02*
X49285714Y-69813390D01*
X49285714Y-69813390D02*
X49238095Y-69861009D01*
X49238095Y-69861009D02*
X49190476Y-69956247D01*
X49190476Y-69956247D02*
X49190476Y-70194342D01*
X49190476Y-70194342D02*
X49238095Y-70289580D01*
X49238095Y-70289580D02*
X49285714Y-70337200D01*
X49285714Y-70337200D02*
X49380952Y-70384819D01*
X49380952Y-70384819D02*
X49666666Y-70384819D01*
X49666666Y-70384819D02*
X49761904Y-70337200D01*
X49761904Y-70337200D02*
X49809523Y-70289580D01*
X48619047Y-69813390D02*
X48714285Y-69765771D01*
X48714285Y-69765771D02*
X48761904Y-69718152D01*
X48761904Y-69718152D02*
X48809523Y-69622914D01*
X48809523Y-69622914D02*
X48809523Y-69575295D01*
X48809523Y-69575295D02*
X48761904Y-69480057D01*
X48761904Y-69480057D02*
X48714285Y-69432438D01*
X48714285Y-69432438D02*
X48619047Y-69384819D01*
X48619047Y-69384819D02*
X48428571Y-69384819D01*
X48428571Y-69384819D02*
X48333333Y-69432438D01*
X48333333Y-69432438D02*
X48285714Y-69480057D01*
X48285714Y-69480057D02*
X48238095Y-69575295D01*
X48238095Y-69575295D02*
X48238095Y-69622914D01*
X48238095Y-69622914D02*
X48285714Y-69718152D01*
X48285714Y-69718152D02*
X48333333Y-69765771D01*
X48333333Y-69765771D02*
X48428571Y-69813390D01*
X48428571Y-69813390D02*
X48619047Y-69813390D01*
X48619047Y-69813390D02*
X48714285Y-69861009D01*
X48714285Y-69861009D02*
X48761904Y-69908628D01*
X48761904Y-69908628D02*
X48809523Y-70003866D01*
X48809523Y-70003866D02*
X48809523Y-70194342D01*
X48809523Y-70194342D02*
X48761904Y-70289580D01*
X48761904Y-70289580D02*
X48714285Y-70337200D01*
X48714285Y-70337200D02*
X48619047Y-70384819D01*
X48619047Y-70384819D02*
X48428571Y-70384819D01*
X48428571Y-70384819D02*
X48333333Y-70337200D01*
X48333333Y-70337200D02*
X48285714Y-70289580D01*
X48285714Y-70289580D02*
X48238095Y-70194342D01*
X48238095Y-70194342D02*
X48238095Y-70003866D01*
X48238095Y-70003866D02*
X48285714Y-69908628D01*
X48285714Y-69908628D02*
X48333333Y-69861009D01*
X48333333Y-69861009D02*
X48428571Y-69813390D01*
X32209580Y-30357142D02*
X32257200Y-30309523D01*
X32257200Y-30309523D02*
X32304819Y-30166666D01*
X32304819Y-30166666D02*
X32304819Y-30071428D01*
X32304819Y-30071428D02*
X32257200Y-29928571D01*
X32257200Y-29928571D02*
X32161961Y-29833333D01*
X32161961Y-29833333D02*
X32066723Y-29785714D01*
X32066723Y-29785714D02*
X31876247Y-29738095D01*
X31876247Y-29738095D02*
X31733390Y-29738095D01*
X31733390Y-29738095D02*
X31542914Y-29785714D01*
X31542914Y-29785714D02*
X31447676Y-29833333D01*
X31447676Y-29833333D02*
X31352438Y-29928571D01*
X31352438Y-29928571D02*
X31304819Y-30071428D01*
X31304819Y-30071428D02*
X31304819Y-30166666D01*
X31304819Y-30166666D02*
X31352438Y-30309523D01*
X31352438Y-30309523D02*
X31400057Y-30357142D01*
X31638152Y-31214285D02*
X32304819Y-31214285D01*
X31257200Y-30976190D02*
X31971485Y-30738095D01*
X31971485Y-30738095D02*
X31971485Y-31357142D01*
X31304819Y-31928571D02*
X31304819Y-32023809D01*
X31304819Y-32023809D02*
X31352438Y-32119047D01*
X31352438Y-32119047D02*
X31400057Y-32166666D01*
X31400057Y-32166666D02*
X31495295Y-32214285D01*
X31495295Y-32214285D02*
X31685771Y-32261904D01*
X31685771Y-32261904D02*
X31923866Y-32261904D01*
X31923866Y-32261904D02*
X32114342Y-32214285D01*
X32114342Y-32214285D02*
X32209580Y-32166666D01*
X32209580Y-32166666D02*
X32257200Y-32119047D01*
X32257200Y-32119047D02*
X32304819Y-32023809D01*
X32304819Y-32023809D02*
X32304819Y-31928571D01*
X32304819Y-31928571D02*
X32257200Y-31833333D01*
X32257200Y-31833333D02*
X32209580Y-31785714D01*
X32209580Y-31785714D02*
X32114342Y-31738095D01*
X32114342Y-31738095D02*
X31923866Y-31690476D01*
X31923866Y-31690476D02*
X31685771Y-31690476D01*
X31685771Y-31690476D02*
X31495295Y-31738095D01*
X31495295Y-31738095D02*
X31400057Y-31785714D01*
X31400057Y-31785714D02*
X31352438Y-31833333D01*
X31352438Y-31833333D02*
X31304819Y-31928571D01*
X22804819Y-30357142D02*
X22328628Y-30023809D01*
X22804819Y-29785714D02*
X21804819Y-29785714D01*
X21804819Y-29785714D02*
X21804819Y-30166666D01*
X21804819Y-30166666D02*
X21852438Y-30261904D01*
X21852438Y-30261904D02*
X21900057Y-30309523D01*
X21900057Y-30309523D02*
X21995295Y-30357142D01*
X21995295Y-30357142D02*
X22138152Y-30357142D01*
X22138152Y-30357142D02*
X22233390Y-30309523D01*
X22233390Y-30309523D02*
X22281009Y-30261904D01*
X22281009Y-30261904D02*
X22328628Y-30166666D01*
X22328628Y-30166666D02*
X22328628Y-29785714D01*
X22804819Y-31309523D02*
X22804819Y-30738095D01*
X22804819Y-31023809D02*
X21804819Y-31023809D01*
X21804819Y-31023809D02*
X21947676Y-30928571D01*
X21947676Y-30928571D02*
X22042914Y-30833333D01*
X22042914Y-30833333D02*
X22090533Y-30738095D01*
X21804819Y-31642857D02*
X21804819Y-32309523D01*
X21804819Y-32309523D02*
X22804819Y-31880952D01*
X36809580Y-59333333D02*
X36857200Y-59285714D01*
X36857200Y-59285714D02*
X36904819Y-59142857D01*
X36904819Y-59142857D02*
X36904819Y-59047619D01*
X36904819Y-59047619D02*
X36857200Y-58904762D01*
X36857200Y-58904762D02*
X36761961Y-58809524D01*
X36761961Y-58809524D02*
X36666723Y-58761905D01*
X36666723Y-58761905D02*
X36476247Y-58714286D01*
X36476247Y-58714286D02*
X36333390Y-58714286D01*
X36333390Y-58714286D02*
X36142914Y-58761905D01*
X36142914Y-58761905D02*
X36047676Y-58809524D01*
X36047676Y-58809524D02*
X35952438Y-58904762D01*
X35952438Y-58904762D02*
X35904819Y-59047619D01*
X35904819Y-59047619D02*
X35904819Y-59142857D01*
X35904819Y-59142857D02*
X35952438Y-59285714D01*
X35952438Y-59285714D02*
X36000057Y-59333333D01*
X35904819Y-60238095D02*
X35904819Y-59761905D01*
X35904819Y-59761905D02*
X36381009Y-59714286D01*
X36381009Y-59714286D02*
X36333390Y-59761905D01*
X36333390Y-59761905D02*
X36285771Y-59857143D01*
X36285771Y-59857143D02*
X36285771Y-60095238D01*
X36285771Y-60095238D02*
X36333390Y-60190476D01*
X36333390Y-60190476D02*
X36381009Y-60238095D01*
X36381009Y-60238095D02*
X36476247Y-60285714D01*
X36476247Y-60285714D02*
X36714342Y-60285714D01*
X36714342Y-60285714D02*
X36809580Y-60238095D01*
X36809580Y-60238095D02*
X36857200Y-60190476D01*
X36857200Y-60190476D02*
X36904819Y-60095238D01*
X36904819Y-60095238D02*
X36904819Y-59857143D01*
X36904819Y-59857143D02*
X36857200Y-59761905D01*
X36857200Y-59761905D02*
X36809580Y-59714286D01*
X22642857Y-47304819D02*
X22976190Y-46828628D01*
X23214285Y-47304819D02*
X23214285Y-46304819D01*
X23214285Y-46304819D02*
X22833333Y-46304819D01*
X22833333Y-46304819D02*
X22738095Y-46352438D01*
X22738095Y-46352438D02*
X22690476Y-46400057D01*
X22690476Y-46400057D02*
X22642857Y-46495295D01*
X22642857Y-46495295D02*
X22642857Y-46638152D01*
X22642857Y-46638152D02*
X22690476Y-46733390D01*
X22690476Y-46733390D02*
X22738095Y-46781009D01*
X22738095Y-46781009D02*
X22833333Y-46828628D01*
X22833333Y-46828628D02*
X23214285Y-46828628D01*
X21690476Y-47304819D02*
X22261904Y-47304819D01*
X21976190Y-47304819D02*
X21976190Y-46304819D01*
X21976190Y-46304819D02*
X22071428Y-46447676D01*
X22071428Y-46447676D02*
X22166666Y-46542914D01*
X22166666Y-46542914D02*
X22261904Y-46590533D01*
X20785714Y-46304819D02*
X21261904Y-46304819D01*
X21261904Y-46304819D02*
X21309523Y-46781009D01*
X21309523Y-46781009D02*
X21261904Y-46733390D01*
X21261904Y-46733390D02*
X21166666Y-46685771D01*
X21166666Y-46685771D02*
X20928571Y-46685771D01*
X20928571Y-46685771D02*
X20833333Y-46733390D01*
X20833333Y-46733390D02*
X20785714Y-46781009D01*
X20785714Y-46781009D02*
X20738095Y-46876247D01*
X20738095Y-46876247D02*
X20738095Y-47114342D01*
X20738095Y-47114342D02*
X20785714Y-47209580D01*
X20785714Y-47209580D02*
X20833333Y-47257200D01*
X20833333Y-47257200D02*
X20928571Y-47304819D01*
X20928571Y-47304819D02*
X21166666Y-47304819D01*
X21166666Y-47304819D02*
X21261904Y-47257200D01*
X21261904Y-47257200D02*
X21309523Y-47209580D01*
X26142857Y-33009580D02*
X26190476Y-33057200D01*
X26190476Y-33057200D02*
X26333333Y-33104819D01*
X26333333Y-33104819D02*
X26428571Y-33104819D01*
X26428571Y-33104819D02*
X26571428Y-33057200D01*
X26571428Y-33057200D02*
X26666666Y-32961961D01*
X26666666Y-32961961D02*
X26714285Y-32866723D01*
X26714285Y-32866723D02*
X26761904Y-32676247D01*
X26761904Y-32676247D02*
X26761904Y-32533390D01*
X26761904Y-32533390D02*
X26714285Y-32342914D01*
X26714285Y-32342914D02*
X26666666Y-32247676D01*
X26666666Y-32247676D02*
X26571428Y-32152438D01*
X26571428Y-32152438D02*
X26428571Y-32104819D01*
X26428571Y-32104819D02*
X26333333Y-32104819D01*
X26333333Y-32104819D02*
X26190476Y-32152438D01*
X26190476Y-32152438D02*
X26142857Y-32200057D01*
X25285714Y-32438152D02*
X25285714Y-33104819D01*
X25523809Y-32057200D02*
X25761904Y-32771485D01*
X25761904Y-32771485D02*
X25142857Y-32771485D01*
X24238095Y-33104819D02*
X24809523Y-33104819D01*
X24523809Y-33104819D02*
X24523809Y-32104819D01*
X24523809Y-32104819D02*
X24619047Y-32247676D01*
X24619047Y-32247676D02*
X24714285Y-32342914D01*
X24714285Y-32342914D02*
X24809523Y-32390533D01*
D12*
X42574318Y-24010237D02*
X41304318Y-24010237D01*
X42453365Y-25340714D02*
X42513842Y-25280238D01*
X42513842Y-25280238D02*
X42574318Y-25098809D01*
X42574318Y-25098809D02*
X42574318Y-24977857D01*
X42574318Y-24977857D02*
X42513842Y-24796428D01*
X42513842Y-24796428D02*
X42392889Y-24675476D01*
X42392889Y-24675476D02*
X42271937Y-24614999D01*
X42271937Y-24614999D02*
X42030032Y-24554523D01*
X42030032Y-24554523D02*
X41848603Y-24554523D01*
X41848603Y-24554523D02*
X41606699Y-24614999D01*
X41606699Y-24614999D02*
X41485746Y-24675476D01*
X41485746Y-24675476D02*
X41364794Y-24796428D01*
X41364794Y-24796428D02*
X41304318Y-24977857D01*
X41304318Y-24977857D02*
X41304318Y-25098809D01*
X41304318Y-25098809D02*
X41364794Y-25280238D01*
X41364794Y-25280238D02*
X41425270Y-25340714D01*
X41304318Y-26489761D02*
X41304318Y-25884999D01*
X41304318Y-25884999D02*
X41909080Y-25824523D01*
X41909080Y-25824523D02*
X41848603Y-25884999D01*
X41848603Y-25884999D02*
X41788127Y-26005952D01*
X41788127Y-26005952D02*
X41788127Y-26308333D01*
X41788127Y-26308333D02*
X41848603Y-26429285D01*
X41848603Y-26429285D02*
X41909080Y-26489761D01*
X41909080Y-26489761D02*
X42030032Y-26550238D01*
X42030032Y-26550238D02*
X42332413Y-26550238D01*
X42332413Y-26550238D02*
X42453365Y-26489761D01*
X42453365Y-26489761D02*
X42513842Y-26429285D01*
X42513842Y-26429285D02*
X42574318Y-26308333D01*
X42574318Y-26308333D02*
X42574318Y-26005952D01*
X42574318Y-26005952D02*
X42513842Y-25884999D01*
X42513842Y-25884999D02*
X42453365Y-25824523D01*
D11*
X26142857Y-23259580D02*
X26190476Y-23307200D01*
X26190476Y-23307200D02*
X26333333Y-23354819D01*
X26333333Y-23354819D02*
X26428571Y-23354819D01*
X26428571Y-23354819D02*
X26571428Y-23307200D01*
X26571428Y-23307200D02*
X26666666Y-23211961D01*
X26666666Y-23211961D02*
X26714285Y-23116723D01*
X26714285Y-23116723D02*
X26761904Y-22926247D01*
X26761904Y-22926247D02*
X26761904Y-22783390D01*
X26761904Y-22783390D02*
X26714285Y-22592914D01*
X26714285Y-22592914D02*
X26666666Y-22497676D01*
X26666666Y-22497676D02*
X26571428Y-22402438D01*
X26571428Y-22402438D02*
X26428571Y-22354819D01*
X26428571Y-22354819D02*
X26333333Y-22354819D01*
X26333333Y-22354819D02*
X26190476Y-22402438D01*
X26190476Y-22402438D02*
X26142857Y-22450057D01*
X25238095Y-22354819D02*
X25714285Y-22354819D01*
X25714285Y-22354819D02*
X25761904Y-22831009D01*
X25761904Y-22831009D02*
X25714285Y-22783390D01*
X25714285Y-22783390D02*
X25619047Y-22735771D01*
X25619047Y-22735771D02*
X25380952Y-22735771D01*
X25380952Y-22735771D02*
X25285714Y-22783390D01*
X25285714Y-22783390D02*
X25238095Y-22831009D01*
X25238095Y-22831009D02*
X25190476Y-22926247D01*
X25190476Y-22926247D02*
X25190476Y-23164342D01*
X25190476Y-23164342D02*
X25238095Y-23259580D01*
X25238095Y-23259580D02*
X25285714Y-23307200D01*
X25285714Y-23307200D02*
X25380952Y-23354819D01*
X25380952Y-23354819D02*
X25619047Y-23354819D01*
X25619047Y-23354819D02*
X25714285Y-23307200D01*
X25714285Y-23307200D02*
X25761904Y-23259580D01*
X24238095Y-23354819D02*
X24809523Y-23354819D01*
X24523809Y-23354819D02*
X24523809Y-22354819D01*
X24523809Y-22354819D02*
X24619047Y-22497676D01*
X24619047Y-22497676D02*
X24714285Y-22592914D01*
X24714285Y-22592914D02*
X24809523Y-22640533D01*
D12*
X44324318Y-43978333D02*
X44324318Y-43373571D01*
X44324318Y-43373571D02*
X43054318Y-43373571D01*
X43054318Y-45006428D02*
X43054318Y-44401666D01*
X43054318Y-44401666D02*
X43659080Y-44341190D01*
X43659080Y-44341190D02*
X43598603Y-44401666D01*
X43598603Y-44401666D02*
X43538127Y-44522619D01*
X43538127Y-44522619D02*
X43538127Y-44825000D01*
X43538127Y-44825000D02*
X43598603Y-44945952D01*
X43598603Y-44945952D02*
X43659080Y-45006428D01*
X43659080Y-45006428D02*
X43780032Y-45066905D01*
X43780032Y-45066905D02*
X44082413Y-45066905D01*
X44082413Y-45066905D02*
X44203365Y-45006428D01*
X44203365Y-45006428D02*
X44263842Y-44945952D01*
X44263842Y-44945952D02*
X44324318Y-44825000D01*
X44324318Y-44825000D02*
X44324318Y-44522619D01*
X44324318Y-44522619D02*
X44263842Y-44401666D01*
X44263842Y-44401666D02*
X44203365Y-44341190D01*
D11*
X59066666Y-40554819D02*
X59399999Y-40078628D01*
X59638094Y-40554819D02*
X59638094Y-39554819D01*
X59638094Y-39554819D02*
X59257142Y-39554819D01*
X59257142Y-39554819D02*
X59161904Y-39602438D01*
X59161904Y-39602438D02*
X59114285Y-39650057D01*
X59114285Y-39650057D02*
X59066666Y-39745295D01*
X59066666Y-39745295D02*
X59066666Y-39888152D01*
X59066666Y-39888152D02*
X59114285Y-39983390D01*
X59114285Y-39983390D02*
X59161904Y-40031009D01*
X59161904Y-40031009D02*
X59257142Y-40078628D01*
X59257142Y-40078628D02*
X59638094Y-40078628D01*
X58685713Y-39650057D02*
X58638094Y-39602438D01*
X58638094Y-39602438D02*
X58542856Y-39554819D01*
X58542856Y-39554819D02*
X58304761Y-39554819D01*
X58304761Y-39554819D02*
X58209523Y-39602438D01*
X58209523Y-39602438D02*
X58161904Y-39650057D01*
X58161904Y-39650057D02*
X58114285Y-39745295D01*
X58114285Y-39745295D02*
X58114285Y-39840533D01*
X58114285Y-39840533D02*
X58161904Y-39983390D01*
X58161904Y-39983390D02*
X58733332Y-40554819D01*
X58733332Y-40554819D02*
X58114285Y-40554819D01*
X44854819Y-74083333D02*
X44378628Y-73750000D01*
X44854819Y-73511905D02*
X43854819Y-73511905D01*
X43854819Y-73511905D02*
X43854819Y-73892857D01*
X43854819Y-73892857D02*
X43902438Y-73988095D01*
X43902438Y-73988095D02*
X43950057Y-74035714D01*
X43950057Y-74035714D02*
X44045295Y-74083333D01*
X44045295Y-74083333D02*
X44188152Y-74083333D01*
X44188152Y-74083333D02*
X44283390Y-74035714D01*
X44283390Y-74035714D02*
X44331009Y-73988095D01*
X44331009Y-73988095D02*
X44378628Y-73892857D01*
X44378628Y-73892857D02*
X44378628Y-73511905D01*
X43854819Y-74416667D02*
X43854819Y-75083333D01*
X43854819Y-75083333D02*
X44854819Y-74654762D01*
D12*
X27574318Y-29760237D02*
X26304318Y-29760237D01*
X27453365Y-31090714D02*
X27513842Y-31030238D01*
X27513842Y-31030238D02*
X27574318Y-30848809D01*
X27574318Y-30848809D02*
X27574318Y-30727857D01*
X27574318Y-30727857D02*
X27513842Y-30546428D01*
X27513842Y-30546428D02*
X27392889Y-30425476D01*
X27392889Y-30425476D02*
X27271937Y-30364999D01*
X27271937Y-30364999D02*
X27030032Y-30304523D01*
X27030032Y-30304523D02*
X26848603Y-30304523D01*
X26848603Y-30304523D02*
X26606699Y-30364999D01*
X26606699Y-30364999D02*
X26485746Y-30425476D01*
X26485746Y-30425476D02*
X26364794Y-30546428D01*
X26364794Y-30546428D02*
X26304318Y-30727857D01*
X26304318Y-30727857D02*
X26304318Y-30848809D01*
X26304318Y-30848809D02*
X26364794Y-31030238D01*
X26364794Y-31030238D02*
X26425270Y-31090714D01*
X26425270Y-31574523D02*
X26364794Y-31634999D01*
X26364794Y-31634999D02*
X26304318Y-31755952D01*
X26304318Y-31755952D02*
X26304318Y-32058333D01*
X26304318Y-32058333D02*
X26364794Y-32179285D01*
X26364794Y-32179285D02*
X26425270Y-32239761D01*
X26425270Y-32239761D02*
X26546222Y-32300238D01*
X26546222Y-32300238D02*
X26667175Y-32300238D01*
X26667175Y-32300238D02*
X26848603Y-32239761D01*
X26848603Y-32239761D02*
X27574318Y-31514047D01*
X27574318Y-31514047D02*
X27574318Y-32300238D01*
D11*
X48892857Y-41054819D02*
X49226190Y-40578628D01*
X49464285Y-41054819D02*
X49464285Y-40054819D01*
X49464285Y-40054819D02*
X49083333Y-40054819D01*
X49083333Y-40054819D02*
X48988095Y-40102438D01*
X48988095Y-40102438D02*
X48940476Y-40150057D01*
X48940476Y-40150057D02*
X48892857Y-40245295D01*
X48892857Y-40245295D02*
X48892857Y-40388152D01*
X48892857Y-40388152D02*
X48940476Y-40483390D01*
X48940476Y-40483390D02*
X48988095Y-40531009D01*
X48988095Y-40531009D02*
X49083333Y-40578628D01*
X49083333Y-40578628D02*
X49464285Y-40578628D01*
X47940476Y-41054819D02*
X48511904Y-41054819D01*
X48226190Y-41054819D02*
X48226190Y-40054819D01*
X48226190Y-40054819D02*
X48321428Y-40197676D01*
X48321428Y-40197676D02*
X48416666Y-40292914D01*
X48416666Y-40292914D02*
X48511904Y-40340533D01*
X46988095Y-41054819D02*
X47559523Y-41054819D01*
X47273809Y-41054819D02*
X47273809Y-40054819D01*
X47273809Y-40054819D02*
X47369047Y-40197676D01*
X47369047Y-40197676D02*
X47464285Y-40292914D01*
X47464285Y-40292914D02*
X47559523Y-40340533D01*
X58666666Y-43054819D02*
X58999999Y-42578628D01*
X59238094Y-43054819D02*
X59238094Y-42054819D01*
X59238094Y-42054819D02*
X58857142Y-42054819D01*
X58857142Y-42054819D02*
X58761904Y-42102438D01*
X58761904Y-42102438D02*
X58714285Y-42150057D01*
X58714285Y-42150057D02*
X58666666Y-42245295D01*
X58666666Y-42245295D02*
X58666666Y-42388152D01*
X58666666Y-42388152D02*
X58714285Y-42483390D01*
X58714285Y-42483390D02*
X58761904Y-42531009D01*
X58761904Y-42531009D02*
X58857142Y-42578628D01*
X58857142Y-42578628D02*
X59238094Y-42578628D01*
X57714285Y-43054819D02*
X58285713Y-43054819D01*
X57999999Y-43054819D02*
X57999999Y-42054819D01*
X57999999Y-42054819D02*
X58095237Y-42197676D01*
X58095237Y-42197676D02*
X58190475Y-42292914D01*
X58190475Y-42292914D02*
X58285713Y-42340533D01*
X46978094Y-77344819D02*
X46978094Y-76344819D01*
X46978094Y-76344819D02*
X46739999Y-76344819D01*
X46739999Y-76344819D02*
X46597142Y-76392438D01*
X46597142Y-76392438D02*
X46501904Y-76487676D01*
X46501904Y-76487676D02*
X46454285Y-76582914D01*
X46454285Y-76582914D02*
X46406666Y-76773390D01*
X46406666Y-76773390D02*
X46406666Y-76916247D01*
X46406666Y-76916247D02*
X46454285Y-77106723D01*
X46454285Y-77106723D02*
X46501904Y-77201961D01*
X46501904Y-77201961D02*
X46597142Y-77297200D01*
X46597142Y-77297200D02*
X46739999Y-77344819D01*
X46739999Y-77344819D02*
X46978094Y-77344819D01*
X45930475Y-77344819D02*
X45739999Y-77344819D01*
X45739999Y-77344819D02*
X45644761Y-77297200D01*
X45644761Y-77297200D02*
X45597142Y-77249580D01*
X45597142Y-77249580D02*
X45501904Y-77106723D01*
X45501904Y-77106723D02*
X45454285Y-76916247D01*
X45454285Y-76916247D02*
X45454285Y-76535295D01*
X45454285Y-76535295D02*
X45501904Y-76440057D01*
X45501904Y-76440057D02*
X45549523Y-76392438D01*
X45549523Y-76392438D02*
X45644761Y-76344819D01*
X45644761Y-76344819D02*
X45835237Y-76344819D01*
X45835237Y-76344819D02*
X45930475Y-76392438D01*
X45930475Y-76392438D02*
X45978094Y-76440057D01*
X45978094Y-76440057D02*
X46025713Y-76535295D01*
X46025713Y-76535295D02*
X46025713Y-76773390D01*
X46025713Y-76773390D02*
X45978094Y-76868628D01*
X45978094Y-76868628D02*
X45930475Y-76916247D01*
X45930475Y-76916247D02*
X45835237Y-76963866D01*
X45835237Y-76963866D02*
X45644761Y-76963866D01*
X45644761Y-76963866D02*
X45549523Y-76916247D01*
X45549523Y-76916247D02*
X45501904Y-76868628D01*
X45501904Y-76868628D02*
X45454285Y-76773390D01*
X57416666Y-75959580D02*
X57464285Y-76007200D01*
X57464285Y-76007200D02*
X57607142Y-76054819D01*
X57607142Y-76054819D02*
X57702380Y-76054819D01*
X57702380Y-76054819D02*
X57845237Y-76007200D01*
X57845237Y-76007200D02*
X57940475Y-75911961D01*
X57940475Y-75911961D02*
X57988094Y-75816723D01*
X57988094Y-75816723D02*
X58035713Y-75626247D01*
X58035713Y-75626247D02*
X58035713Y-75483390D01*
X58035713Y-75483390D02*
X57988094Y-75292914D01*
X57988094Y-75292914D02*
X57940475Y-75197676D01*
X57940475Y-75197676D02*
X57845237Y-75102438D01*
X57845237Y-75102438D02*
X57702380Y-75054819D01*
X57702380Y-75054819D02*
X57607142Y-75054819D01*
X57607142Y-75054819D02*
X57464285Y-75102438D01*
X57464285Y-75102438D02*
X57416666Y-75150057D01*
X56845237Y-75483390D02*
X56940475Y-75435771D01*
X56940475Y-75435771D02*
X56988094Y-75388152D01*
X56988094Y-75388152D02*
X57035713Y-75292914D01*
X57035713Y-75292914D02*
X57035713Y-75245295D01*
X57035713Y-75245295D02*
X56988094Y-75150057D01*
X56988094Y-75150057D02*
X56940475Y-75102438D01*
X56940475Y-75102438D02*
X56845237Y-75054819D01*
X56845237Y-75054819D02*
X56654761Y-75054819D01*
X56654761Y-75054819D02*
X56559523Y-75102438D01*
X56559523Y-75102438D02*
X56511904Y-75150057D01*
X56511904Y-75150057D02*
X56464285Y-75245295D01*
X56464285Y-75245295D02*
X56464285Y-75292914D01*
X56464285Y-75292914D02*
X56511904Y-75388152D01*
X56511904Y-75388152D02*
X56559523Y-75435771D01*
X56559523Y-75435771D02*
X56654761Y-75483390D01*
X56654761Y-75483390D02*
X56845237Y-75483390D01*
X56845237Y-75483390D02*
X56940475Y-75531009D01*
X56940475Y-75531009D02*
X56988094Y-75578628D01*
X56988094Y-75578628D02*
X57035713Y-75673866D01*
X57035713Y-75673866D02*
X57035713Y-75864342D01*
X57035713Y-75864342D02*
X56988094Y-75959580D01*
X56988094Y-75959580D02*
X56940475Y-76007200D01*
X56940475Y-76007200D02*
X56845237Y-76054819D01*
X56845237Y-76054819D02*
X56654761Y-76054819D01*
X56654761Y-76054819D02*
X56559523Y-76007200D01*
X56559523Y-76007200D02*
X56511904Y-75959580D01*
X56511904Y-75959580D02*
X56464285Y-75864342D01*
X56464285Y-75864342D02*
X56464285Y-75673866D01*
X56464285Y-75673866D02*
X56511904Y-75578628D01*
X56511904Y-75578628D02*
X56559523Y-75531009D01*
X56559523Y-75531009D02*
X56654761Y-75483390D01*
X61309580Y-36857142D02*
X61357200Y-36809523D01*
X61357200Y-36809523D02*
X61404819Y-36666666D01*
X61404819Y-36666666D02*
X61404819Y-36571428D01*
X61404819Y-36571428D02*
X61357200Y-36428571D01*
X61357200Y-36428571D02*
X61261961Y-36333333D01*
X61261961Y-36333333D02*
X61166723Y-36285714D01*
X61166723Y-36285714D02*
X60976247Y-36238095D01*
X60976247Y-36238095D02*
X60833390Y-36238095D01*
X60833390Y-36238095D02*
X60642914Y-36285714D01*
X60642914Y-36285714D02*
X60547676Y-36333333D01*
X60547676Y-36333333D02*
X60452438Y-36428571D01*
X60452438Y-36428571D02*
X60404819Y-36571428D01*
X60404819Y-36571428D02*
X60404819Y-36666666D01*
X60404819Y-36666666D02*
X60452438Y-36809523D01*
X60452438Y-36809523D02*
X60500057Y-36857142D01*
X60500057Y-37238095D02*
X60452438Y-37285714D01*
X60452438Y-37285714D02*
X60404819Y-37380952D01*
X60404819Y-37380952D02*
X60404819Y-37619047D01*
X60404819Y-37619047D02*
X60452438Y-37714285D01*
X60452438Y-37714285D02*
X60500057Y-37761904D01*
X60500057Y-37761904D02*
X60595295Y-37809523D01*
X60595295Y-37809523D02*
X60690533Y-37809523D01*
X60690533Y-37809523D02*
X60833390Y-37761904D01*
X60833390Y-37761904D02*
X61404819Y-37190476D01*
X61404819Y-37190476D02*
X61404819Y-37809523D01*
X61404819Y-38285714D02*
X61404819Y-38476190D01*
X61404819Y-38476190D02*
X61357200Y-38571428D01*
X61357200Y-38571428D02*
X61309580Y-38619047D01*
X61309580Y-38619047D02*
X61166723Y-38714285D01*
X61166723Y-38714285D02*
X60976247Y-38761904D01*
X60976247Y-38761904D02*
X60595295Y-38761904D01*
X60595295Y-38761904D02*
X60500057Y-38714285D01*
X60500057Y-38714285D02*
X60452438Y-38666666D01*
X60452438Y-38666666D02*
X60404819Y-38571428D01*
X60404819Y-38571428D02*
X60404819Y-38380952D01*
X60404819Y-38380952D02*
X60452438Y-38285714D01*
X60452438Y-38285714D02*
X60500057Y-38238095D01*
X60500057Y-38238095D02*
X60595295Y-38190476D01*
X60595295Y-38190476D02*
X60833390Y-38190476D01*
X60833390Y-38190476D02*
X60928628Y-38238095D01*
X60928628Y-38238095D02*
X60976247Y-38285714D01*
X60976247Y-38285714D02*
X61023866Y-38380952D01*
X61023866Y-38380952D02*
X61023866Y-38571428D01*
X61023866Y-38571428D02*
X60976247Y-38666666D01*
X60976247Y-38666666D02*
X60928628Y-38714285D01*
X60928628Y-38714285D02*
X60833390Y-38761904D01*
X39709580Y-65357142D02*
X39757200Y-65309523D01*
X39757200Y-65309523D02*
X39804819Y-65166666D01*
X39804819Y-65166666D02*
X39804819Y-65071428D01*
X39804819Y-65071428D02*
X39757200Y-64928571D01*
X39757200Y-64928571D02*
X39661961Y-64833333D01*
X39661961Y-64833333D02*
X39566723Y-64785714D01*
X39566723Y-64785714D02*
X39376247Y-64738095D01*
X39376247Y-64738095D02*
X39233390Y-64738095D01*
X39233390Y-64738095D02*
X39042914Y-64785714D01*
X39042914Y-64785714D02*
X38947676Y-64833333D01*
X38947676Y-64833333D02*
X38852438Y-64928571D01*
X38852438Y-64928571D02*
X38804819Y-65071428D01*
X38804819Y-65071428D02*
X38804819Y-65166666D01*
X38804819Y-65166666D02*
X38852438Y-65309523D01*
X38852438Y-65309523D02*
X38900057Y-65357142D01*
X38804819Y-65690476D02*
X38804819Y-66309523D01*
X38804819Y-66309523D02*
X39185771Y-65976190D01*
X39185771Y-65976190D02*
X39185771Y-66119047D01*
X39185771Y-66119047D02*
X39233390Y-66214285D01*
X39233390Y-66214285D02*
X39281009Y-66261904D01*
X39281009Y-66261904D02*
X39376247Y-66309523D01*
X39376247Y-66309523D02*
X39614342Y-66309523D01*
X39614342Y-66309523D02*
X39709580Y-66261904D01*
X39709580Y-66261904D02*
X39757200Y-66214285D01*
X39757200Y-66214285D02*
X39804819Y-66119047D01*
X39804819Y-66119047D02*
X39804819Y-65833333D01*
X39804819Y-65833333D02*
X39757200Y-65738095D01*
X39757200Y-65738095D02*
X39709580Y-65690476D01*
X38804819Y-66642857D02*
X38804819Y-67261904D01*
X38804819Y-67261904D02*
X39185771Y-66928571D01*
X39185771Y-66928571D02*
X39185771Y-67071428D01*
X39185771Y-67071428D02*
X39233390Y-67166666D01*
X39233390Y-67166666D02*
X39281009Y-67214285D01*
X39281009Y-67214285D02*
X39376247Y-67261904D01*
X39376247Y-67261904D02*
X39614342Y-67261904D01*
X39614342Y-67261904D02*
X39709580Y-67214285D01*
X39709580Y-67214285D02*
X39757200Y-67166666D01*
X39757200Y-67166666D02*
X39804819Y-67071428D01*
X39804819Y-67071428D02*
X39804819Y-66785714D01*
X39804819Y-66785714D02*
X39757200Y-66690476D01*
X39757200Y-66690476D02*
X39709580Y-66642857D01*
X50892857Y-31509580D02*
X50940476Y-31557200D01*
X50940476Y-31557200D02*
X51083333Y-31604819D01*
X51083333Y-31604819D02*
X51178571Y-31604819D01*
X51178571Y-31604819D02*
X51321428Y-31557200D01*
X51321428Y-31557200D02*
X51416666Y-31461961D01*
X51416666Y-31461961D02*
X51464285Y-31366723D01*
X51464285Y-31366723D02*
X51511904Y-31176247D01*
X51511904Y-31176247D02*
X51511904Y-31033390D01*
X51511904Y-31033390D02*
X51464285Y-30842914D01*
X51464285Y-30842914D02*
X51416666Y-30747676D01*
X51416666Y-30747676D02*
X51321428Y-30652438D01*
X51321428Y-30652438D02*
X51178571Y-30604819D01*
X51178571Y-30604819D02*
X51083333Y-30604819D01*
X51083333Y-30604819D02*
X50940476Y-30652438D01*
X50940476Y-30652438D02*
X50892857Y-30700057D01*
X49988095Y-30604819D02*
X50464285Y-30604819D01*
X50464285Y-30604819D02*
X50511904Y-31081009D01*
X50511904Y-31081009D02*
X50464285Y-31033390D01*
X50464285Y-31033390D02*
X50369047Y-30985771D01*
X50369047Y-30985771D02*
X50130952Y-30985771D01*
X50130952Y-30985771D02*
X50035714Y-31033390D01*
X50035714Y-31033390D02*
X49988095Y-31081009D01*
X49988095Y-31081009D02*
X49940476Y-31176247D01*
X49940476Y-31176247D02*
X49940476Y-31414342D01*
X49940476Y-31414342D02*
X49988095Y-31509580D01*
X49988095Y-31509580D02*
X50035714Y-31557200D01*
X50035714Y-31557200D02*
X50130952Y-31604819D01*
X50130952Y-31604819D02*
X50369047Y-31604819D01*
X50369047Y-31604819D02*
X50464285Y-31557200D01*
X50464285Y-31557200D02*
X50511904Y-31509580D01*
X49559523Y-30700057D02*
X49511904Y-30652438D01*
X49511904Y-30652438D02*
X49416666Y-30604819D01*
X49416666Y-30604819D02*
X49178571Y-30604819D01*
X49178571Y-30604819D02*
X49083333Y-30652438D01*
X49083333Y-30652438D02*
X49035714Y-30700057D01*
X49035714Y-30700057D02*
X48988095Y-30795295D01*
X48988095Y-30795295D02*
X48988095Y-30890533D01*
X48988095Y-30890533D02*
X49035714Y-31033390D01*
X49035714Y-31033390D02*
X49607142Y-31604819D01*
X49607142Y-31604819D02*
X48988095Y-31604819D01*
X53642857Y-70604819D02*
X53976190Y-70128628D01*
X54214285Y-70604819D02*
X54214285Y-69604819D01*
X54214285Y-69604819D02*
X53833333Y-69604819D01*
X53833333Y-69604819D02*
X53738095Y-69652438D01*
X53738095Y-69652438D02*
X53690476Y-69700057D01*
X53690476Y-69700057D02*
X53642857Y-69795295D01*
X53642857Y-69795295D02*
X53642857Y-69938152D01*
X53642857Y-69938152D02*
X53690476Y-70033390D01*
X53690476Y-70033390D02*
X53738095Y-70081009D01*
X53738095Y-70081009D02*
X53833333Y-70128628D01*
X53833333Y-70128628D02*
X54214285Y-70128628D01*
X53309523Y-69604819D02*
X52690476Y-69604819D01*
X52690476Y-69604819D02*
X53023809Y-69985771D01*
X53023809Y-69985771D02*
X52880952Y-69985771D01*
X52880952Y-69985771D02*
X52785714Y-70033390D01*
X52785714Y-70033390D02*
X52738095Y-70081009D01*
X52738095Y-70081009D02*
X52690476Y-70176247D01*
X52690476Y-70176247D02*
X52690476Y-70414342D01*
X52690476Y-70414342D02*
X52738095Y-70509580D01*
X52738095Y-70509580D02*
X52785714Y-70557200D01*
X52785714Y-70557200D02*
X52880952Y-70604819D01*
X52880952Y-70604819D02*
X53166666Y-70604819D01*
X53166666Y-70604819D02*
X53261904Y-70557200D01*
X53261904Y-70557200D02*
X53309523Y-70509580D01*
X51833333Y-69938152D02*
X51833333Y-70604819D01*
X52071428Y-69557200D02*
X52309523Y-70271485D01*
X52309523Y-70271485D02*
X51690476Y-70271485D01*
X53642857Y-73104819D02*
X53976190Y-72628628D01*
X54214285Y-73104819D02*
X54214285Y-72104819D01*
X54214285Y-72104819D02*
X53833333Y-72104819D01*
X53833333Y-72104819D02*
X53738095Y-72152438D01*
X53738095Y-72152438D02*
X53690476Y-72200057D01*
X53690476Y-72200057D02*
X53642857Y-72295295D01*
X53642857Y-72295295D02*
X53642857Y-72438152D01*
X53642857Y-72438152D02*
X53690476Y-72533390D01*
X53690476Y-72533390D02*
X53738095Y-72581009D01*
X53738095Y-72581009D02*
X53833333Y-72628628D01*
X53833333Y-72628628D02*
X54214285Y-72628628D01*
X53309523Y-72104819D02*
X52690476Y-72104819D01*
X52690476Y-72104819D02*
X53023809Y-72485771D01*
X53023809Y-72485771D02*
X52880952Y-72485771D01*
X52880952Y-72485771D02*
X52785714Y-72533390D01*
X52785714Y-72533390D02*
X52738095Y-72581009D01*
X52738095Y-72581009D02*
X52690476Y-72676247D01*
X52690476Y-72676247D02*
X52690476Y-72914342D01*
X52690476Y-72914342D02*
X52738095Y-73009580D01*
X52738095Y-73009580D02*
X52785714Y-73057200D01*
X52785714Y-73057200D02*
X52880952Y-73104819D01*
X52880952Y-73104819D02*
X53166666Y-73104819D01*
X53166666Y-73104819D02*
X53261904Y-73057200D01*
X53261904Y-73057200D02*
X53309523Y-73009580D01*
X52357142Y-72104819D02*
X51738095Y-72104819D01*
X51738095Y-72104819D02*
X52071428Y-72485771D01*
X52071428Y-72485771D02*
X51928571Y-72485771D01*
X51928571Y-72485771D02*
X51833333Y-72533390D01*
X51833333Y-72533390D02*
X51785714Y-72581009D01*
X51785714Y-72581009D02*
X51738095Y-72676247D01*
X51738095Y-72676247D02*
X51738095Y-72914342D01*
X51738095Y-72914342D02*
X51785714Y-73009580D01*
X51785714Y-73009580D02*
X51833333Y-73057200D01*
X51833333Y-73057200D02*
X51928571Y-73104819D01*
X51928571Y-73104819D02*
X52214285Y-73104819D01*
X52214285Y-73104819D02*
X52309523Y-73057200D01*
X52309523Y-73057200D02*
X52357142Y-73009580D01*
D12*
X27519762Y-57139318D02*
X27519762Y-55869318D01*
X26189285Y-57018365D02*
X26249761Y-57078842D01*
X26249761Y-57078842D02*
X26431190Y-57139318D01*
X26431190Y-57139318D02*
X26552142Y-57139318D01*
X26552142Y-57139318D02*
X26733571Y-57078842D01*
X26733571Y-57078842D02*
X26854523Y-56957889D01*
X26854523Y-56957889D02*
X26915000Y-56836937D01*
X26915000Y-56836937D02*
X26975476Y-56595032D01*
X26975476Y-56595032D02*
X26975476Y-56413603D01*
X26975476Y-56413603D02*
X26915000Y-56171699D01*
X26915000Y-56171699D02*
X26854523Y-56050746D01*
X26854523Y-56050746D02*
X26733571Y-55929794D01*
X26733571Y-55929794D02*
X26552142Y-55869318D01*
X26552142Y-55869318D02*
X26431190Y-55869318D01*
X26431190Y-55869318D02*
X26249761Y-55929794D01*
X26249761Y-55929794D02*
X26189285Y-55990270D01*
X25765952Y-55869318D02*
X24979761Y-55869318D01*
X24979761Y-55869318D02*
X25403095Y-56353127D01*
X25403095Y-56353127D02*
X25221666Y-56353127D01*
X25221666Y-56353127D02*
X25100714Y-56413603D01*
X25100714Y-56413603D02*
X25040238Y-56474080D01*
X25040238Y-56474080D02*
X24979761Y-56595032D01*
X24979761Y-56595032D02*
X24979761Y-56897413D01*
X24979761Y-56897413D02*
X25040238Y-57018365D01*
X25040238Y-57018365D02*
X25100714Y-57078842D01*
X25100714Y-57078842D02*
X25221666Y-57139318D01*
X25221666Y-57139318D02*
X25584523Y-57139318D01*
X25584523Y-57139318D02*
X25705476Y-57078842D01*
X25705476Y-57078842D02*
X25765952Y-57018365D01*
D11*
X60259580Y-45607142D02*
X60307200Y-45559523D01*
X60307200Y-45559523D02*
X60354819Y-45416666D01*
X60354819Y-45416666D02*
X60354819Y-45321428D01*
X60354819Y-45321428D02*
X60307200Y-45178571D01*
X60307200Y-45178571D02*
X60211961Y-45083333D01*
X60211961Y-45083333D02*
X60116723Y-45035714D01*
X60116723Y-45035714D02*
X59926247Y-44988095D01*
X59926247Y-44988095D02*
X59783390Y-44988095D01*
X59783390Y-44988095D02*
X59592914Y-45035714D01*
X59592914Y-45035714D02*
X59497676Y-45083333D01*
X59497676Y-45083333D02*
X59402438Y-45178571D01*
X59402438Y-45178571D02*
X59354819Y-45321428D01*
X59354819Y-45321428D02*
X59354819Y-45416666D01*
X59354819Y-45416666D02*
X59402438Y-45559523D01*
X59402438Y-45559523D02*
X59450057Y-45607142D01*
X59450057Y-45988095D02*
X59402438Y-46035714D01*
X59402438Y-46035714D02*
X59354819Y-46130952D01*
X59354819Y-46130952D02*
X59354819Y-46369047D01*
X59354819Y-46369047D02*
X59402438Y-46464285D01*
X59402438Y-46464285D02*
X59450057Y-46511904D01*
X59450057Y-46511904D02*
X59545295Y-46559523D01*
X59545295Y-46559523D02*
X59640533Y-46559523D01*
X59640533Y-46559523D02*
X59783390Y-46511904D01*
X59783390Y-46511904D02*
X60354819Y-45940476D01*
X60354819Y-45940476D02*
X60354819Y-46559523D01*
X59450057Y-46940476D02*
X59402438Y-46988095D01*
X59402438Y-46988095D02*
X59354819Y-47083333D01*
X59354819Y-47083333D02*
X59354819Y-47321428D01*
X59354819Y-47321428D02*
X59402438Y-47416666D01*
X59402438Y-47416666D02*
X59450057Y-47464285D01*
X59450057Y-47464285D02*
X59545295Y-47511904D01*
X59545295Y-47511904D02*
X59640533Y-47511904D01*
X59640533Y-47511904D02*
X59783390Y-47464285D01*
X59783390Y-47464285D02*
X60354819Y-46892857D01*
X60354819Y-46892857D02*
X60354819Y-47511904D01*
X45109580Y-45857142D02*
X45157200Y-45809523D01*
X45157200Y-45809523D02*
X45204819Y-45666666D01*
X45204819Y-45666666D02*
X45204819Y-45571428D01*
X45204819Y-45571428D02*
X45157200Y-45428571D01*
X45157200Y-45428571D02*
X45061961Y-45333333D01*
X45061961Y-45333333D02*
X44966723Y-45285714D01*
X44966723Y-45285714D02*
X44776247Y-45238095D01*
X44776247Y-45238095D02*
X44633390Y-45238095D01*
X44633390Y-45238095D02*
X44442914Y-45285714D01*
X44442914Y-45285714D02*
X44347676Y-45333333D01*
X44347676Y-45333333D02*
X44252438Y-45428571D01*
X44252438Y-45428571D02*
X44204819Y-45571428D01*
X44204819Y-45571428D02*
X44204819Y-45666666D01*
X44204819Y-45666666D02*
X44252438Y-45809523D01*
X44252438Y-45809523D02*
X44300057Y-45857142D01*
X44300057Y-46238095D02*
X44252438Y-46285714D01*
X44252438Y-46285714D02*
X44204819Y-46380952D01*
X44204819Y-46380952D02*
X44204819Y-46619047D01*
X44204819Y-46619047D02*
X44252438Y-46714285D01*
X44252438Y-46714285D02*
X44300057Y-46761904D01*
X44300057Y-46761904D02*
X44395295Y-46809523D01*
X44395295Y-46809523D02*
X44490533Y-46809523D01*
X44490533Y-46809523D02*
X44633390Y-46761904D01*
X44633390Y-46761904D02*
X45204819Y-46190476D01*
X45204819Y-46190476D02*
X45204819Y-46809523D01*
X44204819Y-47142857D02*
X44204819Y-47761904D01*
X44204819Y-47761904D02*
X44585771Y-47428571D01*
X44585771Y-47428571D02*
X44585771Y-47571428D01*
X44585771Y-47571428D02*
X44633390Y-47666666D01*
X44633390Y-47666666D02*
X44681009Y-47714285D01*
X44681009Y-47714285D02*
X44776247Y-47761904D01*
X44776247Y-47761904D02*
X45014342Y-47761904D01*
X45014342Y-47761904D02*
X45109580Y-47714285D01*
X45109580Y-47714285D02*
X45157200Y-47666666D01*
X45157200Y-47666666D02*
X45204819Y-47571428D01*
X45204819Y-47571428D02*
X45204819Y-47285714D01*
X45204819Y-47285714D02*
X45157200Y-47190476D01*
X45157200Y-47190476D02*
X45109580Y-47142857D01*
D13*
%TO.C,C63*%
X64710000Y-60116233D02*
X64710000Y-60408767D01*
X63690000Y-60116233D02*
X63690000Y-60408767D01*
%TO.C,C42*%
X27211252Y-47590000D02*
X25788748Y-47590000D01*
X27211252Y-49410000D02*
X25788748Y-49410000D01*
D14*
%TO.C,IC1*%
X57950000Y-45575000D02*
X58550000Y-45575000D01*
X57950000Y-48475000D02*
X57950000Y-45575000D01*
X58550000Y-45575000D02*
X58550000Y-48475000D01*
X58550000Y-48475000D02*
X57950000Y-48475000D01*
X58900000Y-45475000D02*
X60100000Y-45475000D01*
D13*
%TO.C,R9*%
X46015000Y-70227064D02*
X46015000Y-69772936D01*
X47485000Y-70227064D02*
X47485000Y-69772936D01*
%TO.C,C28*%
X58038748Y-41090000D02*
X59461252Y-41090000D01*
X58038748Y-42910000D02*
X59461252Y-42910000D01*
%TO.C,C39*%
X23265000Y-37438748D02*
X23265000Y-37961252D01*
X24735000Y-37438748D02*
X24735000Y-37961252D01*
%TO.C,C24*%
X51461252Y-49090000D02*
X50038748Y-49090000D01*
X51461252Y-50910000D02*
X50038748Y-50910000D01*
%TO.C,C37*%
X21490000Y-34146267D02*
X21490000Y-33853733D01*
X22510000Y-34146267D02*
X22510000Y-33853733D01*
D14*
%TO.C,IC4*%
X52550000Y-85895000D02*
X51025000Y-85895000D01*
X52900000Y-75800000D02*
X56100000Y-75800000D01*
X52900000Y-85700000D02*
X52900000Y-75800000D01*
X56100000Y-75800000D02*
X56100000Y-85700000D01*
X56100000Y-85700000D02*
X52900000Y-85700000D01*
D13*
%TO.C,U7*%
X21035000Y-41575000D02*
X21035000Y-43525000D01*
X21035000Y-45475000D02*
X21035000Y-43525000D01*
X26155000Y-41575000D02*
X26155000Y-43525000D01*
X26155000Y-45475000D02*
X26155000Y-43525000D01*
X26390000Y-46465000D02*
X26060000Y-46225000D01*
X26390000Y-45985000D01*
X26390000Y-46465000D01*
G36*
X26390000Y-46465000D02*
G01*
X26060000Y-46225000D01*
X26390000Y-45985000D01*
X26390000Y-46465000D01*
G37*
%TO.C,C47*%
X51390000Y-38211252D02*
X51390000Y-36788748D01*
X54110000Y-38211252D02*
X54110000Y-36788748D01*
%TO.C,C27*%
X55038748Y-49090000D02*
X56461252Y-49090000D01*
X55038748Y-50910000D02*
X56461252Y-50910000D01*
%TO.C,C7*%
X43853733Y-70490000D02*
X44146267Y-70490000D01*
X43853733Y-71510000D02*
X44146267Y-71510000D01*
D15*
%TO.C,L4*%
X61050000Y-64750000D02*
X48250000Y-64750000D01*
X61100000Y-51900000D02*
X48300000Y-51900000D01*
D13*
%TO.C,U10*%
X23340000Y-63840000D02*
X27100000Y-63840000D01*
X23340000Y-65100000D02*
X23340000Y-63840000D01*
X23340000Y-69400000D02*
X23340000Y-70660000D01*
X23340000Y-70660000D02*
X27100000Y-70660000D01*
X28380000Y-63940000D02*
X28140000Y-63610000D01*
X28620000Y-63610000D01*
X28380000Y-63940000D01*
G36*
X28380000Y-63940000D02*
G01*
X28140000Y-63610000D01*
X28620000Y-63610000D01*
X28380000Y-63940000D01*
G37*
%TO.C,R26*%
X52977500Y-74004724D02*
X52977500Y-73495276D01*
X54022500Y-74004724D02*
X54022500Y-73495276D01*
%TO.C,U2*%
X48370000Y-43440000D02*
X50320000Y-43440000D01*
X48370000Y-48560000D02*
X50320000Y-48560000D01*
X52270000Y-43440000D02*
X50320000Y-43440000D01*
X52270000Y-48560000D02*
X50320000Y-48560000D01*
X47860000Y-48795000D02*
X47380000Y-48795000D01*
X47620000Y-48465000D01*
X47860000Y-48795000D01*
G36*
X47860000Y-48795000D02*
G01*
X47380000Y-48795000D01*
X47620000Y-48465000D01*
X47860000Y-48795000D01*
G37*
%TO.C,R12*%
X54515000Y-42977064D02*
X54515000Y-42522936D01*
X55985000Y-42977064D02*
X55985000Y-42522936D01*
%TO.C,C10*%
X57853733Y-71240000D02*
X58146267Y-71240000D01*
X57853733Y-72260000D02*
X58146267Y-72260000D01*
%TO.C,R16*%
X20765000Y-37727064D02*
X20765000Y-37272936D01*
X22235000Y-37727064D02*
X22235000Y-37272936D01*
%TO.C,C30*%
X54265000Y-47011252D02*
X54265000Y-46488748D01*
X55735000Y-47011252D02*
X55735000Y-46488748D01*
%TO.C,C62*%
X25515000Y-37526248D02*
X25515000Y-38048752D01*
X26985000Y-37526248D02*
X26985000Y-38048752D01*
%TO.C,C2*%
X33390000Y-52288748D02*
X33390000Y-53711252D01*
X36110000Y-52288748D02*
X36110000Y-53711252D01*
%TO.C,D15*%
X26640000Y-42100000D02*
X26640000Y-47160000D01*
X26640000Y-47160000D02*
X29360000Y-47160000D01*
X29360000Y-42100000D02*
X29360000Y-47160000D01*
%TO.C,D14*%
X43890000Y-54150000D02*
X43890000Y-49090000D01*
X46610000Y-49090000D02*
X43890000Y-49090000D01*
X46610000Y-54150000D02*
X46610000Y-49090000D01*
%TO.C,R27*%
X51227500Y-74004724D02*
X51227500Y-73495276D01*
X52272500Y-74004724D02*
X52272500Y-73495276D01*
%TO.C,C6*%
X40840000Y-51538748D02*
X40840000Y-52961252D01*
X42660000Y-51538748D02*
X42660000Y-52961252D01*
%TO.C,C46*%
X37390000Y-52288748D02*
X37390000Y-53711252D01*
X40110000Y-52288748D02*
X40110000Y-53711252D01*
D10*
%TO.C,D10*%
X44925000Y-72025000D02*
X45225000Y-72025000D01*
X44925000Y-72250000D02*
X44925000Y-72025000D01*
X44925000Y-73975000D02*
X44925000Y-73725000D01*
X45175000Y-73975000D02*
X44925000Y-73975000D01*
X47375000Y-73975000D02*
X47375000Y-72025000D01*
X47475000Y-73975000D02*
X47475000Y-72025000D01*
X47575000Y-72025000D02*
X47225000Y-72025000D01*
X47575000Y-73975000D02*
X47225000Y-73975000D01*
X47575000Y-73975000D02*
X47575000Y-72025000D01*
D13*
%TO.C,R25*%
X49477500Y-74004724D02*
X49477500Y-73495276D01*
X50522500Y-74004724D02*
X50522500Y-73495276D01*
%TO.C,C13*%
X49353733Y-70740000D02*
X49646267Y-70740000D01*
X49353733Y-71760000D02*
X49646267Y-71760000D01*
%TO.C,C32*%
X34090000Y-65288748D02*
X34090000Y-66711252D01*
X35910000Y-65288748D02*
X35910000Y-66711252D01*
%TO.C,R18*%
X27515000Y-37522936D02*
X27515000Y-37977064D01*
X28985000Y-37522936D02*
X28985000Y-37977064D01*
%TO.C,C48*%
X54890000Y-36788748D02*
X54890000Y-38211252D01*
X57610000Y-36788748D02*
X57610000Y-38211252D01*
%TO.C,C20*%
X33140000Y-60211252D02*
X33140000Y-58788748D01*
X35860000Y-60211252D02*
X35860000Y-58788748D01*
%TO.C,C49*%
X58390000Y-36788748D02*
X58390000Y-38211252D01*
X61110000Y-36788748D02*
X61110000Y-38211252D01*
%TO.C,C31*%
X52533767Y-41740000D02*
X52241233Y-41740000D01*
X52533767Y-42760000D02*
X52241233Y-42760000D01*
%TO.C,C38*%
X49646267Y-67990000D02*
X49353733Y-67990000D01*
X49646267Y-69010000D02*
X49353733Y-69010000D01*
%TO.C,C40*%
X29090000Y-30288748D02*
X29090000Y-31711252D01*
X30910000Y-30288748D02*
X30910000Y-31711252D01*
%TO.C,R17*%
X23265000Y-31227064D02*
X23265000Y-30772936D01*
X24735000Y-31227064D02*
X24735000Y-30772936D01*
%TO.C,C5*%
X37390000Y-60211252D02*
X37390000Y-58788748D01*
X40110000Y-60211252D02*
X40110000Y-58788748D01*
%TO.C,R15*%
X21772936Y-47765000D02*
X22227064Y-47765000D01*
X21772936Y-49235000D02*
X22227064Y-49235000D01*
%TO.C,C41*%
X24788748Y-33590000D02*
X26211252Y-33590000D01*
X24788748Y-35410000D02*
X26211252Y-35410000D01*
D14*
%TO.C,IC5*%
X36900000Y-29350000D02*
X36900000Y-25650000D01*
X47100000Y-25650000D02*
X47100000Y-29350000D01*
X47100000Y-29350000D02*
X36900000Y-29350000D01*
D13*
%TO.C,C51*%
X24788748Y-23840000D02*
X26211252Y-23840000D01*
X24788748Y-25660000D02*
X26211252Y-25660000D01*
D15*
%TO.C,L5*%
X30150000Y-35150000D02*
X30150000Y-47950000D01*
X43000000Y-35200000D02*
X43000000Y-48000000D01*
D13*
%TO.C,R2*%
X62922936Y-41265000D02*
X63377064Y-41265000D01*
X62922936Y-42735000D02*
X63377064Y-42735000D01*
%TO.C,R7*%
X42015000Y-74022936D02*
X42015000Y-74477064D01*
X43485000Y-74022936D02*
X43485000Y-74477064D01*
D14*
%TO.C,IC2*%
X25450000Y-30350000D02*
X25450000Y-29150000D01*
X25550000Y-30700000D02*
X28450000Y-30700000D01*
X25550000Y-31300000D02*
X25550000Y-30700000D01*
X28450000Y-30700000D02*
X28450000Y-31300000D01*
X28450000Y-31300000D02*
X25550000Y-31300000D01*
D13*
%TO.C,R11*%
X48022936Y-41515000D02*
X48477064Y-41515000D01*
X48022936Y-42985000D02*
X48477064Y-42985000D01*
%TO.C,R1*%
X58272936Y-43515000D02*
X58727064Y-43515000D01*
X58272936Y-44985000D02*
X58727064Y-44985000D01*
D10*
%TO.C,D9*%
X44925000Y-74025000D02*
X44925000Y-75975000D01*
X44925000Y-74025000D02*
X45275000Y-74025000D01*
X44925000Y-75975000D02*
X45275000Y-75975000D01*
X45025000Y-74025000D02*
X45025000Y-75975000D01*
X45125000Y-74025000D02*
X45125000Y-75975000D01*
X47325000Y-74025000D02*
X47575000Y-74025000D01*
X47575000Y-74025000D02*
X47575000Y-74275000D01*
X47575000Y-75750000D02*
X47575000Y-75975000D01*
X47575000Y-75975000D02*
X47275000Y-75975000D01*
D13*
%TO.C,C8*%
X57961252Y-72840000D02*
X56538748Y-72840000D01*
X57961252Y-74660000D02*
X56538748Y-74660000D01*
%TO.C,C29*%
X61890000Y-38211252D02*
X61890000Y-36788748D01*
X64610000Y-38211252D02*
X64610000Y-36788748D01*
%TO.C,C33*%
X36590000Y-65288748D02*
X36590000Y-66711252D01*
X38410000Y-65288748D02*
X38410000Y-66711252D01*
%TO.C,C52*%
X49538748Y-32090000D02*
X50961252Y-32090000D01*
X49538748Y-33910000D02*
X50961252Y-33910000D01*
%TO.C,R34*%
X53227064Y-67765000D02*
X52772936Y-67765000D01*
X53227064Y-69235000D02*
X52772936Y-69235000D01*
%TO.C,R33*%
X53227064Y-70265000D02*
X52772936Y-70265000D01*
X53227064Y-71735000D02*
X52772936Y-71735000D01*
D10*
%TO.C,IC3*%
X22840000Y-50399000D02*
X22840000Y-50399000D01*
X22840000Y-50499000D02*
X22840000Y-50499000D01*
X22840000Y-50399000D02*
G75*
G02*
X22840000Y-50499000I0J-50000D01*
G01*
X22840000Y-50499000D02*
G75*
G02*
X22840000Y-50399000I0J50000D01*
G01*
D13*
%TO.C,C22*%
X60840000Y-46961252D02*
X60840000Y-45538748D01*
X62660000Y-46961252D02*
X62660000Y-45538748D01*
%TO.C,C23*%
X43840000Y-47211252D02*
X43840000Y-45788748D01*
X45660000Y-47211252D02*
X45660000Y-45788748D01*
%TD*%
M02*
