%TF.GenerationSoftware,KiCad,Pcbnew,8.0.1*%
%TF.CreationDate,2024-07-11T23:08:47-04:00*%
%TF.ProjectId,booster-tc-driver,626f6f73-7465-4722-9d74-632d64726976,rev?*%
%TF.SameCoordinates,Original*%
%TF.FileFunction,Copper,L3,Inr*%
%TF.FilePolarity,Positive*%
%FSLAX46Y46*%
G04 Gerber Fmt 4.6, Leading zero omitted, Abs format (unit mm)*
G04 Created by KiCad (PCBNEW 8.0.1) date 2024-07-11 23:08:47*
%MOMM*%
%LPD*%
G01*
G04 APERTURE LIST*
%TA.AperFunction,ComponentPad*%
%ADD10R,1.240000X1.240000*%
%TD*%
%TA.AperFunction,ComponentPad*%
%ADD11C,1.240000*%
%TD*%
%TA.AperFunction,ComponentPad*%
%ADD12C,1.524000*%
%TD*%
%TA.AperFunction,ComponentPad*%
%ADD13C,1.400000*%
%TD*%
%TA.AperFunction,ComponentPad*%
%ADD14R,1.397000X1.397000*%
%TD*%
%TA.AperFunction,ComponentPad*%
%ADD15C,1.397000*%
%TD*%
%TA.AperFunction,ComponentPad*%
%ADD16C,1.168400*%
%TD*%
%TA.AperFunction,ComponentPad*%
%ADD17R,1.620000X1.620000*%
%TD*%
%TA.AperFunction,ComponentPad*%
%ADD18C,1.620000*%
%TD*%
%TA.AperFunction,ComponentPad*%
%ADD19C,2.020000*%
%TD*%
%TA.AperFunction,ViaPad*%
%ADD20C,0.600000*%
%TD*%
%TA.AperFunction,Conductor*%
%ADD21C,1.000000*%
%TD*%
%TA.AperFunction,Conductor*%
%ADD22C,0.200000*%
%TD*%
G04 APERTURE END LIST*
D10*
%TO.N,/I_L_IN*%
%TO.C,J2*%
X49000000Y-21000000D03*
D11*
%TO.N,+24V*%
X49000000Y-19000000D03*
%TO.N,GND*%
X51000000Y-21000000D03*
%TO.N,/PFC*%
X51000000Y-19000000D03*
%TO.N,GND*%
X53000000Y-21000000D03*
%TO.N,/SCR*%
X53000000Y-19000000D03*
%TO.N,GND*%
X55000000Y-21000000D03*
%TO.N,/VBUS_IN*%
X55000000Y-19000000D03*
%TO.N,+5V*%
X57000000Y-21000000D03*
%TO.N,/VAC_IN*%
X57000000Y-19000000D03*
%TD*%
D12*
%TO.N,GND*%
%TO.C,SW1*%
X23460000Y-71840000D03*
X23460000Y-82000000D03*
X26000000Y-82000000D03*
%TO.N,Net-(SW1-B)*%
X23460000Y-74380000D03*
%TO.N,VDD*%
X23460000Y-76920000D03*
%TD*%
D13*
%TO.N,GND*%
%TO.C,U6*%
X34055000Y-84582500D03*
%TO.N,/INT*%
X32150000Y-84582500D03*
%TO.N,+5V*%
X30245000Y-84582500D03*
%TD*%
%TO.N,Net-(U5-K)*%
%TO.C,U5*%
X48250000Y-84500000D03*
%TO.N,+5V*%
X45710000Y-84500000D03*
%TD*%
D14*
%TO.N,VDD*%
%TO.C,C3*%
X32500000Y-71000000D03*
D15*
%TO.N,GND*%
X37500000Y-71000000D03*
%TD*%
D14*
%TO.N,VDRIVE*%
%TO.C,C43*%
X32666750Y-32500000D03*
D15*
%TO.N,GND*%
X37666750Y-32500000D03*
%TD*%
D16*
%TO.N,VDD*%
%TO.C,J1*%
X62230000Y-66730000D03*
%TO.N,/TMS*%
X63500000Y-66730000D03*
%TO.N,GND*%
X62230000Y-68000000D03*
%TO.N,/TCK*%
X63500000Y-68000000D03*
%TO.N,GND*%
X62230000Y-69270000D03*
%TO.N,/TDO*%
X63500000Y-69270000D03*
%TO.N,unconnected-(J1-Pad7)*%
X62230000Y-70540000D03*
%TO.N,/TDI*%
X63500000Y-70540000D03*
%TO.N,unconnected-(J1-Pad9)*%
X62230000Y-71810000D03*
%TO.N,/RST*%
X63500000Y-71810000D03*
%TD*%
D14*
%TO.N,+24V*%
%TO.C,C21*%
X35000000Y-24000000D03*
D15*
%TO.N,GND*%
X35000000Y-19000000D03*
%TD*%
D17*
%TO.N,+5V*%
%TO.C,D16*%
X63204000Y-80980000D03*
D18*
%TO.N,Net-(IC4-LED1)*%
X60664000Y-80980000D03*
%TO.N,+5V*%
X63204000Y-78440000D03*
%TO.N,Net-(IC4-LED2)*%
X60664000Y-78440000D03*
%TO.N,+5V*%
X63204000Y-75900000D03*
%TO.N,Net-(IC4-LED3)*%
X60664000Y-75900000D03*
%TD*%
D13*
%TO.N,GND*%
%TO.C,U4*%
X41555000Y-84500000D03*
%TO.N,/USART_RX*%
X39650000Y-84500000D03*
%TO.N,+5V*%
X37745000Y-84500000D03*
%TD*%
D14*
%TO.N,+12V*%
%TO.C,C45*%
X28000000Y-27250000D03*
D15*
%TO.N,GND*%
X23000000Y-27250000D03*
%TD*%
D19*
%TO.N,GND*%
%TO.C,J6*%
X25000000Y-17750000D03*
%TO.N,+24V*%
X25000000Y-20290000D03*
%TD*%
%TO.N,/Gate Drive Out/GDT1_B*%
%TO.C,J4*%
X49500000Y-28040000D03*
%TO.N,/Gate Drive Out/GDT1_A*%
X49500000Y-25500000D03*
%TD*%
%TO.N,/Gate Drive Out/GDT2_B*%
%TO.C,J5*%
X56500000Y-28040000D03*
%TO.N,/Gate Drive Out/GDT2_A*%
X56500000Y-25500000D03*
%TD*%
D20*
%TO.N,GND*%
X56000000Y-46750000D03*
X49362500Y-76137500D03*
X67500000Y-64500000D03*
X39250000Y-62750000D03*
X29000000Y-31500000D03*
X29000000Y-43000000D03*
X43000000Y-72000000D03*
X58491012Y-63094895D03*
X18000000Y-17000000D03*
X67500000Y-67000000D03*
X67500000Y-84500000D03*
X67500000Y-44500000D03*
X23000000Y-33500000D03*
X18000000Y-29500000D03*
X53250000Y-85250000D03*
X62750000Y-50000000D03*
X18000000Y-27000000D03*
X67500000Y-27000000D03*
X18000000Y-69500000D03*
X67500000Y-59500000D03*
X18000000Y-67000000D03*
X67500000Y-17000000D03*
X22500000Y-49500000D03*
X67500000Y-74500000D03*
X41500000Y-37500000D03*
X67500000Y-22000000D03*
X55500000Y-82000000D03*
X46250000Y-45000000D03*
X67500000Y-19500000D03*
X18000000Y-32000000D03*
X29750000Y-37000000D03*
X47750000Y-68000000D03*
X26000000Y-31000000D03*
X18000000Y-74500000D03*
X59250000Y-52250000D03*
X37000000Y-50750000D03*
X67500000Y-37000000D03*
X67500000Y-24500000D03*
X50250000Y-50000000D03*
X58529926Y-70613775D03*
X67500000Y-32000000D03*
X29000000Y-44000000D03*
X33250000Y-62750000D03*
X18000000Y-59500000D03*
X43250000Y-58750000D03*
X18000000Y-52000000D03*
X18000000Y-57000000D03*
X18000000Y-84500000D03*
X52750000Y-62250000D03*
X18000000Y-24500000D03*
X28000000Y-43000000D03*
X67500000Y-87000000D03*
X53250000Y-84000000D03*
X67500000Y-47000000D03*
X18000000Y-54500000D03*
X18000000Y-22000000D03*
X18000000Y-87000000D03*
X55531387Y-71038612D03*
X18000000Y-19500000D03*
X67500000Y-57000000D03*
X46250000Y-45750000D03*
X18000000Y-72000000D03*
X67500000Y-79500000D03*
X49500000Y-72000000D03*
X63250000Y-46750000D03*
X18000000Y-79500000D03*
X28000000Y-44000000D03*
X49149999Y-64650000D03*
X18000000Y-82000000D03*
X67500000Y-29500000D03*
X67500000Y-42000000D03*
X67500000Y-39500000D03*
X67500000Y-52000000D03*
X18000000Y-42000000D03*
X23000000Y-50000000D03*
X67500000Y-62000000D03*
X50000000Y-75750000D03*
X35250000Y-62750000D03*
X32000000Y-49750000D03*
X38250000Y-62750000D03*
X67500000Y-72000000D03*
X67500000Y-69500000D03*
X18000000Y-37000000D03*
X53250000Y-43250000D03*
X61250000Y-38000000D03*
X50000000Y-33250000D03*
X18000000Y-44500000D03*
X36250000Y-62750000D03*
X18000000Y-49500000D03*
X67500000Y-77000000D03*
X18000000Y-47000000D03*
X56250000Y-50000000D03*
X67500000Y-49500000D03*
X37000000Y-50000000D03*
X67500000Y-82000000D03*
X18000000Y-62000000D03*
X53905000Y-33471500D03*
X67500000Y-34500000D03*
X18000000Y-39500000D03*
X18000000Y-77000000D03*
X34250000Y-62750000D03*
X18000000Y-34500000D03*
X52487651Y-58762349D03*
X18000000Y-64500000D03*
X67500000Y-54500000D03*
%TO.N,+5V*%
X29500000Y-30500000D03*
X26750000Y-64750000D03*
X26750000Y-64000000D03*
X61750000Y-46500000D03*
X40250000Y-76500000D03*
X26780000Y-49970000D03*
%TO.N,VDD*%
X58750000Y-69500000D03*
X20750000Y-53500000D03*
X31500000Y-66250000D03*
X58750000Y-75705000D03*
X27750000Y-71000000D03*
X58750000Y-84000000D03*
X28500000Y-71000000D03*
X51500000Y-61750000D03*
X28500000Y-71750000D03*
X58511854Y-62295164D03*
X29250000Y-71750000D03*
X29250000Y-71000000D03*
X33000000Y-66250000D03*
X27750000Y-71750000D03*
X32250000Y-66250000D03*
X40250000Y-53500000D03*
X46750000Y-73000000D03*
%TO.N,+12V*%
X25500000Y-27500000D03*
%TO.N,+24V*%
X21750000Y-43000000D03*
X25250000Y-50250000D03*
X51000000Y-48750000D03*
X25750000Y-43250000D03*
X21750000Y-43750000D03*
X25750000Y-44000000D03*
X50500000Y-48000000D03*
X24500000Y-50250000D03*
X51500000Y-49250000D03*
%TO.N,Net-(D11-A)*%
X45250000Y-38250000D03*
X39250000Y-42250000D03*
%TO.N,/VFAN_OUT*%
X33750000Y-43500000D03*
%TO.N,/SPI_CLK*%
X28000000Y-28500000D03*
X63600000Y-63600000D03*
%TO.N,/SPI_MOSI*%
X63250150Y-64250150D03*
X28250000Y-34500000D03*
%TO.N,/CS_FAN*%
X52750000Y-63750000D03*
%TO.N,/CS_DRIVE*%
X28250000Y-33500000D03*
X62723847Y-61634703D03*
%TO.N,/PFC*%
X44750000Y-63750000D03*
X56250000Y-63750000D03*
%TO.N,/USART_RX*%
X42500000Y-76500000D03*
X52762331Y-65697170D03*
X45000000Y-67250000D03*
%TO.N,/FAN_EN*%
X52750000Y-63000000D03*
%TO.N,/LED_TMP*%
X46500000Y-76250000D03*
%TO.N,/LED_I_IN*%
X47250000Y-76250000D03*
%TO.N,/LED_VBUS*%
X45750000Y-76250000D03*
%TO.N,Net-(D17-A)*%
X61750000Y-37250000D03*
X64500000Y-37750000D03*
%TO.N,Net-(IC9-G1)*%
X61750000Y-43500000D03*
X56500000Y-37500000D03*
%TO.N,GDT2_DIS*%
X56500000Y-58750000D03*
X55500000Y-59500000D03*
%TO.N,/I_L*%
X41750000Y-64000000D03*
X58000000Y-66500000D03*
%TO.N,/VBUS_SENSE*%
X21250000Y-52500000D03*
X62940511Y-62300331D03*
%TO.N,/VAC_IN*%
X40750000Y-65250000D03*
%TO.N,/VAC_SENSE*%
X59750000Y-68750000D03*
%TO.N,/VREF*%
X56307988Y-70846531D03*
%TO.N,/RST*%
X55250000Y-67250000D03*
%TO.N,/TDI*%
X57250000Y-62250000D03*
%TO.N,/DRIVE_EN*%
X57500000Y-64500000D03*
%TO.N,/SCR*%
X44250000Y-64250000D03*
X56750000Y-64250000D03*
%TO.N,/THERM1*%
X40204699Y-64000000D03*
X53000000Y-67750000D03*
%TO.N,/THERM2*%
X39000000Y-64250000D03*
X53000000Y-67000000D03*
X51000000Y-70000000D03*
%TD*%
D21*
%TO.N,+5V*%
X20500000Y-50250000D02*
X22250000Y-52000000D01*
X29500000Y-30500000D02*
X28585786Y-30500000D01*
X56125000Y-52000000D02*
X65750000Y-42375000D01*
X65750000Y-42375000D02*
X65750000Y-21250000D01*
D22*
X29500000Y-30500000D02*
X29151471Y-30500000D01*
D21*
X21000000Y-32250000D02*
X20500000Y-32750000D01*
X22250000Y-52000000D02*
X26780000Y-52000000D01*
X26780000Y-62055786D02*
X26530000Y-62305786D01*
X26530000Y-62305786D02*
X26530000Y-63780000D01*
X26835786Y-32250000D02*
X21000000Y-32250000D01*
X65750000Y-21250000D02*
X65500000Y-21000000D01*
X26780000Y-52000000D02*
X26780000Y-62055786D01*
X65500000Y-21000000D02*
X57000000Y-21000000D01*
X20500000Y-32750000D02*
X20500000Y-50250000D01*
X28585786Y-30500000D02*
X26835786Y-32250000D01*
X26780000Y-49970000D02*
X26780000Y-52000000D01*
X26780000Y-52000000D02*
X56125000Y-52000000D01*
X26530000Y-63780000D02*
X26750000Y-64000000D01*
D22*
%TO.N,Net-(D11-A)*%
X45250000Y-38250000D02*
X41250000Y-42250000D01*
X41250000Y-42250000D02*
X39250000Y-42250000D01*
%TO.N,/SPI_CLK*%
X57375736Y-85900000D02*
X54375736Y-82900000D01*
X54375736Y-82900000D02*
X29774264Y-82900000D01*
X65024264Y-63600000D02*
X66400000Y-64975736D01*
X66400000Y-83622792D02*
X64122792Y-85900000D01*
X29774264Y-82900000D02*
X28674264Y-84000000D01*
X18850000Y-32278680D02*
X22628680Y-28500000D01*
X63600000Y-63600000D02*
X65024264Y-63600000D01*
X64122792Y-85900000D02*
X57375736Y-85900000D01*
X20977208Y-84000000D02*
X18850000Y-81872792D01*
X22628680Y-28500000D02*
X28000000Y-28500000D01*
X18850000Y-81872792D02*
X18850000Y-32278680D01*
X66400000Y-64975736D02*
X66400000Y-83622792D01*
X28674264Y-84000000D02*
X20977208Y-84000000D01*
%TO.N,/SPI_MOSI*%
X66100000Y-83498528D02*
X63998528Y-85600000D01*
X21001472Y-83600000D02*
X19150000Y-81748528D01*
X22452944Y-29100000D02*
X29915686Y-29100000D01*
X66100000Y-65100000D02*
X66100000Y-83498528D01*
X57500000Y-85600000D02*
X54500000Y-82600000D01*
X28650000Y-83600000D02*
X21001472Y-83600000D01*
X29650000Y-82600000D02*
X28650000Y-83600000D01*
X54500000Y-82600000D02*
X29650000Y-82600000D01*
X29915686Y-29100000D02*
X30700000Y-29884314D01*
X65250150Y-64250150D02*
X66100000Y-65100000D01*
X63998528Y-85600000D02*
X57500000Y-85600000D01*
X30700000Y-32050000D02*
X28250000Y-34500000D01*
X19150000Y-32402944D02*
X22452944Y-29100000D01*
X63250150Y-64250150D02*
X65250150Y-64250150D01*
X19150000Y-81748528D02*
X19150000Y-32402944D01*
X30700000Y-29884314D02*
X30700000Y-32050000D01*
%TO.N,/CS_DRIVE*%
X65800000Y-83374264D02*
X65800000Y-66125736D01*
X30300000Y-31450000D02*
X30300000Y-30050000D01*
X63874264Y-85300000D02*
X65800000Y-83374264D01*
X30300000Y-30050000D02*
X29750000Y-29500000D01*
X64674264Y-65000000D02*
X63000000Y-65000000D01*
X65800000Y-66125736D02*
X64674264Y-65000000D01*
X29500000Y-82300000D02*
X54625736Y-82300000D01*
X29750000Y-29500000D02*
X22618630Y-29500000D01*
X19450000Y-81624264D02*
X21125736Y-83300000D01*
X57625736Y-85300000D02*
X63874264Y-85300000D01*
X63800000Y-62000000D02*
X63434703Y-61634703D01*
X28500000Y-83300000D02*
X29500000Y-82300000D01*
X62750000Y-63650000D02*
X63800000Y-62600000D01*
X63000000Y-65000000D02*
X62750000Y-64750000D01*
X28250000Y-33500000D02*
X30300000Y-31450000D01*
X21125736Y-83300000D02*
X28500000Y-83300000D01*
X63434703Y-61634703D02*
X62723847Y-61634703D01*
X63800000Y-62600000D02*
X63800000Y-62000000D01*
X22618630Y-29500000D02*
X19450000Y-32668630D01*
X62750000Y-64750000D02*
X62750000Y-63650000D01*
X54625736Y-82300000D02*
X57625736Y-85300000D01*
X19450000Y-32668630D02*
X19450000Y-81624264D01*
%TO.N,Net-(D17-A)*%
X64000000Y-37250000D02*
X61750000Y-37250000D01*
X64500000Y-37750000D02*
X64000000Y-37250000D01*
%TO.N,Net-(IC9-G1)*%
X56500000Y-37500000D02*
X56500000Y-40250000D01*
X59750000Y-43500000D02*
X56500000Y-40250000D01*
X61750000Y-43500000D02*
X59750000Y-43500000D01*
%TO.N,/VBUS_SENSE*%
X65500000Y-66250000D02*
X65500000Y-83250000D01*
X62450000Y-62790842D02*
X62450000Y-64874264D01*
X54750000Y-82000000D02*
X29250000Y-82000000D01*
X63750000Y-85000000D02*
X57750000Y-85000000D01*
X65500000Y-83250000D02*
X63750000Y-85000000D01*
X62940511Y-62300331D02*
X62450000Y-62790842D01*
X29250000Y-82000000D02*
X28250000Y-83000000D01*
X57750000Y-85000000D02*
X54750000Y-82000000D01*
X19750000Y-81500000D02*
X19750000Y-52750000D01*
X62450000Y-64874264D02*
X62875736Y-65300000D01*
X62875736Y-65300000D02*
X64550000Y-65300000D01*
X21250000Y-83000000D02*
X19750000Y-81500000D01*
X64550000Y-65300000D02*
X65500000Y-66250000D01*
X28250000Y-83000000D02*
X21250000Y-83000000D01*
X19750000Y-52750000D02*
X20000000Y-52500000D01*
X20000000Y-52500000D02*
X21250000Y-52500000D01*
%TO.N,/THERM2*%
X51000000Y-69000000D02*
X51000000Y-70000000D01*
X53000000Y-67000000D02*
X51000000Y-69000000D01*
%TD*%
%TA.AperFunction,Conductor*%
%TO.N,VDD*%
G36*
X59065784Y-51519685D02*
G01*
X59111539Y-51572489D01*
X59121483Y-51641647D01*
X59092458Y-51705203D01*
X59046197Y-51738561D01*
X58972377Y-51769137D01*
X58857379Y-51857379D01*
X58769137Y-51972377D01*
X58713671Y-52106287D01*
X58713670Y-52106291D01*
X58694750Y-52249999D01*
X58694750Y-52250000D01*
X58713670Y-52393708D01*
X58713671Y-52393712D01*
X58769137Y-52527622D01*
X58769138Y-52527624D01*
X58769139Y-52527625D01*
X58857379Y-52642621D01*
X58972375Y-52730861D01*
X58972376Y-52730861D01*
X58972377Y-52730862D01*
X59005933Y-52744761D01*
X59106291Y-52786330D01*
X59233280Y-52803048D01*
X59249999Y-52805250D01*
X59250000Y-52805250D01*
X59250001Y-52805250D01*
X59264977Y-52803278D01*
X59393709Y-52786330D01*
X59527625Y-52730861D01*
X59642621Y-52642621D01*
X59730861Y-52527625D01*
X59786330Y-52393709D01*
X59805250Y-52250000D01*
X59786330Y-52106291D01*
X59730861Y-51972375D01*
X59642621Y-51857379D01*
X59527625Y-51769139D01*
X59527624Y-51769138D01*
X59527622Y-51769137D01*
X59453803Y-51738561D01*
X59399399Y-51694720D01*
X59377334Y-51628426D01*
X59394613Y-51560727D01*
X59445750Y-51513116D01*
X59501255Y-51500000D01*
X64876000Y-51500000D01*
X64943039Y-51519685D01*
X64988794Y-51572489D01*
X65000000Y-51624000D01*
X65000000Y-63125500D01*
X64980315Y-63192539D01*
X64927511Y-63238294D01*
X64876000Y-63249500D01*
X64086092Y-63249500D01*
X64019053Y-63229815D01*
X63999587Y-63211913D01*
X63998372Y-63213129D01*
X63992627Y-63207384D01*
X63992621Y-63207379D01*
X63932602Y-63161324D01*
X63891402Y-63104899D01*
X63887247Y-63035152D01*
X63920408Y-62975272D01*
X64080469Y-62815212D01*
X64126614Y-62735288D01*
X64130353Y-62721333D01*
X64135461Y-62702273D01*
X64144640Y-62668015D01*
X64150500Y-62646144D01*
X64150500Y-61953856D01*
X64126614Y-61864712D01*
X64114949Y-61844508D01*
X64080470Y-61784788D01*
X63649915Y-61354233D01*
X63649914Y-61354232D01*
X63649911Y-61354230D01*
X63569993Y-61308090D01*
X63569986Y-61308087D01*
X63559530Y-61305285D01*
X63559530Y-61305286D01*
X63480847Y-61284203D01*
X63480846Y-61284203D01*
X63209939Y-61284203D01*
X63142900Y-61264518D01*
X63123434Y-61246616D01*
X63122219Y-61247832D01*
X63116474Y-61242087D01*
X63116468Y-61242082D01*
X63001472Y-61153842D01*
X63001471Y-61153841D01*
X63001469Y-61153840D01*
X62867559Y-61098374D01*
X62867557Y-61098373D01*
X62867556Y-61098373D01*
X62795701Y-61088913D01*
X62723848Y-61079453D01*
X62723846Y-61079453D01*
X62580138Y-61098373D01*
X62580134Y-61098374D01*
X62446224Y-61153840D01*
X62331226Y-61242082D01*
X62242984Y-61357080D01*
X62187518Y-61490990D01*
X62187517Y-61490994D01*
X62168597Y-61634703D01*
X62176502Y-61694750D01*
X62187517Y-61778411D01*
X62187518Y-61778415D01*
X62242984Y-61912325D01*
X62242985Y-61912327D01*
X62242986Y-61912328D01*
X62331226Y-62027324D01*
X62347643Y-62039921D01*
X62356151Y-62046450D01*
X62397354Y-62102878D01*
X62403603Y-62161011D01*
X62385261Y-62300330D01*
X62385261Y-62308458D01*
X62381718Y-62308458D01*
X62373380Y-62361511D01*
X62348951Y-62396208D01*
X62169531Y-62575628D01*
X62169529Y-62575631D01*
X62154897Y-62600976D01*
X62141027Y-62625000D01*
X62134881Y-62635645D01*
X62134879Y-62635648D01*
X62123386Y-62655552D01*
X62099500Y-62744698D01*
X62099500Y-64920407D01*
X62117703Y-64988343D01*
X62117703Y-64988344D01*
X62123384Y-65009548D01*
X62123385Y-65009550D01*
X62169527Y-65089472D01*
X62169529Y-65089475D01*
X62169530Y-65089476D01*
X62660524Y-65580470D01*
X62740448Y-65626614D01*
X62829592Y-65650500D01*
X62829593Y-65650500D01*
X62921880Y-65650500D01*
X63384184Y-65650500D01*
X63451223Y-65670185D01*
X63496978Y-65722989D01*
X63499050Y-65737399D01*
X63499429Y-65731720D01*
X63541034Y-65675588D01*
X63606381Y-65650859D01*
X63615816Y-65650500D01*
X64353456Y-65650500D01*
X64420495Y-65670185D01*
X64441137Y-65686819D01*
X64963681Y-66209363D01*
X64997166Y-66270686D01*
X65000000Y-66297044D01*
X65000000Y-83202956D01*
X64980315Y-83269995D01*
X64963681Y-83290637D01*
X63641137Y-84613181D01*
X63579814Y-84646666D01*
X63553456Y-84649500D01*
X57946544Y-84649500D01*
X57879505Y-84629815D01*
X57858863Y-84613181D01*
X55848702Y-82603020D01*
X55815217Y-82541697D01*
X55820201Y-82472005D01*
X55860895Y-82416964D01*
X55892621Y-82392621D01*
X55980861Y-82277625D01*
X56036330Y-82143709D01*
X56055250Y-82000000D01*
X56036330Y-81856291D01*
X55980861Y-81722375D01*
X55892621Y-81607379D01*
X55777625Y-81519139D01*
X55777624Y-81519138D01*
X55777622Y-81519137D01*
X55643712Y-81463671D01*
X55643710Y-81463670D01*
X55643709Y-81463670D01*
X55562330Y-81452956D01*
X55500001Y-81444750D01*
X55499999Y-81444750D01*
X55356291Y-81463670D01*
X55356287Y-81463671D01*
X55222377Y-81519137D01*
X55107378Y-81607380D01*
X55070295Y-81655707D01*
X55013866Y-81696909D01*
X54944120Y-81701063D01*
X54909922Y-81687607D01*
X54885293Y-81673388D01*
X54885287Y-81673385D01*
X54879926Y-81671949D01*
X54879926Y-81671948D01*
X54811476Y-81653608D01*
X54796144Y-81649500D01*
X29203856Y-81649500D01*
X29125828Y-81670406D01*
X29125829Y-81670407D01*
X29114713Y-81673385D01*
X29114709Y-81673387D01*
X29034791Y-81719527D01*
X29034786Y-81719531D01*
X28141137Y-82613181D01*
X28079814Y-82646666D01*
X28053456Y-82649500D01*
X27007778Y-82649500D01*
X26940739Y-82629815D01*
X26894984Y-82577011D01*
X26885040Y-82507853D01*
X26898420Y-82467046D01*
X26925190Y-82416963D01*
X26939954Y-82389342D01*
X26997850Y-82198485D01*
X27017399Y-82000000D01*
X26997850Y-81801515D01*
X26939954Y-81610658D01*
X26939951Y-81610654D01*
X26939951Y-81610651D01*
X26845939Y-81434768D01*
X26845937Y-81434766D01*
X26845936Y-81434763D01*
X26733411Y-81297650D01*
X26719410Y-81280589D01*
X26565238Y-81154065D01*
X26565231Y-81154060D01*
X26389348Y-81060048D01*
X26389342Y-81060046D01*
X26198485Y-81002150D01*
X26198483Y-81002149D01*
X26198481Y-81002149D01*
X26000000Y-80982601D01*
X25801518Y-81002149D01*
X25610651Y-81060048D01*
X25434768Y-81154060D01*
X25434761Y-81154065D01*
X25280589Y-81280589D01*
X25154065Y-81434761D01*
X25154060Y-81434768D01*
X25060048Y-81610651D01*
X25002149Y-81801518D01*
X24982601Y-82000000D01*
X25002149Y-82198481D01*
X25060047Y-82389345D01*
X25101580Y-82467046D01*
X25115822Y-82535449D01*
X25090822Y-82600693D01*
X25034517Y-82642064D01*
X24992222Y-82649500D01*
X24467778Y-82649500D01*
X24400739Y-82629815D01*
X24354984Y-82577011D01*
X24345040Y-82507853D01*
X24358420Y-82467046D01*
X24385190Y-82416963D01*
X24399954Y-82389342D01*
X24457850Y-82198485D01*
X24477399Y-82000000D01*
X24457850Y-81801515D01*
X24399954Y-81610658D01*
X24399951Y-81610654D01*
X24399951Y-81610651D01*
X24305939Y-81434768D01*
X24305937Y-81434766D01*
X24305936Y-81434763D01*
X24193411Y-81297650D01*
X24179410Y-81280589D01*
X24025238Y-81154065D01*
X24025231Y-81154060D01*
X23849348Y-81060048D01*
X23849342Y-81060046D01*
X23658485Y-81002150D01*
X23658483Y-81002149D01*
X23658481Y-81002149D01*
X23460000Y-80982601D01*
X23261518Y-81002149D01*
X23070651Y-81060048D01*
X22894768Y-81154060D01*
X22894761Y-81154065D01*
X22740589Y-81280589D01*
X22614065Y-81434761D01*
X22614060Y-81434768D01*
X22520048Y-81610651D01*
X22462149Y-81801518D01*
X22442601Y-82000000D01*
X22462149Y-82198481D01*
X22520047Y-82389345D01*
X22561580Y-82467046D01*
X22575822Y-82535449D01*
X22550822Y-82600693D01*
X22494517Y-82642064D01*
X22452222Y-82649500D01*
X21446543Y-82649500D01*
X21379504Y-82629815D01*
X21358862Y-82613181D01*
X20286319Y-81540637D01*
X20252834Y-81479314D01*
X20250000Y-81452956D01*
X20250000Y-79627251D01*
X30564947Y-79627251D01*
X30590909Y-79791168D01*
X30603976Y-79873668D01*
X30681074Y-80110949D01*
X30794341Y-80333249D01*
X30940989Y-80535093D01*
X31117407Y-80711511D01*
X31319251Y-80858159D01*
X31541551Y-80971426D01*
X31778832Y-81048524D01*
X31871240Y-81063159D01*
X32025249Y-81087553D01*
X32274746Y-81087553D01*
X32274751Y-81087553D01*
X32411647Y-81065870D01*
X32521168Y-81048524D01*
X32758449Y-80971426D01*
X32980749Y-80858159D01*
X33182593Y-80711511D01*
X33359011Y-80535093D01*
X33505659Y-80333249D01*
X33618926Y-80110949D01*
X33696024Y-79873668D01*
X33735053Y-79627246D01*
X33736671Y-79544751D01*
X38064947Y-79544751D01*
X38078014Y-79627251D01*
X38103976Y-79791168D01*
X38181074Y-80028449D01*
X38294341Y-80250749D01*
X38440989Y-80452593D01*
X38617407Y-80629011D01*
X38819251Y-80775659D01*
X39041551Y-80888926D01*
X39278832Y-80966024D01*
X39367074Y-80980000D01*
X39525249Y-81005053D01*
X39774746Y-81005053D01*
X39774751Y-81005053D01*
X39916504Y-80982601D01*
X40021168Y-80966024D01*
X40258449Y-80888926D01*
X40480749Y-80775659D01*
X40682593Y-80629011D01*
X40859011Y-80452593D01*
X41005659Y-80250749D01*
X41118926Y-80028449D01*
X41196024Y-79791168D01*
X41235052Y-79544751D01*
X45379947Y-79544751D01*
X45393014Y-79627251D01*
X45418976Y-79791168D01*
X45496074Y-80028449D01*
X45609341Y-80250749D01*
X45755989Y-80452593D01*
X45932407Y-80629011D01*
X46134251Y-80775659D01*
X46356551Y-80888926D01*
X46593832Y-80966024D01*
X46682074Y-80980000D01*
X46840249Y-81005053D01*
X47089746Y-81005053D01*
X47089751Y-81005053D01*
X47231504Y-80982601D01*
X47247926Y-80980000D01*
X59598369Y-80980000D01*
X59618844Y-81187892D01*
X59618845Y-81187894D01*
X59679485Y-81387799D01*
X59679486Y-81387802D01*
X59679487Y-81387803D01*
X59679488Y-81387806D01*
X59777956Y-81572027D01*
X59777960Y-81572034D01*
X59910484Y-81733515D01*
X60071965Y-81866039D01*
X60071972Y-81866043D01*
X60256193Y-81964511D01*
X60256194Y-81964511D01*
X60256201Y-81964515D01*
X60456106Y-82025155D01*
X60456105Y-82025155D01*
X60464340Y-82025966D01*
X60664000Y-82045631D01*
X60871894Y-82025155D01*
X61071799Y-81964515D01*
X61256033Y-81866040D01*
X61318618Y-81814678D01*
X62143500Y-81814678D01*
X62158032Y-81887735D01*
X62158033Y-81887739D01*
X62158034Y-81887740D01*
X62213399Y-81970601D01*
X62295046Y-82025155D01*
X62296260Y-82025966D01*
X62296264Y-82025967D01*
X62369321Y-82040499D01*
X62369324Y-82040500D01*
X62369326Y-82040500D01*
X64038676Y-82040500D01*
X64038677Y-82040499D01*
X64111740Y-82025966D01*
X64194601Y-81970601D01*
X64249966Y-81887740D01*
X64264500Y-81814674D01*
X64264500Y-80145326D01*
X64264500Y-80145323D01*
X64264499Y-80145321D01*
X64249967Y-80072264D01*
X64249966Y-80072260D01*
X64194601Y-79989399D01*
X64112954Y-79934845D01*
X64111739Y-79934033D01*
X64111735Y-79934032D01*
X64038677Y-79919500D01*
X64038674Y-79919500D01*
X62369326Y-79919500D01*
X62369323Y-79919500D01*
X62296264Y-79934032D01*
X62296260Y-79934033D01*
X62213399Y-79989399D01*
X62158033Y-80072260D01*
X62158032Y-80072264D01*
X62143500Y-80145321D01*
X62143500Y-81814678D01*
X61318618Y-81814678D01*
X61417515Y-81733515D01*
X61550040Y-81572033D01*
X61648515Y-81387799D01*
X61709155Y-81187894D01*
X61729631Y-80980000D01*
X61709155Y-80772106D01*
X61648515Y-80572201D01*
X61648511Y-80572193D01*
X61550043Y-80387972D01*
X61550039Y-80387965D01*
X61417515Y-80226484D01*
X61256034Y-80093960D01*
X61256027Y-80093956D01*
X61071806Y-79995488D01*
X61071803Y-79995487D01*
X61071802Y-79995486D01*
X61071799Y-79995485D01*
X60871894Y-79934845D01*
X60871892Y-79934844D01*
X60871894Y-79934844D01*
X60664000Y-79914369D01*
X60456107Y-79934844D01*
X60338075Y-79970648D01*
X60256201Y-79995485D01*
X60256198Y-79995486D01*
X60256196Y-79995487D01*
X60256193Y-79995488D01*
X60071972Y-80093956D01*
X60071965Y-80093960D01*
X59910484Y-80226484D01*
X59777960Y-80387965D01*
X59777956Y-80387972D01*
X59679488Y-80572193D01*
X59679487Y-80572196D01*
X59618844Y-80772107D01*
X59598369Y-80980000D01*
X47247926Y-80980000D01*
X47336168Y-80966024D01*
X47573449Y-80888926D01*
X47795749Y-80775659D01*
X47997593Y-80629011D01*
X48174011Y-80452593D01*
X48320659Y-80250749D01*
X48433926Y-80028449D01*
X48511024Y-79791168D01*
X48550053Y-79544746D01*
X48552500Y-79420000D01*
X48550053Y-79295254D01*
X48511024Y-79048832D01*
X48433926Y-78811551D01*
X48320659Y-78589251D01*
X48212222Y-78440000D01*
X59598369Y-78440000D01*
X59618844Y-78647892D01*
X59626082Y-78671751D01*
X59679485Y-78847799D01*
X59679486Y-78847802D01*
X59679487Y-78847803D01*
X59679488Y-78847806D01*
X59777956Y-79032027D01*
X59777960Y-79032034D01*
X59910484Y-79193515D01*
X60071965Y-79326039D01*
X60071972Y-79326043D01*
X60256193Y-79424511D01*
X60256194Y-79424511D01*
X60256201Y-79424515D01*
X60456106Y-79485155D01*
X60456105Y-79485155D01*
X60474745Y-79486990D01*
X60664000Y-79505631D01*
X60871894Y-79485155D01*
X61071799Y-79424515D01*
X61256033Y-79326040D01*
X61417515Y-79193515D01*
X61550040Y-79032033D01*
X61648515Y-78847799D01*
X61709155Y-78647894D01*
X61729631Y-78440000D01*
X62138369Y-78440000D01*
X62158844Y-78647892D01*
X62166082Y-78671751D01*
X62219485Y-78847799D01*
X62219486Y-78847802D01*
X62219487Y-78847803D01*
X62219488Y-78847806D01*
X62317956Y-79032027D01*
X62317960Y-79032034D01*
X62450484Y-79193515D01*
X62611965Y-79326039D01*
X62611972Y-79326043D01*
X62796193Y-79424511D01*
X62796194Y-79424511D01*
X62796201Y-79424515D01*
X62996106Y-79485155D01*
X62996105Y-79485155D01*
X63014745Y-79486990D01*
X63204000Y-79505631D01*
X63411894Y-79485155D01*
X63611799Y-79424515D01*
X63796033Y-79326040D01*
X63957515Y-79193515D01*
X64090040Y-79032033D01*
X64188515Y-78847799D01*
X64249155Y-78647894D01*
X64269631Y-78440000D01*
X64249155Y-78232106D01*
X64188515Y-78032201D01*
X64148039Y-77956475D01*
X64090043Y-77847972D01*
X64090039Y-77847965D01*
X63957515Y-77686484D01*
X63796034Y-77553960D01*
X63796027Y-77553956D01*
X63611806Y-77455488D01*
X63611803Y-77455487D01*
X63611802Y-77455486D01*
X63611799Y-77455485D01*
X63411894Y-77394845D01*
X63411892Y-77394844D01*
X63411894Y-77394844D01*
X63204000Y-77374369D01*
X62996107Y-77394844D01*
X62878075Y-77430648D01*
X62796201Y-77455485D01*
X62796198Y-77455486D01*
X62796196Y-77455487D01*
X62796193Y-77455488D01*
X62611972Y-77553956D01*
X62611965Y-77553960D01*
X62450484Y-77686484D01*
X62317960Y-77847965D01*
X62317956Y-77847972D01*
X62219488Y-78032193D01*
X62219487Y-78032196D01*
X62219486Y-78032198D01*
X62219485Y-78032201D01*
X62209736Y-78064341D01*
X62158844Y-78232107D01*
X62138369Y-78440000D01*
X61729631Y-78440000D01*
X61709155Y-78232106D01*
X61648515Y-78032201D01*
X61608039Y-77956475D01*
X61550043Y-77847972D01*
X61550039Y-77847965D01*
X61417515Y-77686484D01*
X61256034Y-77553960D01*
X61256027Y-77553956D01*
X61071806Y-77455488D01*
X61071803Y-77455487D01*
X61071802Y-77455486D01*
X61071799Y-77455485D01*
X60871894Y-77394845D01*
X60871892Y-77394844D01*
X60871894Y-77394844D01*
X60664000Y-77374369D01*
X60456107Y-77394844D01*
X60338075Y-77430648D01*
X60256201Y-77455485D01*
X60256198Y-77455486D01*
X60256196Y-77455487D01*
X60256193Y-77455488D01*
X60071972Y-77553956D01*
X60071965Y-77553960D01*
X59910484Y-77686484D01*
X59777960Y-77847965D01*
X59777956Y-77847972D01*
X59679488Y-78032193D01*
X59679487Y-78032196D01*
X59679486Y-78032198D01*
X59679485Y-78032201D01*
X59669736Y-78064341D01*
X59618844Y-78232107D01*
X59598369Y-78440000D01*
X48212222Y-78440000D01*
X48174011Y-78387407D01*
X47997593Y-78210989D01*
X47795749Y-78064341D01*
X47573449Y-77951074D01*
X47336168Y-77873976D01*
X47336166Y-77873975D01*
X47336164Y-77873975D01*
X47089751Y-77834947D01*
X47089746Y-77834947D01*
X46840254Y-77834947D01*
X46840249Y-77834947D01*
X46593835Y-77873975D01*
X46356548Y-77951075D01*
X46134250Y-78064341D01*
X45932404Y-78210991D01*
X45755991Y-78387404D01*
X45609341Y-78589250D01*
X45496075Y-78811548D01*
X45418975Y-79048835D01*
X45379947Y-79295248D01*
X45379947Y-79544751D01*
X41235052Y-79544751D01*
X41235053Y-79544746D01*
X41237500Y-79420000D01*
X41235053Y-79295254D01*
X41196024Y-79048832D01*
X41118926Y-78811551D01*
X41005659Y-78589251D01*
X40859011Y-78387407D01*
X40682593Y-78210989D01*
X40480749Y-78064341D01*
X40258449Y-77951074D01*
X40021168Y-77873976D01*
X40021166Y-77873975D01*
X40021164Y-77873975D01*
X39774751Y-77834947D01*
X39774746Y-77834947D01*
X39525254Y-77834947D01*
X39525249Y-77834947D01*
X39278835Y-77873975D01*
X39041548Y-77951075D01*
X38819250Y-78064341D01*
X38617404Y-78210991D01*
X38440991Y-78387404D01*
X38294341Y-78589250D01*
X38181075Y-78811548D01*
X38103975Y-79048835D01*
X38064947Y-79295248D01*
X38064947Y-79544751D01*
X33736671Y-79544751D01*
X33737500Y-79502500D01*
X33735053Y-79377754D01*
X33696024Y-79131332D01*
X33618926Y-78894051D01*
X33505659Y-78671751D01*
X33359011Y-78469907D01*
X33182593Y-78293489D01*
X32980749Y-78146841D01*
X32758449Y-78033574D01*
X32521168Y-77956476D01*
X32521166Y-77956475D01*
X32521164Y-77956475D01*
X32274751Y-77917447D01*
X32274746Y-77917447D01*
X32025254Y-77917447D01*
X32025249Y-77917447D01*
X31778835Y-77956475D01*
X31541548Y-78033575D01*
X31319250Y-78146841D01*
X31117404Y-78293491D01*
X30940991Y-78469904D01*
X30794341Y-78671750D01*
X30681075Y-78894048D01*
X30603975Y-79131335D01*
X30564947Y-79377748D01*
X30564947Y-79627251D01*
X20250000Y-79627251D01*
X20250000Y-76500000D01*
X39694750Y-76500000D01*
X39713670Y-76643708D01*
X39713671Y-76643712D01*
X39769137Y-76777622D01*
X39769138Y-76777624D01*
X39769139Y-76777625D01*
X39857379Y-76892621D01*
X39972375Y-76980861D01*
X40106291Y-77036330D01*
X40233280Y-77053048D01*
X40249999Y-77055250D01*
X40250000Y-77055250D01*
X40250001Y-77055250D01*
X40264977Y-77053278D01*
X40393709Y-77036330D01*
X40527625Y-76980861D01*
X40642621Y-76892621D01*
X40730861Y-76777625D01*
X40786330Y-76643709D01*
X40805250Y-76500000D01*
X41944750Y-76500000D01*
X41963670Y-76643708D01*
X41963671Y-76643712D01*
X42019137Y-76777622D01*
X42019138Y-76777624D01*
X42019139Y-76777625D01*
X42107379Y-76892621D01*
X42222375Y-76980861D01*
X42356291Y-77036330D01*
X42483280Y-77053048D01*
X42499999Y-77055250D01*
X42500000Y-77055250D01*
X42500001Y-77055250D01*
X42514977Y-77053278D01*
X42643709Y-77036330D01*
X42777625Y-76980861D01*
X42892621Y-76892621D01*
X42980861Y-76777625D01*
X43036330Y-76643709D01*
X43055250Y-76500000D01*
X43036330Y-76356291D01*
X42999350Y-76267013D01*
X42992303Y-76250000D01*
X45194750Y-76250000D01*
X45213670Y-76393708D01*
X45213671Y-76393712D01*
X45269137Y-76527622D01*
X45269138Y-76527624D01*
X45269139Y-76527625D01*
X45357379Y-76642621D01*
X45472375Y-76730861D01*
X45606291Y-76786330D01*
X45733280Y-76803048D01*
X45749999Y-76805250D01*
X45750000Y-76805250D01*
X45750001Y-76805250D01*
X45764977Y-76803278D01*
X45893709Y-76786330D01*
X46027625Y-76730861D01*
X46049514Y-76714065D01*
X46114683Y-76688871D01*
X46183128Y-76702909D01*
X46200487Y-76714065D01*
X46222375Y-76730861D01*
X46356291Y-76786330D01*
X46483280Y-76803048D01*
X46499999Y-76805250D01*
X46500000Y-76805250D01*
X46500001Y-76805250D01*
X46514977Y-76803278D01*
X46643709Y-76786330D01*
X46777625Y-76730861D01*
X46799514Y-76714065D01*
X46864683Y-76688871D01*
X46933128Y-76702909D01*
X46950487Y-76714065D01*
X46972375Y-76730861D01*
X47106291Y-76786330D01*
X47233280Y-76803048D01*
X47249999Y-76805250D01*
X47250000Y-76805250D01*
X47250001Y-76805250D01*
X47264977Y-76803278D01*
X47393709Y-76786330D01*
X47527625Y-76730861D01*
X47642621Y-76642621D01*
X47730861Y-76527625D01*
X47786330Y-76393709D01*
X47805250Y-76250000D01*
X47790439Y-76137500D01*
X48807250Y-76137500D01*
X48819541Y-76230861D01*
X48826170Y-76281208D01*
X48826171Y-76281212D01*
X48881637Y-76415122D01*
X48881638Y-76415124D01*
X48881639Y-76415125D01*
X48969879Y-76530121D01*
X49084875Y-76618361D01*
X49218791Y-76673830D01*
X49333037Y-76688871D01*
X49362499Y-76692750D01*
X49362500Y-76692750D01*
X49362501Y-76692750D01*
X49377477Y-76690778D01*
X49506209Y-76673830D01*
X49640125Y-76618361D01*
X49755121Y-76530121D01*
X49843361Y-76415125D01*
X49858207Y-76379280D01*
X49902046Y-76324879D01*
X49968340Y-76302813D01*
X49988942Y-76303794D01*
X50000000Y-76305250D01*
X50143709Y-76286330D01*
X50277625Y-76230861D01*
X50392621Y-76142621D01*
X50480861Y-76027625D01*
X50533724Y-75900000D01*
X59598369Y-75900000D01*
X59618844Y-76107892D01*
X59627826Y-76137500D01*
X59679485Y-76307799D01*
X59679486Y-76307802D01*
X59679487Y-76307803D01*
X59679488Y-76307806D01*
X59777956Y-76492027D01*
X59777960Y-76492034D01*
X59910484Y-76653515D01*
X60071965Y-76786039D01*
X60071972Y-76786043D01*
X60256193Y-76884511D01*
X60256194Y-76884511D01*
X60256201Y-76884515D01*
X60456106Y-76945155D01*
X60456105Y-76945155D01*
X60474745Y-76946990D01*
X60664000Y-76965631D01*
X60871894Y-76945155D01*
X61071799Y-76884515D01*
X61256033Y-76786040D01*
X61417515Y-76653515D01*
X61550040Y-76492033D01*
X61648515Y-76307799D01*
X61709155Y-76107894D01*
X61729631Y-75900000D01*
X62138369Y-75900000D01*
X62158844Y-76107892D01*
X62167826Y-76137500D01*
X62219485Y-76307799D01*
X62219486Y-76307802D01*
X62219487Y-76307803D01*
X62219488Y-76307806D01*
X62317956Y-76492027D01*
X62317960Y-76492034D01*
X62450484Y-76653515D01*
X62611965Y-76786039D01*
X62611972Y-76786043D01*
X62796193Y-76884511D01*
X62796194Y-76884511D01*
X62796201Y-76884515D01*
X62996106Y-76945155D01*
X62996105Y-76945155D01*
X63014745Y-76946990D01*
X63204000Y-76965631D01*
X63411894Y-76945155D01*
X63611799Y-76884515D01*
X63796033Y-76786040D01*
X63957515Y-76653515D01*
X64090040Y-76492033D01*
X64188515Y-76307799D01*
X64249155Y-76107894D01*
X64269631Y-75900000D01*
X64249155Y-75692106D01*
X64188515Y-75492201D01*
X64177918Y-75472375D01*
X64090043Y-75307972D01*
X64090039Y-75307965D01*
X63957515Y-75146484D01*
X63796034Y-75013960D01*
X63796027Y-75013956D01*
X63611806Y-74915488D01*
X63611803Y-74915487D01*
X63611802Y-74915486D01*
X63611799Y-74915485D01*
X63411894Y-74854845D01*
X63411892Y-74854844D01*
X63411894Y-74854844D01*
X63204000Y-74834369D01*
X62996107Y-74854844D01*
X62878075Y-74890648D01*
X62796201Y-74915485D01*
X62796198Y-74915486D01*
X62796196Y-74915487D01*
X62796193Y-74915488D01*
X62611972Y-75013956D01*
X62611965Y-75013960D01*
X62450484Y-75146484D01*
X62317960Y-75307965D01*
X62317956Y-75307972D01*
X62219488Y-75492193D01*
X62219487Y-75492196D01*
X62158844Y-75692107D01*
X62138369Y-75900000D01*
X61729631Y-75900000D01*
X61709155Y-75692106D01*
X61648515Y-75492201D01*
X61637918Y-75472375D01*
X61550043Y-75307972D01*
X61550039Y-75307965D01*
X61417515Y-75146484D01*
X61256034Y-75013960D01*
X61256027Y-75013956D01*
X61071806Y-74915488D01*
X61071803Y-74915487D01*
X61071802Y-74915486D01*
X61071799Y-74915485D01*
X60871894Y-74854845D01*
X60871892Y-74854844D01*
X60871894Y-74854844D01*
X60664000Y-74834369D01*
X60456107Y-74854844D01*
X60338075Y-74890648D01*
X60256201Y-74915485D01*
X60256198Y-74915486D01*
X60256196Y-74915487D01*
X60256193Y-74915488D01*
X60071972Y-75013956D01*
X60071965Y-75013960D01*
X59910484Y-75146484D01*
X59777960Y-75307965D01*
X59777956Y-75307972D01*
X59679488Y-75492193D01*
X59679487Y-75492196D01*
X59618844Y-75692107D01*
X59598369Y-75900000D01*
X50533724Y-75900000D01*
X50536330Y-75893709D01*
X50555250Y-75750000D01*
X50536330Y-75606291D01*
X50480861Y-75472375D01*
X50392621Y-75357379D01*
X50277625Y-75269139D01*
X50277624Y-75269138D01*
X50277622Y-75269137D01*
X50143712Y-75213671D01*
X50143710Y-75213670D01*
X50143709Y-75213670D01*
X50071854Y-75204210D01*
X50000001Y-75194750D01*
X49999999Y-75194750D01*
X49856291Y-75213670D01*
X49856287Y-75213671D01*
X49722377Y-75269137D01*
X49607379Y-75357379D01*
X49519139Y-75472375D01*
X49504292Y-75508219D01*
X49460450Y-75562622D01*
X49394156Y-75584686D01*
X49373546Y-75583704D01*
X49362501Y-75582250D01*
X49362499Y-75582250D01*
X49218791Y-75601170D01*
X49218787Y-75601171D01*
X49084877Y-75656637D01*
X48969879Y-75744879D01*
X48881637Y-75859877D01*
X48826171Y-75993787D01*
X48826170Y-75993791D01*
X48811216Y-76107379D01*
X48807250Y-76137500D01*
X47790439Y-76137500D01*
X47786330Y-76106291D01*
X47730861Y-75972375D01*
X47642621Y-75857379D01*
X47527625Y-75769139D01*
X47527624Y-75769138D01*
X47527622Y-75769137D01*
X47393712Y-75713671D01*
X47393710Y-75713670D01*
X47393709Y-75713670D01*
X47321854Y-75704210D01*
X47250001Y-75694750D01*
X47249999Y-75694750D01*
X47106291Y-75713670D01*
X47106287Y-75713671D01*
X46972375Y-75769138D01*
X46950485Y-75785935D01*
X46885315Y-75811128D01*
X46816871Y-75797089D01*
X46799515Y-75785935D01*
X46777624Y-75769138D01*
X46777625Y-75769138D01*
X46643712Y-75713671D01*
X46643710Y-75713670D01*
X46643709Y-75713670D01*
X46571854Y-75704210D01*
X46500001Y-75694750D01*
X46499999Y-75694750D01*
X46356291Y-75713670D01*
X46356287Y-75713671D01*
X46222375Y-75769138D01*
X46200485Y-75785935D01*
X46135315Y-75811128D01*
X46066871Y-75797089D01*
X46049515Y-75785935D01*
X46027624Y-75769138D01*
X46027625Y-75769138D01*
X45893712Y-75713671D01*
X45893710Y-75713670D01*
X45893709Y-75713670D01*
X45821854Y-75704210D01*
X45750001Y-75694750D01*
X45749999Y-75694750D01*
X45606291Y-75713670D01*
X45606287Y-75713671D01*
X45472377Y-75769137D01*
X45357379Y-75857379D01*
X45269137Y-75972377D01*
X45213671Y-76106287D01*
X45213670Y-76106291D01*
X45194750Y-76249999D01*
X45194750Y-76250000D01*
X42992303Y-76250000D01*
X42980862Y-76222377D01*
X42980861Y-76222376D01*
X42980861Y-76222375D01*
X42892621Y-76107379D01*
X42777625Y-76019139D01*
X42777624Y-76019138D01*
X42777622Y-76019137D01*
X42643712Y-75963671D01*
X42643710Y-75963670D01*
X42643709Y-75963670D01*
X42571854Y-75954210D01*
X42500001Y-75944750D01*
X42499999Y-75944750D01*
X42356291Y-75963670D01*
X42356287Y-75963671D01*
X42222377Y-76019137D01*
X42107379Y-76107379D01*
X42019137Y-76222377D01*
X41963671Y-76356287D01*
X41963670Y-76356291D01*
X41944750Y-76499999D01*
X41944750Y-76500000D01*
X40805250Y-76500000D01*
X40786330Y-76356291D01*
X40749350Y-76267013D01*
X40730862Y-76222377D01*
X40730861Y-76222376D01*
X40730861Y-76222375D01*
X40642621Y-76107379D01*
X40527625Y-76019139D01*
X40527624Y-76019138D01*
X40527622Y-76019137D01*
X40393712Y-75963671D01*
X40393710Y-75963670D01*
X40393709Y-75963670D01*
X40321854Y-75954210D01*
X40250001Y-75944750D01*
X40249999Y-75944750D01*
X40106291Y-75963670D01*
X40106287Y-75963671D01*
X39972377Y-76019137D01*
X39857379Y-76107379D01*
X39769137Y-76222377D01*
X39713671Y-76356287D01*
X39713670Y-76356291D01*
X39694750Y-76499999D01*
X39694750Y-76500000D01*
X20250000Y-76500000D01*
X20250000Y-74380000D01*
X22442601Y-74380000D01*
X22462149Y-74578481D01*
X22520048Y-74769348D01*
X22614060Y-74945231D01*
X22614065Y-74945238D01*
X22740589Y-75099410D01*
X22797950Y-75146484D01*
X22894763Y-75225936D01*
X22894766Y-75225937D01*
X22894768Y-75225939D01*
X23070651Y-75319951D01*
X23070654Y-75319951D01*
X23070658Y-75319954D01*
X23261515Y-75377850D01*
X23460000Y-75397399D01*
X23658485Y-75377850D01*
X23849342Y-75319954D01*
X24025237Y-75225936D01*
X24179410Y-75099410D01*
X24305936Y-74945237D01*
X24399954Y-74769342D01*
X24457850Y-74578485D01*
X24477399Y-74380000D01*
X24457850Y-74181515D01*
X24399954Y-73990658D01*
X24399951Y-73990654D01*
X24399951Y-73990651D01*
X24305939Y-73814768D01*
X24305937Y-73814766D01*
X24305936Y-73814763D01*
X24267456Y-73767875D01*
X24179410Y-73660589D01*
X24025238Y-73534065D01*
X24025231Y-73534060D01*
X23849348Y-73440048D01*
X23849342Y-73440046D01*
X23658485Y-73382150D01*
X23658483Y-73382149D01*
X23658481Y-73382149D01*
X23460000Y-73362601D01*
X23261518Y-73382149D01*
X23070651Y-73440048D01*
X22894768Y-73534060D01*
X22894761Y-73534065D01*
X22740589Y-73660589D01*
X22614065Y-73814761D01*
X22614060Y-73814768D01*
X22520048Y-73990651D01*
X22462149Y-74181518D01*
X22442601Y-74380000D01*
X20250000Y-74380000D01*
X20250000Y-71840000D01*
X22442601Y-71840000D01*
X22462149Y-72038481D01*
X22462149Y-72038483D01*
X22462150Y-72038485D01*
X22496394Y-72151373D01*
X22520048Y-72229348D01*
X22614060Y-72405231D01*
X22614065Y-72405238D01*
X22740589Y-72559410D01*
X22800063Y-72608218D01*
X22894763Y-72685936D01*
X22894766Y-72685937D01*
X22894768Y-72685939D01*
X23070651Y-72779951D01*
X23070654Y-72779951D01*
X23070658Y-72779954D01*
X23261515Y-72837850D01*
X23460000Y-72857399D01*
X23658485Y-72837850D01*
X23849342Y-72779954D01*
X24025237Y-72685936D01*
X24179410Y-72559410D01*
X24305936Y-72405237D01*
X24399954Y-72229342D01*
X24457850Y-72038485D01*
X24461640Y-72000000D01*
X42444750Y-72000000D01*
X42463670Y-72143708D01*
X42463671Y-72143712D01*
X42519137Y-72277622D01*
X42519138Y-72277624D01*
X42519139Y-72277625D01*
X42607379Y-72392621D01*
X42722375Y-72480861D01*
X42856291Y-72536330D01*
X42983280Y-72553048D01*
X42999999Y-72555250D01*
X43000000Y-72555250D01*
X43000001Y-72555250D01*
X43014977Y-72553278D01*
X43143709Y-72536330D01*
X43277625Y-72480861D01*
X43392621Y-72392621D01*
X43480861Y-72277625D01*
X43536330Y-72143709D01*
X43555250Y-72000000D01*
X48944750Y-72000000D01*
X48963670Y-72143708D01*
X48963671Y-72143712D01*
X49019137Y-72277622D01*
X49019138Y-72277624D01*
X49019139Y-72277625D01*
X49107379Y-72392621D01*
X49222375Y-72480861D01*
X49356291Y-72536330D01*
X49483280Y-72553048D01*
X49499999Y-72555250D01*
X49500000Y-72555250D01*
X49500001Y-72555250D01*
X49514977Y-72553278D01*
X49643709Y-72536330D01*
X49777625Y-72480861D01*
X49892621Y-72392621D01*
X49980861Y-72277625D01*
X50036330Y-72143709D01*
X50055250Y-72000000D01*
X50036330Y-71856291D01*
X50017156Y-71810000D01*
X61390702Y-71810000D01*
X61409043Y-71984501D01*
X61463260Y-72151367D01*
X61463263Y-72151373D01*
X61550993Y-72303326D01*
X61668394Y-72433715D01*
X61668401Y-72433721D01*
X61810346Y-72536850D01*
X61810351Y-72536853D01*
X61970638Y-72608218D01*
X61970643Y-72608220D01*
X62142269Y-72644700D01*
X62142270Y-72644700D01*
X62317729Y-72644700D01*
X62317731Y-72644700D01*
X62489357Y-72608220D01*
X62649649Y-72536853D01*
X62791600Y-72433720D01*
X62791604Y-72433715D01*
X62792114Y-72433345D01*
X62857920Y-72409865D01*
X62925974Y-72425690D01*
X62937886Y-72433345D01*
X62938395Y-72433715D01*
X62938400Y-72433720D01*
X63079628Y-72536328D01*
X63080351Y-72536853D01*
X63240638Y-72608218D01*
X63240643Y-72608220D01*
X63412269Y-72644700D01*
X63412270Y-72644700D01*
X63587729Y-72644700D01*
X63587731Y-72644700D01*
X63759357Y-72608220D01*
X63919649Y-72536853D01*
X64061600Y-72433720D01*
X64068831Y-72425690D01*
X64103413Y-72387281D01*
X64179006Y-72303327D01*
X64266737Y-72151373D01*
X64269228Y-72143708D01*
X64303416Y-72038485D01*
X64320957Y-71984500D01*
X64339298Y-71810000D01*
X64320957Y-71635500D01*
X64266737Y-71468627D01*
X64201376Y-71355418D01*
X64179007Y-71316674D01*
X64170968Y-71307746D01*
X64126150Y-71257970D01*
X64095921Y-71194981D01*
X64104546Y-71125646D01*
X64126149Y-71092030D01*
X64179006Y-71033327D01*
X64266737Y-70881373D01*
X64320957Y-70714500D01*
X64339298Y-70540000D01*
X64320957Y-70365500D01*
X64292404Y-70277622D01*
X64266739Y-70198632D01*
X64266736Y-70198626D01*
X64179007Y-70046674D01*
X64170968Y-70037746D01*
X64126150Y-69987970D01*
X64095921Y-69924981D01*
X64104546Y-69855646D01*
X64126149Y-69822030D01*
X64179006Y-69763327D01*
X64266737Y-69611373D01*
X64320957Y-69444500D01*
X64339298Y-69270000D01*
X64320957Y-69095500D01*
X64294790Y-69014968D01*
X64266739Y-68928632D01*
X64266736Y-68928626D01*
X64229835Y-68864712D01*
X64183693Y-68784791D01*
X64179007Y-68776674D01*
X64170968Y-68767746D01*
X64126150Y-68717970D01*
X64095921Y-68654981D01*
X64104546Y-68585646D01*
X64126149Y-68552030D01*
X64179006Y-68493327D01*
X64266737Y-68341373D01*
X64320957Y-68174500D01*
X64339298Y-68000000D01*
X64320957Y-67825500D01*
X64266737Y-67658627D01*
X64191101Y-67527622D01*
X64179007Y-67506674D01*
X64140286Y-67463670D01*
X64126150Y-67447970D01*
X64095921Y-67384981D01*
X64104546Y-67315646D01*
X64126149Y-67282030D01*
X64179006Y-67223327D01*
X64266737Y-67071373D01*
X64320957Y-66904500D01*
X64339298Y-66730000D01*
X64320957Y-66555500D01*
X64266737Y-66388627D01*
X64179006Y-66236673D01*
X64126204Y-66178030D01*
X64061605Y-66106284D01*
X64061598Y-66106278D01*
X63919653Y-66003149D01*
X63919648Y-66003146D01*
X63759361Y-65931781D01*
X63759356Y-65931779D01*
X63633601Y-65905049D01*
X63590034Y-65895789D01*
X63528553Y-65862598D01*
X63499102Y-65809268D01*
X63477897Y-65855703D01*
X63419119Y-65893477D01*
X63409971Y-65895788D01*
X63373673Y-65903503D01*
X63240643Y-65931779D01*
X63240638Y-65931781D01*
X63080351Y-66003146D01*
X63080346Y-66003149D01*
X62938401Y-66106278D01*
X62938394Y-66106284D01*
X62820993Y-66236673D01*
X62733263Y-66388626D01*
X62733260Y-66388632D01*
X62679043Y-66555498D01*
X62660702Y-66730000D01*
X62679043Y-66904501D01*
X62733260Y-67071367D01*
X62734590Y-67074352D01*
X62734842Y-67076235D01*
X62735271Y-67077554D01*
X62735030Y-67077632D01*
X62743880Y-67143602D01*
X62714256Y-67206880D01*
X62655123Y-67244098D01*
X62585257Y-67243438D01*
X62570882Y-67238077D01*
X62489357Y-67201780D01*
X62489355Y-67201779D01*
X62489354Y-67201779D01*
X62381184Y-67178787D01*
X62317731Y-67165300D01*
X62142269Y-67165300D01*
X62112184Y-67171694D01*
X61970643Y-67201779D01*
X61970638Y-67201781D01*
X61810351Y-67273146D01*
X61810346Y-67273149D01*
X61668401Y-67376278D01*
X61668394Y-67376284D01*
X61550993Y-67506673D01*
X61463263Y-67658626D01*
X61463260Y-67658632D01*
X61409043Y-67825498D01*
X61390702Y-68000000D01*
X61409043Y-68174501D01*
X61463260Y-68341367D01*
X61463263Y-68341373D01*
X61550993Y-68493326D01*
X61603848Y-68552028D01*
X61634078Y-68615020D01*
X61625452Y-68684355D01*
X61603848Y-68717972D01*
X61550993Y-68776673D01*
X61463263Y-68928626D01*
X61463260Y-68928632D01*
X61409043Y-69095498D01*
X61390702Y-69270000D01*
X61409043Y-69444501D01*
X61463260Y-69611367D01*
X61463263Y-69611373D01*
X61550993Y-69763326D01*
X61603848Y-69822028D01*
X61634078Y-69885020D01*
X61625452Y-69954355D01*
X61603848Y-69987972D01*
X61550993Y-70046673D01*
X61463263Y-70198626D01*
X61463260Y-70198632D01*
X61409043Y-70365498D01*
X61390702Y-70540000D01*
X61409043Y-70714501D01*
X61463260Y-70881367D01*
X61463263Y-70881373D01*
X61550993Y-71033326D01*
X61603848Y-71092028D01*
X61634078Y-71155020D01*
X61625452Y-71224355D01*
X61603848Y-71257972D01*
X61550993Y-71316673D01*
X61463263Y-71468626D01*
X61463260Y-71468632D01*
X61409043Y-71635498D01*
X61390702Y-71810000D01*
X50017156Y-71810000D01*
X49980861Y-71722375D01*
X49892621Y-71607379D01*
X49777625Y-71519139D01*
X49777624Y-71519138D01*
X49777622Y-71519137D01*
X49643712Y-71463671D01*
X49643710Y-71463670D01*
X49643709Y-71463670D01*
X49544822Y-71450651D01*
X49500001Y-71444750D01*
X49499999Y-71444750D01*
X49356291Y-71463670D01*
X49356287Y-71463671D01*
X49222377Y-71519137D01*
X49107379Y-71607379D01*
X49019137Y-71722377D01*
X48963671Y-71856287D01*
X48963670Y-71856291D01*
X48944750Y-71999999D01*
X48944750Y-72000000D01*
X43555250Y-72000000D01*
X43536330Y-71856291D01*
X43480861Y-71722375D01*
X43392621Y-71607379D01*
X43277625Y-71519139D01*
X43277624Y-71519138D01*
X43277622Y-71519137D01*
X43143712Y-71463671D01*
X43143710Y-71463670D01*
X43143709Y-71463670D01*
X43044822Y-71450651D01*
X43000001Y-71444750D01*
X42999999Y-71444750D01*
X42856291Y-71463670D01*
X42856287Y-71463671D01*
X42722377Y-71519137D01*
X42607379Y-71607379D01*
X42519137Y-71722377D01*
X42463671Y-71856287D01*
X42463670Y-71856291D01*
X42444750Y-71999999D01*
X42444750Y-72000000D01*
X24461640Y-72000000D01*
X24477399Y-71840000D01*
X24457850Y-71641515D01*
X24399954Y-71450658D01*
X24399951Y-71450654D01*
X24399951Y-71450651D01*
X24305939Y-71274768D01*
X24305937Y-71274766D01*
X24305936Y-71274763D01*
X24233121Y-71186037D01*
X24179410Y-71120589D01*
X24032470Y-71000000D01*
X36546408Y-71000000D01*
X36564730Y-71186033D01*
X36564730Y-71186035D01*
X36564731Y-71186037D01*
X36618996Y-71364924D01*
X36618998Y-71364930D01*
X36707113Y-71529781D01*
X36707117Y-71529788D01*
X36825708Y-71674291D01*
X36970211Y-71792882D01*
X36970218Y-71792886D01*
X37135069Y-71881001D01*
X37135072Y-71881001D01*
X37135076Y-71881004D01*
X37313963Y-71935269D01*
X37500000Y-71953592D01*
X37686037Y-71935269D01*
X37864924Y-71881004D01*
X38029787Y-71792883D01*
X38174291Y-71674291D01*
X38292883Y-71529787D01*
X38365199Y-71394494D01*
X38381001Y-71364930D01*
X38381001Y-71364929D01*
X38381004Y-71364924D01*
X38435269Y-71186037D01*
X38449789Y-71038612D01*
X54976137Y-71038612D01*
X54990815Y-71150104D01*
X54995057Y-71182320D01*
X54995058Y-71182324D01*
X55050524Y-71316234D01*
X55050525Y-71316236D01*
X55050526Y-71316237D01*
X55138766Y-71431233D01*
X55253762Y-71519473D01*
X55253763Y-71519473D01*
X55253764Y-71519474D01*
X55278665Y-71529788D01*
X55387678Y-71574942D01*
X55514667Y-71591660D01*
X55531386Y-71593862D01*
X55531387Y-71593862D01*
X55531388Y-71593862D01*
X55546364Y-71591890D01*
X55675096Y-71574942D01*
X55809012Y-71519473D01*
X55924008Y-71431233D01*
X55952200Y-71394492D01*
X56008625Y-71353291D01*
X56078371Y-71349136D01*
X56098020Y-71355416D01*
X56164279Y-71382861D01*
X56252639Y-71394494D01*
X56307987Y-71401781D01*
X56307988Y-71401781D01*
X56307989Y-71401781D01*
X56322965Y-71399809D01*
X56451697Y-71382861D01*
X56585613Y-71327392D01*
X56700609Y-71239152D01*
X56788849Y-71124156D01*
X56844318Y-70990240D01*
X56863238Y-70846531D01*
X56844318Y-70702822D01*
X56807434Y-70613775D01*
X57974676Y-70613775D01*
X57986399Y-70702822D01*
X57993596Y-70757483D01*
X57993597Y-70757487D01*
X58049063Y-70891397D01*
X58049064Y-70891399D01*
X58049065Y-70891400D01*
X58137305Y-71006396D01*
X58252301Y-71094636D01*
X58386217Y-71150105D01*
X58513206Y-71166823D01*
X58529925Y-71169025D01*
X58529926Y-71169025D01*
X58529927Y-71169025D01*
X58544903Y-71167053D01*
X58673635Y-71150105D01*
X58807551Y-71094636D01*
X58922547Y-71006396D01*
X59010787Y-70891400D01*
X59066256Y-70757484D01*
X59085176Y-70613775D01*
X59066256Y-70470066D01*
X59010787Y-70336150D01*
X58922547Y-70221154D01*
X58807551Y-70132914D01*
X58807550Y-70132913D01*
X58807548Y-70132912D01*
X58673638Y-70077446D01*
X58673636Y-70077445D01*
X58673635Y-70077445D01*
X58601780Y-70067985D01*
X58529927Y-70058525D01*
X58529925Y-70058525D01*
X58386217Y-70077445D01*
X58386213Y-70077446D01*
X58252303Y-70132912D01*
X58137305Y-70221154D01*
X58049063Y-70336152D01*
X57993597Y-70470062D01*
X57993596Y-70470066D01*
X57974676Y-70613775D01*
X56807434Y-70613775D01*
X56788849Y-70568906D01*
X56700609Y-70453910D01*
X56585613Y-70365670D01*
X56585612Y-70365669D01*
X56585610Y-70365668D01*
X56451700Y-70310202D01*
X56451698Y-70310201D01*
X56451697Y-70310201D01*
X56379842Y-70300741D01*
X56307989Y-70291281D01*
X56307987Y-70291281D01*
X56164279Y-70310201D01*
X56164275Y-70310202D01*
X56030365Y-70365668D01*
X55995241Y-70392620D01*
X55915367Y-70453910D01*
X55915365Y-70453911D01*
X55915364Y-70453913D01*
X55887174Y-70490650D01*
X55830746Y-70531852D01*
X55761000Y-70536005D01*
X55741349Y-70529724D01*
X55705655Y-70514940D01*
X55675096Y-70502282D01*
X55586744Y-70490650D01*
X55531388Y-70483362D01*
X55531386Y-70483362D01*
X55387678Y-70502282D01*
X55387674Y-70502283D01*
X55253764Y-70557749D01*
X55138766Y-70645991D01*
X55050524Y-70760989D01*
X54995058Y-70894899D01*
X54995057Y-70894903D01*
X54980379Y-71006395D01*
X54976137Y-71038612D01*
X38449789Y-71038612D01*
X38453592Y-71000000D01*
X38435269Y-70813963D01*
X38381004Y-70635076D01*
X38381001Y-70635072D01*
X38381001Y-70635069D01*
X38292886Y-70470218D01*
X38292882Y-70470211D01*
X38174291Y-70325708D01*
X38029788Y-70207117D01*
X38029781Y-70207113D01*
X37864930Y-70118998D01*
X37864924Y-70118996D01*
X37686037Y-70064731D01*
X37686035Y-70064730D01*
X37686033Y-70064730D01*
X37500000Y-70046408D01*
X37313966Y-70064730D01*
X37135069Y-70118998D01*
X36970218Y-70207113D01*
X36970211Y-70207117D01*
X36825708Y-70325708D01*
X36707117Y-70470211D01*
X36707113Y-70470218D01*
X36618998Y-70635069D01*
X36564730Y-70813966D01*
X36546408Y-71000000D01*
X24032470Y-71000000D01*
X24025238Y-70994065D01*
X24025231Y-70994060D01*
X23849348Y-70900048D01*
X23849342Y-70900046D01*
X23658485Y-70842150D01*
X23658483Y-70842149D01*
X23658481Y-70842149D01*
X23460000Y-70822601D01*
X23261518Y-70842149D01*
X23070651Y-70900048D01*
X22894768Y-70994060D01*
X22894761Y-70994065D01*
X22740589Y-71120589D01*
X22614065Y-71274761D01*
X22614060Y-71274768D01*
X22520048Y-71450651D01*
X22462149Y-71641518D01*
X22442601Y-71840000D01*
X20250000Y-71840000D01*
X20250000Y-70000000D01*
X50444750Y-70000000D01*
X50460416Y-70118996D01*
X50463670Y-70143708D01*
X50463671Y-70143712D01*
X50519137Y-70277622D01*
X50519138Y-70277624D01*
X50519139Y-70277625D01*
X50607379Y-70392621D01*
X50722375Y-70480861D01*
X50856291Y-70536330D01*
X50983280Y-70553048D01*
X50999999Y-70555250D01*
X51000000Y-70555250D01*
X51000001Y-70555250D01*
X51014977Y-70553278D01*
X51143709Y-70536330D01*
X51277625Y-70480861D01*
X51392621Y-70392621D01*
X51480861Y-70277625D01*
X51536330Y-70143709D01*
X51555250Y-70000000D01*
X51536330Y-69856291D01*
X51480861Y-69722375D01*
X51392621Y-69607379D01*
X51392619Y-69607377D01*
X51392615Y-69607372D01*
X51386871Y-69601628D01*
X51389387Y-69599111D01*
X51357797Y-69555817D01*
X51350500Y-69513908D01*
X51350500Y-69196543D01*
X51370185Y-69129504D01*
X51386814Y-69108866D01*
X51745680Y-68750000D01*
X59194750Y-68750000D01*
X59209852Y-68864712D01*
X59213670Y-68893708D01*
X59213671Y-68893712D01*
X59269137Y-69027622D01*
X59269138Y-69027624D01*
X59269139Y-69027625D01*
X59357379Y-69142621D01*
X59472375Y-69230861D01*
X59606291Y-69286330D01*
X59733280Y-69303048D01*
X59749999Y-69305250D01*
X59750000Y-69305250D01*
X59750001Y-69305250D01*
X59764977Y-69303278D01*
X59893709Y-69286330D01*
X60027625Y-69230861D01*
X60142621Y-69142621D01*
X60230861Y-69027625D01*
X60286330Y-68893709D01*
X60305250Y-68750000D01*
X60286330Y-68606291D01*
X60249350Y-68517013D01*
X60230862Y-68472377D01*
X60230861Y-68472376D01*
X60230861Y-68472375D01*
X60142621Y-68357379D01*
X60027625Y-68269139D01*
X60027624Y-68269138D01*
X60027622Y-68269137D01*
X59893712Y-68213671D01*
X59893710Y-68213670D01*
X59893709Y-68213670D01*
X59821854Y-68204210D01*
X59750001Y-68194750D01*
X59749999Y-68194750D01*
X59606291Y-68213670D01*
X59606287Y-68213671D01*
X59472377Y-68269137D01*
X59357379Y-68357379D01*
X59269137Y-68472377D01*
X59213671Y-68606287D01*
X59213670Y-68606291D01*
X59194750Y-68750000D01*
X51745680Y-68750000D01*
X52396981Y-68098699D01*
X52458302Y-68065216D01*
X52527994Y-68070200D01*
X52583034Y-68110895D01*
X52607379Y-68142621D01*
X52722375Y-68230861D01*
X52856291Y-68286330D01*
X52983280Y-68303048D01*
X52999999Y-68305250D01*
X53000000Y-68305250D01*
X53000001Y-68305250D01*
X53014977Y-68303278D01*
X53143709Y-68286330D01*
X53277625Y-68230861D01*
X53392621Y-68142621D01*
X53480861Y-68027625D01*
X53536330Y-67893709D01*
X53555250Y-67750000D01*
X53536330Y-67606291D01*
X53480861Y-67472375D01*
X53464065Y-67450486D01*
X53438871Y-67385317D01*
X53452909Y-67316872D01*
X53464065Y-67299514D01*
X53477482Y-67282028D01*
X53480861Y-67277625D01*
X53492303Y-67250000D01*
X54694750Y-67250000D01*
X54711375Y-67376280D01*
X54713670Y-67393708D01*
X54713671Y-67393712D01*
X54769137Y-67527622D01*
X54769138Y-67527624D01*
X54769139Y-67527625D01*
X54857379Y-67642621D01*
X54972375Y-67730861D01*
X55106291Y-67786330D01*
X55233280Y-67803048D01*
X55249999Y-67805250D01*
X55250000Y-67805250D01*
X55250001Y-67805250D01*
X55264977Y-67803278D01*
X55393709Y-67786330D01*
X55527625Y-67730861D01*
X55642621Y-67642621D01*
X55730861Y-67527625D01*
X55786330Y-67393709D01*
X55805250Y-67250000D01*
X55786330Y-67106291D01*
X55745670Y-67008128D01*
X55730862Y-66972377D01*
X55730861Y-66972376D01*
X55730861Y-66972375D01*
X55642621Y-66857379D01*
X55527625Y-66769139D01*
X55527624Y-66769138D01*
X55527622Y-66769137D01*
X55393712Y-66713671D01*
X55393710Y-66713670D01*
X55393709Y-66713670D01*
X55321854Y-66704210D01*
X55250001Y-66694750D01*
X55249999Y-66694750D01*
X55106291Y-66713670D01*
X55106287Y-66713671D01*
X54972377Y-66769137D01*
X54857379Y-66857379D01*
X54769137Y-66972377D01*
X54713671Y-67106287D01*
X54713670Y-67106291D01*
X54701099Y-67201779D01*
X54694750Y-67250000D01*
X53492303Y-67250000D01*
X53536330Y-67143709D01*
X53555250Y-67000000D01*
X53536330Y-66856291D01*
X53480861Y-66722375D01*
X53392621Y-66607379D01*
X53277625Y-66519139D01*
X53277624Y-66519138D01*
X53277622Y-66519137D01*
X53231420Y-66500000D01*
X57444750Y-66500000D01*
X57463670Y-66643708D01*
X57463671Y-66643712D01*
X57519137Y-66777622D01*
X57519138Y-66777624D01*
X57519139Y-66777625D01*
X57607379Y-66892621D01*
X57722375Y-66980861D01*
X57856291Y-67036330D01*
X57980153Y-67052637D01*
X57999999Y-67055250D01*
X58000000Y-67055250D01*
X58000001Y-67055250D01*
X58019847Y-67052637D01*
X58143709Y-67036330D01*
X58277625Y-66980861D01*
X58392621Y-66892621D01*
X58480861Y-66777625D01*
X58536330Y-66643709D01*
X58555250Y-66500000D01*
X58536330Y-66356291D01*
X58480861Y-66222375D01*
X58392621Y-66107379D01*
X58277625Y-66019139D01*
X58277624Y-66019138D01*
X58277622Y-66019137D01*
X58143712Y-65963671D01*
X58143710Y-65963670D01*
X58143709Y-65963670D01*
X58071854Y-65954210D01*
X58000001Y-65944750D01*
X57999999Y-65944750D01*
X57856291Y-65963670D01*
X57856287Y-65963671D01*
X57722377Y-66019137D01*
X57607379Y-66107379D01*
X57519137Y-66222377D01*
X57463671Y-66356287D01*
X57463670Y-66356291D01*
X57444750Y-66499999D01*
X57444750Y-66500000D01*
X53231420Y-66500000D01*
X53143712Y-66463671D01*
X53143710Y-66463670D01*
X53143709Y-66463670D01*
X53112215Y-66459523D01*
X53000516Y-66444817D01*
X52936619Y-66416550D01*
X52898149Y-66358225D01*
X52897318Y-66288360D01*
X52934391Y-66229137D01*
X52969243Y-66207320D01*
X53039956Y-66178031D01*
X53154952Y-66089791D01*
X53243192Y-65974795D01*
X53298661Y-65840879D01*
X53317581Y-65697170D01*
X53298661Y-65553461D01*
X53243192Y-65419545D01*
X53154952Y-65304549D01*
X53039956Y-65216309D01*
X53039955Y-65216308D01*
X53039953Y-65216307D01*
X52906043Y-65160841D01*
X52906041Y-65160840D01*
X52906040Y-65160840D01*
X52767656Y-65142621D01*
X52762332Y-65141920D01*
X52762330Y-65141920D01*
X52618622Y-65160840D01*
X52618618Y-65160841D01*
X52484708Y-65216307D01*
X52369710Y-65304549D01*
X52281468Y-65419547D01*
X52226002Y-65553457D01*
X52226001Y-65553461D01*
X52207081Y-65697169D01*
X52207081Y-65697170D01*
X52226001Y-65840878D01*
X52226002Y-65840882D01*
X52281468Y-65974792D01*
X52281469Y-65974794D01*
X52281470Y-65974795D01*
X52369710Y-66089791D01*
X52484706Y-66178031D01*
X52618622Y-66233500D01*
X52752998Y-66251191D01*
X52761814Y-66252352D01*
X52825710Y-66280619D01*
X52864181Y-66338943D01*
X52865012Y-66408808D01*
X52827940Y-66468031D01*
X52793080Y-66489852D01*
X52722378Y-66519137D01*
X52722375Y-66519138D01*
X52722375Y-66519139D01*
X52674989Y-66555500D01*
X52607379Y-66607379D01*
X52519137Y-66722377D01*
X52463671Y-66856287D01*
X52463670Y-66856291D01*
X52444750Y-67000000D01*
X52444750Y-67008128D01*
X52441456Y-67008128D01*
X52432192Y-67062588D01*
X52408439Y-67095877D01*
X50719531Y-68784786D01*
X50719527Y-68784791D01*
X50673387Y-68864709D01*
X50673386Y-68864712D01*
X50649500Y-68953856D01*
X50649500Y-69513908D01*
X50629815Y-69580947D01*
X50611913Y-69600412D01*
X50613129Y-69601628D01*
X50607384Y-69607372D01*
X50519137Y-69722377D01*
X50463671Y-69856287D01*
X50463670Y-69856291D01*
X50446334Y-69987972D01*
X50444750Y-70000000D01*
X20250000Y-70000000D01*
X20250000Y-68000000D01*
X47194750Y-68000000D01*
X47213526Y-68142619D01*
X47213670Y-68143708D01*
X47213671Y-68143712D01*
X47269137Y-68277622D01*
X47269138Y-68277624D01*
X47269139Y-68277625D01*
X47357379Y-68392621D01*
X47472375Y-68480861D01*
X47472376Y-68480861D01*
X47472377Y-68480862D01*
X47502471Y-68493327D01*
X47606291Y-68536330D01*
X47725527Y-68552028D01*
X47749999Y-68555250D01*
X47750000Y-68555250D01*
X47750001Y-68555250D01*
X47764977Y-68553278D01*
X47893709Y-68536330D01*
X48027625Y-68480861D01*
X48142621Y-68392621D01*
X48230861Y-68277625D01*
X48286330Y-68143709D01*
X48305250Y-68000000D01*
X48304131Y-67991504D01*
X48303048Y-67983280D01*
X48286330Y-67856291D01*
X48249350Y-67767013D01*
X48230862Y-67722377D01*
X48230861Y-67722376D01*
X48230861Y-67722375D01*
X48142621Y-67607379D01*
X48027625Y-67519139D01*
X48027624Y-67519138D01*
X48027622Y-67519137D01*
X47893712Y-67463671D01*
X47893710Y-67463670D01*
X47893709Y-67463670D01*
X47821854Y-67454210D01*
X47750001Y-67444750D01*
X47749999Y-67444750D01*
X47606291Y-67463670D01*
X47606287Y-67463671D01*
X47472377Y-67519137D01*
X47357379Y-67607379D01*
X47269137Y-67722377D01*
X47213671Y-67856287D01*
X47213670Y-67856291D01*
X47195869Y-67991504D01*
X47194750Y-68000000D01*
X20250000Y-68000000D01*
X20250000Y-67250000D01*
X44444750Y-67250000D01*
X44461375Y-67376280D01*
X44463670Y-67393708D01*
X44463671Y-67393712D01*
X44519137Y-67527622D01*
X44519138Y-67527624D01*
X44519139Y-67527625D01*
X44607379Y-67642621D01*
X44722375Y-67730861D01*
X44856291Y-67786330D01*
X44983280Y-67803048D01*
X44999999Y-67805250D01*
X45000000Y-67805250D01*
X45000001Y-67805250D01*
X45014977Y-67803278D01*
X45143709Y-67786330D01*
X45277625Y-67730861D01*
X45392621Y-67642621D01*
X45480861Y-67527625D01*
X45536330Y-67393709D01*
X45555250Y-67250000D01*
X45536330Y-67106291D01*
X45495670Y-67008128D01*
X45480862Y-66972377D01*
X45480861Y-66972376D01*
X45480861Y-66972375D01*
X45392621Y-66857379D01*
X45277625Y-66769139D01*
X45277624Y-66769138D01*
X45277622Y-66769137D01*
X45143712Y-66713671D01*
X45143710Y-66713670D01*
X45143709Y-66713670D01*
X45071854Y-66704210D01*
X45000001Y-66694750D01*
X44999999Y-66694750D01*
X44856291Y-66713670D01*
X44856287Y-66713671D01*
X44722377Y-66769137D01*
X44607379Y-66857379D01*
X44519137Y-66972377D01*
X44463671Y-67106287D01*
X44463670Y-67106291D01*
X44451099Y-67201779D01*
X44444750Y-67250000D01*
X20250000Y-67250000D01*
X20250000Y-52974500D01*
X20269685Y-52907461D01*
X20322489Y-52861706D01*
X20374000Y-52850500D01*
X20763908Y-52850500D01*
X20830947Y-52870185D01*
X20850412Y-52888086D01*
X20851628Y-52886871D01*
X20857372Y-52892615D01*
X20857377Y-52892619D01*
X20857379Y-52892621D01*
X20972375Y-52980861D01*
X21106291Y-53036330D01*
X21233280Y-53053048D01*
X21249999Y-53055250D01*
X21250000Y-53055250D01*
X21250001Y-53055250D01*
X21264977Y-53053278D01*
X21393709Y-53036330D01*
X21527625Y-52980861D01*
X21642621Y-52892621D01*
X21730861Y-52777625D01*
X21747162Y-52738269D01*
X21791002Y-52683867D01*
X21857296Y-52661801D01*
X21909175Y-52671161D01*
X21951079Y-52688518D01*
X21951080Y-52688518D01*
X22031088Y-52721659D01*
X22147241Y-52744763D01*
X22166468Y-52748587D01*
X22176081Y-52750500D01*
X22176082Y-52750500D01*
X22176083Y-52750500D01*
X22323918Y-52750500D01*
X25905500Y-52750500D01*
X25972539Y-52770185D01*
X26018294Y-52822989D01*
X26029500Y-52874500D01*
X26029500Y-61693556D01*
X26009815Y-61760595D01*
X25993181Y-61781237D01*
X25947047Y-61827370D01*
X25947045Y-61827372D01*
X25916532Y-61873042D01*
X25916530Y-61873045D01*
X25864919Y-61950284D01*
X25864912Y-61950297D01*
X25808343Y-62086868D01*
X25808340Y-62086878D01*
X25779500Y-62231865D01*
X25779500Y-62231868D01*
X25779500Y-63853918D01*
X25779500Y-63853920D01*
X25779499Y-63853920D01*
X25808340Y-63998907D01*
X25808343Y-63998917D01*
X25864914Y-64135492D01*
X25897812Y-64184727D01*
X25897813Y-64184730D01*
X25947046Y-64258414D01*
X25947052Y-64258421D01*
X26180217Y-64491586D01*
X26213702Y-64552909D01*
X26212638Y-64597958D01*
X26214731Y-64598234D01*
X26213670Y-64606290D01*
X26213670Y-64606291D01*
X26204837Y-64673386D01*
X26194750Y-64749999D01*
X26194750Y-64750000D01*
X26213670Y-64893708D01*
X26213671Y-64893712D01*
X26269137Y-65027622D01*
X26269138Y-65027624D01*
X26269139Y-65027625D01*
X26357379Y-65142621D01*
X26472375Y-65230861D01*
X26606291Y-65286330D01*
X26727973Y-65302350D01*
X26749999Y-65305250D01*
X26750000Y-65305250D01*
X26750001Y-65305250D01*
X26772027Y-65302350D01*
X26893709Y-65286330D01*
X26981419Y-65250000D01*
X40194750Y-65250000D01*
X40213670Y-65393708D01*
X40213671Y-65393712D01*
X40269137Y-65527622D01*
X40269138Y-65527624D01*
X40269139Y-65527625D01*
X40357379Y-65642621D01*
X40472375Y-65730861D01*
X40472376Y-65730861D01*
X40472377Y-65730862D01*
X40488159Y-65737399D01*
X40606291Y-65786330D01*
X40733280Y-65803048D01*
X40749999Y-65805250D01*
X40750000Y-65805250D01*
X40750001Y-65805250D01*
X40764977Y-65803278D01*
X40893709Y-65786330D01*
X41027625Y-65730861D01*
X41142621Y-65642621D01*
X41230861Y-65527625D01*
X41286330Y-65393709D01*
X41305250Y-65250000D01*
X41286330Y-65106291D01*
X41246258Y-65009548D01*
X41230862Y-64972377D01*
X41230861Y-64972376D01*
X41230861Y-64972375D01*
X41142621Y-64857379D01*
X41027625Y-64769139D01*
X41027624Y-64769138D01*
X41027622Y-64769137D01*
X40893712Y-64713671D01*
X40893710Y-64713670D01*
X40893709Y-64713670D01*
X40821854Y-64704210D01*
X40750001Y-64694750D01*
X40749999Y-64694750D01*
X40606291Y-64713670D01*
X40606287Y-64713671D01*
X40472377Y-64769137D01*
X40357379Y-64857379D01*
X40269137Y-64972377D01*
X40213671Y-65106287D01*
X40213670Y-65106291D01*
X40194750Y-65249999D01*
X40194750Y-65250000D01*
X26981419Y-65250000D01*
X27027625Y-65230861D01*
X27142621Y-65142621D01*
X27230861Y-65027625D01*
X27286330Y-64893709D01*
X27305250Y-64750000D01*
X27301238Y-64719530D01*
X27295163Y-64673386D01*
X27286330Y-64606291D01*
X27286329Y-64606290D01*
X27285269Y-64598234D01*
X27288007Y-64597873D01*
X27289353Y-64541504D01*
X27319782Y-64491585D01*
X27332952Y-64478416D01*
X27415084Y-64355494D01*
X27458781Y-64250000D01*
X38444750Y-64250000D01*
X38463670Y-64393709D01*
X38463670Y-64393710D01*
X38463671Y-64393712D01*
X38519137Y-64527622D01*
X38519138Y-64527624D01*
X38519139Y-64527625D01*
X38607379Y-64642621D01*
X38722375Y-64730861D01*
X38722376Y-64730861D01*
X38722377Y-64730862D01*
X38767013Y-64749350D01*
X38856291Y-64786330D01*
X38983280Y-64803048D01*
X38999999Y-64805250D01*
X39000000Y-64805250D01*
X39000001Y-64805250D01*
X39014977Y-64803278D01*
X39143709Y-64786330D01*
X39277625Y-64730861D01*
X39392621Y-64642621D01*
X39480861Y-64527625D01*
X39536330Y-64393709D01*
X39537759Y-64382847D01*
X39566022Y-64318954D01*
X39624345Y-64280481D01*
X39694209Y-64279646D01*
X39753434Y-64316716D01*
X39759073Y-64323545D01*
X39812075Y-64392618D01*
X39812076Y-64392619D01*
X39812078Y-64392621D01*
X39927074Y-64480861D01*
X39927075Y-64480861D01*
X39927076Y-64480862D01*
X39952967Y-64491586D01*
X40060990Y-64536330D01*
X40186918Y-64552909D01*
X40204698Y-64555250D01*
X40204699Y-64555250D01*
X40204700Y-64555250D01*
X40222480Y-64552909D01*
X40348408Y-64536330D01*
X40482324Y-64480861D01*
X40597320Y-64392621D01*
X40685560Y-64277625D01*
X40741029Y-64143709D01*
X40759949Y-64000000D01*
X41194750Y-64000000D01*
X41213670Y-64143708D01*
X41213671Y-64143712D01*
X41269137Y-64277622D01*
X41269138Y-64277624D01*
X41269139Y-64277625D01*
X41357379Y-64392621D01*
X41472375Y-64480861D01*
X41472376Y-64480861D01*
X41472377Y-64480862D01*
X41498268Y-64491586D01*
X41606291Y-64536330D01*
X41732219Y-64552909D01*
X41749999Y-64555250D01*
X41750000Y-64555250D01*
X41750001Y-64555250D01*
X41767781Y-64552909D01*
X41893709Y-64536330D01*
X42027625Y-64480861D01*
X42142621Y-64392621D01*
X42230861Y-64277625D01*
X42242303Y-64250000D01*
X43694750Y-64250000D01*
X43713670Y-64393709D01*
X43713670Y-64393710D01*
X43713671Y-64393712D01*
X43769137Y-64527622D01*
X43769138Y-64527624D01*
X43769139Y-64527625D01*
X43857379Y-64642621D01*
X43972375Y-64730861D01*
X43972376Y-64730861D01*
X43972377Y-64730862D01*
X44017013Y-64749350D01*
X44106291Y-64786330D01*
X44233280Y-64803048D01*
X44249999Y-64805250D01*
X44250000Y-64805250D01*
X44250001Y-64805250D01*
X44264977Y-64803278D01*
X44393709Y-64786330D01*
X44527625Y-64730861D01*
X44633005Y-64650000D01*
X48594749Y-64650000D01*
X48612697Y-64786329D01*
X48613669Y-64793708D01*
X48613670Y-64793712D01*
X48669136Y-64927622D01*
X48669137Y-64927624D01*
X48669138Y-64927625D01*
X48757378Y-65042621D01*
X48872374Y-65130861D01*
X48872375Y-65130861D01*
X48872376Y-65130862D01*
X48917012Y-65149350D01*
X49006290Y-65186330D01*
X49133279Y-65203048D01*
X49149998Y-65205250D01*
X49149999Y-65205250D01*
X49150000Y-65205250D01*
X49164976Y-65203278D01*
X49293708Y-65186330D01*
X49427624Y-65130861D01*
X49542620Y-65042621D01*
X49630860Y-64927625D01*
X49686329Y-64793709D01*
X49705249Y-64650000D01*
X49686329Y-64506291D01*
X49630860Y-64372375D01*
X49542620Y-64257379D01*
X49427624Y-64169139D01*
X49427623Y-64169138D01*
X49427621Y-64169137D01*
X49293711Y-64113671D01*
X49293709Y-64113670D01*
X49293708Y-64113670D01*
X49221853Y-64104210D01*
X49150000Y-64094750D01*
X49149998Y-64094750D01*
X49006290Y-64113670D01*
X49006286Y-64113671D01*
X48872376Y-64169137D01*
X48757378Y-64257379D01*
X48669136Y-64372377D01*
X48613670Y-64506287D01*
X48613669Y-64506291D01*
X48595721Y-64642620D01*
X48594749Y-64650000D01*
X44633005Y-64650000D01*
X44642621Y-64642621D01*
X44730861Y-64527625D01*
X44786330Y-64393709D01*
X44786401Y-64393162D01*
X44786589Y-64392738D01*
X44788433Y-64385859D01*
X44789505Y-64386146D01*
X44814662Y-64329266D01*
X44872984Y-64290791D01*
X44893157Y-64286402D01*
X44893709Y-64286330D01*
X45027625Y-64230861D01*
X45142621Y-64142621D01*
X45230861Y-64027625D01*
X45286330Y-63893709D01*
X45305250Y-63750000D01*
X52194750Y-63750000D01*
X52213670Y-63893708D01*
X52213671Y-63893712D01*
X52269137Y-64027622D01*
X52269138Y-64027624D01*
X52269139Y-64027625D01*
X52357379Y-64142621D01*
X52472375Y-64230861D01*
X52606291Y-64286330D01*
X52733280Y-64303048D01*
X52749999Y-64305250D01*
X52750000Y-64305250D01*
X52750001Y-64305250D01*
X52764977Y-64303278D01*
X52893709Y-64286330D01*
X53027625Y-64230861D01*
X53142621Y-64142621D01*
X53230861Y-64027625D01*
X53286330Y-63893709D01*
X53305250Y-63750000D01*
X55694750Y-63750000D01*
X55713670Y-63893708D01*
X55713671Y-63893712D01*
X55769137Y-64027622D01*
X55769138Y-64027624D01*
X55769139Y-64027625D01*
X55857379Y-64142621D01*
X55972375Y-64230861D01*
X56106291Y-64286330D01*
X56106838Y-64286402D01*
X56107264Y-64286590D01*
X56114141Y-64288433D01*
X56113853Y-64289505D01*
X56170734Y-64314664D01*
X56209209Y-64372986D01*
X56213596Y-64393150D01*
X56213641Y-64393491D01*
X56213670Y-64393710D01*
X56269137Y-64527622D01*
X56269138Y-64527624D01*
X56269139Y-64527625D01*
X56357379Y-64642621D01*
X56472375Y-64730861D01*
X56472376Y-64730861D01*
X56472377Y-64730862D01*
X56517013Y-64749350D01*
X56606291Y-64786330D01*
X56733280Y-64803048D01*
X56749999Y-64805250D01*
X56750000Y-64805250D01*
X56750001Y-64805250D01*
X56764977Y-64803278D01*
X56893709Y-64786330D01*
X56906048Y-64781218D01*
X56975515Y-64773747D01*
X57037995Y-64805020D01*
X57051872Y-64820283D01*
X57107379Y-64892621D01*
X57222375Y-64980861D01*
X57356291Y-65036330D01*
X57483280Y-65053048D01*
X57499999Y-65055250D01*
X57500000Y-65055250D01*
X57500001Y-65055250D01*
X57514977Y-65053278D01*
X57643709Y-65036330D01*
X57777625Y-64980861D01*
X57892621Y-64892621D01*
X57980861Y-64777625D01*
X58036330Y-64643709D01*
X58055250Y-64500000D01*
X58036330Y-64356291D01*
X57995360Y-64257379D01*
X57980862Y-64222377D01*
X57980861Y-64222376D01*
X57980861Y-64222375D01*
X57892621Y-64107379D01*
X57777625Y-64019139D01*
X57777624Y-64019138D01*
X57777622Y-64019137D01*
X57643712Y-63963671D01*
X57643710Y-63963670D01*
X57643709Y-63963670D01*
X57571854Y-63954210D01*
X57500001Y-63944750D01*
X57499999Y-63944750D01*
X57356287Y-63963670D01*
X57343944Y-63968783D01*
X57274474Y-63976249D01*
X57211996Y-63944971D01*
X57198121Y-63929707D01*
X57170497Y-63893708D01*
X57142621Y-63857379D01*
X57027625Y-63769139D01*
X57027624Y-63769138D01*
X57027622Y-63769137D01*
X56893710Y-63713670D01*
X56893491Y-63713641D01*
X56893152Y-63713596D01*
X56892716Y-63713403D01*
X56885858Y-63711566D01*
X56886144Y-63710496D01*
X56829257Y-63685329D01*
X56790787Y-63627003D01*
X56786402Y-63606844D01*
X56786330Y-63606291D01*
X56730861Y-63472375D01*
X56642621Y-63357379D01*
X56527625Y-63269139D01*
X56527624Y-63269138D01*
X56527622Y-63269137D01*
X56393712Y-63213671D01*
X56393710Y-63213670D01*
X56393709Y-63213670D01*
X56321854Y-63204210D01*
X56250001Y-63194750D01*
X56249999Y-63194750D01*
X56106291Y-63213670D01*
X56106287Y-63213671D01*
X55972377Y-63269137D01*
X55857379Y-63357379D01*
X55769137Y-63472377D01*
X55713671Y-63606287D01*
X55713670Y-63606291D01*
X55694750Y-63749999D01*
X55694750Y-63750000D01*
X53305250Y-63750000D01*
X53286330Y-63606291D01*
X53230861Y-63472375D01*
X53214065Y-63450486D01*
X53188871Y-63385317D01*
X53202909Y-63316872D01*
X53214065Y-63299514D01*
X53224182Y-63286329D01*
X53230861Y-63277625D01*
X53286330Y-63143709D01*
X53292757Y-63094895D01*
X57935762Y-63094895D01*
X57951399Y-63213671D01*
X57954682Y-63238603D01*
X57954683Y-63238607D01*
X58010149Y-63372517D01*
X58010150Y-63372519D01*
X58010151Y-63372520D01*
X58098391Y-63487516D01*
X58213387Y-63575756D01*
X58347303Y-63631225D01*
X58474292Y-63647943D01*
X58491011Y-63650145D01*
X58491012Y-63650145D01*
X58491013Y-63650145D01*
X58505989Y-63648173D01*
X58634721Y-63631225D01*
X58768637Y-63575756D01*
X58883633Y-63487516D01*
X58971873Y-63372520D01*
X59027342Y-63238604D01*
X59046262Y-63094895D01*
X59027342Y-62951186D01*
X58971873Y-62817270D01*
X58883633Y-62702274D01*
X58768637Y-62614034D01*
X58768636Y-62614033D01*
X58768634Y-62614032D01*
X58634724Y-62558566D01*
X58634722Y-62558565D01*
X58634721Y-62558565D01*
X58562866Y-62549105D01*
X58491013Y-62539645D01*
X58491011Y-62539645D01*
X58347303Y-62558565D01*
X58347299Y-62558566D01*
X58213389Y-62614032D01*
X58098391Y-62702274D01*
X58010149Y-62817272D01*
X57954683Y-62951182D01*
X57954682Y-62951186D01*
X57948256Y-62999999D01*
X57935762Y-63094895D01*
X53292757Y-63094895D01*
X53305250Y-63000000D01*
X53286330Y-62856291D01*
X53230861Y-62722375D01*
X53214065Y-62700486D01*
X53188871Y-62635317D01*
X53202909Y-62566872D01*
X53214065Y-62549514D01*
X53216135Y-62546815D01*
X53230861Y-62527625D01*
X53286330Y-62393709D01*
X53305250Y-62250000D01*
X56694750Y-62250000D01*
X56713670Y-62393708D01*
X56713671Y-62393712D01*
X56769137Y-62527622D01*
X56769138Y-62527623D01*
X56769139Y-62527625D01*
X56857379Y-62642621D01*
X56972375Y-62730861D01*
X57106291Y-62786330D01*
X57233280Y-62803048D01*
X57249999Y-62805250D01*
X57250000Y-62805250D01*
X57250001Y-62805250D01*
X57264977Y-62803278D01*
X57393709Y-62786330D01*
X57527625Y-62730861D01*
X57642621Y-62642621D01*
X57730861Y-62527625D01*
X57786330Y-62393709D01*
X57805250Y-62250000D01*
X57786330Y-62106291D01*
X57749350Y-62017013D01*
X57730862Y-61972377D01*
X57730861Y-61972376D01*
X57730861Y-61972375D01*
X57642621Y-61857379D01*
X57527625Y-61769139D01*
X57527624Y-61769138D01*
X57527622Y-61769137D01*
X57393712Y-61713671D01*
X57393710Y-61713670D01*
X57393709Y-61713670D01*
X57321854Y-61704210D01*
X57250001Y-61694750D01*
X57249999Y-61694750D01*
X57106291Y-61713670D01*
X57106287Y-61713671D01*
X56972377Y-61769137D01*
X56857379Y-61857379D01*
X56769137Y-61972377D01*
X56713671Y-62106287D01*
X56713670Y-62106291D01*
X56694750Y-62249999D01*
X56694750Y-62250000D01*
X53305250Y-62250000D01*
X53286330Y-62106291D01*
X53249350Y-62017013D01*
X53230862Y-61972377D01*
X53230861Y-61972376D01*
X53230861Y-61972375D01*
X53142621Y-61857379D01*
X53027625Y-61769139D01*
X53027624Y-61769138D01*
X53027622Y-61769137D01*
X52893712Y-61713671D01*
X52893710Y-61713670D01*
X52893709Y-61713670D01*
X52821854Y-61704210D01*
X52750001Y-61694750D01*
X52749999Y-61694750D01*
X52606291Y-61713670D01*
X52606287Y-61713671D01*
X52472377Y-61769137D01*
X52357379Y-61857379D01*
X52269137Y-61972377D01*
X52213671Y-62106287D01*
X52213670Y-62106291D01*
X52194750Y-62249999D01*
X52194750Y-62250000D01*
X52213670Y-62393708D01*
X52213671Y-62393712D01*
X52269138Y-62527624D01*
X52285935Y-62549515D01*
X52311128Y-62614685D01*
X52297089Y-62683129D01*
X52285935Y-62700485D01*
X52269138Y-62722375D01*
X52213671Y-62856287D01*
X52213670Y-62856291D01*
X52194750Y-63000000D01*
X52213526Y-63142619D01*
X52213670Y-63143708D01*
X52213671Y-63143712D01*
X52269138Y-63277624D01*
X52285935Y-63299515D01*
X52311128Y-63364685D01*
X52297089Y-63433129D01*
X52285935Y-63450485D01*
X52269138Y-63472375D01*
X52213671Y-63606287D01*
X52213670Y-63606291D01*
X52194750Y-63749999D01*
X52194750Y-63750000D01*
X45305250Y-63750000D01*
X45286330Y-63606291D01*
X45230861Y-63472375D01*
X45142621Y-63357379D01*
X45027625Y-63269139D01*
X45027624Y-63269138D01*
X45027622Y-63269137D01*
X44893712Y-63213671D01*
X44893710Y-63213670D01*
X44893709Y-63213670D01*
X44821854Y-63204210D01*
X44750001Y-63194750D01*
X44749999Y-63194750D01*
X44606291Y-63213670D01*
X44606287Y-63213671D01*
X44472377Y-63269137D01*
X44357379Y-63357379D01*
X44269137Y-63472377D01*
X44213670Y-63606289D01*
X44213670Y-63606291D01*
X44213599Y-63606836D01*
X44213597Y-63606848D01*
X44213403Y-63607286D01*
X44211566Y-63614142D01*
X44210496Y-63613855D01*
X44185327Y-63670744D01*
X44127002Y-63709212D01*
X44106851Y-63713596D01*
X44106534Y-63713637D01*
X44106289Y-63713670D01*
X43972377Y-63769137D01*
X43857379Y-63857379D01*
X43769137Y-63972377D01*
X43713671Y-64106287D01*
X43713670Y-64106291D01*
X43697270Y-64230862D01*
X43694750Y-64250000D01*
X42242303Y-64250000D01*
X42286330Y-64143709D01*
X42305250Y-64000000D01*
X42305107Y-63998917D01*
X42301613Y-63972375D01*
X42286330Y-63856291D01*
X42249350Y-63767013D01*
X42230862Y-63722377D01*
X42230861Y-63722376D01*
X42230861Y-63722375D01*
X42142621Y-63607379D01*
X42027625Y-63519139D01*
X42027624Y-63519138D01*
X42027622Y-63519137D01*
X41893712Y-63463671D01*
X41893710Y-63463670D01*
X41893709Y-63463670D01*
X41821854Y-63454210D01*
X41750001Y-63444750D01*
X41749999Y-63444750D01*
X41606291Y-63463670D01*
X41606287Y-63463671D01*
X41472377Y-63519137D01*
X41357379Y-63607379D01*
X41269137Y-63722377D01*
X41213671Y-63856287D01*
X41213670Y-63856291D01*
X41194750Y-63999999D01*
X41194750Y-64000000D01*
X40759949Y-64000000D01*
X40759806Y-63998917D01*
X40756312Y-63972375D01*
X40741029Y-63856291D01*
X40704049Y-63767013D01*
X40685561Y-63722377D01*
X40685560Y-63722376D01*
X40685560Y-63722375D01*
X40597320Y-63607379D01*
X40482324Y-63519139D01*
X40482323Y-63519138D01*
X40482321Y-63519137D01*
X40348411Y-63463671D01*
X40348409Y-63463670D01*
X40348408Y-63463670D01*
X40276553Y-63454210D01*
X40204700Y-63444750D01*
X40204698Y-63444750D01*
X40060990Y-63463670D01*
X40060986Y-63463671D01*
X39927076Y-63519137D01*
X39812078Y-63607379D01*
X39723836Y-63722377D01*
X39668370Y-63856287D01*
X39668369Y-63856291D01*
X39668226Y-63857381D01*
X39666939Y-63867154D01*
X39638671Y-63931050D01*
X39580347Y-63969520D01*
X39510482Y-63970351D01*
X39451259Y-63933278D01*
X39445625Y-63926454D01*
X39417410Y-63889684D01*
X39392621Y-63857379D01*
X39277625Y-63769139D01*
X39277624Y-63769138D01*
X39277622Y-63769137D01*
X39143712Y-63713671D01*
X39143710Y-63713670D01*
X39143709Y-63713670D01*
X39048817Y-63701177D01*
X39000001Y-63694750D01*
X38999999Y-63694750D01*
X38856291Y-63713670D01*
X38856287Y-63713671D01*
X38722377Y-63769137D01*
X38607379Y-63857379D01*
X38519137Y-63972377D01*
X38463671Y-64106287D01*
X38463670Y-64106291D01*
X38447270Y-64230862D01*
X38444750Y-64250000D01*
X27458781Y-64250000D01*
X27471658Y-64218912D01*
X27492592Y-64113671D01*
X27500500Y-64073919D01*
X27500500Y-63926080D01*
X27471659Y-63781093D01*
X27471658Y-63781092D01*
X27471658Y-63781088D01*
X27415084Y-63644506D01*
X27332952Y-63521584D01*
X27332947Y-63521579D01*
X27332947Y-63521578D01*
X27316819Y-63505450D01*
X27283334Y-63444127D01*
X27280500Y-63417769D01*
X27280500Y-62750000D01*
X32694750Y-62750000D01*
X32703335Y-62815212D01*
X32713670Y-62893708D01*
X32713671Y-62893712D01*
X32769137Y-63027622D01*
X32769138Y-63027624D01*
X32769139Y-63027625D01*
X32857379Y-63142621D01*
X32972375Y-63230861D01*
X32972376Y-63230861D01*
X32972377Y-63230862D01*
X32991076Y-63238607D01*
X33106291Y-63286330D01*
X33233280Y-63303048D01*
X33249999Y-63305250D01*
X33250000Y-63305250D01*
X33250001Y-63305250D01*
X33264977Y-63303278D01*
X33393709Y-63286330D01*
X33527625Y-63230861D01*
X33642621Y-63142621D01*
X33651625Y-63130886D01*
X33708050Y-63089685D01*
X33777796Y-63085529D01*
X33838717Y-63119740D01*
X33848367Y-63130876D01*
X33857379Y-63142621D01*
X33972375Y-63230861D01*
X33972376Y-63230861D01*
X33972377Y-63230862D01*
X33991076Y-63238607D01*
X34106291Y-63286330D01*
X34233280Y-63303048D01*
X34249999Y-63305250D01*
X34250000Y-63305250D01*
X34250001Y-63305250D01*
X34264977Y-63303278D01*
X34393709Y-63286330D01*
X34527625Y-63230861D01*
X34642621Y-63142621D01*
X34651625Y-63130886D01*
X34708050Y-63089685D01*
X34777796Y-63085529D01*
X34838717Y-63119740D01*
X34848367Y-63130876D01*
X34857379Y-63142621D01*
X34972375Y-63230861D01*
X34972376Y-63230861D01*
X34972377Y-63230862D01*
X34991076Y-63238607D01*
X35106291Y-63286330D01*
X35233280Y-63303048D01*
X35249999Y-63305250D01*
X35250000Y-63305250D01*
X35250001Y-63305250D01*
X35264977Y-63303278D01*
X35393709Y-63286330D01*
X35527625Y-63230861D01*
X35642621Y-63142621D01*
X35651625Y-63130886D01*
X35708050Y-63089685D01*
X35777796Y-63085529D01*
X35838717Y-63119740D01*
X35848367Y-63130876D01*
X35857379Y-63142621D01*
X35972375Y-63230861D01*
X35972376Y-63230861D01*
X35972377Y-63230862D01*
X35991076Y-63238607D01*
X36106291Y-63286330D01*
X36233280Y-63303048D01*
X36249999Y-63305250D01*
X36250000Y-63305250D01*
X36250001Y-63305250D01*
X36264977Y-63303278D01*
X36393709Y-63286330D01*
X36527625Y-63230861D01*
X36642621Y-63142621D01*
X36730861Y-63027625D01*
X36786330Y-62893709D01*
X36805250Y-62750000D01*
X37694750Y-62750000D01*
X37703335Y-62815212D01*
X37713670Y-62893708D01*
X37713671Y-62893712D01*
X37769137Y-63027622D01*
X37769138Y-63027624D01*
X37769139Y-63027625D01*
X37857379Y-63142621D01*
X37972375Y-63230861D01*
X37972376Y-63230861D01*
X37972377Y-63230862D01*
X37991076Y-63238607D01*
X38106291Y-63286330D01*
X38233280Y-63303048D01*
X38249999Y-63305250D01*
X38250000Y-63305250D01*
X38250001Y-63305250D01*
X38264977Y-63303278D01*
X38393709Y-63286330D01*
X38527625Y-63230861D01*
X38642621Y-63142621D01*
X38651625Y-63130886D01*
X38708050Y-63089685D01*
X38777796Y-63085529D01*
X38838717Y-63119740D01*
X38848367Y-63130876D01*
X38857379Y-63142621D01*
X38972375Y-63230861D01*
X38972376Y-63230861D01*
X38972377Y-63230862D01*
X38991076Y-63238607D01*
X39106291Y-63286330D01*
X39233280Y-63303048D01*
X39249999Y-63305250D01*
X39250000Y-63305250D01*
X39250001Y-63305250D01*
X39264977Y-63303278D01*
X39393709Y-63286330D01*
X39527625Y-63230861D01*
X39642621Y-63142621D01*
X39730861Y-63027625D01*
X39786330Y-62893709D01*
X39805250Y-62750000D01*
X39786330Y-62606291D01*
X39730861Y-62472375D01*
X39642621Y-62357379D01*
X39527625Y-62269139D01*
X39527624Y-62269138D01*
X39527622Y-62269137D01*
X39393712Y-62213671D01*
X39393710Y-62213670D01*
X39393709Y-62213670D01*
X39321854Y-62204210D01*
X39250001Y-62194750D01*
X39249999Y-62194750D01*
X39106291Y-62213670D01*
X39106287Y-62213671D01*
X38972377Y-62269137D01*
X38931726Y-62300330D01*
X38857379Y-62357379D01*
X38857378Y-62357380D01*
X38857377Y-62357381D01*
X38848375Y-62369113D01*
X38791947Y-62410316D01*
X38722201Y-62414470D01*
X38661281Y-62380257D01*
X38651625Y-62369113D01*
X38649782Y-62366711D01*
X38642621Y-62357379D01*
X38527625Y-62269139D01*
X38527624Y-62269138D01*
X38527622Y-62269137D01*
X38393712Y-62213671D01*
X38393710Y-62213670D01*
X38393709Y-62213670D01*
X38321854Y-62204210D01*
X38250001Y-62194750D01*
X38249999Y-62194750D01*
X38106291Y-62213670D01*
X38106287Y-62213671D01*
X37972377Y-62269137D01*
X37857379Y-62357379D01*
X37769137Y-62472377D01*
X37713671Y-62606287D01*
X37713670Y-62606291D01*
X37697270Y-62730862D01*
X37694750Y-62750000D01*
X36805250Y-62750000D01*
X36786330Y-62606291D01*
X36730861Y-62472375D01*
X36642621Y-62357379D01*
X36527625Y-62269139D01*
X36527624Y-62269138D01*
X36527622Y-62269137D01*
X36393712Y-62213671D01*
X36393710Y-62213670D01*
X36393709Y-62213670D01*
X36321854Y-62204210D01*
X36250001Y-62194750D01*
X36249999Y-62194750D01*
X36106291Y-62213670D01*
X36106287Y-62213671D01*
X35972377Y-62269137D01*
X35931726Y-62300330D01*
X35857379Y-62357379D01*
X35857378Y-62357380D01*
X35857377Y-62357381D01*
X35848375Y-62369113D01*
X35791947Y-62410316D01*
X35722201Y-62414470D01*
X35661281Y-62380257D01*
X35651625Y-62369113D01*
X35649782Y-62366711D01*
X35642621Y-62357379D01*
X35527625Y-62269139D01*
X35527624Y-62269138D01*
X35527622Y-62269137D01*
X35393712Y-62213671D01*
X35393710Y-62213670D01*
X35393709Y-62213670D01*
X35321854Y-62204210D01*
X35250001Y-62194750D01*
X35249999Y-62194750D01*
X35106291Y-62213670D01*
X35106287Y-62213671D01*
X34972377Y-62269137D01*
X34931726Y-62300330D01*
X34857379Y-62357379D01*
X34857378Y-62357380D01*
X34857377Y-62357381D01*
X34848375Y-62369113D01*
X34791947Y-62410316D01*
X34722201Y-62414470D01*
X34661281Y-62380257D01*
X34651625Y-62369113D01*
X34649782Y-62366711D01*
X34642621Y-62357379D01*
X34527625Y-62269139D01*
X34527624Y-62269138D01*
X34527622Y-62269137D01*
X34393712Y-62213671D01*
X34393710Y-62213670D01*
X34393709Y-62213670D01*
X34321854Y-62204210D01*
X34250001Y-62194750D01*
X34249999Y-62194750D01*
X34106291Y-62213670D01*
X34106287Y-62213671D01*
X33972377Y-62269137D01*
X33931726Y-62300330D01*
X33857379Y-62357379D01*
X33857378Y-62357380D01*
X33857377Y-62357381D01*
X33848375Y-62369113D01*
X33791947Y-62410316D01*
X33722201Y-62414470D01*
X33661281Y-62380257D01*
X33651625Y-62369113D01*
X33649782Y-62366711D01*
X33642621Y-62357379D01*
X33527625Y-62269139D01*
X33527624Y-62269138D01*
X33527622Y-62269137D01*
X33393712Y-62213671D01*
X33393710Y-62213670D01*
X33393709Y-62213670D01*
X33321854Y-62204210D01*
X33250001Y-62194750D01*
X33249999Y-62194750D01*
X33106291Y-62213670D01*
X33106287Y-62213671D01*
X32972377Y-62269137D01*
X32857379Y-62357379D01*
X32769137Y-62472377D01*
X32713671Y-62606287D01*
X32713670Y-62606291D01*
X32697270Y-62730862D01*
X32694750Y-62750000D01*
X27280500Y-62750000D01*
X27280500Y-62668015D01*
X27300185Y-62600976D01*
X27316820Y-62580333D01*
X27362948Y-62534205D01*
X27362951Y-62534202D01*
X27445084Y-62411281D01*
X27501658Y-62274699D01*
X27517561Y-62194750D01*
X27530500Y-62129706D01*
X27530500Y-59500000D01*
X54944750Y-59500000D01*
X54963670Y-59643708D01*
X54963671Y-59643712D01*
X55019137Y-59777622D01*
X55019138Y-59777624D01*
X55019139Y-59777625D01*
X55107379Y-59892621D01*
X55222375Y-59980861D01*
X55356291Y-60036330D01*
X55483280Y-60053048D01*
X55499999Y-60055250D01*
X55500000Y-60055250D01*
X55500001Y-60055250D01*
X55514977Y-60053278D01*
X55643709Y-60036330D01*
X55777625Y-59980861D01*
X55892621Y-59892621D01*
X55980861Y-59777625D01*
X56036330Y-59643709D01*
X56055250Y-59500000D01*
X56036330Y-59356291D01*
X56036329Y-59356290D01*
X56035974Y-59353589D01*
X56046739Y-59284554D01*
X56093119Y-59232298D01*
X56160388Y-59213412D01*
X56214639Y-59228297D01*
X56214866Y-59227751D01*
X56219216Y-59229553D01*
X56220922Y-59230021D01*
X56222369Y-59230856D01*
X56222375Y-59230861D01*
X56356291Y-59286330D01*
X56483280Y-59303048D01*
X56499999Y-59305250D01*
X56500000Y-59305250D01*
X56500001Y-59305250D01*
X56514977Y-59303278D01*
X56643709Y-59286330D01*
X56777625Y-59230861D01*
X56892621Y-59142621D01*
X56980861Y-59027625D01*
X57036330Y-58893709D01*
X57055250Y-58750000D01*
X57036330Y-58606291D01*
X56980861Y-58472375D01*
X56892621Y-58357379D01*
X56777625Y-58269139D01*
X56777624Y-58269138D01*
X56777622Y-58269137D01*
X56643712Y-58213671D01*
X56643710Y-58213670D01*
X56643709Y-58213670D01*
X56571854Y-58204210D01*
X56500001Y-58194750D01*
X56499999Y-58194750D01*
X56356291Y-58213670D01*
X56356287Y-58213671D01*
X56222377Y-58269137D01*
X56107379Y-58357379D01*
X56019137Y-58472377D01*
X55963671Y-58606287D01*
X55963670Y-58606291D01*
X55944750Y-58749999D01*
X55944750Y-58750002D01*
X55964025Y-58896411D01*
X55953259Y-58965446D01*
X55906879Y-59017702D01*
X55839610Y-59036587D01*
X55785360Y-59021702D01*
X55785134Y-59022249D01*
X55780784Y-59020447D01*
X55779081Y-59019980D01*
X55777626Y-59019140D01*
X55777625Y-59019139D01*
X55777623Y-59019138D01*
X55777621Y-59019137D01*
X55643712Y-58963671D01*
X55643710Y-58963670D01*
X55643709Y-58963670D01*
X55571854Y-58954210D01*
X55500001Y-58944750D01*
X55499999Y-58944750D01*
X55356291Y-58963670D01*
X55356287Y-58963671D01*
X55222377Y-59019137D01*
X55107379Y-59107379D01*
X55019137Y-59222377D01*
X54963671Y-59356287D01*
X54963670Y-59356291D01*
X54944750Y-59499999D01*
X54944750Y-59500000D01*
X27530500Y-59500000D01*
X27530500Y-58750000D01*
X42694750Y-58750000D01*
X42713670Y-58893708D01*
X42713671Y-58893712D01*
X42769137Y-59027622D01*
X42769138Y-59027624D01*
X42769139Y-59027625D01*
X42857379Y-59142621D01*
X42972375Y-59230861D01*
X42972376Y-59230861D01*
X42972377Y-59230862D01*
X43002191Y-59243211D01*
X43106291Y-59286330D01*
X43233280Y-59303048D01*
X43249999Y-59305250D01*
X43250000Y-59305250D01*
X43250001Y-59305250D01*
X43264977Y-59303278D01*
X43393709Y-59286330D01*
X43527625Y-59230861D01*
X43642621Y-59142621D01*
X43730861Y-59027625D01*
X43786330Y-58893709D01*
X43803624Y-58762349D01*
X51932401Y-58762349D01*
X51951321Y-58906057D01*
X51951322Y-58906061D01*
X52006788Y-59039971D01*
X52006789Y-59039973D01*
X52006790Y-59039974D01*
X52095030Y-59154970D01*
X52210026Y-59243210D01*
X52343942Y-59298679D01*
X52470931Y-59315397D01*
X52487650Y-59317599D01*
X52487651Y-59317599D01*
X52487652Y-59317599D01*
X52502628Y-59315627D01*
X52631360Y-59298679D01*
X52765276Y-59243210D01*
X52880272Y-59154970D01*
X52968512Y-59039974D01*
X53023981Y-58906058D01*
X53042901Y-58762349D01*
X53023981Y-58618640D01*
X52968512Y-58484724D01*
X52880272Y-58369728D01*
X52765276Y-58281488D01*
X52765275Y-58281487D01*
X52765273Y-58281486D01*
X52631363Y-58226020D01*
X52631361Y-58226019D01*
X52631360Y-58226019D01*
X52559505Y-58216559D01*
X52487652Y-58207099D01*
X52487650Y-58207099D01*
X52343942Y-58226019D01*
X52343938Y-58226020D01*
X52210028Y-58281486D01*
X52095030Y-58369728D01*
X52006788Y-58484726D01*
X51951322Y-58618636D01*
X51951321Y-58618640D01*
X51932401Y-58762348D01*
X51932401Y-58762349D01*
X43803624Y-58762349D01*
X43805250Y-58750000D01*
X43786330Y-58606291D01*
X43730861Y-58472375D01*
X43642621Y-58357379D01*
X43527625Y-58269139D01*
X43527624Y-58269138D01*
X43527622Y-58269137D01*
X43393712Y-58213671D01*
X43393710Y-58213670D01*
X43393709Y-58213670D01*
X43321854Y-58204210D01*
X43250001Y-58194750D01*
X43249999Y-58194750D01*
X43106291Y-58213670D01*
X43106287Y-58213671D01*
X42972377Y-58269137D01*
X42857379Y-58357379D01*
X42769137Y-58472377D01*
X42713671Y-58606287D01*
X42713670Y-58606291D01*
X42694750Y-58749999D01*
X42694750Y-58750000D01*
X27530500Y-58750000D01*
X27530500Y-52874500D01*
X27550185Y-52807461D01*
X27602989Y-52761706D01*
X27654500Y-52750500D01*
X56198920Y-52750500D01*
X56297642Y-52730862D01*
X56343913Y-52721658D01*
X56480495Y-52665084D01*
X56540030Y-52625304D01*
X56603416Y-52582952D01*
X57650049Y-51536319D01*
X57711372Y-51502834D01*
X57737730Y-51500000D01*
X58998745Y-51500000D01*
X59065784Y-51519685D01*
G37*
%TD.AperFunction*%
%TD*%
%TA.AperFunction,Conductor*%
%TO.N,+24V*%
G36*
X24184228Y-16269685D02*
G01*
X24229983Y-16322489D01*
X24239927Y-16391647D01*
X24210902Y-16455203D01*
X24181979Y-16479727D01*
X24109407Y-16524199D01*
X24109402Y-16524202D01*
X23928612Y-16678612D01*
X23774202Y-16859402D01*
X23774199Y-16859407D01*
X23649972Y-17062126D01*
X23558988Y-17281783D01*
X23503482Y-17512979D01*
X23484829Y-17750000D01*
X23503482Y-17987020D01*
X23503482Y-17987023D01*
X23503483Y-17987025D01*
X23558987Y-18218214D01*
X23558988Y-18218216D01*
X23649972Y-18437873D01*
X23774199Y-18640592D01*
X23774202Y-18640597D01*
X23844195Y-18722548D01*
X23928612Y-18821388D01*
X24044337Y-18920226D01*
X24109402Y-18975797D01*
X24109407Y-18975800D01*
X24312126Y-19100027D01*
X24389786Y-19132194D01*
X24531786Y-19191013D01*
X24762975Y-19246517D01*
X25000000Y-19265171D01*
X25237025Y-19246517D01*
X25468214Y-19191013D01*
X25687873Y-19100027D01*
X25851102Y-19000000D01*
X33795863Y-19000000D01*
X33816365Y-19221259D01*
X33816366Y-19221261D01*
X33877174Y-19434979D01*
X33877180Y-19434994D01*
X33976222Y-19633896D01*
X34110133Y-19811224D01*
X34274344Y-19960921D01*
X34274346Y-19960923D01*
X34463266Y-20077897D01*
X34463272Y-20077900D01*
X34489480Y-20088053D01*
X34670472Y-20158170D01*
X34888896Y-20199000D01*
X34888899Y-20199000D01*
X35111101Y-20199000D01*
X35111104Y-20199000D01*
X35329528Y-20158170D01*
X35536730Y-20077899D01*
X35725655Y-19960922D01*
X35889868Y-19811222D01*
X36023778Y-19633896D01*
X36122824Y-19434984D01*
X36183634Y-19221260D01*
X36204137Y-19000000D01*
X36201894Y-18975799D01*
X36183634Y-18778740D01*
X36183633Y-18778738D01*
X36130927Y-18593497D01*
X36122824Y-18565016D01*
X36023778Y-18366104D01*
X35929976Y-18241890D01*
X35889866Y-18188775D01*
X35725655Y-18039078D01*
X35725653Y-18039076D01*
X35536733Y-17922102D01*
X35536727Y-17922099D01*
X35426765Y-17879500D01*
X35329528Y-17841830D01*
X35111104Y-17801000D01*
X34888896Y-17801000D01*
X34670472Y-17841830D01*
X34620695Y-17861113D01*
X34463272Y-17922099D01*
X34463266Y-17922102D01*
X34274346Y-18039076D01*
X34274344Y-18039078D01*
X34110133Y-18188775D01*
X33976222Y-18366103D01*
X33877180Y-18565005D01*
X33877174Y-18565020D01*
X33816366Y-18778738D01*
X33816365Y-18778740D01*
X33795863Y-18999999D01*
X33795863Y-19000000D01*
X25851102Y-19000000D01*
X25890595Y-18975799D01*
X26071388Y-18821388D01*
X26225799Y-18640595D01*
X26350027Y-18437873D01*
X26441013Y-18218214D01*
X26496517Y-17987025D01*
X26515171Y-17750000D01*
X26496517Y-17512975D01*
X26441013Y-17281786D01*
X26350027Y-17062127D01*
X26350027Y-17062126D01*
X26225800Y-16859407D01*
X26225797Y-16859402D01*
X26170226Y-16794337D01*
X26071388Y-16678612D01*
X25972548Y-16594195D01*
X25890597Y-16524202D01*
X25890592Y-16524199D01*
X25818021Y-16479727D01*
X25771146Y-16427915D01*
X25759723Y-16358986D01*
X25787380Y-16294823D01*
X25845336Y-16255798D01*
X25882811Y-16250000D01*
X64876000Y-16250000D01*
X64943039Y-16269685D01*
X64988794Y-16322489D01*
X65000000Y-16374000D01*
X65000000Y-19875500D01*
X64980315Y-19942539D01*
X64927511Y-19988294D01*
X64876000Y-19999500D01*
X57886896Y-19999500D01*
X57819857Y-19979815D01*
X57774102Y-19927011D01*
X57764158Y-19857853D01*
X57793183Y-19794297D01*
X57803358Y-19783863D01*
X57815135Y-19773125D01*
X57831607Y-19758110D01*
X57910551Y-19653570D01*
X57956747Y-19592397D01*
X57956747Y-19592395D01*
X57956749Y-19592394D01*
X58049311Y-19406505D01*
X58106140Y-19206773D01*
X58125300Y-19000000D01*
X58123057Y-18975799D01*
X58106140Y-18793227D01*
X58102017Y-18778738D01*
X58049311Y-18593495D01*
X58035130Y-18565016D01*
X57956747Y-18407602D01*
X57831609Y-18241892D01*
X57831607Y-18241889D01*
X57678149Y-18101994D01*
X57678143Y-18101990D01*
X57501592Y-17992674D01*
X57501583Y-17992670D01*
X57411389Y-17957729D01*
X57307953Y-17917658D01*
X57103830Y-17879500D01*
X56896170Y-17879500D01*
X56692047Y-17917658D01*
X56498416Y-17992670D01*
X56498407Y-17992674D01*
X56321856Y-18101990D01*
X56321850Y-18101994D01*
X56168393Y-18241888D01*
X56098954Y-18333842D01*
X56042845Y-18375478D01*
X55973133Y-18380169D01*
X55911951Y-18346427D01*
X55901046Y-18333842D01*
X55831606Y-18241888D01*
X55678149Y-18101994D01*
X55678143Y-18101990D01*
X55501592Y-17992674D01*
X55501583Y-17992670D01*
X55411389Y-17957729D01*
X55307953Y-17917658D01*
X55103830Y-17879500D01*
X54896170Y-17879500D01*
X54692047Y-17917658D01*
X54498416Y-17992670D01*
X54498407Y-17992674D01*
X54321856Y-18101990D01*
X54321850Y-18101994D01*
X54168393Y-18241888D01*
X54098954Y-18333842D01*
X54042845Y-18375478D01*
X53973133Y-18380169D01*
X53911951Y-18346427D01*
X53901046Y-18333842D01*
X53831606Y-18241888D01*
X53678149Y-18101994D01*
X53678143Y-18101990D01*
X53501592Y-17992674D01*
X53501583Y-17992670D01*
X53411389Y-17957729D01*
X53307953Y-17917658D01*
X53103830Y-17879500D01*
X52896170Y-17879500D01*
X52692047Y-17917658D01*
X52498416Y-17992670D01*
X52498407Y-17992674D01*
X52321856Y-18101990D01*
X52321850Y-18101994D01*
X52168393Y-18241888D01*
X52098954Y-18333842D01*
X52042845Y-18375478D01*
X51973133Y-18380169D01*
X51911951Y-18346427D01*
X51901046Y-18333842D01*
X51831606Y-18241888D01*
X51678149Y-18101994D01*
X51678143Y-18101990D01*
X51501592Y-17992674D01*
X51501583Y-17992670D01*
X51411389Y-17957729D01*
X51307953Y-17917658D01*
X51103830Y-17879500D01*
X50896170Y-17879500D01*
X50692047Y-17917658D01*
X50498416Y-17992670D01*
X50498407Y-17992674D01*
X50321856Y-18101990D01*
X50321850Y-18101994D01*
X50168392Y-18241889D01*
X50168390Y-18241892D01*
X50043252Y-18407602D01*
X49950693Y-18593484D01*
X49950688Y-18593497D01*
X49893859Y-18793227D01*
X49874700Y-18999999D01*
X49874700Y-19000000D01*
X49893859Y-19206772D01*
X49950688Y-19406502D01*
X49950693Y-19406515D01*
X50043252Y-19592397D01*
X50168390Y-19758107D01*
X50168392Y-19758110D01*
X50321853Y-19898008D01*
X50325880Y-19901049D01*
X50367514Y-19957160D01*
X50372202Y-20026872D01*
X50338457Y-20088053D01*
X50325880Y-20098951D01*
X50321859Y-20101987D01*
X50253247Y-20164535D01*
X50190442Y-20195151D01*
X50121055Y-20186953D01*
X50069482Y-20144491D01*
X50069112Y-20144769D01*
X50067976Y-20143252D01*
X50067115Y-20142543D01*
X50065656Y-20140152D01*
X49977547Y-20022455D01*
X49977544Y-20022452D01*
X49862335Y-19936206D01*
X49862328Y-19936202D01*
X49727482Y-19885908D01*
X49727483Y-19885908D01*
X49667883Y-19879501D01*
X49667881Y-19879500D01*
X49667873Y-19879500D01*
X49667864Y-19879500D01*
X48332129Y-19879500D01*
X48332123Y-19879501D01*
X48272516Y-19885908D01*
X48137671Y-19936202D01*
X48137664Y-19936206D01*
X48022455Y-20022452D01*
X48022452Y-20022455D01*
X47936206Y-20137664D01*
X47936202Y-20137671D01*
X47885908Y-20272517D01*
X47879501Y-20332116D01*
X47879500Y-20332135D01*
X47879500Y-21667870D01*
X47879501Y-21667876D01*
X47885908Y-21727483D01*
X47936202Y-21862328D01*
X47936206Y-21862335D01*
X48022452Y-21977544D01*
X48022455Y-21977547D01*
X48137664Y-22063793D01*
X48137671Y-22063797D01*
X48272517Y-22114091D01*
X48272516Y-22114091D01*
X48279444Y-22114835D01*
X48332127Y-22120500D01*
X49667872Y-22120499D01*
X49727483Y-22114091D01*
X49862331Y-22063796D01*
X49977546Y-21977546D01*
X50009293Y-21935136D01*
X50069112Y-21855231D01*
X50071525Y-21857038D01*
X50110236Y-21818295D01*
X50178503Y-21803414D01*
X50243977Y-21827803D01*
X50253247Y-21835465D01*
X50321850Y-21898005D01*
X50321852Y-21898006D01*
X50321855Y-21898009D01*
X50421609Y-21959774D01*
X50498407Y-22007325D01*
X50498409Y-22007326D01*
X50498411Y-22007327D01*
X50692047Y-22082342D01*
X50896170Y-22120500D01*
X50896172Y-22120500D01*
X51103828Y-22120500D01*
X51103830Y-22120500D01*
X51307953Y-22082342D01*
X51501589Y-22007327D01*
X51678145Y-21898009D01*
X51831607Y-21758110D01*
X51901047Y-21666155D01*
X51957154Y-21624521D01*
X52026866Y-21619828D01*
X52088048Y-21653570D01*
X52098945Y-21666146D01*
X52117976Y-21691346D01*
X52168394Y-21758112D01*
X52321850Y-21898005D01*
X52321852Y-21898006D01*
X52321855Y-21898009D01*
X52421609Y-21959774D01*
X52498407Y-22007325D01*
X52498409Y-22007326D01*
X52498411Y-22007327D01*
X52692047Y-22082342D01*
X52896170Y-22120500D01*
X52896172Y-22120500D01*
X53103828Y-22120500D01*
X53103830Y-22120500D01*
X53307953Y-22082342D01*
X53501589Y-22007327D01*
X53678145Y-21898009D01*
X53831607Y-21758110D01*
X53901047Y-21666155D01*
X53957154Y-21624521D01*
X54026866Y-21619828D01*
X54088048Y-21653570D01*
X54098945Y-21666146D01*
X54117976Y-21691346D01*
X54168394Y-21758112D01*
X54321850Y-21898005D01*
X54321852Y-21898006D01*
X54321855Y-21898009D01*
X54421609Y-21959774D01*
X54498407Y-22007325D01*
X54498409Y-22007326D01*
X54498411Y-22007327D01*
X54692047Y-22082342D01*
X54896170Y-22120500D01*
X54896172Y-22120500D01*
X55103828Y-22120500D01*
X55103830Y-22120500D01*
X55307953Y-22082342D01*
X55501589Y-22007327D01*
X55678145Y-21898009D01*
X55831607Y-21758110D01*
X55901047Y-21666155D01*
X55957154Y-21624521D01*
X56026866Y-21619828D01*
X56088048Y-21653570D01*
X56098945Y-21666146D01*
X56117976Y-21691346D01*
X56168394Y-21758112D01*
X56321850Y-21898005D01*
X56321852Y-21898006D01*
X56321855Y-21898009D01*
X56421609Y-21959774D01*
X56498407Y-22007325D01*
X56498409Y-22007326D01*
X56498411Y-22007327D01*
X56692047Y-22082342D01*
X56896170Y-22120500D01*
X56896172Y-22120500D01*
X57103828Y-22120500D01*
X57103830Y-22120500D01*
X57307953Y-22082342D01*
X57468399Y-22020185D01*
X57497599Y-22008873D01*
X57542392Y-22000500D01*
X64625500Y-22000500D01*
X64692539Y-22020185D01*
X64738294Y-22072989D01*
X64749500Y-22124500D01*
X64749500Y-36833790D01*
X64729815Y-36900829D01*
X64677011Y-36946584D01*
X64611615Y-36957010D01*
X64592331Y-36954837D01*
X64527917Y-36927770D01*
X64518535Y-36919298D01*
X64480523Y-36881286D01*
X64480520Y-36881284D01*
X64368717Y-36769481D01*
X64368709Y-36769475D01*
X64266936Y-36710717D01*
X64266934Y-36710716D01*
X64231790Y-36690425D01*
X64231789Y-36690424D01*
X64219263Y-36687067D01*
X64079057Y-36649499D01*
X63920943Y-36649499D01*
X63913347Y-36649499D01*
X63913331Y-36649500D01*
X62332412Y-36649500D01*
X62265373Y-36629815D01*
X62255097Y-36622445D01*
X62252263Y-36620185D01*
X62252262Y-36620184D01*
X62195496Y-36584515D01*
X62099523Y-36524211D01*
X61929254Y-36464631D01*
X61929249Y-36464630D01*
X61750004Y-36444435D01*
X61749996Y-36444435D01*
X61570750Y-36464630D01*
X61570745Y-36464631D01*
X61400476Y-36524211D01*
X61247737Y-36620184D01*
X61120184Y-36747737D01*
X61024211Y-36900476D01*
X60964631Y-37070745D01*
X60964630Y-37070749D01*
X60951533Y-37186992D01*
X60924466Y-37251406D01*
X60894285Y-37278102D01*
X60747737Y-37370184D01*
X60620184Y-37497737D01*
X60524211Y-37650476D01*
X60464631Y-37820745D01*
X60464630Y-37820750D01*
X60444435Y-37999996D01*
X60444435Y-38000003D01*
X60464630Y-38179249D01*
X60464631Y-38179254D01*
X60524211Y-38349523D01*
X60603549Y-38475788D01*
X60620184Y-38502262D01*
X60747738Y-38629816D01*
X60900478Y-38725789D01*
X61070745Y-38785368D01*
X61070750Y-38785369D01*
X61249996Y-38805565D01*
X61250000Y-38805565D01*
X61250004Y-38805565D01*
X61429249Y-38785369D01*
X61429252Y-38785368D01*
X61429255Y-38785368D01*
X61599522Y-38725789D01*
X61752262Y-38629816D01*
X61879816Y-38502262D01*
X61975789Y-38349522D01*
X62035368Y-38179255D01*
X62048465Y-38063006D01*
X62075531Y-37998595D01*
X62105708Y-37971901D01*
X62252262Y-37879816D01*
X62252264Y-37879813D01*
X62255097Y-37877555D01*
X62257278Y-37876664D01*
X62258159Y-37876111D01*
X62258255Y-37876265D01*
X62319783Y-37851145D01*
X62332412Y-37850500D01*
X63599091Y-37850500D01*
X63666130Y-37870185D01*
X63711885Y-37922989D01*
X63716133Y-37933545D01*
X63774211Y-38099522D01*
X63870184Y-38252262D01*
X63997738Y-38379816D01*
X64150478Y-38475789D01*
X64320745Y-38535368D01*
X64320750Y-38535369D01*
X64499996Y-38555565D01*
X64500000Y-38555565D01*
X64500003Y-38555565D01*
X64611616Y-38542989D01*
X64680438Y-38555043D01*
X64731818Y-38602392D01*
X64749500Y-38666209D01*
X64749500Y-41909217D01*
X64729815Y-41976256D01*
X64713181Y-41996898D01*
X62603475Y-44106603D01*
X62542152Y-44140088D01*
X62472460Y-44135104D01*
X62416527Y-44093232D01*
X62392110Y-44027768D01*
X62406962Y-43959495D01*
X62410801Y-43952949D01*
X62475788Y-43849524D01*
X62475789Y-43849522D01*
X62535368Y-43679255D01*
X62535369Y-43679249D01*
X62555565Y-43500003D01*
X62555565Y-43499996D01*
X62535369Y-43320750D01*
X62535368Y-43320745D01*
X62485861Y-43179262D01*
X62475789Y-43150478D01*
X62379816Y-42997738D01*
X62252262Y-42870184D01*
X62218411Y-42848914D01*
X62099523Y-42774211D01*
X61929254Y-42714631D01*
X61929249Y-42714630D01*
X61750004Y-42694435D01*
X61749996Y-42694435D01*
X61570750Y-42714630D01*
X61570745Y-42714631D01*
X61400476Y-42774211D01*
X61247736Y-42870185D01*
X61244903Y-42872445D01*
X61242724Y-42873334D01*
X61241842Y-42873889D01*
X61241744Y-42873734D01*
X61180217Y-42898855D01*
X61167588Y-42899500D01*
X60050097Y-42899500D01*
X59983058Y-42879815D01*
X59962416Y-42863181D01*
X57136819Y-40037584D01*
X57103334Y-39976261D01*
X57100500Y-39949903D01*
X57100500Y-38082412D01*
X57120185Y-38015373D01*
X57127555Y-38005097D01*
X57129810Y-38002267D01*
X57129816Y-38002262D01*
X57225789Y-37849522D01*
X57285368Y-37679255D01*
X57285369Y-37679249D01*
X57305565Y-37500003D01*
X57305565Y-37499996D01*
X57285369Y-37320750D01*
X57285368Y-37320745D01*
X57225789Y-37150478D01*
X57129816Y-36997738D01*
X57002262Y-36870184D01*
X56849523Y-36774211D01*
X56679254Y-36714631D01*
X56679249Y-36714630D01*
X56500004Y-36694435D01*
X56499996Y-36694435D01*
X56320750Y-36714630D01*
X56320745Y-36714631D01*
X56150476Y-36774211D01*
X55997737Y-36870184D01*
X55870184Y-36997737D01*
X55774211Y-37150476D01*
X55714631Y-37320745D01*
X55714630Y-37320750D01*
X55694435Y-37499996D01*
X55694435Y-37500003D01*
X55714630Y-37679249D01*
X55714631Y-37679254D01*
X55774211Y-37849523D01*
X55806229Y-37900478D01*
X55868760Y-37999996D01*
X55870185Y-38002263D01*
X55872445Y-38005097D01*
X55873334Y-38007275D01*
X55873889Y-38008158D01*
X55873734Y-38008255D01*
X55898855Y-38069783D01*
X55899500Y-38082412D01*
X55899500Y-40163330D01*
X55899499Y-40163348D01*
X55899499Y-40329054D01*
X55899498Y-40329054D01*
X55940423Y-40481785D01*
X55969358Y-40531900D01*
X55969359Y-40531904D01*
X55969360Y-40531904D01*
X56019479Y-40618714D01*
X56019481Y-40618717D01*
X56138349Y-40737585D01*
X56138355Y-40737590D01*
X59265139Y-43864374D01*
X59265149Y-43864385D01*
X59269479Y-43868715D01*
X59269480Y-43868716D01*
X59381284Y-43980520D01*
X59463122Y-44027768D01*
X59468095Y-44030639D01*
X59468097Y-44030641D01*
X59506151Y-44052611D01*
X59518215Y-44059577D01*
X59670943Y-44100500D01*
X61167588Y-44100500D01*
X61234627Y-44120185D01*
X61244903Y-44127555D01*
X61247736Y-44129814D01*
X61247738Y-44129816D01*
X61361270Y-44201152D01*
X61383999Y-44215435D01*
X61400478Y-44225789D01*
X61538860Y-44274211D01*
X61570745Y-44285368D01*
X61570750Y-44285369D01*
X61749996Y-44305565D01*
X61750000Y-44305565D01*
X61750004Y-44305565D01*
X61929249Y-44285369D01*
X61929252Y-44285368D01*
X61929255Y-44285368D01*
X62099522Y-44225789D01*
X62116001Y-44215435D01*
X62137471Y-44201943D01*
X62202950Y-44160800D01*
X62270186Y-44141800D01*
X62337021Y-44162167D01*
X62382236Y-44215435D01*
X62391474Y-44284691D01*
X62361802Y-44347948D01*
X62356603Y-44353475D01*
X57118079Y-49591999D01*
X57056756Y-49625484D01*
X56987064Y-49620500D01*
X56931131Y-49578628D01*
X56925405Y-49570291D01*
X56879817Y-49497739D01*
X56752262Y-49370184D01*
X56599523Y-49274211D01*
X56429254Y-49214631D01*
X56429249Y-49214630D01*
X56250004Y-49194435D01*
X56249996Y-49194435D01*
X56070750Y-49214630D01*
X56070745Y-49214631D01*
X55900476Y-49274211D01*
X55747737Y-49370184D01*
X55620184Y-49497737D01*
X55524211Y-49650476D01*
X55464631Y-49820745D01*
X55464630Y-49820750D01*
X55444435Y-49999996D01*
X55444435Y-50000003D01*
X55464630Y-50179249D01*
X55464631Y-50179254D01*
X55524211Y-50349523D01*
X55620184Y-50502262D01*
X55656241Y-50538319D01*
X55689726Y-50599642D01*
X55684742Y-50669334D01*
X55642870Y-50725267D01*
X55577406Y-50749684D01*
X55568560Y-50750000D01*
X50931440Y-50750000D01*
X50864401Y-50730315D01*
X50818646Y-50677511D01*
X50808702Y-50608353D01*
X50837727Y-50544797D01*
X50843759Y-50538319D01*
X50846710Y-50535368D01*
X50879816Y-50502262D01*
X50975789Y-50349522D01*
X51035368Y-50179255D01*
X51038500Y-50151460D01*
X51055565Y-50000003D01*
X51055565Y-49999996D01*
X51035369Y-49820750D01*
X51035368Y-49820745D01*
X50997514Y-49712565D01*
X50975789Y-49650478D01*
X50879816Y-49497738D01*
X50752262Y-49370184D01*
X50691840Y-49332218D01*
X50599523Y-49274211D01*
X50429254Y-49214631D01*
X50429249Y-49214630D01*
X50250004Y-49194435D01*
X50249996Y-49194435D01*
X50070750Y-49214630D01*
X50070745Y-49214631D01*
X49900476Y-49274211D01*
X49747737Y-49370184D01*
X49620184Y-49497737D01*
X49524211Y-49650476D01*
X49464631Y-49820745D01*
X49464630Y-49820750D01*
X49444435Y-49999996D01*
X49444435Y-50000003D01*
X49464630Y-50179249D01*
X49464631Y-50179254D01*
X49524211Y-50349523D01*
X49620184Y-50502262D01*
X49656241Y-50538319D01*
X49689726Y-50599642D01*
X49684742Y-50669334D01*
X49642870Y-50725267D01*
X49577406Y-50749684D01*
X49568560Y-50750000D01*
X37916378Y-50750000D01*
X37849339Y-50730315D01*
X37803584Y-50677511D01*
X37793158Y-50639883D01*
X37785369Y-50570749D01*
X37785366Y-50570737D01*
X37731205Y-50415955D01*
X37727643Y-50346176D01*
X37731205Y-50334045D01*
X37785366Y-50179262D01*
X37785369Y-50179249D01*
X37805565Y-50000003D01*
X37805565Y-49999996D01*
X37785369Y-49820750D01*
X37785368Y-49820745D01*
X37747514Y-49712565D01*
X37725789Y-49650478D01*
X37629816Y-49497738D01*
X37502262Y-49370184D01*
X37441840Y-49332218D01*
X37349523Y-49274211D01*
X37179254Y-49214631D01*
X37179249Y-49214630D01*
X37000004Y-49194435D01*
X36999996Y-49194435D01*
X36820750Y-49214630D01*
X36820745Y-49214631D01*
X36650476Y-49274211D01*
X36497737Y-49370184D01*
X36370184Y-49497737D01*
X36274211Y-49650476D01*
X36214631Y-49820745D01*
X36214630Y-49820750D01*
X36194435Y-49999996D01*
X36194435Y-50000003D01*
X36214630Y-50179249D01*
X36214632Y-50179257D01*
X36268795Y-50334046D01*
X36272356Y-50403824D01*
X36268795Y-50415954D01*
X36214632Y-50570742D01*
X36214630Y-50570749D01*
X36206842Y-50639883D01*
X36179776Y-50704297D01*
X36122182Y-50743852D01*
X36083622Y-50750000D01*
X32295685Y-50750000D01*
X32228646Y-50730315D01*
X32182891Y-50677511D01*
X32172947Y-50608353D01*
X32201972Y-50544797D01*
X32254731Y-50508958D01*
X32288607Y-50497103D01*
X32349522Y-50475789D01*
X32502262Y-50379816D01*
X32629816Y-50252262D01*
X32725789Y-50099522D01*
X32785368Y-49929255D01*
X32791880Y-49871459D01*
X32805565Y-49750003D01*
X32805565Y-49749996D01*
X32785369Y-49570750D01*
X32785368Y-49570745D01*
X32725788Y-49400476D01*
X32663041Y-49300616D01*
X32629816Y-49247738D01*
X32502262Y-49120184D01*
X32443670Y-49083368D01*
X32349523Y-49024211D01*
X32179254Y-48964631D01*
X32179249Y-48964630D01*
X32000004Y-48944435D01*
X31999996Y-48944435D01*
X31820750Y-48964630D01*
X31820745Y-48964631D01*
X31650476Y-49024211D01*
X31497737Y-49120184D01*
X31370184Y-49247737D01*
X31274211Y-49400476D01*
X31214631Y-49570745D01*
X31214630Y-49570750D01*
X31194435Y-49749996D01*
X31194435Y-49750003D01*
X31214630Y-49929249D01*
X31214631Y-49929254D01*
X31274211Y-50099523D01*
X31324312Y-50179257D01*
X31370184Y-50252262D01*
X31497738Y-50379816D01*
X31555253Y-50415955D01*
X31650478Y-50475789D01*
X31745269Y-50508958D01*
X31802046Y-50549680D01*
X31827793Y-50614633D01*
X31814337Y-50683194D01*
X31765950Y-50733597D01*
X31704315Y-50750000D01*
X27904500Y-50750000D01*
X27837461Y-50730315D01*
X27791706Y-50677511D01*
X27780500Y-50626000D01*
X27780500Y-49871456D01*
X27742052Y-49678170D01*
X27742051Y-49678169D01*
X27742051Y-49678165D01*
X27697557Y-49570745D01*
X27666635Y-49496092D01*
X27666628Y-49496079D01*
X27557139Y-49332218D01*
X27557136Y-49332214D01*
X27417785Y-49192863D01*
X27417781Y-49192860D01*
X27253920Y-49083371D01*
X27253907Y-49083364D01*
X27071839Y-49007950D01*
X27071829Y-49007947D01*
X26878543Y-48969500D01*
X26878541Y-48969500D01*
X26681459Y-48969500D01*
X26681457Y-48969500D01*
X26488170Y-49007947D01*
X26488160Y-49007950D01*
X26306092Y-49083364D01*
X26306079Y-49083371D01*
X26142218Y-49192860D01*
X26142214Y-49192863D01*
X26002863Y-49332214D01*
X26002860Y-49332218D01*
X25893371Y-49496079D01*
X25893364Y-49496092D01*
X25817950Y-49678160D01*
X25817947Y-49678170D01*
X25779500Y-49871456D01*
X25779500Y-50626000D01*
X25759815Y-50693039D01*
X25707011Y-50738794D01*
X25655500Y-50750000D01*
X23681440Y-50750000D01*
X23614401Y-50730315D01*
X23568646Y-50677511D01*
X23558702Y-50608353D01*
X23587727Y-50544797D01*
X23593759Y-50538319D01*
X23596710Y-50535368D01*
X23629816Y-50502262D01*
X23725789Y-50349522D01*
X23785368Y-50179255D01*
X23788500Y-50151460D01*
X23805565Y-50000003D01*
X23805565Y-49999996D01*
X23785369Y-49820750D01*
X23785368Y-49820745D01*
X23747514Y-49712565D01*
X23725789Y-49650478D01*
X23629816Y-49497738D01*
X23502262Y-49370184D01*
X23441833Y-49332214D01*
X23349524Y-49274212D01*
X23349523Y-49274211D01*
X23329084Y-49267059D01*
X23314224Y-49261859D01*
X23257450Y-49221138D01*
X23238139Y-49185772D01*
X23225790Y-49150479D01*
X23146450Y-49024211D01*
X23129816Y-48997738D01*
X23002262Y-48870184D01*
X22849523Y-48774211D01*
X22679254Y-48714631D01*
X22679249Y-48714630D01*
X22500004Y-48694435D01*
X22499996Y-48694435D01*
X22320750Y-48714630D01*
X22320745Y-48714631D01*
X22150476Y-48774211D01*
X21997737Y-48870184D01*
X21870184Y-48997737D01*
X21774209Y-49150480D01*
X21741541Y-49243840D01*
X21700820Y-49300616D01*
X21635867Y-49326363D01*
X21567305Y-49312907D01*
X21516903Y-49264519D01*
X21500500Y-49202885D01*
X21500500Y-46750003D01*
X55194435Y-46750003D01*
X55214630Y-46929249D01*
X55214631Y-46929254D01*
X55274211Y-47099523D01*
X55370184Y-47252262D01*
X55497738Y-47379816D01*
X55650478Y-47475789D01*
X55820745Y-47535368D01*
X55820750Y-47535369D01*
X55999996Y-47555565D01*
X56000000Y-47555565D01*
X56000004Y-47555565D01*
X56179249Y-47535369D01*
X56179252Y-47535368D01*
X56179255Y-47535368D01*
X56349522Y-47475789D01*
X56502262Y-47379816D01*
X56629816Y-47252262D01*
X56725789Y-47099522D01*
X56785368Y-46929255D01*
X56805565Y-46750000D01*
X56785368Y-46570745D01*
X56725789Y-46400478D01*
X56629816Y-46247738D01*
X56502262Y-46120184D01*
X56429708Y-46074595D01*
X56349523Y-46024211D01*
X56179254Y-45964631D01*
X56179249Y-45964630D01*
X56000004Y-45944435D01*
X55999996Y-45944435D01*
X55820750Y-45964630D01*
X55820745Y-45964631D01*
X55650476Y-46024211D01*
X55497737Y-46120184D01*
X55370184Y-46247737D01*
X55274211Y-46400476D01*
X55214631Y-46570745D01*
X55214630Y-46570750D01*
X55194435Y-46749996D01*
X55194435Y-46750003D01*
X21500500Y-46750003D01*
X21500500Y-45750003D01*
X45444435Y-45750003D01*
X45464630Y-45929249D01*
X45464631Y-45929254D01*
X45524211Y-46099523D01*
X45617341Y-46247737D01*
X45620184Y-46252262D01*
X45747738Y-46379816D01*
X45900478Y-46475789D01*
X46070745Y-46535368D01*
X46070750Y-46535369D01*
X46249996Y-46555565D01*
X46250000Y-46555565D01*
X46250004Y-46555565D01*
X46429249Y-46535369D01*
X46429252Y-46535368D01*
X46429255Y-46535368D01*
X46599522Y-46475789D01*
X46752262Y-46379816D01*
X46879816Y-46252262D01*
X46975789Y-46099522D01*
X47035368Y-45929255D01*
X47035369Y-45929249D01*
X47055565Y-45750003D01*
X47055565Y-45749996D01*
X47035369Y-45570750D01*
X47035366Y-45570737D01*
X46981205Y-45415955D01*
X46977643Y-45346176D01*
X46981205Y-45334045D01*
X47035366Y-45179262D01*
X47035369Y-45179249D01*
X47055565Y-45000003D01*
X47055565Y-44999996D01*
X47035369Y-44820750D01*
X47035368Y-44820745D01*
X46999456Y-44718115D01*
X46975789Y-44650478D01*
X46879816Y-44497738D01*
X46752262Y-44370184D01*
X46649422Y-44305565D01*
X46599523Y-44274211D01*
X46429254Y-44214631D01*
X46429249Y-44214630D01*
X46250004Y-44194435D01*
X46249996Y-44194435D01*
X46070750Y-44214630D01*
X46070745Y-44214631D01*
X45900476Y-44274211D01*
X45747737Y-44370184D01*
X45620184Y-44497737D01*
X45524211Y-44650476D01*
X45464631Y-44820745D01*
X45464630Y-44820750D01*
X45444435Y-44999996D01*
X45444435Y-45000003D01*
X45464630Y-45179249D01*
X45464632Y-45179257D01*
X45518795Y-45334046D01*
X45522356Y-45403824D01*
X45518795Y-45415954D01*
X45464632Y-45570742D01*
X45464630Y-45570750D01*
X45444435Y-45749996D01*
X45444435Y-45750003D01*
X21500500Y-45750003D01*
X21500500Y-44000003D01*
X27194435Y-44000003D01*
X27214630Y-44179249D01*
X27214631Y-44179254D01*
X27274211Y-44349523D01*
X27367341Y-44497737D01*
X27370184Y-44502262D01*
X27497738Y-44629816D01*
X27650478Y-44725789D01*
X27724242Y-44751600D01*
X27820745Y-44785368D01*
X27820750Y-44785369D01*
X27999996Y-44805565D01*
X28000000Y-44805565D01*
X28000004Y-44805565D01*
X28179249Y-44785369D01*
X28179252Y-44785368D01*
X28179255Y-44785368D01*
X28349522Y-44725789D01*
X28434027Y-44672691D01*
X28501264Y-44653690D01*
X28565973Y-44672691D01*
X28650475Y-44725788D01*
X28820745Y-44785368D01*
X28820750Y-44785369D01*
X28999996Y-44805565D01*
X29000000Y-44805565D01*
X29000004Y-44805565D01*
X29179249Y-44785369D01*
X29179252Y-44785368D01*
X29179255Y-44785368D01*
X29349522Y-44725789D01*
X29502262Y-44629816D01*
X29629816Y-44502262D01*
X29725789Y-44349522D01*
X29785368Y-44179255D01*
X29785369Y-44179249D01*
X29805565Y-44000003D01*
X29805565Y-43999996D01*
X29785369Y-43820750D01*
X29785368Y-43820745D01*
X29725788Y-43650475D01*
X29672691Y-43565973D01*
X29654048Y-43500003D01*
X32944435Y-43500003D01*
X32964630Y-43679249D01*
X32964631Y-43679254D01*
X33024211Y-43849523D01*
X33118760Y-43999996D01*
X33120184Y-44002262D01*
X33247738Y-44129816D01*
X33326410Y-44179249D01*
X33383999Y-44215435D01*
X33400478Y-44225789D01*
X33538860Y-44274211D01*
X33570745Y-44285368D01*
X33570750Y-44285369D01*
X33749996Y-44305565D01*
X33750000Y-44305565D01*
X33750004Y-44305565D01*
X33929249Y-44285369D01*
X33929252Y-44285368D01*
X33929255Y-44285368D01*
X34099522Y-44225789D01*
X34252262Y-44129816D01*
X34379816Y-44002262D01*
X34475789Y-43849522D01*
X34535368Y-43679255D01*
X34535369Y-43679249D01*
X34555565Y-43500003D01*
X34555565Y-43499996D01*
X34535369Y-43320750D01*
X34535368Y-43320745D01*
X34510614Y-43250003D01*
X52444435Y-43250003D01*
X52464630Y-43429249D01*
X52464631Y-43429254D01*
X52524211Y-43599523D01*
X52620184Y-43752262D01*
X52747738Y-43879816D01*
X52900478Y-43975789D01*
X53057230Y-44030639D01*
X53070745Y-44035368D01*
X53070750Y-44035369D01*
X53249996Y-44055565D01*
X53250000Y-44055565D01*
X53250004Y-44055565D01*
X53429249Y-44035369D01*
X53429252Y-44035368D01*
X53429255Y-44035368D01*
X53599522Y-43975789D01*
X53752262Y-43879816D01*
X53879816Y-43752262D01*
X53975789Y-43599522D01*
X54035368Y-43429255D01*
X54035369Y-43429249D01*
X54055565Y-43250003D01*
X54055565Y-43249996D01*
X54035369Y-43070750D01*
X54035368Y-43070745D01*
X54022989Y-43035368D01*
X53975789Y-42900478D01*
X53975174Y-42899500D01*
X53936582Y-42838080D01*
X53879816Y-42747738D01*
X53752262Y-42620184D01*
X53719379Y-42599522D01*
X53599523Y-42524211D01*
X53429254Y-42464631D01*
X53429249Y-42464630D01*
X53250004Y-42444435D01*
X53249996Y-42444435D01*
X53070750Y-42464630D01*
X53070745Y-42464631D01*
X52900476Y-42524211D01*
X52747737Y-42620184D01*
X52620184Y-42747737D01*
X52524211Y-42900476D01*
X52464631Y-43070745D01*
X52464630Y-43070750D01*
X52444435Y-43249996D01*
X52444435Y-43250003D01*
X34510614Y-43250003D01*
X34485861Y-43179262D01*
X34475789Y-43150478D01*
X34379816Y-42997738D01*
X34252262Y-42870184D01*
X34218411Y-42848914D01*
X34099523Y-42774211D01*
X33929254Y-42714631D01*
X33929249Y-42714630D01*
X33750004Y-42694435D01*
X33749996Y-42694435D01*
X33570750Y-42714630D01*
X33570745Y-42714631D01*
X33400476Y-42774211D01*
X33247737Y-42870184D01*
X33120184Y-42997737D01*
X33024211Y-43150476D01*
X32964631Y-43320745D01*
X32964630Y-43320750D01*
X32944435Y-43499996D01*
X32944435Y-43500003D01*
X29654048Y-43500003D01*
X29653690Y-43498736D01*
X29672691Y-43434027D01*
X29725788Y-43349524D01*
X29725789Y-43349522D01*
X29785368Y-43179255D01*
X29785369Y-43179249D01*
X29805565Y-43000003D01*
X29805565Y-42999996D01*
X29785369Y-42820750D01*
X29785368Y-42820745D01*
X29759821Y-42747737D01*
X29725789Y-42650478D01*
X29629816Y-42497738D01*
X29502262Y-42370184D01*
X29434027Y-42327309D01*
X29349523Y-42274211D01*
X29280341Y-42250003D01*
X38444435Y-42250003D01*
X38464630Y-42429249D01*
X38464631Y-42429254D01*
X38524211Y-42599523D01*
X38606524Y-42730522D01*
X38620184Y-42752262D01*
X38747738Y-42879816D01*
X38900478Y-42975789D01*
X38969678Y-43000003D01*
X39070745Y-43035368D01*
X39070750Y-43035369D01*
X39249996Y-43055565D01*
X39250000Y-43055565D01*
X39250004Y-43055565D01*
X39429249Y-43035369D01*
X39429252Y-43035368D01*
X39429255Y-43035368D01*
X39599522Y-42975789D01*
X39752262Y-42879816D01*
X39752267Y-42879810D01*
X39755097Y-42877555D01*
X39757275Y-42876665D01*
X39758158Y-42876111D01*
X39758255Y-42876265D01*
X39819783Y-42851145D01*
X39832412Y-42850500D01*
X41163331Y-42850500D01*
X41163347Y-42850501D01*
X41170943Y-42850501D01*
X41329054Y-42850501D01*
X41329057Y-42850501D01*
X41481785Y-42809577D01*
X41543040Y-42774211D01*
X41618716Y-42730520D01*
X41730520Y-42618716D01*
X41730520Y-42618714D01*
X41740724Y-42608511D01*
X41740728Y-42608506D01*
X45268535Y-39080698D01*
X45329856Y-39047215D01*
X45342311Y-39045163D01*
X45429255Y-39035368D01*
X45599522Y-38975789D01*
X45752262Y-38879816D01*
X45879816Y-38752262D01*
X45975789Y-38599522D01*
X46035368Y-38429255D01*
X46035369Y-38429249D01*
X46055565Y-38250003D01*
X46055565Y-38249996D01*
X46035369Y-38070750D01*
X46035368Y-38070745D01*
X46010612Y-37999996D01*
X45975789Y-37900478D01*
X45879816Y-37747738D01*
X45752262Y-37620184D01*
X45599523Y-37524211D01*
X45429254Y-37464631D01*
X45429249Y-37464630D01*
X45250004Y-37444435D01*
X45249996Y-37444435D01*
X45070750Y-37464630D01*
X45070745Y-37464631D01*
X44900476Y-37524211D01*
X44747737Y-37620184D01*
X44620184Y-37747737D01*
X44524210Y-37900478D01*
X44464630Y-38070750D01*
X44454837Y-38157668D01*
X44427770Y-38222082D01*
X44419298Y-38231465D01*
X41037584Y-41613181D01*
X40976261Y-41646666D01*
X40949903Y-41649500D01*
X39832412Y-41649500D01*
X39765373Y-41629815D01*
X39755097Y-41622445D01*
X39752263Y-41620185D01*
X39752262Y-41620184D01*
X39695496Y-41584515D01*
X39599523Y-41524211D01*
X39429254Y-41464631D01*
X39429249Y-41464630D01*
X39250004Y-41444435D01*
X39249996Y-41444435D01*
X39070750Y-41464630D01*
X39070745Y-41464631D01*
X38900476Y-41524211D01*
X38747737Y-41620184D01*
X38620184Y-41747737D01*
X38524211Y-41900476D01*
X38464631Y-42070745D01*
X38464630Y-42070750D01*
X38444435Y-42249996D01*
X38444435Y-42250003D01*
X29280341Y-42250003D01*
X29179254Y-42214631D01*
X29179249Y-42214630D01*
X29000004Y-42194435D01*
X28999996Y-42194435D01*
X28820750Y-42214630D01*
X28820737Y-42214633D01*
X28650479Y-42274209D01*
X28565971Y-42327309D01*
X28498734Y-42346309D01*
X28434029Y-42327309D01*
X28349520Y-42274209D01*
X28179262Y-42214633D01*
X28179249Y-42214630D01*
X28000004Y-42194435D01*
X27999996Y-42194435D01*
X27820750Y-42214630D01*
X27820745Y-42214631D01*
X27650476Y-42274211D01*
X27497737Y-42370184D01*
X27370184Y-42497737D01*
X27274211Y-42650476D01*
X27214631Y-42820745D01*
X27214630Y-42820750D01*
X27194435Y-42999996D01*
X27194435Y-43000003D01*
X27214630Y-43179249D01*
X27214633Y-43179262D01*
X27274209Y-43349520D01*
X27327309Y-43434029D01*
X27346309Y-43501266D01*
X27327309Y-43565971D01*
X27274209Y-43650479D01*
X27214633Y-43820737D01*
X27214630Y-43820750D01*
X27194435Y-43999996D01*
X27194435Y-44000003D01*
X21500500Y-44000003D01*
X21500500Y-37000003D01*
X28944435Y-37000003D01*
X28964630Y-37179249D01*
X28964631Y-37179254D01*
X29024211Y-37349523D01*
X29083849Y-37444435D01*
X29120184Y-37502262D01*
X29247738Y-37629816D01*
X29400478Y-37725789D01*
X29463202Y-37747737D01*
X29570745Y-37785368D01*
X29570750Y-37785369D01*
X29749996Y-37805565D01*
X29750000Y-37805565D01*
X29750004Y-37805565D01*
X29929249Y-37785369D01*
X29929252Y-37785368D01*
X29929255Y-37785368D01*
X30099522Y-37725789D01*
X30252262Y-37629816D01*
X30379816Y-37502262D01*
X30381235Y-37500003D01*
X40694435Y-37500003D01*
X40714630Y-37679249D01*
X40714631Y-37679254D01*
X40774211Y-37849523D01*
X40827006Y-37933545D01*
X40870184Y-38002262D01*
X40997738Y-38129816D01*
X41150478Y-38225789D01*
X41320745Y-38285368D01*
X41320750Y-38285369D01*
X41499996Y-38305565D01*
X41500000Y-38305565D01*
X41500004Y-38305565D01*
X41679249Y-38285369D01*
X41679252Y-38285368D01*
X41679255Y-38285368D01*
X41849522Y-38225789D01*
X42002262Y-38129816D01*
X42129816Y-38002262D01*
X42225789Y-37849522D01*
X42285368Y-37679255D01*
X42285369Y-37679249D01*
X42305565Y-37500003D01*
X42305565Y-37499996D01*
X42285369Y-37320750D01*
X42285368Y-37320745D01*
X42225789Y-37150478D01*
X42129816Y-36997738D01*
X42002262Y-36870184D01*
X41849523Y-36774211D01*
X41679254Y-36714631D01*
X41679249Y-36714630D01*
X41500004Y-36694435D01*
X41499996Y-36694435D01*
X41320750Y-36714630D01*
X41320745Y-36714631D01*
X41150476Y-36774211D01*
X40997737Y-36870184D01*
X40870184Y-36997737D01*
X40774211Y-37150476D01*
X40714631Y-37320745D01*
X40714630Y-37320750D01*
X40694435Y-37499996D01*
X40694435Y-37500003D01*
X30381235Y-37500003D01*
X30475789Y-37349522D01*
X30535368Y-37179255D01*
X30535369Y-37179249D01*
X30555565Y-37000003D01*
X30555565Y-36999996D01*
X30535369Y-36820750D01*
X30535368Y-36820745D01*
X30498237Y-36714630D01*
X30475789Y-36650478D01*
X30475174Y-36649500D01*
X30379815Y-36497737D01*
X30252262Y-36370184D01*
X30099523Y-36274211D01*
X29929254Y-36214631D01*
X29929249Y-36214630D01*
X29750004Y-36194435D01*
X29749996Y-36194435D01*
X29570750Y-36214630D01*
X29570745Y-36214631D01*
X29400476Y-36274211D01*
X29247737Y-36370184D01*
X29120184Y-36497737D01*
X29024211Y-36650476D01*
X28964631Y-36820745D01*
X28964630Y-36820750D01*
X28944435Y-36999996D01*
X28944435Y-37000003D01*
X21500500Y-37000003D01*
X21500500Y-33374500D01*
X21520185Y-33307461D01*
X21572989Y-33261706D01*
X21624500Y-33250500D01*
X22083791Y-33250500D01*
X22150830Y-33270185D01*
X22196585Y-33322989D01*
X22207011Y-33388384D01*
X22194435Y-33499997D01*
X22194435Y-33500003D01*
X22214630Y-33679249D01*
X22214631Y-33679254D01*
X22274211Y-33849523D01*
X22327310Y-33934029D01*
X22370184Y-34002262D01*
X22497738Y-34129816D01*
X22530623Y-34150479D01*
X22605120Y-34197289D01*
X22650478Y-34225789D01*
X22820745Y-34285368D01*
X22820750Y-34285369D01*
X22999996Y-34305565D01*
X23000000Y-34305565D01*
X23000004Y-34305565D01*
X23179249Y-34285369D01*
X23179252Y-34285368D01*
X23179255Y-34285368D01*
X23349522Y-34225789D01*
X23502262Y-34129816D01*
X23629816Y-34002262D01*
X23725789Y-33849522D01*
X23785368Y-33679255D01*
X23788579Y-33650755D01*
X23805565Y-33500003D01*
X23805565Y-33499997D01*
X23792989Y-33388384D01*
X23805043Y-33319562D01*
X23852392Y-33268182D01*
X23916209Y-33250500D01*
X26934329Y-33250500D01*
X26966347Y-33244130D01*
X27046400Y-33228207D01*
X27127622Y-33212051D01*
X27180951Y-33189961D01*
X27309700Y-33136632D01*
X27309704Y-33136629D01*
X27310219Y-33136416D01*
X27379688Y-33128947D01*
X27442167Y-33160222D01*
X27477819Y-33220311D01*
X27475325Y-33290137D01*
X27474714Y-33291928D01*
X27464632Y-33320740D01*
X27464630Y-33320750D01*
X27444435Y-33499996D01*
X27444435Y-33500003D01*
X27464630Y-33679249D01*
X27464633Y-33679262D01*
X27524209Y-33849520D01*
X27577309Y-33934029D01*
X27596309Y-34001266D01*
X27577309Y-34065971D01*
X27524209Y-34150479D01*
X27464633Y-34320737D01*
X27464630Y-34320750D01*
X27444435Y-34499996D01*
X27444435Y-34500003D01*
X27464630Y-34679249D01*
X27464631Y-34679254D01*
X27524211Y-34849523D01*
X27620184Y-35002262D01*
X27747738Y-35129816D01*
X27900478Y-35225789D01*
X28070745Y-35285368D01*
X28070750Y-35285369D01*
X28249996Y-35305565D01*
X28250000Y-35305565D01*
X28250004Y-35305565D01*
X28429249Y-35285369D01*
X28429252Y-35285368D01*
X28429255Y-35285368D01*
X28599522Y-35225789D01*
X28752262Y-35129816D01*
X28879816Y-35002262D01*
X28975789Y-34849522D01*
X29035368Y-34679255D01*
X29045161Y-34592329D01*
X29072226Y-34527918D01*
X29080690Y-34518543D01*
X31058506Y-32540728D01*
X31058511Y-32540724D01*
X31068714Y-32530520D01*
X31068716Y-32530520D01*
X31180520Y-32418716D01*
X31236364Y-32321989D01*
X31286929Y-32273776D01*
X31355536Y-32260552D01*
X31420401Y-32286520D01*
X31460930Y-32343433D01*
X31467750Y-32383991D01*
X31467750Y-33246370D01*
X31467751Y-33246376D01*
X31474158Y-33305983D01*
X31524452Y-33440828D01*
X31524456Y-33440835D01*
X31610702Y-33556044D01*
X31610705Y-33556047D01*
X31725914Y-33642293D01*
X31725921Y-33642297D01*
X31860767Y-33692591D01*
X31860766Y-33692591D01*
X31867694Y-33693335D01*
X31920377Y-33699000D01*
X33413122Y-33698999D01*
X33472733Y-33692591D01*
X33607581Y-33642296D01*
X33722796Y-33556046D01*
X33809046Y-33440831D01*
X33859341Y-33305983D01*
X33865750Y-33246373D01*
X33865749Y-32500000D01*
X36462613Y-32500000D01*
X36483115Y-32721259D01*
X36483116Y-32721261D01*
X36543924Y-32934979D01*
X36543930Y-32934994D01*
X36642972Y-33133896D01*
X36776883Y-33311224D01*
X36941094Y-33460921D01*
X36941096Y-33460923D01*
X37130016Y-33577897D01*
X37130022Y-33577900D01*
X37158956Y-33589109D01*
X37337222Y-33658170D01*
X37555646Y-33699000D01*
X37555649Y-33699000D01*
X37777851Y-33699000D01*
X37777854Y-33699000D01*
X37996278Y-33658170D01*
X38203480Y-33577899D01*
X38392405Y-33460922D01*
X38546177Y-33320740D01*
X38556616Y-33311224D01*
X38560575Y-33305982D01*
X38602848Y-33250003D01*
X49194435Y-33250003D01*
X49214630Y-33429249D01*
X49214631Y-33429254D01*
X49274211Y-33599523D01*
X49336717Y-33699000D01*
X49370184Y-33752262D01*
X49497738Y-33879816D01*
X49650478Y-33975789D01*
X49820745Y-34035368D01*
X49820750Y-34035369D01*
X49999996Y-34055565D01*
X50000000Y-34055565D01*
X50000004Y-34055565D01*
X50179249Y-34035369D01*
X50179252Y-34035368D01*
X50179255Y-34035368D01*
X50349522Y-33975789D01*
X50502262Y-33879816D01*
X50629816Y-33752262D01*
X50725789Y-33599522D01*
X50770585Y-33471503D01*
X53099435Y-33471503D01*
X53119630Y-33650749D01*
X53119631Y-33650754D01*
X53179211Y-33821023D01*
X53250218Y-33934029D01*
X53275184Y-33973762D01*
X53402738Y-34101316D01*
X53555478Y-34197289D01*
X53725745Y-34256868D01*
X53725750Y-34256869D01*
X53904996Y-34277065D01*
X53905000Y-34277065D01*
X53905004Y-34277065D01*
X54084249Y-34256869D01*
X54084252Y-34256868D01*
X54084255Y-34256868D01*
X54254522Y-34197289D01*
X54407262Y-34101316D01*
X54534816Y-33973762D01*
X54630789Y-33821022D01*
X54690368Y-33650755D01*
X54691321Y-33642296D01*
X54710565Y-33471503D01*
X54710565Y-33471496D01*
X54690369Y-33292250D01*
X54690368Y-33292245D01*
X54674316Y-33246370D01*
X54630789Y-33121978D01*
X54534816Y-32969238D01*
X54407262Y-32841684D01*
X54401808Y-32838257D01*
X54254523Y-32745711D01*
X54084254Y-32686131D01*
X54084249Y-32686130D01*
X53905004Y-32665935D01*
X53904996Y-32665935D01*
X53725750Y-32686130D01*
X53725745Y-32686131D01*
X53555476Y-32745711D01*
X53402737Y-32841684D01*
X53275184Y-32969237D01*
X53179211Y-33121976D01*
X53119631Y-33292245D01*
X53119630Y-33292250D01*
X53099435Y-33471496D01*
X53099435Y-33471503D01*
X50770585Y-33471503D01*
X50785368Y-33429255D01*
X50789973Y-33388384D01*
X50805565Y-33250003D01*
X50805565Y-33249996D01*
X50785369Y-33070750D01*
X50785368Y-33070745D01*
X50747499Y-32962521D01*
X50725789Y-32900478D01*
X50629816Y-32747738D01*
X50502262Y-32620184D01*
X50349523Y-32524211D01*
X50179254Y-32464631D01*
X50179249Y-32464630D01*
X50000004Y-32444435D01*
X49999996Y-32444435D01*
X49820750Y-32464630D01*
X49820745Y-32464631D01*
X49650476Y-32524211D01*
X49497737Y-32620184D01*
X49370184Y-32747737D01*
X49274211Y-32900476D01*
X49214631Y-33070745D01*
X49214630Y-33070750D01*
X49194435Y-33249996D01*
X49194435Y-33250003D01*
X38602848Y-33250003D01*
X38690528Y-33133896D01*
X38789574Y-32934984D01*
X38850384Y-32721260D01*
X38870887Y-32500000D01*
X38867609Y-32464630D01*
X38850384Y-32278740D01*
X38850383Y-32278738D01*
X38848971Y-32273776D01*
X38789574Y-32065016D01*
X38690528Y-31866104D01*
X38605587Y-31753623D01*
X38556616Y-31688775D01*
X38392405Y-31539078D01*
X38392403Y-31539076D01*
X38203483Y-31422102D01*
X38203477Y-31422099D01*
X38095830Y-31380397D01*
X37996278Y-31341830D01*
X37777854Y-31301000D01*
X37555646Y-31301000D01*
X37337222Y-31341830D01*
X37296252Y-31357702D01*
X37130022Y-31422099D01*
X37130016Y-31422102D01*
X36941096Y-31539076D01*
X36941094Y-31539078D01*
X36776883Y-31688775D01*
X36642972Y-31866103D01*
X36543930Y-32065005D01*
X36543924Y-32065020D01*
X36483116Y-32278738D01*
X36483115Y-32278740D01*
X36462613Y-32499999D01*
X36462613Y-32500000D01*
X33865749Y-32500000D01*
X33865749Y-31753628D01*
X33859341Y-31694017D01*
X33814374Y-31573455D01*
X33809047Y-31559171D01*
X33809043Y-31559164D01*
X33722797Y-31443955D01*
X33722794Y-31443952D01*
X33607585Y-31357706D01*
X33607578Y-31357702D01*
X33472732Y-31307408D01*
X33472733Y-31307408D01*
X33413133Y-31301001D01*
X33413131Y-31301000D01*
X33413123Y-31301000D01*
X33413114Y-31301000D01*
X31920379Y-31301000D01*
X31920373Y-31301001D01*
X31860766Y-31307408D01*
X31725921Y-31357702D01*
X31725914Y-31357706D01*
X31610705Y-31443952D01*
X31523766Y-31560087D01*
X31467832Y-31601957D01*
X31398140Y-31606941D01*
X31336818Y-31573455D01*
X31303333Y-31512132D01*
X31300500Y-31485775D01*
X31300500Y-29805259D01*
X31300500Y-29805257D01*
X31259577Y-29652530D01*
X31259573Y-29652523D01*
X31180524Y-29515604D01*
X31180521Y-29515600D01*
X31180520Y-29515598D01*
X31068716Y-29403794D01*
X31068715Y-29403793D01*
X31064385Y-29399463D01*
X31064374Y-29399453D01*
X30403276Y-28738355D01*
X30403274Y-28738352D01*
X30284403Y-28619481D01*
X30284402Y-28619480D01*
X30197590Y-28569360D01*
X30197590Y-28569359D01*
X30197586Y-28569358D01*
X30147471Y-28540423D01*
X29994743Y-28499499D01*
X29836629Y-28499499D01*
X29829033Y-28499499D01*
X29829017Y-28499500D01*
X29158948Y-28499500D01*
X29091909Y-28479815D01*
X29046154Y-28427011D01*
X29036210Y-28357853D01*
X29059681Y-28301190D01*
X29142296Y-28190831D01*
X29192591Y-28055983D01*
X29194309Y-28040000D01*
X47984829Y-28040000D01*
X48003482Y-28277020D01*
X48003482Y-28277023D01*
X48003483Y-28277025D01*
X48058987Y-28508214D01*
X48058988Y-28508216D01*
X48149972Y-28727873D01*
X48274199Y-28930592D01*
X48274202Y-28930597D01*
X48344195Y-29012548D01*
X48428612Y-29111388D01*
X48544337Y-29210226D01*
X48609402Y-29265797D01*
X48609407Y-29265800D01*
X48812126Y-29390027D01*
X48845363Y-29403794D01*
X49031786Y-29481013D01*
X49262975Y-29536517D01*
X49500000Y-29555171D01*
X49737025Y-29536517D01*
X49968214Y-29481013D01*
X50187873Y-29390027D01*
X50390595Y-29265799D01*
X50571388Y-29111388D01*
X50725799Y-28930595D01*
X50850027Y-28727873D01*
X50941013Y-28508214D01*
X50996517Y-28277025D01*
X51015171Y-28040000D01*
X54984829Y-28040000D01*
X55003482Y-28277020D01*
X55003482Y-28277023D01*
X55003483Y-28277025D01*
X55058987Y-28508214D01*
X55058988Y-28508216D01*
X55149972Y-28727873D01*
X55274199Y-28930592D01*
X55274202Y-28930597D01*
X55344195Y-29012548D01*
X55428612Y-29111388D01*
X55544337Y-29210226D01*
X55609402Y-29265797D01*
X55609407Y-29265800D01*
X55812126Y-29390027D01*
X55845363Y-29403794D01*
X56031786Y-29481013D01*
X56262975Y-29536517D01*
X56500000Y-29555171D01*
X56737025Y-29536517D01*
X56968214Y-29481013D01*
X57187873Y-29390027D01*
X57390595Y-29265799D01*
X57571388Y-29111388D01*
X57725799Y-28930595D01*
X57850027Y-28727873D01*
X57941013Y-28508214D01*
X57996517Y-28277025D01*
X58015171Y-28040000D01*
X57996517Y-27802975D01*
X57941013Y-27571786D01*
X57850027Y-27352127D01*
X57850027Y-27352126D01*
X57759227Y-27203955D01*
X57725799Y-27149405D01*
X57725798Y-27149404D01*
X57725797Y-27149402D01*
X57670226Y-27084337D01*
X57571388Y-26968612D01*
X57449242Y-26864290D01*
X57411049Y-26805783D01*
X57410550Y-26735916D01*
X57447904Y-26676869D01*
X57449242Y-26675710D01*
X57449728Y-26675294D01*
X57571388Y-26571388D01*
X57725799Y-26390595D01*
X57850027Y-26187873D01*
X57941013Y-25968214D01*
X57996517Y-25737025D01*
X58015171Y-25500000D01*
X57996517Y-25262975D01*
X57941013Y-25031786D01*
X57850027Y-24812127D01*
X57850027Y-24812126D01*
X57725800Y-24609407D01*
X57725797Y-24609402D01*
X57670226Y-24544337D01*
X57571388Y-24428612D01*
X57472548Y-24344195D01*
X57390597Y-24274202D01*
X57390592Y-24274199D01*
X57187873Y-24149972D01*
X56968216Y-24058988D01*
X56968214Y-24058987D01*
X56737025Y-24003483D01*
X56737023Y-24003482D01*
X56737020Y-24003482D01*
X56500000Y-23984829D01*
X56262979Y-24003482D01*
X56262975Y-24003483D01*
X56031786Y-24058987D01*
X56031784Y-24058987D01*
X56031783Y-24058988D01*
X55812126Y-24149972D01*
X55609407Y-24274199D01*
X55609402Y-24274202D01*
X55428612Y-24428612D01*
X55274202Y-24609402D01*
X55274199Y-24609407D01*
X55149972Y-24812126D01*
X55058988Y-25031783D01*
X55003482Y-25262979D01*
X54984829Y-25500000D01*
X55003482Y-25737020D01*
X55003482Y-25737023D01*
X55003483Y-25737025D01*
X55058987Y-25968214D01*
X55058988Y-25968216D01*
X55149972Y-26187873D01*
X55274199Y-26390592D01*
X55274202Y-26390597D01*
X55319827Y-26444017D01*
X55428612Y-26571388D01*
X55480967Y-26616103D01*
X55550757Y-26675710D01*
X55588950Y-26734217D01*
X55589448Y-26804085D01*
X55552094Y-26863131D01*
X55550757Y-26864290D01*
X55428612Y-26968612D01*
X55274202Y-27149402D01*
X55274199Y-27149407D01*
X55149972Y-27352126D01*
X55058988Y-27571783D01*
X55003482Y-27802979D01*
X54984829Y-28040000D01*
X51015171Y-28040000D01*
X50996517Y-27802975D01*
X50941013Y-27571786D01*
X50850027Y-27352127D01*
X50850027Y-27352126D01*
X50759227Y-27203955D01*
X50725799Y-27149405D01*
X50725798Y-27149404D01*
X50725797Y-27149402D01*
X50670226Y-27084337D01*
X50571388Y-26968612D01*
X50449242Y-26864290D01*
X50411049Y-26805783D01*
X50410550Y-26735916D01*
X50447904Y-26676869D01*
X50449242Y-26675710D01*
X50449728Y-26675294D01*
X50571388Y-26571388D01*
X50725799Y-26390595D01*
X50850027Y-26187873D01*
X50941013Y-25968214D01*
X50996517Y-25737025D01*
X51015171Y-25500000D01*
X50996517Y-25262975D01*
X50941013Y-25031786D01*
X50850027Y-24812127D01*
X50850027Y-24812126D01*
X50725800Y-24609407D01*
X50725797Y-24609402D01*
X50670226Y-24544337D01*
X50571388Y-24428612D01*
X50472548Y-24344195D01*
X50390597Y-24274202D01*
X50390592Y-24274199D01*
X50187873Y-24149972D01*
X49968216Y-24058988D01*
X49968214Y-24058987D01*
X49737025Y-24003483D01*
X49737023Y-24003482D01*
X49737020Y-24003482D01*
X49500000Y-23984829D01*
X49262979Y-24003482D01*
X49262975Y-24003483D01*
X49031786Y-24058987D01*
X49031784Y-24058987D01*
X49031783Y-24058988D01*
X48812126Y-24149972D01*
X48609407Y-24274199D01*
X48609402Y-24274202D01*
X48428612Y-24428612D01*
X48274202Y-24609402D01*
X48274199Y-24609407D01*
X48149972Y-24812126D01*
X48058988Y-25031783D01*
X48003482Y-25262979D01*
X47984829Y-25500000D01*
X48003482Y-25737020D01*
X48003482Y-25737023D01*
X48003483Y-25737025D01*
X48058987Y-25968214D01*
X48058988Y-25968216D01*
X48149972Y-26187873D01*
X48274199Y-26390592D01*
X48274202Y-26390597D01*
X48319827Y-26444017D01*
X48428612Y-26571388D01*
X48480967Y-26616103D01*
X48550757Y-26675710D01*
X48588950Y-26734217D01*
X48589448Y-26804085D01*
X48552094Y-26863131D01*
X48550757Y-26864290D01*
X48428612Y-26968612D01*
X48274202Y-27149402D01*
X48274199Y-27149407D01*
X48149972Y-27352126D01*
X48058988Y-27571783D01*
X48003482Y-27802979D01*
X47984829Y-28040000D01*
X29194309Y-28040000D01*
X29199000Y-27996373D01*
X29198999Y-26503628D01*
X29192591Y-26444017D01*
X29142296Y-26309169D01*
X29142295Y-26309168D01*
X29142293Y-26309164D01*
X29056047Y-26193955D01*
X29056044Y-26193952D01*
X28940835Y-26107706D01*
X28940828Y-26107702D01*
X28805982Y-26057408D01*
X28805983Y-26057408D01*
X28746383Y-26051001D01*
X28746381Y-26051000D01*
X28746373Y-26051000D01*
X28746364Y-26051000D01*
X27253629Y-26051000D01*
X27253623Y-26051001D01*
X27194016Y-26057408D01*
X27059171Y-26107702D01*
X27059164Y-26107706D01*
X26943955Y-26193952D01*
X26943952Y-26193955D01*
X26857706Y-26309164D01*
X26857702Y-26309171D01*
X26807408Y-26444017D01*
X26801001Y-26503616D01*
X26801000Y-26503627D01*
X26801000Y-27150478D01*
X26801001Y-27775500D01*
X26781316Y-27842539D01*
X26728513Y-27888294D01*
X26677001Y-27899500D01*
X26383063Y-27899500D01*
X26316024Y-27879815D01*
X26270269Y-27827011D01*
X26260325Y-27757853D01*
X26266022Y-27734545D01*
X26285366Y-27679262D01*
X26285369Y-27679249D01*
X26305565Y-27500003D01*
X26305565Y-27499996D01*
X26285369Y-27320750D01*
X26285368Y-27320745D01*
X26225788Y-27150476D01*
X26149296Y-27028740D01*
X26129816Y-26997738D01*
X26002262Y-26870184D01*
X25991037Y-26863131D01*
X25849523Y-26774211D01*
X25679254Y-26714631D01*
X25679249Y-26714630D01*
X25500004Y-26694435D01*
X25499996Y-26694435D01*
X25320750Y-26714630D01*
X25320745Y-26714631D01*
X25150476Y-26774211D01*
X24997737Y-26870184D01*
X24870184Y-26997737D01*
X24774211Y-27150476D01*
X24714631Y-27320745D01*
X24714630Y-27320750D01*
X24694435Y-27499996D01*
X24694435Y-27500003D01*
X24714630Y-27679249D01*
X24714633Y-27679262D01*
X24733978Y-27734545D01*
X24737540Y-27804324D01*
X24702812Y-27864951D01*
X24640818Y-27897179D01*
X24616937Y-27899500D01*
X24216275Y-27899500D01*
X24149236Y-27879815D01*
X24103481Y-27827011D01*
X24093537Y-27757853D01*
X24105275Y-27720228D01*
X24122819Y-27684994D01*
X24122818Y-27684994D01*
X24122824Y-27684984D01*
X24183634Y-27471260D01*
X24204137Y-27250000D01*
X24183634Y-27028740D01*
X24122824Y-26815016D01*
X24122418Y-26814201D01*
X24053458Y-26675710D01*
X24023778Y-26616104D01*
X23938831Y-26503616D01*
X23889866Y-26438775D01*
X23725655Y-26289078D01*
X23725653Y-26289076D01*
X23536733Y-26172102D01*
X23536727Y-26172099D01*
X23429080Y-26130397D01*
X23329528Y-26091830D01*
X23111104Y-26051000D01*
X22888896Y-26051000D01*
X22670472Y-26091830D01*
X22629502Y-26107702D01*
X22463272Y-26172099D01*
X22463266Y-26172102D01*
X22274346Y-26289076D01*
X22274344Y-26289078D01*
X22110133Y-26438775D01*
X21976222Y-26616103D01*
X21877180Y-26815005D01*
X21877174Y-26815020D01*
X21816366Y-27028738D01*
X21816365Y-27028740D01*
X21795863Y-27249999D01*
X21795863Y-27250000D01*
X21816365Y-27471259D01*
X21816366Y-27471261D01*
X21877174Y-27684979D01*
X21877180Y-27684994D01*
X21974190Y-27879815D01*
X21976222Y-27883896D01*
X22061160Y-27996373D01*
X22091611Y-28036696D01*
X22116303Y-28102058D01*
X22101738Y-28170392D01*
X22080338Y-28199104D01*
X20461681Y-29817762D01*
X20400358Y-29851247D01*
X20330666Y-29846263D01*
X20274733Y-29804391D01*
X20250316Y-29738927D01*
X20250000Y-29730081D01*
X20250000Y-16374000D01*
X20269685Y-16306961D01*
X20322489Y-16261206D01*
X20374000Y-16250000D01*
X24117189Y-16250000D01*
X24184228Y-16269685D01*
G37*
%TD.AperFunction*%
%TD*%
M02*
