%TF.GenerationSoftware,KiCad,Pcbnew,8.0.4*%
%TF.CreationDate,2024-11-10T12:36:27-05:00*%
%TF.ProjectId,booster-tc,626f6f73-7465-4722-9d74-632e6b696361,rev?*%
%TF.SameCoordinates,Original*%
%TF.FileFunction,Copper,L4,Bot*%
%TF.FilePolarity,Positive*%
%FSLAX46Y46*%
G04 Gerber Fmt 4.6, Leading zero omitted, Abs format (unit mm)*
G04 Created by KiCad (PCBNEW 8.0.4) date 2024-11-10 12:36:27*
%MOMM*%
%LPD*%
G01*
G04 APERTURE LIST*
G04 Aperture macros list*
%AMRoundRect*
0 Rectangle with rounded corners*
0 $1 Rounding radius*
0 $2 $3 $4 $5 $6 $7 $8 $9 X,Y pos of 4 corners*
0 Add a 4 corners polygon primitive as box body*
4,1,4,$2,$3,$4,$5,$6,$7,$8,$9,$2,$3,0*
0 Add four circle primitives for the rounded corners*
1,1,$1+$1,$2,$3*
1,1,$1+$1,$4,$5*
1,1,$1+$1,$6,$7*
1,1,$1+$1,$8,$9*
0 Add four rect primitives between the rounded corners*
20,1,$1+$1,$2,$3,$4,$5,0*
20,1,$1+$1,$4,$5,$6,$7,0*
20,1,$1+$1,$6,$7,$8,$9,0*
20,1,$1+$1,$8,$9,$2,$3,0*%
G04 Aperture macros list end*
%TA.AperFunction,ComponentPad*%
%ADD10R,1.500000X1.500000*%
%TD*%
%TA.AperFunction,ComponentPad*%
%ADD11C,1.500000*%
%TD*%
%TA.AperFunction,ComponentPad*%
%ADD12O,5.000000X3.000000*%
%TD*%
%TA.AperFunction,ComponentPad*%
%ADD13C,3.200000*%
%TD*%
%TA.AperFunction,ComponentPad*%
%ADD14R,1.100000X1.100000*%
%TD*%
%TA.AperFunction,ComponentPad*%
%ADD15C,1.100000*%
%TD*%
%TA.AperFunction,ComponentPad*%
%ADD16R,1.700000X1.700000*%
%TD*%
%TA.AperFunction,ComponentPad*%
%ADD17O,1.700000X1.700000*%
%TD*%
%TA.AperFunction,ComponentPad*%
%ADD18O,1.600000X1.700000*%
%TD*%
%TA.AperFunction,ComponentPad*%
%ADD19RoundRect,0.250000X0.600000X0.600000X-0.600000X0.600000X-0.600000X-0.600000X0.600000X-0.600000X0*%
%TD*%
%TA.AperFunction,ComponentPad*%
%ADD20C,1.700000*%
%TD*%
%TA.AperFunction,ComponentPad*%
%ADD21C,0.500000*%
%TD*%
%TA.AperFunction,ComponentPad*%
%ADD22R,9.000000X6.000000*%
%TD*%
%TA.AperFunction,ViaPad*%
%ADD23C,0.600000*%
%TD*%
%TA.AperFunction,Conductor*%
%ADD24C,0.500000*%
%TD*%
%TA.AperFunction,Conductor*%
%ADD25C,2.000000*%
%TD*%
G04 APERTURE END LIST*
D10*
%TO.P,C22,1*%
%TO.N,V+*%
X71500000Y-141250000D03*
D11*
%TO.P,C22,2*%
%TO.N,V-*%
X71500000Y-126250000D03*
%TD*%
D12*
%TO.P,D9,1,A*%
%TO.N,/SW*%
X76512500Y-120500000D03*
%TO.P,D9,2,K*%
%TO.N,V+*%
X76512500Y-115050000D03*
%TO.P,D9,3,A*%
%TO.N,/SW*%
X76512500Y-109600000D03*
%TD*%
%TO.P,D6,1,K*%
%TO.N,AC1*%
X131487500Y-60500000D03*
%TO.P,D6,2,A*%
%TO.N,V-*%
X131487500Y-71400000D03*
%TD*%
D13*
%TO.P,J7,1,Pin_1*%
%TO.N,V-*%
X123380000Y-126500000D03*
X123380000Y-132370000D03*
X129250000Y-126500000D03*
X129250000Y-132370000D03*
%TD*%
D12*
%TO.P,D5,1,K*%
%TO.N,/L+*%
X76512500Y-71500000D03*
%TO.P,D5,2,A*%
%TO.N,AC1*%
X76512500Y-66050000D03*
%TO.P,D5,3,G*%
%TO.N,Net-(D5-G)*%
X76512500Y-60600000D03*
%TD*%
D14*
%TO.P,C4,1*%
%TO.N,Net-(D2-K)*%
X87750000Y-157912500D03*
D15*
%TO.P,C4,2*%
%TO.N,GND*%
X87750000Y-161412500D03*
%TD*%
D12*
%TO.P,Q2,1,G*%
%TO.N,FET_GATE*%
X131487500Y-109500000D03*
%TO.P,Q2,2,D*%
%TO.N,/SW*%
X131487500Y-114950000D03*
%TO.P,Q2,3,S*%
%TO.N,V-*%
X131487500Y-120400000D03*
%TD*%
D16*
%TO.P,U2,1,+VIN*%
%TO.N,+24V*%
X134117500Y-156450000D03*
D17*
%TO.P,U2,2,-VIN*%
%TO.N,GND*%
X134117500Y-153910000D03*
%TO.P,U2,5,-VOUT*%
%TO.N,Net-(U2--VOUT)*%
X134117500Y-146290000D03*
D18*
%TO.P,U2,6,0V*%
%TO.N,V-*%
X134117500Y-143750000D03*
D17*
%TO.P,U2,7,+VOUT*%
%TO.N,Net-(U2-+VOUT)*%
X134117500Y-141210000D03*
%TD*%
D10*
%TO.P,C21,1*%
%TO.N,V+*%
X63000000Y-141250000D03*
D11*
%TO.P,C21,2*%
%TO.N,V-*%
X63000000Y-126250000D03*
%TD*%
D14*
%TO.P,C18,1*%
%TO.N,+5V*%
X145750000Y-135250000D03*
D15*
%TO.P,C18,2*%
%TO.N,GND*%
X142250000Y-135250000D03*
%TD*%
D13*
%TO.P,J2,1,Pin_1*%
%TO.N,AC2*%
X111250000Y-72065000D03*
X111250000Y-77935000D03*
X117120000Y-72065000D03*
X117120000Y-77935000D03*
%TD*%
D12*
%TO.P,D8,1,K*%
%TO.N,AC2*%
X131487500Y-85000000D03*
%TO.P,D8,2,A*%
%TO.N,V-*%
X131487500Y-95900000D03*
%TD*%
D13*
%TO.P,J3,1,Pin_1*%
%TO.N,/L+*%
X90750000Y-96000000D03*
X90750000Y-101870000D03*
X96620000Y-96000000D03*
X96620000Y-101870000D03*
%TD*%
D10*
%TO.P,C19,1*%
%TO.N,V+*%
X54500000Y-141250000D03*
D11*
%TO.P,C19,2*%
%TO.N,V-*%
X54500000Y-126250000D03*
%TD*%
D13*
%TO.P,J4,1,Pin_1*%
%TO.N,/LSW*%
X111250000Y-96000000D03*
X111250000Y-101870000D03*
X117120000Y-96000000D03*
X117120000Y-101870000D03*
%TD*%
%TO.P,J1,1,Pin_1*%
%TO.N,AC1*%
X90750000Y-72065000D03*
X90750000Y-77935000D03*
X96620000Y-72065000D03*
X96620000Y-77935000D03*
%TD*%
D19*
%TO.P,J5,1,Pin_1*%
%TO.N,+24V*%
X154250000Y-139910000D03*
D20*
%TO.P,J5,2,Pin_2*%
%TO.N,ISENSE*%
X151710000Y-139910000D03*
%TO.P,J5,3,Pin_3*%
%TO.N,GND*%
X154250000Y-137370000D03*
%TO.P,J5,4,Pin_4*%
%TO.N,PFC*%
X151710000Y-137370000D03*
%TO.P,J5,5,Pin_5*%
%TO.N,GND*%
X154250000Y-134830000D03*
%TO.P,J5,6,Pin_6*%
%TO.N,SCR_TRIG*%
X151710000Y-134830000D03*
%TO.P,J5,7,Pin_7*%
%TO.N,GND*%
X154250000Y-132290000D03*
%TO.P,J5,8,Pin_8*%
%TO.N,VBUS_SENSE*%
X151710000Y-132290000D03*
%TO.P,J5,9,Pin_9*%
%TO.N,+5V*%
X154250000Y-129750000D03*
%TO.P,J5,10,Pin_10*%
%TO.N,VAC_SENSE*%
X151710000Y-129750000D03*
%TD*%
D12*
%TO.P,D7,1,K*%
%TO.N,/L+*%
X76512500Y-96000000D03*
%TO.P,D7,2,A*%
%TO.N,AC2*%
X76512500Y-90550000D03*
%TO.P,D7,3,G*%
%TO.N,Net-(D7-G)*%
X76512500Y-85100000D03*
%TD*%
D14*
%TO.P,C8,1*%
%TO.N,Net-(U2-+VOUT)*%
X137500000Y-134250000D03*
D15*
%TO.P,C8,2*%
%TO.N,Net-(U2--VOUT)*%
X134000000Y-134250000D03*
%TD*%
D13*
%TO.P,J6,1,Pin_1*%
%TO.N,V+*%
X78630000Y-126500000D03*
X78630000Y-132370000D03*
X84500000Y-126500000D03*
X84500000Y-132370000D03*
%TD*%
D10*
%TO.P,U4,1,VCC*%
%TO.N,+5V*%
X107340000Y-131400000D03*
D11*
%TO.P,U4,2,GND*%
%TO.N,GND*%
X109250000Y-131400000D03*
%TO.P,U4,3,VIOUT*%
%TO.N,ISENSE*%
X111160000Y-131400000D03*
D21*
%TO.P,U4,4,IP+*%
%TO.N,/LSW*%
X110500000Y-110000000D03*
X111650000Y-108000000D03*
X111650000Y-112000000D03*
X112950000Y-108000000D03*
X112950000Y-112000000D03*
X114250000Y-108000000D03*
D22*
X114250000Y-110000000D03*
D21*
X114250000Y-112000000D03*
X115550000Y-108000000D03*
X115550000Y-112000000D03*
X116850000Y-108000000D03*
X116850000Y-112000000D03*
X118000000Y-110000000D03*
%TO.P,U4,5,IP-*%
%TO.N,/SW*%
X100500000Y-110000000D03*
X101650000Y-108000000D03*
X101650000Y-112000000D03*
X102950000Y-108000000D03*
X102950000Y-112000000D03*
X104250000Y-108000000D03*
D22*
X104250000Y-110000000D03*
D21*
X104250000Y-112000000D03*
X105550000Y-108000000D03*
X105550000Y-112000000D03*
X106850000Y-108000000D03*
X106850000Y-112000000D03*
X108000000Y-110000000D03*
%TD*%
D10*
%TO.P,C15,1*%
%TO.N,/L+*%
X107000000Y-87250000D03*
D11*
%TO.P,C15,2*%
%TO.N,V-*%
X122000000Y-87250000D03*
%TD*%
D23*
%TO.N,SCR_TRIG*%
X96500000Y-151500000D03*
%TO.N,GND*%
X120500000Y-152500000D03*
X91500000Y-149750000D03*
X103750000Y-157500000D03*
X100000000Y-152500000D03*
X146000000Y-126250000D03*
X141750000Y-138000000D03*
X116750000Y-157500000D03*
X107500000Y-159250000D03*
%TO.N,+5V*%
X145250000Y-139250000D03*
X117000000Y-150000000D03*
X91000000Y-153912500D03*
%TO.N,V-*%
X120500000Y-142750000D03*
X97000000Y-139750000D03*
X131250000Y-143000000D03*
%TO.N,V+*%
X124500000Y-145750000D03*
%TO.N,VBUS_SENSE*%
X114250000Y-155000000D03*
%TO.N,Net-(U2-+VOUT)*%
X132000000Y-141000000D03*
%TO.N,VAC_SENSE*%
X107000000Y-153750000D03*
%TO.N,Net-(D7-G)*%
X66087500Y-147250000D03*
%TO.N,AC1*%
X102000000Y-99250000D03*
%TO.N,/L+*%
X72750000Y-150412500D03*
%TO.N,AC2*%
X104500000Y-99250000D03*
%TO.N,Net-(D5-G)*%
X66087500Y-150412500D03*
%TO.N,PFC*%
X144000000Y-127750000D03*
%TO.N,FET_GATE*%
X133000000Y-126500000D03*
%TD*%
D24*
%TO.N,SCR_TRIG*%
X97000000Y-151000000D02*
X96500000Y-151500000D01*
X151710000Y-134830000D02*
X135540000Y-151000000D01*
X135540000Y-151000000D02*
X97000000Y-151000000D01*
%TO.N,+5V*%
X145750000Y-138750000D02*
X145250000Y-139250000D01*
X145250000Y-139250000D02*
X134500000Y-150000000D01*
X134500000Y-150000000D02*
X117000000Y-150000000D01*
X145750000Y-135250000D02*
X145750000Y-138750000D01*
X117000000Y-150000000D02*
X94912500Y-150000000D01*
X94912500Y-150000000D02*
X91000000Y-153912500D01*
%TO.N,V-*%
X131250000Y-143000000D02*
X131000000Y-142750000D01*
X134117500Y-143750000D02*
X132000000Y-143750000D01*
X132000000Y-143750000D02*
X131250000Y-143000000D01*
X131000000Y-142750000D02*
X120500000Y-142750000D01*
%TO.N,V+*%
X76000000Y-145750000D02*
X71500000Y-141250000D01*
X124500000Y-145750000D02*
X76000000Y-145750000D01*
%TO.N,Net-(U2-+VOUT)*%
X132000000Y-141000000D02*
X133907500Y-141000000D01*
X133907500Y-141000000D02*
X134117500Y-141210000D01*
D25*
%TO.N,/L+*%
X107000000Y-87250000D02*
X105370000Y-87250000D01*
X105370000Y-87250000D02*
X96620000Y-96000000D01*
%TD*%
%TA.AperFunction,Conductor*%
%TO.N,/L+*%
G36*
X86193039Y-69769685D02*
G01*
X86238794Y-69822489D01*
X86250000Y-69874000D01*
X86250000Y-99000000D01*
X72750000Y-99000000D01*
X72750000Y-94374000D01*
X72769685Y-94306961D01*
X72822489Y-94261206D01*
X72874000Y-94250000D01*
X80250000Y-94250000D01*
X80250000Y-82000000D01*
X72874000Y-82000000D01*
X72806961Y-81980315D01*
X72761206Y-81927511D01*
X72750000Y-81876000D01*
X72750000Y-69874000D01*
X72769685Y-69806961D01*
X72822489Y-69761206D01*
X72874000Y-69750000D01*
X86126000Y-69750000D01*
X86193039Y-69769685D01*
G37*
%TD.AperFunction*%
%TD*%
%TA.AperFunction,Conductor*%
%TO.N,/LSW*%
G36*
X118943039Y-94019685D02*
G01*
X118988794Y-94072489D01*
X119000000Y-94124000D01*
X119000000Y-113126000D01*
X118980315Y-113193039D01*
X118927511Y-113238794D01*
X118876000Y-113250000D01*
X109374000Y-113250000D01*
X109306961Y-113230315D01*
X109261206Y-113177511D01*
X109250000Y-113126000D01*
X109250000Y-98800186D01*
X111784500Y-98800186D01*
X111784500Y-99069813D01*
X111814686Y-99337719D01*
X111814688Y-99337731D01*
X111874684Y-99600594D01*
X111874687Y-99600602D01*
X111963734Y-99855082D01*
X112080714Y-100097994D01*
X112080716Y-100097997D01*
X112224162Y-100326289D01*
X112392266Y-100537085D01*
X112582915Y-100727734D01*
X112793711Y-100895838D01*
X113022003Y-101039284D01*
X113264921Y-101156267D01*
X113456049Y-101223145D01*
X113519397Y-101245312D01*
X113519405Y-101245315D01*
X113519408Y-101245315D01*
X113519409Y-101245316D01*
X113782268Y-101305312D01*
X114050187Y-101335499D01*
X114050188Y-101335500D01*
X114050191Y-101335500D01*
X114319812Y-101335500D01*
X114319812Y-101335499D01*
X114587732Y-101305312D01*
X114850591Y-101245316D01*
X115105079Y-101156267D01*
X115347997Y-101039284D01*
X115576289Y-100895838D01*
X115787085Y-100727734D01*
X115977734Y-100537085D01*
X116145838Y-100326289D01*
X116289284Y-100097997D01*
X116406267Y-99855079D01*
X116495316Y-99600591D01*
X116555312Y-99337732D01*
X116585500Y-99069809D01*
X116585500Y-98800191D01*
X116555312Y-98532268D01*
X116495316Y-98269409D01*
X116406267Y-98014921D01*
X116289284Y-97772003D01*
X116145838Y-97543711D01*
X115977734Y-97332915D01*
X115787085Y-97142266D01*
X115576289Y-96974162D01*
X115347997Y-96830716D01*
X115347994Y-96830714D01*
X115105082Y-96713734D01*
X114850602Y-96624687D01*
X114850594Y-96624684D01*
X114653446Y-96579687D01*
X114587732Y-96564688D01*
X114587728Y-96564687D01*
X114587719Y-96564686D01*
X114319813Y-96534500D01*
X114319809Y-96534500D01*
X114050191Y-96534500D01*
X114050186Y-96534500D01*
X113782280Y-96564686D01*
X113782268Y-96564688D01*
X113519405Y-96624684D01*
X113519397Y-96624687D01*
X113264917Y-96713734D01*
X113022005Y-96830714D01*
X112793712Y-96974161D01*
X112582915Y-97142265D01*
X112392265Y-97332915D01*
X112224161Y-97543712D01*
X112080714Y-97772005D01*
X111963734Y-98014917D01*
X111874687Y-98269397D01*
X111874684Y-98269405D01*
X111814688Y-98532268D01*
X111814686Y-98532280D01*
X111784500Y-98800186D01*
X109250000Y-98800186D01*
X109250000Y-94124000D01*
X109269685Y-94056961D01*
X109322489Y-94011206D01*
X109374000Y-94000000D01*
X118876000Y-94000000D01*
X118943039Y-94019685D01*
G37*
%TD.AperFunction*%
%TD*%
%TA.AperFunction,Conductor*%
%TO.N,/SW*%
G36*
X108693039Y-106519685D02*
G01*
X108738794Y-106572489D01*
X108750000Y-106624000D01*
X108750000Y-122370500D01*
X108730315Y-122437539D01*
X108677511Y-122483294D01*
X108626000Y-122494500D01*
X87722668Y-122494500D01*
X87575882Y-122499916D01*
X87571330Y-122500000D01*
X75488660Y-122500000D01*
X75479814Y-122499684D01*
X75407334Y-122494500D01*
X75407332Y-122494500D01*
X72874000Y-122494500D01*
X72806961Y-122474815D01*
X72761206Y-122422011D01*
X72750000Y-122370500D01*
X72750000Y-118624000D01*
X72769685Y-118556961D01*
X72822489Y-118511206D01*
X72874000Y-118500000D01*
X80750000Y-118500000D01*
X80750000Y-111750000D01*
X72874000Y-111750000D01*
X72806961Y-111730315D01*
X72761206Y-111677511D01*
X72750000Y-111626000D01*
X72750000Y-106624000D01*
X72769685Y-106556961D01*
X72822489Y-106511206D01*
X72874000Y-106500000D01*
X108626000Y-106500000D01*
X108693039Y-106519685D01*
G37*
%TD.AperFunction*%
%TD*%
%TA.AperFunction,Conductor*%
%TO.N,V-*%
G36*
X135193039Y-67269685D02*
G01*
X135238794Y-67322489D01*
X135250000Y-67374000D01*
X135250000Y-81626000D01*
X135230315Y-81693039D01*
X135177511Y-81738794D01*
X135126000Y-81750000D01*
X127250000Y-81750000D01*
X127250000Y-88500000D01*
X135126000Y-88500000D01*
X135193039Y-88519685D01*
X135238794Y-88572489D01*
X135250000Y-88624000D01*
X135250000Y-106126000D01*
X135230315Y-106193039D01*
X135177511Y-106238794D01*
X135126000Y-106250000D01*
X127250000Y-106250000D01*
X127250000Y-118250000D01*
X131500000Y-118250000D01*
X131500000Y-124500000D01*
X120750000Y-124500000D01*
X120750000Y-69874000D01*
X120769685Y-69806961D01*
X120822489Y-69761206D01*
X120874000Y-69750000D01*
X125750000Y-69750000D01*
X125750000Y-67374000D01*
X125769685Y-67306961D01*
X125822489Y-67261206D01*
X125874000Y-67250000D01*
X135126000Y-67250000D01*
X135193039Y-67269685D01*
G37*
%TD.AperFunction*%
%TD*%
%TA.AperFunction,Conductor*%
%TO.N,/L+*%
G36*
X99193039Y-93519685D02*
G01*
X99238794Y-93572489D01*
X99250000Y-93624000D01*
X99250000Y-104126000D01*
X99230315Y-104193039D01*
X99177511Y-104238794D01*
X99126000Y-104250000D01*
X72874000Y-104250000D01*
X72806961Y-104230315D01*
X72761206Y-104177511D01*
X72750000Y-104126000D01*
X72750000Y-99000000D01*
X86250000Y-99000000D01*
X86250000Y-98800186D01*
X91284500Y-98800186D01*
X91284500Y-99069813D01*
X91314686Y-99337719D01*
X91314688Y-99337731D01*
X91374684Y-99600594D01*
X91374687Y-99600602D01*
X91463734Y-99855082D01*
X91580714Y-100097994D01*
X91580716Y-100097997D01*
X91724162Y-100326289D01*
X91892266Y-100537085D01*
X92082915Y-100727734D01*
X92293711Y-100895838D01*
X92522003Y-101039284D01*
X92764921Y-101156267D01*
X92956049Y-101223145D01*
X93019397Y-101245312D01*
X93019405Y-101245315D01*
X93019408Y-101245315D01*
X93019409Y-101245316D01*
X93282268Y-101305312D01*
X93550187Y-101335499D01*
X93550188Y-101335500D01*
X93550191Y-101335500D01*
X93819812Y-101335500D01*
X93819812Y-101335499D01*
X94087732Y-101305312D01*
X94350591Y-101245316D01*
X94605079Y-101156267D01*
X94847997Y-101039284D01*
X95076289Y-100895838D01*
X95287085Y-100727734D01*
X95477734Y-100537085D01*
X95645838Y-100326289D01*
X95789284Y-100097997D01*
X95906267Y-99855079D01*
X95995316Y-99600591D01*
X96055312Y-99337732D01*
X96085500Y-99069809D01*
X96085500Y-98800191D01*
X96055312Y-98532268D01*
X95995316Y-98269409D01*
X95906267Y-98014921D01*
X95789284Y-97772003D01*
X95645838Y-97543711D01*
X95477734Y-97332915D01*
X95287085Y-97142266D01*
X95076289Y-96974162D01*
X94847997Y-96830716D01*
X94847994Y-96830714D01*
X94605082Y-96713734D01*
X94350602Y-96624687D01*
X94350594Y-96624684D01*
X94153446Y-96579687D01*
X94087732Y-96564688D01*
X94087728Y-96564687D01*
X94087719Y-96564686D01*
X93819813Y-96534500D01*
X93819809Y-96534500D01*
X93550191Y-96534500D01*
X93550186Y-96534500D01*
X93282280Y-96564686D01*
X93282268Y-96564688D01*
X93019405Y-96624684D01*
X93019397Y-96624687D01*
X92764917Y-96713734D01*
X92522005Y-96830714D01*
X92293712Y-96974161D01*
X92082915Y-97142265D01*
X91892265Y-97332915D01*
X91724161Y-97543712D01*
X91580714Y-97772005D01*
X91463734Y-98014917D01*
X91374687Y-98269397D01*
X91374684Y-98269405D01*
X91314688Y-98532268D01*
X91314686Y-98532280D01*
X91284500Y-98800186D01*
X86250000Y-98800186D01*
X86250000Y-93500000D01*
X99126000Y-93500000D01*
X99193039Y-93519685D01*
G37*
%TD.AperFunction*%
%TD*%
%TA.AperFunction,Conductor*%
%TO.N,AC1*%
G36*
X135193039Y-57519685D02*
G01*
X135238794Y-57572489D01*
X135250000Y-57624000D01*
X135250000Y-64626000D01*
X135230315Y-64693039D01*
X135177511Y-64738794D01*
X135126000Y-64750000D01*
X124250000Y-64750000D01*
X124250000Y-68126000D01*
X124230315Y-68193039D01*
X124177511Y-68238794D01*
X124126000Y-68250000D01*
X72874000Y-68250000D01*
X72806961Y-68230315D01*
X72761206Y-68177511D01*
X72750000Y-68126000D01*
X72750000Y-63374000D01*
X72769685Y-63306961D01*
X72822489Y-63261206D01*
X72874000Y-63250000D01*
X82500000Y-63250000D01*
X82500000Y-57624000D01*
X82519685Y-57556961D01*
X82572489Y-57511206D01*
X82624000Y-57500000D01*
X135126000Y-57500000D01*
X135193039Y-57519685D01*
G37*
%TD.AperFunction*%
%TD*%
%TA.AperFunction,Conductor*%
%TO.N,AC1*%
G36*
X99250000Y-80376000D02*
G01*
X99230315Y-80443039D01*
X99177511Y-80488794D01*
X99126000Y-80500000D01*
X88374000Y-80500000D01*
X88306961Y-80480315D01*
X88261206Y-80427511D01*
X88250000Y-80376000D01*
X88250000Y-74865186D01*
X91284500Y-74865186D01*
X91284500Y-75134813D01*
X91314686Y-75402719D01*
X91314688Y-75402731D01*
X91374684Y-75665594D01*
X91374687Y-75665602D01*
X91463734Y-75920082D01*
X91580714Y-76162994D01*
X91580716Y-76162997D01*
X91724162Y-76391289D01*
X91892266Y-76602085D01*
X92082915Y-76792734D01*
X92293711Y-76960838D01*
X92522003Y-77104284D01*
X92764921Y-77221267D01*
X92956049Y-77288145D01*
X93019397Y-77310312D01*
X93019405Y-77310315D01*
X93019408Y-77310315D01*
X93019409Y-77310316D01*
X93282268Y-77370312D01*
X93550187Y-77400499D01*
X93550188Y-77400500D01*
X93550191Y-77400500D01*
X93819812Y-77400500D01*
X93819812Y-77400499D01*
X94087732Y-77370312D01*
X94350591Y-77310316D01*
X94605079Y-77221267D01*
X94847997Y-77104284D01*
X95076289Y-76960838D01*
X95287085Y-76792734D01*
X95477734Y-76602085D01*
X95645838Y-76391289D01*
X95789284Y-76162997D01*
X95906267Y-75920079D01*
X95995316Y-75665591D01*
X96055312Y-75402732D01*
X96085500Y-75134809D01*
X96085500Y-74865191D01*
X96055312Y-74597268D01*
X95995316Y-74334409D01*
X95906267Y-74079921D01*
X95789284Y-73837003D01*
X95645838Y-73608711D01*
X95477734Y-73397915D01*
X95287085Y-73207266D01*
X95076289Y-73039162D01*
X94847997Y-72895716D01*
X94847994Y-72895714D01*
X94605082Y-72778734D01*
X94350602Y-72689687D01*
X94350594Y-72689684D01*
X94153446Y-72644687D01*
X94087732Y-72629688D01*
X94087728Y-72629687D01*
X94087719Y-72629686D01*
X93819813Y-72599500D01*
X93819809Y-72599500D01*
X93550191Y-72599500D01*
X93550186Y-72599500D01*
X93282280Y-72629686D01*
X93282268Y-72629688D01*
X93019405Y-72689684D01*
X93019397Y-72689687D01*
X92764917Y-72778734D01*
X92522005Y-72895714D01*
X92293712Y-73039161D01*
X92082915Y-73207265D01*
X91892265Y-73397915D01*
X91724161Y-73608712D01*
X91580714Y-73837005D01*
X91463734Y-74079917D01*
X91374687Y-74334397D01*
X91374684Y-74334405D01*
X91314688Y-74597268D01*
X91314686Y-74597280D01*
X91284500Y-74865186D01*
X88250000Y-74865186D01*
X88250000Y-68250000D01*
X99250000Y-68250000D01*
X99250000Y-80376000D01*
G37*
%TD.AperFunction*%
%TD*%
%TA.AperFunction,Conductor*%
%TO.N,V-*%
G36*
X75474371Y-124519685D02*
G01*
X75520126Y-124572489D01*
X75530070Y-124641647D01*
X75511328Y-124691534D01*
X75507598Y-124697277D01*
X75336267Y-125033531D01*
X75201023Y-125385852D01*
X75103347Y-125750385D01*
X75103346Y-125750392D01*
X75044310Y-126123127D01*
X75024559Y-126499999D01*
X75024559Y-126500000D01*
X75044310Y-126876872D01*
X75103346Y-127249607D01*
X75103347Y-127249614D01*
X75201023Y-127614147D01*
X75336267Y-127966468D01*
X75507599Y-128302725D01*
X75713135Y-128619223D01*
X75878585Y-128823537D01*
X75950635Y-128912511D01*
X76217489Y-129179365D01*
X76217493Y-129179368D01*
X76414170Y-129338634D01*
X76453881Y-129396121D01*
X76456209Y-129465952D01*
X76420414Y-129525956D01*
X76414170Y-129531366D01*
X76217493Y-129690631D01*
X76217485Y-129690638D01*
X75950638Y-129957485D01*
X75950631Y-129957493D01*
X75713135Y-130250776D01*
X75507599Y-130567275D01*
X75336267Y-130903531D01*
X75201023Y-131255852D01*
X75103347Y-131620385D01*
X75103346Y-131620392D01*
X75044310Y-131993127D01*
X75024559Y-132369999D01*
X75024559Y-132370000D01*
X75044310Y-132746872D01*
X75103346Y-133119607D01*
X75103347Y-133119614D01*
X75201023Y-133484147D01*
X75336267Y-133836468D01*
X75507599Y-134172725D01*
X75713135Y-134489223D01*
X75778776Y-134570283D01*
X75950635Y-134782511D01*
X76217489Y-135049365D01*
X76217493Y-135049368D01*
X76510776Y-135286864D01*
X76827274Y-135492400D01*
X76827279Y-135492403D01*
X77163535Y-135663734D01*
X77515857Y-135798978D01*
X77880387Y-135896653D01*
X78253129Y-135955690D01*
X78609155Y-135974348D01*
X78629999Y-135975441D01*
X78630000Y-135975441D01*
X78630001Y-135975441D01*
X78649752Y-135974405D01*
X79006871Y-135955690D01*
X79379613Y-135896653D01*
X79744143Y-135798978D01*
X80096465Y-135663734D01*
X80432721Y-135492403D01*
X80749225Y-135286863D01*
X81042511Y-135049365D01*
X81309365Y-134782511D01*
X81468634Y-134585830D01*
X81526121Y-134546119D01*
X81595952Y-134543791D01*
X81655956Y-134579586D01*
X81661366Y-134585830D01*
X81820635Y-134782511D01*
X82087489Y-135049365D01*
X82087493Y-135049368D01*
X82380776Y-135286864D01*
X82697274Y-135492400D01*
X82697279Y-135492403D01*
X83033535Y-135663734D01*
X83385857Y-135798978D01*
X83750387Y-135896653D01*
X84123129Y-135955690D01*
X84479155Y-135974348D01*
X84499999Y-135975441D01*
X84500000Y-135975441D01*
X84500001Y-135975441D01*
X84519752Y-135974405D01*
X84876871Y-135955690D01*
X85249613Y-135896653D01*
X85614143Y-135798978D01*
X85966465Y-135663734D01*
X86302721Y-135492403D01*
X86619225Y-135286863D01*
X86912511Y-135049365D01*
X87179365Y-134782511D01*
X87416863Y-134489225D01*
X87622403Y-134172721D01*
X87793734Y-133836465D01*
X87928978Y-133484143D01*
X88026653Y-133119613D01*
X88085690Y-132746871D01*
X88105441Y-132370000D01*
X88085690Y-131993129D01*
X88026653Y-131620387D01*
X87928978Y-131255857D01*
X87793734Y-130903535D01*
X87628145Y-130578549D01*
X104589500Y-130578549D01*
X104589500Y-132221450D01*
X104604804Y-132435433D01*
X104665628Y-132715037D01*
X104665630Y-132715043D01*
X104665631Y-132715046D01*
X104758978Y-132965318D01*
X104765635Y-132983166D01*
X104902770Y-133234309D01*
X104902775Y-133234317D01*
X105074254Y-133463387D01*
X105074270Y-133463405D01*
X105276594Y-133665729D01*
X105276612Y-133665745D01*
X105505682Y-133837224D01*
X105505690Y-133837229D01*
X105756833Y-133974364D01*
X105756832Y-133974364D01*
X105756836Y-133974365D01*
X105756839Y-133974367D01*
X106024954Y-134074369D01*
X106024960Y-134074370D01*
X106024962Y-134074371D01*
X106304566Y-134135195D01*
X106304568Y-134135195D01*
X106304572Y-134135196D01*
X106518552Y-134150500D01*
X108161448Y-134150500D01*
X108375428Y-134135196D01*
X108598576Y-134086652D01*
X108647278Y-134085850D01*
X108917858Y-134135436D01*
X109250000Y-134155527D01*
X109582142Y-134135436D01*
X109909441Y-134075456D01*
X110168111Y-133994850D01*
X110237969Y-133993699D01*
X110241851Y-133994839D01*
X110500559Y-134075456D01*
X110827858Y-134135436D01*
X111160000Y-134155527D01*
X111492142Y-134135436D01*
X111819441Y-134075456D01*
X112094099Y-133989869D01*
X112137104Y-133976469D01*
X112137104Y-133976468D01*
X112137123Y-133976463D01*
X112440557Y-133839898D01*
X112725318Y-133667754D01*
X112727883Y-133665745D01*
X112986150Y-133463405D01*
X112987252Y-133462542D01*
X113222542Y-133227252D01*
X113427754Y-132965318D01*
X113599898Y-132680557D01*
X113736463Y-132377123D01*
X113835456Y-132059441D01*
X113895436Y-131732142D01*
X113915527Y-131400000D01*
X113895436Y-131067858D01*
X113835456Y-130740559D01*
X113784972Y-130578549D01*
X113736469Y-130422895D01*
X113736467Y-130422890D01*
X113736463Y-130422877D01*
X113599898Y-130119443D01*
X113427754Y-129834682D01*
X113427751Y-129834678D01*
X113427748Y-129834673D01*
X113222539Y-129572744D01*
X112987255Y-129337460D01*
X112939678Y-129300186D01*
X123914500Y-129300186D01*
X123914500Y-129569813D01*
X123944686Y-129837719D01*
X123944688Y-129837731D01*
X124004684Y-130100594D01*
X124004687Y-130100602D01*
X124093734Y-130355082D01*
X124210714Y-130597994D01*
X124210716Y-130597997D01*
X124354162Y-130826289D01*
X124522266Y-131037085D01*
X124712915Y-131227734D01*
X124923711Y-131395838D01*
X125152003Y-131539284D01*
X125394921Y-131656267D01*
X125586049Y-131723145D01*
X125649397Y-131745312D01*
X125649405Y-131745315D01*
X125649408Y-131745315D01*
X125649409Y-131745316D01*
X125912268Y-131805312D01*
X126180187Y-131835499D01*
X126180188Y-131835500D01*
X126180191Y-131835500D01*
X126449812Y-131835500D01*
X126449812Y-131835499D01*
X126717732Y-131805312D01*
X126980591Y-131745316D01*
X127235079Y-131656267D01*
X127477997Y-131539284D01*
X127706289Y-131395838D01*
X127917085Y-131227734D01*
X128107734Y-131037085D01*
X128275838Y-130826289D01*
X128419284Y-130597997D01*
X128536267Y-130355079D01*
X128625316Y-130100591D01*
X128685312Y-129837732D01*
X128715500Y-129569809D01*
X128715500Y-129300191D01*
X128685312Y-129032268D01*
X128625316Y-128769409D01*
X128610434Y-128726880D01*
X128603145Y-128706049D01*
X128536267Y-128514921D01*
X128419284Y-128272003D01*
X128275838Y-128043711D01*
X128107734Y-127832915D01*
X127917085Y-127642266D01*
X127706289Y-127474162D01*
X127477997Y-127330716D01*
X127477994Y-127330714D01*
X127235082Y-127213734D01*
X126980602Y-127124687D01*
X126980594Y-127124684D01*
X126783446Y-127079687D01*
X126717732Y-127064688D01*
X126717728Y-127064687D01*
X126717719Y-127064686D01*
X126449813Y-127034500D01*
X126449809Y-127034500D01*
X126180191Y-127034500D01*
X126180186Y-127034500D01*
X125912280Y-127064686D01*
X125912268Y-127064688D01*
X125649405Y-127124684D01*
X125649397Y-127124687D01*
X125394917Y-127213734D01*
X125152005Y-127330714D01*
X124923712Y-127474161D01*
X124712915Y-127642265D01*
X124522265Y-127832915D01*
X124354161Y-128043712D01*
X124210714Y-128272005D01*
X124093734Y-128514917D01*
X124004687Y-128769397D01*
X124004684Y-128769405D01*
X123944688Y-129032268D01*
X123944686Y-129032280D01*
X123914500Y-129300186D01*
X112939678Y-129300186D01*
X112725326Y-129132251D01*
X112725318Y-129132246D01*
X112440557Y-128960102D01*
X112137123Y-128823537D01*
X112137116Y-128823534D01*
X112137104Y-128823530D01*
X111819449Y-128724546D01*
X111819445Y-128724545D01*
X111819441Y-128724544D01*
X111492142Y-128664564D01*
X111492141Y-128664563D01*
X111492136Y-128664563D01*
X111160000Y-128644473D01*
X110827863Y-128664563D01*
X110500558Y-128724544D01*
X110363252Y-128767330D01*
X110241889Y-128805148D01*
X110172030Y-128806298D01*
X110168125Y-128805152D01*
X109909441Y-128724544D01*
X109582142Y-128664564D01*
X109582141Y-128664563D01*
X109582136Y-128664563D01*
X109250000Y-128644473D01*
X108917862Y-128664563D01*
X108647282Y-128714148D01*
X108598573Y-128713345D01*
X108375435Y-128664805D01*
X108375428Y-128664804D01*
X108161450Y-128649500D01*
X108161448Y-128649500D01*
X106518552Y-128649500D01*
X106518549Y-128649500D01*
X106304566Y-128664804D01*
X106024962Y-128725628D01*
X105756833Y-128825635D01*
X105505690Y-128962770D01*
X105505682Y-128962775D01*
X105276612Y-129134254D01*
X105276594Y-129134270D01*
X105074270Y-129336594D01*
X105074254Y-129336612D01*
X104902775Y-129565682D01*
X104902770Y-129565690D01*
X104765635Y-129816833D01*
X104665628Y-130084962D01*
X104604804Y-130364566D01*
X104589500Y-130578549D01*
X87628145Y-130578549D01*
X87622403Y-130567280D01*
X87528627Y-130422877D01*
X87416864Y-130250776D01*
X87179368Y-129957493D01*
X87179365Y-129957489D01*
X86912511Y-129690635D01*
X86838532Y-129630728D01*
X86715830Y-129531366D01*
X86676119Y-129473879D01*
X86673791Y-129404048D01*
X86709586Y-129344044D01*
X86715830Y-129338634D01*
X86763309Y-129300186D01*
X86912511Y-129179365D01*
X87179365Y-128912511D01*
X87416863Y-128619225D01*
X87622403Y-128302721D01*
X87793734Y-127966465D01*
X87928978Y-127614143D01*
X88026653Y-127249613D01*
X88085690Y-126876871D01*
X88105441Y-126500000D01*
X88085690Y-126123129D01*
X88026653Y-125750387D01*
X87928978Y-125385857D01*
X87793734Y-125033535D01*
X87622403Y-124697280D01*
X87618672Y-124691534D01*
X87598669Y-124624588D01*
X87618036Y-124557456D01*
X87670622Y-124511451D01*
X87722668Y-124500000D01*
X120750000Y-124500000D01*
X131500000Y-124500000D01*
X131500000Y-124699453D01*
X131480315Y-124766492D01*
X131457760Y-124792680D01*
X131369812Y-124869809D01*
X131369803Y-124869819D01*
X131170973Y-125096540D01*
X131003435Y-125347279D01*
X131003431Y-125347286D01*
X130870062Y-125617731D01*
X130870053Y-125617752D01*
X130773122Y-125903301D01*
X130773118Y-125903316D01*
X130714288Y-126199069D01*
X130714287Y-126199081D01*
X130694564Y-126500000D01*
X130714287Y-126800918D01*
X130714288Y-126800930D01*
X130773118Y-127096683D01*
X130773122Y-127096698D01*
X130870053Y-127382247D01*
X130870062Y-127382268D01*
X131003431Y-127652713D01*
X131003435Y-127652720D01*
X131170973Y-127903459D01*
X131170975Y-127903461D01*
X131369811Y-128130189D01*
X131457759Y-128207317D01*
X131495183Y-128266318D01*
X131500000Y-128300545D01*
X131500000Y-133732450D01*
X131497804Y-133755685D01*
X131464607Y-133929709D01*
X131464606Y-133929716D01*
X131444457Y-134249994D01*
X131444457Y-134250005D01*
X131464606Y-134570283D01*
X131464607Y-134570290D01*
X131497804Y-134744313D01*
X131500000Y-134767548D01*
X131500000Y-138652123D01*
X131480315Y-138719162D01*
X131427511Y-138764917D01*
X131407077Y-138771518D01*
X131407226Y-138772071D01*
X131403301Y-138773122D01*
X131117752Y-138870053D01*
X131117731Y-138870062D01*
X130847286Y-139003431D01*
X130847279Y-139003435D01*
X130596540Y-139170973D01*
X130369810Y-139369810D01*
X130170973Y-139596540D01*
X130003435Y-139847279D01*
X130003431Y-139847286D01*
X129870062Y-140117731D01*
X129870053Y-140117752D01*
X129773122Y-140403301D01*
X129773118Y-140403316D01*
X129714288Y-140699069D01*
X129714287Y-140699081D01*
X129694564Y-141000000D01*
X129714287Y-141300918D01*
X129714288Y-141300930D01*
X129773118Y-141596683D01*
X129773122Y-141596698D01*
X129870053Y-141882247D01*
X129870062Y-141882268D01*
X130003431Y-142152713D01*
X130003435Y-142152720D01*
X130170973Y-142403459D01*
X130369810Y-142630189D01*
X130596540Y-142829026D01*
X130847279Y-142996564D01*
X130847286Y-142996568D01*
X130884232Y-143014788D01*
X130935652Y-143062094D01*
X130953333Y-143129689D01*
X130931663Y-143196113D01*
X130877521Y-143240277D01*
X130829388Y-143250000D01*
X76734049Y-143250000D01*
X76667010Y-143230315D01*
X76646368Y-143213681D01*
X74286819Y-140854132D01*
X74253334Y-140792809D01*
X74250500Y-140766451D01*
X74250500Y-140428552D01*
X74235196Y-140214572D01*
X74214133Y-140117748D01*
X74174371Y-139934962D01*
X74174370Y-139934960D01*
X74174369Y-139934954D01*
X74074367Y-139666839D01*
X74060241Y-139640970D01*
X73937229Y-139415690D01*
X73937224Y-139415682D01*
X73765745Y-139186612D01*
X73765729Y-139186594D01*
X73563405Y-138984270D01*
X73563387Y-138984254D01*
X73334317Y-138812775D01*
X73334309Y-138812770D01*
X73083166Y-138675635D01*
X73083167Y-138675635D01*
X72975915Y-138635632D01*
X72815046Y-138575631D01*
X72815043Y-138575630D01*
X72815037Y-138575628D01*
X72535433Y-138514804D01*
X72321450Y-138499500D01*
X72321448Y-138499500D01*
X70678552Y-138499500D01*
X70678549Y-138499500D01*
X70464566Y-138514804D01*
X70184962Y-138575628D01*
X69916833Y-138675635D01*
X69665690Y-138812770D01*
X69665682Y-138812775D01*
X69436612Y-138984254D01*
X69436594Y-138984270D01*
X69234270Y-139186594D01*
X69234254Y-139186612D01*
X69062775Y-139415682D01*
X69062770Y-139415690D01*
X68925635Y-139666833D01*
X68825628Y-139934962D01*
X68764804Y-140214566D01*
X68749500Y-140428549D01*
X68749500Y-142071450D01*
X68764804Y-142285433D01*
X68825628Y-142565037D01*
X68925635Y-142833166D01*
X69053086Y-143066573D01*
X69067938Y-143134846D01*
X69043521Y-143200310D01*
X68987588Y-143242182D01*
X68944254Y-143250000D01*
X65555746Y-143250000D01*
X65488707Y-143230315D01*
X65442952Y-143177511D01*
X65433008Y-143108353D01*
X65446914Y-143066573D01*
X65574364Y-142833166D01*
X65574367Y-142833161D01*
X65674369Y-142565046D01*
X65735196Y-142285428D01*
X65750500Y-142071448D01*
X65750500Y-140428552D01*
X65735196Y-140214572D01*
X65714133Y-140117748D01*
X65674371Y-139934962D01*
X65674370Y-139934960D01*
X65674369Y-139934954D01*
X65574367Y-139666839D01*
X65560241Y-139640970D01*
X65437229Y-139415690D01*
X65437224Y-139415682D01*
X65265745Y-139186612D01*
X65265729Y-139186594D01*
X65063405Y-138984270D01*
X65063387Y-138984254D01*
X64834317Y-138812775D01*
X64834309Y-138812770D01*
X64583166Y-138675635D01*
X64583167Y-138675635D01*
X64475915Y-138635632D01*
X64315046Y-138575631D01*
X64315043Y-138575630D01*
X64315037Y-138575628D01*
X64035433Y-138514804D01*
X63821450Y-138499500D01*
X63821448Y-138499500D01*
X62178552Y-138499500D01*
X62178549Y-138499500D01*
X61964566Y-138514804D01*
X61684962Y-138575628D01*
X61416833Y-138675635D01*
X61165690Y-138812770D01*
X61165682Y-138812775D01*
X60936612Y-138984254D01*
X60936594Y-138984270D01*
X60734270Y-139186594D01*
X60734254Y-139186612D01*
X60562775Y-139415682D01*
X60562770Y-139415690D01*
X60425635Y-139666833D01*
X60325628Y-139934962D01*
X60264804Y-140214566D01*
X60249500Y-140428549D01*
X60249500Y-142071450D01*
X60264804Y-142285433D01*
X60325628Y-142565037D01*
X60425635Y-142833166D01*
X60553086Y-143066573D01*
X60567938Y-143134846D01*
X60543521Y-143200310D01*
X60487588Y-143242182D01*
X60444254Y-143250000D01*
X57055746Y-143250000D01*
X56988707Y-143230315D01*
X56942952Y-143177511D01*
X56933008Y-143108353D01*
X56946914Y-143066573D01*
X57074364Y-142833166D01*
X57074367Y-142833161D01*
X57174369Y-142565046D01*
X57235196Y-142285428D01*
X57250500Y-142071448D01*
X57250500Y-140428552D01*
X57235196Y-140214572D01*
X57214133Y-140117748D01*
X57174371Y-139934962D01*
X57174370Y-139934960D01*
X57174369Y-139934954D01*
X57074367Y-139666839D01*
X57060241Y-139640970D01*
X56937229Y-139415690D01*
X56937224Y-139415682D01*
X56765745Y-139186612D01*
X56765729Y-139186594D01*
X56563405Y-138984270D01*
X56563387Y-138984254D01*
X56334317Y-138812775D01*
X56334309Y-138812770D01*
X56083166Y-138675635D01*
X56083167Y-138675635D01*
X55975915Y-138635632D01*
X55815046Y-138575631D01*
X55815043Y-138575630D01*
X55815037Y-138575628D01*
X55535433Y-138514804D01*
X55321450Y-138499500D01*
X55321448Y-138499500D01*
X53678552Y-138499500D01*
X53678549Y-138499500D01*
X53464566Y-138514804D01*
X53184962Y-138575628D01*
X52916833Y-138675635D01*
X52665690Y-138812770D01*
X52665682Y-138812775D01*
X52436612Y-138984254D01*
X52436594Y-138984270D01*
X52234270Y-139186594D01*
X52234254Y-139186612D01*
X52062775Y-139415682D01*
X52062770Y-139415690D01*
X51925635Y-139666833D01*
X51825628Y-139934962D01*
X51764804Y-140214566D01*
X51749500Y-140428549D01*
X51749500Y-142071450D01*
X51764804Y-142285433D01*
X51825628Y-142565037D01*
X51925635Y-142833166D01*
X52053086Y-143066573D01*
X52067938Y-143134846D01*
X52043521Y-143200310D01*
X51987588Y-143242182D01*
X51944254Y-143250000D01*
X50624000Y-143250000D01*
X50556961Y-143230315D01*
X50511206Y-143177511D01*
X50500000Y-143126000D01*
X50500000Y-124624000D01*
X50519685Y-124556961D01*
X50572489Y-124511206D01*
X50624000Y-124500000D01*
X75407332Y-124500000D01*
X75474371Y-124519685D01*
G37*
%TD.AperFunction*%
%TD*%
%TA.AperFunction,Conductor*%
%TO.N,V-*%
G36*
X135193039Y-118269685D02*
G01*
X135238794Y-118322489D01*
X135250000Y-118374000D01*
X135250000Y-123376000D01*
X135230315Y-123443039D01*
X135177511Y-123488794D01*
X135126000Y-123500000D01*
X131500000Y-123500000D01*
X131500000Y-118250000D01*
X135126000Y-118250000D01*
X135193039Y-118269685D01*
G37*
%TD.AperFunction*%
%TD*%
M02*
