%TF.GenerationSoftware,KiCad,Pcbnew,8.0.4*%
%TF.CreationDate,2024-11-10T12:36:27-05:00*%
%TF.ProjectId,booster-tc,626f6f73-7465-4722-9d74-632e6b696361,rev?*%
%TF.SameCoordinates,Original*%
%TF.FileFunction,Paste,Top*%
%TF.FilePolarity,Positive*%
%FSLAX46Y46*%
G04 Gerber Fmt 4.6, Leading zero omitted, Abs format (unit mm)*
G04 Created by KiCad (PCBNEW 8.0.4) date 2024-11-10 12:36:27*
%MOMM*%
%LPD*%
G01*
G04 APERTURE LIST*
G04 Aperture macros list*
%AMRoundRect*
0 Rectangle with rounded corners*
0 $1 Rounding radius*
0 $2 $3 $4 $5 $6 $7 $8 $9 X,Y pos of 4 corners*
0 Add a 4 corners polygon primitive as box body*
4,1,4,$2,$3,$4,$5,$6,$7,$8,$9,$2,$3,0*
0 Add four circle primitives for the rounded corners*
1,1,$1+$1,$2,$3*
1,1,$1+$1,$4,$5*
1,1,$1+$1,$6,$7*
1,1,$1+$1,$8,$9*
0 Add four rect primitives between the rounded corners*
20,1,$1+$1,$2,$3,$4,$5,0*
20,1,$1+$1,$4,$5,$6,$7,0*
20,1,$1+$1,$6,$7,$8,$9,0*
20,1,$1+$1,$8,$9,$2,$3,0*%
G04 Aperture macros list end*
%ADD10RoundRect,0.200000X-0.400000X0.200000X-0.400000X-0.200000X0.400000X-0.200000X0.400000X0.200000X0*%
%ADD11RoundRect,0.250000X-0.475000X0.250000X-0.475000X-0.250000X0.475000X-0.250000X0.475000X0.250000X0*%
%ADD12RoundRect,0.250000X-0.450000X0.262500X-0.450000X-0.262500X0.450000X-0.262500X0.450000X0.262500X0*%
%ADD13RoundRect,0.112500X-0.187500X-0.112500X0.187500X-0.112500X0.187500X0.112500X-0.187500X0.112500X0*%
%ADD14RoundRect,0.250000X0.450000X-0.262500X0.450000X0.262500X-0.450000X0.262500X-0.450000X-0.262500X0*%
%ADD15RoundRect,0.250000X-0.262500X-0.450000X0.262500X-0.450000X0.262500X0.450000X-0.262500X0.450000X0*%
%ADD16C,3.100000*%
%ADD17RoundRect,0.250000X0.262500X0.450000X-0.262500X0.450000X-0.262500X-0.450000X0.262500X-0.450000X0*%
%ADD18RoundRect,0.250000X0.475000X-0.250000X0.475000X0.250000X-0.475000X0.250000X-0.475000X-0.250000X0*%
%ADD19RoundRect,0.250000X0.250000X0.475000X-0.250000X0.475000X-0.250000X-0.475000X0.250000X-0.475000X0*%
%ADD20RoundRect,0.150000X-0.825000X-0.150000X0.825000X-0.150000X0.825000X0.150000X-0.825000X0.150000X0*%
%ADD21RoundRect,0.150000X0.587500X0.150000X-0.587500X0.150000X-0.587500X-0.150000X0.587500X-0.150000X0*%
%ADD22RoundRect,0.250000X-0.250000X-0.475000X0.250000X-0.475000X0.250000X0.475000X-0.250000X0.475000X0*%
%ADD23RoundRect,0.112500X0.112500X-0.187500X0.112500X0.187500X-0.112500X0.187500X-0.112500X-0.187500X0*%
%ADD24R,1.800000X0.900000*%
%ADD25RoundRect,0.150000X0.825000X0.150000X-0.825000X0.150000X-0.825000X-0.150000X0.825000X-0.150000X0*%
%ADD26R,0.700000X1.000000*%
G04 APERTURE END LIST*
D10*
%TO.C,D3*%
X85712500Y-149612500D03*
X85712500Y-151212500D03*
%TD*%
D11*
%TO.C,C14*%
X105000000Y-153625000D03*
X105000000Y-155525000D03*
%TD*%
D12*
%TO.C,R6*%
X98500000Y-145925000D03*
X98500000Y-147750000D03*
%TD*%
D13*
%TO.C,D4*%
X66050000Y-155412500D03*
X68150000Y-155412500D03*
%TD*%
D12*
%TO.C,R17*%
X100000000Y-153662500D03*
X100000000Y-155487500D03*
%TD*%
D14*
%TO.C,R1*%
X95312500Y-151575000D03*
X95312500Y-149750000D03*
%TD*%
D12*
%TO.C,R22*%
X102500000Y-153662500D03*
X102500000Y-155487500D03*
%TD*%
D15*
%TO.C,R24*%
X90087500Y-139750000D03*
X91912500Y-139750000D03*
%TD*%
D16*
%TO.C,J7*%
X123380000Y-126500000D03*
X123380000Y-132370000D03*
X129250000Y-126500000D03*
X129250000Y-132370000D03*
%TD*%
D17*
%TO.C,R3*%
X103412500Y-143250000D03*
X101587500Y-143250000D03*
%TD*%
D11*
%TO.C,C12*%
X145000000Y-126800000D03*
X145000000Y-128700000D03*
%TD*%
D12*
%TO.C,R21*%
X115500000Y-153637500D03*
X115500000Y-155462500D03*
%TD*%
D18*
%TO.C,C5*%
X92812500Y-151612500D03*
X92812500Y-149712500D03*
%TD*%
D17*
%TO.C,R18*%
X67912500Y-148662500D03*
X66087500Y-148662500D03*
%TD*%
D19*
%TO.C,C11*%
X141450000Y-130500000D03*
X139550000Y-130500000D03*
%TD*%
D12*
%TO.C,R7*%
X102500000Y-145925000D03*
X102500000Y-147750000D03*
%TD*%
D20*
%TO.C,U1*%
X107775000Y-154645000D03*
X107775000Y-155915000D03*
X107775000Y-157185000D03*
X107775000Y-158455000D03*
X112725000Y-158455000D03*
X112725000Y-157185000D03*
X112725000Y-155915000D03*
X112725000Y-154645000D03*
%TD*%
D19*
%TO.C,C1*%
X109450000Y-160625000D03*
X107550000Y-160625000D03*
%TD*%
D21*
%TO.C,Q1*%
X90187500Y-151612500D03*
X90187500Y-149712500D03*
X88312500Y-150662500D03*
%TD*%
D14*
%TO.C,R14*%
X105000000Y-159375000D03*
X105000000Y-157550000D03*
%TD*%
D17*
%TO.C,R15*%
X67912500Y-151912500D03*
X66087500Y-151912500D03*
%TD*%
D16*
%TO.C,J2*%
X111250000Y-72065000D03*
X111250000Y-77935000D03*
X117120000Y-72065000D03*
X117120000Y-77935000D03*
%TD*%
D15*
%TO.C,R26*%
X90087500Y-136000000D03*
X91912500Y-136000000D03*
%TD*%
D17*
%TO.C,R19*%
X134912500Y-125000000D03*
X133087500Y-125000000D03*
%TD*%
%TO.C,R20*%
X134912500Y-128250000D03*
X133087500Y-128250000D03*
%TD*%
D18*
%TO.C,C9*%
X115500000Y-159362500D03*
X115500000Y-157462500D03*
%TD*%
D12*
%TO.C,R10*%
X120500000Y-148587500D03*
X120500000Y-150412500D03*
%TD*%
D18*
%TO.C,C6*%
X120537500Y-159362500D03*
X120537500Y-157462500D03*
%TD*%
D15*
%TO.C,R25*%
X93837500Y-136000000D03*
X95662500Y-136000000D03*
%TD*%
D16*
%TO.C,J3*%
X90750000Y-96000000D03*
X90750000Y-101870000D03*
X96620000Y-96000000D03*
X96620000Y-101870000D03*
%TD*%
D17*
%TO.C,R8*%
X89912500Y-153912500D03*
X88087500Y-153912500D03*
%TD*%
%TO.C,R2*%
X99662500Y-143250000D03*
X97837500Y-143250000D03*
%TD*%
D18*
%TO.C,C10*%
X102500000Y-159412500D03*
X102500000Y-157512500D03*
%TD*%
D16*
%TO.C,J4*%
X111250000Y-96000000D03*
X111250000Y-101870000D03*
X117120000Y-96000000D03*
X117120000Y-101870000D03*
%TD*%
D14*
%TO.C,R13*%
X118000000Y-159325000D03*
X118000000Y-157500000D03*
%TD*%
D15*
%TO.C,R23*%
X94087500Y-139750000D03*
X95912500Y-139750000D03*
%TD*%
D16*
%TO.C,J1*%
X90750000Y-72065000D03*
X90750000Y-77935000D03*
X96620000Y-72065000D03*
X96620000Y-77935000D03*
%TD*%
D11*
%TO.C,C23*%
X130000000Y-140750000D03*
X130000000Y-142650000D03*
%TD*%
D18*
%TO.C,C20*%
X147000000Y-128700000D03*
X147000000Y-126800000D03*
%TD*%
D22*
%TO.C,C17*%
X107300000Y-136000000D03*
X109200000Y-136000000D03*
%TD*%
D12*
%TO.C,R12*%
X102500000Y-149675000D03*
X102500000Y-151500000D03*
%TD*%
%TO.C,R5*%
X120525000Y-144950000D03*
X120525000Y-146775000D03*
%TD*%
D19*
%TO.C,C16*%
X109200000Y-133750000D03*
X107300000Y-133750000D03*
%TD*%
D11*
%TO.C,C2*%
X82250000Y-158712500D03*
X82250000Y-160612500D03*
%TD*%
D23*
%TO.C,D2*%
X85712500Y-154712500D03*
X85712500Y-152612500D03*
%TD*%
D24*
%TO.C,T1*%
X82150000Y-154702500D03*
X82150000Y-152162500D03*
X82150000Y-149622500D03*
X70350000Y-149622500D03*
X70350000Y-152162500D03*
X70350000Y-154702500D03*
%TD*%
D18*
%TO.C,C7*%
X100000000Y-159412500D03*
X100000000Y-157512500D03*
%TD*%
D12*
%TO.C,R9*%
X124500000Y-150250000D03*
X124500000Y-152075000D03*
%TD*%
D25*
%TO.C,U3*%
X142475000Y-128655000D03*
X142475000Y-127385000D03*
X142475000Y-126115000D03*
X142475000Y-124845000D03*
X137525000Y-124845000D03*
X137525000Y-126115000D03*
X137525000Y-127385000D03*
X137525000Y-128655000D03*
%TD*%
D18*
%TO.C,C3*%
X130000000Y-156200000D03*
X130000000Y-154300000D03*
%TD*%
D11*
%TO.C,C13*%
X118000000Y-153600000D03*
X118000000Y-155500000D03*
%TD*%
%TO.C,C24*%
X130000000Y-144550000D03*
X130000000Y-146450000D03*
%TD*%
D26*
%TO.C,D1*%
X98750000Y-140750000D03*
X102750000Y-140750000D03*
X102750000Y-134800000D03*
X98750000Y-134800000D03*
%TD*%
D16*
%TO.C,J6*%
X78630000Y-126500000D03*
X78630000Y-132370000D03*
X84500000Y-126500000D03*
X84500000Y-132370000D03*
%TD*%
D12*
%TO.C,R11*%
X98500000Y-149675000D03*
X98500000Y-151500000D03*
%TD*%
%TO.C,R16*%
X120525000Y-153637500D03*
X120525000Y-155462500D03*
%TD*%
%TO.C,R4*%
X124500000Y-146587500D03*
X124500000Y-148412500D03*
%TD*%
M02*
