M48
; DRILL file {KiCad 8.0.4} date 2024-11-10T12:36:24-0500
; FORMAT={-:-/ absolute / inch / decimal}
; #@! TF.CreationDate,2024-11-10T12:36:24-05:00
; #@! TF.GenerationSoftware,Kicad,Pcbnew,8.0.4
; #@! TF.FileFunction,Plated,1,4,PTH
FMAT,2
INCH
; #@! TA.AperFunction,Plated,PTH,ViaDrill
T1C0.0118
; #@! TA.AperFunction,Plated,PTH,ComponentDrill
T2C0.0197
; #@! TA.AperFunction,Plated,PTH,ComponentDrill
T3C0.0276
; #@! TA.AperFunction,Plated,PTH,ComponentDrill
T4C0.0315
; #@! TA.AperFunction,Plated,PTH,ComponentDrill
T5C0.0394
; #@! TA.AperFunction,Plated,PTH,ComponentDrill
T6C0.0591
; #@! TA.AperFunction,Plated,PTH,ComponentDrill
T7C0.0728
; #@! TA.AperFunction,Plated,PTH,ComponentDrill
T8C0.0787
%
G90
G05
T1
X2.6019Y-5.7972
X2.6019Y-5.9218
X2.8642Y-5.9218
X3.5827Y-6.0595
X3.6024Y-5.8957
X3.7992Y-5.9646
X3.8189Y-5.502
X3.937Y-6.0039
X4.0157Y-3.9075
X4.0846Y-6.2008
X4.1142Y-3.9075
X4.2126Y-6.0531
X4.2323Y-6.2697
X4.498Y-6.1024
X4.5965Y-6.2008
X4.6063Y-5.9055
X4.7441Y-5.6201
X4.7441Y-6.0039
X4.9016Y-5.7382
X5.1673Y-5.6299
X5.1969Y-5.5512
X5.2362Y-4.9803
X5.5807Y-5.4331
X5.6693Y-5.0295
X5.7185Y-5.4823
X5.748Y-4.9705
T2
X3.9567Y-4.3307
X4.002Y-4.252
X4.002Y-4.4094
X4.0531Y-4.252
X4.0531Y-4.4094
X4.1043Y-4.252
X4.1043Y-4.4094
X4.1555Y-4.252
X4.1555Y-4.4094
X4.2067Y-4.252
X4.2067Y-4.4094
X4.252Y-4.3307
X4.3504Y-4.3307
X4.3957Y-4.252
X4.3957Y-4.4094
X4.4469Y-4.252
X4.4469Y-4.4094
X4.498Y-4.252
X4.498Y-4.4094
X4.5492Y-4.252
X4.5492Y-4.4094
X4.6004Y-4.252
X4.6004Y-4.4094
X4.6457Y-4.3307
T3
X3.4547Y-6.217
X3.4547Y-6.3548
X5.2756Y-5.2854
X5.4134Y-5.2854
X5.6004Y-5.3248
X5.7382Y-5.3248
T4
X4.226Y-5.1732
X4.3012Y-5.1732
X4.3764Y-5.1732
T5
X2.1457Y-4.9705
X2.1457Y-5.561
X2.4803Y-4.9705
X2.4803Y-5.561
X2.815Y-4.9705
X2.815Y-5.561
X4.2126Y-3.435
X4.8031Y-3.435
X5.2802Y-5.5594
X5.2802Y-5.6594
X5.2802Y-5.7594
X5.2802Y-6.0594
X5.2802Y-6.1594
X5.9728Y-5.1083
X5.9728Y-5.2083
X5.9728Y-5.3083
X5.9728Y-5.4083
X5.9728Y-5.5083
X6.0728Y-5.1083
X6.0728Y-5.2083
X6.0728Y-5.3083
X6.0728Y-5.4083
X6.0728Y-5.5083
T7
X3.0957Y-4.9803
X3.0957Y-5.2114
X3.3268Y-4.9803
X3.3268Y-5.2114
X3.5728Y-2.8372
X3.5728Y-3.0683
X3.5728Y-3.7795
X3.5728Y-4.0106
X3.8039Y-2.8372
X3.8039Y-3.0683
X3.8039Y-3.7795
X3.8039Y-4.0106
X4.3799Y-2.8372
X4.3799Y-3.0683
X4.3799Y-3.7795
X4.3799Y-4.0106
X4.611Y-2.8372
X4.611Y-3.0683
X4.611Y-3.7795
X4.611Y-4.0106
X4.8575Y-4.9803
X4.8575Y-5.2114
X5.0886Y-4.9803
X5.0886Y-5.2114
T6
G00X2.9828Y-2.3858
M15
G01X3.0418Y-2.3858
M16
G05
G00X2.9828Y-2.6004
M15
G01X3.0418Y-2.6004
M16
G05
G00X2.9828Y-2.815
M15
G01X3.0418Y-2.815
M16
G05
G00X2.9828Y-3.3504
M15
G01X3.0418Y-3.3504
M16
G05
G00X2.9828Y-3.565
M15
G01X3.0418Y-3.565
M16
G05
G00X2.9828Y-3.7795
M15
G01X3.0418Y-3.7795
M16
G05
G00X2.9828Y-4.315
M15
G01X3.0418Y-4.315
M16
G05
G00X2.9828Y-4.5295
M15
G01X3.0418Y-4.5295
M16
G05
G00X2.9828Y-4.7441
M15
G01X3.0418Y-4.7441
M16
G05
G00X5.2062Y-2.3819
M15
G01X5.1471Y-2.3819
M16
G05
G00X5.2062Y-2.811
M15
G01X5.1471Y-2.811
M16
G05
G00X5.2062Y-3.3465
M15
G01X5.1471Y-3.3465
M16
G05
G00X5.2062Y-3.7756
M15
G01X5.1471Y-3.7756
M16
G05
G00X5.2062Y-4.311
M15
G01X5.1471Y-4.311
M16
G05
G00X5.2062Y-4.5256
M15
G01X5.1471Y-4.5256
M16
G05
G00X5.2062Y-4.7402
M15
G01X5.1471Y-4.7402
M16
G05
T8
G00X4.0256Y-4.3307
M15
G01X4.1831Y-4.3307
M16
G05
G00X4.4193Y-4.3307
M15
G01X4.5768Y-4.3307
M16
G05
M30
