%TF.GenerationSoftware,KiCad,Pcbnew,8.0.4*%
%TF.CreationDate,2024-11-10T12:36:27-05:00*%
%TF.ProjectId,booster-tc,626f6f73-7465-4722-9d74-632e6b696361,rev?*%
%TF.SameCoordinates,Original*%
%TF.FileFunction,Soldermask,Bot*%
%TF.FilePolarity,Negative*%
%FSLAX46Y46*%
G04 Gerber Fmt 4.6, Leading zero omitted, Abs format (unit mm)*
G04 Created by KiCad (PCBNEW 8.0.4) date 2024-11-10 12:36:27*
%MOMM*%
%LPD*%
G01*
G04 APERTURE LIST*
G04 Aperture macros list*
%AMRoundRect*
0 Rectangle with rounded corners*
0 $1 Rounding radius*
0 $2 $3 $4 $5 $6 $7 $8 $9 X,Y pos of 4 corners*
0 Add a 4 corners polygon primitive as box body*
4,1,4,$2,$3,$4,$5,$6,$7,$8,$9,$2,$3,0*
0 Add four circle primitives for the rounded corners*
1,1,$1+$1,$2,$3*
1,1,$1+$1,$4,$5*
1,1,$1+$1,$6,$7*
1,1,$1+$1,$8,$9*
0 Add four rect primitives between the rounded corners*
20,1,$1+$1,$2,$3,$4,$5,0*
20,1,$1+$1,$4,$5,$6,$7,0*
20,1,$1+$1,$6,$7,$8,$9,0*
20,1,$1+$1,$8,$9,$2,$3,0*%
G04 Aperture macros list end*
%ADD10C,0.100000*%
%ADD11R,1.500000X1.500000*%
%ADD12C,1.500000*%
%ADD13O,5.000000X3.000000*%
%ADD14C,4.300000*%
%ADD15C,3.200000*%
%ADD16R,1.100000X1.100000*%
%ADD17C,1.100000*%
%ADD18R,1.700000X1.700000*%
%ADD19O,1.700000X1.700000*%
%ADD20O,1.600000X1.700000*%
%ADD21RoundRect,0.250000X0.600000X0.600000X-0.600000X0.600000X-0.600000X-0.600000X0.600000X-0.600000X0*%
%ADD22C,1.700000*%
%ADD23C,0.500000*%
%ADD24R,9.000000X6.000000*%
G04 APERTURE END LIST*
D10*
X131500000Y-118250000D02*
X135250000Y-118250000D01*
X135250000Y-123500000D01*
X131500000Y-123500000D01*
X131500000Y-118250000D01*
G36*
X131500000Y-118250000D02*
G01*
X135250000Y-118250000D01*
X135250000Y-123500000D01*
X131500000Y-123500000D01*
X131500000Y-118250000D01*
G37*
X109250000Y-94000000D02*
X119000000Y-94000000D01*
X119000000Y-113250000D01*
X109250000Y-113250000D01*
X109250000Y-94000000D01*
G36*
X109250000Y-94000000D02*
G01*
X119000000Y-94000000D01*
X119000000Y-113250000D01*
X109250000Y-113250000D01*
X109250000Y-94000000D01*
G37*
X120750000Y-118250000D02*
X131500000Y-118250000D01*
X131500000Y-135500000D01*
X120750000Y-135500000D01*
X120750000Y-118250000D01*
G36*
X120750000Y-118250000D02*
G01*
X131500000Y-118250000D01*
X131500000Y-135500000D01*
X120750000Y-135500000D01*
X120750000Y-118250000D01*
G37*
X88250000Y-68250000D02*
X99250000Y-68250000D01*
X99250000Y-80500000D01*
X88250000Y-80500000D01*
X88250000Y-68250000D01*
G36*
X88250000Y-68250000D02*
G01*
X99250000Y-68250000D01*
X99250000Y-80500000D01*
X88250000Y-80500000D01*
X88250000Y-68250000D01*
G37*
X80750000Y-111750000D02*
X108750000Y-111750000D01*
X108750000Y-118500000D01*
X80750000Y-118500000D01*
X80750000Y-111750000D01*
G36*
X80750000Y-111750000D02*
G01*
X108750000Y-111750000D01*
X108750000Y-118500000D01*
X80750000Y-118500000D01*
X80750000Y-111750000D01*
G37*
X127250000Y-88500000D02*
X135250000Y-88500000D01*
X135250000Y-106250000D01*
X127250000Y-106250000D01*
X127250000Y-88500000D01*
G36*
X127250000Y-88500000D02*
G01*
X135250000Y-88500000D01*
X135250000Y-106250000D01*
X127250000Y-106250000D01*
X127250000Y-88500000D01*
G37*
X86250000Y-93500000D02*
X99250000Y-93500000D01*
X99250000Y-104250000D01*
X86250000Y-104250000D01*
X86250000Y-93500000D01*
G36*
X86250000Y-93500000D02*
G01*
X99250000Y-93500000D01*
X99250000Y-104250000D01*
X86250000Y-104250000D01*
X86250000Y-93500000D01*
G37*
X120750000Y-69750000D02*
X135250000Y-69750000D01*
X135250000Y-81750000D01*
X120750000Y-81750000D01*
X120750000Y-69750000D01*
G36*
X120750000Y-69750000D02*
G01*
X135250000Y-69750000D01*
X135250000Y-81750000D01*
X120750000Y-81750000D01*
X120750000Y-69750000D01*
G37*
X82500000Y-57500000D02*
X135250000Y-57500000D01*
X135250000Y-64750000D01*
X82500000Y-64750000D01*
X82500000Y-57500000D01*
G36*
X82500000Y-57500000D02*
G01*
X135250000Y-57500000D01*
X135250000Y-64750000D01*
X82500000Y-64750000D01*
X82500000Y-57500000D01*
G37*
X72750000Y-69750000D02*
X86250000Y-69750000D01*
X86250000Y-82000000D01*
X72750000Y-82000000D01*
X72750000Y-69750000D01*
G36*
X72750000Y-69750000D02*
G01*
X86250000Y-69750000D01*
X86250000Y-82000000D01*
X72750000Y-82000000D01*
X72750000Y-69750000D01*
G37*
X125750000Y-67250000D02*
X135250000Y-67250000D01*
X135250000Y-69750000D01*
X125750000Y-69750000D01*
X125750000Y-67250000D01*
G36*
X125750000Y-67250000D02*
G01*
X135250000Y-67250000D01*
X135250000Y-69750000D01*
X125750000Y-69750000D01*
X125750000Y-67250000D01*
G37*
X72750000Y-118500000D02*
X108750000Y-118500000D01*
X108750000Y-122500000D01*
X72750000Y-122500000D01*
X72750000Y-118500000D01*
G36*
X72750000Y-118500000D02*
G01*
X108750000Y-118500000D01*
X108750000Y-122500000D01*
X72750000Y-122500000D01*
X72750000Y-118500000D01*
G37*
X72750000Y-106500000D02*
X108750000Y-106500000D01*
X108750000Y-111750000D01*
X72750000Y-111750000D01*
X72750000Y-106500000D01*
G36*
X72750000Y-106500000D02*
G01*
X108750000Y-106500000D01*
X108750000Y-111750000D01*
X72750000Y-111750000D01*
X72750000Y-106500000D01*
G37*
X72750000Y-63250000D02*
X124250000Y-63250000D01*
X124250000Y-68250000D01*
X72750000Y-68250000D01*
X72750000Y-63250000D01*
G36*
X72750000Y-63250000D02*
G01*
X124250000Y-63250000D01*
X124250000Y-68250000D01*
X72750000Y-68250000D01*
X72750000Y-63250000D01*
G37*
X120750000Y-81750000D02*
X127250000Y-81750000D01*
X127250000Y-118250000D01*
X120750000Y-118250000D01*
X120750000Y-81750000D01*
G36*
X120750000Y-81750000D02*
G01*
X127250000Y-81750000D01*
X127250000Y-118250000D01*
X120750000Y-118250000D01*
X120750000Y-81750000D01*
G37*
X72750000Y-94250000D02*
X80250000Y-94250000D01*
X80250000Y-104250000D01*
X72750000Y-104250000D01*
X72750000Y-94250000D01*
G36*
X72750000Y-94250000D02*
G01*
X80250000Y-94250000D01*
X80250000Y-104250000D01*
X72750000Y-104250000D01*
X72750000Y-94250000D01*
G37*
X80250000Y-82000000D02*
X86250000Y-82000000D01*
X86250000Y-104250000D01*
X80250000Y-104250000D01*
X80250000Y-82000000D01*
G36*
X80250000Y-82000000D02*
G01*
X86250000Y-82000000D01*
X86250000Y-104250000D01*
X80250000Y-104250000D01*
X80250000Y-82000000D01*
G37*
D11*
%TO.C,C22*%
X71500000Y-141250000D03*
D12*
X71500000Y-126250000D03*
%TD*%
D13*
%TO.C,D9*%
X76512500Y-120500000D03*
X76512500Y-115050000D03*
X76512500Y-109600000D03*
%TD*%
%TO.C,D6*%
X131487500Y-60500000D03*
X131487500Y-71400000D03*
%TD*%
D14*
%TO.C,J7*%
X126315000Y-129435000D03*
D15*
X123380000Y-126500000D03*
X123380000Y-132370000D03*
X129250000Y-126500000D03*
X129250000Y-132370000D03*
%TD*%
%TO.C,H4*%
X53500000Y-160750000D03*
%TD*%
D13*
%TO.C,D5*%
X76512500Y-71500000D03*
X76512500Y-66050000D03*
X76512500Y-60600000D03*
%TD*%
D16*
%TO.C,C4*%
X87750000Y-157912500D03*
D17*
X87750000Y-161412500D03*
%TD*%
D13*
%TO.C,Q2*%
X131487500Y-109500000D03*
X131487500Y-114950000D03*
X131487500Y-120400000D03*
%TD*%
D18*
%TO.C,U2*%
X134117500Y-156450000D03*
D19*
X134117500Y-153910000D03*
X134117500Y-146290000D03*
D20*
X134117500Y-143750000D03*
D19*
X134117500Y-141210000D03*
%TD*%
D11*
%TO.C,C21*%
X63000000Y-141250000D03*
D12*
X63000000Y-126250000D03*
%TD*%
D16*
%TO.C,C18*%
X145750000Y-135250000D03*
D17*
X142250000Y-135250000D03*
%TD*%
D14*
%TO.C,J2*%
X114185000Y-75000000D03*
D15*
X111250000Y-72065000D03*
X111250000Y-77935000D03*
X117120000Y-72065000D03*
X117120000Y-77935000D03*
%TD*%
D13*
%TO.C,D8*%
X131487500Y-85000000D03*
X131487500Y-95900000D03*
%TD*%
D14*
%TO.C,J3*%
X93685000Y-98935000D03*
D15*
X90750000Y-96000000D03*
X90750000Y-101870000D03*
X96620000Y-96000000D03*
X96620000Y-101870000D03*
%TD*%
D11*
%TO.C,C19*%
X54500000Y-141250000D03*
D12*
X54500000Y-126250000D03*
%TD*%
D15*
%TO.C,H3*%
X154500000Y-160750000D03*
%TD*%
D14*
%TO.C,J4*%
X114185000Y-98935000D03*
D15*
X111250000Y-96000000D03*
X111250000Y-101870000D03*
X117120000Y-96000000D03*
X117120000Y-101870000D03*
%TD*%
%TO.C,H1*%
X154500000Y-53500000D03*
%TD*%
D14*
%TO.C,J1*%
X93685000Y-75000000D03*
D15*
X90750000Y-72065000D03*
X90750000Y-77935000D03*
X96620000Y-72065000D03*
X96620000Y-77935000D03*
%TD*%
D21*
%TO.C,J5*%
X154250000Y-139910000D03*
D22*
X151710000Y-139910000D03*
X154250000Y-137370000D03*
X151710000Y-137370000D03*
X154250000Y-134830000D03*
X151710000Y-134830000D03*
X154250000Y-132290000D03*
X151710000Y-132290000D03*
X154250000Y-129750000D03*
X151710000Y-129750000D03*
%TD*%
D13*
%TO.C,D7*%
X76512500Y-96000000D03*
X76512500Y-90550000D03*
X76512500Y-85100000D03*
%TD*%
D16*
%TO.C,C8*%
X137500000Y-134250000D03*
D17*
X134000000Y-134250000D03*
%TD*%
D15*
%TO.C,H2*%
X53500000Y-53500000D03*
%TD*%
D14*
%TO.C,J6*%
X81565000Y-129435000D03*
D15*
X78630000Y-126500000D03*
X78630000Y-132370000D03*
X84500000Y-126500000D03*
X84500000Y-132370000D03*
%TD*%
D11*
%TO.C,U4*%
X107340000Y-131400000D03*
D12*
X109250000Y-131400000D03*
X111160000Y-131400000D03*
D23*
X110500000Y-110000000D03*
X111650000Y-108000000D03*
X111650000Y-112000000D03*
X112950000Y-108000000D03*
X112950000Y-112000000D03*
X114250000Y-108000000D03*
D24*
X114250000Y-110000000D03*
D23*
X114250000Y-112000000D03*
X115550000Y-108000000D03*
X115550000Y-112000000D03*
X116850000Y-108000000D03*
X116850000Y-112000000D03*
X118000000Y-110000000D03*
X100500000Y-110000000D03*
X101650000Y-108000000D03*
X101650000Y-112000000D03*
X102950000Y-108000000D03*
X102950000Y-112000000D03*
X104250000Y-108000000D03*
D24*
X104250000Y-110000000D03*
D23*
X104250000Y-112000000D03*
X105550000Y-108000000D03*
X105550000Y-112000000D03*
X106850000Y-108000000D03*
X106850000Y-112000000D03*
X108000000Y-110000000D03*
%TD*%
D11*
%TO.C,C15*%
X107000000Y-87250000D03*
D12*
X122000000Y-87250000D03*
%TD*%
M02*
