%TF.GenerationSoftware,KiCad,Pcbnew,8.0.4*%
%TF.CreationDate,2024-11-10T12:36:27-05:00*%
%TF.ProjectId,booster-tc,626f6f73-7465-4722-9d74-632e6b696361,rev?*%
%TF.SameCoordinates,Original*%
%TF.FileFunction,Legend,Top*%
%TF.FilePolarity,Positive*%
%FSLAX46Y46*%
G04 Gerber Fmt 4.6, Leading zero omitted, Abs format (unit mm)*
G04 Created by KiCad (PCBNEW 8.0.4) date 2024-11-10 12:36:27*
%MOMM*%
%LPD*%
G01*
G04 APERTURE LIST*
%ADD10C,0.100000*%
%ADD11C,0.800000*%
%ADD12C,1.000000*%
%ADD13C,0.150000*%
%ADD14C,0.254000*%
%ADD15C,0.120000*%
%ADD16C,0.200000*%
G04 APERTURE END LIST*
D10*
X114500000Y-152750000D02*
X126500000Y-152750000D01*
X126500000Y-160250000D01*
X114500000Y-160250000D01*
X114500000Y-152750000D01*
X134000000Y-130000000D02*
X136500000Y-129250000D01*
X94250000Y-153000000D02*
X106000000Y-153000000D01*
X106000000Y-160250000D01*
X94250000Y-160250000D01*
X94250000Y-153000000D01*
D11*
X89181076Y-129931733D02*
X95276315Y-129931733D01*
X92228695Y-132979352D02*
X92228695Y-126884114D01*
X106490600Y-102979352D02*
X102681076Y-102979352D01*
X102681076Y-102979352D02*
X102681076Y-94979352D01*
X113431076Y-129431733D02*
X119526315Y-129431733D01*
D12*
X101360274Y-76164666D02*
X101836465Y-75688476D01*
X101836465Y-75688476D02*
X102788846Y-75212285D01*
X102788846Y-75212285D02*
X104693608Y-76164666D01*
X104693608Y-76164666D02*
X105645989Y-75688476D01*
X105645989Y-75688476D02*
X106122179Y-75212285D01*
D13*
X85011905Y-148617319D02*
X85011905Y-147617319D01*
X85011905Y-147617319D02*
X85250000Y-147617319D01*
X85250000Y-147617319D02*
X85392857Y-147664938D01*
X85392857Y-147664938D02*
X85488095Y-147760176D01*
X85488095Y-147760176D02*
X85535714Y-147855414D01*
X85535714Y-147855414D02*
X85583333Y-148045890D01*
X85583333Y-148045890D02*
X85583333Y-148188747D01*
X85583333Y-148188747D02*
X85535714Y-148379223D01*
X85535714Y-148379223D02*
X85488095Y-148474461D01*
X85488095Y-148474461D02*
X85392857Y-148569700D01*
X85392857Y-148569700D02*
X85250000Y-148617319D01*
X85250000Y-148617319D02*
X85011905Y-148617319D01*
X85916667Y-147617319D02*
X86535714Y-147617319D01*
X86535714Y-147617319D02*
X86202381Y-147998271D01*
X86202381Y-147998271D02*
X86345238Y-147998271D01*
X86345238Y-147998271D02*
X86440476Y-148045890D01*
X86440476Y-148045890D02*
X86488095Y-148093509D01*
X86488095Y-148093509D02*
X86535714Y-148188747D01*
X86535714Y-148188747D02*
X86535714Y-148426842D01*
X86535714Y-148426842D02*
X86488095Y-148522080D01*
X86488095Y-148522080D02*
X86440476Y-148569700D01*
X86440476Y-148569700D02*
X86345238Y-148617319D01*
X86345238Y-148617319D02*
X86059524Y-148617319D01*
X86059524Y-148617319D02*
X85964286Y-148569700D01*
X85964286Y-148569700D02*
X85916667Y-148522080D01*
D14*
X70683571Y-144203365D02*
X70623095Y-144263842D01*
X70623095Y-144263842D02*
X70441666Y-144324318D01*
X70441666Y-144324318D02*
X70320714Y-144324318D01*
X70320714Y-144324318D02*
X70139285Y-144263842D01*
X70139285Y-144263842D02*
X70018333Y-144142889D01*
X70018333Y-144142889D02*
X69957856Y-144021937D01*
X69957856Y-144021937D02*
X69897380Y-143780032D01*
X69897380Y-143780032D02*
X69897380Y-143598603D01*
X69897380Y-143598603D02*
X69957856Y-143356699D01*
X69957856Y-143356699D02*
X70018333Y-143235746D01*
X70018333Y-143235746D02*
X70139285Y-143114794D01*
X70139285Y-143114794D02*
X70320714Y-143054318D01*
X70320714Y-143054318D02*
X70441666Y-143054318D01*
X70441666Y-143054318D02*
X70623095Y-143114794D01*
X70623095Y-143114794D02*
X70683571Y-143175270D01*
X71167380Y-143175270D02*
X71227856Y-143114794D01*
X71227856Y-143114794D02*
X71348809Y-143054318D01*
X71348809Y-143054318D02*
X71651190Y-143054318D01*
X71651190Y-143054318D02*
X71772142Y-143114794D01*
X71772142Y-143114794D02*
X71832618Y-143175270D01*
X71832618Y-143175270D02*
X71893095Y-143296222D01*
X71893095Y-143296222D02*
X71893095Y-143417175D01*
X71893095Y-143417175D02*
X71832618Y-143598603D01*
X71832618Y-143598603D02*
X71106904Y-144324318D01*
X71106904Y-144324318D02*
X71893095Y-144324318D01*
X72376904Y-143175270D02*
X72437380Y-143114794D01*
X72437380Y-143114794D02*
X72558333Y-143054318D01*
X72558333Y-143054318D02*
X72860714Y-143054318D01*
X72860714Y-143054318D02*
X72981666Y-143114794D01*
X72981666Y-143114794D02*
X73042142Y-143175270D01*
X73042142Y-143175270D02*
X73102619Y-143296222D01*
X73102619Y-143296222D02*
X73102619Y-143417175D01*
X73102619Y-143417175D02*
X73042142Y-143598603D01*
X73042142Y-143598603D02*
X72316428Y-144324318D01*
X72316428Y-144324318D02*
X73102619Y-144324318D01*
D13*
X80454819Y-110238094D02*
X79454819Y-110238094D01*
X79454819Y-110238094D02*
X79454819Y-109999999D01*
X79454819Y-109999999D02*
X79502438Y-109857142D01*
X79502438Y-109857142D02*
X79597676Y-109761904D01*
X79597676Y-109761904D02*
X79692914Y-109714285D01*
X79692914Y-109714285D02*
X79883390Y-109666666D01*
X79883390Y-109666666D02*
X80026247Y-109666666D01*
X80026247Y-109666666D02*
X80216723Y-109714285D01*
X80216723Y-109714285D02*
X80311961Y-109761904D01*
X80311961Y-109761904D02*
X80407200Y-109857142D01*
X80407200Y-109857142D02*
X80454819Y-109999999D01*
X80454819Y-109999999D02*
X80454819Y-110238094D01*
X80454819Y-109190475D02*
X80454819Y-108999999D01*
X80454819Y-108999999D02*
X80407200Y-108904761D01*
X80407200Y-108904761D02*
X80359580Y-108857142D01*
X80359580Y-108857142D02*
X80216723Y-108761904D01*
X80216723Y-108761904D02*
X80026247Y-108714285D01*
X80026247Y-108714285D02*
X79645295Y-108714285D01*
X79645295Y-108714285D02*
X79550057Y-108761904D01*
X79550057Y-108761904D02*
X79502438Y-108809523D01*
X79502438Y-108809523D02*
X79454819Y-108904761D01*
X79454819Y-108904761D02*
X79454819Y-109095237D01*
X79454819Y-109095237D02*
X79502438Y-109190475D01*
X79502438Y-109190475D02*
X79550057Y-109238094D01*
X79550057Y-109238094D02*
X79645295Y-109285713D01*
X79645295Y-109285713D02*
X79883390Y-109285713D01*
X79883390Y-109285713D02*
X79978628Y-109238094D01*
X79978628Y-109238094D02*
X80026247Y-109190475D01*
X80026247Y-109190475D02*
X80073866Y-109095237D01*
X80073866Y-109095237D02*
X80073866Y-108904761D01*
X80073866Y-108904761D02*
X80026247Y-108809523D01*
X80026247Y-108809523D02*
X79978628Y-108761904D01*
X79978628Y-108761904D02*
X79883390Y-108714285D01*
X98609580Y-155392857D02*
X98657200Y-155440476D01*
X98657200Y-155440476D02*
X98704819Y-155583333D01*
X98704819Y-155583333D02*
X98704819Y-155678571D01*
X98704819Y-155678571D02*
X98657200Y-155821428D01*
X98657200Y-155821428D02*
X98561961Y-155916666D01*
X98561961Y-155916666D02*
X98466723Y-155964285D01*
X98466723Y-155964285D02*
X98276247Y-156011904D01*
X98276247Y-156011904D02*
X98133390Y-156011904D01*
X98133390Y-156011904D02*
X97942914Y-155964285D01*
X97942914Y-155964285D02*
X97847676Y-155916666D01*
X97847676Y-155916666D02*
X97752438Y-155821428D01*
X97752438Y-155821428D02*
X97704819Y-155678571D01*
X97704819Y-155678571D02*
X97704819Y-155583333D01*
X97704819Y-155583333D02*
X97752438Y-155440476D01*
X97752438Y-155440476D02*
X97800057Y-155392857D01*
X98704819Y-154440476D02*
X98704819Y-155011904D01*
X98704819Y-154726190D02*
X97704819Y-154726190D01*
X97704819Y-154726190D02*
X97847676Y-154821428D01*
X97847676Y-154821428D02*
X97942914Y-154916666D01*
X97942914Y-154916666D02*
X97990533Y-155011904D01*
X98038152Y-153583333D02*
X98704819Y-153583333D01*
X97657200Y-153821428D02*
X98371485Y-154059523D01*
X98371485Y-154059523D02*
X98371485Y-153440476D01*
X100604819Y-147004166D02*
X100128628Y-147337499D01*
X100604819Y-147575594D02*
X99604819Y-147575594D01*
X99604819Y-147575594D02*
X99604819Y-147194642D01*
X99604819Y-147194642D02*
X99652438Y-147099404D01*
X99652438Y-147099404D02*
X99700057Y-147051785D01*
X99700057Y-147051785D02*
X99795295Y-147004166D01*
X99795295Y-147004166D02*
X99938152Y-147004166D01*
X99938152Y-147004166D02*
X100033390Y-147051785D01*
X100033390Y-147051785D02*
X100081009Y-147099404D01*
X100081009Y-147099404D02*
X100128628Y-147194642D01*
X100128628Y-147194642D02*
X100128628Y-147575594D01*
X99604819Y-146147023D02*
X99604819Y-146337499D01*
X99604819Y-146337499D02*
X99652438Y-146432737D01*
X99652438Y-146432737D02*
X99700057Y-146480356D01*
X99700057Y-146480356D02*
X99842914Y-146575594D01*
X99842914Y-146575594D02*
X100033390Y-146623213D01*
X100033390Y-146623213D02*
X100414342Y-146623213D01*
X100414342Y-146623213D02*
X100509580Y-146575594D01*
X100509580Y-146575594D02*
X100557200Y-146527975D01*
X100557200Y-146527975D02*
X100604819Y-146432737D01*
X100604819Y-146432737D02*
X100604819Y-146242261D01*
X100604819Y-146242261D02*
X100557200Y-146147023D01*
X100557200Y-146147023D02*
X100509580Y-146099404D01*
X100509580Y-146099404D02*
X100414342Y-146051785D01*
X100414342Y-146051785D02*
X100176247Y-146051785D01*
X100176247Y-146051785D02*
X100081009Y-146099404D01*
X100081009Y-146099404D02*
X100033390Y-146147023D01*
X100033390Y-146147023D02*
X99985771Y-146242261D01*
X99985771Y-146242261D02*
X99985771Y-146432737D01*
X99985771Y-146432737D02*
X100033390Y-146527975D01*
X100033390Y-146527975D02*
X100081009Y-146575594D01*
X100081009Y-146575594D02*
X100176247Y-146623213D01*
X128704819Y-66688094D02*
X127704819Y-66688094D01*
X127704819Y-66688094D02*
X127704819Y-66449999D01*
X127704819Y-66449999D02*
X127752438Y-66307142D01*
X127752438Y-66307142D02*
X127847676Y-66211904D01*
X127847676Y-66211904D02*
X127942914Y-66164285D01*
X127942914Y-66164285D02*
X128133390Y-66116666D01*
X128133390Y-66116666D02*
X128276247Y-66116666D01*
X128276247Y-66116666D02*
X128466723Y-66164285D01*
X128466723Y-66164285D02*
X128561961Y-66211904D01*
X128561961Y-66211904D02*
X128657200Y-66307142D01*
X128657200Y-66307142D02*
X128704819Y-66449999D01*
X128704819Y-66449999D02*
X128704819Y-66688094D01*
X127704819Y-65259523D02*
X127704819Y-65449999D01*
X127704819Y-65449999D02*
X127752438Y-65545237D01*
X127752438Y-65545237D02*
X127800057Y-65592856D01*
X127800057Y-65592856D02*
X127942914Y-65688094D01*
X127942914Y-65688094D02*
X128133390Y-65735713D01*
X128133390Y-65735713D02*
X128514342Y-65735713D01*
X128514342Y-65735713D02*
X128609580Y-65688094D01*
X128609580Y-65688094D02*
X128657200Y-65640475D01*
X128657200Y-65640475D02*
X128704819Y-65545237D01*
X128704819Y-65545237D02*
X128704819Y-65354761D01*
X128704819Y-65354761D02*
X128657200Y-65259523D01*
X128657200Y-65259523D02*
X128609580Y-65211904D01*
X128609580Y-65211904D02*
X128514342Y-65164285D01*
X128514342Y-65164285D02*
X128276247Y-65164285D01*
X128276247Y-65164285D02*
X128181009Y-65211904D01*
X128181009Y-65211904D02*
X128133390Y-65259523D01*
X128133390Y-65259523D02*
X128085771Y-65354761D01*
X128085771Y-65354761D02*
X128085771Y-65545237D01*
X128085771Y-65545237D02*
X128133390Y-65640475D01*
X128133390Y-65640475D02*
X128181009Y-65688094D01*
X128181009Y-65688094D02*
X128276247Y-65735713D01*
X66261905Y-154367319D02*
X66261905Y-153367319D01*
X66261905Y-153367319D02*
X66500000Y-153367319D01*
X66500000Y-153367319D02*
X66642857Y-153414938D01*
X66642857Y-153414938D02*
X66738095Y-153510176D01*
X66738095Y-153510176D02*
X66785714Y-153605414D01*
X66785714Y-153605414D02*
X66833333Y-153795890D01*
X66833333Y-153795890D02*
X66833333Y-153938747D01*
X66833333Y-153938747D02*
X66785714Y-154129223D01*
X66785714Y-154129223D02*
X66738095Y-154224461D01*
X66738095Y-154224461D02*
X66642857Y-154319700D01*
X66642857Y-154319700D02*
X66500000Y-154367319D01*
X66500000Y-154367319D02*
X66261905Y-154367319D01*
X67690476Y-153700652D02*
X67690476Y-154367319D01*
X67452381Y-153319700D02*
X67214286Y-154033985D01*
X67214286Y-154033985D02*
X67833333Y-154033985D01*
X95704819Y-155392857D02*
X95228628Y-155726190D01*
X95704819Y-155964285D02*
X94704819Y-155964285D01*
X94704819Y-155964285D02*
X94704819Y-155583333D01*
X94704819Y-155583333D02*
X94752438Y-155488095D01*
X94752438Y-155488095D02*
X94800057Y-155440476D01*
X94800057Y-155440476D02*
X94895295Y-155392857D01*
X94895295Y-155392857D02*
X95038152Y-155392857D01*
X95038152Y-155392857D02*
X95133390Y-155440476D01*
X95133390Y-155440476D02*
X95181009Y-155488095D01*
X95181009Y-155488095D02*
X95228628Y-155583333D01*
X95228628Y-155583333D02*
X95228628Y-155964285D01*
X95704819Y-154440476D02*
X95704819Y-155011904D01*
X95704819Y-154726190D02*
X94704819Y-154726190D01*
X94704819Y-154726190D02*
X94847676Y-154821428D01*
X94847676Y-154821428D02*
X94942914Y-154916666D01*
X94942914Y-154916666D02*
X94990533Y-155011904D01*
X94704819Y-154107142D02*
X94704819Y-153440476D01*
X94704819Y-153440476D02*
X95704819Y-153869047D01*
X95083333Y-148617319D02*
X94750000Y-148141128D01*
X94511905Y-148617319D02*
X94511905Y-147617319D01*
X94511905Y-147617319D02*
X94892857Y-147617319D01*
X94892857Y-147617319D02*
X94988095Y-147664938D01*
X94988095Y-147664938D02*
X95035714Y-147712557D01*
X95035714Y-147712557D02*
X95083333Y-147807795D01*
X95083333Y-147807795D02*
X95083333Y-147950652D01*
X95083333Y-147950652D02*
X95035714Y-148045890D01*
X95035714Y-148045890D02*
X94988095Y-148093509D01*
X94988095Y-148093509D02*
X94892857Y-148141128D01*
X94892857Y-148141128D02*
X94511905Y-148141128D01*
X96035714Y-148617319D02*
X95464286Y-148617319D01*
X95750000Y-148617319D02*
X95750000Y-147617319D01*
X95750000Y-147617319D02*
X95654762Y-147760176D01*
X95654762Y-147760176D02*
X95559524Y-147855414D01*
X95559524Y-147855414D02*
X95464286Y-147903033D01*
X97204819Y-155392857D02*
X96728628Y-155726190D01*
X97204819Y-155964285D02*
X96204819Y-155964285D01*
X96204819Y-155964285D02*
X96204819Y-155583333D01*
X96204819Y-155583333D02*
X96252438Y-155488095D01*
X96252438Y-155488095D02*
X96300057Y-155440476D01*
X96300057Y-155440476D02*
X96395295Y-155392857D01*
X96395295Y-155392857D02*
X96538152Y-155392857D01*
X96538152Y-155392857D02*
X96633390Y-155440476D01*
X96633390Y-155440476D02*
X96681009Y-155488095D01*
X96681009Y-155488095D02*
X96728628Y-155583333D01*
X96728628Y-155583333D02*
X96728628Y-155964285D01*
X96300057Y-155011904D02*
X96252438Y-154964285D01*
X96252438Y-154964285D02*
X96204819Y-154869047D01*
X96204819Y-154869047D02*
X96204819Y-154630952D01*
X96204819Y-154630952D02*
X96252438Y-154535714D01*
X96252438Y-154535714D02*
X96300057Y-154488095D01*
X96300057Y-154488095D02*
X96395295Y-154440476D01*
X96395295Y-154440476D02*
X96490533Y-154440476D01*
X96490533Y-154440476D02*
X96633390Y-154488095D01*
X96633390Y-154488095D02*
X97204819Y-155059523D01*
X97204819Y-155059523D02*
X97204819Y-154440476D01*
X96300057Y-154059523D02*
X96252438Y-154011904D01*
X96252438Y-154011904D02*
X96204819Y-153916666D01*
X96204819Y-153916666D02*
X96204819Y-153678571D01*
X96204819Y-153678571D02*
X96252438Y-153583333D01*
X96252438Y-153583333D02*
X96300057Y-153535714D01*
X96300057Y-153535714D02*
X96395295Y-153488095D01*
X96395295Y-153488095D02*
X96490533Y-153488095D01*
X96490533Y-153488095D02*
X96633390Y-153535714D01*
X96633390Y-153535714D02*
X97204819Y-154107142D01*
X97204819Y-154107142D02*
X97204819Y-153488095D01*
X90357142Y-138554819D02*
X90023809Y-138078628D01*
X89785714Y-138554819D02*
X89785714Y-137554819D01*
X89785714Y-137554819D02*
X90166666Y-137554819D01*
X90166666Y-137554819D02*
X90261904Y-137602438D01*
X90261904Y-137602438D02*
X90309523Y-137650057D01*
X90309523Y-137650057D02*
X90357142Y-137745295D01*
X90357142Y-137745295D02*
X90357142Y-137888152D01*
X90357142Y-137888152D02*
X90309523Y-137983390D01*
X90309523Y-137983390D02*
X90261904Y-138031009D01*
X90261904Y-138031009D02*
X90166666Y-138078628D01*
X90166666Y-138078628D02*
X89785714Y-138078628D01*
X90738095Y-137650057D02*
X90785714Y-137602438D01*
X90785714Y-137602438D02*
X90880952Y-137554819D01*
X90880952Y-137554819D02*
X91119047Y-137554819D01*
X91119047Y-137554819D02*
X91214285Y-137602438D01*
X91214285Y-137602438D02*
X91261904Y-137650057D01*
X91261904Y-137650057D02*
X91309523Y-137745295D01*
X91309523Y-137745295D02*
X91309523Y-137840533D01*
X91309523Y-137840533D02*
X91261904Y-137983390D01*
X91261904Y-137983390D02*
X90690476Y-138554819D01*
X90690476Y-138554819D02*
X91309523Y-138554819D01*
X92166666Y-137888152D02*
X92166666Y-138554819D01*
X91928571Y-137507200D02*
X91690476Y-138221485D01*
X91690476Y-138221485D02*
X92309523Y-138221485D01*
X125916666Y-135704819D02*
X125916666Y-136419104D01*
X125916666Y-136419104D02*
X125869047Y-136561961D01*
X125869047Y-136561961D02*
X125773809Y-136657200D01*
X125773809Y-136657200D02*
X125630952Y-136704819D01*
X125630952Y-136704819D02*
X125535714Y-136704819D01*
X126297619Y-135704819D02*
X126964285Y-135704819D01*
X126964285Y-135704819D02*
X126535714Y-136704819D01*
X105329819Y-143416666D02*
X104853628Y-143749999D01*
X105329819Y-143988094D02*
X104329819Y-143988094D01*
X104329819Y-143988094D02*
X104329819Y-143607142D01*
X104329819Y-143607142D02*
X104377438Y-143511904D01*
X104377438Y-143511904D02*
X104425057Y-143464285D01*
X104425057Y-143464285D02*
X104520295Y-143416666D01*
X104520295Y-143416666D02*
X104663152Y-143416666D01*
X104663152Y-143416666D02*
X104758390Y-143464285D01*
X104758390Y-143464285D02*
X104806009Y-143511904D01*
X104806009Y-143511904D02*
X104853628Y-143607142D01*
X104853628Y-143607142D02*
X104853628Y-143988094D01*
X104329819Y-143083332D02*
X104329819Y-142464285D01*
X104329819Y-142464285D02*
X104710771Y-142797618D01*
X104710771Y-142797618D02*
X104710771Y-142654761D01*
X104710771Y-142654761D02*
X104758390Y-142559523D01*
X104758390Y-142559523D02*
X104806009Y-142511904D01*
X104806009Y-142511904D02*
X104901247Y-142464285D01*
X104901247Y-142464285D02*
X105139342Y-142464285D01*
X105139342Y-142464285D02*
X105234580Y-142511904D01*
X105234580Y-142511904D02*
X105282200Y-142559523D01*
X105282200Y-142559523D02*
X105329819Y-142654761D01*
X105329819Y-142654761D02*
X105329819Y-142940475D01*
X105329819Y-142940475D02*
X105282200Y-143035713D01*
X105282200Y-143035713D02*
X105234580Y-143083332D01*
X80454819Y-66788094D02*
X79454819Y-66788094D01*
X79454819Y-66788094D02*
X79454819Y-66549999D01*
X79454819Y-66549999D02*
X79502438Y-66407142D01*
X79502438Y-66407142D02*
X79597676Y-66311904D01*
X79597676Y-66311904D02*
X79692914Y-66264285D01*
X79692914Y-66264285D02*
X79883390Y-66216666D01*
X79883390Y-66216666D02*
X80026247Y-66216666D01*
X80026247Y-66216666D02*
X80216723Y-66264285D01*
X80216723Y-66264285D02*
X80311961Y-66311904D01*
X80311961Y-66311904D02*
X80407200Y-66407142D01*
X80407200Y-66407142D02*
X80454819Y-66549999D01*
X80454819Y-66549999D02*
X80454819Y-66788094D01*
X79454819Y-65311904D02*
X79454819Y-65788094D01*
X79454819Y-65788094D02*
X79931009Y-65835713D01*
X79931009Y-65835713D02*
X79883390Y-65788094D01*
X79883390Y-65788094D02*
X79835771Y-65692856D01*
X79835771Y-65692856D02*
X79835771Y-65454761D01*
X79835771Y-65454761D02*
X79883390Y-65359523D01*
X79883390Y-65359523D02*
X79931009Y-65311904D01*
X79931009Y-65311904D02*
X80026247Y-65264285D01*
X80026247Y-65264285D02*
X80264342Y-65264285D01*
X80264342Y-65264285D02*
X80359580Y-65311904D01*
X80359580Y-65311904D02*
X80407200Y-65359523D01*
X80407200Y-65359523D02*
X80454819Y-65454761D01*
X80454819Y-65454761D02*
X80454819Y-65692856D01*
X80454819Y-65692856D02*
X80407200Y-65788094D01*
X80407200Y-65788094D02*
X80359580Y-65835713D01*
X145359580Y-125392857D02*
X145407200Y-125440476D01*
X145407200Y-125440476D02*
X145454819Y-125583333D01*
X145454819Y-125583333D02*
X145454819Y-125678571D01*
X145454819Y-125678571D02*
X145407200Y-125821428D01*
X145407200Y-125821428D02*
X145311961Y-125916666D01*
X145311961Y-125916666D02*
X145216723Y-125964285D01*
X145216723Y-125964285D02*
X145026247Y-126011904D01*
X145026247Y-126011904D02*
X144883390Y-126011904D01*
X144883390Y-126011904D02*
X144692914Y-125964285D01*
X144692914Y-125964285D02*
X144597676Y-125916666D01*
X144597676Y-125916666D02*
X144502438Y-125821428D01*
X144502438Y-125821428D02*
X144454819Y-125678571D01*
X144454819Y-125678571D02*
X144454819Y-125583333D01*
X144454819Y-125583333D02*
X144502438Y-125440476D01*
X144502438Y-125440476D02*
X144550057Y-125392857D01*
X145454819Y-124440476D02*
X145454819Y-125011904D01*
X145454819Y-124726190D02*
X144454819Y-124726190D01*
X144454819Y-124726190D02*
X144597676Y-124821428D01*
X144597676Y-124821428D02*
X144692914Y-124916666D01*
X144692914Y-124916666D02*
X144740533Y-125011904D01*
X144550057Y-124059523D02*
X144502438Y-124011904D01*
X144502438Y-124011904D02*
X144454819Y-123916666D01*
X144454819Y-123916666D02*
X144454819Y-123678571D01*
X144454819Y-123678571D02*
X144502438Y-123583333D01*
X144502438Y-123583333D02*
X144550057Y-123535714D01*
X144550057Y-123535714D02*
X144645295Y-123488095D01*
X144645295Y-123488095D02*
X144740533Y-123488095D01*
X144740533Y-123488095D02*
X144883390Y-123535714D01*
X144883390Y-123535714D02*
X145454819Y-124107142D01*
X145454819Y-124107142D02*
X145454819Y-123488095D01*
D14*
X93453365Y-159624166D02*
X93513842Y-159684642D01*
X93513842Y-159684642D02*
X93574318Y-159866071D01*
X93574318Y-159866071D02*
X93574318Y-159987023D01*
X93574318Y-159987023D02*
X93513842Y-160168452D01*
X93513842Y-160168452D02*
X93392889Y-160289404D01*
X93392889Y-160289404D02*
X93271937Y-160349881D01*
X93271937Y-160349881D02*
X93030032Y-160410357D01*
X93030032Y-160410357D02*
X92848603Y-160410357D01*
X92848603Y-160410357D02*
X92606699Y-160349881D01*
X92606699Y-160349881D02*
X92485746Y-160289404D01*
X92485746Y-160289404D02*
X92364794Y-160168452D01*
X92364794Y-160168452D02*
X92304318Y-159987023D01*
X92304318Y-159987023D02*
X92304318Y-159866071D01*
X92304318Y-159866071D02*
X92364794Y-159684642D01*
X92364794Y-159684642D02*
X92425270Y-159624166D01*
X92727651Y-158535595D02*
X93574318Y-158535595D01*
X92243842Y-158837976D02*
X93150984Y-159140357D01*
X93150984Y-159140357D02*
X93150984Y-158354166D01*
D10*
X86010200Y-157335431D02*
X86010200Y-158478289D01*
X85438771Y-157906860D02*
X86581628Y-157906860D01*
D13*
X122954819Y-155142857D02*
X122478628Y-155476190D01*
X122954819Y-155714285D02*
X121954819Y-155714285D01*
X121954819Y-155714285D02*
X121954819Y-155333333D01*
X121954819Y-155333333D02*
X122002438Y-155238095D01*
X122002438Y-155238095D02*
X122050057Y-155190476D01*
X122050057Y-155190476D02*
X122145295Y-155142857D01*
X122145295Y-155142857D02*
X122288152Y-155142857D01*
X122288152Y-155142857D02*
X122383390Y-155190476D01*
X122383390Y-155190476D02*
X122431009Y-155238095D01*
X122431009Y-155238095D02*
X122478628Y-155333333D01*
X122478628Y-155333333D02*
X122478628Y-155714285D01*
X122050057Y-154761904D02*
X122002438Y-154714285D01*
X122002438Y-154714285D02*
X121954819Y-154619047D01*
X121954819Y-154619047D02*
X121954819Y-154380952D01*
X121954819Y-154380952D02*
X122002438Y-154285714D01*
X122002438Y-154285714D02*
X122050057Y-154238095D01*
X122050057Y-154238095D02*
X122145295Y-154190476D01*
X122145295Y-154190476D02*
X122240533Y-154190476D01*
X122240533Y-154190476D02*
X122383390Y-154238095D01*
X122383390Y-154238095D02*
X122954819Y-154809523D01*
X122954819Y-154809523D02*
X122954819Y-154190476D01*
X122954819Y-153238095D02*
X122954819Y-153809523D01*
X122954819Y-153523809D02*
X121954819Y-153523809D01*
X121954819Y-153523809D02*
X122097676Y-153619047D01*
X122097676Y-153619047D02*
X122192914Y-153714285D01*
X122192914Y-153714285D02*
X122240533Y-153809523D01*
X92583333Y-148522080D02*
X92535714Y-148569700D01*
X92535714Y-148569700D02*
X92392857Y-148617319D01*
X92392857Y-148617319D02*
X92297619Y-148617319D01*
X92297619Y-148617319D02*
X92154762Y-148569700D01*
X92154762Y-148569700D02*
X92059524Y-148474461D01*
X92059524Y-148474461D02*
X92011905Y-148379223D01*
X92011905Y-148379223D02*
X91964286Y-148188747D01*
X91964286Y-148188747D02*
X91964286Y-148045890D01*
X91964286Y-148045890D02*
X92011905Y-147855414D01*
X92011905Y-147855414D02*
X92059524Y-147760176D01*
X92059524Y-147760176D02*
X92154762Y-147664938D01*
X92154762Y-147664938D02*
X92297619Y-147617319D01*
X92297619Y-147617319D02*
X92392857Y-147617319D01*
X92392857Y-147617319D02*
X92535714Y-147664938D01*
X92535714Y-147664938D02*
X92583333Y-147712557D01*
X93488095Y-147617319D02*
X93011905Y-147617319D01*
X93011905Y-147617319D02*
X92964286Y-148093509D01*
X92964286Y-148093509D02*
X93011905Y-148045890D01*
X93011905Y-148045890D02*
X93107143Y-147998271D01*
X93107143Y-147998271D02*
X93345238Y-147998271D01*
X93345238Y-147998271D02*
X93440476Y-148045890D01*
X93440476Y-148045890D02*
X93488095Y-148093509D01*
X93488095Y-148093509D02*
X93535714Y-148188747D01*
X93535714Y-148188747D02*
X93535714Y-148426842D01*
X93535714Y-148426842D02*
X93488095Y-148522080D01*
X93488095Y-148522080D02*
X93440476Y-148569700D01*
X93440476Y-148569700D02*
X93345238Y-148617319D01*
X93345238Y-148617319D02*
X93107143Y-148617319D01*
X93107143Y-148617319D02*
X93011905Y-148569700D01*
X93011905Y-148569700D02*
X92964286Y-148522080D01*
X128550057Y-109595238D02*
X128502438Y-109690476D01*
X128502438Y-109690476D02*
X128407200Y-109785714D01*
X128407200Y-109785714D02*
X128264342Y-109928571D01*
X128264342Y-109928571D02*
X128216723Y-110023809D01*
X128216723Y-110023809D02*
X128216723Y-110119047D01*
X128454819Y-110071428D02*
X128407200Y-110166666D01*
X128407200Y-110166666D02*
X128311961Y-110261904D01*
X128311961Y-110261904D02*
X128121485Y-110309523D01*
X128121485Y-110309523D02*
X127788152Y-110309523D01*
X127788152Y-110309523D02*
X127597676Y-110261904D01*
X127597676Y-110261904D02*
X127502438Y-110166666D01*
X127502438Y-110166666D02*
X127454819Y-110071428D01*
X127454819Y-110071428D02*
X127454819Y-109880952D01*
X127454819Y-109880952D02*
X127502438Y-109785714D01*
X127502438Y-109785714D02*
X127597676Y-109690476D01*
X127597676Y-109690476D02*
X127788152Y-109642857D01*
X127788152Y-109642857D02*
X128121485Y-109642857D01*
X128121485Y-109642857D02*
X128311961Y-109690476D01*
X128311961Y-109690476D02*
X128407200Y-109785714D01*
X128407200Y-109785714D02*
X128454819Y-109880952D01*
X128454819Y-109880952D02*
X128454819Y-110071428D01*
X127550057Y-109261904D02*
X127502438Y-109214285D01*
X127502438Y-109214285D02*
X127454819Y-109119047D01*
X127454819Y-109119047D02*
X127454819Y-108880952D01*
X127454819Y-108880952D02*
X127502438Y-108785714D01*
X127502438Y-108785714D02*
X127550057Y-108738095D01*
X127550057Y-108738095D02*
X127645295Y-108690476D01*
X127645295Y-108690476D02*
X127740533Y-108690476D01*
X127740533Y-108690476D02*
X127883390Y-108738095D01*
X127883390Y-108738095D02*
X128454819Y-109309523D01*
X128454819Y-109309523D02*
X128454819Y-108690476D01*
X129962319Y-149591904D02*
X130771842Y-149591904D01*
X130771842Y-149591904D02*
X130867080Y-149544285D01*
X130867080Y-149544285D02*
X130914700Y-149496666D01*
X130914700Y-149496666D02*
X130962319Y-149401428D01*
X130962319Y-149401428D02*
X130962319Y-149210952D01*
X130962319Y-149210952D02*
X130914700Y-149115714D01*
X130914700Y-149115714D02*
X130867080Y-149068095D01*
X130867080Y-149068095D02*
X130771842Y-149020476D01*
X130771842Y-149020476D02*
X129962319Y-149020476D01*
X130057557Y-148591904D02*
X130009938Y-148544285D01*
X130009938Y-148544285D02*
X129962319Y-148449047D01*
X129962319Y-148449047D02*
X129962319Y-148210952D01*
X129962319Y-148210952D02*
X130009938Y-148115714D01*
X130009938Y-148115714D02*
X130057557Y-148068095D01*
X130057557Y-148068095D02*
X130152795Y-148020476D01*
X130152795Y-148020476D02*
X130248033Y-148020476D01*
X130248033Y-148020476D02*
X130390890Y-148068095D01*
X130390890Y-148068095D02*
X130962319Y-148639523D01*
X130962319Y-148639523D02*
X130962319Y-148020476D01*
X66607142Y-147617319D02*
X66273809Y-147141128D01*
X66035714Y-147617319D02*
X66035714Y-146617319D01*
X66035714Y-146617319D02*
X66416666Y-146617319D01*
X66416666Y-146617319D02*
X66511904Y-146664938D01*
X66511904Y-146664938D02*
X66559523Y-146712557D01*
X66559523Y-146712557D02*
X66607142Y-146807795D01*
X66607142Y-146807795D02*
X66607142Y-146950652D01*
X66607142Y-146950652D02*
X66559523Y-147045890D01*
X66559523Y-147045890D02*
X66511904Y-147093509D01*
X66511904Y-147093509D02*
X66416666Y-147141128D01*
X66416666Y-147141128D02*
X66035714Y-147141128D01*
X67559523Y-147617319D02*
X66988095Y-147617319D01*
X67273809Y-147617319D02*
X67273809Y-146617319D01*
X67273809Y-146617319D02*
X67178571Y-146760176D01*
X67178571Y-146760176D02*
X67083333Y-146855414D01*
X67083333Y-146855414D02*
X66988095Y-146903033D01*
X68130952Y-147045890D02*
X68035714Y-146998271D01*
X68035714Y-146998271D02*
X67988095Y-146950652D01*
X67988095Y-146950652D02*
X67940476Y-146855414D01*
X67940476Y-146855414D02*
X67940476Y-146807795D01*
X67940476Y-146807795D02*
X67988095Y-146712557D01*
X67988095Y-146712557D02*
X68035714Y-146664938D01*
X68035714Y-146664938D02*
X68130952Y-146617319D01*
X68130952Y-146617319D02*
X68321428Y-146617319D01*
X68321428Y-146617319D02*
X68416666Y-146664938D01*
X68416666Y-146664938D02*
X68464285Y-146712557D01*
X68464285Y-146712557D02*
X68511904Y-146807795D01*
X68511904Y-146807795D02*
X68511904Y-146855414D01*
X68511904Y-146855414D02*
X68464285Y-146950652D01*
X68464285Y-146950652D02*
X68416666Y-146998271D01*
X68416666Y-146998271D02*
X68321428Y-147045890D01*
X68321428Y-147045890D02*
X68130952Y-147045890D01*
X68130952Y-147045890D02*
X68035714Y-147093509D01*
X68035714Y-147093509D02*
X67988095Y-147141128D01*
X67988095Y-147141128D02*
X67940476Y-147236366D01*
X67940476Y-147236366D02*
X67940476Y-147426842D01*
X67940476Y-147426842D02*
X67988095Y-147522080D01*
X67988095Y-147522080D02*
X68035714Y-147569700D01*
X68035714Y-147569700D02*
X68130952Y-147617319D01*
X68130952Y-147617319D02*
X68321428Y-147617319D01*
X68321428Y-147617319D02*
X68416666Y-147569700D01*
X68416666Y-147569700D02*
X68464285Y-147522080D01*
X68464285Y-147522080D02*
X68511904Y-147426842D01*
X68511904Y-147426842D02*
X68511904Y-147236366D01*
X68511904Y-147236366D02*
X68464285Y-147141128D01*
X68464285Y-147141128D02*
X68416666Y-147093509D01*
X68416666Y-147093509D02*
X68321428Y-147045890D01*
X143107142Y-130609580D02*
X143059523Y-130657200D01*
X143059523Y-130657200D02*
X142916666Y-130704819D01*
X142916666Y-130704819D02*
X142821428Y-130704819D01*
X142821428Y-130704819D02*
X142678571Y-130657200D01*
X142678571Y-130657200D02*
X142583333Y-130561961D01*
X142583333Y-130561961D02*
X142535714Y-130466723D01*
X142535714Y-130466723D02*
X142488095Y-130276247D01*
X142488095Y-130276247D02*
X142488095Y-130133390D01*
X142488095Y-130133390D02*
X142535714Y-129942914D01*
X142535714Y-129942914D02*
X142583333Y-129847676D01*
X142583333Y-129847676D02*
X142678571Y-129752438D01*
X142678571Y-129752438D02*
X142821428Y-129704819D01*
X142821428Y-129704819D02*
X142916666Y-129704819D01*
X142916666Y-129704819D02*
X143059523Y-129752438D01*
X143059523Y-129752438D02*
X143107142Y-129800057D01*
X144059523Y-130704819D02*
X143488095Y-130704819D01*
X143773809Y-130704819D02*
X143773809Y-129704819D01*
X143773809Y-129704819D02*
X143678571Y-129847676D01*
X143678571Y-129847676D02*
X143583333Y-129942914D01*
X143583333Y-129942914D02*
X143488095Y-129990533D01*
X145011904Y-130704819D02*
X144440476Y-130704819D01*
X144726190Y-130704819D02*
X144726190Y-129704819D01*
X144726190Y-129704819D02*
X144630952Y-129847676D01*
X144630952Y-129847676D02*
X144535714Y-129942914D01*
X144535714Y-129942914D02*
X144440476Y-129990533D01*
X104604819Y-147004166D02*
X104128628Y-147337499D01*
X104604819Y-147575594D02*
X103604819Y-147575594D01*
X103604819Y-147575594D02*
X103604819Y-147194642D01*
X103604819Y-147194642D02*
X103652438Y-147099404D01*
X103652438Y-147099404D02*
X103700057Y-147051785D01*
X103700057Y-147051785D02*
X103795295Y-147004166D01*
X103795295Y-147004166D02*
X103938152Y-147004166D01*
X103938152Y-147004166D02*
X104033390Y-147051785D01*
X104033390Y-147051785D02*
X104081009Y-147099404D01*
X104081009Y-147099404D02*
X104128628Y-147194642D01*
X104128628Y-147194642D02*
X104128628Y-147575594D01*
X103604819Y-146670832D02*
X103604819Y-146004166D01*
X103604819Y-146004166D02*
X104604819Y-146432737D01*
X109488095Y-152604819D02*
X109488095Y-153414342D01*
X109488095Y-153414342D02*
X109535714Y-153509580D01*
X109535714Y-153509580D02*
X109583333Y-153557200D01*
X109583333Y-153557200D02*
X109678571Y-153604819D01*
X109678571Y-153604819D02*
X109869047Y-153604819D01*
X109869047Y-153604819D02*
X109964285Y-153557200D01*
X109964285Y-153557200D02*
X110011904Y-153509580D01*
X110011904Y-153509580D02*
X110059523Y-153414342D01*
X110059523Y-153414342D02*
X110059523Y-152604819D01*
X111059523Y-153604819D02*
X110488095Y-153604819D01*
X110773809Y-153604819D02*
X110773809Y-152604819D01*
X110773809Y-152604819D02*
X110678571Y-152747676D01*
X110678571Y-152747676D02*
X110583333Y-152842914D01*
X110583333Y-152842914D02*
X110488095Y-152890533D01*
D14*
X62183571Y-144203365D02*
X62123095Y-144263842D01*
X62123095Y-144263842D02*
X61941666Y-144324318D01*
X61941666Y-144324318D02*
X61820714Y-144324318D01*
X61820714Y-144324318D02*
X61639285Y-144263842D01*
X61639285Y-144263842D02*
X61518333Y-144142889D01*
X61518333Y-144142889D02*
X61457856Y-144021937D01*
X61457856Y-144021937D02*
X61397380Y-143780032D01*
X61397380Y-143780032D02*
X61397380Y-143598603D01*
X61397380Y-143598603D02*
X61457856Y-143356699D01*
X61457856Y-143356699D02*
X61518333Y-143235746D01*
X61518333Y-143235746D02*
X61639285Y-143114794D01*
X61639285Y-143114794D02*
X61820714Y-143054318D01*
X61820714Y-143054318D02*
X61941666Y-143054318D01*
X61941666Y-143054318D02*
X62123095Y-143114794D01*
X62123095Y-143114794D02*
X62183571Y-143175270D01*
X62667380Y-143175270D02*
X62727856Y-143114794D01*
X62727856Y-143114794D02*
X62848809Y-143054318D01*
X62848809Y-143054318D02*
X63151190Y-143054318D01*
X63151190Y-143054318D02*
X63272142Y-143114794D01*
X63272142Y-143114794D02*
X63332618Y-143175270D01*
X63332618Y-143175270D02*
X63393095Y-143296222D01*
X63393095Y-143296222D02*
X63393095Y-143417175D01*
X63393095Y-143417175D02*
X63332618Y-143598603D01*
X63332618Y-143598603D02*
X62606904Y-144324318D01*
X62606904Y-144324318D02*
X63393095Y-144324318D01*
X64602619Y-144324318D02*
X63876904Y-144324318D01*
X64239761Y-144324318D02*
X64239761Y-143054318D01*
X64239761Y-143054318D02*
X64118809Y-143235746D01*
X64118809Y-143235746D02*
X63997857Y-143356699D01*
X63997857Y-143356699D02*
X63876904Y-143417175D01*
D13*
X108333333Y-162664580D02*
X108285714Y-162712200D01*
X108285714Y-162712200D02*
X108142857Y-162759819D01*
X108142857Y-162759819D02*
X108047619Y-162759819D01*
X108047619Y-162759819D02*
X107904762Y-162712200D01*
X107904762Y-162712200D02*
X107809524Y-162616961D01*
X107809524Y-162616961D02*
X107761905Y-162521723D01*
X107761905Y-162521723D02*
X107714286Y-162331247D01*
X107714286Y-162331247D02*
X107714286Y-162188390D01*
X107714286Y-162188390D02*
X107761905Y-161997914D01*
X107761905Y-161997914D02*
X107809524Y-161902676D01*
X107809524Y-161902676D02*
X107904762Y-161807438D01*
X107904762Y-161807438D02*
X108047619Y-161759819D01*
X108047619Y-161759819D02*
X108142857Y-161759819D01*
X108142857Y-161759819D02*
X108285714Y-161807438D01*
X108285714Y-161807438D02*
X108333333Y-161855057D01*
X109285714Y-162759819D02*
X108714286Y-162759819D01*
X109000000Y-162759819D02*
X109000000Y-161759819D01*
X109000000Y-161759819D02*
X108904762Y-161902676D01*
X108904762Y-161902676D02*
X108809524Y-161997914D01*
X108809524Y-161997914D02*
X108714286Y-162045533D01*
X89154761Y-148712557D02*
X89059523Y-148664938D01*
X89059523Y-148664938D02*
X88964285Y-148569700D01*
X88964285Y-148569700D02*
X88821428Y-148426842D01*
X88821428Y-148426842D02*
X88726190Y-148379223D01*
X88726190Y-148379223D02*
X88630952Y-148379223D01*
X88678571Y-148617319D02*
X88583333Y-148569700D01*
X88583333Y-148569700D02*
X88488095Y-148474461D01*
X88488095Y-148474461D02*
X88440476Y-148283985D01*
X88440476Y-148283985D02*
X88440476Y-147950652D01*
X88440476Y-147950652D02*
X88488095Y-147760176D01*
X88488095Y-147760176D02*
X88583333Y-147664938D01*
X88583333Y-147664938D02*
X88678571Y-147617319D01*
X88678571Y-147617319D02*
X88869047Y-147617319D01*
X88869047Y-147617319D02*
X88964285Y-147664938D01*
X88964285Y-147664938D02*
X89059523Y-147760176D01*
X89059523Y-147760176D02*
X89107142Y-147950652D01*
X89107142Y-147950652D02*
X89107142Y-148283985D01*
X89107142Y-148283985D02*
X89059523Y-148474461D01*
X89059523Y-148474461D02*
X88964285Y-148569700D01*
X88964285Y-148569700D02*
X88869047Y-148617319D01*
X88869047Y-148617319D02*
X88678571Y-148617319D01*
X90059523Y-148617319D02*
X89488095Y-148617319D01*
X89773809Y-148617319D02*
X89773809Y-147617319D01*
X89773809Y-147617319D02*
X89678571Y-147760176D01*
X89678571Y-147760176D02*
X89583333Y-147855414D01*
X89583333Y-147855414D02*
X89488095Y-147903033D01*
X98704819Y-159142857D02*
X98228628Y-159476190D01*
X98704819Y-159714285D02*
X97704819Y-159714285D01*
X97704819Y-159714285D02*
X97704819Y-159333333D01*
X97704819Y-159333333D02*
X97752438Y-159238095D01*
X97752438Y-159238095D02*
X97800057Y-159190476D01*
X97800057Y-159190476D02*
X97895295Y-159142857D01*
X97895295Y-159142857D02*
X98038152Y-159142857D01*
X98038152Y-159142857D02*
X98133390Y-159190476D01*
X98133390Y-159190476D02*
X98181009Y-159238095D01*
X98181009Y-159238095D02*
X98228628Y-159333333D01*
X98228628Y-159333333D02*
X98228628Y-159714285D01*
X98704819Y-158190476D02*
X98704819Y-158761904D01*
X98704819Y-158476190D02*
X97704819Y-158476190D01*
X97704819Y-158476190D02*
X97847676Y-158571428D01*
X97847676Y-158571428D02*
X97942914Y-158666666D01*
X97942914Y-158666666D02*
X97990533Y-158761904D01*
X98038152Y-157333333D02*
X98704819Y-157333333D01*
X97657200Y-157571428D02*
X98371485Y-157809523D01*
X98371485Y-157809523D02*
X98371485Y-157190476D01*
X66357142Y-150867319D02*
X66023809Y-150391128D01*
X65785714Y-150867319D02*
X65785714Y-149867319D01*
X65785714Y-149867319D02*
X66166666Y-149867319D01*
X66166666Y-149867319D02*
X66261904Y-149914938D01*
X66261904Y-149914938D02*
X66309523Y-149962557D01*
X66309523Y-149962557D02*
X66357142Y-150057795D01*
X66357142Y-150057795D02*
X66357142Y-150200652D01*
X66357142Y-150200652D02*
X66309523Y-150295890D01*
X66309523Y-150295890D02*
X66261904Y-150343509D01*
X66261904Y-150343509D02*
X66166666Y-150391128D01*
X66166666Y-150391128D02*
X65785714Y-150391128D01*
X67309523Y-150867319D02*
X66738095Y-150867319D01*
X67023809Y-150867319D02*
X67023809Y-149867319D01*
X67023809Y-149867319D02*
X66928571Y-150010176D01*
X66928571Y-150010176D02*
X66833333Y-150105414D01*
X66833333Y-150105414D02*
X66738095Y-150153033D01*
X68214285Y-149867319D02*
X67738095Y-149867319D01*
X67738095Y-149867319D02*
X67690476Y-150343509D01*
X67690476Y-150343509D02*
X67738095Y-150295890D01*
X67738095Y-150295890D02*
X67833333Y-150248271D01*
X67833333Y-150248271D02*
X68071428Y-150248271D01*
X68071428Y-150248271D02*
X68166666Y-150295890D01*
X68166666Y-150295890D02*
X68214285Y-150343509D01*
X68214285Y-150343509D02*
X68261904Y-150438747D01*
X68261904Y-150438747D02*
X68261904Y-150676842D01*
X68261904Y-150676842D02*
X68214285Y-150772080D01*
X68214285Y-150772080D02*
X68166666Y-150819700D01*
X68166666Y-150819700D02*
X68071428Y-150867319D01*
X68071428Y-150867319D02*
X67833333Y-150867319D01*
X67833333Y-150867319D02*
X67738095Y-150819700D01*
X67738095Y-150819700D02*
X67690476Y-150772080D01*
D14*
X143683571Y-140703365D02*
X143623095Y-140763842D01*
X143623095Y-140763842D02*
X143441666Y-140824318D01*
X143441666Y-140824318D02*
X143320714Y-140824318D01*
X143320714Y-140824318D02*
X143139285Y-140763842D01*
X143139285Y-140763842D02*
X143018333Y-140642889D01*
X143018333Y-140642889D02*
X142957856Y-140521937D01*
X142957856Y-140521937D02*
X142897380Y-140280032D01*
X142897380Y-140280032D02*
X142897380Y-140098603D01*
X142897380Y-140098603D02*
X142957856Y-139856699D01*
X142957856Y-139856699D02*
X143018333Y-139735746D01*
X143018333Y-139735746D02*
X143139285Y-139614794D01*
X143139285Y-139614794D02*
X143320714Y-139554318D01*
X143320714Y-139554318D02*
X143441666Y-139554318D01*
X143441666Y-139554318D02*
X143623095Y-139614794D01*
X143623095Y-139614794D02*
X143683571Y-139675270D01*
X144893095Y-140824318D02*
X144167380Y-140824318D01*
X144530237Y-140824318D02*
X144530237Y-139554318D01*
X144530237Y-139554318D02*
X144409285Y-139735746D01*
X144409285Y-139735746D02*
X144288333Y-139856699D01*
X144288333Y-139856699D02*
X144167380Y-139917175D01*
X145618809Y-140098603D02*
X145497857Y-140038127D01*
X145497857Y-140038127D02*
X145437380Y-139977651D01*
X145437380Y-139977651D02*
X145376904Y-139856699D01*
X145376904Y-139856699D02*
X145376904Y-139796222D01*
X145376904Y-139796222D02*
X145437380Y-139675270D01*
X145437380Y-139675270D02*
X145497857Y-139614794D01*
X145497857Y-139614794D02*
X145618809Y-139554318D01*
X145618809Y-139554318D02*
X145860714Y-139554318D01*
X145860714Y-139554318D02*
X145981666Y-139614794D01*
X145981666Y-139614794D02*
X146042142Y-139675270D01*
X146042142Y-139675270D02*
X146102619Y-139796222D01*
X146102619Y-139796222D02*
X146102619Y-139856699D01*
X146102619Y-139856699D02*
X146042142Y-139977651D01*
X146042142Y-139977651D02*
X145981666Y-140038127D01*
X145981666Y-140038127D02*
X145860714Y-140098603D01*
X145860714Y-140098603D02*
X145618809Y-140098603D01*
X145618809Y-140098603D02*
X145497857Y-140159080D01*
X145497857Y-140159080D02*
X145437380Y-140219556D01*
X145437380Y-140219556D02*
X145376904Y-140340508D01*
X145376904Y-140340508D02*
X145376904Y-140582413D01*
X145376904Y-140582413D02*
X145437380Y-140703365D01*
X145437380Y-140703365D02*
X145497857Y-140763842D01*
X145497857Y-140763842D02*
X145618809Y-140824318D01*
X145618809Y-140824318D02*
X145860714Y-140824318D01*
X145860714Y-140824318D02*
X145981666Y-140763842D01*
X145981666Y-140763842D02*
X146042142Y-140703365D01*
X146042142Y-140703365D02*
X146102619Y-140582413D01*
X146102619Y-140582413D02*
X146102619Y-140340508D01*
X146102619Y-140340508D02*
X146042142Y-140219556D01*
X146042142Y-140219556D02*
X145981666Y-140159080D01*
X145981666Y-140159080D02*
X145860714Y-140098603D01*
D10*
X146327068Y-133510200D02*
X145184211Y-133510200D01*
X145755639Y-132938771D02*
X145755639Y-134081628D01*
D13*
X113851666Y-68454819D02*
X113851666Y-69169104D01*
X113851666Y-69169104D02*
X113804047Y-69311961D01*
X113804047Y-69311961D02*
X113708809Y-69407200D01*
X113708809Y-69407200D02*
X113565952Y-69454819D01*
X113565952Y-69454819D02*
X113470714Y-69454819D01*
X114280238Y-68550057D02*
X114327857Y-68502438D01*
X114327857Y-68502438D02*
X114423095Y-68454819D01*
X114423095Y-68454819D02*
X114661190Y-68454819D01*
X114661190Y-68454819D02*
X114756428Y-68502438D01*
X114756428Y-68502438D02*
X114804047Y-68550057D01*
X114804047Y-68550057D02*
X114851666Y-68645295D01*
X114851666Y-68645295D02*
X114851666Y-68740533D01*
X114851666Y-68740533D02*
X114804047Y-68883390D01*
X114804047Y-68883390D02*
X114232619Y-69454819D01*
X114232619Y-69454819D02*
X114851666Y-69454819D01*
X90357142Y-134804819D02*
X90023809Y-134328628D01*
X89785714Y-134804819D02*
X89785714Y-133804819D01*
X89785714Y-133804819D02*
X90166666Y-133804819D01*
X90166666Y-133804819D02*
X90261904Y-133852438D01*
X90261904Y-133852438D02*
X90309523Y-133900057D01*
X90309523Y-133900057D02*
X90357142Y-133995295D01*
X90357142Y-133995295D02*
X90357142Y-134138152D01*
X90357142Y-134138152D02*
X90309523Y-134233390D01*
X90309523Y-134233390D02*
X90261904Y-134281009D01*
X90261904Y-134281009D02*
X90166666Y-134328628D01*
X90166666Y-134328628D02*
X89785714Y-134328628D01*
X90738095Y-133900057D02*
X90785714Y-133852438D01*
X90785714Y-133852438D02*
X90880952Y-133804819D01*
X90880952Y-133804819D02*
X91119047Y-133804819D01*
X91119047Y-133804819D02*
X91214285Y-133852438D01*
X91214285Y-133852438D02*
X91261904Y-133900057D01*
X91261904Y-133900057D02*
X91309523Y-133995295D01*
X91309523Y-133995295D02*
X91309523Y-134090533D01*
X91309523Y-134090533D02*
X91261904Y-134233390D01*
X91261904Y-134233390D02*
X90690476Y-134804819D01*
X90690476Y-134804819D02*
X91309523Y-134804819D01*
X92166666Y-133804819D02*
X91976190Y-133804819D01*
X91976190Y-133804819D02*
X91880952Y-133852438D01*
X91880952Y-133852438D02*
X91833333Y-133900057D01*
X91833333Y-133900057D02*
X91738095Y-134042914D01*
X91738095Y-134042914D02*
X91690476Y-134233390D01*
X91690476Y-134233390D02*
X91690476Y-134614342D01*
X91690476Y-134614342D02*
X91738095Y-134709580D01*
X91738095Y-134709580D02*
X91785714Y-134757200D01*
X91785714Y-134757200D02*
X91880952Y-134804819D01*
X91880952Y-134804819D02*
X92071428Y-134804819D01*
X92071428Y-134804819D02*
X92166666Y-134757200D01*
X92166666Y-134757200D02*
X92214285Y-134709580D01*
X92214285Y-134709580D02*
X92261904Y-134614342D01*
X92261904Y-134614342D02*
X92261904Y-134376247D01*
X92261904Y-134376247D02*
X92214285Y-134281009D01*
X92214285Y-134281009D02*
X92166666Y-134233390D01*
X92166666Y-134233390D02*
X92071428Y-134185771D01*
X92071428Y-134185771D02*
X91880952Y-134185771D01*
X91880952Y-134185771D02*
X91785714Y-134233390D01*
X91785714Y-134233390D02*
X91738095Y-134281009D01*
X91738095Y-134281009D02*
X91690476Y-134376247D01*
X128454819Y-96738094D02*
X127454819Y-96738094D01*
X127454819Y-96738094D02*
X127454819Y-96499999D01*
X127454819Y-96499999D02*
X127502438Y-96357142D01*
X127502438Y-96357142D02*
X127597676Y-96261904D01*
X127597676Y-96261904D02*
X127692914Y-96214285D01*
X127692914Y-96214285D02*
X127883390Y-96166666D01*
X127883390Y-96166666D02*
X128026247Y-96166666D01*
X128026247Y-96166666D02*
X128216723Y-96214285D01*
X128216723Y-96214285D02*
X128311961Y-96261904D01*
X128311961Y-96261904D02*
X128407200Y-96357142D01*
X128407200Y-96357142D02*
X128454819Y-96499999D01*
X128454819Y-96499999D02*
X128454819Y-96738094D01*
X127883390Y-95595237D02*
X127835771Y-95690475D01*
X127835771Y-95690475D02*
X127788152Y-95738094D01*
X127788152Y-95738094D02*
X127692914Y-95785713D01*
X127692914Y-95785713D02*
X127645295Y-95785713D01*
X127645295Y-95785713D02*
X127550057Y-95738094D01*
X127550057Y-95738094D02*
X127502438Y-95690475D01*
X127502438Y-95690475D02*
X127454819Y-95595237D01*
X127454819Y-95595237D02*
X127454819Y-95404761D01*
X127454819Y-95404761D02*
X127502438Y-95309523D01*
X127502438Y-95309523D02*
X127550057Y-95261904D01*
X127550057Y-95261904D02*
X127645295Y-95214285D01*
X127645295Y-95214285D02*
X127692914Y-95214285D01*
X127692914Y-95214285D02*
X127788152Y-95261904D01*
X127788152Y-95261904D02*
X127835771Y-95309523D01*
X127835771Y-95309523D02*
X127883390Y-95404761D01*
X127883390Y-95404761D02*
X127883390Y-95595237D01*
X127883390Y-95595237D02*
X127931009Y-95690475D01*
X127931009Y-95690475D02*
X127978628Y-95738094D01*
X127978628Y-95738094D02*
X128073866Y-95785713D01*
X128073866Y-95785713D02*
X128264342Y-95785713D01*
X128264342Y-95785713D02*
X128359580Y-95738094D01*
X128359580Y-95738094D02*
X128407200Y-95690475D01*
X128407200Y-95690475D02*
X128454819Y-95595237D01*
X128454819Y-95595237D02*
X128454819Y-95404761D01*
X128454819Y-95404761D02*
X128407200Y-95309523D01*
X128407200Y-95309523D02*
X128359580Y-95261904D01*
X128359580Y-95261904D02*
X128264342Y-95214285D01*
X128264342Y-95214285D02*
X128073866Y-95214285D01*
X128073866Y-95214285D02*
X127978628Y-95261904D01*
X127978628Y-95261904D02*
X127931009Y-95309523D01*
X127931009Y-95309523D02*
X127883390Y-95404761D01*
X131954819Y-125642857D02*
X131478628Y-125976190D01*
X131954819Y-126214285D02*
X130954819Y-126214285D01*
X130954819Y-126214285D02*
X130954819Y-125833333D01*
X130954819Y-125833333D02*
X131002438Y-125738095D01*
X131002438Y-125738095D02*
X131050057Y-125690476D01*
X131050057Y-125690476D02*
X131145295Y-125642857D01*
X131145295Y-125642857D02*
X131288152Y-125642857D01*
X131288152Y-125642857D02*
X131383390Y-125690476D01*
X131383390Y-125690476D02*
X131431009Y-125738095D01*
X131431009Y-125738095D02*
X131478628Y-125833333D01*
X131478628Y-125833333D02*
X131478628Y-126214285D01*
X131954819Y-124690476D02*
X131954819Y-125261904D01*
X131954819Y-124976190D02*
X130954819Y-124976190D01*
X130954819Y-124976190D02*
X131097676Y-125071428D01*
X131097676Y-125071428D02*
X131192914Y-125166666D01*
X131192914Y-125166666D02*
X131240533Y-125261904D01*
X131954819Y-124214285D02*
X131954819Y-124023809D01*
X131954819Y-124023809D02*
X131907200Y-123928571D01*
X131907200Y-123928571D02*
X131859580Y-123880952D01*
X131859580Y-123880952D02*
X131716723Y-123785714D01*
X131716723Y-123785714D02*
X131526247Y-123738095D01*
X131526247Y-123738095D02*
X131145295Y-123738095D01*
X131145295Y-123738095D02*
X131050057Y-123785714D01*
X131050057Y-123785714D02*
X131002438Y-123833333D01*
X131002438Y-123833333D02*
X130954819Y-123928571D01*
X130954819Y-123928571D02*
X130954819Y-124119047D01*
X130954819Y-124119047D02*
X131002438Y-124214285D01*
X131002438Y-124214285D02*
X131050057Y-124261904D01*
X131050057Y-124261904D02*
X131145295Y-124309523D01*
X131145295Y-124309523D02*
X131383390Y-124309523D01*
X131383390Y-124309523D02*
X131478628Y-124261904D01*
X131478628Y-124261904D02*
X131526247Y-124214285D01*
X131526247Y-124214285D02*
X131573866Y-124119047D01*
X131573866Y-124119047D02*
X131573866Y-123928571D01*
X131573866Y-123928571D02*
X131526247Y-123833333D01*
X131526247Y-123833333D02*
X131478628Y-123785714D01*
X131478628Y-123785714D02*
X131383390Y-123738095D01*
X131954819Y-128892857D02*
X131478628Y-129226190D01*
X131954819Y-129464285D02*
X130954819Y-129464285D01*
X130954819Y-129464285D02*
X130954819Y-129083333D01*
X130954819Y-129083333D02*
X131002438Y-128988095D01*
X131002438Y-128988095D02*
X131050057Y-128940476D01*
X131050057Y-128940476D02*
X131145295Y-128892857D01*
X131145295Y-128892857D02*
X131288152Y-128892857D01*
X131288152Y-128892857D02*
X131383390Y-128940476D01*
X131383390Y-128940476D02*
X131431009Y-128988095D01*
X131431009Y-128988095D02*
X131478628Y-129083333D01*
X131478628Y-129083333D02*
X131478628Y-129464285D01*
X131050057Y-128511904D02*
X131002438Y-128464285D01*
X131002438Y-128464285D02*
X130954819Y-128369047D01*
X130954819Y-128369047D02*
X130954819Y-128130952D01*
X130954819Y-128130952D02*
X131002438Y-128035714D01*
X131002438Y-128035714D02*
X131050057Y-127988095D01*
X131050057Y-127988095D02*
X131145295Y-127940476D01*
X131145295Y-127940476D02*
X131240533Y-127940476D01*
X131240533Y-127940476D02*
X131383390Y-127988095D01*
X131383390Y-127988095D02*
X131954819Y-128559523D01*
X131954819Y-128559523D02*
X131954819Y-127940476D01*
X130954819Y-127321428D02*
X130954819Y-127226190D01*
X130954819Y-127226190D02*
X131002438Y-127130952D01*
X131002438Y-127130952D02*
X131050057Y-127083333D01*
X131050057Y-127083333D02*
X131145295Y-127035714D01*
X131145295Y-127035714D02*
X131335771Y-126988095D01*
X131335771Y-126988095D02*
X131573866Y-126988095D01*
X131573866Y-126988095D02*
X131764342Y-127035714D01*
X131764342Y-127035714D02*
X131859580Y-127083333D01*
X131859580Y-127083333D02*
X131907200Y-127130952D01*
X131907200Y-127130952D02*
X131954819Y-127226190D01*
X131954819Y-127226190D02*
X131954819Y-127321428D01*
X131954819Y-127321428D02*
X131907200Y-127416666D01*
X131907200Y-127416666D02*
X131859580Y-127464285D01*
X131859580Y-127464285D02*
X131764342Y-127511904D01*
X131764342Y-127511904D02*
X131573866Y-127559523D01*
X131573866Y-127559523D02*
X131335771Y-127559523D01*
X131335771Y-127559523D02*
X131145295Y-127511904D01*
X131145295Y-127511904D02*
X131050057Y-127464285D01*
X131050057Y-127464285D02*
X131002438Y-127416666D01*
X131002438Y-127416666D02*
X130954819Y-127321428D01*
X122859580Y-159166666D02*
X122907200Y-159214285D01*
X122907200Y-159214285D02*
X122954819Y-159357142D01*
X122954819Y-159357142D02*
X122954819Y-159452380D01*
X122954819Y-159452380D02*
X122907200Y-159595237D01*
X122907200Y-159595237D02*
X122811961Y-159690475D01*
X122811961Y-159690475D02*
X122716723Y-159738094D01*
X122716723Y-159738094D02*
X122526247Y-159785713D01*
X122526247Y-159785713D02*
X122383390Y-159785713D01*
X122383390Y-159785713D02*
X122192914Y-159738094D01*
X122192914Y-159738094D02*
X122097676Y-159690475D01*
X122097676Y-159690475D02*
X122002438Y-159595237D01*
X122002438Y-159595237D02*
X121954819Y-159452380D01*
X121954819Y-159452380D02*
X121954819Y-159357142D01*
X121954819Y-159357142D02*
X122002438Y-159214285D01*
X122002438Y-159214285D02*
X122050057Y-159166666D01*
X122954819Y-158690475D02*
X122954819Y-158499999D01*
X122954819Y-158499999D02*
X122907200Y-158404761D01*
X122907200Y-158404761D02*
X122859580Y-158357142D01*
X122859580Y-158357142D02*
X122716723Y-158261904D01*
X122716723Y-158261904D02*
X122526247Y-158214285D01*
X122526247Y-158214285D02*
X122145295Y-158214285D01*
X122145295Y-158214285D02*
X122050057Y-158261904D01*
X122050057Y-158261904D02*
X122002438Y-158309523D01*
X122002438Y-158309523D02*
X121954819Y-158404761D01*
X121954819Y-158404761D02*
X121954819Y-158595237D01*
X121954819Y-158595237D02*
X122002438Y-158690475D01*
X122002438Y-158690475D02*
X122050057Y-158738094D01*
X122050057Y-158738094D02*
X122145295Y-158785713D01*
X122145295Y-158785713D02*
X122383390Y-158785713D01*
X122383390Y-158785713D02*
X122478628Y-158738094D01*
X122478628Y-158738094D02*
X122526247Y-158690475D01*
X122526247Y-158690475D02*
X122573866Y-158595237D01*
X122573866Y-158595237D02*
X122573866Y-158404761D01*
X122573866Y-158404761D02*
X122526247Y-158309523D01*
X122526247Y-158309523D02*
X122478628Y-158261904D01*
X122478628Y-158261904D02*
X122383390Y-158214285D01*
X122604819Y-150142857D02*
X122128628Y-150476190D01*
X122604819Y-150714285D02*
X121604819Y-150714285D01*
X121604819Y-150714285D02*
X121604819Y-150333333D01*
X121604819Y-150333333D02*
X121652438Y-150238095D01*
X121652438Y-150238095D02*
X121700057Y-150190476D01*
X121700057Y-150190476D02*
X121795295Y-150142857D01*
X121795295Y-150142857D02*
X121938152Y-150142857D01*
X121938152Y-150142857D02*
X122033390Y-150190476D01*
X122033390Y-150190476D02*
X122081009Y-150238095D01*
X122081009Y-150238095D02*
X122128628Y-150333333D01*
X122128628Y-150333333D02*
X122128628Y-150714285D01*
X122604819Y-149190476D02*
X122604819Y-149761904D01*
X122604819Y-149476190D02*
X121604819Y-149476190D01*
X121604819Y-149476190D02*
X121747676Y-149571428D01*
X121747676Y-149571428D02*
X121842914Y-149666666D01*
X121842914Y-149666666D02*
X121890533Y-149761904D01*
X121604819Y-148571428D02*
X121604819Y-148476190D01*
X121604819Y-148476190D02*
X121652438Y-148380952D01*
X121652438Y-148380952D02*
X121700057Y-148333333D01*
X121700057Y-148333333D02*
X121795295Y-148285714D01*
X121795295Y-148285714D02*
X121985771Y-148238095D01*
X121985771Y-148238095D02*
X122223866Y-148238095D01*
X122223866Y-148238095D02*
X122414342Y-148285714D01*
X122414342Y-148285714D02*
X122509580Y-148333333D01*
X122509580Y-148333333D02*
X122557200Y-148380952D01*
X122557200Y-148380952D02*
X122604819Y-148476190D01*
X122604819Y-148476190D02*
X122604819Y-148571428D01*
X122604819Y-148571428D02*
X122557200Y-148666666D01*
X122557200Y-148666666D02*
X122509580Y-148714285D01*
X122509580Y-148714285D02*
X122414342Y-148761904D01*
X122414342Y-148761904D02*
X122223866Y-148809523D01*
X122223866Y-148809523D02*
X121985771Y-148809523D01*
X121985771Y-148809523D02*
X121795295Y-148761904D01*
X121795295Y-148761904D02*
X121700057Y-148714285D01*
X121700057Y-148714285D02*
X121652438Y-148666666D01*
X121652438Y-148666666D02*
X121604819Y-148571428D01*
X125859580Y-159166666D02*
X125907200Y-159214285D01*
X125907200Y-159214285D02*
X125954819Y-159357142D01*
X125954819Y-159357142D02*
X125954819Y-159452380D01*
X125954819Y-159452380D02*
X125907200Y-159595237D01*
X125907200Y-159595237D02*
X125811961Y-159690475D01*
X125811961Y-159690475D02*
X125716723Y-159738094D01*
X125716723Y-159738094D02*
X125526247Y-159785713D01*
X125526247Y-159785713D02*
X125383390Y-159785713D01*
X125383390Y-159785713D02*
X125192914Y-159738094D01*
X125192914Y-159738094D02*
X125097676Y-159690475D01*
X125097676Y-159690475D02*
X125002438Y-159595237D01*
X125002438Y-159595237D02*
X124954819Y-159452380D01*
X124954819Y-159452380D02*
X124954819Y-159357142D01*
X124954819Y-159357142D02*
X125002438Y-159214285D01*
X125002438Y-159214285D02*
X125050057Y-159166666D01*
X124954819Y-158309523D02*
X124954819Y-158499999D01*
X124954819Y-158499999D02*
X125002438Y-158595237D01*
X125002438Y-158595237D02*
X125050057Y-158642856D01*
X125050057Y-158642856D02*
X125192914Y-158738094D01*
X125192914Y-158738094D02*
X125383390Y-158785713D01*
X125383390Y-158785713D02*
X125764342Y-158785713D01*
X125764342Y-158785713D02*
X125859580Y-158738094D01*
X125859580Y-158738094D02*
X125907200Y-158690475D01*
X125907200Y-158690475D02*
X125954819Y-158595237D01*
X125954819Y-158595237D02*
X125954819Y-158404761D01*
X125954819Y-158404761D02*
X125907200Y-158309523D01*
X125907200Y-158309523D02*
X125859580Y-158261904D01*
X125859580Y-158261904D02*
X125764342Y-158214285D01*
X125764342Y-158214285D02*
X125526247Y-158214285D01*
X125526247Y-158214285D02*
X125431009Y-158261904D01*
X125431009Y-158261904D02*
X125383390Y-158309523D01*
X125383390Y-158309523D02*
X125335771Y-158404761D01*
X125335771Y-158404761D02*
X125335771Y-158595237D01*
X125335771Y-158595237D02*
X125383390Y-158690475D01*
X125383390Y-158690475D02*
X125431009Y-158738094D01*
X125431009Y-158738094D02*
X125526247Y-158785713D01*
X94107142Y-134804819D02*
X93773809Y-134328628D01*
X93535714Y-134804819D02*
X93535714Y-133804819D01*
X93535714Y-133804819D02*
X93916666Y-133804819D01*
X93916666Y-133804819D02*
X94011904Y-133852438D01*
X94011904Y-133852438D02*
X94059523Y-133900057D01*
X94059523Y-133900057D02*
X94107142Y-133995295D01*
X94107142Y-133995295D02*
X94107142Y-134138152D01*
X94107142Y-134138152D02*
X94059523Y-134233390D01*
X94059523Y-134233390D02*
X94011904Y-134281009D01*
X94011904Y-134281009D02*
X93916666Y-134328628D01*
X93916666Y-134328628D02*
X93535714Y-134328628D01*
X94488095Y-133900057D02*
X94535714Y-133852438D01*
X94535714Y-133852438D02*
X94630952Y-133804819D01*
X94630952Y-133804819D02*
X94869047Y-133804819D01*
X94869047Y-133804819D02*
X94964285Y-133852438D01*
X94964285Y-133852438D02*
X95011904Y-133900057D01*
X95011904Y-133900057D02*
X95059523Y-133995295D01*
X95059523Y-133995295D02*
X95059523Y-134090533D01*
X95059523Y-134090533D02*
X95011904Y-134233390D01*
X95011904Y-134233390D02*
X94440476Y-134804819D01*
X94440476Y-134804819D02*
X95059523Y-134804819D01*
X95964285Y-133804819D02*
X95488095Y-133804819D01*
X95488095Y-133804819D02*
X95440476Y-134281009D01*
X95440476Y-134281009D02*
X95488095Y-134233390D01*
X95488095Y-134233390D02*
X95583333Y-134185771D01*
X95583333Y-134185771D02*
X95821428Y-134185771D01*
X95821428Y-134185771D02*
X95916666Y-134233390D01*
X95916666Y-134233390D02*
X95964285Y-134281009D01*
X95964285Y-134281009D02*
X96011904Y-134376247D01*
X96011904Y-134376247D02*
X96011904Y-134614342D01*
X96011904Y-134614342D02*
X95964285Y-134709580D01*
X95964285Y-134709580D02*
X95916666Y-134757200D01*
X95916666Y-134757200D02*
X95821428Y-134804819D01*
X95821428Y-134804819D02*
X95583333Y-134804819D01*
X95583333Y-134804819D02*
X95488095Y-134757200D01*
X95488095Y-134757200D02*
X95440476Y-134709580D01*
X93351666Y-92704819D02*
X93351666Y-93419104D01*
X93351666Y-93419104D02*
X93304047Y-93561961D01*
X93304047Y-93561961D02*
X93208809Y-93657200D01*
X93208809Y-93657200D02*
X93065952Y-93704819D01*
X93065952Y-93704819D02*
X92970714Y-93704819D01*
X93732619Y-92704819D02*
X94351666Y-92704819D01*
X94351666Y-92704819D02*
X94018333Y-93085771D01*
X94018333Y-93085771D02*
X94161190Y-93085771D01*
X94161190Y-93085771D02*
X94256428Y-93133390D01*
X94256428Y-93133390D02*
X94304047Y-93181009D01*
X94304047Y-93181009D02*
X94351666Y-93276247D01*
X94351666Y-93276247D02*
X94351666Y-93514342D01*
X94351666Y-93514342D02*
X94304047Y-93609580D01*
X94304047Y-93609580D02*
X94256428Y-93657200D01*
X94256428Y-93657200D02*
X94161190Y-93704819D01*
X94161190Y-93704819D02*
X93875476Y-93704819D01*
X93875476Y-93704819D02*
X93780238Y-93657200D01*
X93780238Y-93657200D02*
X93732619Y-93609580D01*
X92454819Y-154079166D02*
X91978628Y-154412499D01*
X92454819Y-154650594D02*
X91454819Y-154650594D01*
X91454819Y-154650594D02*
X91454819Y-154269642D01*
X91454819Y-154269642D02*
X91502438Y-154174404D01*
X91502438Y-154174404D02*
X91550057Y-154126785D01*
X91550057Y-154126785D02*
X91645295Y-154079166D01*
X91645295Y-154079166D02*
X91788152Y-154079166D01*
X91788152Y-154079166D02*
X91883390Y-154126785D01*
X91883390Y-154126785D02*
X91931009Y-154174404D01*
X91931009Y-154174404D02*
X91978628Y-154269642D01*
X91978628Y-154269642D02*
X91978628Y-154650594D01*
X91883390Y-153507737D02*
X91835771Y-153602975D01*
X91835771Y-153602975D02*
X91788152Y-153650594D01*
X91788152Y-153650594D02*
X91692914Y-153698213D01*
X91692914Y-153698213D02*
X91645295Y-153698213D01*
X91645295Y-153698213D02*
X91550057Y-153650594D01*
X91550057Y-153650594D02*
X91502438Y-153602975D01*
X91502438Y-153602975D02*
X91454819Y-153507737D01*
X91454819Y-153507737D02*
X91454819Y-153317261D01*
X91454819Y-153317261D02*
X91502438Y-153222023D01*
X91502438Y-153222023D02*
X91550057Y-153174404D01*
X91550057Y-153174404D02*
X91645295Y-153126785D01*
X91645295Y-153126785D02*
X91692914Y-153126785D01*
X91692914Y-153126785D02*
X91788152Y-153174404D01*
X91788152Y-153174404D02*
X91835771Y-153222023D01*
X91835771Y-153222023D02*
X91883390Y-153317261D01*
X91883390Y-153317261D02*
X91883390Y-153507737D01*
X91883390Y-153507737D02*
X91931009Y-153602975D01*
X91931009Y-153602975D02*
X91978628Y-153650594D01*
X91978628Y-153650594D02*
X92073866Y-153698213D01*
X92073866Y-153698213D02*
X92264342Y-153698213D01*
X92264342Y-153698213D02*
X92359580Y-153650594D01*
X92359580Y-153650594D02*
X92407200Y-153602975D01*
X92407200Y-153602975D02*
X92454819Y-153507737D01*
X92454819Y-153507737D02*
X92454819Y-153317261D01*
X92454819Y-153317261D02*
X92407200Y-153222023D01*
X92407200Y-153222023D02*
X92359580Y-153174404D01*
X92359580Y-153174404D02*
X92264342Y-153126785D01*
X92264342Y-153126785D02*
X92073866Y-153126785D01*
X92073866Y-153126785D02*
X91978628Y-153174404D01*
X91978628Y-153174404D02*
X91931009Y-153222023D01*
X91931009Y-153222023D02*
X91883390Y-153317261D01*
X96829819Y-143416666D02*
X96353628Y-143749999D01*
X96829819Y-143988094D02*
X95829819Y-143988094D01*
X95829819Y-143988094D02*
X95829819Y-143607142D01*
X95829819Y-143607142D02*
X95877438Y-143511904D01*
X95877438Y-143511904D02*
X95925057Y-143464285D01*
X95925057Y-143464285D02*
X96020295Y-143416666D01*
X96020295Y-143416666D02*
X96163152Y-143416666D01*
X96163152Y-143416666D02*
X96258390Y-143464285D01*
X96258390Y-143464285D02*
X96306009Y-143511904D01*
X96306009Y-143511904D02*
X96353628Y-143607142D01*
X96353628Y-143607142D02*
X96353628Y-143988094D01*
X95925057Y-143035713D02*
X95877438Y-142988094D01*
X95877438Y-142988094D02*
X95829819Y-142892856D01*
X95829819Y-142892856D02*
X95829819Y-142654761D01*
X95829819Y-142654761D02*
X95877438Y-142559523D01*
X95877438Y-142559523D02*
X95925057Y-142511904D01*
X95925057Y-142511904D02*
X96020295Y-142464285D01*
X96020295Y-142464285D02*
X96115533Y-142464285D01*
X96115533Y-142464285D02*
X96258390Y-142511904D01*
X96258390Y-142511904D02*
X96829819Y-143083332D01*
X96829819Y-143083332D02*
X96829819Y-142464285D01*
D14*
X53683571Y-144203365D02*
X53623095Y-144263842D01*
X53623095Y-144263842D02*
X53441666Y-144324318D01*
X53441666Y-144324318D02*
X53320714Y-144324318D01*
X53320714Y-144324318D02*
X53139285Y-144263842D01*
X53139285Y-144263842D02*
X53018333Y-144142889D01*
X53018333Y-144142889D02*
X52957856Y-144021937D01*
X52957856Y-144021937D02*
X52897380Y-143780032D01*
X52897380Y-143780032D02*
X52897380Y-143598603D01*
X52897380Y-143598603D02*
X52957856Y-143356699D01*
X52957856Y-143356699D02*
X53018333Y-143235746D01*
X53018333Y-143235746D02*
X53139285Y-143114794D01*
X53139285Y-143114794D02*
X53320714Y-143054318D01*
X53320714Y-143054318D02*
X53441666Y-143054318D01*
X53441666Y-143054318D02*
X53623095Y-143114794D01*
X53623095Y-143114794D02*
X53683571Y-143175270D01*
X54893095Y-144324318D02*
X54167380Y-144324318D01*
X54530237Y-144324318D02*
X54530237Y-143054318D01*
X54530237Y-143054318D02*
X54409285Y-143235746D01*
X54409285Y-143235746D02*
X54288333Y-143356699D01*
X54288333Y-143356699D02*
X54167380Y-143417175D01*
X55497857Y-144324318D02*
X55739761Y-144324318D01*
X55739761Y-144324318D02*
X55860714Y-144263842D01*
X55860714Y-144263842D02*
X55921190Y-144203365D01*
X55921190Y-144203365D02*
X56042142Y-144021937D01*
X56042142Y-144021937D02*
X56102619Y-143780032D01*
X56102619Y-143780032D02*
X56102619Y-143296222D01*
X56102619Y-143296222D02*
X56042142Y-143175270D01*
X56042142Y-143175270D02*
X55981666Y-143114794D01*
X55981666Y-143114794D02*
X55860714Y-143054318D01*
X55860714Y-143054318D02*
X55618809Y-143054318D01*
X55618809Y-143054318D02*
X55497857Y-143114794D01*
X55497857Y-143114794D02*
X55437380Y-143175270D01*
X55437380Y-143175270D02*
X55376904Y-143296222D01*
X55376904Y-143296222D02*
X55376904Y-143598603D01*
X55376904Y-143598603D02*
X55437380Y-143719556D01*
X55437380Y-143719556D02*
X55497857Y-143780032D01*
X55497857Y-143780032D02*
X55618809Y-143840508D01*
X55618809Y-143840508D02*
X55860714Y-143840508D01*
X55860714Y-143840508D02*
X55981666Y-143780032D01*
X55981666Y-143780032D02*
X56042142Y-143719556D01*
X56042142Y-143719556D02*
X56102619Y-143598603D01*
D13*
X97109580Y-159142857D02*
X97157200Y-159190476D01*
X97157200Y-159190476D02*
X97204819Y-159333333D01*
X97204819Y-159333333D02*
X97204819Y-159428571D01*
X97204819Y-159428571D02*
X97157200Y-159571428D01*
X97157200Y-159571428D02*
X97061961Y-159666666D01*
X97061961Y-159666666D02*
X96966723Y-159714285D01*
X96966723Y-159714285D02*
X96776247Y-159761904D01*
X96776247Y-159761904D02*
X96633390Y-159761904D01*
X96633390Y-159761904D02*
X96442914Y-159714285D01*
X96442914Y-159714285D02*
X96347676Y-159666666D01*
X96347676Y-159666666D02*
X96252438Y-159571428D01*
X96252438Y-159571428D02*
X96204819Y-159428571D01*
X96204819Y-159428571D02*
X96204819Y-159333333D01*
X96204819Y-159333333D02*
X96252438Y-159190476D01*
X96252438Y-159190476D02*
X96300057Y-159142857D01*
X97204819Y-158190476D02*
X97204819Y-158761904D01*
X97204819Y-158476190D02*
X96204819Y-158476190D01*
X96204819Y-158476190D02*
X96347676Y-158571428D01*
X96347676Y-158571428D02*
X96442914Y-158666666D01*
X96442914Y-158666666D02*
X96490533Y-158761904D01*
X96204819Y-157571428D02*
X96204819Y-157476190D01*
X96204819Y-157476190D02*
X96252438Y-157380952D01*
X96252438Y-157380952D02*
X96300057Y-157333333D01*
X96300057Y-157333333D02*
X96395295Y-157285714D01*
X96395295Y-157285714D02*
X96585771Y-157238095D01*
X96585771Y-157238095D02*
X96823866Y-157238095D01*
X96823866Y-157238095D02*
X97014342Y-157285714D01*
X97014342Y-157285714D02*
X97109580Y-157333333D01*
X97109580Y-157333333D02*
X97157200Y-157380952D01*
X97157200Y-157380952D02*
X97204819Y-157476190D01*
X97204819Y-157476190D02*
X97204819Y-157571428D01*
X97204819Y-157571428D02*
X97157200Y-157666666D01*
X97157200Y-157666666D02*
X97109580Y-157714285D01*
X97109580Y-157714285D02*
X97014342Y-157761904D01*
X97014342Y-157761904D02*
X96823866Y-157809523D01*
X96823866Y-157809523D02*
X96585771Y-157809523D01*
X96585771Y-157809523D02*
X96395295Y-157761904D01*
X96395295Y-157761904D02*
X96300057Y-157714285D01*
X96300057Y-157714285D02*
X96252438Y-157666666D01*
X96252438Y-157666666D02*
X96204819Y-157571428D01*
X113851666Y-92704819D02*
X113851666Y-93419104D01*
X113851666Y-93419104D02*
X113804047Y-93561961D01*
X113804047Y-93561961D02*
X113708809Y-93657200D01*
X113708809Y-93657200D02*
X113565952Y-93704819D01*
X113565952Y-93704819D02*
X113470714Y-93704819D01*
X114756428Y-93038152D02*
X114756428Y-93704819D01*
X114518333Y-92657200D02*
X114280238Y-93371485D01*
X114280238Y-93371485D02*
X114899285Y-93371485D01*
X124454819Y-159142857D02*
X123978628Y-159476190D01*
X124454819Y-159714285D02*
X123454819Y-159714285D01*
X123454819Y-159714285D02*
X123454819Y-159333333D01*
X123454819Y-159333333D02*
X123502438Y-159238095D01*
X123502438Y-159238095D02*
X123550057Y-159190476D01*
X123550057Y-159190476D02*
X123645295Y-159142857D01*
X123645295Y-159142857D02*
X123788152Y-159142857D01*
X123788152Y-159142857D02*
X123883390Y-159190476D01*
X123883390Y-159190476D02*
X123931009Y-159238095D01*
X123931009Y-159238095D02*
X123978628Y-159333333D01*
X123978628Y-159333333D02*
X123978628Y-159714285D01*
X124454819Y-158190476D02*
X124454819Y-158761904D01*
X124454819Y-158476190D02*
X123454819Y-158476190D01*
X123454819Y-158476190D02*
X123597676Y-158571428D01*
X123597676Y-158571428D02*
X123692914Y-158666666D01*
X123692914Y-158666666D02*
X123740533Y-158761904D01*
X123454819Y-157857142D02*
X123454819Y-157238095D01*
X123454819Y-157238095D02*
X123835771Y-157571428D01*
X123835771Y-157571428D02*
X123835771Y-157428571D01*
X123835771Y-157428571D02*
X123883390Y-157333333D01*
X123883390Y-157333333D02*
X123931009Y-157285714D01*
X123931009Y-157285714D02*
X124026247Y-157238095D01*
X124026247Y-157238095D02*
X124264342Y-157238095D01*
X124264342Y-157238095D02*
X124359580Y-157285714D01*
X124359580Y-157285714D02*
X124407200Y-157333333D01*
X124407200Y-157333333D02*
X124454819Y-157428571D01*
X124454819Y-157428571D02*
X124454819Y-157714285D01*
X124454819Y-157714285D02*
X124407200Y-157809523D01*
X124407200Y-157809523D02*
X124359580Y-157857142D01*
X94357142Y-138554819D02*
X94023809Y-138078628D01*
X93785714Y-138554819D02*
X93785714Y-137554819D01*
X93785714Y-137554819D02*
X94166666Y-137554819D01*
X94166666Y-137554819D02*
X94261904Y-137602438D01*
X94261904Y-137602438D02*
X94309523Y-137650057D01*
X94309523Y-137650057D02*
X94357142Y-137745295D01*
X94357142Y-137745295D02*
X94357142Y-137888152D01*
X94357142Y-137888152D02*
X94309523Y-137983390D01*
X94309523Y-137983390D02*
X94261904Y-138031009D01*
X94261904Y-138031009D02*
X94166666Y-138078628D01*
X94166666Y-138078628D02*
X93785714Y-138078628D01*
X94738095Y-137650057D02*
X94785714Y-137602438D01*
X94785714Y-137602438D02*
X94880952Y-137554819D01*
X94880952Y-137554819D02*
X95119047Y-137554819D01*
X95119047Y-137554819D02*
X95214285Y-137602438D01*
X95214285Y-137602438D02*
X95261904Y-137650057D01*
X95261904Y-137650057D02*
X95309523Y-137745295D01*
X95309523Y-137745295D02*
X95309523Y-137840533D01*
X95309523Y-137840533D02*
X95261904Y-137983390D01*
X95261904Y-137983390D02*
X94690476Y-138554819D01*
X94690476Y-138554819D02*
X95309523Y-138554819D01*
X95642857Y-137554819D02*
X96261904Y-137554819D01*
X96261904Y-137554819D02*
X95928571Y-137935771D01*
X95928571Y-137935771D02*
X96071428Y-137935771D01*
X96071428Y-137935771D02*
X96166666Y-137983390D01*
X96166666Y-137983390D02*
X96214285Y-138031009D01*
X96214285Y-138031009D02*
X96261904Y-138126247D01*
X96261904Y-138126247D02*
X96261904Y-138364342D01*
X96261904Y-138364342D02*
X96214285Y-138459580D01*
X96214285Y-138459580D02*
X96166666Y-138507200D01*
X96166666Y-138507200D02*
X96071428Y-138554819D01*
X96071428Y-138554819D02*
X95785714Y-138554819D01*
X95785714Y-138554819D02*
X95690476Y-138507200D01*
X95690476Y-138507200D02*
X95642857Y-138459580D01*
X93351666Y-68454819D02*
X93351666Y-69169104D01*
X93351666Y-69169104D02*
X93304047Y-69311961D01*
X93304047Y-69311961D02*
X93208809Y-69407200D01*
X93208809Y-69407200D02*
X93065952Y-69454819D01*
X93065952Y-69454819D02*
X92970714Y-69454819D01*
X94351666Y-69454819D02*
X93780238Y-69454819D01*
X94065952Y-69454819D02*
X94065952Y-68454819D01*
X94065952Y-68454819D02*
X93970714Y-68597676D01*
X93970714Y-68597676D02*
X93875476Y-68692914D01*
X93875476Y-68692914D02*
X93780238Y-68740533D01*
X128359580Y-142392857D02*
X128407200Y-142440476D01*
X128407200Y-142440476D02*
X128454819Y-142583333D01*
X128454819Y-142583333D02*
X128454819Y-142678571D01*
X128454819Y-142678571D02*
X128407200Y-142821428D01*
X128407200Y-142821428D02*
X128311961Y-142916666D01*
X128311961Y-142916666D02*
X128216723Y-142964285D01*
X128216723Y-142964285D02*
X128026247Y-143011904D01*
X128026247Y-143011904D02*
X127883390Y-143011904D01*
X127883390Y-143011904D02*
X127692914Y-142964285D01*
X127692914Y-142964285D02*
X127597676Y-142916666D01*
X127597676Y-142916666D02*
X127502438Y-142821428D01*
X127502438Y-142821428D02*
X127454819Y-142678571D01*
X127454819Y-142678571D02*
X127454819Y-142583333D01*
X127454819Y-142583333D02*
X127502438Y-142440476D01*
X127502438Y-142440476D02*
X127550057Y-142392857D01*
X127550057Y-142011904D02*
X127502438Y-141964285D01*
X127502438Y-141964285D02*
X127454819Y-141869047D01*
X127454819Y-141869047D02*
X127454819Y-141630952D01*
X127454819Y-141630952D02*
X127502438Y-141535714D01*
X127502438Y-141535714D02*
X127550057Y-141488095D01*
X127550057Y-141488095D02*
X127645295Y-141440476D01*
X127645295Y-141440476D02*
X127740533Y-141440476D01*
X127740533Y-141440476D02*
X127883390Y-141488095D01*
X127883390Y-141488095D02*
X128454819Y-142059523D01*
X128454819Y-142059523D02*
X128454819Y-141440476D01*
X127454819Y-141107142D02*
X127454819Y-140488095D01*
X127454819Y-140488095D02*
X127835771Y-140821428D01*
X127835771Y-140821428D02*
X127835771Y-140678571D01*
X127835771Y-140678571D02*
X127883390Y-140583333D01*
X127883390Y-140583333D02*
X127931009Y-140535714D01*
X127931009Y-140535714D02*
X128026247Y-140488095D01*
X128026247Y-140488095D02*
X128264342Y-140488095D01*
X128264342Y-140488095D02*
X128359580Y-140535714D01*
X128359580Y-140535714D02*
X128407200Y-140583333D01*
X128407200Y-140583333D02*
X128454819Y-140678571D01*
X128454819Y-140678571D02*
X128454819Y-140964285D01*
X128454819Y-140964285D02*
X128407200Y-141059523D01*
X128407200Y-141059523D02*
X128359580Y-141107142D01*
X152646666Y-145464819D02*
X152646666Y-146179104D01*
X152646666Y-146179104D02*
X152599047Y-146321961D01*
X152599047Y-146321961D02*
X152503809Y-146417200D01*
X152503809Y-146417200D02*
X152360952Y-146464819D01*
X152360952Y-146464819D02*
X152265714Y-146464819D01*
X153599047Y-145464819D02*
X153122857Y-145464819D01*
X153122857Y-145464819D02*
X153075238Y-145941009D01*
X153075238Y-145941009D02*
X153122857Y-145893390D01*
X153122857Y-145893390D02*
X153218095Y-145845771D01*
X153218095Y-145845771D02*
X153456190Y-145845771D01*
X153456190Y-145845771D02*
X153551428Y-145893390D01*
X153551428Y-145893390D02*
X153599047Y-145941009D01*
X153599047Y-145941009D02*
X153646666Y-146036247D01*
X153646666Y-146036247D02*
X153646666Y-146274342D01*
X153646666Y-146274342D02*
X153599047Y-146369580D01*
X153599047Y-146369580D02*
X153551428Y-146417200D01*
X153551428Y-146417200D02*
X153456190Y-146464819D01*
X153456190Y-146464819D02*
X153218095Y-146464819D01*
X153218095Y-146464819D02*
X153122857Y-146417200D01*
X153122857Y-146417200D02*
X153075238Y-146369580D01*
X147359580Y-125392857D02*
X147407200Y-125440476D01*
X147407200Y-125440476D02*
X147454819Y-125583333D01*
X147454819Y-125583333D02*
X147454819Y-125678571D01*
X147454819Y-125678571D02*
X147407200Y-125821428D01*
X147407200Y-125821428D02*
X147311961Y-125916666D01*
X147311961Y-125916666D02*
X147216723Y-125964285D01*
X147216723Y-125964285D02*
X147026247Y-126011904D01*
X147026247Y-126011904D02*
X146883390Y-126011904D01*
X146883390Y-126011904D02*
X146692914Y-125964285D01*
X146692914Y-125964285D02*
X146597676Y-125916666D01*
X146597676Y-125916666D02*
X146502438Y-125821428D01*
X146502438Y-125821428D02*
X146454819Y-125678571D01*
X146454819Y-125678571D02*
X146454819Y-125583333D01*
X146454819Y-125583333D02*
X146502438Y-125440476D01*
X146502438Y-125440476D02*
X146550057Y-125392857D01*
X146550057Y-125011904D02*
X146502438Y-124964285D01*
X146502438Y-124964285D02*
X146454819Y-124869047D01*
X146454819Y-124869047D02*
X146454819Y-124630952D01*
X146454819Y-124630952D02*
X146502438Y-124535714D01*
X146502438Y-124535714D02*
X146550057Y-124488095D01*
X146550057Y-124488095D02*
X146645295Y-124440476D01*
X146645295Y-124440476D02*
X146740533Y-124440476D01*
X146740533Y-124440476D02*
X146883390Y-124488095D01*
X146883390Y-124488095D02*
X147454819Y-125059523D01*
X147454819Y-125059523D02*
X147454819Y-124440476D01*
X146454819Y-123821428D02*
X146454819Y-123726190D01*
X146454819Y-123726190D02*
X146502438Y-123630952D01*
X146502438Y-123630952D02*
X146550057Y-123583333D01*
X146550057Y-123583333D02*
X146645295Y-123535714D01*
X146645295Y-123535714D02*
X146835771Y-123488095D01*
X146835771Y-123488095D02*
X147073866Y-123488095D01*
X147073866Y-123488095D02*
X147264342Y-123535714D01*
X147264342Y-123535714D02*
X147359580Y-123583333D01*
X147359580Y-123583333D02*
X147407200Y-123630952D01*
X147407200Y-123630952D02*
X147454819Y-123726190D01*
X147454819Y-123726190D02*
X147454819Y-123821428D01*
X147454819Y-123821428D02*
X147407200Y-123916666D01*
X147407200Y-123916666D02*
X147359580Y-123964285D01*
X147359580Y-123964285D02*
X147264342Y-124011904D01*
X147264342Y-124011904D02*
X147073866Y-124059523D01*
X147073866Y-124059523D02*
X146835771Y-124059523D01*
X146835771Y-124059523D02*
X146645295Y-124011904D01*
X146645295Y-124011904D02*
X146550057Y-123964285D01*
X146550057Y-123964285D02*
X146502438Y-123916666D01*
X146502438Y-123916666D02*
X146454819Y-123821428D01*
X104357142Y-136359580D02*
X104309523Y-136407200D01*
X104309523Y-136407200D02*
X104166666Y-136454819D01*
X104166666Y-136454819D02*
X104071428Y-136454819D01*
X104071428Y-136454819D02*
X103928571Y-136407200D01*
X103928571Y-136407200D02*
X103833333Y-136311961D01*
X103833333Y-136311961D02*
X103785714Y-136216723D01*
X103785714Y-136216723D02*
X103738095Y-136026247D01*
X103738095Y-136026247D02*
X103738095Y-135883390D01*
X103738095Y-135883390D02*
X103785714Y-135692914D01*
X103785714Y-135692914D02*
X103833333Y-135597676D01*
X103833333Y-135597676D02*
X103928571Y-135502438D01*
X103928571Y-135502438D02*
X104071428Y-135454819D01*
X104071428Y-135454819D02*
X104166666Y-135454819D01*
X104166666Y-135454819D02*
X104309523Y-135502438D01*
X104309523Y-135502438D02*
X104357142Y-135550057D01*
X105309523Y-136454819D02*
X104738095Y-136454819D01*
X105023809Y-136454819D02*
X105023809Y-135454819D01*
X105023809Y-135454819D02*
X104928571Y-135597676D01*
X104928571Y-135597676D02*
X104833333Y-135692914D01*
X104833333Y-135692914D02*
X104738095Y-135740533D01*
X105642857Y-135454819D02*
X106309523Y-135454819D01*
X106309523Y-135454819D02*
X105880952Y-136454819D01*
X104604819Y-151230357D02*
X104128628Y-151563690D01*
X104604819Y-151801785D02*
X103604819Y-151801785D01*
X103604819Y-151801785D02*
X103604819Y-151420833D01*
X103604819Y-151420833D02*
X103652438Y-151325595D01*
X103652438Y-151325595D02*
X103700057Y-151277976D01*
X103700057Y-151277976D02*
X103795295Y-151230357D01*
X103795295Y-151230357D02*
X103938152Y-151230357D01*
X103938152Y-151230357D02*
X104033390Y-151277976D01*
X104033390Y-151277976D02*
X104081009Y-151325595D01*
X104081009Y-151325595D02*
X104128628Y-151420833D01*
X104128628Y-151420833D02*
X104128628Y-151801785D01*
X104604819Y-150277976D02*
X104604819Y-150849404D01*
X104604819Y-150563690D02*
X103604819Y-150563690D01*
X103604819Y-150563690D02*
X103747676Y-150658928D01*
X103747676Y-150658928D02*
X103842914Y-150754166D01*
X103842914Y-150754166D02*
X103890533Y-150849404D01*
X103700057Y-149897023D02*
X103652438Y-149849404D01*
X103652438Y-149849404D02*
X103604819Y-149754166D01*
X103604819Y-149754166D02*
X103604819Y-149516071D01*
X103604819Y-149516071D02*
X103652438Y-149420833D01*
X103652438Y-149420833D02*
X103700057Y-149373214D01*
X103700057Y-149373214D02*
X103795295Y-149325595D01*
X103795295Y-149325595D02*
X103890533Y-149325595D01*
X103890533Y-149325595D02*
X104033390Y-149373214D01*
X104033390Y-149373214D02*
X104604819Y-149944642D01*
X104604819Y-149944642D02*
X104604819Y-149325595D01*
X122629819Y-146029166D02*
X122153628Y-146362499D01*
X122629819Y-146600594D02*
X121629819Y-146600594D01*
X121629819Y-146600594D02*
X121629819Y-146219642D01*
X121629819Y-146219642D02*
X121677438Y-146124404D01*
X121677438Y-146124404D02*
X121725057Y-146076785D01*
X121725057Y-146076785D02*
X121820295Y-146029166D01*
X121820295Y-146029166D02*
X121963152Y-146029166D01*
X121963152Y-146029166D02*
X122058390Y-146076785D01*
X122058390Y-146076785D02*
X122106009Y-146124404D01*
X122106009Y-146124404D02*
X122153628Y-146219642D01*
X122153628Y-146219642D02*
X122153628Y-146600594D01*
X121629819Y-145124404D02*
X121629819Y-145600594D01*
X121629819Y-145600594D02*
X122106009Y-145648213D01*
X122106009Y-145648213D02*
X122058390Y-145600594D01*
X122058390Y-145600594D02*
X122010771Y-145505356D01*
X122010771Y-145505356D02*
X122010771Y-145267261D01*
X122010771Y-145267261D02*
X122058390Y-145172023D01*
X122058390Y-145172023D02*
X122106009Y-145124404D01*
X122106009Y-145124404D02*
X122201247Y-145076785D01*
X122201247Y-145076785D02*
X122439342Y-145076785D01*
X122439342Y-145076785D02*
X122534580Y-145124404D01*
X122534580Y-145124404D02*
X122582200Y-145172023D01*
X122582200Y-145172023D02*
X122629819Y-145267261D01*
X122629819Y-145267261D02*
X122629819Y-145505356D01*
X122629819Y-145505356D02*
X122582200Y-145600594D01*
X122582200Y-145600594D02*
X122534580Y-145648213D01*
X80704819Y-96988094D02*
X79704819Y-96988094D01*
X79704819Y-96988094D02*
X79704819Y-96749999D01*
X79704819Y-96749999D02*
X79752438Y-96607142D01*
X79752438Y-96607142D02*
X79847676Y-96511904D01*
X79847676Y-96511904D02*
X79942914Y-96464285D01*
X79942914Y-96464285D02*
X80133390Y-96416666D01*
X80133390Y-96416666D02*
X80276247Y-96416666D01*
X80276247Y-96416666D02*
X80466723Y-96464285D01*
X80466723Y-96464285D02*
X80561961Y-96511904D01*
X80561961Y-96511904D02*
X80657200Y-96607142D01*
X80657200Y-96607142D02*
X80704819Y-96749999D01*
X80704819Y-96749999D02*
X80704819Y-96988094D01*
X79704819Y-96083332D02*
X79704819Y-95416666D01*
X79704819Y-95416666D02*
X80704819Y-95845237D01*
X104407142Y-134109580D02*
X104359523Y-134157200D01*
X104359523Y-134157200D02*
X104216666Y-134204819D01*
X104216666Y-134204819D02*
X104121428Y-134204819D01*
X104121428Y-134204819D02*
X103978571Y-134157200D01*
X103978571Y-134157200D02*
X103883333Y-134061961D01*
X103883333Y-134061961D02*
X103835714Y-133966723D01*
X103835714Y-133966723D02*
X103788095Y-133776247D01*
X103788095Y-133776247D02*
X103788095Y-133633390D01*
X103788095Y-133633390D02*
X103835714Y-133442914D01*
X103835714Y-133442914D02*
X103883333Y-133347676D01*
X103883333Y-133347676D02*
X103978571Y-133252438D01*
X103978571Y-133252438D02*
X104121428Y-133204819D01*
X104121428Y-133204819D02*
X104216666Y-133204819D01*
X104216666Y-133204819D02*
X104359523Y-133252438D01*
X104359523Y-133252438D02*
X104407142Y-133300057D01*
X105359523Y-134204819D02*
X104788095Y-134204819D01*
X105073809Y-134204819D02*
X105073809Y-133204819D01*
X105073809Y-133204819D02*
X104978571Y-133347676D01*
X104978571Y-133347676D02*
X104883333Y-133442914D01*
X104883333Y-133442914D02*
X104788095Y-133490533D01*
X106216666Y-133204819D02*
X106026190Y-133204819D01*
X106026190Y-133204819D02*
X105930952Y-133252438D01*
X105930952Y-133252438D02*
X105883333Y-133300057D01*
X105883333Y-133300057D02*
X105788095Y-133442914D01*
X105788095Y-133442914D02*
X105740476Y-133633390D01*
X105740476Y-133633390D02*
X105740476Y-134014342D01*
X105740476Y-134014342D02*
X105788095Y-134109580D01*
X105788095Y-134109580D02*
X105835714Y-134157200D01*
X105835714Y-134157200D02*
X105930952Y-134204819D01*
X105930952Y-134204819D02*
X106121428Y-134204819D01*
X106121428Y-134204819D02*
X106216666Y-134157200D01*
X106216666Y-134157200D02*
X106264285Y-134109580D01*
X106264285Y-134109580D02*
X106311904Y-134014342D01*
X106311904Y-134014342D02*
X106311904Y-133776247D01*
X106311904Y-133776247D02*
X106264285Y-133681009D01*
X106264285Y-133681009D02*
X106216666Y-133633390D01*
X106216666Y-133633390D02*
X106121428Y-133585771D01*
X106121428Y-133585771D02*
X105930952Y-133585771D01*
X105930952Y-133585771D02*
X105835714Y-133633390D01*
X105835714Y-133633390D02*
X105788095Y-133681009D01*
X105788095Y-133681009D02*
X105740476Y-133776247D01*
X80859580Y-159829166D02*
X80907200Y-159876785D01*
X80907200Y-159876785D02*
X80954819Y-160019642D01*
X80954819Y-160019642D02*
X80954819Y-160114880D01*
X80954819Y-160114880D02*
X80907200Y-160257737D01*
X80907200Y-160257737D02*
X80811961Y-160352975D01*
X80811961Y-160352975D02*
X80716723Y-160400594D01*
X80716723Y-160400594D02*
X80526247Y-160448213D01*
X80526247Y-160448213D02*
X80383390Y-160448213D01*
X80383390Y-160448213D02*
X80192914Y-160400594D01*
X80192914Y-160400594D02*
X80097676Y-160352975D01*
X80097676Y-160352975D02*
X80002438Y-160257737D01*
X80002438Y-160257737D02*
X79954819Y-160114880D01*
X79954819Y-160114880D02*
X79954819Y-160019642D01*
X79954819Y-160019642D02*
X80002438Y-159876785D01*
X80002438Y-159876785D02*
X80050057Y-159829166D01*
X80050057Y-159448213D02*
X80002438Y-159400594D01*
X80002438Y-159400594D02*
X79954819Y-159305356D01*
X79954819Y-159305356D02*
X79954819Y-159067261D01*
X79954819Y-159067261D02*
X80002438Y-158972023D01*
X80002438Y-158972023D02*
X80050057Y-158924404D01*
X80050057Y-158924404D02*
X80145295Y-158876785D01*
X80145295Y-158876785D02*
X80240533Y-158876785D01*
X80240533Y-158876785D02*
X80383390Y-158924404D01*
X80383390Y-158924404D02*
X80954819Y-159495832D01*
X80954819Y-159495832D02*
X80954819Y-158876785D01*
X84704819Y-155150594D02*
X83704819Y-155150594D01*
X83704819Y-155150594D02*
X83704819Y-154912499D01*
X83704819Y-154912499D02*
X83752438Y-154769642D01*
X83752438Y-154769642D02*
X83847676Y-154674404D01*
X83847676Y-154674404D02*
X83942914Y-154626785D01*
X83942914Y-154626785D02*
X84133390Y-154579166D01*
X84133390Y-154579166D02*
X84276247Y-154579166D01*
X84276247Y-154579166D02*
X84466723Y-154626785D01*
X84466723Y-154626785D02*
X84561961Y-154674404D01*
X84561961Y-154674404D02*
X84657200Y-154769642D01*
X84657200Y-154769642D02*
X84704819Y-154912499D01*
X84704819Y-154912499D02*
X84704819Y-155150594D01*
X83800057Y-154198213D02*
X83752438Y-154150594D01*
X83752438Y-154150594D02*
X83704819Y-154055356D01*
X83704819Y-154055356D02*
X83704819Y-153817261D01*
X83704819Y-153817261D02*
X83752438Y-153722023D01*
X83752438Y-153722023D02*
X83800057Y-153674404D01*
X83800057Y-153674404D02*
X83895295Y-153626785D01*
X83895295Y-153626785D02*
X83990533Y-153626785D01*
X83990533Y-153626785D02*
X84133390Y-153674404D01*
X84133390Y-153674404D02*
X84704819Y-154245832D01*
X84704819Y-154245832D02*
X84704819Y-153626785D01*
D14*
X75532381Y-156966818D02*
X76258095Y-156966818D01*
X75895238Y-158236818D02*
X75895238Y-156966818D01*
X77346667Y-158236818D02*
X76620952Y-158236818D01*
X76983809Y-158236818D02*
X76983809Y-156966818D01*
X76983809Y-156966818D02*
X76862857Y-157148246D01*
X76862857Y-157148246D02*
X76741905Y-157269199D01*
X76741905Y-157269199D02*
X76620952Y-157329675D01*
D13*
X95609580Y-159166666D02*
X95657200Y-159214285D01*
X95657200Y-159214285D02*
X95704819Y-159357142D01*
X95704819Y-159357142D02*
X95704819Y-159452380D01*
X95704819Y-159452380D02*
X95657200Y-159595237D01*
X95657200Y-159595237D02*
X95561961Y-159690475D01*
X95561961Y-159690475D02*
X95466723Y-159738094D01*
X95466723Y-159738094D02*
X95276247Y-159785713D01*
X95276247Y-159785713D02*
X95133390Y-159785713D01*
X95133390Y-159785713D02*
X94942914Y-159738094D01*
X94942914Y-159738094D02*
X94847676Y-159690475D01*
X94847676Y-159690475D02*
X94752438Y-159595237D01*
X94752438Y-159595237D02*
X94704819Y-159452380D01*
X94704819Y-159452380D02*
X94704819Y-159357142D01*
X94704819Y-159357142D02*
X94752438Y-159214285D01*
X94752438Y-159214285D02*
X94800057Y-159166666D01*
X94704819Y-158833332D02*
X94704819Y-158166666D01*
X94704819Y-158166666D02*
X95704819Y-158595237D01*
X126604819Y-151329166D02*
X126128628Y-151662499D01*
X126604819Y-151900594D02*
X125604819Y-151900594D01*
X125604819Y-151900594D02*
X125604819Y-151519642D01*
X125604819Y-151519642D02*
X125652438Y-151424404D01*
X125652438Y-151424404D02*
X125700057Y-151376785D01*
X125700057Y-151376785D02*
X125795295Y-151329166D01*
X125795295Y-151329166D02*
X125938152Y-151329166D01*
X125938152Y-151329166D02*
X126033390Y-151376785D01*
X126033390Y-151376785D02*
X126081009Y-151424404D01*
X126081009Y-151424404D02*
X126128628Y-151519642D01*
X126128628Y-151519642D02*
X126128628Y-151900594D01*
X126604819Y-150852975D02*
X126604819Y-150662499D01*
X126604819Y-150662499D02*
X126557200Y-150567261D01*
X126557200Y-150567261D02*
X126509580Y-150519642D01*
X126509580Y-150519642D02*
X126366723Y-150424404D01*
X126366723Y-150424404D02*
X126176247Y-150376785D01*
X126176247Y-150376785D02*
X125795295Y-150376785D01*
X125795295Y-150376785D02*
X125700057Y-150424404D01*
X125700057Y-150424404D02*
X125652438Y-150472023D01*
X125652438Y-150472023D02*
X125604819Y-150567261D01*
X125604819Y-150567261D02*
X125604819Y-150757737D01*
X125604819Y-150757737D02*
X125652438Y-150852975D01*
X125652438Y-150852975D02*
X125700057Y-150900594D01*
X125700057Y-150900594D02*
X125795295Y-150948213D01*
X125795295Y-150948213D02*
X126033390Y-150948213D01*
X126033390Y-150948213D02*
X126128628Y-150900594D01*
X126128628Y-150900594D02*
X126176247Y-150852975D01*
X126176247Y-150852975D02*
X126223866Y-150757737D01*
X126223866Y-150757737D02*
X126223866Y-150567261D01*
X126223866Y-150567261D02*
X126176247Y-150472023D01*
X126176247Y-150472023D02*
X126128628Y-150424404D01*
X126128628Y-150424404D02*
X126033390Y-150376785D01*
X131988095Y-129704819D02*
X131988095Y-130514342D01*
X131988095Y-130514342D02*
X132035714Y-130609580D01*
X132035714Y-130609580D02*
X132083333Y-130657200D01*
X132083333Y-130657200D02*
X132178571Y-130704819D01*
X132178571Y-130704819D02*
X132369047Y-130704819D01*
X132369047Y-130704819D02*
X132464285Y-130657200D01*
X132464285Y-130657200D02*
X132511904Y-130609580D01*
X132511904Y-130609580D02*
X132559523Y-130514342D01*
X132559523Y-130514342D02*
X132559523Y-129704819D01*
X132940476Y-129704819D02*
X133559523Y-129704819D01*
X133559523Y-129704819D02*
X133226190Y-130085771D01*
X133226190Y-130085771D02*
X133369047Y-130085771D01*
X133369047Y-130085771D02*
X133464285Y-130133390D01*
X133464285Y-130133390D02*
X133511904Y-130181009D01*
X133511904Y-130181009D02*
X133559523Y-130276247D01*
X133559523Y-130276247D02*
X133559523Y-130514342D01*
X133559523Y-130514342D02*
X133511904Y-130609580D01*
X133511904Y-130609580D02*
X133464285Y-130657200D01*
X133464285Y-130657200D02*
X133369047Y-130704819D01*
X133369047Y-130704819D02*
X133083333Y-130704819D01*
X133083333Y-130704819D02*
X132988095Y-130657200D01*
X132988095Y-130657200D02*
X132940476Y-130609580D01*
X130359580Y-158166666D02*
X130407200Y-158214285D01*
X130407200Y-158214285D02*
X130454819Y-158357142D01*
X130454819Y-158357142D02*
X130454819Y-158452380D01*
X130454819Y-158452380D02*
X130407200Y-158595237D01*
X130407200Y-158595237D02*
X130311961Y-158690475D01*
X130311961Y-158690475D02*
X130216723Y-158738094D01*
X130216723Y-158738094D02*
X130026247Y-158785713D01*
X130026247Y-158785713D02*
X129883390Y-158785713D01*
X129883390Y-158785713D02*
X129692914Y-158738094D01*
X129692914Y-158738094D02*
X129597676Y-158690475D01*
X129597676Y-158690475D02*
X129502438Y-158595237D01*
X129502438Y-158595237D02*
X129454819Y-158452380D01*
X129454819Y-158452380D02*
X129454819Y-158357142D01*
X129454819Y-158357142D02*
X129502438Y-158214285D01*
X129502438Y-158214285D02*
X129550057Y-158166666D01*
X129454819Y-157833332D02*
X129454819Y-157214285D01*
X129454819Y-157214285D02*
X129835771Y-157547618D01*
X129835771Y-157547618D02*
X129835771Y-157404761D01*
X129835771Y-157404761D02*
X129883390Y-157309523D01*
X129883390Y-157309523D02*
X129931009Y-157261904D01*
X129931009Y-157261904D02*
X130026247Y-157214285D01*
X130026247Y-157214285D02*
X130264342Y-157214285D01*
X130264342Y-157214285D02*
X130359580Y-157261904D01*
X130359580Y-157261904D02*
X130407200Y-157309523D01*
X130407200Y-157309523D02*
X130454819Y-157404761D01*
X130454819Y-157404761D02*
X130454819Y-157690475D01*
X130454819Y-157690475D02*
X130407200Y-157785713D01*
X130407200Y-157785713D02*
X130359580Y-157833332D01*
X124359580Y-155142857D02*
X124407200Y-155190476D01*
X124407200Y-155190476D02*
X124454819Y-155333333D01*
X124454819Y-155333333D02*
X124454819Y-155428571D01*
X124454819Y-155428571D02*
X124407200Y-155571428D01*
X124407200Y-155571428D02*
X124311961Y-155666666D01*
X124311961Y-155666666D02*
X124216723Y-155714285D01*
X124216723Y-155714285D02*
X124026247Y-155761904D01*
X124026247Y-155761904D02*
X123883390Y-155761904D01*
X123883390Y-155761904D02*
X123692914Y-155714285D01*
X123692914Y-155714285D02*
X123597676Y-155666666D01*
X123597676Y-155666666D02*
X123502438Y-155571428D01*
X123502438Y-155571428D02*
X123454819Y-155428571D01*
X123454819Y-155428571D02*
X123454819Y-155333333D01*
X123454819Y-155333333D02*
X123502438Y-155190476D01*
X123502438Y-155190476D02*
X123550057Y-155142857D01*
X124454819Y-154190476D02*
X124454819Y-154761904D01*
X124454819Y-154476190D02*
X123454819Y-154476190D01*
X123454819Y-154476190D02*
X123597676Y-154571428D01*
X123597676Y-154571428D02*
X123692914Y-154666666D01*
X123692914Y-154666666D02*
X123740533Y-154761904D01*
X123454819Y-153857142D02*
X123454819Y-153238095D01*
X123454819Y-153238095D02*
X123835771Y-153571428D01*
X123835771Y-153571428D02*
X123835771Y-153428571D01*
X123835771Y-153428571D02*
X123883390Y-153333333D01*
X123883390Y-153333333D02*
X123931009Y-153285714D01*
X123931009Y-153285714D02*
X124026247Y-153238095D01*
X124026247Y-153238095D02*
X124264342Y-153238095D01*
X124264342Y-153238095D02*
X124359580Y-153285714D01*
X124359580Y-153285714D02*
X124407200Y-153333333D01*
X124407200Y-153333333D02*
X124454819Y-153428571D01*
X124454819Y-153428571D02*
X124454819Y-153714285D01*
X124454819Y-153714285D02*
X124407200Y-153809523D01*
X124407200Y-153809523D02*
X124359580Y-153857142D01*
X128359580Y-146142857D02*
X128407200Y-146190476D01*
X128407200Y-146190476D02*
X128454819Y-146333333D01*
X128454819Y-146333333D02*
X128454819Y-146428571D01*
X128454819Y-146428571D02*
X128407200Y-146571428D01*
X128407200Y-146571428D02*
X128311961Y-146666666D01*
X128311961Y-146666666D02*
X128216723Y-146714285D01*
X128216723Y-146714285D02*
X128026247Y-146761904D01*
X128026247Y-146761904D02*
X127883390Y-146761904D01*
X127883390Y-146761904D02*
X127692914Y-146714285D01*
X127692914Y-146714285D02*
X127597676Y-146666666D01*
X127597676Y-146666666D02*
X127502438Y-146571428D01*
X127502438Y-146571428D02*
X127454819Y-146428571D01*
X127454819Y-146428571D02*
X127454819Y-146333333D01*
X127454819Y-146333333D02*
X127502438Y-146190476D01*
X127502438Y-146190476D02*
X127550057Y-146142857D01*
X127550057Y-145761904D02*
X127502438Y-145714285D01*
X127502438Y-145714285D02*
X127454819Y-145619047D01*
X127454819Y-145619047D02*
X127454819Y-145380952D01*
X127454819Y-145380952D02*
X127502438Y-145285714D01*
X127502438Y-145285714D02*
X127550057Y-145238095D01*
X127550057Y-145238095D02*
X127645295Y-145190476D01*
X127645295Y-145190476D02*
X127740533Y-145190476D01*
X127740533Y-145190476D02*
X127883390Y-145238095D01*
X127883390Y-145238095D02*
X128454819Y-145809523D01*
X128454819Y-145809523D02*
X128454819Y-145190476D01*
X127788152Y-144333333D02*
X128454819Y-144333333D01*
X127407200Y-144571428D02*
X128121485Y-144809523D01*
X128121485Y-144809523D02*
X128121485Y-144190476D01*
D14*
X130288333Y-136453365D02*
X130227857Y-136513842D01*
X130227857Y-136513842D02*
X130046428Y-136574318D01*
X130046428Y-136574318D02*
X129925476Y-136574318D01*
X129925476Y-136574318D02*
X129744047Y-136513842D01*
X129744047Y-136513842D02*
X129623095Y-136392889D01*
X129623095Y-136392889D02*
X129562618Y-136271937D01*
X129562618Y-136271937D02*
X129502142Y-136030032D01*
X129502142Y-136030032D02*
X129502142Y-135848603D01*
X129502142Y-135848603D02*
X129562618Y-135606699D01*
X129562618Y-135606699D02*
X129623095Y-135485746D01*
X129623095Y-135485746D02*
X129744047Y-135364794D01*
X129744047Y-135364794D02*
X129925476Y-135304318D01*
X129925476Y-135304318D02*
X130046428Y-135304318D01*
X130046428Y-135304318D02*
X130227857Y-135364794D01*
X130227857Y-135364794D02*
X130288333Y-135425270D01*
X131014047Y-135848603D02*
X130893095Y-135788127D01*
X130893095Y-135788127D02*
X130832618Y-135727651D01*
X130832618Y-135727651D02*
X130772142Y-135606699D01*
X130772142Y-135606699D02*
X130772142Y-135546222D01*
X130772142Y-135546222D02*
X130832618Y-135425270D01*
X130832618Y-135425270D02*
X130893095Y-135364794D01*
X130893095Y-135364794D02*
X131014047Y-135304318D01*
X131014047Y-135304318D02*
X131255952Y-135304318D01*
X131255952Y-135304318D02*
X131376904Y-135364794D01*
X131376904Y-135364794D02*
X131437380Y-135425270D01*
X131437380Y-135425270D02*
X131497857Y-135546222D01*
X131497857Y-135546222D02*
X131497857Y-135606699D01*
X131497857Y-135606699D02*
X131437380Y-135727651D01*
X131437380Y-135727651D02*
X131376904Y-135788127D01*
X131376904Y-135788127D02*
X131255952Y-135848603D01*
X131255952Y-135848603D02*
X131014047Y-135848603D01*
X131014047Y-135848603D02*
X130893095Y-135909080D01*
X130893095Y-135909080D02*
X130832618Y-135969556D01*
X130832618Y-135969556D02*
X130772142Y-136090508D01*
X130772142Y-136090508D02*
X130772142Y-136332413D01*
X130772142Y-136332413D02*
X130832618Y-136453365D01*
X130832618Y-136453365D02*
X130893095Y-136513842D01*
X130893095Y-136513842D02*
X131014047Y-136574318D01*
X131014047Y-136574318D02*
X131255952Y-136574318D01*
X131255952Y-136574318D02*
X131376904Y-136513842D01*
X131376904Y-136513842D02*
X131437380Y-136453365D01*
X131437380Y-136453365D02*
X131497857Y-136332413D01*
X131497857Y-136332413D02*
X131497857Y-136090508D01*
X131497857Y-136090508D02*
X131437380Y-135969556D01*
X131437380Y-135969556D02*
X131376904Y-135909080D01*
X131376904Y-135909080D02*
X131255952Y-135848603D01*
D10*
X138077068Y-132510200D02*
X136934211Y-132510200D01*
X137505639Y-131938771D02*
X137505639Y-133081628D01*
D13*
X100011905Y-135204819D02*
X100011905Y-134204819D01*
X100011905Y-134204819D02*
X100250000Y-134204819D01*
X100250000Y-134204819D02*
X100392857Y-134252438D01*
X100392857Y-134252438D02*
X100488095Y-134347676D01*
X100488095Y-134347676D02*
X100535714Y-134442914D01*
X100535714Y-134442914D02*
X100583333Y-134633390D01*
X100583333Y-134633390D02*
X100583333Y-134776247D01*
X100583333Y-134776247D02*
X100535714Y-134966723D01*
X100535714Y-134966723D02*
X100488095Y-135061961D01*
X100488095Y-135061961D02*
X100392857Y-135157200D01*
X100392857Y-135157200D02*
X100250000Y-135204819D01*
X100250000Y-135204819D02*
X100011905Y-135204819D01*
X101535714Y-135204819D02*
X100964286Y-135204819D01*
X101250000Y-135204819D02*
X101250000Y-134204819D01*
X101250000Y-134204819D02*
X101154762Y-134347676D01*
X101154762Y-134347676D02*
X101059524Y-134442914D01*
X101059524Y-134442914D02*
X100964286Y-134490533D01*
X81231666Y-135954819D02*
X81231666Y-136669104D01*
X81231666Y-136669104D02*
X81184047Y-136811961D01*
X81184047Y-136811961D02*
X81088809Y-136907200D01*
X81088809Y-136907200D02*
X80945952Y-136954819D01*
X80945952Y-136954819D02*
X80850714Y-136954819D01*
X82136428Y-135954819D02*
X81945952Y-135954819D01*
X81945952Y-135954819D02*
X81850714Y-136002438D01*
X81850714Y-136002438D02*
X81803095Y-136050057D01*
X81803095Y-136050057D02*
X81707857Y-136192914D01*
X81707857Y-136192914D02*
X81660238Y-136383390D01*
X81660238Y-136383390D02*
X81660238Y-136764342D01*
X81660238Y-136764342D02*
X81707857Y-136859580D01*
X81707857Y-136859580D02*
X81755476Y-136907200D01*
X81755476Y-136907200D02*
X81850714Y-136954819D01*
X81850714Y-136954819D02*
X82041190Y-136954819D01*
X82041190Y-136954819D02*
X82136428Y-136907200D01*
X82136428Y-136907200D02*
X82184047Y-136859580D01*
X82184047Y-136859580D02*
X82231666Y-136764342D01*
X82231666Y-136764342D02*
X82231666Y-136526247D01*
X82231666Y-136526247D02*
X82184047Y-136431009D01*
X82184047Y-136431009D02*
X82136428Y-136383390D01*
X82136428Y-136383390D02*
X82041190Y-136335771D01*
X82041190Y-136335771D02*
X81850714Y-136335771D01*
X81850714Y-136335771D02*
X81755476Y-136383390D01*
X81755476Y-136383390D02*
X81707857Y-136431009D01*
X81707857Y-136431009D02*
X81660238Y-136526247D01*
X106988095Y-104954819D02*
X106988095Y-105764342D01*
X106988095Y-105764342D02*
X107035714Y-105859580D01*
X107035714Y-105859580D02*
X107083333Y-105907200D01*
X107083333Y-105907200D02*
X107178571Y-105954819D01*
X107178571Y-105954819D02*
X107369047Y-105954819D01*
X107369047Y-105954819D02*
X107464285Y-105907200D01*
X107464285Y-105907200D02*
X107511904Y-105859580D01*
X107511904Y-105859580D02*
X107559523Y-105764342D01*
X107559523Y-105764342D02*
X107559523Y-104954819D01*
X108464285Y-105288152D02*
X108464285Y-105954819D01*
X108226190Y-104907200D02*
X107988095Y-105621485D01*
X107988095Y-105621485D02*
X108607142Y-105621485D01*
X100604819Y-151230357D02*
X100128628Y-151563690D01*
X100604819Y-151801785D02*
X99604819Y-151801785D01*
X99604819Y-151801785D02*
X99604819Y-151420833D01*
X99604819Y-151420833D02*
X99652438Y-151325595D01*
X99652438Y-151325595D02*
X99700057Y-151277976D01*
X99700057Y-151277976D02*
X99795295Y-151230357D01*
X99795295Y-151230357D02*
X99938152Y-151230357D01*
X99938152Y-151230357D02*
X100033390Y-151277976D01*
X100033390Y-151277976D02*
X100081009Y-151325595D01*
X100081009Y-151325595D02*
X100128628Y-151420833D01*
X100128628Y-151420833D02*
X100128628Y-151801785D01*
X100604819Y-150277976D02*
X100604819Y-150849404D01*
X100604819Y-150563690D02*
X99604819Y-150563690D01*
X99604819Y-150563690D02*
X99747676Y-150658928D01*
X99747676Y-150658928D02*
X99842914Y-150754166D01*
X99842914Y-150754166D02*
X99890533Y-150849404D01*
X100604819Y-149325595D02*
X100604819Y-149897023D01*
X100604819Y-149611309D02*
X99604819Y-149611309D01*
X99604819Y-149611309D02*
X99747676Y-149706547D01*
X99747676Y-149706547D02*
X99842914Y-149801785D01*
X99842914Y-149801785D02*
X99890533Y-149897023D01*
D14*
X106183571Y-93953365D02*
X106123095Y-94013842D01*
X106123095Y-94013842D02*
X105941666Y-94074318D01*
X105941666Y-94074318D02*
X105820714Y-94074318D01*
X105820714Y-94074318D02*
X105639285Y-94013842D01*
X105639285Y-94013842D02*
X105518333Y-93892889D01*
X105518333Y-93892889D02*
X105457856Y-93771937D01*
X105457856Y-93771937D02*
X105397380Y-93530032D01*
X105397380Y-93530032D02*
X105397380Y-93348603D01*
X105397380Y-93348603D02*
X105457856Y-93106699D01*
X105457856Y-93106699D02*
X105518333Y-92985746D01*
X105518333Y-92985746D02*
X105639285Y-92864794D01*
X105639285Y-92864794D02*
X105820714Y-92804318D01*
X105820714Y-92804318D02*
X105941666Y-92804318D01*
X105941666Y-92804318D02*
X106123095Y-92864794D01*
X106123095Y-92864794D02*
X106183571Y-92925270D01*
X107393095Y-94074318D02*
X106667380Y-94074318D01*
X107030237Y-94074318D02*
X107030237Y-92804318D01*
X107030237Y-92804318D02*
X106909285Y-92985746D01*
X106909285Y-92985746D02*
X106788333Y-93106699D01*
X106788333Y-93106699D02*
X106667380Y-93167175D01*
X108542142Y-92804318D02*
X107937380Y-92804318D01*
X107937380Y-92804318D02*
X107876904Y-93409080D01*
X107876904Y-93409080D02*
X107937380Y-93348603D01*
X107937380Y-93348603D02*
X108058333Y-93288127D01*
X108058333Y-93288127D02*
X108360714Y-93288127D01*
X108360714Y-93288127D02*
X108481666Y-93348603D01*
X108481666Y-93348603D02*
X108542142Y-93409080D01*
X108542142Y-93409080D02*
X108602619Y-93530032D01*
X108602619Y-93530032D02*
X108602619Y-93832413D01*
X108602619Y-93832413D02*
X108542142Y-93953365D01*
X108542142Y-93953365D02*
X108481666Y-94013842D01*
X108481666Y-94013842D02*
X108360714Y-94074318D01*
X108360714Y-94074318D02*
X108058333Y-94074318D01*
X108058333Y-94074318D02*
X107937380Y-94013842D01*
X107937380Y-94013842D02*
X107876904Y-93953365D01*
D13*
X125954819Y-155142857D02*
X125478628Y-155476190D01*
X125954819Y-155714285D02*
X124954819Y-155714285D01*
X124954819Y-155714285D02*
X124954819Y-155333333D01*
X124954819Y-155333333D02*
X125002438Y-155238095D01*
X125002438Y-155238095D02*
X125050057Y-155190476D01*
X125050057Y-155190476D02*
X125145295Y-155142857D01*
X125145295Y-155142857D02*
X125288152Y-155142857D01*
X125288152Y-155142857D02*
X125383390Y-155190476D01*
X125383390Y-155190476D02*
X125431009Y-155238095D01*
X125431009Y-155238095D02*
X125478628Y-155333333D01*
X125478628Y-155333333D02*
X125478628Y-155714285D01*
X125954819Y-154190476D02*
X125954819Y-154761904D01*
X125954819Y-154476190D02*
X124954819Y-154476190D01*
X124954819Y-154476190D02*
X125097676Y-154571428D01*
X125097676Y-154571428D02*
X125192914Y-154666666D01*
X125192914Y-154666666D02*
X125240533Y-154761904D01*
X124954819Y-153333333D02*
X124954819Y-153523809D01*
X124954819Y-153523809D02*
X125002438Y-153619047D01*
X125002438Y-153619047D02*
X125050057Y-153666666D01*
X125050057Y-153666666D02*
X125192914Y-153761904D01*
X125192914Y-153761904D02*
X125383390Y-153809523D01*
X125383390Y-153809523D02*
X125764342Y-153809523D01*
X125764342Y-153809523D02*
X125859580Y-153761904D01*
X125859580Y-153761904D02*
X125907200Y-153714285D01*
X125907200Y-153714285D02*
X125954819Y-153619047D01*
X125954819Y-153619047D02*
X125954819Y-153428571D01*
X125954819Y-153428571D02*
X125907200Y-153333333D01*
X125907200Y-153333333D02*
X125859580Y-153285714D01*
X125859580Y-153285714D02*
X125764342Y-153238095D01*
X125764342Y-153238095D02*
X125526247Y-153238095D01*
X125526247Y-153238095D02*
X125431009Y-153285714D01*
X125431009Y-153285714D02*
X125383390Y-153333333D01*
X125383390Y-153333333D02*
X125335771Y-153428571D01*
X125335771Y-153428571D02*
X125335771Y-153619047D01*
X125335771Y-153619047D02*
X125383390Y-153714285D01*
X125383390Y-153714285D02*
X125431009Y-153761904D01*
X125431009Y-153761904D02*
X125526247Y-153809523D01*
X126604819Y-147666666D02*
X126128628Y-147999999D01*
X126604819Y-148238094D02*
X125604819Y-148238094D01*
X125604819Y-148238094D02*
X125604819Y-147857142D01*
X125604819Y-147857142D02*
X125652438Y-147761904D01*
X125652438Y-147761904D02*
X125700057Y-147714285D01*
X125700057Y-147714285D02*
X125795295Y-147666666D01*
X125795295Y-147666666D02*
X125938152Y-147666666D01*
X125938152Y-147666666D02*
X126033390Y-147714285D01*
X126033390Y-147714285D02*
X126081009Y-147761904D01*
X126081009Y-147761904D02*
X126128628Y-147857142D01*
X126128628Y-147857142D02*
X126128628Y-148238094D01*
X125938152Y-146809523D02*
X126604819Y-146809523D01*
X125557200Y-147047618D02*
X126271485Y-147285713D01*
X126271485Y-147285713D02*
X126271485Y-146666666D01*
D15*
%TO.C,D3*%
X84852500Y-148952500D02*
X84852500Y-151212500D01*
X86572500Y-148952500D02*
X84852500Y-148952500D01*
X86572500Y-151212500D02*
X86572500Y-148952500D01*
D10*
%TO.C,C22*%
X68000000Y-124750000D02*
X75000000Y-124750000D01*
X68000000Y-142750000D02*
X68000000Y-124750000D01*
X75000000Y-124750000D02*
X75000000Y-142750000D01*
X75000000Y-142750000D02*
X68000000Y-142750000D01*
%TO.C,D9*%
X50012500Y-106500000D02*
X50012500Y-123500000D01*
X50012500Y-123500000D02*
X76512500Y-123500000D01*
X76512500Y-106500000D02*
X50012500Y-106500000D01*
X76512500Y-107500000D02*
X76512500Y-106500000D01*
X76512500Y-123500000D02*
X76512500Y-122500000D01*
X57152500Y-115050000D02*
G75*
G02*
X56152500Y-115050000I-500000J0D01*
G01*
X56152500Y-115050000D02*
G75*
G02*
X57152500Y-115050000I500000J0D01*
G01*
D15*
%TO.C,C14*%
X104265000Y-154313748D02*
X104265000Y-154836252D01*
X105735000Y-154313748D02*
X105735000Y-154836252D01*
%TO.C,R6*%
X97765000Y-146610436D02*
X97765000Y-147064564D01*
X99235000Y-146610436D02*
X99235000Y-147064564D01*
D10*
%TO.C,D6*%
X131487500Y-57500000D02*
X131487500Y-58500000D01*
X131487500Y-73500000D02*
X131487500Y-74500000D01*
X131487500Y-74500000D02*
X157987500Y-74500000D01*
X157987500Y-57500000D02*
X131487500Y-57500000D01*
X157987500Y-74500000D02*
X157987500Y-57500000D01*
X151847500Y-65950000D02*
G75*
G02*
X150847500Y-65950000I-500000J0D01*
G01*
X150847500Y-65950000D02*
G75*
G02*
X151847500Y-65950000I500000J0D01*
G01*
D15*
%TO.C,D4*%
X65490000Y-154562500D02*
X65490000Y-156262500D01*
X65490000Y-154562500D02*
X68150000Y-154562500D01*
X65490000Y-156262500D02*
X68150000Y-156262500D01*
%TO.C,R17*%
X99265000Y-154347936D02*
X99265000Y-154802064D01*
X100735000Y-154347936D02*
X100735000Y-154802064D01*
%TO.C,R1*%
X94577500Y-150889564D02*
X94577500Y-150435436D01*
X96047500Y-150889564D02*
X96047500Y-150435436D01*
%TO.C,R22*%
X101765000Y-154347936D02*
X101765000Y-154802064D01*
X103235000Y-154347936D02*
X103235000Y-154802064D01*
%TO.C,R24*%
X90772936Y-139015000D02*
X91227064Y-139015000D01*
X90772936Y-140485000D02*
X91227064Y-140485000D01*
%TO.C,J7*%
X122615000Y-130635000D02*
X122615000Y-128235000D01*
X125115000Y-125735000D02*
X127515000Y-125735000D01*
X127515000Y-133135000D02*
X125115000Y-133135000D01*
X130015000Y-128235000D02*
X130015000Y-130635000D01*
%TO.C,R3*%
X102727064Y-142515000D02*
X102272936Y-142515000D01*
X102727064Y-143985000D02*
X102272936Y-143985000D01*
D10*
%TO.C,D5*%
X50012500Y-57500000D02*
X50012500Y-74500000D01*
X50012500Y-74500000D02*
X76512500Y-74500000D01*
X76512500Y-57500000D02*
X50012500Y-57500000D01*
X76512500Y-58500000D02*
X76512500Y-57500000D01*
X76512500Y-74500000D02*
X76512500Y-73500000D01*
X57152500Y-66050000D02*
G75*
G02*
X56152500Y-66050000I-500000J0D01*
G01*
X56152500Y-66050000D02*
G75*
G02*
X57152500Y-66050000I500000J0D01*
G01*
D15*
%TO.C,C12*%
X144265000Y-127488748D02*
X144265000Y-128011252D01*
X145735000Y-127488748D02*
X145735000Y-128011252D01*
D16*
%TO.C,C4*%
X91750000Y-159662500D02*
G75*
G02*
X83750000Y-159662500I-4000000J0D01*
G01*
X83750000Y-159662500D02*
G75*
G02*
X91750000Y-159662500I4000000J0D01*
G01*
D15*
%TO.C,R21*%
X114765000Y-154322936D02*
X114765000Y-154777064D01*
X116235000Y-154322936D02*
X116235000Y-154777064D01*
%TO.C,C5*%
X92077500Y-150923752D02*
X92077500Y-150401248D01*
X93547500Y-150923752D02*
X93547500Y-150401248D01*
D10*
%TO.C,Q2*%
X131487500Y-106500000D02*
X131487500Y-107500000D01*
X131487500Y-122500000D02*
X131487500Y-123500000D01*
X131487500Y-123500000D02*
X157987500Y-123500000D01*
X157987500Y-106500000D02*
X131487500Y-106500000D01*
X157987500Y-123500000D02*
X157987500Y-106500000D01*
X151847500Y-114950000D02*
G75*
G02*
X150847500Y-114950000I-500000J0D01*
G01*
X150847500Y-114950000D02*
G75*
G02*
X151847500Y-114950000I500000J0D01*
G01*
D15*
%TO.C,U2*%
X131037500Y-158990000D02*
X131037500Y-156990000D01*
X131337500Y-138970000D02*
X141357500Y-138970000D01*
X131337500Y-158690000D02*
X131337500Y-138970000D01*
X131337500Y-158690000D02*
X141357500Y-158690000D01*
X133037500Y-158990000D02*
X131037500Y-158990000D01*
X141357500Y-158690000D02*
X141357500Y-138970000D01*
%TO.C,R18*%
X67227064Y-147927500D02*
X66772936Y-147927500D01*
X67227064Y-149397500D02*
X66772936Y-149397500D01*
%TO.C,C11*%
X140761252Y-129765000D02*
X140238748Y-129765000D01*
X140761252Y-131235000D02*
X140238748Y-131235000D01*
%TO.C,R7*%
X101765000Y-146610436D02*
X101765000Y-147064564D01*
X103235000Y-146610436D02*
X103235000Y-147064564D01*
%TO.C,U1*%
X110250000Y-153990000D02*
X108300000Y-153990000D01*
X110250000Y-153990000D02*
X112200000Y-153990000D01*
X110250000Y-159110000D02*
X108300000Y-159110000D01*
X110250000Y-159110000D02*
X112200000Y-159110000D01*
X107550000Y-154085000D02*
X107310000Y-153755000D01*
X107790000Y-153755000D01*
X107550000Y-154085000D01*
G36*
X107550000Y-154085000D02*
G01*
X107310000Y-153755000D01*
X107790000Y-153755000D01*
X107550000Y-154085000D01*
G37*
D10*
%TO.C,C21*%
X59500000Y-124750000D02*
X66500000Y-124750000D01*
X59500000Y-142750000D02*
X59500000Y-124750000D01*
X66500000Y-124750000D02*
X66500000Y-142750000D01*
X66500000Y-142750000D02*
X59500000Y-142750000D01*
D15*
%TO.C,C1*%
X108761252Y-159890000D02*
X108238748Y-159890000D01*
X108761252Y-161360000D02*
X108238748Y-161360000D01*
%TO.C,Q1*%
X89250000Y-149102500D02*
X88600000Y-149102500D01*
X89250000Y-149102500D02*
X89900000Y-149102500D01*
X89250000Y-152222500D02*
X88600000Y-152222500D01*
X89250000Y-152222500D02*
X89900000Y-152222500D01*
X90652500Y-152502500D02*
X90172500Y-152502500D01*
X90412500Y-152172500D01*
X90652500Y-152502500D01*
G36*
X90652500Y-152502500D02*
G01*
X90172500Y-152502500D01*
X90412500Y-152172500D01*
X90652500Y-152502500D01*
G37*
%TO.C,R14*%
X104265000Y-158689564D02*
X104265000Y-158235436D01*
X105735000Y-158689564D02*
X105735000Y-158235436D01*
%TO.C,R15*%
X67227064Y-151177500D02*
X66772936Y-151177500D01*
X67227064Y-152647500D02*
X66772936Y-152647500D01*
D16*
%TO.C,C18*%
X148000000Y-135250000D02*
G75*
G02*
X140000000Y-135250000I-4000000J0D01*
G01*
X140000000Y-135250000D02*
G75*
G02*
X148000000Y-135250000I4000000J0D01*
G01*
D15*
%TO.C,J2*%
X110485000Y-76200000D02*
X110485000Y-73800000D01*
X112985000Y-71300000D02*
X115385000Y-71300000D01*
X115385000Y-78700000D02*
X112985000Y-78700000D01*
X117885000Y-73800000D02*
X117885000Y-76200000D01*
%TO.C,R26*%
X90772936Y-135265000D02*
X91227064Y-135265000D01*
X90772936Y-136735000D02*
X91227064Y-136735000D01*
D10*
%TO.C,D8*%
X131487500Y-82000000D02*
X131487500Y-83000000D01*
X131487500Y-98000000D02*
X131487500Y-99000000D01*
X131487500Y-99000000D02*
X157987500Y-99000000D01*
X157987500Y-82000000D02*
X131487500Y-82000000D01*
X157987500Y-99000000D02*
X157987500Y-82000000D01*
X151847500Y-90450000D02*
G75*
G02*
X150847500Y-90450000I-500000J0D01*
G01*
X150847500Y-90450000D02*
G75*
G02*
X151847500Y-90450000I500000J0D01*
G01*
D15*
%TO.C,R19*%
X134227064Y-124265000D02*
X133772936Y-124265000D01*
X134227064Y-125735000D02*
X133772936Y-125735000D01*
%TO.C,R20*%
X134227064Y-127515000D02*
X133772936Y-127515000D01*
X134227064Y-128985000D02*
X133772936Y-128985000D01*
%TO.C,C9*%
X114765000Y-158673752D02*
X114765000Y-158151248D01*
X116235000Y-158673752D02*
X116235000Y-158151248D01*
%TO.C,R10*%
X119765000Y-149272936D02*
X119765000Y-149727064D01*
X121235000Y-149272936D02*
X121235000Y-149727064D01*
%TO.C,C6*%
X119802500Y-158673752D02*
X119802500Y-158151248D01*
X121272500Y-158673752D02*
X121272500Y-158151248D01*
%TO.C,R25*%
X94522936Y-135265000D02*
X94977064Y-135265000D01*
X94522936Y-136735000D02*
X94977064Y-136735000D01*
%TO.C,J3*%
X89985000Y-100135000D02*
X89985000Y-97735000D01*
X92485000Y-95235000D02*
X94885000Y-95235000D01*
X94885000Y-102635000D02*
X92485000Y-102635000D01*
X97385000Y-97735000D02*
X97385000Y-100135000D01*
%TO.C,R8*%
X89227064Y-153177500D02*
X88772936Y-153177500D01*
X89227064Y-154647500D02*
X88772936Y-154647500D01*
%TO.C,R2*%
X98977064Y-142515000D02*
X98522936Y-142515000D01*
X98977064Y-143985000D02*
X98522936Y-143985000D01*
D10*
%TO.C,C19*%
X51000000Y-124750000D02*
X58000000Y-124750000D01*
X51000000Y-142750000D02*
X51000000Y-124750000D01*
X58000000Y-124750000D02*
X58000000Y-142750000D01*
X58000000Y-142750000D02*
X51000000Y-142750000D01*
D15*
%TO.C,C10*%
X101765000Y-158723752D02*
X101765000Y-158201248D01*
X103235000Y-158723752D02*
X103235000Y-158201248D01*
%TO.C,J4*%
X110485000Y-100135000D02*
X110485000Y-97735000D01*
X112985000Y-95235000D02*
X115385000Y-95235000D01*
X115385000Y-102635000D02*
X112985000Y-102635000D01*
X117885000Y-97735000D02*
X117885000Y-100135000D01*
%TO.C,R13*%
X117265000Y-158639564D02*
X117265000Y-158185436D01*
X118735000Y-158639564D02*
X118735000Y-158185436D01*
%TO.C,R23*%
X94772936Y-139015000D02*
X95227064Y-139015000D01*
X94772936Y-140485000D02*
X95227064Y-140485000D01*
%TO.C,J1*%
X89985000Y-76200000D02*
X89985000Y-73800000D01*
X92485000Y-71300000D02*
X94885000Y-71300000D01*
X94885000Y-78700000D02*
X92485000Y-78700000D01*
X97385000Y-73800000D02*
X97385000Y-76200000D01*
%TO.C,C23*%
X129265000Y-141438748D02*
X129265000Y-141961252D01*
X130735000Y-141438748D02*
X130735000Y-141961252D01*
%TO.C,J5*%
X148420000Y-124540000D02*
X157540000Y-124540000D01*
X148420000Y-145120000D02*
X148420000Y-124540000D01*
X149730000Y-125840000D02*
X156230000Y-125840000D01*
X149730000Y-143820000D02*
X149730000Y-125840000D01*
X156230000Y-125840000D02*
X156230000Y-132780000D01*
X156230000Y-132780000D02*
X156230000Y-132780000D01*
X156230000Y-132780000D02*
X157540000Y-132780000D01*
X156230000Y-136880000D02*
X156230000Y-143820000D01*
X156230000Y-143820000D02*
X149730000Y-143820000D01*
X157540000Y-124540000D02*
X157540000Y-145120000D01*
X157540000Y-136880000D02*
X156230000Y-136880000D01*
X157540000Y-145120000D02*
X148420000Y-145120000D01*
X157930000Y-139910000D02*
X158930000Y-140410000D01*
X158930000Y-139410000D02*
X157930000Y-139910000D01*
X158930000Y-140410000D02*
X158930000Y-139410000D01*
%TO.C,C20*%
X146265000Y-128011252D02*
X146265000Y-127488748D01*
X147735000Y-128011252D02*
X147735000Y-127488748D01*
%TO.C,C17*%
X107988748Y-135265000D02*
X108511252Y-135265000D01*
X107988748Y-136735000D02*
X108511252Y-136735000D01*
%TO.C,R12*%
X101765000Y-150360436D02*
X101765000Y-150814564D01*
X103235000Y-150360436D02*
X103235000Y-150814564D01*
%TO.C,R5*%
X119790000Y-145635436D02*
X119790000Y-146089564D01*
X121260000Y-145635436D02*
X121260000Y-146089564D01*
D10*
%TO.C,D7*%
X50012500Y-82000000D02*
X50012500Y-99000000D01*
X50012500Y-99000000D02*
X76512500Y-99000000D01*
X76512500Y-82000000D02*
X50012500Y-82000000D01*
X76512500Y-83000000D02*
X76512500Y-82000000D01*
X76512500Y-99000000D02*
X76512500Y-98000000D01*
X57152500Y-90550000D02*
G75*
G02*
X56152500Y-90550000I-500000J0D01*
G01*
X56152500Y-90550000D02*
G75*
G02*
X57152500Y-90550000I500000J0D01*
G01*
D15*
%TO.C,C16*%
X108511252Y-133015000D02*
X107988748Y-133015000D01*
X108511252Y-134485000D02*
X107988748Y-134485000D01*
%TO.C,C2*%
X81515000Y-159401248D02*
X81515000Y-159923752D01*
X82985000Y-159401248D02*
X82985000Y-159923752D01*
%TO.C,D2*%
X84862500Y-155272500D02*
X84862500Y-152612500D01*
X84862500Y-155272500D02*
X86562500Y-155272500D01*
X86562500Y-155272500D02*
X86562500Y-152612500D01*
D16*
%TO.C,T1*%
X71600000Y-147662500D02*
X80900000Y-147662500D01*
X71600000Y-156662500D02*
X71600000Y-147662500D01*
X80900000Y-147662500D02*
X80900000Y-156662500D01*
X80900000Y-156662500D02*
X71600000Y-156662500D01*
X83050000Y-155502500D02*
X81250000Y-155502500D01*
D15*
%TO.C,C7*%
X99265000Y-158723752D02*
X99265000Y-158201248D01*
X100735000Y-158723752D02*
X100735000Y-158201248D01*
%TO.C,R9*%
X123765000Y-150935436D02*
X123765000Y-151389564D01*
X125235000Y-150935436D02*
X125235000Y-151389564D01*
%TO.C,U3*%
X140000000Y-124190000D02*
X138050000Y-124190000D01*
X140000000Y-124190000D02*
X141950000Y-124190000D01*
X140000000Y-129310000D02*
X138050000Y-129310000D01*
X140000000Y-129310000D02*
X141950000Y-129310000D01*
X142940000Y-129545000D02*
X142460000Y-129545000D01*
X142700000Y-129215000D01*
X142940000Y-129545000D01*
G36*
X142940000Y-129545000D02*
G01*
X142460000Y-129545000D01*
X142700000Y-129215000D01*
X142940000Y-129545000D01*
G37*
%TO.C,C3*%
X129265000Y-155511252D02*
X129265000Y-154988748D01*
X130735000Y-155511252D02*
X130735000Y-154988748D01*
%TO.C,C13*%
X117265000Y-154288748D02*
X117265000Y-154811252D01*
X118735000Y-154288748D02*
X118735000Y-154811252D01*
%TO.C,C24*%
X129265000Y-145238748D02*
X129265000Y-145761252D01*
X130735000Y-145238748D02*
X130735000Y-145761252D01*
D16*
%TO.C,C8*%
X139750000Y-134250000D02*
G75*
G02*
X131750000Y-134250000I-4000000J0D01*
G01*
X131750000Y-134250000D02*
G75*
G02*
X139750000Y-134250000I4000000J0D01*
G01*
D15*
%TO.C,D1*%
X98140000Y-135475000D02*
X98140000Y-140775000D01*
X103350000Y-135475000D02*
X103350000Y-140075000D01*
X98140000Y-141555000D02*
X97860000Y-141275000D01*
X98140000Y-141275000D01*
X98140000Y-141555000D01*
G36*
X98140000Y-141555000D02*
G01*
X97860000Y-141275000D01*
X98140000Y-141275000D01*
X98140000Y-141555000D01*
G37*
%TO.C,J6*%
X77865000Y-130635000D02*
X77865000Y-128235000D01*
X80365000Y-125735000D02*
X82765000Y-125735000D01*
X82765000Y-133135000D02*
X80365000Y-133135000D01*
X85265000Y-128235000D02*
X85265000Y-130635000D01*
D10*
%TO.C,U4*%
X104150000Y-114400000D02*
X104150000Y-114900000D01*
X104150000Y-114400000D02*
X104650000Y-114400000D01*
X104150000Y-124600000D02*
X104150000Y-124100000D01*
X104150000Y-124600000D02*
X104650000Y-124600000D01*
X106450000Y-130700000D02*
X106450000Y-132100000D01*
X114350000Y-114400000D02*
X113850000Y-114400000D01*
X114350000Y-114400000D02*
X114350000Y-114900000D01*
X114350000Y-124600000D02*
X113850000Y-124600000D01*
X114350000Y-124600000D02*
X114350000Y-124100000D01*
D15*
%TO.C,R11*%
X97765000Y-150360436D02*
X97765000Y-150814564D01*
X99235000Y-150360436D02*
X99235000Y-150814564D01*
D10*
%TO.C,C15*%
X105500000Y-83750000D02*
X123500000Y-83750000D01*
X105500000Y-90750000D02*
X105500000Y-83750000D01*
X123500000Y-83750000D02*
X123500000Y-90750000D01*
X123500000Y-90750000D02*
X105500000Y-90750000D01*
D15*
%TO.C,R16*%
X119790000Y-154322936D02*
X119790000Y-154777064D01*
X121260000Y-154322936D02*
X121260000Y-154777064D01*
%TO.C,R4*%
X123765000Y-147272936D02*
X123765000Y-147727064D01*
X125235000Y-147272936D02*
X125235000Y-147727064D01*
%TD*%
M02*
