%TF.GenerationSoftware,KiCad,Pcbnew,8.0.4*%
%TF.CreationDate,2024-11-10T12:36:27-05:00*%
%TF.ProjectId,booster-tc,626f6f73-7465-4722-9d74-632e6b696361,rev?*%
%TF.SameCoordinates,Original*%
%TF.FileFunction,Copper,L3,Inr*%
%TF.FilePolarity,Positive*%
%FSLAX46Y46*%
G04 Gerber Fmt 4.6, Leading zero omitted, Abs format (unit mm)*
G04 Created by KiCad (PCBNEW 8.0.4) date 2024-11-10 12:36:27*
%MOMM*%
%LPD*%
G01*
G04 APERTURE LIST*
G04 Aperture macros list*
%AMRoundRect*
0 Rectangle with rounded corners*
0 $1 Rounding radius*
0 $2 $3 $4 $5 $6 $7 $8 $9 X,Y pos of 4 corners*
0 Add a 4 corners polygon primitive as box body*
4,1,4,$2,$3,$4,$5,$6,$7,$8,$9,$2,$3,0*
0 Add four circle primitives for the rounded corners*
1,1,$1+$1,$2,$3*
1,1,$1+$1,$4,$5*
1,1,$1+$1,$6,$7*
1,1,$1+$1,$8,$9*
0 Add four rect primitives between the rounded corners*
20,1,$1+$1,$2,$3,$4,$5,0*
20,1,$1+$1,$4,$5,$6,$7,0*
20,1,$1+$1,$6,$7,$8,$9,0*
20,1,$1+$1,$8,$9,$2,$3,0*%
G04 Aperture macros list end*
%TA.AperFunction,ComponentPad*%
%ADD10R,1.500000X1.500000*%
%TD*%
%TA.AperFunction,ComponentPad*%
%ADD11C,1.500000*%
%TD*%
%TA.AperFunction,ComponentPad*%
%ADD12O,5.000000X3.000000*%
%TD*%
%TA.AperFunction,ComponentPad*%
%ADD13C,3.200000*%
%TD*%
%TA.AperFunction,ComponentPad*%
%ADD14R,1.100000X1.100000*%
%TD*%
%TA.AperFunction,ComponentPad*%
%ADD15C,1.100000*%
%TD*%
%TA.AperFunction,ComponentPad*%
%ADD16R,1.700000X1.700000*%
%TD*%
%TA.AperFunction,ComponentPad*%
%ADD17O,1.700000X1.700000*%
%TD*%
%TA.AperFunction,ComponentPad*%
%ADD18O,1.600000X1.700000*%
%TD*%
%TA.AperFunction,ComponentPad*%
%ADD19RoundRect,0.250000X0.600000X0.600000X-0.600000X0.600000X-0.600000X-0.600000X0.600000X-0.600000X0*%
%TD*%
%TA.AperFunction,ComponentPad*%
%ADD20C,1.700000*%
%TD*%
%TA.AperFunction,ComponentPad*%
%ADD21C,0.500000*%
%TD*%
%TA.AperFunction,ComponentPad*%
%ADD22R,9.000000X6.000000*%
%TD*%
%TA.AperFunction,ViaPad*%
%ADD23C,0.600000*%
%TD*%
%TA.AperFunction,Conductor*%
%ADD24C,0.500000*%
%TD*%
%TA.AperFunction,Conductor*%
%ADD25C,1.000000*%
%TD*%
G04 APERTURE END LIST*
D10*
%TO.N,V+*%
%TO.C,C22*%
X71500000Y-141250000D03*
D11*
%TO.N,V-*%
X71500000Y-126250000D03*
%TD*%
D12*
%TO.N,/SW*%
%TO.C,D9*%
X76512500Y-120500000D03*
%TO.N,V+*%
X76512500Y-115050000D03*
%TO.N,/SW*%
X76512500Y-109600000D03*
%TD*%
%TO.N,AC1*%
%TO.C,D6*%
X131487500Y-60500000D03*
%TO.N,V-*%
X131487500Y-71400000D03*
%TD*%
D13*
%TO.N,V-*%
%TO.C,J7*%
X123380000Y-126500000D03*
X123380000Y-132370000D03*
X129250000Y-126500000D03*
X129250000Y-132370000D03*
%TD*%
D12*
%TO.N,/L+*%
%TO.C,D5*%
X76512500Y-71500000D03*
%TO.N,AC1*%
X76512500Y-66050000D03*
%TO.N,Net-(D5-G)*%
X76512500Y-60600000D03*
%TD*%
D14*
%TO.N,Net-(D2-K)*%
%TO.C,C4*%
X87750000Y-157912500D03*
D15*
%TO.N,GND*%
X87750000Y-161412500D03*
%TD*%
D12*
%TO.N,FET_GATE*%
%TO.C,Q2*%
X131487500Y-109500000D03*
%TO.N,/SW*%
X131487500Y-114950000D03*
%TO.N,V-*%
X131487500Y-120400000D03*
%TD*%
D16*
%TO.N,+24V*%
%TO.C,U2*%
X134117500Y-156450000D03*
D17*
%TO.N,GND*%
X134117500Y-153910000D03*
%TO.N,Net-(U2--VOUT)*%
X134117500Y-146290000D03*
D18*
%TO.N,V-*%
X134117500Y-143750000D03*
D17*
%TO.N,Net-(U2-+VOUT)*%
X134117500Y-141210000D03*
%TD*%
D10*
%TO.N,V+*%
%TO.C,C21*%
X63000000Y-141250000D03*
D11*
%TO.N,V-*%
X63000000Y-126250000D03*
%TD*%
D14*
%TO.N,+5V*%
%TO.C,C18*%
X145750000Y-135250000D03*
D15*
%TO.N,GND*%
X142250000Y-135250000D03*
%TD*%
D13*
%TO.N,AC2*%
%TO.C,J2*%
X111250000Y-72065000D03*
X111250000Y-77935000D03*
X117120000Y-72065000D03*
X117120000Y-77935000D03*
%TD*%
D12*
%TO.N,AC2*%
%TO.C,D8*%
X131487500Y-85000000D03*
%TO.N,V-*%
X131487500Y-95900000D03*
%TD*%
D13*
%TO.N,/L+*%
%TO.C,J3*%
X90750000Y-96000000D03*
X90750000Y-101870000D03*
X96620000Y-96000000D03*
X96620000Y-101870000D03*
%TD*%
D10*
%TO.N,V+*%
%TO.C,C19*%
X54500000Y-141250000D03*
D11*
%TO.N,V-*%
X54500000Y-126250000D03*
%TD*%
D13*
%TO.N,/LSW*%
%TO.C,J4*%
X111250000Y-96000000D03*
X111250000Y-101870000D03*
X117120000Y-96000000D03*
X117120000Y-101870000D03*
%TD*%
%TO.N,AC1*%
%TO.C,J1*%
X90750000Y-72065000D03*
X90750000Y-77935000D03*
X96620000Y-72065000D03*
X96620000Y-77935000D03*
%TD*%
D19*
%TO.N,+24V*%
%TO.C,J5*%
X154250000Y-139910000D03*
D20*
%TO.N,ISENSE*%
X151710000Y-139910000D03*
%TO.N,GND*%
X154250000Y-137370000D03*
%TO.N,PFC*%
X151710000Y-137370000D03*
%TO.N,GND*%
X154250000Y-134830000D03*
%TO.N,SCR_TRIG*%
X151710000Y-134830000D03*
%TO.N,GND*%
X154250000Y-132290000D03*
%TO.N,VBUS_SENSE*%
X151710000Y-132290000D03*
%TO.N,+5V*%
X154250000Y-129750000D03*
%TO.N,VAC_SENSE*%
X151710000Y-129750000D03*
%TD*%
D12*
%TO.N,/L+*%
%TO.C,D7*%
X76512500Y-96000000D03*
%TO.N,AC2*%
X76512500Y-90550000D03*
%TO.N,Net-(D7-G)*%
X76512500Y-85100000D03*
%TD*%
D14*
%TO.N,Net-(U2-+VOUT)*%
%TO.C,C8*%
X137500000Y-134250000D03*
D15*
%TO.N,Net-(U2--VOUT)*%
X134000000Y-134250000D03*
%TD*%
D13*
%TO.N,V+*%
%TO.C,J6*%
X78630000Y-126500000D03*
X78630000Y-132370000D03*
X84500000Y-126500000D03*
X84500000Y-132370000D03*
%TD*%
D10*
%TO.N,+5V*%
%TO.C,U4*%
X107340000Y-131400000D03*
D11*
%TO.N,GND*%
X109250000Y-131400000D03*
%TO.N,ISENSE*%
X111160000Y-131400000D03*
D21*
%TO.N,/LSW*%
X110500000Y-110000000D03*
X111650000Y-108000000D03*
X111650000Y-112000000D03*
X112950000Y-108000000D03*
X112950000Y-112000000D03*
X114250000Y-108000000D03*
D22*
X114250000Y-110000000D03*
D21*
X114250000Y-112000000D03*
X115550000Y-108000000D03*
X115550000Y-112000000D03*
X116850000Y-108000000D03*
X116850000Y-112000000D03*
X118000000Y-110000000D03*
%TO.N,/SW*%
X100500000Y-110000000D03*
X101650000Y-108000000D03*
X101650000Y-112000000D03*
X102950000Y-108000000D03*
X102950000Y-112000000D03*
X104250000Y-108000000D03*
D22*
X104250000Y-110000000D03*
D21*
X104250000Y-112000000D03*
X105550000Y-108000000D03*
X105550000Y-112000000D03*
X106850000Y-108000000D03*
X106850000Y-112000000D03*
X108000000Y-110000000D03*
%TD*%
D10*
%TO.N,/L+*%
%TO.C,C15*%
X107000000Y-87250000D03*
D11*
%TO.N,V-*%
X122000000Y-87250000D03*
%TD*%
D23*
%TO.N,SCR_TRIG*%
X96500000Y-151500000D03*
%TO.N,GND*%
X120500000Y-152500000D03*
X91500000Y-149750000D03*
X103750000Y-157500000D03*
X100000000Y-152500000D03*
X146000000Y-126250000D03*
X141750000Y-138000000D03*
X116750000Y-157500000D03*
X107500000Y-159250000D03*
%TO.N,+5V*%
X145250000Y-139250000D03*
X117000000Y-150000000D03*
X91000000Y-153912500D03*
%TO.N,V-*%
X120500000Y-142750000D03*
X97000000Y-139750000D03*
X131250000Y-143000000D03*
%TO.N,V+*%
X124500000Y-145750000D03*
%TO.N,VBUS_SENSE*%
X114250000Y-155000000D03*
%TO.N,Net-(U2-+VOUT)*%
X132000000Y-141000000D03*
%TO.N,VAC_SENSE*%
X107000000Y-153750000D03*
%TO.N,Net-(D7-G)*%
X66087500Y-147250000D03*
%TO.N,AC1*%
X102000000Y-99250000D03*
%TO.N,/L+*%
X72750000Y-150412500D03*
%TO.N,AC2*%
X104500000Y-99250000D03*
%TO.N,Net-(D5-G)*%
X66087500Y-150412500D03*
%TO.N,PFC*%
X144000000Y-127750000D03*
%TO.N,FET_GATE*%
X133000000Y-126500000D03*
%TD*%
D24*
%TO.N,GND*%
X109250000Y-131400000D02*
X115850000Y-138000000D01*
X127000000Y-138000000D02*
X141750000Y-138000000D01*
X115850000Y-138000000D02*
X127000000Y-138000000D01*
%TO.N,+5V*%
X145250000Y-139250000D02*
X115190000Y-139250000D01*
X115190000Y-139250000D02*
X107340000Y-131400000D01*
%TO.N,VBUS_SENSE*%
X150000000Y-129000000D02*
X150000000Y-130580000D01*
X156750000Y-128750000D02*
X155500000Y-127500000D01*
X150000000Y-130580000D02*
X151710000Y-132290000D01*
X151500000Y-127500000D02*
X150000000Y-129000000D01*
X114250000Y-155000000D02*
X114250000Y-156750000D01*
X138500000Y-160250000D02*
X156750000Y-142000000D01*
X155500000Y-127500000D02*
X151500000Y-127500000D01*
X114250000Y-156750000D02*
X117750000Y-160250000D01*
X117750000Y-160250000D02*
X138500000Y-160250000D01*
X156750000Y-142000000D02*
X156750000Y-128750000D01*
%TO.N,VAC_SENSE*%
X155750000Y-129250000D02*
X155750000Y-140606878D01*
X155750000Y-140606878D02*
X137606878Y-158750000D01*
X120750000Y-158750000D02*
X115750000Y-153750000D01*
X137606878Y-158750000D02*
X120750000Y-158750000D01*
X154950000Y-128450000D02*
X155750000Y-129250000D01*
X151710000Y-129750000D02*
X153010000Y-128450000D01*
X115750000Y-153750000D02*
X107000000Y-153750000D01*
X153010000Y-128450000D02*
X154950000Y-128450000D01*
D25*
%TO.N,Net-(D7-G)*%
X84000000Y-119750000D02*
X87750000Y-123500000D01*
X87750000Y-139000000D02*
X82250000Y-144500000D01*
X82250000Y-144500000D02*
X68837500Y-144500000D01*
X87750000Y-123500000D02*
X87750000Y-139000000D01*
X76512500Y-85100000D02*
X80850000Y-85100000D01*
X68837500Y-144500000D02*
X66087500Y-147250000D01*
X84000000Y-88250000D02*
X84000000Y-119750000D01*
X80850000Y-85100000D02*
X84000000Y-88250000D01*
D24*
%TO.N,AC1*%
X102000000Y-83315000D02*
X96620000Y-77935000D01*
X102000000Y-99250000D02*
X102000000Y-83315000D01*
D25*
%TO.N,/L+*%
X92750000Y-142250000D02*
X84587500Y-150412500D01*
X84587500Y-150412500D02*
X72750000Y-150412500D01*
X90750000Y-101870000D02*
X90750000Y-118500000D01*
X92750000Y-120500000D02*
X92750000Y-142250000D01*
X90750000Y-118500000D02*
X92750000Y-120500000D01*
D24*
%TO.N,AC2*%
X104500000Y-84685000D02*
X111250000Y-77935000D01*
X104500000Y-99250000D02*
X104500000Y-84685000D01*
D25*
%TO.N,Net-(D5-G)*%
X69750000Y-146750000D02*
X66087500Y-150412500D01*
X76512500Y-60600000D02*
X82100000Y-60600000D01*
X87500000Y-119250000D02*
X90250000Y-122000000D01*
X84250000Y-146750000D02*
X69750000Y-146750000D01*
X87500000Y-66000000D02*
X87500000Y-119250000D01*
X90250000Y-140750000D02*
X84250000Y-146750000D01*
X82100000Y-60600000D02*
X87500000Y-66000000D01*
X90250000Y-122000000D02*
X90250000Y-140750000D01*
D24*
%TO.N,ISENSE*%
X116760000Y-137000000D02*
X111160000Y-131400000D01*
X151710000Y-139910000D02*
X148800000Y-137000000D01*
X148800000Y-137000000D02*
X116760000Y-137000000D01*
%TO.N,PFC*%
X147750000Y-129500000D02*
X146000000Y-127750000D01*
X151210000Y-137370000D02*
X147750000Y-133910000D01*
X146000000Y-127750000D02*
X144000000Y-127750000D01*
X147750000Y-133910000D02*
X147750000Y-129500000D01*
D25*
%TO.N,FET_GATE*%
X131487500Y-109500000D02*
X128287500Y-112700000D01*
X128287500Y-112700000D02*
X128287500Y-121787500D01*
X128287500Y-121787500D02*
X133000000Y-126500000D01*
D24*
%TO.N,+24V*%
X137710000Y-156450000D02*
X154250000Y-139910000D01*
X134117500Y-156450000D02*
X137710000Y-156450000D01*
%TD*%
M02*
