%TF.GenerationSoftware,KiCad,Pcbnew,8.0.4*%
%TF.CreationDate,2024-11-10T12:36:27-05:00*%
%TF.ProjectId,booster-tc,626f6f73-7465-4722-9d74-632e6b696361,rev?*%
%TF.SameCoordinates,Original*%
%TF.FileFunction,Copper,L2,Inr*%
%TF.FilePolarity,Positive*%
%FSLAX46Y46*%
G04 Gerber Fmt 4.6, Leading zero omitted, Abs format (unit mm)*
G04 Created by KiCad (PCBNEW 8.0.4) date 2024-11-10 12:36:27*
%MOMM*%
%LPD*%
G01*
G04 APERTURE LIST*
G04 Aperture macros list*
%AMRoundRect*
0 Rectangle with rounded corners*
0 $1 Rounding radius*
0 $2 $3 $4 $5 $6 $7 $8 $9 X,Y pos of 4 corners*
0 Add a 4 corners polygon primitive as box body*
4,1,4,$2,$3,$4,$5,$6,$7,$8,$9,$2,$3,0*
0 Add four circle primitives for the rounded corners*
1,1,$1+$1,$2,$3*
1,1,$1+$1,$4,$5*
1,1,$1+$1,$6,$7*
1,1,$1+$1,$8,$9*
0 Add four rect primitives between the rounded corners*
20,1,$1+$1,$2,$3,$4,$5,0*
20,1,$1+$1,$4,$5,$6,$7,0*
20,1,$1+$1,$6,$7,$8,$9,0*
20,1,$1+$1,$8,$9,$2,$3,0*%
G04 Aperture macros list end*
%TA.AperFunction,ComponentPad*%
%ADD10R,1.500000X1.500000*%
%TD*%
%TA.AperFunction,ComponentPad*%
%ADD11C,1.500000*%
%TD*%
%TA.AperFunction,ComponentPad*%
%ADD12O,5.000000X3.000000*%
%TD*%
%TA.AperFunction,ComponentPad*%
%ADD13C,3.200000*%
%TD*%
%TA.AperFunction,ComponentPad*%
%ADD14R,1.100000X1.100000*%
%TD*%
%TA.AperFunction,ComponentPad*%
%ADD15C,1.100000*%
%TD*%
%TA.AperFunction,ComponentPad*%
%ADD16R,1.700000X1.700000*%
%TD*%
%TA.AperFunction,ComponentPad*%
%ADD17O,1.700000X1.700000*%
%TD*%
%TA.AperFunction,ComponentPad*%
%ADD18O,1.600000X1.700000*%
%TD*%
%TA.AperFunction,ComponentPad*%
%ADD19RoundRect,0.250000X0.600000X0.600000X-0.600000X0.600000X-0.600000X-0.600000X0.600000X-0.600000X0*%
%TD*%
%TA.AperFunction,ComponentPad*%
%ADD20C,1.700000*%
%TD*%
%TA.AperFunction,ComponentPad*%
%ADD21C,0.500000*%
%TD*%
%TA.AperFunction,ComponentPad*%
%ADD22R,9.000000X6.000000*%
%TD*%
%TA.AperFunction,ViaPad*%
%ADD23C,0.600000*%
%TD*%
G04 APERTURE END LIST*
D10*
%TO.N,V+*%
%TO.C,C22*%
X71500000Y-141250000D03*
D11*
%TO.N,V-*%
X71500000Y-126250000D03*
%TD*%
D12*
%TO.N,/SW*%
%TO.C,D9*%
X76512500Y-120500000D03*
%TO.N,V+*%
X76512500Y-115050000D03*
%TO.N,/SW*%
X76512500Y-109600000D03*
%TD*%
%TO.N,AC1*%
%TO.C,D6*%
X131487500Y-60500000D03*
%TO.N,V-*%
X131487500Y-71400000D03*
%TD*%
D13*
%TO.N,V-*%
%TO.C,J7*%
X123380000Y-126500000D03*
X123380000Y-132370000D03*
X129250000Y-126500000D03*
X129250000Y-132370000D03*
%TD*%
D12*
%TO.N,/L+*%
%TO.C,D5*%
X76512500Y-71500000D03*
%TO.N,AC1*%
X76512500Y-66050000D03*
%TO.N,Net-(D5-G)*%
X76512500Y-60600000D03*
%TD*%
D14*
%TO.N,Net-(D2-K)*%
%TO.C,C4*%
X87750000Y-157912500D03*
D15*
%TO.N,GND*%
X87750000Y-161412500D03*
%TD*%
D12*
%TO.N,FET_GATE*%
%TO.C,Q2*%
X131487500Y-109500000D03*
%TO.N,/SW*%
X131487500Y-114950000D03*
%TO.N,V-*%
X131487500Y-120400000D03*
%TD*%
D16*
%TO.N,+24V*%
%TO.C,U2*%
X134117500Y-156450000D03*
D17*
%TO.N,GND*%
X134117500Y-153910000D03*
%TO.N,Net-(U2--VOUT)*%
X134117500Y-146290000D03*
D18*
%TO.N,V-*%
X134117500Y-143750000D03*
D17*
%TO.N,Net-(U2-+VOUT)*%
X134117500Y-141210000D03*
%TD*%
D10*
%TO.N,V+*%
%TO.C,C21*%
X63000000Y-141250000D03*
D11*
%TO.N,V-*%
X63000000Y-126250000D03*
%TD*%
D14*
%TO.N,+5V*%
%TO.C,C18*%
X145750000Y-135250000D03*
D15*
%TO.N,GND*%
X142250000Y-135250000D03*
%TD*%
D13*
%TO.N,AC2*%
%TO.C,J2*%
X111250000Y-72065000D03*
X111250000Y-77935000D03*
X117120000Y-72065000D03*
X117120000Y-77935000D03*
%TD*%
D12*
%TO.N,AC2*%
%TO.C,D8*%
X131487500Y-85000000D03*
%TO.N,V-*%
X131487500Y-95900000D03*
%TD*%
D13*
%TO.N,/L+*%
%TO.C,J3*%
X90750000Y-96000000D03*
X90750000Y-101870000D03*
X96620000Y-96000000D03*
X96620000Y-101870000D03*
%TD*%
D10*
%TO.N,V+*%
%TO.C,C19*%
X54500000Y-141250000D03*
D11*
%TO.N,V-*%
X54500000Y-126250000D03*
%TD*%
D13*
%TO.N,/LSW*%
%TO.C,J4*%
X111250000Y-96000000D03*
X111250000Y-101870000D03*
X117120000Y-96000000D03*
X117120000Y-101870000D03*
%TD*%
%TO.N,AC1*%
%TO.C,J1*%
X90750000Y-72065000D03*
X90750000Y-77935000D03*
X96620000Y-72065000D03*
X96620000Y-77935000D03*
%TD*%
D19*
%TO.N,+24V*%
%TO.C,J5*%
X154250000Y-139910000D03*
D20*
%TO.N,ISENSE*%
X151710000Y-139910000D03*
%TO.N,GND*%
X154250000Y-137370000D03*
%TO.N,PFC*%
X151710000Y-137370000D03*
%TO.N,GND*%
X154250000Y-134830000D03*
%TO.N,SCR_TRIG*%
X151710000Y-134830000D03*
%TO.N,GND*%
X154250000Y-132290000D03*
%TO.N,VBUS_SENSE*%
X151710000Y-132290000D03*
%TO.N,+5V*%
X154250000Y-129750000D03*
%TO.N,VAC_SENSE*%
X151710000Y-129750000D03*
%TD*%
D12*
%TO.N,/L+*%
%TO.C,D7*%
X76512500Y-96000000D03*
%TO.N,AC2*%
X76512500Y-90550000D03*
%TO.N,Net-(D7-G)*%
X76512500Y-85100000D03*
%TD*%
D14*
%TO.N,Net-(U2-+VOUT)*%
%TO.C,C8*%
X137500000Y-134250000D03*
D15*
%TO.N,Net-(U2--VOUT)*%
X134000000Y-134250000D03*
%TD*%
D13*
%TO.N,V+*%
%TO.C,J6*%
X78630000Y-126500000D03*
X78630000Y-132370000D03*
X84500000Y-126500000D03*
X84500000Y-132370000D03*
%TD*%
D10*
%TO.N,+5V*%
%TO.C,U4*%
X107340000Y-131400000D03*
D11*
%TO.N,GND*%
X109250000Y-131400000D03*
%TO.N,ISENSE*%
X111160000Y-131400000D03*
D21*
%TO.N,/LSW*%
X110500000Y-110000000D03*
X111650000Y-108000000D03*
X111650000Y-112000000D03*
X112950000Y-108000000D03*
X112950000Y-112000000D03*
X114250000Y-108000000D03*
D22*
X114250000Y-110000000D03*
D21*
X114250000Y-112000000D03*
X115550000Y-108000000D03*
X115550000Y-112000000D03*
X116850000Y-108000000D03*
X116850000Y-112000000D03*
X118000000Y-110000000D03*
%TO.N,/SW*%
X100500000Y-110000000D03*
X101650000Y-108000000D03*
X101650000Y-112000000D03*
X102950000Y-108000000D03*
X102950000Y-112000000D03*
X104250000Y-108000000D03*
D22*
X104250000Y-110000000D03*
D21*
X104250000Y-112000000D03*
X105550000Y-108000000D03*
X105550000Y-112000000D03*
X106850000Y-108000000D03*
X106850000Y-112000000D03*
X108000000Y-110000000D03*
%TD*%
D10*
%TO.N,/L+*%
%TO.C,C15*%
X107000000Y-87250000D03*
D11*
%TO.N,V-*%
X122000000Y-87250000D03*
%TD*%
D23*
%TO.N,SCR_TRIG*%
X96500000Y-151500000D03*
%TO.N,GND*%
X120500000Y-152500000D03*
X91500000Y-149750000D03*
X103750000Y-157500000D03*
X100000000Y-152500000D03*
X146000000Y-126250000D03*
X141750000Y-138000000D03*
X116750000Y-157500000D03*
X107500000Y-159250000D03*
%TO.N,+5V*%
X145250000Y-139250000D03*
X117000000Y-150000000D03*
X91000000Y-153912500D03*
%TO.N,V-*%
X120500000Y-142750000D03*
X97000000Y-139750000D03*
X131250000Y-143000000D03*
%TO.N,V+*%
X124500000Y-145750000D03*
%TO.N,VBUS_SENSE*%
X114250000Y-155000000D03*
%TO.N,Net-(U2-+VOUT)*%
X132000000Y-141000000D03*
%TO.N,VAC_SENSE*%
X107000000Y-153750000D03*
%TO.N,Net-(D7-G)*%
X66087500Y-147250000D03*
%TO.N,AC1*%
X102000000Y-99250000D03*
%TO.N,/L+*%
X72750000Y-150412500D03*
%TO.N,AC2*%
X104500000Y-99250000D03*
%TO.N,Net-(D5-G)*%
X66087500Y-150412500D03*
%TO.N,PFC*%
X144000000Y-127750000D03*
%TO.N,FET_GATE*%
X133000000Y-126500000D03*
%TD*%
%TA.AperFunction,Conductor*%
%TO.N,GND*%
G36*
X156943039Y-124019685D02*
G01*
X156988794Y-124072489D01*
X157000000Y-124124000D01*
X157000000Y-146000000D01*
X141000000Y-146000000D01*
X141000000Y-139909999D01*
X150604785Y-139909999D01*
X150604785Y-139910000D01*
X150623602Y-140113082D01*
X150679417Y-140309247D01*
X150679422Y-140309260D01*
X150770327Y-140491821D01*
X150893237Y-140654581D01*
X151043958Y-140791980D01*
X151043960Y-140791982D01*
X151143141Y-140853392D01*
X151217363Y-140899348D01*
X151407544Y-140973024D01*
X151608024Y-141010500D01*
X151608026Y-141010500D01*
X151811974Y-141010500D01*
X151811976Y-141010500D01*
X152012456Y-140973024D01*
X152202637Y-140899348D01*
X152376041Y-140791981D01*
X152526764Y-140654579D01*
X152649673Y-140491821D01*
X152740582Y-140309250D01*
X152796397Y-140113083D01*
X152815215Y-139910000D01*
X152796397Y-139706917D01*
X152740582Y-139510750D01*
X152649673Y-139328179D01*
X152599799Y-139262135D01*
X153149500Y-139262135D01*
X153149500Y-140557870D01*
X153149501Y-140557876D01*
X153155908Y-140617483D01*
X153206202Y-140752328D01*
X153206206Y-140752335D01*
X153292452Y-140867544D01*
X153292455Y-140867547D01*
X153407664Y-140953793D01*
X153407671Y-140953797D01*
X153542517Y-141004091D01*
X153542516Y-141004091D01*
X153549444Y-141004835D01*
X153602127Y-141010500D01*
X154897872Y-141010499D01*
X154957483Y-141004091D01*
X155092331Y-140953796D01*
X155207546Y-140867546D01*
X155293796Y-140752331D01*
X155344091Y-140617483D01*
X155350500Y-140557873D01*
X155350499Y-139262128D01*
X155344091Y-139202517D01*
X155293796Y-139067669D01*
X155293795Y-139067668D01*
X155293793Y-139067664D01*
X155207547Y-138952455D01*
X155207544Y-138952452D01*
X155092335Y-138866206D01*
X155092328Y-138866202D01*
X154957482Y-138815908D01*
X154957483Y-138815908D01*
X154897883Y-138809501D01*
X154897881Y-138809500D01*
X154897873Y-138809500D01*
X154897864Y-138809500D01*
X153602129Y-138809500D01*
X153602123Y-138809501D01*
X153542516Y-138815908D01*
X153407671Y-138866202D01*
X153407664Y-138866206D01*
X153292455Y-138952452D01*
X153292452Y-138952455D01*
X153206206Y-139067664D01*
X153206202Y-139067671D01*
X153155908Y-139202517D01*
X153149501Y-139262116D01*
X153149501Y-139262123D01*
X153149500Y-139262135D01*
X152599799Y-139262135D01*
X152526764Y-139165421D01*
X152526762Y-139165418D01*
X152376041Y-139028019D01*
X152376039Y-139028017D01*
X152202642Y-138920655D01*
X152202635Y-138920651D01*
X152107546Y-138883814D01*
X152012456Y-138846976D01*
X151811976Y-138809500D01*
X151608024Y-138809500D01*
X151407544Y-138846976D01*
X151407541Y-138846976D01*
X151407541Y-138846977D01*
X151217364Y-138920651D01*
X151217357Y-138920655D01*
X151043960Y-139028017D01*
X151043958Y-139028019D01*
X150893237Y-139165418D01*
X150770327Y-139328178D01*
X150679422Y-139510739D01*
X150679417Y-139510752D01*
X150623602Y-139706917D01*
X150604785Y-139909999D01*
X141000000Y-139909999D01*
X141000000Y-139249999D01*
X144694750Y-139249999D01*
X144694750Y-139250000D01*
X144713670Y-139393708D01*
X144713671Y-139393712D01*
X144769137Y-139527622D01*
X144769138Y-139527624D01*
X144769139Y-139527625D01*
X144857379Y-139642621D01*
X144972375Y-139730861D01*
X145106291Y-139786330D01*
X145233280Y-139803048D01*
X145249999Y-139805250D01*
X145250000Y-139805250D01*
X145250001Y-139805250D01*
X145264977Y-139803278D01*
X145393709Y-139786330D01*
X145527625Y-139730861D01*
X145642621Y-139642621D01*
X145730861Y-139527625D01*
X145786330Y-139393709D01*
X145805250Y-139250000D01*
X145786330Y-139106291D01*
X145730861Y-138972375D01*
X145642621Y-138857379D01*
X145527625Y-138769139D01*
X145527624Y-138769138D01*
X145527622Y-138769137D01*
X145393712Y-138713671D01*
X145393710Y-138713670D01*
X145393709Y-138713670D01*
X145321854Y-138704210D01*
X145250001Y-138694750D01*
X145249999Y-138694750D01*
X145106291Y-138713670D01*
X145106287Y-138713671D01*
X144972377Y-138769137D01*
X144857379Y-138857379D01*
X144769137Y-138972377D01*
X144713671Y-139106287D01*
X144713670Y-139106291D01*
X144694750Y-139249999D01*
X141000000Y-139249999D01*
X141000000Y-137369999D01*
X150604785Y-137369999D01*
X150604785Y-137370000D01*
X150623602Y-137573082D01*
X150679417Y-137769247D01*
X150679422Y-137769260D01*
X150770327Y-137951821D01*
X150893237Y-138114581D01*
X151043958Y-138251980D01*
X151043960Y-138251982D01*
X151143141Y-138313392D01*
X151217363Y-138359348D01*
X151407544Y-138433024D01*
X151608024Y-138470500D01*
X151608026Y-138470500D01*
X151811974Y-138470500D01*
X151811976Y-138470500D01*
X152012456Y-138433024D01*
X152202637Y-138359348D01*
X152376041Y-138251981D01*
X152526764Y-138114579D01*
X152649673Y-137951821D01*
X152740582Y-137769250D01*
X152796397Y-137573083D01*
X152815215Y-137370000D01*
X152796397Y-137166917D01*
X152740582Y-136970750D01*
X152649673Y-136788179D01*
X152526764Y-136625421D01*
X152526762Y-136625418D01*
X152376041Y-136488019D01*
X152376039Y-136488017D01*
X152202642Y-136380655D01*
X152202635Y-136380651D01*
X152107546Y-136343814D01*
X152012456Y-136306976D01*
X151811976Y-136269500D01*
X151608024Y-136269500D01*
X151407544Y-136306976D01*
X151407541Y-136306976D01*
X151407541Y-136306977D01*
X151217364Y-136380651D01*
X151217357Y-136380655D01*
X151043960Y-136488017D01*
X151043958Y-136488019D01*
X150893237Y-136625418D01*
X150770327Y-136788178D01*
X150679422Y-136970739D01*
X150679417Y-136970752D01*
X150623602Y-137166917D01*
X150604785Y-137369999D01*
X141000000Y-137369999D01*
X141000000Y-134675321D01*
X144949500Y-134675321D01*
X144949500Y-135824678D01*
X144964032Y-135897735D01*
X144964033Y-135897739D01*
X144964034Y-135897740D01*
X145019399Y-135980601D01*
X145102260Y-136035966D01*
X145102264Y-136035967D01*
X145175321Y-136050499D01*
X145175324Y-136050500D01*
X145175326Y-136050500D01*
X146324676Y-136050500D01*
X146324677Y-136050499D01*
X146397740Y-136035966D01*
X146480601Y-135980601D01*
X146535966Y-135897740D01*
X146550500Y-135824674D01*
X146550500Y-134829999D01*
X150604785Y-134829999D01*
X150604785Y-134830000D01*
X150623602Y-135033082D01*
X150679417Y-135229247D01*
X150679422Y-135229260D01*
X150770327Y-135411821D01*
X150893237Y-135574581D01*
X151043958Y-135711980D01*
X151043960Y-135711982D01*
X151143141Y-135773392D01*
X151217363Y-135819348D01*
X151407544Y-135893024D01*
X151608024Y-135930500D01*
X151608026Y-135930500D01*
X151811974Y-135930500D01*
X151811976Y-135930500D01*
X152012456Y-135893024D01*
X152202637Y-135819348D01*
X152376041Y-135711981D01*
X152526764Y-135574579D01*
X152649673Y-135411821D01*
X152740582Y-135229250D01*
X152796397Y-135033083D01*
X152815215Y-134830000D01*
X152796397Y-134626917D01*
X152740582Y-134430750D01*
X152649673Y-134248179D01*
X152526764Y-134085421D01*
X152526762Y-134085418D01*
X152376041Y-133948019D01*
X152376039Y-133948017D01*
X152202642Y-133840655D01*
X152202635Y-133840651D01*
X152107546Y-133803814D01*
X152012456Y-133766976D01*
X151811976Y-133729500D01*
X151608024Y-133729500D01*
X151407544Y-133766976D01*
X151407541Y-133766976D01*
X151407541Y-133766977D01*
X151217364Y-133840651D01*
X151217357Y-133840655D01*
X151043960Y-133948017D01*
X151043958Y-133948019D01*
X150893237Y-134085418D01*
X150770327Y-134248178D01*
X150679422Y-134430739D01*
X150679417Y-134430752D01*
X150623602Y-134626917D01*
X150604785Y-134829999D01*
X146550500Y-134829999D01*
X146550500Y-134675326D01*
X146550500Y-134675323D01*
X146550499Y-134675321D01*
X146535967Y-134602264D01*
X146535966Y-134602260D01*
X146480601Y-134519399D01*
X146397740Y-134464034D01*
X146397739Y-134464033D01*
X146397735Y-134464032D01*
X146324677Y-134449500D01*
X146324674Y-134449500D01*
X145175326Y-134449500D01*
X145175323Y-134449500D01*
X145102264Y-134464032D01*
X145102260Y-134464033D01*
X145019399Y-134519399D01*
X144964033Y-134602260D01*
X144964032Y-134602264D01*
X144949500Y-134675321D01*
X141000000Y-134675321D01*
X141000000Y-132289999D01*
X150604785Y-132289999D01*
X150604785Y-132290000D01*
X150623602Y-132493082D01*
X150679417Y-132689247D01*
X150679422Y-132689260D01*
X150770327Y-132871821D01*
X150893237Y-133034581D01*
X151043958Y-133171980D01*
X151043960Y-133171982D01*
X151143141Y-133233392D01*
X151217363Y-133279348D01*
X151407544Y-133353024D01*
X151608024Y-133390500D01*
X151608026Y-133390500D01*
X151811974Y-133390500D01*
X151811976Y-133390500D01*
X152012456Y-133353024D01*
X152202637Y-133279348D01*
X152376041Y-133171981D01*
X152526764Y-133034579D01*
X152649673Y-132871821D01*
X152740582Y-132689250D01*
X152796397Y-132493083D01*
X152815215Y-132290000D01*
X152796397Y-132086917D01*
X152740582Y-131890750D01*
X152649673Y-131708179D01*
X152526764Y-131545421D01*
X152526762Y-131545418D01*
X152376041Y-131408019D01*
X152376039Y-131408017D01*
X152202642Y-131300655D01*
X152202635Y-131300651D01*
X152107546Y-131263814D01*
X152012456Y-131226976D01*
X151811976Y-131189500D01*
X151608024Y-131189500D01*
X151407544Y-131226976D01*
X151407541Y-131226976D01*
X151407541Y-131226977D01*
X151217364Y-131300651D01*
X151217357Y-131300655D01*
X151043960Y-131408017D01*
X151043958Y-131408019D01*
X150893237Y-131545418D01*
X150770327Y-131708178D01*
X150679422Y-131890739D01*
X150679417Y-131890752D01*
X150623602Y-132086917D01*
X150604785Y-132289999D01*
X141000000Y-132289999D01*
X141000000Y-129749999D01*
X150604785Y-129749999D01*
X150604785Y-129750000D01*
X150623602Y-129953082D01*
X150679417Y-130149247D01*
X150679422Y-130149260D01*
X150770327Y-130331821D01*
X150893237Y-130494581D01*
X151043958Y-130631980D01*
X151043960Y-130631982D01*
X151143141Y-130693392D01*
X151217363Y-130739348D01*
X151407544Y-130813024D01*
X151608024Y-130850500D01*
X151608026Y-130850500D01*
X151811974Y-130850500D01*
X151811976Y-130850500D01*
X152012456Y-130813024D01*
X152202637Y-130739348D01*
X152376041Y-130631981D01*
X152526764Y-130494579D01*
X152649673Y-130331821D01*
X152740582Y-130149250D01*
X152796397Y-129953083D01*
X152815215Y-129750000D01*
X152815215Y-129749999D01*
X153144785Y-129749999D01*
X153144785Y-129750000D01*
X153163602Y-129953082D01*
X153219417Y-130149247D01*
X153219422Y-130149260D01*
X153310327Y-130331821D01*
X153433237Y-130494581D01*
X153583958Y-130631980D01*
X153583960Y-130631982D01*
X153683141Y-130693392D01*
X153757363Y-130739348D01*
X153947544Y-130813024D01*
X154148024Y-130850500D01*
X154148026Y-130850500D01*
X154351974Y-130850500D01*
X154351976Y-130850500D01*
X154552456Y-130813024D01*
X154742637Y-130739348D01*
X154916041Y-130631981D01*
X155066764Y-130494579D01*
X155189673Y-130331821D01*
X155280582Y-130149250D01*
X155336397Y-129953083D01*
X155355215Y-129750000D01*
X155336397Y-129546917D01*
X155280582Y-129350750D01*
X155189673Y-129168179D01*
X155066764Y-129005421D01*
X155066762Y-129005418D01*
X154916041Y-128868019D01*
X154916039Y-128868017D01*
X154742642Y-128760655D01*
X154742635Y-128760651D01*
X154647546Y-128723814D01*
X154552456Y-128686976D01*
X154351976Y-128649500D01*
X154148024Y-128649500D01*
X153947544Y-128686976D01*
X153947541Y-128686976D01*
X153947541Y-128686977D01*
X153757364Y-128760651D01*
X153757357Y-128760655D01*
X153583960Y-128868017D01*
X153583958Y-128868019D01*
X153433237Y-129005418D01*
X153310327Y-129168178D01*
X153219422Y-129350739D01*
X153219417Y-129350752D01*
X153163602Y-129546917D01*
X153144785Y-129749999D01*
X152815215Y-129749999D01*
X152796397Y-129546917D01*
X152740582Y-129350750D01*
X152649673Y-129168179D01*
X152526764Y-129005421D01*
X152526762Y-129005418D01*
X152376041Y-128868019D01*
X152376039Y-128868017D01*
X152202642Y-128760655D01*
X152202635Y-128760651D01*
X152107546Y-128723814D01*
X152012456Y-128686976D01*
X151811976Y-128649500D01*
X151608024Y-128649500D01*
X151407544Y-128686976D01*
X151407541Y-128686976D01*
X151407541Y-128686977D01*
X151217364Y-128760651D01*
X151217357Y-128760655D01*
X151043960Y-128868017D01*
X151043958Y-128868019D01*
X150893237Y-129005418D01*
X150770327Y-129168178D01*
X150679422Y-129350739D01*
X150679417Y-129350752D01*
X150623602Y-129546917D01*
X150604785Y-129749999D01*
X141000000Y-129749999D01*
X141000000Y-127749999D01*
X143444750Y-127749999D01*
X143444750Y-127750000D01*
X143463670Y-127893708D01*
X143463671Y-127893712D01*
X143519137Y-128027622D01*
X143519138Y-128027624D01*
X143519139Y-128027625D01*
X143607379Y-128142621D01*
X143722375Y-128230861D01*
X143856291Y-128286330D01*
X143983280Y-128303048D01*
X143999999Y-128305250D01*
X144000000Y-128305250D01*
X144000001Y-128305250D01*
X144014977Y-128303278D01*
X144143709Y-128286330D01*
X144277625Y-128230861D01*
X144392621Y-128142621D01*
X144480861Y-128027625D01*
X144536330Y-127893709D01*
X144555250Y-127750000D01*
X144536330Y-127606291D01*
X144480861Y-127472375D01*
X144392621Y-127357379D01*
X144277625Y-127269139D01*
X144277624Y-127269138D01*
X144277622Y-127269137D01*
X144143712Y-127213671D01*
X144143710Y-127213670D01*
X144143709Y-127213670D01*
X144071854Y-127204210D01*
X144000001Y-127194750D01*
X143999999Y-127194750D01*
X143856291Y-127213670D01*
X143856287Y-127213671D01*
X143722377Y-127269137D01*
X143607379Y-127357379D01*
X143519137Y-127472377D01*
X143463671Y-127606287D01*
X143463670Y-127606291D01*
X143444750Y-127749999D01*
X141000000Y-127749999D01*
X141000000Y-124124000D01*
X141019685Y-124056961D01*
X141072489Y-124011206D01*
X141124000Y-124000000D01*
X156876000Y-124000000D01*
X156943039Y-124019685D01*
G37*
%TD.AperFunction*%
%TD*%
%TA.AperFunction,Conductor*%
%TO.N,GND*%
G36*
X157000000Y-157126000D02*
G01*
X156980315Y-157193039D01*
X156927511Y-157238794D01*
X156876000Y-157250000D01*
X151000000Y-157250000D01*
X151000000Y-163126000D01*
X150980315Y-163193039D01*
X150927511Y-163238794D01*
X150876000Y-163250000D01*
X57124000Y-163250000D01*
X57056961Y-163230315D01*
X57011206Y-163177511D01*
X57000000Y-163126000D01*
X57000000Y-157337821D01*
X86949500Y-157337821D01*
X86949500Y-158487178D01*
X86964032Y-158560235D01*
X86964033Y-158560239D01*
X86964034Y-158560240D01*
X87019399Y-158643101D01*
X87102260Y-158698466D01*
X87102264Y-158698467D01*
X87175321Y-158712999D01*
X87175324Y-158713000D01*
X87175326Y-158713000D01*
X88324676Y-158713000D01*
X88324677Y-158712999D01*
X88397740Y-158698466D01*
X88480601Y-158643101D01*
X88535966Y-158560240D01*
X88550500Y-158487174D01*
X88550500Y-157337826D01*
X88550500Y-157337823D01*
X88550499Y-157337821D01*
X88535967Y-157264764D01*
X88535966Y-157264760D01*
X88488044Y-157193039D01*
X88480601Y-157181899D01*
X88397740Y-157126534D01*
X88397739Y-157126533D01*
X88397735Y-157126532D01*
X88324677Y-157112000D01*
X88324674Y-157112000D01*
X87175326Y-157112000D01*
X87175323Y-157112000D01*
X87102264Y-157126532D01*
X87102260Y-157126533D01*
X87019399Y-157181899D01*
X86964033Y-157264760D01*
X86964032Y-157264764D01*
X86949500Y-157337821D01*
X57000000Y-157337821D01*
X57000000Y-157250000D01*
X51124000Y-157250000D01*
X51056961Y-157230315D01*
X51011206Y-157177511D01*
X51000000Y-157126000D01*
X51000000Y-155575321D01*
X133017000Y-155575321D01*
X133017000Y-157324678D01*
X133031532Y-157397735D01*
X133031533Y-157397739D01*
X133031534Y-157397740D01*
X133086899Y-157480601D01*
X133169760Y-157535966D01*
X133169764Y-157535967D01*
X133242821Y-157550499D01*
X133242824Y-157550500D01*
X133242826Y-157550500D01*
X134992176Y-157550500D01*
X134992177Y-157550499D01*
X135065240Y-157535966D01*
X135148101Y-157480601D01*
X135203466Y-157397740D01*
X135218000Y-157324674D01*
X135218000Y-155575326D01*
X135218000Y-155575323D01*
X135217999Y-155575321D01*
X135203467Y-155502264D01*
X135203466Y-155502260D01*
X135148101Y-155419399D01*
X135065240Y-155364034D01*
X135065239Y-155364033D01*
X135065235Y-155364032D01*
X134992177Y-155349500D01*
X134992174Y-155349500D01*
X133242826Y-155349500D01*
X133242823Y-155349500D01*
X133169764Y-155364032D01*
X133169760Y-155364033D01*
X133086899Y-155419399D01*
X133031533Y-155502260D01*
X133031532Y-155502264D01*
X133017000Y-155575321D01*
X51000000Y-155575321D01*
X51000000Y-154999999D01*
X113694750Y-154999999D01*
X113694750Y-155000000D01*
X113713670Y-155143708D01*
X113713671Y-155143712D01*
X113769137Y-155277622D01*
X113769138Y-155277624D01*
X113769139Y-155277625D01*
X113857379Y-155392621D01*
X113972375Y-155480861D01*
X114106291Y-155536330D01*
X114233280Y-155553048D01*
X114249999Y-155555250D01*
X114250000Y-155555250D01*
X114250001Y-155555250D01*
X114264977Y-155553278D01*
X114393709Y-155536330D01*
X114527625Y-155480861D01*
X114642621Y-155392621D01*
X114730861Y-155277625D01*
X114786330Y-155143709D01*
X114805250Y-155000000D01*
X114786330Y-154856291D01*
X114730861Y-154722375D01*
X114642621Y-154607379D01*
X114527625Y-154519139D01*
X114527624Y-154519138D01*
X114527622Y-154519137D01*
X114393712Y-154463671D01*
X114393710Y-154463670D01*
X114393709Y-154463670D01*
X114321854Y-154454210D01*
X114250001Y-154444750D01*
X114249999Y-154444750D01*
X114106291Y-154463670D01*
X114106287Y-154463671D01*
X113972377Y-154519137D01*
X113857379Y-154607379D01*
X113769137Y-154722377D01*
X113713671Y-154856287D01*
X113713670Y-154856291D01*
X113694750Y-154999999D01*
X51000000Y-154999999D01*
X51000000Y-153912499D01*
X90444750Y-153912499D01*
X90444750Y-153912500D01*
X90463670Y-154056208D01*
X90463671Y-154056212D01*
X90519137Y-154190122D01*
X90519138Y-154190124D01*
X90519139Y-154190125D01*
X90607379Y-154305121D01*
X90722375Y-154393361D01*
X90856291Y-154448830D01*
X90983280Y-154465548D01*
X90999999Y-154467750D01*
X91000000Y-154467750D01*
X91000001Y-154467750D01*
X91014977Y-154465778D01*
X91143709Y-154448830D01*
X91277625Y-154393361D01*
X91392621Y-154305121D01*
X91480861Y-154190125D01*
X91536330Y-154056209D01*
X91555250Y-153912500D01*
X91536330Y-153768791D01*
X91528546Y-153749999D01*
X106444750Y-153749999D01*
X106444750Y-153750000D01*
X106463670Y-153893708D01*
X106463671Y-153893712D01*
X106519137Y-154027622D01*
X106519138Y-154027624D01*
X106519139Y-154027625D01*
X106607379Y-154142621D01*
X106722375Y-154230861D01*
X106856291Y-154286330D01*
X106983280Y-154303048D01*
X106999999Y-154305250D01*
X107000000Y-154305250D01*
X107000001Y-154305250D01*
X107014977Y-154303278D01*
X107143709Y-154286330D01*
X107277625Y-154230861D01*
X107392621Y-154142621D01*
X107480861Y-154027625D01*
X107536330Y-153893709D01*
X107555250Y-153750000D01*
X107536330Y-153606291D01*
X107480861Y-153472375D01*
X107392621Y-153357379D01*
X107277625Y-153269139D01*
X107277624Y-153269138D01*
X107277622Y-153269137D01*
X107143712Y-153213671D01*
X107143710Y-153213670D01*
X107143709Y-153213670D01*
X107071854Y-153204210D01*
X107000001Y-153194750D01*
X106999999Y-153194750D01*
X106856291Y-153213670D01*
X106856287Y-153213671D01*
X106722377Y-153269137D01*
X106607379Y-153357379D01*
X106519137Y-153472377D01*
X106463671Y-153606287D01*
X106463670Y-153606291D01*
X106444750Y-153749999D01*
X91528546Y-153749999D01*
X91480861Y-153634875D01*
X91392621Y-153519879D01*
X91277625Y-153431639D01*
X91277624Y-153431638D01*
X91277622Y-153431637D01*
X91143712Y-153376171D01*
X91143710Y-153376170D01*
X91143709Y-153376170D01*
X91071854Y-153366710D01*
X91000001Y-153357250D01*
X90999999Y-153357250D01*
X90856291Y-153376170D01*
X90856287Y-153376171D01*
X90722377Y-153431637D01*
X90607379Y-153519879D01*
X90519137Y-153634877D01*
X90463671Y-153768787D01*
X90463670Y-153768791D01*
X90444750Y-153912499D01*
X51000000Y-153912499D01*
X51000000Y-151499999D01*
X95944750Y-151499999D01*
X95944750Y-151500000D01*
X95963670Y-151643708D01*
X95963671Y-151643712D01*
X96019137Y-151777622D01*
X96019138Y-151777624D01*
X96019139Y-151777625D01*
X96107379Y-151892621D01*
X96222375Y-151980861D01*
X96356291Y-152036330D01*
X96483280Y-152053048D01*
X96499999Y-152055250D01*
X96500000Y-152055250D01*
X96500001Y-152055250D01*
X96514977Y-152053278D01*
X96643709Y-152036330D01*
X96777625Y-151980861D01*
X96892621Y-151892621D01*
X96980861Y-151777625D01*
X97036330Y-151643709D01*
X97055250Y-151500000D01*
X97036330Y-151356291D01*
X96980861Y-151222375D01*
X96892621Y-151107379D01*
X96777625Y-151019139D01*
X96777624Y-151019138D01*
X96777622Y-151019137D01*
X96643712Y-150963671D01*
X96643710Y-150963670D01*
X96643709Y-150963670D01*
X96571854Y-150954210D01*
X96500001Y-150944750D01*
X96499999Y-150944750D01*
X96356291Y-150963670D01*
X96356287Y-150963671D01*
X96222377Y-151019137D01*
X96107379Y-151107379D01*
X96019137Y-151222377D01*
X95963671Y-151356287D01*
X95963670Y-151356291D01*
X95944750Y-151499999D01*
X51000000Y-151499999D01*
X51000000Y-150412499D01*
X65532250Y-150412499D01*
X65532250Y-150412500D01*
X65551170Y-150556208D01*
X65551171Y-150556212D01*
X65606637Y-150690122D01*
X65606638Y-150690124D01*
X65606639Y-150690125D01*
X65694879Y-150805121D01*
X65809875Y-150893361D01*
X65943791Y-150948830D01*
X66070780Y-150965548D01*
X66087499Y-150967750D01*
X66087500Y-150967750D01*
X66087501Y-150967750D01*
X66102477Y-150965778D01*
X66231209Y-150948830D01*
X66365125Y-150893361D01*
X66480121Y-150805121D01*
X66568361Y-150690125D01*
X66623830Y-150556209D01*
X66642750Y-150412500D01*
X66642750Y-150412499D01*
X72194750Y-150412499D01*
X72194750Y-150412500D01*
X72213670Y-150556208D01*
X72213671Y-150556212D01*
X72269137Y-150690122D01*
X72269138Y-150690124D01*
X72269139Y-150690125D01*
X72357379Y-150805121D01*
X72472375Y-150893361D01*
X72606291Y-150948830D01*
X72733280Y-150965548D01*
X72749999Y-150967750D01*
X72750000Y-150967750D01*
X72750001Y-150967750D01*
X72764977Y-150965778D01*
X72893709Y-150948830D01*
X73027625Y-150893361D01*
X73142621Y-150805121D01*
X73230861Y-150690125D01*
X73286330Y-150556209D01*
X73305250Y-150412500D01*
X73286330Y-150268791D01*
X73230861Y-150134875D01*
X73142621Y-150019879D01*
X73116713Y-149999999D01*
X116444750Y-149999999D01*
X116444750Y-150000000D01*
X116463670Y-150143708D01*
X116463671Y-150143712D01*
X116519137Y-150277622D01*
X116519138Y-150277624D01*
X116519139Y-150277625D01*
X116607379Y-150392621D01*
X116722375Y-150480861D01*
X116856291Y-150536330D01*
X116983280Y-150553048D01*
X116999999Y-150555250D01*
X117000000Y-150555250D01*
X117000001Y-150555250D01*
X117014977Y-150553278D01*
X117143709Y-150536330D01*
X117277625Y-150480861D01*
X117392621Y-150392621D01*
X117480861Y-150277625D01*
X117536330Y-150143709D01*
X117555250Y-150000000D01*
X117536330Y-149856291D01*
X117480861Y-149722375D01*
X117392621Y-149607379D01*
X117277625Y-149519139D01*
X117277624Y-149519138D01*
X117277622Y-149519137D01*
X117143712Y-149463671D01*
X117143710Y-149463670D01*
X117143709Y-149463670D01*
X117071854Y-149454210D01*
X117000001Y-149444750D01*
X116999999Y-149444750D01*
X116856291Y-149463670D01*
X116856287Y-149463671D01*
X116722377Y-149519137D01*
X116607379Y-149607379D01*
X116519137Y-149722377D01*
X116463671Y-149856287D01*
X116463670Y-149856291D01*
X116444750Y-149999999D01*
X73116713Y-149999999D01*
X73027625Y-149931639D01*
X73027624Y-149931638D01*
X73027622Y-149931637D01*
X72893712Y-149876171D01*
X72893710Y-149876170D01*
X72893709Y-149876170D01*
X72821854Y-149866710D01*
X72750001Y-149857250D01*
X72749999Y-149857250D01*
X72606291Y-149876170D01*
X72606287Y-149876171D01*
X72472377Y-149931637D01*
X72357379Y-150019879D01*
X72269137Y-150134877D01*
X72213671Y-150268787D01*
X72213670Y-150268791D01*
X72194750Y-150412499D01*
X66642750Y-150412499D01*
X66623830Y-150268791D01*
X66568361Y-150134875D01*
X66480121Y-150019879D01*
X66365125Y-149931639D01*
X66365124Y-149931638D01*
X66365122Y-149931637D01*
X66231212Y-149876171D01*
X66231210Y-149876170D01*
X66231209Y-149876170D01*
X66159354Y-149866710D01*
X66087501Y-149857250D01*
X66087499Y-149857250D01*
X65943791Y-149876170D01*
X65943787Y-149876171D01*
X65809877Y-149931637D01*
X65694879Y-150019879D01*
X65606637Y-150134877D01*
X65551171Y-150268787D01*
X65551170Y-150268791D01*
X65532250Y-150412499D01*
X51000000Y-150412499D01*
X51000000Y-148873605D01*
X51019685Y-148806566D01*
X51072489Y-148760811D01*
X51123603Y-148749606D01*
X129462239Y-148500120D01*
X129529341Y-148519591D01*
X129531417Y-148520945D01*
X130999999Y-149500000D01*
X131000000Y-149500000D01*
X141000000Y-149500000D01*
X141000000Y-146000000D01*
X155750000Y-146000000D01*
X157000000Y-146000000D01*
X157000000Y-157126000D01*
G37*
%TD.AperFunction*%
%TD*%
M02*
