%TF.GenerationSoftware,KiCad,Pcbnew,8.0.1*%
%TF.CreationDate,2024-07-26T11:55:12-04:00*%
%TF.ProjectId,booster-I-board,626f6f73-7465-4722-9d49-2d626f617264,rev?*%
%TF.SameCoordinates,Original*%
%TF.FileFunction,Copper,L1,Top*%
%TF.FilePolarity,Positive*%
%FSLAX46Y46*%
G04 Gerber Fmt 4.6, Leading zero omitted, Abs format (unit mm)*
G04 Created by KiCad (PCBNEW 8.0.1) date 2024-07-26 11:55:12*
%MOMM*%
%LPD*%
G01*
G04 APERTURE LIST*
G04 Aperture macros list*
%AMRoundRect*
0 Rectangle with rounded corners*
0 $1 Rounding radius*
0 $2 $3 $4 $5 $6 $7 $8 $9 X,Y pos of 4 corners*
0 Add a 4 corners polygon primitive as box body*
4,1,4,$2,$3,$4,$5,$6,$7,$8,$9,$2,$3,0*
0 Add four circle primitives for the rounded corners*
1,1,$1+$1,$2,$3*
1,1,$1+$1,$4,$5*
1,1,$1+$1,$6,$7*
1,1,$1+$1,$8,$9*
0 Add four rect primitives between the rounded corners*
20,1,$1+$1,$2,$3,$4,$5,0*
20,1,$1+$1,$4,$5,$6,$7,0*
20,1,$1+$1,$6,$7,$8,$9,0*
20,1,$1+$1,$8,$9,$2,$3,0*%
G04 Aperture macros list end*
%TA.AperFunction,ComponentPad*%
%ADD10RoundRect,1.500000X-7.500000X-1.500000X7.500000X-1.500000X7.500000X1.500000X-7.500000X1.500000X0*%
%TD*%
%TA.AperFunction,SMDPad,CuDef*%
%ADD11R,1.780000X5.970000*%
%TD*%
%TA.AperFunction,ComponentPad*%
%ADD12C,2.300000*%
%TD*%
%TA.AperFunction,ViaPad*%
%ADD13C,0.600000*%
%TD*%
%TA.AperFunction,Conductor*%
%ADD14C,0.200000*%
%TD*%
G04 APERTURE END LIST*
D10*
%TO.P,L1,1,1*%
%TO.N,Net-(J1-Pad1)*%
X175500000Y-93500000D03*
%TO.P,L1,2,2*%
%TO.N,Net-(J2-Pad1)*%
X152750000Y-96500000D03*
%TD*%
D11*
%TO.P,J3,1,Pin_1*%
%TO.N,Net-(J3-Pin_1)*%
X169540000Y-52040000D03*
%TO.P,J3,2,Pin_2*%
%TO.N,Net-(J3-Pin_2)*%
X167000000Y-49000000D03*
%TD*%
D12*
%TO.P,J2,1,1*%
%TO.N,Net-(J2-Pad1)*%
X175460000Y-127000000D03*
%TO.P,J2,2,2*%
X175460000Y-129540000D03*
%TO.P,J2,3,3*%
X175460000Y-132080000D03*
%TO.P,J2,4,4*%
X180540000Y-132080000D03*
%TO.P,J2,5,5*%
X180540000Y-129540000D03*
%TO.P,J2,6,6*%
X180540000Y-127000000D03*
%TD*%
%TO.P,J1,1,1*%
%TO.N,Net-(J1-Pad1)*%
X175500000Y-57960000D03*
%TO.P,J1,2,2*%
X175500000Y-60500000D03*
%TO.P,J1,3,3*%
X175500000Y-63040000D03*
%TO.P,J1,4,4*%
X180580000Y-63040000D03*
%TO.P,J1,5,5*%
X180580000Y-60500000D03*
%TO.P,J1,6,6*%
X180580000Y-57960000D03*
%TD*%
D13*
%TO.N,Net-(J3-Pin_1)*%
X167500000Y-53000000D03*
%TO.N,Net-(J3-Pin_2)*%
X167000000Y-52500000D03*
%TD*%
D14*
%TO.N,Net-(J3-Pin_1)*%
X168580000Y-53000000D02*
X167500000Y-53000000D01*
X169540000Y-52040000D02*
X168580000Y-53000000D01*
%TO.N,Net-(J3-Pin_2)*%
X167000000Y-49000000D02*
X167000000Y-52500000D01*
%TD*%
%TA.AperFunction,Conductor*%
%TO.N,Net-(J1-Pad1)*%
G36*
X163180928Y-45020185D02*
G01*
X163226683Y-45072989D01*
X163236627Y-45142147D01*
X163233665Y-45156585D01*
X163206520Y-45257893D01*
X163166509Y-45407215D01*
X163166509Y-45407218D01*
X163125222Y-45689083D01*
X163115852Y-45753049D01*
X163109500Y-45898533D01*
X163109500Y-52101465D01*
X163115852Y-52246951D01*
X163166509Y-52592784D01*
X163256969Y-52930386D01*
X163256973Y-52930397D01*
X163386009Y-53255203D01*
X163386014Y-53255213D01*
X163386015Y-53255215D01*
X163551896Y-53562862D01*
X163752372Y-53849170D01*
X163752378Y-53849178D01*
X163984727Y-54110268D01*
X163984731Y-54110272D01*
X164245821Y-54342621D01*
X164245829Y-54342627D01*
X164257392Y-54350724D01*
X164288899Y-54382710D01*
X164368635Y-54500311D01*
X164600332Y-54773086D01*
X164860163Y-55019211D01*
X164860169Y-55019216D01*
X164860174Y-55019220D01*
X164918652Y-55063674D01*
X164938117Y-55082112D01*
X165100332Y-55273086D01*
X165360163Y-55519211D01*
X165360170Y-55519216D01*
X165360172Y-55519218D01*
X165390864Y-55542549D01*
X165645081Y-55735800D01*
X165645088Y-55735804D01*
X165708333Y-55773857D01*
X165755628Y-55825286D01*
X165764180Y-55848014D01*
X165796969Y-55970386D01*
X165796973Y-55970397D01*
X165926009Y-56295203D01*
X165926014Y-56295213D01*
X165926015Y-56295215D01*
X166091896Y-56602862D01*
X166292372Y-56889170D01*
X166292378Y-56889178D01*
X166524727Y-57150268D01*
X166524731Y-57150272D01*
X166785821Y-57382621D01*
X166785826Y-57382624D01*
X166785830Y-57382628D01*
X167072138Y-57583104D01*
X167379785Y-57748985D01*
X167379789Y-57748986D01*
X167379796Y-57748990D01*
X167620793Y-57844731D01*
X167704609Y-57878029D01*
X168042218Y-57968491D01*
X168388046Y-58019148D01*
X168533533Y-58025500D01*
X170546466Y-58025499D01*
X170691954Y-58019148D01*
X171037782Y-57968491D01*
X171375391Y-57878029D01*
X171611179Y-57784356D01*
X171700203Y-57748990D01*
X171700205Y-57748988D01*
X171700215Y-57748985D01*
X172007862Y-57583104D01*
X172294170Y-57382628D01*
X172555270Y-57150270D01*
X172787628Y-56889170D01*
X172988104Y-56602862D01*
X173153985Y-56295215D01*
X173283029Y-55970391D01*
X173373491Y-55632782D01*
X173377410Y-55606028D01*
X173406604Y-55542549D01*
X173465482Y-55504931D01*
X173500101Y-55500000D01*
X183375500Y-55500000D01*
X183442539Y-55519685D01*
X183488294Y-55572489D01*
X183499500Y-55624000D01*
X183499500Y-123801011D01*
X183479815Y-123868050D01*
X183427011Y-123913805D01*
X183357853Y-123923749D01*
X183294297Y-123894724D01*
X183292227Y-123892889D01*
X183176229Y-123787755D01*
X183018223Y-123670570D01*
X182848675Y-123544824D01*
X182498891Y-123335172D01*
X182130243Y-123160814D01*
X182130241Y-123160813D01*
X181746279Y-123023430D01*
X181350695Y-122924341D01*
X180947320Y-122864506D01*
X180947316Y-122864505D01*
X180947311Y-122864505D01*
X180540000Y-122844495D01*
X180132689Y-122864505D01*
X180132683Y-122864505D01*
X180132679Y-122864506D01*
X179729304Y-122924341D01*
X179333720Y-123023430D01*
X178949758Y-123160813D01*
X178949756Y-123160814D01*
X178581105Y-123335174D01*
X178231321Y-123544825D01*
X178073866Y-123661602D01*
X178008293Y-123685726D01*
X177940088Y-123670570D01*
X177926134Y-123661602D01*
X177768678Y-123544825D01*
X177418894Y-123335174D01*
X177418895Y-123335174D01*
X177418891Y-123335172D01*
X177050243Y-123160814D01*
X177050241Y-123160813D01*
X176666279Y-123023430D01*
X176270695Y-122924341D01*
X175867320Y-122864506D01*
X175867316Y-122864505D01*
X175867311Y-122864505D01*
X175460000Y-122844495D01*
X175052689Y-122864505D01*
X175052683Y-122864505D01*
X175052679Y-122864506D01*
X174649304Y-122924341D01*
X174253720Y-123023430D01*
X173869758Y-123160813D01*
X173869756Y-123160814D01*
X173501105Y-123335174D01*
X173151327Y-123544822D01*
X172823770Y-123787755D01*
X172521613Y-124061613D01*
X172247755Y-124363770D01*
X172004822Y-124691327D01*
X171795174Y-125041105D01*
X171620814Y-125409756D01*
X171620813Y-125409758D01*
X171483430Y-125793720D01*
X171384341Y-126189304D01*
X171324506Y-126592679D01*
X171324505Y-126592689D01*
X171304495Y-127000000D01*
X171324505Y-127407311D01*
X171384342Y-127810699D01*
X171483430Y-128206279D01*
X171483434Y-128206290D01*
X171491283Y-128228228D01*
X171495333Y-128297980D01*
X171491283Y-128311772D01*
X171483434Y-128333709D01*
X171483430Y-128333722D01*
X171384341Y-128729304D01*
X171324506Y-129132679D01*
X171324505Y-129132689D01*
X171304495Y-129540000D01*
X171324505Y-129947311D01*
X171384342Y-130350699D01*
X171483430Y-130746279D01*
X171483434Y-130746290D01*
X171491283Y-130768228D01*
X171495333Y-130837980D01*
X171491283Y-130851772D01*
X171483434Y-130873709D01*
X171483430Y-130873722D01*
X171384341Y-131269304D01*
X171324506Y-131672679D01*
X171324505Y-131672689D01*
X171304495Y-132080000D01*
X171324505Y-132487311D01*
X171384342Y-132890699D01*
X171483430Y-133286279D01*
X171620814Y-133670243D01*
X171795172Y-134038891D01*
X172004824Y-134388675D01*
X172087388Y-134500000D01*
X172247755Y-134716229D01*
X172521613Y-135018386D01*
X172823779Y-135292252D01*
X172823783Y-135292255D01*
X172949866Y-135385763D01*
X172991987Y-135441508D01*
X173000000Y-135485361D01*
X173000000Y-144875500D01*
X172980315Y-144942539D01*
X172927511Y-144988294D01*
X172876000Y-144999500D01*
X94124000Y-144999500D01*
X94056961Y-144979815D01*
X94011206Y-144927011D01*
X94000000Y-144875500D01*
X94000000Y-134500000D01*
X83624500Y-134500000D01*
X83557461Y-134480315D01*
X83511706Y-134427511D01*
X83500500Y-134376000D01*
X83500500Y-89500000D01*
X127500000Y-89500000D01*
X127500000Y-100500000D01*
X138500000Y-100500000D01*
X138500000Y-98120617D01*
X140749500Y-98120617D01*
X140759708Y-98369284D01*
X140814018Y-98788139D01*
X140907310Y-99200061D01*
X140907312Y-99200069D01*
X141038772Y-99601453D01*
X141207237Y-99988760D01*
X141207239Y-99988764D01*
X141411234Y-100358596D01*
X141523444Y-100523375D01*
X141648963Y-100707698D01*
X141918339Y-101033007D01*
X142216993Y-101331661D01*
X142542302Y-101601037D01*
X142891406Y-101838767D01*
X143261238Y-102042762D01*
X143648547Y-102211228D01*
X144049929Y-102342687D01*
X144461858Y-102435981D01*
X144880713Y-102490292D01*
X145129373Y-102500500D01*
X160370626Y-102500499D01*
X160619287Y-102490292D01*
X161038142Y-102435981D01*
X161450071Y-102342687D01*
X161851453Y-102211228D01*
X162238762Y-102042762D01*
X162608594Y-101838767D01*
X162957698Y-101601037D01*
X163283007Y-101331661D01*
X163581661Y-101033007D01*
X163851037Y-100707698D01*
X164088767Y-100358594D01*
X164292762Y-99988762D01*
X164461228Y-99601453D01*
X164592687Y-99200071D01*
X164685981Y-98788142D01*
X164740292Y-98369287D01*
X164750500Y-98120627D01*
X164750499Y-94879374D01*
X164740292Y-94630713D01*
X164685981Y-94211858D01*
X164592687Y-93799929D01*
X164461228Y-93398547D01*
X164292762Y-93011238D01*
X164088767Y-92641406D01*
X163851037Y-92292302D01*
X163581661Y-91966993D01*
X163283007Y-91668339D01*
X162957698Y-91398963D01*
X162773375Y-91273444D01*
X162608596Y-91161234D01*
X162238764Y-90957239D01*
X162238760Y-90957237D01*
X161851453Y-90788772D01*
X161450069Y-90657312D01*
X161450061Y-90657310D01*
X161038138Y-90564018D01*
X161038140Y-90564018D01*
X160791791Y-90532075D01*
X160619287Y-90509708D01*
X160370627Y-90499500D01*
X160370618Y-90499500D01*
X145129382Y-90499500D01*
X144907800Y-90508596D01*
X144880713Y-90509708D01*
X144772093Y-90523792D01*
X144461860Y-90564018D01*
X144049938Y-90657310D01*
X144049930Y-90657312D01*
X143648546Y-90788772D01*
X143261239Y-90957237D01*
X143261235Y-90957239D01*
X142891403Y-91161234D01*
X142542306Y-91398960D01*
X142542299Y-91398965D01*
X142216992Y-91668339D01*
X141918339Y-91966992D01*
X141648965Y-92292299D01*
X141648960Y-92292306D01*
X141411234Y-92641403D01*
X141207239Y-93011235D01*
X141207237Y-93011239D01*
X141038772Y-93398546D01*
X140907312Y-93799930D01*
X140907310Y-93799938D01*
X140814018Y-94211860D01*
X140759708Y-94630716D01*
X140749500Y-94879381D01*
X140749500Y-98120617D01*
X138500000Y-98120617D01*
X138500000Y-89500000D01*
X127500000Y-89500000D01*
X83500500Y-89500000D01*
X83500500Y-55624000D01*
X83520185Y-55556961D01*
X83572989Y-55511206D01*
X83624500Y-55500000D01*
X94000000Y-55500000D01*
X94000000Y-45124500D01*
X94019685Y-45057461D01*
X94072489Y-45011706D01*
X94124000Y-45000500D01*
X163113889Y-45000500D01*
X163180928Y-45020185D01*
G37*
%TD.AperFunction*%
%TD*%
M02*
