%TF.GenerationSoftware,KiCad,Pcbnew,8.0.1*%
%TF.CreationDate,2024-05-05T21:17:44-04:00*%
%TF.ProjectId,booster-I-board,626f6f73-7465-4722-9d49-2d626f617264,rev?*%
%TF.SameCoordinates,Original*%
%TF.FileFunction,Copper,L1,Top*%
%TF.FilePolarity,Positive*%
%FSLAX46Y46*%
G04 Gerber Fmt 4.6, Leading zero omitted, Abs format (unit mm)*
G04 Created by KiCad (PCBNEW 8.0.1) date 2024-05-05 21:17:44*
%MOMM*%
%LPD*%
G01*
G04 APERTURE LIST*
G04 Aperture macros list*
%AMRoundRect*
0 Rectangle with rounded corners*
0 $1 Rounding radius*
0 $2 $3 $4 $5 $6 $7 $8 $9 X,Y pos of 4 corners*
0 Add a 4 corners polygon primitive as box body*
4,1,4,$2,$3,$4,$5,$6,$7,$8,$9,$2,$3,0*
0 Add four circle primitives for the rounded corners*
1,1,$1+$1,$2,$3*
1,1,$1+$1,$4,$5*
1,1,$1+$1,$6,$7*
1,1,$1+$1,$8,$9*
0 Add four rect primitives between the rounded corners*
20,1,$1+$1,$2,$3,$4,$5,0*
20,1,$1+$1,$4,$5,$6,$7,0*
20,1,$1+$1,$6,$7,$8,$9,0*
20,1,$1+$1,$8,$9,$2,$3,0*%
G04 Aperture macros list end*
%TA.AperFunction,ComponentPad*%
%ADD10RoundRect,1.500000X-7.500000X-1.500000X7.500000X-1.500000X7.500000X1.500000X-7.500000X1.500000X0*%
%TD*%
%TA.AperFunction,ComponentPad*%
%ADD11C,2.300000*%
%TD*%
G04 APERTURE END LIST*
D10*
%TO.P,L1,1,1*%
%TO.N,Net-(J1-Pad1)*%
X175500000Y-93500000D03*
%TO.P,L1,2,2*%
%TO.N,Net-(J2-Pad1)*%
X152750000Y-96500000D03*
%TD*%
D11*
%TO.P,J2,1,1*%
%TO.N,Net-(J2-Pad1)*%
X175460000Y-127000000D03*
%TO.P,J2,2,2*%
X175460000Y-129540000D03*
%TO.P,J2,3,3*%
X175460000Y-132080000D03*
%TO.P,J2,4,4*%
X180540000Y-132080000D03*
%TO.P,J2,5,5*%
X180540000Y-129540000D03*
%TO.P,J2,6,6*%
X180540000Y-127000000D03*
%TD*%
%TO.P,J1,1,1*%
%TO.N,Net-(J1-Pad1)*%
X175500000Y-57960000D03*
%TO.P,J1,2,2*%
X175500000Y-60500000D03*
%TO.P,J1,3,3*%
X175500000Y-63040000D03*
%TO.P,J1,4,4*%
X180580000Y-63040000D03*
%TO.P,J1,5,5*%
X180580000Y-60500000D03*
%TO.P,J1,6,6*%
X180580000Y-57960000D03*
%TD*%
%TA.AperFunction,Conductor*%
%TO.N,Net-(J2-Pad1)*%
G36*
X164443039Y-91019685D02*
G01*
X164488794Y-91072489D01*
X164500000Y-91124000D01*
X164500000Y-104500000D01*
X182379062Y-104500000D01*
X182446101Y-104519685D01*
X182491856Y-104572489D01*
X182503023Y-104620901D01*
X182999461Y-124478440D01*
X182999500Y-124481539D01*
X182999500Y-144375500D01*
X182979815Y-144442539D01*
X182927011Y-144488294D01*
X182875500Y-144499500D01*
X138124000Y-144499500D01*
X138056961Y-144479815D01*
X138011206Y-144427011D01*
X138000000Y-144375500D01*
X138000000Y-140500000D01*
X175494696Y-140500000D01*
X175513898Y-140866405D01*
X175571294Y-141228788D01*
X175571294Y-141228790D01*
X175666260Y-141583206D01*
X175797746Y-141925739D01*
X175964320Y-142252656D01*
X176164147Y-142560364D01*
X176164149Y-142560366D01*
X176395051Y-142845506D01*
X176654494Y-143104949D01*
X176654498Y-143104952D01*
X176939635Y-143335852D01*
X177247343Y-143535679D01*
X177247348Y-143535682D01*
X177574264Y-143702255D01*
X177916801Y-143833742D01*
X178271206Y-143928705D01*
X178633596Y-143986102D01*
X178979734Y-144004241D01*
X178999999Y-144005304D01*
X179000000Y-144005304D01*
X179000001Y-144005304D01*
X179019203Y-144004297D01*
X179366404Y-143986102D01*
X179728794Y-143928705D01*
X180083199Y-143833742D01*
X180425736Y-143702255D01*
X180752652Y-143535682D01*
X181060366Y-143335851D01*
X181345506Y-143104949D01*
X181604949Y-142845506D01*
X181835851Y-142560366D01*
X182035682Y-142252652D01*
X182202255Y-141925736D01*
X182333742Y-141583199D01*
X182428705Y-141228794D01*
X182486102Y-140866404D01*
X182505304Y-140500000D01*
X182486102Y-140133596D01*
X182428705Y-139771206D01*
X182333742Y-139416801D01*
X182202255Y-139074264D01*
X182035682Y-138747348D01*
X181835851Y-138439634D01*
X181604949Y-138154494D01*
X181345506Y-137895051D01*
X181060366Y-137664149D01*
X181060364Y-137664147D01*
X180752656Y-137464320D01*
X180425739Y-137297746D01*
X180083206Y-137166260D01*
X180083199Y-137166258D01*
X179728794Y-137071295D01*
X179728790Y-137071294D01*
X179728789Y-137071294D01*
X179366405Y-137013898D01*
X179000001Y-136994696D01*
X178999999Y-136994696D01*
X178633594Y-137013898D01*
X178271211Y-137071294D01*
X178271209Y-137071294D01*
X177916793Y-137166260D01*
X177574260Y-137297746D01*
X177247343Y-137464320D01*
X176939635Y-137664147D01*
X176654498Y-137895047D01*
X176654490Y-137895054D01*
X176395054Y-138154490D01*
X176395047Y-138154498D01*
X176164147Y-138439635D01*
X175964320Y-138747343D01*
X175797746Y-139074260D01*
X175666260Y-139416793D01*
X175571294Y-139771209D01*
X175571294Y-139771211D01*
X175513898Y-140133594D01*
X175494696Y-140499999D01*
X175494696Y-140500000D01*
X138000000Y-140500000D01*
X138000000Y-91124000D01*
X138019685Y-91056961D01*
X138072489Y-91011206D01*
X138124000Y-91000000D01*
X164376000Y-91000000D01*
X164443039Y-91019685D01*
G37*
%TD.AperFunction*%
%TD*%
M02*
