%TF.GenerationSoftware,KiCad,Pcbnew,8.0.1*%
%TF.CreationDate,2024-05-05T21:17:44-04:00*%
%TF.ProjectId,booster-I-board,626f6f73-7465-4722-9d49-2d626f617264,rev?*%
%TF.SameCoordinates,Original*%
%TF.FileFunction,Copper,L2,Bot*%
%TF.FilePolarity,Positive*%
%FSLAX46Y46*%
G04 Gerber Fmt 4.6, Leading zero omitted, Abs format (unit mm)*
G04 Created by KiCad (PCBNEW 8.0.1) date 2024-05-05 21:17:44*
%MOMM*%
%LPD*%
G01*
G04 APERTURE LIST*
G04 Aperture macros list*
%AMRoundRect*
0 Rectangle with rounded corners*
0 $1 Rounding radius*
0 $2 $3 $4 $5 $6 $7 $8 $9 X,Y pos of 4 corners*
0 Add a 4 corners polygon primitive as box body*
4,1,4,$2,$3,$4,$5,$6,$7,$8,$9,$2,$3,0*
0 Add four circle primitives for the rounded corners*
1,1,$1+$1,$2,$3*
1,1,$1+$1,$4,$5*
1,1,$1+$1,$6,$7*
1,1,$1+$1,$8,$9*
0 Add four rect primitives between the rounded corners*
20,1,$1+$1,$2,$3,$4,$5,0*
20,1,$1+$1,$4,$5,$6,$7,0*
20,1,$1+$1,$6,$7,$8,$9,0*
20,1,$1+$1,$8,$9,$2,$3,0*%
G04 Aperture macros list end*
%TA.AperFunction,ComponentPad*%
%ADD10RoundRect,1.500000X-7.500000X-1.500000X7.500000X-1.500000X7.500000X1.500000X-7.500000X1.500000X0*%
%TD*%
%TA.AperFunction,ComponentPad*%
%ADD11C,2.300000*%
%TD*%
G04 APERTURE END LIST*
D10*
%TO.P,L1,1,1*%
%TO.N,Net-(J1-Pad1)*%
X175500000Y-93500000D03*
%TO.P,L1,2,2*%
%TO.N,Net-(J2-Pad1)*%
X152750000Y-96500000D03*
%TD*%
D11*
%TO.P,J2,1,1*%
%TO.N,Net-(J2-Pad1)*%
X175460000Y-127000000D03*
%TO.P,J2,2,2*%
X175460000Y-129540000D03*
%TO.P,J2,3,3*%
X175460000Y-132080000D03*
%TO.P,J2,4,4*%
X180540000Y-132080000D03*
%TO.P,J2,5,5*%
X180540000Y-129540000D03*
%TO.P,J2,6,6*%
X180540000Y-127000000D03*
%TD*%
%TO.P,J1,1,1*%
%TO.N,Net-(J1-Pad1)*%
X175500000Y-57960000D03*
%TO.P,J1,2,2*%
X175500000Y-60500000D03*
%TO.P,J1,3,3*%
X175500000Y-63040000D03*
%TO.P,J1,4,4*%
X180580000Y-63040000D03*
%TO.P,J1,5,5*%
X180580000Y-60500000D03*
%TO.P,J1,6,6*%
X180580000Y-57960000D03*
%TD*%
%TA.AperFunction,Conductor*%
%TO.N,Net-(J1-Pad1)*%
G36*
X182942539Y-45520185D02*
G01*
X182988294Y-45572989D01*
X182999500Y-45624500D01*
X182999500Y-104876000D01*
X182979815Y-104943039D01*
X182927011Y-104988794D01*
X182875500Y-105000000D01*
X164124000Y-105000000D01*
X164056961Y-104980315D01*
X164011206Y-104927511D01*
X164000000Y-104876000D01*
X164000000Y-91500000D01*
X137624000Y-91500000D01*
X137556961Y-91480315D01*
X137511206Y-91427511D01*
X137500000Y-91376000D01*
X137500000Y-49500000D01*
X175494696Y-49500000D01*
X175513898Y-49866405D01*
X175571294Y-50228788D01*
X175571294Y-50228790D01*
X175666260Y-50583206D01*
X175797746Y-50925739D01*
X175964320Y-51252656D01*
X176164147Y-51560364D01*
X176164149Y-51560366D01*
X176395051Y-51845506D01*
X176654494Y-52104949D01*
X176654498Y-52104952D01*
X176939635Y-52335852D01*
X177247343Y-52535679D01*
X177247348Y-52535682D01*
X177574264Y-52702255D01*
X177916801Y-52833742D01*
X178271206Y-52928705D01*
X178633596Y-52986102D01*
X178979734Y-53004241D01*
X178999999Y-53005304D01*
X179000000Y-53005304D01*
X179000001Y-53005304D01*
X179019203Y-53004297D01*
X179366404Y-52986102D01*
X179728794Y-52928705D01*
X180083199Y-52833742D01*
X180425736Y-52702255D01*
X180752652Y-52535682D01*
X181060366Y-52335851D01*
X181345506Y-52104949D01*
X181604949Y-51845506D01*
X181835851Y-51560366D01*
X182035682Y-51252652D01*
X182202255Y-50925736D01*
X182333742Y-50583199D01*
X182428705Y-50228794D01*
X182486102Y-49866404D01*
X182505304Y-49500000D01*
X182486102Y-49133596D01*
X182428705Y-48771206D01*
X182333742Y-48416801D01*
X182202255Y-48074264D01*
X182035682Y-47747348D01*
X181835851Y-47439634D01*
X181604949Y-47154494D01*
X181345506Y-46895051D01*
X181060366Y-46664149D01*
X181060364Y-46664147D01*
X180752656Y-46464320D01*
X180425739Y-46297746D01*
X180083206Y-46166260D01*
X180083199Y-46166258D01*
X179728794Y-46071295D01*
X179728790Y-46071294D01*
X179728789Y-46071294D01*
X179366405Y-46013898D01*
X179000001Y-45994696D01*
X178999999Y-45994696D01*
X178633594Y-46013898D01*
X178271211Y-46071294D01*
X178271209Y-46071294D01*
X177916793Y-46166260D01*
X177574260Y-46297746D01*
X177247343Y-46464320D01*
X176939635Y-46664147D01*
X176654498Y-46895047D01*
X176654490Y-46895054D01*
X176395054Y-47154490D01*
X176395047Y-47154498D01*
X176164147Y-47439635D01*
X175964320Y-47747343D01*
X175797746Y-48074260D01*
X175666260Y-48416793D01*
X175571294Y-48771209D01*
X175571294Y-48771211D01*
X175513898Y-49133594D01*
X175494696Y-49499999D01*
X175494696Y-49500000D01*
X137500000Y-49500000D01*
X137500000Y-45624500D01*
X137519685Y-45557461D01*
X137572489Y-45511706D01*
X137624000Y-45500500D01*
X182875500Y-45500500D01*
X182942539Y-45520185D01*
G37*
%TD.AperFunction*%
%TD*%
M02*
