%TF.GenerationSoftware,KiCad,Pcbnew,8.0.1*%
%TF.CreationDate,2024-07-26T11:55:12-04:00*%
%TF.ProjectId,booster-I-board,626f6f73-7465-4722-9d49-2d626f617264,rev?*%
%TF.SameCoordinates,Original*%
%TF.FileFunction,Copper,L2,Bot*%
%TF.FilePolarity,Positive*%
%FSLAX46Y46*%
G04 Gerber Fmt 4.6, Leading zero omitted, Abs format (unit mm)*
G04 Created by KiCad (PCBNEW 8.0.1) date 2024-07-26 11:55:12*
%MOMM*%
%LPD*%
G01*
G04 APERTURE LIST*
G04 Aperture macros list*
%AMRoundRect*
0 Rectangle with rounded corners*
0 $1 Rounding radius*
0 $2 $3 $4 $5 $6 $7 $8 $9 X,Y pos of 4 corners*
0 Add a 4 corners polygon primitive as box body*
4,1,4,$2,$3,$4,$5,$6,$7,$8,$9,$2,$3,0*
0 Add four circle primitives for the rounded corners*
1,1,$1+$1,$2,$3*
1,1,$1+$1,$4,$5*
1,1,$1+$1,$6,$7*
1,1,$1+$1,$8,$9*
0 Add four rect primitives between the rounded corners*
20,1,$1+$1,$2,$3,$4,$5,0*
20,1,$1+$1,$4,$5,$6,$7,0*
20,1,$1+$1,$6,$7,$8,$9,0*
20,1,$1+$1,$8,$9,$2,$3,0*%
G04 Aperture macros list end*
%TA.AperFunction,ComponentPad*%
%ADD10RoundRect,1.500000X-7.500000X-1.500000X7.500000X-1.500000X7.500000X1.500000X-7.500000X1.500000X0*%
%TD*%
%TA.AperFunction,SMDPad,CuDef*%
%ADD11RoundRect,0.237500X-0.250000X-0.237500X0.250000X-0.237500X0.250000X0.237500X-0.250000X0.237500X0*%
%TD*%
%TA.AperFunction,ComponentPad*%
%ADD12C,2.300000*%
%TD*%
%TA.AperFunction,ViaPad*%
%ADD13C,0.600000*%
%TD*%
%TA.AperFunction,Conductor*%
%ADD14C,0.200000*%
%TD*%
G04 APERTURE END LIST*
D10*
%TO.P,L1,1,1*%
%TO.N,Net-(J1-Pad1)*%
X175500000Y-93500000D03*
%TO.P,L1,2,2*%
%TO.N,Net-(J2-Pad1)*%
X152750000Y-96500000D03*
%TD*%
D11*
%TO.P,TH1,1*%
%TO.N,Net-(J3-Pin_2)*%
X160675000Y-89500000D03*
%TO.P,TH1,2*%
%TO.N,Net-(J3-Pin_1)*%
X162500000Y-89500000D03*
%TD*%
D12*
%TO.P,J2,1,1*%
%TO.N,Net-(J2-Pad1)*%
X175460000Y-127000000D03*
%TO.P,J2,2,2*%
X175460000Y-129540000D03*
%TO.P,J2,3,3*%
X175460000Y-132080000D03*
%TO.P,J2,4,4*%
X180540000Y-132080000D03*
%TO.P,J2,5,5*%
X180540000Y-129540000D03*
%TO.P,J2,6,6*%
X180540000Y-127000000D03*
%TD*%
%TO.P,J1,1,1*%
%TO.N,Net-(J1-Pad1)*%
X175500000Y-57960000D03*
%TO.P,J1,2,2*%
X175500000Y-60500000D03*
%TO.P,J1,3,3*%
X175500000Y-63040000D03*
%TO.P,J1,4,4*%
X180580000Y-63040000D03*
%TO.P,J1,5,5*%
X180580000Y-60500000D03*
%TO.P,J1,6,6*%
X180580000Y-57960000D03*
%TD*%
D13*
%TO.N,Net-(J3-Pin_1)*%
X167500000Y-53000000D03*
%TO.N,Net-(J3-Pin_2)*%
X167000000Y-52500000D03*
%TD*%
D14*
%TO.N,Net-(J3-Pin_1)*%
X161075000Y-88075000D02*
X162500000Y-89500000D01*
X161075000Y-59490686D02*
X161075000Y-88075000D01*
X167500000Y-53000000D02*
X167500000Y-53065686D01*
X167500000Y-53065686D02*
X161075000Y-59490686D01*
%TO.N,Net-(J3-Pin_2)*%
X166900000Y-53100000D02*
X166900000Y-52600000D01*
X160675000Y-89500000D02*
X160675000Y-59325000D01*
X160675000Y-59325000D02*
X166900000Y-53100000D01*
X166900000Y-52600000D02*
X167000000Y-52500000D01*
%TD*%
%TA.AperFunction,Conductor*%
%TO.N,Net-(J2-Pad1)*%
G36*
X172943039Y-45020185D02*
G01*
X172988794Y-45072989D01*
X173000000Y-45124500D01*
X173000000Y-54584303D01*
X172980315Y-54651342D01*
X172949868Y-54683900D01*
X172863772Y-54747753D01*
X172561613Y-55021613D01*
X172287755Y-55323770D01*
X172044822Y-55651327D01*
X171835174Y-56001105D01*
X171660814Y-56369756D01*
X171660813Y-56369758D01*
X171523430Y-56753720D01*
X171424341Y-57149304D01*
X171364506Y-57552679D01*
X171364505Y-57552689D01*
X171344495Y-57960000D01*
X171364505Y-58367311D01*
X171424342Y-58770699D01*
X171523430Y-59166279D01*
X171523434Y-59166290D01*
X171531283Y-59188228D01*
X171535333Y-59257980D01*
X171531283Y-59271772D01*
X171523434Y-59293709D01*
X171523430Y-59293722D01*
X171424341Y-59689304D01*
X171364506Y-60092679D01*
X171364505Y-60092689D01*
X171344495Y-60500000D01*
X171364505Y-60907311D01*
X171424342Y-61310699D01*
X171523430Y-61706279D01*
X171523434Y-61706290D01*
X171531283Y-61728228D01*
X171535333Y-61797980D01*
X171531283Y-61811772D01*
X171523434Y-61833709D01*
X171523430Y-61833722D01*
X171424341Y-62229304D01*
X171364506Y-62632679D01*
X171364505Y-62632689D01*
X171344495Y-63040000D01*
X171364505Y-63447311D01*
X171424342Y-63850699D01*
X171523430Y-64246279D01*
X171660814Y-64630243D01*
X171835172Y-64998891D01*
X171835174Y-64998894D01*
X172044822Y-65348672D01*
X172287755Y-65676229D01*
X172561613Y-65978386D01*
X172863770Y-66252244D01*
X172863776Y-66252249D01*
X173191325Y-66495176D01*
X173541109Y-66704828D01*
X173909757Y-66879186D01*
X174293721Y-67016570D01*
X174689301Y-67115658D01*
X175092689Y-67175495D01*
X175500000Y-67195505D01*
X175907311Y-67175495D01*
X176310699Y-67115658D01*
X176706279Y-67016570D01*
X177090243Y-66879186D01*
X177458891Y-66704828D01*
X177808675Y-66495176D01*
X177966133Y-66378397D01*
X178031706Y-66354272D01*
X178099912Y-66369428D01*
X178113867Y-66378397D01*
X178271320Y-66495173D01*
X178271324Y-66495175D01*
X178271325Y-66495176D01*
X178621109Y-66704828D01*
X178989757Y-66879186D01*
X179373721Y-67016570D01*
X179769301Y-67115658D01*
X180172689Y-67175495D01*
X180580000Y-67195505D01*
X180987311Y-67175495D01*
X181390699Y-67115658D01*
X181786279Y-67016570D01*
X182170243Y-66879186D01*
X182538891Y-66704828D01*
X182888675Y-66495176D01*
X183216224Y-66252249D01*
X183292227Y-66183363D01*
X183355119Y-66152928D01*
X183424482Y-66161326D01*
X183478294Y-66205892D01*
X183499469Y-66272475D01*
X183499500Y-66275242D01*
X183499500Y-87385858D01*
X183479815Y-87452897D01*
X183427011Y-87498652D01*
X183370414Y-87509754D01*
X183265932Y-87505465D01*
X183120627Y-87499500D01*
X183120618Y-87499500D01*
X167879382Y-87499500D01*
X167657800Y-87508596D01*
X167630713Y-87509708D01*
X167522093Y-87523792D01*
X167211860Y-87564018D01*
X166799938Y-87657310D01*
X166799930Y-87657312D01*
X166398546Y-87788772D01*
X166011239Y-87957237D01*
X166011235Y-87957239D01*
X165892870Y-88022528D01*
X165824661Y-88037671D01*
X165759093Y-88013533D01*
X165721580Y-87968411D01*
X165580528Y-87679886D01*
X165483363Y-87526592D01*
X165389250Y-87378112D01*
X165165933Y-87099210D01*
X164913290Y-86846567D01*
X164634388Y-86623250D01*
X164533796Y-86559490D01*
X164332616Y-86431973D01*
X164245038Y-86389158D01*
X164193457Y-86342029D01*
X164175500Y-86277758D01*
X164175500Y-60826316D01*
X164195185Y-60759277D01*
X164211814Y-60738640D01*
X168998948Y-55951505D01*
X169034564Y-55926648D01*
X169039778Y-55924235D01*
X169048253Y-55920315D01*
X169354919Y-55735800D01*
X169639837Y-55519211D01*
X169899668Y-55273086D01*
X170131365Y-55000311D01*
X170332211Y-54704085D01*
X170499853Y-54387880D01*
X170632324Y-54055403D01*
X170728071Y-53710552D01*
X170785972Y-53357371D01*
X170805348Y-53000000D01*
X170785972Y-52642629D01*
X170728071Y-52289448D01*
X170632324Y-51944597D01*
X170499853Y-51612120D01*
X170332211Y-51295915D01*
X170131365Y-50999689D01*
X170131361Y-50999684D01*
X170131358Y-50999680D01*
X169899668Y-50726914D01*
X169639837Y-50480789D01*
X169639832Y-50480785D01*
X169639828Y-50480781D01*
X169602596Y-50452479D01*
X169581345Y-50436324D01*
X169561886Y-50417891D01*
X169399668Y-50226914D01*
X169139837Y-49980789D01*
X169139830Y-49980783D01*
X169139827Y-49980781D01*
X169072245Y-49929407D01*
X168854919Y-49764200D01*
X168548253Y-49579685D01*
X168548252Y-49579684D01*
X168548248Y-49579682D01*
X168548244Y-49579680D01*
X168223447Y-49429414D01*
X168223441Y-49429411D01*
X168223435Y-49429409D01*
X168053854Y-49372270D01*
X167884273Y-49315131D01*
X167534744Y-49238194D01*
X167178949Y-49199500D01*
X167178948Y-49199500D01*
X166821052Y-49199500D01*
X166821050Y-49199500D01*
X166465255Y-49238194D01*
X166115726Y-49315131D01*
X165859970Y-49401306D01*
X165776565Y-49429409D01*
X165776563Y-49429410D01*
X165776552Y-49429414D01*
X165451755Y-49579680D01*
X165451751Y-49579682D01*
X165223367Y-49717096D01*
X165145081Y-49764200D01*
X165056768Y-49831333D01*
X164860172Y-49980781D01*
X164860163Y-49980789D01*
X164600331Y-50226914D01*
X164368641Y-50499680D01*
X164368634Y-50499690D01*
X164167790Y-50795913D01*
X164167784Y-50795922D01*
X164000151Y-51112111D01*
X164000142Y-51112129D01*
X163867674Y-51444600D01*
X163867672Y-51444607D01*
X163771931Y-51789438D01*
X163771927Y-51789454D01*
X163767826Y-51814470D01*
X163737554Y-51877441D01*
X163733141Y-51882088D01*
X158359491Y-57255739D01*
X158359487Y-57255743D01*
X158142372Y-57527998D01*
X158142371Y-57528000D01*
X157957092Y-57822869D01*
X157805998Y-58136618D01*
X157748022Y-58302307D01*
X157748022Y-58302308D01*
X157690981Y-58465319D01*
X157613491Y-58804829D01*
X157613489Y-58804841D01*
X157574500Y-59150875D01*
X157574500Y-87692050D01*
X157561901Y-87746510D01*
X157437550Y-88000874D01*
X157437549Y-88000875D01*
X157316896Y-88337164D01*
X157233963Y-88684709D01*
X157189767Y-89039270D01*
X157187000Y-89119597D01*
X157187000Y-89880373D01*
X157189769Y-89960741D01*
X157233963Y-90315290D01*
X157316896Y-90662835D01*
X157437549Y-90999124D01*
X157437553Y-90999132D01*
X157594471Y-91320112D01*
X157785750Y-91621888D01*
X158009067Y-91900790D01*
X158261710Y-92153433D01*
X158540612Y-92376750D01*
X158842386Y-92568027D01*
X158842386Y-92568028D01*
X159163367Y-92724946D01*
X159163375Y-92724950D01*
X159499664Y-92845603D01*
X159499666Y-92845603D01*
X159499676Y-92845607D01*
X159847210Y-92928537D01*
X160201757Y-92972731D01*
X160201765Y-92972731D01*
X160201771Y-92972732D01*
X160201768Y-92972732D01*
X160245579Y-92974241D01*
X160282111Y-92975500D01*
X161067888Y-92975499D01*
X161148243Y-92972731D01*
X161502790Y-92928537D01*
X161558719Y-92915191D01*
X161616281Y-92915191D01*
X161653001Y-92923953D01*
X161672205Y-92928536D01*
X161672206Y-92928536D01*
X161672210Y-92928537D01*
X162026757Y-92972731D01*
X162026765Y-92972731D01*
X162026771Y-92972732D01*
X162026768Y-92972732D01*
X162070579Y-92974241D01*
X162107111Y-92975500D01*
X162892888Y-92975499D01*
X162973243Y-92972731D01*
X163327790Y-92928537D01*
X163327793Y-92928536D01*
X163327795Y-92928536D01*
X163337504Y-92926218D01*
X163346714Y-92924021D01*
X163416492Y-92927604D01*
X163473255Y-92968344D01*
X163498981Y-93033305D01*
X163499500Y-93044633D01*
X163499500Y-95120617D01*
X163509708Y-95369284D01*
X163564018Y-95788139D01*
X163657310Y-96200061D01*
X163657312Y-96200069D01*
X163657313Y-96200071D01*
X163788772Y-96601453D01*
X163957238Y-96988762D01*
X164161233Y-97358594D01*
X164398963Y-97707698D01*
X164668339Y-98033007D01*
X164966993Y-98331661D01*
X165292302Y-98601037D01*
X165641406Y-98838767D01*
X166011238Y-99042762D01*
X166398547Y-99211228D01*
X166799929Y-99342687D01*
X167211858Y-99435981D01*
X167630713Y-99490292D01*
X167879373Y-99500500D01*
X183120626Y-99500499D01*
X183369287Y-99490292D01*
X183369295Y-99490290D01*
X183370414Y-99490245D01*
X183438205Y-99507164D01*
X183486087Y-99558047D01*
X183499500Y-99614141D01*
X183499500Y-134376000D01*
X183479815Y-134443039D01*
X183427011Y-134488794D01*
X183375500Y-134500000D01*
X173000000Y-134500000D01*
X173000000Y-144875500D01*
X172980315Y-144942539D01*
X172927511Y-144988294D01*
X172876000Y-144999500D01*
X94124000Y-144999500D01*
X94056961Y-144979815D01*
X94011206Y-144927011D01*
X94000000Y-144875500D01*
X94000000Y-134500000D01*
X83624500Y-134500000D01*
X83557461Y-134480315D01*
X83511706Y-134427511D01*
X83500500Y-134376000D01*
X83500500Y-89500000D01*
X127500000Y-89500000D01*
X127500000Y-100500000D01*
X138500000Y-100500000D01*
X138500000Y-89500000D01*
X127500000Y-89500000D01*
X83500500Y-89500000D01*
X83500500Y-55624000D01*
X83520185Y-55556961D01*
X83572989Y-55511206D01*
X83624500Y-55500000D01*
X94000000Y-55500000D01*
X94000000Y-45124500D01*
X94019685Y-45057461D01*
X94072489Y-45011706D01*
X94124000Y-45000500D01*
X172876000Y-45000500D01*
X172943039Y-45020185D01*
G37*
%TD.AperFunction*%
%TD*%
M02*
