%TF.GenerationSoftware,KiCad,Pcbnew,8.0.1*%
%TF.CreationDate,2024-06-27T13:16:47-04:00*%
%TF.ProjectId,booster-emi-filter,626f6f73-7465-4722-9d65-6d692d66696c,rev?*%
%TF.SameCoordinates,Original*%
%TF.FileFunction,Copper,L1,Top*%
%TF.FilePolarity,Positive*%
%FSLAX46Y46*%
G04 Gerber Fmt 4.6, Leading zero omitted, Abs format (unit mm)*
G04 Created by KiCad (PCBNEW 8.0.1) date 2024-06-27 13:16:47*
%MOMM*%
%LPD*%
G01*
G04 APERTURE LIST*
%TA.AperFunction,ComponentPad*%
%ADD10R,3.556000X3.556000*%
%TD*%
%TA.AperFunction,ComponentPad*%
%ADD11C,3.556000*%
%TD*%
%TA.AperFunction,ComponentPad*%
%ADD12C,1.600000*%
%TD*%
%TA.AperFunction,ComponentPad*%
%ADD13O,1.600000X1.600000*%
%TD*%
%TA.AperFunction,ComponentPad*%
%ADD14C,1.000000*%
%TD*%
%TA.AperFunction,ComponentPad*%
%ADD15R,1.500000X1.500000*%
%TD*%
%TA.AperFunction,ComponentPad*%
%ADD16C,1.500000*%
%TD*%
%TA.AperFunction,ComponentPad*%
%ADD17C,2.300000*%
%TD*%
%TA.AperFunction,ComponentPad*%
%ADD18C,1.381000*%
%TD*%
%TA.AperFunction,ComponentPad*%
%ADD19C,2.000000*%
%TD*%
%TA.AperFunction,ViaPad*%
%ADD20C,10.000000*%
%TD*%
%TA.AperFunction,Conductor*%
%ADD21C,1.000000*%
%TD*%
G04 APERTURE END LIST*
D10*
%TO.P,L1,1*%
%TO.N,/L1_IN*%
X54400000Y-105125000D03*
D11*
%TO.P,L1,2*%
X59400000Y-105125000D03*
%TO.P,L1,3*%
%TO.N,/L2_IN*%
X89400000Y-105125000D03*
%TO.P,L1,4*%
X94400000Y-105125000D03*
%TO.P,L1,5*%
%TO.N,/L2_OUT*%
X94400000Y-82625000D03*
%TO.P,L1,6*%
X89400000Y-82625000D03*
%TO.P,L1,7*%
%TO.N,/L1_OUT*%
X59400000Y-82625000D03*
%TO.P,L1,8*%
X54400000Y-82625000D03*
%TD*%
D12*
%TO.P,R4,1*%
%TO.N,/L2_OUT*%
X56690000Y-57500000D03*
D13*
%TO.P,R4,2*%
%TO.N,Net-(NE1-Pad2)*%
X64310000Y-57500000D03*
%TD*%
D14*
%TO.P,NE1,1*%
%TO.N,/L1_OUT*%
X69500000Y-59500000D03*
%TO.P,NE1,2*%
%TO.N,Net-(NE1-Pad2)*%
X69500000Y-56500000D03*
%TD*%
D15*
%TO.P,RV2,1*%
%TO.N,/L1_OUT*%
X57100000Y-71750000D03*
D16*
%TO.P,RV2,2*%
%TO.N,/L2_OUT*%
X58900000Y-64250000D03*
%TD*%
D15*
%TO.P,RV1,1*%
%TO.N,/L1_OUT*%
X62600000Y-71750000D03*
D16*
%TO.P,RV1,2*%
%TO.N,/L2_OUT*%
X64400000Y-64250000D03*
%TD*%
D17*
%TO.P,J5,1,1*%
%TO.N,/L2_OUT*%
X85460000Y-56460000D03*
%TO.P,J5,2,2*%
X85460000Y-59000000D03*
%TO.P,J5,3,3*%
X85460000Y-61540000D03*
%TO.P,J5,4,4*%
X90540000Y-61540000D03*
%TO.P,J5,5,5*%
X90540000Y-59000000D03*
%TO.P,J5,6,6*%
X90540000Y-56460000D03*
%TD*%
%TO.P,J4,1,1*%
%TO.N,/L1_OUT*%
X75420000Y-56500000D03*
%TO.P,J4,2,2*%
X75420000Y-59040000D03*
%TO.P,J4,3,3*%
X75420000Y-61580000D03*
%TO.P,J4,4,4*%
X80500000Y-61580000D03*
%TO.P,J4,5,5*%
X80500000Y-59040000D03*
%TO.P,J4,6,6*%
X80500000Y-56500000D03*
%TD*%
%TO.P,J2,1,1*%
%TO.N,/L2_IN*%
X63500000Y-115000000D03*
%TO.P,J2,2,2*%
X63500000Y-117540000D03*
%TO.P,J2,3,3*%
X63500000Y-120080000D03*
%TO.P,J2,4,4*%
X68580000Y-120080000D03*
%TO.P,J2,5,5*%
X68580000Y-117540000D03*
%TO.P,J2,6,6*%
X68580000Y-115000000D03*
%TD*%
%TO.P,J1,1,1*%
%TO.N,/L1_IN*%
X53500000Y-115000000D03*
%TO.P,J1,2,2*%
X53500000Y-117540000D03*
%TO.P,J1,3,3*%
X53500000Y-120080000D03*
%TO.P,J1,4,4*%
X58580000Y-120080000D03*
%TO.P,J1,5,5*%
X58580000Y-117540000D03*
%TO.P,J1,6,6*%
X58580000Y-115000000D03*
%TD*%
D18*
%TO.P,C8,1*%
%TO.N,/L2_OUT*%
X96500000Y-74000000D03*
%TO.P,C8,2*%
%TO.N,GND*%
X96500000Y-66500000D03*
%TD*%
%TO.P,C7,1*%
%TO.N,GND*%
X52000000Y-66500000D03*
%TO.P,C7,2*%
%TO.N,/L1_OUT*%
X52000000Y-74000000D03*
%TD*%
%TO.P,C5,1*%
%TO.N,/L2_OUT*%
X103500000Y-74000000D03*
%TO.P,C5,2*%
%TO.N,GND*%
X103500000Y-66500000D03*
%TD*%
%TO.P,C4,1*%
%TO.N,GND*%
X45000000Y-66500000D03*
%TO.P,C4,2*%
%TO.N,/L1_OUT*%
X45000000Y-74000000D03*
%TD*%
D19*
%TO.P,C3,1*%
%TO.N,/L1_OUT*%
X68350000Y-70100000D03*
%TO.P,C3,2*%
%TO.N,/L2_OUT*%
X90850000Y-70100000D03*
%TD*%
%TO.P,C2,2*%
%TO.N,/L2_IN*%
X95350000Y-117500000D03*
%TO.P,C2,1*%
%TO.N,/L1_IN*%
X72850000Y-117500000D03*
%TD*%
D20*
%TO.N,GND*%
X46000000Y-117500000D03*
X102500000Y-117500000D03*
X102500000Y-59000000D03*
X46000000Y-59000000D03*
%TD*%
D21*
%TO.N,/L2_OUT*%
X58900000Y-59710000D02*
X58900000Y-64250000D01*
%TO.N,Net-(NE1-Pad2)*%
X68500000Y-57500000D02*
X69500000Y-56500000D01*
X64310000Y-57500000D02*
X68500000Y-57500000D01*
%TO.N,/L2_OUT*%
X58900000Y-59710000D02*
X56690000Y-57500000D01*
%TD*%
%TA.AperFunction,Conductor*%
%TO.N,/L1_IN*%
G36*
X61443039Y-94519685D02*
G01*
X61488794Y-94572489D01*
X61500000Y-94624000D01*
X61500000Y-111962455D01*
X61480315Y-112029494D01*
X61479174Y-112031238D01*
X60500000Y-113499999D01*
X60500000Y-122875500D01*
X60480315Y-122942539D01*
X60427511Y-122988294D01*
X60376000Y-122999500D01*
X48936653Y-122999500D01*
X48869614Y-122979815D01*
X48823859Y-122927011D01*
X48813915Y-122857853D01*
X48842940Y-122794297D01*
X48879024Y-122765704D01*
X49002685Y-122700803D01*
X49411439Y-122442323D01*
X49798068Y-122151789D01*
X50160066Y-121831088D01*
X50495084Y-121482297D01*
X50800950Y-121107680D01*
X51075679Y-120709665D01*
X51317491Y-120290835D01*
X51524817Y-119853905D01*
X51696312Y-119401708D01*
X51830865Y-118937179D01*
X51927602Y-118463329D01*
X51985896Y-117983232D01*
X52005370Y-117500000D01*
X51985896Y-117016768D01*
X51927602Y-116536671D01*
X51830865Y-116062821D01*
X51696312Y-115598292D01*
X51696310Y-115598285D01*
X51580724Y-115293511D01*
X51524817Y-115146095D01*
X51317491Y-114709165D01*
X51288591Y-114659109D01*
X51075677Y-114290331D01*
X51075672Y-114290325D01*
X50800950Y-113892320D01*
X50800945Y-113892314D01*
X50800941Y-113892308D01*
X50495085Y-113517704D01*
X50495079Y-113517698D01*
X50160066Y-113168912D01*
X49798079Y-112848220D01*
X49798073Y-112848215D01*
X49798068Y-112848211D01*
X49411439Y-112557677D01*
X49002685Y-112299197D01*
X48574457Y-112074446D01*
X48129534Y-111884882D01*
X48129526Y-111884879D01*
X48129523Y-111884878D01*
X47902843Y-111809201D01*
X47670799Y-111731733D01*
X47670795Y-111731732D01*
X47670788Y-111731730D01*
X47201232Y-111615995D01*
X47201216Y-111615992D01*
X46723872Y-111538416D01*
X46241822Y-111499500D01*
X46241812Y-111499500D01*
X45758188Y-111499500D01*
X45758177Y-111499500D01*
X45276127Y-111538416D01*
X44798783Y-111615992D01*
X44798767Y-111615995D01*
X44329211Y-111731730D01*
X44329204Y-111731732D01*
X43870476Y-111884878D01*
X43870468Y-111884881D01*
X43870466Y-111884882D01*
X43705832Y-111955025D01*
X43425549Y-112074443D01*
X42997318Y-112299195D01*
X42588559Y-112557678D01*
X42201920Y-112848220D01*
X41839933Y-113168912D01*
X41504920Y-113517698D01*
X41504914Y-113517704D01*
X41199058Y-113892308D01*
X40924327Y-114290325D01*
X40924322Y-114290331D01*
X40731887Y-114623639D01*
X40681320Y-114671855D01*
X40612713Y-114685077D01*
X40547848Y-114659109D01*
X40507320Y-114602195D01*
X40500500Y-114561639D01*
X40500500Y-94624000D01*
X40520185Y-94556961D01*
X40572989Y-94511206D01*
X40624500Y-94500000D01*
X61376000Y-94500000D01*
X61443039Y-94519685D01*
G37*
%TD.AperFunction*%
%TD*%
%TA.AperFunction,Conductor*%
%TO.N,/L2_IN*%
G36*
X107942539Y-94519685D02*
G01*
X107988294Y-94572489D01*
X107999500Y-94624000D01*
X107999500Y-114561639D01*
X107979815Y-114628678D01*
X107927011Y-114674433D01*
X107857853Y-114684377D01*
X107794297Y-114655352D01*
X107768113Y-114623639D01*
X107575677Y-114290331D01*
X107575672Y-114290325D01*
X107300950Y-113892320D01*
X107300945Y-113892314D01*
X107300941Y-113892308D01*
X106995085Y-113517704D01*
X106995079Y-113517698D01*
X106660066Y-113168912D01*
X106298079Y-112848220D01*
X106298073Y-112848215D01*
X106298068Y-112848211D01*
X105911439Y-112557677D01*
X105502685Y-112299197D01*
X105074457Y-112074446D01*
X104629534Y-111884882D01*
X104629526Y-111884879D01*
X104629523Y-111884878D01*
X104402843Y-111809201D01*
X104170799Y-111731733D01*
X104170795Y-111731732D01*
X104170788Y-111731730D01*
X103701232Y-111615995D01*
X103701216Y-111615992D01*
X103223872Y-111538416D01*
X102741822Y-111499500D01*
X102741812Y-111499500D01*
X102258188Y-111499500D01*
X102258177Y-111499500D01*
X101776127Y-111538416D01*
X101298783Y-111615992D01*
X101298767Y-111615995D01*
X100829211Y-111731730D01*
X100829204Y-111731732D01*
X100370476Y-111884878D01*
X100370468Y-111884881D01*
X100370466Y-111884882D01*
X100205832Y-111955025D01*
X99925549Y-112074443D01*
X99497318Y-112299195D01*
X99088559Y-112557678D01*
X98701920Y-112848220D01*
X98339933Y-113168912D01*
X98004920Y-113517698D01*
X98004914Y-113517704D01*
X97699058Y-113892308D01*
X97424327Y-114290325D01*
X97424322Y-114290331D01*
X97182512Y-114709158D01*
X96975185Y-115146089D01*
X96803689Y-115598285D01*
X96669136Y-116062814D01*
X96572398Y-116536667D01*
X96514104Y-117016762D01*
X96514102Y-117016788D01*
X96494630Y-117499988D01*
X96494630Y-117500011D01*
X96514102Y-117983211D01*
X96514104Y-117983237D01*
X96572398Y-118463332D01*
X96669136Y-118937185D01*
X96803689Y-119401714D01*
X96975185Y-119853910D01*
X97182512Y-120290841D01*
X97424322Y-120709668D01*
X97424327Y-120709674D01*
X97699058Y-121107691D01*
X98004914Y-121482295D01*
X98004920Y-121482301D01*
X98339933Y-121831087D01*
X98701920Y-122151779D01*
X98701924Y-122151782D01*
X98701932Y-122151789D01*
X99088561Y-122442323D01*
X99497315Y-122700803D01*
X99620974Y-122765704D01*
X99671185Y-122814288D01*
X99687160Y-122882307D01*
X99663825Y-122948165D01*
X99608589Y-122990952D01*
X99563347Y-122999500D01*
X61624000Y-122999500D01*
X61556961Y-122979815D01*
X61511206Y-122927011D01*
X61500000Y-122875500D01*
X61500000Y-117500001D01*
X70844390Y-117500001D01*
X70864804Y-117785433D01*
X70925628Y-118065037D01*
X70925630Y-118065043D01*
X70925631Y-118065046D01*
X71025633Y-118333161D01*
X71025635Y-118333166D01*
X71162770Y-118584309D01*
X71162775Y-118584317D01*
X71334254Y-118813387D01*
X71334270Y-118813405D01*
X71536594Y-119015729D01*
X71536612Y-119015745D01*
X71765682Y-119187224D01*
X71765690Y-119187229D01*
X72016833Y-119324364D01*
X72016832Y-119324364D01*
X72016836Y-119324365D01*
X72016839Y-119324367D01*
X72284954Y-119424369D01*
X72284960Y-119424370D01*
X72284962Y-119424371D01*
X72564566Y-119485195D01*
X72564568Y-119485195D01*
X72564572Y-119485196D01*
X72818220Y-119503337D01*
X72849999Y-119505610D01*
X72850000Y-119505610D01*
X72850001Y-119505610D01*
X72878595Y-119503564D01*
X73135428Y-119485196D01*
X73415046Y-119424369D01*
X73683161Y-119324367D01*
X73934315Y-119187226D01*
X74163395Y-119015739D01*
X74365739Y-118813395D01*
X74537226Y-118584315D01*
X74674367Y-118333161D01*
X74774369Y-118065046D01*
X74792165Y-117983237D01*
X74835195Y-117785433D01*
X74835195Y-117785432D01*
X74835196Y-117785428D01*
X74855610Y-117500000D01*
X74835196Y-117214572D01*
X74792166Y-117016768D01*
X74774371Y-116934962D01*
X74774370Y-116934960D01*
X74774369Y-116934954D01*
X74674367Y-116666839D01*
X74603287Y-116536667D01*
X74537229Y-116415690D01*
X74537224Y-116415682D01*
X74365745Y-116186612D01*
X74365729Y-116186594D01*
X74163405Y-115984270D01*
X74163387Y-115984254D01*
X73934317Y-115812775D01*
X73934309Y-115812770D01*
X73683166Y-115675635D01*
X73683167Y-115675635D01*
X73475802Y-115598292D01*
X73415046Y-115575631D01*
X73415043Y-115575630D01*
X73415037Y-115575628D01*
X73135433Y-115514804D01*
X72850001Y-115494390D01*
X72849999Y-115494390D01*
X72564566Y-115514804D01*
X72284962Y-115575628D01*
X72016833Y-115675635D01*
X71765690Y-115812770D01*
X71765682Y-115812775D01*
X71536612Y-115984254D01*
X71536594Y-115984270D01*
X71334270Y-116186594D01*
X71334254Y-116186612D01*
X71162775Y-116415682D01*
X71162770Y-116415690D01*
X71025635Y-116666833D01*
X70925628Y-116934962D01*
X70864804Y-117214566D01*
X70844390Y-117499998D01*
X70844390Y-117500001D01*
X61500000Y-117500001D01*
X61500000Y-114037544D01*
X61519685Y-113970505D01*
X61520826Y-113968761D01*
X62500000Y-112500000D01*
X62500000Y-94624000D01*
X62519685Y-94556961D01*
X62572489Y-94511206D01*
X62624000Y-94500000D01*
X107875500Y-94500000D01*
X107942539Y-94519685D01*
G37*
%TD.AperFunction*%
%TD*%
%TA.AperFunction,Conductor*%
%TO.N,/L1_OUT*%
G36*
X82443039Y-53520185D02*
G01*
X82488794Y-53572989D01*
X82500000Y-53624500D01*
X82500000Y-93376000D01*
X82480315Y-93443039D01*
X82427511Y-93488794D01*
X82376000Y-93500000D01*
X40624500Y-93500000D01*
X40557461Y-93480315D01*
X40511706Y-93427511D01*
X40500500Y-93376000D01*
X40500500Y-61938360D01*
X40520185Y-61871321D01*
X40572989Y-61825566D01*
X40642147Y-61815622D01*
X40705703Y-61844647D01*
X40731887Y-61876360D01*
X40924322Y-62209668D01*
X40924327Y-62209674D01*
X41151370Y-62538604D01*
X41199058Y-62607691D01*
X41419406Y-62877567D01*
X41504916Y-62982297D01*
X41839934Y-63331088D01*
X41891439Y-63376717D01*
X42201920Y-63651779D01*
X42201924Y-63651782D01*
X42201932Y-63651789D01*
X42588561Y-63942323D01*
X42997315Y-64200803D01*
X43425543Y-64425554D01*
X43870466Y-64615118D01*
X44257542Y-64744343D01*
X44314896Y-64784243D01*
X44341575Y-64848819D01*
X44329106Y-64917567D01*
X44281449Y-64968661D01*
X44272075Y-64973681D01*
X44152133Y-65031441D01*
X43942721Y-65174216D01*
X43756936Y-65346598D01*
X43598912Y-65544755D01*
X43472189Y-65764244D01*
X43379597Y-66000165D01*
X43379592Y-66000182D01*
X43323197Y-66247265D01*
X43304258Y-66499995D01*
X43304258Y-66500004D01*
X43323197Y-66752734D01*
X43323198Y-66752737D01*
X43379595Y-66999829D01*
X43472189Y-67235755D01*
X43598912Y-67455245D01*
X43726544Y-67615290D01*
X43756936Y-67653401D01*
X43932320Y-67816132D01*
X43942722Y-67825784D01*
X44152129Y-67968556D01*
X44152134Y-67968558D01*
X44152135Y-67968559D01*
X44152136Y-67968560D01*
X44273409Y-68026961D01*
X44380472Y-68078520D01*
X44380473Y-68078520D01*
X44380476Y-68078522D01*
X44622662Y-68153226D01*
X44622663Y-68153226D01*
X44622666Y-68153227D01*
X44873269Y-68190999D01*
X44873274Y-68190999D01*
X44873277Y-68191000D01*
X44873278Y-68191000D01*
X45126722Y-68191000D01*
X45126723Y-68191000D01*
X45126730Y-68190999D01*
X45377333Y-68153227D01*
X45377334Y-68153226D01*
X45377338Y-68153226D01*
X45619524Y-68078522D01*
X45847871Y-67968556D01*
X46057278Y-67825784D01*
X46243067Y-67653397D01*
X46401088Y-67455245D01*
X46527811Y-67235755D01*
X46620405Y-66999829D01*
X46676802Y-66752737D01*
X46695742Y-66500004D01*
X50304258Y-66500004D01*
X50323197Y-66752734D01*
X50323198Y-66752737D01*
X50379595Y-66999829D01*
X50472189Y-67235755D01*
X50598912Y-67455245D01*
X50726544Y-67615290D01*
X50756936Y-67653401D01*
X50932320Y-67816132D01*
X50942722Y-67825784D01*
X51152129Y-67968556D01*
X51152134Y-67968558D01*
X51152135Y-67968559D01*
X51152136Y-67968560D01*
X51273409Y-68026961D01*
X51380472Y-68078520D01*
X51380473Y-68078520D01*
X51380476Y-68078522D01*
X51622662Y-68153226D01*
X51622663Y-68153226D01*
X51622666Y-68153227D01*
X51873269Y-68190999D01*
X51873274Y-68190999D01*
X51873277Y-68191000D01*
X51873278Y-68191000D01*
X52126722Y-68191000D01*
X52126723Y-68191000D01*
X52126730Y-68190999D01*
X52377333Y-68153227D01*
X52377334Y-68153226D01*
X52377338Y-68153226D01*
X52619524Y-68078522D01*
X52847871Y-67968556D01*
X53057278Y-67825784D01*
X53243067Y-67653397D01*
X53401088Y-67455245D01*
X53527811Y-67235755D01*
X53620405Y-66999829D01*
X53676802Y-66752737D01*
X53695742Y-66500000D01*
X53676802Y-66247263D01*
X53620405Y-66000171D01*
X53527811Y-65764245D01*
X53401088Y-65544755D01*
X53243067Y-65346603D01*
X53243066Y-65346602D01*
X53243063Y-65346598D01*
X53057278Y-65174216D01*
X52847871Y-65031444D01*
X52847865Y-65031441D01*
X52847864Y-65031440D01*
X52847863Y-65031439D01*
X52619526Y-64921479D01*
X52619528Y-64921479D01*
X52377339Y-64846774D01*
X52377333Y-64846772D01*
X52126730Y-64809000D01*
X52126723Y-64809000D01*
X51873277Y-64809000D01*
X51873269Y-64809000D01*
X51622666Y-64846772D01*
X51622660Y-64846774D01*
X51380472Y-64921479D01*
X51152136Y-65031439D01*
X51152135Y-65031440D01*
X50942721Y-65174216D01*
X50756936Y-65346598D01*
X50598912Y-65544755D01*
X50472189Y-65764244D01*
X50379597Y-66000165D01*
X50379592Y-66000182D01*
X50323197Y-66247265D01*
X50304258Y-66499995D01*
X50304258Y-66500004D01*
X46695742Y-66500004D01*
X46695742Y-66500000D01*
X46676802Y-66247263D01*
X46620405Y-66000171D01*
X46527811Y-65764245D01*
X46401088Y-65544755D01*
X46243067Y-65346603D01*
X46243066Y-65346602D01*
X46243063Y-65346598D01*
X46126943Y-65238856D01*
X46101661Y-65215397D01*
X46065907Y-65155371D01*
X46068282Y-65085541D01*
X46108032Y-65028081D01*
X46172538Y-65001233D01*
X46186003Y-65000500D01*
X46241803Y-65000500D01*
X46241812Y-65000500D01*
X46723867Y-64961584D01*
X47201228Y-64884005D01*
X47670799Y-64768267D01*
X48129534Y-64615118D01*
X48574457Y-64425554D01*
X49002685Y-64200803D01*
X49411439Y-63942323D01*
X49798068Y-63651789D01*
X50160066Y-63331088D01*
X50495084Y-62982297D01*
X50800950Y-62607680D01*
X51075679Y-62209665D01*
X51317491Y-61790835D01*
X51524817Y-61353905D01*
X51696312Y-60901708D01*
X51830865Y-60437179D01*
X51927602Y-59963329D01*
X51985896Y-59483232D01*
X51985897Y-59483211D01*
X52005370Y-59000011D01*
X52005370Y-58999988D01*
X51985897Y-58516788D01*
X51985896Y-58516782D01*
X51985896Y-58516768D01*
X51927602Y-58036671D01*
X51830865Y-57562821D01*
X51812670Y-57500004D01*
X54884451Y-57500004D01*
X54904616Y-57769101D01*
X54964664Y-58032188D01*
X54964666Y-58032195D01*
X55063257Y-58283398D01*
X55198185Y-58517102D01*
X55334080Y-58687509D01*
X55366442Y-58728089D01*
X55541552Y-58890566D01*
X55564259Y-58911635D01*
X55787226Y-59063651D01*
X56030359Y-59180738D01*
X56288228Y-59260280D01*
X56295004Y-59261301D01*
X56358362Y-59290755D01*
X56364209Y-59296236D01*
X57363181Y-60295208D01*
X57396666Y-60356531D01*
X57399500Y-60382889D01*
X57399500Y-63314717D01*
X57382887Y-63376717D01*
X57318432Y-63488356D01*
X57222582Y-63732578D01*
X57222576Y-63732597D01*
X57164197Y-63988374D01*
X57164196Y-63988379D01*
X57144592Y-64249995D01*
X57144592Y-64250004D01*
X57164196Y-64511620D01*
X57164197Y-64511625D01*
X57222576Y-64767402D01*
X57222578Y-64767411D01*
X57222580Y-64767416D01*
X57318432Y-65011643D01*
X57449614Y-65238857D01*
X57535535Y-65346598D01*
X57613198Y-65443985D01*
X57794753Y-65612441D01*
X57805521Y-65622433D01*
X58022296Y-65770228D01*
X58022301Y-65770230D01*
X58022302Y-65770231D01*
X58022303Y-65770232D01*
X58147843Y-65830688D01*
X58258673Y-65884061D01*
X58258674Y-65884061D01*
X58258677Y-65884063D01*
X58509385Y-65961396D01*
X58768818Y-66000500D01*
X59031182Y-66000500D01*
X59290615Y-65961396D01*
X59541323Y-65884063D01*
X59777704Y-65770228D01*
X59994479Y-65622433D01*
X60186805Y-65443981D01*
X60350386Y-65238857D01*
X60481568Y-65011643D01*
X60577420Y-64767416D01*
X60635802Y-64511630D01*
X60642252Y-64425556D01*
X60655408Y-64250004D01*
X62644592Y-64250004D01*
X62664196Y-64511620D01*
X62664197Y-64511625D01*
X62722576Y-64767402D01*
X62722578Y-64767411D01*
X62722580Y-64767416D01*
X62818432Y-65011643D01*
X62949614Y-65238857D01*
X63035535Y-65346598D01*
X63113198Y-65443985D01*
X63294753Y-65612441D01*
X63305521Y-65622433D01*
X63522296Y-65770228D01*
X63522301Y-65770230D01*
X63522302Y-65770231D01*
X63522303Y-65770232D01*
X63647843Y-65830688D01*
X63758673Y-65884061D01*
X63758674Y-65884061D01*
X63758677Y-65884063D01*
X64009385Y-65961396D01*
X64268818Y-66000500D01*
X64531182Y-66000500D01*
X64790615Y-65961396D01*
X65041323Y-65884063D01*
X65277704Y-65770228D01*
X65494479Y-65622433D01*
X65686805Y-65443981D01*
X65850386Y-65238857D01*
X65981568Y-65011643D01*
X66077420Y-64767416D01*
X66135802Y-64511630D01*
X66142252Y-64425556D01*
X66155408Y-64250004D01*
X66155408Y-64249995D01*
X66135803Y-63988379D01*
X66135802Y-63988374D01*
X66135802Y-63988370D01*
X66077420Y-63732584D01*
X65981568Y-63488357D01*
X65850386Y-63261143D01*
X65686805Y-63056019D01*
X65686804Y-63056018D01*
X65686801Y-63056014D01*
X65494479Y-62877567D01*
X65277704Y-62729772D01*
X65277700Y-62729770D01*
X65277697Y-62729768D01*
X65277696Y-62729767D01*
X65041325Y-62615938D01*
X65041327Y-62615938D01*
X64790623Y-62538606D01*
X64790619Y-62538605D01*
X64790615Y-62538604D01*
X64665823Y-62519794D01*
X64531187Y-62499500D01*
X64531182Y-62499500D01*
X64268818Y-62499500D01*
X64268812Y-62499500D01*
X64107247Y-62523853D01*
X64009385Y-62538604D01*
X64009382Y-62538605D01*
X64009376Y-62538606D01*
X63758673Y-62615938D01*
X63522303Y-62729767D01*
X63522302Y-62729768D01*
X63305520Y-62877567D01*
X63113198Y-63056014D01*
X62949614Y-63261143D01*
X62818432Y-63488356D01*
X62722582Y-63732578D01*
X62722576Y-63732597D01*
X62664197Y-63988374D01*
X62664196Y-63988379D01*
X62644592Y-64249995D01*
X62644592Y-64250004D01*
X60655408Y-64250004D01*
X60655408Y-64249995D01*
X60635803Y-63988379D01*
X60635802Y-63988374D01*
X60635802Y-63988370D01*
X60577420Y-63732584D01*
X60481568Y-63488357D01*
X60417113Y-63376717D01*
X60400500Y-63314717D01*
X60400500Y-59591902D01*
X60363553Y-59358631D01*
X60329689Y-59254412D01*
X60290568Y-59134008D01*
X60290566Y-59134005D01*
X60290566Y-59134003D01*
X60255861Y-59065892D01*
X60255860Y-59065891D01*
X60254720Y-59063654D01*
X60203717Y-58963553D01*
X60183344Y-58923567D01*
X60062156Y-58756768D01*
X60044517Y-58732490D01*
X58812031Y-57500004D01*
X62504451Y-57500004D01*
X62524616Y-57769101D01*
X62584664Y-58032188D01*
X62584666Y-58032195D01*
X62683257Y-58283398D01*
X62818185Y-58517102D01*
X62954080Y-58687509D01*
X62986442Y-58728089D01*
X63161552Y-58890566D01*
X63184259Y-58911635D01*
X63407226Y-59063651D01*
X63650359Y-59180738D01*
X63908228Y-59260280D01*
X63908229Y-59260280D01*
X63908232Y-59260281D01*
X64175063Y-59300499D01*
X64175068Y-59300499D01*
X64175071Y-59300500D01*
X64175072Y-59300500D01*
X64444928Y-59300500D01*
X64444929Y-59300500D01*
X64473219Y-59296236D01*
X64711767Y-59260281D01*
X64711768Y-59260280D01*
X64711772Y-59260280D01*
X64969641Y-59180738D01*
X65212775Y-59063651D01*
X65273798Y-59022045D01*
X65340277Y-59000546D01*
X65343649Y-59000500D01*
X68618097Y-59000500D01*
X68851368Y-58963553D01*
X69075992Y-58890568D01*
X69286434Y-58783343D01*
X69477510Y-58644517D01*
X70489702Y-57632324D01*
X70501203Y-57622167D01*
X70519744Y-57607738D01*
X70581223Y-57540952D01*
X70584723Y-57537303D01*
X70644518Y-57477510D01*
X70658612Y-57458110D01*
X70667693Y-57447020D01*
X70688164Y-57424785D01*
X70734158Y-57354383D01*
X70737590Y-57349404D01*
X70783343Y-57286433D01*
X70797285Y-57259066D01*
X70803962Y-57247541D01*
X70824171Y-57216610D01*
X70824173Y-57216607D01*
X70855240Y-57145777D01*
X70858286Y-57139345D01*
X70890568Y-57075992D01*
X70902136Y-57040383D01*
X70906513Y-57028890D01*
X70915178Y-57009134D01*
X70924063Y-56988881D01*
X70941397Y-56920428D01*
X70943661Y-56912587D01*
X70963553Y-56851368D01*
X70970466Y-56807714D01*
X70972724Y-56796720D01*
X70985108Y-56747821D01*
X70990385Y-56684129D01*
X70991483Y-56675015D01*
X71000500Y-56618091D01*
X71000500Y-56567189D01*
X71000924Y-56556948D01*
X71005643Y-56500004D01*
X71005643Y-56499995D01*
X71000924Y-56443050D01*
X71000500Y-56432809D01*
X71000500Y-56381909D01*
X70991486Y-56325002D01*
X70990382Y-56315841D01*
X70985108Y-56252179D01*
X70972724Y-56203279D01*
X70970462Y-56192260D01*
X70963553Y-56148633D01*
X70963553Y-56148630D01*
X70943668Y-56087431D01*
X70941393Y-56079553D01*
X70939285Y-56071230D01*
X70924063Y-56011119D01*
X70906511Y-55971106D01*
X70902138Y-55959617D01*
X70890570Y-55924010D01*
X70858296Y-55860670D01*
X70855225Y-55854185D01*
X70824173Y-55783393D01*
X70803961Y-55752457D01*
X70797289Y-55740935D01*
X70783349Y-55713578D01*
X70783343Y-55713566D01*
X70737610Y-55650621D01*
X70734121Y-55645558D01*
X70688165Y-55575217D01*
X70688164Y-55575215D01*
X70667690Y-55552975D01*
X70658611Y-55541887D01*
X70644518Y-55522490D01*
X70584770Y-55462742D01*
X70581223Y-55459045D01*
X70519747Y-55392265D01*
X70519742Y-55392260D01*
X70501211Y-55377837D01*
X70489693Y-55367665D01*
X70477509Y-55355481D01*
X70403706Y-55301859D01*
X70400432Y-55299396D01*
X70323513Y-55239529D01*
X70323512Y-55239528D01*
X70323509Y-55239526D01*
X70323500Y-55239521D01*
X70308782Y-55231555D01*
X70294923Y-55222824D01*
X70286437Y-55216659D01*
X70286427Y-55216653D01*
X70199161Y-55172188D01*
X70196440Y-55170759D01*
X70104812Y-55121173D01*
X70104802Y-55121168D01*
X70095349Y-55117923D01*
X70079331Y-55111132D01*
X70075995Y-55109432D01*
X69976461Y-55077092D01*
X69974517Y-55076442D01*
X69869622Y-55040431D01*
X69869615Y-55040429D01*
X69869614Y-55040429D01*
X69869610Y-55040428D01*
X69869600Y-55040426D01*
X69866401Y-55039892D01*
X69856155Y-55037388D01*
X69856108Y-55037585D01*
X69851374Y-55036448D01*
X69851369Y-55036447D01*
X69851363Y-55036446D01*
X69741426Y-55019033D01*
X69740417Y-55018869D01*
X69624335Y-54999500D01*
X69375665Y-54999500D01*
X69259562Y-55018872D01*
X69258553Y-55019036D01*
X69148634Y-55036446D01*
X69143893Y-55037584D01*
X69143846Y-55037388D01*
X69133599Y-55039892D01*
X69130388Y-55040428D01*
X69025443Y-55076454D01*
X69023503Y-55077102D01*
X68924005Y-55109432D01*
X68923997Y-55109436D01*
X68920652Y-55111140D01*
X68904662Y-55117918D01*
X68895197Y-55121168D01*
X68895194Y-55121170D01*
X68803525Y-55170777D01*
X68800805Y-55172205D01*
X68713573Y-55216653D01*
X68713565Y-55216658D01*
X68705075Y-55222826D01*
X68691218Y-55231555D01*
X68676499Y-55239521D01*
X68676494Y-55239524D01*
X68676492Y-55239525D01*
X68676491Y-55239526D01*
X68650787Y-55259531D01*
X68599561Y-55299402D01*
X68596287Y-55301864D01*
X68522492Y-55355480D01*
X68522491Y-55355481D01*
X68510299Y-55367672D01*
X68498790Y-55377835D01*
X68480257Y-55392260D01*
X68480256Y-55392261D01*
X68418775Y-55459046D01*
X68415228Y-55462742D01*
X67914790Y-55963182D01*
X67853469Y-55996666D01*
X67827111Y-55999500D01*
X65343649Y-55999500D01*
X65276610Y-55979815D01*
X65273830Y-55977976D01*
X65212775Y-55936349D01*
X65212769Y-55936346D01*
X65212768Y-55936345D01*
X65212767Y-55936344D01*
X64969643Y-55819263D01*
X64969645Y-55819263D01*
X64711773Y-55739720D01*
X64711767Y-55739718D01*
X64444936Y-55699500D01*
X64444929Y-55699500D01*
X64175071Y-55699500D01*
X64175063Y-55699500D01*
X63908232Y-55739718D01*
X63908226Y-55739720D01*
X63650358Y-55819262D01*
X63407230Y-55936346D01*
X63184258Y-56088365D01*
X62986442Y-56271910D01*
X62818185Y-56482898D01*
X62683258Y-56716599D01*
X62683256Y-56716603D01*
X62584666Y-56967804D01*
X62584664Y-56967811D01*
X62524616Y-57230898D01*
X62504451Y-57499995D01*
X62504451Y-57500004D01*
X58812031Y-57500004D01*
X58480669Y-57168642D01*
X58447459Y-57108553D01*
X58415336Y-56967813D01*
X58415335Y-56967811D01*
X58415334Y-56967805D01*
X58316743Y-56716602D01*
X58181815Y-56482898D01*
X58013561Y-56271915D01*
X58013560Y-56271914D01*
X58013557Y-56271910D01*
X57815741Y-56088365D01*
X57814371Y-56087431D01*
X57592775Y-55936349D01*
X57592769Y-55936346D01*
X57592768Y-55936345D01*
X57592767Y-55936344D01*
X57349643Y-55819263D01*
X57349645Y-55819263D01*
X57091773Y-55739720D01*
X57091767Y-55739718D01*
X56824936Y-55699500D01*
X56824929Y-55699500D01*
X56555071Y-55699500D01*
X56555063Y-55699500D01*
X56288232Y-55739718D01*
X56288226Y-55739720D01*
X56030358Y-55819262D01*
X55787230Y-55936346D01*
X55564258Y-56088365D01*
X55366442Y-56271910D01*
X55198185Y-56482898D01*
X55063258Y-56716599D01*
X55063256Y-56716603D01*
X54964666Y-56967804D01*
X54964664Y-56967811D01*
X54904616Y-57230898D01*
X54884451Y-57499995D01*
X54884451Y-57500004D01*
X51812670Y-57500004D01*
X51730583Y-57216607D01*
X51696310Y-57098285D01*
X51563396Y-56747821D01*
X51524817Y-56646095D01*
X51317491Y-56209165D01*
X51314112Y-56203312D01*
X51075677Y-55790331D01*
X51075672Y-55790325D01*
X51040741Y-55739718D01*
X50800950Y-55392320D01*
X50800945Y-55392314D01*
X50800941Y-55392308D01*
X50495085Y-55017704D01*
X50495079Y-55017698D01*
X50160066Y-54668912D01*
X49798079Y-54348220D01*
X49798073Y-54348215D01*
X49798068Y-54348211D01*
X49411439Y-54057677D01*
X49002685Y-53799197D01*
X48879025Y-53734295D01*
X48828815Y-53685712D01*
X48812840Y-53617693D01*
X48836175Y-53551835D01*
X48891411Y-53509048D01*
X48936653Y-53500500D01*
X82376000Y-53500500D01*
X82443039Y-53520185D01*
G37*
%TD.AperFunction*%
%TD*%
%TA.AperFunction,Conductor*%
%TO.N,/L2_OUT*%
G36*
X99630386Y-53520185D02*
G01*
X99676141Y-53572989D01*
X99686085Y-53642147D01*
X99657060Y-53705703D01*
X99620975Y-53734295D01*
X99560468Y-53766052D01*
X99497318Y-53799195D01*
X99088559Y-54057678D01*
X98701920Y-54348220D01*
X98339933Y-54668912D01*
X98004920Y-55017698D01*
X98004914Y-55017704D01*
X97699058Y-55392308D01*
X97424327Y-55790325D01*
X97424322Y-55790331D01*
X97182512Y-56209158D01*
X96975185Y-56646089D01*
X96803689Y-57098285D01*
X96669136Y-57562814D01*
X96572398Y-58036667D01*
X96514104Y-58516762D01*
X96514102Y-58516788D01*
X96494630Y-58999988D01*
X96494630Y-59000011D01*
X96514102Y-59483211D01*
X96514104Y-59483237D01*
X96572398Y-59963332D01*
X96669136Y-60437185D01*
X96803689Y-60901714D01*
X96975185Y-61353910D01*
X97182512Y-61790841D01*
X97424322Y-62209668D01*
X97424327Y-62209674D01*
X97699058Y-62607691D01*
X98004914Y-62982295D01*
X98004920Y-62982301D01*
X98339933Y-63331087D01*
X98701920Y-63651779D01*
X98701924Y-63651782D01*
X98701932Y-63651789D01*
X99088561Y-63942323D01*
X99497315Y-64200803D01*
X99925543Y-64425554D01*
X100370466Y-64615118D01*
X100829201Y-64768267D01*
X100994463Y-64809000D01*
X101298767Y-64884004D01*
X101298783Y-64884007D01*
X101562462Y-64926859D01*
X101776133Y-64961584D01*
X102258188Y-65000500D01*
X102313997Y-65000500D01*
X102381036Y-65020185D01*
X102426791Y-65072989D01*
X102436735Y-65142147D01*
X102407710Y-65205703D01*
X102398344Y-65215392D01*
X102365657Y-65245721D01*
X102256936Y-65346598D01*
X102098912Y-65544755D01*
X101972189Y-65764244D01*
X101879597Y-66000165D01*
X101879592Y-66000182D01*
X101823197Y-66247265D01*
X101804258Y-66499995D01*
X101804258Y-66500004D01*
X101823197Y-66752734D01*
X101823198Y-66752737D01*
X101879595Y-66999829D01*
X101972189Y-67235755D01*
X102098912Y-67455245D01*
X102226544Y-67615290D01*
X102256936Y-67653401D01*
X102432320Y-67816132D01*
X102442722Y-67825784D01*
X102652129Y-67968556D01*
X102652134Y-67968558D01*
X102652135Y-67968559D01*
X102652136Y-67968560D01*
X102773409Y-68026961D01*
X102880472Y-68078520D01*
X102880473Y-68078520D01*
X102880476Y-68078522D01*
X103122662Y-68153226D01*
X103122663Y-68153226D01*
X103122666Y-68153227D01*
X103373269Y-68190999D01*
X103373274Y-68190999D01*
X103373277Y-68191000D01*
X103373278Y-68191000D01*
X103626722Y-68191000D01*
X103626723Y-68191000D01*
X103626730Y-68190999D01*
X103877333Y-68153227D01*
X103877334Y-68153226D01*
X103877338Y-68153226D01*
X104119524Y-68078522D01*
X104347871Y-67968556D01*
X104557278Y-67825784D01*
X104743067Y-67653397D01*
X104901088Y-67455245D01*
X105027811Y-67235755D01*
X105120405Y-66999829D01*
X105176802Y-66752737D01*
X105195742Y-66500000D01*
X105176802Y-66247263D01*
X105120405Y-66000171D01*
X105027811Y-65764245D01*
X104901088Y-65544755D01*
X104743067Y-65346603D01*
X104743066Y-65346602D01*
X104743063Y-65346598D01*
X104557278Y-65174216D01*
X104347871Y-65031444D01*
X104347867Y-65031442D01*
X104347864Y-65031440D01*
X104347863Y-65031439D01*
X104227925Y-64973681D01*
X104176065Y-64926859D01*
X104157752Y-64859432D01*
X104178800Y-64792808D01*
X104232526Y-64748139D01*
X104242432Y-64744351D01*
X104629534Y-64615118D01*
X105074457Y-64425554D01*
X105502685Y-64200803D01*
X105911439Y-63942323D01*
X106298068Y-63651789D01*
X106660066Y-63331088D01*
X106995084Y-62982297D01*
X107300950Y-62607680D01*
X107575679Y-62209665D01*
X107768113Y-61876359D01*
X107818680Y-61828144D01*
X107887287Y-61814921D01*
X107952152Y-61840889D01*
X107992680Y-61897804D01*
X107999500Y-61938360D01*
X107999500Y-93376000D01*
X107979815Y-93443039D01*
X107927011Y-93488794D01*
X107875500Y-93500000D01*
X83624000Y-93500000D01*
X83556961Y-93480315D01*
X83511206Y-93427511D01*
X83500000Y-93376000D01*
X83500000Y-66500004D01*
X94804258Y-66500004D01*
X94823197Y-66752734D01*
X94823198Y-66752737D01*
X94879595Y-66999829D01*
X94972189Y-67235755D01*
X95098912Y-67455245D01*
X95226544Y-67615290D01*
X95256936Y-67653401D01*
X95432320Y-67816132D01*
X95442722Y-67825784D01*
X95652129Y-67968556D01*
X95652134Y-67968558D01*
X95652135Y-67968559D01*
X95652136Y-67968560D01*
X95773409Y-68026961D01*
X95880472Y-68078520D01*
X95880473Y-68078520D01*
X95880476Y-68078522D01*
X96122662Y-68153226D01*
X96122663Y-68153226D01*
X96122666Y-68153227D01*
X96373269Y-68190999D01*
X96373274Y-68190999D01*
X96373277Y-68191000D01*
X96373278Y-68191000D01*
X96626722Y-68191000D01*
X96626723Y-68191000D01*
X96626730Y-68190999D01*
X96877333Y-68153227D01*
X96877334Y-68153226D01*
X96877338Y-68153226D01*
X97119524Y-68078522D01*
X97347871Y-67968556D01*
X97557278Y-67825784D01*
X97743067Y-67653397D01*
X97901088Y-67455245D01*
X98027811Y-67235755D01*
X98120405Y-66999829D01*
X98176802Y-66752737D01*
X98195742Y-66500000D01*
X98176802Y-66247263D01*
X98120405Y-66000171D01*
X98027811Y-65764245D01*
X97901088Y-65544755D01*
X97743067Y-65346603D01*
X97743066Y-65346602D01*
X97743063Y-65346598D01*
X97557278Y-65174216D01*
X97347871Y-65031444D01*
X97347867Y-65031442D01*
X97347864Y-65031440D01*
X97347863Y-65031439D01*
X97119526Y-64921479D01*
X97119528Y-64921479D01*
X96877339Y-64846774D01*
X96877333Y-64846772D01*
X96626730Y-64809000D01*
X96626723Y-64809000D01*
X96373277Y-64809000D01*
X96373269Y-64809000D01*
X96122666Y-64846772D01*
X96122660Y-64846774D01*
X95880472Y-64921479D01*
X95652136Y-65031439D01*
X95652135Y-65031440D01*
X95442721Y-65174216D01*
X95256936Y-65346598D01*
X95098912Y-65544755D01*
X94972189Y-65764244D01*
X94879597Y-66000165D01*
X94879592Y-66000182D01*
X94823197Y-66247265D01*
X94804258Y-66499995D01*
X94804258Y-66500004D01*
X83500000Y-66500004D01*
X83500000Y-53624500D01*
X83519685Y-53557461D01*
X83572489Y-53511706D01*
X83624000Y-53500500D01*
X99563347Y-53500500D01*
X99630386Y-53520185D01*
G37*
%TD.AperFunction*%
%TD*%
M02*
