%TF.GenerationSoftware,KiCad,Pcbnew,8.0.1*%
%TF.CreationDate,2024-06-27T13:16:47-04:00*%
%TF.ProjectId,booster-emi-filter,626f6f73-7465-4722-9d65-6d692d66696c,rev?*%
%TF.SameCoordinates,Original*%
%TF.FileFunction,Legend,Top*%
%TF.FilePolarity,Positive*%
%FSLAX46Y46*%
G04 Gerber Fmt 4.6, Leading zero omitted, Abs format (unit mm)*
G04 Created by KiCad (PCBNEW 8.0.1) date 2024-06-27 13:16:47*
%MOMM*%
%LPD*%
G01*
G04 APERTURE LIST*
%ADD10C,0.127000*%
%ADD11C,0.120000*%
%ADD12C,0.100000*%
%ADD13C,0.200000*%
G04 APERTURE END LIST*
D10*
%TO.C,L1*%
X41900000Y-76375000D02*
X106900000Y-76375000D01*
X41900000Y-111375000D02*
X41900000Y-76375000D01*
X106900000Y-76375000D02*
X106900000Y-111375000D01*
X106900000Y-111375000D02*
X41900000Y-111375000D01*
D11*
%TO.C,R4*%
X57230000Y-56130000D02*
X63770000Y-56130000D01*
X57230000Y-56460000D02*
X57230000Y-56130000D01*
X57230000Y-58540000D02*
X57230000Y-58870000D01*
X57230000Y-58870000D02*
X63770000Y-58870000D01*
X63770000Y-56130000D02*
X63770000Y-56460000D01*
X63770000Y-58870000D02*
X63770000Y-58540000D01*
D12*
%TO.C,NE1*%
X72600000Y-58000000D02*
G75*
G02*
X66400000Y-58000000I-3100000J0D01*
G01*
X66400000Y-58000000D02*
G75*
G02*
X72600000Y-58000000I3100000J0D01*
G01*
D13*
%TO.C,RV2*%
X55500000Y-73250000D02*
X55500000Y-73250000D01*
X60500000Y-73250000D02*
X60500000Y-62750000D01*
X55500000Y-62750000D02*
X55500000Y-73250000D01*
X60500000Y-62750000D02*
X60500000Y-62750000D01*
X60500000Y-73250000D02*
G75*
G02*
X55500000Y-73250000I-2500000J0D01*
G01*
X55500000Y-62750000D02*
G75*
G02*
X60500000Y-62750000I2500000J0D01*
G01*
%TO.C,RV1*%
X61000000Y-73250000D02*
X61000000Y-73250000D01*
X66000000Y-73250000D02*
X66000000Y-62750000D01*
X61000000Y-62750000D02*
X61000000Y-73250000D01*
X66000000Y-62750000D02*
X66000000Y-62750000D01*
X66000000Y-73250000D02*
G75*
G02*
X61000000Y-73250000I-2500000J0D01*
G01*
X61000000Y-62750000D02*
G75*
G02*
X66000000Y-62750000I2500000J0D01*
G01*
D12*
%TO.C,J5*%
X86500000Y-55500000D02*
X89500000Y-55500000D01*
X86500000Y-62500000D02*
X89500000Y-62500000D01*
%TO.C,J4*%
X76460000Y-55540000D02*
X79460000Y-55540000D01*
X76460000Y-62540000D02*
X79460000Y-62540000D01*
%TO.C,J2*%
X64540000Y-114040000D02*
X67540000Y-114040000D01*
X64540000Y-121040000D02*
X67540000Y-121040000D01*
%TO.C,J1*%
X54540000Y-114040000D02*
X57540000Y-114040000D01*
X54540000Y-121040000D02*
X57540000Y-121040000D01*
%TO.C,C8*%
X94000000Y-75000000D02*
X94000000Y-65500000D01*
X99000000Y-75000000D02*
X94000000Y-75000000D01*
X94000000Y-65500000D02*
X99000000Y-65500000D01*
X99000000Y-65500000D02*
X99000000Y-75000000D01*
%TO.C,C7*%
X54500000Y-65500000D02*
X54500000Y-75000000D01*
X49500000Y-65500000D02*
X54500000Y-65500000D01*
X54500000Y-75000000D02*
X49500000Y-75000000D01*
X49500000Y-75000000D02*
X49500000Y-65500000D01*
%TO.C,C5*%
X101000000Y-75000000D02*
X101000000Y-65500000D01*
X106000000Y-75000000D02*
X101000000Y-75000000D01*
X101000000Y-65500000D02*
X106000000Y-65500000D01*
X106000000Y-65500000D02*
X106000000Y-75000000D01*
%TO.C,C4*%
X47500000Y-65500000D02*
X47500000Y-75000000D01*
X42500000Y-65500000D02*
X47500000Y-65500000D01*
X47500000Y-75000000D02*
X42500000Y-75000000D01*
X42500000Y-75000000D02*
X42500000Y-65500000D01*
%TO.C,C3*%
X66600000Y-64600000D02*
X92600000Y-64600000D01*
X92600000Y-75600000D01*
X66600000Y-75600000D01*
X66600000Y-64600000D01*
%TO.C,C2*%
X71100000Y-112000000D02*
X97100000Y-112000000D01*
X97100000Y-123000000D01*
X71100000Y-123000000D01*
X71100000Y-112000000D01*
%TD*%
M02*
