M48
; DRILL file {KiCad 8.0.1} date 2024-06-27T13:16:46-0400
; FORMAT={-:-/ absolute / inch / decimal}
; #@! TF.CreationDate,2024-06-27T13:16:46-04:00
; #@! TF.GenerationSoftware,Kicad,Pcbnew,8.0.1
; #@! TF.FileFunction,Plated,1,2,PTH
FMAT,2
INCH
; #@! TA.AperFunction,Plated,PTH,ComponentDrill
T1C0.0236
; #@! TA.AperFunction,Plated,PTH,ComponentDrill
T2C0.0315
; #@! TA.AperFunction,Plated,PTH,ComponentDrill
T3C0.0335
; #@! TA.AperFunction,Plated,PTH,ComponentDrill
T4C0.0394
; #@! TA.AperFunction,Plated,PTH,ComponentDrill
T5C0.0433
; #@! TA.AperFunction,Plated,PTH,ComponentDrill
T6C0.0630
; #@! TA.AperFunction,Plated,PTH,ComponentDrill
T7C0.1000
; #@! TA.AperFunction,Plated,PTH,ViaDrill
T8C0.1969
%
G90
G05
T1
X2.7362Y-2.2244
X2.7362Y-2.3425
T2
X2.2319Y-2.2638
X2.5319Y-2.2638
T3
X1.7717Y-2.6181
X1.7717Y-2.9134
X2.0472Y-2.6181
X2.0472Y-2.9134
X3.7992Y-2.6181
X3.7992Y-2.9134
X4.0748Y-2.6181
X4.0748Y-2.9134
T4
X2.248Y-2.8248
X2.3189Y-2.5295
X2.4646Y-2.8248
X2.5354Y-2.5295
T5
X2.6909Y-2.7598
X2.8681Y-4.626
X3.5768Y-2.7598
X3.7539Y-4.626
T6
X2.1063Y-4.5276
X2.1063Y-4.6276
X2.1063Y-4.7276
X2.3063Y-4.5276
X2.3063Y-4.6276
X2.3063Y-4.7276
X2.5Y-4.5276
X2.5Y-4.6276
X2.5Y-4.7276
X2.7Y-4.5276
X2.7Y-4.6276
X2.7Y-4.7276
X2.9693Y-2.2244
X2.9693Y-2.3244
X2.9693Y-2.4244
X3.1693Y-2.2244
X3.1693Y-2.3244
X3.1693Y-2.4244
X3.3646Y-2.2228
X3.3646Y-2.3228
X3.3646Y-2.4228
X3.5646Y-2.2228
X3.5646Y-2.3228
X3.5646Y-2.4228
T7
X2.1417Y-3.253
X2.1417Y-4.1388
X2.3386Y-3.253
X2.3386Y-4.1388
X3.5197Y-3.253
X3.5197Y-4.1388
X3.7165Y-3.253
X3.7165Y-4.1388
T8
X1.811Y-2.3228
X1.811Y-4.626
X4.0354Y-2.3228
X4.0354Y-4.626
M30
