%TF.GenerationSoftware,KiCad,Pcbnew,8.0.1*%
%TF.CreationDate,2024-06-27T13:16:47-04:00*%
%TF.ProjectId,booster-emi-filter,626f6f73-7465-4722-9d65-6d692d66696c,rev?*%
%TF.SameCoordinates,Original*%
%TF.FileFunction,Soldermask,Top*%
%TF.FilePolarity,Negative*%
%FSLAX46Y46*%
G04 Gerber Fmt 4.6, Leading zero omitted, Abs format (unit mm)*
G04 Created by KiCad (PCBNEW 8.0.1) date 2024-06-27 13:16:47*
%MOMM*%
%LPD*%
G01*
G04 APERTURE LIST*
G04 Aperture macros list*
%AMRoundRect*
0 Rectangle with rounded corners*
0 $1 Rounding radius*
0 $2 $3 $4 $5 $6 $7 $8 $9 X,Y pos of 4 corners*
0 Add a 4 corners polygon primitive as box body*
4,1,4,$2,$3,$4,$5,$6,$7,$8,$9,$2,$3,0*
0 Add four circle primitives for the rounded corners*
1,1,$1+$1,$2,$3*
1,1,$1+$1,$4,$5*
1,1,$1+$1,$6,$7*
1,1,$1+$1,$8,$9*
0 Add four rect primitives between the rounded corners*
20,1,$1+$1,$2,$3,$4,$5,0*
20,1,$1+$1,$4,$5,$6,$7,0*
20,1,$1+$1,$6,$7,$8,$9,0*
20,1,$1+$1,$8,$9,$2,$3,0*%
G04 Aperture macros list end*
%ADD10C,5.050000*%
%ADD11RoundRect,0.102000X-1.778000X-1.778000X1.778000X-1.778000X1.778000X1.778000X-1.778000X1.778000X0*%
%ADD12C,3.760000*%
%ADD13C,1.600000*%
%ADD14O,1.600000X1.600000*%
%ADD15C,1.000000*%
%ADD16R,1.500000X1.500000*%
%ADD17C,1.500000*%
%ADD18C,2.300000*%
%ADD19C,1.381000*%
%ADD20C,2.000000*%
G04 APERTURE END LIST*
D10*
X105025000Y-59000000D02*
G75*
G02*
X99975000Y-59000000I-2525000J0D01*
G01*
X99975000Y-59000000D02*
G75*
G02*
X105025000Y-59000000I2525000J0D01*
G01*
X48525000Y-59000000D02*
G75*
G02*
X43475000Y-59000000I-2525000J0D01*
G01*
X43475000Y-59000000D02*
G75*
G02*
X48525000Y-59000000I2525000J0D01*
G01*
X48525000Y-117500000D02*
G75*
G02*
X43475000Y-117500000I-2525000J0D01*
G01*
X43475000Y-117500000D02*
G75*
G02*
X48525000Y-117500000I2525000J0D01*
G01*
X105025000Y-117500000D02*
G75*
G02*
X99975000Y-117500000I-2525000J0D01*
G01*
X99975000Y-117500000D02*
G75*
G02*
X105025000Y-117500000I2525000J0D01*
G01*
D11*
%TO.C,L1*%
X54400000Y-105125000D03*
D12*
X59400000Y-105125000D03*
X89400000Y-105125000D03*
X94400000Y-105125000D03*
X94400000Y-82625000D03*
X89400000Y-82625000D03*
X59400000Y-82625000D03*
X54400000Y-82625000D03*
%TD*%
D13*
%TO.C,R4*%
X56690000Y-57500000D03*
D14*
X64310000Y-57500000D03*
%TD*%
D15*
%TO.C,NE1*%
X69500000Y-59500000D03*
X69500000Y-56500000D03*
%TD*%
D16*
%TO.C,RV2*%
X57100000Y-71750000D03*
D17*
X58900000Y-64250000D03*
%TD*%
D16*
%TO.C,RV1*%
X62600000Y-71750000D03*
D17*
X64400000Y-64250000D03*
%TD*%
D18*
%TO.C,J5*%
X85460000Y-56460000D03*
X85460000Y-59000000D03*
X85460000Y-61540000D03*
X90540000Y-61540000D03*
X90540000Y-59000000D03*
X90540000Y-56460000D03*
%TD*%
%TO.C,J4*%
X75420000Y-56500000D03*
X75420000Y-59040000D03*
X75420000Y-61580000D03*
X80500000Y-61580000D03*
X80500000Y-59040000D03*
X80500000Y-56500000D03*
%TD*%
%TO.C,J2*%
X63500000Y-115000000D03*
X63500000Y-117540000D03*
X63500000Y-120080000D03*
X68580000Y-120080000D03*
X68580000Y-117540000D03*
X68580000Y-115000000D03*
%TD*%
%TO.C,J1*%
X53500000Y-115000000D03*
X53500000Y-117540000D03*
X53500000Y-120080000D03*
X58580000Y-120080000D03*
X58580000Y-117540000D03*
X58580000Y-115000000D03*
%TD*%
D19*
%TO.C,C8*%
X96500000Y-74000000D03*
X96500000Y-66500000D03*
%TD*%
%TO.C,C7*%
X52000000Y-66500000D03*
X52000000Y-74000000D03*
%TD*%
%TO.C,C5*%
X103500000Y-74000000D03*
X103500000Y-66500000D03*
%TD*%
%TO.C,C4*%
X45000000Y-66500000D03*
X45000000Y-74000000D03*
%TD*%
D20*
%TO.C,C3*%
X68350000Y-70100000D03*
X90850000Y-70100000D03*
%TD*%
%TO.C,C2*%
X95350000Y-117500000D03*
X72850000Y-117500000D03*
%TD*%
M02*
