%TF.GenerationSoftware,KiCad,Pcbnew,8.0.1*%
%TF.CreationDate,2024-06-30T23:47:39-04:00*%
%TF.ProjectId,booster-tc,626f6f73-7465-4722-9d74-632e6b696361,rev?*%
%TF.SameCoordinates,Original*%
%TF.FileFunction,Paste,Top*%
%TF.FilePolarity,Positive*%
%FSLAX46Y46*%
G04 Gerber Fmt 4.6, Leading zero omitted, Abs format (unit mm)*
G04 Created by KiCad (PCBNEW 8.0.1) date 2024-06-30 23:47:39*
%MOMM*%
%LPD*%
G01*
G04 APERTURE LIST*
G04 Aperture macros list*
%AMRoundRect*
0 Rectangle with rounded corners*
0 $1 Rounding radius*
0 $2 $3 $4 $5 $6 $7 $8 $9 X,Y pos of 4 corners*
0 Add a 4 corners polygon primitive as box body*
4,1,4,$2,$3,$4,$5,$6,$7,$8,$9,$2,$3,0*
0 Add four circle primitives for the rounded corners*
1,1,$1+$1,$2,$3*
1,1,$1+$1,$4,$5*
1,1,$1+$1,$6,$7*
1,1,$1+$1,$8,$9*
0 Add four rect primitives between the rounded corners*
20,1,$1+$1,$2,$3,$4,$5,0*
20,1,$1+$1,$4,$5,$6,$7,0*
20,1,$1+$1,$6,$7,$8,$9,0*
20,1,$1+$1,$8,$9,$2,$3,0*%
G04 Aperture macros list end*
%ADD10RoundRect,0.250000X0.350000X0.450000X-0.350000X0.450000X-0.350000X-0.450000X0.350000X-0.450000X0*%
%ADD11RoundRect,0.250000X0.650000X-0.412500X0.650000X0.412500X-0.650000X0.412500X-0.650000X-0.412500X0*%
%ADD12RoundRect,0.250000X-1.100000X0.412500X-1.100000X-0.412500X1.100000X-0.412500X1.100000X0.412500X0*%
%ADD13RoundRect,0.250000X0.450000X-0.350000X0.450000X0.350000X-0.450000X0.350000X-0.450000X-0.350000X0*%
%ADD14RoundRect,0.250000X1.450000X-0.537500X1.450000X0.537500X-1.450000X0.537500X-1.450000X-0.537500X0*%
%ADD15RoundRect,0.250000X-0.650000X0.412500X-0.650000X-0.412500X0.650000X-0.412500X0.650000X0.412500X0*%
%ADD16R,0.900000X0.950000*%
%ADD17RoundRect,0.250000X-0.537500X-1.450000X0.537500X-1.450000X0.537500X1.450000X-0.537500X1.450000X0*%
%ADD18RoundRect,0.250000X-0.350000X-0.450000X0.350000X-0.450000X0.350000X0.450000X-0.350000X0.450000X0*%
%ADD19R,0.650000X1.525000*%
%ADD20RoundRect,0.250000X0.400000X0.625000X-0.400000X0.625000X-0.400000X-0.625000X0.400000X-0.625000X0*%
%ADD21RoundRect,0.150000X0.150000X-0.825000X0.150000X0.825000X-0.150000X0.825000X-0.150000X-0.825000X0*%
%ADD22RoundRect,0.250000X-0.625000X0.400000X-0.625000X-0.400000X0.625000X-0.400000X0.625000X0.400000X0*%
%ADD23RoundRect,0.250000X-0.412500X-0.650000X0.412500X-0.650000X0.412500X0.650000X-0.412500X0.650000X0*%
%ADD24R,1.550000X2.350000*%
%ADD25R,0.950000X0.900000*%
%ADD26R,0.900000X1.800000*%
%ADD27RoundRect,0.250000X-0.412500X-1.100000X0.412500X-1.100000X0.412500X1.100000X-0.412500X1.100000X0*%
%ADD28RoundRect,0.250000X-0.625000X0.312500X-0.625000X-0.312500X0.625000X-0.312500X0.625000X0.312500X0*%
%ADD29RoundRect,0.250000X0.412500X0.650000X-0.412500X0.650000X-0.412500X-0.650000X0.412500X-0.650000X0*%
%ADD30RoundRect,0.250000X-0.400000X-0.625000X0.400000X-0.625000X0.400000X0.625000X-0.400000X0.625000X0*%
%ADD31RoundRect,0.150000X0.825000X0.150000X-0.825000X0.150000X-0.825000X-0.150000X0.825000X-0.150000X0*%
%ADD32R,1.000000X0.600000*%
%ADD33RoundRect,0.250000X1.100000X-0.412500X1.100000X0.412500X-1.100000X0.412500X-1.100000X-0.412500X0*%
G04 APERTURE END LIST*
D10*
%TO.C,R8*%
X130000000Y-84500000D03*
X128000000Y-84500000D03*
%TD*%
D11*
%TO.C,C20*%
X128500000Y-103062500D03*
X128500000Y-99937500D03*
%TD*%
D12*
%TO.C,R5*%
X190000000Y-111937500D03*
X190000000Y-115062500D03*
%TD*%
D11*
%TO.C,C16*%
X142505250Y-95062500D03*
X142505250Y-91937500D03*
%TD*%
D13*
%TO.C,R12*%
X143000000Y-101500000D03*
X143000000Y-99500000D03*
%TD*%
D14*
%TO.C,C3*%
X128500000Y-71637500D03*
X128500000Y-67362500D03*
%TD*%
D15*
%TO.C,C4*%
X141000000Y-79437500D03*
X141000000Y-82562500D03*
%TD*%
D16*
%TO.C,D6*%
X138925000Y-55500000D03*
X142075000Y-55500000D03*
%TD*%
D17*
%TO.C,C7*%
X194362500Y-99500000D03*
X198637500Y-99500000D03*
%TD*%
D15*
%TO.C,C18*%
X147500000Y-99437500D03*
X147500000Y-102562500D03*
%TD*%
%TO.C,C22*%
X142000000Y-86937500D03*
X142000000Y-90062500D03*
%TD*%
D11*
%TO.C,C19*%
X140500000Y-103062500D03*
X140500000Y-99937500D03*
%TD*%
D17*
%TO.C,C5*%
X194225000Y-94000000D03*
X198500000Y-94000000D03*
%TD*%
D18*
%TO.C,R7*%
X144000000Y-87500000D03*
X146000000Y-87500000D03*
%TD*%
D19*
%TO.C,IC1*%
X128100250Y-97712000D03*
X129370250Y-97712000D03*
X130640250Y-97712000D03*
X131910250Y-97712000D03*
X131910250Y-92288000D03*
X130640250Y-92288000D03*
X129370250Y-92288000D03*
X128100250Y-92288000D03*
%TD*%
D11*
%TO.C,C17*%
X140005250Y-95062500D03*
X140005250Y-91937500D03*
%TD*%
D20*
%TO.C,R10*%
X153050000Y-99500000D03*
X149950000Y-99500000D03*
%TD*%
D21*
%TO.C,U4*%
X134100250Y-97475000D03*
X135370250Y-97475000D03*
X136640250Y-97475000D03*
X137910250Y-97475000D03*
X137910250Y-92525000D03*
X136640250Y-92525000D03*
X135370250Y-92525000D03*
X134100250Y-92525000D03*
%TD*%
D22*
%TO.C,R16*%
X139500000Y-85950000D03*
X139500000Y-89050000D03*
%TD*%
D15*
%TO.C,C21*%
X137000000Y-85937500D03*
X137000000Y-89062500D03*
%TD*%
D23*
%TO.C,C14*%
X134937500Y-100000000D03*
X138062500Y-100000000D03*
%TD*%
D15*
%TO.C,C11*%
X132500000Y-106937500D03*
X132500000Y-110062500D03*
%TD*%
D20*
%TO.C,R11*%
X153050000Y-103500000D03*
X149950000Y-103500000D03*
%TD*%
D24*
%TO.C,Z1*%
X146500000Y-78850000D03*
X146500000Y-83150000D03*
%TD*%
D22*
%TO.C,R17*%
X134500000Y-85950000D03*
X134500000Y-89050000D03*
%TD*%
D18*
%TO.C,R14*%
X135500000Y-103500000D03*
X137500000Y-103500000D03*
%TD*%
D13*
%TO.C,R15*%
X131000000Y-103500000D03*
X131000000Y-101500000D03*
%TD*%
D25*
%TO.C,D8*%
X143500000Y-82575000D03*
X143500000Y-79425000D03*
%TD*%
D23*
%TO.C,C15*%
X139942750Y-97500000D03*
X143067750Y-97500000D03*
%TD*%
D26*
%TO.C,T1*%
X141460000Y-71900000D03*
X144000000Y-71900000D03*
X146540000Y-71900000D03*
X146540000Y-60100000D03*
X144000000Y-60100000D03*
X141460000Y-60100000D03*
%TD*%
D27*
%TO.C,R2*%
X145437500Y-75500000D03*
X148562500Y-75500000D03*
%TD*%
D28*
%TO.C,R1*%
X138500000Y-79037500D03*
X138500000Y-81962500D03*
%TD*%
D27*
%TO.C,R3*%
X145937500Y-56500000D03*
X149062500Y-56500000D03*
%TD*%
D29*
%TO.C,C23*%
X131562500Y-87000000D03*
X128437500Y-87000000D03*
%TD*%
D18*
%TO.C,R19*%
X144000000Y-89500000D03*
X146000000Y-89500000D03*
%TD*%
D30*
%TO.C,R6*%
X136450000Y-77000000D03*
X139550000Y-77000000D03*
%TD*%
D31*
%TO.C,U2*%
X197975000Y-115405000D03*
X197975000Y-114135000D03*
X197975000Y-112865000D03*
X197975000Y-111595000D03*
X193025000Y-111595000D03*
X193025000Y-112865000D03*
X193025000Y-114135000D03*
X193025000Y-115405000D03*
%TD*%
D32*
%TO.C,Q2*%
X141300000Y-74545000D03*
X141300000Y-76455000D03*
X143700000Y-75500000D03*
%TD*%
D33*
%TO.C,R4*%
X128500000Y-77062500D03*
X128500000Y-73937500D03*
%TD*%
D13*
%TO.C,R13*%
X145000000Y-101500000D03*
X145000000Y-99500000D03*
%TD*%
D10*
%TO.C,R9*%
X131000000Y-89500000D03*
X129000000Y-89500000D03*
%TD*%
M02*
