%TF.GenerationSoftware,KiCad,Pcbnew,8.0.1*%
%TF.CreationDate,2024-06-30T23:47:39-04:00*%
%TF.ProjectId,booster-tc,626f6f73-7465-4722-9d74-632e6b696361,rev?*%
%TF.SameCoordinates,Original*%
%TF.FileFunction,Copper,L1,Top*%
%TF.FilePolarity,Positive*%
%FSLAX46Y46*%
G04 Gerber Fmt 4.6, Leading zero omitted, Abs format (unit mm)*
G04 Created by KiCad (PCBNEW 8.0.1) date 2024-06-30 23:47:39*
%MOMM*%
%LPD*%
G01*
G04 APERTURE LIST*
G04 Aperture macros list*
%AMRoundRect*
0 Rectangle with rounded corners*
0 $1 Rounding radius*
0 $2 $3 $4 $5 $6 $7 $8 $9 X,Y pos of 4 corners*
0 Add a 4 corners polygon primitive as box body*
4,1,4,$2,$3,$4,$5,$6,$7,$8,$9,$2,$3,0*
0 Add four circle primitives for the rounded corners*
1,1,$1+$1,$2,$3*
1,1,$1+$1,$4,$5*
1,1,$1+$1,$6,$7*
1,1,$1+$1,$8,$9*
0 Add four rect primitives between the rounded corners*
20,1,$1+$1,$2,$3,$4,$5,0*
20,1,$1+$1,$4,$5,$6,$7,0*
20,1,$1+$1,$6,$7,$8,$9,0*
20,1,$1+$1,$8,$9,$2,$3,0*%
G04 Aperture macros list end*
%TA.AperFunction,SMDPad,CuDef*%
%ADD10RoundRect,0.250000X0.350000X0.450000X-0.350000X0.450000X-0.350000X-0.450000X0.350000X-0.450000X0*%
%TD*%
%TA.AperFunction,ComponentPad*%
%ADD11R,4.500000X2.500000*%
%TD*%
%TA.AperFunction,ComponentPad*%
%ADD12O,4.500000X2.500000*%
%TD*%
%TA.AperFunction,SMDPad,CuDef*%
%ADD13RoundRect,0.250000X0.650000X-0.412500X0.650000X0.412500X-0.650000X0.412500X-0.650000X-0.412500X0*%
%TD*%
%TA.AperFunction,SMDPad,CuDef*%
%ADD14RoundRect,0.250000X-1.100000X0.412500X-1.100000X-0.412500X1.100000X-0.412500X1.100000X0.412500X0*%
%TD*%
%TA.AperFunction,ComponentPad*%
%ADD15R,1.500000X1.500000*%
%TD*%
%TA.AperFunction,ComponentPad*%
%ADD16C,1.500000*%
%TD*%
%TA.AperFunction,SMDPad,CuDef*%
%ADD17RoundRect,0.250000X0.450000X-0.350000X0.450000X0.350000X-0.450000X0.350000X-0.450000X-0.350000X0*%
%TD*%
%TA.AperFunction,SMDPad,CuDef*%
%ADD18RoundRect,0.250000X1.450000X-0.537500X1.450000X0.537500X-1.450000X0.537500X-1.450000X-0.537500X0*%
%TD*%
%TA.AperFunction,SMDPad,CuDef*%
%ADD19RoundRect,0.250000X-0.650000X0.412500X-0.650000X-0.412500X0.650000X-0.412500X0.650000X0.412500X0*%
%TD*%
%TA.AperFunction,SMDPad,CuDef*%
%ADD20R,0.900000X0.950000*%
%TD*%
%TA.AperFunction,ComponentPad*%
%ADD21R,1.100000X1.100000*%
%TD*%
%TA.AperFunction,ComponentPad*%
%ADD22C,1.100000*%
%TD*%
%TA.AperFunction,SMDPad,CuDef*%
%ADD23RoundRect,0.250000X-0.537500X-1.450000X0.537500X-1.450000X0.537500X1.450000X-0.537500X1.450000X0*%
%TD*%
%TA.AperFunction,ComponentPad*%
%ADD24C,2.300000*%
%TD*%
%TA.AperFunction,ComponentPad*%
%ADD25C,1.612000*%
%TD*%
%TA.AperFunction,SMDPad,CuDef*%
%ADD26RoundRect,0.250000X-0.350000X-0.450000X0.350000X-0.450000X0.350000X0.450000X-0.350000X0.450000X0*%
%TD*%
%TA.AperFunction,SMDPad,CuDef*%
%ADD27R,0.650000X1.525000*%
%TD*%
%TA.AperFunction,SMDPad,CuDef*%
%ADD28RoundRect,0.250000X0.400000X0.625000X-0.400000X0.625000X-0.400000X-0.625000X0.400000X-0.625000X0*%
%TD*%
%TA.AperFunction,SMDPad,CuDef*%
%ADD29RoundRect,0.150000X0.150000X-0.825000X0.150000X0.825000X-0.150000X0.825000X-0.150000X-0.825000X0*%
%TD*%
%TA.AperFunction,SMDPad,CuDef*%
%ADD30RoundRect,0.250000X-0.625000X0.400000X-0.625000X-0.400000X0.625000X-0.400000X0.625000X0.400000X0*%
%TD*%
%TA.AperFunction,SMDPad,CuDef*%
%ADD31RoundRect,0.250000X-0.412500X-0.650000X0.412500X-0.650000X0.412500X0.650000X-0.412500X0.650000X0*%
%TD*%
%TA.AperFunction,ComponentPad*%
%ADD32C,0.500000*%
%TD*%
%TA.AperFunction,ComponentPad*%
%ADD33R,6.000000X9.000000*%
%TD*%
%TA.AperFunction,SMDPad,CuDef*%
%ADD34R,1.550000X2.350000*%
%TD*%
%TA.AperFunction,SMDPad,CuDef*%
%ADD35R,0.950000X0.900000*%
%TD*%
%TA.AperFunction,SMDPad,CuDef*%
%ADD36R,0.900000X1.800000*%
%TD*%
%TA.AperFunction,SMDPad,CuDef*%
%ADD37RoundRect,0.250000X-0.412500X-1.100000X0.412500X-1.100000X0.412500X1.100000X-0.412500X1.100000X0*%
%TD*%
%TA.AperFunction,SMDPad,CuDef*%
%ADD38RoundRect,0.250000X-0.625000X0.312500X-0.625000X-0.312500X0.625000X-0.312500X0.625000X0.312500X0*%
%TD*%
%TA.AperFunction,SMDPad,CuDef*%
%ADD39RoundRect,0.250000X0.412500X0.650000X-0.412500X0.650000X-0.412500X-0.650000X0.412500X-0.650000X0*%
%TD*%
%TA.AperFunction,SMDPad,CuDef*%
%ADD40RoundRect,0.250000X-0.400000X-0.625000X0.400000X-0.625000X0.400000X0.625000X-0.400000X0.625000X0*%
%TD*%
%TA.AperFunction,SMDPad,CuDef*%
%ADD41RoundRect,0.150000X0.825000X0.150000X-0.825000X0.150000X-0.825000X-0.150000X0.825000X-0.150000X0*%
%TD*%
%TA.AperFunction,SMDPad,CuDef*%
%ADD42R,1.000000X0.600000*%
%TD*%
%TA.AperFunction,SMDPad,CuDef*%
%ADD43RoundRect,0.250000X1.100000X-0.412500X1.100000X0.412500X-1.100000X0.412500X-1.100000X-0.412500X0*%
%TD*%
%TA.AperFunction,ComponentPad*%
%ADD44R,1.240000X1.240000*%
%TD*%
%TA.AperFunction,ComponentPad*%
%ADD45C,1.240000*%
%TD*%
%TA.AperFunction,ViaPad*%
%ADD46C,0.600000*%
%TD*%
%TA.AperFunction,Conductor*%
%ADD47C,0.400000*%
%TD*%
%TA.AperFunction,Conductor*%
%ADD48C,0.200000*%
%TD*%
G04 APERTURE END LIST*
D10*
%TO.P,R8,1*%
%TO.N,Net-(IC1-INB-)*%
X130000000Y-84500000D03*
%TO.P,R8,2*%
%TO.N,GND*%
X128000000Y-84500000D03*
%TD*%
D11*
%TO.P,D5,1,A*%
%TO.N,Net-(Q1-C)*%
X152890000Y-124450000D03*
D12*
%TO.P,D5,2,K*%
%TO.N,/Vout+*%
X152890000Y-119000000D03*
%TO.P,D5,3,A*%
%TO.N,Net-(Q1-C)*%
X152890000Y-113550000D03*
%TD*%
D13*
%TO.P,C20,1*%
%TO.N,Net-(IC1-INA-)*%
X128500000Y-103062500D03*
%TO.P,C20,2*%
%TO.N,/VBUS_SENSE*%
X128500000Y-99937500D03*
%TD*%
D14*
%TO.P,R5,1*%
%TO.N,Net-(U2-GON)*%
X190000000Y-111937500D03*
%TO.P,R5,2*%
%TO.N,Net-(Q1-G)*%
X190000000Y-115062500D03*
%TD*%
D13*
%TO.P,C16,1*%
%TO.N,GND*%
X142505250Y-95062500D03*
%TO.P,C16,2*%
%TO.N,-5V*%
X142505250Y-91937500D03*
%TD*%
D15*
%TO.P,C12,1*%
%TO.N,/Vout+*%
X150825000Y-130500000D03*
D16*
%TO.P,C12,2*%
%TO.N,/Vout-*%
X135825000Y-130500000D03*
%TD*%
D17*
%TO.P,R12,1*%
%TO.N,Net-(IC1-INA+)*%
X143000000Y-101500000D03*
%TO.P,R12,2*%
%TO.N,GND*%
X143000000Y-99500000D03*
%TD*%
D18*
%TO.P,C3,1*%
%TO.N,Net-(C2-+)*%
X128500000Y-71637500D03*
%TO.P,C3,2*%
%TO.N,GND*%
X128500000Y-67362500D03*
%TD*%
D19*
%TO.P,C4,1*%
%TO.N,Net-(Q2-G)*%
X141000000Y-79437500D03*
%TO.P,C4,2*%
%TO.N,GND*%
X141000000Y-82562500D03*
%TD*%
D20*
%TO.P,D6,A*%
%TO.N,Net-(T1-SEC_3)*%
X138925000Y-55500000D03*
%TO.P,D6,K*%
%TO.N,Net-(D6-PadK)*%
X142075000Y-55500000D03*
%TD*%
D21*
%TO.P,C1,1,+*%
%TO.N,+5V*%
X136250000Y-109000000D03*
D22*
%TO.P,C1,2,-*%
%TO.N,GND*%
X139750000Y-109000000D03*
%TD*%
D23*
%TO.P,C7,1*%
%TO.N,Net-(C6-+)*%
X194362500Y-99500000D03*
%TO.P,C7,2*%
%TO.N,Net-(C6--)*%
X198637500Y-99500000D03*
%TD*%
D24*
%TO.P,J6,1,1*%
%TO.N,/L+*%
X166000000Y-80500000D03*
%TO.P,J6,2,2*%
X166000000Y-83040000D03*
%TO.P,J6,3,3*%
X166000000Y-85580000D03*
%TO.P,J6,4,4*%
X171080000Y-85580000D03*
%TO.P,J6,5,5*%
X171080000Y-83040000D03*
%TO.P,J6,6,6*%
X171080000Y-80500000D03*
%TD*%
D11*
%TO.P,D4,1,K*%
%TO.N,/L+*%
X152890000Y-86450000D03*
D12*
%TO.P,D4,2,A*%
%TO.N,/AC2*%
X152890000Y-81000000D03*
%TO.P,D4,3,G*%
%TO.N,Net-(D4-G)*%
X152890000Y-75550000D03*
%TD*%
D11*
%TO.P,D2,1,K*%
%TO.N,/AC2*%
X183610000Y-75550000D03*
D12*
%TO.P,D2,2,A*%
%TO.N,/Vout-*%
X183610000Y-86450000D03*
%TD*%
D19*
%TO.P,C18,1*%
%TO.N,Net-(IC1-INA+)*%
X147500000Y-99437500D03*
%TO.P,C18,2*%
%TO.N,Net-(IC1-INA-)*%
X147500000Y-102562500D03*
%TD*%
%TO.P,C22,1*%
%TO.N,Net-(IC1-INB+)*%
X142000000Y-86937500D03*
%TO.P,C22,2*%
%TO.N,GND*%
X142000000Y-90062500D03*
%TD*%
D13*
%TO.P,C19,1*%
%TO.N,Net-(IC1-INA+)*%
X140500000Y-103062500D03*
%TO.P,C19,2*%
%TO.N,GND*%
X140500000Y-99937500D03*
%TD*%
D25*
%TO.P,PS1,1,+VIN*%
%TO.N,+24V*%
X208000000Y-92260000D03*
%TO.P,PS1,2,-VIN*%
%TO.N,GND*%
X208000000Y-94800000D03*
%TO.P,PS1,5,-VOUT*%
%TO.N,Net-(C6--)*%
X208000000Y-102420000D03*
%TO.P,PS1,6,OV*%
%TO.N,/Vout-*%
X208000000Y-104960000D03*
%TO.P,PS1,7,+VOUT*%
%TO.N,Net-(C6-+)*%
X208000000Y-107500000D03*
%TD*%
D23*
%TO.P,C5,1*%
%TO.N,GND*%
X194225000Y-94000000D03*
%TO.P,C5,2*%
%TO.N,+5V*%
X198500000Y-94000000D03*
%TD*%
D26*
%TO.P,R7,1*%
%TO.N,Net-(IC1-INB+)*%
X144000000Y-87500000D03*
%TO.P,R7,2*%
%TO.N,GND*%
X146000000Y-87500000D03*
%TD*%
D27*
%TO.P,IC1,1,OUTA*%
%TO.N,/VBUS_SENSE*%
X128100250Y-97712000D03*
%TO.P,IC1,2,INA-*%
%TO.N,Net-(IC1-INA-)*%
X129370250Y-97712000D03*
%TO.P,IC1,3,INA+*%
%TO.N,Net-(IC1-INA+)*%
X130640250Y-97712000D03*
%TO.P,IC1,4,VEE*%
%TO.N,-5V*%
X131910250Y-97712000D03*
%TO.P,IC1,5,INB+*%
%TO.N,Net-(IC1-INB+)*%
X131910250Y-92288000D03*
%TO.P,IC1,6,INB-*%
%TO.N,Net-(IC1-INB-)*%
X130640250Y-92288000D03*
%TO.P,IC1,7,OUTB*%
%TO.N,/VAC_SENSE*%
X129370250Y-92288000D03*
%TO.P,IC1,8,VCC*%
%TO.N,+5V*%
X128100250Y-92288000D03*
%TD*%
D13*
%TO.P,C17,1*%
%TO.N,+5V*%
X140005250Y-95062500D03*
%TO.P,C17,2*%
%TO.N,-5V*%
X140005250Y-91937500D03*
%TD*%
D24*
%TO.P,J5,1,1*%
%TO.N,/Vout-*%
X173500000Y-124500000D03*
%TO.P,J5,2,2*%
X173500000Y-127040000D03*
%TO.P,J5,3,3*%
X173500000Y-129580000D03*
%TO.P,J5,4,4*%
X178580000Y-129580000D03*
%TO.P,J5,5,5*%
X178580000Y-127040000D03*
%TO.P,J5,6,6*%
X178580000Y-124500000D03*
%TD*%
D11*
%TO.P,D1,1,K*%
%TO.N,/AC1*%
X183610000Y-56550000D03*
D12*
%TO.P,D1,2,A*%
%TO.N,/Vout-*%
X183610000Y-67450000D03*
%TD*%
D28*
%TO.P,R10,1*%
%TO.N,/Vout+*%
X153050000Y-99500000D03*
%TO.P,R10,2*%
%TO.N,Net-(IC1-INA+)*%
X149950000Y-99500000D03*
%TD*%
D21*
%TO.P,C2,1,+*%
%TO.N,Net-(C2-+)*%
X133250000Y-71500000D03*
D22*
%TO.P,C2,2,-*%
%TO.N,GND*%
X136750000Y-71500000D03*
%TD*%
D29*
%TO.P,U4,1,BOOST*%
%TO.N,+5V*%
X134100250Y-97475000D03*
%TO.P,U4,2,CAP+*%
%TO.N,Net-(U4-CAP+)*%
X135370250Y-97475000D03*
%TO.P,U4,3,GND*%
%TO.N,GND*%
X136640250Y-97475000D03*
%TO.P,U4,4,CAP-*%
%TO.N,Net-(U4-CAP-)*%
X137910250Y-97475000D03*
%TO.P,U4,5,VOUT*%
%TO.N,-5V*%
X137910250Y-92525000D03*
%TO.P,U4,6,LV*%
%TO.N,unconnected-(U4-LV-Pad6)*%
X136640250Y-92525000D03*
%TO.P,U4,7,OSC*%
%TO.N,unconnected-(U4-OSC-Pad7)*%
X135370250Y-92525000D03*
%TO.P,U4,8,V+*%
%TO.N,+5V*%
X134100250Y-92525000D03*
%TD*%
D24*
%TO.P,J7,1,1*%
%TO.N,/Vout+*%
X160920000Y-119000000D03*
%TO.P,J7,2,2*%
X160920000Y-121540000D03*
%TO.P,J7,3,3*%
X160920000Y-124080000D03*
%TO.P,J7,4,4*%
X166000000Y-124080000D03*
%TO.P,J7,5,5*%
X166000000Y-121540000D03*
%TO.P,J7,6,6*%
X166000000Y-119000000D03*
%TD*%
D15*
%TO.P,C10,1*%
%TO.N,/Vout+*%
X154175000Y-130500000D03*
D16*
%TO.P,C10,2*%
%TO.N,/Vout-*%
X169175000Y-130500000D03*
%TD*%
D21*
%TO.P,C6,1,+*%
%TO.N,Net-(C6-+)*%
X194750000Y-106250000D03*
D22*
%TO.P,C6,2,-*%
%TO.N,Net-(C6--)*%
X198250000Y-106250000D03*
%TD*%
D30*
%TO.P,R16,1*%
%TO.N,/AC2*%
X139500000Y-85950000D03*
%TO.P,R16,2*%
%TO.N,Net-(IC1-INB+)*%
X139500000Y-89050000D03*
%TD*%
D19*
%TO.P,C21,1*%
%TO.N,Net-(IC1-INB+)*%
X137000000Y-85937500D03*
%TO.P,C21,2*%
%TO.N,Net-(IC1-INB-)*%
X137000000Y-89062500D03*
%TD*%
D31*
%TO.P,C14,1*%
%TO.N,Net-(U4-CAP+)*%
X134937500Y-100000000D03*
%TO.P,C14,2*%
%TO.N,Net-(U4-CAP-)*%
X138062500Y-100000000D03*
%TD*%
D15*
%TO.P,U1,1,VCC*%
%TO.N,+5V*%
X191325000Y-101910000D03*
D16*
%TO.P,U1,2,GND*%
%TO.N,GND*%
X191325000Y-100000000D03*
%TO.P,U1,3,VIOUT*%
%TO.N,/I_L*%
X191325000Y-98090000D03*
D32*
%TO.P,U1,4,IP+*%
%TO.N,/L-*%
X169925000Y-98750000D03*
X167925000Y-97600000D03*
X171925000Y-97600000D03*
X167925000Y-96300000D03*
X171925000Y-96300000D03*
X167925000Y-95000000D03*
D33*
X169925000Y-95000000D03*
D32*
X171925000Y-95000000D03*
X167925000Y-93700000D03*
X171925000Y-93700000D03*
X167925000Y-92400000D03*
X171925000Y-92400000D03*
X169925000Y-91250000D03*
%TO.P,U1,5,IP-*%
%TO.N,Net-(Q1-C)*%
X169925000Y-108750000D03*
X167925000Y-107600000D03*
X171925000Y-107600000D03*
X167925000Y-106300000D03*
X171925000Y-106300000D03*
X167925000Y-105000000D03*
D33*
X169925000Y-105000000D03*
D32*
X171925000Y-105000000D03*
X167925000Y-103700000D03*
X171925000Y-103700000D03*
X167925000Y-102400000D03*
X171925000Y-102400000D03*
X169925000Y-101250000D03*
%TD*%
D11*
%TO.P,Q1,1,G*%
%TO.N,Net-(Q1-G)*%
X183610000Y-113550000D03*
D12*
%TO.P,Q1,2,C*%
%TO.N,Net-(Q1-C)*%
X183610000Y-119000000D03*
%TO.P,Q1,3,E*%
%TO.N,/Vout-*%
X183610000Y-124450000D03*
%TD*%
D24*
%TO.P,J8,1,1*%
%TO.N,/L-*%
X157960000Y-92460000D03*
%TO.P,J8,2,2*%
X157960000Y-95000000D03*
%TO.P,J8,3,3*%
X157960000Y-97540000D03*
%TO.P,J8,4,4*%
X163040000Y-97540000D03*
%TO.P,J8,5,5*%
X163040000Y-95000000D03*
%TO.P,J8,6,6*%
X163040000Y-92460000D03*
%TD*%
D19*
%TO.P,C11,1*%
%TO.N,+5V*%
X132500000Y-106937500D03*
%TO.P,C11,2*%
%TO.N,GND*%
X132500000Y-110062500D03*
%TD*%
D28*
%TO.P,R11,1*%
%TO.N,/Vout-*%
X153050000Y-103500000D03*
%TO.P,R11,2*%
%TO.N,Net-(IC1-INA-)*%
X149950000Y-103500000D03*
%TD*%
D24*
%TO.P,J1,1,1*%
%TO.N,/AC2*%
X166000000Y-69500000D03*
%TO.P,J1,2,2*%
X166000000Y-72040000D03*
%TO.P,J1,3,3*%
X166000000Y-74580000D03*
%TO.P,J1,4,4*%
X171080000Y-74580000D03*
%TO.P,J1,5,5*%
X171080000Y-72040000D03*
%TO.P,J1,6,6*%
X171080000Y-69500000D03*
%TD*%
D34*
%TO.P,Z1,1,K*%
%TO.N,Net-(Q2-D)*%
X146500000Y-78850000D03*
%TO.P,Z1,2,A*%
%TO.N,Net-(Z1-A)*%
X146500000Y-83150000D03*
%TD*%
D30*
%TO.P,R17,1*%
%TO.N,/AC1*%
X134500000Y-85950000D03*
%TO.P,R17,2*%
%TO.N,Net-(IC1-INB-)*%
X134500000Y-89050000D03*
%TD*%
D26*
%TO.P,R14,1*%
%TO.N,GND*%
X135500000Y-103500000D03*
%TO.P,R14,2*%
%TO.N,Net-(IC1-INA-)*%
X137500000Y-103500000D03*
%TD*%
D11*
%TO.P,D3,1,K*%
%TO.N,/L+*%
X152890000Y-67450000D03*
D12*
%TO.P,D3,2,A*%
%TO.N,/AC1*%
X152890000Y-62000000D03*
%TO.P,D3,3,G*%
%TO.N,Net-(D3-G)*%
X152890000Y-56550000D03*
%TD*%
D17*
%TO.P,R15,1*%
%TO.N,Net-(IC1-INA-)*%
X131000000Y-103500000D03*
%TO.P,R15,2*%
%TO.N,/VBUS_SENSE*%
X131000000Y-101500000D03*
%TD*%
D15*
%TO.P,C9,1*%
%TO.N,/L+*%
X191175000Y-71500000D03*
D16*
%TO.P,C9,2*%
%TO.N,/Vout-*%
X206175000Y-71500000D03*
%TD*%
D35*
%TO.P,D8,A*%
%TO.N,Net-(Z1-A)*%
X143500000Y-82575000D03*
%TO.P,D8,K*%
%TO.N,Net-(C2-+)*%
X143500000Y-79425000D03*
%TD*%
D31*
%TO.P,C15,1*%
%TO.N,+5V*%
X139942750Y-97500000D03*
%TO.P,C15,2*%
%TO.N,GND*%
X143067750Y-97500000D03*
%TD*%
D36*
%TO.P,T1,1,PRI_1*%
%TO.N,Net-(C2-+)*%
X141460000Y-71900000D03*
%TO.P,T1,2,PRI_2*%
%TO.N,unconnected-(T1-PRI_2-Pad2)*%
X144000000Y-71900000D03*
%TO.P,T1,3,PRI_3*%
%TO.N,Net-(Q2-D)*%
X146540000Y-71900000D03*
%TO.P,T1,4,SEC_1*%
%TO.N,/L+*%
X146540000Y-60100000D03*
%TO.P,T1,5,SEC_2*%
%TO.N,unconnected-(T1-SEC_2-Pad5)*%
X144000000Y-60100000D03*
%TO.P,T1,6,SEC_3*%
%TO.N,Net-(T1-SEC_3)*%
X141460000Y-60100000D03*
%TD*%
D37*
%TO.P,R2,1*%
%TO.N,Net-(D6-PadK)*%
X145437500Y-75500000D03*
%TO.P,R2,2*%
%TO.N,Net-(D4-G)*%
X148562500Y-75500000D03*
%TD*%
D38*
%TO.P,R1,1*%
%TO.N,Net-(Q2-G)*%
X138500000Y-79037500D03*
%TO.P,R1,2*%
%TO.N,GND*%
X138500000Y-81962500D03*
%TD*%
D37*
%TO.P,R3,1*%
%TO.N,Net-(D6-PadK)*%
X145937500Y-56500000D03*
%TO.P,R3,2*%
%TO.N,Net-(D3-G)*%
X149062500Y-56500000D03*
%TD*%
D39*
%TO.P,C23,1*%
%TO.N,Net-(IC1-INB-)*%
X131562500Y-87000000D03*
%TO.P,C23,2*%
%TO.N,/VAC_SENSE*%
X128437500Y-87000000D03*
%TD*%
D26*
%TO.P,R19,1*%
%TO.N,Net-(IC1-INB+)*%
X144000000Y-89500000D03*
%TO.P,R19,2*%
%TO.N,GND*%
X146000000Y-89500000D03*
%TD*%
D24*
%TO.P,J9,1,1*%
%TO.N,/AC1*%
X166000000Y-56500000D03*
%TO.P,J9,2,2*%
X166000000Y-59040000D03*
%TO.P,J9,3,3*%
X166000000Y-61580000D03*
%TO.P,J9,4,4*%
X171080000Y-61580000D03*
%TO.P,J9,5,5*%
X171080000Y-59040000D03*
%TO.P,J9,6,6*%
X171080000Y-56500000D03*
%TD*%
D40*
%TO.P,R6,1*%
%TO.N,/SCR*%
X136450000Y-77000000D03*
%TO.P,R6,2*%
%TO.N,Net-(Q2-G)*%
X139550000Y-77000000D03*
%TD*%
D41*
%TO.P,U2,1,VDD*%
%TO.N,+5V*%
X197975000Y-115405000D03*
%TO.P,U2,2,IN+*%
%TO.N,/PFC*%
X197975000Y-114135000D03*
%TO.P,U2,3,IN-*%
%TO.N,GND*%
X197975000Y-112865000D03*
%TO.P,U2,4,GND*%
X197975000Y-111595000D03*
%TO.P,U2,5,VH*%
%TO.N,Net-(C6-+)*%
X193025000Y-111595000D03*
%TO.P,U2,6,GON*%
%TO.N,Net-(U2-GON)*%
X193025000Y-112865000D03*
%TO.P,U2,7,GOFF*%
%TO.N,Net-(Q1-G)*%
X193025000Y-114135000D03*
%TO.P,U2,8,GNDISO*%
%TO.N,Net-(C6--)*%
X193025000Y-115405000D03*
%TD*%
D42*
%TO.P,Q2,1,G*%
%TO.N,Net-(Q2-G)*%
X141300000Y-74545000D03*
%TO.P,Q2,2,S*%
%TO.N,GND*%
X141300000Y-76455000D03*
%TO.P,Q2,3,D*%
%TO.N,Net-(Q2-D)*%
X143700000Y-75500000D03*
%TD*%
D43*
%TO.P,R4,1*%
%TO.N,+5V*%
X128500000Y-77062500D03*
%TO.P,R4,2*%
%TO.N,Net-(C2-+)*%
X128500000Y-73937500D03*
%TD*%
D17*
%TO.P,R13,1*%
%TO.N,Net-(IC1-INA+)*%
X145000000Y-101500000D03*
%TO.P,R13,2*%
%TO.N,GND*%
X145000000Y-99500000D03*
%TD*%
D21*
%TO.P,C8,1,+*%
%TO.N,GND*%
X149000000Y-95750000D03*
D22*
%TO.P,C8,2,-*%
%TO.N,-5V*%
X149000000Y-92250000D03*
%TD*%
D10*
%TO.P,R9,1*%
%TO.N,Net-(IC1-INB-)*%
X131000000Y-89500000D03*
%TO.P,R9,2*%
%TO.N,/VAC_SENSE*%
X129000000Y-89500000D03*
%TD*%
D44*
%TO.P,J11,01,01*%
%TO.N,/I_L*%
X200000000Y-131500000D03*
D45*
%TO.P,J11,02,02*%
%TO.N,+24V*%
X200000000Y-133500000D03*
%TO.P,J11,03,03*%
%TO.N,GND*%
X198000000Y-131500000D03*
%TO.P,J11,04,04*%
%TO.N,/PFC*%
X198000000Y-133500000D03*
%TO.P,J11,05,05*%
%TO.N,GND*%
X196000000Y-131500000D03*
%TO.P,J11,06,06*%
%TO.N,/SCR*%
X196000000Y-133500000D03*
%TO.P,J11,07,07*%
%TO.N,GND*%
X194000000Y-131500000D03*
%TO.P,J11,08,08*%
%TO.N,/VBUS_SENSE*%
X194000000Y-133500000D03*
%TO.P,J11,09,09*%
%TO.N,+5V*%
X192000000Y-131500000D03*
%TO.P,J11,10,10*%
%TO.N,/VAC_SENSE*%
X192000000Y-133500000D03*
%TD*%
D46*
%TO.N,GND*%
X145000000Y-97000000D03*
X145500000Y-91000000D03*
X128500000Y-69500000D03*
X130000000Y-87000000D03*
X141000000Y-81500000D03*
X145000000Y-96000000D03*
X135000000Y-105000000D03*
X199500000Y-110000000D03*
X136500000Y-96000000D03*
%TO.N,+5V*%
X133500000Y-99500000D03*
X133500000Y-103500000D03*
X132500000Y-96000000D03*
X191500000Y-117000000D03*
%TO.N,/AC1*%
X136500000Y-84000000D03*
%TO.N,/VAC_SENSE*%
X129500000Y-94000000D03*
X129500000Y-104500000D03*
%TO.N,/SCR*%
X126500000Y-105500000D03*
X128000000Y-80000000D03*
%TO.N,/I_L*%
X192500000Y-118000000D03*
%TD*%
D47*
%TO.N,Net-(C2-+)*%
X141460000Y-71900000D02*
X141460000Y-70960000D01*
X143500000Y-79425000D02*
X143500000Y-76900000D01*
X133500000Y-70000000D02*
X133250000Y-70250000D01*
X140500000Y-70000000D02*
X133500000Y-70000000D01*
X132862500Y-71637500D02*
X128500000Y-71637500D01*
X128500000Y-73937500D02*
X128500000Y-71637500D01*
X142200000Y-72640000D02*
X141460000Y-71900000D01*
X133000000Y-71500000D02*
X132862500Y-71637500D01*
X141460000Y-70960000D02*
X140500000Y-70000000D01*
X143500000Y-76900000D02*
X142200000Y-75600000D01*
X133250000Y-70250000D02*
X133250000Y-71500000D01*
X133250000Y-71500000D02*
X133000000Y-71500000D01*
X142200000Y-75600000D02*
X142200000Y-72640000D01*
%TO.N,GND*%
X145500000Y-91000000D02*
X146000000Y-90500000D01*
X136640250Y-96140250D02*
X136500000Y-96000000D01*
X130000000Y-86500000D02*
X128000000Y-84500000D01*
X141000000Y-81500000D02*
X141000000Y-81426166D01*
X146000000Y-90500000D02*
X146000000Y-89500000D01*
X140400000Y-81962500D02*
X141000000Y-82562500D01*
X135500000Y-103500000D02*
X135500000Y-104500000D01*
X130000000Y-87000000D02*
X130000000Y-86500000D01*
X138600000Y-82062500D02*
X138500000Y-81962500D01*
X142618916Y-90062500D02*
X143556416Y-91000000D01*
X138500000Y-96000000D02*
X136500000Y-96000000D01*
X132500000Y-110062500D02*
X138687500Y-110062500D01*
X135500000Y-104500000D02*
X135000000Y-105000000D01*
X197975000Y-111525000D02*
X197975000Y-111595000D01*
X142300000Y-77455000D02*
X141300000Y-76455000D01*
X199500000Y-110000000D02*
X197975000Y-111525000D01*
X205100000Y-91900000D02*
X196325000Y-91900000D01*
X196325000Y-91900000D02*
X194225000Y-94000000D01*
X138880250Y-96380250D02*
X138500000Y-96000000D01*
X190175000Y-98850000D02*
X190175000Y-97325000D01*
X190175000Y-97325000D02*
X193500000Y-94000000D01*
X136640250Y-97475000D02*
X136640250Y-96140250D01*
X197975000Y-112865000D02*
X197975000Y-111595000D01*
X142562500Y-99937500D02*
X143000000Y-99500000D01*
X146000000Y-89500000D02*
X146000000Y-87500000D01*
X140500000Y-99937500D02*
X140391584Y-99937500D01*
X141000000Y-82062500D02*
X141000000Y-81500000D01*
X128500000Y-69500000D02*
X128500000Y-67362500D01*
X193500000Y-94000000D02*
X194225000Y-94000000D01*
X143556416Y-91000000D02*
X145500000Y-91000000D01*
X140391584Y-99937500D02*
X138880250Y-98426166D01*
X138687500Y-110062500D02*
X139750000Y-109000000D01*
X138880250Y-98426166D02*
X138880250Y-96380250D01*
X208000000Y-94800000D02*
X205100000Y-91900000D01*
X138500000Y-81962500D02*
X140400000Y-81962500D01*
X141000000Y-81426166D02*
X142300000Y-80126166D01*
X191325000Y-100000000D02*
X190175000Y-98850000D01*
X142300000Y-80126166D02*
X142300000Y-77455000D01*
X142000000Y-90062500D02*
X142618916Y-90062500D01*
%TO.N,Net-(Q2-G)*%
X138500000Y-79037500D02*
X140600000Y-79037500D01*
X139550000Y-76295000D02*
X141300000Y-74545000D01*
X138600000Y-78937500D02*
X138500000Y-79037500D01*
X139550000Y-77000000D02*
X139550000Y-76295000D01*
X138500000Y-79037500D02*
X138500000Y-78050000D01*
X138500000Y-78050000D02*
X139550000Y-77000000D01*
X140600000Y-79037500D02*
X141000000Y-79437500D01*
%TO.N,+5V*%
X140005250Y-95062500D02*
X140005250Y-97437500D01*
X132625250Y-94000000D02*
X134100250Y-92525000D01*
X135537751Y-95062500D02*
X140005250Y-95062500D01*
X127000000Y-91187750D02*
X128100250Y-92288000D01*
X190980000Y-132520000D02*
X190980000Y-134480000D01*
X133500000Y-98075250D02*
X134100250Y-97475000D01*
X127000000Y-78562500D02*
X127000000Y-91187750D01*
X130510050Y-96000000D02*
X132500000Y-96000000D01*
X133500000Y-105937500D02*
X132500000Y-106937500D01*
X194000000Y-117000000D02*
X195595000Y-115405000D01*
X128100250Y-93590200D02*
X130510050Y-96000000D01*
X190980000Y-134480000D02*
X191000000Y-134500000D01*
X189800000Y-135700000D02*
X131000000Y-135700000D01*
X128100250Y-92288000D02*
X128100250Y-93590200D01*
X195595000Y-115405000D02*
X197975000Y-115405000D01*
X191000000Y-134500000D02*
X189800000Y-135700000D01*
X140005250Y-97437500D02*
X139942750Y-97500000D01*
X196000000Y-96500000D02*
X198500000Y-94000000D01*
X191500000Y-117000000D02*
X194000000Y-117000000D01*
X191325000Y-101910000D02*
X192090000Y-101910000D01*
X131000000Y-135700000D02*
X128300000Y-133000000D01*
X129562500Y-106937500D02*
X132500000Y-106937500D01*
X128300000Y-108200000D02*
X129562500Y-106937500D01*
X134187500Y-106937500D02*
X136250000Y-109000000D01*
X134100250Y-96500001D02*
X135537751Y-95062500D01*
X132500000Y-106937500D02*
X134187500Y-106937500D01*
X192090000Y-101910000D02*
X192500000Y-101500000D01*
X132500000Y-96000000D02*
X132500000Y-94000000D01*
X134100250Y-97475000D02*
X134100250Y-96500001D01*
X128300000Y-133000000D02*
X128300000Y-108200000D01*
X193000000Y-96500000D02*
X196000000Y-96500000D01*
X192000000Y-131500000D02*
X190980000Y-132520000D01*
X128500000Y-77062500D02*
X127000000Y-78562500D01*
X192500000Y-101500000D02*
X192500000Y-97000000D01*
X192500000Y-97000000D02*
X193000000Y-96500000D01*
X132500000Y-94000000D02*
X132625250Y-94000000D01*
X133500000Y-99500000D02*
X133500000Y-98075250D01*
X133500000Y-103500000D02*
X133500000Y-105937500D01*
%TO.N,Net-(C6--)*%
X198250000Y-106250000D02*
X198250000Y-99887500D01*
X196000000Y-107500000D02*
X197000000Y-107500000D01*
X201557500Y-102420000D02*
X208000000Y-102420000D01*
X197000000Y-107500000D02*
X198250000Y-106250000D01*
X193999999Y-115405000D02*
X195500000Y-113904999D01*
X198250000Y-99887500D02*
X198637500Y-99500000D01*
X195500000Y-108000000D02*
X196000000Y-107500000D01*
X198637500Y-99500000D02*
X201557500Y-102420000D01*
X195500000Y-113904999D02*
X195500000Y-108000000D01*
X193025000Y-115405000D02*
X193999999Y-115405000D01*
%TO.N,Net-(C6-+)*%
X194362500Y-99500000D02*
X196462500Y-97400000D01*
X209206000Y-106294000D02*
X208000000Y-107500000D01*
X194362500Y-99500000D02*
X194362500Y-105862500D01*
X205400000Y-97400000D02*
X209206000Y-101206000D01*
X193025000Y-111595000D02*
X194750000Y-109870000D01*
X209206000Y-101206000D02*
X209206000Y-106294000D01*
X194362500Y-105862500D02*
X194750000Y-106250000D01*
X196462500Y-97400000D02*
X205400000Y-97400000D01*
X207500000Y-108000000D02*
X208000000Y-107500000D01*
X194750000Y-109870000D02*
X194750000Y-106250000D01*
%TO.N,Net-(U4-CAP+)*%
X135370250Y-99567250D02*
X134937500Y-100000000D01*
X135370250Y-97475000D02*
X135370250Y-99567250D01*
%TO.N,Net-(U4-CAP-)*%
X137910250Y-99847750D02*
X138062500Y-100000000D01*
X137910250Y-97475000D02*
X137910250Y-99847750D01*
%TO.N,-5V*%
X142692750Y-91750000D02*
X142505250Y-91937500D01*
X140005250Y-91937500D02*
X142505250Y-91937500D01*
X137130250Y-93900000D02*
X137910250Y-93120000D01*
X148687500Y-91937500D02*
X149000000Y-92250000D01*
X140005250Y-91937500D02*
X138497750Y-91937500D01*
X142505250Y-91937500D02*
X148687500Y-91937500D01*
X131910250Y-97712000D02*
X135722250Y-93900000D01*
X135722250Y-93900000D02*
X137130250Y-93900000D01*
X137910250Y-93120000D02*
X137910250Y-92525000D01*
X138497750Y-91937500D02*
X137910250Y-92525000D01*
%TO.N,Net-(IC1-INA+)*%
X132490750Y-100000000D02*
X132500000Y-100000000D01*
X149950000Y-99500000D02*
X147562500Y-99500000D01*
X140500000Y-103062500D02*
X141437500Y-103062500D01*
X145000000Y-101500000D02*
X145437500Y-101500000D01*
X130640250Y-97712000D02*
X130640250Y-98149500D01*
X141437500Y-103062500D02*
X143000000Y-101500000D01*
X145000000Y-101500000D02*
X145000000Y-101437500D01*
X145000000Y-101500000D02*
X143000000Y-101500000D01*
X140000000Y-101500000D02*
X140500000Y-102000000D01*
X134000000Y-101500000D02*
X140000000Y-101500000D01*
X132500000Y-100000000D02*
X134000000Y-101500000D01*
X130640250Y-97712000D02*
X130640250Y-98329500D01*
X145437500Y-101500000D02*
X147500000Y-99437500D01*
X147562500Y-99000000D02*
X147500000Y-98937500D01*
X140500000Y-102000000D02*
X140500000Y-103062500D01*
X130640250Y-98149500D02*
X132490750Y-100000000D01*
%TO.N,Net-(IC1-INA-)*%
X130562500Y-103062500D02*
X131000000Y-103500000D01*
X143000000Y-102551166D02*
X141426166Y-104125000D01*
X136100000Y-102100000D02*
X133320750Y-102100000D01*
X129370250Y-98149500D02*
X129370250Y-97712000D01*
X137500000Y-103500000D02*
X136100000Y-102100000D01*
X138125000Y-104125000D02*
X137500000Y-103500000D01*
X149012500Y-102562500D02*
X149950000Y-103500000D01*
X131920750Y-103500000D02*
X133320750Y-102100000D01*
X147062500Y-102500000D02*
X143000000Y-102500000D01*
X128500000Y-103062500D02*
X130562500Y-103062500D01*
X133320750Y-102100000D02*
X129370250Y-98149500D01*
X143000000Y-102500000D02*
X143000000Y-102551166D01*
X147500000Y-102562500D02*
X149012500Y-102562500D01*
X141426166Y-104125000D02*
X138125000Y-104125000D01*
X131000000Y-103500000D02*
X131920750Y-103500000D01*
%TO.N,Net-(IC1-INB-)*%
X134500000Y-89050000D02*
X131450000Y-89050000D01*
X131450000Y-89050000D02*
X131000000Y-89500000D01*
X130000000Y-84500000D02*
X130000000Y-85437500D01*
X130000000Y-85437500D02*
X131562500Y-87000000D01*
X131000000Y-87562500D02*
X131562500Y-87000000D01*
X130640250Y-92288000D02*
X130640250Y-89859750D01*
X134500000Y-89050000D02*
X136987500Y-89050000D01*
X130640250Y-89859750D02*
X131000000Y-89500000D01*
X131000000Y-89500000D02*
X131000000Y-87562500D01*
X136987500Y-89050000D02*
X137000000Y-89062500D01*
%TO.N,Net-(IC1-INB+)*%
X133225000Y-90973250D02*
X137576750Y-90973250D01*
X144000000Y-87500000D02*
X144000000Y-89500000D01*
X139500000Y-89050000D02*
X137000000Y-86550000D01*
X143437500Y-86937500D02*
X144000000Y-87500000D01*
X137000000Y-86550000D02*
X137000000Y-85937500D01*
X131910250Y-92288000D02*
X133225000Y-90973250D01*
X139887500Y-89050000D02*
X142000000Y-86937500D01*
X142000000Y-86937500D02*
X143437500Y-86937500D01*
X139500000Y-89050000D02*
X139887500Y-89050000D01*
X137576750Y-90973250D02*
X139500000Y-89050000D01*
%TO.N,/AC1*%
X134500000Y-85000000D02*
X135000000Y-84500000D01*
X136000000Y-84500000D02*
X136500000Y-84000000D01*
X135000000Y-84500000D02*
X136000000Y-84500000D01*
X134500000Y-85950000D02*
X134500000Y-85000000D01*
D48*
%TO.N,/Vout-*%
X170500000Y-124500000D02*
X173500000Y-124500000D01*
X169500000Y-123500000D02*
X170500000Y-124500000D01*
X169500000Y-114000000D02*
X169500000Y-123500000D01*
X169500000Y-114000000D02*
X158500000Y-103000000D01*
X158500000Y-103000000D02*
X153050000Y-103000000D01*
D47*
%TO.N,/AC2*%
X152890000Y-81000000D02*
X152890000Y-81110000D01*
X139601166Y-85950000D02*
X139500000Y-85950000D01*
X152890000Y-81110000D02*
X148500000Y-85500000D01*
X143500000Y-85000000D02*
X140000000Y-85000000D01*
X148500000Y-85500000D02*
X144000000Y-85500000D01*
X140000000Y-85000000D02*
X139500000Y-85500000D01*
X144000000Y-85500000D02*
X143500000Y-85000000D01*
X139500000Y-85500000D02*
X139500000Y-85950000D01*
%TO.N,/L+*%
X146540000Y-60100000D02*
X146540000Y-62040000D01*
D48*
X151950000Y-67450000D02*
X152890000Y-67450000D01*
D47*
X146540000Y-62040000D02*
X151950000Y-67450000D01*
%TO.N,Net-(D3-G)*%
X149062500Y-56500000D02*
X152840000Y-56500000D01*
X152840000Y-56500000D02*
X152890000Y-56550000D01*
%TO.N,Net-(D4-G)*%
X148562500Y-75500000D02*
X152840000Y-75500000D01*
X152840000Y-75500000D02*
X152890000Y-75550000D01*
D48*
%TO.N,/Vout+*%
X152890000Y-119000000D02*
X151000000Y-119000000D01*
X151500000Y-104500000D02*
X151500000Y-100500000D01*
X152500000Y-99000000D02*
X153050000Y-99000000D01*
X151500000Y-100500000D02*
X152500000Y-99500000D01*
X148500000Y-107500000D02*
X151500000Y-104500000D01*
X148500000Y-116500000D02*
X148500000Y-107500000D01*
X151000000Y-119000000D02*
X148500000Y-116500000D01*
D47*
%TO.N,Net-(T1-SEC_3)*%
X141460000Y-60100000D02*
X141460000Y-56960000D01*
X140000000Y-55500000D02*
X138925000Y-55500000D01*
X141460000Y-56960000D02*
X140000000Y-55500000D01*
%TO.N,Net-(D6-PadK)*%
X147000000Y-75500000D02*
X147500000Y-75000000D01*
X144937500Y-55500000D02*
X145937500Y-56500000D01*
X145437500Y-75500000D02*
X147000000Y-75500000D01*
X147500000Y-73500000D02*
X149000000Y-72000000D01*
X145275000Y-57162500D02*
X145937500Y-56500000D01*
X149000000Y-72000000D02*
X149000000Y-67000000D01*
X142075000Y-55500000D02*
X144937500Y-55500000D01*
X145275000Y-63275000D02*
X145275000Y-57162500D01*
X147500000Y-75000000D02*
X147500000Y-73500000D01*
X149000000Y-67000000D02*
X145275000Y-63275000D01*
%TO.N,Net-(Z1-A)*%
X146500000Y-83650000D02*
X144575000Y-83650000D01*
X144575000Y-83650000D02*
X143500000Y-82575000D01*
%TO.N,Net-(Q1-G)*%
X190927500Y-114135000D02*
X193025000Y-114135000D01*
X190000000Y-115062500D02*
X190927500Y-114135000D01*
X188487500Y-113550000D02*
X190000000Y-115062500D01*
X183610000Y-113550000D02*
X188487500Y-113550000D01*
%TO.N,Net-(Q2-D)*%
X146500000Y-79350000D02*
X146500000Y-79000000D01*
X144300000Y-73200000D02*
X145240000Y-73200000D01*
X146300000Y-71900000D02*
X146540000Y-71900000D01*
X144100000Y-76600000D02*
X144100000Y-78100000D01*
X144850000Y-78850000D02*
X146500000Y-78850000D01*
X143700000Y-76200000D02*
X144100000Y-76600000D01*
X145240000Y-73200000D02*
X146540000Y-71900000D01*
X143700000Y-75500000D02*
X143700000Y-73800000D01*
X143700000Y-73800000D02*
X144300000Y-73200000D01*
X143700000Y-75500000D02*
X143700000Y-76200000D01*
X144100000Y-78100000D02*
X144850000Y-78850000D01*
%TO.N,Net-(U2-GON)*%
X190000000Y-111937500D02*
X190927500Y-112865000D01*
X190927500Y-112865000D02*
X193025000Y-112865000D01*
%TO.N,+24V*%
X210300000Y-94560000D02*
X208000000Y-92260000D01*
X210300000Y-130200000D02*
X210300000Y-94560000D01*
X207000000Y-133500000D02*
X210300000Y-130200000D01*
X200000000Y-133500000D02*
X207000000Y-133500000D01*
%TO.N,/VBUS_SENSE*%
X130062500Y-101500000D02*
X128500000Y-99937500D01*
X194000000Y-134500000D02*
X194000000Y-133500000D01*
X127200000Y-105789950D02*
X127100000Y-105889950D01*
X191600000Y-136900000D02*
X194000000Y-134500000D01*
X128500000Y-99937500D02*
X128500000Y-98111750D01*
X128500000Y-99937500D02*
X127200000Y-101237500D01*
X131000000Y-101500000D02*
X130062500Y-101500000D01*
X130248528Y-136900000D02*
X191600000Y-136900000D01*
X127100000Y-105889950D02*
X127100000Y-133751472D01*
X128500000Y-98111750D02*
X128100250Y-97712000D01*
X127100000Y-133751472D02*
X130248528Y-136900000D01*
X127200000Y-101237500D02*
X127200000Y-105789950D01*
%TO.N,/VAC_SENSE*%
X192000000Y-135000000D02*
X190700000Y-136300000D01*
X129370250Y-92288000D02*
X129370250Y-89870250D01*
X127700000Y-133502944D02*
X127700000Y-106138478D01*
X192000000Y-133500000D02*
X192000000Y-135000000D01*
X129338478Y-104500000D02*
X129500000Y-104500000D01*
X127700000Y-106138478D02*
X129338478Y-104500000D01*
X130497056Y-136300000D02*
X127700000Y-133502944D01*
X190700000Y-136300000D02*
X130497056Y-136300000D01*
X129370250Y-92288000D02*
X129370250Y-93870250D01*
X129370250Y-89870250D02*
X129000000Y-89500000D01*
X129000000Y-89500000D02*
X129000000Y-87562500D01*
X129000000Y-87562500D02*
X128437500Y-87000000D01*
X129370250Y-93870250D02*
X129500000Y-94000000D01*
%TO.N,/SCR*%
X196000000Y-134500000D02*
X196000000Y-133500000D01*
X126500000Y-134000000D02*
X130000000Y-137500000D01*
X130000000Y-137500000D02*
X193000000Y-137500000D01*
X128000000Y-80000000D02*
X131000000Y-77000000D01*
X126500000Y-105500000D02*
X126500000Y-134000000D01*
X131000000Y-77000000D02*
X136450000Y-77000000D01*
X193000000Y-137500000D02*
X196000000Y-134500000D01*
%TO.N,/I_L*%
X192500000Y-118000000D02*
X200000000Y-125500000D01*
X200000000Y-125500000D02*
X200000000Y-131500000D01*
%TO.N,/PFC*%
X199500000Y-114685001D02*
X198949999Y-114135000D01*
D48*
X198980000Y-132520000D02*
X198000000Y-133500000D01*
D47*
X200600000Y-123100000D02*
X198500000Y-121000000D01*
X198636974Y-116500000D02*
X199500000Y-115636974D01*
D48*
X200980000Y-132520000D02*
X201500000Y-132000000D01*
D47*
X200600000Y-129600000D02*
X200600000Y-123100000D01*
X201500000Y-132000000D02*
X201500000Y-130500000D01*
X201500000Y-130500000D02*
X200600000Y-129600000D01*
X198500000Y-121000000D02*
X198500000Y-116500000D01*
X199500000Y-115636974D02*
X199500000Y-114685001D01*
D48*
X198980000Y-132520000D02*
X200980000Y-132520000D01*
D47*
X198949999Y-114135000D02*
X197975000Y-114135000D01*
X198500000Y-116500000D02*
X198636974Y-116500000D01*
%TD*%
%TA.AperFunction,Conductor*%
%TO.N,/Vout-*%
G36*
X180443039Y-122519685D02*
G01*
X180488794Y-122572489D01*
X180500000Y-122624000D01*
X180500000Y-131876000D01*
X180480315Y-131943039D01*
X180427511Y-131988794D01*
X180376000Y-132000000D01*
X155865363Y-132000000D01*
X155798324Y-131980315D01*
X155752569Y-131927511D01*
X155742625Y-131858353D01*
X155761825Y-131807765D01*
X155764689Y-131803417D01*
X155764698Y-131803407D01*
X155858909Y-131623049D01*
X155914886Y-131427418D01*
X155925500Y-131308037D01*
X155925499Y-129691964D01*
X155914886Y-129572582D01*
X155858909Y-129376951D01*
X155764698Y-129196593D01*
X155712684Y-129132803D01*
X155636109Y-129038890D01*
X155478409Y-128910304D01*
X155478410Y-128910304D01*
X155478407Y-128910302D01*
X155298049Y-128816091D01*
X155298048Y-128816090D01*
X155298045Y-128816089D01*
X155180829Y-128782550D01*
X155102418Y-128760114D01*
X155102415Y-128760113D01*
X155102413Y-128760113D01*
X155036102Y-128754217D01*
X154983037Y-128749500D01*
X154983032Y-128749500D01*
X153366971Y-128749500D01*
X153366965Y-128749500D01*
X153366964Y-128749501D01*
X153355316Y-128750536D01*
X153247584Y-128760113D01*
X153051954Y-128816089D01*
X152961772Y-128863196D01*
X152871593Y-128910302D01*
X152871591Y-128910303D01*
X152871590Y-128910304D01*
X152713890Y-129038890D01*
X152596102Y-129183348D01*
X152538481Y-129222865D01*
X152468643Y-129224957D01*
X152408760Y-129188959D01*
X152403898Y-129183348D01*
X152286109Y-129038890D01*
X152128409Y-128910304D01*
X152128410Y-128910304D01*
X152128407Y-128910302D01*
X151948049Y-128816091D01*
X151948048Y-128816090D01*
X151948045Y-128816089D01*
X151830829Y-128782550D01*
X151752418Y-128760114D01*
X151752415Y-128760113D01*
X151752413Y-128760113D01*
X151686102Y-128754217D01*
X151633037Y-128749500D01*
X151633032Y-128749500D01*
X150016971Y-128749500D01*
X150016965Y-128749500D01*
X150016964Y-128749501D01*
X150005316Y-128750536D01*
X149897584Y-128760113D01*
X149701954Y-128816089D01*
X149611772Y-128863196D01*
X149521593Y-128910302D01*
X149521591Y-128910303D01*
X149521590Y-128910304D01*
X149363890Y-129038890D01*
X149235304Y-129196590D01*
X149141089Y-129376954D01*
X149085114Y-129572583D01*
X149085113Y-129572586D01*
X149074500Y-129691966D01*
X149074500Y-131308028D01*
X149074501Y-131308034D01*
X149085113Y-131427415D01*
X149141089Y-131623045D01*
X149141090Y-131623048D01*
X149141091Y-131623049D01*
X149235302Y-131803407D01*
X149235305Y-131803411D01*
X149238175Y-131807765D01*
X149258629Y-131874574D01*
X149239717Y-131941835D01*
X149187442Y-131988194D01*
X149134637Y-132000000D01*
X134624000Y-132000000D01*
X134556961Y-131980315D01*
X134511206Y-131927511D01*
X134500000Y-131876000D01*
X134500000Y-127124000D01*
X134519685Y-127056961D01*
X134572489Y-127011206D01*
X134624000Y-127000000D01*
X171500000Y-127000000D01*
X171500000Y-122624000D01*
X171519685Y-122556961D01*
X171572489Y-122511206D01*
X171624000Y-122500000D01*
X180376000Y-122500000D01*
X180443039Y-122519685D01*
G37*
%TD.AperFunction*%
%TD*%
%TA.AperFunction,Conductor*%
%TO.N,/AC2*%
G36*
X173443039Y-67019685D02*
G01*
X173488794Y-67072489D01*
X173500000Y-67124000D01*
X173500000Y-73000000D01*
X186876000Y-73000000D01*
X186943039Y-73019685D01*
X186988794Y-73072489D01*
X187000000Y-73124000D01*
X187000000Y-77870500D01*
X186980315Y-77937539D01*
X186927511Y-77983294D01*
X186876000Y-77994500D01*
X164624000Y-77994500D01*
X164623347Y-77994503D01*
X164612420Y-77994566D01*
X164612406Y-77994567D01*
X164571441Y-77999211D01*
X164557475Y-78000000D01*
X163500000Y-78000000D01*
X163500000Y-79063623D01*
X163499364Y-79076168D01*
X163494500Y-79123998D01*
X163494500Y-83876000D01*
X163474815Y-83943039D01*
X163422011Y-83988794D01*
X163370500Y-84000000D01*
X149624000Y-84000000D01*
X149556961Y-83980315D01*
X149511206Y-83927511D01*
X149500000Y-83876000D01*
X149500000Y-78624000D01*
X149519685Y-78556961D01*
X149572489Y-78511206D01*
X149624000Y-78500000D01*
X156500000Y-78500000D01*
X156500000Y-67124000D01*
X156519685Y-67056961D01*
X156572489Y-67011206D01*
X156624000Y-67000000D01*
X173376000Y-67000000D01*
X173443039Y-67019685D01*
G37*
%TD.AperFunction*%
%TD*%
%TA.AperFunction,Conductor*%
%TO.N,Net-(Q1-C)*%
G36*
X179943039Y-100519685D02*
G01*
X179988794Y-100572489D01*
X180000000Y-100624000D01*
X180000000Y-117000000D01*
X186376000Y-117000000D01*
X186443039Y-117019685D01*
X186488794Y-117072489D01*
X186500000Y-117124000D01*
X186500000Y-120876000D01*
X186480315Y-120943039D01*
X186427511Y-120988794D01*
X186376000Y-121000000D01*
X174124000Y-121000000D01*
X174056961Y-120980315D01*
X174011206Y-120927511D01*
X174000000Y-120876000D01*
X174000000Y-109500000D01*
X167124000Y-109500000D01*
X167056961Y-109480315D01*
X167011206Y-109427511D01*
X167000000Y-109376000D01*
X167000000Y-100624000D01*
X167019685Y-100556961D01*
X167072489Y-100511206D01*
X167124000Y-100500000D01*
X179876000Y-100500000D01*
X179943039Y-100519685D01*
G37*
%TD.AperFunction*%
%TD*%
%TA.AperFunction,Conductor*%
%TO.N,/L+*%
G36*
X193443039Y-69519685D02*
G01*
X193488794Y-69572489D01*
X193500000Y-69624000D01*
X193500000Y-87376000D01*
X193480315Y-87443039D01*
X193427511Y-87488794D01*
X193376000Y-87500000D01*
X186796579Y-87500000D01*
X186729540Y-87480315D01*
X186683785Y-87427511D01*
X186673841Y-87358353D01*
X186682018Y-87328547D01*
X186745635Y-87174961D01*
X186745639Y-87174952D01*
X186821993Y-86889993D01*
X186860500Y-86597506D01*
X186860500Y-86302494D01*
X186821993Y-86010007D01*
X186745639Y-85725048D01*
X186632743Y-85452493D01*
X186485238Y-85197006D01*
X186305646Y-84962958D01*
X186305641Y-84962952D01*
X186097047Y-84754358D01*
X186097040Y-84754352D01*
X185862993Y-84574761D01*
X185607510Y-84427258D01*
X185607500Y-84427254D01*
X185334961Y-84314364D01*
X185334954Y-84314362D01*
X185334952Y-84314361D01*
X185049993Y-84238007D01*
X185001113Y-84231571D01*
X184757513Y-84199500D01*
X184757506Y-84199500D01*
X182462494Y-84199500D01*
X182462486Y-84199500D01*
X182184085Y-84236153D01*
X182170007Y-84238007D01*
X181885048Y-84314361D01*
X181885038Y-84314364D01*
X181612499Y-84427254D01*
X181612489Y-84427258D01*
X181357006Y-84574761D01*
X181122959Y-84754352D01*
X181122952Y-84754358D01*
X180914358Y-84962952D01*
X180914352Y-84962959D01*
X180734761Y-85197006D01*
X180587258Y-85452489D01*
X180587254Y-85452499D01*
X180474364Y-85725038D01*
X180474361Y-85725048D01*
X180398008Y-86010004D01*
X180398006Y-86010015D01*
X180359500Y-86302486D01*
X180359500Y-86597513D01*
X180391571Y-86841113D01*
X180398007Y-86889993D01*
X180398008Y-86889995D01*
X180474361Y-87174951D01*
X180474364Y-87174961D01*
X180537982Y-87328547D01*
X180545451Y-87398016D01*
X180514176Y-87460496D01*
X180454087Y-87496148D01*
X180423421Y-87500000D01*
X164624000Y-87500000D01*
X164556961Y-87480315D01*
X164511206Y-87427511D01*
X164500000Y-87376000D01*
X164500000Y-79124000D01*
X164519685Y-79056961D01*
X164572489Y-79011206D01*
X164624000Y-79000000D01*
X189000000Y-79000000D01*
X189000000Y-69624000D01*
X189019685Y-69556961D01*
X189072489Y-69511206D01*
X189124000Y-69500000D01*
X193376000Y-69500000D01*
X193443039Y-69519685D01*
G37*
%TD.AperFunction*%
%TD*%
%TA.AperFunction,Conductor*%
%TO.N,GND*%
G36*
X149943039Y-94519685D02*
G01*
X149988794Y-94572489D01*
X150000000Y-94624000D01*
X150000000Y-96876000D01*
X149980315Y-96943039D01*
X149927511Y-96988794D01*
X149876000Y-97000000D01*
X146000000Y-97000000D01*
X146000000Y-99448637D01*
X145980315Y-99515676D01*
X145963681Y-99536318D01*
X145136817Y-100363181D01*
X145075494Y-100396666D01*
X145049136Y-100399500D01*
X144499998Y-100399500D01*
X144499980Y-100399501D01*
X144397203Y-100410000D01*
X144397200Y-100410001D01*
X144230668Y-100465185D01*
X144230659Y-100465189D01*
X144204153Y-100481539D01*
X144139057Y-100500000D01*
X143860943Y-100500000D01*
X143795847Y-100481539D01*
X143769340Y-100465189D01*
X143769335Y-100465187D01*
X143769334Y-100465186D01*
X143602797Y-100410001D01*
X143602795Y-100410000D01*
X143500010Y-100399500D01*
X142499998Y-100399500D01*
X142499980Y-100399501D01*
X142397203Y-100410000D01*
X142397200Y-100410001D01*
X142230668Y-100465185D01*
X142230659Y-100465189D01*
X142204153Y-100481539D01*
X142139057Y-100500000D01*
X139624000Y-100500000D01*
X139556961Y-100480315D01*
X139511206Y-100427511D01*
X139500000Y-100376000D01*
X139500000Y-99096816D01*
X139519685Y-99029777D01*
X139572489Y-98984022D01*
X139593921Y-98976519D01*
X139883197Y-98904200D01*
X139913263Y-98900499D01*
X140405258Y-98900499D01*
X140415048Y-98899499D01*
X140423145Y-98898671D01*
X140508047Y-98889999D01*
X140674584Y-98834814D01*
X140823906Y-98742712D01*
X140897872Y-98668745D01*
X140955473Y-98636131D01*
X141500000Y-98500000D01*
X141500000Y-94624000D01*
X141519685Y-94556961D01*
X141572489Y-94511206D01*
X141624000Y-94500000D01*
X149876000Y-94500000D01*
X149943039Y-94519685D01*
G37*
%TD.AperFunction*%
%TD*%
M02*
