%TF.GenerationSoftware,KiCad,Pcbnew,8.0.1*%
%TF.CreationDate,2024-06-30T23:47:39-04:00*%
%TF.ProjectId,booster-tc,626f6f73-7465-4722-9d74-632e6b696361,rev?*%
%TF.SameCoordinates,Original*%
%TF.FileFunction,Soldermask,Bot*%
%TF.FilePolarity,Negative*%
%FSLAX46Y46*%
G04 Gerber Fmt 4.6, Leading zero omitted, Abs format (unit mm)*
G04 Created by KiCad (PCBNEW 8.0.1) date 2024-06-30 23:47:39*
%MOMM*%
%LPD*%
G01*
G04 APERTURE LIST*
G04 Aperture macros list*
%AMRoundRect*
0 Rectangle with rounded corners*
0 $1 Rounding radius*
0 $2 $3 $4 $5 $6 $7 $8 $9 X,Y pos of 4 corners*
0 Add a 4 corners polygon primitive as box body*
4,1,4,$2,$3,$4,$5,$6,$7,$8,$9,$2,$3,0*
0 Add four circle primitives for the rounded corners*
1,1,$1+$1,$2,$3*
1,1,$1+$1,$4,$5*
1,1,$1+$1,$6,$7*
1,1,$1+$1,$8,$9*
0 Add four rect primitives between the rounded corners*
20,1,$1+$1,$2,$3,$4,$5,0*
20,1,$1+$1,$4,$5,$6,$7,0*
20,1,$1+$1,$6,$7,$8,$9,0*
20,1,$1+$1,$8,$9,$2,$3,0*%
G04 Aperture macros list end*
%ADD10C,0.100000*%
%ADD11O,3.600000X3.600000*%
%ADD12R,4.500000X2.500000*%
%ADD13O,4.500000X2.500000*%
%ADD14R,1.500000X1.500000*%
%ADD15C,1.500000*%
%ADD16R,1.100000X1.100000*%
%ADD17C,1.100000*%
%ADD18C,2.300000*%
%ADD19C,1.612000*%
%ADD20C,0.500000*%
%ADD21R,6.000000X9.000000*%
%ADD22RoundRect,0.102000X0.620000X0.620000X-0.620000X0.620000X-0.620000X-0.620000X0.620000X-0.620000X0*%
%ADD23C,1.444000*%
G04 APERTURE END LIST*
D10*
X156000000Y-90500000D02*
X173000000Y-90500000D01*
X173000000Y-99500000D01*
X156000000Y-99500000D01*
X156000000Y-90500000D01*
G36*
X156000000Y-90500000D02*
G01*
X173000000Y-90500000D01*
X173000000Y-99500000D01*
X156000000Y-99500000D01*
X156000000Y-90500000D01*
G37*
X175500000Y-72500000D02*
X179500000Y-72500000D01*
X179500000Y-90500000D01*
X175500000Y-90500000D01*
X175500000Y-72500000D01*
G36*
X175500000Y-72500000D02*
G01*
X179500000Y-72500000D01*
X179500000Y-90500000D01*
X175500000Y-90500000D01*
X175500000Y-72500000D01*
G37*
X173000000Y-54500000D02*
X188000000Y-54500000D01*
X188000000Y-64000000D01*
X173000000Y-64000000D01*
X173000000Y-54500000D01*
G36*
X173000000Y-54500000D02*
G01*
X188000000Y-54500000D01*
X188000000Y-64000000D01*
X173000000Y-64000000D01*
X173000000Y-54500000D01*
G37*
X150000000Y-84000000D02*
X173000000Y-84000000D01*
X173000000Y-89000000D01*
X150000000Y-89000000D01*
X150000000Y-84000000D01*
G36*
X150000000Y-84000000D02*
G01*
X173000000Y-84000000D01*
X173000000Y-89000000D01*
X150000000Y-89000000D01*
X150000000Y-84000000D01*
G37*
X179500000Y-78500000D02*
X188000000Y-78500000D01*
X188000000Y-90500000D01*
X179500000Y-90500000D01*
X179500000Y-78500000D01*
G36*
X179500000Y-78500000D02*
G01*
X188000000Y-78500000D01*
X188000000Y-90500000D01*
X179500000Y-90500000D01*
X179500000Y-78500000D01*
G37*
X149000000Y-122000000D02*
X156500000Y-122000000D01*
X156500000Y-127000000D01*
X149000000Y-127000000D01*
X149000000Y-122000000D01*
G36*
X149000000Y-122000000D02*
G01*
X156500000Y-122000000D01*
X156500000Y-127000000D01*
X149000000Y-127000000D01*
X149000000Y-122000000D01*
G37*
X142500000Y-105000000D02*
X156000000Y-105000000D01*
X156000000Y-115500000D01*
X142500000Y-115500000D01*
X142500000Y-105000000D01*
G36*
X142500000Y-105000000D02*
G01*
X156000000Y-105000000D01*
X156000000Y-115500000D01*
X142500000Y-115500000D01*
X142500000Y-105000000D01*
G37*
X150000000Y-117000000D02*
X168000000Y-117000000D01*
X168000000Y-121000000D01*
X150000000Y-121000000D01*
X150000000Y-117000000D01*
G36*
X150000000Y-117000000D02*
G01*
X168000000Y-117000000D01*
X168000000Y-121000000D01*
X150000000Y-121000000D01*
X150000000Y-117000000D01*
G37*
X157000000Y-54500000D02*
X164000000Y-54500000D01*
X164000000Y-64000000D01*
X157000000Y-64000000D01*
X157000000Y-54500000D01*
G36*
X157000000Y-54500000D02*
G01*
X164000000Y-54500000D01*
X164000000Y-64000000D01*
X157000000Y-64000000D01*
X157000000Y-54500000D01*
G37*
X164000000Y-54500000D02*
X173000000Y-54500000D01*
X173000000Y-64000000D01*
X164000000Y-64000000D01*
X164000000Y-54500000D01*
G36*
X164000000Y-54500000D02*
G01*
X173000000Y-54500000D01*
X173000000Y-64000000D01*
X164000000Y-64000000D01*
X164000000Y-54500000D01*
G37*
X150000000Y-65000000D02*
X162500000Y-65000000D01*
X162500000Y-71500000D01*
X150000000Y-71500000D01*
X150000000Y-65000000D01*
G36*
X150000000Y-65000000D02*
G01*
X162500000Y-65000000D01*
X162500000Y-71500000D01*
X150000000Y-71500000D01*
X150000000Y-65000000D01*
G37*
X159000000Y-121000000D02*
X168000000Y-121000000D01*
X168000000Y-126000000D01*
X159000000Y-126000000D01*
X159000000Y-121000000D01*
G36*
X159000000Y-121000000D02*
G01*
X168000000Y-121000000D01*
X168000000Y-126000000D01*
X159000000Y-126000000D01*
X159000000Y-121000000D01*
G37*
X156500000Y-78500000D02*
X173000000Y-78500000D01*
X173000000Y-84000000D01*
X156500000Y-84000000D01*
X156500000Y-78500000D01*
G36*
X156500000Y-78500000D02*
G01*
X173000000Y-78500000D01*
X173000000Y-84000000D01*
X156500000Y-84000000D01*
X156500000Y-78500000D01*
G37*
X142500000Y-115500000D02*
X149000000Y-115500000D01*
X149000000Y-127000000D01*
X142500000Y-127000000D01*
X142500000Y-115500000D01*
G36*
X142500000Y-115500000D02*
G01*
X149000000Y-115500000D01*
X149000000Y-127000000D01*
X142500000Y-127000000D01*
X142500000Y-115500000D01*
G37*
X156500000Y-67000000D02*
X162500000Y-67000000D01*
X162500000Y-78500000D01*
X156500000Y-78500000D01*
X156500000Y-67000000D01*
G36*
X156500000Y-67000000D02*
G01*
X162500000Y-67000000D01*
X162500000Y-78500000D01*
X156500000Y-78500000D01*
X156500000Y-67000000D01*
G37*
X150000000Y-60000000D02*
X157000000Y-60000000D01*
X157000000Y-64000000D01*
X150000000Y-64000000D01*
X150000000Y-60000000D01*
G36*
X150000000Y-60000000D02*
G01*
X157000000Y-60000000D01*
X157000000Y-64000000D01*
X150000000Y-64000000D01*
X150000000Y-60000000D01*
G37*
X175500000Y-65000000D02*
X188000000Y-65000000D01*
X188000000Y-72500000D01*
X175500000Y-72500000D01*
X175500000Y-65000000D01*
G36*
X175500000Y-65000000D02*
G01*
X188000000Y-65000000D01*
X188000000Y-72500000D01*
X175500000Y-72500000D01*
X175500000Y-65000000D01*
G37*
X175500000Y-90500000D02*
X188000000Y-90500000D01*
X188000000Y-111500000D01*
X175500000Y-111500000D01*
X175500000Y-90500000D01*
G36*
X175500000Y-90500000D02*
G01*
X188000000Y-90500000D01*
X188000000Y-111500000D01*
X175500000Y-111500000D01*
X175500000Y-90500000D01*
G37*
X164000000Y-56000000D02*
X165500000Y-56000000D01*
X165500000Y-64000000D01*
X164000000Y-64000000D01*
X164000000Y-56000000D01*
G36*
X164000000Y-56000000D02*
G01*
X165500000Y-56000000D01*
X165500000Y-64000000D01*
X164000000Y-64000000D01*
X164000000Y-56000000D01*
G37*
X156000000Y-100500000D02*
X173000000Y-100500000D01*
X173000000Y-115500000D01*
X156000000Y-115500000D01*
X156000000Y-100500000D01*
G36*
X156000000Y-100500000D02*
G01*
X173000000Y-100500000D01*
X173000000Y-115500000D01*
X156000000Y-115500000D01*
X156000000Y-100500000D01*
G37*
X175500000Y-111500000D02*
X180500000Y-111500000D01*
X180500000Y-122500000D01*
X175500000Y-122500000D01*
X175500000Y-111500000D01*
G36*
X175500000Y-111500000D02*
G01*
X180500000Y-111500000D01*
X180500000Y-122500000D01*
X175500000Y-122500000D01*
X175500000Y-111500000D01*
G37*
X171500000Y-122500000D02*
X180500000Y-122500000D01*
X180500000Y-131500000D01*
X171500000Y-131500000D01*
X171500000Y-122500000D01*
G36*
X171500000Y-122500000D02*
G01*
X180500000Y-122500000D01*
X180500000Y-131500000D01*
X171500000Y-131500000D01*
X171500000Y-122500000D01*
G37*
X180500000Y-122500000D02*
X188000000Y-122500000D01*
X188000000Y-127500000D01*
X180500000Y-127500000D01*
X180500000Y-122500000D01*
G36*
X180500000Y-122500000D02*
G01*
X188000000Y-122500000D01*
X188000000Y-127500000D01*
X180500000Y-127500000D01*
X180500000Y-122500000D01*
G37*
D11*
%TO.C,D5*%
X133030000Y-119000000D03*
D12*
X152890000Y-124450000D03*
D13*
X152890000Y-119000000D03*
X152890000Y-113550000D03*
%TD*%
D14*
%TO.C,C12*%
X150825000Y-130500000D03*
D15*
X135825000Y-130500000D03*
%TD*%
D16*
%TO.C,C1*%
X136250000Y-109000000D03*
D17*
X139750000Y-109000000D03*
%TD*%
D18*
%TO.C,J6*%
X166000000Y-80500000D03*
X166000000Y-83040000D03*
X166000000Y-85580000D03*
X171080000Y-85580000D03*
X171080000Y-83040000D03*
X171080000Y-80500000D03*
%TD*%
D11*
%TO.C,D4*%
X133030000Y-81000000D03*
D12*
X152890000Y-86450000D03*
D13*
X152890000Y-81000000D03*
X152890000Y-75550000D03*
%TD*%
D11*
%TO.C,D2*%
X203470000Y-81000000D03*
D12*
X183610000Y-75550000D03*
D13*
X183610000Y-86450000D03*
%TD*%
D19*
%TO.C,PS1*%
X208000000Y-92260000D03*
X208000000Y-94800000D03*
X208000000Y-102420000D03*
X208000000Y-104960000D03*
X208000000Y-107500000D03*
%TD*%
D18*
%TO.C,J5*%
X173500000Y-124500000D03*
X173500000Y-127040000D03*
X173500000Y-129580000D03*
X178580000Y-129580000D03*
X178580000Y-127040000D03*
X178580000Y-124500000D03*
%TD*%
D11*
%TO.C,D1*%
X203470000Y-62000000D03*
D12*
X183610000Y-56550000D03*
D13*
X183610000Y-67450000D03*
%TD*%
D16*
%TO.C,C2*%
X133250000Y-71500000D03*
D17*
X136750000Y-71500000D03*
%TD*%
D18*
%TO.C,J7*%
X160920000Y-119000000D03*
X160920000Y-121540000D03*
X160920000Y-124080000D03*
X166000000Y-124080000D03*
X166000000Y-121540000D03*
X166000000Y-119000000D03*
%TD*%
D14*
%TO.C,C10*%
X154175000Y-130500000D03*
D15*
X169175000Y-130500000D03*
%TD*%
D16*
%TO.C,C6*%
X194750000Y-106250000D03*
D17*
X198250000Y-106250000D03*
%TD*%
D14*
%TO.C,U1*%
X191325000Y-101910000D03*
D15*
X191325000Y-100000000D03*
X191325000Y-98090000D03*
D20*
X169925000Y-98750000D03*
X167925000Y-97600000D03*
X171925000Y-97600000D03*
X167925000Y-96300000D03*
X171925000Y-96300000D03*
X167925000Y-95000000D03*
D21*
X169925000Y-95000000D03*
D20*
X171925000Y-95000000D03*
X167925000Y-93700000D03*
X171925000Y-93700000D03*
X167925000Y-92400000D03*
X171925000Y-92400000D03*
X169925000Y-91250000D03*
X169925000Y-108750000D03*
X167925000Y-107600000D03*
X171925000Y-107600000D03*
X167925000Y-106300000D03*
X171925000Y-106300000D03*
X167925000Y-105000000D03*
D21*
X169925000Y-105000000D03*
D20*
X171925000Y-105000000D03*
X167925000Y-103700000D03*
X171925000Y-103700000D03*
X167925000Y-102400000D03*
X171925000Y-102400000D03*
X169925000Y-101250000D03*
%TD*%
D11*
%TO.C,Q1*%
X203470000Y-119000000D03*
D12*
X183610000Y-113550000D03*
D13*
X183610000Y-119000000D03*
X183610000Y-124450000D03*
%TD*%
D18*
%TO.C,J8*%
X157960000Y-92460000D03*
X157960000Y-95000000D03*
X157960000Y-97540000D03*
X163040000Y-97540000D03*
X163040000Y-95000000D03*
X163040000Y-92460000D03*
%TD*%
%TO.C,J1*%
X166000000Y-69500000D03*
X166000000Y-72040000D03*
X166000000Y-74580000D03*
X171080000Y-74580000D03*
X171080000Y-72040000D03*
X171080000Y-69500000D03*
%TD*%
D11*
%TO.C,D3*%
X133030000Y-62000000D03*
D12*
X152890000Y-67450000D03*
D13*
X152890000Y-62000000D03*
X152890000Y-56550000D03*
%TD*%
D14*
%TO.C,C9*%
X191175000Y-71500000D03*
D15*
X206175000Y-71500000D03*
%TD*%
D18*
%TO.C,J9*%
X166000000Y-56500000D03*
X166000000Y-59040000D03*
X166000000Y-61580000D03*
X171080000Y-61580000D03*
X171080000Y-59040000D03*
X171080000Y-56500000D03*
%TD*%
D16*
%TO.C,C8*%
X149000000Y-95750000D03*
D17*
X149000000Y-92250000D03*
%TD*%
D22*
%TO.C,J11*%
X200000000Y-131500000D03*
D23*
X200000000Y-133500000D03*
X198000000Y-131500000D03*
X198000000Y-133500000D03*
X196000000Y-131500000D03*
X196000000Y-133500000D03*
X194000000Y-131500000D03*
X194000000Y-133500000D03*
X192000000Y-131500000D03*
X192000000Y-133500000D03*
%TD*%
M02*
