%TF.GenerationSoftware,KiCad,Pcbnew,8.0.1*%
%TF.CreationDate,2024-06-30T23:47:39-04:00*%
%TF.ProjectId,booster-tc,626f6f73-7465-4722-9d74-632e6b696361,rev?*%
%TF.SameCoordinates,Original*%
%TF.FileFunction,Soldermask,Top*%
%TF.FilePolarity,Negative*%
%FSLAX46Y46*%
G04 Gerber Fmt 4.6, Leading zero omitted, Abs format (unit mm)*
G04 Created by KiCad (PCBNEW 8.0.1) date 2024-06-30 23:47:39*
%MOMM*%
%LPD*%
G01*
G04 APERTURE LIST*
G04 Aperture macros list*
%AMRoundRect*
0 Rectangle with rounded corners*
0 $1 Rounding radius*
0 $2 $3 $4 $5 $6 $7 $8 $9 X,Y pos of 4 corners*
0 Add a 4 corners polygon primitive as box body*
4,1,4,$2,$3,$4,$5,$6,$7,$8,$9,$2,$3,0*
0 Add four circle primitives for the rounded corners*
1,1,$1+$1,$2,$3*
1,1,$1+$1,$4,$5*
1,1,$1+$1,$6,$7*
1,1,$1+$1,$8,$9*
0 Add four rect primitives between the rounded corners*
20,1,$1+$1,$2,$3,$4,$5,0*
20,1,$1+$1,$4,$5,$6,$7,0*
20,1,$1+$1,$6,$7,$8,$9,0*
20,1,$1+$1,$8,$9,$2,$3,0*%
G04 Aperture macros list end*
%ADD10C,0.100000*%
%ADD11RoundRect,0.250000X0.350000X0.450000X-0.350000X0.450000X-0.350000X-0.450000X0.350000X-0.450000X0*%
%ADD12O,3.600000X3.600000*%
%ADD13R,4.500000X2.500000*%
%ADD14O,4.500000X2.500000*%
%ADD15RoundRect,0.250000X0.650000X-0.412500X0.650000X0.412500X-0.650000X0.412500X-0.650000X-0.412500X0*%
%ADD16RoundRect,0.250000X-1.100000X0.412500X-1.100000X-0.412500X1.100000X-0.412500X1.100000X0.412500X0*%
%ADD17R,1.500000X1.500000*%
%ADD18C,1.500000*%
%ADD19RoundRect,0.250000X0.450000X-0.350000X0.450000X0.350000X-0.450000X0.350000X-0.450000X-0.350000X0*%
%ADD20RoundRect,0.250000X1.450000X-0.537500X1.450000X0.537500X-1.450000X0.537500X-1.450000X-0.537500X0*%
%ADD21RoundRect,0.250000X-0.650000X0.412500X-0.650000X-0.412500X0.650000X-0.412500X0.650000X0.412500X0*%
%ADD22R,0.900000X0.950000*%
%ADD23R,1.100000X1.100000*%
%ADD24C,1.100000*%
%ADD25RoundRect,0.250000X-0.537500X-1.450000X0.537500X-1.450000X0.537500X1.450000X-0.537500X1.450000X0*%
%ADD26C,2.300000*%
%ADD27C,1.612000*%
%ADD28RoundRect,0.250000X-0.350000X-0.450000X0.350000X-0.450000X0.350000X0.450000X-0.350000X0.450000X0*%
%ADD29R,0.650000X1.525000*%
%ADD30RoundRect,0.250000X0.400000X0.625000X-0.400000X0.625000X-0.400000X-0.625000X0.400000X-0.625000X0*%
%ADD31RoundRect,0.150000X0.150000X-0.825000X0.150000X0.825000X-0.150000X0.825000X-0.150000X-0.825000X0*%
%ADD32RoundRect,0.250000X-0.625000X0.400000X-0.625000X-0.400000X0.625000X-0.400000X0.625000X0.400000X0*%
%ADD33RoundRect,0.250000X-0.412500X-0.650000X0.412500X-0.650000X0.412500X0.650000X-0.412500X0.650000X0*%
%ADD34C,0.500000*%
%ADD35R,6.000000X9.000000*%
%ADD36R,1.550000X2.350000*%
%ADD37R,0.950000X0.900000*%
%ADD38R,0.900000X1.800000*%
%ADD39RoundRect,0.250000X-0.412500X-1.100000X0.412500X-1.100000X0.412500X1.100000X-0.412500X1.100000X0*%
%ADD40RoundRect,0.250000X-0.625000X0.312500X-0.625000X-0.312500X0.625000X-0.312500X0.625000X0.312500X0*%
%ADD41RoundRect,0.250000X0.412500X0.650000X-0.412500X0.650000X-0.412500X-0.650000X0.412500X-0.650000X0*%
%ADD42RoundRect,0.250000X-0.400000X-0.625000X0.400000X-0.625000X0.400000X0.625000X-0.400000X0.625000X0*%
%ADD43RoundRect,0.150000X0.825000X0.150000X-0.825000X0.150000X-0.825000X-0.150000X0.825000X-0.150000X0*%
%ADD44R,1.000000X0.600000*%
%ADD45RoundRect,0.250000X1.100000X-0.412500X1.100000X0.412500X-1.100000X0.412500X-1.100000X-0.412500X0*%
%ADD46RoundRect,0.102000X0.620000X0.620000X-0.620000X0.620000X-0.620000X-0.620000X0.620000X-0.620000X0*%
%ADD47C,1.444000*%
G04 APERTURE END LIST*
D10*
X149500000Y-78500000D02*
X163500000Y-78500000D01*
X163500000Y-84000000D01*
X149500000Y-84000000D01*
X149500000Y-78500000D01*
G36*
X149500000Y-78500000D02*
G01*
X163500000Y-78500000D01*
X163500000Y-84000000D01*
X149500000Y-84000000D01*
X149500000Y-78500000D01*
G37*
X174000000Y-109500000D02*
X180000000Y-109500000D01*
X180000000Y-121000000D01*
X174000000Y-121000000D01*
X174000000Y-109500000D01*
G36*
X174000000Y-109500000D02*
G01*
X180000000Y-109500000D01*
X180000000Y-121000000D01*
X174000000Y-121000000D01*
X174000000Y-109500000D01*
G37*
X156500000Y-67000000D02*
X163500000Y-67000000D01*
X163500000Y-78500000D01*
X156500000Y-78500000D01*
X156500000Y-67000000D01*
G36*
X156500000Y-67000000D02*
G01*
X163500000Y-67000000D01*
X163500000Y-78500000D01*
X156500000Y-78500000D01*
X156500000Y-67000000D01*
G37*
X167000000Y-100500000D02*
X180000000Y-100500000D01*
X180000000Y-109500000D01*
X167000000Y-109500000D01*
X167000000Y-100500000D01*
G36*
X167000000Y-100500000D02*
G01*
X180000000Y-100500000D01*
X180000000Y-109500000D01*
X167000000Y-109500000D01*
X167000000Y-100500000D01*
G37*
X163500000Y-67000000D02*
X173500000Y-67000000D01*
X173500000Y-78000000D01*
X163500000Y-78000000D01*
X163500000Y-67000000D01*
G36*
X163500000Y-67000000D02*
G01*
X173500000Y-67000000D01*
X173500000Y-78000000D01*
X163500000Y-78000000D01*
X163500000Y-67000000D01*
G37*
X173500000Y-73000000D02*
X187000000Y-73000000D01*
X187000000Y-78000000D01*
X173500000Y-78000000D01*
X173500000Y-73000000D01*
G36*
X173500000Y-73000000D02*
G01*
X187000000Y-73000000D01*
X187000000Y-78000000D01*
X173500000Y-78000000D01*
X173500000Y-73000000D01*
G37*
X180000000Y-117000000D02*
X186500000Y-117000000D01*
X186500000Y-121000000D01*
X180000000Y-121000000D01*
X180000000Y-117000000D01*
G36*
X180000000Y-117000000D02*
G01*
X186500000Y-117000000D01*
X186500000Y-121000000D01*
X180000000Y-121000000D01*
X180000000Y-117000000D01*
G37*
D11*
%TO.C,R8*%
X130000000Y-84500000D03*
X128000000Y-84500000D03*
%TD*%
D12*
%TO.C,D5*%
X133030000Y-119000000D03*
D13*
X152890000Y-124450000D03*
D14*
X152890000Y-119000000D03*
X152890000Y-113550000D03*
%TD*%
D15*
%TO.C,C20*%
X128500000Y-103062500D03*
X128500000Y-99937500D03*
%TD*%
D16*
%TO.C,R5*%
X190000000Y-111937500D03*
X190000000Y-115062500D03*
%TD*%
D15*
%TO.C,C16*%
X142505250Y-95062500D03*
X142505250Y-91937500D03*
%TD*%
D17*
%TO.C,C12*%
X150825000Y-130500000D03*
D18*
X135825000Y-130500000D03*
%TD*%
D19*
%TO.C,R12*%
X143000000Y-101500000D03*
X143000000Y-99500000D03*
%TD*%
D20*
%TO.C,C3*%
X128500000Y-71637500D03*
X128500000Y-67362500D03*
%TD*%
D21*
%TO.C,C4*%
X141000000Y-79437500D03*
X141000000Y-82562500D03*
%TD*%
D22*
%TO.C,D6*%
X138925000Y-55500000D03*
X142075000Y-55500000D03*
%TD*%
D23*
%TO.C,C1*%
X136250000Y-109000000D03*
D24*
X139750000Y-109000000D03*
%TD*%
D25*
%TO.C,C7*%
X194362500Y-99500000D03*
X198637500Y-99500000D03*
%TD*%
D26*
%TO.C,J6*%
X166000000Y-80500000D03*
X166000000Y-83040000D03*
X166000000Y-85580000D03*
X171080000Y-85580000D03*
X171080000Y-83040000D03*
X171080000Y-80500000D03*
%TD*%
D12*
%TO.C,D4*%
X133030000Y-81000000D03*
D13*
X152890000Y-86450000D03*
D14*
X152890000Y-81000000D03*
X152890000Y-75550000D03*
%TD*%
D12*
%TO.C,D2*%
X203470000Y-81000000D03*
D13*
X183610000Y-75550000D03*
D14*
X183610000Y-86450000D03*
%TD*%
D21*
%TO.C,C18*%
X147500000Y-99437500D03*
X147500000Y-102562500D03*
%TD*%
%TO.C,C22*%
X142000000Y-86937500D03*
X142000000Y-90062500D03*
%TD*%
D15*
%TO.C,C19*%
X140500000Y-103062500D03*
X140500000Y-99937500D03*
%TD*%
D27*
%TO.C,PS1*%
X208000000Y-92260000D03*
X208000000Y-94800000D03*
X208000000Y-102420000D03*
X208000000Y-104960000D03*
X208000000Y-107500000D03*
%TD*%
D25*
%TO.C,C5*%
X194225000Y-94000000D03*
X198500000Y-94000000D03*
%TD*%
D28*
%TO.C,R7*%
X144000000Y-87500000D03*
X146000000Y-87500000D03*
%TD*%
D29*
%TO.C,IC1*%
X128100250Y-97712000D03*
X129370250Y-97712000D03*
X130640250Y-97712000D03*
X131910250Y-97712000D03*
X131910250Y-92288000D03*
X130640250Y-92288000D03*
X129370250Y-92288000D03*
X128100250Y-92288000D03*
%TD*%
D15*
%TO.C,C17*%
X140005250Y-95062500D03*
X140005250Y-91937500D03*
%TD*%
D26*
%TO.C,J5*%
X173500000Y-124500000D03*
X173500000Y-127040000D03*
X173500000Y-129580000D03*
X178580000Y-129580000D03*
X178580000Y-127040000D03*
X178580000Y-124500000D03*
%TD*%
D12*
%TO.C,D1*%
X203470000Y-62000000D03*
D13*
X183610000Y-56550000D03*
D14*
X183610000Y-67450000D03*
%TD*%
D30*
%TO.C,R10*%
X153050000Y-99500000D03*
X149950000Y-99500000D03*
%TD*%
D23*
%TO.C,C2*%
X133250000Y-71500000D03*
D24*
X136750000Y-71500000D03*
%TD*%
D31*
%TO.C,U4*%
X134100250Y-97475000D03*
X135370250Y-97475000D03*
X136640250Y-97475000D03*
X137910250Y-97475000D03*
X137910250Y-92525000D03*
X136640250Y-92525000D03*
X135370250Y-92525000D03*
X134100250Y-92525000D03*
%TD*%
D26*
%TO.C,J7*%
X160920000Y-119000000D03*
X160920000Y-121540000D03*
X160920000Y-124080000D03*
X166000000Y-124080000D03*
X166000000Y-121540000D03*
X166000000Y-119000000D03*
%TD*%
D17*
%TO.C,C10*%
X154175000Y-130500000D03*
D18*
X169175000Y-130500000D03*
%TD*%
D23*
%TO.C,C6*%
X194750000Y-106250000D03*
D24*
X198250000Y-106250000D03*
%TD*%
D32*
%TO.C,R16*%
X139500000Y-85950000D03*
X139500000Y-89050000D03*
%TD*%
D21*
%TO.C,C21*%
X137000000Y-85937500D03*
X137000000Y-89062500D03*
%TD*%
D33*
%TO.C,C14*%
X134937500Y-100000000D03*
X138062500Y-100000000D03*
%TD*%
D17*
%TO.C,U1*%
X191325000Y-101910000D03*
D18*
X191325000Y-100000000D03*
X191325000Y-98090000D03*
D34*
X169925000Y-98750000D03*
X167925000Y-97600000D03*
X171925000Y-97600000D03*
X167925000Y-96300000D03*
X171925000Y-96300000D03*
X167925000Y-95000000D03*
D35*
X169925000Y-95000000D03*
D34*
X171925000Y-95000000D03*
X167925000Y-93700000D03*
X171925000Y-93700000D03*
X167925000Y-92400000D03*
X171925000Y-92400000D03*
X169925000Y-91250000D03*
X169925000Y-108750000D03*
X167925000Y-107600000D03*
X171925000Y-107600000D03*
X167925000Y-106300000D03*
X171925000Y-106300000D03*
X167925000Y-105000000D03*
D35*
X169925000Y-105000000D03*
D34*
X171925000Y-105000000D03*
X167925000Y-103700000D03*
X171925000Y-103700000D03*
X167925000Y-102400000D03*
X171925000Y-102400000D03*
X169925000Y-101250000D03*
%TD*%
D12*
%TO.C,Q1*%
X203470000Y-119000000D03*
D13*
X183610000Y-113550000D03*
D14*
X183610000Y-119000000D03*
X183610000Y-124450000D03*
%TD*%
D26*
%TO.C,J8*%
X157960000Y-92460000D03*
X157960000Y-95000000D03*
X157960000Y-97540000D03*
X163040000Y-97540000D03*
X163040000Y-95000000D03*
X163040000Y-92460000D03*
%TD*%
D21*
%TO.C,C11*%
X132500000Y-106937500D03*
X132500000Y-110062500D03*
%TD*%
D30*
%TO.C,R11*%
X153050000Y-103500000D03*
X149950000Y-103500000D03*
%TD*%
D26*
%TO.C,J1*%
X166000000Y-69500000D03*
X166000000Y-72040000D03*
X166000000Y-74580000D03*
X171080000Y-74580000D03*
X171080000Y-72040000D03*
X171080000Y-69500000D03*
%TD*%
D36*
%TO.C,Z1*%
X146500000Y-78850000D03*
X146500000Y-83150000D03*
%TD*%
D32*
%TO.C,R17*%
X134500000Y-85950000D03*
X134500000Y-89050000D03*
%TD*%
D28*
%TO.C,R14*%
X135500000Y-103500000D03*
X137500000Y-103500000D03*
%TD*%
D12*
%TO.C,D3*%
X133030000Y-62000000D03*
D13*
X152890000Y-67450000D03*
D14*
X152890000Y-62000000D03*
X152890000Y-56550000D03*
%TD*%
D19*
%TO.C,R15*%
X131000000Y-103500000D03*
X131000000Y-101500000D03*
%TD*%
D17*
%TO.C,C9*%
X191175000Y-71500000D03*
D18*
X206175000Y-71500000D03*
%TD*%
D37*
%TO.C,D8*%
X143500000Y-82575000D03*
X143500000Y-79425000D03*
%TD*%
D33*
%TO.C,C15*%
X139942750Y-97500000D03*
X143067750Y-97500000D03*
%TD*%
D38*
%TO.C,T1*%
X141460000Y-71900000D03*
X144000000Y-71900000D03*
X146540000Y-71900000D03*
X146540000Y-60100000D03*
X144000000Y-60100000D03*
X141460000Y-60100000D03*
%TD*%
D39*
%TO.C,R2*%
X145437500Y-75500000D03*
X148562500Y-75500000D03*
%TD*%
D40*
%TO.C,R1*%
X138500000Y-79037500D03*
X138500000Y-81962500D03*
%TD*%
D39*
%TO.C,R3*%
X145937500Y-56500000D03*
X149062500Y-56500000D03*
%TD*%
D41*
%TO.C,C23*%
X131562500Y-87000000D03*
X128437500Y-87000000D03*
%TD*%
D28*
%TO.C,R19*%
X144000000Y-89500000D03*
X146000000Y-89500000D03*
%TD*%
D26*
%TO.C,J9*%
X166000000Y-56500000D03*
X166000000Y-59040000D03*
X166000000Y-61580000D03*
X171080000Y-61580000D03*
X171080000Y-59040000D03*
X171080000Y-56500000D03*
%TD*%
D42*
%TO.C,R6*%
X136450000Y-77000000D03*
X139550000Y-77000000D03*
%TD*%
D43*
%TO.C,U2*%
X197975000Y-115405000D03*
X197975000Y-114135000D03*
X197975000Y-112865000D03*
X197975000Y-111595000D03*
X193025000Y-111595000D03*
X193025000Y-112865000D03*
X193025000Y-114135000D03*
X193025000Y-115405000D03*
%TD*%
D44*
%TO.C,Q2*%
X141300000Y-74545000D03*
X141300000Y-76455000D03*
X143700000Y-75500000D03*
%TD*%
D45*
%TO.C,R4*%
X128500000Y-77062500D03*
X128500000Y-73937500D03*
%TD*%
D19*
%TO.C,R13*%
X145000000Y-101500000D03*
X145000000Y-99500000D03*
%TD*%
D23*
%TO.C,C8*%
X149000000Y-95750000D03*
D24*
X149000000Y-92250000D03*
%TD*%
D11*
%TO.C,R9*%
X131000000Y-89500000D03*
X129000000Y-89500000D03*
%TD*%
D46*
%TO.C,J11*%
X200000000Y-131500000D03*
D47*
X200000000Y-133500000D03*
X198000000Y-131500000D03*
X198000000Y-133500000D03*
X196000000Y-131500000D03*
X196000000Y-133500000D03*
X194000000Y-131500000D03*
X194000000Y-133500000D03*
X192000000Y-131500000D03*
X192000000Y-133500000D03*
%TD*%
M02*
