%TF.GenerationSoftware,KiCad,Pcbnew,8.0.1*%
%TF.CreationDate,2024-06-30T23:47:39-04:00*%
%TF.ProjectId,booster-tc,626f6f73-7465-4722-9d74-632e6b696361,rev?*%
%TF.SameCoordinates,Original*%
%TF.FileFunction,Legend,Top*%
%TF.FilePolarity,Positive*%
%FSLAX46Y46*%
G04 Gerber Fmt 4.6, Leading zero omitted, Abs format (unit mm)*
G04 Created by KiCad (PCBNEW 8.0.1) date 2024-06-30 23:47:39*
%MOMM*%
%LPD*%
G01*
G04 APERTURE LIST*
%ADD10C,0.100000*%
%ADD11C,0.200000*%
%ADD12C,0.400000*%
%ADD13C,0.254000*%
%ADD14C,0.080000*%
%ADD15C,0.150000*%
%ADD16C,0.120000*%
%ADD17C,0.000000*%
G04 APERTURE END LIST*
D10*
X167000000Y-89500000D02*
X167500000Y-89500000D01*
X168500000Y-88500000D02*
X168500000Y-88000000D01*
X162000000Y-89500000D02*
X160500000Y-89500000D01*
X139000000Y-83500000D02*
X139500000Y-83500000D01*
X160500000Y-89500000D02*
X160500000Y-90000000D01*
X167500000Y-89500000D02*
X168500000Y-88500000D01*
X162000000Y-89500000D02*
X167000000Y-89500000D01*
X168500000Y-88500000D02*
X168500000Y-88500000D01*
D11*
X174322054Y-132744838D02*
X174988720Y-134744838D01*
X174988720Y-134744838D02*
X175655387Y-132744838D01*
X176322054Y-133982933D02*
X177845864Y-133982933D01*
D10*
X194803884Y-112872419D02*
X194803884Y-113681942D01*
X194803884Y-113681942D02*
X194851503Y-113777180D01*
X194851503Y-113777180D02*
X194899122Y-113824800D01*
X194899122Y-113824800D02*
X194994360Y-113872419D01*
X194994360Y-113872419D02*
X195184836Y-113872419D01*
X195184836Y-113872419D02*
X195280074Y-113824800D01*
X195280074Y-113824800D02*
X195327693Y-113777180D01*
X195327693Y-113777180D02*
X195375312Y-113681942D01*
X195375312Y-113681942D02*
X195375312Y-112872419D01*
X195803884Y-112967657D02*
X195851503Y-112920038D01*
X195851503Y-112920038D02*
X195946741Y-112872419D01*
X195946741Y-112872419D02*
X196184836Y-112872419D01*
X196184836Y-112872419D02*
X196280074Y-112920038D01*
X196280074Y-112920038D02*
X196327693Y-112967657D01*
X196327693Y-112967657D02*
X196375312Y-113062895D01*
X196375312Y-113062895D02*
X196375312Y-113158133D01*
X196375312Y-113158133D02*
X196327693Y-113300990D01*
X196327693Y-113300990D02*
X195756265Y-113872419D01*
X195756265Y-113872419D02*
X196375312Y-113872419D01*
X169862782Y-65025200D02*
X169577068Y-65310914D01*
X169577068Y-65310914D02*
X169005639Y-65596628D01*
X169005639Y-65596628D02*
X167862782Y-65025200D01*
X167862782Y-65025200D02*
X167291353Y-65310914D01*
X167291353Y-65310914D02*
X167005639Y-65596628D01*
D11*
X161822054Y-114244838D02*
X162488720Y-116244838D01*
X162488720Y-116244838D02*
X163155387Y-114244838D01*
X163822054Y-115482933D02*
X165345864Y-115482933D01*
X164583959Y-116244838D02*
X164583959Y-114721028D01*
D12*
X162620299Y-88489676D02*
X160715537Y-88489676D01*
X160715537Y-88489676D02*
X160715537Y-84489676D01*
D10*
X127041979Y-137250038D02*
X127041979Y-135250038D01*
X127041979Y-135250038D02*
X127803884Y-135250038D01*
X127803884Y-135250038D02*
X127994360Y-135345276D01*
X127994360Y-135345276D02*
X128089598Y-135440514D01*
X128089598Y-135440514D02*
X128184836Y-135630990D01*
X128184836Y-135630990D02*
X128184836Y-135916704D01*
X128184836Y-135916704D02*
X128089598Y-136107180D01*
X128089598Y-136107180D02*
X127994360Y-136202419D01*
X127994360Y-136202419D02*
X127803884Y-136297657D01*
X127803884Y-136297657D02*
X127041979Y-136297657D01*
X129708646Y-136202419D02*
X129041979Y-136202419D01*
X129041979Y-137250038D02*
X129041979Y-135250038D01*
X129041979Y-135250038D02*
X129994360Y-135250038D01*
X131899122Y-137059561D02*
X131803884Y-137154800D01*
X131803884Y-137154800D02*
X131518170Y-137250038D01*
X131518170Y-137250038D02*
X131327694Y-137250038D01*
X131327694Y-137250038D02*
X131041979Y-137154800D01*
X131041979Y-137154800D02*
X130851503Y-136964323D01*
X130851503Y-136964323D02*
X130756265Y-136773847D01*
X130756265Y-136773847D02*
X130661027Y-136392895D01*
X130661027Y-136392895D02*
X130661027Y-136107180D01*
X130661027Y-136107180D02*
X130756265Y-135726228D01*
X130756265Y-135726228D02*
X130851503Y-135535752D01*
X130851503Y-135535752D02*
X131041979Y-135345276D01*
X131041979Y-135345276D02*
X131327694Y-135250038D01*
X131327694Y-135250038D02*
X131518170Y-135250038D01*
X131518170Y-135250038D02*
X131803884Y-135345276D01*
X131803884Y-135345276D02*
X131899122Y-135440514D01*
X134946742Y-136202419D02*
X134280075Y-136202419D01*
X134280075Y-137250038D02*
X134280075Y-135250038D01*
X134280075Y-135250038D02*
X135232456Y-135250038D01*
X135994361Y-137250038D02*
X135994361Y-135916704D01*
X135994361Y-136297657D02*
X136089599Y-136107180D01*
X136089599Y-136107180D02*
X136184837Y-136011942D01*
X136184837Y-136011942D02*
X136375313Y-135916704D01*
X136375313Y-135916704D02*
X136565790Y-135916704D01*
X137518170Y-137250038D02*
X137327694Y-137154800D01*
X137327694Y-137154800D02*
X137232456Y-137059561D01*
X137232456Y-137059561D02*
X137137218Y-136869085D01*
X137137218Y-136869085D02*
X137137218Y-136297657D01*
X137137218Y-136297657D02*
X137232456Y-136107180D01*
X137232456Y-136107180D02*
X137327694Y-136011942D01*
X137327694Y-136011942D02*
X137518170Y-135916704D01*
X137518170Y-135916704D02*
X137803885Y-135916704D01*
X137803885Y-135916704D02*
X137994361Y-136011942D01*
X137994361Y-136011942D02*
X138089599Y-136107180D01*
X138089599Y-136107180D02*
X138184837Y-136297657D01*
X138184837Y-136297657D02*
X138184837Y-136869085D01*
X138184837Y-136869085D02*
X138089599Y-137059561D01*
X138089599Y-137059561D02*
X137994361Y-137154800D01*
X137994361Y-137154800D02*
X137803885Y-137250038D01*
X137803885Y-137250038D02*
X137518170Y-137250038D01*
X139041980Y-135916704D02*
X139041980Y-137250038D01*
X139041980Y-136107180D02*
X139137218Y-136011942D01*
X139137218Y-136011942D02*
X139327694Y-135916704D01*
X139327694Y-135916704D02*
X139613409Y-135916704D01*
X139613409Y-135916704D02*
X139803885Y-136011942D01*
X139803885Y-136011942D02*
X139899123Y-136202419D01*
X139899123Y-136202419D02*
X139899123Y-137250038D01*
X140565790Y-135916704D02*
X141327694Y-135916704D01*
X140851504Y-135250038D02*
X140851504Y-136964323D01*
X140851504Y-136964323D02*
X140946742Y-137154800D01*
X140946742Y-137154800D02*
X141137218Y-137250038D01*
X141137218Y-137250038D02*
X141327694Y-137250038D01*
X142756266Y-137154800D02*
X142565790Y-137250038D01*
X142565790Y-137250038D02*
X142184837Y-137250038D01*
X142184837Y-137250038D02*
X141994361Y-137154800D01*
X141994361Y-137154800D02*
X141899123Y-136964323D01*
X141899123Y-136964323D02*
X141899123Y-136202419D01*
X141899123Y-136202419D02*
X141994361Y-136011942D01*
X141994361Y-136011942D02*
X142184837Y-135916704D01*
X142184837Y-135916704D02*
X142565790Y-135916704D01*
X142565790Y-135916704D02*
X142756266Y-136011942D01*
X142756266Y-136011942D02*
X142851504Y-136202419D01*
X142851504Y-136202419D02*
X142851504Y-136392895D01*
X142851504Y-136392895D02*
X141899123Y-136583371D01*
X143708647Y-135916704D02*
X143708647Y-137250038D01*
X143708647Y-136107180D02*
X143803885Y-136011942D01*
X143803885Y-136011942D02*
X143994361Y-135916704D01*
X143994361Y-135916704D02*
X144280076Y-135916704D01*
X144280076Y-135916704D02*
X144470552Y-136011942D01*
X144470552Y-136011942D02*
X144565790Y-136202419D01*
X144565790Y-136202419D02*
X144565790Y-137250038D01*
X146375314Y-137250038D02*
X146375314Y-135250038D01*
X146375314Y-137154800D02*
X146184838Y-137250038D01*
X146184838Y-137250038D02*
X145803885Y-137250038D01*
X145803885Y-137250038D02*
X145613409Y-137154800D01*
X145613409Y-137154800D02*
X145518171Y-137059561D01*
X145518171Y-137059561D02*
X145422933Y-136869085D01*
X145422933Y-136869085D02*
X145422933Y-136297657D01*
X145422933Y-136297657D02*
X145518171Y-136107180D01*
X145518171Y-136107180D02*
X145613409Y-136011942D01*
X145613409Y-136011942D02*
X145803885Y-135916704D01*
X145803885Y-135916704D02*
X146184838Y-135916704D01*
X146184838Y-135916704D02*
X146375314Y-136011942D01*
X148661029Y-135916704D02*
X149137219Y-137250038D01*
X149137219Y-137250038D02*
X149613410Y-135916704D01*
X150280077Y-135440514D02*
X150375315Y-135345276D01*
X150375315Y-135345276D02*
X150565791Y-135250038D01*
X150565791Y-135250038D02*
X151041982Y-135250038D01*
X151041982Y-135250038D02*
X151232458Y-135345276D01*
X151232458Y-135345276D02*
X151327696Y-135440514D01*
X151327696Y-135440514D02*
X151422934Y-135630990D01*
X151422934Y-135630990D02*
X151422934Y-135821466D01*
X151422934Y-135821466D02*
X151327696Y-136107180D01*
X151327696Y-136107180D02*
X150184839Y-137250038D01*
X150184839Y-137250038D02*
X151422934Y-137250038D01*
X155708649Y-135250038D02*
X155899126Y-135250038D01*
X155899126Y-135250038D02*
X156089602Y-135345276D01*
X156089602Y-135345276D02*
X156184840Y-135440514D01*
X156184840Y-135440514D02*
X156280078Y-135630990D01*
X156280078Y-135630990D02*
X156375316Y-136011942D01*
X156375316Y-136011942D02*
X156375316Y-136488133D01*
X156375316Y-136488133D02*
X156280078Y-136869085D01*
X156280078Y-136869085D02*
X156184840Y-137059561D01*
X156184840Y-137059561D02*
X156089602Y-137154800D01*
X156089602Y-137154800D02*
X155899126Y-137250038D01*
X155899126Y-137250038D02*
X155708649Y-137250038D01*
X155708649Y-137250038D02*
X155518173Y-137154800D01*
X155518173Y-137154800D02*
X155422935Y-137059561D01*
X155422935Y-137059561D02*
X155327697Y-136869085D01*
X155327697Y-136869085D02*
X155232459Y-136488133D01*
X155232459Y-136488133D02*
X155232459Y-136011942D01*
X155232459Y-136011942D02*
X155327697Y-135630990D01*
X155327697Y-135630990D02*
X155422935Y-135440514D01*
X155422935Y-135440514D02*
X155518173Y-135345276D01*
X155518173Y-135345276D02*
X155708649Y-135250038D01*
X158089602Y-135250038D02*
X157708649Y-135250038D01*
X157708649Y-135250038D02*
X157518173Y-135345276D01*
X157518173Y-135345276D02*
X157422935Y-135440514D01*
X157422935Y-135440514D02*
X157232459Y-135726228D01*
X157232459Y-135726228D02*
X157137221Y-136107180D01*
X157137221Y-136107180D02*
X157137221Y-136869085D01*
X157137221Y-136869085D02*
X157232459Y-137059561D01*
X157232459Y-137059561D02*
X157327697Y-137154800D01*
X157327697Y-137154800D02*
X157518173Y-137250038D01*
X157518173Y-137250038D02*
X157899126Y-137250038D01*
X157899126Y-137250038D02*
X158089602Y-137154800D01*
X158089602Y-137154800D02*
X158184840Y-137059561D01*
X158184840Y-137059561D02*
X158280078Y-136869085D01*
X158280078Y-136869085D02*
X158280078Y-136392895D01*
X158280078Y-136392895D02*
X158184840Y-136202419D01*
X158184840Y-136202419D02*
X158089602Y-136107180D01*
X158089602Y-136107180D02*
X157899126Y-136011942D01*
X157899126Y-136011942D02*
X157518173Y-136011942D01*
X157518173Y-136011942D02*
X157327697Y-136107180D01*
X157327697Y-136107180D02*
X157232459Y-136202419D01*
X157232459Y-136202419D02*
X157137221Y-136392895D01*
X160565792Y-135154800D02*
X158851507Y-137726228D01*
X161137221Y-135440514D02*
X161232459Y-135345276D01*
X161232459Y-135345276D02*
X161422935Y-135250038D01*
X161422935Y-135250038D02*
X161899126Y-135250038D01*
X161899126Y-135250038D02*
X162089602Y-135345276D01*
X162089602Y-135345276D02*
X162184840Y-135440514D01*
X162184840Y-135440514D02*
X162280078Y-135630990D01*
X162280078Y-135630990D02*
X162280078Y-135821466D01*
X162280078Y-135821466D02*
X162184840Y-136107180D01*
X162184840Y-136107180D02*
X161041983Y-137250038D01*
X161041983Y-137250038D02*
X162280078Y-137250038D01*
X163994364Y-135916704D02*
X163994364Y-137250038D01*
X163518173Y-135154800D02*
X163041983Y-136583371D01*
X163041983Y-136583371D02*
X164280078Y-136583371D01*
X129226109Y-84583333D02*
X128988014Y-84749999D01*
X129226109Y-84869047D02*
X128726109Y-84869047D01*
X128726109Y-84869047D02*
X128726109Y-84678571D01*
X128726109Y-84678571D02*
X128749919Y-84630952D01*
X128749919Y-84630952D02*
X128773728Y-84607142D01*
X128773728Y-84607142D02*
X128821347Y-84583333D01*
X128821347Y-84583333D02*
X128892776Y-84583333D01*
X128892776Y-84583333D02*
X128940395Y-84607142D01*
X128940395Y-84607142D02*
X128964204Y-84630952D01*
X128964204Y-84630952D02*
X128988014Y-84678571D01*
X128988014Y-84678571D02*
X128988014Y-84869047D01*
X128940395Y-84297618D02*
X128916585Y-84345237D01*
X128916585Y-84345237D02*
X128892776Y-84369047D01*
X128892776Y-84369047D02*
X128845157Y-84392856D01*
X128845157Y-84392856D02*
X128821347Y-84392856D01*
X128821347Y-84392856D02*
X128773728Y-84369047D01*
X128773728Y-84369047D02*
X128749919Y-84345237D01*
X128749919Y-84345237D02*
X128726109Y-84297618D01*
X128726109Y-84297618D02*
X128726109Y-84202380D01*
X128726109Y-84202380D02*
X128749919Y-84154761D01*
X128749919Y-84154761D02*
X128773728Y-84130952D01*
X128773728Y-84130952D02*
X128821347Y-84107142D01*
X128821347Y-84107142D02*
X128845157Y-84107142D01*
X128845157Y-84107142D02*
X128892776Y-84130952D01*
X128892776Y-84130952D02*
X128916585Y-84154761D01*
X128916585Y-84154761D02*
X128940395Y-84202380D01*
X128940395Y-84202380D02*
X128940395Y-84297618D01*
X128940395Y-84297618D02*
X128964204Y-84345237D01*
X128964204Y-84345237D02*
X128988014Y-84369047D01*
X128988014Y-84369047D02*
X129035633Y-84392856D01*
X129035633Y-84392856D02*
X129130871Y-84392856D01*
X129130871Y-84392856D02*
X129178490Y-84369047D01*
X129178490Y-84369047D02*
X129202300Y-84345237D01*
X129202300Y-84345237D02*
X129226109Y-84297618D01*
X129226109Y-84297618D02*
X129226109Y-84202380D01*
X129226109Y-84202380D02*
X129202300Y-84154761D01*
X129202300Y-84154761D02*
X129178490Y-84130952D01*
X129178490Y-84130952D02*
X129130871Y-84107142D01*
X129130871Y-84107142D02*
X129035633Y-84107142D01*
X129035633Y-84107142D02*
X128988014Y-84130952D01*
X128988014Y-84130952D02*
X128964204Y-84154761D01*
X128964204Y-84154761D02*
X128940395Y-84202380D01*
X128678490Y-101821428D02*
X128702300Y-101845237D01*
X128702300Y-101845237D02*
X128726109Y-101916666D01*
X128726109Y-101916666D02*
X128726109Y-101964285D01*
X128726109Y-101964285D02*
X128702300Y-102035713D01*
X128702300Y-102035713D02*
X128654680Y-102083332D01*
X128654680Y-102083332D02*
X128607061Y-102107142D01*
X128607061Y-102107142D02*
X128511823Y-102130951D01*
X128511823Y-102130951D02*
X128440395Y-102130951D01*
X128440395Y-102130951D02*
X128345157Y-102107142D01*
X128345157Y-102107142D02*
X128297538Y-102083332D01*
X128297538Y-102083332D02*
X128249919Y-102035713D01*
X128249919Y-102035713D02*
X128226109Y-101964285D01*
X128226109Y-101964285D02*
X128226109Y-101916666D01*
X128226109Y-101916666D02*
X128249919Y-101845237D01*
X128249919Y-101845237D02*
X128273728Y-101821428D01*
X128273728Y-101630951D02*
X128249919Y-101607142D01*
X128249919Y-101607142D02*
X128226109Y-101559523D01*
X128226109Y-101559523D02*
X128226109Y-101440475D01*
X128226109Y-101440475D02*
X128249919Y-101392856D01*
X128249919Y-101392856D02*
X128273728Y-101369047D01*
X128273728Y-101369047D02*
X128321347Y-101345237D01*
X128321347Y-101345237D02*
X128368966Y-101345237D01*
X128368966Y-101345237D02*
X128440395Y-101369047D01*
X128440395Y-101369047D02*
X128726109Y-101654761D01*
X128726109Y-101654761D02*
X128726109Y-101345237D01*
X128226109Y-101035714D02*
X128226109Y-100988095D01*
X128226109Y-100988095D02*
X128249919Y-100940476D01*
X128249919Y-100940476D02*
X128273728Y-100916666D01*
X128273728Y-100916666D02*
X128321347Y-100892857D01*
X128321347Y-100892857D02*
X128416585Y-100869047D01*
X128416585Y-100869047D02*
X128535633Y-100869047D01*
X128535633Y-100869047D02*
X128630871Y-100892857D01*
X128630871Y-100892857D02*
X128678490Y-100916666D01*
X128678490Y-100916666D02*
X128702300Y-100940476D01*
X128702300Y-100940476D02*
X128726109Y-100988095D01*
X128726109Y-100988095D02*
X128726109Y-101035714D01*
X128726109Y-101035714D02*
X128702300Y-101083333D01*
X128702300Y-101083333D02*
X128678490Y-101107142D01*
X128678490Y-101107142D02*
X128630871Y-101130952D01*
X128630871Y-101130952D02*
X128535633Y-101154761D01*
X128535633Y-101154761D02*
X128416585Y-101154761D01*
X128416585Y-101154761D02*
X128321347Y-101130952D01*
X128321347Y-101130952D02*
X128273728Y-101107142D01*
X128273728Y-101107142D02*
X128249919Y-101083333D01*
X128249919Y-101083333D02*
X128226109Y-101035714D01*
X190226109Y-113583333D02*
X189988014Y-113749999D01*
X190226109Y-113869047D02*
X189726109Y-113869047D01*
X189726109Y-113869047D02*
X189726109Y-113678571D01*
X189726109Y-113678571D02*
X189749919Y-113630952D01*
X189749919Y-113630952D02*
X189773728Y-113607142D01*
X189773728Y-113607142D02*
X189821347Y-113583333D01*
X189821347Y-113583333D02*
X189892776Y-113583333D01*
X189892776Y-113583333D02*
X189940395Y-113607142D01*
X189940395Y-113607142D02*
X189964204Y-113630952D01*
X189964204Y-113630952D02*
X189988014Y-113678571D01*
X189988014Y-113678571D02*
X189988014Y-113869047D01*
X189726109Y-113130952D02*
X189726109Y-113369047D01*
X189726109Y-113369047D02*
X189964204Y-113392856D01*
X189964204Y-113392856D02*
X189940395Y-113369047D01*
X189940395Y-113369047D02*
X189916585Y-113321428D01*
X189916585Y-113321428D02*
X189916585Y-113202380D01*
X189916585Y-113202380D02*
X189940395Y-113154761D01*
X189940395Y-113154761D02*
X189964204Y-113130952D01*
X189964204Y-113130952D02*
X190011823Y-113107142D01*
X190011823Y-113107142D02*
X190130871Y-113107142D01*
X190130871Y-113107142D02*
X190178490Y-113130952D01*
X190178490Y-113130952D02*
X190202300Y-113154761D01*
X190202300Y-113154761D02*
X190226109Y-113202380D01*
X190226109Y-113202380D02*
X190226109Y-113321428D01*
X190226109Y-113321428D02*
X190202300Y-113369047D01*
X190202300Y-113369047D02*
X190178490Y-113392856D01*
X142678490Y-93821428D02*
X142702300Y-93845237D01*
X142702300Y-93845237D02*
X142726109Y-93916666D01*
X142726109Y-93916666D02*
X142726109Y-93964285D01*
X142726109Y-93964285D02*
X142702300Y-94035713D01*
X142702300Y-94035713D02*
X142654680Y-94083332D01*
X142654680Y-94083332D02*
X142607061Y-94107142D01*
X142607061Y-94107142D02*
X142511823Y-94130951D01*
X142511823Y-94130951D02*
X142440395Y-94130951D01*
X142440395Y-94130951D02*
X142345157Y-94107142D01*
X142345157Y-94107142D02*
X142297538Y-94083332D01*
X142297538Y-94083332D02*
X142249919Y-94035713D01*
X142249919Y-94035713D02*
X142226109Y-93964285D01*
X142226109Y-93964285D02*
X142226109Y-93916666D01*
X142226109Y-93916666D02*
X142249919Y-93845237D01*
X142249919Y-93845237D02*
X142273728Y-93821428D01*
X142726109Y-93345237D02*
X142726109Y-93630951D01*
X142726109Y-93488094D02*
X142226109Y-93488094D01*
X142226109Y-93488094D02*
X142297538Y-93535713D01*
X142297538Y-93535713D02*
X142345157Y-93583332D01*
X142345157Y-93583332D02*
X142368966Y-93630951D01*
X142226109Y-92916666D02*
X142226109Y-93011904D01*
X142226109Y-93011904D02*
X142249919Y-93059523D01*
X142249919Y-93059523D02*
X142273728Y-93083333D01*
X142273728Y-93083333D02*
X142345157Y-93130952D01*
X142345157Y-93130952D02*
X142440395Y-93154761D01*
X142440395Y-93154761D02*
X142630871Y-93154761D01*
X142630871Y-93154761D02*
X142678490Y-93130952D01*
X142678490Y-93130952D02*
X142702300Y-93107142D01*
X142702300Y-93107142D02*
X142726109Y-93059523D01*
X142726109Y-93059523D02*
X142726109Y-92964285D01*
X142726109Y-92964285D02*
X142702300Y-92916666D01*
X142702300Y-92916666D02*
X142678490Y-92892857D01*
X142678490Y-92892857D02*
X142630871Y-92869047D01*
X142630871Y-92869047D02*
X142511823Y-92869047D01*
X142511823Y-92869047D02*
X142464204Y-92892857D01*
X142464204Y-92892857D02*
X142440395Y-92916666D01*
X142440395Y-92916666D02*
X142416585Y-92964285D01*
X142416585Y-92964285D02*
X142416585Y-93059523D01*
X142416585Y-93059523D02*
X142440395Y-93107142D01*
X142440395Y-93107142D02*
X142464204Y-93130952D01*
X142464204Y-93130952D02*
X142511823Y-93154761D01*
D13*
X142183571Y-130953365D02*
X142123095Y-131013842D01*
X142123095Y-131013842D02*
X141941666Y-131074318D01*
X141941666Y-131074318D02*
X141820714Y-131074318D01*
X141820714Y-131074318D02*
X141639285Y-131013842D01*
X141639285Y-131013842D02*
X141518333Y-130892889D01*
X141518333Y-130892889D02*
X141457856Y-130771937D01*
X141457856Y-130771937D02*
X141397380Y-130530032D01*
X141397380Y-130530032D02*
X141397380Y-130348603D01*
X141397380Y-130348603D02*
X141457856Y-130106699D01*
X141457856Y-130106699D02*
X141518333Y-129985746D01*
X141518333Y-129985746D02*
X141639285Y-129864794D01*
X141639285Y-129864794D02*
X141820714Y-129804318D01*
X141820714Y-129804318D02*
X141941666Y-129804318D01*
X141941666Y-129804318D02*
X142123095Y-129864794D01*
X142123095Y-129864794D02*
X142183571Y-129925270D01*
X143393095Y-131074318D02*
X142667380Y-131074318D01*
X143030237Y-131074318D02*
X143030237Y-129804318D01*
X143030237Y-129804318D02*
X142909285Y-129985746D01*
X142909285Y-129985746D02*
X142788333Y-130106699D01*
X142788333Y-130106699D02*
X142667380Y-130167175D01*
X143876904Y-129925270D02*
X143937380Y-129864794D01*
X143937380Y-129864794D02*
X144058333Y-129804318D01*
X144058333Y-129804318D02*
X144360714Y-129804318D01*
X144360714Y-129804318D02*
X144481666Y-129864794D01*
X144481666Y-129864794D02*
X144542142Y-129925270D01*
X144542142Y-129925270D02*
X144602619Y-130046222D01*
X144602619Y-130046222D02*
X144602619Y-130167175D01*
X144602619Y-130167175D02*
X144542142Y-130348603D01*
X144542142Y-130348603D02*
X143816428Y-131074318D01*
X143816428Y-131074318D02*
X144602619Y-131074318D01*
D14*
X142775000Y-100657756D02*
X142658333Y-100491090D01*
X142575000Y-100657756D02*
X142575000Y-100307756D01*
X142575000Y-100307756D02*
X142708333Y-100307756D01*
X142708333Y-100307756D02*
X142741667Y-100324423D01*
X142741667Y-100324423D02*
X142758333Y-100341090D01*
X142758333Y-100341090D02*
X142775000Y-100374423D01*
X142775000Y-100374423D02*
X142775000Y-100424423D01*
X142775000Y-100424423D02*
X142758333Y-100457756D01*
X142758333Y-100457756D02*
X142741667Y-100474423D01*
X142741667Y-100474423D02*
X142708333Y-100491090D01*
X142708333Y-100491090D02*
X142575000Y-100491090D01*
X143108333Y-100657756D02*
X142908333Y-100657756D01*
X143008333Y-100657756D02*
X143008333Y-100307756D01*
X143008333Y-100307756D02*
X142975000Y-100357756D01*
X142975000Y-100357756D02*
X142941667Y-100391090D01*
X142941667Y-100391090D02*
X142908333Y-100407756D01*
X143241666Y-100341090D02*
X143258333Y-100324423D01*
X143258333Y-100324423D02*
X143291666Y-100307756D01*
X143291666Y-100307756D02*
X143375000Y-100307756D01*
X143375000Y-100307756D02*
X143408333Y-100324423D01*
X143408333Y-100324423D02*
X143425000Y-100341090D01*
X143425000Y-100341090D02*
X143441666Y-100374423D01*
X143441666Y-100374423D02*
X143441666Y-100407756D01*
X143441666Y-100407756D02*
X143425000Y-100457756D01*
X143425000Y-100457756D02*
X143225000Y-100657756D01*
X143225000Y-100657756D02*
X143441666Y-100657756D01*
D10*
X127678490Y-69583333D02*
X127702300Y-69607142D01*
X127702300Y-69607142D02*
X127726109Y-69678571D01*
X127726109Y-69678571D02*
X127726109Y-69726190D01*
X127726109Y-69726190D02*
X127702300Y-69797618D01*
X127702300Y-69797618D02*
X127654680Y-69845237D01*
X127654680Y-69845237D02*
X127607061Y-69869047D01*
X127607061Y-69869047D02*
X127511823Y-69892856D01*
X127511823Y-69892856D02*
X127440395Y-69892856D01*
X127440395Y-69892856D02*
X127345157Y-69869047D01*
X127345157Y-69869047D02*
X127297538Y-69845237D01*
X127297538Y-69845237D02*
X127249919Y-69797618D01*
X127249919Y-69797618D02*
X127226109Y-69726190D01*
X127226109Y-69726190D02*
X127226109Y-69678571D01*
X127226109Y-69678571D02*
X127249919Y-69607142D01*
X127249919Y-69607142D02*
X127273728Y-69583333D01*
X127226109Y-69416666D02*
X127226109Y-69107142D01*
X127226109Y-69107142D02*
X127416585Y-69273809D01*
X127416585Y-69273809D02*
X127416585Y-69202380D01*
X127416585Y-69202380D02*
X127440395Y-69154761D01*
X127440395Y-69154761D02*
X127464204Y-69130952D01*
X127464204Y-69130952D02*
X127511823Y-69107142D01*
X127511823Y-69107142D02*
X127630871Y-69107142D01*
X127630871Y-69107142D02*
X127678490Y-69130952D01*
X127678490Y-69130952D02*
X127702300Y-69154761D01*
X127702300Y-69154761D02*
X127726109Y-69202380D01*
X127726109Y-69202380D02*
X127726109Y-69345237D01*
X127726109Y-69345237D02*
X127702300Y-69392856D01*
X127702300Y-69392856D02*
X127678490Y-69416666D01*
X140916666Y-80678490D02*
X140892857Y-80702300D01*
X140892857Y-80702300D02*
X140821428Y-80726109D01*
X140821428Y-80726109D02*
X140773809Y-80726109D01*
X140773809Y-80726109D02*
X140702381Y-80702300D01*
X140702381Y-80702300D02*
X140654762Y-80654680D01*
X140654762Y-80654680D02*
X140630952Y-80607061D01*
X140630952Y-80607061D02*
X140607143Y-80511823D01*
X140607143Y-80511823D02*
X140607143Y-80440395D01*
X140607143Y-80440395D02*
X140630952Y-80345157D01*
X140630952Y-80345157D02*
X140654762Y-80297538D01*
X140654762Y-80297538D02*
X140702381Y-80249919D01*
X140702381Y-80249919D02*
X140773809Y-80226109D01*
X140773809Y-80226109D02*
X140821428Y-80226109D01*
X140821428Y-80226109D02*
X140892857Y-80249919D01*
X140892857Y-80249919D02*
X140916666Y-80273728D01*
X141345238Y-80392776D02*
X141345238Y-80726109D01*
X141226190Y-80202300D02*
X141107143Y-80559442D01*
X141107143Y-80559442D02*
X141416666Y-80559442D01*
X140130952Y-55726109D02*
X140130952Y-55226109D01*
X140130952Y-55226109D02*
X140250000Y-55226109D01*
X140250000Y-55226109D02*
X140321428Y-55249919D01*
X140321428Y-55249919D02*
X140369047Y-55297538D01*
X140369047Y-55297538D02*
X140392857Y-55345157D01*
X140392857Y-55345157D02*
X140416666Y-55440395D01*
X140416666Y-55440395D02*
X140416666Y-55511823D01*
X140416666Y-55511823D02*
X140392857Y-55607061D01*
X140392857Y-55607061D02*
X140369047Y-55654680D01*
X140369047Y-55654680D02*
X140321428Y-55702300D01*
X140321428Y-55702300D02*
X140250000Y-55726109D01*
X140250000Y-55726109D02*
X140130952Y-55726109D01*
X140845238Y-55226109D02*
X140750000Y-55226109D01*
X140750000Y-55226109D02*
X140702381Y-55249919D01*
X140702381Y-55249919D02*
X140678571Y-55273728D01*
X140678571Y-55273728D02*
X140630952Y-55345157D01*
X140630952Y-55345157D02*
X140607143Y-55440395D01*
X140607143Y-55440395D02*
X140607143Y-55630871D01*
X140607143Y-55630871D02*
X140630952Y-55678490D01*
X140630952Y-55678490D02*
X140654762Y-55702300D01*
X140654762Y-55702300D02*
X140702381Y-55726109D01*
X140702381Y-55726109D02*
X140797619Y-55726109D01*
X140797619Y-55726109D02*
X140845238Y-55702300D01*
X140845238Y-55702300D02*
X140869047Y-55678490D01*
X140869047Y-55678490D02*
X140892857Y-55630871D01*
X140892857Y-55630871D02*
X140892857Y-55511823D01*
X140892857Y-55511823D02*
X140869047Y-55464204D01*
X140869047Y-55464204D02*
X140845238Y-55440395D01*
X140845238Y-55440395D02*
X140797619Y-55416585D01*
X140797619Y-55416585D02*
X140702381Y-55416585D01*
X140702381Y-55416585D02*
X140654762Y-55440395D01*
X140654762Y-55440395D02*
X140630952Y-55464204D01*
X140630952Y-55464204D02*
X140607143Y-55511823D01*
D13*
X137788333Y-107453365D02*
X137727857Y-107513842D01*
X137727857Y-107513842D02*
X137546428Y-107574318D01*
X137546428Y-107574318D02*
X137425476Y-107574318D01*
X137425476Y-107574318D02*
X137244047Y-107513842D01*
X137244047Y-107513842D02*
X137123095Y-107392889D01*
X137123095Y-107392889D02*
X137062618Y-107271937D01*
X137062618Y-107271937D02*
X137002142Y-107030032D01*
X137002142Y-107030032D02*
X137002142Y-106848603D01*
X137002142Y-106848603D02*
X137062618Y-106606699D01*
X137062618Y-106606699D02*
X137123095Y-106485746D01*
X137123095Y-106485746D02*
X137244047Y-106364794D01*
X137244047Y-106364794D02*
X137425476Y-106304318D01*
X137425476Y-106304318D02*
X137546428Y-106304318D01*
X137546428Y-106304318D02*
X137727857Y-106364794D01*
X137727857Y-106364794D02*
X137788333Y-106425270D01*
X138997857Y-107574318D02*
X138272142Y-107574318D01*
X138634999Y-107574318D02*
X138634999Y-106304318D01*
X138634999Y-106304318D02*
X138514047Y-106485746D01*
X138514047Y-106485746D02*
X138393095Y-106606699D01*
X138393095Y-106606699D02*
X138272142Y-106667175D01*
D10*
X135672931Y-110739800D02*
X136815789Y-110739800D01*
X136244360Y-111311228D02*
X136244360Y-110168371D01*
D15*
X196333333Y-99859580D02*
X196285714Y-99907200D01*
X196285714Y-99907200D02*
X196142857Y-99954819D01*
X196142857Y-99954819D02*
X196047619Y-99954819D01*
X196047619Y-99954819D02*
X195904762Y-99907200D01*
X195904762Y-99907200D02*
X195809524Y-99811961D01*
X195809524Y-99811961D02*
X195761905Y-99716723D01*
X195761905Y-99716723D02*
X195714286Y-99526247D01*
X195714286Y-99526247D02*
X195714286Y-99383390D01*
X195714286Y-99383390D02*
X195761905Y-99192914D01*
X195761905Y-99192914D02*
X195809524Y-99097676D01*
X195809524Y-99097676D02*
X195904762Y-99002438D01*
X195904762Y-99002438D02*
X196047619Y-98954819D01*
X196047619Y-98954819D02*
X196142857Y-98954819D01*
X196142857Y-98954819D02*
X196285714Y-99002438D01*
X196285714Y-99002438D02*
X196333333Y-99050057D01*
X196666667Y-98954819D02*
X197333333Y-98954819D01*
X197333333Y-98954819D02*
X196904762Y-99954819D01*
D10*
X147678490Y-101321428D02*
X147702300Y-101345237D01*
X147702300Y-101345237D02*
X147726109Y-101416666D01*
X147726109Y-101416666D02*
X147726109Y-101464285D01*
X147726109Y-101464285D02*
X147702300Y-101535713D01*
X147702300Y-101535713D02*
X147654680Y-101583332D01*
X147654680Y-101583332D02*
X147607061Y-101607142D01*
X147607061Y-101607142D02*
X147511823Y-101630951D01*
X147511823Y-101630951D02*
X147440395Y-101630951D01*
X147440395Y-101630951D02*
X147345157Y-101607142D01*
X147345157Y-101607142D02*
X147297538Y-101583332D01*
X147297538Y-101583332D02*
X147249919Y-101535713D01*
X147249919Y-101535713D02*
X147226109Y-101464285D01*
X147226109Y-101464285D02*
X147226109Y-101416666D01*
X147226109Y-101416666D02*
X147249919Y-101345237D01*
X147249919Y-101345237D02*
X147273728Y-101321428D01*
X147726109Y-100845237D02*
X147726109Y-101130951D01*
X147726109Y-100988094D02*
X147226109Y-100988094D01*
X147226109Y-100988094D02*
X147297538Y-101035713D01*
X147297538Y-101035713D02*
X147345157Y-101083332D01*
X147345157Y-101083332D02*
X147368966Y-101130951D01*
X147440395Y-100559523D02*
X147416585Y-100607142D01*
X147416585Y-100607142D02*
X147392776Y-100630952D01*
X147392776Y-100630952D02*
X147345157Y-100654761D01*
X147345157Y-100654761D02*
X147321347Y-100654761D01*
X147321347Y-100654761D02*
X147273728Y-100630952D01*
X147273728Y-100630952D02*
X147249919Y-100607142D01*
X147249919Y-100607142D02*
X147226109Y-100559523D01*
X147226109Y-100559523D02*
X147226109Y-100464285D01*
X147226109Y-100464285D02*
X147249919Y-100416666D01*
X147249919Y-100416666D02*
X147273728Y-100392857D01*
X147273728Y-100392857D02*
X147321347Y-100369047D01*
X147321347Y-100369047D02*
X147345157Y-100369047D01*
X147345157Y-100369047D02*
X147392776Y-100392857D01*
X147392776Y-100392857D02*
X147416585Y-100416666D01*
X147416585Y-100416666D02*
X147440395Y-100464285D01*
X147440395Y-100464285D02*
X147440395Y-100559523D01*
X147440395Y-100559523D02*
X147464204Y-100607142D01*
X147464204Y-100607142D02*
X147488014Y-100630952D01*
X147488014Y-100630952D02*
X147535633Y-100654761D01*
X147535633Y-100654761D02*
X147630871Y-100654761D01*
X147630871Y-100654761D02*
X147678490Y-100630952D01*
X147678490Y-100630952D02*
X147702300Y-100607142D01*
X147702300Y-100607142D02*
X147726109Y-100559523D01*
X147726109Y-100559523D02*
X147726109Y-100464285D01*
X147726109Y-100464285D02*
X147702300Y-100416666D01*
X147702300Y-100416666D02*
X147678490Y-100392857D01*
X147678490Y-100392857D02*
X147630871Y-100369047D01*
X147630871Y-100369047D02*
X147535633Y-100369047D01*
X147535633Y-100369047D02*
X147488014Y-100392857D01*
X147488014Y-100392857D02*
X147464204Y-100416666D01*
X147464204Y-100416666D02*
X147440395Y-100464285D01*
X142178490Y-88821428D02*
X142202300Y-88845237D01*
X142202300Y-88845237D02*
X142226109Y-88916666D01*
X142226109Y-88916666D02*
X142226109Y-88964285D01*
X142226109Y-88964285D02*
X142202300Y-89035713D01*
X142202300Y-89035713D02*
X142154680Y-89083332D01*
X142154680Y-89083332D02*
X142107061Y-89107142D01*
X142107061Y-89107142D02*
X142011823Y-89130951D01*
X142011823Y-89130951D02*
X141940395Y-89130951D01*
X141940395Y-89130951D02*
X141845157Y-89107142D01*
X141845157Y-89107142D02*
X141797538Y-89083332D01*
X141797538Y-89083332D02*
X141749919Y-89035713D01*
X141749919Y-89035713D02*
X141726109Y-88964285D01*
X141726109Y-88964285D02*
X141726109Y-88916666D01*
X141726109Y-88916666D02*
X141749919Y-88845237D01*
X141749919Y-88845237D02*
X141773728Y-88821428D01*
X141773728Y-88630951D02*
X141749919Y-88607142D01*
X141749919Y-88607142D02*
X141726109Y-88559523D01*
X141726109Y-88559523D02*
X141726109Y-88440475D01*
X141726109Y-88440475D02*
X141749919Y-88392856D01*
X141749919Y-88392856D02*
X141773728Y-88369047D01*
X141773728Y-88369047D02*
X141821347Y-88345237D01*
X141821347Y-88345237D02*
X141868966Y-88345237D01*
X141868966Y-88345237D02*
X141940395Y-88369047D01*
X141940395Y-88369047D02*
X142226109Y-88654761D01*
X142226109Y-88654761D02*
X142226109Y-88345237D01*
X141773728Y-88154761D02*
X141749919Y-88130952D01*
X141749919Y-88130952D02*
X141726109Y-88083333D01*
X141726109Y-88083333D02*
X141726109Y-87964285D01*
X141726109Y-87964285D02*
X141749919Y-87916666D01*
X141749919Y-87916666D02*
X141773728Y-87892857D01*
X141773728Y-87892857D02*
X141821347Y-87869047D01*
X141821347Y-87869047D02*
X141868966Y-87869047D01*
X141868966Y-87869047D02*
X141940395Y-87892857D01*
X141940395Y-87892857D02*
X142226109Y-88178571D01*
X142226109Y-88178571D02*
X142226109Y-87869047D01*
X140678490Y-101821428D02*
X140702300Y-101845237D01*
X140702300Y-101845237D02*
X140726109Y-101916666D01*
X140726109Y-101916666D02*
X140726109Y-101964285D01*
X140726109Y-101964285D02*
X140702300Y-102035713D01*
X140702300Y-102035713D02*
X140654680Y-102083332D01*
X140654680Y-102083332D02*
X140607061Y-102107142D01*
X140607061Y-102107142D02*
X140511823Y-102130951D01*
X140511823Y-102130951D02*
X140440395Y-102130951D01*
X140440395Y-102130951D02*
X140345157Y-102107142D01*
X140345157Y-102107142D02*
X140297538Y-102083332D01*
X140297538Y-102083332D02*
X140249919Y-102035713D01*
X140249919Y-102035713D02*
X140226109Y-101964285D01*
X140226109Y-101964285D02*
X140226109Y-101916666D01*
X140226109Y-101916666D02*
X140249919Y-101845237D01*
X140249919Y-101845237D02*
X140273728Y-101821428D01*
X140726109Y-101345237D02*
X140726109Y-101630951D01*
X140726109Y-101488094D02*
X140226109Y-101488094D01*
X140226109Y-101488094D02*
X140297538Y-101535713D01*
X140297538Y-101535713D02*
X140345157Y-101583332D01*
X140345157Y-101583332D02*
X140368966Y-101630951D01*
X140726109Y-101107142D02*
X140726109Y-101011904D01*
X140726109Y-101011904D02*
X140702300Y-100964285D01*
X140702300Y-100964285D02*
X140678490Y-100940476D01*
X140678490Y-100940476D02*
X140607061Y-100892857D01*
X140607061Y-100892857D02*
X140511823Y-100869047D01*
X140511823Y-100869047D02*
X140321347Y-100869047D01*
X140321347Y-100869047D02*
X140273728Y-100892857D01*
X140273728Y-100892857D02*
X140249919Y-100916666D01*
X140249919Y-100916666D02*
X140226109Y-100964285D01*
X140226109Y-100964285D02*
X140226109Y-101059523D01*
X140226109Y-101059523D02*
X140249919Y-101107142D01*
X140249919Y-101107142D02*
X140273728Y-101130952D01*
X140273728Y-101130952D02*
X140321347Y-101154761D01*
X140321347Y-101154761D02*
X140440395Y-101154761D01*
X140440395Y-101154761D02*
X140488014Y-101130952D01*
X140488014Y-101130952D02*
X140511823Y-101107142D01*
X140511823Y-101107142D02*
X140535633Y-101059523D01*
X140535633Y-101059523D02*
X140535633Y-100964285D01*
X140535633Y-100964285D02*
X140511823Y-100916666D01*
X140511823Y-100916666D02*
X140488014Y-100892857D01*
X140488014Y-100892857D02*
X140440395Y-100869047D01*
D13*
X208574318Y-100042143D02*
X207304318Y-100042143D01*
X207304318Y-100042143D02*
X207304318Y-99558333D01*
X207304318Y-99558333D02*
X207364794Y-99437381D01*
X207364794Y-99437381D02*
X207425270Y-99376904D01*
X207425270Y-99376904D02*
X207546222Y-99316428D01*
X207546222Y-99316428D02*
X207727651Y-99316428D01*
X207727651Y-99316428D02*
X207848603Y-99376904D01*
X207848603Y-99376904D02*
X207909080Y-99437381D01*
X207909080Y-99437381D02*
X207969556Y-99558333D01*
X207969556Y-99558333D02*
X207969556Y-100042143D01*
X208513842Y-98832619D02*
X208574318Y-98651190D01*
X208574318Y-98651190D02*
X208574318Y-98348809D01*
X208574318Y-98348809D02*
X208513842Y-98227857D01*
X208513842Y-98227857D02*
X208453365Y-98167381D01*
X208453365Y-98167381D02*
X208332413Y-98106904D01*
X208332413Y-98106904D02*
X208211461Y-98106904D01*
X208211461Y-98106904D02*
X208090508Y-98167381D01*
X208090508Y-98167381D02*
X208030032Y-98227857D01*
X208030032Y-98227857D02*
X207969556Y-98348809D01*
X207969556Y-98348809D02*
X207909080Y-98590714D01*
X207909080Y-98590714D02*
X207848603Y-98711666D01*
X207848603Y-98711666D02*
X207788127Y-98772143D01*
X207788127Y-98772143D02*
X207667175Y-98832619D01*
X207667175Y-98832619D02*
X207546222Y-98832619D01*
X207546222Y-98832619D02*
X207425270Y-98772143D01*
X207425270Y-98772143D02*
X207364794Y-98711666D01*
X207364794Y-98711666D02*
X207304318Y-98590714D01*
X207304318Y-98590714D02*
X207304318Y-98288333D01*
X207304318Y-98288333D02*
X207364794Y-98106904D01*
X208574318Y-96897380D02*
X208574318Y-97623095D01*
X208574318Y-97260238D02*
X207304318Y-97260238D01*
X207304318Y-97260238D02*
X207485746Y-97381190D01*
X207485746Y-97381190D02*
X207606699Y-97502142D01*
X207606699Y-97502142D02*
X207667175Y-97623095D01*
D15*
X196333333Y-94359580D02*
X196285714Y-94407200D01*
X196285714Y-94407200D02*
X196142857Y-94454819D01*
X196142857Y-94454819D02*
X196047619Y-94454819D01*
X196047619Y-94454819D02*
X195904762Y-94407200D01*
X195904762Y-94407200D02*
X195809524Y-94311961D01*
X195809524Y-94311961D02*
X195761905Y-94216723D01*
X195761905Y-94216723D02*
X195714286Y-94026247D01*
X195714286Y-94026247D02*
X195714286Y-93883390D01*
X195714286Y-93883390D02*
X195761905Y-93692914D01*
X195761905Y-93692914D02*
X195809524Y-93597676D01*
X195809524Y-93597676D02*
X195904762Y-93502438D01*
X195904762Y-93502438D02*
X196047619Y-93454819D01*
X196047619Y-93454819D02*
X196142857Y-93454819D01*
X196142857Y-93454819D02*
X196285714Y-93502438D01*
X196285714Y-93502438D02*
X196333333Y-93550057D01*
X197238095Y-93454819D02*
X196761905Y-93454819D01*
X196761905Y-93454819D02*
X196714286Y-93931009D01*
X196714286Y-93931009D02*
X196761905Y-93883390D01*
X196761905Y-93883390D02*
X196857143Y-93835771D01*
X196857143Y-93835771D02*
X197095238Y-93835771D01*
X197095238Y-93835771D02*
X197190476Y-93883390D01*
X197190476Y-93883390D02*
X197238095Y-93931009D01*
X197238095Y-93931009D02*
X197285714Y-94026247D01*
X197285714Y-94026247D02*
X197285714Y-94264342D01*
X197285714Y-94264342D02*
X197238095Y-94359580D01*
X197238095Y-94359580D02*
X197190476Y-94407200D01*
X197190476Y-94407200D02*
X197095238Y-94454819D01*
X197095238Y-94454819D02*
X196857143Y-94454819D01*
X196857143Y-94454819D02*
X196761905Y-94407200D01*
X196761905Y-94407200D02*
X196714286Y-94359580D01*
D10*
X145226109Y-87583333D02*
X144988014Y-87749999D01*
X145226109Y-87869047D02*
X144726109Y-87869047D01*
X144726109Y-87869047D02*
X144726109Y-87678571D01*
X144726109Y-87678571D02*
X144749919Y-87630952D01*
X144749919Y-87630952D02*
X144773728Y-87607142D01*
X144773728Y-87607142D02*
X144821347Y-87583333D01*
X144821347Y-87583333D02*
X144892776Y-87583333D01*
X144892776Y-87583333D02*
X144940395Y-87607142D01*
X144940395Y-87607142D02*
X144964204Y-87630952D01*
X144964204Y-87630952D02*
X144988014Y-87678571D01*
X144988014Y-87678571D02*
X144988014Y-87869047D01*
X144726109Y-87416666D02*
X144726109Y-87083333D01*
X144726109Y-87083333D02*
X145226109Y-87297618D01*
D13*
X128760237Y-95574318D02*
X128760237Y-94304318D01*
X130090714Y-95453365D02*
X130030238Y-95513842D01*
X130030238Y-95513842D02*
X129848809Y-95574318D01*
X129848809Y-95574318D02*
X129727857Y-95574318D01*
X129727857Y-95574318D02*
X129546428Y-95513842D01*
X129546428Y-95513842D02*
X129425476Y-95392889D01*
X129425476Y-95392889D02*
X129364999Y-95271937D01*
X129364999Y-95271937D02*
X129304523Y-95030032D01*
X129304523Y-95030032D02*
X129304523Y-94848603D01*
X129304523Y-94848603D02*
X129364999Y-94606699D01*
X129364999Y-94606699D02*
X129425476Y-94485746D01*
X129425476Y-94485746D02*
X129546428Y-94364794D01*
X129546428Y-94364794D02*
X129727857Y-94304318D01*
X129727857Y-94304318D02*
X129848809Y-94304318D01*
X129848809Y-94304318D02*
X130030238Y-94364794D01*
X130030238Y-94364794D02*
X130090714Y-94425270D01*
X131300238Y-95574318D02*
X130574523Y-95574318D01*
X130937380Y-95574318D02*
X130937380Y-94304318D01*
X130937380Y-94304318D02*
X130816428Y-94485746D01*
X130816428Y-94485746D02*
X130695476Y-94606699D01*
X130695476Y-94606699D02*
X130574523Y-94667175D01*
D10*
X140178490Y-93821428D02*
X140202300Y-93845237D01*
X140202300Y-93845237D02*
X140226109Y-93916666D01*
X140226109Y-93916666D02*
X140226109Y-93964285D01*
X140226109Y-93964285D02*
X140202300Y-94035713D01*
X140202300Y-94035713D02*
X140154680Y-94083332D01*
X140154680Y-94083332D02*
X140107061Y-94107142D01*
X140107061Y-94107142D02*
X140011823Y-94130951D01*
X140011823Y-94130951D02*
X139940395Y-94130951D01*
X139940395Y-94130951D02*
X139845157Y-94107142D01*
X139845157Y-94107142D02*
X139797538Y-94083332D01*
X139797538Y-94083332D02*
X139749919Y-94035713D01*
X139749919Y-94035713D02*
X139726109Y-93964285D01*
X139726109Y-93964285D02*
X139726109Y-93916666D01*
X139726109Y-93916666D02*
X139749919Y-93845237D01*
X139749919Y-93845237D02*
X139773728Y-93821428D01*
X140226109Y-93345237D02*
X140226109Y-93630951D01*
X140226109Y-93488094D02*
X139726109Y-93488094D01*
X139726109Y-93488094D02*
X139797538Y-93535713D01*
X139797538Y-93535713D02*
X139845157Y-93583332D01*
X139845157Y-93583332D02*
X139868966Y-93630951D01*
X139726109Y-93178571D02*
X139726109Y-92845238D01*
X139726109Y-92845238D02*
X140226109Y-93059523D01*
X151178571Y-99726109D02*
X151011905Y-99488014D01*
X150892857Y-99726109D02*
X150892857Y-99226109D01*
X150892857Y-99226109D02*
X151083333Y-99226109D01*
X151083333Y-99226109D02*
X151130952Y-99249919D01*
X151130952Y-99249919D02*
X151154762Y-99273728D01*
X151154762Y-99273728D02*
X151178571Y-99321347D01*
X151178571Y-99321347D02*
X151178571Y-99392776D01*
X151178571Y-99392776D02*
X151154762Y-99440395D01*
X151154762Y-99440395D02*
X151130952Y-99464204D01*
X151130952Y-99464204D02*
X151083333Y-99488014D01*
X151083333Y-99488014D02*
X150892857Y-99488014D01*
X151654762Y-99726109D02*
X151369048Y-99726109D01*
X151511905Y-99726109D02*
X151511905Y-99226109D01*
X151511905Y-99226109D02*
X151464286Y-99297538D01*
X151464286Y-99297538D02*
X151416667Y-99345157D01*
X151416667Y-99345157D02*
X151369048Y-99368966D01*
X151964285Y-99226109D02*
X152011904Y-99226109D01*
X152011904Y-99226109D02*
X152059523Y-99249919D01*
X152059523Y-99249919D02*
X152083333Y-99273728D01*
X152083333Y-99273728D02*
X152107142Y-99321347D01*
X152107142Y-99321347D02*
X152130952Y-99416585D01*
X152130952Y-99416585D02*
X152130952Y-99535633D01*
X152130952Y-99535633D02*
X152107142Y-99630871D01*
X152107142Y-99630871D02*
X152083333Y-99678490D01*
X152083333Y-99678490D02*
X152059523Y-99702300D01*
X152059523Y-99702300D02*
X152011904Y-99726109D01*
X152011904Y-99726109D02*
X151964285Y-99726109D01*
X151964285Y-99726109D02*
X151916666Y-99702300D01*
X151916666Y-99702300D02*
X151892857Y-99678490D01*
X151892857Y-99678490D02*
X151869047Y-99630871D01*
X151869047Y-99630871D02*
X151845238Y-99535633D01*
X151845238Y-99535633D02*
X151845238Y-99416585D01*
X151845238Y-99416585D02*
X151869047Y-99321347D01*
X151869047Y-99321347D02*
X151892857Y-99273728D01*
X151892857Y-99273728D02*
X151916666Y-99249919D01*
X151916666Y-99249919D02*
X151964285Y-99226109D01*
D13*
X134788333Y-69953365D02*
X134727857Y-70013842D01*
X134727857Y-70013842D02*
X134546428Y-70074318D01*
X134546428Y-70074318D02*
X134425476Y-70074318D01*
X134425476Y-70074318D02*
X134244047Y-70013842D01*
X134244047Y-70013842D02*
X134123095Y-69892889D01*
X134123095Y-69892889D02*
X134062618Y-69771937D01*
X134062618Y-69771937D02*
X134002142Y-69530032D01*
X134002142Y-69530032D02*
X134002142Y-69348603D01*
X134002142Y-69348603D02*
X134062618Y-69106699D01*
X134062618Y-69106699D02*
X134123095Y-68985746D01*
X134123095Y-68985746D02*
X134244047Y-68864794D01*
X134244047Y-68864794D02*
X134425476Y-68804318D01*
X134425476Y-68804318D02*
X134546428Y-68804318D01*
X134546428Y-68804318D02*
X134727857Y-68864794D01*
X134727857Y-68864794D02*
X134788333Y-68925270D01*
X135272142Y-68925270D02*
X135332618Y-68864794D01*
X135332618Y-68864794D02*
X135453571Y-68804318D01*
X135453571Y-68804318D02*
X135755952Y-68804318D01*
X135755952Y-68804318D02*
X135876904Y-68864794D01*
X135876904Y-68864794D02*
X135937380Y-68925270D01*
X135937380Y-68925270D02*
X135997857Y-69046222D01*
X135997857Y-69046222D02*
X135997857Y-69167175D01*
X135997857Y-69167175D02*
X135937380Y-69348603D01*
X135937380Y-69348603D02*
X135211666Y-70074318D01*
X135211666Y-70074318D02*
X135997857Y-70074318D01*
D10*
X132672931Y-73239800D02*
X133815789Y-73239800D01*
X133244360Y-73811228D02*
X133244360Y-72668371D01*
D15*
X135238095Y-94454819D02*
X135238095Y-95264342D01*
X135238095Y-95264342D02*
X135285714Y-95359580D01*
X135285714Y-95359580D02*
X135333333Y-95407200D01*
X135333333Y-95407200D02*
X135428571Y-95454819D01*
X135428571Y-95454819D02*
X135619047Y-95454819D01*
X135619047Y-95454819D02*
X135714285Y-95407200D01*
X135714285Y-95407200D02*
X135761904Y-95359580D01*
X135761904Y-95359580D02*
X135809523Y-95264342D01*
X135809523Y-95264342D02*
X135809523Y-94454819D01*
X136714285Y-94788152D02*
X136714285Y-95454819D01*
X136476190Y-94407200D02*
X136238095Y-95121485D01*
X136238095Y-95121485D02*
X136857142Y-95121485D01*
D13*
X160683571Y-130953365D02*
X160623095Y-131013842D01*
X160623095Y-131013842D02*
X160441666Y-131074318D01*
X160441666Y-131074318D02*
X160320714Y-131074318D01*
X160320714Y-131074318D02*
X160139285Y-131013842D01*
X160139285Y-131013842D02*
X160018333Y-130892889D01*
X160018333Y-130892889D02*
X159957856Y-130771937D01*
X159957856Y-130771937D02*
X159897380Y-130530032D01*
X159897380Y-130530032D02*
X159897380Y-130348603D01*
X159897380Y-130348603D02*
X159957856Y-130106699D01*
X159957856Y-130106699D02*
X160018333Y-129985746D01*
X160018333Y-129985746D02*
X160139285Y-129864794D01*
X160139285Y-129864794D02*
X160320714Y-129804318D01*
X160320714Y-129804318D02*
X160441666Y-129804318D01*
X160441666Y-129804318D02*
X160623095Y-129864794D01*
X160623095Y-129864794D02*
X160683571Y-129925270D01*
X161893095Y-131074318D02*
X161167380Y-131074318D01*
X161530237Y-131074318D02*
X161530237Y-129804318D01*
X161530237Y-129804318D02*
X161409285Y-129985746D01*
X161409285Y-129985746D02*
X161288333Y-130106699D01*
X161288333Y-130106699D02*
X161167380Y-130167175D01*
X162679285Y-129804318D02*
X162800238Y-129804318D01*
X162800238Y-129804318D02*
X162921190Y-129864794D01*
X162921190Y-129864794D02*
X162981666Y-129925270D01*
X162981666Y-129925270D02*
X163042142Y-130046222D01*
X163042142Y-130046222D02*
X163102619Y-130288127D01*
X163102619Y-130288127D02*
X163102619Y-130590508D01*
X163102619Y-130590508D02*
X163042142Y-130832413D01*
X163042142Y-130832413D02*
X162981666Y-130953365D01*
X162981666Y-130953365D02*
X162921190Y-131013842D01*
X162921190Y-131013842D02*
X162800238Y-131074318D01*
X162800238Y-131074318D02*
X162679285Y-131074318D01*
X162679285Y-131074318D02*
X162558333Y-131013842D01*
X162558333Y-131013842D02*
X162497857Y-130953365D01*
X162497857Y-130953365D02*
X162437380Y-130832413D01*
X162437380Y-130832413D02*
X162376904Y-130590508D01*
X162376904Y-130590508D02*
X162376904Y-130288127D01*
X162376904Y-130288127D02*
X162437380Y-130046222D01*
X162437380Y-130046222D02*
X162497857Y-129925270D01*
X162497857Y-129925270D02*
X162558333Y-129864794D01*
X162558333Y-129864794D02*
X162679285Y-129804318D01*
X196288333Y-104953365D02*
X196227857Y-105013842D01*
X196227857Y-105013842D02*
X196046428Y-105074318D01*
X196046428Y-105074318D02*
X195925476Y-105074318D01*
X195925476Y-105074318D02*
X195744047Y-105013842D01*
X195744047Y-105013842D02*
X195623095Y-104892889D01*
X195623095Y-104892889D02*
X195562618Y-104771937D01*
X195562618Y-104771937D02*
X195502142Y-104530032D01*
X195502142Y-104530032D02*
X195502142Y-104348603D01*
X195502142Y-104348603D02*
X195562618Y-104106699D01*
X195562618Y-104106699D02*
X195623095Y-103985746D01*
X195623095Y-103985746D02*
X195744047Y-103864794D01*
X195744047Y-103864794D02*
X195925476Y-103804318D01*
X195925476Y-103804318D02*
X196046428Y-103804318D01*
X196046428Y-103804318D02*
X196227857Y-103864794D01*
X196227857Y-103864794D02*
X196288333Y-103925270D01*
X197376904Y-103804318D02*
X197134999Y-103804318D01*
X197134999Y-103804318D02*
X197014047Y-103864794D01*
X197014047Y-103864794D02*
X196953571Y-103925270D01*
X196953571Y-103925270D02*
X196832618Y-104106699D01*
X196832618Y-104106699D02*
X196772142Y-104348603D01*
X196772142Y-104348603D02*
X196772142Y-104832413D01*
X196772142Y-104832413D02*
X196832618Y-104953365D01*
X196832618Y-104953365D02*
X196893095Y-105013842D01*
X196893095Y-105013842D02*
X197014047Y-105074318D01*
X197014047Y-105074318D02*
X197255952Y-105074318D01*
X197255952Y-105074318D02*
X197376904Y-105013842D01*
X197376904Y-105013842D02*
X197437380Y-104953365D01*
X197437380Y-104953365D02*
X197497857Y-104832413D01*
X197497857Y-104832413D02*
X197497857Y-104530032D01*
X197497857Y-104530032D02*
X197437380Y-104409080D01*
X197437380Y-104409080D02*
X197376904Y-104348603D01*
X197376904Y-104348603D02*
X197255952Y-104288127D01*
X197255952Y-104288127D02*
X197014047Y-104288127D01*
X197014047Y-104288127D02*
X196893095Y-104348603D01*
X196893095Y-104348603D02*
X196832618Y-104409080D01*
X196832618Y-104409080D02*
X196772142Y-104530032D01*
D10*
X194172931Y-107989800D02*
X195315789Y-107989800D01*
X194744360Y-108561228D02*
X194744360Y-107418371D01*
X139726109Y-87821428D02*
X139488014Y-87988094D01*
X139726109Y-88107142D02*
X139226109Y-88107142D01*
X139226109Y-88107142D02*
X139226109Y-87916666D01*
X139226109Y-87916666D02*
X139249919Y-87869047D01*
X139249919Y-87869047D02*
X139273728Y-87845237D01*
X139273728Y-87845237D02*
X139321347Y-87821428D01*
X139321347Y-87821428D02*
X139392776Y-87821428D01*
X139392776Y-87821428D02*
X139440395Y-87845237D01*
X139440395Y-87845237D02*
X139464204Y-87869047D01*
X139464204Y-87869047D02*
X139488014Y-87916666D01*
X139488014Y-87916666D02*
X139488014Y-88107142D01*
X139726109Y-87345237D02*
X139726109Y-87630951D01*
X139726109Y-87488094D02*
X139226109Y-87488094D01*
X139226109Y-87488094D02*
X139297538Y-87535713D01*
X139297538Y-87535713D02*
X139345157Y-87583332D01*
X139345157Y-87583332D02*
X139368966Y-87630951D01*
X139226109Y-86916666D02*
X139226109Y-87011904D01*
X139226109Y-87011904D02*
X139249919Y-87059523D01*
X139249919Y-87059523D02*
X139273728Y-87083333D01*
X139273728Y-87083333D02*
X139345157Y-87130952D01*
X139345157Y-87130952D02*
X139440395Y-87154761D01*
X139440395Y-87154761D02*
X139630871Y-87154761D01*
X139630871Y-87154761D02*
X139678490Y-87130952D01*
X139678490Y-87130952D02*
X139702300Y-87107142D01*
X139702300Y-87107142D02*
X139726109Y-87059523D01*
X139726109Y-87059523D02*
X139726109Y-86964285D01*
X139726109Y-86964285D02*
X139702300Y-86916666D01*
X139702300Y-86916666D02*
X139678490Y-86892857D01*
X139678490Y-86892857D02*
X139630871Y-86869047D01*
X139630871Y-86869047D02*
X139511823Y-86869047D01*
X139511823Y-86869047D02*
X139464204Y-86892857D01*
X139464204Y-86892857D02*
X139440395Y-86916666D01*
X139440395Y-86916666D02*
X139416585Y-86964285D01*
X139416585Y-86964285D02*
X139416585Y-87059523D01*
X139416585Y-87059523D02*
X139440395Y-87107142D01*
X139440395Y-87107142D02*
X139464204Y-87130952D01*
X139464204Y-87130952D02*
X139511823Y-87154761D01*
X137178490Y-87821428D02*
X137202300Y-87845237D01*
X137202300Y-87845237D02*
X137226109Y-87916666D01*
X137226109Y-87916666D02*
X137226109Y-87964285D01*
X137226109Y-87964285D02*
X137202300Y-88035713D01*
X137202300Y-88035713D02*
X137154680Y-88083332D01*
X137154680Y-88083332D02*
X137107061Y-88107142D01*
X137107061Y-88107142D02*
X137011823Y-88130951D01*
X137011823Y-88130951D02*
X136940395Y-88130951D01*
X136940395Y-88130951D02*
X136845157Y-88107142D01*
X136845157Y-88107142D02*
X136797538Y-88083332D01*
X136797538Y-88083332D02*
X136749919Y-88035713D01*
X136749919Y-88035713D02*
X136726109Y-87964285D01*
X136726109Y-87964285D02*
X136726109Y-87916666D01*
X136726109Y-87916666D02*
X136749919Y-87845237D01*
X136749919Y-87845237D02*
X136773728Y-87821428D01*
X136773728Y-87630951D02*
X136749919Y-87607142D01*
X136749919Y-87607142D02*
X136726109Y-87559523D01*
X136726109Y-87559523D02*
X136726109Y-87440475D01*
X136726109Y-87440475D02*
X136749919Y-87392856D01*
X136749919Y-87392856D02*
X136773728Y-87369047D01*
X136773728Y-87369047D02*
X136821347Y-87345237D01*
X136821347Y-87345237D02*
X136868966Y-87345237D01*
X136868966Y-87345237D02*
X136940395Y-87369047D01*
X136940395Y-87369047D02*
X137226109Y-87654761D01*
X137226109Y-87654761D02*
X137226109Y-87345237D01*
X137226109Y-86869047D02*
X137226109Y-87154761D01*
X137226109Y-87011904D02*
X136726109Y-87011904D01*
X136726109Y-87011904D02*
X136797538Y-87059523D01*
X136797538Y-87059523D02*
X136845157Y-87107142D01*
X136845157Y-87107142D02*
X136868966Y-87154761D01*
X136178571Y-100178490D02*
X136154762Y-100202300D01*
X136154762Y-100202300D02*
X136083333Y-100226109D01*
X136083333Y-100226109D02*
X136035714Y-100226109D01*
X136035714Y-100226109D02*
X135964286Y-100202300D01*
X135964286Y-100202300D02*
X135916667Y-100154680D01*
X135916667Y-100154680D02*
X135892857Y-100107061D01*
X135892857Y-100107061D02*
X135869048Y-100011823D01*
X135869048Y-100011823D02*
X135869048Y-99940395D01*
X135869048Y-99940395D02*
X135892857Y-99845157D01*
X135892857Y-99845157D02*
X135916667Y-99797538D01*
X135916667Y-99797538D02*
X135964286Y-99749919D01*
X135964286Y-99749919D02*
X136035714Y-99726109D01*
X136035714Y-99726109D02*
X136083333Y-99726109D01*
X136083333Y-99726109D02*
X136154762Y-99749919D01*
X136154762Y-99749919D02*
X136178571Y-99773728D01*
X136654762Y-100226109D02*
X136369048Y-100226109D01*
X136511905Y-100226109D02*
X136511905Y-99726109D01*
X136511905Y-99726109D02*
X136464286Y-99797538D01*
X136464286Y-99797538D02*
X136416667Y-99845157D01*
X136416667Y-99845157D02*
X136369048Y-99868966D01*
X137083333Y-99892776D02*
X137083333Y-100226109D01*
X136964285Y-99702300D02*
X136845238Y-100059442D01*
X136845238Y-100059442D02*
X137154761Y-100059442D01*
X132678490Y-108821428D02*
X132702300Y-108845237D01*
X132702300Y-108845237D02*
X132726109Y-108916666D01*
X132726109Y-108916666D02*
X132726109Y-108964285D01*
X132726109Y-108964285D02*
X132702300Y-109035713D01*
X132702300Y-109035713D02*
X132654680Y-109083332D01*
X132654680Y-109083332D02*
X132607061Y-109107142D01*
X132607061Y-109107142D02*
X132511823Y-109130951D01*
X132511823Y-109130951D02*
X132440395Y-109130951D01*
X132440395Y-109130951D02*
X132345157Y-109107142D01*
X132345157Y-109107142D02*
X132297538Y-109083332D01*
X132297538Y-109083332D02*
X132249919Y-109035713D01*
X132249919Y-109035713D02*
X132226109Y-108964285D01*
X132226109Y-108964285D02*
X132226109Y-108916666D01*
X132226109Y-108916666D02*
X132249919Y-108845237D01*
X132249919Y-108845237D02*
X132273728Y-108821428D01*
X132726109Y-108345237D02*
X132726109Y-108630951D01*
X132726109Y-108488094D02*
X132226109Y-108488094D01*
X132226109Y-108488094D02*
X132297538Y-108535713D01*
X132297538Y-108535713D02*
X132345157Y-108583332D01*
X132345157Y-108583332D02*
X132368966Y-108630951D01*
X132726109Y-107869047D02*
X132726109Y-108154761D01*
X132726109Y-108011904D02*
X132226109Y-108011904D01*
X132226109Y-108011904D02*
X132297538Y-108059523D01*
X132297538Y-108059523D02*
X132345157Y-108107142D01*
X132345157Y-108107142D02*
X132368966Y-108154761D01*
X151178571Y-103726109D02*
X151011905Y-103488014D01*
X150892857Y-103726109D02*
X150892857Y-103226109D01*
X150892857Y-103226109D02*
X151083333Y-103226109D01*
X151083333Y-103226109D02*
X151130952Y-103249919D01*
X151130952Y-103249919D02*
X151154762Y-103273728D01*
X151154762Y-103273728D02*
X151178571Y-103321347D01*
X151178571Y-103321347D02*
X151178571Y-103392776D01*
X151178571Y-103392776D02*
X151154762Y-103440395D01*
X151154762Y-103440395D02*
X151130952Y-103464204D01*
X151130952Y-103464204D02*
X151083333Y-103488014D01*
X151083333Y-103488014D02*
X150892857Y-103488014D01*
X151654762Y-103726109D02*
X151369048Y-103726109D01*
X151511905Y-103726109D02*
X151511905Y-103226109D01*
X151511905Y-103226109D02*
X151464286Y-103297538D01*
X151464286Y-103297538D02*
X151416667Y-103345157D01*
X151416667Y-103345157D02*
X151369048Y-103368966D01*
X152130952Y-103726109D02*
X151845238Y-103726109D01*
X151988095Y-103726109D02*
X151988095Y-103226109D01*
X151988095Y-103226109D02*
X151940476Y-103297538D01*
X151940476Y-103297538D02*
X151892857Y-103345157D01*
X151892857Y-103345157D02*
X151845238Y-103368966D01*
X146226109Y-81404761D02*
X146226109Y-81071428D01*
X146226109Y-81071428D02*
X146726109Y-81404761D01*
X146726109Y-81404761D02*
X146726109Y-81071428D01*
X146726109Y-80619047D02*
X146726109Y-80904761D01*
X146726109Y-80761904D02*
X146226109Y-80761904D01*
X146226109Y-80761904D02*
X146297538Y-80809523D01*
X146297538Y-80809523D02*
X146345157Y-80857142D01*
X146345157Y-80857142D02*
X146368966Y-80904761D01*
X134726109Y-87821428D02*
X134488014Y-87988094D01*
X134726109Y-88107142D02*
X134226109Y-88107142D01*
X134226109Y-88107142D02*
X134226109Y-87916666D01*
X134226109Y-87916666D02*
X134249919Y-87869047D01*
X134249919Y-87869047D02*
X134273728Y-87845237D01*
X134273728Y-87845237D02*
X134321347Y-87821428D01*
X134321347Y-87821428D02*
X134392776Y-87821428D01*
X134392776Y-87821428D02*
X134440395Y-87845237D01*
X134440395Y-87845237D02*
X134464204Y-87869047D01*
X134464204Y-87869047D02*
X134488014Y-87916666D01*
X134488014Y-87916666D02*
X134488014Y-88107142D01*
X134726109Y-87345237D02*
X134726109Y-87630951D01*
X134726109Y-87488094D02*
X134226109Y-87488094D01*
X134226109Y-87488094D02*
X134297538Y-87535713D01*
X134297538Y-87535713D02*
X134345157Y-87583332D01*
X134345157Y-87583332D02*
X134368966Y-87630951D01*
X134226109Y-87178571D02*
X134226109Y-86845238D01*
X134226109Y-86845238D02*
X134726109Y-87059523D01*
D14*
X136657756Y-103724999D02*
X136491090Y-103841666D01*
X136657756Y-103924999D02*
X136307756Y-103924999D01*
X136307756Y-103924999D02*
X136307756Y-103791666D01*
X136307756Y-103791666D02*
X136324423Y-103758333D01*
X136324423Y-103758333D02*
X136341090Y-103741666D01*
X136341090Y-103741666D02*
X136374423Y-103724999D01*
X136374423Y-103724999D02*
X136424423Y-103724999D01*
X136424423Y-103724999D02*
X136457756Y-103741666D01*
X136457756Y-103741666D02*
X136474423Y-103758333D01*
X136474423Y-103758333D02*
X136491090Y-103791666D01*
X136491090Y-103791666D02*
X136491090Y-103924999D01*
X136657756Y-103391666D02*
X136657756Y-103591666D01*
X136657756Y-103491666D02*
X136307756Y-103491666D01*
X136307756Y-103491666D02*
X136357756Y-103524999D01*
X136357756Y-103524999D02*
X136391090Y-103558333D01*
X136391090Y-103558333D02*
X136407756Y-103591666D01*
X136424423Y-103091666D02*
X136657756Y-103091666D01*
X136291090Y-103175000D02*
X136541090Y-103258333D01*
X136541090Y-103258333D02*
X136541090Y-103041666D01*
X130775000Y-102657756D02*
X130658333Y-102491090D01*
X130575000Y-102657756D02*
X130575000Y-102307756D01*
X130575000Y-102307756D02*
X130708333Y-102307756D01*
X130708333Y-102307756D02*
X130741667Y-102324423D01*
X130741667Y-102324423D02*
X130758333Y-102341090D01*
X130758333Y-102341090D02*
X130775000Y-102374423D01*
X130775000Y-102374423D02*
X130775000Y-102424423D01*
X130775000Y-102424423D02*
X130758333Y-102457756D01*
X130758333Y-102457756D02*
X130741667Y-102474423D01*
X130741667Y-102474423D02*
X130708333Y-102491090D01*
X130708333Y-102491090D02*
X130575000Y-102491090D01*
X131108333Y-102657756D02*
X130908333Y-102657756D01*
X131008333Y-102657756D02*
X131008333Y-102307756D01*
X131008333Y-102307756D02*
X130975000Y-102357756D01*
X130975000Y-102357756D02*
X130941667Y-102391090D01*
X130941667Y-102391090D02*
X130908333Y-102407756D01*
X131425000Y-102307756D02*
X131258333Y-102307756D01*
X131258333Y-102307756D02*
X131241666Y-102474423D01*
X131241666Y-102474423D02*
X131258333Y-102457756D01*
X131258333Y-102457756D02*
X131291666Y-102441090D01*
X131291666Y-102441090D02*
X131375000Y-102441090D01*
X131375000Y-102441090D02*
X131408333Y-102457756D01*
X131408333Y-102457756D02*
X131425000Y-102474423D01*
X131425000Y-102474423D02*
X131441666Y-102507756D01*
X131441666Y-102507756D02*
X131441666Y-102591090D01*
X131441666Y-102591090D02*
X131425000Y-102624423D01*
X131425000Y-102624423D02*
X131408333Y-102641090D01*
X131408333Y-102641090D02*
X131375000Y-102657756D01*
X131375000Y-102657756D02*
X131291666Y-102657756D01*
X131291666Y-102657756D02*
X131258333Y-102641090D01*
X131258333Y-102641090D02*
X131241666Y-102624423D01*
D13*
X198788333Y-71953365D02*
X198727857Y-72013842D01*
X198727857Y-72013842D02*
X198546428Y-72074318D01*
X198546428Y-72074318D02*
X198425476Y-72074318D01*
X198425476Y-72074318D02*
X198244047Y-72013842D01*
X198244047Y-72013842D02*
X198123095Y-71892889D01*
X198123095Y-71892889D02*
X198062618Y-71771937D01*
X198062618Y-71771937D02*
X198002142Y-71530032D01*
X198002142Y-71530032D02*
X198002142Y-71348603D01*
X198002142Y-71348603D02*
X198062618Y-71106699D01*
X198062618Y-71106699D02*
X198123095Y-70985746D01*
X198123095Y-70985746D02*
X198244047Y-70864794D01*
X198244047Y-70864794D02*
X198425476Y-70804318D01*
X198425476Y-70804318D02*
X198546428Y-70804318D01*
X198546428Y-70804318D02*
X198727857Y-70864794D01*
X198727857Y-70864794D02*
X198788333Y-70925270D01*
X199393095Y-72074318D02*
X199634999Y-72074318D01*
X199634999Y-72074318D02*
X199755952Y-72013842D01*
X199755952Y-72013842D02*
X199816428Y-71953365D01*
X199816428Y-71953365D02*
X199937380Y-71771937D01*
X199937380Y-71771937D02*
X199997857Y-71530032D01*
X199997857Y-71530032D02*
X199997857Y-71046222D01*
X199997857Y-71046222D02*
X199937380Y-70925270D01*
X199937380Y-70925270D02*
X199876904Y-70864794D01*
X199876904Y-70864794D02*
X199755952Y-70804318D01*
X199755952Y-70804318D02*
X199514047Y-70804318D01*
X199514047Y-70804318D02*
X199393095Y-70864794D01*
X199393095Y-70864794D02*
X199332618Y-70925270D01*
X199332618Y-70925270D02*
X199272142Y-71046222D01*
X199272142Y-71046222D02*
X199272142Y-71348603D01*
X199272142Y-71348603D02*
X199332618Y-71469556D01*
X199332618Y-71469556D02*
X199393095Y-71530032D01*
X199393095Y-71530032D02*
X199514047Y-71590508D01*
X199514047Y-71590508D02*
X199755952Y-71590508D01*
X199755952Y-71590508D02*
X199876904Y-71530032D01*
X199876904Y-71530032D02*
X199937380Y-71469556D01*
X199937380Y-71469556D02*
X199997857Y-71348603D01*
D10*
X143130952Y-81226109D02*
X143130952Y-80726109D01*
X143130952Y-80726109D02*
X143250000Y-80726109D01*
X143250000Y-80726109D02*
X143321428Y-80749919D01*
X143321428Y-80749919D02*
X143369047Y-80797538D01*
X143369047Y-80797538D02*
X143392857Y-80845157D01*
X143392857Y-80845157D02*
X143416666Y-80940395D01*
X143416666Y-80940395D02*
X143416666Y-81011823D01*
X143416666Y-81011823D02*
X143392857Y-81107061D01*
X143392857Y-81107061D02*
X143369047Y-81154680D01*
X143369047Y-81154680D02*
X143321428Y-81202300D01*
X143321428Y-81202300D02*
X143250000Y-81226109D01*
X143250000Y-81226109D02*
X143130952Y-81226109D01*
X143702381Y-80940395D02*
X143654762Y-80916585D01*
X143654762Y-80916585D02*
X143630952Y-80892776D01*
X143630952Y-80892776D02*
X143607143Y-80845157D01*
X143607143Y-80845157D02*
X143607143Y-80821347D01*
X143607143Y-80821347D02*
X143630952Y-80773728D01*
X143630952Y-80773728D02*
X143654762Y-80749919D01*
X143654762Y-80749919D02*
X143702381Y-80726109D01*
X143702381Y-80726109D02*
X143797619Y-80726109D01*
X143797619Y-80726109D02*
X143845238Y-80749919D01*
X143845238Y-80749919D02*
X143869047Y-80773728D01*
X143869047Y-80773728D02*
X143892857Y-80821347D01*
X143892857Y-80821347D02*
X143892857Y-80845157D01*
X143892857Y-80845157D02*
X143869047Y-80892776D01*
X143869047Y-80892776D02*
X143845238Y-80916585D01*
X143845238Y-80916585D02*
X143797619Y-80940395D01*
X143797619Y-80940395D02*
X143702381Y-80940395D01*
X143702381Y-80940395D02*
X143654762Y-80964204D01*
X143654762Y-80964204D02*
X143630952Y-80988014D01*
X143630952Y-80988014D02*
X143607143Y-81035633D01*
X143607143Y-81035633D02*
X143607143Y-81130871D01*
X143607143Y-81130871D02*
X143630952Y-81178490D01*
X143630952Y-81178490D02*
X143654762Y-81202300D01*
X143654762Y-81202300D02*
X143702381Y-81226109D01*
X143702381Y-81226109D02*
X143797619Y-81226109D01*
X143797619Y-81226109D02*
X143845238Y-81202300D01*
X143845238Y-81202300D02*
X143869047Y-81178490D01*
X143869047Y-81178490D02*
X143892857Y-81130871D01*
X143892857Y-81130871D02*
X143892857Y-81035633D01*
X143892857Y-81035633D02*
X143869047Y-80988014D01*
X143869047Y-80988014D02*
X143845238Y-80964204D01*
X143845238Y-80964204D02*
X143797619Y-80940395D01*
X141178571Y-97678490D02*
X141154762Y-97702300D01*
X141154762Y-97702300D02*
X141083333Y-97726109D01*
X141083333Y-97726109D02*
X141035714Y-97726109D01*
X141035714Y-97726109D02*
X140964286Y-97702300D01*
X140964286Y-97702300D02*
X140916667Y-97654680D01*
X140916667Y-97654680D02*
X140892857Y-97607061D01*
X140892857Y-97607061D02*
X140869048Y-97511823D01*
X140869048Y-97511823D02*
X140869048Y-97440395D01*
X140869048Y-97440395D02*
X140892857Y-97345157D01*
X140892857Y-97345157D02*
X140916667Y-97297538D01*
X140916667Y-97297538D02*
X140964286Y-97249919D01*
X140964286Y-97249919D02*
X141035714Y-97226109D01*
X141035714Y-97226109D02*
X141083333Y-97226109D01*
X141083333Y-97226109D02*
X141154762Y-97249919D01*
X141154762Y-97249919D02*
X141178571Y-97273728D01*
X141654762Y-97726109D02*
X141369048Y-97726109D01*
X141511905Y-97726109D02*
X141511905Y-97226109D01*
X141511905Y-97226109D02*
X141464286Y-97297538D01*
X141464286Y-97297538D02*
X141416667Y-97345157D01*
X141416667Y-97345157D02*
X141369048Y-97368966D01*
X142107142Y-97226109D02*
X141869047Y-97226109D01*
X141869047Y-97226109D02*
X141845238Y-97464204D01*
X141845238Y-97464204D02*
X141869047Y-97440395D01*
X141869047Y-97440395D02*
X141916666Y-97416585D01*
X141916666Y-97416585D02*
X142035714Y-97416585D01*
X142035714Y-97416585D02*
X142083333Y-97440395D01*
X142083333Y-97440395D02*
X142107142Y-97464204D01*
X142107142Y-97464204D02*
X142130952Y-97511823D01*
X142130952Y-97511823D02*
X142130952Y-97630871D01*
X142130952Y-97630871D02*
X142107142Y-97678490D01*
X142107142Y-97678490D02*
X142083333Y-97702300D01*
X142083333Y-97702300D02*
X142035714Y-97726109D01*
X142035714Y-97726109D02*
X141916666Y-97726109D01*
X141916666Y-97726109D02*
X141869047Y-97702300D01*
X141869047Y-97702300D02*
X141845238Y-97678490D01*
D13*
X143304318Y-66967618D02*
X143304318Y-66241904D01*
X144574318Y-66604761D02*
X143304318Y-66604761D01*
X144574318Y-65153332D02*
X144574318Y-65879047D01*
X144574318Y-65516190D02*
X143304318Y-65516190D01*
X143304318Y-65516190D02*
X143485746Y-65637142D01*
X143485746Y-65637142D02*
X143606699Y-65758094D01*
X143606699Y-65758094D02*
X143667175Y-65879047D01*
D10*
X146916666Y-75726109D02*
X146750000Y-75488014D01*
X146630952Y-75726109D02*
X146630952Y-75226109D01*
X146630952Y-75226109D02*
X146821428Y-75226109D01*
X146821428Y-75226109D02*
X146869047Y-75249919D01*
X146869047Y-75249919D02*
X146892857Y-75273728D01*
X146892857Y-75273728D02*
X146916666Y-75321347D01*
X146916666Y-75321347D02*
X146916666Y-75392776D01*
X146916666Y-75392776D02*
X146892857Y-75440395D01*
X146892857Y-75440395D02*
X146869047Y-75464204D01*
X146869047Y-75464204D02*
X146821428Y-75488014D01*
X146821428Y-75488014D02*
X146630952Y-75488014D01*
X147107143Y-75273728D02*
X147130952Y-75249919D01*
X147130952Y-75249919D02*
X147178571Y-75226109D01*
X147178571Y-75226109D02*
X147297619Y-75226109D01*
X147297619Y-75226109D02*
X147345238Y-75249919D01*
X147345238Y-75249919D02*
X147369047Y-75273728D01*
X147369047Y-75273728D02*
X147392857Y-75321347D01*
X147392857Y-75321347D02*
X147392857Y-75368966D01*
X147392857Y-75368966D02*
X147369047Y-75440395D01*
X147369047Y-75440395D02*
X147083333Y-75726109D01*
X147083333Y-75726109D02*
X147392857Y-75726109D01*
X138726109Y-80583333D02*
X138488014Y-80749999D01*
X138726109Y-80869047D02*
X138226109Y-80869047D01*
X138226109Y-80869047D02*
X138226109Y-80678571D01*
X138226109Y-80678571D02*
X138249919Y-80630952D01*
X138249919Y-80630952D02*
X138273728Y-80607142D01*
X138273728Y-80607142D02*
X138321347Y-80583333D01*
X138321347Y-80583333D02*
X138392776Y-80583333D01*
X138392776Y-80583333D02*
X138440395Y-80607142D01*
X138440395Y-80607142D02*
X138464204Y-80630952D01*
X138464204Y-80630952D02*
X138488014Y-80678571D01*
X138488014Y-80678571D02*
X138488014Y-80869047D01*
X138726109Y-80107142D02*
X138726109Y-80392856D01*
X138726109Y-80249999D02*
X138226109Y-80249999D01*
X138226109Y-80249999D02*
X138297538Y-80297618D01*
X138297538Y-80297618D02*
X138345157Y-80345237D01*
X138345157Y-80345237D02*
X138368966Y-80392856D01*
X147416666Y-56726109D02*
X147250000Y-56488014D01*
X147130952Y-56726109D02*
X147130952Y-56226109D01*
X147130952Y-56226109D02*
X147321428Y-56226109D01*
X147321428Y-56226109D02*
X147369047Y-56249919D01*
X147369047Y-56249919D02*
X147392857Y-56273728D01*
X147392857Y-56273728D02*
X147416666Y-56321347D01*
X147416666Y-56321347D02*
X147416666Y-56392776D01*
X147416666Y-56392776D02*
X147392857Y-56440395D01*
X147392857Y-56440395D02*
X147369047Y-56464204D01*
X147369047Y-56464204D02*
X147321428Y-56488014D01*
X147321428Y-56488014D02*
X147130952Y-56488014D01*
X147583333Y-56226109D02*
X147892857Y-56226109D01*
X147892857Y-56226109D02*
X147726190Y-56416585D01*
X147726190Y-56416585D02*
X147797619Y-56416585D01*
X147797619Y-56416585D02*
X147845238Y-56440395D01*
X147845238Y-56440395D02*
X147869047Y-56464204D01*
X147869047Y-56464204D02*
X147892857Y-56511823D01*
X147892857Y-56511823D02*
X147892857Y-56630871D01*
X147892857Y-56630871D02*
X147869047Y-56678490D01*
X147869047Y-56678490D02*
X147845238Y-56702300D01*
X147845238Y-56702300D02*
X147797619Y-56726109D01*
X147797619Y-56726109D02*
X147654762Y-56726109D01*
X147654762Y-56726109D02*
X147607143Y-56702300D01*
X147607143Y-56702300D02*
X147583333Y-56678490D01*
X130678490Y-87321428D02*
X130702300Y-87345237D01*
X130702300Y-87345237D02*
X130726109Y-87416666D01*
X130726109Y-87416666D02*
X130726109Y-87464285D01*
X130726109Y-87464285D02*
X130702300Y-87535713D01*
X130702300Y-87535713D02*
X130654680Y-87583332D01*
X130654680Y-87583332D02*
X130607061Y-87607142D01*
X130607061Y-87607142D02*
X130511823Y-87630951D01*
X130511823Y-87630951D02*
X130440395Y-87630951D01*
X130440395Y-87630951D02*
X130345157Y-87607142D01*
X130345157Y-87607142D02*
X130297538Y-87583332D01*
X130297538Y-87583332D02*
X130249919Y-87535713D01*
X130249919Y-87535713D02*
X130226109Y-87464285D01*
X130226109Y-87464285D02*
X130226109Y-87416666D01*
X130226109Y-87416666D02*
X130249919Y-87345237D01*
X130249919Y-87345237D02*
X130273728Y-87321428D01*
X130273728Y-87130951D02*
X130249919Y-87107142D01*
X130249919Y-87107142D02*
X130226109Y-87059523D01*
X130226109Y-87059523D02*
X130226109Y-86940475D01*
X130226109Y-86940475D02*
X130249919Y-86892856D01*
X130249919Y-86892856D02*
X130273728Y-86869047D01*
X130273728Y-86869047D02*
X130321347Y-86845237D01*
X130321347Y-86845237D02*
X130368966Y-86845237D01*
X130368966Y-86845237D02*
X130440395Y-86869047D01*
X130440395Y-86869047D02*
X130726109Y-87154761D01*
X130726109Y-87154761D02*
X130726109Y-86845237D01*
X130226109Y-86678571D02*
X130226109Y-86369047D01*
X130226109Y-86369047D02*
X130416585Y-86535714D01*
X130416585Y-86535714D02*
X130416585Y-86464285D01*
X130416585Y-86464285D02*
X130440395Y-86416666D01*
X130440395Y-86416666D02*
X130464204Y-86392857D01*
X130464204Y-86392857D02*
X130511823Y-86369047D01*
X130511823Y-86369047D02*
X130630871Y-86369047D01*
X130630871Y-86369047D02*
X130678490Y-86392857D01*
X130678490Y-86392857D02*
X130702300Y-86416666D01*
X130702300Y-86416666D02*
X130726109Y-86464285D01*
X130726109Y-86464285D02*
X130726109Y-86607142D01*
X130726109Y-86607142D02*
X130702300Y-86654761D01*
X130702300Y-86654761D02*
X130678490Y-86678571D01*
D14*
X145157756Y-89724999D02*
X144991090Y-89841666D01*
X145157756Y-89924999D02*
X144807756Y-89924999D01*
X144807756Y-89924999D02*
X144807756Y-89791666D01*
X144807756Y-89791666D02*
X144824423Y-89758333D01*
X144824423Y-89758333D02*
X144841090Y-89741666D01*
X144841090Y-89741666D02*
X144874423Y-89724999D01*
X144874423Y-89724999D02*
X144924423Y-89724999D01*
X144924423Y-89724999D02*
X144957756Y-89741666D01*
X144957756Y-89741666D02*
X144974423Y-89758333D01*
X144974423Y-89758333D02*
X144991090Y-89791666D01*
X144991090Y-89791666D02*
X144991090Y-89924999D01*
X145157756Y-89391666D02*
X145157756Y-89591666D01*
X145157756Y-89491666D02*
X144807756Y-89491666D01*
X144807756Y-89491666D02*
X144857756Y-89524999D01*
X144857756Y-89524999D02*
X144891090Y-89558333D01*
X144891090Y-89558333D02*
X144907756Y-89591666D01*
X145157756Y-89225000D02*
X145157756Y-89158333D01*
X145157756Y-89158333D02*
X145141090Y-89125000D01*
X145141090Y-89125000D02*
X145124423Y-89108333D01*
X145124423Y-89108333D02*
X145074423Y-89075000D01*
X145074423Y-89075000D02*
X145007756Y-89058333D01*
X145007756Y-89058333D02*
X144874423Y-89058333D01*
X144874423Y-89058333D02*
X144841090Y-89075000D01*
X144841090Y-89075000D02*
X144824423Y-89091666D01*
X144824423Y-89091666D02*
X144807756Y-89125000D01*
X144807756Y-89125000D02*
X144807756Y-89191666D01*
X144807756Y-89191666D02*
X144824423Y-89225000D01*
X144824423Y-89225000D02*
X144841090Y-89241666D01*
X144841090Y-89241666D02*
X144874423Y-89258333D01*
X144874423Y-89258333D02*
X144957756Y-89258333D01*
X144957756Y-89258333D02*
X144991090Y-89241666D01*
X144991090Y-89241666D02*
X145007756Y-89225000D01*
X145007756Y-89225000D02*
X145024423Y-89191666D01*
X145024423Y-89191666D02*
X145024423Y-89125000D01*
X145024423Y-89125000D02*
X145007756Y-89091666D01*
X145007756Y-89091666D02*
X144991090Y-89075000D01*
X144991090Y-89075000D02*
X144957756Y-89058333D01*
D10*
X137916666Y-77226109D02*
X137750000Y-76988014D01*
X137630952Y-77226109D02*
X137630952Y-76726109D01*
X137630952Y-76726109D02*
X137821428Y-76726109D01*
X137821428Y-76726109D02*
X137869047Y-76749919D01*
X137869047Y-76749919D02*
X137892857Y-76773728D01*
X137892857Y-76773728D02*
X137916666Y-76821347D01*
X137916666Y-76821347D02*
X137916666Y-76892776D01*
X137916666Y-76892776D02*
X137892857Y-76940395D01*
X137892857Y-76940395D02*
X137869047Y-76964204D01*
X137869047Y-76964204D02*
X137821428Y-76988014D01*
X137821428Y-76988014D02*
X137630952Y-76988014D01*
X138345238Y-76726109D02*
X138250000Y-76726109D01*
X138250000Y-76726109D02*
X138202381Y-76749919D01*
X138202381Y-76749919D02*
X138178571Y-76773728D01*
X138178571Y-76773728D02*
X138130952Y-76845157D01*
X138130952Y-76845157D02*
X138107143Y-76940395D01*
X138107143Y-76940395D02*
X138107143Y-77130871D01*
X138107143Y-77130871D02*
X138130952Y-77178490D01*
X138130952Y-77178490D02*
X138154762Y-77202300D01*
X138154762Y-77202300D02*
X138202381Y-77226109D01*
X138202381Y-77226109D02*
X138297619Y-77226109D01*
X138297619Y-77226109D02*
X138345238Y-77202300D01*
X138345238Y-77202300D02*
X138369047Y-77178490D01*
X138369047Y-77178490D02*
X138392857Y-77130871D01*
X138392857Y-77130871D02*
X138392857Y-77011823D01*
X138392857Y-77011823D02*
X138369047Y-76964204D01*
X138369047Y-76964204D02*
X138345238Y-76940395D01*
X138345238Y-76940395D02*
X138297619Y-76916585D01*
X138297619Y-76916585D02*
X138202381Y-76916585D01*
X138202381Y-76916585D02*
X138154762Y-76940395D01*
X138154762Y-76940395D02*
X138130952Y-76964204D01*
X138130952Y-76964204D02*
X138107143Y-77011823D01*
D14*
X142691090Y-75533333D02*
X142674423Y-75566666D01*
X142674423Y-75566666D02*
X142641090Y-75600000D01*
X142641090Y-75600000D02*
X142591090Y-75650000D01*
X142591090Y-75650000D02*
X142574423Y-75683333D01*
X142574423Y-75683333D02*
X142574423Y-75716666D01*
X142657756Y-75700000D02*
X142641090Y-75733333D01*
X142641090Y-75733333D02*
X142607756Y-75766666D01*
X142607756Y-75766666D02*
X142541090Y-75783333D01*
X142541090Y-75783333D02*
X142424423Y-75783333D01*
X142424423Y-75783333D02*
X142357756Y-75766666D01*
X142357756Y-75766666D02*
X142324423Y-75733333D01*
X142324423Y-75733333D02*
X142307756Y-75700000D01*
X142307756Y-75700000D02*
X142307756Y-75633333D01*
X142307756Y-75633333D02*
X142324423Y-75600000D01*
X142324423Y-75600000D02*
X142357756Y-75566666D01*
X142357756Y-75566666D02*
X142424423Y-75550000D01*
X142424423Y-75550000D02*
X142541090Y-75550000D01*
X142541090Y-75550000D02*
X142607756Y-75566666D01*
X142607756Y-75566666D02*
X142641090Y-75600000D01*
X142641090Y-75600000D02*
X142657756Y-75633333D01*
X142657756Y-75633333D02*
X142657756Y-75700000D01*
X142341090Y-75416666D02*
X142324423Y-75399999D01*
X142324423Y-75399999D02*
X142307756Y-75366666D01*
X142307756Y-75366666D02*
X142307756Y-75283333D01*
X142307756Y-75283333D02*
X142324423Y-75249999D01*
X142324423Y-75249999D02*
X142341090Y-75233333D01*
X142341090Y-75233333D02*
X142374423Y-75216666D01*
X142374423Y-75216666D02*
X142407756Y-75216666D01*
X142407756Y-75216666D02*
X142457756Y-75233333D01*
X142457756Y-75233333D02*
X142657756Y-75433333D01*
X142657756Y-75433333D02*
X142657756Y-75216666D01*
D10*
X128726109Y-75583333D02*
X128488014Y-75749999D01*
X128726109Y-75869047D02*
X128226109Y-75869047D01*
X128226109Y-75869047D02*
X128226109Y-75678571D01*
X128226109Y-75678571D02*
X128249919Y-75630952D01*
X128249919Y-75630952D02*
X128273728Y-75607142D01*
X128273728Y-75607142D02*
X128321347Y-75583333D01*
X128321347Y-75583333D02*
X128392776Y-75583333D01*
X128392776Y-75583333D02*
X128440395Y-75607142D01*
X128440395Y-75607142D02*
X128464204Y-75630952D01*
X128464204Y-75630952D02*
X128488014Y-75678571D01*
X128488014Y-75678571D02*
X128488014Y-75869047D01*
X128392776Y-75154761D02*
X128726109Y-75154761D01*
X128202300Y-75273809D02*
X128559442Y-75392856D01*
X128559442Y-75392856D02*
X128559442Y-75083333D01*
D14*
X144775000Y-100657756D02*
X144658333Y-100491090D01*
X144575000Y-100657756D02*
X144575000Y-100307756D01*
X144575000Y-100307756D02*
X144708333Y-100307756D01*
X144708333Y-100307756D02*
X144741667Y-100324423D01*
X144741667Y-100324423D02*
X144758333Y-100341090D01*
X144758333Y-100341090D02*
X144775000Y-100374423D01*
X144775000Y-100374423D02*
X144775000Y-100424423D01*
X144775000Y-100424423D02*
X144758333Y-100457756D01*
X144758333Y-100457756D02*
X144741667Y-100474423D01*
X144741667Y-100474423D02*
X144708333Y-100491090D01*
X144708333Y-100491090D02*
X144575000Y-100491090D01*
X145108333Y-100657756D02*
X144908333Y-100657756D01*
X145008333Y-100657756D02*
X145008333Y-100307756D01*
X145008333Y-100307756D02*
X144975000Y-100357756D01*
X144975000Y-100357756D02*
X144941667Y-100391090D01*
X144941667Y-100391090D02*
X144908333Y-100407756D01*
X145225000Y-100307756D02*
X145441666Y-100307756D01*
X145441666Y-100307756D02*
X145325000Y-100441090D01*
X145325000Y-100441090D02*
X145375000Y-100441090D01*
X145375000Y-100441090D02*
X145408333Y-100457756D01*
X145408333Y-100457756D02*
X145425000Y-100474423D01*
X145425000Y-100474423D02*
X145441666Y-100507756D01*
X145441666Y-100507756D02*
X145441666Y-100591090D01*
X145441666Y-100591090D02*
X145425000Y-100624423D01*
X145425000Y-100624423D02*
X145408333Y-100641090D01*
X145408333Y-100641090D02*
X145375000Y-100657756D01*
X145375000Y-100657756D02*
X145275000Y-100657756D01*
X145275000Y-100657756D02*
X145241666Y-100641090D01*
X145241666Y-100641090D02*
X145225000Y-100624423D01*
D13*
X147453365Y-94211666D02*
X147513842Y-94272142D01*
X147513842Y-94272142D02*
X147574318Y-94453571D01*
X147574318Y-94453571D02*
X147574318Y-94574523D01*
X147574318Y-94574523D02*
X147513842Y-94755952D01*
X147513842Y-94755952D02*
X147392889Y-94876904D01*
X147392889Y-94876904D02*
X147271937Y-94937381D01*
X147271937Y-94937381D02*
X147030032Y-94997857D01*
X147030032Y-94997857D02*
X146848603Y-94997857D01*
X146848603Y-94997857D02*
X146606699Y-94937381D01*
X146606699Y-94937381D02*
X146485746Y-94876904D01*
X146485746Y-94876904D02*
X146364794Y-94755952D01*
X146364794Y-94755952D02*
X146304318Y-94574523D01*
X146304318Y-94574523D02*
X146304318Y-94453571D01*
X146304318Y-94453571D02*
X146364794Y-94272142D01*
X146364794Y-94272142D02*
X146425270Y-94211666D01*
X146848603Y-93485952D02*
X146788127Y-93606904D01*
X146788127Y-93606904D02*
X146727651Y-93667381D01*
X146727651Y-93667381D02*
X146606699Y-93727857D01*
X146606699Y-93727857D02*
X146546222Y-93727857D01*
X146546222Y-93727857D02*
X146425270Y-93667381D01*
X146425270Y-93667381D02*
X146364794Y-93606904D01*
X146364794Y-93606904D02*
X146304318Y-93485952D01*
X146304318Y-93485952D02*
X146304318Y-93244047D01*
X146304318Y-93244047D02*
X146364794Y-93123095D01*
X146364794Y-93123095D02*
X146425270Y-93062619D01*
X146425270Y-93062619D02*
X146546222Y-93002142D01*
X146546222Y-93002142D02*
X146606699Y-93002142D01*
X146606699Y-93002142D02*
X146727651Y-93062619D01*
X146727651Y-93062619D02*
X146788127Y-93123095D01*
X146788127Y-93123095D02*
X146848603Y-93244047D01*
X146848603Y-93244047D02*
X146848603Y-93485952D01*
X146848603Y-93485952D02*
X146909080Y-93606904D01*
X146909080Y-93606904D02*
X146969556Y-93667381D01*
X146969556Y-93667381D02*
X147090508Y-93727857D01*
X147090508Y-93727857D02*
X147332413Y-93727857D01*
X147332413Y-93727857D02*
X147453365Y-93667381D01*
X147453365Y-93667381D02*
X147513842Y-93606904D01*
X147513842Y-93606904D02*
X147574318Y-93485952D01*
X147574318Y-93485952D02*
X147574318Y-93244047D01*
X147574318Y-93244047D02*
X147513842Y-93123095D01*
X147513842Y-93123095D02*
X147453365Y-93062619D01*
X147453365Y-93062619D02*
X147332413Y-93002142D01*
X147332413Y-93002142D02*
X147090508Y-93002142D01*
X147090508Y-93002142D02*
X146969556Y-93062619D01*
X146969556Y-93062619D02*
X146909080Y-93123095D01*
X146909080Y-93123095D02*
X146848603Y-93244047D01*
D10*
X150739800Y-96327068D02*
X150739800Y-95184211D01*
X151311228Y-95755639D02*
X150168371Y-95755639D01*
X130226109Y-89583333D02*
X129988014Y-89749999D01*
X130226109Y-89869047D02*
X129726109Y-89869047D01*
X129726109Y-89869047D02*
X129726109Y-89678571D01*
X129726109Y-89678571D02*
X129749919Y-89630952D01*
X129749919Y-89630952D02*
X129773728Y-89607142D01*
X129773728Y-89607142D02*
X129821347Y-89583333D01*
X129821347Y-89583333D02*
X129892776Y-89583333D01*
X129892776Y-89583333D02*
X129940395Y-89607142D01*
X129940395Y-89607142D02*
X129964204Y-89630952D01*
X129964204Y-89630952D02*
X129988014Y-89678571D01*
X129988014Y-89678571D02*
X129988014Y-89869047D01*
X130226109Y-89345237D02*
X130226109Y-89249999D01*
X130226109Y-89249999D02*
X130202300Y-89202380D01*
X130202300Y-89202380D02*
X130178490Y-89178571D01*
X130178490Y-89178571D02*
X130107061Y-89130952D01*
X130107061Y-89130952D02*
X130011823Y-89107142D01*
X130011823Y-89107142D02*
X129821347Y-89107142D01*
X129821347Y-89107142D02*
X129773728Y-89130952D01*
X129773728Y-89130952D02*
X129749919Y-89154761D01*
X129749919Y-89154761D02*
X129726109Y-89202380D01*
X129726109Y-89202380D02*
X129726109Y-89297618D01*
X129726109Y-89297618D02*
X129749919Y-89345237D01*
X129749919Y-89345237D02*
X129773728Y-89369047D01*
X129773728Y-89369047D02*
X129821347Y-89392856D01*
X129821347Y-89392856D02*
X129940395Y-89392856D01*
X129940395Y-89392856D02*
X129988014Y-89369047D01*
X129988014Y-89369047D02*
X130011823Y-89345237D01*
X130011823Y-89345237D02*
X130035633Y-89297618D01*
X130035633Y-89297618D02*
X130035633Y-89202380D01*
X130035633Y-89202380D02*
X130011823Y-89154761D01*
X130011823Y-89154761D02*
X129988014Y-89130952D01*
X129988014Y-89130952D02*
X129940395Y-89107142D01*
D15*
X189454819Y-133309523D02*
X190169104Y-133309523D01*
X190169104Y-133309523D02*
X190311961Y-133357142D01*
X190311961Y-133357142D02*
X190407200Y-133452380D01*
X190407200Y-133452380D02*
X190454819Y-133595237D01*
X190454819Y-133595237D02*
X190454819Y-133690475D01*
X190454819Y-132309523D02*
X190454819Y-132880951D01*
X190454819Y-132595237D02*
X189454819Y-132595237D01*
X189454819Y-132595237D02*
X189597676Y-132690475D01*
X189597676Y-132690475D02*
X189692914Y-132785713D01*
X189692914Y-132785713D02*
X189740533Y-132880951D01*
X190454819Y-131357142D02*
X190454819Y-131928570D01*
X190454819Y-131642856D02*
X189454819Y-131642856D01*
X189454819Y-131642856D02*
X189597676Y-131738094D01*
X189597676Y-131738094D02*
X189692914Y-131833332D01*
X189692914Y-131833332D02*
X189740533Y-131928570D01*
D16*
%TO.C,R8*%
X129227064Y-83765000D02*
X128772936Y-83765000D01*
X129227064Y-85235000D02*
X128772936Y-85235000D01*
%TO.C,C20*%
X127590000Y-102211252D02*
X127590000Y-100788748D01*
X129410000Y-102211252D02*
X129410000Y-100788748D01*
%TO.C,R5*%
X188640000Y-112788748D02*
X188640000Y-114211252D01*
X191360000Y-112788748D02*
X191360000Y-114211252D01*
%TO.C,C16*%
X141595250Y-94211252D02*
X141595250Y-92788748D01*
X143415250Y-94211252D02*
X143415250Y-92788748D01*
D10*
%TO.C,C12*%
X134325000Y-127000000D02*
X152325000Y-127000000D01*
X134325000Y-134000000D02*
X134325000Y-127000000D01*
X152325000Y-127000000D02*
X152325000Y-134000000D01*
X152325000Y-134000000D02*
X134325000Y-134000000D01*
D16*
%TO.C,R12*%
X142265000Y-100727064D02*
X142265000Y-100272936D01*
X143735000Y-100727064D02*
X143735000Y-100272936D01*
%TO.C,C3*%
X126790000Y-70661252D02*
X126790000Y-68338748D01*
X130210000Y-70661252D02*
X130210000Y-68338748D01*
%TO.C,C4*%
X140090000Y-80288748D02*
X140090000Y-81711252D01*
X141910000Y-80288748D02*
X141910000Y-81711252D01*
D10*
%TO.C,D6*%
X139175000Y-54525000D02*
X139425000Y-54525000D01*
X139175000Y-54775000D02*
X139175000Y-54525000D01*
X139175000Y-56475000D02*
X139175000Y-56250000D01*
X139475000Y-56475000D02*
X139175000Y-56475000D01*
X141475000Y-54525000D02*
X141825000Y-54525000D01*
X141475000Y-56475000D02*
X141825000Y-56475000D01*
X141625000Y-56475000D02*
X141625000Y-54525000D01*
X141725000Y-56475000D02*
X141725000Y-54525000D01*
X141825000Y-56475000D02*
X141825000Y-54525000D01*
D11*
%TO.C,C1*%
X142000000Y-109000000D02*
G75*
G02*
X134000000Y-109000000I-4000000J0D01*
G01*
X134000000Y-109000000D02*
G75*
G02*
X142000000Y-109000000I4000000J0D01*
G01*
D16*
%TO.C,C7*%
X195338748Y-97790000D02*
X197661252Y-97790000D01*
X195338748Y-101210000D02*
X197661252Y-101210000D01*
D10*
%TO.C,J6*%
X167040000Y-79540000D02*
X170040000Y-79540000D01*
X167040000Y-86540000D02*
X170040000Y-86540000D01*
D16*
%TO.C,C18*%
X146590000Y-100288748D02*
X146590000Y-101711252D01*
X148410000Y-100288748D02*
X148410000Y-101711252D01*
%TO.C,C22*%
X141090000Y-87788748D02*
X141090000Y-89211252D01*
X142910000Y-87788748D02*
X142910000Y-89211252D01*
%TO.C,C19*%
X139590000Y-102211252D02*
X139590000Y-100788748D01*
X141410000Y-102211252D02*
X141410000Y-100788748D01*
D11*
%TO.C,PS1*%
X200870000Y-90130000D02*
X200870000Y-109630000D01*
X200870000Y-109630000D02*
X210670000Y-109630000D01*
X210670000Y-90130000D02*
X200870000Y-90130000D01*
X210670000Y-109630000D02*
X210670000Y-90130000D01*
D16*
%TO.C,C5*%
X195201248Y-92290000D02*
X197523752Y-92290000D01*
X195201248Y-95710000D02*
X197523752Y-95710000D01*
%TO.C,R7*%
X144772936Y-86765000D02*
X145227064Y-86765000D01*
X144772936Y-88235000D02*
X145227064Y-88235000D01*
D11*
%TO.C,IC1*%
X127425250Y-98475000D02*
X127425250Y-96950000D01*
X127555250Y-93400000D02*
X132455250Y-93400000D01*
X127555250Y-96600000D02*
X127555250Y-93400000D01*
X132455250Y-93400000D02*
X132455250Y-96600000D01*
X132455250Y-96600000D02*
X127555250Y-96600000D01*
D16*
%TO.C,C17*%
X139095250Y-94211252D02*
X139095250Y-92788748D01*
X140915250Y-94211252D02*
X140915250Y-92788748D01*
D10*
%TO.C,J5*%
X174540000Y-123540000D02*
X177540000Y-123540000D01*
X174540000Y-130540000D02*
X177540000Y-130540000D01*
D16*
%TO.C,R10*%
X152227064Y-98590000D02*
X150772936Y-98590000D01*
X152227064Y-100410000D02*
X150772936Y-100410000D01*
D11*
%TO.C,C2*%
X139000000Y-71500000D02*
G75*
G02*
X131000000Y-71500000I-4000000J0D01*
G01*
X131000000Y-71500000D02*
G75*
G02*
X139000000Y-71500000I4000000J0D01*
G01*
D16*
%TO.C,U4*%
X133445250Y-95000000D02*
X133445250Y-93050000D01*
X133445250Y-95000000D02*
X133445250Y-96950000D01*
X138565250Y-95000000D02*
X138565250Y-93050000D01*
X138565250Y-95000000D02*
X138565250Y-96950000D01*
X133540250Y-97700000D02*
X133210250Y-97940000D01*
X133210250Y-97460000D01*
X133540250Y-97700000D01*
G36*
X133540250Y-97700000D02*
G01*
X133210250Y-97940000D01*
X133210250Y-97460000D01*
X133540250Y-97700000D01*
G37*
D10*
%TO.C,J7*%
X161960000Y-118040000D02*
X164960000Y-118040000D01*
X161960000Y-125040000D02*
X164960000Y-125040000D01*
%TO.C,C10*%
X152675000Y-127000000D02*
X170675000Y-127000000D01*
X152675000Y-134000000D02*
X152675000Y-127000000D01*
X170675000Y-127000000D02*
X170675000Y-134000000D01*
X170675000Y-134000000D02*
X152675000Y-134000000D01*
D11*
%TO.C,C6*%
X200500000Y-106250000D02*
G75*
G02*
X192500000Y-106250000I-4000000J0D01*
G01*
X192500000Y-106250000D02*
G75*
G02*
X200500000Y-106250000I4000000J0D01*
G01*
D16*
%TO.C,R16*%
X138590000Y-86772936D02*
X138590000Y-88227064D01*
X140410000Y-86772936D02*
X140410000Y-88227064D01*
%TO.C,C21*%
X136090000Y-86788748D02*
X136090000Y-88211252D01*
X137910000Y-86788748D02*
X137910000Y-88211252D01*
%TO.C,C14*%
X135788748Y-99090000D02*
X137211252Y-99090000D01*
X135788748Y-100910000D02*
X137211252Y-100910000D01*
D10*
%TO.C,U1*%
X174325000Y-94900000D02*
X174325000Y-95400000D01*
X174325000Y-94900000D02*
X174825000Y-94900000D01*
X174325000Y-105100000D02*
X174325000Y-104600000D01*
X174325000Y-105100000D02*
X174825000Y-105100000D01*
X184525000Y-94900000D02*
X184025000Y-94900000D01*
X184525000Y-94900000D02*
X184525000Y-95400000D01*
X184525000Y-105100000D02*
X184025000Y-105100000D01*
X184525000Y-105100000D02*
X184525000Y-104600000D01*
X190625000Y-102800000D02*
X192025000Y-102800000D01*
D17*
%TO.C,G\u002A\u002A\u002A*%
G36*
X157764615Y-107244230D02*
G01*
X157754846Y-107254000D01*
X157745077Y-107244230D01*
X157754846Y-107234461D01*
X157764615Y-107244230D01*
G37*
G36*
X163795487Y-108862666D02*
G01*
X163797825Y-108885854D01*
X163795487Y-108888718D01*
X163783871Y-108886036D01*
X163782461Y-108875692D01*
X163789610Y-108859610D01*
X163795487Y-108862666D01*
G37*
G36*
X160851692Y-106687384D02*
G01*
X160851692Y-106804615D01*
X160480461Y-106804615D01*
X160109230Y-106804615D01*
X160109230Y-106687384D01*
X160109230Y-106570154D01*
X160480461Y-106570154D01*
X160851692Y-106570154D01*
X160851692Y-106687384D01*
G37*
G36*
X160851692Y-108250461D02*
G01*
X160851692Y-108387230D01*
X160480461Y-108387230D01*
X160109230Y-108387230D01*
X160109230Y-108250461D01*
X160109230Y-108113692D01*
X160480461Y-108113692D01*
X160851692Y-108113692D01*
X160851692Y-108250461D01*
G37*
G36*
X160851692Y-109842846D02*
G01*
X160851692Y-109989384D01*
X160480461Y-109989384D01*
X160109230Y-109989384D01*
X160109230Y-109842846D01*
X160109230Y-109696307D01*
X160480461Y-109696307D01*
X160851692Y-109696307D01*
X160851692Y-109842846D01*
G37*
G36*
X160851692Y-111474307D02*
G01*
X160851692Y-111650154D01*
X160480461Y-111650154D01*
X160109230Y-111650154D01*
X160109230Y-111474307D01*
X160109230Y-111298461D01*
X160480461Y-111298461D01*
X160851692Y-111298461D01*
X160851692Y-111474307D01*
G37*
G36*
X160221577Y-105000786D02*
G01*
X160335601Y-105011707D01*
X160468071Y-105016135D01*
X160601735Y-105014046D01*
X160719342Y-105005417D01*
X160749115Y-105001519D01*
X160851692Y-104986192D01*
X160851692Y-105123634D01*
X160851692Y-105261077D01*
X160480461Y-105261077D01*
X160109230Y-105261077D01*
X160109230Y-105122901D01*
X160109230Y-104984726D01*
X160221577Y-105000786D01*
G37*
G36*
X160725344Y-102405823D02*
G01*
X160917092Y-102464912D01*
X161096609Y-102557418D01*
X161258776Y-102682145D01*
X161290222Y-102712393D01*
X161421083Y-102869715D01*
X161519403Y-103044480D01*
X161584728Y-103231830D01*
X161616605Y-103426907D01*
X161614580Y-103624852D01*
X161578199Y-103820806D01*
X161507011Y-104009912D01*
X161424678Y-104153022D01*
X161295676Y-104313228D01*
X161146048Y-104441429D01*
X160994607Y-104530213D01*
X160793672Y-104607884D01*
X160591030Y-104646619D01*
X160385602Y-104646556D01*
X160246000Y-104624903D01*
X160054763Y-104564618D01*
X159880025Y-104472099D01*
X159724919Y-104351529D01*
X159592577Y-104207089D01*
X159486130Y-104042961D01*
X159408713Y-103863328D01*
X159363457Y-103672371D01*
X159353495Y-103474272D01*
X159355825Y-103436492D01*
X159391082Y-103223338D01*
X159460316Y-103028234D01*
X159561739Y-102853484D01*
X159693565Y-102701393D01*
X159854007Y-102574265D01*
X160041276Y-102474405D01*
X160127906Y-102441008D01*
X160325632Y-102392676D01*
X160526485Y-102381346D01*
X160725344Y-102405823D01*
G37*
G36*
X163043266Y-108813151D02*
G01*
X163130242Y-108869901D01*
X163182185Y-108939261D01*
X163202323Y-109025915D01*
X163202820Y-109044511D01*
X163188513Y-109134662D01*
X163143199Y-109206738D01*
X163063284Y-109266223D01*
X163054368Y-109271094D01*
X162971615Y-109315307D01*
X160480461Y-109320361D01*
X160116441Y-109321076D01*
X159789453Y-109321653D01*
X159497454Y-109322068D01*
X159238400Y-109322297D01*
X159010245Y-109322317D01*
X158810947Y-109322104D01*
X158638460Y-109321636D01*
X158490741Y-109320888D01*
X158365746Y-109319837D01*
X158261431Y-109318460D01*
X158175751Y-109316733D01*
X158106662Y-109314634D01*
X158052120Y-109312138D01*
X158010082Y-109309222D01*
X157978502Y-109305863D01*
X157955337Y-109302037D01*
X157938542Y-109297721D01*
X157926074Y-109292891D01*
X157922312Y-109291053D01*
X157842314Y-109230608D01*
X157791227Y-109151380D01*
X157769627Y-109061498D01*
X157778088Y-108969087D01*
X157817186Y-108882275D01*
X157887496Y-108809188D01*
X157888164Y-108808696D01*
X157896530Y-108802816D01*
X157906104Y-108797534D01*
X157918925Y-108792820D01*
X157937028Y-108788641D01*
X157962450Y-108784964D01*
X157997229Y-108781758D01*
X158043400Y-108778989D01*
X158103001Y-108776627D01*
X158178068Y-108774639D01*
X158270638Y-108772992D01*
X158382748Y-108771655D01*
X158516434Y-108770595D01*
X158673733Y-108769780D01*
X158856682Y-108769178D01*
X159067318Y-108768756D01*
X159307676Y-108768483D01*
X159579795Y-108768326D01*
X159885710Y-108768253D01*
X160227459Y-108768232D01*
X160447703Y-108768230D01*
X162952077Y-108768230D01*
X163043266Y-108813151D01*
G37*
G36*
X160281957Y-107175837D02*
G01*
X160437210Y-107175846D01*
X160744210Y-107175923D01*
X161014548Y-107176181D01*
X161250638Y-107176656D01*
X161454895Y-107177388D01*
X161629734Y-107178414D01*
X161777568Y-107179772D01*
X161900813Y-107181500D01*
X162001883Y-107183637D01*
X162083192Y-107186219D01*
X162147155Y-107189286D01*
X162196186Y-107192874D01*
X162232700Y-107197023D01*
X162259112Y-107201770D01*
X162270358Y-107204694D01*
X162369390Y-107249757D01*
X162439546Y-107313385D01*
X162480147Y-107389129D01*
X162490515Y-107470540D01*
X162469970Y-107551168D01*
X162417833Y-107624564D01*
X162333427Y-107684278D01*
X162321440Y-107690060D01*
X162229154Y-107732692D01*
X160480461Y-107736072D01*
X160211546Y-107736397D01*
X159955464Y-107736326D01*
X159714900Y-107735879D01*
X159492540Y-107735077D01*
X159291070Y-107733942D01*
X159113174Y-107732495D01*
X158961539Y-107730756D01*
X158838851Y-107728746D01*
X158747794Y-107726487D01*
X158691054Y-107723999D01*
X158672420Y-107721935D01*
X158619689Y-107695969D01*
X158565566Y-107654336D01*
X158556437Y-107645306D01*
X158511497Y-107572908D01*
X158489868Y-107482465D01*
X158492791Y-107388179D01*
X158521507Y-107304253D01*
X158525965Y-107296785D01*
X158538371Y-107276432D01*
X158550075Y-107258497D01*
X158563488Y-107242828D01*
X158581024Y-107229271D01*
X158605096Y-107217675D01*
X158638116Y-107207886D01*
X158682496Y-107199752D01*
X158740651Y-107193120D01*
X158814992Y-107187837D01*
X158907932Y-107183752D01*
X159021884Y-107180710D01*
X159159260Y-107178560D01*
X159322474Y-107177148D01*
X159513938Y-107176323D01*
X159736065Y-107175931D01*
X159991267Y-107175820D01*
X160281957Y-107175837D01*
G37*
G36*
X161227245Y-105635283D02*
G01*
X161335658Y-105636272D01*
X161421189Y-105637983D01*
X161487077Y-105640501D01*
X161536562Y-105643909D01*
X161572881Y-105648291D01*
X161599274Y-105653731D01*
X161618979Y-105660314D01*
X161631573Y-105666182D01*
X161703306Y-105723013D01*
X161748389Y-105799709D01*
X161766793Y-105887528D01*
X161758488Y-105977726D01*
X161723445Y-106061561D01*
X161661632Y-106130289D01*
X161633230Y-106149412D01*
X161616546Y-106158393D01*
X161597776Y-106165924D01*
X161573500Y-106172145D01*
X161540298Y-106177194D01*
X161494749Y-106181211D01*
X161433434Y-106184336D01*
X161352931Y-106186708D01*
X161249820Y-106188466D01*
X161120681Y-106189750D01*
X160962093Y-106190700D01*
X160770636Y-106191454D01*
X160587923Y-106192020D01*
X160392623Y-106192293D01*
X160206390Y-106191978D01*
X160033437Y-106191121D01*
X159877977Y-106189771D01*
X159744222Y-106187975D01*
X159636385Y-106185778D01*
X159558679Y-106183229D01*
X159515316Y-106180375D01*
X159512552Y-106180003D01*
X159391172Y-106149008D01*
X159299019Y-106098223D01*
X159238396Y-106029614D01*
X159211603Y-105945151D01*
X159210461Y-105921779D01*
X159226738Y-105822039D01*
X159276168Y-105742780D01*
X159352518Y-105686230D01*
X159370965Y-105676657D01*
X159389723Y-105668562D01*
X159412088Y-105661804D01*
X159441351Y-105656242D01*
X159480808Y-105651733D01*
X159533751Y-105648136D01*
X159603475Y-105645309D01*
X159693272Y-105643110D01*
X159806437Y-105641399D01*
X159946263Y-105640032D01*
X160116043Y-105638870D01*
X160319073Y-105637769D01*
X160500000Y-105636875D01*
X160732327Y-105635812D01*
X160928818Y-105635137D01*
X161092711Y-105634933D01*
X161227245Y-105635283D01*
G37*
G36*
X160848574Y-110360678D02*
G01*
X161226884Y-110360795D01*
X161569652Y-110361011D01*
X161878644Y-110361344D01*
X162155628Y-110361808D01*
X162402371Y-110362419D01*
X162620641Y-110363193D01*
X162812203Y-110364147D01*
X162978825Y-110365295D01*
X163122275Y-110366653D01*
X163244320Y-110368238D01*
X163346726Y-110370065D01*
X163431261Y-110372149D01*
X163499692Y-110374508D01*
X163553787Y-110377156D01*
X163595311Y-110380109D01*
X163626034Y-110383383D01*
X163647720Y-110386994D01*
X163657589Y-110389463D01*
X163756621Y-110434526D01*
X163826777Y-110498154D01*
X163867378Y-110573899D01*
X163877746Y-110655309D01*
X163857201Y-110735938D01*
X163805064Y-110809333D01*
X163720658Y-110869047D01*
X163708671Y-110874829D01*
X163616384Y-110917461D01*
X160490230Y-110920551D01*
X160142770Y-110920799D01*
X159805351Y-110920853D01*
X159480099Y-110920720D01*
X159169138Y-110920410D01*
X158874593Y-110919930D01*
X158598590Y-110919288D01*
X158343253Y-110918494D01*
X158110709Y-110917555D01*
X157903081Y-110916478D01*
X157722494Y-110915274D01*
X157571075Y-110913949D01*
X157450948Y-110912512D01*
X157364238Y-110910972D01*
X157313069Y-110909335D01*
X157299776Y-110908201D01*
X157216076Y-110870451D01*
X157154465Y-110807988D01*
X157115914Y-110728982D01*
X157101395Y-110641598D01*
X157111879Y-110554005D01*
X157148336Y-110474371D01*
X157211739Y-110410861D01*
X157238734Y-110394838D01*
X157249120Y-110390358D01*
X157263166Y-110386287D01*
X157282685Y-110382604D01*
X157309489Y-110379291D01*
X157345393Y-110376327D01*
X157392208Y-110373694D01*
X157451747Y-110371371D01*
X157525825Y-110369341D01*
X157616253Y-110367582D01*
X157724844Y-110366076D01*
X157853412Y-110364804D01*
X158003769Y-110363746D01*
X158177729Y-110362882D01*
X158377105Y-110362193D01*
X158603708Y-110361660D01*
X158859353Y-110361263D01*
X159145852Y-110360984D01*
X159465019Y-110360802D01*
X159818665Y-110360698D01*
X160208605Y-110360652D01*
X160432953Y-110360645D01*
X160848574Y-110360678D01*
G37*
G36*
X158065643Y-102369647D02*
G01*
X158218467Y-102370509D01*
X158338409Y-102372082D01*
X158428569Y-102374478D01*
X158492041Y-102377808D01*
X158531924Y-102382185D01*
X158551314Y-102387721D01*
X158553789Y-102393807D01*
X158540450Y-102414701D01*
X158507857Y-102464901D01*
X158458204Y-102541050D01*
X158393688Y-102639789D01*
X158316503Y-102757761D01*
X158228845Y-102891609D01*
X158132908Y-103037974D01*
X158044636Y-103172551D01*
X157943813Y-103326463D01*
X157849886Y-103470339D01*
X157764975Y-103600896D01*
X157691198Y-103714852D01*
X157630676Y-103808926D01*
X157585528Y-103879834D01*
X157557874Y-103924294D01*
X157549692Y-103938949D01*
X157566653Y-103949827D01*
X157615157Y-103976046D01*
X157691638Y-104015793D01*
X157792527Y-104067258D01*
X157914258Y-104128628D01*
X158053262Y-104198091D01*
X158205972Y-104273835D01*
X158311692Y-104325971D01*
X158471446Y-104404852D01*
X158619830Y-104478644D01*
X158753277Y-104545537D01*
X158868218Y-104603716D01*
X158961085Y-104651370D01*
X159028313Y-104686684D01*
X159066332Y-104707847D01*
X159073692Y-104713169D01*
X159064911Y-104732215D01*
X159039733Y-104782513D01*
X158999906Y-104860708D01*
X158947180Y-104963443D01*
X158883302Y-105087361D01*
X158810021Y-105229107D01*
X158729085Y-105385325D01*
X158642242Y-105552658D01*
X158551241Y-105727750D01*
X158457830Y-105907245D01*
X158363758Y-106087786D01*
X158270773Y-106266018D01*
X158180623Y-106438584D01*
X158095056Y-106602128D01*
X158015822Y-106753294D01*
X157944668Y-106888725D01*
X157883344Y-107005066D01*
X157833596Y-107098960D01*
X157797173Y-107167052D01*
X157775825Y-107205983D01*
X157770900Y-107214030D01*
X157766544Y-107205417D01*
X157771814Y-107170101D01*
X157772726Y-107166077D01*
X157780024Y-107136588D01*
X157796115Y-107072882D01*
X157820072Y-106978590D01*
X157850969Y-106857344D01*
X157887877Y-106712773D01*
X157929871Y-106548511D01*
X157976024Y-106368188D01*
X158025408Y-106175436D01*
X158059278Y-106043346D01*
X158109700Y-105845891D01*
X158156831Y-105659617D01*
X158199824Y-105487984D01*
X158237834Y-105334456D01*
X158270013Y-105202494D01*
X158295516Y-105095561D01*
X158313496Y-105017118D01*
X158323106Y-104970627D01*
X158324405Y-104958961D01*
X158305429Y-104947335D01*
X158254079Y-104921885D01*
X158173887Y-104884216D01*
X158068383Y-104835927D01*
X157941097Y-104778620D01*
X157795562Y-104713898D01*
X157635307Y-104643361D01*
X157464217Y-104568765D01*
X157293076Y-104494068D01*
X157133394Y-104423558D01*
X156988663Y-104358834D01*
X156862374Y-104301497D01*
X156758019Y-104253146D01*
X156679091Y-104215382D01*
X156629080Y-104189804D01*
X156611480Y-104178014D01*
X156611479Y-104177996D01*
X156617218Y-104155741D01*
X156633813Y-104100005D01*
X156660100Y-104014490D01*
X156694921Y-103902898D01*
X156737112Y-103768931D01*
X156785514Y-103616291D01*
X156838964Y-103448680D01*
X156896301Y-103269801D01*
X156898400Y-103263269D01*
X157185688Y-102369384D01*
X157876843Y-102369384D01*
X158065643Y-102369647D01*
G37*
G36*
X164129601Y-103859192D02*
G01*
X164217511Y-104089630D01*
X164301413Y-104309824D01*
X164380257Y-104517002D01*
X164452995Y-104708394D01*
X164518575Y-104881230D01*
X164575949Y-105032739D01*
X164624066Y-105160150D01*
X164661877Y-105260693D01*
X164688332Y-105331598D01*
X164702382Y-105370093D01*
X164704407Y-105376231D01*
X164696976Y-105385309D01*
X164669524Y-105397653D01*
X164619496Y-105413935D01*
X164544336Y-105434826D01*
X164441487Y-105460999D01*
X164308393Y-105493126D01*
X164142499Y-105531880D01*
X163941248Y-105577932D01*
X163913020Y-105584339D01*
X163742364Y-105623218D01*
X163583746Y-105659692D01*
X163441177Y-105692812D01*
X163318667Y-105721633D01*
X163220226Y-105745206D01*
X163149866Y-105762586D01*
X163111596Y-105772824D01*
X163105738Y-105774979D01*
X163108417Y-105795104D01*
X163119144Y-105850450D01*
X163137289Y-105938136D01*
X163162225Y-106055283D01*
X163193323Y-106199009D01*
X163229955Y-106366435D01*
X163271493Y-106554679D01*
X163317309Y-106760861D01*
X163366774Y-106982101D01*
X163419260Y-107215518D01*
X163439259Y-107304125D01*
X163492728Y-107541235D01*
X163543476Y-107767168D01*
X163590869Y-107979050D01*
X163634273Y-108174007D01*
X163673056Y-108349165D01*
X163706584Y-108501650D01*
X163734224Y-108628590D01*
X163755342Y-108727109D01*
X163769304Y-108794334D01*
X163775478Y-108827392D01*
X163775661Y-108830389D01*
X163767094Y-108813856D01*
X163744097Y-108763886D01*
X163707740Y-108682917D01*
X163659093Y-108573382D01*
X163599225Y-108437720D01*
X163529206Y-108278364D01*
X163450105Y-108097752D01*
X163362992Y-107898318D01*
X163268936Y-107682499D01*
X163169007Y-107452731D01*
X163064274Y-107211449D01*
X163021456Y-107112675D01*
X162914941Y-106866860D01*
X162812794Y-106631107D01*
X162716092Y-106407900D01*
X162625910Y-106199724D01*
X162543324Y-106009063D01*
X162469411Y-105838401D01*
X162405245Y-105690224D01*
X162351904Y-105567016D01*
X162310464Y-105471260D01*
X162281999Y-105405442D01*
X162267587Y-105372047D01*
X162266017Y-105368370D01*
X162282584Y-105359374D01*
X162333913Y-105342188D01*
X162416761Y-105317704D01*
X162527883Y-105286816D01*
X162664036Y-105250418D01*
X162821975Y-105209403D01*
X162998456Y-105164665D01*
X163073911Y-105145829D01*
X163246755Y-105102723D01*
X163408157Y-105062197D01*
X163554099Y-105025279D01*
X163680567Y-104992996D01*
X163783544Y-104966379D01*
X163859013Y-104946456D01*
X163902958Y-104934254D01*
X163912510Y-104931075D01*
X163907396Y-104911907D01*
X163882608Y-104860156D01*
X163838642Y-104776707D01*
X163775994Y-104662444D01*
X163695159Y-104518253D01*
X163596632Y-104345020D01*
X163480910Y-104143630D01*
X163348489Y-103914968D01*
X163222106Y-103698000D01*
X163104608Y-103496683D01*
X162992380Y-103304250D01*
X162887057Y-103123514D01*
X162790275Y-102957287D01*
X162703667Y-102808382D01*
X162628869Y-102679609D01*
X162567516Y-102573782D01*
X162521242Y-102493713D01*
X162491683Y-102442214D01*
X162480979Y-102423115D01*
X162452842Y-102369384D01*
X163006884Y-102369384D01*
X163560926Y-102369384D01*
X164129601Y-103859192D01*
G37*
D10*
%TO.C,J8*%
X159000000Y-91500000D02*
X162000000Y-91500000D01*
X159000000Y-98500000D02*
X162000000Y-98500000D01*
D16*
%TO.C,C11*%
X131590000Y-107788748D02*
X131590000Y-109211252D01*
X133410000Y-107788748D02*
X133410000Y-109211252D01*
%TO.C,R11*%
X152227064Y-102590000D02*
X150772936Y-102590000D01*
X152227064Y-104410000D02*
X150772936Y-104410000D01*
D10*
%TO.C,J1*%
X167040000Y-68540000D02*
X170040000Y-68540000D01*
X167040000Y-75540000D02*
X170040000Y-75540000D01*
D11*
%TO.C,Z1*%
X145208000Y-78402000D02*
X145208000Y-83598000D01*
X147792000Y-83598000D02*
X147792000Y-78075000D01*
D16*
%TO.C,R17*%
X133590000Y-86772936D02*
X133590000Y-88227064D01*
X135410000Y-86772936D02*
X135410000Y-88227064D01*
%TO.C,R14*%
X136272936Y-102765000D02*
X136727064Y-102765000D01*
X136272936Y-104235000D02*
X136727064Y-104235000D01*
%TO.C,R15*%
X130265000Y-102727064D02*
X130265000Y-102272936D01*
X131735000Y-102727064D02*
X131735000Y-102272936D01*
D10*
%TO.C,C9*%
X189675000Y-68000000D02*
X207675000Y-68000000D01*
X189675000Y-75000000D02*
X189675000Y-68000000D01*
X207675000Y-68000000D02*
X207675000Y-75000000D01*
X207675000Y-75000000D02*
X189675000Y-75000000D01*
%TO.C,D8*%
X142525000Y-80025000D02*
X142525000Y-79675000D01*
X142525000Y-82325000D02*
X142525000Y-82075000D01*
X142775000Y-82325000D02*
X142525000Y-82325000D01*
X144475000Y-79675000D02*
X142525000Y-79675000D01*
X144475000Y-79775000D02*
X142525000Y-79775000D01*
X144475000Y-79875000D02*
X142525000Y-79875000D01*
X144475000Y-80025000D02*
X144475000Y-79675000D01*
X144475000Y-82025000D02*
X144475000Y-82325000D01*
X144475000Y-82325000D02*
X144250000Y-82325000D01*
D16*
%TO.C,C15*%
X140793998Y-96590000D02*
X142216502Y-96590000D01*
X140793998Y-98410000D02*
X142216502Y-98410000D01*
D11*
%TO.C,T1*%
X139500000Y-61350000D02*
X148500000Y-61350000D01*
X139500000Y-70650000D02*
X139500000Y-61350000D01*
X140660000Y-72800000D02*
X140660000Y-71000000D01*
X148500000Y-61350000D02*
X148500000Y-70650000D01*
X148500000Y-70650000D02*
X139500000Y-70650000D01*
D16*
%TO.C,R2*%
X146288748Y-74140000D02*
X147711252Y-74140000D01*
X146288748Y-76860000D02*
X147711252Y-76860000D01*
%TO.C,R1*%
X137590000Y-79772936D02*
X137590000Y-81227064D01*
X139410000Y-79772936D02*
X139410000Y-81227064D01*
%TO.C,R3*%
X146788748Y-55140000D02*
X148211252Y-55140000D01*
X146788748Y-57860000D02*
X148211252Y-57860000D01*
%TO.C,C23*%
X130711252Y-86090000D02*
X129288748Y-86090000D01*
X130711252Y-87910000D02*
X129288748Y-87910000D01*
%TO.C,R19*%
X144772936Y-88765000D02*
X145227064Y-88765000D01*
X144772936Y-90235000D02*
X145227064Y-90235000D01*
D10*
%TO.C,J9*%
X167040000Y-55540000D02*
X170040000Y-55540000D01*
X167040000Y-62540000D02*
X170040000Y-62540000D01*
D16*
%TO.C,R6*%
X137272936Y-76090000D02*
X138727064Y-76090000D01*
X137272936Y-77910000D02*
X138727064Y-77910000D01*
%TO.C,U2*%
X195500000Y-110940000D02*
X193550000Y-110940000D01*
X195500000Y-110940000D02*
X197450000Y-110940000D01*
X195500000Y-116060000D02*
X193550000Y-116060000D01*
X195500000Y-116060000D02*
X197450000Y-116060000D01*
X198440000Y-116295000D02*
X197960000Y-116295000D01*
X198200000Y-115965000D01*
X198440000Y-116295000D01*
G36*
X198440000Y-116295000D02*
G01*
X197960000Y-116295000D01*
X198200000Y-115965000D01*
X198440000Y-116295000D01*
G37*
D11*
%TO.C,Q2*%
X140800000Y-73995000D02*
X141800000Y-73995000D01*
X142150000Y-74040000D02*
X142850000Y-74040000D01*
X142150000Y-76960000D02*
X142150000Y-74040000D01*
X142850000Y-74040000D02*
X142850000Y-76960000D01*
X142850000Y-76960000D02*
X142150000Y-76960000D01*
D16*
%TO.C,R4*%
X127140000Y-76211252D02*
X127140000Y-74788748D01*
X129860000Y-76211252D02*
X129860000Y-74788748D01*
%TO.C,R13*%
X144265000Y-100727064D02*
X144265000Y-100272936D01*
X145735000Y-100727064D02*
X145735000Y-100272936D01*
D11*
%TO.C,C8*%
X153000000Y-94000000D02*
G75*
G02*
X145000000Y-94000000I-4000000J0D01*
G01*
X145000000Y-94000000D02*
G75*
G02*
X153000000Y-94000000I4000000J0D01*
G01*
D16*
%TO.C,R9*%
X130227064Y-88765000D02*
X129772936Y-88765000D01*
X130227064Y-90235000D02*
X129772936Y-90235000D01*
D11*
%TO.C,J11*%
X184105000Y-128690000D02*
X184105000Y-136310000D01*
X184105000Y-128690000D02*
X186645000Y-128690000D01*
X184105000Y-136310000D02*
X186645000Y-136310000D01*
X186645000Y-129190000D02*
X186645000Y-128690000D01*
X186645000Y-129190000D02*
X194730000Y-129190000D01*
X186645000Y-135810000D02*
X186645000Y-136310000D01*
X186645000Y-135810000D02*
X194730000Y-135810000D01*
X194730000Y-129190000D02*
X194730000Y-128690000D01*
X194730000Y-135810000D02*
X194730000Y-136310000D01*
X197270000Y-128690000D02*
X194730000Y-128690000D01*
X197270000Y-129190000D02*
X197270000Y-128690000D01*
X197270000Y-135810000D02*
X197270000Y-136310000D01*
X197270000Y-136310000D02*
X194730000Y-136310000D01*
X205355000Y-129190000D02*
X197270000Y-129190000D01*
X205355000Y-129190000D02*
X205355000Y-128690000D01*
X205355000Y-135810000D02*
X197270000Y-135810000D01*
X205355000Y-135810000D02*
X205355000Y-136310000D01*
X207895000Y-128690000D02*
X205355000Y-128690000D01*
X207895000Y-128690000D02*
X207895000Y-136310000D01*
X207895000Y-136310000D02*
X205355000Y-136310000D01*
%TD*%
M02*
