%TF.GenerationSoftware,KiCad,Pcbnew,8.0.4*%
%TF.CreationDate,2024-11-10T12:25:31-05:00*%
%TF.ProjectId,booster-tc-driver,626f6f73-7465-4722-9d74-632d64726976,rev?*%
%TF.SameCoordinates,Original*%
%TF.FileFunction,Legend,Bot*%
%TF.FilePolarity,Positive*%
%FSLAX46Y46*%
G04 Gerber Fmt 4.6, Leading zero omitted, Abs format (unit mm)*
G04 Created by KiCad (PCBNEW 8.0.4) date 2024-11-10 12:25:31*
%MOMM*%
%LPD*%
G01*
G04 APERTURE LIST*
%ADD10C,0.100000*%
%ADD11C,0.150000*%
%ADD12C,0.254000*%
%ADD13C,0.120000*%
%ADD14C,0.152400*%
%ADD15C,0.127000*%
%ADD16C,0.200000*%
G04 APERTURE END LIST*
D10*
X65300000Y-16000000D02*
X65300000Y-88000000D01*
X32250000Y-72000000D02*
X35750000Y-70750000D01*
X20000000Y-16000000D02*
X20000000Y-88000000D01*
X25250000Y-54000000D02*
X27000000Y-53500000D01*
X29500000Y-54000000D02*
X30500000Y-53500000D01*
X27000000Y-54000000D02*
X28500000Y-53500000D01*
X29250000Y-72000000D02*
X32250000Y-72000000D01*
X32250000Y-78500000D01*
X29250000Y-78500000D01*
X29250000Y-72000000D01*
X35750000Y-63750000D02*
X39250000Y-63750000D01*
X39250000Y-72500000D01*
X35750000Y-72500000D01*
X35750000Y-63750000D01*
D11*
X63714285Y-59704819D02*
X63714285Y-58704819D01*
X63714285Y-58704819D02*
X63476190Y-58704819D01*
X63476190Y-58704819D02*
X63333333Y-58752438D01*
X63333333Y-58752438D02*
X63238095Y-58847676D01*
X63238095Y-58847676D02*
X63190476Y-58942914D01*
X63190476Y-58942914D02*
X63142857Y-59133390D01*
X63142857Y-59133390D02*
X63142857Y-59276247D01*
X63142857Y-59276247D02*
X63190476Y-59466723D01*
X63190476Y-59466723D02*
X63238095Y-59561961D01*
X63238095Y-59561961D02*
X63333333Y-59657200D01*
X63333333Y-59657200D02*
X63476190Y-59704819D01*
X63476190Y-59704819D02*
X63714285Y-59704819D01*
X62190476Y-59704819D02*
X62761904Y-59704819D01*
X62476190Y-59704819D02*
X62476190Y-58704819D01*
X62476190Y-58704819D02*
X62571428Y-58847676D01*
X62571428Y-58847676D02*
X62666666Y-58942914D01*
X62666666Y-58942914D02*
X62761904Y-58990533D01*
X61333333Y-59038152D02*
X61333333Y-59704819D01*
X61571428Y-58657200D02*
X61809523Y-59371485D01*
X61809523Y-59371485D02*
X61190476Y-59371485D01*
X63714285Y-52204819D02*
X63714285Y-51204819D01*
X63714285Y-51204819D02*
X63476190Y-51204819D01*
X63476190Y-51204819D02*
X63333333Y-51252438D01*
X63333333Y-51252438D02*
X63238095Y-51347676D01*
X63238095Y-51347676D02*
X63190476Y-51442914D01*
X63190476Y-51442914D02*
X63142857Y-51633390D01*
X63142857Y-51633390D02*
X63142857Y-51776247D01*
X63142857Y-51776247D02*
X63190476Y-51966723D01*
X63190476Y-51966723D02*
X63238095Y-52061961D01*
X63238095Y-52061961D02*
X63333333Y-52157200D01*
X63333333Y-52157200D02*
X63476190Y-52204819D01*
X63476190Y-52204819D02*
X63714285Y-52204819D01*
X62190476Y-52204819D02*
X62761904Y-52204819D01*
X62476190Y-52204819D02*
X62476190Y-51204819D01*
X62476190Y-51204819D02*
X62571428Y-51347676D01*
X62571428Y-51347676D02*
X62666666Y-51442914D01*
X62666666Y-51442914D02*
X62761904Y-51490533D01*
X61857142Y-51204819D02*
X61238095Y-51204819D01*
X61238095Y-51204819D02*
X61571428Y-51585771D01*
X61571428Y-51585771D02*
X61428571Y-51585771D01*
X61428571Y-51585771D02*
X61333333Y-51633390D01*
X61333333Y-51633390D02*
X61285714Y-51681009D01*
X61285714Y-51681009D02*
X61238095Y-51776247D01*
X61238095Y-51776247D02*
X61238095Y-52014342D01*
X61238095Y-52014342D02*
X61285714Y-52109580D01*
X61285714Y-52109580D02*
X61333333Y-52157200D01*
X61333333Y-52157200D02*
X61428571Y-52204819D01*
X61428571Y-52204819D02*
X61714285Y-52204819D01*
X61714285Y-52204819D02*
X61809523Y-52157200D01*
X61809523Y-52157200D02*
X61857142Y-52109580D01*
X39204819Y-31035714D02*
X38204819Y-31035714D01*
X38204819Y-31035714D02*
X38204819Y-31273809D01*
X38204819Y-31273809D02*
X38252438Y-31416666D01*
X38252438Y-31416666D02*
X38347676Y-31511904D01*
X38347676Y-31511904D02*
X38442914Y-31559523D01*
X38442914Y-31559523D02*
X38633390Y-31607142D01*
X38633390Y-31607142D02*
X38776247Y-31607142D01*
X38776247Y-31607142D02*
X38966723Y-31559523D01*
X38966723Y-31559523D02*
X39061961Y-31511904D01*
X39061961Y-31511904D02*
X39157200Y-31416666D01*
X39157200Y-31416666D02*
X39204819Y-31273809D01*
X39204819Y-31273809D02*
X39204819Y-31035714D01*
X39204819Y-32559523D02*
X39204819Y-31988095D01*
X39204819Y-32273809D02*
X38204819Y-32273809D01*
X38204819Y-32273809D02*
X38347676Y-32178571D01*
X38347676Y-32178571D02*
X38442914Y-32083333D01*
X38442914Y-32083333D02*
X38490533Y-31988095D01*
X39204819Y-33035714D02*
X39204819Y-33226190D01*
X39204819Y-33226190D02*
X39157200Y-33321428D01*
X39157200Y-33321428D02*
X39109580Y-33369047D01*
X39109580Y-33369047D02*
X38966723Y-33464285D01*
X38966723Y-33464285D02*
X38776247Y-33511904D01*
X38776247Y-33511904D02*
X38395295Y-33511904D01*
X38395295Y-33511904D02*
X38300057Y-33464285D01*
X38300057Y-33464285D02*
X38252438Y-33416666D01*
X38252438Y-33416666D02*
X38204819Y-33321428D01*
X38204819Y-33321428D02*
X38204819Y-33130952D01*
X38204819Y-33130952D02*
X38252438Y-33035714D01*
X38252438Y-33035714D02*
X38300057Y-32988095D01*
X38300057Y-32988095D02*
X38395295Y-32940476D01*
X38395295Y-32940476D02*
X38633390Y-32940476D01*
X38633390Y-32940476D02*
X38728628Y-32988095D01*
X38728628Y-32988095D02*
X38776247Y-33035714D01*
X38776247Y-33035714D02*
X38823866Y-33130952D01*
X38823866Y-33130952D02*
X38823866Y-33321428D01*
X38823866Y-33321428D02*
X38776247Y-33416666D01*
X38776247Y-33416666D02*
X38728628Y-33464285D01*
X38728628Y-33464285D02*
X38633390Y-33511904D01*
X25954819Y-58261905D02*
X24954819Y-58261905D01*
X24954819Y-58261905D02*
X24954819Y-58500000D01*
X24954819Y-58500000D02*
X25002438Y-58642857D01*
X25002438Y-58642857D02*
X25097676Y-58738095D01*
X25097676Y-58738095D02*
X25192914Y-58785714D01*
X25192914Y-58785714D02*
X25383390Y-58833333D01*
X25383390Y-58833333D02*
X25526247Y-58833333D01*
X25526247Y-58833333D02*
X25716723Y-58785714D01*
X25716723Y-58785714D02*
X25811961Y-58738095D01*
X25811961Y-58738095D02*
X25907200Y-58642857D01*
X25907200Y-58642857D02*
X25954819Y-58500000D01*
X25954819Y-58500000D02*
X25954819Y-58261905D01*
X24954819Y-59166667D02*
X24954819Y-59785714D01*
X24954819Y-59785714D02*
X25335771Y-59452381D01*
X25335771Y-59452381D02*
X25335771Y-59595238D01*
X25335771Y-59595238D02*
X25383390Y-59690476D01*
X25383390Y-59690476D02*
X25431009Y-59738095D01*
X25431009Y-59738095D02*
X25526247Y-59785714D01*
X25526247Y-59785714D02*
X25764342Y-59785714D01*
X25764342Y-59785714D02*
X25859580Y-59738095D01*
X25859580Y-59738095D02*
X25907200Y-59690476D01*
X25907200Y-59690476D02*
X25954819Y-59595238D01*
X25954819Y-59595238D02*
X25954819Y-59309524D01*
X25954819Y-59309524D02*
X25907200Y-59214286D01*
X25907200Y-59214286D02*
X25859580Y-59166667D01*
X40454819Y-72607142D02*
X39978628Y-72273809D01*
X40454819Y-72035714D02*
X39454819Y-72035714D01*
X39454819Y-72035714D02*
X39454819Y-72416666D01*
X39454819Y-72416666D02*
X39502438Y-72511904D01*
X39502438Y-72511904D02*
X39550057Y-72559523D01*
X39550057Y-72559523D02*
X39645295Y-72607142D01*
X39645295Y-72607142D02*
X39788152Y-72607142D01*
X39788152Y-72607142D02*
X39883390Y-72559523D01*
X39883390Y-72559523D02*
X39931009Y-72511904D01*
X39931009Y-72511904D02*
X39978628Y-72416666D01*
X39978628Y-72416666D02*
X39978628Y-72035714D01*
X39550057Y-72988095D02*
X39502438Y-73035714D01*
X39502438Y-73035714D02*
X39454819Y-73130952D01*
X39454819Y-73130952D02*
X39454819Y-73369047D01*
X39454819Y-73369047D02*
X39502438Y-73464285D01*
X39502438Y-73464285D02*
X39550057Y-73511904D01*
X39550057Y-73511904D02*
X39645295Y-73559523D01*
X39645295Y-73559523D02*
X39740533Y-73559523D01*
X39740533Y-73559523D02*
X39883390Y-73511904D01*
X39883390Y-73511904D02*
X40454819Y-72940476D01*
X40454819Y-72940476D02*
X40454819Y-73559523D01*
X40454819Y-74511904D02*
X40454819Y-73940476D01*
X40454819Y-74226190D02*
X39454819Y-74226190D01*
X39454819Y-74226190D02*
X39597676Y-74130952D01*
X39597676Y-74130952D02*
X39692914Y-74035714D01*
X39692914Y-74035714D02*
X39740533Y-73940476D01*
X36954819Y-78833333D02*
X36478628Y-78500000D01*
X36954819Y-78261905D02*
X35954819Y-78261905D01*
X35954819Y-78261905D02*
X35954819Y-78642857D01*
X35954819Y-78642857D02*
X36002438Y-78738095D01*
X36002438Y-78738095D02*
X36050057Y-78785714D01*
X36050057Y-78785714D02*
X36145295Y-78833333D01*
X36145295Y-78833333D02*
X36288152Y-78833333D01*
X36288152Y-78833333D02*
X36383390Y-78785714D01*
X36383390Y-78785714D02*
X36431009Y-78738095D01*
X36431009Y-78738095D02*
X36478628Y-78642857D01*
X36478628Y-78642857D02*
X36478628Y-78261905D01*
X36383390Y-79404762D02*
X36335771Y-79309524D01*
X36335771Y-79309524D02*
X36288152Y-79261905D01*
X36288152Y-79261905D02*
X36192914Y-79214286D01*
X36192914Y-79214286D02*
X36145295Y-79214286D01*
X36145295Y-79214286D02*
X36050057Y-79261905D01*
X36050057Y-79261905D02*
X36002438Y-79309524D01*
X36002438Y-79309524D02*
X35954819Y-79404762D01*
X35954819Y-79404762D02*
X35954819Y-79595238D01*
X35954819Y-79595238D02*
X36002438Y-79690476D01*
X36002438Y-79690476D02*
X36050057Y-79738095D01*
X36050057Y-79738095D02*
X36145295Y-79785714D01*
X36145295Y-79785714D02*
X36192914Y-79785714D01*
X36192914Y-79785714D02*
X36288152Y-79738095D01*
X36288152Y-79738095D02*
X36335771Y-79690476D01*
X36335771Y-79690476D02*
X36383390Y-79595238D01*
X36383390Y-79595238D02*
X36383390Y-79404762D01*
X36383390Y-79404762D02*
X36431009Y-79309524D01*
X36431009Y-79309524D02*
X36478628Y-79261905D01*
X36478628Y-79261905D02*
X36573866Y-79214286D01*
X36573866Y-79214286D02*
X36764342Y-79214286D01*
X36764342Y-79214286D02*
X36859580Y-79261905D01*
X36859580Y-79261905D02*
X36907200Y-79309524D01*
X36907200Y-79309524D02*
X36954819Y-79404762D01*
X36954819Y-79404762D02*
X36954819Y-79595238D01*
X36954819Y-79595238D02*
X36907200Y-79690476D01*
X36907200Y-79690476D02*
X36859580Y-79738095D01*
X36859580Y-79738095D02*
X36764342Y-79785714D01*
X36764342Y-79785714D02*
X36573866Y-79785714D01*
X36573866Y-79785714D02*
X36478628Y-79738095D01*
X36478628Y-79738095D02*
X36431009Y-79690476D01*
X36431009Y-79690476D02*
X36383390Y-79595238D01*
X42859580Y-58357142D02*
X42907200Y-58309523D01*
X42907200Y-58309523D02*
X42954819Y-58166666D01*
X42954819Y-58166666D02*
X42954819Y-58071428D01*
X42954819Y-58071428D02*
X42907200Y-57928571D01*
X42907200Y-57928571D02*
X42811961Y-57833333D01*
X42811961Y-57833333D02*
X42716723Y-57785714D01*
X42716723Y-57785714D02*
X42526247Y-57738095D01*
X42526247Y-57738095D02*
X42383390Y-57738095D01*
X42383390Y-57738095D02*
X42192914Y-57785714D01*
X42192914Y-57785714D02*
X42097676Y-57833333D01*
X42097676Y-57833333D02*
X42002438Y-57928571D01*
X42002438Y-57928571D02*
X41954819Y-58071428D01*
X41954819Y-58071428D02*
X41954819Y-58166666D01*
X41954819Y-58166666D02*
X42002438Y-58309523D01*
X42002438Y-58309523D02*
X42050057Y-58357142D01*
X42954819Y-59309523D02*
X42954819Y-58738095D01*
X42954819Y-59023809D02*
X41954819Y-59023809D01*
X41954819Y-59023809D02*
X42097676Y-58928571D01*
X42097676Y-58928571D02*
X42192914Y-58833333D01*
X42192914Y-58833333D02*
X42240533Y-58738095D01*
X42383390Y-59880952D02*
X42335771Y-59785714D01*
X42335771Y-59785714D02*
X42288152Y-59738095D01*
X42288152Y-59738095D02*
X42192914Y-59690476D01*
X42192914Y-59690476D02*
X42145295Y-59690476D01*
X42145295Y-59690476D02*
X42050057Y-59738095D01*
X42050057Y-59738095D02*
X42002438Y-59785714D01*
X42002438Y-59785714D02*
X41954819Y-59880952D01*
X41954819Y-59880952D02*
X41954819Y-60071428D01*
X41954819Y-60071428D02*
X42002438Y-60166666D01*
X42002438Y-60166666D02*
X42050057Y-60214285D01*
X42050057Y-60214285D02*
X42145295Y-60261904D01*
X42145295Y-60261904D02*
X42192914Y-60261904D01*
X42192914Y-60261904D02*
X42288152Y-60214285D01*
X42288152Y-60214285D02*
X42335771Y-60166666D01*
X42335771Y-60166666D02*
X42383390Y-60071428D01*
X42383390Y-60071428D02*
X42383390Y-59880952D01*
X42383390Y-59880952D02*
X42431009Y-59785714D01*
X42431009Y-59785714D02*
X42478628Y-59738095D01*
X42478628Y-59738095D02*
X42573866Y-59690476D01*
X42573866Y-59690476D02*
X42764342Y-59690476D01*
X42764342Y-59690476D02*
X42859580Y-59738095D01*
X42859580Y-59738095D02*
X42907200Y-59785714D01*
X42907200Y-59785714D02*
X42954819Y-59880952D01*
X42954819Y-59880952D02*
X42954819Y-60071428D01*
X42954819Y-60071428D02*
X42907200Y-60166666D01*
X42907200Y-60166666D02*
X42859580Y-60214285D01*
X42859580Y-60214285D02*
X42764342Y-60261904D01*
X42764342Y-60261904D02*
X42573866Y-60261904D01*
X42573866Y-60261904D02*
X42478628Y-60214285D01*
X42478628Y-60214285D02*
X42431009Y-60166666D01*
X42431009Y-60166666D02*
X42383390Y-60071428D01*
X39738094Y-48454819D02*
X39738094Y-47454819D01*
X39738094Y-47454819D02*
X39499999Y-47454819D01*
X39499999Y-47454819D02*
X39357142Y-47502438D01*
X39357142Y-47502438D02*
X39261904Y-47597676D01*
X39261904Y-47597676D02*
X39214285Y-47692914D01*
X39214285Y-47692914D02*
X39166666Y-47883390D01*
X39166666Y-47883390D02*
X39166666Y-48026247D01*
X39166666Y-48026247D02*
X39214285Y-48216723D01*
X39214285Y-48216723D02*
X39261904Y-48311961D01*
X39261904Y-48311961D02*
X39357142Y-48407200D01*
X39357142Y-48407200D02*
X39499999Y-48454819D01*
X39499999Y-48454819D02*
X39738094Y-48454819D01*
X38595237Y-47883390D02*
X38690475Y-47835771D01*
X38690475Y-47835771D02*
X38738094Y-47788152D01*
X38738094Y-47788152D02*
X38785713Y-47692914D01*
X38785713Y-47692914D02*
X38785713Y-47645295D01*
X38785713Y-47645295D02*
X38738094Y-47550057D01*
X38738094Y-47550057D02*
X38690475Y-47502438D01*
X38690475Y-47502438D02*
X38595237Y-47454819D01*
X38595237Y-47454819D02*
X38404761Y-47454819D01*
X38404761Y-47454819D02*
X38309523Y-47502438D01*
X38309523Y-47502438D02*
X38261904Y-47550057D01*
X38261904Y-47550057D02*
X38214285Y-47645295D01*
X38214285Y-47645295D02*
X38214285Y-47692914D01*
X38214285Y-47692914D02*
X38261904Y-47788152D01*
X38261904Y-47788152D02*
X38309523Y-47835771D01*
X38309523Y-47835771D02*
X38404761Y-47883390D01*
X38404761Y-47883390D02*
X38595237Y-47883390D01*
X38595237Y-47883390D02*
X38690475Y-47931009D01*
X38690475Y-47931009D02*
X38738094Y-47978628D01*
X38738094Y-47978628D02*
X38785713Y-48073866D01*
X38785713Y-48073866D02*
X38785713Y-48264342D01*
X38785713Y-48264342D02*
X38738094Y-48359580D01*
X38738094Y-48359580D02*
X38690475Y-48407200D01*
X38690475Y-48407200D02*
X38595237Y-48454819D01*
X38595237Y-48454819D02*
X38404761Y-48454819D01*
X38404761Y-48454819D02*
X38309523Y-48407200D01*
X38309523Y-48407200D02*
X38261904Y-48359580D01*
X38261904Y-48359580D02*
X38214285Y-48264342D01*
X38214285Y-48264342D02*
X38214285Y-48073866D01*
X38214285Y-48073866D02*
X38261904Y-47978628D01*
X38261904Y-47978628D02*
X38309523Y-47931009D01*
X38309523Y-47931009D02*
X38404761Y-47883390D01*
X46642857Y-24859580D02*
X46690476Y-24907200D01*
X46690476Y-24907200D02*
X46833333Y-24954819D01*
X46833333Y-24954819D02*
X46928571Y-24954819D01*
X46928571Y-24954819D02*
X47071428Y-24907200D01*
X47071428Y-24907200D02*
X47166666Y-24811961D01*
X47166666Y-24811961D02*
X47214285Y-24716723D01*
X47214285Y-24716723D02*
X47261904Y-24526247D01*
X47261904Y-24526247D02*
X47261904Y-24383390D01*
X47261904Y-24383390D02*
X47214285Y-24192914D01*
X47214285Y-24192914D02*
X47166666Y-24097676D01*
X47166666Y-24097676D02*
X47071428Y-24002438D01*
X47071428Y-24002438D02*
X46928571Y-23954819D01*
X46928571Y-23954819D02*
X46833333Y-23954819D01*
X46833333Y-23954819D02*
X46690476Y-24002438D01*
X46690476Y-24002438D02*
X46642857Y-24050057D01*
X45690476Y-24954819D02*
X46261904Y-24954819D01*
X45976190Y-24954819D02*
X45976190Y-23954819D01*
X45976190Y-23954819D02*
X46071428Y-24097676D01*
X46071428Y-24097676D02*
X46166666Y-24192914D01*
X46166666Y-24192914D02*
X46261904Y-24240533D01*
X44785714Y-23954819D02*
X45261904Y-23954819D01*
X45261904Y-23954819D02*
X45309523Y-24431009D01*
X45309523Y-24431009D02*
X45261904Y-24383390D01*
X45261904Y-24383390D02*
X45166666Y-24335771D01*
X45166666Y-24335771D02*
X44928571Y-24335771D01*
X44928571Y-24335771D02*
X44833333Y-24383390D01*
X44833333Y-24383390D02*
X44785714Y-24431009D01*
X44785714Y-24431009D02*
X44738095Y-24526247D01*
X44738095Y-24526247D02*
X44738095Y-24764342D01*
X44738095Y-24764342D02*
X44785714Y-24859580D01*
X44785714Y-24859580D02*
X44833333Y-24907200D01*
X44833333Y-24907200D02*
X44928571Y-24954819D01*
X44928571Y-24954819D02*
X45166666Y-24954819D01*
X45166666Y-24954819D02*
X45261904Y-24907200D01*
X45261904Y-24907200D02*
X45309523Y-24859580D01*
X33929580Y-42857142D02*
X33977200Y-42809523D01*
X33977200Y-42809523D02*
X34024819Y-42666666D01*
X34024819Y-42666666D02*
X34024819Y-42571428D01*
X34024819Y-42571428D02*
X33977200Y-42428571D01*
X33977200Y-42428571D02*
X33881961Y-42333333D01*
X33881961Y-42333333D02*
X33786723Y-42285714D01*
X33786723Y-42285714D02*
X33596247Y-42238095D01*
X33596247Y-42238095D02*
X33453390Y-42238095D01*
X33453390Y-42238095D02*
X33262914Y-42285714D01*
X33262914Y-42285714D02*
X33167676Y-42333333D01*
X33167676Y-42333333D02*
X33072438Y-42428571D01*
X33072438Y-42428571D02*
X33024819Y-42571428D01*
X33024819Y-42571428D02*
X33024819Y-42666666D01*
X33024819Y-42666666D02*
X33072438Y-42809523D01*
X33072438Y-42809523D02*
X33120057Y-42857142D01*
X33024819Y-43761904D02*
X33024819Y-43285714D01*
X33024819Y-43285714D02*
X33501009Y-43238095D01*
X33501009Y-43238095D02*
X33453390Y-43285714D01*
X33453390Y-43285714D02*
X33405771Y-43380952D01*
X33405771Y-43380952D02*
X33405771Y-43619047D01*
X33405771Y-43619047D02*
X33453390Y-43714285D01*
X33453390Y-43714285D02*
X33501009Y-43761904D01*
X33501009Y-43761904D02*
X33596247Y-43809523D01*
X33596247Y-43809523D02*
X33834342Y-43809523D01*
X33834342Y-43809523D02*
X33929580Y-43761904D01*
X33929580Y-43761904D02*
X33977200Y-43714285D01*
X33977200Y-43714285D02*
X34024819Y-43619047D01*
X34024819Y-43619047D02*
X34024819Y-43380952D01*
X34024819Y-43380952D02*
X33977200Y-43285714D01*
X33977200Y-43285714D02*
X33929580Y-43238095D01*
X33024819Y-44142857D02*
X33024819Y-44761904D01*
X33024819Y-44761904D02*
X33405771Y-44428571D01*
X33405771Y-44428571D02*
X33405771Y-44571428D01*
X33405771Y-44571428D02*
X33453390Y-44666666D01*
X33453390Y-44666666D02*
X33501009Y-44714285D01*
X33501009Y-44714285D02*
X33596247Y-44761904D01*
X33596247Y-44761904D02*
X33834342Y-44761904D01*
X33834342Y-44761904D02*
X33929580Y-44714285D01*
X33929580Y-44714285D02*
X33977200Y-44666666D01*
X33977200Y-44666666D02*
X34024819Y-44571428D01*
X34024819Y-44571428D02*
X34024819Y-44285714D01*
X34024819Y-44285714D02*
X33977200Y-44190476D01*
X33977200Y-44190476D02*
X33929580Y-44142857D01*
X31392857Y-78109580D02*
X31440476Y-78157200D01*
X31440476Y-78157200D02*
X31583333Y-78204819D01*
X31583333Y-78204819D02*
X31678571Y-78204819D01*
X31678571Y-78204819D02*
X31821428Y-78157200D01*
X31821428Y-78157200D02*
X31916666Y-78061961D01*
X31916666Y-78061961D02*
X31964285Y-77966723D01*
X31964285Y-77966723D02*
X32011904Y-77776247D01*
X32011904Y-77776247D02*
X32011904Y-77633390D01*
X32011904Y-77633390D02*
X31964285Y-77442914D01*
X31964285Y-77442914D02*
X31916666Y-77347676D01*
X31916666Y-77347676D02*
X31821428Y-77252438D01*
X31821428Y-77252438D02*
X31678571Y-77204819D01*
X31678571Y-77204819D02*
X31583333Y-77204819D01*
X31583333Y-77204819D02*
X31440476Y-77252438D01*
X31440476Y-77252438D02*
X31392857Y-77300057D01*
X30440476Y-78204819D02*
X31011904Y-78204819D01*
X30726190Y-78204819D02*
X30726190Y-77204819D01*
X30726190Y-77204819D02*
X30821428Y-77347676D01*
X30821428Y-77347676D02*
X30916666Y-77442914D01*
X30916666Y-77442914D02*
X31011904Y-77490533D01*
X29583333Y-77204819D02*
X29773809Y-77204819D01*
X29773809Y-77204819D02*
X29869047Y-77252438D01*
X29869047Y-77252438D02*
X29916666Y-77300057D01*
X29916666Y-77300057D02*
X30011904Y-77442914D01*
X30011904Y-77442914D02*
X30059523Y-77633390D01*
X30059523Y-77633390D02*
X30059523Y-78014342D01*
X30059523Y-78014342D02*
X30011904Y-78109580D01*
X30011904Y-78109580D02*
X29964285Y-78157200D01*
X29964285Y-78157200D02*
X29869047Y-78204819D01*
X29869047Y-78204819D02*
X29678571Y-78204819D01*
X29678571Y-78204819D02*
X29583333Y-78157200D01*
X29583333Y-78157200D02*
X29535714Y-78109580D01*
X29535714Y-78109580D02*
X29488095Y-78014342D01*
X29488095Y-78014342D02*
X29488095Y-77776247D01*
X29488095Y-77776247D02*
X29535714Y-77681009D01*
X29535714Y-77681009D02*
X29583333Y-77633390D01*
X29583333Y-77633390D02*
X29678571Y-77585771D01*
X29678571Y-77585771D02*
X29869047Y-77585771D01*
X29869047Y-77585771D02*
X29964285Y-77633390D01*
X29964285Y-77633390D02*
X30011904Y-77681009D01*
X30011904Y-77681009D02*
X30059523Y-77776247D01*
X21109580Y-37107142D02*
X21157200Y-37059523D01*
X21157200Y-37059523D02*
X21204819Y-36916666D01*
X21204819Y-36916666D02*
X21204819Y-36821428D01*
X21204819Y-36821428D02*
X21157200Y-36678571D01*
X21157200Y-36678571D02*
X21061961Y-36583333D01*
X21061961Y-36583333D02*
X20966723Y-36535714D01*
X20966723Y-36535714D02*
X20776247Y-36488095D01*
X20776247Y-36488095D02*
X20633390Y-36488095D01*
X20633390Y-36488095D02*
X20442914Y-36535714D01*
X20442914Y-36535714D02*
X20347676Y-36583333D01*
X20347676Y-36583333D02*
X20252438Y-36678571D01*
X20252438Y-36678571D02*
X20204819Y-36821428D01*
X20204819Y-36821428D02*
X20204819Y-36916666D01*
X20204819Y-36916666D02*
X20252438Y-37059523D01*
X20252438Y-37059523D02*
X20300057Y-37107142D01*
X20204819Y-38011904D02*
X20204819Y-37535714D01*
X20204819Y-37535714D02*
X20681009Y-37488095D01*
X20681009Y-37488095D02*
X20633390Y-37535714D01*
X20633390Y-37535714D02*
X20585771Y-37630952D01*
X20585771Y-37630952D02*
X20585771Y-37869047D01*
X20585771Y-37869047D02*
X20633390Y-37964285D01*
X20633390Y-37964285D02*
X20681009Y-38011904D01*
X20681009Y-38011904D02*
X20776247Y-38059523D01*
X20776247Y-38059523D02*
X21014342Y-38059523D01*
X21014342Y-38059523D02*
X21109580Y-38011904D01*
X21109580Y-38011904D02*
X21157200Y-37964285D01*
X21157200Y-37964285D02*
X21204819Y-37869047D01*
X21204819Y-37869047D02*
X21204819Y-37630952D01*
X21204819Y-37630952D02*
X21157200Y-37535714D01*
X21157200Y-37535714D02*
X21109580Y-37488095D01*
X20204819Y-38964285D02*
X20204819Y-38488095D01*
X20204819Y-38488095D02*
X20681009Y-38440476D01*
X20681009Y-38440476D02*
X20633390Y-38488095D01*
X20633390Y-38488095D02*
X20585771Y-38583333D01*
X20585771Y-38583333D02*
X20585771Y-38821428D01*
X20585771Y-38821428D02*
X20633390Y-38916666D01*
X20633390Y-38916666D02*
X20681009Y-38964285D01*
X20681009Y-38964285D02*
X20776247Y-39011904D01*
X20776247Y-39011904D02*
X21014342Y-39011904D01*
X21014342Y-39011904D02*
X21109580Y-38964285D01*
X21109580Y-38964285D02*
X21157200Y-38916666D01*
X21157200Y-38916666D02*
X21204819Y-38821428D01*
X21204819Y-38821428D02*
X21204819Y-38583333D01*
X21204819Y-38583333D02*
X21157200Y-38488095D01*
X21157200Y-38488095D02*
X21109580Y-38440476D01*
X27204819Y-30785714D02*
X26204819Y-30785714D01*
X26204819Y-30785714D02*
X26204819Y-31023809D01*
X26204819Y-31023809D02*
X26252438Y-31166666D01*
X26252438Y-31166666D02*
X26347676Y-31261904D01*
X26347676Y-31261904D02*
X26442914Y-31309523D01*
X26442914Y-31309523D02*
X26633390Y-31357142D01*
X26633390Y-31357142D02*
X26776247Y-31357142D01*
X26776247Y-31357142D02*
X26966723Y-31309523D01*
X26966723Y-31309523D02*
X27061961Y-31261904D01*
X27061961Y-31261904D02*
X27157200Y-31166666D01*
X27157200Y-31166666D02*
X27204819Y-31023809D01*
X27204819Y-31023809D02*
X27204819Y-30785714D01*
X27204819Y-32309523D02*
X27204819Y-31738095D01*
X27204819Y-32023809D02*
X26204819Y-32023809D01*
X26204819Y-32023809D02*
X26347676Y-31928571D01*
X26347676Y-31928571D02*
X26442914Y-31833333D01*
X26442914Y-31833333D02*
X26490533Y-31738095D01*
X26204819Y-32642857D02*
X26204819Y-33309523D01*
X26204819Y-33309523D02*
X27204819Y-32880952D01*
X41454819Y-69857142D02*
X40978628Y-69523809D01*
X41454819Y-69285714D02*
X40454819Y-69285714D01*
X40454819Y-69285714D02*
X40454819Y-69666666D01*
X40454819Y-69666666D02*
X40502438Y-69761904D01*
X40502438Y-69761904D02*
X40550057Y-69809523D01*
X40550057Y-69809523D02*
X40645295Y-69857142D01*
X40645295Y-69857142D02*
X40788152Y-69857142D01*
X40788152Y-69857142D02*
X40883390Y-69809523D01*
X40883390Y-69809523D02*
X40931009Y-69761904D01*
X40931009Y-69761904D02*
X40978628Y-69666666D01*
X40978628Y-69666666D02*
X40978628Y-69285714D01*
X40550057Y-70238095D02*
X40502438Y-70285714D01*
X40502438Y-70285714D02*
X40454819Y-70380952D01*
X40454819Y-70380952D02*
X40454819Y-70619047D01*
X40454819Y-70619047D02*
X40502438Y-70714285D01*
X40502438Y-70714285D02*
X40550057Y-70761904D01*
X40550057Y-70761904D02*
X40645295Y-70809523D01*
X40645295Y-70809523D02*
X40740533Y-70809523D01*
X40740533Y-70809523D02*
X40883390Y-70761904D01*
X40883390Y-70761904D02*
X41454819Y-70190476D01*
X41454819Y-70190476D02*
X41454819Y-70809523D01*
X40550057Y-71190476D02*
X40502438Y-71238095D01*
X40502438Y-71238095D02*
X40454819Y-71333333D01*
X40454819Y-71333333D02*
X40454819Y-71571428D01*
X40454819Y-71571428D02*
X40502438Y-71666666D01*
X40502438Y-71666666D02*
X40550057Y-71714285D01*
X40550057Y-71714285D02*
X40645295Y-71761904D01*
X40645295Y-71761904D02*
X40740533Y-71761904D01*
X40740533Y-71761904D02*
X40883390Y-71714285D01*
X40883390Y-71714285D02*
X41454819Y-71142857D01*
X41454819Y-71142857D02*
X41454819Y-71761904D01*
X40204819Y-65957142D02*
X39728628Y-65623809D01*
X40204819Y-65385714D02*
X39204819Y-65385714D01*
X39204819Y-65385714D02*
X39204819Y-65766666D01*
X39204819Y-65766666D02*
X39252438Y-65861904D01*
X39252438Y-65861904D02*
X39300057Y-65909523D01*
X39300057Y-65909523D02*
X39395295Y-65957142D01*
X39395295Y-65957142D02*
X39538152Y-65957142D01*
X39538152Y-65957142D02*
X39633390Y-65909523D01*
X39633390Y-65909523D02*
X39681009Y-65861904D01*
X39681009Y-65861904D02*
X39728628Y-65766666D01*
X39728628Y-65766666D02*
X39728628Y-65385714D01*
X40204819Y-66909523D02*
X40204819Y-66338095D01*
X40204819Y-66623809D02*
X39204819Y-66623809D01*
X39204819Y-66623809D02*
X39347676Y-66528571D01*
X39347676Y-66528571D02*
X39442914Y-66433333D01*
X39442914Y-66433333D02*
X39490533Y-66338095D01*
X39204819Y-67766666D02*
X39204819Y-67576190D01*
X39204819Y-67576190D02*
X39252438Y-67480952D01*
X39252438Y-67480952D02*
X39300057Y-67433333D01*
X39300057Y-67433333D02*
X39442914Y-67338095D01*
X39442914Y-67338095D02*
X39633390Y-67290476D01*
X39633390Y-67290476D02*
X40014342Y-67290476D01*
X40014342Y-67290476D02*
X40109580Y-67338095D01*
X40109580Y-67338095D02*
X40157200Y-67385714D01*
X40157200Y-67385714D02*
X40204819Y-67480952D01*
X40204819Y-67480952D02*
X40204819Y-67671428D01*
X40204819Y-67671428D02*
X40157200Y-67766666D01*
X40157200Y-67766666D02*
X40109580Y-67814285D01*
X40109580Y-67814285D02*
X40014342Y-67861904D01*
X40014342Y-67861904D02*
X39776247Y-67861904D01*
X39776247Y-67861904D02*
X39681009Y-67814285D01*
X39681009Y-67814285D02*
X39633390Y-67766666D01*
X39633390Y-67766666D02*
X39585771Y-67671428D01*
X39585771Y-67671428D02*
X39585771Y-67480952D01*
X39585771Y-67480952D02*
X39633390Y-67385714D01*
X39633390Y-67385714D02*
X39681009Y-67338095D01*
X39681009Y-67338095D02*
X39776247Y-67290476D01*
X58011904Y-22954819D02*
X58011904Y-23764342D01*
X58011904Y-23764342D02*
X57964285Y-23859580D01*
X57964285Y-23859580D02*
X57916666Y-23907200D01*
X57916666Y-23907200D02*
X57821428Y-23954819D01*
X57821428Y-23954819D02*
X57630952Y-23954819D01*
X57630952Y-23954819D02*
X57535714Y-23907200D01*
X57535714Y-23907200D02*
X57488095Y-23859580D01*
X57488095Y-23859580D02*
X57440476Y-23764342D01*
X57440476Y-23764342D02*
X57440476Y-22954819D01*
X57059523Y-22954819D02*
X56392857Y-22954819D01*
X56392857Y-22954819D02*
X56821428Y-23954819D01*
X49109580Y-64107142D02*
X49157200Y-64059523D01*
X49157200Y-64059523D02*
X49204819Y-63916666D01*
X49204819Y-63916666D02*
X49204819Y-63821428D01*
X49204819Y-63821428D02*
X49157200Y-63678571D01*
X49157200Y-63678571D02*
X49061961Y-63583333D01*
X49061961Y-63583333D02*
X48966723Y-63535714D01*
X48966723Y-63535714D02*
X48776247Y-63488095D01*
X48776247Y-63488095D02*
X48633390Y-63488095D01*
X48633390Y-63488095D02*
X48442914Y-63535714D01*
X48442914Y-63535714D02*
X48347676Y-63583333D01*
X48347676Y-63583333D02*
X48252438Y-63678571D01*
X48252438Y-63678571D02*
X48204819Y-63821428D01*
X48204819Y-63821428D02*
X48204819Y-63916666D01*
X48204819Y-63916666D02*
X48252438Y-64059523D01*
X48252438Y-64059523D02*
X48300057Y-64107142D01*
X48204819Y-64440476D02*
X48204819Y-65059523D01*
X48204819Y-65059523D02*
X48585771Y-64726190D01*
X48585771Y-64726190D02*
X48585771Y-64869047D01*
X48585771Y-64869047D02*
X48633390Y-64964285D01*
X48633390Y-64964285D02*
X48681009Y-65011904D01*
X48681009Y-65011904D02*
X48776247Y-65059523D01*
X48776247Y-65059523D02*
X49014342Y-65059523D01*
X49014342Y-65059523D02*
X49109580Y-65011904D01*
X49109580Y-65011904D02*
X49157200Y-64964285D01*
X49157200Y-64964285D02*
X49204819Y-64869047D01*
X49204819Y-64869047D02*
X49204819Y-64583333D01*
X49204819Y-64583333D02*
X49157200Y-64488095D01*
X49157200Y-64488095D02*
X49109580Y-64440476D01*
X48633390Y-65630952D02*
X48585771Y-65535714D01*
X48585771Y-65535714D02*
X48538152Y-65488095D01*
X48538152Y-65488095D02*
X48442914Y-65440476D01*
X48442914Y-65440476D02*
X48395295Y-65440476D01*
X48395295Y-65440476D02*
X48300057Y-65488095D01*
X48300057Y-65488095D02*
X48252438Y-65535714D01*
X48252438Y-65535714D02*
X48204819Y-65630952D01*
X48204819Y-65630952D02*
X48204819Y-65821428D01*
X48204819Y-65821428D02*
X48252438Y-65916666D01*
X48252438Y-65916666D02*
X48300057Y-65964285D01*
X48300057Y-65964285D02*
X48395295Y-66011904D01*
X48395295Y-66011904D02*
X48442914Y-66011904D01*
X48442914Y-66011904D02*
X48538152Y-65964285D01*
X48538152Y-65964285D02*
X48585771Y-65916666D01*
X48585771Y-65916666D02*
X48633390Y-65821428D01*
X48633390Y-65821428D02*
X48633390Y-65630952D01*
X48633390Y-65630952D02*
X48681009Y-65535714D01*
X48681009Y-65535714D02*
X48728628Y-65488095D01*
X48728628Y-65488095D02*
X48823866Y-65440476D01*
X48823866Y-65440476D02*
X49014342Y-65440476D01*
X49014342Y-65440476D02*
X49109580Y-65488095D01*
X49109580Y-65488095D02*
X49157200Y-65535714D01*
X49157200Y-65535714D02*
X49204819Y-65630952D01*
X49204819Y-65630952D02*
X49204819Y-65821428D01*
X49204819Y-65821428D02*
X49157200Y-65916666D01*
X49157200Y-65916666D02*
X49109580Y-65964285D01*
X49109580Y-65964285D02*
X49014342Y-66011904D01*
X49014342Y-66011904D02*
X48823866Y-66011904D01*
X48823866Y-66011904D02*
X48728628Y-65964285D01*
X48728628Y-65964285D02*
X48681009Y-65916666D01*
X48681009Y-65916666D02*
X48633390Y-65821428D01*
X21416666Y-71204819D02*
X21892856Y-71204819D01*
X21892856Y-71204819D02*
X21892856Y-70204819D01*
X20654761Y-70538152D02*
X20654761Y-71204819D01*
X20892856Y-70157200D02*
X21130951Y-70871485D01*
X21130951Y-70871485D02*
X20511904Y-70871485D01*
X62859580Y-40357142D02*
X62907200Y-40309523D01*
X62907200Y-40309523D02*
X62954819Y-40166666D01*
X62954819Y-40166666D02*
X62954819Y-40071428D01*
X62954819Y-40071428D02*
X62907200Y-39928571D01*
X62907200Y-39928571D02*
X62811961Y-39833333D01*
X62811961Y-39833333D02*
X62716723Y-39785714D01*
X62716723Y-39785714D02*
X62526247Y-39738095D01*
X62526247Y-39738095D02*
X62383390Y-39738095D01*
X62383390Y-39738095D02*
X62192914Y-39785714D01*
X62192914Y-39785714D02*
X62097676Y-39833333D01*
X62097676Y-39833333D02*
X62002438Y-39928571D01*
X62002438Y-39928571D02*
X61954819Y-40071428D01*
X61954819Y-40071428D02*
X61954819Y-40166666D01*
X61954819Y-40166666D02*
X62002438Y-40309523D01*
X62002438Y-40309523D02*
X62050057Y-40357142D01*
X62050057Y-40738095D02*
X62002438Y-40785714D01*
X62002438Y-40785714D02*
X61954819Y-40880952D01*
X61954819Y-40880952D02*
X61954819Y-41119047D01*
X61954819Y-41119047D02*
X62002438Y-41214285D01*
X62002438Y-41214285D02*
X62050057Y-41261904D01*
X62050057Y-41261904D02*
X62145295Y-41309523D01*
X62145295Y-41309523D02*
X62240533Y-41309523D01*
X62240533Y-41309523D02*
X62383390Y-41261904D01*
X62383390Y-41261904D02*
X62954819Y-40690476D01*
X62954819Y-40690476D02*
X62954819Y-41309523D01*
X62050057Y-41690476D02*
X62002438Y-41738095D01*
X62002438Y-41738095D02*
X61954819Y-41833333D01*
X61954819Y-41833333D02*
X61954819Y-42071428D01*
X61954819Y-42071428D02*
X62002438Y-42166666D01*
X62002438Y-42166666D02*
X62050057Y-42214285D01*
X62050057Y-42214285D02*
X62145295Y-42261904D01*
X62145295Y-42261904D02*
X62240533Y-42261904D01*
X62240533Y-42261904D02*
X62383390Y-42214285D01*
X62383390Y-42214285D02*
X62954819Y-41642857D01*
X62954819Y-41642857D02*
X62954819Y-42261904D01*
X24392857Y-17109580D02*
X24440476Y-17157200D01*
X24440476Y-17157200D02*
X24583333Y-17204819D01*
X24583333Y-17204819D02*
X24678571Y-17204819D01*
X24678571Y-17204819D02*
X24821428Y-17157200D01*
X24821428Y-17157200D02*
X24916666Y-17061961D01*
X24916666Y-17061961D02*
X24964285Y-16966723D01*
X24964285Y-16966723D02*
X25011904Y-16776247D01*
X25011904Y-16776247D02*
X25011904Y-16633390D01*
X25011904Y-16633390D02*
X24964285Y-16442914D01*
X24964285Y-16442914D02*
X24916666Y-16347676D01*
X24916666Y-16347676D02*
X24821428Y-16252438D01*
X24821428Y-16252438D02*
X24678571Y-16204819D01*
X24678571Y-16204819D02*
X24583333Y-16204819D01*
X24583333Y-16204819D02*
X24440476Y-16252438D01*
X24440476Y-16252438D02*
X24392857Y-16300057D01*
X24011904Y-16300057D02*
X23964285Y-16252438D01*
X23964285Y-16252438D02*
X23869047Y-16204819D01*
X23869047Y-16204819D02*
X23630952Y-16204819D01*
X23630952Y-16204819D02*
X23535714Y-16252438D01*
X23535714Y-16252438D02*
X23488095Y-16300057D01*
X23488095Y-16300057D02*
X23440476Y-16395295D01*
X23440476Y-16395295D02*
X23440476Y-16490533D01*
X23440476Y-16490533D02*
X23488095Y-16633390D01*
X23488095Y-16633390D02*
X24059523Y-17204819D01*
X24059523Y-17204819D02*
X23440476Y-17204819D01*
X22535714Y-16204819D02*
X23011904Y-16204819D01*
X23011904Y-16204819D02*
X23059523Y-16681009D01*
X23059523Y-16681009D02*
X23011904Y-16633390D01*
X23011904Y-16633390D02*
X22916666Y-16585771D01*
X22916666Y-16585771D02*
X22678571Y-16585771D01*
X22678571Y-16585771D02*
X22583333Y-16633390D01*
X22583333Y-16633390D02*
X22535714Y-16681009D01*
X22535714Y-16681009D02*
X22488095Y-16776247D01*
X22488095Y-16776247D02*
X22488095Y-17014342D01*
X22488095Y-17014342D02*
X22535714Y-17109580D01*
X22535714Y-17109580D02*
X22583333Y-17157200D01*
X22583333Y-17157200D02*
X22678571Y-17204819D01*
X22678571Y-17204819D02*
X22916666Y-17204819D01*
X22916666Y-17204819D02*
X23011904Y-17157200D01*
X23011904Y-17157200D02*
X23059523Y-17109580D01*
X47988094Y-60454819D02*
X47988094Y-59454819D01*
X47988094Y-59454819D02*
X47749999Y-59454819D01*
X47749999Y-59454819D02*
X47607142Y-59502438D01*
X47607142Y-59502438D02*
X47511904Y-59597676D01*
X47511904Y-59597676D02*
X47464285Y-59692914D01*
X47464285Y-59692914D02*
X47416666Y-59883390D01*
X47416666Y-59883390D02*
X47416666Y-60026247D01*
X47416666Y-60026247D02*
X47464285Y-60216723D01*
X47464285Y-60216723D02*
X47511904Y-60311961D01*
X47511904Y-60311961D02*
X47607142Y-60407200D01*
X47607142Y-60407200D02*
X47749999Y-60454819D01*
X47749999Y-60454819D02*
X47988094Y-60454819D01*
X46464285Y-60454819D02*
X47035713Y-60454819D01*
X46749999Y-60454819D02*
X46749999Y-59454819D01*
X46749999Y-59454819D02*
X46845237Y-59597676D01*
X46845237Y-59597676D02*
X46940475Y-59692914D01*
X46940475Y-59692914D02*
X47035713Y-59740533D01*
X21204819Y-34357142D02*
X20728628Y-34023809D01*
X21204819Y-33785714D02*
X20204819Y-33785714D01*
X20204819Y-33785714D02*
X20204819Y-34166666D01*
X20204819Y-34166666D02*
X20252438Y-34261904D01*
X20252438Y-34261904D02*
X20300057Y-34309523D01*
X20300057Y-34309523D02*
X20395295Y-34357142D01*
X20395295Y-34357142D02*
X20538152Y-34357142D01*
X20538152Y-34357142D02*
X20633390Y-34309523D01*
X20633390Y-34309523D02*
X20681009Y-34261904D01*
X20681009Y-34261904D02*
X20728628Y-34166666D01*
X20728628Y-34166666D02*
X20728628Y-33785714D01*
X20300057Y-34738095D02*
X20252438Y-34785714D01*
X20252438Y-34785714D02*
X20204819Y-34880952D01*
X20204819Y-34880952D02*
X20204819Y-35119047D01*
X20204819Y-35119047D02*
X20252438Y-35214285D01*
X20252438Y-35214285D02*
X20300057Y-35261904D01*
X20300057Y-35261904D02*
X20395295Y-35309523D01*
X20395295Y-35309523D02*
X20490533Y-35309523D01*
X20490533Y-35309523D02*
X20633390Y-35261904D01*
X20633390Y-35261904D02*
X21204819Y-34690476D01*
X21204819Y-34690476D02*
X21204819Y-35309523D01*
X20204819Y-36214285D02*
X20204819Y-35738095D01*
X20204819Y-35738095D02*
X20681009Y-35690476D01*
X20681009Y-35690476D02*
X20633390Y-35738095D01*
X20633390Y-35738095D02*
X20585771Y-35833333D01*
X20585771Y-35833333D02*
X20585771Y-36071428D01*
X20585771Y-36071428D02*
X20633390Y-36166666D01*
X20633390Y-36166666D02*
X20681009Y-36214285D01*
X20681009Y-36214285D02*
X20776247Y-36261904D01*
X20776247Y-36261904D02*
X21014342Y-36261904D01*
X21014342Y-36261904D02*
X21109580Y-36214285D01*
X21109580Y-36214285D02*
X21157200Y-36166666D01*
X21157200Y-36166666D02*
X21204819Y-36071428D01*
X21204819Y-36071428D02*
X21204819Y-35833333D01*
X21204819Y-35833333D02*
X21157200Y-35738095D01*
X21157200Y-35738095D02*
X21109580Y-35690476D01*
X59261904Y-59704819D02*
X59261904Y-60514342D01*
X59261904Y-60514342D02*
X59214285Y-60609580D01*
X59214285Y-60609580D02*
X59166666Y-60657200D01*
X59166666Y-60657200D02*
X59071428Y-60704819D01*
X59071428Y-60704819D02*
X58880952Y-60704819D01*
X58880952Y-60704819D02*
X58785714Y-60657200D01*
X58785714Y-60657200D02*
X58738095Y-60609580D01*
X58738095Y-60609580D02*
X58690476Y-60514342D01*
X58690476Y-60514342D02*
X58690476Y-59704819D01*
X58071428Y-60133390D02*
X58166666Y-60085771D01*
X58166666Y-60085771D02*
X58214285Y-60038152D01*
X58214285Y-60038152D02*
X58261904Y-59942914D01*
X58261904Y-59942914D02*
X58261904Y-59895295D01*
X58261904Y-59895295D02*
X58214285Y-59800057D01*
X58214285Y-59800057D02*
X58166666Y-59752438D01*
X58166666Y-59752438D02*
X58071428Y-59704819D01*
X58071428Y-59704819D02*
X57880952Y-59704819D01*
X57880952Y-59704819D02*
X57785714Y-59752438D01*
X57785714Y-59752438D02*
X57738095Y-59800057D01*
X57738095Y-59800057D02*
X57690476Y-59895295D01*
X57690476Y-59895295D02*
X57690476Y-59942914D01*
X57690476Y-59942914D02*
X57738095Y-60038152D01*
X57738095Y-60038152D02*
X57785714Y-60085771D01*
X57785714Y-60085771D02*
X57880952Y-60133390D01*
X57880952Y-60133390D02*
X58071428Y-60133390D01*
X58071428Y-60133390D02*
X58166666Y-60181009D01*
X58166666Y-60181009D02*
X58214285Y-60228628D01*
X58214285Y-60228628D02*
X58261904Y-60323866D01*
X58261904Y-60323866D02*
X58261904Y-60514342D01*
X58261904Y-60514342D02*
X58214285Y-60609580D01*
X58214285Y-60609580D02*
X58166666Y-60657200D01*
X58166666Y-60657200D02*
X58071428Y-60704819D01*
X58071428Y-60704819D02*
X57880952Y-60704819D01*
X57880952Y-60704819D02*
X57785714Y-60657200D01*
X57785714Y-60657200D02*
X57738095Y-60609580D01*
X57738095Y-60609580D02*
X57690476Y-60514342D01*
X57690476Y-60514342D02*
X57690476Y-60323866D01*
X57690476Y-60323866D02*
X57738095Y-60228628D01*
X57738095Y-60228628D02*
X57785714Y-60181009D01*
X57785714Y-60181009D02*
X57880952Y-60133390D01*
X45454819Y-59083333D02*
X44978628Y-58750000D01*
X45454819Y-58511905D02*
X44454819Y-58511905D01*
X44454819Y-58511905D02*
X44454819Y-58892857D01*
X44454819Y-58892857D02*
X44502438Y-58988095D01*
X44502438Y-58988095D02*
X44550057Y-59035714D01*
X44550057Y-59035714D02*
X44645295Y-59083333D01*
X44645295Y-59083333D02*
X44788152Y-59083333D01*
X44788152Y-59083333D02*
X44883390Y-59035714D01*
X44883390Y-59035714D02*
X44931009Y-58988095D01*
X44931009Y-58988095D02*
X44978628Y-58892857D01*
X44978628Y-58892857D02*
X44978628Y-58511905D01*
X45454819Y-60035714D02*
X45454819Y-59464286D01*
X45454819Y-59750000D02*
X44454819Y-59750000D01*
X44454819Y-59750000D02*
X44597676Y-59654762D01*
X44597676Y-59654762D02*
X44692914Y-59559524D01*
X44692914Y-59559524D02*
X44740533Y-59464286D01*
X49109580Y-60357142D02*
X49157200Y-60309523D01*
X49157200Y-60309523D02*
X49204819Y-60166666D01*
X49204819Y-60166666D02*
X49204819Y-60071428D01*
X49204819Y-60071428D02*
X49157200Y-59928571D01*
X49157200Y-59928571D02*
X49061961Y-59833333D01*
X49061961Y-59833333D02*
X48966723Y-59785714D01*
X48966723Y-59785714D02*
X48776247Y-59738095D01*
X48776247Y-59738095D02*
X48633390Y-59738095D01*
X48633390Y-59738095D02*
X48442914Y-59785714D01*
X48442914Y-59785714D02*
X48347676Y-59833333D01*
X48347676Y-59833333D02*
X48252438Y-59928571D01*
X48252438Y-59928571D02*
X48204819Y-60071428D01*
X48204819Y-60071428D02*
X48204819Y-60166666D01*
X48204819Y-60166666D02*
X48252438Y-60309523D01*
X48252438Y-60309523D02*
X48300057Y-60357142D01*
X48204819Y-60690476D02*
X48204819Y-61309523D01*
X48204819Y-61309523D02*
X48585771Y-60976190D01*
X48585771Y-60976190D02*
X48585771Y-61119047D01*
X48585771Y-61119047D02*
X48633390Y-61214285D01*
X48633390Y-61214285D02*
X48681009Y-61261904D01*
X48681009Y-61261904D02*
X48776247Y-61309523D01*
X48776247Y-61309523D02*
X49014342Y-61309523D01*
X49014342Y-61309523D02*
X49109580Y-61261904D01*
X49109580Y-61261904D02*
X49157200Y-61214285D01*
X49157200Y-61214285D02*
X49204819Y-61119047D01*
X49204819Y-61119047D02*
X49204819Y-60833333D01*
X49204819Y-60833333D02*
X49157200Y-60738095D01*
X49157200Y-60738095D02*
X49109580Y-60690476D01*
X49204819Y-61785714D02*
X49204819Y-61976190D01*
X49204819Y-61976190D02*
X49157200Y-62071428D01*
X49157200Y-62071428D02*
X49109580Y-62119047D01*
X49109580Y-62119047D02*
X48966723Y-62214285D01*
X48966723Y-62214285D02*
X48776247Y-62261904D01*
X48776247Y-62261904D02*
X48395295Y-62261904D01*
X48395295Y-62261904D02*
X48300057Y-62214285D01*
X48300057Y-62214285D02*
X48252438Y-62166666D01*
X48252438Y-62166666D02*
X48204819Y-62071428D01*
X48204819Y-62071428D02*
X48204819Y-61880952D01*
X48204819Y-61880952D02*
X48252438Y-61785714D01*
X48252438Y-61785714D02*
X48300057Y-61738095D01*
X48300057Y-61738095D02*
X48395295Y-61690476D01*
X48395295Y-61690476D02*
X48633390Y-61690476D01*
X48633390Y-61690476D02*
X48728628Y-61738095D01*
X48728628Y-61738095D02*
X48776247Y-61785714D01*
X48776247Y-61785714D02*
X48823866Y-61880952D01*
X48823866Y-61880952D02*
X48823866Y-62071428D01*
X48823866Y-62071428D02*
X48776247Y-62166666D01*
X48776247Y-62166666D02*
X48728628Y-62214285D01*
X48728628Y-62214285D02*
X48633390Y-62261904D01*
X26488094Y-48704819D02*
X26488094Y-47704819D01*
X26488094Y-47704819D02*
X26249999Y-47704819D01*
X26249999Y-47704819D02*
X26107142Y-47752438D01*
X26107142Y-47752438D02*
X26011904Y-47847676D01*
X26011904Y-47847676D02*
X25964285Y-47942914D01*
X25964285Y-47942914D02*
X25916666Y-48133390D01*
X25916666Y-48133390D02*
X25916666Y-48276247D01*
X25916666Y-48276247D02*
X25964285Y-48466723D01*
X25964285Y-48466723D02*
X26011904Y-48561961D01*
X26011904Y-48561961D02*
X26107142Y-48657200D01*
X26107142Y-48657200D02*
X26249999Y-48704819D01*
X26249999Y-48704819D02*
X26488094Y-48704819D01*
X25059523Y-47704819D02*
X25249999Y-47704819D01*
X25249999Y-47704819D02*
X25345237Y-47752438D01*
X25345237Y-47752438D02*
X25392856Y-47800057D01*
X25392856Y-47800057D02*
X25488094Y-47942914D01*
X25488094Y-47942914D02*
X25535713Y-48133390D01*
X25535713Y-48133390D02*
X25535713Y-48514342D01*
X25535713Y-48514342D02*
X25488094Y-48609580D01*
X25488094Y-48609580D02*
X25440475Y-48657200D01*
X25440475Y-48657200D02*
X25345237Y-48704819D01*
X25345237Y-48704819D02*
X25154761Y-48704819D01*
X25154761Y-48704819D02*
X25059523Y-48657200D01*
X25059523Y-48657200D02*
X25011904Y-48609580D01*
X25011904Y-48609580D02*
X24964285Y-48514342D01*
X24964285Y-48514342D02*
X24964285Y-48276247D01*
X24964285Y-48276247D02*
X25011904Y-48181009D01*
X25011904Y-48181009D02*
X25059523Y-48133390D01*
X25059523Y-48133390D02*
X25154761Y-48085771D01*
X25154761Y-48085771D02*
X25345237Y-48085771D01*
X25345237Y-48085771D02*
X25440475Y-48133390D01*
X25440475Y-48133390D02*
X25488094Y-48181009D01*
X25488094Y-48181009D02*
X25535713Y-48276247D01*
X37964285Y-75844819D02*
X37964285Y-74844819D01*
X37964285Y-74844819D02*
X37726190Y-74844819D01*
X37726190Y-74844819D02*
X37583333Y-74892438D01*
X37583333Y-74892438D02*
X37488095Y-74987676D01*
X37488095Y-74987676D02*
X37440476Y-75082914D01*
X37440476Y-75082914D02*
X37392857Y-75273390D01*
X37392857Y-75273390D02*
X37392857Y-75416247D01*
X37392857Y-75416247D02*
X37440476Y-75606723D01*
X37440476Y-75606723D02*
X37488095Y-75701961D01*
X37488095Y-75701961D02*
X37583333Y-75797200D01*
X37583333Y-75797200D02*
X37726190Y-75844819D01*
X37726190Y-75844819D02*
X37964285Y-75844819D01*
X36440476Y-75844819D02*
X37011904Y-75844819D01*
X36726190Y-75844819D02*
X36726190Y-74844819D01*
X36726190Y-74844819D02*
X36821428Y-74987676D01*
X36821428Y-74987676D02*
X36916666Y-75082914D01*
X36916666Y-75082914D02*
X37011904Y-75130533D01*
X35535714Y-74844819D02*
X36011904Y-74844819D01*
X36011904Y-74844819D02*
X36059523Y-75321009D01*
X36059523Y-75321009D02*
X36011904Y-75273390D01*
X36011904Y-75273390D02*
X35916666Y-75225771D01*
X35916666Y-75225771D02*
X35678571Y-75225771D01*
X35678571Y-75225771D02*
X35583333Y-75273390D01*
X35583333Y-75273390D02*
X35535714Y-75321009D01*
X35535714Y-75321009D02*
X35488095Y-75416247D01*
X35488095Y-75416247D02*
X35488095Y-75654342D01*
X35488095Y-75654342D02*
X35535714Y-75749580D01*
X35535714Y-75749580D02*
X35583333Y-75797200D01*
X35583333Y-75797200D02*
X35678571Y-75844819D01*
X35678571Y-75844819D02*
X35916666Y-75844819D01*
X35916666Y-75844819D02*
X36011904Y-75797200D01*
X36011904Y-75797200D02*
X36059523Y-75749580D01*
X47604819Y-28550595D02*
X48414342Y-28550595D01*
X48414342Y-28550595D02*
X48509580Y-28598214D01*
X48509580Y-28598214D02*
X48557200Y-28645833D01*
X48557200Y-28645833D02*
X48604819Y-28741071D01*
X48604819Y-28741071D02*
X48604819Y-28931547D01*
X48604819Y-28931547D02*
X48557200Y-29026785D01*
X48557200Y-29026785D02*
X48509580Y-29074404D01*
X48509580Y-29074404D02*
X48414342Y-29122023D01*
X48414342Y-29122023D02*
X47604819Y-29122023D01*
X47604819Y-30026785D02*
X47604819Y-29836309D01*
X47604819Y-29836309D02*
X47652438Y-29741071D01*
X47652438Y-29741071D02*
X47700057Y-29693452D01*
X47700057Y-29693452D02*
X47842914Y-29598214D01*
X47842914Y-29598214D02*
X48033390Y-29550595D01*
X48033390Y-29550595D02*
X48414342Y-29550595D01*
X48414342Y-29550595D02*
X48509580Y-29598214D01*
X48509580Y-29598214D02*
X48557200Y-29645833D01*
X48557200Y-29645833D02*
X48604819Y-29741071D01*
X48604819Y-29741071D02*
X48604819Y-29931547D01*
X48604819Y-29931547D02*
X48557200Y-30026785D01*
X48557200Y-30026785D02*
X48509580Y-30074404D01*
X48509580Y-30074404D02*
X48414342Y-30122023D01*
X48414342Y-30122023D02*
X48176247Y-30122023D01*
X48176247Y-30122023D02*
X48081009Y-30074404D01*
X48081009Y-30074404D02*
X48033390Y-30026785D01*
X48033390Y-30026785D02*
X47985771Y-29931547D01*
X47985771Y-29931547D02*
X47985771Y-29741071D01*
X47985771Y-29741071D02*
X48033390Y-29645833D01*
X48033390Y-29645833D02*
X48081009Y-29598214D01*
X48081009Y-29598214D02*
X48176247Y-29550595D01*
X29704819Y-52333333D02*
X29228628Y-52000000D01*
X29704819Y-51761905D02*
X28704819Y-51761905D01*
X28704819Y-51761905D02*
X28704819Y-52142857D01*
X28704819Y-52142857D02*
X28752438Y-52238095D01*
X28752438Y-52238095D02*
X28800057Y-52285714D01*
X28800057Y-52285714D02*
X28895295Y-52333333D01*
X28895295Y-52333333D02*
X29038152Y-52333333D01*
X29038152Y-52333333D02*
X29133390Y-52285714D01*
X29133390Y-52285714D02*
X29181009Y-52238095D01*
X29181009Y-52238095D02*
X29228628Y-52142857D01*
X29228628Y-52142857D02*
X29228628Y-51761905D01*
X28704819Y-52666667D02*
X28704819Y-53333333D01*
X28704819Y-53333333D02*
X29704819Y-52904762D01*
X52095238Y-80050057D02*
X52190476Y-80002438D01*
X52190476Y-80002438D02*
X52285714Y-79907200D01*
X52285714Y-79907200D02*
X52428571Y-79764342D01*
X52428571Y-79764342D02*
X52523809Y-79716723D01*
X52523809Y-79716723D02*
X52619047Y-79716723D01*
X52571428Y-79954819D02*
X52666666Y-79907200D01*
X52666666Y-79907200D02*
X52761904Y-79811961D01*
X52761904Y-79811961D02*
X52809523Y-79621485D01*
X52809523Y-79621485D02*
X52809523Y-79288152D01*
X52809523Y-79288152D02*
X52761904Y-79097676D01*
X52761904Y-79097676D02*
X52666666Y-79002438D01*
X52666666Y-79002438D02*
X52571428Y-78954819D01*
X52571428Y-78954819D02*
X52380952Y-78954819D01*
X52380952Y-78954819D02*
X52285714Y-79002438D01*
X52285714Y-79002438D02*
X52190476Y-79097676D01*
X52190476Y-79097676D02*
X52142857Y-79288152D01*
X52142857Y-79288152D02*
X52142857Y-79621485D01*
X52142857Y-79621485D02*
X52190476Y-79811961D01*
X52190476Y-79811961D02*
X52285714Y-79907200D01*
X52285714Y-79907200D02*
X52380952Y-79954819D01*
X52380952Y-79954819D02*
X52571428Y-79954819D01*
X51190476Y-79954819D02*
X51761904Y-79954819D01*
X51476190Y-79954819D02*
X51476190Y-78954819D01*
X51476190Y-78954819D02*
X51571428Y-79097676D01*
X51571428Y-79097676D02*
X51666666Y-79192914D01*
X51666666Y-79192914D02*
X51761904Y-79240533D01*
X39454819Y-55857142D02*
X38978628Y-55523809D01*
X39454819Y-55285714D02*
X38454819Y-55285714D01*
X38454819Y-55285714D02*
X38454819Y-55666666D01*
X38454819Y-55666666D02*
X38502438Y-55761904D01*
X38502438Y-55761904D02*
X38550057Y-55809523D01*
X38550057Y-55809523D02*
X38645295Y-55857142D01*
X38645295Y-55857142D02*
X38788152Y-55857142D01*
X38788152Y-55857142D02*
X38883390Y-55809523D01*
X38883390Y-55809523D02*
X38931009Y-55761904D01*
X38931009Y-55761904D02*
X38978628Y-55666666D01*
X38978628Y-55666666D02*
X38978628Y-55285714D01*
X38454819Y-56190476D02*
X38454819Y-56809523D01*
X38454819Y-56809523D02*
X38835771Y-56476190D01*
X38835771Y-56476190D02*
X38835771Y-56619047D01*
X38835771Y-56619047D02*
X38883390Y-56714285D01*
X38883390Y-56714285D02*
X38931009Y-56761904D01*
X38931009Y-56761904D02*
X39026247Y-56809523D01*
X39026247Y-56809523D02*
X39264342Y-56809523D01*
X39264342Y-56809523D02*
X39359580Y-56761904D01*
X39359580Y-56761904D02*
X39407200Y-56714285D01*
X39407200Y-56714285D02*
X39454819Y-56619047D01*
X39454819Y-56619047D02*
X39454819Y-56333333D01*
X39454819Y-56333333D02*
X39407200Y-56238095D01*
X39407200Y-56238095D02*
X39359580Y-56190476D01*
X38454819Y-57428571D02*
X38454819Y-57523809D01*
X38454819Y-57523809D02*
X38502438Y-57619047D01*
X38502438Y-57619047D02*
X38550057Y-57666666D01*
X38550057Y-57666666D02*
X38645295Y-57714285D01*
X38645295Y-57714285D02*
X38835771Y-57761904D01*
X38835771Y-57761904D02*
X39073866Y-57761904D01*
X39073866Y-57761904D02*
X39264342Y-57714285D01*
X39264342Y-57714285D02*
X39359580Y-57666666D01*
X39359580Y-57666666D02*
X39407200Y-57619047D01*
X39407200Y-57619047D02*
X39454819Y-57523809D01*
X39454819Y-57523809D02*
X39454819Y-57428571D01*
X39454819Y-57428571D02*
X39407200Y-57333333D01*
X39407200Y-57333333D02*
X39359580Y-57285714D01*
X39359580Y-57285714D02*
X39264342Y-57238095D01*
X39264342Y-57238095D02*
X39073866Y-57190476D01*
X39073866Y-57190476D02*
X38835771Y-57190476D01*
X38835771Y-57190476D02*
X38645295Y-57238095D01*
X38645295Y-57238095D02*
X38550057Y-57285714D01*
X38550057Y-57285714D02*
X38502438Y-57333333D01*
X38502438Y-57333333D02*
X38454819Y-57428571D01*
X25954819Y-60761905D02*
X24954819Y-60761905D01*
X24954819Y-60761905D02*
X24954819Y-61000000D01*
X24954819Y-61000000D02*
X25002438Y-61142857D01*
X25002438Y-61142857D02*
X25097676Y-61238095D01*
X25097676Y-61238095D02*
X25192914Y-61285714D01*
X25192914Y-61285714D02*
X25383390Y-61333333D01*
X25383390Y-61333333D02*
X25526247Y-61333333D01*
X25526247Y-61333333D02*
X25716723Y-61285714D01*
X25716723Y-61285714D02*
X25811961Y-61238095D01*
X25811961Y-61238095D02*
X25907200Y-61142857D01*
X25907200Y-61142857D02*
X25954819Y-61000000D01*
X25954819Y-61000000D02*
X25954819Y-60761905D01*
X24954819Y-62238095D02*
X24954819Y-61761905D01*
X24954819Y-61761905D02*
X25431009Y-61714286D01*
X25431009Y-61714286D02*
X25383390Y-61761905D01*
X25383390Y-61761905D02*
X25335771Y-61857143D01*
X25335771Y-61857143D02*
X25335771Y-62095238D01*
X25335771Y-62095238D02*
X25383390Y-62190476D01*
X25383390Y-62190476D02*
X25431009Y-62238095D01*
X25431009Y-62238095D02*
X25526247Y-62285714D01*
X25526247Y-62285714D02*
X25764342Y-62285714D01*
X25764342Y-62285714D02*
X25859580Y-62238095D01*
X25859580Y-62238095D02*
X25907200Y-62190476D01*
X25907200Y-62190476D02*
X25954819Y-62095238D01*
X25954819Y-62095238D02*
X25954819Y-61857143D01*
X25954819Y-61857143D02*
X25907200Y-61761905D01*
X25907200Y-61761905D02*
X25859580Y-61714286D01*
D12*
X23574318Y-42260237D02*
X22304318Y-42260237D01*
X23453365Y-43590714D02*
X23513842Y-43530238D01*
X23513842Y-43530238D02*
X23574318Y-43348809D01*
X23574318Y-43348809D02*
X23574318Y-43227857D01*
X23574318Y-43227857D02*
X23513842Y-43046428D01*
X23513842Y-43046428D02*
X23392889Y-42925476D01*
X23392889Y-42925476D02*
X23271937Y-42864999D01*
X23271937Y-42864999D02*
X23030032Y-42804523D01*
X23030032Y-42804523D02*
X22848603Y-42804523D01*
X22848603Y-42804523D02*
X22606699Y-42864999D01*
X22606699Y-42864999D02*
X22485746Y-42925476D01*
X22485746Y-42925476D02*
X22364794Y-43046428D01*
X22364794Y-43046428D02*
X22304318Y-43227857D01*
X22304318Y-43227857D02*
X22304318Y-43348809D01*
X22304318Y-43348809D02*
X22364794Y-43530238D01*
X22364794Y-43530238D02*
X22425270Y-43590714D01*
X22727651Y-44679285D02*
X23574318Y-44679285D01*
X22243842Y-44376904D02*
X23150984Y-44074523D01*
X23150984Y-44074523D02*
X23150984Y-44860714D01*
D11*
X31392857Y-75609580D02*
X31440476Y-75657200D01*
X31440476Y-75657200D02*
X31583333Y-75704819D01*
X31583333Y-75704819D02*
X31678571Y-75704819D01*
X31678571Y-75704819D02*
X31821428Y-75657200D01*
X31821428Y-75657200D02*
X31916666Y-75561961D01*
X31916666Y-75561961D02*
X31964285Y-75466723D01*
X31964285Y-75466723D02*
X32011904Y-75276247D01*
X32011904Y-75276247D02*
X32011904Y-75133390D01*
X32011904Y-75133390D02*
X31964285Y-74942914D01*
X31964285Y-74942914D02*
X31916666Y-74847676D01*
X31916666Y-74847676D02*
X31821428Y-74752438D01*
X31821428Y-74752438D02*
X31678571Y-74704819D01*
X31678571Y-74704819D02*
X31583333Y-74704819D01*
X31583333Y-74704819D02*
X31440476Y-74752438D01*
X31440476Y-74752438D02*
X31392857Y-74800057D01*
X30440476Y-75704819D02*
X31011904Y-75704819D01*
X30726190Y-75704819D02*
X30726190Y-74704819D01*
X30726190Y-74704819D02*
X30821428Y-74847676D01*
X30821428Y-74847676D02*
X30916666Y-74942914D01*
X30916666Y-74942914D02*
X31011904Y-74990533D01*
X29583333Y-75038152D02*
X29583333Y-75704819D01*
X29821428Y-74657200D02*
X30059523Y-75371485D01*
X30059523Y-75371485D02*
X29440476Y-75371485D01*
X49666666Y-86609580D02*
X49714285Y-86657200D01*
X49714285Y-86657200D02*
X49857142Y-86704819D01*
X49857142Y-86704819D02*
X49952380Y-86704819D01*
X49952380Y-86704819D02*
X50095237Y-86657200D01*
X50095237Y-86657200D02*
X50190475Y-86561961D01*
X50190475Y-86561961D02*
X50238094Y-86466723D01*
X50238094Y-86466723D02*
X50285713Y-86276247D01*
X50285713Y-86276247D02*
X50285713Y-86133390D01*
X50285713Y-86133390D02*
X50238094Y-85942914D01*
X50238094Y-85942914D02*
X50190475Y-85847676D01*
X50190475Y-85847676D02*
X50095237Y-85752438D01*
X50095237Y-85752438D02*
X49952380Y-85704819D01*
X49952380Y-85704819D02*
X49857142Y-85704819D01*
X49857142Y-85704819D02*
X49714285Y-85752438D01*
X49714285Y-85752438D02*
X49666666Y-85800057D01*
X48714285Y-86704819D02*
X49285713Y-86704819D01*
X48999999Y-86704819D02*
X48999999Y-85704819D01*
X48999999Y-85704819D02*
X49095237Y-85847676D01*
X49095237Y-85847676D02*
X49190475Y-85942914D01*
X49190475Y-85942914D02*
X49285713Y-85990533D01*
X33204819Y-30785714D02*
X32204819Y-30785714D01*
X32204819Y-30785714D02*
X32204819Y-31023809D01*
X32204819Y-31023809D02*
X32252438Y-31166666D01*
X32252438Y-31166666D02*
X32347676Y-31261904D01*
X32347676Y-31261904D02*
X32442914Y-31309523D01*
X32442914Y-31309523D02*
X32633390Y-31357142D01*
X32633390Y-31357142D02*
X32776247Y-31357142D01*
X32776247Y-31357142D02*
X32966723Y-31309523D01*
X32966723Y-31309523D02*
X33061961Y-31261904D01*
X33061961Y-31261904D02*
X33157200Y-31166666D01*
X33157200Y-31166666D02*
X33204819Y-31023809D01*
X33204819Y-31023809D02*
X33204819Y-30785714D01*
X32300057Y-31738095D02*
X32252438Y-31785714D01*
X32252438Y-31785714D02*
X32204819Y-31880952D01*
X32204819Y-31880952D02*
X32204819Y-32119047D01*
X32204819Y-32119047D02*
X32252438Y-32214285D01*
X32252438Y-32214285D02*
X32300057Y-32261904D01*
X32300057Y-32261904D02*
X32395295Y-32309523D01*
X32395295Y-32309523D02*
X32490533Y-32309523D01*
X32490533Y-32309523D02*
X32633390Y-32261904D01*
X32633390Y-32261904D02*
X33204819Y-31690476D01*
X33204819Y-31690476D02*
X33204819Y-32309523D01*
X32204819Y-32928571D02*
X32204819Y-33023809D01*
X32204819Y-33023809D02*
X32252438Y-33119047D01*
X32252438Y-33119047D02*
X32300057Y-33166666D01*
X32300057Y-33166666D02*
X32395295Y-33214285D01*
X32395295Y-33214285D02*
X32585771Y-33261904D01*
X32585771Y-33261904D02*
X32823866Y-33261904D01*
X32823866Y-33261904D02*
X33014342Y-33214285D01*
X33014342Y-33214285D02*
X33109580Y-33166666D01*
X33109580Y-33166666D02*
X33157200Y-33119047D01*
X33157200Y-33119047D02*
X33204819Y-33023809D01*
X33204819Y-33023809D02*
X33204819Y-32928571D01*
X33204819Y-32928571D02*
X33157200Y-32833333D01*
X33157200Y-32833333D02*
X33109580Y-32785714D01*
X33109580Y-32785714D02*
X33014342Y-32738095D01*
X33014342Y-32738095D02*
X32823866Y-32690476D01*
X32823866Y-32690476D02*
X32585771Y-32690476D01*
X32585771Y-32690476D02*
X32395295Y-32738095D01*
X32395295Y-32738095D02*
X32300057Y-32785714D01*
X32300057Y-32785714D02*
X32252438Y-32833333D01*
X32252438Y-32833333D02*
X32204819Y-32928571D01*
X31392857Y-74359580D02*
X31440476Y-74407200D01*
X31440476Y-74407200D02*
X31583333Y-74454819D01*
X31583333Y-74454819D02*
X31678571Y-74454819D01*
X31678571Y-74454819D02*
X31821428Y-74407200D01*
X31821428Y-74407200D02*
X31916666Y-74311961D01*
X31916666Y-74311961D02*
X31964285Y-74216723D01*
X31964285Y-74216723D02*
X32011904Y-74026247D01*
X32011904Y-74026247D02*
X32011904Y-73883390D01*
X32011904Y-73883390D02*
X31964285Y-73692914D01*
X31964285Y-73692914D02*
X31916666Y-73597676D01*
X31916666Y-73597676D02*
X31821428Y-73502438D01*
X31821428Y-73502438D02*
X31678571Y-73454819D01*
X31678571Y-73454819D02*
X31583333Y-73454819D01*
X31583333Y-73454819D02*
X31440476Y-73502438D01*
X31440476Y-73502438D02*
X31392857Y-73550057D01*
X30535714Y-73788152D02*
X30535714Y-74454819D01*
X30773809Y-73407200D02*
X31011904Y-74121485D01*
X31011904Y-74121485D02*
X30392857Y-74121485D01*
X29583333Y-73788152D02*
X29583333Y-74454819D01*
X29821428Y-73407200D02*
X30059523Y-74121485D01*
X30059523Y-74121485D02*
X29440476Y-74121485D01*
X35109580Y-61107142D02*
X35157200Y-61059523D01*
X35157200Y-61059523D02*
X35204819Y-60916666D01*
X35204819Y-60916666D02*
X35204819Y-60821428D01*
X35204819Y-60821428D02*
X35157200Y-60678571D01*
X35157200Y-60678571D02*
X35061961Y-60583333D01*
X35061961Y-60583333D02*
X34966723Y-60535714D01*
X34966723Y-60535714D02*
X34776247Y-60488095D01*
X34776247Y-60488095D02*
X34633390Y-60488095D01*
X34633390Y-60488095D02*
X34442914Y-60535714D01*
X34442914Y-60535714D02*
X34347676Y-60583333D01*
X34347676Y-60583333D02*
X34252438Y-60678571D01*
X34252438Y-60678571D02*
X34204819Y-60821428D01*
X34204819Y-60821428D02*
X34204819Y-60916666D01*
X34204819Y-60916666D02*
X34252438Y-61059523D01*
X34252438Y-61059523D02*
X34300057Y-61107142D01*
X35204819Y-62059523D02*
X35204819Y-61488095D01*
X35204819Y-61773809D02*
X34204819Y-61773809D01*
X34204819Y-61773809D02*
X34347676Y-61678571D01*
X34347676Y-61678571D02*
X34442914Y-61583333D01*
X34442914Y-61583333D02*
X34490533Y-61488095D01*
X34204819Y-62678571D02*
X34204819Y-62773809D01*
X34204819Y-62773809D02*
X34252438Y-62869047D01*
X34252438Y-62869047D02*
X34300057Y-62916666D01*
X34300057Y-62916666D02*
X34395295Y-62964285D01*
X34395295Y-62964285D02*
X34585771Y-63011904D01*
X34585771Y-63011904D02*
X34823866Y-63011904D01*
X34823866Y-63011904D02*
X35014342Y-62964285D01*
X35014342Y-62964285D02*
X35109580Y-62916666D01*
X35109580Y-62916666D02*
X35157200Y-62869047D01*
X35157200Y-62869047D02*
X35204819Y-62773809D01*
X35204819Y-62773809D02*
X35204819Y-62678571D01*
X35204819Y-62678571D02*
X35157200Y-62583333D01*
X35157200Y-62583333D02*
X35109580Y-62535714D01*
X35109580Y-62535714D02*
X35014342Y-62488095D01*
X35014342Y-62488095D02*
X34823866Y-62440476D01*
X34823866Y-62440476D02*
X34585771Y-62440476D01*
X34585771Y-62440476D02*
X34395295Y-62488095D01*
X34395295Y-62488095D02*
X34300057Y-62535714D01*
X34300057Y-62535714D02*
X34252438Y-62583333D01*
X34252438Y-62583333D02*
X34204819Y-62678571D01*
X49109580Y-52607142D02*
X49157200Y-52559523D01*
X49157200Y-52559523D02*
X49204819Y-52416666D01*
X49204819Y-52416666D02*
X49204819Y-52321428D01*
X49204819Y-52321428D02*
X49157200Y-52178571D01*
X49157200Y-52178571D02*
X49061961Y-52083333D01*
X49061961Y-52083333D02*
X48966723Y-52035714D01*
X48966723Y-52035714D02*
X48776247Y-51988095D01*
X48776247Y-51988095D02*
X48633390Y-51988095D01*
X48633390Y-51988095D02*
X48442914Y-52035714D01*
X48442914Y-52035714D02*
X48347676Y-52083333D01*
X48347676Y-52083333D02*
X48252438Y-52178571D01*
X48252438Y-52178571D02*
X48204819Y-52321428D01*
X48204819Y-52321428D02*
X48204819Y-52416666D01*
X48204819Y-52416666D02*
X48252438Y-52559523D01*
X48252438Y-52559523D02*
X48300057Y-52607142D01*
X48300057Y-52988095D02*
X48252438Y-53035714D01*
X48252438Y-53035714D02*
X48204819Y-53130952D01*
X48204819Y-53130952D02*
X48204819Y-53369047D01*
X48204819Y-53369047D02*
X48252438Y-53464285D01*
X48252438Y-53464285D02*
X48300057Y-53511904D01*
X48300057Y-53511904D02*
X48395295Y-53559523D01*
X48395295Y-53559523D02*
X48490533Y-53559523D01*
X48490533Y-53559523D02*
X48633390Y-53511904D01*
X48633390Y-53511904D02*
X49204819Y-52940476D01*
X49204819Y-52940476D02*
X49204819Y-53559523D01*
X48204819Y-54178571D02*
X48204819Y-54273809D01*
X48204819Y-54273809D02*
X48252438Y-54369047D01*
X48252438Y-54369047D02*
X48300057Y-54416666D01*
X48300057Y-54416666D02*
X48395295Y-54464285D01*
X48395295Y-54464285D02*
X48585771Y-54511904D01*
X48585771Y-54511904D02*
X48823866Y-54511904D01*
X48823866Y-54511904D02*
X49014342Y-54464285D01*
X49014342Y-54464285D02*
X49109580Y-54416666D01*
X49109580Y-54416666D02*
X49157200Y-54369047D01*
X49157200Y-54369047D02*
X49204819Y-54273809D01*
X49204819Y-54273809D02*
X49204819Y-54178571D01*
X49204819Y-54178571D02*
X49157200Y-54083333D01*
X49157200Y-54083333D02*
X49109580Y-54035714D01*
X49109580Y-54035714D02*
X49014342Y-53988095D01*
X49014342Y-53988095D02*
X48823866Y-53940476D01*
X48823866Y-53940476D02*
X48585771Y-53940476D01*
X48585771Y-53940476D02*
X48395295Y-53988095D01*
X48395295Y-53988095D02*
X48300057Y-54035714D01*
X48300057Y-54035714D02*
X48252438Y-54083333D01*
X48252438Y-54083333D02*
X48204819Y-54178571D01*
X49109580Y-56607142D02*
X49157200Y-56559523D01*
X49157200Y-56559523D02*
X49204819Y-56416666D01*
X49204819Y-56416666D02*
X49204819Y-56321428D01*
X49204819Y-56321428D02*
X49157200Y-56178571D01*
X49157200Y-56178571D02*
X49061961Y-56083333D01*
X49061961Y-56083333D02*
X48966723Y-56035714D01*
X48966723Y-56035714D02*
X48776247Y-55988095D01*
X48776247Y-55988095D02*
X48633390Y-55988095D01*
X48633390Y-55988095D02*
X48442914Y-56035714D01*
X48442914Y-56035714D02*
X48347676Y-56083333D01*
X48347676Y-56083333D02*
X48252438Y-56178571D01*
X48252438Y-56178571D02*
X48204819Y-56321428D01*
X48204819Y-56321428D02*
X48204819Y-56416666D01*
X48204819Y-56416666D02*
X48252438Y-56559523D01*
X48252438Y-56559523D02*
X48300057Y-56607142D01*
X48204819Y-56940476D02*
X48204819Y-57559523D01*
X48204819Y-57559523D02*
X48585771Y-57226190D01*
X48585771Y-57226190D02*
X48585771Y-57369047D01*
X48585771Y-57369047D02*
X48633390Y-57464285D01*
X48633390Y-57464285D02*
X48681009Y-57511904D01*
X48681009Y-57511904D02*
X48776247Y-57559523D01*
X48776247Y-57559523D02*
X49014342Y-57559523D01*
X49014342Y-57559523D02*
X49109580Y-57511904D01*
X49109580Y-57511904D02*
X49157200Y-57464285D01*
X49157200Y-57464285D02*
X49204819Y-57369047D01*
X49204819Y-57369047D02*
X49204819Y-57083333D01*
X49204819Y-57083333D02*
X49157200Y-56988095D01*
X49157200Y-56988095D02*
X49109580Y-56940476D01*
X48538152Y-58416666D02*
X49204819Y-58416666D01*
X48157200Y-58178571D02*
X48871485Y-57940476D01*
X48871485Y-57940476D02*
X48871485Y-58559523D01*
X52416666Y-83204819D02*
X52749999Y-82728628D01*
X52988094Y-83204819D02*
X52988094Y-82204819D01*
X52988094Y-82204819D02*
X52607142Y-82204819D01*
X52607142Y-82204819D02*
X52511904Y-82252438D01*
X52511904Y-82252438D02*
X52464285Y-82300057D01*
X52464285Y-82300057D02*
X52416666Y-82395295D01*
X52416666Y-82395295D02*
X52416666Y-82538152D01*
X52416666Y-82538152D02*
X52464285Y-82633390D01*
X52464285Y-82633390D02*
X52511904Y-82681009D01*
X52511904Y-82681009D02*
X52607142Y-82728628D01*
X52607142Y-82728628D02*
X52988094Y-82728628D01*
X52083332Y-82204819D02*
X51464285Y-82204819D01*
X51464285Y-82204819D02*
X51797618Y-82585771D01*
X51797618Y-82585771D02*
X51654761Y-82585771D01*
X51654761Y-82585771D02*
X51559523Y-82633390D01*
X51559523Y-82633390D02*
X51511904Y-82681009D01*
X51511904Y-82681009D02*
X51464285Y-82776247D01*
X51464285Y-82776247D02*
X51464285Y-83014342D01*
X51464285Y-83014342D02*
X51511904Y-83109580D01*
X51511904Y-83109580D02*
X51559523Y-83157200D01*
X51559523Y-83157200D02*
X51654761Y-83204819D01*
X51654761Y-83204819D02*
X51940475Y-83204819D01*
X51940475Y-83204819D02*
X52035713Y-83157200D01*
X52035713Y-83157200D02*
X52083332Y-83109580D01*
X33609580Y-61833333D02*
X33657200Y-61785714D01*
X33657200Y-61785714D02*
X33704819Y-61642857D01*
X33704819Y-61642857D02*
X33704819Y-61547619D01*
X33704819Y-61547619D02*
X33657200Y-61404762D01*
X33657200Y-61404762D02*
X33561961Y-61309524D01*
X33561961Y-61309524D02*
X33466723Y-61261905D01*
X33466723Y-61261905D02*
X33276247Y-61214286D01*
X33276247Y-61214286D02*
X33133390Y-61214286D01*
X33133390Y-61214286D02*
X32942914Y-61261905D01*
X32942914Y-61261905D02*
X32847676Y-61309524D01*
X32847676Y-61309524D02*
X32752438Y-61404762D01*
X32752438Y-61404762D02*
X32704819Y-61547619D01*
X32704819Y-61547619D02*
X32704819Y-61642857D01*
X32704819Y-61642857D02*
X32752438Y-61785714D01*
X32752438Y-61785714D02*
X32800057Y-61833333D01*
X33704819Y-62309524D02*
X33704819Y-62500000D01*
X33704819Y-62500000D02*
X33657200Y-62595238D01*
X33657200Y-62595238D02*
X33609580Y-62642857D01*
X33609580Y-62642857D02*
X33466723Y-62738095D01*
X33466723Y-62738095D02*
X33276247Y-62785714D01*
X33276247Y-62785714D02*
X32895295Y-62785714D01*
X32895295Y-62785714D02*
X32800057Y-62738095D01*
X32800057Y-62738095D02*
X32752438Y-62690476D01*
X32752438Y-62690476D02*
X32704819Y-62595238D01*
X32704819Y-62595238D02*
X32704819Y-62404762D01*
X32704819Y-62404762D02*
X32752438Y-62309524D01*
X32752438Y-62309524D02*
X32800057Y-62261905D01*
X32800057Y-62261905D02*
X32895295Y-62214286D01*
X32895295Y-62214286D02*
X33133390Y-62214286D01*
X33133390Y-62214286D02*
X33228628Y-62261905D01*
X33228628Y-62261905D02*
X33276247Y-62309524D01*
X33276247Y-62309524D02*
X33323866Y-62404762D01*
X33323866Y-62404762D02*
X33323866Y-62595238D01*
X33323866Y-62595238D02*
X33276247Y-62690476D01*
X33276247Y-62690476D02*
X33228628Y-62738095D01*
X33228628Y-62738095D02*
X33133390Y-62785714D01*
D12*
X42824318Y-42221237D02*
X41554318Y-42221237D01*
X42703365Y-43551714D02*
X42763842Y-43491238D01*
X42763842Y-43491238D02*
X42824318Y-43309809D01*
X42824318Y-43309809D02*
X42824318Y-43188857D01*
X42824318Y-43188857D02*
X42763842Y-43007428D01*
X42763842Y-43007428D02*
X42642889Y-42886476D01*
X42642889Y-42886476D02*
X42521937Y-42825999D01*
X42521937Y-42825999D02*
X42280032Y-42765523D01*
X42280032Y-42765523D02*
X42098603Y-42765523D01*
X42098603Y-42765523D02*
X41856699Y-42825999D01*
X41856699Y-42825999D02*
X41735746Y-42886476D01*
X41735746Y-42886476D02*
X41614794Y-43007428D01*
X41614794Y-43007428D02*
X41554318Y-43188857D01*
X41554318Y-43188857D02*
X41554318Y-43309809D01*
X41554318Y-43309809D02*
X41614794Y-43491238D01*
X41614794Y-43491238D02*
X41675270Y-43551714D01*
X41554318Y-44700761D02*
X41554318Y-44095999D01*
X41554318Y-44095999D02*
X42159080Y-44035523D01*
X42159080Y-44035523D02*
X42098603Y-44095999D01*
X42098603Y-44095999D02*
X42038127Y-44216952D01*
X42038127Y-44216952D02*
X42038127Y-44519333D01*
X42038127Y-44519333D02*
X42098603Y-44640285D01*
X42098603Y-44640285D02*
X42159080Y-44700761D01*
X42159080Y-44700761D02*
X42280032Y-44761238D01*
X42280032Y-44761238D02*
X42582413Y-44761238D01*
X42582413Y-44761238D02*
X42703365Y-44700761D01*
X42703365Y-44700761D02*
X42763842Y-44640285D01*
X42763842Y-44640285D02*
X42824318Y-44519333D01*
X42824318Y-44519333D02*
X42824318Y-44216952D01*
X42824318Y-44216952D02*
X42763842Y-44095999D01*
X42763842Y-44095999D02*
X42703365Y-44035523D01*
D11*
X43859580Y-62857142D02*
X43907200Y-62809523D01*
X43907200Y-62809523D02*
X43954819Y-62666666D01*
X43954819Y-62666666D02*
X43954819Y-62571428D01*
X43954819Y-62571428D02*
X43907200Y-62428571D01*
X43907200Y-62428571D02*
X43811961Y-62333333D01*
X43811961Y-62333333D02*
X43716723Y-62285714D01*
X43716723Y-62285714D02*
X43526247Y-62238095D01*
X43526247Y-62238095D02*
X43383390Y-62238095D01*
X43383390Y-62238095D02*
X43192914Y-62285714D01*
X43192914Y-62285714D02*
X43097676Y-62333333D01*
X43097676Y-62333333D02*
X43002438Y-62428571D01*
X43002438Y-62428571D02*
X42954819Y-62571428D01*
X42954819Y-62571428D02*
X42954819Y-62666666D01*
X42954819Y-62666666D02*
X43002438Y-62809523D01*
X43002438Y-62809523D02*
X43050057Y-62857142D01*
X43050057Y-63238095D02*
X43002438Y-63285714D01*
X43002438Y-63285714D02*
X42954819Y-63380952D01*
X42954819Y-63380952D02*
X42954819Y-63619047D01*
X42954819Y-63619047D02*
X43002438Y-63714285D01*
X43002438Y-63714285D02*
X43050057Y-63761904D01*
X43050057Y-63761904D02*
X43145295Y-63809523D01*
X43145295Y-63809523D02*
X43240533Y-63809523D01*
X43240533Y-63809523D02*
X43383390Y-63761904D01*
X43383390Y-63761904D02*
X43954819Y-63190476D01*
X43954819Y-63190476D02*
X43954819Y-63809523D01*
X43954819Y-64761904D02*
X43954819Y-64190476D01*
X43954819Y-64476190D02*
X42954819Y-64476190D01*
X42954819Y-64476190D02*
X43097676Y-64380952D01*
X43097676Y-64380952D02*
X43192914Y-64285714D01*
X43192914Y-64285714D02*
X43240533Y-64190476D01*
X46859580Y-52857142D02*
X46907200Y-52809523D01*
X46907200Y-52809523D02*
X46954819Y-52666666D01*
X46954819Y-52666666D02*
X46954819Y-52571428D01*
X46954819Y-52571428D02*
X46907200Y-52428571D01*
X46907200Y-52428571D02*
X46811961Y-52333333D01*
X46811961Y-52333333D02*
X46716723Y-52285714D01*
X46716723Y-52285714D02*
X46526247Y-52238095D01*
X46526247Y-52238095D02*
X46383390Y-52238095D01*
X46383390Y-52238095D02*
X46192914Y-52285714D01*
X46192914Y-52285714D02*
X46097676Y-52333333D01*
X46097676Y-52333333D02*
X46002438Y-52428571D01*
X46002438Y-52428571D02*
X45954819Y-52571428D01*
X45954819Y-52571428D02*
X45954819Y-52666666D01*
X45954819Y-52666666D02*
X46002438Y-52809523D01*
X46002438Y-52809523D02*
X46050057Y-52857142D01*
X45954819Y-53190476D02*
X45954819Y-53809523D01*
X45954819Y-53809523D02*
X46335771Y-53476190D01*
X46335771Y-53476190D02*
X46335771Y-53619047D01*
X46335771Y-53619047D02*
X46383390Y-53714285D01*
X46383390Y-53714285D02*
X46431009Y-53761904D01*
X46431009Y-53761904D02*
X46526247Y-53809523D01*
X46526247Y-53809523D02*
X46764342Y-53809523D01*
X46764342Y-53809523D02*
X46859580Y-53761904D01*
X46859580Y-53761904D02*
X46907200Y-53714285D01*
X46907200Y-53714285D02*
X46954819Y-53619047D01*
X46954819Y-53619047D02*
X46954819Y-53333333D01*
X46954819Y-53333333D02*
X46907200Y-53238095D01*
X46907200Y-53238095D02*
X46859580Y-53190476D01*
X45954819Y-54714285D02*
X45954819Y-54238095D01*
X45954819Y-54238095D02*
X46431009Y-54190476D01*
X46431009Y-54190476D02*
X46383390Y-54238095D01*
X46383390Y-54238095D02*
X46335771Y-54333333D01*
X46335771Y-54333333D02*
X46335771Y-54571428D01*
X46335771Y-54571428D02*
X46383390Y-54666666D01*
X46383390Y-54666666D02*
X46431009Y-54714285D01*
X46431009Y-54714285D02*
X46526247Y-54761904D01*
X46526247Y-54761904D02*
X46764342Y-54761904D01*
X46764342Y-54761904D02*
X46859580Y-54714285D01*
X46859580Y-54714285D02*
X46907200Y-54666666D01*
X46907200Y-54666666D02*
X46954819Y-54571428D01*
X46954819Y-54571428D02*
X46954819Y-54333333D01*
X46954819Y-54333333D02*
X46907200Y-54238095D01*
X46907200Y-54238095D02*
X46859580Y-54190476D01*
X46859580Y-66333333D02*
X46907200Y-66285714D01*
X46907200Y-66285714D02*
X46954819Y-66142857D01*
X46954819Y-66142857D02*
X46954819Y-66047619D01*
X46954819Y-66047619D02*
X46907200Y-65904762D01*
X46907200Y-65904762D02*
X46811961Y-65809524D01*
X46811961Y-65809524D02*
X46716723Y-65761905D01*
X46716723Y-65761905D02*
X46526247Y-65714286D01*
X46526247Y-65714286D02*
X46383390Y-65714286D01*
X46383390Y-65714286D02*
X46192914Y-65761905D01*
X46192914Y-65761905D02*
X46097676Y-65809524D01*
X46097676Y-65809524D02*
X46002438Y-65904762D01*
X46002438Y-65904762D02*
X45954819Y-66047619D01*
X45954819Y-66047619D02*
X45954819Y-66142857D01*
X45954819Y-66142857D02*
X46002438Y-66285714D01*
X46002438Y-66285714D02*
X46050057Y-66333333D01*
X45954819Y-66666667D02*
X45954819Y-67285714D01*
X45954819Y-67285714D02*
X46335771Y-66952381D01*
X46335771Y-66952381D02*
X46335771Y-67095238D01*
X46335771Y-67095238D02*
X46383390Y-67190476D01*
X46383390Y-67190476D02*
X46431009Y-67238095D01*
X46431009Y-67238095D02*
X46526247Y-67285714D01*
X46526247Y-67285714D02*
X46764342Y-67285714D01*
X46764342Y-67285714D02*
X46859580Y-67238095D01*
X46859580Y-67238095D02*
X46907200Y-67190476D01*
X46907200Y-67190476D02*
X46954819Y-67095238D01*
X46954819Y-67095238D02*
X46954819Y-66809524D01*
X46954819Y-66809524D02*
X46907200Y-66714286D01*
X46907200Y-66714286D02*
X46859580Y-66666667D01*
X31392857Y-73109580D02*
X31440476Y-73157200D01*
X31440476Y-73157200D02*
X31583333Y-73204819D01*
X31583333Y-73204819D02*
X31678571Y-73204819D01*
X31678571Y-73204819D02*
X31821428Y-73157200D01*
X31821428Y-73157200D02*
X31916666Y-73061961D01*
X31916666Y-73061961D02*
X31964285Y-72966723D01*
X31964285Y-72966723D02*
X32011904Y-72776247D01*
X32011904Y-72776247D02*
X32011904Y-72633390D01*
X32011904Y-72633390D02*
X31964285Y-72442914D01*
X31964285Y-72442914D02*
X31916666Y-72347676D01*
X31916666Y-72347676D02*
X31821428Y-72252438D01*
X31821428Y-72252438D02*
X31678571Y-72204819D01*
X31678571Y-72204819D02*
X31583333Y-72204819D01*
X31583333Y-72204819D02*
X31440476Y-72252438D01*
X31440476Y-72252438D02*
X31392857Y-72300057D01*
X30535714Y-72538152D02*
X30535714Y-73204819D01*
X30773809Y-72157200D02*
X31011904Y-72871485D01*
X31011904Y-72871485D02*
X30392857Y-72871485D01*
X29583333Y-72204819D02*
X29773809Y-72204819D01*
X29773809Y-72204819D02*
X29869047Y-72252438D01*
X29869047Y-72252438D02*
X29916666Y-72300057D01*
X29916666Y-72300057D02*
X30011904Y-72442914D01*
X30011904Y-72442914D02*
X30059523Y-72633390D01*
X30059523Y-72633390D02*
X30059523Y-73014342D01*
X30059523Y-73014342D02*
X30011904Y-73109580D01*
X30011904Y-73109580D02*
X29964285Y-73157200D01*
X29964285Y-73157200D02*
X29869047Y-73204819D01*
X29869047Y-73204819D02*
X29678571Y-73204819D01*
X29678571Y-73204819D02*
X29583333Y-73157200D01*
X29583333Y-73157200D02*
X29535714Y-73109580D01*
X29535714Y-73109580D02*
X29488095Y-73014342D01*
X29488095Y-73014342D02*
X29488095Y-72776247D01*
X29488095Y-72776247D02*
X29535714Y-72681009D01*
X29535714Y-72681009D02*
X29583333Y-72633390D01*
X29583333Y-72633390D02*
X29678571Y-72585771D01*
X29678571Y-72585771D02*
X29869047Y-72585771D01*
X29869047Y-72585771D02*
X29964285Y-72633390D01*
X29964285Y-72633390D02*
X30011904Y-72681009D01*
X30011904Y-72681009D02*
X30059523Y-72776247D01*
X40954819Y-59607142D02*
X40478628Y-59273809D01*
X40954819Y-59035714D02*
X39954819Y-59035714D01*
X39954819Y-59035714D02*
X39954819Y-59416666D01*
X39954819Y-59416666D02*
X40002438Y-59511904D01*
X40002438Y-59511904D02*
X40050057Y-59559523D01*
X40050057Y-59559523D02*
X40145295Y-59607142D01*
X40145295Y-59607142D02*
X40288152Y-59607142D01*
X40288152Y-59607142D02*
X40383390Y-59559523D01*
X40383390Y-59559523D02*
X40431009Y-59511904D01*
X40431009Y-59511904D02*
X40478628Y-59416666D01*
X40478628Y-59416666D02*
X40478628Y-59035714D01*
X40050057Y-59988095D02*
X40002438Y-60035714D01*
X40002438Y-60035714D02*
X39954819Y-60130952D01*
X39954819Y-60130952D02*
X39954819Y-60369047D01*
X39954819Y-60369047D02*
X40002438Y-60464285D01*
X40002438Y-60464285D02*
X40050057Y-60511904D01*
X40050057Y-60511904D02*
X40145295Y-60559523D01*
X40145295Y-60559523D02*
X40240533Y-60559523D01*
X40240533Y-60559523D02*
X40383390Y-60511904D01*
X40383390Y-60511904D02*
X40954819Y-59940476D01*
X40954819Y-59940476D02*
X40954819Y-60559523D01*
X39954819Y-60892857D02*
X39954819Y-61511904D01*
X39954819Y-61511904D02*
X40335771Y-61178571D01*
X40335771Y-61178571D02*
X40335771Y-61321428D01*
X40335771Y-61321428D02*
X40383390Y-61416666D01*
X40383390Y-61416666D02*
X40431009Y-61464285D01*
X40431009Y-61464285D02*
X40526247Y-61511904D01*
X40526247Y-61511904D02*
X40764342Y-61511904D01*
X40764342Y-61511904D02*
X40859580Y-61464285D01*
X40859580Y-61464285D02*
X40907200Y-61416666D01*
X40907200Y-61416666D02*
X40954819Y-61321428D01*
X40954819Y-61321428D02*
X40954819Y-61035714D01*
X40954819Y-61035714D02*
X40907200Y-60940476D01*
X40907200Y-60940476D02*
X40859580Y-60892857D01*
X43142857Y-76859580D02*
X43190476Y-76907200D01*
X43190476Y-76907200D02*
X43333333Y-76954819D01*
X43333333Y-76954819D02*
X43428571Y-76954819D01*
X43428571Y-76954819D02*
X43571428Y-76907200D01*
X43571428Y-76907200D02*
X43666666Y-76811961D01*
X43666666Y-76811961D02*
X43714285Y-76716723D01*
X43714285Y-76716723D02*
X43761904Y-76526247D01*
X43761904Y-76526247D02*
X43761904Y-76383390D01*
X43761904Y-76383390D02*
X43714285Y-76192914D01*
X43714285Y-76192914D02*
X43666666Y-76097676D01*
X43666666Y-76097676D02*
X43571428Y-76002438D01*
X43571428Y-76002438D02*
X43428571Y-75954819D01*
X43428571Y-75954819D02*
X43333333Y-75954819D01*
X43333333Y-75954819D02*
X43190476Y-76002438D01*
X43190476Y-76002438D02*
X43142857Y-76050057D01*
X42285714Y-76288152D02*
X42285714Y-76954819D01*
X42523809Y-75907200D02*
X42761904Y-76621485D01*
X42761904Y-76621485D02*
X42142857Y-76621485D01*
X41238095Y-76954819D02*
X41809523Y-76954819D01*
X41523809Y-76954819D02*
X41523809Y-75954819D01*
X41523809Y-75954819D02*
X41619047Y-76097676D01*
X41619047Y-76097676D02*
X41714285Y-76192914D01*
X41714285Y-76192914D02*
X41809523Y-76240533D01*
X26454819Y-75583333D02*
X25978628Y-75250000D01*
X26454819Y-75011905D02*
X25454819Y-75011905D01*
X25454819Y-75011905D02*
X25454819Y-75392857D01*
X25454819Y-75392857D02*
X25502438Y-75488095D01*
X25502438Y-75488095D02*
X25550057Y-75535714D01*
X25550057Y-75535714D02*
X25645295Y-75583333D01*
X25645295Y-75583333D02*
X25788152Y-75583333D01*
X25788152Y-75583333D02*
X25883390Y-75535714D01*
X25883390Y-75535714D02*
X25931009Y-75488095D01*
X25931009Y-75488095D02*
X25978628Y-75392857D01*
X25978628Y-75392857D02*
X25978628Y-75011905D01*
X25454819Y-76488095D02*
X25454819Y-76011905D01*
X25454819Y-76011905D02*
X25931009Y-75964286D01*
X25931009Y-75964286D02*
X25883390Y-76011905D01*
X25883390Y-76011905D02*
X25835771Y-76107143D01*
X25835771Y-76107143D02*
X25835771Y-76345238D01*
X25835771Y-76345238D02*
X25883390Y-76440476D01*
X25883390Y-76440476D02*
X25931009Y-76488095D01*
X25931009Y-76488095D02*
X26026247Y-76535714D01*
X26026247Y-76535714D02*
X26264342Y-76535714D01*
X26264342Y-76535714D02*
X26359580Y-76488095D01*
X26359580Y-76488095D02*
X26407200Y-76440476D01*
X26407200Y-76440476D02*
X26454819Y-76345238D01*
X26454819Y-76345238D02*
X26454819Y-76107143D01*
X26454819Y-76107143D02*
X26407200Y-76011905D01*
X26407200Y-76011905D02*
X26359580Y-75964286D01*
X45704819Y-69857142D02*
X45228628Y-69523809D01*
X45704819Y-69285714D02*
X44704819Y-69285714D01*
X44704819Y-69285714D02*
X44704819Y-69666666D01*
X44704819Y-69666666D02*
X44752438Y-69761904D01*
X44752438Y-69761904D02*
X44800057Y-69809523D01*
X44800057Y-69809523D02*
X44895295Y-69857142D01*
X44895295Y-69857142D02*
X45038152Y-69857142D01*
X45038152Y-69857142D02*
X45133390Y-69809523D01*
X45133390Y-69809523D02*
X45181009Y-69761904D01*
X45181009Y-69761904D02*
X45228628Y-69666666D01*
X45228628Y-69666666D02*
X45228628Y-69285714D01*
X45704819Y-70809523D02*
X45704819Y-70238095D01*
X45704819Y-70523809D02*
X44704819Y-70523809D01*
X44704819Y-70523809D02*
X44847676Y-70428571D01*
X44847676Y-70428571D02*
X44942914Y-70333333D01*
X44942914Y-70333333D02*
X44990533Y-70238095D01*
X45133390Y-71380952D02*
X45085771Y-71285714D01*
X45085771Y-71285714D02*
X45038152Y-71238095D01*
X45038152Y-71238095D02*
X44942914Y-71190476D01*
X44942914Y-71190476D02*
X44895295Y-71190476D01*
X44895295Y-71190476D02*
X44800057Y-71238095D01*
X44800057Y-71238095D02*
X44752438Y-71285714D01*
X44752438Y-71285714D02*
X44704819Y-71380952D01*
X44704819Y-71380952D02*
X44704819Y-71571428D01*
X44704819Y-71571428D02*
X44752438Y-71666666D01*
X44752438Y-71666666D02*
X44800057Y-71714285D01*
X44800057Y-71714285D02*
X44895295Y-71761904D01*
X44895295Y-71761904D02*
X44942914Y-71761904D01*
X44942914Y-71761904D02*
X45038152Y-71714285D01*
X45038152Y-71714285D02*
X45085771Y-71666666D01*
X45085771Y-71666666D02*
X45133390Y-71571428D01*
X45133390Y-71571428D02*
X45133390Y-71380952D01*
X45133390Y-71380952D02*
X45181009Y-71285714D01*
X45181009Y-71285714D02*
X45228628Y-71238095D01*
X45228628Y-71238095D02*
X45323866Y-71190476D01*
X45323866Y-71190476D02*
X45514342Y-71190476D01*
X45514342Y-71190476D02*
X45609580Y-71238095D01*
X45609580Y-71238095D02*
X45657200Y-71285714D01*
X45657200Y-71285714D02*
X45704819Y-71380952D01*
X45704819Y-71380952D02*
X45704819Y-71571428D01*
X45704819Y-71571428D02*
X45657200Y-71666666D01*
X45657200Y-71666666D02*
X45609580Y-71714285D01*
X45609580Y-71714285D02*
X45514342Y-71761904D01*
X45514342Y-71761904D02*
X45323866Y-71761904D01*
X45323866Y-71761904D02*
X45228628Y-71714285D01*
X45228628Y-71714285D02*
X45181009Y-71666666D01*
X45181009Y-71666666D02*
X45133390Y-71571428D01*
X62859580Y-36857142D02*
X62907200Y-36809523D01*
X62907200Y-36809523D02*
X62954819Y-36666666D01*
X62954819Y-36666666D02*
X62954819Y-36571428D01*
X62954819Y-36571428D02*
X62907200Y-36428571D01*
X62907200Y-36428571D02*
X62811961Y-36333333D01*
X62811961Y-36333333D02*
X62716723Y-36285714D01*
X62716723Y-36285714D02*
X62526247Y-36238095D01*
X62526247Y-36238095D02*
X62383390Y-36238095D01*
X62383390Y-36238095D02*
X62192914Y-36285714D01*
X62192914Y-36285714D02*
X62097676Y-36333333D01*
X62097676Y-36333333D02*
X62002438Y-36428571D01*
X62002438Y-36428571D02*
X61954819Y-36571428D01*
X61954819Y-36571428D02*
X61954819Y-36666666D01*
X61954819Y-36666666D02*
X62002438Y-36809523D01*
X62002438Y-36809523D02*
X62050057Y-36857142D01*
X62050057Y-37238095D02*
X62002438Y-37285714D01*
X62002438Y-37285714D02*
X61954819Y-37380952D01*
X61954819Y-37380952D02*
X61954819Y-37619047D01*
X61954819Y-37619047D02*
X62002438Y-37714285D01*
X62002438Y-37714285D02*
X62050057Y-37761904D01*
X62050057Y-37761904D02*
X62145295Y-37809523D01*
X62145295Y-37809523D02*
X62240533Y-37809523D01*
X62240533Y-37809523D02*
X62383390Y-37761904D01*
X62383390Y-37761904D02*
X62954819Y-37190476D01*
X62954819Y-37190476D02*
X62954819Y-37809523D01*
X61954819Y-38142857D02*
X61954819Y-38809523D01*
X61954819Y-38809523D02*
X62954819Y-38380952D01*
X22416666Y-49454819D02*
X22749999Y-48978628D01*
X22988094Y-49454819D02*
X22988094Y-48454819D01*
X22988094Y-48454819D02*
X22607142Y-48454819D01*
X22607142Y-48454819D02*
X22511904Y-48502438D01*
X22511904Y-48502438D02*
X22464285Y-48550057D01*
X22464285Y-48550057D02*
X22416666Y-48645295D01*
X22416666Y-48645295D02*
X22416666Y-48788152D01*
X22416666Y-48788152D02*
X22464285Y-48883390D01*
X22464285Y-48883390D02*
X22511904Y-48931009D01*
X22511904Y-48931009D02*
X22607142Y-48978628D01*
X22607142Y-48978628D02*
X22988094Y-48978628D01*
X21559523Y-48454819D02*
X21749999Y-48454819D01*
X21749999Y-48454819D02*
X21845237Y-48502438D01*
X21845237Y-48502438D02*
X21892856Y-48550057D01*
X21892856Y-48550057D02*
X21988094Y-48692914D01*
X21988094Y-48692914D02*
X22035713Y-48883390D01*
X22035713Y-48883390D02*
X22035713Y-49264342D01*
X22035713Y-49264342D02*
X21988094Y-49359580D01*
X21988094Y-49359580D02*
X21940475Y-49407200D01*
X21940475Y-49407200D02*
X21845237Y-49454819D01*
X21845237Y-49454819D02*
X21654761Y-49454819D01*
X21654761Y-49454819D02*
X21559523Y-49407200D01*
X21559523Y-49407200D02*
X21511904Y-49359580D01*
X21511904Y-49359580D02*
X21464285Y-49264342D01*
X21464285Y-49264342D02*
X21464285Y-49026247D01*
X21464285Y-49026247D02*
X21511904Y-48931009D01*
X21511904Y-48931009D02*
X21559523Y-48883390D01*
X21559523Y-48883390D02*
X21654761Y-48835771D01*
X21654761Y-48835771D02*
X21845237Y-48835771D01*
X21845237Y-48835771D02*
X21940475Y-48883390D01*
X21940475Y-48883390D02*
X21988094Y-48931009D01*
X21988094Y-48931009D02*
X22035713Y-49026247D01*
X34166666Y-70004819D02*
X34642856Y-70004819D01*
X34642856Y-70004819D02*
X34642856Y-69004819D01*
X33880951Y-69100057D02*
X33833332Y-69052438D01*
X33833332Y-69052438D02*
X33738094Y-69004819D01*
X33738094Y-69004819D02*
X33499999Y-69004819D01*
X33499999Y-69004819D02*
X33404761Y-69052438D01*
X33404761Y-69052438D02*
X33357142Y-69100057D01*
X33357142Y-69100057D02*
X33309523Y-69195295D01*
X33309523Y-69195295D02*
X33309523Y-69290533D01*
X33309523Y-69290533D02*
X33357142Y-69433390D01*
X33357142Y-69433390D02*
X33928570Y-70004819D01*
X33928570Y-70004819D02*
X33309523Y-70004819D01*
X46679580Y-56607142D02*
X46727200Y-56559523D01*
X46727200Y-56559523D02*
X46774819Y-56416666D01*
X46774819Y-56416666D02*
X46774819Y-56321428D01*
X46774819Y-56321428D02*
X46727200Y-56178571D01*
X46727200Y-56178571D02*
X46631961Y-56083333D01*
X46631961Y-56083333D02*
X46536723Y-56035714D01*
X46536723Y-56035714D02*
X46346247Y-55988095D01*
X46346247Y-55988095D02*
X46203390Y-55988095D01*
X46203390Y-55988095D02*
X46012914Y-56035714D01*
X46012914Y-56035714D02*
X45917676Y-56083333D01*
X45917676Y-56083333D02*
X45822438Y-56178571D01*
X45822438Y-56178571D02*
X45774819Y-56321428D01*
X45774819Y-56321428D02*
X45774819Y-56416666D01*
X45774819Y-56416666D02*
X45822438Y-56559523D01*
X45822438Y-56559523D02*
X45870057Y-56607142D01*
X45774819Y-56940476D02*
X45774819Y-57559523D01*
X45774819Y-57559523D02*
X46155771Y-57226190D01*
X46155771Y-57226190D02*
X46155771Y-57369047D01*
X46155771Y-57369047D02*
X46203390Y-57464285D01*
X46203390Y-57464285D02*
X46251009Y-57511904D01*
X46251009Y-57511904D02*
X46346247Y-57559523D01*
X46346247Y-57559523D02*
X46584342Y-57559523D01*
X46584342Y-57559523D02*
X46679580Y-57511904D01*
X46679580Y-57511904D02*
X46727200Y-57464285D01*
X46727200Y-57464285D02*
X46774819Y-57369047D01*
X46774819Y-57369047D02*
X46774819Y-57083333D01*
X46774819Y-57083333D02*
X46727200Y-56988095D01*
X46727200Y-56988095D02*
X46679580Y-56940476D01*
X45774819Y-58416666D02*
X45774819Y-58226190D01*
X45774819Y-58226190D02*
X45822438Y-58130952D01*
X45822438Y-58130952D02*
X45870057Y-58083333D01*
X45870057Y-58083333D02*
X46012914Y-57988095D01*
X46012914Y-57988095D02*
X46203390Y-57940476D01*
X46203390Y-57940476D02*
X46584342Y-57940476D01*
X46584342Y-57940476D02*
X46679580Y-57988095D01*
X46679580Y-57988095D02*
X46727200Y-58035714D01*
X46727200Y-58035714D02*
X46774819Y-58130952D01*
X46774819Y-58130952D02*
X46774819Y-58321428D01*
X46774819Y-58321428D02*
X46727200Y-58416666D01*
X46727200Y-58416666D02*
X46679580Y-58464285D01*
X46679580Y-58464285D02*
X46584342Y-58511904D01*
X46584342Y-58511904D02*
X46346247Y-58511904D01*
X46346247Y-58511904D02*
X46251009Y-58464285D01*
X46251009Y-58464285D02*
X46203390Y-58416666D01*
X46203390Y-58416666D02*
X46155771Y-58321428D01*
X46155771Y-58321428D02*
X46155771Y-58130952D01*
X46155771Y-58130952D02*
X46203390Y-58035714D01*
X46203390Y-58035714D02*
X46251009Y-57988095D01*
X46251009Y-57988095D02*
X46346247Y-57940476D01*
X49892857Y-73704819D02*
X50226190Y-73228628D01*
X50464285Y-73704819D02*
X50464285Y-72704819D01*
X50464285Y-72704819D02*
X50083333Y-72704819D01*
X50083333Y-72704819D02*
X49988095Y-72752438D01*
X49988095Y-72752438D02*
X49940476Y-72800057D01*
X49940476Y-72800057D02*
X49892857Y-72895295D01*
X49892857Y-72895295D02*
X49892857Y-73038152D01*
X49892857Y-73038152D02*
X49940476Y-73133390D01*
X49940476Y-73133390D02*
X49988095Y-73181009D01*
X49988095Y-73181009D02*
X50083333Y-73228628D01*
X50083333Y-73228628D02*
X50464285Y-73228628D01*
X49511904Y-72800057D02*
X49464285Y-72752438D01*
X49464285Y-72752438D02*
X49369047Y-72704819D01*
X49369047Y-72704819D02*
X49130952Y-72704819D01*
X49130952Y-72704819D02*
X49035714Y-72752438D01*
X49035714Y-72752438D02*
X48988095Y-72800057D01*
X48988095Y-72800057D02*
X48940476Y-72895295D01*
X48940476Y-72895295D02*
X48940476Y-72990533D01*
X48940476Y-72990533D02*
X48988095Y-73133390D01*
X48988095Y-73133390D02*
X49559523Y-73704819D01*
X49559523Y-73704819D02*
X48940476Y-73704819D01*
X48321428Y-72704819D02*
X48226190Y-72704819D01*
X48226190Y-72704819D02*
X48130952Y-72752438D01*
X48130952Y-72752438D02*
X48083333Y-72800057D01*
X48083333Y-72800057D02*
X48035714Y-72895295D01*
X48035714Y-72895295D02*
X47988095Y-73085771D01*
X47988095Y-73085771D02*
X47988095Y-73323866D01*
X47988095Y-73323866D02*
X48035714Y-73514342D01*
X48035714Y-73514342D02*
X48083333Y-73609580D01*
X48083333Y-73609580D02*
X48130952Y-73657200D01*
X48130952Y-73657200D02*
X48226190Y-73704819D01*
X48226190Y-73704819D02*
X48321428Y-73704819D01*
X48321428Y-73704819D02*
X48416666Y-73657200D01*
X48416666Y-73657200D02*
X48464285Y-73609580D01*
X48464285Y-73609580D02*
X48511904Y-73514342D01*
X48511904Y-73514342D02*
X48559523Y-73323866D01*
X48559523Y-73323866D02*
X48559523Y-73085771D01*
X48559523Y-73085771D02*
X48511904Y-72895295D01*
X48511904Y-72895295D02*
X48464285Y-72800057D01*
X48464285Y-72800057D02*
X48416666Y-72752438D01*
X48416666Y-72752438D02*
X48321428Y-72704819D01*
X33109580Y-37357142D02*
X33157200Y-37309523D01*
X33157200Y-37309523D02*
X33204819Y-37166666D01*
X33204819Y-37166666D02*
X33204819Y-37071428D01*
X33204819Y-37071428D02*
X33157200Y-36928571D01*
X33157200Y-36928571D02*
X33061961Y-36833333D01*
X33061961Y-36833333D02*
X32966723Y-36785714D01*
X32966723Y-36785714D02*
X32776247Y-36738095D01*
X32776247Y-36738095D02*
X32633390Y-36738095D01*
X32633390Y-36738095D02*
X32442914Y-36785714D01*
X32442914Y-36785714D02*
X32347676Y-36833333D01*
X32347676Y-36833333D02*
X32252438Y-36928571D01*
X32252438Y-36928571D02*
X32204819Y-37071428D01*
X32204819Y-37071428D02*
X32204819Y-37166666D01*
X32204819Y-37166666D02*
X32252438Y-37309523D01*
X32252438Y-37309523D02*
X32300057Y-37357142D01*
X32204819Y-38261904D02*
X32204819Y-37785714D01*
X32204819Y-37785714D02*
X32681009Y-37738095D01*
X32681009Y-37738095D02*
X32633390Y-37785714D01*
X32633390Y-37785714D02*
X32585771Y-37880952D01*
X32585771Y-37880952D02*
X32585771Y-38119047D01*
X32585771Y-38119047D02*
X32633390Y-38214285D01*
X32633390Y-38214285D02*
X32681009Y-38261904D01*
X32681009Y-38261904D02*
X32776247Y-38309523D01*
X32776247Y-38309523D02*
X33014342Y-38309523D01*
X33014342Y-38309523D02*
X33109580Y-38261904D01*
X33109580Y-38261904D02*
X33157200Y-38214285D01*
X33157200Y-38214285D02*
X33204819Y-38119047D01*
X33204819Y-38119047D02*
X33204819Y-37880952D01*
X33204819Y-37880952D02*
X33157200Y-37785714D01*
X33157200Y-37785714D02*
X33109580Y-37738095D01*
X32204819Y-38642857D02*
X32204819Y-39309523D01*
X32204819Y-39309523D02*
X33204819Y-38880952D01*
X48859580Y-44107142D02*
X48907200Y-44059523D01*
X48907200Y-44059523D02*
X48954819Y-43916666D01*
X48954819Y-43916666D02*
X48954819Y-43821428D01*
X48954819Y-43821428D02*
X48907200Y-43678571D01*
X48907200Y-43678571D02*
X48811961Y-43583333D01*
X48811961Y-43583333D02*
X48716723Y-43535714D01*
X48716723Y-43535714D02*
X48526247Y-43488095D01*
X48526247Y-43488095D02*
X48383390Y-43488095D01*
X48383390Y-43488095D02*
X48192914Y-43535714D01*
X48192914Y-43535714D02*
X48097676Y-43583333D01*
X48097676Y-43583333D02*
X48002438Y-43678571D01*
X48002438Y-43678571D02*
X47954819Y-43821428D01*
X47954819Y-43821428D02*
X47954819Y-43916666D01*
X47954819Y-43916666D02*
X48002438Y-44059523D01*
X48002438Y-44059523D02*
X48050057Y-44107142D01*
X48050057Y-44488095D02*
X48002438Y-44535714D01*
X48002438Y-44535714D02*
X47954819Y-44630952D01*
X47954819Y-44630952D02*
X47954819Y-44869047D01*
X47954819Y-44869047D02*
X48002438Y-44964285D01*
X48002438Y-44964285D02*
X48050057Y-45011904D01*
X48050057Y-45011904D02*
X48145295Y-45059523D01*
X48145295Y-45059523D02*
X48240533Y-45059523D01*
X48240533Y-45059523D02*
X48383390Y-45011904D01*
X48383390Y-45011904D02*
X48954819Y-44440476D01*
X48954819Y-44440476D02*
X48954819Y-45059523D01*
X48383390Y-45630952D02*
X48335771Y-45535714D01*
X48335771Y-45535714D02*
X48288152Y-45488095D01*
X48288152Y-45488095D02*
X48192914Y-45440476D01*
X48192914Y-45440476D02*
X48145295Y-45440476D01*
X48145295Y-45440476D02*
X48050057Y-45488095D01*
X48050057Y-45488095D02*
X48002438Y-45535714D01*
X48002438Y-45535714D02*
X47954819Y-45630952D01*
X47954819Y-45630952D02*
X47954819Y-45821428D01*
X47954819Y-45821428D02*
X48002438Y-45916666D01*
X48002438Y-45916666D02*
X48050057Y-45964285D01*
X48050057Y-45964285D02*
X48145295Y-46011904D01*
X48145295Y-46011904D02*
X48192914Y-46011904D01*
X48192914Y-46011904D02*
X48288152Y-45964285D01*
X48288152Y-45964285D02*
X48335771Y-45916666D01*
X48335771Y-45916666D02*
X48383390Y-45821428D01*
X48383390Y-45821428D02*
X48383390Y-45630952D01*
X48383390Y-45630952D02*
X48431009Y-45535714D01*
X48431009Y-45535714D02*
X48478628Y-45488095D01*
X48478628Y-45488095D02*
X48573866Y-45440476D01*
X48573866Y-45440476D02*
X48764342Y-45440476D01*
X48764342Y-45440476D02*
X48859580Y-45488095D01*
X48859580Y-45488095D02*
X48907200Y-45535714D01*
X48907200Y-45535714D02*
X48954819Y-45630952D01*
X48954819Y-45630952D02*
X48954819Y-45821428D01*
X48954819Y-45821428D02*
X48907200Y-45916666D01*
X48907200Y-45916666D02*
X48859580Y-45964285D01*
X48859580Y-45964285D02*
X48764342Y-46011904D01*
X48764342Y-46011904D02*
X48573866Y-46011904D01*
X48573866Y-46011904D02*
X48478628Y-45964285D01*
X48478628Y-45964285D02*
X48431009Y-45916666D01*
X48431009Y-45916666D02*
X48383390Y-45821428D01*
X49892857Y-75204819D02*
X50226190Y-74728628D01*
X50464285Y-75204819D02*
X50464285Y-74204819D01*
X50464285Y-74204819D02*
X50083333Y-74204819D01*
X50083333Y-74204819D02*
X49988095Y-74252438D01*
X49988095Y-74252438D02*
X49940476Y-74300057D01*
X49940476Y-74300057D02*
X49892857Y-74395295D01*
X49892857Y-74395295D02*
X49892857Y-74538152D01*
X49892857Y-74538152D02*
X49940476Y-74633390D01*
X49940476Y-74633390D02*
X49988095Y-74681009D01*
X49988095Y-74681009D02*
X50083333Y-74728628D01*
X50083333Y-74728628D02*
X50464285Y-74728628D01*
X48940476Y-75204819D02*
X49511904Y-75204819D01*
X49226190Y-75204819D02*
X49226190Y-74204819D01*
X49226190Y-74204819D02*
X49321428Y-74347676D01*
X49321428Y-74347676D02*
X49416666Y-74442914D01*
X49416666Y-74442914D02*
X49511904Y-74490533D01*
X48464285Y-75204819D02*
X48273809Y-75204819D01*
X48273809Y-75204819D02*
X48178571Y-75157200D01*
X48178571Y-75157200D02*
X48130952Y-75109580D01*
X48130952Y-75109580D02*
X48035714Y-74966723D01*
X48035714Y-74966723D02*
X47988095Y-74776247D01*
X47988095Y-74776247D02*
X47988095Y-74395295D01*
X47988095Y-74395295D02*
X48035714Y-74300057D01*
X48035714Y-74300057D02*
X48083333Y-74252438D01*
X48083333Y-74252438D02*
X48178571Y-74204819D01*
X48178571Y-74204819D02*
X48369047Y-74204819D01*
X48369047Y-74204819D02*
X48464285Y-74252438D01*
X48464285Y-74252438D02*
X48511904Y-74300057D01*
X48511904Y-74300057D02*
X48559523Y-74395295D01*
X48559523Y-74395295D02*
X48559523Y-74633390D01*
X48559523Y-74633390D02*
X48511904Y-74728628D01*
X48511904Y-74728628D02*
X48464285Y-74776247D01*
X48464285Y-74776247D02*
X48369047Y-74823866D01*
X48369047Y-74823866D02*
X48178571Y-74823866D01*
X48178571Y-74823866D02*
X48083333Y-74776247D01*
X48083333Y-74776247D02*
X48035714Y-74728628D01*
X48035714Y-74728628D02*
X47988095Y-74633390D01*
X37929580Y-82583333D02*
X37977200Y-82535714D01*
X37977200Y-82535714D02*
X38024819Y-82392857D01*
X38024819Y-82392857D02*
X38024819Y-82297619D01*
X38024819Y-82297619D02*
X37977200Y-82154762D01*
X37977200Y-82154762D02*
X37881961Y-82059524D01*
X37881961Y-82059524D02*
X37786723Y-82011905D01*
X37786723Y-82011905D02*
X37596247Y-81964286D01*
X37596247Y-81964286D02*
X37453390Y-81964286D01*
X37453390Y-81964286D02*
X37262914Y-82011905D01*
X37262914Y-82011905D02*
X37167676Y-82059524D01*
X37167676Y-82059524D02*
X37072438Y-82154762D01*
X37072438Y-82154762D02*
X37024819Y-82297619D01*
X37024819Y-82297619D02*
X37024819Y-82392857D01*
X37024819Y-82392857D02*
X37072438Y-82535714D01*
X37072438Y-82535714D02*
X37120057Y-82583333D01*
X37358152Y-83440476D02*
X38024819Y-83440476D01*
X36977200Y-83202381D02*
X37691485Y-82964286D01*
X37691485Y-82964286D02*
X37691485Y-83583333D01*
X39204819Y-34357142D02*
X38728628Y-34023809D01*
X39204819Y-33785714D02*
X38204819Y-33785714D01*
X38204819Y-33785714D02*
X38204819Y-34166666D01*
X38204819Y-34166666D02*
X38252438Y-34261904D01*
X38252438Y-34261904D02*
X38300057Y-34309523D01*
X38300057Y-34309523D02*
X38395295Y-34357142D01*
X38395295Y-34357142D02*
X38538152Y-34357142D01*
X38538152Y-34357142D02*
X38633390Y-34309523D01*
X38633390Y-34309523D02*
X38681009Y-34261904D01*
X38681009Y-34261904D02*
X38728628Y-34166666D01*
X38728628Y-34166666D02*
X38728628Y-33785714D01*
X38300057Y-34738095D02*
X38252438Y-34785714D01*
X38252438Y-34785714D02*
X38204819Y-34880952D01*
X38204819Y-34880952D02*
X38204819Y-35119047D01*
X38204819Y-35119047D02*
X38252438Y-35214285D01*
X38252438Y-35214285D02*
X38300057Y-35261904D01*
X38300057Y-35261904D02*
X38395295Y-35309523D01*
X38395295Y-35309523D02*
X38490533Y-35309523D01*
X38490533Y-35309523D02*
X38633390Y-35261904D01*
X38633390Y-35261904D02*
X39204819Y-34690476D01*
X39204819Y-34690476D02*
X39204819Y-35309523D01*
X38204819Y-36166666D02*
X38204819Y-35976190D01*
X38204819Y-35976190D02*
X38252438Y-35880952D01*
X38252438Y-35880952D02*
X38300057Y-35833333D01*
X38300057Y-35833333D02*
X38442914Y-35738095D01*
X38442914Y-35738095D02*
X38633390Y-35690476D01*
X38633390Y-35690476D02*
X39014342Y-35690476D01*
X39014342Y-35690476D02*
X39109580Y-35738095D01*
X39109580Y-35738095D02*
X39157200Y-35785714D01*
X39157200Y-35785714D02*
X39204819Y-35880952D01*
X39204819Y-35880952D02*
X39204819Y-36071428D01*
X39204819Y-36071428D02*
X39157200Y-36166666D01*
X39157200Y-36166666D02*
X39109580Y-36214285D01*
X39109580Y-36214285D02*
X39014342Y-36261904D01*
X39014342Y-36261904D02*
X38776247Y-36261904D01*
X38776247Y-36261904D02*
X38681009Y-36214285D01*
X38681009Y-36214285D02*
X38633390Y-36166666D01*
X38633390Y-36166666D02*
X38585771Y-36071428D01*
X38585771Y-36071428D02*
X38585771Y-35880952D01*
X38585771Y-35880952D02*
X38633390Y-35785714D01*
X38633390Y-35785714D02*
X38681009Y-35738095D01*
X38681009Y-35738095D02*
X38776247Y-35690476D01*
X27204819Y-34357142D02*
X26728628Y-34023809D01*
X27204819Y-33785714D02*
X26204819Y-33785714D01*
X26204819Y-33785714D02*
X26204819Y-34166666D01*
X26204819Y-34166666D02*
X26252438Y-34261904D01*
X26252438Y-34261904D02*
X26300057Y-34309523D01*
X26300057Y-34309523D02*
X26395295Y-34357142D01*
X26395295Y-34357142D02*
X26538152Y-34357142D01*
X26538152Y-34357142D02*
X26633390Y-34309523D01*
X26633390Y-34309523D02*
X26681009Y-34261904D01*
X26681009Y-34261904D02*
X26728628Y-34166666D01*
X26728628Y-34166666D02*
X26728628Y-33785714D01*
X26300057Y-34738095D02*
X26252438Y-34785714D01*
X26252438Y-34785714D02*
X26204819Y-34880952D01*
X26204819Y-34880952D02*
X26204819Y-35119047D01*
X26204819Y-35119047D02*
X26252438Y-35214285D01*
X26252438Y-35214285D02*
X26300057Y-35261904D01*
X26300057Y-35261904D02*
X26395295Y-35309523D01*
X26395295Y-35309523D02*
X26490533Y-35309523D01*
X26490533Y-35309523D02*
X26633390Y-35261904D01*
X26633390Y-35261904D02*
X27204819Y-34690476D01*
X27204819Y-34690476D02*
X27204819Y-35309523D01*
X26538152Y-36166666D02*
X27204819Y-36166666D01*
X26157200Y-35928571D02*
X26871485Y-35690476D01*
X26871485Y-35690476D02*
X26871485Y-36309523D01*
X31204819Y-58261905D02*
X30204819Y-58261905D01*
X30204819Y-58261905D02*
X30204819Y-58500000D01*
X30204819Y-58500000D02*
X30252438Y-58642857D01*
X30252438Y-58642857D02*
X30347676Y-58738095D01*
X30347676Y-58738095D02*
X30442914Y-58785714D01*
X30442914Y-58785714D02*
X30633390Y-58833333D01*
X30633390Y-58833333D02*
X30776247Y-58833333D01*
X30776247Y-58833333D02*
X30966723Y-58785714D01*
X30966723Y-58785714D02*
X31061961Y-58738095D01*
X31061961Y-58738095D02*
X31157200Y-58642857D01*
X31157200Y-58642857D02*
X31204819Y-58500000D01*
X31204819Y-58500000D02*
X31204819Y-58261905D01*
X30300057Y-59214286D02*
X30252438Y-59261905D01*
X30252438Y-59261905D02*
X30204819Y-59357143D01*
X30204819Y-59357143D02*
X30204819Y-59595238D01*
X30204819Y-59595238D02*
X30252438Y-59690476D01*
X30252438Y-59690476D02*
X30300057Y-59738095D01*
X30300057Y-59738095D02*
X30395295Y-59785714D01*
X30395295Y-59785714D02*
X30490533Y-59785714D01*
X30490533Y-59785714D02*
X30633390Y-59738095D01*
X30633390Y-59738095D02*
X31204819Y-59166667D01*
X31204819Y-59166667D02*
X31204819Y-59785714D01*
X32359580Y-61833333D02*
X32407200Y-61785714D01*
X32407200Y-61785714D02*
X32454819Y-61642857D01*
X32454819Y-61642857D02*
X32454819Y-61547619D01*
X32454819Y-61547619D02*
X32407200Y-61404762D01*
X32407200Y-61404762D02*
X32311961Y-61309524D01*
X32311961Y-61309524D02*
X32216723Y-61261905D01*
X32216723Y-61261905D02*
X32026247Y-61214286D01*
X32026247Y-61214286D02*
X31883390Y-61214286D01*
X31883390Y-61214286D02*
X31692914Y-61261905D01*
X31692914Y-61261905D02*
X31597676Y-61309524D01*
X31597676Y-61309524D02*
X31502438Y-61404762D01*
X31502438Y-61404762D02*
X31454819Y-61547619D01*
X31454819Y-61547619D02*
X31454819Y-61642857D01*
X31454819Y-61642857D02*
X31502438Y-61785714D01*
X31502438Y-61785714D02*
X31550057Y-61833333D01*
X31454819Y-62166667D02*
X31454819Y-62833333D01*
X31454819Y-62833333D02*
X32454819Y-62404762D01*
X63892857Y-69774819D02*
X64226190Y-69298628D01*
X64464285Y-69774819D02*
X64464285Y-68774819D01*
X64464285Y-68774819D02*
X64083333Y-68774819D01*
X64083333Y-68774819D02*
X63988095Y-68822438D01*
X63988095Y-68822438D02*
X63940476Y-68870057D01*
X63940476Y-68870057D02*
X63892857Y-68965295D01*
X63892857Y-68965295D02*
X63892857Y-69108152D01*
X63892857Y-69108152D02*
X63940476Y-69203390D01*
X63940476Y-69203390D02*
X63988095Y-69251009D01*
X63988095Y-69251009D02*
X64083333Y-69298628D01*
X64083333Y-69298628D02*
X64464285Y-69298628D01*
X62940476Y-69774819D02*
X63511904Y-69774819D01*
X63226190Y-69774819D02*
X63226190Y-68774819D01*
X63226190Y-68774819D02*
X63321428Y-68917676D01*
X63321428Y-68917676D02*
X63416666Y-69012914D01*
X63416666Y-69012914D02*
X63511904Y-69060533D01*
X62607142Y-68774819D02*
X61988095Y-68774819D01*
X61988095Y-68774819D02*
X62321428Y-69155771D01*
X62321428Y-69155771D02*
X62178571Y-69155771D01*
X62178571Y-69155771D02*
X62083333Y-69203390D01*
X62083333Y-69203390D02*
X62035714Y-69251009D01*
X62035714Y-69251009D02*
X61988095Y-69346247D01*
X61988095Y-69346247D02*
X61988095Y-69584342D01*
X61988095Y-69584342D02*
X62035714Y-69679580D01*
X62035714Y-69679580D02*
X62083333Y-69727200D01*
X62083333Y-69727200D02*
X62178571Y-69774819D01*
X62178571Y-69774819D02*
X62464285Y-69774819D01*
X62464285Y-69774819D02*
X62559523Y-69727200D01*
X62559523Y-69727200D02*
X62607142Y-69679580D01*
X63892857Y-67024819D02*
X64226190Y-66548628D01*
X64464285Y-67024819D02*
X64464285Y-66024819D01*
X64464285Y-66024819D02*
X64083333Y-66024819D01*
X64083333Y-66024819D02*
X63988095Y-66072438D01*
X63988095Y-66072438D02*
X63940476Y-66120057D01*
X63940476Y-66120057D02*
X63892857Y-66215295D01*
X63892857Y-66215295D02*
X63892857Y-66358152D01*
X63892857Y-66358152D02*
X63940476Y-66453390D01*
X63940476Y-66453390D02*
X63988095Y-66501009D01*
X63988095Y-66501009D02*
X64083333Y-66548628D01*
X64083333Y-66548628D02*
X64464285Y-66548628D01*
X62940476Y-67024819D02*
X63511904Y-67024819D01*
X63226190Y-67024819D02*
X63226190Y-66024819D01*
X63226190Y-66024819D02*
X63321428Y-66167676D01*
X63321428Y-66167676D02*
X63416666Y-66262914D01*
X63416666Y-66262914D02*
X63511904Y-66310533D01*
X62083333Y-66358152D02*
X62083333Y-67024819D01*
X62321428Y-65977200D02*
X62559523Y-66691485D01*
X62559523Y-66691485D02*
X61940476Y-66691485D01*
X38859580Y-61357142D02*
X38907200Y-61309523D01*
X38907200Y-61309523D02*
X38954819Y-61166666D01*
X38954819Y-61166666D02*
X38954819Y-61071428D01*
X38954819Y-61071428D02*
X38907200Y-60928571D01*
X38907200Y-60928571D02*
X38811961Y-60833333D01*
X38811961Y-60833333D02*
X38716723Y-60785714D01*
X38716723Y-60785714D02*
X38526247Y-60738095D01*
X38526247Y-60738095D02*
X38383390Y-60738095D01*
X38383390Y-60738095D02*
X38192914Y-60785714D01*
X38192914Y-60785714D02*
X38097676Y-60833333D01*
X38097676Y-60833333D02*
X38002438Y-60928571D01*
X38002438Y-60928571D02*
X37954819Y-61071428D01*
X37954819Y-61071428D02*
X37954819Y-61166666D01*
X37954819Y-61166666D02*
X38002438Y-61309523D01*
X38002438Y-61309523D02*
X38050057Y-61357142D01*
X38050057Y-61738095D02*
X38002438Y-61785714D01*
X38002438Y-61785714D02*
X37954819Y-61880952D01*
X37954819Y-61880952D02*
X37954819Y-62119047D01*
X37954819Y-62119047D02*
X38002438Y-62214285D01*
X38002438Y-62214285D02*
X38050057Y-62261904D01*
X38050057Y-62261904D02*
X38145295Y-62309523D01*
X38145295Y-62309523D02*
X38240533Y-62309523D01*
X38240533Y-62309523D02*
X38383390Y-62261904D01*
X38383390Y-62261904D02*
X38954819Y-61690476D01*
X38954819Y-61690476D02*
X38954819Y-62309523D01*
X38288152Y-63166666D02*
X38954819Y-63166666D01*
X37907200Y-62928571D02*
X38621485Y-62690476D01*
X38621485Y-62690476D02*
X38621485Y-63309523D01*
X27109580Y-37357142D02*
X27157200Y-37309523D01*
X27157200Y-37309523D02*
X27204819Y-37166666D01*
X27204819Y-37166666D02*
X27204819Y-37071428D01*
X27204819Y-37071428D02*
X27157200Y-36928571D01*
X27157200Y-36928571D02*
X27061961Y-36833333D01*
X27061961Y-36833333D02*
X26966723Y-36785714D01*
X26966723Y-36785714D02*
X26776247Y-36738095D01*
X26776247Y-36738095D02*
X26633390Y-36738095D01*
X26633390Y-36738095D02*
X26442914Y-36785714D01*
X26442914Y-36785714D02*
X26347676Y-36833333D01*
X26347676Y-36833333D02*
X26252438Y-36928571D01*
X26252438Y-36928571D02*
X26204819Y-37071428D01*
X26204819Y-37071428D02*
X26204819Y-37166666D01*
X26204819Y-37166666D02*
X26252438Y-37309523D01*
X26252438Y-37309523D02*
X26300057Y-37357142D01*
X26204819Y-38261904D02*
X26204819Y-37785714D01*
X26204819Y-37785714D02*
X26681009Y-37738095D01*
X26681009Y-37738095D02*
X26633390Y-37785714D01*
X26633390Y-37785714D02*
X26585771Y-37880952D01*
X26585771Y-37880952D02*
X26585771Y-38119047D01*
X26585771Y-38119047D02*
X26633390Y-38214285D01*
X26633390Y-38214285D02*
X26681009Y-38261904D01*
X26681009Y-38261904D02*
X26776247Y-38309523D01*
X26776247Y-38309523D02*
X27014342Y-38309523D01*
X27014342Y-38309523D02*
X27109580Y-38261904D01*
X27109580Y-38261904D02*
X27157200Y-38214285D01*
X27157200Y-38214285D02*
X27204819Y-38119047D01*
X27204819Y-38119047D02*
X27204819Y-37880952D01*
X27204819Y-37880952D02*
X27157200Y-37785714D01*
X27157200Y-37785714D02*
X27109580Y-37738095D01*
X26538152Y-39166666D02*
X27204819Y-39166666D01*
X26157200Y-38928571D02*
X26871485Y-38690476D01*
X26871485Y-38690476D02*
X26871485Y-39309523D01*
X46892857Y-34634819D02*
X47226190Y-34158628D01*
X47464285Y-34634819D02*
X47464285Y-33634819D01*
X47464285Y-33634819D02*
X47083333Y-33634819D01*
X47083333Y-33634819D02*
X46988095Y-33682438D01*
X46988095Y-33682438D02*
X46940476Y-33730057D01*
X46940476Y-33730057D02*
X46892857Y-33825295D01*
X46892857Y-33825295D02*
X46892857Y-33968152D01*
X46892857Y-33968152D02*
X46940476Y-34063390D01*
X46940476Y-34063390D02*
X46988095Y-34111009D01*
X46988095Y-34111009D02*
X47083333Y-34158628D01*
X47083333Y-34158628D02*
X47464285Y-34158628D01*
X45940476Y-34634819D02*
X46511904Y-34634819D01*
X46226190Y-34634819D02*
X46226190Y-33634819D01*
X46226190Y-33634819D02*
X46321428Y-33777676D01*
X46321428Y-33777676D02*
X46416666Y-33872914D01*
X46416666Y-33872914D02*
X46511904Y-33920533D01*
X45607142Y-33634819D02*
X44940476Y-33634819D01*
X44940476Y-33634819D02*
X45369047Y-34634819D01*
X49704819Y-48424405D02*
X48704819Y-48424405D01*
X48704819Y-48424405D02*
X48704819Y-48662500D01*
X48704819Y-48662500D02*
X48752438Y-48805357D01*
X48752438Y-48805357D02*
X48847676Y-48900595D01*
X48847676Y-48900595D02*
X48942914Y-48948214D01*
X48942914Y-48948214D02*
X49133390Y-48995833D01*
X49133390Y-48995833D02*
X49276247Y-48995833D01*
X49276247Y-48995833D02*
X49466723Y-48948214D01*
X49466723Y-48948214D02*
X49561961Y-48900595D01*
X49561961Y-48900595D02*
X49657200Y-48805357D01*
X49657200Y-48805357D02*
X49704819Y-48662500D01*
X49704819Y-48662500D02*
X49704819Y-48424405D01*
X49704819Y-49472024D02*
X49704819Y-49662500D01*
X49704819Y-49662500D02*
X49657200Y-49757738D01*
X49657200Y-49757738D02*
X49609580Y-49805357D01*
X49609580Y-49805357D02*
X49466723Y-49900595D01*
X49466723Y-49900595D02*
X49276247Y-49948214D01*
X49276247Y-49948214D02*
X48895295Y-49948214D01*
X48895295Y-49948214D02*
X48800057Y-49900595D01*
X48800057Y-49900595D02*
X48752438Y-49852976D01*
X48752438Y-49852976D02*
X48704819Y-49757738D01*
X48704819Y-49757738D02*
X48704819Y-49567262D01*
X48704819Y-49567262D02*
X48752438Y-49472024D01*
X48752438Y-49472024D02*
X48800057Y-49424405D01*
X48800057Y-49424405D02*
X48895295Y-49376786D01*
X48895295Y-49376786D02*
X49133390Y-49376786D01*
X49133390Y-49376786D02*
X49228628Y-49424405D01*
X49228628Y-49424405D02*
X49276247Y-49472024D01*
X49276247Y-49472024D02*
X49323866Y-49567262D01*
X49323866Y-49567262D02*
X49323866Y-49757738D01*
X49323866Y-49757738D02*
X49276247Y-49852976D01*
X49276247Y-49852976D02*
X49228628Y-49900595D01*
X49228628Y-49900595D02*
X49133390Y-49948214D01*
X63892857Y-72524819D02*
X64226190Y-72048628D01*
X64464285Y-72524819D02*
X64464285Y-71524819D01*
X64464285Y-71524819D02*
X64083333Y-71524819D01*
X64083333Y-71524819D02*
X63988095Y-71572438D01*
X63988095Y-71572438D02*
X63940476Y-71620057D01*
X63940476Y-71620057D02*
X63892857Y-71715295D01*
X63892857Y-71715295D02*
X63892857Y-71858152D01*
X63892857Y-71858152D02*
X63940476Y-71953390D01*
X63940476Y-71953390D02*
X63988095Y-72001009D01*
X63988095Y-72001009D02*
X64083333Y-72048628D01*
X64083333Y-72048628D02*
X64464285Y-72048628D01*
X62940476Y-72524819D02*
X63511904Y-72524819D01*
X63226190Y-72524819D02*
X63226190Y-71524819D01*
X63226190Y-71524819D02*
X63321428Y-71667676D01*
X63321428Y-71667676D02*
X63416666Y-71762914D01*
X63416666Y-71762914D02*
X63511904Y-71810533D01*
X62559523Y-71620057D02*
X62511904Y-71572438D01*
X62511904Y-71572438D02*
X62416666Y-71524819D01*
X62416666Y-71524819D02*
X62178571Y-71524819D01*
X62178571Y-71524819D02*
X62083333Y-71572438D01*
X62083333Y-71572438D02*
X62035714Y-71620057D01*
X62035714Y-71620057D02*
X61988095Y-71715295D01*
X61988095Y-71715295D02*
X61988095Y-71810533D01*
X61988095Y-71810533D02*
X62035714Y-71953390D01*
X62035714Y-71953390D02*
X62607142Y-72524819D01*
X62607142Y-72524819D02*
X61988095Y-72524819D01*
X64714285Y-50704819D02*
X64714285Y-49704819D01*
X64714285Y-49704819D02*
X64476190Y-49704819D01*
X64476190Y-49704819D02*
X64333333Y-49752438D01*
X64333333Y-49752438D02*
X64238095Y-49847676D01*
X64238095Y-49847676D02*
X64190476Y-49942914D01*
X64190476Y-49942914D02*
X64142857Y-50133390D01*
X64142857Y-50133390D02*
X64142857Y-50276247D01*
X64142857Y-50276247D02*
X64190476Y-50466723D01*
X64190476Y-50466723D02*
X64238095Y-50561961D01*
X64238095Y-50561961D02*
X64333333Y-50657200D01*
X64333333Y-50657200D02*
X64476190Y-50704819D01*
X64476190Y-50704819D02*
X64714285Y-50704819D01*
X63190476Y-50704819D02*
X63761904Y-50704819D01*
X63476190Y-50704819D02*
X63476190Y-49704819D01*
X63476190Y-49704819D02*
X63571428Y-49847676D01*
X63571428Y-49847676D02*
X63666666Y-49942914D01*
X63666666Y-49942914D02*
X63761904Y-49990533D01*
X62809523Y-49800057D02*
X62761904Y-49752438D01*
X62761904Y-49752438D02*
X62666666Y-49704819D01*
X62666666Y-49704819D02*
X62428571Y-49704819D01*
X62428571Y-49704819D02*
X62333333Y-49752438D01*
X62333333Y-49752438D02*
X62285714Y-49800057D01*
X62285714Y-49800057D02*
X62238095Y-49895295D01*
X62238095Y-49895295D02*
X62238095Y-49990533D01*
X62238095Y-49990533D02*
X62285714Y-50133390D01*
X62285714Y-50133390D02*
X62857142Y-50704819D01*
X62857142Y-50704819D02*
X62238095Y-50704819D01*
X28109580Y-52333333D02*
X28157200Y-52285714D01*
X28157200Y-52285714D02*
X28204819Y-52142857D01*
X28204819Y-52142857D02*
X28204819Y-52047619D01*
X28204819Y-52047619D02*
X28157200Y-51904762D01*
X28157200Y-51904762D02*
X28061961Y-51809524D01*
X28061961Y-51809524D02*
X27966723Y-51761905D01*
X27966723Y-51761905D02*
X27776247Y-51714286D01*
X27776247Y-51714286D02*
X27633390Y-51714286D01*
X27633390Y-51714286D02*
X27442914Y-51761905D01*
X27442914Y-51761905D02*
X27347676Y-51809524D01*
X27347676Y-51809524D02*
X27252438Y-51904762D01*
X27252438Y-51904762D02*
X27204819Y-52047619D01*
X27204819Y-52047619D02*
X27204819Y-52142857D01*
X27204819Y-52142857D02*
X27252438Y-52285714D01*
X27252438Y-52285714D02*
X27300057Y-52333333D01*
X27300057Y-52714286D02*
X27252438Y-52761905D01*
X27252438Y-52761905D02*
X27204819Y-52857143D01*
X27204819Y-52857143D02*
X27204819Y-53095238D01*
X27204819Y-53095238D02*
X27252438Y-53190476D01*
X27252438Y-53190476D02*
X27300057Y-53238095D01*
X27300057Y-53238095D02*
X27395295Y-53285714D01*
X27395295Y-53285714D02*
X27490533Y-53285714D01*
X27490533Y-53285714D02*
X27633390Y-53238095D01*
X27633390Y-53238095D02*
X28204819Y-52666667D01*
X28204819Y-52666667D02*
X28204819Y-53285714D01*
X31392857Y-76859580D02*
X31440476Y-76907200D01*
X31440476Y-76907200D02*
X31583333Y-76954819D01*
X31583333Y-76954819D02*
X31678571Y-76954819D01*
X31678571Y-76954819D02*
X31821428Y-76907200D01*
X31821428Y-76907200D02*
X31916666Y-76811961D01*
X31916666Y-76811961D02*
X31964285Y-76716723D01*
X31964285Y-76716723D02*
X32011904Y-76526247D01*
X32011904Y-76526247D02*
X32011904Y-76383390D01*
X32011904Y-76383390D02*
X31964285Y-76192914D01*
X31964285Y-76192914D02*
X31916666Y-76097676D01*
X31916666Y-76097676D02*
X31821428Y-76002438D01*
X31821428Y-76002438D02*
X31678571Y-75954819D01*
X31678571Y-75954819D02*
X31583333Y-75954819D01*
X31583333Y-75954819D02*
X31440476Y-76002438D01*
X31440476Y-76002438D02*
X31392857Y-76050057D01*
X30440476Y-76954819D02*
X31011904Y-76954819D01*
X30726190Y-76954819D02*
X30726190Y-75954819D01*
X30726190Y-75954819D02*
X30821428Y-76097676D01*
X30821428Y-76097676D02*
X30916666Y-76192914D01*
X30916666Y-76192914D02*
X31011904Y-76240533D01*
X30107142Y-75954819D02*
X29440476Y-75954819D01*
X29440476Y-75954819D02*
X29869047Y-76954819D01*
X21204819Y-30785714D02*
X20204819Y-30785714D01*
X20204819Y-30785714D02*
X20204819Y-31023809D01*
X20204819Y-31023809D02*
X20252438Y-31166666D01*
X20252438Y-31166666D02*
X20347676Y-31261904D01*
X20347676Y-31261904D02*
X20442914Y-31309523D01*
X20442914Y-31309523D02*
X20633390Y-31357142D01*
X20633390Y-31357142D02*
X20776247Y-31357142D01*
X20776247Y-31357142D02*
X20966723Y-31309523D01*
X20966723Y-31309523D02*
X21061961Y-31261904D01*
X21061961Y-31261904D02*
X21157200Y-31166666D01*
X21157200Y-31166666D02*
X21204819Y-31023809D01*
X21204819Y-31023809D02*
X21204819Y-30785714D01*
X21204819Y-32309523D02*
X21204819Y-31738095D01*
X21204819Y-32023809D02*
X20204819Y-32023809D01*
X20204819Y-32023809D02*
X20347676Y-31928571D01*
X20347676Y-31928571D02*
X20442914Y-31833333D01*
X20442914Y-31833333D02*
X20490533Y-31738095D01*
X20633390Y-32880952D02*
X20585771Y-32785714D01*
X20585771Y-32785714D02*
X20538152Y-32738095D01*
X20538152Y-32738095D02*
X20442914Y-32690476D01*
X20442914Y-32690476D02*
X20395295Y-32690476D01*
X20395295Y-32690476D02*
X20300057Y-32738095D01*
X20300057Y-32738095D02*
X20252438Y-32785714D01*
X20252438Y-32785714D02*
X20204819Y-32880952D01*
X20204819Y-32880952D02*
X20204819Y-33071428D01*
X20204819Y-33071428D02*
X20252438Y-33166666D01*
X20252438Y-33166666D02*
X20300057Y-33214285D01*
X20300057Y-33214285D02*
X20395295Y-33261904D01*
X20395295Y-33261904D02*
X20442914Y-33261904D01*
X20442914Y-33261904D02*
X20538152Y-33214285D01*
X20538152Y-33214285D02*
X20585771Y-33166666D01*
X20585771Y-33166666D02*
X20633390Y-33071428D01*
X20633390Y-33071428D02*
X20633390Y-32880952D01*
X20633390Y-32880952D02*
X20681009Y-32785714D01*
X20681009Y-32785714D02*
X20728628Y-32738095D01*
X20728628Y-32738095D02*
X20823866Y-32690476D01*
X20823866Y-32690476D02*
X21014342Y-32690476D01*
X21014342Y-32690476D02*
X21109580Y-32738095D01*
X21109580Y-32738095D02*
X21157200Y-32785714D01*
X21157200Y-32785714D02*
X21204819Y-32880952D01*
X21204819Y-32880952D02*
X21204819Y-33071428D01*
X21204819Y-33071428D02*
X21157200Y-33166666D01*
X21157200Y-33166666D02*
X21109580Y-33214285D01*
X21109580Y-33214285D02*
X21014342Y-33261904D01*
X21014342Y-33261904D02*
X20823866Y-33261904D01*
X20823866Y-33261904D02*
X20728628Y-33214285D01*
X20728628Y-33214285D02*
X20681009Y-33166666D01*
X20681009Y-33166666D02*
X20633390Y-33071428D01*
X33204819Y-34357142D02*
X32728628Y-34023809D01*
X33204819Y-33785714D02*
X32204819Y-33785714D01*
X32204819Y-33785714D02*
X32204819Y-34166666D01*
X32204819Y-34166666D02*
X32252438Y-34261904D01*
X32252438Y-34261904D02*
X32300057Y-34309523D01*
X32300057Y-34309523D02*
X32395295Y-34357142D01*
X32395295Y-34357142D02*
X32538152Y-34357142D01*
X32538152Y-34357142D02*
X32633390Y-34309523D01*
X32633390Y-34309523D02*
X32681009Y-34261904D01*
X32681009Y-34261904D02*
X32728628Y-34166666D01*
X32728628Y-34166666D02*
X32728628Y-33785714D01*
X32300057Y-34738095D02*
X32252438Y-34785714D01*
X32252438Y-34785714D02*
X32204819Y-34880952D01*
X32204819Y-34880952D02*
X32204819Y-35119047D01*
X32204819Y-35119047D02*
X32252438Y-35214285D01*
X32252438Y-35214285D02*
X32300057Y-35261904D01*
X32300057Y-35261904D02*
X32395295Y-35309523D01*
X32395295Y-35309523D02*
X32490533Y-35309523D01*
X32490533Y-35309523D02*
X32633390Y-35261904D01*
X32633390Y-35261904D02*
X33204819Y-34690476D01*
X33204819Y-34690476D02*
X33204819Y-35309523D01*
X32204819Y-35642857D02*
X32204819Y-36309523D01*
X32204819Y-36309523D02*
X33204819Y-35880952D01*
X41609580Y-51607142D02*
X41657200Y-51559523D01*
X41657200Y-51559523D02*
X41704819Y-51416666D01*
X41704819Y-51416666D02*
X41704819Y-51321428D01*
X41704819Y-51321428D02*
X41657200Y-51178571D01*
X41657200Y-51178571D02*
X41561961Y-51083333D01*
X41561961Y-51083333D02*
X41466723Y-51035714D01*
X41466723Y-51035714D02*
X41276247Y-50988095D01*
X41276247Y-50988095D02*
X41133390Y-50988095D01*
X41133390Y-50988095D02*
X40942914Y-51035714D01*
X40942914Y-51035714D02*
X40847676Y-51083333D01*
X40847676Y-51083333D02*
X40752438Y-51178571D01*
X40752438Y-51178571D02*
X40704819Y-51321428D01*
X40704819Y-51321428D02*
X40704819Y-51416666D01*
X40704819Y-51416666D02*
X40752438Y-51559523D01*
X40752438Y-51559523D02*
X40800057Y-51607142D01*
X41704819Y-52559523D02*
X41704819Y-51988095D01*
X41704819Y-52273809D02*
X40704819Y-52273809D01*
X40704819Y-52273809D02*
X40847676Y-52178571D01*
X40847676Y-52178571D02*
X40942914Y-52083333D01*
X40942914Y-52083333D02*
X40990533Y-51988095D01*
X40800057Y-52940476D02*
X40752438Y-52988095D01*
X40752438Y-52988095D02*
X40704819Y-53083333D01*
X40704819Y-53083333D02*
X40704819Y-53321428D01*
X40704819Y-53321428D02*
X40752438Y-53416666D01*
X40752438Y-53416666D02*
X40800057Y-53464285D01*
X40800057Y-53464285D02*
X40895295Y-53511904D01*
X40895295Y-53511904D02*
X40990533Y-53511904D01*
X40990533Y-53511904D02*
X41133390Y-53464285D01*
X41133390Y-53464285D02*
X41704819Y-52892857D01*
X41704819Y-52892857D02*
X41704819Y-53511904D01*
X52416666Y-40954819D02*
X52892856Y-40954819D01*
X52892856Y-40954819D02*
X52892856Y-39954819D01*
X51559523Y-40954819D02*
X52130951Y-40954819D01*
X51845237Y-40954819D02*
X51845237Y-39954819D01*
X51845237Y-39954819D02*
X51940475Y-40097676D01*
X51940475Y-40097676D02*
X52035713Y-40192914D01*
X52035713Y-40192914D02*
X52130951Y-40240533D01*
X44204819Y-51857142D02*
X43728628Y-51523809D01*
X44204819Y-51285714D02*
X43204819Y-51285714D01*
X43204819Y-51285714D02*
X43204819Y-51666666D01*
X43204819Y-51666666D02*
X43252438Y-51761904D01*
X43252438Y-51761904D02*
X43300057Y-51809523D01*
X43300057Y-51809523D02*
X43395295Y-51857142D01*
X43395295Y-51857142D02*
X43538152Y-51857142D01*
X43538152Y-51857142D02*
X43633390Y-51809523D01*
X43633390Y-51809523D02*
X43681009Y-51761904D01*
X43681009Y-51761904D02*
X43728628Y-51666666D01*
X43728628Y-51666666D02*
X43728628Y-51285714D01*
X44204819Y-52809523D02*
X44204819Y-52238095D01*
X44204819Y-52523809D02*
X43204819Y-52523809D01*
X43204819Y-52523809D02*
X43347676Y-52428571D01*
X43347676Y-52428571D02*
X43442914Y-52333333D01*
X43442914Y-52333333D02*
X43490533Y-52238095D01*
X44204819Y-53761904D02*
X44204819Y-53190476D01*
X44204819Y-53476190D02*
X43204819Y-53476190D01*
X43204819Y-53476190D02*
X43347676Y-53380952D01*
X43347676Y-53380952D02*
X43442914Y-53285714D01*
X43442914Y-53285714D02*
X43490533Y-53190476D01*
X28359580Y-75583333D02*
X28407200Y-75535714D01*
X28407200Y-75535714D02*
X28454819Y-75392857D01*
X28454819Y-75392857D02*
X28454819Y-75297619D01*
X28454819Y-75297619D02*
X28407200Y-75154762D01*
X28407200Y-75154762D02*
X28311961Y-75059524D01*
X28311961Y-75059524D02*
X28216723Y-75011905D01*
X28216723Y-75011905D02*
X28026247Y-74964286D01*
X28026247Y-74964286D02*
X27883390Y-74964286D01*
X27883390Y-74964286D02*
X27692914Y-75011905D01*
X27692914Y-75011905D02*
X27597676Y-75059524D01*
X27597676Y-75059524D02*
X27502438Y-75154762D01*
X27502438Y-75154762D02*
X27454819Y-75297619D01*
X27454819Y-75297619D02*
X27454819Y-75392857D01*
X27454819Y-75392857D02*
X27502438Y-75535714D01*
X27502438Y-75535714D02*
X27550057Y-75583333D01*
X27454819Y-76440476D02*
X27454819Y-76250000D01*
X27454819Y-76250000D02*
X27502438Y-76154762D01*
X27502438Y-76154762D02*
X27550057Y-76107143D01*
X27550057Y-76107143D02*
X27692914Y-76011905D01*
X27692914Y-76011905D02*
X27883390Y-75964286D01*
X27883390Y-75964286D02*
X28264342Y-75964286D01*
X28264342Y-75964286D02*
X28359580Y-76011905D01*
X28359580Y-76011905D02*
X28407200Y-76059524D01*
X28407200Y-76059524D02*
X28454819Y-76154762D01*
X28454819Y-76154762D02*
X28454819Y-76345238D01*
X28454819Y-76345238D02*
X28407200Y-76440476D01*
X28407200Y-76440476D02*
X28359580Y-76488095D01*
X28359580Y-76488095D02*
X28264342Y-76535714D01*
X28264342Y-76535714D02*
X28026247Y-76535714D01*
X28026247Y-76535714D02*
X27931009Y-76488095D01*
X27931009Y-76488095D02*
X27883390Y-76440476D01*
X27883390Y-76440476D02*
X27835771Y-76345238D01*
X27835771Y-76345238D02*
X27835771Y-76154762D01*
X27835771Y-76154762D02*
X27883390Y-76059524D01*
X27883390Y-76059524D02*
X27931009Y-76011905D01*
X27931009Y-76011905D02*
X28026247Y-75964286D01*
X52416666Y-76704819D02*
X52749999Y-76228628D01*
X52988094Y-76704819D02*
X52988094Y-75704819D01*
X52988094Y-75704819D02*
X52607142Y-75704819D01*
X52607142Y-75704819D02*
X52511904Y-75752438D01*
X52511904Y-75752438D02*
X52464285Y-75800057D01*
X52464285Y-75800057D02*
X52416666Y-75895295D01*
X52416666Y-75895295D02*
X52416666Y-76038152D01*
X52416666Y-76038152D02*
X52464285Y-76133390D01*
X52464285Y-76133390D02*
X52511904Y-76181009D01*
X52511904Y-76181009D02*
X52607142Y-76228628D01*
X52607142Y-76228628D02*
X52988094Y-76228628D01*
X52035713Y-75800057D02*
X51988094Y-75752438D01*
X51988094Y-75752438D02*
X51892856Y-75704819D01*
X51892856Y-75704819D02*
X51654761Y-75704819D01*
X51654761Y-75704819D02*
X51559523Y-75752438D01*
X51559523Y-75752438D02*
X51511904Y-75800057D01*
X51511904Y-75800057D02*
X51464285Y-75895295D01*
X51464285Y-75895295D02*
X51464285Y-75990533D01*
X51464285Y-75990533D02*
X51511904Y-76133390D01*
X51511904Y-76133390D02*
X52083332Y-76704819D01*
X52083332Y-76704819D02*
X51464285Y-76704819D01*
D12*
X36967619Y-54554318D02*
X36967619Y-55582413D01*
X36967619Y-55582413D02*
X36907142Y-55703365D01*
X36907142Y-55703365D02*
X36846666Y-55763842D01*
X36846666Y-55763842D02*
X36725714Y-55824318D01*
X36725714Y-55824318D02*
X36483809Y-55824318D01*
X36483809Y-55824318D02*
X36362857Y-55763842D01*
X36362857Y-55763842D02*
X36302380Y-55703365D01*
X36302380Y-55703365D02*
X36241904Y-55582413D01*
X36241904Y-55582413D02*
X36241904Y-54554318D01*
X35092857Y-54977651D02*
X35092857Y-55824318D01*
X35395238Y-54493842D02*
X35697619Y-55400984D01*
X35697619Y-55400984D02*
X34911428Y-55400984D01*
D11*
X44454819Y-48833333D02*
X43978628Y-48500000D01*
X44454819Y-48261905D02*
X43454819Y-48261905D01*
X43454819Y-48261905D02*
X43454819Y-48642857D01*
X43454819Y-48642857D02*
X43502438Y-48738095D01*
X43502438Y-48738095D02*
X43550057Y-48785714D01*
X43550057Y-48785714D02*
X43645295Y-48833333D01*
X43645295Y-48833333D02*
X43788152Y-48833333D01*
X43788152Y-48833333D02*
X43883390Y-48785714D01*
X43883390Y-48785714D02*
X43931009Y-48738095D01*
X43931009Y-48738095D02*
X43978628Y-48642857D01*
X43978628Y-48642857D02*
X43978628Y-48261905D01*
X44454819Y-49309524D02*
X44454819Y-49500000D01*
X44454819Y-49500000D02*
X44407200Y-49595238D01*
X44407200Y-49595238D02*
X44359580Y-49642857D01*
X44359580Y-49642857D02*
X44216723Y-49738095D01*
X44216723Y-49738095D02*
X44026247Y-49785714D01*
X44026247Y-49785714D02*
X43645295Y-49785714D01*
X43645295Y-49785714D02*
X43550057Y-49738095D01*
X43550057Y-49738095D02*
X43502438Y-49690476D01*
X43502438Y-49690476D02*
X43454819Y-49595238D01*
X43454819Y-49595238D02*
X43454819Y-49404762D01*
X43454819Y-49404762D02*
X43502438Y-49309524D01*
X43502438Y-49309524D02*
X43550057Y-49261905D01*
X43550057Y-49261905D02*
X43645295Y-49214286D01*
X43645295Y-49214286D02*
X43883390Y-49214286D01*
X43883390Y-49214286D02*
X43978628Y-49261905D01*
X43978628Y-49261905D02*
X44026247Y-49309524D01*
X44026247Y-49309524D02*
X44073866Y-49404762D01*
X44073866Y-49404762D02*
X44073866Y-49595238D01*
X44073866Y-49595238D02*
X44026247Y-49690476D01*
X44026247Y-49690476D02*
X43978628Y-49738095D01*
X43978628Y-49738095D02*
X43883390Y-49785714D01*
X39109580Y-37107142D02*
X39157200Y-37059523D01*
X39157200Y-37059523D02*
X39204819Y-36916666D01*
X39204819Y-36916666D02*
X39204819Y-36821428D01*
X39204819Y-36821428D02*
X39157200Y-36678571D01*
X39157200Y-36678571D02*
X39061961Y-36583333D01*
X39061961Y-36583333D02*
X38966723Y-36535714D01*
X38966723Y-36535714D02*
X38776247Y-36488095D01*
X38776247Y-36488095D02*
X38633390Y-36488095D01*
X38633390Y-36488095D02*
X38442914Y-36535714D01*
X38442914Y-36535714D02*
X38347676Y-36583333D01*
X38347676Y-36583333D02*
X38252438Y-36678571D01*
X38252438Y-36678571D02*
X38204819Y-36821428D01*
X38204819Y-36821428D02*
X38204819Y-36916666D01*
X38204819Y-36916666D02*
X38252438Y-37059523D01*
X38252438Y-37059523D02*
X38300057Y-37107142D01*
X38204819Y-38011904D02*
X38204819Y-37535714D01*
X38204819Y-37535714D02*
X38681009Y-37488095D01*
X38681009Y-37488095D02*
X38633390Y-37535714D01*
X38633390Y-37535714D02*
X38585771Y-37630952D01*
X38585771Y-37630952D02*
X38585771Y-37869047D01*
X38585771Y-37869047D02*
X38633390Y-37964285D01*
X38633390Y-37964285D02*
X38681009Y-38011904D01*
X38681009Y-38011904D02*
X38776247Y-38059523D01*
X38776247Y-38059523D02*
X39014342Y-38059523D01*
X39014342Y-38059523D02*
X39109580Y-38011904D01*
X39109580Y-38011904D02*
X39157200Y-37964285D01*
X39157200Y-37964285D02*
X39204819Y-37869047D01*
X39204819Y-37869047D02*
X39204819Y-37630952D01*
X39204819Y-37630952D02*
X39157200Y-37535714D01*
X39157200Y-37535714D02*
X39109580Y-37488095D01*
X38204819Y-38916666D02*
X38204819Y-38726190D01*
X38204819Y-38726190D02*
X38252438Y-38630952D01*
X38252438Y-38630952D02*
X38300057Y-38583333D01*
X38300057Y-38583333D02*
X38442914Y-38488095D01*
X38442914Y-38488095D02*
X38633390Y-38440476D01*
X38633390Y-38440476D02*
X39014342Y-38440476D01*
X39014342Y-38440476D02*
X39109580Y-38488095D01*
X39109580Y-38488095D02*
X39157200Y-38535714D01*
X39157200Y-38535714D02*
X39204819Y-38630952D01*
X39204819Y-38630952D02*
X39204819Y-38821428D01*
X39204819Y-38821428D02*
X39157200Y-38916666D01*
X39157200Y-38916666D02*
X39109580Y-38964285D01*
X39109580Y-38964285D02*
X39014342Y-39011904D01*
X39014342Y-39011904D02*
X38776247Y-39011904D01*
X38776247Y-39011904D02*
X38681009Y-38964285D01*
X38681009Y-38964285D02*
X38633390Y-38916666D01*
X38633390Y-38916666D02*
X38585771Y-38821428D01*
X38585771Y-38821428D02*
X38585771Y-38630952D01*
X38585771Y-38630952D02*
X38633390Y-38535714D01*
X38633390Y-38535714D02*
X38681009Y-38488095D01*
X38681009Y-38488095D02*
X38776247Y-38440476D01*
D10*
X59238094Y-52726109D02*
X59238094Y-52226109D01*
X58714285Y-52678490D02*
X58738094Y-52702300D01*
X58738094Y-52702300D02*
X58809523Y-52726109D01*
X58809523Y-52726109D02*
X58857142Y-52726109D01*
X58857142Y-52726109D02*
X58928570Y-52702300D01*
X58928570Y-52702300D02*
X58976189Y-52654680D01*
X58976189Y-52654680D02*
X58999999Y-52607061D01*
X58999999Y-52607061D02*
X59023808Y-52511823D01*
X59023808Y-52511823D02*
X59023808Y-52440395D01*
X59023808Y-52440395D02*
X58999999Y-52345157D01*
X58999999Y-52345157D02*
X58976189Y-52297538D01*
X58976189Y-52297538D02*
X58928570Y-52249919D01*
X58928570Y-52249919D02*
X58857142Y-52226109D01*
X58857142Y-52226109D02*
X58809523Y-52226109D01*
X58809523Y-52226109D02*
X58738094Y-52249919D01*
X58738094Y-52249919D02*
X58714285Y-52273728D01*
X58523808Y-52273728D02*
X58499999Y-52249919D01*
X58499999Y-52249919D02*
X58452380Y-52226109D01*
X58452380Y-52226109D02*
X58333332Y-52226109D01*
X58333332Y-52226109D02*
X58285713Y-52249919D01*
X58285713Y-52249919D02*
X58261904Y-52273728D01*
X58261904Y-52273728D02*
X58238094Y-52321347D01*
X58238094Y-52321347D02*
X58238094Y-52368966D01*
X58238094Y-52368966D02*
X58261904Y-52440395D01*
X58261904Y-52440395D02*
X58547618Y-52726109D01*
X58547618Y-52726109D02*
X58238094Y-52726109D01*
D11*
X44109580Y-55357142D02*
X44157200Y-55309523D01*
X44157200Y-55309523D02*
X44204819Y-55166666D01*
X44204819Y-55166666D02*
X44204819Y-55071428D01*
X44204819Y-55071428D02*
X44157200Y-54928571D01*
X44157200Y-54928571D02*
X44061961Y-54833333D01*
X44061961Y-54833333D02*
X43966723Y-54785714D01*
X43966723Y-54785714D02*
X43776247Y-54738095D01*
X43776247Y-54738095D02*
X43633390Y-54738095D01*
X43633390Y-54738095D02*
X43442914Y-54785714D01*
X43442914Y-54785714D02*
X43347676Y-54833333D01*
X43347676Y-54833333D02*
X43252438Y-54928571D01*
X43252438Y-54928571D02*
X43204819Y-55071428D01*
X43204819Y-55071428D02*
X43204819Y-55166666D01*
X43204819Y-55166666D02*
X43252438Y-55309523D01*
X43252438Y-55309523D02*
X43300057Y-55357142D01*
X44204819Y-56309523D02*
X44204819Y-55738095D01*
X44204819Y-56023809D02*
X43204819Y-56023809D01*
X43204819Y-56023809D02*
X43347676Y-55928571D01*
X43347676Y-55928571D02*
X43442914Y-55833333D01*
X43442914Y-55833333D02*
X43490533Y-55738095D01*
X44204819Y-57261904D02*
X44204819Y-56690476D01*
X44204819Y-56976190D02*
X43204819Y-56976190D01*
X43204819Y-56976190D02*
X43347676Y-56880952D01*
X43347676Y-56880952D02*
X43442914Y-56785714D01*
X43442914Y-56785714D02*
X43490533Y-56690476D01*
X45642857Y-68454819D02*
X45976190Y-67978628D01*
X46214285Y-68454819D02*
X46214285Y-67454819D01*
X46214285Y-67454819D02*
X45833333Y-67454819D01*
X45833333Y-67454819D02*
X45738095Y-67502438D01*
X45738095Y-67502438D02*
X45690476Y-67550057D01*
X45690476Y-67550057D02*
X45642857Y-67645295D01*
X45642857Y-67645295D02*
X45642857Y-67788152D01*
X45642857Y-67788152D02*
X45690476Y-67883390D01*
X45690476Y-67883390D02*
X45738095Y-67931009D01*
X45738095Y-67931009D02*
X45833333Y-67978628D01*
X45833333Y-67978628D02*
X46214285Y-67978628D01*
X44690476Y-68454819D02*
X45261904Y-68454819D01*
X44976190Y-68454819D02*
X44976190Y-67454819D01*
X44976190Y-67454819D02*
X45071428Y-67597676D01*
X45071428Y-67597676D02*
X45166666Y-67692914D01*
X45166666Y-67692914D02*
X45261904Y-67740533D01*
X43785714Y-67454819D02*
X44261904Y-67454819D01*
X44261904Y-67454819D02*
X44309523Y-67931009D01*
X44309523Y-67931009D02*
X44261904Y-67883390D01*
X44261904Y-67883390D02*
X44166666Y-67835771D01*
X44166666Y-67835771D02*
X43928571Y-67835771D01*
X43928571Y-67835771D02*
X43833333Y-67883390D01*
X43833333Y-67883390D02*
X43785714Y-67931009D01*
X43785714Y-67931009D02*
X43738095Y-68026247D01*
X43738095Y-68026247D02*
X43738095Y-68264342D01*
X43738095Y-68264342D02*
X43785714Y-68359580D01*
X43785714Y-68359580D02*
X43833333Y-68407200D01*
X43833333Y-68407200D02*
X43928571Y-68454819D01*
X43928571Y-68454819D02*
X44166666Y-68454819D01*
X44166666Y-68454819D02*
X44261904Y-68407200D01*
X44261904Y-68407200D02*
X44309523Y-68359580D01*
X31109580Y-52333333D02*
X31157200Y-52285714D01*
X31157200Y-52285714D02*
X31204819Y-52142857D01*
X31204819Y-52142857D02*
X31204819Y-52047619D01*
X31204819Y-52047619D02*
X31157200Y-51904762D01*
X31157200Y-51904762D02*
X31061961Y-51809524D01*
X31061961Y-51809524D02*
X30966723Y-51761905D01*
X30966723Y-51761905D02*
X30776247Y-51714286D01*
X30776247Y-51714286D02*
X30633390Y-51714286D01*
X30633390Y-51714286D02*
X30442914Y-51761905D01*
X30442914Y-51761905D02*
X30347676Y-51809524D01*
X30347676Y-51809524D02*
X30252438Y-51904762D01*
X30252438Y-51904762D02*
X30204819Y-52047619D01*
X30204819Y-52047619D02*
X30204819Y-52142857D01*
X30204819Y-52142857D02*
X30252438Y-52285714D01*
X30252438Y-52285714D02*
X30300057Y-52333333D01*
X30633390Y-52904762D02*
X30585771Y-52809524D01*
X30585771Y-52809524D02*
X30538152Y-52761905D01*
X30538152Y-52761905D02*
X30442914Y-52714286D01*
X30442914Y-52714286D02*
X30395295Y-52714286D01*
X30395295Y-52714286D02*
X30300057Y-52761905D01*
X30300057Y-52761905D02*
X30252438Y-52809524D01*
X30252438Y-52809524D02*
X30204819Y-52904762D01*
X30204819Y-52904762D02*
X30204819Y-53095238D01*
X30204819Y-53095238D02*
X30252438Y-53190476D01*
X30252438Y-53190476D02*
X30300057Y-53238095D01*
X30300057Y-53238095D02*
X30395295Y-53285714D01*
X30395295Y-53285714D02*
X30442914Y-53285714D01*
X30442914Y-53285714D02*
X30538152Y-53238095D01*
X30538152Y-53238095D02*
X30585771Y-53190476D01*
X30585771Y-53190476D02*
X30633390Y-53095238D01*
X30633390Y-53095238D02*
X30633390Y-52904762D01*
X30633390Y-52904762D02*
X30681009Y-52809524D01*
X30681009Y-52809524D02*
X30728628Y-52761905D01*
X30728628Y-52761905D02*
X30823866Y-52714286D01*
X30823866Y-52714286D02*
X31014342Y-52714286D01*
X31014342Y-52714286D02*
X31109580Y-52761905D01*
X31109580Y-52761905D02*
X31157200Y-52809524D01*
X31157200Y-52809524D02*
X31204819Y-52904762D01*
X31204819Y-52904762D02*
X31204819Y-53095238D01*
X31204819Y-53095238D02*
X31157200Y-53190476D01*
X31157200Y-53190476D02*
X31109580Y-53238095D01*
X31109580Y-53238095D02*
X31014342Y-53285714D01*
X31014342Y-53285714D02*
X30823866Y-53285714D01*
X30823866Y-53285714D02*
X30728628Y-53238095D01*
X30728628Y-53238095D02*
X30681009Y-53190476D01*
X30681009Y-53190476D02*
X30633390Y-53095238D01*
X31609580Y-70583333D02*
X31657200Y-70535714D01*
X31657200Y-70535714D02*
X31704819Y-70392857D01*
X31704819Y-70392857D02*
X31704819Y-70297619D01*
X31704819Y-70297619D02*
X31657200Y-70154762D01*
X31657200Y-70154762D02*
X31561961Y-70059524D01*
X31561961Y-70059524D02*
X31466723Y-70011905D01*
X31466723Y-70011905D02*
X31276247Y-69964286D01*
X31276247Y-69964286D02*
X31133390Y-69964286D01*
X31133390Y-69964286D02*
X30942914Y-70011905D01*
X30942914Y-70011905D02*
X30847676Y-70059524D01*
X30847676Y-70059524D02*
X30752438Y-70154762D01*
X30752438Y-70154762D02*
X30704819Y-70297619D01*
X30704819Y-70297619D02*
X30704819Y-70392857D01*
X30704819Y-70392857D02*
X30752438Y-70535714D01*
X30752438Y-70535714D02*
X30800057Y-70583333D01*
X30704819Y-71488095D02*
X30704819Y-71011905D01*
X30704819Y-71011905D02*
X31181009Y-70964286D01*
X31181009Y-70964286D02*
X31133390Y-71011905D01*
X31133390Y-71011905D02*
X31085771Y-71107143D01*
X31085771Y-71107143D02*
X31085771Y-71345238D01*
X31085771Y-71345238D02*
X31133390Y-71440476D01*
X31133390Y-71440476D02*
X31181009Y-71488095D01*
X31181009Y-71488095D02*
X31276247Y-71535714D01*
X31276247Y-71535714D02*
X31514342Y-71535714D01*
X31514342Y-71535714D02*
X31609580Y-71488095D01*
X31609580Y-71488095D02*
X31657200Y-71440476D01*
X31657200Y-71440476D02*
X31704819Y-71345238D01*
X31704819Y-71345238D02*
X31704819Y-71107143D01*
X31704819Y-71107143D02*
X31657200Y-71011905D01*
X31657200Y-71011905D02*
X31609580Y-70964286D01*
X32109580Y-42857142D02*
X32157200Y-42809523D01*
X32157200Y-42809523D02*
X32204819Y-42666666D01*
X32204819Y-42666666D02*
X32204819Y-42571428D01*
X32204819Y-42571428D02*
X32157200Y-42428571D01*
X32157200Y-42428571D02*
X32061961Y-42333333D01*
X32061961Y-42333333D02*
X31966723Y-42285714D01*
X31966723Y-42285714D02*
X31776247Y-42238095D01*
X31776247Y-42238095D02*
X31633390Y-42238095D01*
X31633390Y-42238095D02*
X31442914Y-42285714D01*
X31442914Y-42285714D02*
X31347676Y-42333333D01*
X31347676Y-42333333D02*
X31252438Y-42428571D01*
X31252438Y-42428571D02*
X31204819Y-42571428D01*
X31204819Y-42571428D02*
X31204819Y-42666666D01*
X31204819Y-42666666D02*
X31252438Y-42809523D01*
X31252438Y-42809523D02*
X31300057Y-42857142D01*
X31204819Y-43761904D02*
X31204819Y-43285714D01*
X31204819Y-43285714D02*
X31681009Y-43238095D01*
X31681009Y-43238095D02*
X31633390Y-43285714D01*
X31633390Y-43285714D02*
X31585771Y-43380952D01*
X31585771Y-43380952D02*
X31585771Y-43619047D01*
X31585771Y-43619047D02*
X31633390Y-43714285D01*
X31633390Y-43714285D02*
X31681009Y-43761904D01*
X31681009Y-43761904D02*
X31776247Y-43809523D01*
X31776247Y-43809523D02*
X32014342Y-43809523D01*
X32014342Y-43809523D02*
X32109580Y-43761904D01*
X32109580Y-43761904D02*
X32157200Y-43714285D01*
X32157200Y-43714285D02*
X32204819Y-43619047D01*
X32204819Y-43619047D02*
X32204819Y-43380952D01*
X32204819Y-43380952D02*
X32157200Y-43285714D01*
X32157200Y-43285714D02*
X32109580Y-43238095D01*
X31300057Y-44190476D02*
X31252438Y-44238095D01*
X31252438Y-44238095D02*
X31204819Y-44333333D01*
X31204819Y-44333333D02*
X31204819Y-44571428D01*
X31204819Y-44571428D02*
X31252438Y-44666666D01*
X31252438Y-44666666D02*
X31300057Y-44714285D01*
X31300057Y-44714285D02*
X31395295Y-44761904D01*
X31395295Y-44761904D02*
X31490533Y-44761904D01*
X31490533Y-44761904D02*
X31633390Y-44714285D01*
X31633390Y-44714285D02*
X32204819Y-44142857D01*
X32204819Y-44142857D02*
X32204819Y-44761904D01*
D12*
X56239762Y-76074318D02*
X56239762Y-74804318D01*
X54909285Y-75953365D02*
X54969761Y-76013842D01*
X54969761Y-76013842D02*
X55151190Y-76074318D01*
X55151190Y-76074318D02*
X55272142Y-76074318D01*
X55272142Y-76074318D02*
X55453571Y-76013842D01*
X55453571Y-76013842D02*
X55574523Y-75892889D01*
X55574523Y-75892889D02*
X55635000Y-75771937D01*
X55635000Y-75771937D02*
X55695476Y-75530032D01*
X55695476Y-75530032D02*
X55695476Y-75348603D01*
X55695476Y-75348603D02*
X55635000Y-75106699D01*
X55635000Y-75106699D02*
X55574523Y-74985746D01*
X55574523Y-74985746D02*
X55453571Y-74864794D01*
X55453571Y-74864794D02*
X55272142Y-74804318D01*
X55272142Y-74804318D02*
X55151190Y-74804318D01*
X55151190Y-74804318D02*
X54969761Y-74864794D01*
X54969761Y-74864794D02*
X54909285Y-74925270D01*
X53699761Y-76074318D02*
X54425476Y-76074318D01*
X54062619Y-76074318D02*
X54062619Y-74804318D01*
X54062619Y-74804318D02*
X54183571Y-74985746D01*
X54183571Y-74985746D02*
X54304523Y-75106699D01*
X54304523Y-75106699D02*
X54425476Y-75167175D01*
D11*
X48095238Y-68550057D02*
X48190476Y-68502438D01*
X48190476Y-68502438D02*
X48285714Y-68407200D01*
X48285714Y-68407200D02*
X48428571Y-68264342D01*
X48428571Y-68264342D02*
X48523809Y-68216723D01*
X48523809Y-68216723D02*
X48619047Y-68216723D01*
X48571428Y-68454819D02*
X48666666Y-68407200D01*
X48666666Y-68407200D02*
X48761904Y-68311961D01*
X48761904Y-68311961D02*
X48809523Y-68121485D01*
X48809523Y-68121485D02*
X48809523Y-67788152D01*
X48809523Y-67788152D02*
X48761904Y-67597676D01*
X48761904Y-67597676D02*
X48666666Y-67502438D01*
X48666666Y-67502438D02*
X48571428Y-67454819D01*
X48571428Y-67454819D02*
X48380952Y-67454819D01*
X48380952Y-67454819D02*
X48285714Y-67502438D01*
X48285714Y-67502438D02*
X48190476Y-67597676D01*
X48190476Y-67597676D02*
X48142857Y-67788152D01*
X48142857Y-67788152D02*
X48142857Y-68121485D01*
X48142857Y-68121485D02*
X48190476Y-68311961D01*
X48190476Y-68311961D02*
X48285714Y-68407200D01*
X48285714Y-68407200D02*
X48380952Y-68454819D01*
X48380952Y-68454819D02*
X48571428Y-68454819D01*
X47761904Y-67550057D02*
X47714285Y-67502438D01*
X47714285Y-67502438D02*
X47619047Y-67454819D01*
X47619047Y-67454819D02*
X47380952Y-67454819D01*
X47380952Y-67454819D02*
X47285714Y-67502438D01*
X47285714Y-67502438D02*
X47238095Y-67550057D01*
X47238095Y-67550057D02*
X47190476Y-67645295D01*
X47190476Y-67645295D02*
X47190476Y-67740533D01*
X47190476Y-67740533D02*
X47238095Y-67883390D01*
X47238095Y-67883390D02*
X47809523Y-68454819D01*
X47809523Y-68454819D02*
X47190476Y-68454819D01*
X33609580Y-54107142D02*
X33657200Y-54059523D01*
X33657200Y-54059523D02*
X33704819Y-53916666D01*
X33704819Y-53916666D02*
X33704819Y-53821428D01*
X33704819Y-53821428D02*
X33657200Y-53678571D01*
X33657200Y-53678571D02*
X33561961Y-53583333D01*
X33561961Y-53583333D02*
X33466723Y-53535714D01*
X33466723Y-53535714D02*
X33276247Y-53488095D01*
X33276247Y-53488095D02*
X33133390Y-53488095D01*
X33133390Y-53488095D02*
X32942914Y-53535714D01*
X32942914Y-53535714D02*
X32847676Y-53583333D01*
X32847676Y-53583333D02*
X32752438Y-53678571D01*
X32752438Y-53678571D02*
X32704819Y-53821428D01*
X32704819Y-53821428D02*
X32704819Y-53916666D01*
X32704819Y-53916666D02*
X32752438Y-54059523D01*
X32752438Y-54059523D02*
X32800057Y-54107142D01*
X32800057Y-54488095D02*
X32752438Y-54535714D01*
X32752438Y-54535714D02*
X32704819Y-54630952D01*
X32704819Y-54630952D02*
X32704819Y-54869047D01*
X32704819Y-54869047D02*
X32752438Y-54964285D01*
X32752438Y-54964285D02*
X32800057Y-55011904D01*
X32800057Y-55011904D02*
X32895295Y-55059523D01*
X32895295Y-55059523D02*
X32990533Y-55059523D01*
X32990533Y-55059523D02*
X33133390Y-55011904D01*
X33133390Y-55011904D02*
X33704819Y-54440476D01*
X33704819Y-54440476D02*
X33704819Y-55059523D01*
X32704819Y-55916666D02*
X32704819Y-55726190D01*
X32704819Y-55726190D02*
X32752438Y-55630952D01*
X32752438Y-55630952D02*
X32800057Y-55583333D01*
X32800057Y-55583333D02*
X32942914Y-55488095D01*
X32942914Y-55488095D02*
X33133390Y-55440476D01*
X33133390Y-55440476D02*
X33514342Y-55440476D01*
X33514342Y-55440476D02*
X33609580Y-55488095D01*
X33609580Y-55488095D02*
X33657200Y-55535714D01*
X33657200Y-55535714D02*
X33704819Y-55630952D01*
X33704819Y-55630952D02*
X33704819Y-55821428D01*
X33704819Y-55821428D02*
X33657200Y-55916666D01*
X33657200Y-55916666D02*
X33609580Y-55964285D01*
X33609580Y-55964285D02*
X33514342Y-56011904D01*
X33514342Y-56011904D02*
X33276247Y-56011904D01*
X33276247Y-56011904D02*
X33181009Y-55964285D01*
X33181009Y-55964285D02*
X33133390Y-55916666D01*
X33133390Y-55916666D02*
X33085771Y-55821428D01*
X33085771Y-55821428D02*
X33085771Y-55630952D01*
X33085771Y-55630952D02*
X33133390Y-55535714D01*
X33133390Y-55535714D02*
X33181009Y-55488095D01*
X33181009Y-55488095D02*
X33276247Y-55440476D01*
X31204819Y-60761905D02*
X30204819Y-60761905D01*
X30204819Y-60761905D02*
X30204819Y-61000000D01*
X30204819Y-61000000D02*
X30252438Y-61142857D01*
X30252438Y-61142857D02*
X30347676Y-61238095D01*
X30347676Y-61238095D02*
X30442914Y-61285714D01*
X30442914Y-61285714D02*
X30633390Y-61333333D01*
X30633390Y-61333333D02*
X30776247Y-61333333D01*
X30776247Y-61333333D02*
X30966723Y-61285714D01*
X30966723Y-61285714D02*
X31061961Y-61238095D01*
X31061961Y-61238095D02*
X31157200Y-61142857D01*
X31157200Y-61142857D02*
X31204819Y-61000000D01*
X31204819Y-61000000D02*
X31204819Y-60761905D01*
X30538152Y-62190476D02*
X31204819Y-62190476D01*
X30157200Y-61952381D02*
X30871485Y-61714286D01*
X30871485Y-61714286D02*
X30871485Y-62333333D01*
X41884819Y-78833333D02*
X41408628Y-78500000D01*
X41884819Y-78261905D02*
X40884819Y-78261905D01*
X40884819Y-78261905D02*
X40884819Y-78642857D01*
X40884819Y-78642857D02*
X40932438Y-78738095D01*
X40932438Y-78738095D02*
X40980057Y-78785714D01*
X40980057Y-78785714D02*
X41075295Y-78833333D01*
X41075295Y-78833333D02*
X41218152Y-78833333D01*
X41218152Y-78833333D02*
X41313390Y-78785714D01*
X41313390Y-78785714D02*
X41361009Y-78738095D01*
X41361009Y-78738095D02*
X41408628Y-78642857D01*
X41408628Y-78642857D02*
X41408628Y-78261905D01*
X41218152Y-79690476D02*
X41884819Y-79690476D01*
X40837200Y-79452381D02*
X41551485Y-79214286D01*
X41551485Y-79214286D02*
X41551485Y-79833333D01*
D10*
%TO.C,D19*%
X40500000Y-31525000D02*
X40500000Y-33475000D01*
X40500000Y-31525000D02*
X40850000Y-31525000D01*
X40500000Y-33475000D02*
X40850000Y-33475000D01*
X40600000Y-31525000D02*
X40600000Y-33475000D01*
X40700000Y-31525000D02*
X40700000Y-33475000D01*
X42900000Y-31525000D02*
X43150000Y-31525000D01*
X43150000Y-31525000D02*
X43150000Y-31775000D01*
X43150000Y-33250000D02*
X43150000Y-33475000D01*
X43150000Y-33475000D02*
X42850000Y-33475000D01*
%TO.C,D3*%
X21425000Y-58025000D02*
X21725000Y-58025000D01*
X21425000Y-58250000D02*
X21425000Y-58025000D01*
X21425000Y-59975000D02*
X21425000Y-59725000D01*
X21675000Y-59975000D02*
X21425000Y-59975000D01*
X23875000Y-59975000D02*
X23875000Y-58025000D01*
X23975000Y-59975000D02*
X23975000Y-58025000D01*
X24075000Y-58025000D02*
X23725000Y-58025000D01*
X24075000Y-59975000D02*
X23725000Y-59975000D01*
X24075000Y-59975000D02*
X24075000Y-58025000D01*
D13*
%TO.C,R21*%
X42754724Y-72727500D02*
X42245276Y-72727500D01*
X42754724Y-73772500D02*
X42245276Y-73772500D01*
%TO.C,R8*%
X37477500Y-78745276D02*
X37477500Y-79254724D01*
X38522500Y-78745276D02*
X38522500Y-79254724D01*
%TO.C,C18*%
X41990000Y-56146267D02*
X41990000Y-55853733D01*
X43010000Y-56146267D02*
X43010000Y-55853733D01*
D10*
%TO.C,D8*%
X37600000Y-48775000D02*
X37600000Y-50725000D01*
X37600000Y-48775000D02*
X37950000Y-48775000D01*
X37600000Y-50725000D02*
X37950000Y-50725000D01*
X37700000Y-48775000D02*
X37700000Y-50725000D01*
X37800000Y-48775000D02*
X37800000Y-50725000D01*
X40000000Y-48775000D02*
X40250000Y-48775000D01*
X40250000Y-48775000D02*
X40250000Y-49025000D01*
X40250000Y-50500000D02*
X40250000Y-50725000D01*
X40250000Y-50725000D02*
X39950000Y-50725000D01*
D13*
%TO.C,C15*%
X46146267Y-25490000D02*
X45853733Y-25490000D01*
X46146267Y-26510000D02*
X45853733Y-26510000D01*
%TO.C,C53*%
X34490000Y-43783767D02*
X34490000Y-43491233D01*
X35510000Y-43783767D02*
X35510000Y-43491233D01*
%TO.C,C16*%
X37371833Y-71090000D02*
X37664367Y-71090000D01*
X37371833Y-72110000D02*
X37664367Y-72110000D01*
%TO.C,C55*%
X24461252Y-36090000D02*
X23038748Y-36090000D01*
X24461252Y-37910000D02*
X23038748Y-37910000D01*
D10*
%TO.C,D17*%
X28425000Y-31525000D02*
X28425000Y-33475000D01*
X28425000Y-31525000D02*
X28775000Y-31525000D01*
X28425000Y-33475000D02*
X28775000Y-33475000D01*
X28525000Y-31525000D02*
X28525000Y-33475000D01*
X28625000Y-31525000D02*
X28625000Y-33475000D01*
X30825000Y-31525000D02*
X31075000Y-31525000D01*
X31075000Y-31525000D02*
X31075000Y-31775000D01*
X31075000Y-33250000D02*
X31075000Y-33475000D01*
X31075000Y-33475000D02*
X30775000Y-33475000D01*
D13*
%TO.C,R22*%
X41727500Y-70245276D02*
X41727500Y-70754724D01*
X42772500Y-70245276D02*
X42772500Y-70754724D01*
%TO.C,R16*%
X40477500Y-66854724D02*
X40477500Y-66345276D01*
X41522500Y-66854724D02*
X41522500Y-66345276D01*
%TO.C,U7*%
X52050000Y-35450000D02*
X52050000Y-33950000D01*
X53000000Y-35450000D02*
X52050000Y-35450000D01*
X61500000Y-35450000D02*
X62450000Y-35450000D01*
X62450000Y-35450000D02*
X62450000Y-33950000D01*
X61830000Y-38252500D02*
X61500000Y-38012500D01*
X61830000Y-37772500D01*
X61830000Y-38252500D01*
G36*
X61830000Y-38252500D02*
G01*
X61500000Y-38012500D01*
X61830000Y-37772500D01*
X61830000Y-38252500D01*
G37*
%TO.C,C38*%
X49240000Y-64896267D02*
X49240000Y-64603733D01*
X50260000Y-64896267D02*
X50260000Y-64603733D01*
D14*
%TO.C,L4*%
X21528900Y-63274200D02*
X21528900Y-63917960D01*
X21528900Y-66082040D02*
X21528900Y-66917960D01*
X21528900Y-69082040D02*
X21528900Y-69725800D01*
X21528900Y-69725800D02*
X28971100Y-69725800D01*
X28971100Y-63274200D02*
X21528900Y-63274200D01*
X28971100Y-63917960D02*
X28971100Y-63274200D01*
X28971100Y-66917960D02*
X28971100Y-66082040D01*
X28971100Y-69725800D02*
X28971100Y-69082040D01*
D13*
%TO.C,C22*%
X63490000Y-41146267D02*
X63490000Y-40853733D01*
X64510000Y-41146267D02*
X64510000Y-40853733D01*
%TO.C,C25*%
X23603733Y-17490000D02*
X23896267Y-17490000D01*
X23603733Y-18510000D02*
X23896267Y-18510000D01*
D10*
%TO.C,D1*%
X46275000Y-61925000D02*
X46275000Y-62275000D01*
X46275000Y-64575000D02*
X46275000Y-64275000D01*
X46500000Y-64575000D02*
X46275000Y-64575000D01*
X48225000Y-61925000D02*
X46275000Y-61925000D01*
X48225000Y-61925000D02*
X48225000Y-62275000D01*
X48225000Y-62025000D02*
X46275000Y-62025000D01*
X48225000Y-62125000D02*
X46275000Y-62125000D01*
X48225000Y-64325000D02*
X48225000Y-64575000D01*
X48225000Y-64575000D02*
X47975000Y-64575000D01*
D13*
%TO.C,R25*%
X23829724Y-34227500D02*
X23320276Y-34227500D01*
X23829724Y-35272500D02*
X23320276Y-35272500D01*
%TO.C,U8*%
X57160000Y-59590000D02*
X53400000Y-59590000D01*
X57160000Y-60850000D02*
X57160000Y-59590000D01*
X57160000Y-65150000D02*
X57160000Y-66410000D01*
X57160000Y-66410000D02*
X53400000Y-66410000D01*
X52360000Y-66640000D02*
X51880000Y-66640000D01*
X52120000Y-66310000D01*
X52360000Y-66640000D01*
G36*
X52360000Y-66640000D02*
G01*
X51880000Y-66640000D01*
X52120000Y-66310000D01*
X52360000Y-66640000D01*
G37*
%TO.C,R1*%
X44477500Y-61582776D02*
X44477500Y-62092224D01*
X45522500Y-61582776D02*
X45522500Y-62092224D01*
%TO.C,C39*%
X49240000Y-60853733D02*
X49240000Y-61146267D01*
X50260000Y-60853733D02*
X50260000Y-61146267D01*
D10*
%TO.C,D6*%
X24775000Y-49925000D02*
X24775000Y-50275000D01*
X24775000Y-52575000D02*
X24775000Y-52275000D01*
X25000000Y-52575000D02*
X24775000Y-52575000D01*
X26725000Y-49925000D02*
X24775000Y-49925000D01*
X26725000Y-49925000D02*
X26725000Y-50275000D01*
X26725000Y-50025000D02*
X24775000Y-50025000D01*
X26725000Y-50125000D02*
X24775000Y-50125000D01*
X26725000Y-52325000D02*
X26725000Y-52575000D01*
X26725000Y-52575000D02*
X26475000Y-52575000D01*
D15*
%TO.C,D13*%
X60595000Y-53214000D02*
X61230000Y-53214000D01*
X60595000Y-56160400D02*
X64405000Y-56160400D01*
X60595000Y-56490600D02*
X64405000Y-56490600D01*
X60595000Y-57786000D02*
X60595000Y-53214000D01*
X61230000Y-57786000D02*
X60595000Y-57786000D01*
X62025020Y-55215520D02*
X62182500Y-55373000D01*
X62025025Y-54737996D02*
X62500000Y-55373000D01*
X62182500Y-55373000D02*
X62500000Y-55373000D01*
X62500000Y-54534800D02*
X62500000Y-54738000D01*
X62500000Y-54738000D02*
X62025020Y-54738000D01*
X62500000Y-55373000D02*
X62974980Y-54738000D01*
X62500000Y-56482980D02*
X62500000Y-55373000D01*
X62817500Y-55373000D02*
X62500000Y-55373000D01*
X62974980Y-54738000D02*
X62500000Y-54738000D01*
X62974980Y-55530480D02*
X62817500Y-55373000D01*
X63770000Y-57786000D02*
X64405000Y-57786000D01*
X64405000Y-53214000D02*
X63770000Y-53214000D01*
X64405000Y-57786000D02*
X64405000Y-53214000D01*
D10*
%TO.C,D15*%
X35175000Y-72525000D02*
X35175000Y-74475000D01*
X35175000Y-72525000D02*
X35525000Y-72525000D01*
X35175000Y-74475000D02*
X35525000Y-74475000D01*
X35275000Y-72525000D02*
X35275000Y-74475000D01*
X35375000Y-72525000D02*
X35375000Y-74475000D01*
X37575000Y-72525000D02*
X37825000Y-72525000D01*
X37825000Y-72525000D02*
X37825000Y-72775000D01*
X37825000Y-74250000D02*
X37825000Y-74475000D01*
X37825000Y-74475000D02*
X37525000Y-74475000D01*
D13*
%TO.C,U6*%
X44190000Y-28662500D02*
X44190000Y-29312500D01*
X44190000Y-29962500D02*
X44190000Y-29312500D01*
X47310000Y-28662500D02*
X47310000Y-29312500D01*
X47310000Y-29962500D02*
X47310000Y-29312500D01*
X47590000Y-30715000D02*
X47260000Y-30475000D01*
X47590000Y-30235000D01*
X47590000Y-30715000D01*
G36*
X47590000Y-30715000D02*
G01*
X47260000Y-30475000D01*
X47590000Y-30235000D01*
X47590000Y-30715000D01*
G37*
%TO.C,R7*%
X26477500Y-55495276D02*
X26477500Y-56004724D01*
X27522500Y-55495276D02*
X27522500Y-56004724D01*
%TO.C,Q1*%
X47940000Y-78912500D02*
X47940000Y-79562500D01*
X47940000Y-80212500D02*
X47940000Y-79562500D01*
X51060000Y-78912500D02*
X51060000Y-79562500D01*
X51060000Y-80212500D02*
X51060000Y-79562500D01*
X47990000Y-78400000D02*
X47660000Y-78640000D01*
X47660000Y-78160000D01*
X47990000Y-78400000D01*
G36*
X47990000Y-78400000D02*
G01*
X47660000Y-78640000D01*
X47660000Y-78160000D01*
X47990000Y-78400000D01*
G37*
%TO.C,R30*%
X38477500Y-53754724D02*
X38477500Y-53245276D01*
X39522500Y-53754724D02*
X39522500Y-53245276D01*
D10*
%TO.C,D5*%
X21425000Y-60525000D02*
X21725000Y-60525000D01*
X21425000Y-60750000D02*
X21425000Y-60525000D01*
X21425000Y-62475000D02*
X21425000Y-62225000D01*
X21675000Y-62475000D02*
X21425000Y-62475000D01*
X23875000Y-62475000D02*
X23875000Y-60525000D01*
X23975000Y-62475000D02*
X23975000Y-60525000D01*
X24075000Y-60525000D02*
X23725000Y-60525000D01*
X24075000Y-62475000D02*
X23725000Y-62475000D01*
X24075000Y-62475000D02*
X24075000Y-60525000D01*
D16*
%TO.C,IC4*%
X24163000Y-41863000D02*
X29067000Y-41863000D01*
X24163000Y-45059000D02*
X24163000Y-41863000D01*
X29067000Y-41863000D02*
X29067000Y-45059000D01*
X29067000Y-45059000D02*
X24163000Y-45059000D01*
X29195000Y-45409000D02*
X29195000Y-46936000D01*
D13*
%TO.C,C14*%
X37664367Y-67490000D02*
X37371833Y-67490000D01*
X37664367Y-68510000D02*
X37371833Y-68510000D01*
%TO.C,C1*%
X49646267Y-84240000D02*
X49353733Y-84240000D01*
X49646267Y-85260000D02*
X49353733Y-85260000D01*
D10*
%TO.C,D20*%
X34425000Y-31525000D02*
X34425000Y-33475000D01*
X34425000Y-31525000D02*
X34775000Y-31525000D01*
X34425000Y-33475000D02*
X34775000Y-33475000D01*
X34525000Y-31525000D02*
X34525000Y-33475000D01*
X34625000Y-31525000D02*
X34625000Y-33475000D01*
X36825000Y-31525000D02*
X37075000Y-31525000D01*
X37075000Y-31525000D02*
X37075000Y-31775000D01*
X37075000Y-33250000D02*
X37075000Y-33475000D01*
X37075000Y-33475000D02*
X36775000Y-33475000D01*
D13*
%TO.C,C44*%
X37646267Y-65740000D02*
X37353733Y-65740000D01*
X37646267Y-66760000D02*
X37353733Y-66760000D01*
%TO.C,C10*%
X34240000Y-64603733D02*
X34240000Y-64896267D01*
X35260000Y-64603733D02*
X35260000Y-64896267D01*
%TO.C,C20*%
X49240000Y-53396267D02*
X49240000Y-53103733D01*
X50260000Y-53396267D02*
X50260000Y-53103733D01*
%TO.C,C34*%
X49240000Y-57396267D02*
X49240000Y-57103733D01*
X50260000Y-57396267D02*
X50260000Y-57103733D01*
%TO.C,R3*%
X49245276Y-82227500D02*
X49754724Y-82227500D01*
X49245276Y-83272500D02*
X49754724Y-83272500D01*
%TO.C,C9*%
X32490000Y-64603733D02*
X32490000Y-64896267D01*
X33510000Y-64603733D02*
X33510000Y-64896267D01*
D15*
%TO.C,D14*%
X60595000Y-60714000D02*
X61230000Y-60714000D01*
X60595000Y-63660400D02*
X64405000Y-63660400D01*
X60595000Y-63990600D02*
X64405000Y-63990600D01*
X60595000Y-65286000D02*
X60595000Y-60714000D01*
X61230000Y-65286000D02*
X60595000Y-65286000D01*
X62025020Y-62715520D02*
X62182500Y-62873000D01*
X62025025Y-62237996D02*
X62500000Y-62873000D01*
X62182500Y-62873000D02*
X62500000Y-62873000D01*
X62500000Y-62034800D02*
X62500000Y-62238000D01*
X62500000Y-62238000D02*
X62025020Y-62238000D01*
X62500000Y-62873000D02*
X62974980Y-62238000D01*
X62500000Y-63982980D02*
X62500000Y-62873000D01*
X62817500Y-62873000D02*
X62500000Y-62873000D01*
X62974980Y-62238000D02*
X62500000Y-62238000D01*
X62974980Y-63030480D02*
X62817500Y-62873000D01*
X63770000Y-65286000D02*
X64405000Y-65286000D01*
X64405000Y-60714000D02*
X63770000Y-60714000D01*
X64405000Y-65286000D02*
X64405000Y-60714000D01*
D16*
%TO.C,IC5*%
X36223000Y-41863000D02*
X41127000Y-41863000D01*
X36223000Y-45059000D02*
X36223000Y-41863000D01*
X41127000Y-41863000D02*
X41127000Y-45059000D01*
X41127000Y-45059000D02*
X36223000Y-45059000D01*
X41255000Y-45409000D02*
X41255000Y-46936000D01*
D13*
%TO.C,C21*%
X41146267Y-63240000D02*
X40853733Y-63240000D01*
X41146267Y-64260000D02*
X40853733Y-64260000D01*
%TO.C,C35*%
X47240000Y-53103733D02*
X47240000Y-53396267D01*
X48260000Y-53103733D02*
X48260000Y-53396267D01*
%TO.C,C3*%
X44490000Y-65396267D02*
X44490000Y-65103733D01*
X45510000Y-65396267D02*
X45510000Y-65103733D01*
%TO.C,C46*%
X37646267Y-64020400D02*
X37353733Y-64020400D01*
X37646267Y-65040400D02*
X37353733Y-65040400D01*
%TO.C,R23*%
X39977500Y-57504724D02*
X39977500Y-56995276D01*
X41022500Y-57504724D02*
X41022500Y-56995276D01*
%TO.C,C41*%
X42353733Y-74490000D02*
X42646267Y-74490000D01*
X42353733Y-75510000D02*
X42646267Y-75510000D01*
%TO.C,R5*%
X25477500Y-72745276D02*
X25477500Y-73254724D01*
X26522500Y-72745276D02*
X26522500Y-73254724D01*
%TO.C,R18*%
X43477500Y-70754724D02*
X43477500Y-70245276D01*
X44522500Y-70754724D02*
X44522500Y-70245276D01*
%TO.C,C27*%
X63490000Y-37646267D02*
X63490000Y-37353733D01*
X64510000Y-37646267D02*
X64510000Y-37353733D01*
%TO.C,R6*%
X20540000Y-51322936D02*
X20540000Y-55677064D01*
X23960000Y-51322936D02*
X23960000Y-55677064D01*
%TO.C,L2*%
X35260000Y-66690000D02*
X32740000Y-66690000D01*
X35260000Y-68810000D02*
X32740000Y-68810000D01*
%TO.C,C36*%
X47240000Y-57396267D02*
X47240000Y-57103733D01*
X48260000Y-57396267D02*
X48260000Y-57103733D01*
%TO.C,R20*%
X45745276Y-72727500D02*
X46254724Y-72727500D01*
X45745276Y-73772500D02*
X46254724Y-73772500D01*
%TO.C,C57*%
X36461252Y-36090000D02*
X35038748Y-36090000D01*
X36461252Y-37910000D02*
X35038748Y-37910000D01*
%TO.C,C28*%
X49490000Y-45396267D02*
X49490000Y-45103733D01*
X50510000Y-45396267D02*
X50510000Y-45103733D01*
%TO.C,R19*%
X46254724Y-74477500D02*
X45745276Y-74477500D01*
X46254724Y-75522500D02*
X45745276Y-75522500D01*
%TO.C,C4*%
X38490000Y-82896267D02*
X38490000Y-82603733D01*
X39510000Y-82896267D02*
X39510000Y-82603733D01*
%TO.C,R26*%
X41754724Y-34227500D02*
X41245276Y-34227500D01*
X41754724Y-35272500D02*
X41245276Y-35272500D01*
%TO.C,R24*%
X29754724Y-34227500D02*
X29245276Y-34227500D01*
X29754724Y-35272500D02*
X29245276Y-35272500D01*
D10*
%TO.C,D2*%
X26675000Y-58025000D02*
X26975000Y-58025000D01*
X26675000Y-58250000D02*
X26675000Y-58025000D01*
X26675000Y-59975000D02*
X26675000Y-59725000D01*
X26925000Y-59975000D02*
X26675000Y-59975000D01*
X29125000Y-59975000D02*
X29125000Y-58025000D01*
X29225000Y-59975000D02*
X29225000Y-58025000D01*
X29325000Y-58025000D02*
X28975000Y-58025000D01*
X29325000Y-59975000D02*
X28975000Y-59975000D01*
X29325000Y-59975000D02*
X29325000Y-58025000D01*
D13*
%TO.C,C7*%
X30740000Y-64603733D02*
X30740000Y-64896267D01*
X31760000Y-64603733D02*
X31760000Y-64896267D01*
%TO.C,R13*%
X62995276Y-70227500D02*
X63504724Y-70227500D01*
X62995276Y-71272500D02*
X63504724Y-71272500D01*
%TO.C,R14*%
X62995276Y-67477500D02*
X63504724Y-67477500D01*
X62995276Y-68522500D02*
X63504724Y-68522500D01*
%TO.C,C24*%
X41146267Y-61490000D02*
X40853733Y-61490000D01*
X41146267Y-62510000D02*
X40853733Y-62510000D01*
%TO.C,C54*%
X30461252Y-36090000D02*
X29038748Y-36090000D01*
X30461252Y-37910000D02*
X29038748Y-37910000D01*
%TO.C,R17*%
X46504724Y-32227500D02*
X45995276Y-32227500D01*
X46504724Y-33272500D02*
X45995276Y-33272500D01*
D10*
%TO.C,D9*%
X46525000Y-47675000D02*
X46525000Y-48025000D01*
X46525000Y-50325000D02*
X46525000Y-50025000D01*
X46750000Y-50325000D02*
X46525000Y-50325000D01*
X48475000Y-47675000D02*
X46525000Y-47675000D01*
X48475000Y-47675000D02*
X48475000Y-48025000D01*
X48475000Y-47775000D02*
X46525000Y-47775000D01*
X48475000Y-47875000D02*
X46525000Y-47875000D01*
X48475000Y-50075000D02*
X48475000Y-50325000D01*
X48475000Y-50325000D02*
X48225000Y-50325000D01*
D13*
%TO.C,R12*%
X62995276Y-72977500D02*
X63504724Y-72977500D01*
X62995276Y-74022500D02*
X63504724Y-74022500D01*
%TO.C,D12*%
X62140000Y-44350000D02*
X62140000Y-49410000D01*
X62140000Y-49410000D02*
X64860000Y-49410000D01*
X64860000Y-44350000D02*
X64860000Y-49410000D01*
%TO.C,C2*%
X24740000Y-55603733D02*
X24740000Y-55896267D01*
X25760000Y-55603733D02*
X25760000Y-55896267D01*
%TO.C,C17*%
X37664367Y-69290000D02*
X37371833Y-69290000D01*
X37664367Y-70310000D02*
X37371833Y-70310000D01*
D10*
%TO.C,D18*%
X22425000Y-31525000D02*
X22425000Y-33475000D01*
X22425000Y-31525000D02*
X22775000Y-31525000D01*
X22425000Y-33475000D02*
X22775000Y-33475000D01*
X22525000Y-31525000D02*
X22525000Y-33475000D01*
X22625000Y-31525000D02*
X22625000Y-33475000D01*
X24825000Y-31525000D02*
X25075000Y-31525000D01*
X25075000Y-31525000D02*
X25075000Y-31775000D01*
X25075000Y-33250000D02*
X25075000Y-33475000D01*
X25075000Y-33475000D02*
X24775000Y-33475000D01*
D13*
%TO.C,R27*%
X35754724Y-34227500D02*
X35245276Y-34227500D01*
X35754724Y-35272500D02*
X35245276Y-35272500D01*
%TO.C,C12*%
X41990000Y-52646267D02*
X41990000Y-52353733D01*
X43010000Y-52646267D02*
X43010000Y-52353733D01*
D14*
%TO.C,L1*%
X51928000Y-41652600D02*
X51928000Y-43339160D01*
X51928000Y-49160840D02*
X51928000Y-50847400D01*
X51928000Y-50847400D02*
X61072000Y-50847400D01*
X61072000Y-41652600D02*
X51928000Y-41652600D01*
X61072000Y-43339160D02*
X61072000Y-41652600D01*
X61072000Y-50847400D02*
X61072000Y-49160840D01*
X62291200Y-46250000D02*
G75*
G02*
X62138800Y-46250000I-76200J0D01*
G01*
X62138800Y-46250000D02*
G75*
G02*
X62291200Y-46250000I76200J0D01*
G01*
D13*
%TO.C,R11*%
X44477500Y-52754724D02*
X44477500Y-52245276D01*
X45522500Y-52754724D02*
X45522500Y-52245276D01*
%TO.C,C6*%
X27490000Y-73146267D02*
X27490000Y-72853733D01*
X28510000Y-73146267D02*
X28510000Y-72853733D01*
%TO.C,R2*%
X49754724Y-75727500D02*
X49245276Y-75727500D01*
X49754724Y-76772500D02*
X49245276Y-76772500D01*
D16*
%TO.C,U4*%
X34775000Y-58850000D02*
X34775000Y-58850000D01*
X34775000Y-59050000D02*
X34775000Y-59050000D01*
D10*
X36825000Y-56150000D02*
X35525000Y-56150000D01*
X36825000Y-59350000D02*
X35525000Y-59350000D01*
D16*
X34775000Y-58850000D02*
G75*
G02*
X34775000Y-59050000I0J-100000D01*
G01*
X34775000Y-59050000D02*
G75*
G02*
X34775000Y-58850000I0J100000D01*
G01*
D13*
%TO.C,R9*%
X41977500Y-48745276D02*
X41977500Y-49254724D01*
X43022500Y-48745276D02*
X43022500Y-49254724D01*
%TO.C,C56*%
X42461252Y-36090000D02*
X41038748Y-36090000D01*
X42461252Y-37910000D02*
X41038748Y-37910000D01*
D16*
%TO.C,IC2*%
X54175000Y-58625000D02*
X51425000Y-58625000D01*
X54525000Y-52250000D02*
X56275000Y-52250000D01*
X54525000Y-58750000D02*
X54525000Y-52250000D01*
X56275000Y-52250000D02*
X56275000Y-58750000D01*
X56275000Y-58750000D02*
X54525000Y-58750000D01*
D13*
%TO.C,C11*%
X44490000Y-56146267D02*
X44490000Y-55853733D01*
X45510000Y-56146267D02*
X45510000Y-55853733D01*
%TO.C,R15*%
X42277500Y-66345276D02*
X42277500Y-66854724D01*
X43322500Y-66345276D02*
X43322500Y-66854724D01*
%TO.C,C8*%
X28240000Y-55603733D02*
X28240000Y-55896267D01*
X29260000Y-55603733D02*
X29260000Y-55896267D01*
%TO.C,C5*%
X30740000Y-68396267D02*
X30740000Y-68103733D01*
X31760000Y-68396267D02*
X31760000Y-68103733D01*
%TO.C,C52*%
X29760000Y-43646267D02*
X29760000Y-43353733D01*
X30780000Y-43646267D02*
X30780000Y-43353733D01*
D16*
%TO.C,IC1*%
X50950000Y-68762000D02*
X50950000Y-67237000D01*
X51145000Y-69112000D02*
X61045000Y-69112000D01*
X51145000Y-72312000D02*
X51145000Y-69112000D01*
X61045000Y-69112000D02*
X61045000Y-72312000D01*
X61045000Y-72312000D02*
X51145000Y-72312000D01*
D13*
%TO.C,Q2*%
X46565000Y-68805000D02*
X46565000Y-69100000D01*
X46565000Y-72050000D02*
X46565000Y-72345000D01*
X46565000Y-72345000D02*
X49405000Y-72345000D01*
X49405000Y-68805000D02*
X46565000Y-68805000D01*
X49405000Y-69100000D02*
X49405000Y-68805000D01*
X49405000Y-72345000D02*
X49405000Y-72050000D01*
X46315000Y-72385000D02*
X45835000Y-72385000D01*
X46075000Y-72055000D01*
X46315000Y-72385000D01*
G36*
X46315000Y-72385000D02*
G01*
X45835000Y-72385000D01*
X46075000Y-72055000D01*
X46315000Y-72385000D01*
G37*
%TO.C,C26*%
X31240000Y-55146267D02*
X31240000Y-54853733D01*
X32260000Y-55146267D02*
X32260000Y-54853733D01*
D10*
%TO.C,D4*%
X26675000Y-60525000D02*
X26975000Y-60525000D01*
X26675000Y-60750000D02*
X26675000Y-60525000D01*
X26675000Y-62475000D02*
X26675000Y-62225000D01*
X26925000Y-62475000D02*
X26675000Y-62475000D01*
X29125000Y-62475000D02*
X29125000Y-60525000D01*
X29225000Y-62475000D02*
X29225000Y-60525000D01*
X29325000Y-60525000D02*
X28975000Y-60525000D01*
X29325000Y-62475000D02*
X28975000Y-62475000D01*
X29325000Y-62475000D02*
X29325000Y-60525000D01*
D13*
%TO.C,R4*%
X39477500Y-78745276D02*
X39477500Y-79254724D01*
X40522500Y-78745276D02*
X40522500Y-79254724D01*
%TD*%
M02*
