%TF.GenerationSoftware,KiCad,Pcbnew,8.0.4*%
%TF.CreationDate,2024-11-10T12:25:31-05:00*%
%TF.ProjectId,booster-tc-driver,626f6f73-7465-4722-9d74-632d64726976,rev?*%
%TF.SameCoordinates,Original*%
%TF.FileFunction,Legend,Top*%
%TF.FilePolarity,Positive*%
%FSLAX46Y46*%
G04 Gerber Fmt 4.6, Leading zero omitted, Abs format (unit mm)*
G04 Created by KiCad (PCBNEW 8.0.4) date 2024-11-10 12:25:31*
%MOMM*%
%LPD*%
G01*
G04 APERTURE LIST*
%ADD10C,0.100000*%
%ADD11C,0.150000*%
%ADD12C,0.120000*%
%ADD13C,0.075000*%
%ADD14C,0.254000*%
%ADD15C,0.125000*%
%ADD16C,0.200000*%
%ADD17C,0.152400*%
%ADD18C,0.127000*%
G04 APERTURE END LIST*
D10*
X20000000Y-16000000D02*
X20000000Y-88000000D01*
X65300000Y-16000000D02*
X65300000Y-88000000D01*
X35577693Y-16170038D02*
X35482455Y-16122419D01*
X35482455Y-16122419D02*
X35339598Y-16122419D01*
X35339598Y-16122419D02*
X35196741Y-16170038D01*
X35196741Y-16170038D02*
X35101503Y-16265276D01*
X35101503Y-16265276D02*
X35053884Y-16360514D01*
X35053884Y-16360514D02*
X35006265Y-16550990D01*
X35006265Y-16550990D02*
X35006265Y-16693847D01*
X35006265Y-16693847D02*
X35053884Y-16884323D01*
X35053884Y-16884323D02*
X35101503Y-16979561D01*
X35101503Y-16979561D02*
X35196741Y-17074800D01*
X35196741Y-17074800D02*
X35339598Y-17122419D01*
X35339598Y-17122419D02*
X35434836Y-17122419D01*
X35434836Y-17122419D02*
X35577693Y-17074800D01*
X35577693Y-17074800D02*
X35625312Y-17027180D01*
X35625312Y-17027180D02*
X35625312Y-16693847D01*
X35625312Y-16693847D02*
X35434836Y-16693847D01*
X36053884Y-17122419D02*
X36053884Y-16122419D01*
X36053884Y-16122419D02*
X36291979Y-16122419D01*
X36291979Y-16122419D02*
X36434836Y-16170038D01*
X36434836Y-16170038D02*
X36530074Y-16265276D01*
X36530074Y-16265276D02*
X36577693Y-16360514D01*
X36577693Y-16360514D02*
X36625312Y-16550990D01*
X36625312Y-16550990D02*
X36625312Y-16693847D01*
X36625312Y-16693847D02*
X36577693Y-16884323D01*
X36577693Y-16884323D02*
X36530074Y-16979561D01*
X36530074Y-16979561D02*
X36434836Y-17074800D01*
X36434836Y-17074800D02*
X36291979Y-17122419D01*
X36291979Y-17122419D02*
X36053884Y-17122419D01*
X36911027Y-16122419D02*
X37482455Y-16122419D01*
X37196741Y-17122419D02*
X37196741Y-16122419D01*
X37768170Y-16217657D02*
X37815789Y-16170038D01*
X37815789Y-16170038D02*
X37911027Y-16122419D01*
X37911027Y-16122419D02*
X38149122Y-16122419D01*
X38149122Y-16122419D02*
X38244360Y-16170038D01*
X38244360Y-16170038D02*
X38291979Y-16217657D01*
X38291979Y-16217657D02*
X38339598Y-16312895D01*
X38339598Y-16312895D02*
X38339598Y-16408133D01*
X38339598Y-16408133D02*
X38291979Y-16550990D01*
X38291979Y-16550990D02*
X37720551Y-17122419D01*
X37720551Y-17122419D02*
X38339598Y-17122419D01*
X56911027Y-57372419D02*
X57482455Y-57372419D01*
X57196741Y-58372419D02*
X57196741Y-57372419D01*
X57815789Y-58372419D02*
X57815789Y-57372419D01*
X57815789Y-57848609D02*
X58387217Y-57848609D01*
X58387217Y-58372419D02*
X58387217Y-57372419D01*
X59387217Y-58372419D02*
X58815789Y-58372419D01*
X59101503Y-58372419D02*
X59101503Y-57372419D01*
X59101503Y-57372419D02*
X59006265Y-57515276D01*
X59006265Y-57515276D02*
X58911027Y-57610514D01*
X58911027Y-57610514D02*
X58815789Y-57658133D01*
X21963884Y-16491466D02*
X22725789Y-16491466D01*
X24725789Y-16491466D02*
X25487694Y-16491466D01*
X25106741Y-16872419D02*
X25106741Y-16110514D01*
X56803884Y-36122419D02*
X56803884Y-35122419D01*
X56803884Y-35122419D02*
X57184836Y-35122419D01*
X57184836Y-35122419D02*
X57280074Y-35170038D01*
X57280074Y-35170038D02*
X57327693Y-35217657D01*
X57327693Y-35217657D02*
X57375312Y-35312895D01*
X57375312Y-35312895D02*
X57375312Y-35455752D01*
X57375312Y-35455752D02*
X57327693Y-35550990D01*
X57327693Y-35550990D02*
X57280074Y-35598609D01*
X57280074Y-35598609D02*
X57184836Y-35646228D01*
X57184836Y-35646228D02*
X56803884Y-35646228D01*
X57803884Y-36122419D02*
X57803884Y-35122419D01*
X57803884Y-35122419D02*
X58137217Y-35836704D01*
X58137217Y-35836704D02*
X58470550Y-35122419D01*
X58470550Y-35122419D02*
X58470550Y-36122419D01*
X58946741Y-36122419D02*
X58946741Y-35122419D01*
X58946741Y-35122419D02*
X59327693Y-35122419D01*
X59327693Y-35122419D02*
X59422931Y-35170038D01*
X59422931Y-35170038D02*
X59470550Y-35217657D01*
X59470550Y-35217657D02*
X59518169Y-35312895D01*
X59518169Y-35312895D02*
X59518169Y-35455752D01*
X59518169Y-35455752D02*
X59470550Y-35550990D01*
X59470550Y-35550990D02*
X59422931Y-35598609D01*
X59422931Y-35598609D02*
X59327693Y-35646228D01*
X59327693Y-35646228D02*
X58946741Y-35646228D01*
X28303884Y-47622419D02*
X28303884Y-46622419D01*
X28303884Y-46622419D02*
X28684836Y-46622419D01*
X28684836Y-46622419D02*
X28780074Y-46670038D01*
X28780074Y-46670038D02*
X28827693Y-46717657D01*
X28827693Y-46717657D02*
X28875312Y-46812895D01*
X28875312Y-46812895D02*
X28875312Y-46955752D01*
X28875312Y-46955752D02*
X28827693Y-47050990D01*
X28827693Y-47050990D02*
X28780074Y-47098609D01*
X28780074Y-47098609D02*
X28684836Y-47146228D01*
X28684836Y-47146228D02*
X28303884Y-47146228D01*
X29875312Y-47622419D02*
X29541979Y-47146228D01*
X29303884Y-47622419D02*
X29303884Y-46622419D01*
X29303884Y-46622419D02*
X29684836Y-46622419D01*
X29684836Y-46622419D02*
X29780074Y-46670038D01*
X29780074Y-46670038D02*
X29827693Y-46717657D01*
X29827693Y-46717657D02*
X29875312Y-46812895D01*
X29875312Y-46812895D02*
X29875312Y-46955752D01*
X29875312Y-46955752D02*
X29827693Y-47050990D01*
X29827693Y-47050990D02*
X29780074Y-47098609D01*
X29780074Y-47098609D02*
X29684836Y-47146228D01*
X29684836Y-47146228D02*
X29303884Y-47146228D01*
X30494360Y-46622419D02*
X30684836Y-46622419D01*
X30684836Y-46622419D02*
X30780074Y-46670038D01*
X30780074Y-46670038D02*
X30875312Y-46765276D01*
X30875312Y-46765276D02*
X30922931Y-46955752D01*
X30922931Y-46955752D02*
X30922931Y-47289085D01*
X30922931Y-47289085D02*
X30875312Y-47479561D01*
X30875312Y-47479561D02*
X30780074Y-47574800D01*
X30780074Y-47574800D02*
X30684836Y-47622419D01*
X30684836Y-47622419D02*
X30494360Y-47622419D01*
X30494360Y-47622419D02*
X30399122Y-47574800D01*
X30399122Y-47574800D02*
X30303884Y-47479561D01*
X30303884Y-47479561D02*
X30256265Y-47289085D01*
X30256265Y-47289085D02*
X30256265Y-46955752D01*
X30256265Y-46955752D02*
X30303884Y-46765276D01*
X30303884Y-46765276D02*
X30399122Y-46670038D01*
X30399122Y-46670038D02*
X30494360Y-46622419D01*
X31875312Y-46670038D02*
X31780074Y-46622419D01*
X31780074Y-46622419D02*
X31637217Y-46622419D01*
X31637217Y-46622419D02*
X31494360Y-46670038D01*
X31494360Y-46670038D02*
X31399122Y-46765276D01*
X31399122Y-46765276D02*
X31351503Y-46860514D01*
X31351503Y-46860514D02*
X31303884Y-47050990D01*
X31303884Y-47050990D02*
X31303884Y-47193847D01*
X31303884Y-47193847D02*
X31351503Y-47384323D01*
X31351503Y-47384323D02*
X31399122Y-47479561D01*
X31399122Y-47479561D02*
X31494360Y-47574800D01*
X31494360Y-47574800D02*
X31637217Y-47622419D01*
X31637217Y-47622419D02*
X31732455Y-47622419D01*
X31732455Y-47622419D02*
X31875312Y-47574800D01*
X31875312Y-47574800D02*
X31922931Y-47527180D01*
X31922931Y-47527180D02*
X31922931Y-47193847D01*
X31922931Y-47193847D02*
X31732455Y-47193847D01*
X56911027Y-46372419D02*
X57482455Y-46372419D01*
X57196741Y-47372419D02*
X57196741Y-46372419D01*
X57815789Y-47372419D02*
X57815789Y-46372419D01*
X57815789Y-46848609D02*
X58387217Y-46848609D01*
X58387217Y-47372419D02*
X58387217Y-46372419D01*
X58815789Y-46467657D02*
X58863408Y-46420038D01*
X58863408Y-46420038D02*
X58958646Y-46372419D01*
X58958646Y-46372419D02*
X59196741Y-46372419D01*
X59196741Y-46372419D02*
X59291979Y-46420038D01*
X59291979Y-46420038D02*
X59339598Y-46467657D01*
X59339598Y-46467657D02*
X59387217Y-46562895D01*
X59387217Y-46562895D02*
X59387217Y-46658133D01*
X59387217Y-46658133D02*
X59339598Y-46800990D01*
X59339598Y-46800990D02*
X58768170Y-47372419D01*
X58768170Y-47372419D02*
X59387217Y-47372419D01*
X22125312Y-62527180D02*
X22077693Y-62574800D01*
X22077693Y-62574800D02*
X21934836Y-62622419D01*
X21934836Y-62622419D02*
X21839598Y-62622419D01*
X21839598Y-62622419D02*
X21696741Y-62574800D01*
X21696741Y-62574800D02*
X21601503Y-62479561D01*
X21601503Y-62479561D02*
X21553884Y-62384323D01*
X21553884Y-62384323D02*
X21506265Y-62193847D01*
X21506265Y-62193847D02*
X21506265Y-62050990D01*
X21506265Y-62050990D02*
X21553884Y-61860514D01*
X21553884Y-61860514D02*
X21601503Y-61765276D01*
X21601503Y-61765276D02*
X21696741Y-61670038D01*
X21696741Y-61670038D02*
X21839598Y-61622419D01*
X21839598Y-61622419D02*
X21934836Y-61622419D01*
X21934836Y-61622419D02*
X22077693Y-61670038D01*
X22077693Y-61670038D02*
X22125312Y-61717657D01*
X22411027Y-61622419D02*
X22982455Y-61622419D01*
X22696741Y-62622419D02*
X22696741Y-61622419D01*
X20651390Y-16637217D02*
X20603771Y-16780074D01*
X20603771Y-16780074D02*
X20556152Y-16827693D01*
X20556152Y-16827693D02*
X20460914Y-16875312D01*
X20460914Y-16875312D02*
X20318057Y-16875312D01*
X20318057Y-16875312D02*
X20222819Y-16827693D01*
X20222819Y-16827693D02*
X20175200Y-16780074D01*
X20175200Y-16780074D02*
X20127580Y-16684836D01*
X20127580Y-16684836D02*
X20127580Y-16303884D01*
X20127580Y-16303884D02*
X21127580Y-16303884D01*
X21127580Y-16303884D02*
X21127580Y-16637217D01*
X21127580Y-16637217D02*
X21079961Y-16732455D01*
X21079961Y-16732455D02*
X21032342Y-16780074D01*
X21032342Y-16780074D02*
X20937104Y-16827693D01*
X20937104Y-16827693D02*
X20841866Y-16827693D01*
X20841866Y-16827693D02*
X20746628Y-16780074D01*
X20746628Y-16780074D02*
X20699009Y-16732455D01*
X20699009Y-16732455D02*
X20651390Y-16637217D01*
X20651390Y-16637217D02*
X20651390Y-16303884D01*
X21127580Y-17494360D02*
X21127580Y-17684836D01*
X21127580Y-17684836D02*
X21079961Y-17780074D01*
X21079961Y-17780074D02*
X20984723Y-17875312D01*
X20984723Y-17875312D02*
X20794247Y-17922931D01*
X20794247Y-17922931D02*
X20460914Y-17922931D01*
X20460914Y-17922931D02*
X20270438Y-17875312D01*
X20270438Y-17875312D02*
X20175200Y-17780074D01*
X20175200Y-17780074D02*
X20127580Y-17684836D01*
X20127580Y-17684836D02*
X20127580Y-17494360D01*
X20127580Y-17494360D02*
X20175200Y-17399122D01*
X20175200Y-17399122D02*
X20270438Y-17303884D01*
X20270438Y-17303884D02*
X20460914Y-17256265D01*
X20460914Y-17256265D02*
X20794247Y-17256265D01*
X20794247Y-17256265D02*
X20984723Y-17303884D01*
X20984723Y-17303884D02*
X21079961Y-17399122D01*
X21079961Y-17399122D02*
X21127580Y-17494360D01*
X21127580Y-18541979D02*
X21127580Y-18732455D01*
X21127580Y-18732455D02*
X21079961Y-18827693D01*
X21079961Y-18827693D02*
X20984723Y-18922931D01*
X20984723Y-18922931D02*
X20794247Y-18970550D01*
X20794247Y-18970550D02*
X20460914Y-18970550D01*
X20460914Y-18970550D02*
X20270438Y-18922931D01*
X20270438Y-18922931D02*
X20175200Y-18827693D01*
X20175200Y-18827693D02*
X20127580Y-18732455D01*
X20127580Y-18732455D02*
X20127580Y-18541979D01*
X20127580Y-18541979D02*
X20175200Y-18446741D01*
X20175200Y-18446741D02*
X20270438Y-18351503D01*
X20270438Y-18351503D02*
X20460914Y-18303884D01*
X20460914Y-18303884D02*
X20794247Y-18303884D01*
X20794247Y-18303884D02*
X20984723Y-18351503D01*
X20984723Y-18351503D02*
X21079961Y-18446741D01*
X21079961Y-18446741D02*
X21127580Y-18541979D01*
X20175200Y-19351503D02*
X20127580Y-19494360D01*
X20127580Y-19494360D02*
X20127580Y-19732455D01*
X20127580Y-19732455D02*
X20175200Y-19827693D01*
X20175200Y-19827693D02*
X20222819Y-19875312D01*
X20222819Y-19875312D02*
X20318057Y-19922931D01*
X20318057Y-19922931D02*
X20413295Y-19922931D01*
X20413295Y-19922931D02*
X20508533Y-19875312D01*
X20508533Y-19875312D02*
X20556152Y-19827693D01*
X20556152Y-19827693D02*
X20603771Y-19732455D01*
X20603771Y-19732455D02*
X20651390Y-19541979D01*
X20651390Y-19541979D02*
X20699009Y-19446741D01*
X20699009Y-19446741D02*
X20746628Y-19399122D01*
X20746628Y-19399122D02*
X20841866Y-19351503D01*
X20841866Y-19351503D02*
X20937104Y-19351503D01*
X20937104Y-19351503D02*
X21032342Y-19399122D01*
X21032342Y-19399122D02*
X21079961Y-19446741D01*
X21079961Y-19446741D02*
X21127580Y-19541979D01*
X21127580Y-19541979D02*
X21127580Y-19780074D01*
X21127580Y-19780074D02*
X21079961Y-19922931D01*
X21127580Y-20208646D02*
X21127580Y-20780074D01*
X20127580Y-20494360D02*
X21127580Y-20494360D01*
X20651390Y-21113408D02*
X20651390Y-21446741D01*
X20127580Y-21589598D02*
X20127580Y-21113408D01*
X20127580Y-21113408D02*
X21127580Y-21113408D01*
X21127580Y-21113408D02*
X21127580Y-21589598D01*
X20127580Y-22589598D02*
X20603771Y-22256265D01*
X20127580Y-22018170D02*
X21127580Y-22018170D01*
X21127580Y-22018170D02*
X21127580Y-22399122D01*
X21127580Y-22399122D02*
X21079961Y-22494360D01*
X21079961Y-22494360D02*
X21032342Y-22541979D01*
X21032342Y-22541979D02*
X20937104Y-22589598D01*
X20937104Y-22589598D02*
X20794247Y-22589598D01*
X20794247Y-22589598D02*
X20699009Y-22541979D01*
X20699009Y-22541979D02*
X20651390Y-22494360D01*
X20651390Y-22494360D02*
X20603771Y-22399122D01*
X20603771Y-22399122D02*
X20603771Y-22018170D01*
X20127580Y-23780075D02*
X21127580Y-23780075D01*
X21127580Y-23780075D02*
X21127580Y-24018170D01*
X21127580Y-24018170D02*
X21079961Y-24161027D01*
X21079961Y-24161027D02*
X20984723Y-24256265D01*
X20984723Y-24256265D02*
X20889485Y-24303884D01*
X20889485Y-24303884D02*
X20699009Y-24351503D01*
X20699009Y-24351503D02*
X20556152Y-24351503D01*
X20556152Y-24351503D02*
X20365676Y-24303884D01*
X20365676Y-24303884D02*
X20270438Y-24256265D01*
X20270438Y-24256265D02*
X20175200Y-24161027D01*
X20175200Y-24161027D02*
X20127580Y-24018170D01*
X20127580Y-24018170D02*
X20127580Y-23780075D01*
X20127580Y-25351503D02*
X20603771Y-25018170D01*
X20127580Y-24780075D02*
X21127580Y-24780075D01*
X21127580Y-24780075D02*
X21127580Y-25161027D01*
X21127580Y-25161027D02*
X21079961Y-25256265D01*
X21079961Y-25256265D02*
X21032342Y-25303884D01*
X21032342Y-25303884D02*
X20937104Y-25351503D01*
X20937104Y-25351503D02*
X20794247Y-25351503D01*
X20794247Y-25351503D02*
X20699009Y-25303884D01*
X20699009Y-25303884D02*
X20651390Y-25256265D01*
X20651390Y-25256265D02*
X20603771Y-25161027D01*
X20603771Y-25161027D02*
X20603771Y-24780075D01*
X20127580Y-25780075D02*
X21127580Y-25780075D01*
X21127580Y-26113408D02*
X20127580Y-26446741D01*
X20127580Y-26446741D02*
X21127580Y-26780074D01*
X20651390Y-27113408D02*
X20651390Y-27446741D01*
X20127580Y-27589598D02*
X20127580Y-27113408D01*
X20127580Y-27113408D02*
X21127580Y-27113408D01*
X21127580Y-27113408D02*
X21127580Y-27589598D01*
X20127580Y-28589598D02*
X20603771Y-28256265D01*
X20127580Y-28018170D02*
X21127580Y-28018170D01*
X21127580Y-28018170D02*
X21127580Y-28399122D01*
X21127580Y-28399122D02*
X21079961Y-28494360D01*
X21079961Y-28494360D02*
X21032342Y-28541979D01*
X21032342Y-28541979D02*
X20937104Y-28589598D01*
X20937104Y-28589598D02*
X20794247Y-28589598D01*
X20794247Y-28589598D02*
X20699009Y-28541979D01*
X20699009Y-28541979D02*
X20651390Y-28494360D01*
X20651390Y-28494360D02*
X20603771Y-28399122D01*
X20603771Y-28399122D02*
X20603771Y-28018170D01*
X21127580Y-29637218D02*
X20127580Y-29970551D01*
X20127580Y-29970551D02*
X21127580Y-30303884D01*
X21127580Y-30541980D02*
X21127580Y-31161027D01*
X21127580Y-31161027D02*
X20746628Y-30827694D01*
X20746628Y-30827694D02*
X20746628Y-30970551D01*
X20746628Y-30970551D02*
X20699009Y-31065789D01*
X20699009Y-31065789D02*
X20651390Y-31113408D01*
X20651390Y-31113408D02*
X20556152Y-31161027D01*
X20556152Y-31161027D02*
X20318057Y-31161027D01*
X20318057Y-31161027D02*
X20222819Y-31113408D01*
X20222819Y-31113408D02*
X20175200Y-31065789D01*
X20175200Y-31065789D02*
X20127580Y-30970551D01*
X20127580Y-30970551D02*
X20127580Y-30684837D01*
X20127580Y-30684837D02*
X20175200Y-30589599D01*
X20175200Y-30589599D02*
X20222819Y-30541980D01*
X29327693Y-16170038D02*
X29232455Y-16122419D01*
X29232455Y-16122419D02*
X29089598Y-16122419D01*
X29089598Y-16122419D02*
X28946741Y-16170038D01*
X28946741Y-16170038D02*
X28851503Y-16265276D01*
X28851503Y-16265276D02*
X28803884Y-16360514D01*
X28803884Y-16360514D02*
X28756265Y-16550990D01*
X28756265Y-16550990D02*
X28756265Y-16693847D01*
X28756265Y-16693847D02*
X28803884Y-16884323D01*
X28803884Y-16884323D02*
X28851503Y-16979561D01*
X28851503Y-16979561D02*
X28946741Y-17074800D01*
X28946741Y-17074800D02*
X29089598Y-17122419D01*
X29089598Y-17122419D02*
X29184836Y-17122419D01*
X29184836Y-17122419D02*
X29327693Y-17074800D01*
X29327693Y-17074800D02*
X29375312Y-17027180D01*
X29375312Y-17027180D02*
X29375312Y-16693847D01*
X29375312Y-16693847D02*
X29184836Y-16693847D01*
X29803884Y-17122419D02*
X29803884Y-16122419D01*
X29803884Y-16122419D02*
X30041979Y-16122419D01*
X30041979Y-16122419D02*
X30184836Y-16170038D01*
X30184836Y-16170038D02*
X30280074Y-16265276D01*
X30280074Y-16265276D02*
X30327693Y-16360514D01*
X30327693Y-16360514D02*
X30375312Y-16550990D01*
X30375312Y-16550990D02*
X30375312Y-16693847D01*
X30375312Y-16693847D02*
X30327693Y-16884323D01*
X30327693Y-16884323D02*
X30280074Y-16979561D01*
X30280074Y-16979561D02*
X30184836Y-17074800D01*
X30184836Y-17074800D02*
X30041979Y-17122419D01*
X30041979Y-17122419D02*
X29803884Y-17122419D01*
X30661027Y-16122419D02*
X31232455Y-16122419D01*
X30946741Y-17122419D02*
X30946741Y-16122419D01*
X32089598Y-17122419D02*
X31518170Y-17122419D01*
X31803884Y-17122419D02*
X31803884Y-16122419D01*
X31803884Y-16122419D02*
X31708646Y-16265276D01*
X31708646Y-16265276D02*
X31613408Y-16360514D01*
X31613408Y-16360514D02*
X31518170Y-16408133D01*
X60387217Y-73598609D02*
X60053884Y-73598609D01*
X60053884Y-74122419D02*
X60053884Y-73122419D01*
X60053884Y-73122419D02*
X60530074Y-73122419D01*
X60863408Y-73836704D02*
X61339598Y-73836704D01*
X60768170Y-74122419D02*
X61101503Y-73122419D01*
X61101503Y-73122419D02*
X61434836Y-74122419D01*
X61768170Y-74122419D02*
X61768170Y-73122419D01*
X61768170Y-73122419D02*
X62339598Y-74122419D01*
X62339598Y-74122419D02*
X62339598Y-73122419D01*
X44303884Y-25372419D02*
X44303884Y-24372419D01*
X44303884Y-24372419D02*
X44684836Y-24372419D01*
X44684836Y-24372419D02*
X44780074Y-24420038D01*
X44780074Y-24420038D02*
X44827693Y-24467657D01*
X44827693Y-24467657D02*
X44875312Y-24562895D01*
X44875312Y-24562895D02*
X44875312Y-24705752D01*
X44875312Y-24705752D02*
X44827693Y-24800990D01*
X44827693Y-24800990D02*
X44780074Y-24848609D01*
X44780074Y-24848609D02*
X44684836Y-24896228D01*
X44684836Y-24896228D02*
X44303884Y-24896228D01*
X45637217Y-24848609D02*
X45303884Y-24848609D01*
X45303884Y-25372419D02*
X45303884Y-24372419D01*
X45303884Y-24372419D02*
X45780074Y-24372419D01*
X46732455Y-25277180D02*
X46684836Y-25324800D01*
X46684836Y-25324800D02*
X46541979Y-25372419D01*
X46541979Y-25372419D02*
X46446741Y-25372419D01*
X46446741Y-25372419D02*
X46303884Y-25324800D01*
X46303884Y-25324800D02*
X46208646Y-25229561D01*
X46208646Y-25229561D02*
X46161027Y-25134323D01*
X46161027Y-25134323D02*
X46113408Y-24943847D01*
X46113408Y-24943847D02*
X46113408Y-24800990D01*
X46113408Y-24800990D02*
X46161027Y-24610514D01*
X46161027Y-24610514D02*
X46208646Y-24515276D01*
X46208646Y-24515276D02*
X46303884Y-24420038D01*
X46303884Y-24420038D02*
X46446741Y-24372419D01*
X46446741Y-24372419D02*
X46541979Y-24372419D01*
X46541979Y-24372419D02*
X46684836Y-24420038D01*
X46684836Y-24420038D02*
X46732455Y-24467657D01*
X56707419Y-64309523D02*
X57421704Y-64309523D01*
X57421704Y-64309523D02*
X57564561Y-64357142D01*
X57564561Y-64357142D02*
X57659800Y-64452380D01*
X57659800Y-64452380D02*
X57707419Y-64595237D01*
X57707419Y-64595237D02*
X57707419Y-64690475D01*
X57707419Y-63309523D02*
X57707419Y-63880951D01*
X57707419Y-63595237D02*
X56707419Y-63595237D01*
X56707419Y-63595237D02*
X56850276Y-63690475D01*
X56850276Y-63690475D02*
X56945514Y-63785713D01*
X56945514Y-63785713D02*
X56993133Y-63880951D01*
X57707419Y-62357142D02*
X57707419Y-62928570D01*
X57707419Y-62642856D02*
X56707419Y-62642856D01*
X56707419Y-62642856D02*
X56850276Y-62738094D01*
X56850276Y-62738094D02*
X56945514Y-62833332D01*
X56945514Y-62833332D02*
X56993133Y-62928570D01*
X22666667Y-86209800D02*
X22809524Y-86257419D01*
X22809524Y-86257419D02*
X23047619Y-86257419D01*
X23047619Y-86257419D02*
X23142857Y-86209800D01*
X23142857Y-86209800D02*
X23190476Y-86162180D01*
X23190476Y-86162180D02*
X23238095Y-86066942D01*
X23238095Y-86066942D02*
X23238095Y-85971704D01*
X23238095Y-85971704D02*
X23190476Y-85876466D01*
X23190476Y-85876466D02*
X23142857Y-85828847D01*
X23142857Y-85828847D02*
X23047619Y-85781228D01*
X23047619Y-85781228D02*
X22857143Y-85733609D01*
X22857143Y-85733609D02*
X22761905Y-85685990D01*
X22761905Y-85685990D02*
X22714286Y-85638371D01*
X22714286Y-85638371D02*
X22666667Y-85543133D01*
X22666667Y-85543133D02*
X22666667Y-85447895D01*
X22666667Y-85447895D02*
X22714286Y-85352657D01*
X22714286Y-85352657D02*
X22761905Y-85305038D01*
X22761905Y-85305038D02*
X22857143Y-85257419D01*
X22857143Y-85257419D02*
X23095238Y-85257419D01*
X23095238Y-85257419D02*
X23238095Y-85305038D01*
X23571429Y-85257419D02*
X23809524Y-86257419D01*
X23809524Y-86257419D02*
X24000000Y-85543133D01*
X24000000Y-85543133D02*
X24190476Y-86257419D01*
X24190476Y-86257419D02*
X24428572Y-85257419D01*
X25333333Y-86257419D02*
X24761905Y-86257419D01*
X25047619Y-86257419D02*
X25047619Y-85257419D01*
X25047619Y-85257419D02*
X24952381Y-85400276D01*
X24952381Y-85400276D02*
X24857143Y-85495514D01*
X24857143Y-85495514D02*
X24761905Y-85543133D01*
X32938095Y-85539919D02*
X32938095Y-86349442D01*
X32938095Y-86349442D02*
X32985714Y-86444680D01*
X32985714Y-86444680D02*
X33033333Y-86492300D01*
X33033333Y-86492300D02*
X33128571Y-86539919D01*
X33128571Y-86539919D02*
X33319047Y-86539919D01*
X33319047Y-86539919D02*
X33414285Y-86492300D01*
X33414285Y-86492300D02*
X33461904Y-86444680D01*
X33461904Y-86444680D02*
X33509523Y-86349442D01*
X33509523Y-86349442D02*
X33509523Y-85539919D01*
X33890476Y-85539919D02*
X34509523Y-85539919D01*
X34509523Y-85539919D02*
X34176190Y-85920871D01*
X34176190Y-85920871D02*
X34319047Y-85920871D01*
X34319047Y-85920871D02*
X34414285Y-85968490D01*
X34414285Y-85968490D02*
X34461904Y-86016109D01*
X34461904Y-86016109D02*
X34509523Y-86111347D01*
X34509523Y-86111347D02*
X34509523Y-86349442D01*
X34509523Y-86349442D02*
X34461904Y-86444680D01*
X34461904Y-86444680D02*
X34414285Y-86492300D01*
X34414285Y-86492300D02*
X34319047Y-86539919D01*
X34319047Y-86539919D02*
X34033333Y-86539919D01*
X34033333Y-86539919D02*
X33938095Y-86492300D01*
X33938095Y-86492300D02*
X33890476Y-86444680D01*
X60166666Y-50687419D02*
X60166666Y-51401704D01*
X60166666Y-51401704D02*
X60119047Y-51544561D01*
X60119047Y-51544561D02*
X60023809Y-51639800D01*
X60023809Y-51639800D02*
X59880952Y-51687419D01*
X59880952Y-51687419D02*
X59785714Y-51687419D01*
X61119047Y-50687419D02*
X60642857Y-50687419D01*
X60642857Y-50687419D02*
X60595238Y-51163609D01*
X60595238Y-51163609D02*
X60642857Y-51115990D01*
X60642857Y-51115990D02*
X60738095Y-51068371D01*
X60738095Y-51068371D02*
X60976190Y-51068371D01*
X60976190Y-51068371D02*
X61071428Y-51115990D01*
X61071428Y-51115990D02*
X61119047Y-51163609D01*
X61119047Y-51163609D02*
X61166666Y-51258847D01*
X61166666Y-51258847D02*
X61166666Y-51496942D01*
X61166666Y-51496942D02*
X61119047Y-51592180D01*
X61119047Y-51592180D02*
X61071428Y-51639800D01*
X61071428Y-51639800D02*
X60976190Y-51687419D01*
X60976190Y-51687419D02*
X60738095Y-51687419D01*
X60738095Y-51687419D02*
X60642857Y-51639800D01*
X60642857Y-51639800D02*
X60595238Y-51592180D01*
X53838095Y-85757419D02*
X53838095Y-86566942D01*
X53838095Y-86566942D02*
X53885714Y-86662180D01*
X53885714Y-86662180D02*
X53933333Y-86709800D01*
X53933333Y-86709800D02*
X54028571Y-86757419D01*
X54028571Y-86757419D02*
X54219047Y-86757419D01*
X54219047Y-86757419D02*
X54314285Y-86709800D01*
X54314285Y-86709800D02*
X54361904Y-86662180D01*
X54361904Y-86662180D02*
X54409523Y-86566942D01*
X54409523Y-86566942D02*
X54409523Y-85757419D01*
X54838095Y-85852657D02*
X54885714Y-85805038D01*
X54885714Y-85805038D02*
X54980952Y-85757419D01*
X54980952Y-85757419D02*
X55219047Y-85757419D01*
X55219047Y-85757419D02*
X55314285Y-85805038D01*
X55314285Y-85805038D02*
X55361904Y-85852657D01*
X55361904Y-85852657D02*
X55409523Y-85947895D01*
X55409523Y-85947895D02*
X55409523Y-86043133D01*
X55409523Y-86043133D02*
X55361904Y-86185990D01*
X55361904Y-86185990D02*
X54790476Y-86757419D01*
X54790476Y-86757419D02*
X55409523Y-86757419D01*
D11*
X30166666Y-18454819D02*
X30166666Y-19169104D01*
X30166666Y-19169104D02*
X30119047Y-19311961D01*
X30119047Y-19311961D02*
X30023809Y-19407200D01*
X30023809Y-19407200D02*
X29880952Y-19454819D01*
X29880952Y-19454819D02*
X29785714Y-19454819D01*
X30690476Y-19454819D02*
X30880952Y-19454819D01*
X30880952Y-19454819D02*
X30976190Y-19407200D01*
X30976190Y-19407200D02*
X31023809Y-19359580D01*
X31023809Y-19359580D02*
X31119047Y-19216723D01*
X31119047Y-19216723D02*
X31166666Y-19026247D01*
X31166666Y-19026247D02*
X31166666Y-18645295D01*
X31166666Y-18645295D02*
X31119047Y-18550057D01*
X31119047Y-18550057D02*
X31071428Y-18502438D01*
X31071428Y-18502438D02*
X30976190Y-18454819D01*
X30976190Y-18454819D02*
X30785714Y-18454819D01*
X30785714Y-18454819D02*
X30690476Y-18502438D01*
X30690476Y-18502438D02*
X30642857Y-18550057D01*
X30642857Y-18550057D02*
X30595238Y-18645295D01*
X30595238Y-18645295D02*
X30595238Y-18883390D01*
X30595238Y-18883390D02*
X30642857Y-18978628D01*
X30642857Y-18978628D02*
X30690476Y-19026247D01*
X30690476Y-19026247D02*
X30785714Y-19073866D01*
X30785714Y-19073866D02*
X30976190Y-19073866D01*
X30976190Y-19073866D02*
X31071428Y-19026247D01*
X31071428Y-19026247D02*
X31119047Y-18978628D01*
X31119047Y-18978628D02*
X31166666Y-18883390D01*
D12*
X22049999Y-27250926D02*
X22016666Y-27284260D01*
X22016666Y-27284260D02*
X21916666Y-27317593D01*
X21916666Y-27317593D02*
X21849999Y-27317593D01*
X21849999Y-27317593D02*
X21749999Y-27284260D01*
X21749999Y-27284260D02*
X21683333Y-27217593D01*
X21683333Y-27217593D02*
X21649999Y-27150926D01*
X21649999Y-27150926D02*
X21616666Y-27017593D01*
X21616666Y-27017593D02*
X21616666Y-26917593D01*
X21616666Y-26917593D02*
X21649999Y-26784260D01*
X21649999Y-26784260D02*
X21683333Y-26717593D01*
X21683333Y-26717593D02*
X21749999Y-26650926D01*
X21749999Y-26650926D02*
X21849999Y-26617593D01*
X21849999Y-26617593D02*
X21916666Y-26617593D01*
X21916666Y-26617593D02*
X22016666Y-26650926D01*
X22016666Y-26650926D02*
X22049999Y-26684260D01*
X22649999Y-26617593D02*
X22516666Y-26617593D01*
X22516666Y-26617593D02*
X22449999Y-26650926D01*
X22449999Y-26650926D02*
X22416666Y-26684260D01*
X22416666Y-26684260D02*
X22349999Y-26784260D01*
X22349999Y-26784260D02*
X22316666Y-26917593D01*
X22316666Y-26917593D02*
X22316666Y-27184260D01*
X22316666Y-27184260D02*
X22349999Y-27250926D01*
X22349999Y-27250926D02*
X22383333Y-27284260D01*
X22383333Y-27284260D02*
X22449999Y-27317593D01*
X22449999Y-27317593D02*
X22583333Y-27317593D01*
X22583333Y-27317593D02*
X22649999Y-27284260D01*
X22649999Y-27284260D02*
X22683333Y-27250926D01*
X22683333Y-27250926D02*
X22716666Y-27184260D01*
X22716666Y-27184260D02*
X22716666Y-27017593D01*
X22716666Y-27017593D02*
X22683333Y-26950926D01*
X22683333Y-26950926D02*
X22649999Y-26917593D01*
X22649999Y-26917593D02*
X22583333Y-26884260D01*
X22583333Y-26884260D02*
X22449999Y-26884260D01*
X22449999Y-26884260D02*
X22383333Y-26917593D01*
X22383333Y-26917593D02*
X22349999Y-26950926D01*
X22349999Y-26950926D02*
X22316666Y-27017593D01*
X23150000Y-26617593D02*
X23216666Y-26617593D01*
X23216666Y-26617593D02*
X23283333Y-26650926D01*
X23283333Y-26650926D02*
X23316666Y-26684260D01*
X23316666Y-26684260D02*
X23350000Y-26750926D01*
X23350000Y-26750926D02*
X23383333Y-26884260D01*
X23383333Y-26884260D02*
X23383333Y-27050926D01*
X23383333Y-27050926D02*
X23350000Y-27184260D01*
X23350000Y-27184260D02*
X23316666Y-27250926D01*
X23316666Y-27250926D02*
X23283333Y-27284260D01*
X23283333Y-27284260D02*
X23216666Y-27317593D01*
X23216666Y-27317593D02*
X23150000Y-27317593D01*
X23150000Y-27317593D02*
X23083333Y-27284260D01*
X23083333Y-27284260D02*
X23050000Y-27250926D01*
X23050000Y-27250926D02*
X23016666Y-27184260D01*
X23016666Y-27184260D02*
X22983333Y-27050926D01*
X22983333Y-27050926D02*
X22983333Y-26884260D01*
X22983333Y-26884260D02*
X23016666Y-26750926D01*
X23016666Y-26750926D02*
X23050000Y-26684260D01*
X23050000Y-26684260D02*
X23083333Y-26650926D01*
X23083333Y-26650926D02*
X23150000Y-26617593D01*
D13*
X33650000Y-48334885D02*
X33650000Y-48549171D01*
X33650000Y-48549171D02*
X33635715Y-48592028D01*
X33635715Y-48592028D02*
X33607143Y-48620600D01*
X33607143Y-48620600D02*
X33564286Y-48634885D01*
X33564286Y-48634885D02*
X33535715Y-48634885D01*
X33950000Y-48634885D02*
X33778571Y-48634885D01*
X33864286Y-48634885D02*
X33864286Y-48334885D01*
X33864286Y-48334885D02*
X33835714Y-48377742D01*
X33835714Y-48377742D02*
X33807143Y-48406314D01*
X33807143Y-48406314D02*
X33778571Y-48420600D01*
D12*
X32049999Y-27250926D02*
X32016666Y-27284260D01*
X32016666Y-27284260D02*
X31916666Y-27317593D01*
X31916666Y-27317593D02*
X31849999Y-27317593D01*
X31849999Y-27317593D02*
X31749999Y-27284260D01*
X31749999Y-27284260D02*
X31683333Y-27217593D01*
X31683333Y-27217593D02*
X31649999Y-27150926D01*
X31649999Y-27150926D02*
X31616666Y-27017593D01*
X31616666Y-27017593D02*
X31616666Y-26917593D01*
X31616666Y-26917593D02*
X31649999Y-26784260D01*
X31649999Y-26784260D02*
X31683333Y-26717593D01*
X31683333Y-26717593D02*
X31749999Y-26650926D01*
X31749999Y-26650926D02*
X31849999Y-26617593D01*
X31849999Y-26617593D02*
X31916666Y-26617593D01*
X31916666Y-26617593D02*
X32016666Y-26650926D01*
X32016666Y-26650926D02*
X32049999Y-26684260D01*
X32649999Y-26617593D02*
X32516666Y-26617593D01*
X32516666Y-26617593D02*
X32449999Y-26650926D01*
X32449999Y-26650926D02*
X32416666Y-26684260D01*
X32416666Y-26684260D02*
X32349999Y-26784260D01*
X32349999Y-26784260D02*
X32316666Y-26917593D01*
X32316666Y-26917593D02*
X32316666Y-27184260D01*
X32316666Y-27184260D02*
X32349999Y-27250926D01*
X32349999Y-27250926D02*
X32383333Y-27284260D01*
X32383333Y-27284260D02*
X32449999Y-27317593D01*
X32449999Y-27317593D02*
X32583333Y-27317593D01*
X32583333Y-27317593D02*
X32649999Y-27284260D01*
X32649999Y-27284260D02*
X32683333Y-27250926D01*
X32683333Y-27250926D02*
X32716666Y-27184260D01*
X32716666Y-27184260D02*
X32716666Y-27017593D01*
X32716666Y-27017593D02*
X32683333Y-26950926D01*
X32683333Y-26950926D02*
X32649999Y-26917593D01*
X32649999Y-26917593D02*
X32583333Y-26884260D01*
X32583333Y-26884260D02*
X32449999Y-26884260D01*
X32449999Y-26884260D02*
X32383333Y-26917593D01*
X32383333Y-26917593D02*
X32349999Y-26950926D01*
X32349999Y-26950926D02*
X32316666Y-27017593D01*
X33383333Y-27317593D02*
X32983333Y-27317593D01*
X33183333Y-27317593D02*
X33183333Y-26617593D01*
X33183333Y-26617593D02*
X33116666Y-26717593D01*
X33116666Y-26717593D02*
X33050000Y-26784260D01*
X33050000Y-26784260D02*
X32983333Y-26817593D01*
D11*
X35238095Y-57454819D02*
X35238095Y-58264342D01*
X35238095Y-58264342D02*
X35285714Y-58359580D01*
X35285714Y-58359580D02*
X35333333Y-58407200D01*
X35333333Y-58407200D02*
X35428571Y-58454819D01*
X35428571Y-58454819D02*
X35619047Y-58454819D01*
X35619047Y-58454819D02*
X35714285Y-58407200D01*
X35714285Y-58407200D02*
X35761904Y-58359580D01*
X35761904Y-58359580D02*
X35809523Y-58264342D01*
X35809523Y-58264342D02*
X35809523Y-57454819D01*
X36761904Y-57454819D02*
X36285714Y-57454819D01*
X36285714Y-57454819D02*
X36238095Y-57931009D01*
X36238095Y-57931009D02*
X36285714Y-57883390D01*
X36285714Y-57883390D02*
X36380952Y-57835771D01*
X36380952Y-57835771D02*
X36619047Y-57835771D01*
X36619047Y-57835771D02*
X36714285Y-57883390D01*
X36714285Y-57883390D02*
X36761904Y-57931009D01*
X36761904Y-57931009D02*
X36809523Y-58026247D01*
X36809523Y-58026247D02*
X36809523Y-58264342D01*
X36809523Y-58264342D02*
X36761904Y-58359580D01*
X36761904Y-58359580D02*
X36714285Y-58407200D01*
X36714285Y-58407200D02*
X36619047Y-58454819D01*
X36619047Y-58454819D02*
X36380952Y-58454819D01*
X36380952Y-58454819D02*
X36285714Y-58407200D01*
X36285714Y-58407200D02*
X36238095Y-58359580D01*
D14*
X49183571Y-41453365D02*
X49123095Y-41513842D01*
X49123095Y-41513842D02*
X48941666Y-41574318D01*
X48941666Y-41574318D02*
X48820714Y-41574318D01*
X48820714Y-41574318D02*
X48639285Y-41513842D01*
X48639285Y-41513842D02*
X48518333Y-41392889D01*
X48518333Y-41392889D02*
X48457856Y-41271937D01*
X48457856Y-41271937D02*
X48397380Y-41030032D01*
X48397380Y-41030032D02*
X48397380Y-40848603D01*
X48397380Y-40848603D02*
X48457856Y-40606699D01*
X48457856Y-40606699D02*
X48518333Y-40485746D01*
X48518333Y-40485746D02*
X48639285Y-40364794D01*
X48639285Y-40364794D02*
X48820714Y-40304318D01*
X48820714Y-40304318D02*
X48941666Y-40304318D01*
X48941666Y-40304318D02*
X49123095Y-40364794D01*
X49123095Y-40364794D02*
X49183571Y-40425270D01*
X49667380Y-40425270D02*
X49727856Y-40364794D01*
X49727856Y-40364794D02*
X49848809Y-40304318D01*
X49848809Y-40304318D02*
X50151190Y-40304318D01*
X50151190Y-40304318D02*
X50272142Y-40364794D01*
X50272142Y-40364794D02*
X50332618Y-40425270D01*
X50332618Y-40425270D02*
X50393095Y-40546222D01*
X50393095Y-40546222D02*
X50393095Y-40667175D01*
X50393095Y-40667175D02*
X50332618Y-40848603D01*
X50332618Y-40848603D02*
X49606904Y-41574318D01*
X49606904Y-41574318D02*
X50393095Y-41574318D01*
X50997857Y-41574318D02*
X51239761Y-41574318D01*
X51239761Y-41574318D02*
X51360714Y-41513842D01*
X51360714Y-41513842D02*
X51421190Y-41453365D01*
X51421190Y-41453365D02*
X51542142Y-41271937D01*
X51542142Y-41271937D02*
X51602619Y-41030032D01*
X51602619Y-41030032D02*
X51602619Y-40546222D01*
X51602619Y-40546222D02*
X51542142Y-40425270D01*
X51542142Y-40425270D02*
X51481666Y-40364794D01*
X51481666Y-40364794D02*
X51360714Y-40304318D01*
X51360714Y-40304318D02*
X51118809Y-40304318D01*
X51118809Y-40304318D02*
X50997857Y-40364794D01*
X50997857Y-40364794D02*
X50937380Y-40425270D01*
X50937380Y-40425270D02*
X50876904Y-40546222D01*
X50876904Y-40546222D02*
X50876904Y-40848603D01*
X50876904Y-40848603D02*
X50937380Y-40969556D01*
X50937380Y-40969556D02*
X50997857Y-41030032D01*
X50997857Y-41030032D02*
X51118809Y-41090508D01*
X51118809Y-41090508D02*
X51360714Y-41090508D01*
X51360714Y-41090508D02*
X51481666Y-41030032D01*
X51481666Y-41030032D02*
X51542142Y-40969556D01*
X51542142Y-40969556D02*
X51602619Y-40848603D01*
D10*
X51739800Y-43327068D02*
X51739800Y-42184211D01*
X52311228Y-42755639D02*
X51168371Y-42755639D01*
D11*
X23416666Y-18454819D02*
X23416666Y-19169104D01*
X23416666Y-19169104D02*
X23369047Y-19311961D01*
X23369047Y-19311961D02*
X23273809Y-19407200D01*
X23273809Y-19407200D02*
X23130952Y-19454819D01*
X23130952Y-19454819D02*
X23035714Y-19454819D01*
X23797619Y-18454819D02*
X24416666Y-18454819D01*
X24416666Y-18454819D02*
X24083333Y-18835771D01*
X24083333Y-18835771D02*
X24226190Y-18835771D01*
X24226190Y-18835771D02*
X24321428Y-18883390D01*
X24321428Y-18883390D02*
X24369047Y-18931009D01*
X24369047Y-18931009D02*
X24416666Y-19026247D01*
X24416666Y-19026247D02*
X24416666Y-19264342D01*
X24416666Y-19264342D02*
X24369047Y-19359580D01*
X24369047Y-19359580D02*
X24321428Y-19407200D01*
X24321428Y-19407200D02*
X24226190Y-19454819D01*
X24226190Y-19454819D02*
X23940476Y-19454819D01*
X23940476Y-19454819D02*
X23845238Y-19407200D01*
X23845238Y-19407200D02*
X23797619Y-19359580D01*
D10*
X60166666Y-28707419D02*
X60166666Y-29421704D01*
X60166666Y-29421704D02*
X60119047Y-29564561D01*
X60119047Y-29564561D02*
X60023809Y-29659800D01*
X60023809Y-29659800D02*
X59880952Y-29707419D01*
X59880952Y-29707419D02*
X59785714Y-29707419D01*
X60547619Y-28707419D02*
X61214285Y-28707419D01*
X61214285Y-28707419D02*
X60785714Y-29707419D01*
D11*
X60204819Y-21333333D02*
X60919104Y-21333333D01*
X60919104Y-21333333D02*
X61061961Y-21380952D01*
X61061961Y-21380952D02*
X61157200Y-21476190D01*
X61157200Y-21476190D02*
X61204819Y-21619047D01*
X61204819Y-21619047D02*
X61204819Y-21714285D01*
X60300057Y-20904761D02*
X60252438Y-20857142D01*
X60252438Y-20857142D02*
X60204819Y-20761904D01*
X60204819Y-20761904D02*
X60204819Y-20523809D01*
X60204819Y-20523809D02*
X60252438Y-20428571D01*
X60252438Y-20428571D02*
X60300057Y-20380952D01*
X60300057Y-20380952D02*
X60395295Y-20333333D01*
X60395295Y-20333333D02*
X60490533Y-20333333D01*
X60490533Y-20333333D02*
X60633390Y-20380952D01*
X60633390Y-20380952D02*
X61204819Y-20952380D01*
X61204819Y-20952380D02*
X61204819Y-20333333D01*
D10*
X60166666Y-39687419D02*
X60166666Y-40401704D01*
X60166666Y-40401704D02*
X60119047Y-40544561D01*
X60119047Y-40544561D02*
X60023809Y-40639800D01*
X60023809Y-40639800D02*
X59880952Y-40687419D01*
X59880952Y-40687419D02*
X59785714Y-40687419D01*
X61071428Y-39687419D02*
X60880952Y-39687419D01*
X60880952Y-39687419D02*
X60785714Y-39735038D01*
X60785714Y-39735038D02*
X60738095Y-39782657D01*
X60738095Y-39782657D02*
X60642857Y-39925514D01*
X60642857Y-39925514D02*
X60595238Y-40115990D01*
X60595238Y-40115990D02*
X60595238Y-40496942D01*
X60595238Y-40496942D02*
X60642857Y-40592180D01*
X60642857Y-40592180D02*
X60690476Y-40639800D01*
X60690476Y-40639800D02*
X60785714Y-40687419D01*
X60785714Y-40687419D02*
X60976190Y-40687419D01*
X60976190Y-40687419D02*
X61071428Y-40639800D01*
X61071428Y-40639800D02*
X61119047Y-40592180D01*
X61119047Y-40592180D02*
X61166666Y-40496942D01*
X61166666Y-40496942D02*
X61166666Y-40258847D01*
X61166666Y-40258847D02*
X61119047Y-40163609D01*
X61119047Y-40163609D02*
X61071428Y-40115990D01*
X61071428Y-40115990D02*
X60976190Y-40068371D01*
X60976190Y-40068371D02*
X60785714Y-40068371D01*
X60785714Y-40068371D02*
X60690476Y-40115990D01*
X60690476Y-40115990D02*
X60642857Y-40163609D01*
X60642857Y-40163609D02*
X60595238Y-40258847D01*
D11*
X61285714Y-85954819D02*
X61285714Y-84954819D01*
X61285714Y-84954819D02*
X61523809Y-84954819D01*
X61523809Y-84954819D02*
X61666666Y-85002438D01*
X61666666Y-85002438D02*
X61761904Y-85097676D01*
X61761904Y-85097676D02*
X61809523Y-85192914D01*
X61809523Y-85192914D02*
X61857142Y-85383390D01*
X61857142Y-85383390D02*
X61857142Y-85526247D01*
X61857142Y-85526247D02*
X61809523Y-85716723D01*
X61809523Y-85716723D02*
X61761904Y-85811961D01*
X61761904Y-85811961D02*
X61666666Y-85907200D01*
X61666666Y-85907200D02*
X61523809Y-85954819D01*
X61523809Y-85954819D02*
X61285714Y-85954819D01*
X62809523Y-85954819D02*
X62238095Y-85954819D01*
X62523809Y-85954819D02*
X62523809Y-84954819D01*
X62523809Y-84954819D02*
X62428571Y-85097676D01*
X62428571Y-85097676D02*
X62333333Y-85192914D01*
X62333333Y-85192914D02*
X62238095Y-85240533D01*
X63761904Y-85954819D02*
X63190476Y-85954819D01*
X63476190Y-85954819D02*
X63476190Y-84954819D01*
X63476190Y-84954819D02*
X63380952Y-85097676D01*
X63380952Y-85097676D02*
X63285714Y-85192914D01*
X63285714Y-85192914D02*
X63190476Y-85240533D01*
D10*
X43538095Y-85557419D02*
X43538095Y-86366942D01*
X43538095Y-86366942D02*
X43585714Y-86462180D01*
X43585714Y-86462180D02*
X43633333Y-86509800D01*
X43633333Y-86509800D02*
X43728571Y-86557419D01*
X43728571Y-86557419D02*
X43919047Y-86557419D01*
X43919047Y-86557419D02*
X44014285Y-86509800D01*
X44014285Y-86509800D02*
X44061904Y-86462180D01*
X44061904Y-86462180D02*
X44109523Y-86366942D01*
X44109523Y-86366942D02*
X44109523Y-85557419D01*
X45109523Y-86557419D02*
X44538095Y-86557419D01*
X44823809Y-86557419D02*
X44823809Y-85557419D01*
X44823809Y-85557419D02*
X44728571Y-85700276D01*
X44728571Y-85700276D02*
X44633333Y-85795514D01*
X44633333Y-85795514D02*
X44538095Y-85843133D01*
D15*
X35495952Y-36304817D02*
X35495952Y-36709579D01*
X35495952Y-36709579D02*
X35519762Y-36757198D01*
X35519762Y-36757198D02*
X35543571Y-36781008D01*
X35543571Y-36781008D02*
X35591190Y-36804817D01*
X35591190Y-36804817D02*
X35686428Y-36804817D01*
X35686428Y-36804817D02*
X35734047Y-36781008D01*
X35734047Y-36781008D02*
X35757857Y-36757198D01*
X35757857Y-36757198D02*
X35781666Y-36709579D01*
X35781666Y-36709579D02*
X35781666Y-36304817D01*
X36281667Y-36804817D02*
X35995953Y-36804817D01*
X36138810Y-36804817D02*
X36138810Y-36304817D01*
X36138810Y-36304817D02*
X36091191Y-36376246D01*
X36091191Y-36376246D02*
X36043572Y-36423865D01*
X36043572Y-36423865D02*
X35995953Y-36447674D01*
X36448333Y-36304817D02*
X36757857Y-36304817D01*
X36757857Y-36304817D02*
X36591190Y-36495293D01*
X36591190Y-36495293D02*
X36662619Y-36495293D01*
X36662619Y-36495293D02*
X36710238Y-36519103D01*
X36710238Y-36519103D02*
X36734047Y-36542912D01*
X36734047Y-36542912D02*
X36757857Y-36590531D01*
X36757857Y-36590531D02*
X36757857Y-36709579D01*
X36757857Y-36709579D02*
X36734047Y-36757198D01*
X36734047Y-36757198D02*
X36710238Y-36781008D01*
X36710238Y-36781008D02*
X36662619Y-36804817D01*
X36662619Y-36804817D02*
X36519762Y-36804817D01*
X36519762Y-36804817D02*
X36472143Y-36781008D01*
X36472143Y-36781008D02*
X36448333Y-36757198D01*
X41495952Y-36304817D02*
X41495952Y-36709579D01*
X41495952Y-36709579D02*
X41519762Y-36757198D01*
X41519762Y-36757198D02*
X41543571Y-36781008D01*
X41543571Y-36781008D02*
X41591190Y-36804817D01*
X41591190Y-36804817D02*
X41686428Y-36804817D01*
X41686428Y-36804817D02*
X41734047Y-36781008D01*
X41734047Y-36781008D02*
X41757857Y-36757198D01*
X41757857Y-36757198D02*
X41781666Y-36709579D01*
X41781666Y-36709579D02*
X41781666Y-36304817D01*
X42281667Y-36804817D02*
X41995953Y-36804817D01*
X42138810Y-36804817D02*
X42138810Y-36304817D01*
X42138810Y-36304817D02*
X42091191Y-36376246D01*
X42091191Y-36376246D02*
X42043572Y-36423865D01*
X42043572Y-36423865D02*
X41995953Y-36447674D01*
X42472143Y-36352436D02*
X42495952Y-36328627D01*
X42495952Y-36328627D02*
X42543571Y-36304817D01*
X42543571Y-36304817D02*
X42662619Y-36304817D01*
X42662619Y-36304817D02*
X42710238Y-36328627D01*
X42710238Y-36328627D02*
X42734047Y-36352436D01*
X42734047Y-36352436D02*
X42757857Y-36400055D01*
X42757857Y-36400055D02*
X42757857Y-36447674D01*
X42757857Y-36447674D02*
X42734047Y-36519103D01*
X42734047Y-36519103D02*
X42448333Y-36804817D01*
X42448333Y-36804817D02*
X42757857Y-36804817D01*
D11*
X34857142Y-27359580D02*
X34809523Y-27407200D01*
X34809523Y-27407200D02*
X34666666Y-27454819D01*
X34666666Y-27454819D02*
X34571428Y-27454819D01*
X34571428Y-27454819D02*
X34428571Y-27407200D01*
X34428571Y-27407200D02*
X34333333Y-27311961D01*
X34333333Y-27311961D02*
X34285714Y-27216723D01*
X34285714Y-27216723D02*
X34238095Y-27026247D01*
X34238095Y-27026247D02*
X34238095Y-26883390D01*
X34238095Y-26883390D02*
X34285714Y-26692914D01*
X34285714Y-26692914D02*
X34333333Y-26597676D01*
X34333333Y-26597676D02*
X34428571Y-26502438D01*
X34428571Y-26502438D02*
X34571428Y-26454819D01*
X34571428Y-26454819D02*
X34666666Y-26454819D01*
X34666666Y-26454819D02*
X34809523Y-26502438D01*
X34809523Y-26502438D02*
X34857142Y-26550057D01*
X35761904Y-26454819D02*
X35285714Y-26454819D01*
X35285714Y-26454819D02*
X35238095Y-26931009D01*
X35238095Y-26931009D02*
X35285714Y-26883390D01*
X35285714Y-26883390D02*
X35380952Y-26835771D01*
X35380952Y-26835771D02*
X35619047Y-26835771D01*
X35619047Y-26835771D02*
X35714285Y-26883390D01*
X35714285Y-26883390D02*
X35761904Y-26931009D01*
X35761904Y-26931009D02*
X35809523Y-27026247D01*
X35809523Y-27026247D02*
X35809523Y-27264342D01*
X35809523Y-27264342D02*
X35761904Y-27359580D01*
X35761904Y-27359580D02*
X35714285Y-27407200D01*
X35714285Y-27407200D02*
X35619047Y-27454819D01*
X35619047Y-27454819D02*
X35380952Y-27454819D01*
X35380952Y-27454819D02*
X35285714Y-27407200D01*
X35285714Y-27407200D02*
X35238095Y-27359580D01*
X36285714Y-27454819D02*
X36476190Y-27454819D01*
X36476190Y-27454819D02*
X36571428Y-27407200D01*
X36571428Y-27407200D02*
X36619047Y-27359580D01*
X36619047Y-27359580D02*
X36714285Y-27216723D01*
X36714285Y-27216723D02*
X36761904Y-27026247D01*
X36761904Y-27026247D02*
X36761904Y-26645295D01*
X36761904Y-26645295D02*
X36714285Y-26550057D01*
X36714285Y-26550057D02*
X36666666Y-26502438D01*
X36666666Y-26502438D02*
X36571428Y-26454819D01*
X36571428Y-26454819D02*
X36380952Y-26454819D01*
X36380952Y-26454819D02*
X36285714Y-26502438D01*
X36285714Y-26502438D02*
X36238095Y-26550057D01*
X36238095Y-26550057D02*
X36190476Y-26645295D01*
X36190476Y-26645295D02*
X36190476Y-26883390D01*
X36190476Y-26883390D02*
X36238095Y-26978628D01*
X36238095Y-26978628D02*
X36285714Y-27026247D01*
X36285714Y-27026247D02*
X36380952Y-27073866D01*
X36380952Y-27073866D02*
X36571428Y-27073866D01*
X36571428Y-27073866D02*
X36666666Y-27026247D01*
X36666666Y-27026247D02*
X36714285Y-26978628D01*
X36714285Y-26978628D02*
X36761904Y-26883390D01*
X24857142Y-27359580D02*
X24809523Y-27407200D01*
X24809523Y-27407200D02*
X24666666Y-27454819D01*
X24666666Y-27454819D02*
X24571428Y-27454819D01*
X24571428Y-27454819D02*
X24428571Y-27407200D01*
X24428571Y-27407200D02*
X24333333Y-27311961D01*
X24333333Y-27311961D02*
X24285714Y-27216723D01*
X24285714Y-27216723D02*
X24238095Y-27026247D01*
X24238095Y-27026247D02*
X24238095Y-26883390D01*
X24238095Y-26883390D02*
X24285714Y-26692914D01*
X24285714Y-26692914D02*
X24333333Y-26597676D01*
X24333333Y-26597676D02*
X24428571Y-26502438D01*
X24428571Y-26502438D02*
X24571428Y-26454819D01*
X24571428Y-26454819D02*
X24666666Y-26454819D01*
X24666666Y-26454819D02*
X24809523Y-26502438D01*
X24809523Y-26502438D02*
X24857142Y-26550057D01*
X25761904Y-26454819D02*
X25285714Y-26454819D01*
X25285714Y-26454819D02*
X25238095Y-26931009D01*
X25238095Y-26931009D02*
X25285714Y-26883390D01*
X25285714Y-26883390D02*
X25380952Y-26835771D01*
X25380952Y-26835771D02*
X25619047Y-26835771D01*
X25619047Y-26835771D02*
X25714285Y-26883390D01*
X25714285Y-26883390D02*
X25761904Y-26931009D01*
X25761904Y-26931009D02*
X25809523Y-27026247D01*
X25809523Y-27026247D02*
X25809523Y-27264342D01*
X25809523Y-27264342D02*
X25761904Y-27359580D01*
X25761904Y-27359580D02*
X25714285Y-27407200D01*
X25714285Y-27407200D02*
X25619047Y-27454819D01*
X25619047Y-27454819D02*
X25380952Y-27454819D01*
X25380952Y-27454819D02*
X25285714Y-27407200D01*
X25285714Y-27407200D02*
X25238095Y-27359580D01*
X26380952Y-26883390D02*
X26285714Y-26835771D01*
X26285714Y-26835771D02*
X26238095Y-26788152D01*
X26238095Y-26788152D02*
X26190476Y-26692914D01*
X26190476Y-26692914D02*
X26190476Y-26645295D01*
X26190476Y-26645295D02*
X26238095Y-26550057D01*
X26238095Y-26550057D02*
X26285714Y-26502438D01*
X26285714Y-26502438D02*
X26380952Y-26454819D01*
X26380952Y-26454819D02*
X26571428Y-26454819D01*
X26571428Y-26454819D02*
X26666666Y-26502438D01*
X26666666Y-26502438D02*
X26714285Y-26550057D01*
X26714285Y-26550057D02*
X26761904Y-26645295D01*
X26761904Y-26645295D02*
X26761904Y-26692914D01*
X26761904Y-26692914D02*
X26714285Y-26788152D01*
X26714285Y-26788152D02*
X26666666Y-26835771D01*
X26666666Y-26835771D02*
X26571428Y-26883390D01*
X26571428Y-26883390D02*
X26380952Y-26883390D01*
X26380952Y-26883390D02*
X26285714Y-26931009D01*
X26285714Y-26931009D02*
X26238095Y-26978628D01*
X26238095Y-26978628D02*
X26190476Y-27073866D01*
X26190476Y-27073866D02*
X26190476Y-27264342D01*
X26190476Y-27264342D02*
X26238095Y-27359580D01*
X26238095Y-27359580D02*
X26285714Y-27407200D01*
X26285714Y-27407200D02*
X26380952Y-27454819D01*
X26380952Y-27454819D02*
X26571428Y-27454819D01*
X26571428Y-27454819D02*
X26666666Y-27407200D01*
X26666666Y-27407200D02*
X26714285Y-27359580D01*
X26714285Y-27359580D02*
X26761904Y-27264342D01*
X26761904Y-27264342D02*
X26761904Y-27073866D01*
X26761904Y-27073866D02*
X26714285Y-26978628D01*
X26714285Y-26978628D02*
X26666666Y-26931009D01*
X26666666Y-26931009D02*
X26571428Y-26883390D01*
X38357142Y-27454819D02*
X38023809Y-26978628D01*
X37785714Y-27454819D02*
X37785714Y-26454819D01*
X37785714Y-26454819D02*
X38166666Y-26454819D01*
X38166666Y-26454819D02*
X38261904Y-26502438D01*
X38261904Y-26502438D02*
X38309523Y-26550057D01*
X38309523Y-26550057D02*
X38357142Y-26645295D01*
X38357142Y-26645295D02*
X38357142Y-26788152D01*
X38357142Y-26788152D02*
X38309523Y-26883390D01*
X38309523Y-26883390D02*
X38261904Y-26931009D01*
X38261904Y-26931009D02*
X38166666Y-26978628D01*
X38166666Y-26978628D02*
X37785714Y-26978628D01*
X38738095Y-26550057D02*
X38785714Y-26502438D01*
X38785714Y-26502438D02*
X38880952Y-26454819D01*
X38880952Y-26454819D02*
X39119047Y-26454819D01*
X39119047Y-26454819D02*
X39214285Y-26502438D01*
X39214285Y-26502438D02*
X39261904Y-26550057D01*
X39261904Y-26550057D02*
X39309523Y-26645295D01*
X39309523Y-26645295D02*
X39309523Y-26740533D01*
X39309523Y-26740533D02*
X39261904Y-26883390D01*
X39261904Y-26883390D02*
X38690476Y-27454819D01*
X38690476Y-27454819D02*
X39309523Y-27454819D01*
X39785714Y-27454819D02*
X39976190Y-27454819D01*
X39976190Y-27454819D02*
X40071428Y-27407200D01*
X40071428Y-27407200D02*
X40119047Y-27359580D01*
X40119047Y-27359580D02*
X40214285Y-27216723D01*
X40214285Y-27216723D02*
X40261904Y-27026247D01*
X40261904Y-27026247D02*
X40261904Y-26645295D01*
X40261904Y-26645295D02*
X40214285Y-26550057D01*
X40214285Y-26550057D02*
X40166666Y-26502438D01*
X40166666Y-26502438D02*
X40071428Y-26454819D01*
X40071428Y-26454819D02*
X39880952Y-26454819D01*
X39880952Y-26454819D02*
X39785714Y-26502438D01*
X39785714Y-26502438D02*
X39738095Y-26550057D01*
X39738095Y-26550057D02*
X39690476Y-26645295D01*
X39690476Y-26645295D02*
X39690476Y-26883390D01*
X39690476Y-26883390D02*
X39738095Y-26978628D01*
X39738095Y-26978628D02*
X39785714Y-27026247D01*
X39785714Y-27026247D02*
X39880952Y-27073866D01*
X39880952Y-27073866D02*
X40071428Y-27073866D01*
X40071428Y-27073866D02*
X40166666Y-27026247D01*
X40166666Y-27026247D02*
X40214285Y-26978628D01*
X40214285Y-26978628D02*
X40261904Y-26883390D01*
D10*
X24916666Y-55207419D02*
X24916666Y-55921704D01*
X24916666Y-55921704D02*
X24869047Y-56064561D01*
X24869047Y-56064561D02*
X24773809Y-56159800D01*
X24773809Y-56159800D02*
X24630952Y-56207419D01*
X24630952Y-56207419D02*
X24535714Y-56207419D01*
X25821428Y-55540752D02*
X25821428Y-56207419D01*
X25583333Y-55159800D02*
X25345238Y-55874085D01*
X25345238Y-55874085D02*
X25964285Y-55874085D01*
D14*
X49183571Y-49703365D02*
X49123095Y-49763842D01*
X49123095Y-49763842D02*
X48941666Y-49824318D01*
X48941666Y-49824318D02*
X48820714Y-49824318D01*
X48820714Y-49824318D02*
X48639285Y-49763842D01*
X48639285Y-49763842D02*
X48518333Y-49642889D01*
X48518333Y-49642889D02*
X48457856Y-49521937D01*
X48457856Y-49521937D02*
X48397380Y-49280032D01*
X48397380Y-49280032D02*
X48397380Y-49098603D01*
X48397380Y-49098603D02*
X48457856Y-48856699D01*
X48457856Y-48856699D02*
X48518333Y-48735746D01*
X48518333Y-48735746D02*
X48639285Y-48614794D01*
X48639285Y-48614794D02*
X48820714Y-48554318D01*
X48820714Y-48554318D02*
X48941666Y-48554318D01*
X48941666Y-48554318D02*
X49123095Y-48614794D01*
X49123095Y-48614794D02*
X49183571Y-48675270D01*
X49606904Y-48554318D02*
X50393095Y-48554318D01*
X50393095Y-48554318D02*
X49969761Y-49038127D01*
X49969761Y-49038127D02*
X50151190Y-49038127D01*
X50151190Y-49038127D02*
X50272142Y-49098603D01*
X50272142Y-49098603D02*
X50332618Y-49159080D01*
X50332618Y-49159080D02*
X50393095Y-49280032D01*
X50393095Y-49280032D02*
X50393095Y-49582413D01*
X50393095Y-49582413D02*
X50332618Y-49703365D01*
X50332618Y-49703365D02*
X50272142Y-49763842D01*
X50272142Y-49763842D02*
X50151190Y-49824318D01*
X50151190Y-49824318D02*
X49788333Y-49824318D01*
X49788333Y-49824318D02*
X49667380Y-49763842D01*
X49667380Y-49763842D02*
X49606904Y-49703365D01*
X50816428Y-48554318D02*
X51663095Y-48554318D01*
X51663095Y-48554318D02*
X51118809Y-49824318D01*
D10*
X51739800Y-51577068D02*
X51739800Y-50434211D01*
X52311228Y-51005639D02*
X51168371Y-51005639D01*
D15*
X23455952Y-36304817D02*
X23455952Y-36709579D01*
X23455952Y-36709579D02*
X23479762Y-36757198D01*
X23479762Y-36757198D02*
X23503571Y-36781008D01*
X23503571Y-36781008D02*
X23551190Y-36804817D01*
X23551190Y-36804817D02*
X23646428Y-36804817D01*
X23646428Y-36804817D02*
X23694047Y-36781008D01*
X23694047Y-36781008D02*
X23717857Y-36757198D01*
X23717857Y-36757198D02*
X23741666Y-36709579D01*
X23741666Y-36709579D02*
X23741666Y-36304817D01*
X24241667Y-36804817D02*
X23955953Y-36804817D01*
X24098810Y-36804817D02*
X24098810Y-36304817D01*
X24098810Y-36304817D02*
X24051191Y-36376246D01*
X24051191Y-36376246D02*
X24003572Y-36423865D01*
X24003572Y-36423865D02*
X23955953Y-36447674D01*
X24717857Y-36804817D02*
X24432143Y-36804817D01*
X24575000Y-36804817D02*
X24575000Y-36304817D01*
X24575000Y-36304817D02*
X24527381Y-36376246D01*
X24527381Y-36376246D02*
X24479762Y-36423865D01*
X24479762Y-36423865D02*
X24432143Y-36447674D01*
D11*
X35875476Y-18204819D02*
X35875476Y-18919104D01*
X35875476Y-18919104D02*
X35827857Y-19061961D01*
X35827857Y-19061961D02*
X35732619Y-19157200D01*
X35732619Y-19157200D02*
X35589762Y-19204819D01*
X35589762Y-19204819D02*
X35494524Y-19204819D01*
X36875476Y-19204819D02*
X36304048Y-19204819D01*
X36589762Y-19204819D02*
X36589762Y-18204819D01*
X36589762Y-18204819D02*
X36494524Y-18347676D01*
X36494524Y-18347676D02*
X36399286Y-18442914D01*
X36399286Y-18442914D02*
X36304048Y-18490533D01*
X37494524Y-18204819D02*
X37589762Y-18204819D01*
X37589762Y-18204819D02*
X37685000Y-18252438D01*
X37685000Y-18252438D02*
X37732619Y-18300057D01*
X37732619Y-18300057D02*
X37780238Y-18395295D01*
X37780238Y-18395295D02*
X37827857Y-18585771D01*
X37827857Y-18585771D02*
X37827857Y-18823866D01*
X37827857Y-18823866D02*
X37780238Y-19014342D01*
X37780238Y-19014342D02*
X37732619Y-19109580D01*
X37732619Y-19109580D02*
X37685000Y-19157200D01*
X37685000Y-19157200D02*
X37589762Y-19204819D01*
X37589762Y-19204819D02*
X37494524Y-19204819D01*
X37494524Y-19204819D02*
X37399286Y-19157200D01*
X37399286Y-19157200D02*
X37351667Y-19109580D01*
X37351667Y-19109580D02*
X37304048Y-19014342D01*
X37304048Y-19014342D02*
X37256429Y-18823866D01*
X37256429Y-18823866D02*
X37256429Y-18585771D01*
X37256429Y-18585771D02*
X37304048Y-18395295D01*
X37304048Y-18395295D02*
X37351667Y-18300057D01*
X37351667Y-18300057D02*
X37399286Y-18252438D01*
X37399286Y-18252438D02*
X37494524Y-18204819D01*
X49357142Y-31859580D02*
X49309523Y-31907200D01*
X49309523Y-31907200D02*
X49166666Y-31954819D01*
X49166666Y-31954819D02*
X49071428Y-31954819D01*
X49071428Y-31954819D02*
X48928571Y-31907200D01*
X48928571Y-31907200D02*
X48833333Y-31811961D01*
X48833333Y-31811961D02*
X48785714Y-31716723D01*
X48785714Y-31716723D02*
X48738095Y-31526247D01*
X48738095Y-31526247D02*
X48738095Y-31383390D01*
X48738095Y-31383390D02*
X48785714Y-31192914D01*
X48785714Y-31192914D02*
X48833333Y-31097676D01*
X48833333Y-31097676D02*
X48928571Y-31002438D01*
X48928571Y-31002438D02*
X49071428Y-30954819D01*
X49071428Y-30954819D02*
X49166666Y-30954819D01*
X49166666Y-30954819D02*
X49309523Y-31002438D01*
X49309523Y-31002438D02*
X49357142Y-31050057D01*
X50309523Y-31954819D02*
X49738095Y-31954819D01*
X50023809Y-31954819D02*
X50023809Y-30954819D01*
X50023809Y-30954819D02*
X49928571Y-31097676D01*
X49928571Y-31097676D02*
X49833333Y-31192914D01*
X49833333Y-31192914D02*
X49738095Y-31240533D01*
X50785714Y-31954819D02*
X50976190Y-31954819D01*
X50976190Y-31954819D02*
X51071428Y-31907200D01*
X51071428Y-31907200D02*
X51119047Y-31859580D01*
X51119047Y-31859580D02*
X51214285Y-31716723D01*
X51214285Y-31716723D02*
X51261904Y-31526247D01*
X51261904Y-31526247D02*
X51261904Y-31145295D01*
X51261904Y-31145295D02*
X51214285Y-31050057D01*
X51214285Y-31050057D02*
X51166666Y-31002438D01*
X51166666Y-31002438D02*
X51071428Y-30954819D01*
X51071428Y-30954819D02*
X50880952Y-30954819D01*
X50880952Y-30954819D02*
X50785714Y-31002438D01*
X50785714Y-31002438D02*
X50738095Y-31050057D01*
X50738095Y-31050057D02*
X50690476Y-31145295D01*
X50690476Y-31145295D02*
X50690476Y-31383390D01*
X50690476Y-31383390D02*
X50738095Y-31478628D01*
X50738095Y-31478628D02*
X50785714Y-31526247D01*
X50785714Y-31526247D02*
X50880952Y-31573866D01*
X50880952Y-31573866D02*
X51071428Y-31573866D01*
X51071428Y-31573866D02*
X51166666Y-31526247D01*
X51166666Y-31526247D02*
X51214285Y-31478628D01*
X51214285Y-31478628D02*
X51261904Y-31383390D01*
X28357142Y-27454819D02*
X28023809Y-26978628D01*
X27785714Y-27454819D02*
X27785714Y-26454819D01*
X27785714Y-26454819D02*
X28166666Y-26454819D01*
X28166666Y-26454819D02*
X28261904Y-26502438D01*
X28261904Y-26502438D02*
X28309523Y-26550057D01*
X28309523Y-26550057D02*
X28357142Y-26645295D01*
X28357142Y-26645295D02*
X28357142Y-26788152D01*
X28357142Y-26788152D02*
X28309523Y-26883390D01*
X28309523Y-26883390D02*
X28261904Y-26931009D01*
X28261904Y-26931009D02*
X28166666Y-26978628D01*
X28166666Y-26978628D02*
X27785714Y-26978628D01*
X28738095Y-26550057D02*
X28785714Y-26502438D01*
X28785714Y-26502438D02*
X28880952Y-26454819D01*
X28880952Y-26454819D02*
X29119047Y-26454819D01*
X29119047Y-26454819D02*
X29214285Y-26502438D01*
X29214285Y-26502438D02*
X29261904Y-26550057D01*
X29261904Y-26550057D02*
X29309523Y-26645295D01*
X29309523Y-26645295D02*
X29309523Y-26740533D01*
X29309523Y-26740533D02*
X29261904Y-26883390D01*
X29261904Y-26883390D02*
X28690476Y-27454819D01*
X28690476Y-27454819D02*
X29309523Y-27454819D01*
X29880952Y-26883390D02*
X29785714Y-26835771D01*
X29785714Y-26835771D02*
X29738095Y-26788152D01*
X29738095Y-26788152D02*
X29690476Y-26692914D01*
X29690476Y-26692914D02*
X29690476Y-26645295D01*
X29690476Y-26645295D02*
X29738095Y-26550057D01*
X29738095Y-26550057D02*
X29785714Y-26502438D01*
X29785714Y-26502438D02*
X29880952Y-26454819D01*
X29880952Y-26454819D02*
X30071428Y-26454819D01*
X30071428Y-26454819D02*
X30166666Y-26502438D01*
X30166666Y-26502438D02*
X30214285Y-26550057D01*
X30214285Y-26550057D02*
X30261904Y-26645295D01*
X30261904Y-26645295D02*
X30261904Y-26692914D01*
X30261904Y-26692914D02*
X30214285Y-26788152D01*
X30214285Y-26788152D02*
X30166666Y-26835771D01*
X30166666Y-26835771D02*
X30071428Y-26883390D01*
X30071428Y-26883390D02*
X29880952Y-26883390D01*
X29880952Y-26883390D02*
X29785714Y-26931009D01*
X29785714Y-26931009D02*
X29738095Y-26978628D01*
X29738095Y-26978628D02*
X29690476Y-27073866D01*
X29690476Y-27073866D02*
X29690476Y-27264342D01*
X29690476Y-27264342D02*
X29738095Y-27359580D01*
X29738095Y-27359580D02*
X29785714Y-27407200D01*
X29785714Y-27407200D02*
X29880952Y-27454819D01*
X29880952Y-27454819D02*
X30071428Y-27454819D01*
X30071428Y-27454819D02*
X30166666Y-27407200D01*
X30166666Y-27407200D02*
X30214285Y-27359580D01*
X30214285Y-27359580D02*
X30261904Y-27264342D01*
X30261904Y-27264342D02*
X30261904Y-27073866D01*
X30261904Y-27073866D02*
X30214285Y-26978628D01*
X30214285Y-26978628D02*
X30166666Y-26931009D01*
X30166666Y-26931009D02*
X30071428Y-26883390D01*
D15*
X29495952Y-36304817D02*
X29495952Y-36709579D01*
X29495952Y-36709579D02*
X29519762Y-36757198D01*
X29519762Y-36757198D02*
X29543571Y-36781008D01*
X29543571Y-36781008D02*
X29591190Y-36804817D01*
X29591190Y-36804817D02*
X29686428Y-36804817D01*
X29686428Y-36804817D02*
X29734047Y-36781008D01*
X29734047Y-36781008D02*
X29757857Y-36757198D01*
X29757857Y-36757198D02*
X29781666Y-36709579D01*
X29781666Y-36709579D02*
X29781666Y-36304817D01*
X30281667Y-36804817D02*
X29995953Y-36804817D01*
X30138810Y-36804817D02*
X30138810Y-36304817D01*
X30138810Y-36304817D02*
X30091191Y-36376246D01*
X30091191Y-36376246D02*
X30043572Y-36423865D01*
X30043572Y-36423865D02*
X29995953Y-36447674D01*
X30591190Y-36304817D02*
X30638809Y-36304817D01*
X30638809Y-36304817D02*
X30686428Y-36328627D01*
X30686428Y-36328627D02*
X30710238Y-36352436D01*
X30710238Y-36352436D02*
X30734047Y-36400055D01*
X30734047Y-36400055D02*
X30757857Y-36495293D01*
X30757857Y-36495293D02*
X30757857Y-36614341D01*
X30757857Y-36614341D02*
X30734047Y-36709579D01*
X30734047Y-36709579D02*
X30710238Y-36757198D01*
X30710238Y-36757198D02*
X30686428Y-36781008D01*
X30686428Y-36781008D02*
X30638809Y-36804817D01*
X30638809Y-36804817D02*
X30591190Y-36804817D01*
X30591190Y-36804817D02*
X30543571Y-36781008D01*
X30543571Y-36781008D02*
X30519762Y-36757198D01*
X30519762Y-36757198D02*
X30495952Y-36709579D01*
X30495952Y-36709579D02*
X30472143Y-36614341D01*
X30472143Y-36614341D02*
X30472143Y-36495293D01*
X30472143Y-36495293D02*
X30495952Y-36400055D01*
X30495952Y-36400055D02*
X30519762Y-36352436D01*
X30519762Y-36352436D02*
X30543571Y-36328627D01*
X30543571Y-36328627D02*
X30591190Y-36304817D01*
D10*
%TO.C,J11*%
X56020000Y-62540000D02*
X56020000Y-64540000D01*
X56020000Y-67540000D02*
X56020000Y-69540000D01*
D16*
X57870000Y-72940000D02*
X57870000Y-72940000D01*
X58070000Y-72940000D02*
X58070000Y-72940000D01*
D10*
X62370000Y-59690000D02*
X56020000Y-59690000D01*
X62370000Y-62040000D02*
X62370000Y-59690000D01*
X62370000Y-65040000D02*
X62370000Y-67040000D01*
X62370000Y-70040000D02*
X62370000Y-72390000D01*
X62370000Y-72390000D02*
X56020000Y-72390000D01*
D16*
X57870000Y-72940000D02*
G75*
G02*
X58070000Y-72940000I100000J0D01*
G01*
X58070000Y-72940000D02*
G75*
G02*
X57870000Y-72940000I-100000J0D01*
G01*
D10*
%TO.C,SW1*%
X20260000Y-78000000D02*
X28260000Y-78000000D01*
X20260000Y-88040000D02*
X20260000Y-78000000D01*
X28260000Y-78000000D02*
X28260000Y-88040000D01*
X28260000Y-88040000D02*
X20260000Y-88040000D01*
%TO.C,U3*%
X38265000Y-87967500D02*
X29125000Y-87967500D01*
X29125000Y-76632500D01*
X38265000Y-76632500D01*
X38265000Y-87967500D01*
%TO.C,J5*%
X56750000Y-56695000D02*
X56750000Y-50345000D01*
X59290000Y-56695000D02*
X56750000Y-56695000D01*
X60560000Y-50345000D02*
X61830000Y-50345000D01*
X61830000Y-50345000D02*
X61830000Y-56695000D01*
%TO.C,U2*%
X59170000Y-87967500D02*
X50030000Y-87967500D01*
X50030000Y-76632500D01*
X59170000Y-76632500D01*
X59170000Y-87967500D01*
%TO.C,J9*%
X27660000Y-17200000D02*
X27660000Y-17700000D01*
X27660000Y-17200000D02*
X28160000Y-17200000D01*
X27660000Y-23800000D02*
X27660000Y-23300000D01*
X27660000Y-23800000D02*
X28160000Y-23800000D01*
X32800000Y-17220000D02*
X32300000Y-17220000D01*
X32800000Y-17220000D02*
X32800000Y-17720000D01*
X32810000Y-23790000D02*
X32310000Y-23790000D01*
X32810000Y-23790000D02*
X32810000Y-23290000D01*
D12*
%TO.C,C60*%
X21590000Y-27711252D02*
X21590000Y-26288748D01*
X23410000Y-27711252D02*
X23410000Y-26288748D01*
D17*
%TO.C,J1*%
X27498000Y-48206200D02*
X27498000Y-48889966D01*
X27498000Y-51180034D02*
X27498000Y-51863800D01*
X27498000Y-51863800D02*
X34102000Y-51863800D01*
X34102000Y-48206200D02*
X27498000Y-48206200D01*
X34102000Y-48889966D02*
X34102000Y-48206200D01*
X34102000Y-51863800D02*
X34102000Y-51180034D01*
D10*
X34340000Y-48400000D02*
X34840000Y-48900000D01*
X34840000Y-47900000D02*
X34340000Y-48400000D01*
X34840000Y-48900000D02*
X34840000Y-47900000D01*
D12*
%TO.C,C61*%
X31590000Y-27711252D02*
X31590000Y-26288748D01*
X33410000Y-27711252D02*
X33410000Y-26288748D01*
%TO.C,U5*%
X32390000Y-54552500D02*
X32390000Y-55002500D01*
X32390000Y-61772500D02*
X32390000Y-61322500D01*
X32840000Y-54552500D02*
X32390000Y-54552500D01*
X32840000Y-61772500D02*
X32390000Y-61772500D01*
X39160000Y-54552500D02*
X39610000Y-54552500D01*
X39160000Y-61772500D02*
X39610000Y-61772500D01*
X39610000Y-54552500D02*
X39610000Y-55002500D01*
X39610000Y-61772500D02*
X39610000Y-61322500D01*
X31800000Y-55002500D02*
X31460000Y-54532500D01*
X32140000Y-54532500D01*
X31800000Y-55002500D01*
G36*
X31800000Y-55002500D02*
G01*
X31460000Y-54532500D01*
X32140000Y-54532500D01*
X31800000Y-55002500D01*
G37*
D16*
%TO.C,C29*%
X54000000Y-41000000D02*
G75*
G02*
X46000000Y-41000000I-4000000J0D01*
G01*
X46000000Y-41000000D02*
G75*
G02*
X54000000Y-41000000I4000000J0D01*
G01*
D10*
%TO.C,J3*%
X21160000Y-17200000D02*
X21160000Y-17700000D01*
X21160000Y-17200000D02*
X21660000Y-17200000D01*
X21160000Y-23800000D02*
X21160000Y-23300000D01*
X21160000Y-23800000D02*
X21660000Y-23800000D01*
X26300000Y-17220000D02*
X25800000Y-17220000D01*
X26300000Y-17220000D02*
X26300000Y-17720000D01*
X26310000Y-23790000D02*
X25810000Y-23790000D01*
X26310000Y-23790000D02*
X26310000Y-23290000D01*
%TO.C,J7*%
X56710000Y-34675000D02*
X56710000Y-28325000D01*
X59250000Y-34675000D02*
X56710000Y-34675000D01*
X60520000Y-28325000D02*
X61790000Y-28325000D01*
X61790000Y-28325000D02*
X61790000Y-34675000D01*
D12*
%TO.C,J2*%
X43130000Y-16420000D02*
X63710000Y-16420000D01*
X43130000Y-25540000D02*
X43130000Y-16420000D01*
X44430000Y-17730000D02*
X51370000Y-17730000D01*
X44430000Y-24230000D02*
X44430000Y-17730000D01*
X51370000Y-17730000D02*
X51370000Y-16420000D01*
X51370000Y-17730000D02*
X51370000Y-17730000D01*
X55470000Y-16420000D02*
X55470000Y-17730000D01*
X55470000Y-17730000D02*
X62410000Y-17730000D01*
X58000000Y-15030000D02*
X58500000Y-16030000D01*
X58500000Y-16030000D02*
X59000000Y-15030000D01*
X59000000Y-15030000D02*
X58000000Y-15030000D01*
X62410000Y-17730000D02*
X62410000Y-24230000D01*
X62410000Y-24230000D02*
X44430000Y-24230000D01*
X63710000Y-16420000D02*
X63710000Y-25540000D01*
X63710000Y-25540000D02*
X43130000Y-25540000D01*
D10*
%TO.C,J6*%
X56710000Y-45695000D02*
X56710000Y-39345000D01*
X59250000Y-45695000D02*
X56710000Y-45695000D01*
X60520000Y-39345000D02*
X61790000Y-39345000D01*
X61790000Y-39345000D02*
X61790000Y-45695000D01*
D18*
%TO.C,D11*%
X59541000Y-80472000D02*
X60049000Y-80472000D01*
X59541000Y-81488000D02*
X59541000Y-80472000D01*
X60049000Y-74940000D02*
X60434000Y-74940000D01*
X60049000Y-80472000D02*
X60049000Y-74940000D01*
X60049000Y-81488000D02*
X59541000Y-81488000D01*
X60049000Y-87830000D02*
X60049000Y-81488000D01*
X65019000Y-74940000D02*
X64634000Y-74940000D01*
X65019000Y-74940000D02*
X65019000Y-87830000D01*
X65019000Y-87830000D02*
X60049000Y-87830000D01*
D16*
X65834000Y-80980000D02*
G75*
G02*
X65634000Y-80980000I-100000J0D01*
G01*
X65634000Y-80980000D02*
G75*
G02*
X65834000Y-80980000I100000J0D01*
G01*
%TO.C,U1*%
D10*
X48865000Y-87967500D02*
X39725000Y-87967500D01*
X39725000Y-76632500D01*
X48865000Y-76632500D01*
X48865000Y-87967500D01*
D17*
%TO.C,U13*%
X32986100Y-32717808D02*
X32986100Y-34499383D01*
X32986100Y-35660633D02*
X32986100Y-37442208D01*
X38243900Y-34499383D02*
X38243900Y-32717808D01*
X38243900Y-37442208D02*
X38243900Y-35660633D01*
%TO.C,U12*%
X38986100Y-32717808D02*
X38986100Y-34499383D01*
X38986100Y-35660633D02*
X38986100Y-37442208D01*
X44243900Y-34499383D02*
X44243900Y-32717808D01*
X44243900Y-37442208D02*
X44243900Y-35660633D01*
D12*
%TO.C,C59*%
X34140000Y-27711252D02*
X34140000Y-26288748D01*
X36860000Y-27711252D02*
X36860000Y-26288748D01*
%TO.C,C58*%
X24140000Y-27711252D02*
X24140000Y-26288748D01*
X26860000Y-27711252D02*
X26860000Y-26288748D01*
%TO.C,R29*%
X37645000Y-27723737D02*
X37645000Y-26276263D01*
X40355000Y-27723737D02*
X40355000Y-26276263D01*
D10*
%TO.C,J4*%
X21460000Y-61175000D02*
X21460000Y-54825000D01*
X22730000Y-61175000D02*
X21460000Y-61175000D01*
X24000000Y-54825000D02*
X26540000Y-54825000D01*
X26540000Y-54825000D02*
X26540000Y-61175000D01*
D16*
%TO.C,C37*%
X54000000Y-49250000D02*
G75*
G02*
X46000000Y-49250000I-4000000J0D01*
G01*
X46000000Y-49250000D02*
G75*
G02*
X54000000Y-49250000I4000000J0D01*
G01*
D17*
%TO.C,U11*%
X20946100Y-32717808D02*
X20946100Y-34499383D01*
X20946100Y-35660633D02*
X20946100Y-37442208D01*
X26203900Y-34499383D02*
X26203900Y-32717808D01*
X26203900Y-37442208D02*
X26203900Y-35660633D01*
D10*
%TO.C,J10*%
X33935000Y-17200000D02*
X33935000Y-17700000D01*
X33935000Y-17200000D02*
X34435000Y-17200000D01*
X33935000Y-23800000D02*
X33935000Y-23300000D01*
X33935000Y-23800000D02*
X34435000Y-23800000D01*
X39075000Y-17220000D02*
X38575000Y-17220000D01*
X39075000Y-17220000D02*
X39075000Y-17720000D01*
X39085000Y-23790000D02*
X38585000Y-23790000D01*
X39085000Y-23790000D02*
X39085000Y-23290000D01*
D17*
%TO.C,C19*%
X49365000Y-35500000D02*
X50635000Y-35500000D01*
X50000000Y-36135000D02*
X50000000Y-34865000D01*
X55372100Y-31500000D02*
G75*
G02*
X44627900Y-31500000I-5372100J0D01*
G01*
X44627900Y-31500000D02*
G75*
G02*
X55372100Y-31500000I5372100J0D01*
G01*
D12*
%TO.C,R28*%
X27645000Y-27723737D02*
X27645000Y-26276263D01*
X30355000Y-27723737D02*
X30355000Y-26276263D01*
D17*
%TO.C,U10*%
X26986100Y-32717808D02*
X26986100Y-34499383D01*
X26986100Y-35660633D02*
X26986100Y-37442208D01*
X32243900Y-34499383D02*
X32243900Y-32717808D01*
X32243900Y-37442208D02*
X32243900Y-35660633D01*
%TD*%
M02*
