%TF.GenerationSoftware,KiCad,Pcbnew,8.0.4*%
%TF.CreationDate,2024-11-10T12:25:31-05:00*%
%TF.ProjectId,booster-tc-driver,626f6f73-7465-4722-9d74-632d64726976,rev?*%
%TF.SameCoordinates,Original*%
%TF.FileFunction,Copper,L1,Top*%
%TF.FilePolarity,Positive*%
%FSLAX46Y46*%
G04 Gerber Fmt 4.6, Leading zero omitted, Abs format (unit mm)*
G04 Created by KiCad (PCBNEW 8.0.4) date 2024-11-10 12:25:31*
%MOMM*%
%LPD*%
G01*
G04 APERTURE LIST*
G04 Aperture macros list*
%AMRoundRect*
0 Rectangle with rounded corners*
0 $1 Rounding radius*
0 $2 $3 $4 $5 $6 $7 $8 $9 X,Y pos of 4 corners*
0 Add a 4 corners polygon primitive as box body*
4,1,4,$2,$3,$4,$5,$6,$7,$8,$9,$2,$3,0*
0 Add four circle primitives for the rounded corners*
1,1,$1+$1,$2,$3*
1,1,$1+$1,$4,$5*
1,1,$1+$1,$6,$7*
1,1,$1+$1,$8,$9*
0 Add four rect primitives between the rounded corners*
20,1,$1+$1,$2,$3,$4,$5,0*
20,1,$1+$1,$4,$5,$6,$7,0*
20,1,$1+$1,$6,$7,$8,$9,0*
20,1,$1+$1,$8,$9,$2,$3,0*%
G04 Aperture macros list end*
%TA.AperFunction,SMDPad,CuDef*%
%ADD10R,5.970000X1.780000*%
%TD*%
%TA.AperFunction,ComponentPad*%
%ADD11C,1.524000*%
%TD*%
%TA.AperFunction,ComponentPad*%
%ADD12C,1.400000*%
%TD*%
%TA.AperFunction,SMDPad,CuDef*%
%ADD13R,1.780000X5.970000*%
%TD*%
%TA.AperFunction,ComponentPad*%
%ADD14C,2.020000*%
%TD*%
%TA.AperFunction,SMDPad,CuDef*%
%ADD15RoundRect,0.250000X0.650000X-0.412500X0.650000X0.412500X-0.650000X0.412500X-0.650000X-0.412500X0*%
%TD*%
%TA.AperFunction,ComponentPad*%
%ADD16C,1.168400*%
%TD*%
%TA.AperFunction,SMDPad,CuDef*%
%ADD17RoundRect,0.075000X-0.662500X-0.075000X0.662500X-0.075000X0.662500X0.075000X-0.662500X0.075000X0*%
%TD*%
%TA.AperFunction,SMDPad,CuDef*%
%ADD18RoundRect,0.075000X-0.075000X-0.662500X0.075000X-0.662500X0.075000X0.662500X-0.075000X0.662500X0*%
%TD*%
%TA.AperFunction,ComponentPad*%
%ADD19R,1.100000X1.100000*%
%TD*%
%TA.AperFunction,ComponentPad*%
%ADD20C,1.100000*%
%TD*%
%TA.AperFunction,ComponentPad*%
%ADD21RoundRect,0.250000X-0.600000X0.600000X-0.600000X-0.600000X0.600000X-0.600000X0.600000X0.600000X0*%
%TD*%
%TA.AperFunction,ComponentPad*%
%ADD22C,1.700000*%
%TD*%
%TA.AperFunction,ComponentPad*%
%ADD23R,1.620000X1.620000*%
%TD*%
%TA.AperFunction,ComponentPad*%
%ADD24C,1.620000*%
%TD*%
%TA.AperFunction,SMDPad,CuDef*%
%ADD25R,0.406400X0.711200*%
%TD*%
%TA.AperFunction,SMDPad,CuDef*%
%ADD26R,0.584200X0.508000*%
%TD*%
%TA.AperFunction,SMDPad,CuDef*%
%ADD27R,1.727200X3.987800*%
%TD*%
%TA.AperFunction,SMDPad,CuDef*%
%ADD28R,0.523200X0.406200*%
%TD*%
%TA.AperFunction,SMDPad,CuDef*%
%ADD29R,0.532940X0.407008*%
%TD*%
%TA.AperFunction,SMDPad,CuDef*%
%ADD30RoundRect,0.250000X1.100000X-0.412500X1.100000X0.412500X-1.100000X0.412500X-1.100000X-0.412500X0*%
%TD*%
%TA.AperFunction,SMDPad,CuDef*%
%ADD31RoundRect,0.250000X1.075000X-0.400000X1.075000X0.400000X-1.075000X0.400000X-1.075000X-0.400000X0*%
%TD*%
%TA.AperFunction,ComponentPad*%
%ADD32R,1.397000X1.397000*%
%TD*%
%TA.AperFunction,ComponentPad*%
%ADD33C,1.397000*%
%TD*%
%TA.AperFunction,ViaPad*%
%ADD34C,0.600000*%
%TD*%
%TA.AperFunction,Conductor*%
%ADD35C,1.000000*%
%TD*%
%TA.AperFunction,Conductor*%
%ADD36C,0.200000*%
%TD*%
%TA.AperFunction,Conductor*%
%ADD37C,2.000000*%
%TD*%
%TA.AperFunction,Conductor*%
%ADD38C,0.500000*%
%TD*%
G04 APERTURE END LIST*
D10*
%TO.P,J11,1,1*%
%TO.N,Net-(Q2-D)*%
X57980000Y-71120000D03*
%TO.P,J11,2,2*%
X61020000Y-68580000D03*
%TO.P,J11,3,3*%
%TO.N,+24V*%
X57980000Y-66040000D03*
%TO.P,J11,4,4*%
X61020000Y-63500000D03*
%TO.P,J11,5,5*%
%TO.N,FAN_PWM*%
X57980000Y-60960000D03*
%TD*%
D11*
%TO.P,SW1,1,A*%
%TO.N,GND*%
X23260000Y-71840000D03*
X23260000Y-82000000D03*
X25800000Y-82000000D03*
%TO.P,SW1,2,B*%
%TO.N,Net-(SW1-B)*%
X23260000Y-74380000D03*
%TO.P,SW1,3,C*%
%TO.N,VDD*%
X23260000Y-76920000D03*
%TD*%
D12*
%TO.P,U3,1,GND*%
%TO.N,GND*%
X31790000Y-84482500D03*
%TO.P,U3,2,OUT*%
%TO.N,INT*%
X33695000Y-84482500D03*
%TO.P,U3,3,VCC*%
%TO.N,+5V*%
X35600000Y-84482500D03*
%TD*%
D13*
%TO.P,J5,1,1*%
%TO.N,GND*%
X60560000Y-55040000D03*
%TO.P,J5,2,2*%
%TO.N,THERM2*%
X58020000Y-52000000D03*
%TD*%
D12*
%TO.P,U2,1,K*%
%TO.N,Net-(U2-K)*%
X53330000Y-84482500D03*
%TO.P,U2,2,A*%
%TO.N,+5V*%
X55870000Y-84482500D03*
%TD*%
D14*
%TO.P,J9,1*%
%TO.N,GDT1_B*%
X28960000Y-20500000D03*
%TO.P,J9,2*%
%TO.N,GDT1_A*%
X31500000Y-20500000D03*
%TD*%
D15*
%TO.P,C60,1*%
%TO.N,Net-(C60-Pad1)*%
X22500000Y-28562500D03*
%TO.P,C60,2*%
%TO.N,GDT1_A*%
X22500000Y-25437500D03*
%TD*%
D16*
%TO.P,J1,1,1*%
%TO.N,VDD*%
X33340000Y-49400000D03*
%TO.P,J1,2,2*%
%TO.N,TMS*%
X33340000Y-50670000D03*
%TO.P,J1,3,3*%
%TO.N,GND*%
X32070000Y-49400000D03*
%TO.P,J1,4,4*%
%TO.N,TCK*%
X32070000Y-50670000D03*
%TO.P,J1,5,5*%
%TO.N,GND*%
X30800000Y-49400000D03*
%TO.P,J1,6,6*%
%TO.N,TDO*%
X30800000Y-50670000D03*
%TO.P,J1,7,7*%
%TO.N,unconnected-(J1-Pad7)*%
X29530000Y-49400000D03*
%TO.P,J1,8,8*%
%TO.N,TDI*%
X29530000Y-50670000D03*
%TO.P,J1,9,9*%
%TO.N,GND*%
X28260000Y-49400000D03*
%TO.P,J1,10,10*%
%TO.N,RST*%
X28260000Y-50670000D03*
%TD*%
D15*
%TO.P,C61,1*%
%TO.N,Net-(C61-Pad1)*%
X32500000Y-28562500D03*
%TO.P,C61,2*%
%TO.N,GDT2_A*%
X32500000Y-25437500D03*
%TD*%
D17*
%TO.P,U5,1,VBAT*%
%TO.N,VDD*%
X31837500Y-55412500D03*
%TO.P,U5,2,PC13*%
%TO.N,unconnected-(U5-PC13-Pad2)*%
X31837500Y-55912500D03*
%TO.P,U5,3,PC14*%
%TO.N,unconnected-(U5-PC14-Pad3)*%
X31837500Y-56412500D03*
%TO.P,U5,4,PC15*%
%TO.N,unconnected-(U5-PC15-Pad4)*%
X31837500Y-56912500D03*
%TO.P,U5,5,PF0*%
%TO.N,Net-(U4-OUTPUT)*%
X31837500Y-57412500D03*
%TO.P,U5,6,PF1*%
%TO.N,Net-(U4-INPUT)*%
X31837500Y-57912500D03*
%TO.P,U5,7,PG10*%
%TO.N,RST*%
X31837500Y-58412500D03*
%TO.P,U5,8,PA0*%
%TO.N,I_PRI*%
X31837500Y-58912500D03*
%TO.P,U5,9,PA1*%
%TO.N,CT+*%
X31837500Y-59412500D03*
%TO.P,U5,10,PA2*%
%TO.N,THERM2*%
X31837500Y-59912500D03*
%TO.P,U5,11,PA3*%
%TO.N,THERM1*%
X31837500Y-60412500D03*
%TO.P,U5,12,PA4*%
%TO.N,CT-*%
X31837500Y-60912500D03*
D18*
%TO.P,U5,13,PA5*%
%TO.N,INT*%
X33250000Y-62325000D03*
%TO.P,U5,14,PA6*%
%TO.N,LED_I_IN*%
X33750000Y-62325000D03*
%TO.P,U5,15,PA7*%
%TO.N,LED_TMP*%
X34250000Y-62325000D03*
%TO.P,U5,16,PB0*%
%TO.N,LED_VBUS*%
X34750000Y-62325000D03*
%TO.P,U5,17,PB1*%
%TO.N,24V_SENSE*%
X35250000Y-62325000D03*
%TO.P,U5,18,PB2*%
%TO.N,SCR*%
X35750000Y-62325000D03*
%TO.P,U5,19,VSSA*%
%TO.N,GND*%
X36250000Y-62325000D03*
%TO.P,U5,20,VREF+*%
%TO.N,VREF*%
X36750000Y-62325000D03*
%TO.P,U5,21,VDDA*%
%TO.N,VDDA*%
X37250000Y-62325000D03*
%TO.P,U5,22,PB10*%
%TO.N,USART_TX*%
X37750000Y-62325000D03*
%TO.P,U5,23,VSS*%
%TO.N,GND*%
X38250000Y-62325000D03*
%TO.P,U5,24,VDD*%
%TO.N,VDD*%
X38750000Y-62325000D03*
D17*
%TO.P,U5,25,PB11*%
%TO.N,VAC_SENSE*%
X40162500Y-60912500D03*
%TO.P,U5,26,PB12*%
%TO.N,THERM_BOARD*%
X40162500Y-60412500D03*
%TO.P,U5,27,PB13*%
%TO.N,FAN_EN*%
X40162500Y-59912500D03*
%TO.P,U5,28,PB14*%
%TO.N,I_L*%
X40162500Y-59412500D03*
%TO.P,U5,29,PB15*%
%TO.N,FAN_PWM*%
X40162500Y-58912500D03*
%TO.P,U5,30,PA8*%
%TO.N,VBUS_SENSE*%
X40162500Y-58412500D03*
%TO.P,U5,31,PA9*%
%TO.N,PFC*%
X40162500Y-57912500D03*
%TO.P,U5,32,PA10*%
%TO.N,unconnected-(U5-PA10-Pad32)*%
X40162500Y-57412500D03*
%TO.P,U5,33,PA11*%
%TO.N,unconnected-(U5-PA11-Pad33)*%
X40162500Y-56912500D03*
%TO.P,U5,34,PA12*%
%TO.N,MODE_IN*%
X40162500Y-56412500D03*
%TO.P,U5,35,VSS*%
%TO.N,GND*%
X40162500Y-55912500D03*
%TO.P,U5,36,VDD*%
%TO.N,VDD*%
X40162500Y-55412500D03*
D18*
%TO.P,U5,37,PA13*%
%TO.N,TMS*%
X38750000Y-54000000D03*
%TO.P,U5,38,PA14*%
%TO.N,TCK*%
X38250000Y-54000000D03*
%TO.P,U5,39,PA15*%
%TO.N,TDI*%
X37750000Y-54000000D03*
%TO.P,U5,40,PB3*%
%TO.N,TDO*%
X37250000Y-54000000D03*
%TO.P,U5,41,PB4*%
%TO.N,JRST*%
X36750000Y-54000000D03*
%TO.P,U5,42,PB5*%
%TO.N,GDT_B*%
X36250000Y-54000000D03*
%TO.P,U5,43,PB6*%
%TO.N,GDT2_DIS*%
X35750000Y-54000000D03*
%TO.P,U5,44,PB7*%
%TO.N,GDT1_DIS*%
X35250000Y-54000000D03*
%TO.P,U5,45,PB8*%
%TO.N,USART_RX*%
X34750000Y-54000000D03*
%TO.P,U5,46,PB9*%
%TO.N,GDT_A*%
X34250000Y-54000000D03*
%TO.P,U5,47,VSS*%
%TO.N,GND*%
X33750000Y-54000000D03*
%TO.P,U5,48,VDD*%
%TO.N,VDD*%
X33250000Y-54000000D03*
%TD*%
D19*
%TO.P,C29,1*%
%TO.N,+12V*%
X50000000Y-42750000D03*
D20*
%TO.P,C29,2*%
%TO.N,GND*%
X50000000Y-39250000D03*
%TD*%
D14*
%TO.P,J3,1*%
%TO.N,GND*%
X22460000Y-20500000D03*
%TO.P,J3,2*%
%TO.N,+24V*%
X25000000Y-20500000D03*
%TD*%
D13*
%TO.P,J7,1,1*%
%TO.N,GND*%
X60520000Y-33020000D03*
%TO.P,J7,2,2*%
%TO.N,+12V*%
X57980000Y-29980000D03*
%TD*%
D21*
%TO.P,J2,1,Pin_1*%
%TO.N,+24V*%
X58500000Y-19710000D03*
D22*
%TO.P,J2,2,Pin_2*%
%TO.N,I_L_IN*%
X58500000Y-22250000D03*
%TO.P,J2,3,Pin_3*%
%TO.N,GND*%
X55960000Y-19710000D03*
%TO.P,J2,4,Pin_4*%
%TO.N,Net-(J2-Pin_4)*%
X55960000Y-22250000D03*
%TO.P,J2,5,Pin_5*%
%TO.N,GND*%
X53420000Y-19710000D03*
%TO.P,J2,6,Pin_6*%
%TO.N,Net-(J2-Pin_6)*%
X53420000Y-22250000D03*
%TO.P,J2,7,Pin_7*%
%TO.N,GND*%
X50880000Y-19710000D03*
%TO.P,J2,8,Pin_8*%
%TO.N,VBUS_IN*%
X50880000Y-22250000D03*
%TO.P,J2,9,Pin_9*%
%TO.N,+5V*%
X48340000Y-19710000D03*
%TO.P,J2,10,Pin_10*%
%TO.N,VAC_IN*%
X48340000Y-22250000D03*
%TD*%
D13*
%TO.P,J6,1,1*%
%TO.N,GND*%
X60520000Y-44040000D03*
%TO.P,J6,2,2*%
%TO.N,THERM1*%
X57980000Y-41000000D03*
%TD*%
D23*
%TO.P,D11,1*%
%TO.N,+5V*%
X63804000Y-80980000D03*
D24*
%TO.P,D11,2*%
%TO.N,Net-(IC1-LED1)*%
X61264000Y-80980000D03*
%TO.P,D11,3*%
%TO.N,+5V*%
X63804000Y-78440000D03*
%TO.P,D11,4*%
%TO.N,Net-(IC1-LED2)*%
X61264000Y-78440000D03*
%TO.P,D11,5*%
%TO.N,+5V*%
X63804000Y-75900000D03*
%TO.P,D11,6*%
%TO.N,Net-(IC1-LED3)*%
X61264000Y-75900000D03*
%TD*%
D12*
%TO.P,U1,1,GND*%
%TO.N,GND*%
X42390000Y-84482500D03*
%TO.P,U1,2,OUT*%
%TO.N,USART_RX*%
X44295000Y-84482500D03*
%TO.P,U1,3,VCC*%
%TO.N,+5V*%
X46200000Y-84482500D03*
%TD*%
D25*
%TO.P,U13,1,S1*%
%TO.N,GND*%
X33710000Y-37795009D03*
%TO.P,U13,2,G1*%
%TO.N,Net-(IC5-OUT_B)*%
X34980000Y-37795009D03*
%TO.P,U13,3,S2*%
%TO.N,+24V*%
X36250000Y-37795009D03*
%TO.P,U13,4,G2*%
%TO.N,Net-(U13-G2)*%
X37520000Y-37795009D03*
D26*
%TO.P,U13,5,D1*%
%TO.N,GDT2_B*%
X33345000Y-35080008D03*
D27*
X34500000Y-34000000D03*
D28*
X33415000Y-32210008D03*
D26*
%TO.P,U13,6,D2*%
X37885000Y-35080008D03*
D27*
X36730060Y-34000000D03*
D29*
X37860130Y-32209604D03*
%TD*%
D25*
%TO.P,U12,1,S1*%
%TO.N,GND*%
X39710000Y-37795009D03*
%TO.P,U12,2,G1*%
%TO.N,Net-(IC5-OUT_A)*%
X40980000Y-37795009D03*
%TO.P,U12,3,S2*%
%TO.N,+24V*%
X42250000Y-37795009D03*
%TO.P,U12,4,G2*%
%TO.N,Net-(U12-G2)*%
X43520000Y-37795009D03*
D26*
%TO.P,U12,5,D1*%
%TO.N,Net-(U12-D1)*%
X39345000Y-35080008D03*
D27*
X40500000Y-34000000D03*
D28*
X39415000Y-32210008D03*
D26*
%TO.P,U12,6,D2*%
X43885000Y-35080008D03*
D27*
X42730060Y-34000000D03*
D29*
X43860130Y-32209604D03*
%TD*%
D30*
%TO.P,C59,1*%
%TO.N,Net-(U12-D1)*%
X35500000Y-28562500D03*
%TO.P,C59,2*%
%TO.N,GDT2_A*%
X35500000Y-25437500D03*
%TD*%
%TO.P,C58,1*%
%TO.N,Net-(U10-D1)*%
X25500000Y-28562500D03*
%TO.P,C58,2*%
%TO.N,GDT1_A*%
X25500000Y-25437500D03*
%TD*%
D31*
%TO.P,R29,1*%
%TO.N,Net-(U12-D1)*%
X39000000Y-28550000D03*
%TO.P,R29,2*%
%TO.N,Net-(C61-Pad1)*%
X39000000Y-25450000D03*
%TD*%
D13*
%TO.P,J4,1,1*%
%TO.N,Net-(J4-Pad1)*%
X22730000Y-56480000D03*
%TO.P,J4,2,2*%
%TO.N,Net-(J4-Pad2)*%
X25270000Y-59520000D03*
%TD*%
D19*
%TO.P,C37,1*%
%TO.N,VDD*%
X50000000Y-51000000D03*
D20*
%TO.P,C37,2*%
%TO.N,GND*%
X50000000Y-47500000D03*
%TD*%
D25*
%TO.P,U11,1,S1*%
%TO.N,GND*%
X21670000Y-37795009D03*
%TO.P,U11,2,G1*%
%TO.N,Net-(IC4-OUT_B)*%
X22940000Y-37795009D03*
%TO.P,U11,3,S2*%
%TO.N,+24V*%
X24210000Y-37795009D03*
%TO.P,U11,4,G2*%
%TO.N,Net-(U11-G2)*%
X25480000Y-37795009D03*
D26*
%TO.P,U11,5,D1*%
%TO.N,GDT1_B*%
X21305000Y-35080008D03*
D27*
X22460000Y-34000000D03*
D28*
X21375000Y-32210008D03*
D26*
%TO.P,U11,6,D2*%
X25845000Y-35080008D03*
D27*
X24690060Y-34000000D03*
D29*
X25820130Y-32209604D03*
%TD*%
D14*
%TO.P,J10,1*%
%TO.N,GDT2_B*%
X35235000Y-20500000D03*
%TO.P,J10,2*%
%TO.N,GDT2_A*%
X37775000Y-20500000D03*
%TD*%
D32*
%TO.P,C19,1*%
%TO.N,+24V*%
X50000000Y-34000000D03*
D33*
%TO.P,C19,2*%
%TO.N,GND*%
X50000000Y-29000000D03*
%TD*%
D31*
%TO.P,R28,1*%
%TO.N,Net-(U10-D1)*%
X29000000Y-28550000D03*
%TO.P,R28,2*%
%TO.N,Net-(C60-Pad1)*%
X29000000Y-25450000D03*
%TD*%
D25*
%TO.P,U10,1,S1*%
%TO.N,GND*%
X27710000Y-37795009D03*
%TO.P,U10,2,G1*%
%TO.N,Net-(IC4-OUT_A)*%
X28980000Y-37795009D03*
%TO.P,U10,3,S2*%
%TO.N,+24V*%
X30250000Y-37795009D03*
%TO.P,U10,4,G2*%
%TO.N,Net-(U10-G2)*%
X31520000Y-37795009D03*
D26*
%TO.P,U10,5,D1*%
%TO.N,Net-(U10-D1)*%
X27345000Y-35080008D03*
D27*
X28500000Y-34000000D03*
D28*
X27415000Y-32210008D03*
D26*
%TO.P,U10,6,D2*%
X31885000Y-35080008D03*
D27*
X30730060Y-34000000D03*
D29*
X31860130Y-32209604D03*
%TD*%
D34*
%TO.N,GND*%
X41500000Y-56000000D03*
X67500000Y-64500000D03*
X18000000Y-17000000D03*
X67500000Y-67000000D03*
X44750000Y-70750000D03*
X44750000Y-71412500D03*
X67500000Y-84500000D03*
X67500000Y-44500000D03*
X48681250Y-53318750D03*
X18000000Y-29500000D03*
X41500000Y-53250000D03*
X18000000Y-27000000D03*
X67500000Y-27000000D03*
X18000000Y-69500000D03*
X67500000Y-59500000D03*
X60560000Y-50000000D03*
X18000000Y-67000000D03*
X67500000Y-17000000D03*
X41637500Y-74000000D03*
X32750000Y-44362500D03*
X67500000Y-74500000D03*
X37400000Y-70600000D03*
X53750000Y-57000000D03*
X67500000Y-22000000D03*
X67500000Y-19500000D03*
X18000000Y-32000000D03*
X48750000Y-58000000D03*
X35750000Y-65500000D03*
X30000000Y-63500000D03*
X18000000Y-74500000D03*
X45500000Y-27000000D03*
X67500000Y-37000000D03*
X67500000Y-24500000D03*
X27750000Y-38750000D03*
X45500000Y-71412500D03*
X67500000Y-32000000D03*
X18000000Y-59500000D03*
X33000000Y-56000000D03*
X38250000Y-63500000D03*
X18000000Y-52000000D03*
X18000000Y-57000000D03*
X18000000Y-84500000D03*
X18000000Y-24500000D03*
X67500000Y-87000000D03*
X67500000Y-47000000D03*
X53500000Y-63000000D03*
X18000000Y-54500000D03*
X18000000Y-22000000D03*
X18000000Y-87000000D03*
X33750000Y-55250000D03*
X18000000Y-19500000D03*
X67500000Y-57000000D03*
X18000000Y-72000000D03*
X50750000Y-60000000D03*
X67500000Y-79500000D03*
X45500000Y-70750000D03*
X52250000Y-68000000D03*
X18000000Y-79500000D03*
X18000000Y-82000000D03*
X67500000Y-29500000D03*
X38400000Y-67200000D03*
X67500000Y-42000000D03*
X39750000Y-38750000D03*
X46000000Y-66250000D03*
X67500000Y-39500000D03*
X30000000Y-69500000D03*
X49750000Y-66750000D03*
X67500000Y-52000000D03*
X37382500Y-44362500D03*
X18000000Y-42000000D03*
X67500000Y-62000000D03*
X42000000Y-64750000D03*
X51500000Y-84750000D03*
X67500000Y-72000000D03*
X50500000Y-79750000D03*
X67500000Y-69500000D03*
X18000000Y-37000000D03*
X36250000Y-61250000D03*
X39000000Y-84750000D03*
X18000000Y-44500000D03*
X33750000Y-38750000D03*
X18000000Y-49500000D03*
X67500000Y-77000000D03*
X18000000Y-47000000D03*
X67500000Y-49500000D03*
X21750000Y-38750000D03*
X28760000Y-54000000D03*
X67500000Y-82000000D03*
X18000000Y-62000000D03*
X28000000Y-75000000D03*
X67500000Y-34500000D03*
X26020000Y-45000000D03*
X18000000Y-39500000D03*
X18000000Y-77000000D03*
X34750000Y-57750000D03*
X18000000Y-34500000D03*
X18000000Y-64500000D03*
X67500000Y-54500000D03*
%TO.N,+5V*%
X64250000Y-57500000D03*
%TO.N,VDD*%
X35000000Y-75000000D03*
X53500000Y-60750000D03*
X25750000Y-50500000D03*
X47250000Y-63250000D03*
X35750000Y-66750000D03*
X51000000Y-73250000D03*
X32500000Y-54750000D03*
X39000000Y-63500000D03*
X41500000Y-55250000D03*
X62750000Y-66500000D03*
%TO.N,USART_RX*%
X39000000Y-78250000D03*
%TO.N,INT*%
X39000000Y-77500000D03*
%TO.N,I_L*%
X45000000Y-62000000D03*
X39000000Y-59250000D03*
%TO.N,CT+*%
X26425000Y-63000000D03*
%TO.N,MODE_IN*%
X33750000Y-61000000D03*
%TO.N,CT-*%
X28000000Y-63000000D03*
%TO.N,I_PRI*%
X29250000Y-57500000D03*
%TO.N,VREF*%
X36000000Y-63500000D03*
X39300000Y-66021001D03*
%TO.N,VBUS_SENSE*%
X39000000Y-58500000D03*
X44000000Y-57750000D03*
%TO.N,VAC_SENSE*%
X42375000Y-60875000D03*
%TO.N,VDDA*%
X37000000Y-63500000D03*
%TO.N,THERM2*%
X41500000Y-68900000D03*
X43056250Y-66549143D03*
X33000000Y-59500000D03*
%TO.N,THERM1*%
X33000000Y-60250000D03*
X41400000Y-66600000D03*
X40900000Y-68500000D03*
%TO.N,+24V*%
X61750000Y-40000000D03*
X36250000Y-38750000D03*
X42250000Y-38750000D03*
X24250000Y-38750000D03*
X57000000Y-75000000D03*
X30250000Y-38750000D03*
X61750000Y-38250000D03*
X61750000Y-39250000D03*
%TO.N,+12V*%
X37625000Y-41875000D03*
X55500000Y-34750000D03*
X55500000Y-35500000D03*
%TO.N,THERM_BOARD*%
X39000000Y-60400000D03*
%TO.N,Net-(Q2-D)*%
X50250000Y-70250000D03*
X50250000Y-71000000D03*
X50250000Y-71750000D03*
X50250000Y-69500000D03*
%TO.N,24V_SENSE*%
X38150000Y-72650000D03*
%TO.N,Net-(U10-G2)*%
X31500000Y-38750000D03*
%TO.N,Net-(IC4-OUT_A)*%
X29000000Y-38750000D03*
%TO.N,Net-(IC4-OUT_B)*%
X23000000Y-38750000D03*
%TO.N,Net-(U11-G2)*%
X25500000Y-38750000D03*
%TO.N,Net-(U12-G2)*%
X43500000Y-38750000D03*
%TO.N,Net-(IC5-OUT_A)*%
X41000000Y-38750000D03*
%TO.N,Net-(IC5-OUT_B)*%
X35000000Y-38750000D03*
%TO.N,Net-(U13-G2)*%
X37500000Y-38750000D03*
%TO.N,Net-(U10-D1)*%
X28750000Y-31000000D03*
X31750000Y-31000000D03*
X29750000Y-31000000D03*
X30250000Y-30250000D03*
X28250000Y-30250000D03*
X27250000Y-30250000D03*
X27750000Y-31000000D03*
X31250000Y-30250000D03*
X29250000Y-30250000D03*
X30750000Y-31000000D03*
%TO.N,Net-(U12-D1)*%
X43750000Y-31000000D03*
X39250000Y-30250000D03*
X39750000Y-31000000D03*
X41250000Y-30250000D03*
X40250000Y-30250000D03*
X42750000Y-31000000D03*
X43250000Y-30250000D03*
X40750000Y-31000000D03*
X41750000Y-31000000D03*
X42250000Y-30250000D03*
%TO.N,LED_TMP*%
X53250000Y-72250000D03*
%TO.N,LED_VBUS*%
X52500000Y-72250000D03*
%TO.N,LED_I_IN*%
X54000000Y-72250000D03*
%TO.N,GDT1_DIS*%
X28520000Y-42000000D03*
X28520000Y-45000000D03*
%TO.N,GDT_A*%
X27250000Y-47250000D03*
X39250000Y-47250000D03*
X32500000Y-46750000D03*
%TO.N,GDT_B*%
X36750000Y-47250000D03*
X24750000Y-47250000D03*
%TO.N,GDT2_DIS*%
X40520000Y-45000000D03*
X40580000Y-42000000D03*
%TO.N,TDO*%
X36800000Y-52800000D03*
%TO.N,TCK*%
X38000000Y-52000000D03*
%TO.N,TDI*%
X37400000Y-52400000D03*
%TO.N,TMS*%
X38600000Y-51600000D03*
%TO.N,VBUS_IN*%
X46500000Y-42750000D03*
%TO.N,I_L_IN*%
X45750000Y-60750000D03*
%TO.N,VAC_IN*%
X42500000Y-47000000D03*
%TO.N,PFC*%
X41750000Y-57912500D03*
%TO.N,SCR*%
X36500000Y-60250000D03*
%TO.N,GDT1_B*%
X22250000Y-30250000D03*
X24250000Y-30250000D03*
X21250000Y-30250000D03*
X23750000Y-31000000D03*
X21750000Y-31000000D03*
X24750000Y-31000000D03*
X22750000Y-31000000D03*
X23250000Y-30250000D03*
X25250000Y-30250000D03*
X25750000Y-31000000D03*
%TO.N,GDT2_B*%
X37250000Y-30250000D03*
X35750000Y-31000000D03*
X34750000Y-31000000D03*
X36750000Y-31000000D03*
X33250000Y-30250000D03*
X34250000Y-30250000D03*
X36250000Y-30250000D03*
X37750000Y-31000000D03*
X33750000Y-31000000D03*
X35250000Y-30250000D03*
%TO.N,USART_TX*%
X44500000Y-74250000D03*
%TO.N,Net-(U4-INPUT)*%
X34750000Y-58500000D03*
%TO.N,Net-(U4-OUTPUT)*%
X34750000Y-57000000D03*
%TO.N,FAN_EN*%
X41400000Y-71400000D03*
%TO.N,Net-(J4-Pad1)*%
X22000000Y-63500000D03*
%TO.N,Net-(J4-Pad2)*%
X22250000Y-66500000D03*
%TO.N,FAN_PWM*%
X53800000Y-59600000D03*
X46500000Y-58912500D03*
%TO.N,Net-(J2-Pin_6)*%
X39250000Y-51250000D03*
%TO.N,Net-(J2-Pin_4)*%
X40500000Y-54500000D03*
%TD*%
D35*
%TO.N,GND*%
X39750000Y-37835009D02*
X39710000Y-37795009D01*
D36*
X33750000Y-54000000D02*
X33750000Y-55250000D01*
X41412500Y-55912500D02*
X41500000Y-56000000D01*
D35*
X27750000Y-37835009D02*
X27710000Y-37795009D01*
X21750000Y-37875009D02*
X21670000Y-37795009D01*
X33750000Y-37835009D02*
X33710000Y-37795009D01*
D36*
X38250000Y-63500000D02*
X38250000Y-62325000D01*
X36250000Y-62325000D02*
X36250000Y-61250000D01*
D35*
X33750000Y-38750000D02*
X33750000Y-37835009D01*
X39750000Y-38750000D02*
X39750000Y-37835009D01*
D36*
X40162500Y-55912500D02*
X41412500Y-55912500D01*
D35*
X21750000Y-38750000D02*
X21750000Y-37875009D01*
X60520000Y-31770000D02*
X67270000Y-31770000D01*
X67270000Y-31770000D02*
X67500000Y-32000000D01*
X60560000Y-53810000D02*
X60560000Y-50000000D01*
X60560000Y-50000000D02*
X60560000Y-42850000D01*
X60560000Y-42850000D02*
X60520000Y-42810000D01*
X27750000Y-38750000D02*
X27750000Y-37835009D01*
D36*
X18075000Y-54575000D02*
X18000000Y-54500000D01*
%TO.N,VDD*%
X31837500Y-55412500D02*
X33250000Y-54000000D01*
X41337500Y-55412500D02*
X41500000Y-55250000D01*
X38750000Y-62325000D02*
X38750000Y-63250000D01*
X38750000Y-63250000D02*
X39000000Y-63500000D01*
X40162500Y-55412500D02*
X41337500Y-55412500D01*
%TO.N,Net-(SW1-B)*%
X22980000Y-74400000D02*
X23000000Y-74380000D01*
%TO.N,USART_RX*%
X32750000Y-72000000D02*
X39000000Y-78250000D01*
X34750000Y-54000000D02*
X34750000Y-54750000D01*
X35750000Y-58250000D02*
X32750000Y-61250000D01*
X32750000Y-61250000D02*
X32750000Y-72000000D01*
X34750000Y-54750000D02*
X35750000Y-55750000D01*
X35750000Y-55750000D02*
X35750000Y-58250000D01*
%TO.N,INT*%
X39000000Y-77500000D02*
X33250000Y-71750000D01*
X33250000Y-71750000D02*
X33250000Y-62325000D01*
%TO.N,Net-(U2-K)*%
X53330000Y-84482500D02*
X53330000Y-84830000D01*
%TO.N,I_L*%
X40162500Y-59412500D02*
X42412500Y-59412500D01*
X39162500Y-59412500D02*
X39000000Y-59250000D01*
X42412500Y-59412500D02*
X45000000Y-62000000D01*
X40162500Y-59412500D02*
X39162500Y-59412500D01*
%TO.N,CT+*%
X30206249Y-59937500D02*
X27994300Y-59937500D01*
X27994300Y-59937500D02*
X27025000Y-60906800D01*
X31837500Y-59412500D02*
X30731249Y-59412500D01*
X30731249Y-59412500D02*
X30206249Y-59937500D01*
X27025000Y-60906800D02*
X27025000Y-62400000D01*
X27025000Y-62400000D02*
X26425000Y-63000000D01*
%TO.N,MODE_IN*%
X38337500Y-56412500D02*
X33750000Y-61000000D01*
X40162500Y-56412500D02*
X38337500Y-56412500D01*
%TO.N,CT-*%
X30731249Y-60912500D02*
X31837500Y-60912500D01*
X30206249Y-60387500D02*
X30731249Y-60912500D01*
X27475000Y-62475000D02*
X27475000Y-61093200D01*
X28180700Y-60387500D02*
X30206249Y-60387500D01*
X28000000Y-63000000D02*
X27475000Y-62475000D01*
X27475000Y-61093200D02*
X28180700Y-60387500D01*
%TO.N,I_PRI*%
X30662500Y-58912500D02*
X29250000Y-57500000D01*
X31837500Y-58912500D02*
X30662500Y-58912500D01*
%TO.N,VREF*%
X36750000Y-62325000D02*
X36750000Y-62953488D01*
X39300000Y-66021001D02*
X38521001Y-66021001D01*
X36750000Y-62953488D02*
X36203488Y-63500000D01*
X38521001Y-66021001D02*
X36000000Y-63500000D01*
X36203488Y-63500000D02*
X36000000Y-63500000D01*
%TO.N,VBUS_SENSE*%
X39087500Y-58412500D02*
X39000000Y-58500000D01*
X44000000Y-57750000D02*
X43337500Y-58412500D01*
X40162500Y-58412500D02*
X39087500Y-58412500D01*
X43337500Y-58412500D02*
X40162500Y-58412500D01*
%TO.N,VAC_SENSE*%
X40162500Y-60912500D02*
X40200000Y-60875000D01*
X40200000Y-60875000D02*
X42187500Y-60875000D01*
X42187500Y-60875000D02*
X42225000Y-60912500D01*
%TO.N,VDDA*%
X37250000Y-62325000D02*
X37250000Y-63250000D01*
X37250000Y-63250000D02*
X37000000Y-63500000D01*
%TO.N,THERM2*%
X32587500Y-59912500D02*
X33000000Y-59500000D01*
X43056250Y-66549143D02*
X41500000Y-68105393D01*
X31837500Y-59912500D02*
X32587500Y-59912500D01*
X58020000Y-51585393D02*
X58020000Y-50770000D01*
X41500000Y-68105393D02*
X41500000Y-68900000D01*
X43056250Y-66549143D02*
X58020000Y-51585393D01*
%TO.N,THERM1*%
X55000000Y-53042893D02*
X55000000Y-42750000D01*
X40900000Y-68500000D02*
X40900000Y-67100000D01*
X55000000Y-42750000D02*
X57980000Y-39770000D01*
X32837500Y-60412500D02*
X33000000Y-60250000D01*
X40900000Y-67100000D02*
X41400000Y-66600000D01*
X41400000Y-66600000D02*
X41442893Y-66600000D01*
X31837500Y-60412500D02*
X32837500Y-60412500D01*
X41442893Y-66600000D02*
X55000000Y-53042893D01*
%TO.N,+24V*%
X62957107Y-66000000D02*
X58020000Y-66000000D01*
D35*
X30250000Y-38750000D02*
X30250000Y-37795009D01*
X42250000Y-38750000D02*
X42250000Y-37795009D01*
D37*
X61750000Y-40000000D02*
X61750000Y-38250000D01*
X62550000Y-39995000D02*
X62510000Y-39955000D01*
D36*
X59000000Y-75000000D02*
X64500000Y-69500000D01*
D37*
X58480000Y-66040000D02*
X61020000Y-63500000D01*
X62550000Y-61970000D02*
X62550000Y-39995000D01*
X62510000Y-39955000D02*
X61795000Y-39955000D01*
X61795000Y-39955000D02*
X61750000Y-40000000D01*
D36*
X57000000Y-75000000D02*
X59000000Y-75000000D01*
D37*
X57980000Y-66040000D02*
X58480000Y-66040000D01*
D36*
X58020000Y-66000000D02*
X57980000Y-66040000D01*
D35*
X24250000Y-38750000D02*
X24250000Y-37835009D01*
D36*
X64500000Y-67542893D02*
X62957107Y-66000000D01*
D35*
X24250000Y-37835009D02*
X24210000Y-37795009D01*
D37*
X61020000Y-63500000D02*
X62550000Y-61970000D01*
D36*
X64500000Y-69500000D02*
X64500000Y-67542893D01*
D35*
X36250000Y-38750000D02*
X36250000Y-37795009D01*
%TO.N,+12V*%
X57980000Y-32270000D02*
X55500000Y-34750000D01*
X55500000Y-34750000D02*
X55500000Y-35500000D01*
X57980000Y-28730000D02*
X57980000Y-32270000D01*
D36*
%TO.N,THERM_BOARD*%
X39012500Y-60412500D02*
X40162500Y-60412500D01*
X39000000Y-60400000D02*
X39012500Y-60412500D01*
D37*
%TO.N,Net-(Q2-D)*%
X50250000Y-70250000D02*
X50250000Y-69500000D01*
X50250000Y-70250000D02*
X50250000Y-71750000D01*
X59350000Y-70250000D02*
X61020000Y-68580000D01*
X50250000Y-70250000D02*
X59350000Y-70250000D01*
D36*
%TO.N,24V_SENSE*%
X38150000Y-72650000D02*
X35250000Y-69750000D01*
X35250000Y-69750000D02*
X35250000Y-62325000D01*
D38*
%TO.N,Net-(U10-G2)*%
X31500000Y-37815009D02*
X31520000Y-37795009D01*
X31500000Y-38750000D02*
X31500000Y-37815009D01*
%TO.N,Net-(IC4-OUT_A)*%
X29000000Y-37815009D02*
X28980000Y-37795009D01*
X29000000Y-38750000D02*
X29000000Y-37815009D01*
%TO.N,Net-(IC4-OUT_B)*%
X23000000Y-38750000D02*
X23000000Y-37855009D01*
X23000000Y-37855009D02*
X22940000Y-37795009D01*
%TO.N,Net-(U11-G2)*%
X25500000Y-37815009D02*
X25480000Y-37795009D01*
X25500000Y-38750000D02*
X25500000Y-37815009D01*
%TO.N,Net-(U12-G2)*%
X43500000Y-37815009D02*
X43520000Y-37795009D01*
X43500000Y-38750000D02*
X43500000Y-37815009D01*
%TO.N,Net-(IC5-OUT_A)*%
X41000000Y-37815009D02*
X40980000Y-37795009D01*
X41000000Y-38750000D02*
X41000000Y-37815009D01*
%TO.N,Net-(IC5-OUT_B)*%
X35000000Y-38750000D02*
X35000000Y-37815009D01*
X35000000Y-37815009D02*
X34980000Y-37795009D01*
%TO.N,Net-(U13-G2)*%
X37500000Y-37815009D02*
X37520000Y-37795009D01*
X37500000Y-38750000D02*
X37500000Y-37815009D01*
D35*
%TO.N,Net-(U10-D1)*%
X29000000Y-28550000D02*
X29000000Y-29500000D01*
X29000000Y-33500000D02*
X28500000Y-34000000D01*
X28250000Y-30250000D02*
X28750000Y-30750000D01*
X28750000Y-30750000D02*
X28750000Y-31000000D01*
X29000000Y-31000000D02*
X29000000Y-31000000D01*
X28250000Y-30250000D02*
X28250000Y-30250000D01*
X28750000Y-31000000D02*
X29000000Y-31000000D01*
X29250000Y-29250000D02*
X29250000Y-30250000D01*
X29750000Y-31000000D02*
X29000000Y-33500000D01*
X29250000Y-30250000D02*
X28250000Y-30250000D01*
X28987500Y-28562500D02*
X29000000Y-28550000D01*
X29000000Y-31000000D02*
X29750000Y-31000000D01*
X25500000Y-28562500D02*
X28987500Y-28562500D01*
X29000000Y-29500000D02*
X29250000Y-29250000D01*
%TO.N,GDT1_A*%
X28250000Y-23750000D02*
X31500000Y-20500000D01*
X27187500Y-23750000D02*
X28250000Y-23750000D01*
X22500000Y-25437500D02*
X25500000Y-25437500D01*
X25500000Y-25437500D02*
X27187500Y-23750000D01*
%TO.N,Net-(U12-D1)*%
X41250000Y-30250000D02*
X40500000Y-30050000D01*
X40500000Y-34000000D02*
X40750000Y-31000000D01*
X36487500Y-28550000D02*
X36500000Y-28562500D01*
X35500000Y-28562500D02*
X38987500Y-28562500D01*
X40750000Y-31000000D02*
X40250000Y-30250000D01*
X38987500Y-28562500D02*
X39000000Y-28550000D01*
X40500000Y-30050000D02*
X39000000Y-28550000D01*
X40250000Y-30250000D02*
X41250000Y-30250000D01*
%TO.N,GDT2_A*%
X36500000Y-24437500D02*
X36500000Y-21775000D01*
X35500000Y-25437500D02*
X36500000Y-24437500D01*
X32500000Y-25437500D02*
X35500000Y-25437500D01*
X36500000Y-21775000D02*
X37775000Y-20500000D01*
%TO.N,Net-(C60-Pad1)*%
X27450000Y-27000000D02*
X29000000Y-25450000D01*
X22778490Y-28562500D02*
X24340990Y-27000000D01*
X24340990Y-27000000D02*
X27450000Y-27000000D01*
X22500000Y-28562500D02*
X22778490Y-28562500D01*
%TO.N,Net-(C61-Pad1)*%
X37450000Y-27000000D02*
X39000000Y-25450000D01*
X34062500Y-27000000D02*
X37450000Y-27000000D01*
X32500000Y-28562500D02*
X34062500Y-27000000D01*
D36*
%TO.N,LED_TMP*%
X50750000Y-75750000D02*
X39250000Y-75750000D01*
X53250000Y-72250000D02*
X53250000Y-73250000D01*
X34250000Y-70750000D02*
X34250000Y-62325000D01*
X53250000Y-73250000D02*
X50750000Y-75750000D01*
X39250000Y-75750000D02*
X34250000Y-70750000D01*
%TO.N,LED_VBUS*%
X52500000Y-73000000D02*
X50250000Y-75250000D01*
X34750000Y-70250000D02*
X34750000Y-62325000D01*
X50250000Y-75250000D02*
X39750000Y-75250000D01*
X39750000Y-75250000D02*
X34750000Y-70250000D01*
X52500000Y-72250000D02*
X52500000Y-73000000D01*
%TO.N,LED_I_IN*%
X33750000Y-71250000D02*
X38750000Y-76250000D01*
X54000000Y-73500000D02*
X54000000Y-72250000D01*
X51250000Y-76250000D02*
X54000000Y-73500000D01*
X33750000Y-62325000D02*
X33750000Y-71250000D01*
X38750000Y-76250000D02*
X51250000Y-76250000D01*
%TO.N,GDT1_DIS*%
X35250000Y-48500000D02*
X31750000Y-45000000D01*
X35250000Y-54000000D02*
X35250000Y-48500000D01*
X31750000Y-45000000D02*
X28520000Y-45000000D01*
%TO.N,GDT_A*%
X34250000Y-54000000D02*
X34250000Y-48500000D01*
X34250000Y-48500000D02*
X32500000Y-46750000D01*
%TO.N,GDT_B*%
X36250000Y-47750000D02*
X36750000Y-47250000D01*
X36250000Y-54000000D02*
X36250000Y-47750000D01*
%TO.N,GDT2_DIS*%
X35750000Y-54000000D02*
X35750000Y-47542893D01*
X38292893Y-45000000D02*
X40520000Y-45000000D01*
X35750000Y-47542893D02*
X38292893Y-45000000D01*
%TO.N,TDO*%
X37250000Y-53250000D02*
X36800000Y-52800000D01*
X37250000Y-54000000D02*
X37250000Y-53250000D01*
%TO.N,TCK*%
X38250000Y-52250000D02*
X38000000Y-52000000D01*
X38250000Y-54000000D02*
X38250000Y-52250000D01*
%TO.N,TDI*%
X37750000Y-54000000D02*
X37750000Y-52750000D01*
X37750000Y-52750000D02*
X37400000Y-52400000D01*
%TO.N,TMS*%
X38750000Y-54000000D02*
X38750000Y-51750000D01*
X38750000Y-51750000D02*
X38600000Y-51600000D01*
%TO.N,RST*%
X28260000Y-55510000D02*
X28260000Y-50670000D01*
X31162500Y-58412500D02*
X28260000Y-55510000D01*
X31837500Y-58412500D02*
X31162500Y-58412500D01*
%TO.N,VBUS_IN*%
X46500000Y-26630000D02*
X46500000Y-30500000D01*
X51000000Y-21750000D02*
X51000000Y-21500000D01*
X50880000Y-22250000D02*
X46500000Y-26630000D01*
X46500000Y-30500000D02*
X46500000Y-42750000D01*
%TO.N,I_L_IN*%
X48000000Y-33500000D02*
X48000000Y-58500000D01*
X58500000Y-22250000D02*
X48000000Y-32750000D01*
X48000000Y-58500000D02*
X45750000Y-60750000D01*
X48000000Y-32750000D02*
X48000000Y-33500000D01*
%TO.N,VAC_IN*%
X46000000Y-43500000D02*
X46000000Y-24590000D01*
X42500000Y-47000000D02*
X46000000Y-43500000D01*
X46000000Y-24590000D02*
X48340000Y-22250000D01*
%TO.N,PFC*%
X41750000Y-57912500D02*
X40162500Y-57912500D01*
%TO.N,SCR*%
X35750000Y-61000000D02*
X35750000Y-62325000D01*
X36500000Y-60250000D02*
X35750000Y-61000000D01*
%TO.N,USART_TX*%
X37750000Y-63707107D02*
X37750000Y-62325000D01*
X39800000Y-65757107D02*
X37750000Y-63707107D01*
X39800000Y-70800000D02*
X39800000Y-65757107D01*
X43250000Y-74250000D02*
X39800000Y-70800000D01*
X44500000Y-74250000D02*
X43250000Y-74250000D01*
%TO.N,Net-(U4-INPUT)*%
X31837500Y-57912500D02*
X34162500Y-57912500D01*
X34162500Y-57912500D02*
X34750000Y-58500000D01*
%TO.N,Net-(U4-OUTPUT)*%
X34337500Y-57412500D02*
X34750000Y-57000000D01*
X31837500Y-57412500D02*
X34337500Y-57412500D01*
%TO.N,FAN_EN*%
X40162500Y-59912500D02*
X40150000Y-59900000D01*
X38792893Y-59900000D02*
X38500000Y-60192893D01*
X40150000Y-59900000D02*
X38792893Y-59900000D01*
X38500000Y-60700000D02*
X40400000Y-62600000D01*
X38500000Y-60192893D02*
X38500000Y-60700000D01*
X40400000Y-70400000D02*
X41400000Y-71400000D01*
X40400000Y-62600000D02*
X40400000Y-70400000D01*
D35*
%TO.N,Net-(J4-Pad1)*%
X22730000Y-62770000D02*
X22000000Y-63500000D01*
X22730000Y-56480000D02*
X22730000Y-62770000D01*
%TO.N,Net-(J4-Pad2)*%
X25270000Y-63480000D02*
X22250000Y-66500000D01*
X25270000Y-59520000D02*
X25270000Y-63480000D01*
D36*
%TO.N,FAN_PWM*%
X46500000Y-58912500D02*
X40162500Y-58912500D01*
X53800000Y-59600000D02*
X55160000Y-60960000D01*
X55160000Y-60960000D02*
X57980000Y-60960000D01*
%TO.N,Net-(J2-Pin_6)*%
X39250000Y-51250000D02*
X47000000Y-43500000D01*
X47000000Y-28670000D02*
X53420000Y-22250000D01*
X47000000Y-43500000D02*
X47000000Y-28670000D01*
%TO.N,Net-(J2-Pin_4)*%
X47500000Y-44000000D02*
X47500000Y-30229329D01*
X55479329Y-22250000D02*
X55960000Y-22250000D01*
X40500000Y-54500000D02*
X40500000Y-51000000D01*
X40500000Y-51000000D02*
X47500000Y-44000000D01*
X47500000Y-30229329D02*
X55479329Y-22250000D01*
%TD*%
%TA.AperFunction,Conductor*%
%TO.N,GDT1_B*%
G36*
X26193039Y-29519685D02*
G01*
X26238794Y-29572489D01*
X26250000Y-29624000D01*
X26250000Y-31382100D01*
X26230315Y-31449139D01*
X26177511Y-31494894D01*
X26126000Y-31506100D01*
X25404423Y-31506100D01*
X26020246Y-32121923D01*
X26053731Y-32183246D01*
X26048747Y-32252938D01*
X26020246Y-32297285D01*
X25907811Y-32409720D01*
X25846488Y-32443205D01*
X25776796Y-32438221D01*
X25732449Y-32409720D01*
X25190060Y-31867331D01*
X25190060Y-36493900D01*
X25601488Y-36493900D01*
X25601504Y-36493899D01*
X25661032Y-36487498D01*
X25661039Y-36487496D01*
X25795746Y-36437254D01*
X25795753Y-36437250D01*
X25910847Y-36351090D01*
X25910850Y-36351087D01*
X25997010Y-36235993D01*
X25997014Y-36235986D01*
X26009818Y-36201658D01*
X26051689Y-36145724D01*
X26117153Y-36121307D01*
X26185426Y-36136158D01*
X26234832Y-36185564D01*
X26250000Y-36244991D01*
X26250000Y-36876000D01*
X26230315Y-36943039D01*
X26177511Y-36988794D01*
X26126000Y-37000000D01*
X20874000Y-37000000D01*
X20806961Y-36980315D01*
X20761206Y-36927511D01*
X20750000Y-36876000D01*
X20750000Y-35947571D01*
X20769685Y-35880532D01*
X20822489Y-35834777D01*
X20891647Y-35824833D01*
X20902520Y-35826895D01*
X20905532Y-35827607D01*
X20965055Y-35834007D01*
X20965072Y-35834008D01*
X20972400Y-35834008D01*
X21039439Y-35853693D01*
X21085194Y-35906497D01*
X21096400Y-35958008D01*
X21096400Y-36041744D01*
X21102801Y-36101272D01*
X21102803Y-36101279D01*
X21153045Y-36235986D01*
X21153049Y-36235993D01*
X21239209Y-36351087D01*
X21239212Y-36351090D01*
X21354306Y-36437250D01*
X21354313Y-36437254D01*
X21489020Y-36487496D01*
X21489027Y-36487498D01*
X21548555Y-36493899D01*
X21548572Y-36493900D01*
X21960000Y-36493900D01*
X22960000Y-36493900D01*
X23371428Y-36493900D01*
X23371444Y-36493899D01*
X23430972Y-36487498D01*
X23430976Y-36487497D01*
X23531696Y-36449931D01*
X23601388Y-36444947D01*
X23618364Y-36449931D01*
X23719083Y-36487497D01*
X23719087Y-36487498D01*
X23778615Y-36493899D01*
X23778632Y-36493900D01*
X24190060Y-36493900D01*
X24190060Y-34500000D01*
X22960000Y-34500000D01*
X22960000Y-36493900D01*
X21960000Y-36493900D01*
X21960000Y-34500000D01*
X21177400Y-34500000D01*
X21110361Y-34480315D01*
X21064606Y-34427511D01*
X21053400Y-34376000D01*
X21053400Y-34326008D01*
X20965055Y-34326008D01*
X20905522Y-34332410D01*
X20902509Y-34333122D01*
X20900102Y-34332992D01*
X20897813Y-34333239D01*
X20897773Y-34332867D01*
X20832740Y-34329378D01*
X20776070Y-34288508D01*
X20750493Y-34223489D01*
X20750000Y-34212444D01*
X20750000Y-32989808D01*
X20769685Y-32922769D01*
X20822489Y-32877014D01*
X20891647Y-32867070D01*
X20917334Y-32873626D01*
X21013293Y-32909417D01*
X21012327Y-32912004D01*
X21061605Y-32940044D01*
X21094010Y-33001945D01*
X21096400Y-33026175D01*
X21096400Y-33500000D01*
X21960000Y-33500000D01*
X22960000Y-33500000D01*
X24190060Y-33500000D01*
X24190060Y-31506100D01*
X23778615Y-31506100D01*
X23719087Y-31512501D01*
X23719079Y-31512503D01*
X23618363Y-31550068D01*
X23548671Y-31555052D01*
X23531697Y-31550068D01*
X23430980Y-31512503D01*
X23430972Y-31512501D01*
X23371444Y-31506100D01*
X22960000Y-31506100D01*
X22960000Y-33500000D01*
X21960000Y-33500000D01*
X21960000Y-31912235D01*
X21959999Y-31912234D01*
X21462680Y-32409553D01*
X21401357Y-32443038D01*
X21331665Y-32438054D01*
X21287318Y-32409553D01*
X21175454Y-32297689D01*
X21141969Y-32236366D01*
X21146953Y-32166674D01*
X21175454Y-32122327D01*
X21791681Y-31506100D01*
X21548567Y-31506100D01*
X21547659Y-31506198D01*
X21534406Y-31506908D01*
X21065555Y-31506908D01*
X21006027Y-31513309D01*
X21006019Y-31513311D01*
X20917333Y-31546389D01*
X20847641Y-31551373D01*
X20786318Y-31517888D01*
X20752834Y-31456564D01*
X20750000Y-31430207D01*
X20750000Y-29624000D01*
X20769685Y-29556961D01*
X20822489Y-29511206D01*
X20874000Y-29500000D01*
X26126000Y-29500000D01*
X26193039Y-29519685D01*
G37*
%TD.AperFunction*%
%TD*%
%TA.AperFunction,Conductor*%
%TO.N,GND*%
G36*
X19943039Y-16019685D02*
G01*
X19988794Y-16072489D01*
X20000000Y-16124000D01*
X20000000Y-87876000D01*
X19980315Y-87943039D01*
X19927511Y-87988794D01*
X19876000Y-88000000D01*
X16124000Y-88000000D01*
X16056961Y-87980315D01*
X16011206Y-87927511D01*
X16000000Y-87876000D01*
X16000000Y-16124000D01*
X16019685Y-16056961D01*
X16072489Y-16011206D01*
X16124000Y-16000000D01*
X19876000Y-16000000D01*
X19943039Y-16019685D01*
G37*
%TD.AperFunction*%
%TD*%
%TA.AperFunction,Conductor*%
%TO.N,GND*%
G36*
X69243039Y-16019685D02*
G01*
X69288794Y-16072489D01*
X69300000Y-16124000D01*
X69300000Y-87876000D01*
X69280315Y-87943039D01*
X69227511Y-87988794D01*
X69176000Y-88000000D01*
X65424000Y-88000000D01*
X65356961Y-87980315D01*
X65311206Y-87927511D01*
X65300000Y-87876000D01*
X65300000Y-16124000D01*
X65319685Y-16056961D01*
X65372489Y-16011206D01*
X65424000Y-16000000D01*
X69176000Y-16000000D01*
X69243039Y-16019685D01*
G37*
%TD.AperFunction*%
%TD*%
%TA.AperFunction,Conductor*%
%TO.N,Net-(U12-D1)*%
G36*
X44193039Y-29519685D02*
G01*
X44238794Y-29572489D01*
X44250000Y-29624000D01*
X44250000Y-31382100D01*
X44230315Y-31449139D01*
X44177511Y-31494894D01*
X44126000Y-31506100D01*
X43444423Y-31506100D01*
X44060246Y-32121923D01*
X44093731Y-32183246D01*
X44088747Y-32252938D01*
X44060246Y-32297285D01*
X43947811Y-32409720D01*
X43886488Y-32443205D01*
X43816796Y-32438221D01*
X43772449Y-32409720D01*
X43230060Y-31867331D01*
X43230060Y-36493900D01*
X43641488Y-36493900D01*
X43641504Y-36493899D01*
X43701032Y-36487498D01*
X43701039Y-36487496D01*
X43835746Y-36437254D01*
X43835753Y-36437250D01*
X43950847Y-36351090D01*
X43950850Y-36351087D01*
X44026734Y-36249721D01*
X44082668Y-36207850D01*
X44152359Y-36202866D01*
X44213682Y-36236352D01*
X44247166Y-36297675D01*
X44250000Y-36324032D01*
X44250000Y-36876000D01*
X44230315Y-36943039D01*
X44177511Y-36988794D01*
X44126000Y-37000000D01*
X38874000Y-37000000D01*
X38806961Y-36980315D01*
X38761206Y-36927511D01*
X38750000Y-36876000D01*
X38750000Y-35933273D01*
X38769685Y-35866234D01*
X38822489Y-35820479D01*
X38891647Y-35810535D01*
X38917335Y-35817092D01*
X38945519Y-35827604D01*
X38945527Y-35827606D01*
X39005055Y-35834007D01*
X39005072Y-35834008D01*
X39012400Y-35834008D01*
X39079439Y-35853693D01*
X39125194Y-35906497D01*
X39136400Y-35958008D01*
X39136400Y-36041744D01*
X39142801Y-36101272D01*
X39142803Y-36101279D01*
X39193045Y-36235986D01*
X39193049Y-36235993D01*
X39279209Y-36351087D01*
X39279212Y-36351090D01*
X39394306Y-36437250D01*
X39394313Y-36437254D01*
X39529020Y-36487496D01*
X39529027Y-36487498D01*
X39588555Y-36493899D01*
X39588572Y-36493900D01*
X40000000Y-36493900D01*
X41000000Y-36493900D01*
X41411428Y-36493900D01*
X41411444Y-36493899D01*
X41470972Y-36487498D01*
X41470976Y-36487497D01*
X41571696Y-36449931D01*
X41641388Y-36444947D01*
X41658364Y-36449931D01*
X41759083Y-36487497D01*
X41759087Y-36487498D01*
X41818615Y-36493899D01*
X41818632Y-36493900D01*
X42230060Y-36493900D01*
X42230060Y-34500000D01*
X41000000Y-34500000D01*
X41000000Y-36493900D01*
X40000000Y-36493900D01*
X40000000Y-34500000D01*
X39217400Y-34500000D01*
X39150361Y-34480315D01*
X39104606Y-34427511D01*
X39093400Y-34376000D01*
X39093400Y-34326008D01*
X39005055Y-34326008D01*
X38945527Y-34332409D01*
X38945516Y-34332412D01*
X38917332Y-34342924D01*
X38847640Y-34347908D01*
X38786318Y-34314422D01*
X38752833Y-34253099D01*
X38750000Y-34226742D01*
X38750000Y-32974889D01*
X38769685Y-32907850D01*
X38822489Y-32862095D01*
X38891647Y-32852151D01*
X38917333Y-32858707D01*
X39053292Y-32909417D01*
X39052327Y-32912003D01*
X39101605Y-32940044D01*
X39134010Y-33001945D01*
X39136400Y-33026175D01*
X39136400Y-33500000D01*
X40000000Y-33500000D01*
X41000000Y-33500000D01*
X42230060Y-33500000D01*
X42230060Y-31506100D01*
X41818615Y-31506100D01*
X41759087Y-31512501D01*
X41759079Y-31512503D01*
X41658363Y-31550068D01*
X41588671Y-31555052D01*
X41571697Y-31550068D01*
X41470980Y-31512503D01*
X41470972Y-31512501D01*
X41411444Y-31506100D01*
X41000000Y-31506100D01*
X41000000Y-33500000D01*
X40000000Y-33500000D01*
X40000000Y-31912235D01*
X39999999Y-31912234D01*
X39502680Y-32409553D01*
X39441357Y-32443038D01*
X39371665Y-32438054D01*
X39327318Y-32409553D01*
X39215454Y-32297689D01*
X39181969Y-32236366D01*
X39186953Y-32166674D01*
X39215454Y-32122327D01*
X39831681Y-31506100D01*
X39588567Y-31506100D01*
X39587659Y-31506198D01*
X39574406Y-31506908D01*
X39105555Y-31506908D01*
X39046027Y-31513309D01*
X39046019Y-31513311D01*
X38917333Y-31561308D01*
X38847641Y-31566292D01*
X38786318Y-31532807D01*
X38752834Y-31471483D01*
X38750000Y-31445126D01*
X38750000Y-29624000D01*
X38769685Y-29556961D01*
X38822489Y-29511206D01*
X38874000Y-29500000D01*
X44126000Y-29500000D01*
X44193039Y-29519685D01*
G37*
%TD.AperFunction*%
%TD*%
%TA.AperFunction,Conductor*%
%TO.N,GDT2_B*%
G36*
X38193039Y-29519685D02*
G01*
X38238794Y-29572489D01*
X38250000Y-29624000D01*
X38250000Y-31382100D01*
X38230315Y-31449139D01*
X38177511Y-31494894D01*
X38126000Y-31506100D01*
X37444423Y-31506100D01*
X38060246Y-32121923D01*
X38093731Y-32183246D01*
X38088747Y-32252938D01*
X38060246Y-32297285D01*
X37947811Y-32409720D01*
X37886488Y-32443205D01*
X37816796Y-32438221D01*
X37772449Y-32409720D01*
X37230060Y-31867331D01*
X37230060Y-36493900D01*
X37641488Y-36493900D01*
X37641504Y-36493899D01*
X37701032Y-36487498D01*
X37701039Y-36487496D01*
X37835746Y-36437254D01*
X37835753Y-36437250D01*
X37950847Y-36351090D01*
X37950850Y-36351087D01*
X38026734Y-36249721D01*
X38082668Y-36207850D01*
X38152359Y-36202866D01*
X38213682Y-36236352D01*
X38247166Y-36297675D01*
X38250000Y-36324032D01*
X38250000Y-36876000D01*
X38230315Y-36943039D01*
X38177511Y-36988794D01*
X38126000Y-37000000D01*
X32874000Y-37000000D01*
X32806961Y-36980315D01*
X32761206Y-36927511D01*
X32750000Y-36876000D01*
X32750000Y-35933273D01*
X32769685Y-35866234D01*
X32822489Y-35820479D01*
X32891647Y-35810535D01*
X32917335Y-35817092D01*
X32945519Y-35827604D01*
X32945527Y-35827606D01*
X33005055Y-35834007D01*
X33005072Y-35834008D01*
X33012400Y-35834008D01*
X33079439Y-35853693D01*
X33125194Y-35906497D01*
X33136400Y-35958008D01*
X33136400Y-36041744D01*
X33142801Y-36101272D01*
X33142803Y-36101279D01*
X33193045Y-36235986D01*
X33193049Y-36235993D01*
X33279209Y-36351087D01*
X33279212Y-36351090D01*
X33394306Y-36437250D01*
X33394313Y-36437254D01*
X33529020Y-36487496D01*
X33529027Y-36487498D01*
X33588555Y-36493899D01*
X33588572Y-36493900D01*
X34000000Y-36493900D01*
X35000000Y-36493900D01*
X35411428Y-36493900D01*
X35411444Y-36493899D01*
X35470972Y-36487498D01*
X35470976Y-36487497D01*
X35571696Y-36449931D01*
X35641388Y-36444947D01*
X35658364Y-36449931D01*
X35759083Y-36487497D01*
X35759087Y-36487498D01*
X35818615Y-36493899D01*
X35818632Y-36493900D01*
X36230060Y-36493900D01*
X36230060Y-34500000D01*
X35000000Y-34500000D01*
X35000000Y-36493900D01*
X34000000Y-36493900D01*
X34000000Y-34500000D01*
X33217400Y-34500000D01*
X33150361Y-34480315D01*
X33104606Y-34427511D01*
X33093400Y-34376000D01*
X33093400Y-34326008D01*
X33005055Y-34326008D01*
X32945527Y-34332409D01*
X32945516Y-34332412D01*
X32917332Y-34342924D01*
X32847640Y-34347908D01*
X32786318Y-34314422D01*
X32752833Y-34253099D01*
X32750000Y-34226742D01*
X32750000Y-32974889D01*
X32769685Y-32907850D01*
X32822489Y-32862095D01*
X32891647Y-32852151D01*
X32917333Y-32858707D01*
X33053292Y-32909417D01*
X33052327Y-32912003D01*
X33101605Y-32940044D01*
X33134010Y-33001945D01*
X33136400Y-33026175D01*
X33136400Y-33500000D01*
X34000000Y-33500000D01*
X35000000Y-33500000D01*
X36230060Y-33500000D01*
X36230060Y-31506100D01*
X35818615Y-31506100D01*
X35759087Y-31512501D01*
X35759079Y-31512503D01*
X35658363Y-31550068D01*
X35588671Y-31555052D01*
X35571697Y-31550068D01*
X35470980Y-31512503D01*
X35470972Y-31512501D01*
X35411444Y-31506100D01*
X35000000Y-31506100D01*
X35000000Y-33500000D01*
X34000000Y-33500000D01*
X34000000Y-31912235D01*
X33999999Y-31912234D01*
X33502680Y-32409553D01*
X33441357Y-32443038D01*
X33371665Y-32438054D01*
X33327318Y-32409553D01*
X33215454Y-32297689D01*
X33181969Y-32236366D01*
X33186953Y-32166674D01*
X33215454Y-32122327D01*
X33831681Y-31506100D01*
X33588567Y-31506100D01*
X33587659Y-31506198D01*
X33574406Y-31506908D01*
X33105555Y-31506908D01*
X33046027Y-31513309D01*
X33046019Y-31513311D01*
X32917333Y-31561308D01*
X32847641Y-31566292D01*
X32786318Y-31532807D01*
X32752834Y-31471483D01*
X32750000Y-31445126D01*
X32750000Y-29624000D01*
X32769685Y-29556961D01*
X32822489Y-29511206D01*
X32874000Y-29500000D01*
X38126000Y-29500000D01*
X38193039Y-29519685D01*
G37*
%TD.AperFunction*%
%TD*%
%TA.AperFunction,Conductor*%
%TO.N,Net-(U10-D1)*%
G36*
X32193039Y-29519685D02*
G01*
X32238794Y-29572489D01*
X32250000Y-29624000D01*
X32250000Y-31382100D01*
X32230315Y-31449139D01*
X32177511Y-31494894D01*
X32126000Y-31506100D01*
X31444423Y-31506100D01*
X32060246Y-32121923D01*
X32093731Y-32183246D01*
X32088747Y-32252938D01*
X32060246Y-32297285D01*
X31947811Y-32409720D01*
X31886488Y-32443205D01*
X31816796Y-32438221D01*
X31772449Y-32409720D01*
X31230060Y-31867331D01*
X31230060Y-36493900D01*
X31641488Y-36493900D01*
X31641504Y-36493899D01*
X31701032Y-36487498D01*
X31701039Y-36487496D01*
X31835746Y-36437254D01*
X31835753Y-36437250D01*
X31950847Y-36351090D01*
X31950850Y-36351087D01*
X32026734Y-36249721D01*
X32082668Y-36207850D01*
X32152359Y-36202866D01*
X32213682Y-36236352D01*
X32247166Y-36297675D01*
X32250000Y-36324032D01*
X32250000Y-36876000D01*
X32230315Y-36943039D01*
X32177511Y-36988794D01*
X32126000Y-37000000D01*
X26874000Y-37000000D01*
X26806961Y-36980315D01*
X26761206Y-36927511D01*
X26750000Y-36876000D01*
X26750000Y-35933273D01*
X26769685Y-35866234D01*
X26822489Y-35820479D01*
X26891647Y-35810535D01*
X26917335Y-35817092D01*
X26945519Y-35827604D01*
X26945527Y-35827606D01*
X27005055Y-35834007D01*
X27005072Y-35834008D01*
X27012400Y-35834008D01*
X27079439Y-35853693D01*
X27125194Y-35906497D01*
X27136400Y-35958008D01*
X27136400Y-36041744D01*
X27142801Y-36101272D01*
X27142803Y-36101279D01*
X27193045Y-36235986D01*
X27193049Y-36235993D01*
X27279209Y-36351087D01*
X27279212Y-36351090D01*
X27394306Y-36437250D01*
X27394313Y-36437254D01*
X27529020Y-36487496D01*
X27529027Y-36487498D01*
X27588555Y-36493899D01*
X27588572Y-36493900D01*
X28000000Y-36493900D01*
X29000000Y-36493900D01*
X29411428Y-36493900D01*
X29411444Y-36493899D01*
X29470972Y-36487498D01*
X29470976Y-36487497D01*
X29571696Y-36449931D01*
X29641388Y-36444947D01*
X29658364Y-36449931D01*
X29759083Y-36487497D01*
X29759087Y-36487498D01*
X29818615Y-36493899D01*
X29818632Y-36493900D01*
X30230060Y-36493900D01*
X30230060Y-34500000D01*
X29000000Y-34500000D01*
X29000000Y-36493900D01*
X28000000Y-36493900D01*
X28000000Y-34500000D01*
X27217400Y-34500000D01*
X27150361Y-34480315D01*
X27104606Y-34427511D01*
X27093400Y-34376000D01*
X27093400Y-34326008D01*
X27005055Y-34326008D01*
X26945527Y-34332409D01*
X26945516Y-34332412D01*
X26917332Y-34342924D01*
X26847640Y-34347908D01*
X26786318Y-34314422D01*
X26752833Y-34253099D01*
X26750000Y-34226742D01*
X26750000Y-32974889D01*
X26769685Y-32907850D01*
X26822489Y-32862095D01*
X26891647Y-32852151D01*
X26917333Y-32858707D01*
X27053292Y-32909417D01*
X27052327Y-32912003D01*
X27101605Y-32940044D01*
X27134010Y-33001945D01*
X27136400Y-33026175D01*
X27136400Y-33500000D01*
X28000000Y-33500000D01*
X29000000Y-33500000D01*
X30230060Y-33500000D01*
X30230060Y-31506100D01*
X29818615Y-31506100D01*
X29759087Y-31512501D01*
X29759079Y-31512503D01*
X29658363Y-31550068D01*
X29588671Y-31555052D01*
X29571697Y-31550068D01*
X29470980Y-31512503D01*
X29470972Y-31512501D01*
X29411444Y-31506100D01*
X29000000Y-31506100D01*
X29000000Y-33500000D01*
X28000000Y-33500000D01*
X28000000Y-31912235D01*
X27999999Y-31912234D01*
X27502680Y-32409553D01*
X27441357Y-32443038D01*
X27371665Y-32438054D01*
X27327318Y-32409553D01*
X27215454Y-32297689D01*
X27181969Y-32236366D01*
X27186953Y-32166674D01*
X27215454Y-32122327D01*
X27831681Y-31506100D01*
X27588567Y-31506100D01*
X27587659Y-31506198D01*
X27574406Y-31506908D01*
X27105555Y-31506908D01*
X27046027Y-31513309D01*
X27046019Y-31513311D01*
X26917333Y-31561308D01*
X26847641Y-31566292D01*
X26786318Y-31532807D01*
X26752834Y-31471483D01*
X26750000Y-31445126D01*
X26750000Y-29624000D01*
X26769685Y-29556961D01*
X26822489Y-29511206D01*
X26874000Y-29500000D01*
X32126000Y-29500000D01*
X32193039Y-29519685D01*
G37*
%TD.AperFunction*%
%TD*%
M02*
