%TF.GenerationSoftware,KiCad,Pcbnew,8.0.4*%
%TF.CreationDate,2024-11-10T12:25:31-05:00*%
%TF.ProjectId,booster-tc-driver,626f6f73-7465-4722-9d74-632d64726976,rev?*%
%TF.SameCoordinates,Original*%
%TF.FileFunction,Copper,L2,Inr*%
%TF.FilePolarity,Positive*%
%FSLAX46Y46*%
G04 Gerber Fmt 4.6, Leading zero omitted, Abs format (unit mm)*
G04 Created by KiCad (PCBNEW 8.0.4) date 2024-11-10 12:25:31*
%MOMM*%
%LPD*%
G01*
G04 APERTURE LIST*
G04 Aperture macros list*
%AMRoundRect*
0 Rectangle with rounded corners*
0 $1 Rounding radius*
0 $2 $3 $4 $5 $6 $7 $8 $9 X,Y pos of 4 corners*
0 Add a 4 corners polygon primitive as box body*
4,1,4,$2,$3,$4,$5,$6,$7,$8,$9,$2,$3,0*
0 Add four circle primitives for the rounded corners*
1,1,$1+$1,$2,$3*
1,1,$1+$1,$4,$5*
1,1,$1+$1,$6,$7*
1,1,$1+$1,$8,$9*
0 Add four rect primitives between the rounded corners*
20,1,$1+$1,$2,$3,$4,$5,0*
20,1,$1+$1,$4,$5,$6,$7,0*
20,1,$1+$1,$6,$7,$8,$9,0*
20,1,$1+$1,$8,$9,$2,$3,0*%
G04 Aperture macros list end*
%TA.AperFunction,ComponentPad*%
%ADD10C,1.524000*%
%TD*%
%TA.AperFunction,ComponentPad*%
%ADD11C,1.400000*%
%TD*%
%TA.AperFunction,ComponentPad*%
%ADD12C,2.020000*%
%TD*%
%TA.AperFunction,ComponentPad*%
%ADD13C,1.168400*%
%TD*%
%TA.AperFunction,ComponentPad*%
%ADD14R,1.100000X1.100000*%
%TD*%
%TA.AperFunction,ComponentPad*%
%ADD15C,1.100000*%
%TD*%
%TA.AperFunction,ComponentPad*%
%ADD16RoundRect,0.250000X-0.600000X0.600000X-0.600000X-0.600000X0.600000X-0.600000X0.600000X0.600000X0*%
%TD*%
%TA.AperFunction,ComponentPad*%
%ADD17C,1.700000*%
%TD*%
%TA.AperFunction,ComponentPad*%
%ADD18R,1.620000X1.620000*%
%TD*%
%TA.AperFunction,ComponentPad*%
%ADD19C,1.620000*%
%TD*%
%TA.AperFunction,ComponentPad*%
%ADD20R,1.397000X1.397000*%
%TD*%
%TA.AperFunction,ComponentPad*%
%ADD21C,1.397000*%
%TD*%
%TA.AperFunction,ViaPad*%
%ADD22C,0.600000*%
%TD*%
G04 APERTURE END LIST*
D10*
%TO.N,GND*%
%TO.C,SW1*%
X23260000Y-71840000D03*
X23260000Y-82000000D03*
X25800000Y-82000000D03*
%TO.N,Net-(SW1-B)*%
X23260000Y-74380000D03*
%TO.N,VDD*%
X23260000Y-76920000D03*
%TD*%
D11*
%TO.N,GND*%
%TO.C,U3*%
X31790000Y-84482500D03*
%TO.N,INT*%
X33695000Y-84482500D03*
%TO.N,+5V*%
X35600000Y-84482500D03*
%TD*%
%TO.N,Net-(U2-K)*%
%TO.C,U2*%
X53330000Y-84482500D03*
%TO.N,+5V*%
X55870000Y-84482500D03*
%TD*%
D12*
%TO.N,GDT1_B*%
%TO.C,J9*%
X28960000Y-20500000D03*
%TO.N,GDT1_A*%
X31500000Y-20500000D03*
%TD*%
D13*
%TO.N,VDD*%
%TO.C,J1*%
X33340000Y-49400000D03*
%TO.N,TMS*%
X33340000Y-50670000D03*
%TO.N,GND*%
X32070000Y-49400000D03*
%TO.N,TCK*%
X32070000Y-50670000D03*
%TO.N,GND*%
X30800000Y-49400000D03*
%TO.N,TDO*%
X30800000Y-50670000D03*
%TO.N,unconnected-(J1-Pad7)*%
X29530000Y-49400000D03*
%TO.N,TDI*%
X29530000Y-50670000D03*
%TO.N,GND*%
X28260000Y-49400000D03*
%TO.N,RST*%
X28260000Y-50670000D03*
%TD*%
D14*
%TO.N,+12V*%
%TO.C,C29*%
X50000000Y-42750000D03*
D15*
%TO.N,GND*%
X50000000Y-39250000D03*
%TD*%
D12*
%TO.N,GND*%
%TO.C,J3*%
X22460000Y-20500000D03*
%TO.N,+24V*%
X25000000Y-20500000D03*
%TD*%
D16*
%TO.N,+24V*%
%TO.C,J2*%
X58500000Y-19710000D03*
D17*
%TO.N,I_L_IN*%
X58500000Y-22250000D03*
%TO.N,GND*%
X55960000Y-19710000D03*
%TO.N,Net-(J2-Pin_4)*%
X55960000Y-22250000D03*
%TO.N,GND*%
X53420000Y-19710000D03*
%TO.N,Net-(J2-Pin_6)*%
X53420000Y-22250000D03*
%TO.N,GND*%
X50880000Y-19710000D03*
%TO.N,VBUS_IN*%
X50880000Y-22250000D03*
%TO.N,+5V*%
X48340000Y-19710000D03*
%TO.N,VAC_IN*%
X48340000Y-22250000D03*
%TD*%
D18*
%TO.N,+5V*%
%TO.C,D11*%
X63804000Y-80980000D03*
D19*
%TO.N,Net-(IC1-LED1)*%
X61264000Y-80980000D03*
%TO.N,+5V*%
X63804000Y-78440000D03*
%TO.N,Net-(IC1-LED2)*%
X61264000Y-78440000D03*
%TO.N,+5V*%
X63804000Y-75900000D03*
%TO.N,Net-(IC1-LED3)*%
X61264000Y-75900000D03*
%TD*%
D11*
%TO.N,GND*%
%TO.C,U1*%
X42390000Y-84482500D03*
%TO.N,USART_RX*%
X44295000Y-84482500D03*
%TO.N,+5V*%
X46200000Y-84482500D03*
%TD*%
D14*
%TO.N,VDD*%
%TO.C,C37*%
X50000000Y-51000000D03*
D15*
%TO.N,GND*%
X50000000Y-47500000D03*
%TD*%
D12*
%TO.N,GDT2_B*%
%TO.C,J10*%
X35235000Y-20500000D03*
%TO.N,GDT2_A*%
X37775000Y-20500000D03*
%TD*%
D20*
%TO.N,+24V*%
%TO.C,C19*%
X50000000Y-34000000D03*
D21*
%TO.N,GND*%
X50000000Y-29000000D03*
%TD*%
D22*
%TO.N,GND*%
X41500000Y-56000000D03*
X67500000Y-64500000D03*
X18000000Y-17000000D03*
X67500000Y-67000000D03*
X44750000Y-70750000D03*
X44750000Y-71412500D03*
X67500000Y-84500000D03*
X67500000Y-44500000D03*
X48681250Y-53318750D03*
X18000000Y-29500000D03*
X41500000Y-53250000D03*
X18000000Y-27000000D03*
X67500000Y-27000000D03*
X18000000Y-69500000D03*
X67500000Y-59500000D03*
X60560000Y-50000000D03*
X18000000Y-67000000D03*
X67500000Y-17000000D03*
X41637500Y-74000000D03*
X32750000Y-44362500D03*
X67500000Y-74500000D03*
X37400000Y-70600000D03*
X53750000Y-57000000D03*
X67500000Y-22000000D03*
X67500000Y-19500000D03*
X18000000Y-32000000D03*
X48750000Y-58000000D03*
X35750000Y-65500000D03*
X30000000Y-63500000D03*
X18000000Y-74500000D03*
X45500000Y-27000000D03*
X67500000Y-37000000D03*
X67500000Y-24500000D03*
X27750000Y-38750000D03*
X45500000Y-71412500D03*
X67500000Y-32000000D03*
X18000000Y-59500000D03*
X33000000Y-56000000D03*
X38250000Y-63500000D03*
X18000000Y-52000000D03*
X18000000Y-57000000D03*
X18000000Y-84500000D03*
X18000000Y-24500000D03*
X67500000Y-87000000D03*
X67500000Y-47000000D03*
X53500000Y-63000000D03*
X18000000Y-54500000D03*
X18000000Y-22000000D03*
X18000000Y-87000000D03*
X33750000Y-55250000D03*
X18000000Y-19500000D03*
X67500000Y-57000000D03*
X18000000Y-72000000D03*
X50750000Y-60000000D03*
X67500000Y-79500000D03*
X45500000Y-70750000D03*
X52250000Y-68000000D03*
X18000000Y-79500000D03*
X18000000Y-82000000D03*
X67500000Y-29500000D03*
X38400000Y-67200000D03*
X67500000Y-42000000D03*
X39750000Y-38750000D03*
X46000000Y-66250000D03*
X67500000Y-39500000D03*
X30000000Y-69500000D03*
X49750000Y-66750000D03*
X67500000Y-52000000D03*
X37382500Y-44362500D03*
X18000000Y-42000000D03*
X67500000Y-62000000D03*
X42000000Y-64750000D03*
X51500000Y-84750000D03*
X67500000Y-72000000D03*
X50500000Y-79750000D03*
X67500000Y-69500000D03*
X18000000Y-37000000D03*
X36250000Y-61250000D03*
X39000000Y-84750000D03*
X18000000Y-44500000D03*
X33750000Y-38750000D03*
X18000000Y-49500000D03*
X67500000Y-77000000D03*
X18000000Y-47000000D03*
X67500000Y-49500000D03*
X21750000Y-38750000D03*
X28760000Y-54000000D03*
X67500000Y-82000000D03*
X18000000Y-62000000D03*
X28000000Y-75000000D03*
X67500000Y-34500000D03*
X26020000Y-45000000D03*
X18000000Y-39500000D03*
X18000000Y-77000000D03*
X34750000Y-57750000D03*
X18000000Y-34500000D03*
X18000000Y-64500000D03*
X67500000Y-54500000D03*
%TO.N,+5V*%
X64250000Y-57500000D03*
%TO.N,VDD*%
X35000000Y-75000000D03*
X53500000Y-60750000D03*
X25750000Y-50500000D03*
X47250000Y-63250000D03*
X35750000Y-66750000D03*
X51000000Y-73250000D03*
X32500000Y-54750000D03*
X39000000Y-63500000D03*
X41500000Y-55250000D03*
X62750000Y-66500000D03*
%TO.N,USART_RX*%
X39000000Y-78250000D03*
%TO.N,INT*%
X39000000Y-77500000D03*
%TO.N,I_L*%
X45000000Y-62000000D03*
X39000000Y-59250000D03*
%TO.N,CT+*%
X26425000Y-63000000D03*
%TO.N,MODE_IN*%
X33750000Y-61000000D03*
%TO.N,CT-*%
X28000000Y-63000000D03*
%TO.N,I_PRI*%
X29250000Y-57500000D03*
%TO.N,VREF*%
X36000000Y-63500000D03*
X39300000Y-66021001D03*
%TO.N,VBUS_SENSE*%
X39000000Y-58500000D03*
X44000000Y-57750000D03*
%TO.N,VAC_SENSE*%
X42375000Y-60875000D03*
%TO.N,VDDA*%
X37000000Y-63500000D03*
%TO.N,THERM2*%
X41500000Y-68900000D03*
X43056250Y-66549143D03*
X33000000Y-59500000D03*
%TO.N,THERM1*%
X33000000Y-60250000D03*
X41400000Y-66600000D03*
X40900000Y-68500000D03*
%TO.N,+24V*%
X61750000Y-40000000D03*
X36250000Y-38750000D03*
X42250000Y-38750000D03*
X24250000Y-38750000D03*
X57000000Y-75000000D03*
X30250000Y-38750000D03*
X61750000Y-38250000D03*
X61750000Y-39250000D03*
%TO.N,+12V*%
X37625000Y-41875000D03*
X55500000Y-34750000D03*
X55500000Y-35500000D03*
%TO.N,THERM_BOARD*%
X39000000Y-60400000D03*
%TO.N,Net-(Q2-D)*%
X50250000Y-70250000D03*
X50250000Y-71000000D03*
X50250000Y-71750000D03*
X50250000Y-69500000D03*
%TO.N,24V_SENSE*%
X38150000Y-72650000D03*
%TO.N,Net-(U10-G2)*%
X31500000Y-38750000D03*
%TO.N,Net-(IC4-OUT_A)*%
X29000000Y-38750000D03*
%TO.N,Net-(IC4-OUT_B)*%
X23000000Y-38750000D03*
%TO.N,Net-(U11-G2)*%
X25500000Y-38750000D03*
%TO.N,Net-(U12-G2)*%
X43500000Y-38750000D03*
%TO.N,Net-(IC5-OUT_A)*%
X41000000Y-38750000D03*
%TO.N,Net-(IC5-OUT_B)*%
X35000000Y-38750000D03*
%TO.N,Net-(U13-G2)*%
X37500000Y-38750000D03*
%TO.N,Net-(U10-D1)*%
X28750000Y-31000000D03*
X31750000Y-31000000D03*
X29750000Y-31000000D03*
X30250000Y-30250000D03*
X28250000Y-30250000D03*
X27250000Y-30250000D03*
X27750000Y-31000000D03*
X31250000Y-30250000D03*
X29250000Y-30250000D03*
X30750000Y-31000000D03*
%TO.N,Net-(U12-D1)*%
X43750000Y-31000000D03*
X39250000Y-30250000D03*
X39750000Y-31000000D03*
X41250000Y-30250000D03*
X40250000Y-30250000D03*
X42750000Y-31000000D03*
X43250000Y-30250000D03*
X40750000Y-31000000D03*
X41750000Y-31000000D03*
X42250000Y-30250000D03*
%TO.N,LED_TMP*%
X53250000Y-72250000D03*
%TO.N,LED_VBUS*%
X52500000Y-72250000D03*
%TO.N,LED_I_IN*%
X54000000Y-72250000D03*
%TO.N,GDT1_DIS*%
X28520000Y-42000000D03*
X28520000Y-45000000D03*
%TO.N,GDT_A*%
X27250000Y-47250000D03*
X39250000Y-47250000D03*
X32500000Y-46750000D03*
%TO.N,GDT_B*%
X36750000Y-47250000D03*
X24750000Y-47250000D03*
%TO.N,GDT2_DIS*%
X40520000Y-45000000D03*
X40580000Y-42000000D03*
%TO.N,TDO*%
X36800000Y-52800000D03*
%TO.N,TCK*%
X38000000Y-52000000D03*
%TO.N,TDI*%
X37400000Y-52400000D03*
%TO.N,TMS*%
X38600000Y-51600000D03*
%TO.N,VBUS_IN*%
X46500000Y-42750000D03*
%TO.N,I_L_IN*%
X45750000Y-60750000D03*
%TO.N,VAC_IN*%
X42500000Y-47000000D03*
%TO.N,PFC*%
X41750000Y-57912500D03*
%TO.N,SCR*%
X36500000Y-60250000D03*
%TO.N,GDT1_B*%
X22250000Y-30250000D03*
X24250000Y-30250000D03*
X21250000Y-30250000D03*
X23750000Y-31000000D03*
X21750000Y-31000000D03*
X24750000Y-31000000D03*
X22750000Y-31000000D03*
X23250000Y-30250000D03*
X25250000Y-30250000D03*
X25750000Y-31000000D03*
%TO.N,GDT2_B*%
X37250000Y-30250000D03*
X35750000Y-31000000D03*
X34750000Y-31000000D03*
X36750000Y-31000000D03*
X33250000Y-30250000D03*
X34250000Y-30250000D03*
X36250000Y-30250000D03*
X37750000Y-31000000D03*
X33750000Y-31000000D03*
X35250000Y-30250000D03*
%TO.N,USART_TX*%
X44500000Y-74250000D03*
%TO.N,Net-(U4-INPUT)*%
X34750000Y-58500000D03*
%TO.N,Net-(U4-OUTPUT)*%
X34750000Y-57000000D03*
%TO.N,FAN_EN*%
X41400000Y-71400000D03*
%TO.N,Net-(J4-Pad1)*%
X22000000Y-63500000D03*
%TO.N,Net-(J4-Pad2)*%
X22250000Y-66500000D03*
%TO.N,FAN_PWM*%
X53800000Y-59600000D03*
X46500000Y-58912500D03*
%TO.N,Net-(J2-Pin_6)*%
X39250000Y-51250000D03*
%TO.N,Net-(J2-Pin_4)*%
X40500000Y-54500000D03*
%TD*%
%TA.AperFunction,Conductor*%
%TO.N,GND*%
G36*
X68500000Y-33750000D02*
G01*
X62500000Y-33750000D01*
X62500000Y-24500000D01*
X68500000Y-24500000D01*
X68500000Y-33750000D01*
G37*
%TD.AperFunction*%
%TD*%
%TA.AperFunction,Conductor*%
%TO.N,GND*%
G36*
X69243039Y-16019685D02*
G01*
X69288794Y-16072489D01*
X69300000Y-16124000D01*
X69300000Y-87876000D01*
X69280315Y-87943039D01*
X69227511Y-87988794D01*
X69176000Y-88000000D01*
X57447478Y-88000000D01*
X57380439Y-87980315D01*
X57334684Y-87927511D01*
X57324740Y-87858353D01*
X57353765Y-87794797D01*
X57393676Y-87764280D01*
X57473526Y-87725825D01*
X57545001Y-87691405D01*
X57683308Y-87581108D01*
X57793605Y-87442801D01*
X57870360Y-87283418D01*
X57909724Y-87110951D01*
X57912200Y-87022500D01*
X57909724Y-86934049D01*
X57870360Y-86761582D01*
X57793605Y-86602199D01*
X57683308Y-86463892D01*
X57604097Y-86400723D01*
X57545003Y-86353596D01*
X57545000Y-86353594D01*
X57385618Y-86276839D01*
X57213157Y-86237476D01*
X57213151Y-86237476D01*
X57036249Y-86237476D01*
X57036242Y-86237476D01*
X56863781Y-86276839D01*
X56704399Y-86353594D01*
X56704396Y-86353596D01*
X56566092Y-86463892D01*
X56455796Y-86602196D01*
X56455794Y-86602199D01*
X56379039Y-86761581D01*
X56339676Y-86934042D01*
X56339676Y-87110957D01*
X56379039Y-87283418D01*
X56455794Y-87442800D01*
X56455796Y-87442803D01*
X56502923Y-87501897D01*
X56566092Y-87581108D01*
X56665417Y-87660317D01*
X56704396Y-87691403D01*
X56704399Y-87691405D01*
X56855724Y-87764280D01*
X56907583Y-87811103D01*
X56925896Y-87878530D01*
X56904848Y-87945154D01*
X56851122Y-87989822D01*
X56801922Y-88000000D01*
X52367778Y-88000000D01*
X52300739Y-87980315D01*
X52254984Y-87927511D01*
X52245040Y-87858353D01*
X52274065Y-87794797D01*
X52313976Y-87764280D01*
X52393826Y-87725825D01*
X52465301Y-87691405D01*
X52603608Y-87581108D01*
X52713905Y-87442801D01*
X52790660Y-87283418D01*
X52830024Y-87110951D01*
X52832500Y-87022500D01*
X52830024Y-86934049D01*
X52790660Y-86761582D01*
X52713905Y-86602199D01*
X52603608Y-86463892D01*
X52524397Y-86400723D01*
X52465303Y-86353596D01*
X52465300Y-86353594D01*
X52305918Y-86276839D01*
X52133457Y-86237476D01*
X52133451Y-86237476D01*
X51956549Y-86237476D01*
X51956542Y-86237476D01*
X51784081Y-86276839D01*
X51624699Y-86353594D01*
X51624696Y-86353596D01*
X51486392Y-86463892D01*
X51376096Y-86602196D01*
X51376094Y-86602199D01*
X51299339Y-86761581D01*
X51259976Y-86934042D01*
X51259976Y-87110957D01*
X51299339Y-87283418D01*
X51376094Y-87442800D01*
X51376096Y-87442803D01*
X51423223Y-87501897D01*
X51486392Y-87581108D01*
X51585717Y-87660317D01*
X51624696Y-87691403D01*
X51624699Y-87691405D01*
X51776024Y-87764280D01*
X51827883Y-87811103D01*
X51846196Y-87878530D01*
X51825148Y-87945154D01*
X51771422Y-87989822D01*
X51722222Y-88000000D01*
X47157478Y-88000000D01*
X47090439Y-87980315D01*
X47044684Y-87927511D01*
X47034740Y-87858353D01*
X47063765Y-87794797D01*
X47103676Y-87764280D01*
X47183526Y-87725825D01*
X47255001Y-87691405D01*
X47393308Y-87581108D01*
X47503605Y-87442801D01*
X47580360Y-87283418D01*
X47619724Y-87110951D01*
X47622200Y-87022500D01*
X47619724Y-86934049D01*
X47580360Y-86761582D01*
X47503605Y-86602199D01*
X47393308Y-86463892D01*
X47314097Y-86400723D01*
X47255003Y-86353596D01*
X47255000Y-86353594D01*
X47095618Y-86276839D01*
X46923157Y-86237476D01*
X46923151Y-86237476D01*
X46746249Y-86237476D01*
X46746242Y-86237476D01*
X46573781Y-86276839D01*
X46414399Y-86353594D01*
X46414396Y-86353596D01*
X46276092Y-86463892D01*
X46165796Y-86602196D01*
X46165794Y-86602199D01*
X46089039Y-86761581D01*
X46049676Y-86934042D01*
X46049676Y-87110957D01*
X46089039Y-87283418D01*
X46165794Y-87442800D01*
X46165796Y-87442803D01*
X46212923Y-87501897D01*
X46276092Y-87581108D01*
X46375417Y-87660317D01*
X46414396Y-87691403D01*
X46414399Y-87691405D01*
X46565724Y-87764280D01*
X46617583Y-87811103D01*
X46635896Y-87878530D01*
X46614848Y-87945154D01*
X46561122Y-87989822D01*
X46511922Y-88000000D01*
X42077778Y-88000000D01*
X42010739Y-87980315D01*
X41964984Y-87927511D01*
X41955040Y-87858353D01*
X41984065Y-87794797D01*
X42023976Y-87764280D01*
X42103826Y-87725825D01*
X42175301Y-87691405D01*
X42313608Y-87581108D01*
X42423905Y-87442801D01*
X42500660Y-87283418D01*
X42540024Y-87110951D01*
X42542500Y-87022500D01*
X42540024Y-86934049D01*
X42500660Y-86761582D01*
X42423905Y-86602199D01*
X42313608Y-86463892D01*
X42234397Y-86400723D01*
X42175303Y-86353596D01*
X42175300Y-86353594D01*
X42015918Y-86276839D01*
X41843457Y-86237476D01*
X41843451Y-86237476D01*
X41666549Y-86237476D01*
X41666542Y-86237476D01*
X41494081Y-86276839D01*
X41334699Y-86353594D01*
X41334696Y-86353596D01*
X41196392Y-86463892D01*
X41086096Y-86602196D01*
X41086094Y-86602199D01*
X41009339Y-86761581D01*
X40969976Y-86934042D01*
X40969976Y-87110957D01*
X41009339Y-87283418D01*
X41086094Y-87442800D01*
X41086096Y-87442803D01*
X41133223Y-87501897D01*
X41196392Y-87581108D01*
X41295717Y-87660317D01*
X41334696Y-87691403D01*
X41334699Y-87691405D01*
X41486024Y-87764280D01*
X41537883Y-87811103D01*
X41556196Y-87878530D01*
X41535148Y-87945154D01*
X41481422Y-87989822D01*
X41432222Y-88000000D01*
X36557478Y-88000000D01*
X36490439Y-87980315D01*
X36444684Y-87927511D01*
X36434740Y-87858353D01*
X36463765Y-87794797D01*
X36503676Y-87764280D01*
X36583526Y-87725825D01*
X36655001Y-87691405D01*
X36793308Y-87581108D01*
X36903605Y-87442801D01*
X36980360Y-87283418D01*
X37019724Y-87110951D01*
X37022200Y-87022500D01*
X37019724Y-86934049D01*
X36980360Y-86761582D01*
X36903605Y-86602199D01*
X36793308Y-86463892D01*
X36714097Y-86400723D01*
X36655003Y-86353596D01*
X36655000Y-86353594D01*
X36495618Y-86276839D01*
X36323157Y-86237476D01*
X36323151Y-86237476D01*
X36146249Y-86237476D01*
X36146242Y-86237476D01*
X35973781Y-86276839D01*
X35814399Y-86353594D01*
X35814396Y-86353596D01*
X35676092Y-86463892D01*
X35565796Y-86602196D01*
X35565794Y-86602199D01*
X35489039Y-86761581D01*
X35449676Y-86934042D01*
X35449676Y-87110957D01*
X35489039Y-87283418D01*
X35565794Y-87442800D01*
X35565796Y-87442803D01*
X35612923Y-87501897D01*
X35676092Y-87581108D01*
X35775417Y-87660317D01*
X35814396Y-87691403D01*
X35814399Y-87691405D01*
X35965724Y-87764280D01*
X36017583Y-87811103D01*
X36035896Y-87878530D01*
X36014848Y-87945154D01*
X35961122Y-87989822D01*
X35911922Y-88000000D01*
X31477778Y-88000000D01*
X31410739Y-87980315D01*
X31364984Y-87927511D01*
X31355040Y-87858353D01*
X31384065Y-87794797D01*
X31423976Y-87764280D01*
X31503826Y-87725825D01*
X31575301Y-87691405D01*
X31713608Y-87581108D01*
X31823905Y-87442801D01*
X31900660Y-87283418D01*
X31940024Y-87110951D01*
X31942500Y-87022500D01*
X31940024Y-86934049D01*
X31900660Y-86761582D01*
X31823905Y-86602199D01*
X31713608Y-86463892D01*
X31634397Y-86400723D01*
X31575303Y-86353596D01*
X31575300Y-86353594D01*
X31415918Y-86276839D01*
X31243457Y-86237476D01*
X31243451Y-86237476D01*
X31066549Y-86237476D01*
X31066542Y-86237476D01*
X30894081Y-86276839D01*
X30734699Y-86353594D01*
X30734696Y-86353596D01*
X30596392Y-86463892D01*
X30486096Y-86602196D01*
X30486094Y-86602199D01*
X30409339Y-86761581D01*
X30369976Y-86934042D01*
X30369976Y-87110957D01*
X30409339Y-87283418D01*
X30486094Y-87442800D01*
X30486096Y-87442803D01*
X30533223Y-87501897D01*
X30596392Y-87581108D01*
X30695717Y-87660317D01*
X30734696Y-87691403D01*
X30734699Y-87691405D01*
X30886024Y-87764280D01*
X30937883Y-87811103D01*
X30956196Y-87878530D01*
X30935148Y-87945154D01*
X30881422Y-87989822D01*
X30832222Y-88000000D01*
X16124000Y-88000000D01*
X16056961Y-87980315D01*
X16011206Y-87927511D01*
X16000000Y-87876000D01*
X16000000Y-84482500D01*
X32739901Y-84482500D01*
X32758252Y-84668831D01*
X32758253Y-84668833D01*
X32812604Y-84848002D01*
X32900862Y-85013123D01*
X32900864Y-85013126D01*
X33019642Y-85157857D01*
X33164373Y-85276635D01*
X33164376Y-85276637D01*
X33329497Y-85364895D01*
X33329499Y-85364896D01*
X33508666Y-85419246D01*
X33508668Y-85419247D01*
X33525374Y-85420892D01*
X33695000Y-85437599D01*
X33881331Y-85419247D01*
X34060501Y-85364896D01*
X34225625Y-85276636D01*
X34370357Y-85157857D01*
X34489136Y-85013125D01*
X34538142Y-84921441D01*
X34587104Y-84871597D01*
X34655241Y-84856136D01*
X34720921Y-84879967D01*
X34756858Y-84921441D01*
X34805862Y-85013123D01*
X34805864Y-85013126D01*
X34924642Y-85157857D01*
X35069373Y-85276635D01*
X35069376Y-85276637D01*
X35234497Y-85364895D01*
X35234499Y-85364896D01*
X35413666Y-85419246D01*
X35413668Y-85419247D01*
X35430374Y-85420892D01*
X35600000Y-85437599D01*
X35786331Y-85419247D01*
X35965501Y-85364896D01*
X36130625Y-85276636D01*
X36275357Y-85157857D01*
X36394136Y-85013125D01*
X36482396Y-84848001D01*
X36536747Y-84668831D01*
X36555099Y-84482500D01*
X43339901Y-84482500D01*
X43358252Y-84668831D01*
X43358253Y-84668833D01*
X43412604Y-84848002D01*
X43500862Y-85013123D01*
X43500864Y-85013126D01*
X43619642Y-85157857D01*
X43764373Y-85276635D01*
X43764376Y-85276637D01*
X43929497Y-85364895D01*
X43929499Y-85364896D01*
X44108666Y-85419246D01*
X44108668Y-85419247D01*
X44125374Y-85420892D01*
X44295000Y-85437599D01*
X44481331Y-85419247D01*
X44660501Y-85364896D01*
X44825625Y-85276636D01*
X44970357Y-85157857D01*
X45089136Y-85013125D01*
X45138142Y-84921441D01*
X45187104Y-84871597D01*
X45255241Y-84856136D01*
X45320921Y-84879967D01*
X45356858Y-84921441D01*
X45405862Y-85013123D01*
X45405864Y-85013126D01*
X45524642Y-85157857D01*
X45669373Y-85276635D01*
X45669376Y-85276637D01*
X45834497Y-85364895D01*
X45834499Y-85364896D01*
X46013666Y-85419246D01*
X46013668Y-85419247D01*
X46030374Y-85420892D01*
X46200000Y-85437599D01*
X46386331Y-85419247D01*
X46565501Y-85364896D01*
X46730625Y-85276636D01*
X46875357Y-85157857D01*
X46994136Y-85013125D01*
X47082396Y-84848001D01*
X47136747Y-84668831D01*
X47155099Y-84482500D01*
X52374901Y-84482500D01*
X52393252Y-84668831D01*
X52393253Y-84668833D01*
X52447604Y-84848002D01*
X52535862Y-85013123D01*
X52535864Y-85013126D01*
X52654642Y-85157857D01*
X52799373Y-85276635D01*
X52799376Y-85276637D01*
X52964497Y-85364895D01*
X52964499Y-85364896D01*
X53143666Y-85419246D01*
X53143668Y-85419247D01*
X53160374Y-85420892D01*
X53330000Y-85437599D01*
X53516331Y-85419247D01*
X53695501Y-85364896D01*
X53860625Y-85276636D01*
X54005357Y-85157857D01*
X54124136Y-85013125D01*
X54212396Y-84848001D01*
X54266747Y-84668831D01*
X54285099Y-84482500D01*
X54914901Y-84482500D01*
X54933252Y-84668831D01*
X54933253Y-84668833D01*
X54987604Y-84848002D01*
X55075862Y-85013123D01*
X55075864Y-85013126D01*
X55194642Y-85157857D01*
X55339373Y-85276635D01*
X55339376Y-85276637D01*
X55504497Y-85364895D01*
X55504499Y-85364896D01*
X55683666Y-85419246D01*
X55683668Y-85419247D01*
X55700374Y-85420892D01*
X55870000Y-85437599D01*
X56056331Y-85419247D01*
X56235501Y-85364896D01*
X56400625Y-85276636D01*
X56545357Y-85157857D01*
X56664136Y-85013125D01*
X56752396Y-84848001D01*
X56806747Y-84668831D01*
X56825099Y-84482500D01*
X56806747Y-84296169D01*
X56752396Y-84116999D01*
X56664136Y-83951875D01*
X56664135Y-83951873D01*
X56545357Y-83807142D01*
X56400626Y-83688364D01*
X56400623Y-83688362D01*
X56235502Y-83600104D01*
X56056333Y-83545753D01*
X56056331Y-83545752D01*
X55870000Y-83527401D01*
X55683668Y-83545752D01*
X55683666Y-83545753D01*
X55504497Y-83600104D01*
X55339376Y-83688362D01*
X55339373Y-83688364D01*
X55194642Y-83807142D01*
X55075864Y-83951873D01*
X55075862Y-83951876D01*
X54987604Y-84116997D01*
X54933253Y-84296166D01*
X54933252Y-84296168D01*
X54914901Y-84482500D01*
X54285099Y-84482500D01*
X54266747Y-84296169D01*
X54212396Y-84116999D01*
X54124136Y-83951875D01*
X54124135Y-83951873D01*
X54005357Y-83807142D01*
X53860626Y-83688364D01*
X53860623Y-83688362D01*
X53695502Y-83600104D01*
X53516333Y-83545753D01*
X53516331Y-83545752D01*
X53330000Y-83527401D01*
X53143668Y-83545752D01*
X53143666Y-83545753D01*
X52964497Y-83600104D01*
X52799376Y-83688362D01*
X52799373Y-83688364D01*
X52654642Y-83807142D01*
X52535864Y-83951873D01*
X52535862Y-83951876D01*
X52447604Y-84116997D01*
X52393253Y-84296166D01*
X52393252Y-84296168D01*
X52374901Y-84482500D01*
X47155099Y-84482500D01*
X47136747Y-84296169D01*
X47082396Y-84116999D01*
X46994136Y-83951875D01*
X46994135Y-83951873D01*
X46875357Y-83807142D01*
X46730626Y-83688364D01*
X46730623Y-83688362D01*
X46565502Y-83600104D01*
X46386333Y-83545753D01*
X46386331Y-83545752D01*
X46200000Y-83527401D01*
X46013668Y-83545752D01*
X46013666Y-83545753D01*
X45834497Y-83600104D01*
X45669376Y-83688362D01*
X45669373Y-83688364D01*
X45524642Y-83807142D01*
X45405864Y-83951873D01*
X45405862Y-83951876D01*
X45356858Y-84043558D01*
X45307896Y-84093402D01*
X45239758Y-84108863D01*
X45174078Y-84085031D01*
X45138142Y-84043558D01*
X45089137Y-83951876D01*
X45089135Y-83951873D01*
X44970357Y-83807142D01*
X44825626Y-83688364D01*
X44825623Y-83688362D01*
X44660502Y-83600104D01*
X44481333Y-83545753D01*
X44481331Y-83545752D01*
X44295000Y-83527401D01*
X44108668Y-83545752D01*
X44108666Y-83545753D01*
X43929497Y-83600104D01*
X43764376Y-83688362D01*
X43764373Y-83688364D01*
X43619642Y-83807142D01*
X43500864Y-83951873D01*
X43500862Y-83951876D01*
X43412604Y-84116997D01*
X43358253Y-84296166D01*
X43358252Y-84296168D01*
X43339901Y-84482500D01*
X36555099Y-84482500D01*
X36536747Y-84296169D01*
X36482396Y-84116999D01*
X36394136Y-83951875D01*
X36394135Y-83951873D01*
X36275357Y-83807142D01*
X36130626Y-83688364D01*
X36130623Y-83688362D01*
X35965502Y-83600104D01*
X35786333Y-83545753D01*
X35786331Y-83545752D01*
X35600000Y-83527401D01*
X35413668Y-83545752D01*
X35413666Y-83545753D01*
X35234497Y-83600104D01*
X35069376Y-83688362D01*
X35069373Y-83688364D01*
X34924642Y-83807142D01*
X34805864Y-83951873D01*
X34805862Y-83951876D01*
X34756858Y-84043558D01*
X34707896Y-84093402D01*
X34639758Y-84108863D01*
X34574078Y-84085031D01*
X34538142Y-84043558D01*
X34489137Y-83951876D01*
X34489135Y-83951873D01*
X34370357Y-83807142D01*
X34225626Y-83688364D01*
X34225623Y-83688362D01*
X34060502Y-83600104D01*
X33881333Y-83545753D01*
X33881331Y-83545752D01*
X33695000Y-83527401D01*
X33508668Y-83545752D01*
X33508666Y-83545753D01*
X33329497Y-83600104D01*
X33164376Y-83688362D01*
X33164373Y-83688364D01*
X33019642Y-83807142D01*
X32900864Y-83951873D01*
X32900862Y-83951876D01*
X32812604Y-84116997D01*
X32758253Y-84296166D01*
X32758252Y-84296168D01*
X32739901Y-84482500D01*
X16000000Y-84482500D01*
X16000000Y-79277748D01*
X32109947Y-79277748D01*
X32109947Y-79527251D01*
X32148975Y-79773664D01*
X32148976Y-79773668D01*
X32226074Y-80010949D01*
X32339341Y-80233249D01*
X32485989Y-80435093D01*
X32662407Y-80611511D01*
X32864251Y-80758159D01*
X33086551Y-80871426D01*
X33323832Y-80948524D01*
X33416240Y-80963159D01*
X33570249Y-80987553D01*
X33819746Y-80987553D01*
X33819751Y-80987553D01*
X33956647Y-80965870D01*
X34066168Y-80948524D01*
X34303449Y-80871426D01*
X34525749Y-80758159D01*
X34727593Y-80611511D01*
X34904011Y-80435093D01*
X35050659Y-80233249D01*
X35163926Y-80010949D01*
X35241024Y-79773668D01*
X35280053Y-79527246D01*
X35282500Y-79402500D01*
X35280053Y-79277754D01*
X35280052Y-79277748D01*
X42709947Y-79277748D01*
X42709947Y-79527251D01*
X42748975Y-79773664D01*
X42748976Y-79773668D01*
X42826074Y-80010949D01*
X42939341Y-80233249D01*
X43085989Y-80435093D01*
X43262407Y-80611511D01*
X43464251Y-80758159D01*
X43686551Y-80871426D01*
X43923832Y-80948524D01*
X44016240Y-80963159D01*
X44170249Y-80987553D01*
X44419746Y-80987553D01*
X44419751Y-80987553D01*
X44556647Y-80965870D01*
X44666168Y-80948524D01*
X44903449Y-80871426D01*
X45125749Y-80758159D01*
X45327593Y-80611511D01*
X45504011Y-80435093D01*
X45650659Y-80233249D01*
X45763926Y-80010949D01*
X45841024Y-79773668D01*
X45880053Y-79527246D01*
X45882500Y-79402500D01*
X45880053Y-79277754D01*
X45880052Y-79277748D01*
X52999947Y-79277748D01*
X52999947Y-79527251D01*
X53038975Y-79773664D01*
X53038976Y-79773668D01*
X53116074Y-80010949D01*
X53229341Y-80233249D01*
X53375989Y-80435093D01*
X53552407Y-80611511D01*
X53754251Y-80758159D01*
X53976551Y-80871426D01*
X54213832Y-80948524D01*
X54306240Y-80963159D01*
X54460249Y-80987553D01*
X54709746Y-80987553D01*
X54709751Y-80987553D01*
X54757437Y-80980000D01*
X60198369Y-80980000D01*
X60218844Y-81187892D01*
X60218845Y-81187894D01*
X60279485Y-81387799D01*
X60279486Y-81387802D01*
X60279487Y-81387803D01*
X60279488Y-81387806D01*
X60377956Y-81572027D01*
X60377960Y-81572034D01*
X60510484Y-81733515D01*
X60671965Y-81866039D01*
X60671972Y-81866043D01*
X60856193Y-81964511D01*
X60856194Y-81964511D01*
X60856201Y-81964515D01*
X61056106Y-82025155D01*
X61056105Y-82025155D01*
X61064340Y-82025966D01*
X61264000Y-82045631D01*
X61471894Y-82025155D01*
X61671799Y-81964515D01*
X61856033Y-81866040D01*
X62017515Y-81733515D01*
X62150040Y-81572033D01*
X62248515Y-81387799D01*
X62309155Y-81187894D01*
X62329631Y-80980000D01*
X62309155Y-80772106D01*
X62248515Y-80572201D01*
X62248511Y-80572193D01*
X62150043Y-80387972D01*
X62150039Y-80387965D01*
X62017515Y-80226484D01*
X61918618Y-80145321D01*
X62743500Y-80145321D01*
X62743500Y-81814678D01*
X62758032Y-81887735D01*
X62758033Y-81887739D01*
X62758034Y-81887740D01*
X62813399Y-81970601D01*
X62895046Y-82025155D01*
X62896260Y-82025966D01*
X62896264Y-82025967D01*
X62969321Y-82040499D01*
X62969324Y-82040500D01*
X62969326Y-82040500D01*
X64638676Y-82040500D01*
X64638677Y-82040499D01*
X64711740Y-82025966D01*
X64794601Y-81970601D01*
X64849966Y-81887740D01*
X64864500Y-81814674D01*
X64864500Y-80145326D01*
X64864500Y-80145323D01*
X64864499Y-80145321D01*
X64849967Y-80072264D01*
X64849966Y-80072260D01*
X64794601Y-79989399D01*
X64712954Y-79934845D01*
X64711739Y-79934033D01*
X64711735Y-79934032D01*
X64638677Y-79919500D01*
X64638674Y-79919500D01*
X62969326Y-79919500D01*
X62969323Y-79919500D01*
X62896264Y-79934032D01*
X62896260Y-79934033D01*
X62813399Y-79989399D01*
X62758033Y-80072260D01*
X62758032Y-80072264D01*
X62743500Y-80145321D01*
X61918618Y-80145321D01*
X61856034Y-80093960D01*
X61856027Y-80093956D01*
X61671806Y-79995488D01*
X61671803Y-79995487D01*
X61671802Y-79995486D01*
X61671799Y-79995485D01*
X61471894Y-79934845D01*
X61471892Y-79934844D01*
X61471894Y-79934844D01*
X61264000Y-79914369D01*
X61056107Y-79934844D01*
X60938075Y-79970648D01*
X60856201Y-79995485D01*
X60856198Y-79995486D01*
X60856196Y-79995487D01*
X60856193Y-79995488D01*
X60671972Y-80093956D01*
X60671965Y-80093960D01*
X60510484Y-80226484D01*
X60377960Y-80387965D01*
X60377956Y-80387972D01*
X60279488Y-80572193D01*
X60279487Y-80572196D01*
X60218844Y-80772107D01*
X60198369Y-80980000D01*
X54757437Y-80980000D01*
X54846647Y-80965870D01*
X54956168Y-80948524D01*
X55193449Y-80871426D01*
X55415749Y-80758159D01*
X55617593Y-80611511D01*
X55794011Y-80435093D01*
X55940659Y-80233249D01*
X56053926Y-80010949D01*
X56131024Y-79773668D01*
X56170053Y-79527246D01*
X56172500Y-79402500D01*
X56170053Y-79277754D01*
X56131024Y-79031332D01*
X56053926Y-78794051D01*
X55940659Y-78571751D01*
X55844936Y-78440000D01*
X60198369Y-78440000D01*
X60218844Y-78647892D01*
X60218845Y-78647894D01*
X60279485Y-78847799D01*
X60279486Y-78847802D01*
X60279487Y-78847803D01*
X60279488Y-78847806D01*
X60377956Y-79032027D01*
X60377960Y-79032034D01*
X60510484Y-79193515D01*
X60671965Y-79326039D01*
X60671972Y-79326043D01*
X60856193Y-79424511D01*
X60856194Y-79424511D01*
X60856201Y-79424515D01*
X61056106Y-79485155D01*
X61056105Y-79485155D01*
X61074745Y-79486990D01*
X61264000Y-79505631D01*
X61471894Y-79485155D01*
X61671799Y-79424515D01*
X61856033Y-79326040D01*
X62017515Y-79193515D01*
X62150040Y-79032033D01*
X62248515Y-78847799D01*
X62309155Y-78647894D01*
X62329631Y-78440000D01*
X62738369Y-78440000D01*
X62758844Y-78647892D01*
X62758845Y-78647894D01*
X62819485Y-78847799D01*
X62819486Y-78847802D01*
X62819487Y-78847803D01*
X62819488Y-78847806D01*
X62917956Y-79032027D01*
X62917960Y-79032034D01*
X63050484Y-79193515D01*
X63211965Y-79326039D01*
X63211972Y-79326043D01*
X63396193Y-79424511D01*
X63396194Y-79424511D01*
X63396201Y-79424515D01*
X63596106Y-79485155D01*
X63596105Y-79485155D01*
X63614745Y-79486990D01*
X63804000Y-79505631D01*
X64011894Y-79485155D01*
X64211799Y-79424515D01*
X64396033Y-79326040D01*
X64557515Y-79193515D01*
X64690040Y-79032033D01*
X64788515Y-78847799D01*
X64849155Y-78647894D01*
X64869631Y-78440000D01*
X64849155Y-78232106D01*
X64788515Y-78032201D01*
X64756538Y-77972376D01*
X64690043Y-77847972D01*
X64690039Y-77847965D01*
X64557515Y-77686484D01*
X64396034Y-77553960D01*
X64396027Y-77553956D01*
X64211806Y-77455488D01*
X64211803Y-77455487D01*
X64211802Y-77455486D01*
X64211799Y-77455485D01*
X64011894Y-77394845D01*
X64011892Y-77394844D01*
X64011894Y-77394844D01*
X63804000Y-77374369D01*
X63596107Y-77394844D01*
X63478075Y-77430648D01*
X63396201Y-77455485D01*
X63396198Y-77455486D01*
X63396196Y-77455487D01*
X63396193Y-77455488D01*
X63211972Y-77553956D01*
X63211965Y-77553960D01*
X63050484Y-77686484D01*
X62917960Y-77847965D01*
X62917956Y-77847972D01*
X62819488Y-78032193D01*
X62819487Y-78032196D01*
X62758844Y-78232107D01*
X62738369Y-78440000D01*
X62329631Y-78440000D01*
X62309155Y-78232106D01*
X62248515Y-78032201D01*
X62216538Y-77972376D01*
X62150043Y-77847972D01*
X62150039Y-77847965D01*
X62017515Y-77686484D01*
X61856034Y-77553960D01*
X61856027Y-77553956D01*
X61671806Y-77455488D01*
X61671803Y-77455487D01*
X61671802Y-77455486D01*
X61671799Y-77455485D01*
X61471894Y-77394845D01*
X61471892Y-77394844D01*
X61471894Y-77394844D01*
X61264000Y-77374369D01*
X61056107Y-77394844D01*
X60938075Y-77430648D01*
X60856201Y-77455485D01*
X60856198Y-77455486D01*
X60856196Y-77455487D01*
X60856193Y-77455488D01*
X60671972Y-77553956D01*
X60671965Y-77553960D01*
X60510484Y-77686484D01*
X60377960Y-77847965D01*
X60377956Y-77847972D01*
X60279488Y-78032193D01*
X60279487Y-78032196D01*
X60218844Y-78232107D01*
X60198369Y-78440000D01*
X55844936Y-78440000D01*
X55794011Y-78369907D01*
X55617593Y-78193489D01*
X55415749Y-78046841D01*
X55193449Y-77933574D01*
X54956168Y-77856476D01*
X54956166Y-77856475D01*
X54956164Y-77856475D01*
X54709751Y-77817447D01*
X54709746Y-77817447D01*
X54460254Y-77817447D01*
X54460249Y-77817447D01*
X54213835Y-77856475D01*
X53976548Y-77933575D01*
X53754250Y-78046841D01*
X53552404Y-78193491D01*
X53375991Y-78369904D01*
X53229341Y-78571750D01*
X53116075Y-78794048D01*
X53038975Y-79031335D01*
X52999947Y-79277748D01*
X45880052Y-79277748D01*
X45841024Y-79031332D01*
X45763926Y-78794051D01*
X45650659Y-78571751D01*
X45504011Y-78369907D01*
X45327593Y-78193489D01*
X45125749Y-78046841D01*
X44903449Y-77933574D01*
X44666168Y-77856476D01*
X44666166Y-77856475D01*
X44666164Y-77856475D01*
X44419751Y-77817447D01*
X44419746Y-77817447D01*
X44170254Y-77817447D01*
X44170249Y-77817447D01*
X43923835Y-77856475D01*
X43686548Y-77933575D01*
X43464250Y-78046841D01*
X43262404Y-78193491D01*
X43085991Y-78369904D01*
X42939341Y-78571750D01*
X42826075Y-78794048D01*
X42748975Y-79031335D01*
X42709947Y-79277748D01*
X35280052Y-79277748D01*
X35241024Y-79031332D01*
X35163926Y-78794051D01*
X35050659Y-78571751D01*
X34904011Y-78369907D01*
X34727593Y-78193489D01*
X34525749Y-78046841D01*
X34303449Y-77933574D01*
X34066168Y-77856476D01*
X34066166Y-77856475D01*
X34066164Y-77856475D01*
X33819751Y-77817447D01*
X33819746Y-77817447D01*
X33570254Y-77817447D01*
X33570249Y-77817447D01*
X33323835Y-77856475D01*
X33086548Y-77933575D01*
X32864250Y-78046841D01*
X32662404Y-78193491D01*
X32485991Y-78369904D01*
X32339341Y-78571750D01*
X32226075Y-78794048D01*
X32148975Y-79031335D01*
X32109947Y-79277748D01*
X16000000Y-79277748D01*
X16000000Y-76920000D01*
X22242601Y-76920000D01*
X22262149Y-77118481D01*
X22262149Y-77118483D01*
X22262150Y-77118485D01*
X22320046Y-77309342D01*
X22320048Y-77309348D01*
X22414060Y-77485231D01*
X22414065Y-77485238D01*
X22540589Y-77639410D01*
X22597950Y-77686484D01*
X22694763Y-77765936D01*
X22694766Y-77765937D01*
X22694768Y-77765939D01*
X22870651Y-77859951D01*
X22870654Y-77859951D01*
X22870658Y-77859954D01*
X23061515Y-77917850D01*
X23260000Y-77937399D01*
X23458485Y-77917850D01*
X23649342Y-77859954D01*
X23825237Y-77765936D01*
X23979410Y-77639410D01*
X24093821Y-77499999D01*
X38444750Y-77499999D01*
X38444750Y-77500000D01*
X38463670Y-77643708D01*
X38463671Y-77643712D01*
X38519138Y-77777624D01*
X38535935Y-77799515D01*
X38561128Y-77864685D01*
X38547089Y-77933129D01*
X38535935Y-77950485D01*
X38519138Y-77972375D01*
X38463671Y-78106287D01*
X38463670Y-78106291D01*
X38444750Y-78249999D01*
X38444750Y-78250000D01*
X38463670Y-78393708D01*
X38463671Y-78393712D01*
X38519137Y-78527622D01*
X38519138Y-78527624D01*
X38519139Y-78527625D01*
X38607379Y-78642621D01*
X38722375Y-78730861D01*
X38856291Y-78786330D01*
X38983280Y-78803048D01*
X38999999Y-78805250D01*
X39000000Y-78805250D01*
X39000001Y-78805250D01*
X39014977Y-78803278D01*
X39143709Y-78786330D01*
X39277625Y-78730861D01*
X39392621Y-78642621D01*
X39480861Y-78527625D01*
X39536330Y-78393709D01*
X39555250Y-78250000D01*
X39536330Y-78106291D01*
X39480861Y-77972375D01*
X39464065Y-77950486D01*
X39438871Y-77885317D01*
X39452909Y-77816872D01*
X39464065Y-77799514D01*
X39466135Y-77796815D01*
X39480861Y-77777625D01*
X39536330Y-77643709D01*
X39555250Y-77500000D01*
X39536330Y-77356291D01*
X39480861Y-77222375D01*
X39392621Y-77107379D01*
X39277625Y-77019139D01*
X39277624Y-77019138D01*
X39277622Y-77019137D01*
X39143712Y-76963671D01*
X39143710Y-76963670D01*
X39143709Y-76963670D01*
X39071854Y-76954210D01*
X39000001Y-76944750D01*
X38999999Y-76944750D01*
X38856291Y-76963670D01*
X38856287Y-76963671D01*
X38722377Y-77019137D01*
X38607379Y-77107379D01*
X38519137Y-77222377D01*
X38463671Y-77356287D01*
X38463670Y-77356291D01*
X38444750Y-77499999D01*
X24093821Y-77499999D01*
X24105936Y-77485237D01*
X24199954Y-77309342D01*
X24257850Y-77118485D01*
X24277399Y-76920000D01*
X24257850Y-76721515D01*
X24199954Y-76530658D01*
X24199951Y-76530654D01*
X24199951Y-76530651D01*
X24105939Y-76354768D01*
X24105937Y-76354766D01*
X24105936Y-76354763D01*
X24067394Y-76307799D01*
X23979410Y-76200589D01*
X23825238Y-76074065D01*
X23825231Y-76074060D01*
X23649348Y-75980048D01*
X23649342Y-75980046D01*
X23458485Y-75922150D01*
X23458483Y-75922149D01*
X23458481Y-75922149D01*
X23260000Y-75902601D01*
X23061518Y-75922149D01*
X22870651Y-75980048D01*
X22694768Y-76074060D01*
X22694761Y-76074065D01*
X22540589Y-76200589D01*
X22414065Y-76354761D01*
X22414060Y-76354768D01*
X22320048Y-76530651D01*
X22262149Y-76721518D01*
X22242601Y-76920000D01*
X16000000Y-76920000D01*
X16000000Y-75900000D01*
X60198369Y-75900000D01*
X60218844Y-76107892D01*
X60218845Y-76107894D01*
X60279485Y-76307799D01*
X60279486Y-76307802D01*
X60279487Y-76307803D01*
X60279488Y-76307806D01*
X60377956Y-76492027D01*
X60377960Y-76492034D01*
X60510484Y-76653515D01*
X60671965Y-76786039D01*
X60671972Y-76786043D01*
X60856193Y-76884511D01*
X60856194Y-76884511D01*
X60856201Y-76884515D01*
X61056106Y-76945155D01*
X61056105Y-76945155D01*
X61074745Y-76946990D01*
X61264000Y-76965631D01*
X61471894Y-76945155D01*
X61671799Y-76884515D01*
X61856033Y-76786040D01*
X62017515Y-76653515D01*
X62150040Y-76492033D01*
X62248515Y-76307799D01*
X62309155Y-76107894D01*
X62329631Y-75900000D01*
X62738369Y-75900000D01*
X62758844Y-76107892D01*
X62758845Y-76107894D01*
X62819485Y-76307799D01*
X62819486Y-76307802D01*
X62819487Y-76307803D01*
X62819488Y-76307806D01*
X62917956Y-76492027D01*
X62917960Y-76492034D01*
X63050484Y-76653515D01*
X63211965Y-76786039D01*
X63211972Y-76786043D01*
X63396193Y-76884511D01*
X63396194Y-76884511D01*
X63396201Y-76884515D01*
X63596106Y-76945155D01*
X63596105Y-76945155D01*
X63614745Y-76946990D01*
X63804000Y-76965631D01*
X64011894Y-76945155D01*
X64211799Y-76884515D01*
X64396033Y-76786040D01*
X64557515Y-76653515D01*
X64690040Y-76492033D01*
X64788515Y-76307799D01*
X64849155Y-76107894D01*
X64869631Y-75900000D01*
X64849155Y-75692106D01*
X64788515Y-75492201D01*
X64782454Y-75480861D01*
X64690043Y-75307972D01*
X64690039Y-75307965D01*
X64557515Y-75146484D01*
X64396034Y-75013960D01*
X64396027Y-75013956D01*
X64211806Y-74915488D01*
X64211803Y-74915487D01*
X64211802Y-74915486D01*
X64211799Y-74915485D01*
X64011894Y-74854845D01*
X64011892Y-74854844D01*
X64011894Y-74854844D01*
X63804000Y-74834369D01*
X63596107Y-74854844D01*
X63478075Y-74890648D01*
X63396201Y-74915485D01*
X63396198Y-74915486D01*
X63396196Y-74915487D01*
X63396193Y-74915488D01*
X63211972Y-75013956D01*
X63211965Y-75013960D01*
X63050484Y-75146484D01*
X62917960Y-75307965D01*
X62917956Y-75307972D01*
X62819488Y-75492193D01*
X62819487Y-75492196D01*
X62819486Y-75492198D01*
X62819485Y-75492201D01*
X62794648Y-75574075D01*
X62758844Y-75692107D01*
X62738369Y-75900000D01*
X62329631Y-75900000D01*
X62309155Y-75692106D01*
X62248515Y-75492201D01*
X62242454Y-75480861D01*
X62150043Y-75307972D01*
X62150039Y-75307965D01*
X62017515Y-75146484D01*
X61856034Y-75013960D01*
X61856027Y-75013956D01*
X61671806Y-74915488D01*
X61671803Y-74915487D01*
X61671802Y-74915486D01*
X61671799Y-74915485D01*
X61471894Y-74854845D01*
X61471892Y-74854844D01*
X61471894Y-74854844D01*
X61264000Y-74834369D01*
X61056107Y-74854844D01*
X60938075Y-74890648D01*
X60856201Y-74915485D01*
X60856198Y-74915486D01*
X60856196Y-74915487D01*
X60856193Y-74915488D01*
X60671972Y-75013956D01*
X60671965Y-75013960D01*
X60510484Y-75146484D01*
X60377960Y-75307965D01*
X60377956Y-75307972D01*
X60279488Y-75492193D01*
X60279487Y-75492196D01*
X60279486Y-75492198D01*
X60279485Y-75492201D01*
X60254648Y-75574075D01*
X60218844Y-75692107D01*
X60198369Y-75900000D01*
X16000000Y-75900000D01*
X16000000Y-74380000D01*
X22242601Y-74380000D01*
X22262149Y-74578481D01*
X22262149Y-74578483D01*
X22262150Y-74578485D01*
X22305799Y-74722375D01*
X22320048Y-74769348D01*
X22414060Y-74945231D01*
X22414065Y-74945238D01*
X22540589Y-75099410D01*
X22594572Y-75143712D01*
X22694763Y-75225936D01*
X22694766Y-75225937D01*
X22694768Y-75225939D01*
X22870651Y-75319951D01*
X22870654Y-75319951D01*
X22870658Y-75319954D01*
X23061515Y-75377850D01*
X23260000Y-75397399D01*
X23458485Y-75377850D01*
X23649342Y-75319954D01*
X23728540Y-75277622D01*
X23825231Y-75225939D01*
X23825229Y-75225939D01*
X23825237Y-75225936D01*
X23979410Y-75099410D01*
X24060994Y-74999999D01*
X34444750Y-74999999D01*
X34444750Y-75000000D01*
X34463670Y-75143708D01*
X34463671Y-75143712D01*
X34519137Y-75277622D01*
X34519138Y-75277624D01*
X34519139Y-75277625D01*
X34607379Y-75392621D01*
X34722375Y-75480861D01*
X34722376Y-75480861D01*
X34722377Y-75480862D01*
X34767013Y-75499350D01*
X34856291Y-75536330D01*
X34983280Y-75553048D01*
X34999999Y-75555250D01*
X35000000Y-75555250D01*
X35000001Y-75555250D01*
X35014977Y-75553278D01*
X35143709Y-75536330D01*
X35277625Y-75480861D01*
X35392621Y-75392621D01*
X35480861Y-75277625D01*
X35536330Y-75143709D01*
X35555250Y-75000000D01*
X35555250Y-74999999D01*
X56444750Y-74999999D01*
X56444750Y-75000000D01*
X56463670Y-75143708D01*
X56463671Y-75143712D01*
X56519137Y-75277622D01*
X56519138Y-75277624D01*
X56519139Y-75277625D01*
X56607379Y-75392621D01*
X56722375Y-75480861D01*
X56722376Y-75480861D01*
X56722377Y-75480862D01*
X56767013Y-75499350D01*
X56856291Y-75536330D01*
X56983280Y-75553048D01*
X56999999Y-75555250D01*
X57000000Y-75555250D01*
X57000001Y-75555250D01*
X57014977Y-75553278D01*
X57143709Y-75536330D01*
X57277625Y-75480861D01*
X57392621Y-75392621D01*
X57480861Y-75277625D01*
X57536330Y-75143709D01*
X57555250Y-75000000D01*
X57536330Y-74856291D01*
X57499350Y-74767013D01*
X57480862Y-74722377D01*
X57480861Y-74722376D01*
X57480861Y-74722375D01*
X57392621Y-74607379D01*
X57277625Y-74519139D01*
X57277624Y-74519138D01*
X57277622Y-74519137D01*
X57143712Y-74463671D01*
X57143710Y-74463670D01*
X57143709Y-74463670D01*
X57071854Y-74454210D01*
X57000001Y-74444750D01*
X56999999Y-74444750D01*
X56856291Y-74463670D01*
X56856287Y-74463671D01*
X56722377Y-74519137D01*
X56607379Y-74607379D01*
X56519137Y-74722377D01*
X56463671Y-74856287D01*
X56463670Y-74856291D01*
X56444750Y-74999999D01*
X35555250Y-74999999D01*
X35536330Y-74856291D01*
X35499350Y-74767013D01*
X35480862Y-74722377D01*
X35480861Y-74722376D01*
X35480861Y-74722375D01*
X35392621Y-74607379D01*
X35277625Y-74519139D01*
X35277624Y-74519138D01*
X35277622Y-74519137D01*
X35143712Y-74463671D01*
X35143710Y-74463670D01*
X35143709Y-74463670D01*
X35071854Y-74454210D01*
X35000001Y-74444750D01*
X34999999Y-74444750D01*
X34856291Y-74463670D01*
X34856287Y-74463671D01*
X34722377Y-74519137D01*
X34607379Y-74607379D01*
X34519137Y-74722377D01*
X34463671Y-74856287D01*
X34463670Y-74856291D01*
X34444750Y-74999999D01*
X24060994Y-74999999D01*
X24105936Y-74945237D01*
X24199954Y-74769342D01*
X24257850Y-74578485D01*
X24277399Y-74380000D01*
X24264595Y-74249999D01*
X43944750Y-74249999D01*
X43944750Y-74250000D01*
X43963670Y-74393708D01*
X43963671Y-74393712D01*
X44019137Y-74527622D01*
X44019138Y-74527624D01*
X44019139Y-74527625D01*
X44107379Y-74642621D01*
X44222375Y-74730861D01*
X44356291Y-74786330D01*
X44483280Y-74803048D01*
X44499999Y-74805250D01*
X44500000Y-74805250D01*
X44500001Y-74805250D01*
X44514977Y-74803278D01*
X44643709Y-74786330D01*
X44777625Y-74730861D01*
X44892621Y-74642621D01*
X44980861Y-74527625D01*
X45036330Y-74393709D01*
X45055250Y-74250000D01*
X45036330Y-74106291D01*
X44980861Y-73972375D01*
X44892621Y-73857379D01*
X44777625Y-73769139D01*
X44777624Y-73769138D01*
X44777622Y-73769137D01*
X44643712Y-73713671D01*
X44643710Y-73713670D01*
X44643709Y-73713670D01*
X44571854Y-73704210D01*
X44500001Y-73694750D01*
X44499999Y-73694750D01*
X44356291Y-73713670D01*
X44356287Y-73713671D01*
X44222377Y-73769137D01*
X44107379Y-73857379D01*
X44019137Y-73972377D01*
X43963671Y-74106287D01*
X43963670Y-74106291D01*
X43944750Y-74249999D01*
X24264595Y-74249999D01*
X24257850Y-74181515D01*
X24199954Y-73990658D01*
X24199951Y-73990654D01*
X24199951Y-73990651D01*
X24105939Y-73814768D01*
X24105937Y-73814766D01*
X24105936Y-73814763D01*
X24037080Y-73730861D01*
X23979410Y-73660589D01*
X23825238Y-73534065D01*
X23825231Y-73534060D01*
X23649348Y-73440048D01*
X23649342Y-73440046D01*
X23458485Y-73382150D01*
X23458483Y-73382149D01*
X23458481Y-73382149D01*
X23260000Y-73362601D01*
X23061518Y-73382149D01*
X22870651Y-73440048D01*
X22694768Y-73534060D01*
X22694761Y-73534065D01*
X22540589Y-73660589D01*
X22414065Y-73814761D01*
X22414060Y-73814768D01*
X22320048Y-73990651D01*
X22262149Y-74181518D01*
X22242601Y-74380000D01*
X16000000Y-74380000D01*
X16000000Y-73250000D01*
X50444750Y-73250000D01*
X50459574Y-73362601D01*
X50463670Y-73393708D01*
X50463671Y-73393712D01*
X50519137Y-73527622D01*
X50519138Y-73527624D01*
X50519139Y-73527625D01*
X50607379Y-73642621D01*
X50722375Y-73730861D01*
X50856291Y-73786330D01*
X50983280Y-73803048D01*
X50999999Y-73805250D01*
X51000000Y-73805250D01*
X51000001Y-73805250D01*
X51014977Y-73803278D01*
X51143709Y-73786330D01*
X51277625Y-73730861D01*
X51392621Y-73642621D01*
X51480861Y-73527625D01*
X51536330Y-73393709D01*
X51555250Y-73250000D01*
X51536330Y-73106291D01*
X51480861Y-72972375D01*
X51392621Y-72857379D01*
X51277625Y-72769139D01*
X51277624Y-72769138D01*
X51277622Y-72769137D01*
X51143712Y-72713671D01*
X51143710Y-72713670D01*
X51143709Y-72713670D01*
X51061973Y-72702909D01*
X51000001Y-72694750D01*
X50999999Y-72694750D01*
X50856291Y-72713670D01*
X50856287Y-72713671D01*
X50722377Y-72769137D01*
X50607379Y-72857379D01*
X50519137Y-72972377D01*
X50463671Y-73106287D01*
X50463670Y-73106291D01*
X50450642Y-73205250D01*
X50444750Y-73250000D01*
X16000000Y-73250000D01*
X16000000Y-72650000D01*
X37594750Y-72650000D01*
X37612698Y-72786329D01*
X37613670Y-72793708D01*
X37613671Y-72793712D01*
X37669137Y-72927622D01*
X37669138Y-72927624D01*
X37669139Y-72927625D01*
X37757379Y-73042621D01*
X37872375Y-73130861D01*
X38006291Y-73186330D01*
X38133280Y-73203048D01*
X38149999Y-73205250D01*
X38150000Y-73205250D01*
X38150001Y-73205250D01*
X38164977Y-73203278D01*
X38293709Y-73186330D01*
X38427625Y-73130861D01*
X38542621Y-73042621D01*
X38630861Y-72927625D01*
X38686330Y-72793709D01*
X38705250Y-72650000D01*
X38686330Y-72506291D01*
X38630861Y-72372375D01*
X38542621Y-72257379D01*
X38427625Y-72169139D01*
X38427624Y-72169138D01*
X38427622Y-72169137D01*
X38293712Y-72113671D01*
X38293710Y-72113670D01*
X38293709Y-72113670D01*
X38221854Y-72104210D01*
X38150001Y-72094750D01*
X38149999Y-72094750D01*
X38006291Y-72113670D01*
X38006287Y-72113671D01*
X37872377Y-72169137D01*
X37757379Y-72257379D01*
X37669137Y-72372377D01*
X37613671Y-72506287D01*
X37613670Y-72506291D01*
X37595722Y-72642620D01*
X37594750Y-72650000D01*
X16000000Y-72650000D01*
X16000000Y-71399999D01*
X40844750Y-71399999D01*
X40844750Y-71400000D01*
X40863670Y-71543708D01*
X40863671Y-71543712D01*
X40919137Y-71677622D01*
X40919138Y-71677624D01*
X40919139Y-71677625D01*
X41007379Y-71792621D01*
X41122375Y-71880861D01*
X41122376Y-71880861D01*
X41122377Y-71880862D01*
X41167013Y-71899350D01*
X41256291Y-71936330D01*
X41383280Y-71953048D01*
X41399999Y-71955250D01*
X41400000Y-71955250D01*
X41400001Y-71955250D01*
X41414977Y-71953278D01*
X41543709Y-71936330D01*
X41677625Y-71880861D01*
X41792621Y-71792621D01*
X41880861Y-71677625D01*
X41936330Y-71543709D01*
X41955250Y-71400000D01*
X41936330Y-71256291D01*
X41880861Y-71122375D01*
X41792621Y-71007379D01*
X41677625Y-70919139D01*
X41677624Y-70919138D01*
X41677622Y-70919137D01*
X41543712Y-70863671D01*
X41543710Y-70863670D01*
X41543709Y-70863670D01*
X41471854Y-70854210D01*
X41400001Y-70844750D01*
X41399999Y-70844750D01*
X41256291Y-70863670D01*
X41256287Y-70863671D01*
X41122377Y-70919137D01*
X41007379Y-71007379D01*
X40919137Y-71122377D01*
X40863671Y-71256287D01*
X40863670Y-71256291D01*
X40844750Y-71399999D01*
X16000000Y-71399999D01*
X16000000Y-69499999D01*
X49694750Y-69499999D01*
X49694750Y-69500000D01*
X49713670Y-69643708D01*
X49713671Y-69643712D01*
X49769138Y-69777624D01*
X49785935Y-69799515D01*
X49811128Y-69864685D01*
X49797089Y-69933129D01*
X49785935Y-69950485D01*
X49769138Y-69972375D01*
X49713671Y-70106287D01*
X49713670Y-70106291D01*
X49694750Y-70249999D01*
X49694750Y-70250000D01*
X49713670Y-70393708D01*
X49713671Y-70393712D01*
X49769138Y-70527624D01*
X49785935Y-70549515D01*
X49811128Y-70614685D01*
X49797089Y-70683129D01*
X49785935Y-70700485D01*
X49769138Y-70722375D01*
X49713671Y-70856287D01*
X49713670Y-70856291D01*
X49694750Y-70999999D01*
X49694750Y-71000000D01*
X49713670Y-71143708D01*
X49713671Y-71143712D01*
X49769138Y-71277624D01*
X49785935Y-71299515D01*
X49811128Y-71364685D01*
X49797089Y-71433129D01*
X49785935Y-71450485D01*
X49769138Y-71472375D01*
X49713671Y-71606287D01*
X49713670Y-71606291D01*
X49704279Y-71677625D01*
X49694750Y-71750000D01*
X49711978Y-71880861D01*
X49713670Y-71893708D01*
X49713671Y-71893712D01*
X49769137Y-72027622D01*
X49769138Y-72027624D01*
X49769139Y-72027625D01*
X49857379Y-72142621D01*
X49972375Y-72230861D01*
X50106291Y-72286330D01*
X50233280Y-72303048D01*
X50249999Y-72305250D01*
X50250000Y-72305250D01*
X50250001Y-72305250D01*
X50264977Y-72303278D01*
X50393709Y-72286330D01*
X50481421Y-72249999D01*
X51944750Y-72249999D01*
X51944750Y-72250000D01*
X51963670Y-72393708D01*
X51963671Y-72393712D01*
X52019137Y-72527622D01*
X52019138Y-72527624D01*
X52019139Y-72527625D01*
X52107379Y-72642621D01*
X52222375Y-72730861D01*
X52356291Y-72786330D01*
X52483280Y-72803048D01*
X52499999Y-72805250D01*
X52500000Y-72805250D01*
X52500001Y-72805250D01*
X52514977Y-72803278D01*
X52643709Y-72786330D01*
X52777625Y-72730861D01*
X52799514Y-72714065D01*
X52864683Y-72688871D01*
X52933128Y-72702909D01*
X52950487Y-72714065D01*
X52972375Y-72730861D01*
X53106291Y-72786330D01*
X53233280Y-72803048D01*
X53249999Y-72805250D01*
X53250000Y-72805250D01*
X53250001Y-72805250D01*
X53264977Y-72803278D01*
X53393709Y-72786330D01*
X53527625Y-72730861D01*
X53549514Y-72714065D01*
X53614683Y-72688871D01*
X53683128Y-72702909D01*
X53700487Y-72714065D01*
X53722375Y-72730861D01*
X53856291Y-72786330D01*
X53983280Y-72803048D01*
X53999999Y-72805250D01*
X54000000Y-72805250D01*
X54000001Y-72805250D01*
X54014977Y-72803278D01*
X54143709Y-72786330D01*
X54277625Y-72730861D01*
X54392621Y-72642621D01*
X54480861Y-72527625D01*
X54536330Y-72393709D01*
X54555250Y-72250000D01*
X54536330Y-72106291D01*
X54480861Y-71972375D01*
X54392621Y-71857379D01*
X54277625Y-71769139D01*
X54277624Y-71769138D01*
X54277622Y-71769137D01*
X54143712Y-71713671D01*
X54143710Y-71713670D01*
X54143709Y-71713670D01*
X54071854Y-71704210D01*
X54000001Y-71694750D01*
X53999999Y-71694750D01*
X53856291Y-71713670D01*
X53856287Y-71713671D01*
X53722375Y-71769138D01*
X53700485Y-71785935D01*
X53635315Y-71811128D01*
X53566871Y-71797089D01*
X53549515Y-71785935D01*
X53527624Y-71769138D01*
X53527625Y-71769138D01*
X53393712Y-71713671D01*
X53393710Y-71713670D01*
X53393709Y-71713670D01*
X53321854Y-71704210D01*
X53250001Y-71694750D01*
X53249999Y-71694750D01*
X53106291Y-71713670D01*
X53106287Y-71713671D01*
X52972375Y-71769138D01*
X52950485Y-71785935D01*
X52885315Y-71811128D01*
X52816871Y-71797089D01*
X52799515Y-71785935D01*
X52777624Y-71769138D01*
X52777625Y-71769138D01*
X52643712Y-71713671D01*
X52643710Y-71713670D01*
X52643709Y-71713670D01*
X52571854Y-71704210D01*
X52500001Y-71694750D01*
X52499999Y-71694750D01*
X52356291Y-71713670D01*
X52356287Y-71713671D01*
X52222377Y-71769137D01*
X52107379Y-71857379D01*
X52019137Y-71972377D01*
X51963671Y-72106287D01*
X51963670Y-72106291D01*
X51944750Y-72249999D01*
X50481421Y-72249999D01*
X50527625Y-72230861D01*
X50642621Y-72142621D01*
X50730861Y-72027625D01*
X50786330Y-71893709D01*
X50805250Y-71750000D01*
X50786330Y-71606291D01*
X50730861Y-71472375D01*
X50714065Y-71450486D01*
X50688871Y-71385317D01*
X50702909Y-71316872D01*
X50714065Y-71299514D01*
X50716135Y-71296815D01*
X50730861Y-71277625D01*
X50786330Y-71143709D01*
X50805250Y-71000000D01*
X50786330Y-70856291D01*
X50730861Y-70722375D01*
X50714065Y-70700486D01*
X50688871Y-70635317D01*
X50702909Y-70566872D01*
X50714065Y-70549514D01*
X50716135Y-70546815D01*
X50730861Y-70527625D01*
X50786330Y-70393709D01*
X50805250Y-70250000D01*
X50786330Y-70106291D01*
X50730861Y-69972375D01*
X50714065Y-69950486D01*
X50688871Y-69885317D01*
X50702909Y-69816872D01*
X50714065Y-69799514D01*
X50716135Y-69796815D01*
X50730861Y-69777625D01*
X50786330Y-69643709D01*
X50805250Y-69500000D01*
X50786330Y-69356291D01*
X50730861Y-69222375D01*
X50642621Y-69107379D01*
X50527625Y-69019139D01*
X50527624Y-69019138D01*
X50527622Y-69019137D01*
X50393712Y-68963671D01*
X50393710Y-68963670D01*
X50393709Y-68963670D01*
X50321854Y-68954210D01*
X50250001Y-68944750D01*
X50249999Y-68944750D01*
X50106291Y-68963670D01*
X50106287Y-68963671D01*
X49972377Y-69019137D01*
X49857379Y-69107379D01*
X49769137Y-69222377D01*
X49713671Y-69356287D01*
X49713670Y-69356291D01*
X49694750Y-69499999D01*
X16000000Y-69499999D01*
X16000000Y-68499999D01*
X40344750Y-68499999D01*
X40344750Y-68500000D01*
X40363670Y-68643708D01*
X40363671Y-68643712D01*
X40419137Y-68777622D01*
X40419138Y-68777624D01*
X40419139Y-68777625D01*
X40507379Y-68892621D01*
X40622375Y-68980861D01*
X40756291Y-69036330D01*
X40900000Y-69055250D01*
X40900002Y-69055249D01*
X40901418Y-69055436D01*
X40965315Y-69083702D01*
X40999794Y-69130922D01*
X41019139Y-69177625D01*
X41107379Y-69292621D01*
X41222375Y-69380861D01*
X41356291Y-69436330D01*
X41483280Y-69453048D01*
X41499999Y-69455250D01*
X41500000Y-69455250D01*
X41500001Y-69455250D01*
X41514977Y-69453278D01*
X41643709Y-69436330D01*
X41777625Y-69380861D01*
X41892621Y-69292621D01*
X41980861Y-69177625D01*
X42036330Y-69043709D01*
X42055250Y-68900000D01*
X42036330Y-68756291D01*
X41980861Y-68622375D01*
X41892621Y-68507379D01*
X41777625Y-68419139D01*
X41777624Y-68419138D01*
X41777622Y-68419137D01*
X41643712Y-68363671D01*
X41643710Y-68363670D01*
X41643709Y-68363670D01*
X41625510Y-68361274D01*
X41498579Y-68344562D01*
X41434683Y-68316295D01*
X41400205Y-68269076D01*
X41396090Y-68259142D01*
X41380861Y-68222375D01*
X41292621Y-68107379D01*
X41177625Y-68019139D01*
X41177624Y-68019138D01*
X41177622Y-68019137D01*
X41043712Y-67963671D01*
X41043710Y-67963670D01*
X41043709Y-67963670D01*
X40971854Y-67954210D01*
X40900001Y-67944750D01*
X40899999Y-67944750D01*
X40756291Y-67963670D01*
X40756287Y-67963671D01*
X40622377Y-68019137D01*
X40507379Y-68107379D01*
X40419137Y-68222377D01*
X40363671Y-68356287D01*
X40363670Y-68356291D01*
X40344750Y-68499999D01*
X16000000Y-68499999D01*
X16000000Y-66500000D01*
X21694750Y-66500000D01*
X21707915Y-66600000D01*
X21713670Y-66643708D01*
X21713671Y-66643712D01*
X21769137Y-66777622D01*
X21769138Y-66777624D01*
X21769139Y-66777625D01*
X21857379Y-66892621D01*
X21972375Y-66980861D01*
X21972376Y-66980861D01*
X21972377Y-66980862D01*
X22017013Y-66999350D01*
X22106291Y-67036330D01*
X22233280Y-67053048D01*
X22249999Y-67055250D01*
X22250000Y-67055250D01*
X22250001Y-67055250D01*
X22264977Y-67053278D01*
X22393709Y-67036330D01*
X22527625Y-66980861D01*
X22642621Y-66892621D01*
X22730861Y-66777625D01*
X22742303Y-66750000D01*
X35194750Y-66750000D01*
X35211552Y-66877625D01*
X35213670Y-66893708D01*
X35213671Y-66893712D01*
X35269137Y-67027622D01*
X35269138Y-67027624D01*
X35269139Y-67027625D01*
X35357379Y-67142621D01*
X35472375Y-67230861D01*
X35606291Y-67286330D01*
X35733280Y-67303048D01*
X35749999Y-67305250D01*
X35750000Y-67305250D01*
X35750001Y-67305250D01*
X35764977Y-67303278D01*
X35893709Y-67286330D01*
X36027625Y-67230861D01*
X36142621Y-67142621D01*
X36230861Y-67027625D01*
X36286330Y-66893709D01*
X36305250Y-66750000D01*
X36286330Y-66606291D01*
X36283724Y-66600000D01*
X40844750Y-66600000D01*
X40856974Y-66692852D01*
X40863670Y-66743708D01*
X40863671Y-66743712D01*
X40919137Y-66877622D01*
X40919138Y-66877624D01*
X40919139Y-66877625D01*
X41007379Y-66992621D01*
X41122375Y-67080861D01*
X41122376Y-67080861D01*
X41122377Y-67080862D01*
X41167013Y-67099350D01*
X41256291Y-67136330D01*
X41383280Y-67153048D01*
X41399999Y-67155250D01*
X41400000Y-67155250D01*
X41400001Y-67155250D01*
X41414977Y-67153278D01*
X41543709Y-67136330D01*
X41677625Y-67080861D01*
X41792621Y-66992621D01*
X41880861Y-66877625D01*
X41936330Y-66743709D01*
X41955250Y-66600000D01*
X41948554Y-66549143D01*
X42501000Y-66549143D01*
X42513450Y-66643712D01*
X42519920Y-66692851D01*
X42519921Y-66692855D01*
X42575387Y-66826765D01*
X42575388Y-66826767D01*
X42575389Y-66826768D01*
X42663629Y-66941764D01*
X42778625Y-67030004D01*
X42778626Y-67030004D01*
X42778627Y-67030005D01*
X42823263Y-67048493D01*
X42912541Y-67085473D01*
X43039530Y-67102191D01*
X43056249Y-67104393D01*
X43056250Y-67104393D01*
X43056251Y-67104393D01*
X43071227Y-67102421D01*
X43199959Y-67085473D01*
X43333875Y-67030004D01*
X43448871Y-66941764D01*
X43537111Y-66826768D01*
X43592580Y-66692852D01*
X43611500Y-66549143D01*
X43605030Y-66500000D01*
X62194750Y-66500000D01*
X62207915Y-66600000D01*
X62213670Y-66643708D01*
X62213671Y-66643712D01*
X62269137Y-66777622D01*
X62269138Y-66777624D01*
X62269139Y-66777625D01*
X62357379Y-66892621D01*
X62472375Y-66980861D01*
X62472376Y-66980861D01*
X62472377Y-66980862D01*
X62517013Y-66999350D01*
X62606291Y-67036330D01*
X62733280Y-67053048D01*
X62749999Y-67055250D01*
X62750000Y-67055250D01*
X62750001Y-67055250D01*
X62764977Y-67053278D01*
X62893709Y-67036330D01*
X63027625Y-66980861D01*
X63142621Y-66892621D01*
X63230861Y-66777625D01*
X63286330Y-66643709D01*
X63305250Y-66500000D01*
X63286330Y-66356291D01*
X63230861Y-66222375D01*
X63142621Y-66107379D01*
X63027625Y-66019139D01*
X63027624Y-66019138D01*
X63027622Y-66019137D01*
X62893712Y-65963671D01*
X62893710Y-65963670D01*
X62893709Y-65963670D01*
X62821854Y-65954210D01*
X62750001Y-65944750D01*
X62749999Y-65944750D01*
X62606291Y-65963670D01*
X62606287Y-65963671D01*
X62472377Y-66019137D01*
X62357379Y-66107379D01*
X62269137Y-66222377D01*
X62213671Y-66356287D01*
X62213670Y-66356291D01*
X62200505Y-66456291D01*
X62194750Y-66500000D01*
X43605030Y-66500000D01*
X43592580Y-66405434D01*
X43537111Y-66271518D01*
X43448871Y-66156522D01*
X43333875Y-66068282D01*
X43333874Y-66068281D01*
X43333872Y-66068280D01*
X43199962Y-66012814D01*
X43199960Y-66012813D01*
X43199959Y-66012813D01*
X43128104Y-66003353D01*
X43056251Y-65993893D01*
X43056249Y-65993893D01*
X42912541Y-66012813D01*
X42912537Y-66012814D01*
X42778627Y-66068280D01*
X42663629Y-66156522D01*
X42575387Y-66271520D01*
X42519921Y-66405430D01*
X42519920Y-66405434D01*
X42501000Y-66549143D01*
X41948554Y-66549143D01*
X41936330Y-66456291D01*
X41880861Y-66322375D01*
X41792621Y-66207379D01*
X41677625Y-66119139D01*
X41677624Y-66119138D01*
X41677622Y-66119137D01*
X41543712Y-66063671D01*
X41543710Y-66063670D01*
X41543709Y-66063670D01*
X41471854Y-66054210D01*
X41400001Y-66044750D01*
X41399999Y-66044750D01*
X41256291Y-66063670D01*
X41256287Y-66063671D01*
X41122377Y-66119137D01*
X41007379Y-66207379D01*
X40919137Y-66322377D01*
X40863671Y-66456287D01*
X40863670Y-66456291D01*
X40850368Y-66557331D01*
X40844750Y-66600000D01*
X36283724Y-66600000D01*
X36243075Y-66501862D01*
X36230862Y-66472377D01*
X36230861Y-66472376D01*
X36230861Y-66472375D01*
X36142621Y-66357379D01*
X36027625Y-66269139D01*
X36027624Y-66269138D01*
X36027622Y-66269137D01*
X35893712Y-66213671D01*
X35893710Y-66213670D01*
X35893709Y-66213670D01*
X35821854Y-66204210D01*
X35750001Y-66194750D01*
X35749999Y-66194750D01*
X35606291Y-66213670D01*
X35606287Y-66213671D01*
X35472377Y-66269137D01*
X35357379Y-66357379D01*
X35269137Y-66472377D01*
X35213671Y-66606287D01*
X35213670Y-66606291D01*
X35194750Y-66750000D01*
X22742303Y-66750000D01*
X22786330Y-66643709D01*
X22805250Y-66500000D01*
X22786330Y-66356291D01*
X22730861Y-66222375D01*
X22642621Y-66107379D01*
X22530050Y-66021000D01*
X38744750Y-66021000D01*
X38744750Y-66021001D01*
X38763670Y-66164709D01*
X38763671Y-66164713D01*
X38819137Y-66298623D01*
X38819138Y-66298625D01*
X38819139Y-66298626D01*
X38907379Y-66413622D01*
X39022375Y-66501862D01*
X39156291Y-66557331D01*
X39283280Y-66574049D01*
X39299999Y-66576251D01*
X39300000Y-66576251D01*
X39300001Y-66576251D01*
X39314977Y-66574279D01*
X39443709Y-66557331D01*
X39577625Y-66501862D01*
X39692621Y-66413622D01*
X39780861Y-66298626D01*
X39836330Y-66164710D01*
X39855250Y-66021001D01*
X39836330Y-65877292D01*
X39780861Y-65743376D01*
X39692621Y-65628380D01*
X39577625Y-65540140D01*
X39577624Y-65540139D01*
X39577622Y-65540138D01*
X39443712Y-65484672D01*
X39443710Y-65484671D01*
X39443709Y-65484671D01*
X39371854Y-65475211D01*
X39300001Y-65465751D01*
X39299999Y-65465751D01*
X39156291Y-65484671D01*
X39156287Y-65484672D01*
X39022377Y-65540138D01*
X38907379Y-65628380D01*
X38819137Y-65743378D01*
X38763671Y-65877288D01*
X38763670Y-65877292D01*
X38744750Y-66021000D01*
X22530050Y-66021000D01*
X22527625Y-66019139D01*
X22527624Y-66019138D01*
X22527622Y-66019137D01*
X22393712Y-65963671D01*
X22393710Y-65963670D01*
X22393709Y-65963670D01*
X22321854Y-65954210D01*
X22250001Y-65944750D01*
X22249999Y-65944750D01*
X22106291Y-65963670D01*
X22106287Y-65963671D01*
X21972377Y-66019137D01*
X21857379Y-66107379D01*
X21769137Y-66222377D01*
X21713671Y-66356287D01*
X21713670Y-66356291D01*
X21700505Y-66456291D01*
X21694750Y-66500000D01*
X16000000Y-66500000D01*
X16000000Y-63499999D01*
X21444750Y-63499999D01*
X21444750Y-63500000D01*
X21463670Y-63643708D01*
X21463671Y-63643712D01*
X21519137Y-63777622D01*
X21519138Y-63777624D01*
X21519139Y-63777625D01*
X21607379Y-63892621D01*
X21722375Y-63980861D01*
X21856291Y-64036330D01*
X21983280Y-64053048D01*
X21999999Y-64055250D01*
X22000000Y-64055250D01*
X22000001Y-64055250D01*
X22014977Y-64053278D01*
X22143709Y-64036330D01*
X22277625Y-63980861D01*
X22392621Y-63892621D01*
X22480861Y-63777625D01*
X22536330Y-63643709D01*
X22555250Y-63500000D01*
X22536330Y-63356291D01*
X22499350Y-63267013D01*
X22480862Y-63222377D01*
X22480861Y-63222376D01*
X22480861Y-63222375D01*
X22392621Y-63107379D01*
X22277625Y-63019139D01*
X22277624Y-63019138D01*
X22277622Y-63019137D01*
X22231418Y-62999999D01*
X25869750Y-62999999D01*
X25869750Y-63000000D01*
X25888670Y-63143708D01*
X25888671Y-63143712D01*
X25944137Y-63277622D01*
X25944138Y-63277624D01*
X25944139Y-63277625D01*
X26032379Y-63392621D01*
X26147375Y-63480861D01*
X26281291Y-63536330D01*
X26408280Y-63553048D01*
X26424999Y-63555250D01*
X26425000Y-63555250D01*
X26425001Y-63555250D01*
X26439977Y-63553278D01*
X26568709Y-63536330D01*
X26702625Y-63480861D01*
X26817621Y-63392621D01*
X26905861Y-63277625D01*
X26961330Y-63143709D01*
X26980250Y-63000000D01*
X26980250Y-62999999D01*
X27444750Y-62999999D01*
X27444750Y-63000000D01*
X27463670Y-63143708D01*
X27463671Y-63143712D01*
X27519137Y-63277622D01*
X27519138Y-63277624D01*
X27519139Y-63277625D01*
X27607379Y-63392621D01*
X27722375Y-63480861D01*
X27856291Y-63536330D01*
X27983280Y-63553048D01*
X27999999Y-63555250D01*
X28000000Y-63555250D01*
X28000001Y-63555250D01*
X28014977Y-63553278D01*
X28143709Y-63536330D01*
X28231421Y-63499999D01*
X35444750Y-63499999D01*
X35444750Y-63500000D01*
X35463670Y-63643708D01*
X35463671Y-63643712D01*
X35519137Y-63777622D01*
X35519138Y-63777624D01*
X35519139Y-63777625D01*
X35607379Y-63892621D01*
X35722375Y-63980861D01*
X35856291Y-64036330D01*
X35983280Y-64053048D01*
X35999999Y-64055250D01*
X36000000Y-64055250D01*
X36000001Y-64055250D01*
X36014977Y-64053278D01*
X36143709Y-64036330D01*
X36277625Y-63980861D01*
X36392621Y-63892621D01*
X36401625Y-63880886D01*
X36458050Y-63839685D01*
X36527796Y-63835529D01*
X36588717Y-63869740D01*
X36598367Y-63880876D01*
X36607379Y-63892621D01*
X36722375Y-63980861D01*
X36856291Y-64036330D01*
X36983280Y-64053048D01*
X36999999Y-64055250D01*
X37000000Y-64055250D01*
X37000001Y-64055250D01*
X37014977Y-64053278D01*
X37143709Y-64036330D01*
X37277625Y-63980861D01*
X37392621Y-63892621D01*
X37480861Y-63777625D01*
X37536330Y-63643709D01*
X37555250Y-63500000D01*
X37555250Y-63499999D01*
X38444750Y-63499999D01*
X38444750Y-63500000D01*
X38463670Y-63643708D01*
X38463671Y-63643712D01*
X38519137Y-63777622D01*
X38519138Y-63777624D01*
X38519139Y-63777625D01*
X38607379Y-63892621D01*
X38722375Y-63980861D01*
X38856291Y-64036330D01*
X38983280Y-64053048D01*
X38999999Y-64055250D01*
X39000000Y-64055250D01*
X39000001Y-64055250D01*
X39014977Y-64053278D01*
X39143709Y-64036330D01*
X39277625Y-63980861D01*
X39392621Y-63892621D01*
X39480861Y-63777625D01*
X39536330Y-63643709D01*
X39555250Y-63500000D01*
X39536330Y-63356291D01*
X39499350Y-63267013D01*
X39492303Y-63249999D01*
X46694750Y-63249999D01*
X46694750Y-63250000D01*
X46713670Y-63393708D01*
X46713671Y-63393712D01*
X46769137Y-63527622D01*
X46769138Y-63527624D01*
X46769139Y-63527625D01*
X46857379Y-63642621D01*
X46972375Y-63730861D01*
X46972376Y-63730861D01*
X46972377Y-63730862D01*
X47017013Y-63749350D01*
X47106291Y-63786330D01*
X47233280Y-63803048D01*
X47249999Y-63805250D01*
X47250000Y-63805250D01*
X47250001Y-63805250D01*
X47264977Y-63803278D01*
X47393709Y-63786330D01*
X47527625Y-63730861D01*
X47642621Y-63642621D01*
X47730861Y-63527625D01*
X47786330Y-63393709D01*
X47805250Y-63250000D01*
X47786330Y-63106291D01*
X47749350Y-63017013D01*
X47730862Y-62972377D01*
X47730861Y-62972376D01*
X47730861Y-62972375D01*
X47642621Y-62857379D01*
X47527625Y-62769139D01*
X47527624Y-62769138D01*
X47527622Y-62769137D01*
X47393712Y-62713671D01*
X47393710Y-62713670D01*
X47393709Y-62713670D01*
X47321854Y-62704210D01*
X47250001Y-62694750D01*
X47249999Y-62694750D01*
X47106291Y-62713670D01*
X47106287Y-62713671D01*
X46972377Y-62769137D01*
X46857379Y-62857379D01*
X46769137Y-62972377D01*
X46713671Y-63106287D01*
X46713670Y-63106291D01*
X46694750Y-63249999D01*
X39492303Y-63249999D01*
X39480862Y-63222377D01*
X39480861Y-63222376D01*
X39480861Y-63222375D01*
X39392621Y-63107379D01*
X39277625Y-63019139D01*
X39277624Y-63019138D01*
X39277622Y-63019137D01*
X39143712Y-62963671D01*
X39143710Y-62963670D01*
X39143709Y-62963670D01*
X39071854Y-62954210D01*
X39000001Y-62944750D01*
X38999999Y-62944750D01*
X38856291Y-62963670D01*
X38856287Y-62963671D01*
X38722377Y-63019137D01*
X38607379Y-63107379D01*
X38519137Y-63222377D01*
X38463671Y-63356287D01*
X38463670Y-63356291D01*
X38444750Y-63499999D01*
X37555250Y-63499999D01*
X37536330Y-63356291D01*
X37499350Y-63267013D01*
X37480862Y-63222377D01*
X37480861Y-63222376D01*
X37480861Y-63222375D01*
X37392621Y-63107379D01*
X37277625Y-63019139D01*
X37277624Y-63019138D01*
X37277622Y-63019137D01*
X37143712Y-62963671D01*
X37143710Y-62963670D01*
X37143709Y-62963670D01*
X37071854Y-62954210D01*
X37000001Y-62944750D01*
X36999999Y-62944750D01*
X36856291Y-62963670D01*
X36856287Y-62963671D01*
X36722377Y-63019137D01*
X36664877Y-63063259D01*
X36607379Y-63107379D01*
X36607378Y-63107380D01*
X36607377Y-63107381D01*
X36598375Y-63119113D01*
X36541947Y-63160316D01*
X36472201Y-63164470D01*
X36411281Y-63130257D01*
X36401625Y-63119113D01*
X36399782Y-63116711D01*
X36392621Y-63107379D01*
X36277625Y-63019139D01*
X36277624Y-63019138D01*
X36277622Y-63019137D01*
X36143712Y-62963671D01*
X36143710Y-62963670D01*
X36143709Y-62963670D01*
X36071854Y-62954210D01*
X36000001Y-62944750D01*
X35999999Y-62944750D01*
X35856291Y-62963670D01*
X35856287Y-62963671D01*
X35722377Y-63019137D01*
X35607379Y-63107379D01*
X35519137Y-63222377D01*
X35463671Y-63356287D01*
X35463670Y-63356291D01*
X35444750Y-63499999D01*
X28231421Y-63499999D01*
X28277625Y-63480861D01*
X28392621Y-63392621D01*
X28480861Y-63277625D01*
X28536330Y-63143709D01*
X28555250Y-63000000D01*
X28536330Y-62856291D01*
X28480861Y-62722375D01*
X28392621Y-62607379D01*
X28277625Y-62519139D01*
X28277624Y-62519138D01*
X28277622Y-62519137D01*
X28143712Y-62463671D01*
X28143710Y-62463670D01*
X28143709Y-62463670D01*
X28071854Y-62454210D01*
X28000001Y-62444750D01*
X27999999Y-62444750D01*
X27856291Y-62463670D01*
X27856287Y-62463671D01*
X27722377Y-62519137D01*
X27607379Y-62607379D01*
X27519137Y-62722377D01*
X27463671Y-62856287D01*
X27463670Y-62856291D01*
X27444750Y-62999999D01*
X26980250Y-62999999D01*
X26961330Y-62856291D01*
X26905861Y-62722375D01*
X26817621Y-62607379D01*
X26702625Y-62519139D01*
X26702624Y-62519138D01*
X26702622Y-62519137D01*
X26568712Y-62463671D01*
X26568710Y-62463670D01*
X26568709Y-62463670D01*
X26496854Y-62454210D01*
X26425001Y-62444750D01*
X26424999Y-62444750D01*
X26281291Y-62463670D01*
X26281287Y-62463671D01*
X26147377Y-62519137D01*
X26032379Y-62607379D01*
X25944137Y-62722377D01*
X25888671Y-62856287D01*
X25888670Y-62856291D01*
X25869750Y-62999999D01*
X22231418Y-62999999D01*
X22143712Y-62963671D01*
X22143710Y-62963670D01*
X22143709Y-62963670D01*
X22071854Y-62954210D01*
X22000001Y-62944750D01*
X21999999Y-62944750D01*
X21856291Y-62963670D01*
X21856287Y-62963671D01*
X21722377Y-63019137D01*
X21607379Y-63107379D01*
X21519137Y-63222377D01*
X21463671Y-63356287D01*
X21463670Y-63356291D01*
X21444750Y-63499999D01*
X16000000Y-63499999D01*
X16000000Y-61999999D01*
X44444750Y-61999999D01*
X44444750Y-62000000D01*
X44463670Y-62143708D01*
X44463671Y-62143712D01*
X44519137Y-62277622D01*
X44519138Y-62277624D01*
X44519139Y-62277625D01*
X44607379Y-62392621D01*
X44722375Y-62480861D01*
X44856291Y-62536330D01*
X44983280Y-62553048D01*
X44999999Y-62555250D01*
X45000000Y-62555250D01*
X45000001Y-62555250D01*
X45014977Y-62553278D01*
X45143709Y-62536330D01*
X45277625Y-62480861D01*
X45392621Y-62392621D01*
X45480861Y-62277625D01*
X45536330Y-62143709D01*
X45555250Y-62000000D01*
X45536330Y-61856291D01*
X45480861Y-61722375D01*
X45392621Y-61607379D01*
X45277625Y-61519139D01*
X45277624Y-61519138D01*
X45277622Y-61519137D01*
X45143712Y-61463671D01*
X45143710Y-61463670D01*
X45143709Y-61463670D01*
X45071854Y-61454210D01*
X45000001Y-61444750D01*
X44999999Y-61444750D01*
X44856291Y-61463670D01*
X44856287Y-61463671D01*
X44722377Y-61519137D01*
X44607379Y-61607379D01*
X44519137Y-61722377D01*
X44463671Y-61856287D01*
X44463670Y-61856291D01*
X44444750Y-61999999D01*
X16000000Y-61999999D01*
X16000000Y-59500000D01*
X32444750Y-59500000D01*
X32457915Y-59600000D01*
X32463670Y-59643708D01*
X32463671Y-59643712D01*
X32519138Y-59777624D01*
X32535935Y-59799515D01*
X32561128Y-59864685D01*
X32547089Y-59933129D01*
X32535935Y-59950485D01*
X32519138Y-59972375D01*
X32463671Y-60106287D01*
X32463670Y-60106291D01*
X32444750Y-60249999D01*
X32444750Y-60250000D01*
X32463670Y-60393708D01*
X32463671Y-60393712D01*
X32519137Y-60527622D01*
X32519138Y-60527624D01*
X32519139Y-60527625D01*
X32607379Y-60642621D01*
X32722375Y-60730861D01*
X32856291Y-60786330D01*
X32983280Y-60803048D01*
X32999999Y-60805250D01*
X32999999Y-60805249D01*
X33000000Y-60805250D01*
X33064059Y-60796816D01*
X33133093Y-60807581D01*
X33185349Y-60853961D01*
X33204235Y-60921229D01*
X33203183Y-60935940D01*
X33194750Y-60999997D01*
X33194750Y-61000000D01*
X33213670Y-61143708D01*
X33213671Y-61143712D01*
X33269137Y-61277622D01*
X33269138Y-61277624D01*
X33269139Y-61277625D01*
X33357379Y-61392621D01*
X33472375Y-61480861D01*
X33606291Y-61536330D01*
X33733280Y-61553048D01*
X33749999Y-61555250D01*
X33750000Y-61555250D01*
X33750001Y-61555250D01*
X33764977Y-61553278D01*
X33893709Y-61536330D01*
X34027625Y-61480861D01*
X34142621Y-61392621D01*
X34230861Y-61277625D01*
X34286330Y-61143709D01*
X34305250Y-61000000D01*
X34286330Y-60856291D01*
X34249350Y-60767013D01*
X34230862Y-60722377D01*
X34230861Y-60722376D01*
X34230861Y-60722375D01*
X34142621Y-60607379D01*
X34027625Y-60519139D01*
X34027624Y-60519138D01*
X34027622Y-60519137D01*
X33893712Y-60463671D01*
X33893710Y-60463670D01*
X33893709Y-60463670D01*
X33814054Y-60453183D01*
X33750001Y-60444750D01*
X33749998Y-60444750D01*
X33685940Y-60453183D01*
X33616904Y-60442417D01*
X33564649Y-60396037D01*
X33545764Y-60328768D01*
X33546815Y-60314066D01*
X33555250Y-60250000D01*
X33555250Y-60249999D01*
X35944750Y-60249999D01*
X35944750Y-60250000D01*
X35963670Y-60393708D01*
X35963671Y-60393712D01*
X36019137Y-60527622D01*
X36019138Y-60527624D01*
X36019139Y-60527625D01*
X36107379Y-60642621D01*
X36222375Y-60730861D01*
X36356291Y-60786330D01*
X36483280Y-60803048D01*
X36499999Y-60805250D01*
X36500000Y-60805250D01*
X36500001Y-60805250D01*
X36514977Y-60803278D01*
X36643709Y-60786330D01*
X36777625Y-60730861D01*
X36892621Y-60642621D01*
X36980861Y-60527625D01*
X37036330Y-60393709D01*
X37055250Y-60250000D01*
X37036330Y-60106291D01*
X36991903Y-59999034D01*
X36980862Y-59972377D01*
X36980861Y-59972376D01*
X36980861Y-59972375D01*
X36892621Y-59857379D01*
X36777625Y-59769139D01*
X36777624Y-59769138D01*
X36777622Y-59769137D01*
X36643712Y-59713671D01*
X36643710Y-59713670D01*
X36643709Y-59713670D01*
X36571854Y-59704210D01*
X36500001Y-59694750D01*
X36499999Y-59694750D01*
X36356291Y-59713670D01*
X36356287Y-59713671D01*
X36222377Y-59769137D01*
X36107379Y-59857379D01*
X36019137Y-59972377D01*
X35963671Y-60106287D01*
X35963670Y-60106291D01*
X35944750Y-60249999D01*
X33555250Y-60249999D01*
X33536330Y-60106291D01*
X33480861Y-59972375D01*
X33464065Y-59950486D01*
X33438871Y-59885317D01*
X33452909Y-59816872D01*
X33464065Y-59799514D01*
X33474181Y-59786330D01*
X33480861Y-59777625D01*
X33536330Y-59643709D01*
X33555250Y-59500000D01*
X33536330Y-59356291D01*
X33499350Y-59267013D01*
X33480862Y-59222377D01*
X33480861Y-59222376D01*
X33480861Y-59222375D01*
X33392621Y-59107379D01*
X33277625Y-59019139D01*
X33277624Y-59019138D01*
X33277622Y-59019137D01*
X33143712Y-58963671D01*
X33143710Y-58963670D01*
X33143709Y-58963670D01*
X33071854Y-58954210D01*
X33000001Y-58944750D01*
X32999999Y-58944750D01*
X32856291Y-58963670D01*
X32856287Y-58963671D01*
X32722377Y-59019137D01*
X32607379Y-59107379D01*
X32519137Y-59222377D01*
X32463671Y-59356287D01*
X32463670Y-59356291D01*
X32450505Y-59456291D01*
X32444750Y-59500000D01*
X16000000Y-59500000D01*
X16000000Y-58499999D01*
X34194750Y-58499999D01*
X34194750Y-58500000D01*
X34213670Y-58643708D01*
X34213671Y-58643712D01*
X34269137Y-58777622D01*
X34269138Y-58777623D01*
X34269139Y-58777625D01*
X34357379Y-58892621D01*
X34472375Y-58980861D01*
X34606291Y-59036330D01*
X34733280Y-59053048D01*
X34749999Y-59055250D01*
X34750000Y-59055250D01*
X34750001Y-59055250D01*
X34764977Y-59053278D01*
X34893709Y-59036330D01*
X35027625Y-58980861D01*
X35142621Y-58892621D01*
X35230861Y-58777625D01*
X35286330Y-58643709D01*
X35305250Y-58500000D01*
X35305250Y-58499999D01*
X38444750Y-58499999D01*
X38444750Y-58500000D01*
X38463670Y-58643708D01*
X38463671Y-58643712D01*
X38519138Y-58777624D01*
X38535935Y-58799515D01*
X38561128Y-58864685D01*
X38547089Y-58933129D01*
X38535935Y-58950485D01*
X38519138Y-58972375D01*
X38463671Y-59106287D01*
X38463670Y-59106291D01*
X38444750Y-59249999D01*
X38444750Y-59250000D01*
X38463670Y-59393708D01*
X38463671Y-59393712D01*
X38519137Y-59527622D01*
X38519138Y-59527624D01*
X38519139Y-59527625D01*
X38607379Y-59642621D01*
X38608801Y-59643712D01*
X38716854Y-59726625D01*
X38758056Y-59783053D01*
X38762211Y-59852799D01*
X38727998Y-59913719D01*
X38716854Y-59923375D01*
X38607381Y-60007377D01*
X38607380Y-60007378D01*
X38607379Y-60007379D01*
X38563259Y-60064877D01*
X38519137Y-60122377D01*
X38463671Y-60256287D01*
X38463670Y-60256291D01*
X38450453Y-60356686D01*
X38444750Y-60400000D01*
X38461552Y-60527625D01*
X38463670Y-60543708D01*
X38463671Y-60543712D01*
X38519137Y-60677622D01*
X38519138Y-60677624D01*
X38519139Y-60677625D01*
X38607379Y-60792621D01*
X38722375Y-60880861D01*
X38722376Y-60880861D01*
X38722377Y-60880862D01*
X38767013Y-60899350D01*
X38856291Y-60936330D01*
X38983280Y-60953048D01*
X38999999Y-60955250D01*
X39000000Y-60955250D01*
X39000001Y-60955250D01*
X39014977Y-60953278D01*
X39143709Y-60936330D01*
X39277625Y-60880861D01*
X39285263Y-60875000D01*
X41819750Y-60875000D01*
X41836206Y-60999997D01*
X41838670Y-61018708D01*
X41838671Y-61018712D01*
X41894137Y-61152622D01*
X41894138Y-61152624D01*
X41894139Y-61152625D01*
X41982379Y-61267621D01*
X42097375Y-61355861D01*
X42231291Y-61411330D01*
X42358280Y-61428048D01*
X42374999Y-61430250D01*
X42375000Y-61430250D01*
X42375001Y-61430250D01*
X42389977Y-61428278D01*
X42518709Y-61411330D01*
X42652625Y-61355861D01*
X42767621Y-61267621D01*
X42855861Y-61152625D01*
X42911330Y-61018709D01*
X42930250Y-60875000D01*
X42913793Y-60750000D01*
X45194750Y-60750000D01*
X45211978Y-60880861D01*
X45213670Y-60893708D01*
X45213671Y-60893712D01*
X45269137Y-61027622D01*
X45269138Y-61027624D01*
X45269139Y-61027625D01*
X45357379Y-61142621D01*
X45472375Y-61230861D01*
X45606291Y-61286330D01*
X45733280Y-61303048D01*
X45749999Y-61305250D01*
X45750000Y-61305250D01*
X45750001Y-61305250D01*
X45764977Y-61303278D01*
X45893709Y-61286330D01*
X46027625Y-61230861D01*
X46142621Y-61142621D01*
X46230861Y-61027625D01*
X46286330Y-60893709D01*
X46305250Y-60750000D01*
X52944750Y-60750000D01*
X52961978Y-60880861D01*
X52963670Y-60893708D01*
X52963671Y-60893712D01*
X53019137Y-61027622D01*
X53019138Y-61027624D01*
X53019139Y-61027625D01*
X53107379Y-61142621D01*
X53222375Y-61230861D01*
X53356291Y-61286330D01*
X53483280Y-61303048D01*
X53499999Y-61305250D01*
X53500000Y-61305250D01*
X53500001Y-61305250D01*
X53514977Y-61303278D01*
X53643709Y-61286330D01*
X53777625Y-61230861D01*
X53892621Y-61142621D01*
X53980861Y-61027625D01*
X54036330Y-60893709D01*
X54055250Y-60750000D01*
X54036330Y-60606291D01*
X53980861Y-60472375D01*
X53892621Y-60357379D01*
X53891713Y-60356682D01*
X53891142Y-60355900D01*
X53886874Y-60351632D01*
X53887539Y-60350966D01*
X53850511Y-60300260D01*
X53846354Y-60230514D01*
X53880564Y-60169592D01*
X53936284Y-60140019D01*
X53935859Y-60138433D01*
X53943700Y-60136331D01*
X53943709Y-60136330D01*
X54077625Y-60080861D01*
X54192621Y-59992621D01*
X54280861Y-59877625D01*
X54336330Y-59743709D01*
X54355250Y-59600000D01*
X54336330Y-59456291D01*
X54280861Y-59322375D01*
X54192621Y-59207379D01*
X54077625Y-59119139D01*
X54077624Y-59119138D01*
X54077622Y-59119137D01*
X53943712Y-59063671D01*
X53943710Y-59063670D01*
X53943709Y-59063670D01*
X53871854Y-59054210D01*
X53800001Y-59044750D01*
X53799999Y-59044750D01*
X53656291Y-59063670D01*
X53656287Y-59063671D01*
X53522377Y-59119137D01*
X53407379Y-59207379D01*
X53319137Y-59322377D01*
X53263671Y-59456287D01*
X53263670Y-59456291D01*
X53254279Y-59527625D01*
X53244750Y-59600000D01*
X53261978Y-59730861D01*
X53263670Y-59743708D01*
X53263671Y-59743712D01*
X53319137Y-59877622D01*
X53319138Y-59877624D01*
X53319139Y-59877625D01*
X53407379Y-59992621D01*
X53408282Y-59993314D01*
X53408852Y-59994094D01*
X53413126Y-59998368D01*
X53412459Y-59999034D01*
X53449487Y-60049737D01*
X53453646Y-60119483D01*
X53419437Y-60180405D01*
X53363715Y-60209980D01*
X53364141Y-60211567D01*
X53356287Y-60213671D01*
X53222377Y-60269137D01*
X53107379Y-60357379D01*
X53019137Y-60472377D01*
X52963671Y-60606287D01*
X52963670Y-60606291D01*
X52947270Y-60730862D01*
X52944750Y-60750000D01*
X46305250Y-60750000D01*
X46286330Y-60606291D01*
X46230861Y-60472375D01*
X46142621Y-60357379D01*
X46027625Y-60269139D01*
X46027624Y-60269138D01*
X46027622Y-60269137D01*
X45893712Y-60213671D01*
X45893710Y-60213670D01*
X45893709Y-60213670D01*
X45821854Y-60204210D01*
X45750001Y-60194750D01*
X45749999Y-60194750D01*
X45606291Y-60213670D01*
X45606287Y-60213671D01*
X45472377Y-60269137D01*
X45357379Y-60357379D01*
X45269137Y-60472377D01*
X45213671Y-60606287D01*
X45213670Y-60606291D01*
X45197270Y-60730862D01*
X45194750Y-60750000D01*
X42913793Y-60750000D01*
X42911330Y-60731291D01*
X42859554Y-60606291D01*
X42855862Y-60597377D01*
X42855861Y-60597376D01*
X42855861Y-60597375D01*
X42767621Y-60482379D01*
X42652625Y-60394139D01*
X42652624Y-60394138D01*
X42652622Y-60394137D01*
X42518712Y-60338671D01*
X42518710Y-60338670D01*
X42518709Y-60338670D01*
X42443497Y-60328768D01*
X42375001Y-60319750D01*
X42374999Y-60319750D01*
X42231291Y-60338670D01*
X42231287Y-60338671D01*
X42097377Y-60394137D01*
X41982379Y-60482379D01*
X41894137Y-60597377D01*
X41838671Y-60731287D01*
X41838670Y-60731291D01*
X41819750Y-60875000D01*
X39285263Y-60875000D01*
X39392621Y-60792621D01*
X39480861Y-60677625D01*
X39536330Y-60543709D01*
X39555250Y-60400000D01*
X39536330Y-60256291D01*
X39486641Y-60136330D01*
X39480862Y-60122377D01*
X39480861Y-60122376D01*
X39480861Y-60122375D01*
X39392621Y-60007379D01*
X39392619Y-60007378D01*
X39392619Y-60007377D01*
X39318477Y-59950486D01*
X39283145Y-59923374D01*
X39241943Y-59866948D01*
X39237788Y-59797202D01*
X39272000Y-59736282D01*
X39283145Y-59726625D01*
X39392621Y-59642621D01*
X39480861Y-59527625D01*
X39536330Y-59393709D01*
X39555250Y-59250000D01*
X39536330Y-59106291D01*
X39480861Y-58972375D01*
X39464065Y-58950486D01*
X39449379Y-58912499D01*
X45944750Y-58912499D01*
X45944750Y-58912500D01*
X45963670Y-59056208D01*
X45963671Y-59056212D01*
X46019137Y-59190122D01*
X46019138Y-59190124D01*
X46019139Y-59190125D01*
X46107379Y-59305121D01*
X46222375Y-59393361D01*
X46222376Y-59393361D01*
X46222377Y-59393362D01*
X46223215Y-59393709D01*
X46356291Y-59448830D01*
X46483280Y-59465548D01*
X46499999Y-59467750D01*
X46500000Y-59467750D01*
X46500001Y-59467750D01*
X46514977Y-59465778D01*
X46643709Y-59448830D01*
X46777625Y-59393361D01*
X46892621Y-59305121D01*
X46980861Y-59190125D01*
X47036330Y-59056209D01*
X47055250Y-58912500D01*
X47036330Y-58768791D01*
X46980861Y-58634875D01*
X46892621Y-58519879D01*
X46777625Y-58431639D01*
X46777624Y-58431638D01*
X46777622Y-58431637D01*
X46643712Y-58376171D01*
X46643710Y-58376170D01*
X46643709Y-58376170D01*
X46571854Y-58366710D01*
X46500001Y-58357250D01*
X46499999Y-58357250D01*
X46356291Y-58376170D01*
X46356287Y-58376171D01*
X46222377Y-58431637D01*
X46107379Y-58519879D01*
X46019137Y-58634877D01*
X45963671Y-58768787D01*
X45963670Y-58768791D01*
X45944750Y-58912499D01*
X39449379Y-58912499D01*
X39438871Y-58885317D01*
X39452909Y-58816872D01*
X39464065Y-58799514D01*
X39466135Y-58796815D01*
X39480861Y-58777625D01*
X39536330Y-58643709D01*
X39555250Y-58500000D01*
X39536330Y-58356291D01*
X39499350Y-58267013D01*
X39480862Y-58222377D01*
X39480861Y-58222376D01*
X39480861Y-58222375D01*
X39392621Y-58107379D01*
X39277625Y-58019139D01*
X39277624Y-58019138D01*
X39277622Y-58019137D01*
X39143712Y-57963671D01*
X39143710Y-57963670D01*
X39143709Y-57963670D01*
X39071854Y-57954210D01*
X39000001Y-57944750D01*
X38999999Y-57944750D01*
X38856291Y-57963670D01*
X38856287Y-57963671D01*
X38722377Y-58019137D01*
X38607379Y-58107379D01*
X38519137Y-58222377D01*
X38463671Y-58356287D01*
X38463670Y-58356291D01*
X38444750Y-58499999D01*
X35305250Y-58499999D01*
X35286330Y-58356291D01*
X35249350Y-58267013D01*
X35230862Y-58222377D01*
X35230861Y-58222376D01*
X35230861Y-58222375D01*
X35142621Y-58107379D01*
X35027625Y-58019139D01*
X35027624Y-58019138D01*
X35027622Y-58019137D01*
X34893712Y-57963671D01*
X34893710Y-57963670D01*
X34893709Y-57963670D01*
X34821854Y-57954210D01*
X34750001Y-57944750D01*
X34749999Y-57944750D01*
X34606291Y-57963670D01*
X34606287Y-57963671D01*
X34472377Y-58019137D01*
X34357379Y-58107379D01*
X34269137Y-58222377D01*
X34213671Y-58356287D01*
X34213670Y-58356291D01*
X34194750Y-58499999D01*
X16000000Y-58499999D01*
X16000000Y-57499999D01*
X28694750Y-57499999D01*
X28694750Y-57500000D01*
X28713670Y-57643708D01*
X28713671Y-57643712D01*
X28769137Y-57777622D01*
X28769138Y-57777624D01*
X28769139Y-57777625D01*
X28857379Y-57892621D01*
X28972375Y-57980861D01*
X29106291Y-58036330D01*
X29233280Y-58053048D01*
X29249999Y-58055250D01*
X29250000Y-58055250D01*
X29250001Y-58055250D01*
X29264977Y-58053278D01*
X29393709Y-58036330D01*
X29527625Y-57980861D01*
X29616716Y-57912499D01*
X41194750Y-57912499D01*
X41194750Y-57912500D01*
X41213670Y-58056208D01*
X41213671Y-58056212D01*
X41269137Y-58190122D01*
X41269138Y-58190124D01*
X41269139Y-58190125D01*
X41357379Y-58305121D01*
X41472375Y-58393361D01*
X41606291Y-58448830D01*
X41733280Y-58465548D01*
X41749999Y-58467750D01*
X41750000Y-58467750D01*
X41750001Y-58467750D01*
X41764977Y-58465778D01*
X41893709Y-58448830D01*
X42027625Y-58393361D01*
X42142621Y-58305121D01*
X42230861Y-58190125D01*
X42286330Y-58056209D01*
X42305250Y-57912500D01*
X42286330Y-57768791D01*
X42278546Y-57749999D01*
X43444750Y-57749999D01*
X43444750Y-57750000D01*
X43463670Y-57893708D01*
X43463671Y-57893712D01*
X43519137Y-58027622D01*
X43519138Y-58027624D01*
X43519139Y-58027625D01*
X43607379Y-58142621D01*
X43722375Y-58230861D01*
X43856291Y-58286330D01*
X43983280Y-58303048D01*
X43999999Y-58305250D01*
X44000000Y-58305250D01*
X44000001Y-58305250D01*
X44014977Y-58303278D01*
X44143709Y-58286330D01*
X44277625Y-58230861D01*
X44392621Y-58142621D01*
X44480861Y-58027625D01*
X44536330Y-57893709D01*
X44555250Y-57750000D01*
X44536330Y-57606291D01*
X44499350Y-57517013D01*
X44492303Y-57499999D01*
X63694750Y-57499999D01*
X63694750Y-57500000D01*
X63713670Y-57643708D01*
X63713671Y-57643712D01*
X63769137Y-57777622D01*
X63769138Y-57777624D01*
X63769139Y-57777625D01*
X63857379Y-57892621D01*
X63972375Y-57980861D01*
X64106291Y-58036330D01*
X64233280Y-58053048D01*
X64249999Y-58055250D01*
X64250000Y-58055250D01*
X64250001Y-58055250D01*
X64264977Y-58053278D01*
X64393709Y-58036330D01*
X64527625Y-57980861D01*
X64642621Y-57892621D01*
X64730861Y-57777625D01*
X64786330Y-57643709D01*
X64805250Y-57500000D01*
X64786330Y-57356291D01*
X64730861Y-57222375D01*
X64642621Y-57107379D01*
X64527625Y-57019139D01*
X64527624Y-57019138D01*
X64527622Y-57019137D01*
X64393712Y-56963671D01*
X64393710Y-56963670D01*
X64393709Y-56963670D01*
X64321854Y-56954210D01*
X64250001Y-56944750D01*
X64249999Y-56944750D01*
X64106291Y-56963670D01*
X64106287Y-56963671D01*
X63972377Y-57019137D01*
X63857379Y-57107379D01*
X63769137Y-57222377D01*
X63713671Y-57356287D01*
X63713670Y-57356291D01*
X63694750Y-57499999D01*
X44492303Y-57499999D01*
X44480862Y-57472377D01*
X44480861Y-57472376D01*
X44480861Y-57472375D01*
X44392621Y-57357379D01*
X44277625Y-57269139D01*
X44277624Y-57269138D01*
X44277622Y-57269137D01*
X44143712Y-57213671D01*
X44143710Y-57213670D01*
X44143709Y-57213670D01*
X44071854Y-57204210D01*
X44000001Y-57194750D01*
X43999999Y-57194750D01*
X43856291Y-57213670D01*
X43856287Y-57213671D01*
X43722377Y-57269137D01*
X43607379Y-57357379D01*
X43519137Y-57472377D01*
X43463671Y-57606287D01*
X43463670Y-57606291D01*
X43444750Y-57749999D01*
X42278546Y-57749999D01*
X42230861Y-57634875D01*
X42142621Y-57519879D01*
X42027625Y-57431639D01*
X42027624Y-57431638D01*
X42027622Y-57431637D01*
X41893712Y-57376171D01*
X41893710Y-57376170D01*
X41893709Y-57376170D01*
X41821854Y-57366710D01*
X41750001Y-57357250D01*
X41749999Y-57357250D01*
X41606291Y-57376170D01*
X41606287Y-57376171D01*
X41472377Y-57431637D01*
X41357379Y-57519879D01*
X41269137Y-57634877D01*
X41213671Y-57768787D01*
X41213670Y-57768791D01*
X41194750Y-57912499D01*
X29616716Y-57912499D01*
X29642621Y-57892621D01*
X29730861Y-57777625D01*
X29786330Y-57643709D01*
X29805250Y-57500000D01*
X29786330Y-57356291D01*
X29730861Y-57222375D01*
X29642621Y-57107379D01*
X29527625Y-57019139D01*
X29527624Y-57019138D01*
X29527622Y-57019137D01*
X29481418Y-56999999D01*
X34194750Y-56999999D01*
X34194750Y-57000000D01*
X34213670Y-57143708D01*
X34213671Y-57143712D01*
X34269137Y-57277622D01*
X34269138Y-57277624D01*
X34269139Y-57277625D01*
X34357379Y-57392621D01*
X34472375Y-57480861D01*
X34606291Y-57536330D01*
X34733280Y-57553048D01*
X34749999Y-57555250D01*
X34750000Y-57555250D01*
X34750001Y-57555250D01*
X34764977Y-57553278D01*
X34893709Y-57536330D01*
X35027625Y-57480861D01*
X35142621Y-57392621D01*
X35230861Y-57277625D01*
X35286330Y-57143709D01*
X35305250Y-57000000D01*
X35286330Y-56856291D01*
X35230861Y-56722375D01*
X35142621Y-56607379D01*
X35027625Y-56519139D01*
X35027624Y-56519138D01*
X35027622Y-56519137D01*
X34893712Y-56463671D01*
X34893710Y-56463670D01*
X34893709Y-56463670D01*
X34821854Y-56454210D01*
X34750001Y-56444750D01*
X34749999Y-56444750D01*
X34606291Y-56463670D01*
X34606287Y-56463671D01*
X34472377Y-56519137D01*
X34357379Y-56607379D01*
X34269137Y-56722377D01*
X34213671Y-56856287D01*
X34213670Y-56856291D01*
X34194750Y-56999999D01*
X29481418Y-56999999D01*
X29393712Y-56963671D01*
X29393710Y-56963670D01*
X29393709Y-56963670D01*
X29321854Y-56954210D01*
X29250001Y-56944750D01*
X29249999Y-56944750D01*
X29106291Y-56963670D01*
X29106287Y-56963671D01*
X28972377Y-57019137D01*
X28857379Y-57107379D01*
X28769137Y-57222377D01*
X28713671Y-57356287D01*
X28713670Y-57356291D01*
X28694750Y-57499999D01*
X16000000Y-57499999D01*
X16000000Y-54749999D01*
X31944750Y-54749999D01*
X31944750Y-54750000D01*
X31963670Y-54893708D01*
X31963671Y-54893712D01*
X32019137Y-55027622D01*
X32019138Y-55027624D01*
X32019139Y-55027625D01*
X32107379Y-55142621D01*
X32222375Y-55230861D01*
X32356291Y-55286330D01*
X32483280Y-55303048D01*
X32499999Y-55305250D01*
X32500000Y-55305250D01*
X32500001Y-55305250D01*
X32514977Y-55303278D01*
X32643709Y-55286330D01*
X32777625Y-55230861D01*
X32892621Y-55142621D01*
X32980861Y-55027625D01*
X33036330Y-54893709D01*
X33055250Y-54750000D01*
X33036330Y-54606291D01*
X32999350Y-54517013D01*
X32992303Y-54499999D01*
X39944750Y-54499999D01*
X39944750Y-54500000D01*
X39963670Y-54643708D01*
X39963671Y-54643712D01*
X40019137Y-54777622D01*
X40019138Y-54777624D01*
X40019139Y-54777625D01*
X40107379Y-54892621D01*
X40222375Y-54980861D01*
X40222376Y-54980861D01*
X40222377Y-54980862D01*
X40267013Y-54999350D01*
X40356291Y-55036330D01*
X40483280Y-55053048D01*
X40499999Y-55055250D01*
X40500000Y-55055250D01*
X40500001Y-55055250D01*
X40514977Y-55053278D01*
X40643709Y-55036330D01*
X40777625Y-54980861D01*
X40777634Y-54980853D01*
X40779072Y-54980024D01*
X40780459Y-54979687D01*
X40785134Y-54977751D01*
X40785435Y-54978479D01*
X40846970Y-54963543D01*
X40912999Y-54986386D01*
X40956197Y-55041301D01*
X40964025Y-55103588D01*
X40944750Y-55249997D01*
X40944750Y-55250000D01*
X40963670Y-55393708D01*
X40963671Y-55393712D01*
X41019137Y-55527622D01*
X41019138Y-55527624D01*
X41019139Y-55527625D01*
X41107379Y-55642621D01*
X41222375Y-55730861D01*
X41356291Y-55786330D01*
X41483280Y-55803048D01*
X41499999Y-55805250D01*
X41500000Y-55805250D01*
X41500001Y-55805250D01*
X41514977Y-55803278D01*
X41643709Y-55786330D01*
X41777625Y-55730861D01*
X41892621Y-55642621D01*
X41980861Y-55527625D01*
X42036330Y-55393709D01*
X42055250Y-55250000D01*
X42036330Y-55106291D01*
X41999350Y-55017013D01*
X41980862Y-54972377D01*
X41980861Y-54972376D01*
X41980861Y-54972375D01*
X41892621Y-54857379D01*
X41777625Y-54769139D01*
X41777624Y-54769138D01*
X41777622Y-54769137D01*
X41643712Y-54713671D01*
X41643710Y-54713670D01*
X41643709Y-54713670D01*
X41571854Y-54704210D01*
X41500001Y-54694750D01*
X41499999Y-54694750D01*
X41356291Y-54713670D01*
X41356287Y-54713671D01*
X41222372Y-54769139D01*
X41220912Y-54769983D01*
X41219523Y-54770319D01*
X41214866Y-54772249D01*
X41214565Y-54771522D01*
X41153012Y-54786456D01*
X41086985Y-54763603D01*
X41043795Y-54708682D01*
X41035974Y-54646410D01*
X41055250Y-54500000D01*
X41055250Y-54499999D01*
X41051613Y-54472375D01*
X41036330Y-54356291D01*
X40980861Y-54222375D01*
X40892621Y-54107379D01*
X40777625Y-54019139D01*
X40777624Y-54019138D01*
X40777622Y-54019137D01*
X40643712Y-53963671D01*
X40643710Y-53963670D01*
X40643709Y-53963670D01*
X40571854Y-53954210D01*
X40500001Y-53944750D01*
X40499999Y-53944750D01*
X40356291Y-53963670D01*
X40356287Y-53963671D01*
X40222377Y-54019137D01*
X40107379Y-54107379D01*
X40019137Y-54222377D01*
X39963671Y-54356287D01*
X39963670Y-54356291D01*
X39944750Y-54499999D01*
X32992303Y-54499999D01*
X32980862Y-54472377D01*
X32980861Y-54472376D01*
X32980861Y-54472375D01*
X32892621Y-54357379D01*
X32777625Y-54269139D01*
X32777624Y-54269138D01*
X32777622Y-54269137D01*
X32643712Y-54213671D01*
X32643710Y-54213670D01*
X32643709Y-54213670D01*
X32571854Y-54204210D01*
X32500001Y-54194750D01*
X32499999Y-54194750D01*
X32356291Y-54213670D01*
X32356287Y-54213671D01*
X32222377Y-54269137D01*
X32107379Y-54357379D01*
X32019137Y-54472377D01*
X31963671Y-54606287D01*
X31963670Y-54606291D01*
X31944750Y-54749999D01*
X16000000Y-54749999D01*
X16000000Y-52799999D01*
X36244750Y-52799999D01*
X36244750Y-52800000D01*
X36263670Y-52943708D01*
X36263671Y-52943712D01*
X36319137Y-53077622D01*
X36319138Y-53077624D01*
X36319139Y-53077625D01*
X36407379Y-53192621D01*
X36522375Y-53280861D01*
X36656291Y-53336330D01*
X36783280Y-53353048D01*
X36799999Y-53355250D01*
X36800000Y-53355250D01*
X36800001Y-53355250D01*
X36814977Y-53353278D01*
X36943709Y-53336330D01*
X37077625Y-53280861D01*
X37192621Y-53192621D01*
X37280861Y-53077625D01*
X37300205Y-53030921D01*
X37344042Y-52976521D01*
X37398580Y-52955436D01*
X37399996Y-52955249D01*
X37400000Y-52955250D01*
X37543709Y-52936330D01*
X37677625Y-52880861D01*
X37792621Y-52792621D01*
X37880861Y-52677625D01*
X37900205Y-52630921D01*
X37944042Y-52576521D01*
X37998580Y-52555436D01*
X37999996Y-52555249D01*
X38000000Y-52555250D01*
X38143709Y-52536330D01*
X38277625Y-52480861D01*
X38392621Y-52392621D01*
X38480861Y-52277625D01*
X38500205Y-52230921D01*
X38544042Y-52176521D01*
X38598580Y-52155436D01*
X38599996Y-52155249D01*
X38600000Y-52155250D01*
X38743709Y-52136330D01*
X38877625Y-52080861D01*
X38992621Y-51992621D01*
X39080861Y-51877625D01*
X39081623Y-51875786D01*
X39082681Y-51874472D01*
X39084924Y-51870588D01*
X39085529Y-51870937D01*
X39125462Y-51821381D01*
X39191756Y-51799314D01*
X39212371Y-51800296D01*
X39249999Y-51805250D01*
X39250000Y-51805250D01*
X39250001Y-51805250D01*
X39264977Y-51803278D01*
X39393709Y-51786330D01*
X39527625Y-51730861D01*
X39642621Y-51642621D01*
X39730861Y-51527625D01*
X39786330Y-51393709D01*
X39805250Y-51250000D01*
X39786330Y-51106291D01*
X39747012Y-51011367D01*
X39730862Y-50972377D01*
X39730861Y-50972376D01*
X39730861Y-50972375D01*
X39642621Y-50857379D01*
X39527625Y-50769139D01*
X39527624Y-50769138D01*
X39527622Y-50769137D01*
X39393712Y-50713671D01*
X39393710Y-50713670D01*
X39393709Y-50713670D01*
X39321854Y-50704210D01*
X39250001Y-50694750D01*
X39249999Y-50694750D01*
X39106291Y-50713670D01*
X39106287Y-50713671D01*
X38972377Y-50769137D01*
X38857379Y-50857379D01*
X38769136Y-50972378D01*
X38769135Y-50972381D01*
X38768372Y-50974224D01*
X38767312Y-50975539D01*
X38765073Y-50979417D01*
X38764468Y-50979067D01*
X38724528Y-51028625D01*
X38658232Y-51050685D01*
X38637631Y-51049703D01*
X38600004Y-51044750D01*
X38599999Y-51044750D01*
X38456291Y-51063670D01*
X38456287Y-51063671D01*
X38322377Y-51119137D01*
X38207379Y-51207379D01*
X38119137Y-51322378D01*
X38099794Y-51369077D01*
X38055953Y-51423480D01*
X38001419Y-51444563D01*
X37856291Y-51463670D01*
X37856287Y-51463671D01*
X37722377Y-51519137D01*
X37607379Y-51607379D01*
X37580338Y-51642620D01*
X37519137Y-51722378D01*
X37499794Y-51769077D01*
X37455953Y-51823480D01*
X37401419Y-51844563D01*
X37256291Y-51863670D01*
X37256287Y-51863671D01*
X37122377Y-51919137D01*
X37007379Y-52007379D01*
X36919137Y-52122378D01*
X36899794Y-52169077D01*
X36855953Y-52223480D01*
X36801419Y-52244563D01*
X36656291Y-52263670D01*
X36656287Y-52263671D01*
X36522377Y-52319137D01*
X36407379Y-52407379D01*
X36319137Y-52522377D01*
X36263671Y-52656287D01*
X36263670Y-52656291D01*
X36244750Y-52799999D01*
X16000000Y-52799999D01*
X16000000Y-50499999D01*
X25194750Y-50499999D01*
X25194750Y-50500000D01*
X25213670Y-50643708D01*
X25213671Y-50643712D01*
X25269137Y-50777622D01*
X25269138Y-50777624D01*
X25269139Y-50777625D01*
X25357379Y-50892621D01*
X25472375Y-50980861D01*
X25606291Y-51036330D01*
X25733280Y-51053048D01*
X25749999Y-51055250D01*
X25750000Y-51055250D01*
X25750001Y-51055250D01*
X25764977Y-51053278D01*
X25893709Y-51036330D01*
X26027625Y-50980861D01*
X26142621Y-50892621D01*
X26230861Y-50777625D01*
X26275440Y-50670000D01*
X27420702Y-50670000D01*
X27439043Y-50844501D01*
X27493260Y-51011367D01*
X27493263Y-51011373D01*
X27580993Y-51163326D01*
X27698394Y-51293715D01*
X27698401Y-51293721D01*
X27840346Y-51396850D01*
X27840351Y-51396853D01*
X28000638Y-51468218D01*
X28000643Y-51468220D01*
X28172269Y-51504700D01*
X28172270Y-51504700D01*
X28347729Y-51504700D01*
X28347731Y-51504700D01*
X28519357Y-51468220D01*
X28679649Y-51396853D01*
X28821600Y-51293720D01*
X28821604Y-51293715D01*
X28822114Y-51293345D01*
X28887920Y-51269865D01*
X28955974Y-51285690D01*
X28967886Y-51293345D01*
X28968395Y-51293715D01*
X28968400Y-51293720D01*
X29106022Y-51393708D01*
X29110351Y-51396853D01*
X29270638Y-51468218D01*
X29270643Y-51468220D01*
X29442269Y-51504700D01*
X29442270Y-51504700D01*
X29617729Y-51504700D01*
X29617731Y-51504700D01*
X29789357Y-51468220D01*
X29949649Y-51396853D01*
X30091600Y-51293720D01*
X30091604Y-51293715D01*
X30092114Y-51293345D01*
X30157920Y-51269865D01*
X30225974Y-51285690D01*
X30237886Y-51293345D01*
X30238395Y-51293715D01*
X30238400Y-51293720D01*
X30376022Y-51393708D01*
X30380351Y-51396853D01*
X30540638Y-51468218D01*
X30540643Y-51468220D01*
X30712269Y-51504700D01*
X30712270Y-51504700D01*
X30887729Y-51504700D01*
X30887731Y-51504700D01*
X31059357Y-51468220D01*
X31219649Y-51396853D01*
X31361600Y-51293720D01*
X31361604Y-51293715D01*
X31362114Y-51293345D01*
X31427920Y-51269865D01*
X31495974Y-51285690D01*
X31507886Y-51293345D01*
X31508395Y-51293715D01*
X31508400Y-51293720D01*
X31646022Y-51393708D01*
X31650351Y-51396853D01*
X31810638Y-51468218D01*
X31810643Y-51468220D01*
X31982269Y-51504700D01*
X31982270Y-51504700D01*
X32157729Y-51504700D01*
X32157731Y-51504700D01*
X32329357Y-51468220D01*
X32489649Y-51396853D01*
X32631600Y-51293720D01*
X32631604Y-51293715D01*
X32632114Y-51293345D01*
X32697920Y-51269865D01*
X32765974Y-51285690D01*
X32777886Y-51293345D01*
X32778395Y-51293715D01*
X32778400Y-51293720D01*
X32916022Y-51393708D01*
X32920351Y-51396853D01*
X33080638Y-51468218D01*
X33080643Y-51468220D01*
X33252269Y-51504700D01*
X33252270Y-51504700D01*
X33427729Y-51504700D01*
X33427731Y-51504700D01*
X33599357Y-51468220D01*
X33759649Y-51396853D01*
X33901600Y-51293720D01*
X33908831Y-51285690D01*
X33943413Y-51247281D01*
X34019006Y-51163327D01*
X34106737Y-51011373D01*
X34160957Y-50844500D01*
X34179298Y-50670000D01*
X34160957Y-50495500D01*
X34138155Y-50425321D01*
X49199500Y-50425321D01*
X49199500Y-51574678D01*
X49214032Y-51647735D01*
X49214033Y-51647739D01*
X49214034Y-51647740D01*
X49269399Y-51730601D01*
X49352260Y-51785966D01*
X49352264Y-51785967D01*
X49425321Y-51800499D01*
X49425324Y-51800500D01*
X49425326Y-51800500D01*
X50574676Y-51800500D01*
X50574677Y-51800499D01*
X50647740Y-51785966D01*
X50730601Y-51730601D01*
X50785966Y-51647740D01*
X50800500Y-51574674D01*
X50800500Y-50425326D01*
X50800500Y-50425323D01*
X50800499Y-50425321D01*
X50785967Y-50352264D01*
X50785966Y-50352260D01*
X50730601Y-50269399D01*
X50675235Y-50232405D01*
X50647739Y-50214033D01*
X50647735Y-50214032D01*
X50574677Y-50199500D01*
X50574674Y-50199500D01*
X49425326Y-50199500D01*
X49425323Y-50199500D01*
X49352264Y-50214032D01*
X49352260Y-50214033D01*
X49269399Y-50269399D01*
X49214033Y-50352260D01*
X49214032Y-50352264D01*
X49199500Y-50425321D01*
X34138155Y-50425321D01*
X34106737Y-50328627D01*
X34045392Y-50222375D01*
X34019007Y-50176674D01*
X34010968Y-50167746D01*
X33966150Y-50117970D01*
X33935921Y-50054981D01*
X33944546Y-49985646D01*
X33966149Y-49952030D01*
X34019006Y-49893327D01*
X34106737Y-49741373D01*
X34160957Y-49574500D01*
X34179298Y-49400000D01*
X34160957Y-49225500D01*
X34106737Y-49058627D01*
X34019006Y-48906673D01*
X33901605Y-48776284D01*
X33901598Y-48776278D01*
X33759653Y-48673149D01*
X33759648Y-48673146D01*
X33599361Y-48601781D01*
X33599356Y-48601779D01*
X33464210Y-48573053D01*
X33427731Y-48565300D01*
X33252269Y-48565300D01*
X33222184Y-48571694D01*
X33080643Y-48601779D01*
X33080638Y-48601781D01*
X32920351Y-48673146D01*
X32920346Y-48673149D01*
X32778401Y-48776278D01*
X32778394Y-48776284D01*
X32660993Y-48906673D01*
X32573263Y-49058626D01*
X32573260Y-49058632D01*
X32519043Y-49225498D01*
X32500702Y-49400000D01*
X32519043Y-49574501D01*
X32573260Y-49741367D01*
X32574590Y-49744352D01*
X32574842Y-49746235D01*
X32575271Y-49747554D01*
X32575030Y-49747632D01*
X32583880Y-49813602D01*
X32554256Y-49876880D01*
X32495123Y-49914098D01*
X32425257Y-49913438D01*
X32410882Y-49908077D01*
X32329357Y-49871780D01*
X32329355Y-49871779D01*
X32329354Y-49871779D01*
X32221184Y-49848787D01*
X32157731Y-49835300D01*
X31982269Y-49835300D01*
X31952184Y-49841694D01*
X31810643Y-49871779D01*
X31810638Y-49871781D01*
X31650351Y-49943146D01*
X31650346Y-49943149D01*
X31507885Y-50046654D01*
X31442079Y-50070134D01*
X31374025Y-50054309D01*
X31362115Y-50046654D01*
X31219653Y-49943149D01*
X31219648Y-49943146D01*
X31059361Y-49871781D01*
X31059356Y-49871779D01*
X30924210Y-49843053D01*
X30887731Y-49835300D01*
X30712269Y-49835300D01*
X30682184Y-49841694D01*
X30540643Y-49871779D01*
X30540642Y-49871779D01*
X30459120Y-49908076D01*
X30389870Y-49917360D01*
X30326594Y-49887731D01*
X30289381Y-49828596D01*
X30290046Y-49758730D01*
X30295414Y-49744342D01*
X30296732Y-49741381D01*
X30296737Y-49741373D01*
X30350957Y-49574500D01*
X30369298Y-49400000D01*
X30350957Y-49225500D01*
X30296737Y-49058627D01*
X30209006Y-48906673D01*
X30091605Y-48776284D01*
X30091598Y-48776278D01*
X29949653Y-48673149D01*
X29949648Y-48673146D01*
X29789361Y-48601781D01*
X29789356Y-48601779D01*
X29654210Y-48573053D01*
X29617731Y-48565300D01*
X29442269Y-48565300D01*
X29412184Y-48571694D01*
X29270643Y-48601779D01*
X29270638Y-48601781D01*
X29110351Y-48673146D01*
X29110346Y-48673149D01*
X28968401Y-48776278D01*
X28968394Y-48776284D01*
X28850993Y-48906673D01*
X28763263Y-49058626D01*
X28763260Y-49058632D01*
X28709043Y-49225498D01*
X28690702Y-49400000D01*
X28709043Y-49574501D01*
X28763260Y-49741367D01*
X28764590Y-49744352D01*
X28764842Y-49746235D01*
X28765271Y-49747554D01*
X28765030Y-49747632D01*
X28773880Y-49813602D01*
X28744256Y-49876880D01*
X28685123Y-49914098D01*
X28615257Y-49913438D01*
X28600882Y-49908077D01*
X28519357Y-49871780D01*
X28519355Y-49871779D01*
X28519354Y-49871779D01*
X28411184Y-49848787D01*
X28347731Y-49835300D01*
X28172269Y-49835300D01*
X28142184Y-49841694D01*
X28000643Y-49871779D01*
X28000638Y-49871781D01*
X27840351Y-49943146D01*
X27840346Y-49943149D01*
X27698401Y-50046278D01*
X27698394Y-50046284D01*
X27580993Y-50176673D01*
X27493263Y-50328626D01*
X27493260Y-50328632D01*
X27439043Y-50495498D01*
X27420702Y-50670000D01*
X26275440Y-50670000D01*
X26286330Y-50643709D01*
X26305250Y-50500000D01*
X26286330Y-50356291D01*
X26230861Y-50222375D01*
X26142621Y-50107379D01*
X26027625Y-50019139D01*
X26027624Y-50019138D01*
X26027622Y-50019137D01*
X25893712Y-49963671D01*
X25893710Y-49963670D01*
X25893709Y-49963670D01*
X25805281Y-49952028D01*
X25750001Y-49944750D01*
X25749999Y-49944750D01*
X25606291Y-49963670D01*
X25606287Y-49963671D01*
X25472377Y-50019137D01*
X25357379Y-50107379D01*
X25269137Y-50222377D01*
X25213671Y-50356287D01*
X25213670Y-50356291D01*
X25194750Y-50499999D01*
X16000000Y-50499999D01*
X16000000Y-47249999D01*
X24194750Y-47249999D01*
X24194750Y-47250000D01*
X24213670Y-47393708D01*
X24213671Y-47393712D01*
X24269137Y-47527622D01*
X24269138Y-47527624D01*
X24269139Y-47527625D01*
X24357379Y-47642621D01*
X24472375Y-47730861D01*
X24606291Y-47786330D01*
X24733280Y-47803048D01*
X24749999Y-47805250D01*
X24750000Y-47805250D01*
X24750001Y-47805250D01*
X24764977Y-47803278D01*
X24893709Y-47786330D01*
X25027625Y-47730861D01*
X25142621Y-47642621D01*
X25230861Y-47527625D01*
X25286330Y-47393709D01*
X25305250Y-47250000D01*
X25305250Y-47249999D01*
X26694750Y-47249999D01*
X26694750Y-47250000D01*
X26713670Y-47393708D01*
X26713671Y-47393712D01*
X26769137Y-47527622D01*
X26769138Y-47527624D01*
X26769139Y-47527625D01*
X26857379Y-47642621D01*
X26972375Y-47730861D01*
X27106291Y-47786330D01*
X27233280Y-47803048D01*
X27249999Y-47805250D01*
X27250000Y-47805250D01*
X27250001Y-47805250D01*
X27264977Y-47803278D01*
X27393709Y-47786330D01*
X27527625Y-47730861D01*
X27642621Y-47642621D01*
X27730861Y-47527625D01*
X27786330Y-47393709D01*
X27805250Y-47250000D01*
X27786330Y-47106291D01*
X27749350Y-47017013D01*
X27730862Y-46972377D01*
X27730861Y-46972376D01*
X27730861Y-46972375D01*
X27642621Y-46857379D01*
X27527625Y-46769139D01*
X27527624Y-46769138D01*
X27527622Y-46769137D01*
X27481418Y-46749999D01*
X31944750Y-46749999D01*
X31944750Y-46750000D01*
X31963670Y-46893708D01*
X31963671Y-46893712D01*
X32019137Y-47027622D01*
X32019138Y-47027624D01*
X32019139Y-47027625D01*
X32107379Y-47142621D01*
X32222375Y-47230861D01*
X32356291Y-47286330D01*
X32483280Y-47303048D01*
X32499999Y-47305250D01*
X32500000Y-47305250D01*
X32500001Y-47305250D01*
X32514977Y-47303278D01*
X32643709Y-47286330D01*
X32731421Y-47249999D01*
X36194750Y-47249999D01*
X36194750Y-47250000D01*
X36213670Y-47393708D01*
X36213671Y-47393712D01*
X36269137Y-47527622D01*
X36269138Y-47527624D01*
X36269139Y-47527625D01*
X36357379Y-47642621D01*
X36472375Y-47730861D01*
X36606291Y-47786330D01*
X36733280Y-47803048D01*
X36749999Y-47805250D01*
X36750000Y-47805250D01*
X36750001Y-47805250D01*
X36764977Y-47803278D01*
X36893709Y-47786330D01*
X37027625Y-47730861D01*
X37142621Y-47642621D01*
X37230861Y-47527625D01*
X37286330Y-47393709D01*
X37305250Y-47250000D01*
X37305250Y-47249999D01*
X38694750Y-47249999D01*
X38694750Y-47250000D01*
X38713670Y-47393708D01*
X38713671Y-47393712D01*
X38769137Y-47527622D01*
X38769138Y-47527624D01*
X38769139Y-47527625D01*
X38857379Y-47642621D01*
X38972375Y-47730861D01*
X39106291Y-47786330D01*
X39233280Y-47803048D01*
X39249999Y-47805250D01*
X39250000Y-47805250D01*
X39250001Y-47805250D01*
X39264977Y-47803278D01*
X39393709Y-47786330D01*
X39527625Y-47730861D01*
X39642621Y-47642621D01*
X39730861Y-47527625D01*
X39786330Y-47393709D01*
X39805250Y-47250000D01*
X39786330Y-47106291D01*
X39749350Y-47017013D01*
X39742303Y-46999999D01*
X41944750Y-46999999D01*
X41944750Y-47000000D01*
X41963670Y-47143708D01*
X41963671Y-47143712D01*
X42019137Y-47277622D01*
X42019138Y-47277624D01*
X42019139Y-47277625D01*
X42107379Y-47392621D01*
X42222375Y-47480861D01*
X42356291Y-47536330D01*
X42483280Y-47553048D01*
X42499999Y-47555250D01*
X42500000Y-47555250D01*
X42500001Y-47555250D01*
X42514977Y-47553278D01*
X42643709Y-47536330D01*
X42777625Y-47480861D01*
X42892621Y-47392621D01*
X42980861Y-47277625D01*
X43036330Y-47143709D01*
X43055250Y-47000000D01*
X43036330Y-46856291D01*
X42999350Y-46767013D01*
X42980862Y-46722377D01*
X42980861Y-46722376D01*
X42980861Y-46722375D01*
X42892621Y-46607379D01*
X42777625Y-46519139D01*
X42777624Y-46519138D01*
X42777622Y-46519137D01*
X42643712Y-46463671D01*
X42643710Y-46463670D01*
X42643709Y-46463670D01*
X42571854Y-46454210D01*
X42500001Y-46444750D01*
X42499999Y-46444750D01*
X42356291Y-46463670D01*
X42356287Y-46463671D01*
X42222377Y-46519137D01*
X42107379Y-46607379D01*
X42019137Y-46722377D01*
X41963671Y-46856287D01*
X41963670Y-46856291D01*
X41944750Y-46999999D01*
X39742303Y-46999999D01*
X39730862Y-46972377D01*
X39730861Y-46972376D01*
X39730861Y-46972375D01*
X39642621Y-46857379D01*
X39527625Y-46769139D01*
X39527624Y-46769138D01*
X39527622Y-46769137D01*
X39393712Y-46713671D01*
X39393710Y-46713670D01*
X39393709Y-46713670D01*
X39321854Y-46704210D01*
X39250001Y-46694750D01*
X39249999Y-46694750D01*
X39106291Y-46713670D01*
X39106287Y-46713671D01*
X38972377Y-46769137D01*
X38857379Y-46857379D01*
X38769137Y-46972377D01*
X38713671Y-47106287D01*
X38713670Y-47106291D01*
X38694750Y-47249999D01*
X37305250Y-47249999D01*
X37286330Y-47106291D01*
X37249350Y-47017013D01*
X37230862Y-46972377D01*
X37230861Y-46972376D01*
X37230861Y-46972375D01*
X37142621Y-46857379D01*
X37027625Y-46769139D01*
X37027624Y-46769138D01*
X37027622Y-46769137D01*
X36893712Y-46713671D01*
X36893710Y-46713670D01*
X36893709Y-46713670D01*
X36821854Y-46704210D01*
X36750001Y-46694750D01*
X36749999Y-46694750D01*
X36606291Y-46713670D01*
X36606287Y-46713671D01*
X36472377Y-46769137D01*
X36357379Y-46857379D01*
X36269137Y-46972377D01*
X36213671Y-47106287D01*
X36213670Y-47106291D01*
X36194750Y-47249999D01*
X32731421Y-47249999D01*
X32777625Y-47230861D01*
X32892621Y-47142621D01*
X32980861Y-47027625D01*
X33036330Y-46893709D01*
X33055250Y-46750000D01*
X33036330Y-46606291D01*
X32980861Y-46472375D01*
X32892621Y-46357379D01*
X32777625Y-46269139D01*
X32777624Y-46269138D01*
X32777622Y-46269137D01*
X32643712Y-46213671D01*
X32643710Y-46213670D01*
X32643709Y-46213670D01*
X32571854Y-46204210D01*
X32500001Y-46194750D01*
X32499999Y-46194750D01*
X32356291Y-46213670D01*
X32356287Y-46213671D01*
X32222377Y-46269137D01*
X32107379Y-46357379D01*
X32019137Y-46472377D01*
X31963671Y-46606287D01*
X31963670Y-46606291D01*
X31944750Y-46749999D01*
X27481418Y-46749999D01*
X27393712Y-46713671D01*
X27393710Y-46713670D01*
X27393709Y-46713670D01*
X27321854Y-46704210D01*
X27250001Y-46694750D01*
X27249999Y-46694750D01*
X27106291Y-46713670D01*
X27106287Y-46713671D01*
X26972377Y-46769137D01*
X26857379Y-46857379D01*
X26769137Y-46972377D01*
X26713671Y-47106287D01*
X26713670Y-47106291D01*
X26694750Y-47249999D01*
X25305250Y-47249999D01*
X25286330Y-47106291D01*
X25249350Y-47017013D01*
X25230862Y-46972377D01*
X25230861Y-46972376D01*
X25230861Y-46972375D01*
X25142621Y-46857379D01*
X25027625Y-46769139D01*
X25027624Y-46769138D01*
X25027622Y-46769137D01*
X24893712Y-46713671D01*
X24893710Y-46713670D01*
X24893709Y-46713670D01*
X24821854Y-46704210D01*
X24750001Y-46694750D01*
X24749999Y-46694750D01*
X24606291Y-46713670D01*
X24606287Y-46713671D01*
X24472377Y-46769137D01*
X24357379Y-46857379D01*
X24269137Y-46972377D01*
X24213671Y-47106287D01*
X24213670Y-47106291D01*
X24194750Y-47249999D01*
X16000000Y-47249999D01*
X16000000Y-44999999D01*
X27964750Y-44999999D01*
X27964750Y-45000000D01*
X27983670Y-45143708D01*
X27983671Y-45143712D01*
X28039137Y-45277622D01*
X28039138Y-45277624D01*
X28039139Y-45277625D01*
X28127379Y-45392621D01*
X28242375Y-45480861D01*
X28376291Y-45536330D01*
X28503280Y-45553048D01*
X28519999Y-45555250D01*
X28520000Y-45555250D01*
X28520001Y-45555250D01*
X28534977Y-45553278D01*
X28663709Y-45536330D01*
X28797625Y-45480861D01*
X28912621Y-45392621D01*
X29000861Y-45277625D01*
X29056330Y-45143709D01*
X29075250Y-45000000D01*
X29075250Y-44999999D01*
X39964750Y-44999999D01*
X39964750Y-45000000D01*
X39983670Y-45143708D01*
X39983671Y-45143712D01*
X40039137Y-45277622D01*
X40039138Y-45277624D01*
X40039139Y-45277625D01*
X40127379Y-45392621D01*
X40242375Y-45480861D01*
X40376291Y-45536330D01*
X40503280Y-45553048D01*
X40519999Y-45555250D01*
X40520000Y-45555250D01*
X40520001Y-45555250D01*
X40534977Y-45553278D01*
X40663709Y-45536330D01*
X40797625Y-45480861D01*
X40912621Y-45392621D01*
X41000861Y-45277625D01*
X41056330Y-45143709D01*
X41075250Y-45000000D01*
X41056330Y-44856291D01*
X41000861Y-44722375D01*
X40912621Y-44607379D01*
X40797625Y-44519139D01*
X40797624Y-44519138D01*
X40797622Y-44519137D01*
X40663712Y-44463671D01*
X40663710Y-44463670D01*
X40663709Y-44463670D01*
X40591854Y-44454210D01*
X40520001Y-44444750D01*
X40519999Y-44444750D01*
X40376291Y-44463670D01*
X40376287Y-44463671D01*
X40242377Y-44519137D01*
X40127379Y-44607379D01*
X40039137Y-44722377D01*
X39983671Y-44856287D01*
X39983670Y-44856291D01*
X39964750Y-44999999D01*
X29075250Y-44999999D01*
X29056330Y-44856291D01*
X29000861Y-44722375D01*
X28912621Y-44607379D01*
X28797625Y-44519139D01*
X28797624Y-44519138D01*
X28797622Y-44519137D01*
X28663712Y-44463671D01*
X28663710Y-44463670D01*
X28663709Y-44463670D01*
X28591854Y-44454210D01*
X28520001Y-44444750D01*
X28519999Y-44444750D01*
X28376291Y-44463670D01*
X28376287Y-44463671D01*
X28242377Y-44519137D01*
X28127379Y-44607379D01*
X28039137Y-44722377D01*
X27983671Y-44856287D01*
X27983670Y-44856291D01*
X27964750Y-44999999D01*
X16000000Y-44999999D01*
X16000000Y-42749999D01*
X45944750Y-42749999D01*
X45944750Y-42750000D01*
X45963670Y-42893708D01*
X45963671Y-42893712D01*
X46019137Y-43027622D01*
X46019138Y-43027624D01*
X46019139Y-43027625D01*
X46107379Y-43142621D01*
X46222375Y-43230861D01*
X46356291Y-43286330D01*
X46483280Y-43303048D01*
X46499999Y-43305250D01*
X46500000Y-43305250D01*
X46500001Y-43305250D01*
X46514977Y-43303278D01*
X46643709Y-43286330D01*
X46777625Y-43230861D01*
X46892621Y-43142621D01*
X46980861Y-43027625D01*
X47036330Y-42893709D01*
X47055250Y-42750000D01*
X47036330Y-42606291D01*
X46999350Y-42517013D01*
X46980862Y-42472377D01*
X46980861Y-42472376D01*
X46980861Y-42472375D01*
X46892621Y-42357379D01*
X46777625Y-42269139D01*
X46777624Y-42269138D01*
X46777622Y-42269137D01*
X46643712Y-42213671D01*
X46643710Y-42213670D01*
X46643709Y-42213670D01*
X46571854Y-42204210D01*
X46500001Y-42194750D01*
X46499999Y-42194750D01*
X46356291Y-42213670D01*
X46356287Y-42213671D01*
X46222377Y-42269137D01*
X46107379Y-42357379D01*
X46019137Y-42472377D01*
X45963671Y-42606287D01*
X45963670Y-42606291D01*
X45944750Y-42749999D01*
X16000000Y-42749999D01*
X16000000Y-41999999D01*
X27964750Y-41999999D01*
X27964750Y-42000000D01*
X27983670Y-42143708D01*
X27983671Y-42143712D01*
X28039137Y-42277622D01*
X28039138Y-42277624D01*
X28039139Y-42277625D01*
X28127379Y-42392621D01*
X28242375Y-42480861D01*
X28376291Y-42536330D01*
X28503280Y-42553048D01*
X28519999Y-42555250D01*
X28520000Y-42555250D01*
X28520001Y-42555250D01*
X28534977Y-42553278D01*
X28663709Y-42536330D01*
X28797625Y-42480861D01*
X28912621Y-42392621D01*
X29000861Y-42277625D01*
X29056330Y-42143709D01*
X29075250Y-42000000D01*
X29058793Y-41874999D01*
X37069750Y-41874999D01*
X37069750Y-41875000D01*
X37088670Y-42018708D01*
X37088671Y-42018712D01*
X37144137Y-42152622D01*
X37144138Y-42152624D01*
X37144139Y-42152625D01*
X37232379Y-42267621D01*
X37347375Y-42355861D01*
X37347376Y-42355861D01*
X37347377Y-42355862D01*
X37392013Y-42374350D01*
X37481291Y-42411330D01*
X37608280Y-42428048D01*
X37624999Y-42430250D01*
X37625000Y-42430250D01*
X37625001Y-42430250D01*
X37639977Y-42428278D01*
X37768709Y-42411330D01*
X37902625Y-42355861D01*
X38017621Y-42267621D01*
X38105861Y-42152625D01*
X38161330Y-42018709D01*
X38163793Y-41999999D01*
X40024750Y-41999999D01*
X40024750Y-42000000D01*
X40043670Y-42143708D01*
X40043671Y-42143712D01*
X40099137Y-42277622D01*
X40099138Y-42277624D01*
X40099139Y-42277625D01*
X40187379Y-42392621D01*
X40302375Y-42480861D01*
X40436291Y-42536330D01*
X40563280Y-42553048D01*
X40579999Y-42555250D01*
X40580000Y-42555250D01*
X40580001Y-42555250D01*
X40594977Y-42553278D01*
X40723709Y-42536330D01*
X40857625Y-42480861D01*
X40972621Y-42392621D01*
X41060861Y-42277625D01*
X41103236Y-42175321D01*
X49199500Y-42175321D01*
X49199500Y-43324678D01*
X49214032Y-43397735D01*
X49214033Y-43397739D01*
X49214034Y-43397740D01*
X49269399Y-43480601D01*
X49352260Y-43535966D01*
X49352264Y-43535967D01*
X49425321Y-43550499D01*
X49425324Y-43550500D01*
X49425326Y-43550500D01*
X50574676Y-43550500D01*
X50574677Y-43550499D01*
X50647740Y-43535966D01*
X50730601Y-43480601D01*
X50785966Y-43397740D01*
X50800500Y-43324674D01*
X50800500Y-42175326D01*
X50800500Y-42175323D01*
X50800499Y-42175321D01*
X50785967Y-42102264D01*
X50785966Y-42102260D01*
X50730601Y-42019399D01*
X50647740Y-41964034D01*
X50647739Y-41964033D01*
X50647735Y-41964032D01*
X50574677Y-41949500D01*
X50574674Y-41949500D01*
X49425326Y-41949500D01*
X49425323Y-41949500D01*
X49352264Y-41964032D01*
X49352260Y-41964033D01*
X49269399Y-42019399D01*
X49214033Y-42102260D01*
X49214032Y-42102264D01*
X49199500Y-42175321D01*
X41103236Y-42175321D01*
X41116330Y-42143709D01*
X41135250Y-42000000D01*
X41116330Y-41856291D01*
X41064554Y-41731291D01*
X41060862Y-41722377D01*
X41060861Y-41722376D01*
X41060861Y-41722375D01*
X40972621Y-41607379D01*
X40857625Y-41519139D01*
X40857624Y-41519138D01*
X40857622Y-41519137D01*
X40723712Y-41463671D01*
X40723710Y-41463670D01*
X40723709Y-41463670D01*
X40651854Y-41454210D01*
X40580001Y-41444750D01*
X40579999Y-41444750D01*
X40436291Y-41463670D01*
X40436287Y-41463671D01*
X40302377Y-41519137D01*
X40187379Y-41607379D01*
X40099137Y-41722377D01*
X40043671Y-41856287D01*
X40043670Y-41856291D01*
X40024750Y-41999999D01*
X38163793Y-41999999D01*
X38180250Y-41875000D01*
X38161330Y-41731291D01*
X38105861Y-41597375D01*
X38017621Y-41482379D01*
X37902625Y-41394139D01*
X37902624Y-41394138D01*
X37902622Y-41394137D01*
X37768712Y-41338671D01*
X37768710Y-41338670D01*
X37768709Y-41338670D01*
X37696854Y-41329210D01*
X37625001Y-41319750D01*
X37624999Y-41319750D01*
X37481291Y-41338670D01*
X37481287Y-41338671D01*
X37347377Y-41394137D01*
X37232379Y-41482379D01*
X37144137Y-41597377D01*
X37088671Y-41731287D01*
X37088670Y-41731291D01*
X37069750Y-41874999D01*
X29058793Y-41874999D01*
X29056330Y-41856291D01*
X29004554Y-41731291D01*
X29000862Y-41722377D01*
X29000861Y-41722376D01*
X29000861Y-41722375D01*
X28912621Y-41607379D01*
X28797625Y-41519139D01*
X28797624Y-41519138D01*
X28797622Y-41519137D01*
X28663712Y-41463671D01*
X28663710Y-41463670D01*
X28663709Y-41463670D01*
X28591854Y-41454210D01*
X28520001Y-41444750D01*
X28519999Y-41444750D01*
X28376291Y-41463670D01*
X28376287Y-41463671D01*
X28242377Y-41519137D01*
X28127379Y-41607379D01*
X28039137Y-41722377D01*
X27983671Y-41856287D01*
X27983670Y-41856291D01*
X27964750Y-41999999D01*
X16000000Y-41999999D01*
X16000000Y-38749999D01*
X22444750Y-38749999D01*
X22444750Y-38750000D01*
X22463670Y-38893708D01*
X22463671Y-38893712D01*
X22519137Y-39027622D01*
X22519138Y-39027624D01*
X22519139Y-39027625D01*
X22607379Y-39142621D01*
X22722375Y-39230861D01*
X22856291Y-39286330D01*
X22983280Y-39303048D01*
X22999999Y-39305250D01*
X23000000Y-39305250D01*
X23000001Y-39305250D01*
X23014977Y-39303278D01*
X23143709Y-39286330D01*
X23277625Y-39230861D01*
X23392621Y-39142621D01*
X23480861Y-39027625D01*
X23510440Y-38956213D01*
X23554279Y-38901813D01*
X23620573Y-38879747D01*
X23688272Y-38897026D01*
X23735883Y-38948162D01*
X23739549Y-38956189D01*
X23769139Y-39027625D01*
X23857379Y-39142621D01*
X23972375Y-39230861D01*
X24106291Y-39286330D01*
X24233280Y-39303048D01*
X24249999Y-39305250D01*
X24250000Y-39305250D01*
X24250001Y-39305250D01*
X24264977Y-39303278D01*
X24393709Y-39286330D01*
X24527625Y-39230861D01*
X24642621Y-39142621D01*
X24730861Y-39027625D01*
X24760440Y-38956213D01*
X24804279Y-38901813D01*
X24870573Y-38879747D01*
X24938272Y-38897026D01*
X24985883Y-38948162D01*
X24989549Y-38956189D01*
X25019139Y-39027625D01*
X25107379Y-39142621D01*
X25222375Y-39230861D01*
X25356291Y-39286330D01*
X25483280Y-39303048D01*
X25499999Y-39305250D01*
X25500000Y-39305250D01*
X25500001Y-39305250D01*
X25514977Y-39303278D01*
X25643709Y-39286330D01*
X25777625Y-39230861D01*
X25892621Y-39142621D01*
X25980861Y-39027625D01*
X26036330Y-38893709D01*
X26055250Y-38750000D01*
X26055250Y-38749999D01*
X28444750Y-38749999D01*
X28444750Y-38750000D01*
X28463670Y-38893708D01*
X28463671Y-38893712D01*
X28519137Y-39027622D01*
X28519138Y-39027624D01*
X28519139Y-39027625D01*
X28607379Y-39142621D01*
X28722375Y-39230861D01*
X28856291Y-39286330D01*
X28983280Y-39303048D01*
X28999999Y-39305250D01*
X29000000Y-39305250D01*
X29000001Y-39305250D01*
X29014977Y-39303278D01*
X29143709Y-39286330D01*
X29277625Y-39230861D01*
X29392621Y-39142621D01*
X29480861Y-39027625D01*
X29510440Y-38956213D01*
X29554279Y-38901813D01*
X29620573Y-38879747D01*
X29688272Y-38897026D01*
X29735883Y-38948162D01*
X29739549Y-38956189D01*
X29769139Y-39027625D01*
X29857379Y-39142621D01*
X29972375Y-39230861D01*
X30106291Y-39286330D01*
X30233280Y-39303048D01*
X30249999Y-39305250D01*
X30250000Y-39305250D01*
X30250001Y-39305250D01*
X30264977Y-39303278D01*
X30393709Y-39286330D01*
X30527625Y-39230861D01*
X30642621Y-39142621D01*
X30730861Y-39027625D01*
X30760440Y-38956213D01*
X30804279Y-38901813D01*
X30870573Y-38879747D01*
X30938272Y-38897026D01*
X30985883Y-38948162D01*
X30989549Y-38956189D01*
X31019139Y-39027625D01*
X31107379Y-39142621D01*
X31222375Y-39230861D01*
X31356291Y-39286330D01*
X31483280Y-39303048D01*
X31499999Y-39305250D01*
X31500000Y-39305250D01*
X31500001Y-39305250D01*
X31514977Y-39303278D01*
X31643709Y-39286330D01*
X31777625Y-39230861D01*
X31892621Y-39142621D01*
X31980861Y-39027625D01*
X32036330Y-38893709D01*
X32055250Y-38750000D01*
X32055250Y-38749999D01*
X34444750Y-38749999D01*
X34444750Y-38750000D01*
X34463670Y-38893708D01*
X34463671Y-38893712D01*
X34519137Y-39027622D01*
X34519138Y-39027624D01*
X34519139Y-39027625D01*
X34607379Y-39142621D01*
X34722375Y-39230861D01*
X34856291Y-39286330D01*
X34983280Y-39303048D01*
X34999999Y-39305250D01*
X35000000Y-39305250D01*
X35000001Y-39305250D01*
X35014977Y-39303278D01*
X35143709Y-39286330D01*
X35277625Y-39230861D01*
X35392621Y-39142621D01*
X35480861Y-39027625D01*
X35510440Y-38956213D01*
X35554279Y-38901813D01*
X35620573Y-38879747D01*
X35688272Y-38897026D01*
X35735883Y-38948162D01*
X35739549Y-38956189D01*
X35769139Y-39027625D01*
X35857379Y-39142621D01*
X35972375Y-39230861D01*
X36106291Y-39286330D01*
X36233280Y-39303048D01*
X36249999Y-39305250D01*
X36250000Y-39305250D01*
X36250001Y-39305250D01*
X36264977Y-39303278D01*
X36393709Y-39286330D01*
X36527625Y-39230861D01*
X36642621Y-39142621D01*
X36730861Y-39027625D01*
X36760440Y-38956213D01*
X36804279Y-38901813D01*
X36870573Y-38879747D01*
X36938272Y-38897026D01*
X36985883Y-38948162D01*
X36989549Y-38956189D01*
X37019139Y-39027625D01*
X37107379Y-39142621D01*
X37222375Y-39230861D01*
X37356291Y-39286330D01*
X37483280Y-39303048D01*
X37499999Y-39305250D01*
X37500000Y-39305250D01*
X37500001Y-39305250D01*
X37514977Y-39303278D01*
X37643709Y-39286330D01*
X37777625Y-39230861D01*
X37892621Y-39142621D01*
X37980861Y-39027625D01*
X38036330Y-38893709D01*
X38055250Y-38750000D01*
X38055250Y-38749999D01*
X40444750Y-38749999D01*
X40444750Y-38750000D01*
X40463670Y-38893708D01*
X40463671Y-38893712D01*
X40519137Y-39027622D01*
X40519138Y-39027624D01*
X40519139Y-39027625D01*
X40607379Y-39142621D01*
X40722375Y-39230861D01*
X40856291Y-39286330D01*
X40983280Y-39303048D01*
X40999999Y-39305250D01*
X41000000Y-39305250D01*
X41000001Y-39305250D01*
X41014977Y-39303278D01*
X41143709Y-39286330D01*
X41277625Y-39230861D01*
X41392621Y-39142621D01*
X41480861Y-39027625D01*
X41510440Y-38956213D01*
X41554279Y-38901813D01*
X41620573Y-38879747D01*
X41688272Y-38897026D01*
X41735883Y-38948162D01*
X41739549Y-38956189D01*
X41769139Y-39027625D01*
X41857379Y-39142621D01*
X41972375Y-39230861D01*
X42106291Y-39286330D01*
X42233280Y-39303048D01*
X42249999Y-39305250D01*
X42250000Y-39305250D01*
X42250001Y-39305250D01*
X42264977Y-39303278D01*
X42393709Y-39286330D01*
X42527625Y-39230861D01*
X42642621Y-39142621D01*
X42730861Y-39027625D01*
X42760440Y-38956213D01*
X42804279Y-38901813D01*
X42870573Y-38879747D01*
X42938272Y-38897026D01*
X42985883Y-38948162D01*
X42989549Y-38956189D01*
X43019139Y-39027625D01*
X43107379Y-39142621D01*
X43222375Y-39230861D01*
X43356291Y-39286330D01*
X43483280Y-39303048D01*
X43499999Y-39305250D01*
X43500000Y-39305250D01*
X43500001Y-39305250D01*
X43514977Y-39303278D01*
X43643709Y-39286330D01*
X43777625Y-39230861D01*
X43892621Y-39142621D01*
X43980861Y-39027625D01*
X44036330Y-38893709D01*
X44055250Y-38750000D01*
X44036330Y-38606291D01*
X43980861Y-38472375D01*
X43892621Y-38357379D01*
X43777625Y-38269139D01*
X43777624Y-38269138D01*
X43777622Y-38269137D01*
X43731418Y-38249999D01*
X61194750Y-38249999D01*
X61194750Y-38250000D01*
X61213670Y-38393708D01*
X61213671Y-38393712D01*
X61269137Y-38527622D01*
X61269138Y-38527624D01*
X61269139Y-38527625D01*
X61357379Y-38642621D01*
X61366711Y-38649782D01*
X61369113Y-38651625D01*
X61410316Y-38708053D01*
X61414470Y-38777799D01*
X61380257Y-38838719D01*
X61369113Y-38848375D01*
X61357381Y-38857377D01*
X61357380Y-38857378D01*
X61357379Y-38857379D01*
X61313259Y-38914877D01*
X61269137Y-38972377D01*
X61213671Y-39106287D01*
X61213670Y-39106291D01*
X61194750Y-39249999D01*
X61194750Y-39250000D01*
X61213670Y-39393708D01*
X61213671Y-39393712D01*
X61269138Y-39527624D01*
X61285935Y-39549515D01*
X61311128Y-39614685D01*
X61297089Y-39683129D01*
X61285935Y-39700485D01*
X61269138Y-39722375D01*
X61213671Y-39856287D01*
X61213670Y-39856291D01*
X61194750Y-39999999D01*
X61194750Y-40000000D01*
X61213670Y-40143708D01*
X61213671Y-40143712D01*
X61269137Y-40277622D01*
X61269138Y-40277624D01*
X61269139Y-40277625D01*
X61357379Y-40392621D01*
X61472375Y-40480861D01*
X61606291Y-40536330D01*
X61733280Y-40553048D01*
X61749999Y-40555250D01*
X61750000Y-40555250D01*
X61750001Y-40555250D01*
X61764977Y-40553278D01*
X61893709Y-40536330D01*
X62027625Y-40480861D01*
X62142621Y-40392621D01*
X62230861Y-40277625D01*
X62286330Y-40143709D01*
X62305250Y-40000000D01*
X62286330Y-39856291D01*
X62230861Y-39722375D01*
X62214065Y-39700486D01*
X62188871Y-39635317D01*
X62202909Y-39566872D01*
X62214065Y-39549514D01*
X62216135Y-39546815D01*
X62230861Y-39527625D01*
X62286330Y-39393709D01*
X62305250Y-39250000D01*
X62286330Y-39106291D01*
X62230861Y-38972375D01*
X62142621Y-38857379D01*
X62130886Y-38848374D01*
X62089685Y-38791950D01*
X62085529Y-38722204D01*
X62119740Y-38661283D01*
X62130876Y-38651632D01*
X62142621Y-38642621D01*
X62230861Y-38527625D01*
X62286330Y-38393709D01*
X62305250Y-38250000D01*
X62286330Y-38106291D01*
X62230861Y-37972375D01*
X62142621Y-37857379D01*
X62027625Y-37769139D01*
X62027624Y-37769138D01*
X62027622Y-37769137D01*
X61893712Y-37713671D01*
X61893710Y-37713670D01*
X61893709Y-37713670D01*
X61821854Y-37704210D01*
X61750001Y-37694750D01*
X61749999Y-37694750D01*
X61606291Y-37713670D01*
X61606287Y-37713671D01*
X61472377Y-37769137D01*
X61357379Y-37857379D01*
X61269137Y-37972377D01*
X61213671Y-38106287D01*
X61213670Y-38106291D01*
X61194750Y-38249999D01*
X43731418Y-38249999D01*
X43643712Y-38213671D01*
X43643710Y-38213670D01*
X43643709Y-38213670D01*
X43571854Y-38204210D01*
X43500001Y-38194750D01*
X43499999Y-38194750D01*
X43356291Y-38213670D01*
X43356287Y-38213671D01*
X43222377Y-38269137D01*
X43107379Y-38357379D01*
X43019137Y-38472377D01*
X42989561Y-38543783D01*
X42945721Y-38598187D01*
X42879427Y-38620252D01*
X42811727Y-38602973D01*
X42764116Y-38551836D01*
X42760439Y-38543783D01*
X42730862Y-38472377D01*
X42730861Y-38472376D01*
X42730861Y-38472375D01*
X42642621Y-38357379D01*
X42527625Y-38269139D01*
X42527624Y-38269138D01*
X42527622Y-38269137D01*
X42393712Y-38213671D01*
X42393710Y-38213670D01*
X42393709Y-38213670D01*
X42321854Y-38204210D01*
X42250001Y-38194750D01*
X42249999Y-38194750D01*
X42106291Y-38213670D01*
X42106287Y-38213671D01*
X41972377Y-38269137D01*
X41857379Y-38357379D01*
X41769137Y-38472377D01*
X41739561Y-38543783D01*
X41695721Y-38598187D01*
X41629427Y-38620252D01*
X41561727Y-38602973D01*
X41514116Y-38551836D01*
X41510439Y-38543783D01*
X41480862Y-38472377D01*
X41480861Y-38472376D01*
X41480861Y-38472375D01*
X41392621Y-38357379D01*
X41277625Y-38269139D01*
X41277624Y-38269138D01*
X41277622Y-38269137D01*
X41143712Y-38213671D01*
X41143710Y-38213670D01*
X41143709Y-38213670D01*
X41071854Y-38204210D01*
X41000001Y-38194750D01*
X40999999Y-38194750D01*
X40856291Y-38213670D01*
X40856287Y-38213671D01*
X40722377Y-38269137D01*
X40607379Y-38357379D01*
X40519137Y-38472377D01*
X40463671Y-38606287D01*
X40463670Y-38606291D01*
X40444750Y-38749999D01*
X38055250Y-38749999D01*
X38036330Y-38606291D01*
X37980861Y-38472375D01*
X37892621Y-38357379D01*
X37777625Y-38269139D01*
X37777624Y-38269138D01*
X37777622Y-38269137D01*
X37643712Y-38213671D01*
X37643710Y-38213670D01*
X37643709Y-38213670D01*
X37571854Y-38204210D01*
X37500001Y-38194750D01*
X37499999Y-38194750D01*
X37356291Y-38213670D01*
X37356287Y-38213671D01*
X37222377Y-38269137D01*
X37107379Y-38357379D01*
X37019137Y-38472377D01*
X36989561Y-38543783D01*
X36945721Y-38598187D01*
X36879427Y-38620252D01*
X36811727Y-38602973D01*
X36764116Y-38551836D01*
X36760439Y-38543783D01*
X36730862Y-38472377D01*
X36730861Y-38472376D01*
X36730861Y-38472375D01*
X36642621Y-38357379D01*
X36527625Y-38269139D01*
X36527624Y-38269138D01*
X36527622Y-38269137D01*
X36393712Y-38213671D01*
X36393710Y-38213670D01*
X36393709Y-38213670D01*
X36321854Y-38204210D01*
X36250001Y-38194750D01*
X36249999Y-38194750D01*
X36106291Y-38213670D01*
X36106287Y-38213671D01*
X35972377Y-38269137D01*
X35857379Y-38357379D01*
X35769137Y-38472377D01*
X35739561Y-38543783D01*
X35695721Y-38598187D01*
X35629427Y-38620252D01*
X35561727Y-38602973D01*
X35514116Y-38551836D01*
X35510439Y-38543783D01*
X35480862Y-38472377D01*
X35480861Y-38472376D01*
X35480861Y-38472375D01*
X35392621Y-38357379D01*
X35277625Y-38269139D01*
X35277624Y-38269138D01*
X35277622Y-38269137D01*
X35143712Y-38213671D01*
X35143710Y-38213670D01*
X35143709Y-38213670D01*
X35071854Y-38204210D01*
X35000001Y-38194750D01*
X34999999Y-38194750D01*
X34856291Y-38213670D01*
X34856287Y-38213671D01*
X34722377Y-38269137D01*
X34607379Y-38357379D01*
X34519137Y-38472377D01*
X34463671Y-38606287D01*
X34463670Y-38606291D01*
X34444750Y-38749999D01*
X32055250Y-38749999D01*
X32036330Y-38606291D01*
X31980861Y-38472375D01*
X31892621Y-38357379D01*
X31777625Y-38269139D01*
X31777624Y-38269138D01*
X31777622Y-38269137D01*
X31643712Y-38213671D01*
X31643710Y-38213670D01*
X31643709Y-38213670D01*
X31571854Y-38204210D01*
X31500001Y-38194750D01*
X31499999Y-38194750D01*
X31356291Y-38213670D01*
X31356287Y-38213671D01*
X31222377Y-38269137D01*
X31107379Y-38357379D01*
X31019137Y-38472377D01*
X30989561Y-38543783D01*
X30945721Y-38598187D01*
X30879427Y-38620252D01*
X30811727Y-38602973D01*
X30764116Y-38551836D01*
X30760439Y-38543783D01*
X30730862Y-38472377D01*
X30730861Y-38472376D01*
X30730861Y-38472375D01*
X30642621Y-38357379D01*
X30527625Y-38269139D01*
X30527624Y-38269138D01*
X30527622Y-38269137D01*
X30393712Y-38213671D01*
X30393710Y-38213670D01*
X30393709Y-38213670D01*
X30321854Y-38204210D01*
X30250001Y-38194750D01*
X30249999Y-38194750D01*
X30106291Y-38213670D01*
X30106287Y-38213671D01*
X29972377Y-38269137D01*
X29857379Y-38357379D01*
X29769137Y-38472377D01*
X29739561Y-38543783D01*
X29695721Y-38598187D01*
X29629427Y-38620252D01*
X29561727Y-38602973D01*
X29514116Y-38551836D01*
X29510439Y-38543783D01*
X29480862Y-38472377D01*
X29480861Y-38472376D01*
X29480861Y-38472375D01*
X29392621Y-38357379D01*
X29277625Y-38269139D01*
X29277624Y-38269138D01*
X29277622Y-38269137D01*
X29143712Y-38213671D01*
X29143710Y-38213670D01*
X29143709Y-38213670D01*
X29071854Y-38204210D01*
X29000001Y-38194750D01*
X28999999Y-38194750D01*
X28856291Y-38213670D01*
X28856287Y-38213671D01*
X28722377Y-38269137D01*
X28607379Y-38357379D01*
X28519137Y-38472377D01*
X28463671Y-38606287D01*
X28463670Y-38606291D01*
X28444750Y-38749999D01*
X26055250Y-38749999D01*
X26036330Y-38606291D01*
X25980861Y-38472375D01*
X25892621Y-38357379D01*
X25777625Y-38269139D01*
X25777624Y-38269138D01*
X25777622Y-38269137D01*
X25643712Y-38213671D01*
X25643710Y-38213670D01*
X25643709Y-38213670D01*
X25571854Y-38204210D01*
X25500001Y-38194750D01*
X25499999Y-38194750D01*
X25356291Y-38213670D01*
X25356287Y-38213671D01*
X25222377Y-38269137D01*
X25107379Y-38357379D01*
X25019137Y-38472377D01*
X24989561Y-38543783D01*
X24945721Y-38598187D01*
X24879427Y-38620252D01*
X24811727Y-38602973D01*
X24764116Y-38551836D01*
X24760439Y-38543783D01*
X24730862Y-38472377D01*
X24730861Y-38472376D01*
X24730861Y-38472375D01*
X24642621Y-38357379D01*
X24527625Y-38269139D01*
X24527624Y-38269138D01*
X24527622Y-38269137D01*
X24393712Y-38213671D01*
X24393710Y-38213670D01*
X24393709Y-38213670D01*
X24321854Y-38204210D01*
X24250001Y-38194750D01*
X24249999Y-38194750D01*
X24106291Y-38213670D01*
X24106287Y-38213671D01*
X23972377Y-38269137D01*
X23857379Y-38357379D01*
X23769137Y-38472377D01*
X23739561Y-38543783D01*
X23695721Y-38598187D01*
X23629427Y-38620252D01*
X23561727Y-38602973D01*
X23514116Y-38551836D01*
X23510439Y-38543783D01*
X23480862Y-38472377D01*
X23480861Y-38472376D01*
X23480861Y-38472375D01*
X23392621Y-38357379D01*
X23277625Y-38269139D01*
X23277624Y-38269138D01*
X23277622Y-38269137D01*
X23143712Y-38213671D01*
X23143710Y-38213670D01*
X23143709Y-38213670D01*
X23071854Y-38204210D01*
X23000001Y-38194750D01*
X22999999Y-38194750D01*
X22856291Y-38213670D01*
X22856287Y-38213671D01*
X22722377Y-38269137D01*
X22607379Y-38357379D01*
X22519137Y-38472377D01*
X22463671Y-38606287D01*
X22463670Y-38606291D01*
X22444750Y-38749999D01*
X16000000Y-38749999D01*
X16000000Y-33276821D01*
X49051000Y-33276821D01*
X49051000Y-34723178D01*
X49065532Y-34796235D01*
X49065533Y-34796239D01*
X49065534Y-34796240D01*
X49120899Y-34879101D01*
X49203760Y-34934466D01*
X49203764Y-34934467D01*
X49276821Y-34948999D01*
X49276824Y-34949000D01*
X49276826Y-34949000D01*
X50723176Y-34949000D01*
X50723177Y-34948999D01*
X50796240Y-34934466D01*
X50879101Y-34879101D01*
X50934466Y-34796240D01*
X50943664Y-34749999D01*
X54944750Y-34749999D01*
X54944750Y-34750000D01*
X54963670Y-34893708D01*
X54963671Y-34893712D01*
X55019138Y-35027624D01*
X55035935Y-35049515D01*
X55061128Y-35114685D01*
X55047089Y-35183129D01*
X55035935Y-35200485D01*
X55019138Y-35222375D01*
X54963671Y-35356287D01*
X54963670Y-35356291D01*
X54944750Y-35499999D01*
X54944750Y-35500000D01*
X54963670Y-35643708D01*
X54963671Y-35643712D01*
X55019137Y-35777622D01*
X55019138Y-35777624D01*
X55019139Y-35777625D01*
X55107379Y-35892621D01*
X55222375Y-35980861D01*
X55356291Y-36036330D01*
X55483280Y-36053048D01*
X55499999Y-36055250D01*
X55500000Y-36055250D01*
X55500001Y-36055250D01*
X55514977Y-36053278D01*
X55643709Y-36036330D01*
X55777625Y-35980861D01*
X55892621Y-35892621D01*
X55980861Y-35777625D01*
X56036330Y-35643709D01*
X56055250Y-35500000D01*
X56036330Y-35356291D01*
X55980861Y-35222375D01*
X55964065Y-35200486D01*
X55938871Y-35135317D01*
X55952909Y-35066872D01*
X55964065Y-35049514D01*
X55966135Y-35046815D01*
X55980861Y-35027625D01*
X56036330Y-34893709D01*
X56055250Y-34750000D01*
X56036330Y-34606291D01*
X55980861Y-34472375D01*
X55892621Y-34357379D01*
X55777625Y-34269139D01*
X55777624Y-34269138D01*
X55777622Y-34269137D01*
X55643712Y-34213671D01*
X55643710Y-34213670D01*
X55643709Y-34213670D01*
X55571854Y-34204210D01*
X55500001Y-34194750D01*
X55499999Y-34194750D01*
X55356291Y-34213670D01*
X55356287Y-34213671D01*
X55222377Y-34269137D01*
X55107379Y-34357379D01*
X55019137Y-34472377D01*
X54963671Y-34606287D01*
X54963670Y-34606291D01*
X54944750Y-34749999D01*
X50943664Y-34749999D01*
X50949000Y-34723174D01*
X50949000Y-33750000D01*
X62500000Y-33750000D01*
X68500000Y-33750000D01*
X68500000Y-24500000D01*
X62500000Y-24500000D01*
X62500000Y-33750000D01*
X50949000Y-33750000D01*
X50949000Y-33276826D01*
X50949000Y-33276823D01*
X50948999Y-33276821D01*
X50934467Y-33203764D01*
X50934466Y-33203760D01*
X50879101Y-33120899D01*
X50796240Y-33065534D01*
X50796239Y-33065533D01*
X50796235Y-33065532D01*
X50723177Y-33051000D01*
X50723174Y-33051000D01*
X49276826Y-33051000D01*
X49276823Y-33051000D01*
X49203764Y-33065532D01*
X49203760Y-33065533D01*
X49120899Y-33120899D01*
X49065533Y-33203760D01*
X49065532Y-33203764D01*
X49051000Y-33276821D01*
X16000000Y-33276821D01*
X16000000Y-30249999D01*
X20694750Y-30249999D01*
X20694750Y-30250000D01*
X20713670Y-30393708D01*
X20713671Y-30393712D01*
X20769137Y-30527622D01*
X20769138Y-30527624D01*
X20769139Y-30527625D01*
X20857379Y-30642621D01*
X20972375Y-30730861D01*
X21106291Y-30786330D01*
X21106306Y-30786332D01*
X21113865Y-30788358D01*
X21173526Y-30824722D01*
X21204057Y-30887568D01*
X21204713Y-30924319D01*
X21194750Y-30999997D01*
X21194750Y-31000000D01*
X21213670Y-31143708D01*
X21213671Y-31143712D01*
X21269137Y-31277622D01*
X21269138Y-31277624D01*
X21269139Y-31277625D01*
X21357379Y-31392621D01*
X21472375Y-31480861D01*
X21606291Y-31536330D01*
X21733280Y-31553048D01*
X21749999Y-31555250D01*
X21750000Y-31555250D01*
X21750001Y-31555250D01*
X21764977Y-31553278D01*
X21893709Y-31536330D01*
X22027625Y-31480861D01*
X22142621Y-31392621D01*
X22151625Y-31380886D01*
X22208050Y-31339685D01*
X22277796Y-31335529D01*
X22338717Y-31369740D01*
X22348367Y-31380876D01*
X22357379Y-31392621D01*
X22472375Y-31480861D01*
X22606291Y-31536330D01*
X22733280Y-31553048D01*
X22749999Y-31555250D01*
X22750000Y-31555250D01*
X22750001Y-31555250D01*
X22764977Y-31553278D01*
X22893709Y-31536330D01*
X23027625Y-31480861D01*
X23142621Y-31392621D01*
X23151625Y-31380886D01*
X23208050Y-31339685D01*
X23277796Y-31335529D01*
X23338717Y-31369740D01*
X23348367Y-31380876D01*
X23357379Y-31392621D01*
X23472375Y-31480861D01*
X23606291Y-31536330D01*
X23733280Y-31553048D01*
X23749999Y-31555250D01*
X23750000Y-31555250D01*
X23750001Y-31555250D01*
X23764977Y-31553278D01*
X23893709Y-31536330D01*
X24027625Y-31480861D01*
X24142621Y-31392621D01*
X24151625Y-31380886D01*
X24208050Y-31339685D01*
X24277796Y-31335529D01*
X24338717Y-31369740D01*
X24348367Y-31380876D01*
X24357379Y-31392621D01*
X24472375Y-31480861D01*
X24606291Y-31536330D01*
X24733280Y-31553048D01*
X24749999Y-31555250D01*
X24750000Y-31555250D01*
X24750001Y-31555250D01*
X24764977Y-31553278D01*
X24893709Y-31536330D01*
X25027625Y-31480861D01*
X25142621Y-31392621D01*
X25151625Y-31380886D01*
X25208050Y-31339685D01*
X25277796Y-31335529D01*
X25338717Y-31369740D01*
X25348367Y-31380876D01*
X25357379Y-31392621D01*
X25472375Y-31480861D01*
X25606291Y-31536330D01*
X25733280Y-31553048D01*
X25749999Y-31555250D01*
X25750000Y-31555250D01*
X25750001Y-31555250D01*
X25764977Y-31553278D01*
X25893709Y-31536330D01*
X26027625Y-31480861D01*
X26142621Y-31392621D01*
X26230861Y-31277625D01*
X26286330Y-31143709D01*
X26305250Y-31000000D01*
X26286330Y-30856291D01*
X26249350Y-30767013D01*
X26230862Y-30722377D01*
X26230861Y-30722376D01*
X26230861Y-30722375D01*
X26142621Y-30607379D01*
X26027625Y-30519139D01*
X26027624Y-30519138D01*
X26027622Y-30519137D01*
X25893713Y-30463671D01*
X25886131Y-30461640D01*
X25826471Y-30425274D01*
X25795942Y-30362427D01*
X25795286Y-30325679D01*
X25805250Y-30250000D01*
X25805250Y-30249999D01*
X26694750Y-30249999D01*
X26694750Y-30250000D01*
X26713670Y-30393708D01*
X26713671Y-30393712D01*
X26769137Y-30527622D01*
X26769138Y-30527624D01*
X26769139Y-30527625D01*
X26857379Y-30642621D01*
X26972375Y-30730861D01*
X27106291Y-30786330D01*
X27106306Y-30786332D01*
X27113865Y-30788358D01*
X27173526Y-30824722D01*
X27204057Y-30887568D01*
X27204713Y-30924319D01*
X27194750Y-30999997D01*
X27194750Y-31000000D01*
X27213670Y-31143708D01*
X27213671Y-31143712D01*
X27269137Y-31277622D01*
X27269138Y-31277624D01*
X27269139Y-31277625D01*
X27357379Y-31392621D01*
X27472375Y-31480861D01*
X27606291Y-31536330D01*
X27733280Y-31553048D01*
X27749999Y-31555250D01*
X27750000Y-31555250D01*
X27750001Y-31555250D01*
X27764977Y-31553278D01*
X27893709Y-31536330D01*
X28027625Y-31480861D01*
X28142621Y-31392621D01*
X28151625Y-31380886D01*
X28208050Y-31339685D01*
X28277796Y-31335529D01*
X28338717Y-31369740D01*
X28348367Y-31380876D01*
X28357379Y-31392621D01*
X28472375Y-31480861D01*
X28606291Y-31536330D01*
X28733280Y-31553048D01*
X28749999Y-31555250D01*
X28750000Y-31555250D01*
X28750001Y-31555250D01*
X28764977Y-31553278D01*
X28893709Y-31536330D01*
X29027625Y-31480861D01*
X29142621Y-31392621D01*
X29151625Y-31380886D01*
X29208050Y-31339685D01*
X29277796Y-31335529D01*
X29338717Y-31369740D01*
X29348367Y-31380876D01*
X29357379Y-31392621D01*
X29472375Y-31480861D01*
X29606291Y-31536330D01*
X29733280Y-31553048D01*
X29749999Y-31555250D01*
X29750000Y-31555250D01*
X29750001Y-31555250D01*
X29764977Y-31553278D01*
X29893709Y-31536330D01*
X30027625Y-31480861D01*
X30142621Y-31392621D01*
X30151625Y-31380886D01*
X30208050Y-31339685D01*
X30277796Y-31335529D01*
X30338717Y-31369740D01*
X30348367Y-31380876D01*
X30357379Y-31392621D01*
X30472375Y-31480861D01*
X30606291Y-31536330D01*
X30733280Y-31553048D01*
X30749999Y-31555250D01*
X30750000Y-31555250D01*
X30750001Y-31555250D01*
X30764977Y-31553278D01*
X30893709Y-31536330D01*
X31027625Y-31480861D01*
X31142621Y-31392621D01*
X31151625Y-31380886D01*
X31208050Y-31339685D01*
X31277796Y-31335529D01*
X31338717Y-31369740D01*
X31348367Y-31380876D01*
X31357379Y-31392621D01*
X31472375Y-31480861D01*
X31606291Y-31536330D01*
X31733280Y-31553048D01*
X31749999Y-31555250D01*
X31750000Y-31555250D01*
X31750001Y-31555250D01*
X31764977Y-31553278D01*
X31893709Y-31536330D01*
X32027625Y-31480861D01*
X32142621Y-31392621D01*
X32230861Y-31277625D01*
X32286330Y-31143709D01*
X32305250Y-31000000D01*
X32286330Y-30856291D01*
X32249350Y-30767013D01*
X32230862Y-30722377D01*
X32230861Y-30722376D01*
X32230861Y-30722375D01*
X32142621Y-30607379D01*
X32027625Y-30519139D01*
X32027624Y-30519138D01*
X32027622Y-30519137D01*
X31893713Y-30463671D01*
X31886131Y-30461640D01*
X31826471Y-30425274D01*
X31795942Y-30362427D01*
X31795286Y-30325679D01*
X31805250Y-30250000D01*
X31805250Y-30249999D01*
X32694750Y-30249999D01*
X32694750Y-30250000D01*
X32713670Y-30393708D01*
X32713671Y-30393712D01*
X32769137Y-30527622D01*
X32769138Y-30527624D01*
X32769139Y-30527625D01*
X32857379Y-30642621D01*
X32972375Y-30730861D01*
X33106291Y-30786330D01*
X33106306Y-30786332D01*
X33113865Y-30788358D01*
X33173526Y-30824722D01*
X33204057Y-30887568D01*
X33204713Y-30924319D01*
X33194750Y-30999997D01*
X33194750Y-31000000D01*
X33213670Y-31143708D01*
X33213671Y-31143712D01*
X33269137Y-31277622D01*
X33269138Y-31277624D01*
X33269139Y-31277625D01*
X33357379Y-31392621D01*
X33472375Y-31480861D01*
X33606291Y-31536330D01*
X33733280Y-31553048D01*
X33749999Y-31555250D01*
X33750000Y-31555250D01*
X33750001Y-31555250D01*
X33764977Y-31553278D01*
X33893709Y-31536330D01*
X34027625Y-31480861D01*
X34142621Y-31392621D01*
X34151625Y-31380886D01*
X34208050Y-31339685D01*
X34277796Y-31335529D01*
X34338717Y-31369740D01*
X34348367Y-31380876D01*
X34357379Y-31392621D01*
X34472375Y-31480861D01*
X34606291Y-31536330D01*
X34733280Y-31553048D01*
X34749999Y-31555250D01*
X34750000Y-31555250D01*
X34750001Y-31555250D01*
X34764977Y-31553278D01*
X34893709Y-31536330D01*
X35027625Y-31480861D01*
X35142621Y-31392621D01*
X35151625Y-31380886D01*
X35208050Y-31339685D01*
X35277796Y-31335529D01*
X35338717Y-31369740D01*
X35348367Y-31380876D01*
X35357379Y-31392621D01*
X35472375Y-31480861D01*
X35606291Y-31536330D01*
X35733280Y-31553048D01*
X35749999Y-31555250D01*
X35750000Y-31555250D01*
X35750001Y-31555250D01*
X35764977Y-31553278D01*
X35893709Y-31536330D01*
X36027625Y-31480861D01*
X36142621Y-31392621D01*
X36151625Y-31380886D01*
X36208050Y-31339685D01*
X36277796Y-31335529D01*
X36338717Y-31369740D01*
X36348367Y-31380876D01*
X36357379Y-31392621D01*
X36472375Y-31480861D01*
X36606291Y-31536330D01*
X36733280Y-31553048D01*
X36749999Y-31555250D01*
X36750000Y-31555250D01*
X36750001Y-31555250D01*
X36764977Y-31553278D01*
X36893709Y-31536330D01*
X37027625Y-31480861D01*
X37142621Y-31392621D01*
X37151625Y-31380886D01*
X37208050Y-31339685D01*
X37277796Y-31335529D01*
X37338717Y-31369740D01*
X37348367Y-31380876D01*
X37357379Y-31392621D01*
X37472375Y-31480861D01*
X37606291Y-31536330D01*
X37733280Y-31553048D01*
X37749999Y-31555250D01*
X37750000Y-31555250D01*
X37750001Y-31555250D01*
X37764977Y-31553278D01*
X37893709Y-31536330D01*
X38027625Y-31480861D01*
X38142621Y-31392621D01*
X38230861Y-31277625D01*
X38286330Y-31143709D01*
X38305250Y-31000000D01*
X38286330Y-30856291D01*
X38249350Y-30767013D01*
X38230862Y-30722377D01*
X38230861Y-30722376D01*
X38230861Y-30722375D01*
X38142621Y-30607379D01*
X38027625Y-30519139D01*
X38027624Y-30519138D01*
X38027622Y-30519137D01*
X37893713Y-30463671D01*
X37886131Y-30461640D01*
X37826471Y-30425274D01*
X37795942Y-30362427D01*
X37795286Y-30325679D01*
X37805250Y-30250000D01*
X37805250Y-30249999D01*
X38694750Y-30249999D01*
X38694750Y-30250000D01*
X38713670Y-30393708D01*
X38713671Y-30393712D01*
X38769137Y-30527622D01*
X38769138Y-30527624D01*
X38769139Y-30527625D01*
X38857379Y-30642621D01*
X38972375Y-30730861D01*
X39106291Y-30786330D01*
X39106306Y-30786332D01*
X39113865Y-30788358D01*
X39173526Y-30824722D01*
X39204057Y-30887568D01*
X39204713Y-30924319D01*
X39194750Y-30999997D01*
X39194750Y-31000000D01*
X39213670Y-31143708D01*
X39213671Y-31143712D01*
X39269137Y-31277622D01*
X39269138Y-31277624D01*
X39269139Y-31277625D01*
X39357379Y-31392621D01*
X39472375Y-31480861D01*
X39606291Y-31536330D01*
X39733280Y-31553048D01*
X39749999Y-31555250D01*
X39750000Y-31555250D01*
X39750001Y-31555250D01*
X39764977Y-31553278D01*
X39893709Y-31536330D01*
X40027625Y-31480861D01*
X40142621Y-31392621D01*
X40151625Y-31380886D01*
X40208050Y-31339685D01*
X40277796Y-31335529D01*
X40338717Y-31369740D01*
X40348367Y-31380876D01*
X40357379Y-31392621D01*
X40472375Y-31480861D01*
X40606291Y-31536330D01*
X40733280Y-31553048D01*
X40749999Y-31555250D01*
X40750000Y-31555250D01*
X40750001Y-31555250D01*
X40764977Y-31553278D01*
X40893709Y-31536330D01*
X41027625Y-31480861D01*
X41142621Y-31392621D01*
X41151625Y-31380886D01*
X41208050Y-31339685D01*
X41277796Y-31335529D01*
X41338717Y-31369740D01*
X41348367Y-31380876D01*
X41357379Y-31392621D01*
X41472375Y-31480861D01*
X41606291Y-31536330D01*
X41733280Y-31553048D01*
X41749999Y-31555250D01*
X41750000Y-31555250D01*
X41750001Y-31555250D01*
X41764977Y-31553278D01*
X41893709Y-31536330D01*
X42027625Y-31480861D01*
X42142621Y-31392621D01*
X42151625Y-31380886D01*
X42208050Y-31339685D01*
X42277796Y-31335529D01*
X42338717Y-31369740D01*
X42348367Y-31380876D01*
X42357379Y-31392621D01*
X42472375Y-31480861D01*
X42606291Y-31536330D01*
X42733280Y-31553048D01*
X42749999Y-31555250D01*
X42750000Y-31555250D01*
X42750001Y-31555250D01*
X42764977Y-31553278D01*
X42893709Y-31536330D01*
X43027625Y-31480861D01*
X43142621Y-31392621D01*
X43151625Y-31380886D01*
X43208050Y-31339685D01*
X43277796Y-31335529D01*
X43338717Y-31369740D01*
X43348367Y-31380876D01*
X43357379Y-31392621D01*
X43472375Y-31480861D01*
X43606291Y-31536330D01*
X43733280Y-31553048D01*
X43749999Y-31555250D01*
X43750000Y-31555250D01*
X43750001Y-31555250D01*
X43764977Y-31553278D01*
X43893709Y-31536330D01*
X44027625Y-31480861D01*
X44142621Y-31392621D01*
X44230861Y-31277625D01*
X44286330Y-31143709D01*
X44305250Y-31000000D01*
X44286330Y-30856291D01*
X44249350Y-30767013D01*
X44230862Y-30722377D01*
X44230861Y-30722376D01*
X44230861Y-30722375D01*
X44142621Y-30607379D01*
X44027625Y-30519139D01*
X44027624Y-30519138D01*
X44027622Y-30519137D01*
X43893713Y-30463671D01*
X43886131Y-30461640D01*
X43826471Y-30425274D01*
X43795942Y-30362427D01*
X43795286Y-30325679D01*
X43805250Y-30250000D01*
X43805250Y-30249999D01*
X43803048Y-30233280D01*
X43786330Y-30106291D01*
X43730861Y-29972375D01*
X43642621Y-29857379D01*
X43527625Y-29769139D01*
X43527624Y-29769138D01*
X43527622Y-29769137D01*
X43393712Y-29713671D01*
X43393710Y-29713670D01*
X43393709Y-29713670D01*
X43321854Y-29704210D01*
X43250001Y-29694750D01*
X43249999Y-29694750D01*
X43106291Y-29713670D01*
X43106287Y-29713671D01*
X42972377Y-29769137D01*
X42914877Y-29813259D01*
X42857379Y-29857379D01*
X42857378Y-29857380D01*
X42857377Y-29857381D01*
X42848375Y-29869113D01*
X42791947Y-29910316D01*
X42722201Y-29914470D01*
X42661281Y-29880257D01*
X42651625Y-29869113D01*
X42649782Y-29866711D01*
X42642621Y-29857379D01*
X42527625Y-29769139D01*
X42527624Y-29769138D01*
X42527622Y-29769137D01*
X42393712Y-29713671D01*
X42393710Y-29713670D01*
X42393709Y-29713670D01*
X42321854Y-29704210D01*
X42250001Y-29694750D01*
X42249999Y-29694750D01*
X42106291Y-29713670D01*
X42106287Y-29713671D01*
X41972377Y-29769137D01*
X41914877Y-29813259D01*
X41857379Y-29857379D01*
X41857378Y-29857380D01*
X41857377Y-29857381D01*
X41848375Y-29869113D01*
X41791947Y-29910316D01*
X41722201Y-29914470D01*
X41661281Y-29880257D01*
X41651625Y-29869113D01*
X41649782Y-29866711D01*
X41642621Y-29857379D01*
X41527625Y-29769139D01*
X41527624Y-29769138D01*
X41527622Y-29769137D01*
X41393712Y-29713671D01*
X41393710Y-29713670D01*
X41393709Y-29713670D01*
X41321854Y-29704210D01*
X41250001Y-29694750D01*
X41249999Y-29694750D01*
X41106291Y-29713670D01*
X41106287Y-29713671D01*
X40972377Y-29769137D01*
X40914877Y-29813259D01*
X40857379Y-29857379D01*
X40857378Y-29857380D01*
X40857377Y-29857381D01*
X40848375Y-29869113D01*
X40791947Y-29910316D01*
X40722201Y-29914470D01*
X40661281Y-29880257D01*
X40651625Y-29869113D01*
X40649782Y-29866711D01*
X40642621Y-29857379D01*
X40527625Y-29769139D01*
X40527624Y-29769138D01*
X40527622Y-29769137D01*
X40393712Y-29713671D01*
X40393710Y-29713670D01*
X40393709Y-29713670D01*
X40321854Y-29704210D01*
X40250001Y-29694750D01*
X40249999Y-29694750D01*
X40106291Y-29713670D01*
X40106287Y-29713671D01*
X39972377Y-29769137D01*
X39914877Y-29813259D01*
X39857379Y-29857379D01*
X39857378Y-29857380D01*
X39857377Y-29857381D01*
X39848375Y-29869113D01*
X39791947Y-29910316D01*
X39722201Y-29914470D01*
X39661281Y-29880257D01*
X39651625Y-29869113D01*
X39649782Y-29866711D01*
X39642621Y-29857379D01*
X39527625Y-29769139D01*
X39527624Y-29769138D01*
X39527622Y-29769137D01*
X39393712Y-29713671D01*
X39393710Y-29713670D01*
X39393709Y-29713670D01*
X39321854Y-29704210D01*
X39250001Y-29694750D01*
X39249999Y-29694750D01*
X39106291Y-29713670D01*
X39106287Y-29713671D01*
X38972377Y-29769137D01*
X38857379Y-29857379D01*
X38769137Y-29972377D01*
X38713671Y-30106287D01*
X38713670Y-30106291D01*
X38694750Y-30249999D01*
X37805250Y-30249999D01*
X37803048Y-30233280D01*
X37786330Y-30106291D01*
X37730861Y-29972375D01*
X37642621Y-29857379D01*
X37527625Y-29769139D01*
X37527624Y-29769138D01*
X37527622Y-29769137D01*
X37393712Y-29713671D01*
X37393710Y-29713670D01*
X37393709Y-29713670D01*
X37321854Y-29704210D01*
X37250001Y-29694750D01*
X37249999Y-29694750D01*
X37106291Y-29713670D01*
X37106287Y-29713671D01*
X36972377Y-29769137D01*
X36914877Y-29813259D01*
X36857379Y-29857379D01*
X36857378Y-29857380D01*
X36857377Y-29857381D01*
X36848375Y-29869113D01*
X36791947Y-29910316D01*
X36722201Y-29914470D01*
X36661281Y-29880257D01*
X36651625Y-29869113D01*
X36649782Y-29866711D01*
X36642621Y-29857379D01*
X36527625Y-29769139D01*
X36527624Y-29769138D01*
X36527622Y-29769137D01*
X36393712Y-29713671D01*
X36393710Y-29713670D01*
X36393709Y-29713670D01*
X36321854Y-29704210D01*
X36250001Y-29694750D01*
X36249999Y-29694750D01*
X36106291Y-29713670D01*
X36106287Y-29713671D01*
X35972377Y-29769137D01*
X35914877Y-29813259D01*
X35857379Y-29857379D01*
X35857378Y-29857380D01*
X35857377Y-29857381D01*
X35848375Y-29869113D01*
X35791947Y-29910316D01*
X35722201Y-29914470D01*
X35661281Y-29880257D01*
X35651625Y-29869113D01*
X35649782Y-29866711D01*
X35642621Y-29857379D01*
X35527625Y-29769139D01*
X35527624Y-29769138D01*
X35527622Y-29769137D01*
X35393712Y-29713671D01*
X35393710Y-29713670D01*
X35393709Y-29713670D01*
X35321854Y-29704210D01*
X35250001Y-29694750D01*
X35249999Y-29694750D01*
X35106291Y-29713670D01*
X35106287Y-29713671D01*
X34972377Y-29769137D01*
X34914877Y-29813259D01*
X34857379Y-29857379D01*
X34857378Y-29857380D01*
X34857377Y-29857381D01*
X34848375Y-29869113D01*
X34791947Y-29910316D01*
X34722201Y-29914470D01*
X34661281Y-29880257D01*
X34651625Y-29869113D01*
X34649782Y-29866711D01*
X34642621Y-29857379D01*
X34527625Y-29769139D01*
X34527624Y-29769138D01*
X34527622Y-29769137D01*
X34393712Y-29713671D01*
X34393710Y-29713670D01*
X34393709Y-29713670D01*
X34321854Y-29704210D01*
X34250001Y-29694750D01*
X34249999Y-29694750D01*
X34106291Y-29713670D01*
X34106287Y-29713671D01*
X33972377Y-29769137D01*
X33914877Y-29813259D01*
X33857379Y-29857379D01*
X33857378Y-29857380D01*
X33857377Y-29857381D01*
X33848375Y-29869113D01*
X33791947Y-29910316D01*
X33722201Y-29914470D01*
X33661281Y-29880257D01*
X33651625Y-29869113D01*
X33649782Y-29866711D01*
X33642621Y-29857379D01*
X33527625Y-29769139D01*
X33527624Y-29769138D01*
X33527622Y-29769137D01*
X33393712Y-29713671D01*
X33393710Y-29713670D01*
X33393709Y-29713670D01*
X33321854Y-29704210D01*
X33250001Y-29694750D01*
X33249999Y-29694750D01*
X33106291Y-29713670D01*
X33106287Y-29713671D01*
X32972377Y-29769137D01*
X32857379Y-29857379D01*
X32769137Y-29972377D01*
X32713671Y-30106287D01*
X32713670Y-30106291D01*
X32694750Y-30249999D01*
X31805250Y-30249999D01*
X31803048Y-30233280D01*
X31786330Y-30106291D01*
X31730861Y-29972375D01*
X31642621Y-29857379D01*
X31527625Y-29769139D01*
X31527624Y-29769138D01*
X31527622Y-29769137D01*
X31393712Y-29713671D01*
X31393710Y-29713670D01*
X31393709Y-29713670D01*
X31321854Y-29704210D01*
X31250001Y-29694750D01*
X31249999Y-29694750D01*
X31106291Y-29713670D01*
X31106287Y-29713671D01*
X30972377Y-29769137D01*
X30914877Y-29813259D01*
X30857379Y-29857379D01*
X30857378Y-29857380D01*
X30857377Y-29857381D01*
X30848375Y-29869113D01*
X30791947Y-29910316D01*
X30722201Y-29914470D01*
X30661281Y-29880257D01*
X30651625Y-29869113D01*
X30649782Y-29866711D01*
X30642621Y-29857379D01*
X30527625Y-29769139D01*
X30527624Y-29769138D01*
X30527622Y-29769137D01*
X30393712Y-29713671D01*
X30393710Y-29713670D01*
X30393709Y-29713670D01*
X30321854Y-29704210D01*
X30250001Y-29694750D01*
X30249999Y-29694750D01*
X30106291Y-29713670D01*
X30106287Y-29713671D01*
X29972377Y-29769137D01*
X29914877Y-29813259D01*
X29857379Y-29857379D01*
X29857378Y-29857380D01*
X29857377Y-29857381D01*
X29848375Y-29869113D01*
X29791947Y-29910316D01*
X29722201Y-29914470D01*
X29661281Y-29880257D01*
X29651625Y-29869113D01*
X29649782Y-29866711D01*
X29642621Y-29857379D01*
X29527625Y-29769139D01*
X29527624Y-29769138D01*
X29527622Y-29769137D01*
X29393712Y-29713671D01*
X29393710Y-29713670D01*
X29393709Y-29713670D01*
X29321854Y-29704210D01*
X29250001Y-29694750D01*
X29249999Y-29694750D01*
X29106291Y-29713670D01*
X29106287Y-29713671D01*
X28972377Y-29769137D01*
X28914877Y-29813259D01*
X28857379Y-29857379D01*
X28857378Y-29857380D01*
X28857377Y-29857381D01*
X28848375Y-29869113D01*
X28791947Y-29910316D01*
X28722201Y-29914470D01*
X28661281Y-29880257D01*
X28651625Y-29869113D01*
X28649782Y-29866711D01*
X28642621Y-29857379D01*
X28527625Y-29769139D01*
X28527624Y-29769138D01*
X28527622Y-29769137D01*
X28393712Y-29713671D01*
X28393710Y-29713670D01*
X28393709Y-29713670D01*
X28321854Y-29704210D01*
X28250001Y-29694750D01*
X28249999Y-29694750D01*
X28106291Y-29713670D01*
X28106287Y-29713671D01*
X27972377Y-29769137D01*
X27914877Y-29813259D01*
X27857379Y-29857379D01*
X27857378Y-29857380D01*
X27857377Y-29857381D01*
X27848375Y-29869113D01*
X27791947Y-29910316D01*
X27722201Y-29914470D01*
X27661281Y-29880257D01*
X27651625Y-29869113D01*
X27649782Y-29866711D01*
X27642621Y-29857379D01*
X27527625Y-29769139D01*
X27527624Y-29769138D01*
X27527622Y-29769137D01*
X27393712Y-29713671D01*
X27393710Y-29713670D01*
X27393709Y-29713670D01*
X27321854Y-29704210D01*
X27250001Y-29694750D01*
X27249999Y-29694750D01*
X27106291Y-29713670D01*
X27106287Y-29713671D01*
X26972377Y-29769137D01*
X26857379Y-29857379D01*
X26769137Y-29972377D01*
X26713671Y-30106287D01*
X26713670Y-30106291D01*
X26694750Y-30249999D01*
X25805250Y-30249999D01*
X25803048Y-30233280D01*
X25786330Y-30106291D01*
X25730861Y-29972375D01*
X25642621Y-29857379D01*
X25527625Y-29769139D01*
X25527624Y-29769138D01*
X25527622Y-29769137D01*
X25393712Y-29713671D01*
X25393710Y-29713670D01*
X25393709Y-29713670D01*
X25321854Y-29704210D01*
X25250001Y-29694750D01*
X25249999Y-29694750D01*
X25106291Y-29713670D01*
X25106287Y-29713671D01*
X24972377Y-29769137D01*
X24914877Y-29813259D01*
X24857379Y-29857379D01*
X24857378Y-29857380D01*
X24857377Y-29857381D01*
X24848375Y-29869113D01*
X24791947Y-29910316D01*
X24722201Y-29914470D01*
X24661281Y-29880257D01*
X24651625Y-29869113D01*
X24649782Y-29866711D01*
X24642621Y-29857379D01*
X24527625Y-29769139D01*
X24527624Y-29769138D01*
X24527622Y-29769137D01*
X24393712Y-29713671D01*
X24393710Y-29713670D01*
X24393709Y-29713670D01*
X24321854Y-29704210D01*
X24250001Y-29694750D01*
X24249999Y-29694750D01*
X24106291Y-29713670D01*
X24106287Y-29713671D01*
X23972377Y-29769137D01*
X23914877Y-29813259D01*
X23857379Y-29857379D01*
X23857378Y-29857380D01*
X23857377Y-29857381D01*
X23848375Y-29869113D01*
X23791947Y-29910316D01*
X23722201Y-29914470D01*
X23661281Y-29880257D01*
X23651625Y-29869113D01*
X23649782Y-29866711D01*
X23642621Y-29857379D01*
X23527625Y-29769139D01*
X23527624Y-29769138D01*
X23527622Y-29769137D01*
X23393712Y-29713671D01*
X23393710Y-29713670D01*
X23393709Y-29713670D01*
X23321854Y-29704210D01*
X23250001Y-29694750D01*
X23249999Y-29694750D01*
X23106291Y-29713670D01*
X23106287Y-29713671D01*
X22972377Y-29769137D01*
X22914877Y-29813259D01*
X22857379Y-29857379D01*
X22857378Y-29857380D01*
X22857377Y-29857381D01*
X22848375Y-29869113D01*
X22791947Y-29910316D01*
X22722201Y-29914470D01*
X22661281Y-29880257D01*
X22651625Y-29869113D01*
X22649782Y-29866711D01*
X22642621Y-29857379D01*
X22527625Y-29769139D01*
X22527624Y-29769138D01*
X22527622Y-29769137D01*
X22393712Y-29713671D01*
X22393710Y-29713670D01*
X22393709Y-29713670D01*
X22321854Y-29704210D01*
X22250001Y-29694750D01*
X22249999Y-29694750D01*
X22106291Y-29713670D01*
X22106287Y-29713671D01*
X21972377Y-29769137D01*
X21914877Y-29813259D01*
X21857379Y-29857379D01*
X21857378Y-29857380D01*
X21857377Y-29857381D01*
X21848375Y-29869113D01*
X21791947Y-29910316D01*
X21722201Y-29914470D01*
X21661281Y-29880257D01*
X21651625Y-29869113D01*
X21649782Y-29866711D01*
X21642621Y-29857379D01*
X21527625Y-29769139D01*
X21527624Y-29769138D01*
X21527622Y-29769137D01*
X21393712Y-29713671D01*
X21393710Y-29713670D01*
X21393709Y-29713670D01*
X21321854Y-29704210D01*
X21250001Y-29694750D01*
X21249999Y-29694750D01*
X21106291Y-29713670D01*
X21106287Y-29713671D01*
X20972377Y-29769137D01*
X20857379Y-29857379D01*
X20769137Y-29972377D01*
X20713671Y-30106287D01*
X20713670Y-30106291D01*
X20694750Y-30249999D01*
X16000000Y-30249999D01*
X16000000Y-22249999D01*
X47234785Y-22249999D01*
X47234785Y-22250000D01*
X47253602Y-22453082D01*
X47309417Y-22649247D01*
X47309422Y-22649260D01*
X47400327Y-22831821D01*
X47523237Y-22994581D01*
X47673958Y-23131980D01*
X47673960Y-23131982D01*
X47773141Y-23193392D01*
X47847363Y-23239348D01*
X48037544Y-23313024D01*
X48238024Y-23350500D01*
X48238026Y-23350500D01*
X48441974Y-23350500D01*
X48441976Y-23350500D01*
X48642456Y-23313024D01*
X48832637Y-23239348D01*
X49006041Y-23131981D01*
X49156764Y-22994579D01*
X49279673Y-22831821D01*
X49370582Y-22649250D01*
X49426397Y-22453083D01*
X49445215Y-22250000D01*
X49445215Y-22249999D01*
X49774785Y-22249999D01*
X49774785Y-22250000D01*
X49793602Y-22453082D01*
X49849417Y-22649247D01*
X49849422Y-22649260D01*
X49940327Y-22831821D01*
X50063237Y-22994581D01*
X50213958Y-23131980D01*
X50213960Y-23131982D01*
X50313141Y-23193392D01*
X50387363Y-23239348D01*
X50577544Y-23313024D01*
X50778024Y-23350500D01*
X50778026Y-23350500D01*
X50981974Y-23350500D01*
X50981976Y-23350500D01*
X51182456Y-23313024D01*
X51372637Y-23239348D01*
X51546041Y-23131981D01*
X51696764Y-22994579D01*
X51819673Y-22831821D01*
X51910582Y-22649250D01*
X51966397Y-22453083D01*
X51985215Y-22250000D01*
X51985215Y-22249999D01*
X52314785Y-22249999D01*
X52314785Y-22250000D01*
X52333602Y-22453082D01*
X52389417Y-22649247D01*
X52389422Y-22649260D01*
X52480327Y-22831821D01*
X52603237Y-22994581D01*
X52753958Y-23131980D01*
X52753960Y-23131982D01*
X52853141Y-23193392D01*
X52927363Y-23239348D01*
X53117544Y-23313024D01*
X53318024Y-23350500D01*
X53318026Y-23350500D01*
X53521974Y-23350500D01*
X53521976Y-23350500D01*
X53722456Y-23313024D01*
X53912637Y-23239348D01*
X54086041Y-23131981D01*
X54236764Y-22994579D01*
X54359673Y-22831821D01*
X54450582Y-22649250D01*
X54506397Y-22453083D01*
X54525215Y-22250000D01*
X54525215Y-22249999D01*
X54854785Y-22249999D01*
X54854785Y-22250000D01*
X54873602Y-22453082D01*
X54929417Y-22649247D01*
X54929422Y-22649260D01*
X55020327Y-22831821D01*
X55143237Y-22994581D01*
X55293958Y-23131980D01*
X55293960Y-23131982D01*
X55393141Y-23193392D01*
X55467363Y-23239348D01*
X55657544Y-23313024D01*
X55858024Y-23350500D01*
X55858026Y-23350500D01*
X56061974Y-23350500D01*
X56061976Y-23350500D01*
X56262456Y-23313024D01*
X56452637Y-23239348D01*
X56626041Y-23131981D01*
X56776764Y-22994579D01*
X56899673Y-22831821D01*
X56990582Y-22649250D01*
X57046397Y-22453083D01*
X57065215Y-22250000D01*
X57065215Y-22249999D01*
X57394785Y-22249999D01*
X57394785Y-22250000D01*
X57413602Y-22453082D01*
X57469417Y-22649247D01*
X57469422Y-22649260D01*
X57560327Y-22831821D01*
X57683237Y-22994581D01*
X57833958Y-23131980D01*
X57833960Y-23131982D01*
X57933141Y-23193392D01*
X58007363Y-23239348D01*
X58197544Y-23313024D01*
X58398024Y-23350500D01*
X58398026Y-23350500D01*
X58601974Y-23350500D01*
X58601976Y-23350500D01*
X58802456Y-23313024D01*
X58992637Y-23239348D01*
X59166041Y-23131981D01*
X59316764Y-22994579D01*
X59439673Y-22831821D01*
X59530582Y-22649250D01*
X59586397Y-22453083D01*
X59605215Y-22250000D01*
X59586397Y-22046917D01*
X59530582Y-21850750D01*
X59439673Y-21668179D01*
X59316764Y-21505421D01*
X59316762Y-21505418D01*
X59166041Y-21368019D01*
X59166039Y-21368017D01*
X58992642Y-21260655D01*
X58992635Y-21260651D01*
X58897546Y-21223814D01*
X58802456Y-21186976D01*
X58601976Y-21149500D01*
X58398024Y-21149500D01*
X58197544Y-21186976D01*
X58197541Y-21186976D01*
X58197541Y-21186977D01*
X58007364Y-21260651D01*
X58007357Y-21260655D01*
X57833960Y-21368017D01*
X57833958Y-21368019D01*
X57683237Y-21505418D01*
X57560327Y-21668178D01*
X57469422Y-21850739D01*
X57469417Y-21850752D01*
X57413602Y-22046917D01*
X57394785Y-22249999D01*
X57065215Y-22249999D01*
X57046397Y-22046917D01*
X56990582Y-21850750D01*
X56899673Y-21668179D01*
X56776764Y-21505421D01*
X56776762Y-21505418D01*
X56626041Y-21368019D01*
X56626039Y-21368017D01*
X56452642Y-21260655D01*
X56452635Y-21260651D01*
X56357546Y-21223814D01*
X56262456Y-21186976D01*
X56061976Y-21149500D01*
X55858024Y-21149500D01*
X55657544Y-21186976D01*
X55657541Y-21186976D01*
X55657541Y-21186977D01*
X55467364Y-21260651D01*
X55467357Y-21260655D01*
X55293960Y-21368017D01*
X55293958Y-21368019D01*
X55143237Y-21505418D01*
X55020327Y-21668178D01*
X54929422Y-21850739D01*
X54929417Y-21850752D01*
X54873602Y-22046917D01*
X54854785Y-22249999D01*
X54525215Y-22249999D01*
X54506397Y-22046917D01*
X54450582Y-21850750D01*
X54359673Y-21668179D01*
X54236764Y-21505421D01*
X54236762Y-21505418D01*
X54086041Y-21368019D01*
X54086039Y-21368017D01*
X53912642Y-21260655D01*
X53912635Y-21260651D01*
X53817546Y-21223814D01*
X53722456Y-21186976D01*
X53521976Y-21149500D01*
X53318024Y-21149500D01*
X53117544Y-21186976D01*
X53117541Y-21186976D01*
X53117541Y-21186977D01*
X52927364Y-21260651D01*
X52927357Y-21260655D01*
X52753960Y-21368017D01*
X52753958Y-21368019D01*
X52603237Y-21505418D01*
X52480327Y-21668178D01*
X52389422Y-21850739D01*
X52389417Y-21850752D01*
X52333602Y-22046917D01*
X52314785Y-22249999D01*
X51985215Y-22249999D01*
X51966397Y-22046917D01*
X51910582Y-21850750D01*
X51819673Y-21668179D01*
X51696764Y-21505421D01*
X51696762Y-21505418D01*
X51546041Y-21368019D01*
X51546039Y-21368017D01*
X51372642Y-21260655D01*
X51372635Y-21260651D01*
X51277546Y-21223814D01*
X51182456Y-21186976D01*
X50981976Y-21149500D01*
X50778024Y-21149500D01*
X50577544Y-21186976D01*
X50577541Y-21186976D01*
X50577541Y-21186977D01*
X50387364Y-21260651D01*
X50387357Y-21260655D01*
X50213960Y-21368017D01*
X50213958Y-21368019D01*
X50063237Y-21505418D01*
X49940327Y-21668178D01*
X49849422Y-21850739D01*
X49849417Y-21850752D01*
X49793602Y-22046917D01*
X49774785Y-22249999D01*
X49445215Y-22249999D01*
X49426397Y-22046917D01*
X49370582Y-21850750D01*
X49279673Y-21668179D01*
X49156764Y-21505421D01*
X49156762Y-21505418D01*
X49006041Y-21368019D01*
X49006039Y-21368017D01*
X48832642Y-21260655D01*
X48832635Y-21260651D01*
X48737546Y-21223814D01*
X48642456Y-21186976D01*
X48441976Y-21149500D01*
X48238024Y-21149500D01*
X48037544Y-21186976D01*
X48037541Y-21186976D01*
X48037541Y-21186977D01*
X47847364Y-21260651D01*
X47847357Y-21260655D01*
X47673960Y-21368017D01*
X47673958Y-21368019D01*
X47523237Y-21505418D01*
X47400327Y-21668178D01*
X47309422Y-21850739D01*
X47309417Y-21850752D01*
X47253602Y-22046917D01*
X47234785Y-22249999D01*
X16000000Y-22249999D01*
X16000000Y-20499998D01*
X23734685Y-20499998D01*
X23734685Y-20500001D01*
X23753907Y-20719714D01*
X23753909Y-20719724D01*
X23810990Y-20932755D01*
X23810995Y-20932769D01*
X23904203Y-21132654D01*
X23904207Y-21132662D01*
X24030712Y-21313330D01*
X24186669Y-21469287D01*
X24367337Y-21595792D01*
X24367339Y-21595793D01*
X24367342Y-21595795D01*
X24487603Y-21651873D01*
X24567230Y-21689004D01*
X24567232Y-21689004D01*
X24567237Y-21689007D01*
X24780280Y-21746092D01*
X24937222Y-21759822D01*
X24999998Y-21765315D01*
X25000000Y-21765315D01*
X25000002Y-21765315D01*
X25054930Y-21760509D01*
X25219720Y-21746092D01*
X25432763Y-21689007D01*
X25632658Y-21595795D01*
X25813329Y-21469288D01*
X25969288Y-21313329D01*
X26095795Y-21132658D01*
X26189007Y-20932763D01*
X26246092Y-20719720D01*
X26265315Y-20500000D01*
X26265315Y-20499998D01*
X27694685Y-20499998D01*
X27694685Y-20500001D01*
X27713907Y-20719714D01*
X27713909Y-20719724D01*
X27770990Y-20932755D01*
X27770995Y-20932769D01*
X27864203Y-21132654D01*
X27864207Y-21132662D01*
X27990712Y-21313330D01*
X28146669Y-21469287D01*
X28327337Y-21595792D01*
X28327339Y-21595793D01*
X28327342Y-21595795D01*
X28447603Y-21651873D01*
X28527230Y-21689004D01*
X28527232Y-21689004D01*
X28527237Y-21689007D01*
X28740280Y-21746092D01*
X28897222Y-21759822D01*
X28959998Y-21765315D01*
X28960000Y-21765315D01*
X28960002Y-21765315D01*
X29014930Y-21760509D01*
X29179720Y-21746092D01*
X29392763Y-21689007D01*
X29592658Y-21595795D01*
X29773329Y-21469288D01*
X29929288Y-21313329D01*
X30055795Y-21132658D01*
X30117618Y-21000076D01*
X30163790Y-20947637D01*
X30230983Y-20928485D01*
X30297864Y-20948700D01*
X30342382Y-21000077D01*
X30404203Y-21132654D01*
X30404207Y-21132662D01*
X30530712Y-21313330D01*
X30686669Y-21469287D01*
X30867337Y-21595792D01*
X30867339Y-21595793D01*
X30867342Y-21595795D01*
X30987603Y-21651873D01*
X31067230Y-21689004D01*
X31067232Y-21689004D01*
X31067237Y-21689007D01*
X31280280Y-21746092D01*
X31437222Y-21759822D01*
X31499998Y-21765315D01*
X31500000Y-21765315D01*
X31500002Y-21765315D01*
X31554930Y-21760509D01*
X31719720Y-21746092D01*
X31932763Y-21689007D01*
X32132658Y-21595795D01*
X32313329Y-21469288D01*
X32469288Y-21313329D01*
X32595795Y-21132658D01*
X32689007Y-20932763D01*
X32746092Y-20719720D01*
X32765315Y-20500000D01*
X32765315Y-20499998D01*
X33969685Y-20499998D01*
X33969685Y-20500001D01*
X33988907Y-20719714D01*
X33988909Y-20719724D01*
X34045990Y-20932755D01*
X34045995Y-20932769D01*
X34139203Y-21132654D01*
X34139207Y-21132662D01*
X34265712Y-21313330D01*
X34421669Y-21469287D01*
X34602337Y-21595792D01*
X34602339Y-21595793D01*
X34602342Y-21595795D01*
X34722603Y-21651873D01*
X34802230Y-21689004D01*
X34802232Y-21689004D01*
X34802237Y-21689007D01*
X35015280Y-21746092D01*
X35172222Y-21759822D01*
X35234998Y-21765315D01*
X35235000Y-21765315D01*
X35235002Y-21765315D01*
X35289930Y-21760509D01*
X35454720Y-21746092D01*
X35667763Y-21689007D01*
X35867658Y-21595795D01*
X36048329Y-21469288D01*
X36204288Y-21313329D01*
X36330795Y-21132658D01*
X36392618Y-21000076D01*
X36438790Y-20947637D01*
X36505983Y-20928485D01*
X36572864Y-20948700D01*
X36617382Y-21000077D01*
X36679203Y-21132654D01*
X36679207Y-21132662D01*
X36805712Y-21313330D01*
X36961669Y-21469287D01*
X37142337Y-21595792D01*
X37142339Y-21595793D01*
X37142342Y-21595795D01*
X37262603Y-21651873D01*
X37342230Y-21689004D01*
X37342232Y-21689004D01*
X37342237Y-21689007D01*
X37555280Y-21746092D01*
X37712222Y-21759822D01*
X37774998Y-21765315D01*
X37775000Y-21765315D01*
X37775002Y-21765315D01*
X37829930Y-21760509D01*
X37994720Y-21746092D01*
X38207763Y-21689007D01*
X38407658Y-21595795D01*
X38588329Y-21469288D01*
X38744288Y-21313329D01*
X38870795Y-21132658D01*
X38964007Y-20932763D01*
X39021092Y-20719720D01*
X39040315Y-20500000D01*
X39021092Y-20280280D01*
X38964007Y-20067237D01*
X38870795Y-19867343D01*
X38760622Y-19709999D01*
X47234785Y-19709999D01*
X47234785Y-19710000D01*
X47253602Y-19913082D01*
X47309417Y-20109247D01*
X47309422Y-20109260D01*
X47400327Y-20291821D01*
X47523237Y-20454581D01*
X47673958Y-20591980D01*
X47673960Y-20591982D01*
X47773141Y-20653392D01*
X47847363Y-20699348D01*
X48037544Y-20773024D01*
X48238024Y-20810500D01*
X48238026Y-20810500D01*
X48441974Y-20810500D01*
X48441976Y-20810500D01*
X48642456Y-20773024D01*
X48832637Y-20699348D01*
X49006041Y-20591981D01*
X49156764Y-20454579D01*
X49279673Y-20291821D01*
X49370582Y-20109250D01*
X49426397Y-19913083D01*
X49445215Y-19710000D01*
X49426397Y-19506917D01*
X49370582Y-19310750D01*
X49279673Y-19128179D01*
X49229799Y-19062135D01*
X57399500Y-19062135D01*
X57399500Y-20357870D01*
X57399501Y-20357876D01*
X57405908Y-20417483D01*
X57456202Y-20552328D01*
X57456206Y-20552335D01*
X57542452Y-20667544D01*
X57542455Y-20667547D01*
X57657664Y-20753793D01*
X57657671Y-20753797D01*
X57792517Y-20804091D01*
X57792516Y-20804091D01*
X57799444Y-20804835D01*
X57852127Y-20810500D01*
X59147872Y-20810499D01*
X59207483Y-20804091D01*
X59342331Y-20753796D01*
X59457546Y-20667546D01*
X59543796Y-20552331D01*
X59594091Y-20417483D01*
X59600500Y-20357873D01*
X59600499Y-19062128D01*
X59594091Y-19002517D01*
X59543796Y-18867669D01*
X59543795Y-18867668D01*
X59543793Y-18867664D01*
X59457547Y-18752455D01*
X59457544Y-18752452D01*
X59342335Y-18666206D01*
X59342328Y-18666202D01*
X59207482Y-18615908D01*
X59207483Y-18615908D01*
X59147883Y-18609501D01*
X59147881Y-18609500D01*
X59147873Y-18609500D01*
X59147864Y-18609500D01*
X57852129Y-18609500D01*
X57852123Y-18609501D01*
X57792516Y-18615908D01*
X57657671Y-18666202D01*
X57657664Y-18666206D01*
X57542455Y-18752452D01*
X57542452Y-18752455D01*
X57456206Y-18867664D01*
X57456202Y-18867671D01*
X57405908Y-19002517D01*
X57399501Y-19062116D01*
X57399501Y-19062123D01*
X57399500Y-19062135D01*
X49229799Y-19062135D01*
X49156764Y-18965421D01*
X49156762Y-18965418D01*
X49006041Y-18828019D01*
X49006039Y-18828017D01*
X48832642Y-18720655D01*
X48832635Y-18720651D01*
X48737546Y-18683814D01*
X48642456Y-18646976D01*
X48441976Y-18609500D01*
X48238024Y-18609500D01*
X48037544Y-18646976D01*
X48037541Y-18646976D01*
X48037541Y-18646977D01*
X47847364Y-18720651D01*
X47847357Y-18720655D01*
X47673960Y-18828017D01*
X47673958Y-18828019D01*
X47523237Y-18965418D01*
X47400327Y-19128178D01*
X47309422Y-19310739D01*
X47309417Y-19310752D01*
X47253602Y-19506917D01*
X47234785Y-19709999D01*
X38760622Y-19709999D01*
X38744288Y-19686671D01*
X38744286Y-19686668D01*
X38588330Y-19530712D01*
X38407662Y-19404207D01*
X38407654Y-19404203D01*
X38207769Y-19310995D01*
X38207755Y-19310990D01*
X37994724Y-19253909D01*
X37994722Y-19253908D01*
X37994720Y-19253908D01*
X37994718Y-19253907D01*
X37994714Y-19253907D01*
X37775002Y-19234685D01*
X37774998Y-19234685D01*
X37555285Y-19253907D01*
X37555275Y-19253909D01*
X37342244Y-19310990D01*
X37342235Y-19310994D01*
X37142344Y-19404204D01*
X37142342Y-19404205D01*
X36961668Y-19530713D01*
X36805713Y-19686668D01*
X36679205Y-19867342D01*
X36679204Y-19867344D01*
X36617382Y-19999923D01*
X36571210Y-20052362D01*
X36504016Y-20071514D01*
X36437135Y-20051298D01*
X36392618Y-19999923D01*
X36330795Y-19867344D01*
X36330794Y-19867342D01*
X36204286Y-19686668D01*
X36048330Y-19530712D01*
X35867662Y-19404207D01*
X35867654Y-19404203D01*
X35667769Y-19310995D01*
X35667755Y-19310990D01*
X35454724Y-19253909D01*
X35454722Y-19253908D01*
X35454720Y-19253908D01*
X35454718Y-19253907D01*
X35454714Y-19253907D01*
X35235002Y-19234685D01*
X35234998Y-19234685D01*
X35015285Y-19253907D01*
X35015275Y-19253909D01*
X34802244Y-19310990D01*
X34802235Y-19310994D01*
X34602344Y-19404204D01*
X34602342Y-19404205D01*
X34421668Y-19530713D01*
X34265713Y-19686668D01*
X34139205Y-19867342D01*
X34139204Y-19867344D01*
X34045994Y-20067235D01*
X34045990Y-20067244D01*
X33988909Y-20280275D01*
X33988907Y-20280285D01*
X33969685Y-20499998D01*
X32765315Y-20499998D01*
X32746092Y-20280280D01*
X32689007Y-20067237D01*
X32595795Y-19867343D01*
X32469288Y-19686671D01*
X32469286Y-19686668D01*
X32313330Y-19530712D01*
X32132662Y-19404207D01*
X32132654Y-19404203D01*
X31932769Y-19310995D01*
X31932755Y-19310990D01*
X31719724Y-19253909D01*
X31719722Y-19253908D01*
X31719720Y-19253908D01*
X31719718Y-19253907D01*
X31719714Y-19253907D01*
X31500002Y-19234685D01*
X31499998Y-19234685D01*
X31280285Y-19253907D01*
X31280275Y-19253909D01*
X31067244Y-19310990D01*
X31067235Y-19310994D01*
X30867344Y-19404204D01*
X30867342Y-19404205D01*
X30686668Y-19530713D01*
X30530713Y-19686668D01*
X30404205Y-19867342D01*
X30404204Y-19867344D01*
X30342382Y-19999923D01*
X30296210Y-20052362D01*
X30229016Y-20071514D01*
X30162135Y-20051298D01*
X30117618Y-19999923D01*
X30055795Y-19867344D01*
X30055794Y-19867342D01*
X29929286Y-19686668D01*
X29773330Y-19530712D01*
X29592662Y-19404207D01*
X29592654Y-19404203D01*
X29392769Y-19310995D01*
X29392755Y-19310990D01*
X29179724Y-19253909D01*
X29179722Y-19253908D01*
X29179720Y-19253908D01*
X29179718Y-19253907D01*
X29179714Y-19253907D01*
X28960002Y-19234685D01*
X28959998Y-19234685D01*
X28740285Y-19253907D01*
X28740275Y-19253909D01*
X28527244Y-19310990D01*
X28527235Y-19310994D01*
X28327344Y-19404204D01*
X28327342Y-19404205D01*
X28146668Y-19530713D01*
X27990713Y-19686668D01*
X27864205Y-19867342D01*
X27864204Y-19867344D01*
X27770994Y-20067235D01*
X27770990Y-20067244D01*
X27713909Y-20280275D01*
X27713907Y-20280285D01*
X27694685Y-20499998D01*
X26265315Y-20499998D01*
X26246092Y-20280280D01*
X26189007Y-20067237D01*
X26095795Y-19867343D01*
X25969288Y-19686671D01*
X25969286Y-19686668D01*
X25813330Y-19530712D01*
X25632662Y-19404207D01*
X25632654Y-19404203D01*
X25432769Y-19310995D01*
X25432755Y-19310990D01*
X25219724Y-19253909D01*
X25219722Y-19253908D01*
X25219720Y-19253908D01*
X25219718Y-19253907D01*
X25219714Y-19253907D01*
X25000002Y-19234685D01*
X24999998Y-19234685D01*
X24780285Y-19253907D01*
X24780275Y-19253909D01*
X24567244Y-19310990D01*
X24567235Y-19310994D01*
X24367344Y-19404204D01*
X24367342Y-19404205D01*
X24186668Y-19530713D01*
X24030713Y-19686668D01*
X23904205Y-19867342D01*
X23904204Y-19867344D01*
X23810994Y-20067235D01*
X23810990Y-20067244D01*
X23753909Y-20280275D01*
X23753907Y-20280285D01*
X23734685Y-20499998D01*
X16000000Y-20499998D01*
X16000000Y-16124000D01*
X16019685Y-16056961D01*
X16072489Y-16011206D01*
X16124000Y-16000000D01*
X69176000Y-16000000D01*
X69243039Y-16019685D01*
G37*
%TD.AperFunction*%
%TD*%
M02*
