%TF.GenerationSoftware,KiCad,Pcbnew,8.0.4*%
%TF.CreationDate,2024-11-10T12:25:31-05:00*%
%TF.ProjectId,booster-tc-driver,626f6f73-7465-4722-9d74-632d64726976,rev?*%
%TF.SameCoordinates,Original*%
%TF.FileFunction,Soldermask,Top*%
%TF.FilePolarity,Negative*%
%FSLAX46Y46*%
G04 Gerber Fmt 4.6, Leading zero omitted, Abs format (unit mm)*
G04 Created by KiCad (PCBNEW 8.0.4) date 2024-11-10 12:25:31*
%MOMM*%
%LPD*%
G01*
G04 APERTURE LIST*
G04 Aperture macros list*
%AMRoundRect*
0 Rectangle with rounded corners*
0 $1 Rounding radius*
0 $2 $3 $4 $5 $6 $7 $8 $9 X,Y pos of 4 corners*
0 Add a 4 corners polygon primitive as box body*
4,1,4,$2,$3,$4,$5,$6,$7,$8,$9,$2,$3,0*
0 Add four circle primitives for the rounded corners*
1,1,$1+$1,$2,$3*
1,1,$1+$1,$4,$5*
1,1,$1+$1,$6,$7*
1,1,$1+$1,$8,$9*
0 Add four rect primitives between the rounded corners*
20,1,$1+$1,$2,$3,$4,$5,0*
20,1,$1+$1,$4,$5,$6,$7,0*
20,1,$1+$1,$6,$7,$8,$9,0*
20,1,$1+$1,$8,$9,$2,$3,0*%
G04 Aperture macros list end*
%ADD10C,0.100000*%
%ADD11C,0.000000*%
%ADD12R,5.970000X1.780000*%
%ADD13C,1.524000*%
%ADD14C,1.400000*%
%ADD15R,1.780000X5.970000*%
%ADD16C,2.020000*%
%ADD17RoundRect,0.250000X0.650000X-0.412500X0.650000X0.412500X-0.650000X0.412500X-0.650000X-0.412500X0*%
%ADD18C,1.168400*%
%ADD19RoundRect,0.075000X-0.662500X-0.075000X0.662500X-0.075000X0.662500X0.075000X-0.662500X0.075000X0*%
%ADD20RoundRect,0.075000X-0.075000X-0.662500X0.075000X-0.662500X0.075000X0.662500X-0.075000X0.662500X0*%
%ADD21R,1.100000X1.100000*%
%ADD22C,1.100000*%
%ADD23RoundRect,0.250000X-0.600000X0.600000X-0.600000X-0.600000X0.600000X-0.600000X0.600000X0.600000X0*%
%ADD24C,1.700000*%
%ADD25RoundRect,0.102000X0.810000X-0.810000X0.810000X0.810000X-0.810000X0.810000X-0.810000X-0.810000X0*%
%ADD26C,1.824000*%
%ADD27R,0.406400X0.711200*%
%ADD28R,0.584200X0.508000*%
%ADD29R,1.727200X3.987800*%
%ADD30R,0.523200X0.406200*%
%ADD31R,0.532940X0.407008*%
%ADD32RoundRect,0.250000X1.100000X-0.412500X1.100000X0.412500X-1.100000X0.412500X-1.100000X-0.412500X0*%
%ADD33RoundRect,0.250000X1.075000X-0.400000X1.075000X0.400000X-1.075000X0.400000X-1.075000X-0.400000X0*%
%ADD34R,1.397000X1.397000*%
%ADD35C,1.397000*%
G04 APERTURE END LIST*
D10*
X65300000Y-16000000D02*
X69300000Y-16000000D01*
X69300000Y-88000000D01*
X65300000Y-88000000D01*
X65300000Y-16000000D01*
G36*
X65300000Y-16000000D02*
G01*
X69300000Y-16000000D01*
X69300000Y-88000000D01*
X65300000Y-88000000D01*
X65300000Y-16000000D01*
G37*
X16000000Y-16000000D02*
X20000000Y-16000000D01*
X20000000Y-88000000D01*
X16000000Y-88000000D01*
X16000000Y-16000000D01*
G36*
X16000000Y-16000000D02*
G01*
X20000000Y-16000000D01*
X20000000Y-88000000D01*
X16000000Y-88000000D01*
X16000000Y-16000000D01*
G37*
D11*
%TO.C,U13*%
G36*
X35363600Y-35993900D02*
G01*
X33636400Y-35993900D01*
X33633800Y-35334008D01*
X33049600Y-35334008D01*
X33049600Y-34826008D01*
X33633800Y-34826008D01*
X33636400Y-32412500D01*
X33153800Y-32412500D01*
X33153800Y-32006100D01*
X35363600Y-32006100D01*
X35363600Y-35993900D01*
G37*
G36*
X38081400Y-32412500D02*
G01*
X37598800Y-32412500D01*
X37596200Y-34826008D01*
X38180400Y-34826008D01*
X38180400Y-35334008D01*
X37596200Y-35334008D01*
X37593660Y-35993900D01*
X35866460Y-35993900D01*
X35866460Y-32006100D01*
X38116900Y-32006100D01*
X38081400Y-32412500D01*
G37*
%TO.C,U12*%
G36*
X41363600Y-35993900D02*
G01*
X39636400Y-35993900D01*
X39633800Y-35334008D01*
X39049600Y-35334008D01*
X39049600Y-34826008D01*
X39633800Y-34826008D01*
X39636400Y-32412500D01*
X39153800Y-32412500D01*
X39153800Y-32006100D01*
X41363600Y-32006100D01*
X41363600Y-35993900D01*
G37*
G36*
X44081400Y-32412500D02*
G01*
X43598800Y-32412500D01*
X43596200Y-34826008D01*
X44180400Y-34826008D01*
X44180400Y-35334008D01*
X43596200Y-35334008D01*
X43593660Y-35993900D01*
X41866460Y-35993900D01*
X41866460Y-32006100D01*
X44116900Y-32006100D01*
X44081400Y-32412500D01*
G37*
%TO.C,U11*%
G36*
X23323600Y-35993900D02*
G01*
X21596400Y-35993900D01*
X21593800Y-35334008D01*
X21009600Y-35334008D01*
X21009600Y-34826008D01*
X21593800Y-34826008D01*
X21596400Y-32412500D01*
X21113800Y-32412500D01*
X21113800Y-32006100D01*
X23323600Y-32006100D01*
X23323600Y-35993900D01*
G37*
G36*
X26041400Y-32412500D02*
G01*
X25558800Y-32412500D01*
X25556200Y-34826008D01*
X26140400Y-34826008D01*
X26140400Y-35334008D01*
X25556200Y-35334008D01*
X25553660Y-35993900D01*
X23826460Y-35993900D01*
X23826460Y-32006100D01*
X26076900Y-32006100D01*
X26041400Y-32412500D01*
G37*
%TO.C,U10*%
G36*
X29363600Y-35993900D02*
G01*
X27636400Y-35993900D01*
X27633800Y-35334008D01*
X27049600Y-35334008D01*
X27049600Y-34826008D01*
X27633800Y-34826008D01*
X27636400Y-32412500D01*
X27153800Y-32412500D01*
X27153800Y-32006100D01*
X29363600Y-32006100D01*
X29363600Y-35993900D01*
G37*
G36*
X32081400Y-32412500D02*
G01*
X31598800Y-32412500D01*
X31596200Y-34826008D01*
X32180400Y-34826008D01*
X32180400Y-35334008D01*
X31596200Y-35334008D01*
X31593660Y-35993900D01*
X29866460Y-35993900D01*
X29866460Y-32006100D01*
X32116900Y-32006100D01*
X32081400Y-32412500D01*
G37*
%TD*%
D12*
%TO.C,J11*%
X57980000Y-71120000D03*
X61020000Y-68580000D03*
X57980000Y-66040000D03*
X61020000Y-63500000D03*
X57980000Y-60960000D03*
%TD*%
D13*
%TO.C,SW1*%
X23260000Y-71840000D03*
X23260000Y-82000000D03*
X25800000Y-82000000D03*
X23260000Y-74380000D03*
X23260000Y-76920000D03*
%TD*%
D14*
%TO.C,U3*%
X31790000Y-84482500D03*
X33695000Y-84482500D03*
X35600000Y-84482500D03*
%TD*%
D15*
%TO.C,J5*%
X60560000Y-55040000D03*
X58020000Y-52000000D03*
%TD*%
D14*
%TO.C,U2*%
X53330000Y-84482500D03*
X55870000Y-84482500D03*
%TD*%
D16*
%TO.C,J9*%
X28960000Y-20500000D03*
X31500000Y-20500000D03*
%TD*%
D17*
%TO.C,C60*%
X22500000Y-28562500D03*
X22500000Y-25437500D03*
%TD*%
D18*
%TO.C,J1*%
X33340000Y-49400000D03*
X33340000Y-50670000D03*
X32070000Y-49400000D03*
X32070000Y-50670000D03*
X30800000Y-49400000D03*
X30800000Y-50670000D03*
X29530000Y-49400000D03*
X29530000Y-50670000D03*
X28260000Y-49400000D03*
X28260000Y-50670000D03*
%TD*%
D17*
%TO.C,C61*%
X32500000Y-28562500D03*
X32500000Y-25437500D03*
%TD*%
D19*
%TO.C,U5*%
X31837500Y-55412500D03*
X31837500Y-55912500D03*
X31837500Y-56412500D03*
X31837500Y-56912500D03*
X31837500Y-57412500D03*
X31837500Y-57912500D03*
X31837500Y-58412500D03*
X31837500Y-58912500D03*
X31837500Y-59412500D03*
X31837500Y-59912500D03*
X31837500Y-60412500D03*
X31837500Y-60912500D03*
D20*
X33250000Y-62325000D03*
X33750000Y-62325000D03*
X34250000Y-62325000D03*
X34750000Y-62325000D03*
X35250000Y-62325000D03*
X35750000Y-62325000D03*
X36250000Y-62325000D03*
X36750000Y-62325000D03*
X37250000Y-62325000D03*
X37750000Y-62325000D03*
X38250000Y-62325000D03*
X38750000Y-62325000D03*
D19*
X40162500Y-60912500D03*
X40162500Y-60412500D03*
X40162500Y-59912500D03*
X40162500Y-59412500D03*
X40162500Y-58912500D03*
X40162500Y-58412500D03*
X40162500Y-57912500D03*
X40162500Y-57412500D03*
X40162500Y-56912500D03*
X40162500Y-56412500D03*
X40162500Y-55912500D03*
X40162500Y-55412500D03*
D20*
X38750000Y-54000000D03*
X38250000Y-54000000D03*
X37750000Y-54000000D03*
X37250000Y-54000000D03*
X36750000Y-54000000D03*
X36250000Y-54000000D03*
X35750000Y-54000000D03*
X35250000Y-54000000D03*
X34750000Y-54000000D03*
X34250000Y-54000000D03*
X33750000Y-54000000D03*
X33250000Y-54000000D03*
%TD*%
D21*
%TO.C,C29*%
X50000000Y-42750000D03*
D22*
X50000000Y-39250000D03*
%TD*%
D16*
%TO.C,J3*%
X22460000Y-20500000D03*
X25000000Y-20500000D03*
%TD*%
D15*
%TO.C,J7*%
X60520000Y-33020000D03*
X57980000Y-29980000D03*
%TD*%
D23*
%TO.C,J2*%
X58500000Y-19710000D03*
D24*
X58500000Y-22250000D03*
X55960000Y-19710000D03*
X55960000Y-22250000D03*
X53420000Y-19710000D03*
X53420000Y-22250000D03*
X50880000Y-19710000D03*
X50880000Y-22250000D03*
X48340000Y-19710000D03*
X48340000Y-22250000D03*
%TD*%
D15*
%TO.C,J6*%
X60520000Y-44040000D03*
X57980000Y-41000000D03*
%TD*%
D25*
%TO.C,D11*%
X63804000Y-80980000D03*
D26*
X61264000Y-80980000D03*
X63804000Y-78440000D03*
X61264000Y-78440000D03*
X63804000Y-75900000D03*
X61264000Y-75900000D03*
%TD*%
D14*
%TO.C,U1*%
X42390000Y-84482500D03*
X44295000Y-84482500D03*
X46200000Y-84482500D03*
%TD*%
D27*
%TO.C,U13*%
X33710000Y-37795009D03*
X34980000Y-37795009D03*
X36250000Y-37795009D03*
X37520000Y-37795009D03*
D28*
X33345000Y-35080008D03*
D29*
X34500000Y-34000000D03*
D30*
X33415000Y-32210008D03*
D28*
X37885000Y-35080008D03*
D29*
X36730060Y-34000000D03*
D31*
X37860130Y-32209604D03*
%TD*%
D27*
%TO.C,U12*%
X39710000Y-37795009D03*
X40980000Y-37795009D03*
X42250000Y-37795009D03*
X43520000Y-37795009D03*
D28*
X39345000Y-35080008D03*
D29*
X40500000Y-34000000D03*
D30*
X39415000Y-32210008D03*
D28*
X43885000Y-35080008D03*
D29*
X42730060Y-34000000D03*
D31*
X43860130Y-32209604D03*
%TD*%
D32*
%TO.C,C59*%
X35500000Y-28562500D03*
X35500000Y-25437500D03*
%TD*%
%TO.C,C58*%
X25500000Y-28562500D03*
X25500000Y-25437500D03*
%TD*%
D33*
%TO.C,R29*%
X39000000Y-28550000D03*
X39000000Y-25450000D03*
%TD*%
D15*
%TO.C,J4*%
X22730000Y-56480000D03*
X25270000Y-59520000D03*
%TD*%
D21*
%TO.C,C37*%
X50000000Y-51000000D03*
D22*
X50000000Y-47500000D03*
%TD*%
D27*
%TO.C,U11*%
X21670000Y-37795009D03*
X22940000Y-37795009D03*
X24210000Y-37795009D03*
X25480000Y-37795009D03*
D28*
X21305000Y-35080008D03*
D29*
X22460000Y-34000000D03*
D30*
X21375000Y-32210008D03*
D28*
X25845000Y-35080008D03*
D29*
X24690060Y-34000000D03*
D31*
X25820130Y-32209604D03*
%TD*%
D16*
%TO.C,J10*%
X35235000Y-20500000D03*
X37775000Y-20500000D03*
%TD*%
D34*
%TO.C,C19*%
X50000000Y-34000000D03*
D35*
X50000000Y-29000000D03*
%TD*%
D33*
%TO.C,R28*%
X29000000Y-28550000D03*
X29000000Y-25450000D03*
%TD*%
D27*
%TO.C,U10*%
X27710000Y-37795009D03*
X28980000Y-37795009D03*
X30250000Y-37795009D03*
X31520000Y-37795009D03*
D28*
X27345000Y-35080008D03*
D29*
X28500000Y-34000000D03*
D30*
X27415000Y-32210008D03*
D28*
X31885000Y-35080008D03*
D29*
X30730060Y-34000000D03*
D31*
X31860130Y-32209604D03*
%TD*%
M02*
