%TF.GenerationSoftware,KiCad,Pcbnew,8.0.4*%
%TF.CreationDate,2024-11-10T12:25:31-05:00*%
%TF.ProjectId,booster-tc-driver,626f6f73-7465-4722-9d74-632d64726976,rev?*%
%TF.SameCoordinates,Original*%
%TF.FileFunction,Profile,NP*%
%FSLAX46Y46*%
G04 Gerber Fmt 4.6, Leading zero omitted, Abs format (unit mm)*
G04 Created by KiCad (PCBNEW 8.0.4) date 2024-11-10 12:25:31*
%MOMM*%
%LPD*%
G01*
G04 APERTURE LIST*
%TA.AperFunction,Profile*%
%ADD10C,0.050000*%
%TD*%
G04 APERTURE END LIST*
D10*
X16000000Y-16000000D02*
X69300000Y-16000000D01*
X69300000Y-88000000D01*
X16000000Y-88000000D01*
X16000000Y-16000000D01*
%TO.C,U3*%
X31942500Y-87022500D02*
G75*
G02*
X30367500Y-87022500I-787500J0D01*
G01*
X30367500Y-87022500D02*
G75*
G02*
X31942500Y-87022500I787500J0D01*
G01*
X35282500Y-79402500D02*
G75*
G02*
X32107500Y-79402500I-1587500J0D01*
G01*
X32107500Y-79402500D02*
G75*
G02*
X35282500Y-79402500I1587500J0D01*
G01*
X37022200Y-87022500D02*
G75*
G02*
X35447200Y-87022500I-787500J0D01*
G01*
X35447200Y-87022500D02*
G75*
G02*
X37022200Y-87022500I787500J0D01*
G01*
%TO.C,U2*%
X52832500Y-87022500D02*
G75*
G02*
X51257500Y-87022500I-787500J0D01*
G01*
X51257500Y-87022500D02*
G75*
G02*
X52832500Y-87022500I787500J0D01*
G01*
X56172500Y-79402500D02*
G75*
G02*
X52997500Y-79402500I-1587500J0D01*
G01*
X52997500Y-79402500D02*
G75*
G02*
X56172500Y-79402500I1587500J0D01*
G01*
X57912200Y-87022500D02*
G75*
G02*
X56337200Y-87022500I-787500J0D01*
G01*
X56337200Y-87022500D02*
G75*
G02*
X57912200Y-87022500I787500J0D01*
G01*
%TO.C,U1*%
X42542500Y-87022500D02*
G75*
G02*
X40967500Y-87022500I-787500J0D01*
G01*
X40967500Y-87022500D02*
G75*
G02*
X42542500Y-87022500I787500J0D01*
G01*
X45882500Y-79402500D02*
G75*
G02*
X42707500Y-79402500I-1587500J0D01*
G01*
X42707500Y-79402500D02*
G75*
G02*
X45882500Y-79402500I1587500J0D01*
G01*
X47622200Y-87022500D02*
G75*
G02*
X46047200Y-87022500I-787500J0D01*
G01*
X46047200Y-87022500D02*
G75*
G02*
X47622200Y-87022500I787500J0D01*
G01*
%TD*%
M02*
