%TF.GenerationSoftware,KiCad,Pcbnew,8.0.4*%
%TF.CreationDate,2024-11-10T12:25:31-05:00*%
%TF.ProjectId,booster-tc-driver,626f6f73-7465-4722-9d74-632d64726976,rev?*%
%TF.SameCoordinates,Original*%
%TF.FileFunction,Copper,L4,Bot*%
%TF.FilePolarity,Positive*%
%FSLAX46Y46*%
G04 Gerber Fmt 4.6, Leading zero omitted, Abs format (unit mm)*
G04 Created by KiCad (PCBNEW 8.0.4) date 2024-11-10 12:25:31*
%MOMM*%
%LPD*%
G01*
G04 APERTURE LIST*
G04 Aperture macros list*
%AMRoundRect*
0 Rectangle with rounded corners*
0 $1 Rounding radius*
0 $2 $3 $4 $5 $6 $7 $8 $9 X,Y pos of 4 corners*
0 Add a 4 corners polygon primitive as box body*
4,1,4,$2,$3,$4,$5,$6,$7,$8,$9,$2,$3,0*
0 Add four circle primitives for the rounded corners*
1,1,$1+$1,$2,$3*
1,1,$1+$1,$4,$5*
1,1,$1+$1,$6,$7*
1,1,$1+$1,$8,$9*
0 Add four rect primitives between the rounded corners*
20,1,$1+$1,$2,$3,$4,$5,0*
20,1,$1+$1,$4,$5,$6,$7,0*
20,1,$1+$1,$6,$7,$8,$9,0*
20,1,$1+$1,$8,$9,$2,$3,0*%
%AMFreePoly0*
4,1,21,1.545000,0.775000,0.925000,0.775000,0.925000,0.525000,1.545000,0.525000,1.545000,0.125000,0.925000,0.125000,0.925000,-0.125000,1.545000,-0.125000,1.545000,-0.525000,0.925000,-0.525000,0.925000,-0.775000,1.545000,-0.775000,1.545000,-1.175000,0.925000,-1.175000,0.925000,-1.125000,-0.925000,-1.125000,-0.925000,1.125000,0.925000,1.125000,0.925000,1.175000,1.545000,1.175000,
1.545000,0.775000,1.545000,0.775000,$1*%
G04 Aperture macros list end*
%TA.AperFunction,ComponentPad*%
%ADD10C,1.524000*%
%TD*%
%TA.AperFunction,ComponentPad*%
%ADD11C,1.400000*%
%TD*%
%TA.AperFunction,ComponentPad*%
%ADD12C,2.020000*%
%TD*%
%TA.AperFunction,ComponentPad*%
%ADD13C,1.168400*%
%TD*%
%TA.AperFunction,ComponentPad*%
%ADD14R,1.100000X1.100000*%
%TD*%
%TA.AperFunction,ComponentPad*%
%ADD15C,1.100000*%
%TD*%
%TA.AperFunction,ComponentPad*%
%ADD16RoundRect,0.250000X-0.600000X0.600000X-0.600000X-0.600000X0.600000X-0.600000X0.600000X0.600000X0*%
%TD*%
%TA.AperFunction,ComponentPad*%
%ADD17C,1.700000*%
%TD*%
%TA.AperFunction,ComponentPad*%
%ADD18R,1.620000X1.620000*%
%TD*%
%TA.AperFunction,ComponentPad*%
%ADD19C,1.620000*%
%TD*%
%TA.AperFunction,ComponentPad*%
%ADD20R,1.397000X1.397000*%
%TD*%
%TA.AperFunction,ComponentPad*%
%ADD21C,1.397000*%
%TD*%
%TA.AperFunction,SMDPad,CuDef*%
%ADD22R,0.900000X0.950000*%
%TD*%
%TA.AperFunction,SMDPad,CuDef*%
%ADD23RoundRect,0.237500X-0.250000X-0.237500X0.250000X-0.237500X0.250000X0.237500X-0.250000X0.237500X0*%
%TD*%
%TA.AperFunction,SMDPad,CuDef*%
%ADD24RoundRect,0.237500X0.237500X-0.250000X0.237500X0.250000X-0.237500X0.250000X-0.237500X-0.250000X0*%
%TD*%
%TA.AperFunction,SMDPad,CuDef*%
%ADD25RoundRect,0.237500X-0.237500X0.300000X-0.237500X-0.300000X0.237500X-0.300000X0.237500X0.300000X0*%
%TD*%
%TA.AperFunction,SMDPad,CuDef*%
%ADD26RoundRect,0.237500X-0.300000X-0.237500X0.300000X-0.237500X0.300000X0.237500X-0.300000X0.237500X0*%
%TD*%
%TA.AperFunction,SMDPad,CuDef*%
%ADD27RoundRect,0.237500X0.300000X0.237500X-0.300000X0.237500X-0.300000X-0.237500X0.300000X-0.237500X0*%
%TD*%
%TA.AperFunction,SMDPad,CuDef*%
%ADD28RoundRect,0.250000X-0.412500X-0.650000X0.412500X-0.650000X0.412500X0.650000X-0.412500X0.650000X0*%
%TD*%
%TA.AperFunction,SMDPad,CuDef*%
%ADD29RoundRect,0.237500X-0.237500X0.250000X-0.237500X-0.250000X0.237500X-0.250000X0.237500X0.250000X0*%
%TD*%
%TA.AperFunction,SMDPad,CuDef*%
%ADD30RoundRect,0.250000X0.300000X-2.050000X0.300000X2.050000X-0.300000X2.050000X-0.300000X-2.050000X0*%
%TD*%
%TA.AperFunction,SMDPad,CuDef*%
%ADD31RoundRect,0.250000X2.375000X-2.025000X2.375000X2.025000X-2.375000X2.025000X-2.375000X-2.025000X0*%
%TD*%
%TA.AperFunction,SMDPad,CuDef*%
%ADD32RoundRect,0.250002X5.149998X-4.449998X5.149998X4.449998X-5.149998X4.449998X-5.149998X-4.449998X0*%
%TD*%
%TA.AperFunction,SMDPad,CuDef*%
%ADD33R,2.489200X1.498600*%
%TD*%
%TA.AperFunction,SMDPad,CuDef*%
%ADD34R,0.950000X0.900000*%
%TD*%
%TA.AperFunction,SMDPad,CuDef*%
%ADD35RoundRect,0.375000X-0.625000X-0.375000X0.625000X-0.375000X0.625000X0.375000X-0.625000X0.375000X0*%
%TD*%
%TA.AperFunction,SMDPad,CuDef*%
%ADD36RoundRect,0.500000X-0.500000X-1.400000X0.500000X-1.400000X0.500000X1.400000X-0.500000X1.400000X0*%
%TD*%
%TA.AperFunction,SMDPad,CuDef*%
%ADD37RoundRect,0.237500X0.237500X-0.300000X0.237500X0.300000X-0.237500X0.300000X-0.237500X-0.300000X0*%
%TD*%
%TA.AperFunction,SMDPad,CuDef*%
%ADD38R,2.179320X1.620520*%
%TD*%
%TA.AperFunction,SMDPad,CuDef*%
%ADD39RoundRect,0.150000X0.150000X-0.587500X0.150000X0.587500X-0.150000X0.587500X-0.150000X-0.587500X0*%
%TD*%
%TA.AperFunction,SMDPad,CuDef*%
%ADD40RoundRect,0.150000X-0.150000X0.587500X-0.150000X-0.587500X0.150000X-0.587500X0.150000X0.587500X0*%
%TD*%
%TA.AperFunction,SMDPad,CuDef*%
%ADD41R,0.650000X1.528000*%
%TD*%
%TA.AperFunction,SMDPad,CuDef*%
%ADD42RoundRect,0.237500X0.250000X0.237500X-0.250000X0.237500X-0.250000X-0.237500X0.250000X-0.237500X0*%
%TD*%
%TA.AperFunction,SMDPad,CuDef*%
%ADD43RoundRect,0.249999X1.425001X-0.450001X1.425001X0.450001X-1.425001X0.450001X-1.425001X-0.450001X0*%
%TD*%
%TA.AperFunction,SMDPad,CuDef*%
%ADD44R,0.550000X1.600000*%
%TD*%
%TA.AperFunction,SMDPad,CuDef*%
%ADD45RoundRect,0.250000X0.800000X-0.450000X0.800000X0.450000X-0.800000X0.450000X-0.800000X-0.450000X0*%
%TD*%
%TA.AperFunction,SMDPad,CuDef*%
%ADD46R,2.794000X5.156200*%
%TD*%
%TA.AperFunction,SMDPad,CuDef*%
%ADD47R,1.900000X0.400000*%
%TD*%
%TA.AperFunction,SMDPad,CuDef*%
%ADD48R,2.750000X0.950000*%
%TD*%
%TA.AperFunction,SMDPad,CuDef*%
%ADD49R,2.750000X3.250000*%
%TD*%
%TA.AperFunction,SMDPad,CuDef*%
%ADD50R,0.700000X1.525000*%
%TD*%
%TA.AperFunction,SMDPad,CuDef*%
%ADD51RoundRect,0.100000X-0.315000X-0.100000X0.315000X-0.100000X0.315000X0.100000X-0.315000X0.100000X0*%
%TD*%
%TA.AperFunction,SMDPad,CuDef*%
%ADD52FreePoly0,0.000000*%
%TD*%
%TA.AperFunction,ViaPad*%
%ADD53C,0.600000*%
%TD*%
%TA.AperFunction,Conductor*%
%ADD54C,0.500000*%
%TD*%
%TA.AperFunction,Conductor*%
%ADD55C,0.200000*%
%TD*%
%TA.AperFunction,Conductor*%
%ADD56C,1.000000*%
%TD*%
%TA.AperFunction,Conductor*%
%ADD57C,2.000000*%
%TD*%
G04 APERTURE END LIST*
D10*
%TO.P,SW1,1,A*%
%TO.N,GND*%
X23260000Y-71840000D03*
X23260000Y-82000000D03*
X25800000Y-82000000D03*
%TO.P,SW1,2,B*%
%TO.N,Net-(SW1-B)*%
X23260000Y-74380000D03*
%TO.P,SW1,3,C*%
%TO.N,VDD*%
X23260000Y-76920000D03*
%TD*%
D11*
%TO.P,U3,1,GND*%
%TO.N,GND*%
X31790000Y-84482500D03*
%TO.P,U3,2,OUT*%
%TO.N,INT*%
X33695000Y-84482500D03*
%TO.P,U3,3,VCC*%
%TO.N,+5V*%
X35600000Y-84482500D03*
%TD*%
%TO.P,U2,1,K*%
%TO.N,Net-(U2-K)*%
X53330000Y-84482500D03*
%TO.P,U2,2,A*%
%TO.N,+5V*%
X55870000Y-84482500D03*
%TD*%
D12*
%TO.P,J9,1*%
%TO.N,GDT1_B*%
X28960000Y-20500000D03*
%TO.P,J9,2*%
%TO.N,GDT1_A*%
X31500000Y-20500000D03*
%TD*%
D13*
%TO.P,J1,1,1*%
%TO.N,VDD*%
X33340000Y-49400000D03*
%TO.P,J1,2,2*%
%TO.N,TMS*%
X33340000Y-50670000D03*
%TO.P,J1,3,3*%
%TO.N,GND*%
X32070000Y-49400000D03*
%TO.P,J1,4,4*%
%TO.N,TCK*%
X32070000Y-50670000D03*
%TO.P,J1,5,5*%
%TO.N,GND*%
X30800000Y-49400000D03*
%TO.P,J1,6,6*%
%TO.N,TDO*%
X30800000Y-50670000D03*
%TO.P,J1,7,7*%
%TO.N,unconnected-(J1-Pad7)*%
X29530000Y-49400000D03*
%TO.P,J1,8,8*%
%TO.N,TDI*%
X29530000Y-50670000D03*
%TO.P,J1,9,9*%
%TO.N,GND*%
X28260000Y-49400000D03*
%TO.P,J1,10,10*%
%TO.N,RST*%
X28260000Y-50670000D03*
%TD*%
D14*
%TO.P,C29,1*%
%TO.N,+12V*%
X50000000Y-42750000D03*
D15*
%TO.P,C29,2*%
%TO.N,GND*%
X50000000Y-39250000D03*
%TD*%
D12*
%TO.P,J3,1*%
%TO.N,GND*%
X22460000Y-20500000D03*
%TO.P,J3,2*%
%TO.N,+24V*%
X25000000Y-20500000D03*
%TD*%
D16*
%TO.P,J2,1,Pin_1*%
%TO.N,+24V*%
X58500000Y-19710000D03*
D17*
%TO.P,J2,2,Pin_2*%
%TO.N,I_L_IN*%
X58500000Y-22250000D03*
%TO.P,J2,3,Pin_3*%
%TO.N,GND*%
X55960000Y-19710000D03*
%TO.P,J2,4,Pin_4*%
%TO.N,Net-(J2-Pin_4)*%
X55960000Y-22250000D03*
%TO.P,J2,5,Pin_5*%
%TO.N,GND*%
X53420000Y-19710000D03*
%TO.P,J2,6,Pin_6*%
%TO.N,Net-(J2-Pin_6)*%
X53420000Y-22250000D03*
%TO.P,J2,7,Pin_7*%
%TO.N,GND*%
X50880000Y-19710000D03*
%TO.P,J2,8,Pin_8*%
%TO.N,VBUS_IN*%
X50880000Y-22250000D03*
%TO.P,J2,9,Pin_9*%
%TO.N,+5V*%
X48340000Y-19710000D03*
%TO.P,J2,10,Pin_10*%
%TO.N,VAC_IN*%
X48340000Y-22250000D03*
%TD*%
D18*
%TO.P,D11,1*%
%TO.N,+5V*%
X63804000Y-80980000D03*
D19*
%TO.P,D11,2*%
%TO.N,Net-(IC1-LED1)*%
X61264000Y-80980000D03*
%TO.P,D11,3*%
%TO.N,+5V*%
X63804000Y-78440000D03*
%TO.P,D11,4*%
%TO.N,Net-(IC1-LED2)*%
X61264000Y-78440000D03*
%TO.P,D11,5*%
%TO.N,+5V*%
X63804000Y-75900000D03*
%TO.P,D11,6*%
%TO.N,Net-(IC1-LED3)*%
X61264000Y-75900000D03*
%TD*%
D11*
%TO.P,U1,1,GND*%
%TO.N,GND*%
X42390000Y-84482500D03*
%TO.P,U1,2,OUT*%
%TO.N,USART_RX*%
X44295000Y-84482500D03*
%TO.P,U1,3,VCC*%
%TO.N,+5V*%
X46200000Y-84482500D03*
%TD*%
D14*
%TO.P,C37,1*%
%TO.N,VDD*%
X50000000Y-51000000D03*
D15*
%TO.P,C37,2*%
%TO.N,GND*%
X50000000Y-47500000D03*
%TD*%
D12*
%TO.P,J10,1*%
%TO.N,GDT2_B*%
X35235000Y-20500000D03*
%TO.P,J10,2*%
%TO.N,GDT2_A*%
X37775000Y-20500000D03*
%TD*%
D20*
%TO.P,C19,1*%
%TO.N,+24V*%
X50000000Y-34000000D03*
D21*
%TO.P,C19,2*%
%TO.N,GND*%
X50000000Y-29000000D03*
%TD*%
D22*
%TO.P,D19,A*%
%TO.N,Net-(U12-G2)*%
X43400000Y-32500000D03*
%TO.P,D19,K*%
%TO.N,+24V*%
X40250000Y-32500000D03*
%TD*%
%TO.P,D3,A*%
%TO.N,GND*%
X21175000Y-59000000D03*
%TO.P,D3,K*%
%TO.N,CT-*%
X24325000Y-59000000D03*
%TD*%
D23*
%TO.P,R21,1*%
%TO.N,GND*%
X41587500Y-73250000D03*
%TO.P,R21,2*%
%TO.N,24V_SENSE*%
X43412500Y-73250000D03*
%TD*%
D24*
%TO.P,R8,1*%
%TO.N,+5V*%
X38000000Y-79912500D03*
%TO.P,R8,2*%
%TO.N,INT*%
X38000000Y-78087500D03*
%TD*%
D25*
%TO.P,C18,1*%
%TO.N,VDD*%
X42500000Y-55137500D03*
%TO.P,C18,2*%
%TO.N,GND*%
X42500000Y-56862500D03*
%TD*%
D22*
%TO.P,D8,A*%
%TO.N,VAC_SENSE*%
X40500000Y-49750000D03*
%TO.P,D8,K*%
%TO.N,VDD*%
X37350000Y-49750000D03*
%TD*%
D26*
%TO.P,C15,1*%
%TO.N,GND*%
X45137500Y-26000000D03*
%TO.P,C15,2*%
%TO.N,VDD*%
X46862500Y-26000000D03*
%TD*%
D25*
%TO.P,C53,1*%
%TO.N,+12V*%
X35000000Y-42775000D03*
%TO.P,C53,2*%
%TO.N,GND*%
X35000000Y-44500000D03*
%TD*%
D27*
%TO.P,C16,1*%
%TO.N,THERM2*%
X38380600Y-71600000D03*
%TO.P,C16,2*%
%TO.N,GND*%
X36655600Y-71600000D03*
%TD*%
D28*
%TO.P,C55,1*%
%TO.N,Net-(IC4-OUT_B)*%
X22187500Y-37000000D03*
%TO.P,C55,2*%
%TO.N,Net-(U11-G2)*%
X25312500Y-37000000D03*
%TD*%
D22*
%TO.P,D17,A*%
%TO.N,Net-(U10-G2)*%
X31325000Y-32500000D03*
%TO.P,D17,K*%
%TO.N,+24V*%
X28175000Y-32500000D03*
%TD*%
D24*
%TO.P,R22,1*%
%TO.N,FAN_EN*%
X42250000Y-71412500D03*
%TO.P,R22,2*%
%TO.N,Net-(Q2-G)*%
X42250000Y-69587500D03*
%TD*%
D29*
%TO.P,R16,1*%
%TO.N,THERM1*%
X41000000Y-65687500D03*
%TO.P,R16,2*%
%TO.N,VREF*%
X41000000Y-67512500D03*
%TD*%
D30*
%TO.P,U7,1,VIN*%
%TO.N,+24V*%
X60650000Y-38275000D03*
%TO.P,U7,2,VOUT*%
%TO.N,Net-(D12-K)*%
X58950000Y-38275000D03*
%TO.P,U7,3,GND*%
%TO.N,GND*%
X57250000Y-38275000D03*
D31*
X54475000Y-31550000D03*
X60025000Y-31550000D03*
D32*
X57250000Y-29125000D03*
D31*
X54475000Y-26700000D03*
X60025000Y-26700000D03*
D30*
%TO.P,U7,4,FB*%
%TO.N,+12V*%
X55550000Y-38275000D03*
%TO.P,U7,5,SD*%
%TO.N,GND*%
X53850000Y-38275000D03*
%TD*%
D25*
%TO.P,C38,1*%
%TO.N,VDD*%
X49750000Y-63887500D03*
%TO.P,C38,2*%
%TO.N,GND*%
X49750000Y-65612500D03*
%TD*%
D33*
%TO.P,L4,1,1*%
%TO.N,CT-*%
X28501200Y-65000000D03*
%TO.P,L4,2,2*%
%TO.N,CT+*%
X28501200Y-68000000D03*
%TO.P,L4,3,3*%
%TO.N,Net-(J4-Pad2)*%
X21998800Y-68000000D03*
%TO.P,L4,4,4*%
%TO.N,Net-(J4-Pad1)*%
X21998800Y-65000000D03*
%TD*%
D25*
%TO.P,C22,1*%
%TO.N,+24V*%
X64000000Y-40137500D03*
%TO.P,C22,2*%
%TO.N,GND*%
X64000000Y-41862500D03*
%TD*%
D27*
%TO.P,C25,1*%
%TO.N,+24V*%
X24612500Y-18000000D03*
%TO.P,C25,2*%
%TO.N,GND*%
X22887500Y-18000000D03*
%TD*%
D34*
%TO.P,D1,A*%
%TO.N,I_L*%
X47250000Y-64825000D03*
%TO.P,D1,K*%
%TO.N,VDD*%
X47250000Y-61675000D03*
%TD*%
D23*
%TO.P,R25,1*%
%TO.N,+24V*%
X22662500Y-34750000D03*
%TO.P,R25,2*%
%TO.N,Net-(U11-G2)*%
X24487500Y-34750000D03*
%TD*%
D35*
%TO.P,U8,1,IN*%
%TO.N,+5V*%
X52100000Y-65300000D03*
%TO.P,U8,2,GND*%
%TO.N,GND*%
X52100000Y-63000000D03*
D36*
X58400000Y-63000000D03*
D35*
%TO.P,U8,3,OUT*%
%TO.N,VDD*%
X52100000Y-60700000D03*
%TD*%
D24*
%TO.P,R1,1*%
%TO.N,I_L*%
X45000000Y-62750000D03*
%TO.P,R1,2*%
%TO.N,I_L_IN*%
X45000000Y-60925000D03*
%TD*%
D37*
%TO.P,C39,1*%
%TO.N,VDD*%
X49750000Y-61862500D03*
%TO.P,C39,2*%
%TO.N,GND*%
X49750000Y-60137500D03*
%TD*%
D34*
%TO.P,D6,A*%
%TO.N,I_PRI*%
X25750000Y-52825000D03*
%TO.P,D6,K*%
%TO.N,VDD*%
X25750000Y-49675000D03*
%TD*%
D38*
%TO.P,D13,1,K*%
%TO.N,+5V*%
X62500000Y-57610740D03*
%TO.P,D13,2,A*%
%TO.N,GND*%
X62500000Y-53389260D03*
%TD*%
D22*
%TO.P,D15,A*%
%TO.N,24V_SENSE*%
X38075000Y-73500000D03*
%TO.P,D15,K*%
%TO.N,VDD*%
X34925000Y-73500000D03*
%TD*%
D39*
%TO.P,U6,1,V_{DD}*%
%TO.N,VDD*%
X46700000Y-30250000D03*
%TO.P,U6,2,V_{OUT}*%
%TO.N,Net-(U6-V_{OUT})*%
X44800000Y-30250000D03*
%TO.P,U6,3,GND*%
%TO.N,GND*%
X45750000Y-28375000D03*
%TD*%
D24*
%TO.P,R7,1*%
%TO.N,Net-(C2-Pad1)*%
X27000000Y-56662500D03*
%TO.P,R7,2*%
%TO.N,I_PRI*%
X27000000Y-54837500D03*
%TD*%
D40*
%TO.P,Q1,1,G*%
%TO.N,Net-(Q1-G)*%
X48550000Y-78625000D03*
%TO.P,Q1,2,S*%
%TO.N,GND*%
X50450000Y-78625000D03*
%TO.P,Q1,3,D*%
%TO.N,Net-(Q1-D)*%
X49500000Y-80500000D03*
%TD*%
D29*
%TO.P,R30,1*%
%TO.N,Net-(J2-Pin_6)*%
X39000000Y-52587500D03*
%TO.P,R30,2*%
%TO.N,SCR*%
X39000000Y-54412500D03*
%TD*%
D22*
%TO.P,D5,A*%
%TO.N,GND*%
X21175000Y-61500000D03*
%TO.P,D5,K*%
%TO.N,CT+*%
X24325000Y-61500000D03*
%TD*%
D41*
%TO.P,IC4,1,ENA*%
%TO.N,GDT1_DIS*%
X28520000Y-46172000D03*
%TO.P,IC4,2,INA*%
%TO.N,GDT_A*%
X27250000Y-46172000D03*
%TO.P,IC4,3,GND*%
%TO.N,GND*%
X25980000Y-46172000D03*
%TO.P,IC4,4,INB*%
%TO.N,GDT_B*%
X24710000Y-46172000D03*
%TO.P,IC4,5,OUT_B*%
%TO.N,Net-(IC4-OUT_B)*%
X24710000Y-40750000D03*
%TO.P,IC4,6,VDD*%
%TO.N,+12V*%
X25980000Y-40750000D03*
%TO.P,IC4,7,OUT_A*%
%TO.N,Net-(IC4-OUT_A)*%
X27250000Y-40750000D03*
%TO.P,IC4,8,ENB*%
%TO.N,GDT1_DIS*%
X28520000Y-40750000D03*
%TD*%
D26*
%TO.P,C14,1*%
%TO.N,VDDA*%
X36655600Y-68000000D03*
%TO.P,C14,2*%
%TO.N,GND*%
X38380600Y-68000000D03*
%TD*%
%TO.P,C1,1*%
%TO.N,+5V*%
X48637500Y-84750000D03*
%TO.P,C1,2*%
%TO.N,GND*%
X50362500Y-84750000D03*
%TD*%
D22*
%TO.P,D20,A*%
%TO.N,Net-(U13-G2)*%
X37325000Y-32500000D03*
%TO.P,D20,K*%
%TO.N,+24V*%
X34175000Y-32500000D03*
%TD*%
D26*
%TO.P,C44,1*%
%TO.N,VDDA*%
X36637500Y-66250000D03*
%TO.P,C44,2*%
%TO.N,GND*%
X38362500Y-66250000D03*
%TD*%
D37*
%TO.P,C10,1*%
%TO.N,GND*%
X34750000Y-65612500D03*
%TO.P,C10,2*%
%TO.N,VREF*%
X34750000Y-63887500D03*
%TD*%
D25*
%TO.P,C20,1*%
%TO.N,+12V*%
X49750000Y-52387500D03*
%TO.P,C20,2*%
%TO.N,GND*%
X49750000Y-54112500D03*
%TD*%
%TO.P,C34,1*%
%TO.N,+5V*%
X49750000Y-56387500D03*
%TO.P,C34,2*%
%TO.N,GND*%
X49750000Y-58112500D03*
%TD*%
D42*
%TO.P,R3,1*%
%TO.N,Net-(U2-K)*%
X50412500Y-82750000D03*
%TO.P,R3,2*%
%TO.N,Net-(Q1-D)*%
X48587500Y-82750000D03*
%TD*%
D37*
%TO.P,C9,1*%
%TO.N,GND*%
X33000000Y-65612500D03*
%TO.P,C9,2*%
%TO.N,VREF*%
X33000000Y-63887500D03*
%TD*%
D38*
%TO.P,D14,1,K*%
%TO.N,VDD*%
X62500000Y-65110740D03*
%TO.P,D14,2,A*%
%TO.N,GND*%
X62500000Y-60889260D03*
%TD*%
D41*
%TO.P,IC5,1,ENA*%
%TO.N,GDT2_DIS*%
X40580000Y-46172000D03*
%TO.P,IC5,2,INA*%
%TO.N,GDT_A*%
X39310000Y-46172000D03*
%TO.P,IC5,3,GND*%
%TO.N,GND*%
X38040000Y-46172000D03*
%TO.P,IC5,4,INB*%
%TO.N,GDT_B*%
X36770000Y-46172000D03*
%TO.P,IC5,5,OUT_B*%
%TO.N,Net-(IC5-OUT_B)*%
X36770000Y-40750000D03*
%TO.P,IC5,6,VDD*%
%TO.N,+12V*%
X38040000Y-40750000D03*
%TO.P,IC5,7,OUT_A*%
%TO.N,Net-(IC5-OUT_A)*%
X39310000Y-40750000D03*
%TO.P,IC5,8,ENB*%
%TO.N,GDT2_DIS*%
X40580000Y-40750000D03*
%TD*%
D26*
%TO.P,C21,1*%
%TO.N,VDD*%
X40137500Y-63750000D03*
%TO.P,C21,2*%
%TO.N,GND*%
X41862500Y-63750000D03*
%TD*%
D37*
%TO.P,C35,1*%
%TO.N,+5V*%
X47750000Y-54112500D03*
%TO.P,C35,2*%
%TO.N,GND*%
X47750000Y-52387500D03*
%TD*%
D25*
%TO.P,C3,1*%
%TO.N,I_L*%
X45000000Y-64387500D03*
%TO.P,C3,2*%
%TO.N,GND*%
X45000000Y-66112500D03*
%TD*%
D26*
%TO.P,C46,1*%
%TO.N,VDDA*%
X36637500Y-64530400D03*
%TO.P,C46,2*%
%TO.N,GND*%
X38362500Y-64530400D03*
%TD*%
D29*
%TO.P,R23,1*%
%TO.N,Net-(J2-Pin_4)*%
X40500000Y-56337500D03*
%TO.P,R23,2*%
%TO.N,PFC*%
X40500000Y-58162500D03*
%TD*%
D27*
%TO.P,C41,1*%
%TO.N,24V_SENSE*%
X43362500Y-75000000D03*
%TO.P,C41,2*%
%TO.N,GND*%
X41637500Y-75000000D03*
%TD*%
D24*
%TO.P,R5,1*%
%TO.N,Net-(SW1-B)*%
X26000000Y-73912500D03*
%TO.P,R5,2*%
%TO.N,MODE_IN*%
X26000000Y-72087500D03*
%TD*%
D29*
%TO.P,R18,1*%
%TO.N,Net-(Q2-G)*%
X44000000Y-69587500D03*
%TO.P,R18,2*%
%TO.N,GND*%
X44000000Y-71412500D03*
%TD*%
D25*
%TO.P,C27,1*%
%TO.N,GND*%
X64000000Y-36637500D03*
%TO.P,C27,2*%
%TO.N,+24V*%
X64000000Y-38362500D03*
%TD*%
D43*
%TO.P,R6,1*%
%TO.N,Net-(C2-Pad1)*%
X22250000Y-56550000D03*
%TO.P,R6,2*%
%TO.N,GND*%
X22250000Y-50450000D03*
%TD*%
D44*
%TO.P,L2,1,1*%
%TO.N,VDD*%
X33275000Y-67750000D03*
%TO.P,L2,2,2*%
%TO.N,VDDA*%
X34725000Y-67750000D03*
%TD*%
D25*
%TO.P,C36,1*%
%TO.N,+5V*%
X47750000Y-56387500D03*
%TO.P,C36,2*%
%TO.N,GND*%
X47750000Y-58112500D03*
%TD*%
D42*
%TO.P,R20,1*%
%TO.N,+24V*%
X46912500Y-73250000D03*
%TO.P,R20,2*%
%TO.N,24V_SENSE*%
X45087500Y-73250000D03*
%TD*%
D28*
%TO.P,C57,1*%
%TO.N,Net-(IC5-OUT_B)*%
X34187500Y-37000000D03*
%TO.P,C57,2*%
%TO.N,Net-(U13-G2)*%
X37312500Y-37000000D03*
%TD*%
D25*
%TO.P,C28,1*%
%TO.N,+12V*%
X50000000Y-44387500D03*
%TO.P,C28,2*%
%TO.N,GND*%
X50000000Y-46112500D03*
%TD*%
D23*
%TO.P,R19,1*%
%TO.N,USART_TX*%
X45087500Y-75000000D03*
%TO.P,R19,2*%
%TO.N,Net-(Q1-G)*%
X46912500Y-75000000D03*
%TD*%
D25*
%TO.P,C4,1*%
%TO.N,+5V*%
X39000000Y-81887500D03*
%TO.P,C4,2*%
%TO.N,GND*%
X39000000Y-83612500D03*
%TD*%
D23*
%TO.P,R26,1*%
%TO.N,+24V*%
X40587500Y-34750000D03*
%TO.P,R26,2*%
%TO.N,Net-(U12-G2)*%
X42412500Y-34750000D03*
%TD*%
%TO.P,R24,1*%
%TO.N,+24V*%
X28587500Y-34750000D03*
%TO.P,R24,2*%
%TO.N,Net-(U10-G2)*%
X30412500Y-34750000D03*
%TD*%
D22*
%TO.P,D2,A*%
%TO.N,CT-*%
X26425000Y-59000000D03*
%TO.P,D2,K*%
%TO.N,Net-(C2-Pad1)*%
X29575000Y-59000000D03*
%TD*%
D37*
%TO.P,C7,1*%
%TO.N,CT-*%
X31250000Y-65612500D03*
%TO.P,C7,2*%
%TO.N,GND*%
X31250000Y-63887500D03*
%TD*%
D42*
%TO.P,R13,1*%
%TO.N,GND*%
X64162500Y-70750000D03*
%TO.P,R13,2*%
%TO.N,Net-(IC1-RSET2)*%
X62337500Y-70750000D03*
%TD*%
%TO.P,R14,1*%
%TO.N,GND*%
X64162500Y-68000000D03*
%TO.P,R14,2*%
%TO.N,Net-(IC1-RSET1)*%
X62337500Y-68000000D03*
%TD*%
D26*
%TO.P,C24,1*%
%TO.N,THERM_BOARD*%
X40137500Y-62000000D03*
%TO.P,C24,2*%
%TO.N,GND*%
X41862500Y-62000000D03*
%TD*%
D28*
%TO.P,C54,1*%
%TO.N,Net-(IC4-OUT_A)*%
X28187500Y-37000000D03*
%TO.P,C54,2*%
%TO.N,Net-(U10-G2)*%
X31312500Y-37000000D03*
%TD*%
D23*
%TO.P,R17,1*%
%TO.N,Net-(U6-V_{OUT})*%
X45337500Y-32750000D03*
%TO.P,R17,2*%
%TO.N,THERM_BOARD*%
X47162500Y-32750000D03*
%TD*%
D34*
%TO.P,D9,A*%
%TO.N,VBUS_SENSE*%
X47500000Y-50575000D03*
%TO.P,D9,K*%
%TO.N,VDD*%
X47500000Y-47425000D03*
%TD*%
D42*
%TO.P,R12,1*%
%TO.N,GND*%
X64162500Y-73500000D03*
%TO.P,R12,2*%
%TO.N,Net-(IC1-RSET3)*%
X62337500Y-73500000D03*
%TD*%
D45*
%TO.P,D12,1,K*%
%TO.N,Net-(D12-K)*%
X63500000Y-48450000D03*
%TO.P,D12,2,A*%
%TO.N,GND*%
X63500000Y-44050000D03*
%TD*%
D37*
%TO.P,C2,1*%
%TO.N,Net-(C2-Pad1)*%
X25250000Y-56612500D03*
%TO.P,C2,2*%
%TO.N,GND*%
X25250000Y-54887500D03*
%TD*%
D26*
%TO.P,C17,1*%
%TO.N,GND*%
X36655600Y-69800000D03*
%TO.P,C17,2*%
%TO.N,THERM1*%
X38380600Y-69800000D03*
%TD*%
D22*
%TO.P,D18,A*%
%TO.N,Net-(U11-G2)*%
X25325000Y-32500000D03*
%TO.P,D18,K*%
%TO.N,+24V*%
X22175000Y-32500000D03*
%TD*%
D23*
%TO.P,R27,1*%
%TO.N,+24V*%
X34587500Y-34750000D03*
%TO.P,R27,2*%
%TO.N,Net-(U13-G2)*%
X36412500Y-34750000D03*
%TD*%
D25*
%TO.P,C12,1*%
%TO.N,VAC_SENSE*%
X42500000Y-51637500D03*
%TO.P,C12,2*%
%TO.N,GND*%
X42500000Y-53362500D03*
%TD*%
D46*
%TO.P,L1,1,1*%
%TO.N,Net-(D12-K)*%
X59802000Y-46250000D03*
%TO.P,L1,2,2*%
%TO.N,+12V*%
X53198000Y-46250000D03*
%TD*%
D29*
%TO.P,R11,1*%
%TO.N,VBUS_IN*%
X45000000Y-51587500D03*
%TO.P,R11,2*%
%TO.N,VBUS_SENSE*%
X45000000Y-53412500D03*
%TD*%
D25*
%TO.P,C6,1*%
%TO.N,MODE_IN*%
X28000000Y-72137500D03*
%TO.P,C6,2*%
%TO.N,GND*%
X28000000Y-73862500D03*
%TD*%
D23*
%TO.P,R2,1*%
%TO.N,Net-(Q1-G)*%
X48587500Y-76250000D03*
%TO.P,R2,2*%
%TO.N,GND*%
X50412500Y-76250000D03*
%TD*%
D47*
%TO.P,U4,1,INPUT*%
%TO.N,Net-(U4-INPUT)*%
X36175000Y-58950000D03*
%TO.P,U4,2,GND*%
%TO.N,GND*%
X36175000Y-57750000D03*
%TO.P,U4,3,OUTPUT*%
%TO.N,Net-(U4-OUTPUT)*%
X36175000Y-56550000D03*
%TD*%
D24*
%TO.P,R9,1*%
%TO.N,VAC_SENSE*%
X42500000Y-49912500D03*
%TO.P,R9,2*%
%TO.N,VAC_IN*%
X42500000Y-48087500D03*
%TD*%
D28*
%TO.P,C56,1*%
%TO.N,Net-(IC5-OUT_A)*%
X40187500Y-37000000D03*
%TO.P,C56,2*%
%TO.N,Net-(U12-G2)*%
X43312500Y-37000000D03*
%TD*%
D48*
%TO.P,IC2,1,GND*%
%TO.N,GND*%
X52800000Y-57800000D03*
%TO.P,IC2,2,VOUT_1*%
%TO.N,+5V*%
X52800000Y-55500000D03*
%TO.P,IC2,3,VIN*%
%TO.N,+12V*%
X52800000Y-53200000D03*
D49*
%TO.P,IC2,4,VOUT_2*%
%TO.N,+5V*%
X58000000Y-55500000D03*
%TD*%
D25*
%TO.P,C11,1*%
%TO.N,VBUS_SENSE*%
X45000000Y-55137500D03*
%TO.P,C11,2*%
%TO.N,GND*%
X45000000Y-56862500D03*
%TD*%
D24*
%TO.P,R15,1*%
%TO.N,VREF*%
X42800000Y-67512500D03*
%TO.P,R15,2*%
%TO.N,THERM2*%
X42800000Y-65687500D03*
%TD*%
D37*
%TO.P,C8,1*%
%TO.N,I_PRI*%
X28750000Y-56612500D03*
%TO.P,C8,2*%
%TO.N,GND*%
X28750000Y-54887500D03*
%TD*%
D25*
%TO.P,C5,1*%
%TO.N,CT+*%
X31250000Y-67387500D03*
%TO.P,C5,2*%
%TO.N,GND*%
X31250000Y-69112500D03*
%TD*%
%TO.P,C52,1*%
%TO.N,+12V*%
X30270000Y-42637500D03*
%TO.P,C52,2*%
%TO.N,GND*%
X30270000Y-44362500D03*
%TD*%
D50*
%TO.P,IC1,1,PGND*%
%TO.N,GND*%
X51650000Y-68000000D03*
%TO.P,IC1,2,GND*%
X52920000Y-68000000D03*
%TO.P,IC1,3,PWM3*%
%TO.N,LED_VBUS*%
X54190000Y-68000000D03*
%TO.P,IC1,4,PWM2*%
%TO.N,LED_TMP*%
X55460000Y-68000000D03*
%TO.P,IC1,5,PWM1*%
%TO.N,LED_I_IN*%
X56730000Y-68000000D03*
%TO.P,IC1,6,RSET3*%
%TO.N,Net-(IC1-RSET3)*%
X58000000Y-68000000D03*
%TO.P,IC1,7,RSET2*%
%TO.N,Net-(IC1-RSET2)*%
X59270000Y-68000000D03*
%TO.P,IC1,8,RSET1*%
%TO.N,Net-(IC1-RSET1)*%
X60540000Y-68000000D03*
%TO.P,IC1,9,LED3*%
%TO.N,Net-(IC1-LED3)*%
X60540000Y-73424000D03*
%TO.P,IC1,10,LED2*%
%TO.N,Net-(IC1-LED2)*%
X59270000Y-73424000D03*
%TO.P,IC1,11,LED1*%
%TO.N,Net-(IC1-LED1)*%
X58000000Y-73424000D03*
%TO.P,IC1,12,NC_1*%
%TO.N,unconnected-(IC1-NC_1-Pad12)*%
X56730000Y-73424000D03*
%TO.P,IC1,13,NC_2*%
%TO.N,unconnected-(IC1-NC_2-Pad13)*%
X55460000Y-73424000D03*
%TO.P,IC1,14,NC_3*%
%TO.N,unconnected-(IC1-NC_3-Pad14)*%
X54190000Y-73424000D03*
%TO.P,IC1,15,OE*%
%TO.N,VDD*%
X52920000Y-73424000D03*
%TO.P,IC1,16,VDD*%
X51650000Y-73424000D03*
%TD*%
D51*
%TO.P,Q2,1,S*%
%TO.N,GND*%
X46250000Y-71550000D03*
%TO.P,Q2,2,S*%
X46250000Y-70900000D03*
%TO.P,Q2,3,S*%
X46250000Y-70250000D03*
%TO.P,Q2,4,G*%
%TO.N,Net-(Q2-G)*%
X46250000Y-69600000D03*
D52*
%TO.P,Q2,5,D*%
%TO.N,Net-(Q2-D)*%
X48190000Y-70575000D03*
%TD*%
D25*
%TO.P,C26,1*%
%TO.N,VDD*%
X31750000Y-54137500D03*
%TO.P,C26,2*%
%TO.N,GND*%
X31750000Y-55862500D03*
%TD*%
D22*
%TO.P,D4,A*%
%TO.N,CT+*%
X26425000Y-61500000D03*
%TO.P,D4,K*%
%TO.N,Net-(C2-Pad1)*%
X29575000Y-61500000D03*
%TD*%
D24*
%TO.P,R4,1*%
%TO.N,+5V*%
X40000000Y-79912500D03*
%TO.P,R4,2*%
%TO.N,USART_RX*%
X40000000Y-78087500D03*
%TD*%
D53*
%TO.N,GND*%
X41500000Y-56000000D03*
X67500000Y-64500000D03*
X18000000Y-17000000D03*
X67500000Y-67000000D03*
X44750000Y-70750000D03*
X44750000Y-71412500D03*
X67500000Y-84500000D03*
X67500000Y-44500000D03*
X48681250Y-53318750D03*
X18000000Y-29500000D03*
X41500000Y-53250000D03*
X18000000Y-27000000D03*
X67500000Y-27000000D03*
X18000000Y-69500000D03*
X67500000Y-59500000D03*
X60560000Y-50000000D03*
X18000000Y-67000000D03*
X67500000Y-17000000D03*
X41637500Y-74000000D03*
X32750000Y-44362500D03*
X67500000Y-74500000D03*
X37400000Y-70600000D03*
X53750000Y-57000000D03*
X67500000Y-22000000D03*
X67500000Y-19500000D03*
X18000000Y-32000000D03*
X48750000Y-58000000D03*
X35750000Y-65500000D03*
X30000000Y-63500000D03*
X18000000Y-74500000D03*
X45500000Y-27000000D03*
X67500000Y-37000000D03*
X67500000Y-24500000D03*
X27750000Y-38750000D03*
X45500000Y-71412500D03*
X67500000Y-32000000D03*
X18000000Y-59500000D03*
X33000000Y-56000000D03*
X38250000Y-63500000D03*
X18000000Y-52000000D03*
X18000000Y-57000000D03*
X18000000Y-84500000D03*
X18000000Y-24500000D03*
X67500000Y-87000000D03*
X67500000Y-47000000D03*
X53500000Y-63000000D03*
X18000000Y-54500000D03*
X18000000Y-22000000D03*
X18000000Y-87000000D03*
X33750000Y-55250000D03*
X18000000Y-19500000D03*
X67500000Y-57000000D03*
X18000000Y-72000000D03*
X50750000Y-60000000D03*
X67500000Y-79500000D03*
X45500000Y-70750000D03*
X52250000Y-68000000D03*
X18000000Y-79500000D03*
X18000000Y-82000000D03*
X67500000Y-29500000D03*
X38400000Y-67200000D03*
X67500000Y-42000000D03*
X39750000Y-38750000D03*
X46000000Y-66250000D03*
X67500000Y-39500000D03*
X30000000Y-69500000D03*
X49750000Y-66750000D03*
X67500000Y-52000000D03*
X37382500Y-44362500D03*
X18000000Y-42000000D03*
X67500000Y-62000000D03*
X42000000Y-64750000D03*
X51500000Y-84750000D03*
X67500000Y-72000000D03*
X50500000Y-79750000D03*
X67500000Y-69500000D03*
X18000000Y-37000000D03*
X36250000Y-61250000D03*
X39000000Y-84750000D03*
X18000000Y-44500000D03*
X33750000Y-38750000D03*
X18000000Y-49500000D03*
X67500000Y-77000000D03*
X18000000Y-47000000D03*
X67500000Y-49500000D03*
X21750000Y-38750000D03*
X28760000Y-54000000D03*
X67500000Y-82000000D03*
X18000000Y-62000000D03*
X28000000Y-75000000D03*
X67500000Y-34500000D03*
X26020000Y-45000000D03*
X18000000Y-39500000D03*
X18000000Y-77000000D03*
X34750000Y-57750000D03*
X18000000Y-34500000D03*
X18000000Y-64500000D03*
X67500000Y-54500000D03*
%TO.N,+5V*%
X64250000Y-57500000D03*
%TO.N,VDD*%
X35000000Y-75000000D03*
X53500000Y-60750000D03*
X25750000Y-50500000D03*
X47250000Y-63250000D03*
X35750000Y-66750000D03*
X51000000Y-73250000D03*
X32500000Y-54750000D03*
X39000000Y-63500000D03*
X41500000Y-55250000D03*
X62750000Y-66500000D03*
%TO.N,USART_RX*%
X39000000Y-78250000D03*
%TO.N,INT*%
X39000000Y-77500000D03*
%TO.N,I_L*%
X45000000Y-62000000D03*
X39000000Y-59250000D03*
%TO.N,CT+*%
X26425000Y-63000000D03*
%TO.N,MODE_IN*%
X33750000Y-61000000D03*
%TO.N,CT-*%
X28000000Y-63000000D03*
%TO.N,I_PRI*%
X29250000Y-57500000D03*
%TO.N,VREF*%
X36000000Y-63500000D03*
X39300000Y-66021001D03*
%TO.N,VBUS_SENSE*%
X39000000Y-58500000D03*
X44000000Y-57750000D03*
%TO.N,VAC_SENSE*%
X42375000Y-60875000D03*
%TO.N,VDDA*%
X37000000Y-63500000D03*
%TO.N,THERM2*%
X41500000Y-68900000D03*
X43056250Y-66549143D03*
X33000000Y-59500000D03*
%TO.N,THERM1*%
X33000000Y-60250000D03*
X41400000Y-66600000D03*
X40900000Y-68500000D03*
%TO.N,+24V*%
X61750000Y-40000000D03*
X36250000Y-38750000D03*
X42250000Y-38750000D03*
X24250000Y-38750000D03*
X57000000Y-75000000D03*
X30250000Y-38750000D03*
X61750000Y-38250000D03*
X61750000Y-39250000D03*
%TO.N,+12V*%
X37625000Y-41875000D03*
X55500000Y-34750000D03*
X55500000Y-35500000D03*
%TO.N,THERM_BOARD*%
X39000000Y-60400000D03*
%TO.N,Net-(Q2-D)*%
X50250000Y-70250000D03*
X50250000Y-71000000D03*
X50250000Y-71750000D03*
X50250000Y-69500000D03*
%TO.N,24V_SENSE*%
X38150000Y-72650000D03*
%TO.N,Net-(U10-G2)*%
X31500000Y-38750000D03*
%TO.N,Net-(IC4-OUT_A)*%
X29000000Y-38750000D03*
%TO.N,Net-(IC4-OUT_B)*%
X23000000Y-38750000D03*
%TO.N,Net-(U11-G2)*%
X25500000Y-38750000D03*
%TO.N,Net-(U12-G2)*%
X43500000Y-38750000D03*
%TO.N,Net-(IC5-OUT_A)*%
X41000000Y-38750000D03*
%TO.N,Net-(IC5-OUT_B)*%
X35000000Y-38750000D03*
%TO.N,Net-(U13-G2)*%
X37500000Y-38750000D03*
%TO.N,Net-(U10-D1)*%
X28750000Y-31000000D03*
X31750000Y-31000000D03*
X29750000Y-31000000D03*
X30250000Y-30250000D03*
X28250000Y-30250000D03*
X27250000Y-30250000D03*
X27750000Y-31000000D03*
X31250000Y-30250000D03*
X29250000Y-30250000D03*
X30750000Y-31000000D03*
%TO.N,Net-(U12-D1)*%
X43750000Y-31000000D03*
X39250000Y-30250000D03*
X39750000Y-31000000D03*
X41250000Y-30250000D03*
X40250000Y-30250000D03*
X42750000Y-31000000D03*
X43250000Y-30250000D03*
X40750000Y-31000000D03*
X41750000Y-31000000D03*
X42250000Y-30250000D03*
%TO.N,LED_TMP*%
X53250000Y-72250000D03*
%TO.N,LED_VBUS*%
X52500000Y-72250000D03*
%TO.N,LED_I_IN*%
X54000000Y-72250000D03*
%TO.N,GDT1_DIS*%
X28520000Y-42000000D03*
X28520000Y-45000000D03*
%TO.N,GDT_A*%
X27250000Y-47250000D03*
X39250000Y-47250000D03*
X32500000Y-46750000D03*
%TO.N,GDT_B*%
X36750000Y-47250000D03*
X24750000Y-47250000D03*
%TO.N,GDT2_DIS*%
X40520000Y-45000000D03*
X40580000Y-42000000D03*
%TO.N,TDO*%
X36800000Y-52800000D03*
%TO.N,TCK*%
X38000000Y-52000000D03*
%TO.N,TDI*%
X37400000Y-52400000D03*
%TO.N,TMS*%
X38600000Y-51600000D03*
%TO.N,VBUS_IN*%
X46500000Y-42750000D03*
%TO.N,I_L_IN*%
X45750000Y-60750000D03*
%TO.N,VAC_IN*%
X42500000Y-47000000D03*
%TO.N,PFC*%
X41750000Y-57912500D03*
%TO.N,SCR*%
X36500000Y-60250000D03*
%TO.N,GDT1_B*%
X22250000Y-30250000D03*
X24250000Y-30250000D03*
X21250000Y-30250000D03*
X23750000Y-31000000D03*
X21750000Y-31000000D03*
X24750000Y-31000000D03*
X22750000Y-31000000D03*
X23250000Y-30250000D03*
X25250000Y-30250000D03*
X25750000Y-31000000D03*
%TO.N,GDT2_B*%
X37250000Y-30250000D03*
X35750000Y-31000000D03*
X34750000Y-31000000D03*
X36750000Y-31000000D03*
X33250000Y-30250000D03*
X34250000Y-30250000D03*
X36250000Y-30250000D03*
X37750000Y-31000000D03*
X33750000Y-31000000D03*
X35250000Y-30250000D03*
%TO.N,USART_TX*%
X44500000Y-74250000D03*
%TO.N,Net-(U4-INPUT)*%
X34750000Y-58500000D03*
%TO.N,Net-(U4-OUTPUT)*%
X34750000Y-57000000D03*
%TO.N,FAN_EN*%
X41400000Y-71400000D03*
%TO.N,Net-(J4-Pad1)*%
X22000000Y-63500000D03*
%TO.N,Net-(J4-Pad2)*%
X22250000Y-66500000D03*
%TO.N,FAN_PWM*%
X53800000Y-59600000D03*
X46500000Y-58912500D03*
%TO.N,Net-(J2-Pin_6)*%
X39250000Y-51250000D03*
%TO.N,Net-(J2-Pin_4)*%
X40500000Y-54500000D03*
%TD*%
D54*
%TO.N,GND*%
X67362500Y-41862500D02*
X67500000Y-42000000D01*
D55*
X35750000Y-65500000D02*
X34862500Y-65500000D01*
D56*
X62500000Y-60889260D02*
X66389260Y-60889260D01*
D55*
X41637500Y-73300000D02*
X41587500Y-73250000D01*
D54*
X46100000Y-70750000D02*
X46250000Y-70900000D01*
D55*
X41637500Y-74000000D02*
X41637500Y-73300000D01*
X38362500Y-64530400D02*
X38362500Y-63612500D01*
X30000000Y-69500000D02*
X30862500Y-69500000D01*
D54*
X49750000Y-54112500D02*
X49475000Y-54112500D01*
X45500000Y-71412500D02*
X45500000Y-70750000D01*
D55*
X38040000Y-46695000D02*
X38040000Y-46172000D01*
D56*
X53850000Y-38275000D02*
X53850000Y-32175000D01*
D54*
X25250000Y-54887500D02*
X18387500Y-54887500D01*
X64000000Y-36637500D02*
X67137500Y-36637500D01*
X50450000Y-78625000D02*
X50450000Y-77250000D01*
D55*
X38362500Y-63612500D02*
X38250000Y-63500000D01*
D54*
X18387500Y-54887500D02*
X18000000Y-54500000D01*
X45500000Y-70750000D02*
X44750000Y-70750000D01*
X50450000Y-76100000D02*
X50412500Y-76062500D01*
D55*
X45750000Y-28375000D02*
X45500000Y-28125000D01*
D54*
X44750000Y-71412500D02*
X44750000Y-70750000D01*
D55*
X33000000Y-65612500D02*
X34750000Y-65612500D01*
X45137500Y-26887500D02*
X45137500Y-26500000D01*
X25975000Y-81825000D02*
X25800000Y-82000000D01*
D54*
X64162500Y-70750000D02*
X66000000Y-70750000D01*
X51650000Y-68000000D02*
X52250000Y-68000000D01*
X48862500Y-58112500D02*
X48750000Y-58000000D01*
D55*
X36655600Y-70600000D02*
X36655600Y-71600000D01*
D56*
X60389260Y-63000000D02*
X62500000Y-60889260D01*
D54*
X44750000Y-71412500D02*
X45500000Y-71412500D01*
D56*
X67050000Y-44050000D02*
X67500000Y-44500000D01*
D54*
X45500000Y-70750000D02*
X46100000Y-70750000D01*
X64000000Y-41862500D02*
X67362500Y-41862500D01*
X50362500Y-84750000D02*
X51500000Y-84750000D01*
X38040000Y-45020000D02*
X38040000Y-46172000D01*
D55*
X46500000Y-56862500D02*
X47750000Y-58112500D01*
X30270000Y-44362500D02*
X32750000Y-44362500D01*
X22750000Y-81490000D02*
X23260000Y-82000000D01*
D56*
X66389260Y-53389260D02*
X67500000Y-54500000D01*
D55*
X30862500Y-69500000D02*
X31250000Y-69112500D01*
D56*
X50000000Y-47500000D02*
X50000000Y-46112500D01*
D54*
X52250000Y-68000000D02*
X52920000Y-68000000D01*
X64162500Y-73500000D02*
X67000000Y-73500000D01*
D55*
X45862500Y-66112500D02*
X46000000Y-66250000D01*
D54*
X49750000Y-60137500D02*
X50612500Y-60137500D01*
X22887500Y-20927500D02*
X22460000Y-20500000D01*
X67137500Y-36637500D02*
X67500000Y-37000000D01*
X48681250Y-53318750D02*
X47750000Y-52387500D01*
D56*
X53850000Y-32175000D02*
X54475000Y-31550000D01*
D55*
X31750000Y-55862500D02*
X32862500Y-55862500D01*
D56*
X63500000Y-44050000D02*
X67050000Y-44050000D01*
D54*
X18037500Y-86962500D02*
X18000000Y-87000000D01*
X44000000Y-71412500D02*
X44750000Y-71412500D01*
X50450000Y-79700000D02*
X50500000Y-79750000D01*
D55*
X45000000Y-66112500D02*
X45862500Y-66112500D01*
X45137500Y-26500000D02*
X45387500Y-26250000D01*
X41637500Y-75000000D02*
X41637500Y-74000000D01*
X38380600Y-68000000D02*
X38380600Y-66268100D01*
X42362500Y-56862500D02*
X41500000Y-56000000D01*
X30000000Y-63500000D02*
X30862500Y-63500000D01*
X36175000Y-57750000D02*
X34750000Y-57750000D01*
D56*
X52100000Y-63000000D02*
X53500000Y-63000000D01*
D55*
X39000000Y-84750000D02*
X39000000Y-83612500D01*
X42387500Y-53250000D02*
X42500000Y-53362500D01*
X38380600Y-66268100D02*
X38362500Y-66250000D01*
X45500000Y-27250000D02*
X45137500Y-26887500D01*
D54*
X49750000Y-65612500D02*
X49750000Y-66750000D01*
D56*
X66389260Y-60889260D02*
X67500000Y-62000000D01*
D55*
X36655600Y-69800000D02*
X36655600Y-70600000D01*
X38380600Y-64548500D02*
X38362500Y-64530400D01*
X32862500Y-55862500D02*
X33000000Y-56000000D01*
X42500000Y-56862500D02*
X42362500Y-56862500D01*
X41862500Y-63750000D02*
X41862500Y-62000000D01*
D56*
X18950000Y-50450000D02*
X18000000Y-49500000D01*
D55*
X37382500Y-44362500D02*
X35020000Y-44362500D01*
D54*
X50612500Y-60137500D02*
X50750000Y-60000000D01*
D55*
X42000000Y-63887500D02*
X41862500Y-63750000D01*
D54*
X46112500Y-71412500D02*
X46250000Y-71550000D01*
D55*
X26250000Y-81550000D02*
X25800000Y-82000000D01*
D56*
X52950000Y-57800000D02*
X53750000Y-57000000D01*
D55*
X41500000Y-53250000D02*
X42387500Y-53250000D01*
D54*
X50450000Y-77250000D02*
X50450000Y-76100000D01*
D55*
X42000000Y-64750000D02*
X42000000Y-63887500D01*
X34862500Y-65500000D02*
X34750000Y-65612500D01*
X67412500Y-72087500D02*
X67500000Y-72000000D01*
X28760000Y-54877500D02*
X28750000Y-54887500D01*
D54*
X49750000Y-58112500D02*
X48862500Y-58112500D01*
D55*
X32750000Y-44362500D02*
X35020000Y-44362500D01*
X28760000Y-54000000D02*
X28760000Y-54877500D01*
D56*
X21175000Y-59000000D02*
X19750000Y-59000000D01*
D54*
X49475000Y-54112500D02*
X48681250Y-53318750D01*
D56*
X58400000Y-63000000D02*
X60389260Y-63000000D01*
D55*
X37400000Y-70600000D02*
X36655600Y-70600000D01*
D54*
X22887500Y-20072500D02*
X22460000Y-20500000D01*
D55*
X28000000Y-73862500D02*
X28000000Y-75000000D01*
D54*
X64162500Y-68000000D02*
X66000000Y-68000000D01*
D56*
X22250000Y-50450000D02*
X18950000Y-50450000D01*
D54*
X37382500Y-44362500D02*
X38040000Y-45020000D01*
D56*
X62500000Y-53389260D02*
X66389260Y-53389260D01*
X57250000Y-38275000D02*
X57250000Y-34325000D01*
D54*
X25980000Y-46172000D02*
X25980000Y-45040000D01*
X48750000Y-58000000D02*
X48637500Y-58112500D01*
D55*
X45500000Y-28125000D02*
X45500000Y-27250000D01*
X45000000Y-56862500D02*
X46500000Y-56862500D01*
D54*
X25980000Y-45040000D02*
X26020000Y-45000000D01*
X50450000Y-78625000D02*
X50450000Y-79700000D01*
D56*
X57250000Y-34325000D02*
X54475000Y-31550000D01*
D55*
X38020000Y-46192000D02*
X38040000Y-46172000D01*
D54*
X48637500Y-58112500D02*
X47750000Y-58112500D01*
D55*
X30862500Y-63500000D02*
X31250000Y-63887500D01*
D54*
X22887500Y-18000000D02*
X22887500Y-20072500D01*
D56*
X21175000Y-61500000D02*
X19250000Y-61500000D01*
D54*
X46250000Y-71550000D02*
X46250000Y-70250000D01*
X45500000Y-71412500D02*
X46112500Y-71412500D01*
D56*
%TO.N,+5V*%
X62500000Y-57610740D02*
X64139260Y-57610740D01*
X55250000Y-55500000D02*
X58000000Y-55500000D01*
X55250000Y-63150000D02*
X55250000Y-55500000D01*
D54*
X46200000Y-84482500D02*
X46467500Y-84750000D01*
D56*
X64139260Y-57610740D02*
X64250000Y-57500000D01*
X52800000Y-55500000D02*
X55250000Y-55500000D01*
D54*
X35600000Y-84482500D02*
X36405000Y-84482500D01*
D56*
X58000000Y-55500000D02*
X60389260Y-55500000D01*
D54*
X36405000Y-84482500D02*
X39000000Y-81887500D01*
D56*
X53100000Y-65300000D02*
X55250000Y-63150000D01*
D54*
X50637500Y-55500000D02*
X52800000Y-55500000D01*
X38000000Y-79912500D02*
X39000000Y-79912500D01*
X39000000Y-79912500D02*
X40000000Y-79912500D01*
X39000000Y-81887500D02*
X39000000Y-79912500D01*
X46467500Y-84750000D02*
X48637500Y-84750000D01*
X47750000Y-56387500D02*
X49750000Y-56387500D01*
D56*
X52100000Y-65300000D02*
X53100000Y-65300000D01*
D54*
X49750000Y-56387500D02*
X50637500Y-55500000D01*
D56*
X60389260Y-55500000D02*
X62500000Y-57610740D01*
D54*
X47750000Y-54112500D02*
X47750000Y-56387500D01*
D55*
%TO.N,VDD*%
X47250000Y-26250000D02*
X47400000Y-26400000D01*
D56*
X50225000Y-61862500D02*
X49750000Y-61862500D01*
D54*
X51174000Y-73424000D02*
X51000000Y-73250000D01*
D55*
X32362500Y-54750000D02*
X31750000Y-54137500D01*
X49000000Y-47250000D02*
X49000000Y-47500000D01*
D56*
X52100000Y-60700000D02*
X51387500Y-60700000D01*
D55*
X47400000Y-26400000D02*
X47400000Y-30062500D01*
X34275000Y-66750000D02*
X35750000Y-66750000D01*
X46700000Y-30250000D02*
X47212500Y-30250000D01*
D54*
X52250000Y-73424000D02*
X51650000Y-73424000D01*
D55*
X33275000Y-67750000D02*
X34275000Y-66750000D01*
X47250000Y-63250000D02*
X47250000Y-61675000D01*
X35000000Y-75000000D02*
X35000000Y-73575000D01*
X39250000Y-63750000D02*
X40137500Y-63750000D01*
D56*
X62500000Y-66250000D02*
X62750000Y-66500000D01*
D54*
X25750000Y-50500000D02*
X25750000Y-49675000D01*
D55*
X49000000Y-50000000D02*
X50000000Y-51000000D01*
X48987500Y-47262500D02*
X49000000Y-47250000D01*
D56*
X49750000Y-61862500D02*
X49750000Y-63887500D01*
D55*
X32500000Y-54750000D02*
X32362500Y-54750000D01*
D56*
X52100000Y-60700000D02*
X53450000Y-60700000D01*
D55*
X42500000Y-55137500D02*
X41612500Y-55137500D01*
X48925000Y-47425000D02*
X49000000Y-47500000D01*
D56*
X62500000Y-65110740D02*
X62500000Y-66250000D01*
D55*
X41612500Y-55137500D02*
X41500000Y-55250000D01*
X47500000Y-47425000D02*
X48925000Y-47425000D01*
X39000000Y-63500000D02*
X39250000Y-63750000D01*
X49000000Y-32550000D02*
X49000000Y-47250000D01*
D56*
X53450000Y-60700000D02*
X53500000Y-60750000D01*
D55*
X49000000Y-47500000D02*
X49000000Y-50000000D01*
X46700000Y-30250000D02*
X49000000Y-32550000D01*
X37350000Y-49750000D02*
X33690000Y-49750000D01*
D56*
X51387500Y-60700000D02*
X50225000Y-61862500D01*
D54*
X51650000Y-73424000D02*
X51174000Y-73424000D01*
D55*
X33690000Y-49750000D02*
X33340000Y-49400000D01*
D54*
X52920000Y-73424000D02*
X52250000Y-73424000D01*
D55*
X35000000Y-73575000D02*
X34925000Y-73500000D01*
X47400000Y-30062500D02*
X47212500Y-30250000D01*
X50000000Y-51000000D02*
X50000000Y-50750000D01*
%TO.N,Net-(SW1-B)*%
X23260000Y-74380000D02*
X25532500Y-74380000D01*
X25532500Y-74380000D02*
X26000000Y-73912500D01*
%TO.N,USART_RX*%
X40750000Y-81000000D02*
X44232500Y-84482500D01*
X39837500Y-78250000D02*
X40000000Y-78087500D01*
X40750000Y-78837500D02*
X40750000Y-81000000D01*
X44295000Y-84482500D02*
X44232500Y-84482500D01*
X39000000Y-78250000D02*
X39837500Y-78250000D01*
X44295000Y-84482500D02*
X44767500Y-84482500D01*
X40000000Y-78087500D02*
X40750000Y-78837500D01*
%TO.N,INT*%
X33767500Y-84482500D02*
X37250000Y-81000000D01*
X33695000Y-84482500D02*
X33767500Y-84482500D01*
X33695000Y-84482500D02*
X34267500Y-84482500D01*
X38412500Y-78087500D02*
X39000000Y-77500000D01*
X37250000Y-81000000D02*
X37250000Y-78837500D01*
X38000000Y-78087500D02*
X38412500Y-78087500D01*
X37250000Y-78837500D02*
X38000000Y-78087500D01*
D54*
%TO.N,Net-(IC1-LED3)*%
X60540000Y-75176000D02*
X61264000Y-75900000D01*
X60540000Y-73424000D02*
X60540000Y-75176000D01*
%TO.N,Net-(IC1-LED1)*%
X58000000Y-73424000D02*
X58000000Y-77716000D01*
X58000000Y-77716000D02*
X61264000Y-80980000D01*
%TO.N,Net-(IC1-LED2)*%
X59270000Y-76446000D02*
X61264000Y-78440000D01*
X59270000Y-73424000D02*
X59270000Y-76446000D01*
%TO.N,Net-(U2-K)*%
X50412500Y-82750000D02*
X51597500Y-82750000D01*
X51597500Y-82750000D02*
X53330000Y-84482500D01*
D56*
%TO.N,Net-(C2-Pad1)*%
X29575000Y-61500000D02*
X29575000Y-59000000D01*
X22362500Y-56662500D02*
X22250000Y-56550000D01*
X27000000Y-56662500D02*
X22362500Y-56662500D01*
X29575000Y-59000000D02*
X29337500Y-59000000D01*
X29337500Y-59000000D02*
X27000000Y-56662500D01*
D55*
%TO.N,I_L*%
X47250000Y-64825000D02*
X45437500Y-64825000D01*
X45000000Y-62750000D02*
X45000000Y-62000000D01*
X45437500Y-64825000D02*
X45000000Y-64387500D01*
X45000000Y-62750000D02*
X45000000Y-64387500D01*
D56*
%TO.N,CT+*%
X28501200Y-68000000D02*
X28501200Y-67750000D01*
D55*
X28863700Y-67387500D02*
X28501200Y-67750000D01*
D56*
X26425000Y-65923800D02*
X28501200Y-68000000D01*
D55*
X31250000Y-67387500D02*
X28863700Y-67387500D01*
D56*
X26425000Y-61500000D02*
X26425000Y-63000000D01*
X26425000Y-63000000D02*
X26425000Y-65923800D01*
X24325000Y-61500000D02*
X26425000Y-61500000D01*
D55*
%TO.N,MODE_IN*%
X26000000Y-72087500D02*
X27950000Y-72087500D01*
X32250000Y-62500000D02*
X32250000Y-69750000D01*
X29862500Y-72137500D02*
X28000000Y-72137500D01*
X33750000Y-61000000D02*
X32250000Y-62500000D01*
X32250000Y-69750000D02*
X29862500Y-72137500D01*
X27950000Y-72087500D02*
X28000000Y-72137500D01*
D56*
%TO.N,CT-*%
X28000000Y-63000000D02*
X28000000Y-64248800D01*
X28000000Y-64248800D02*
X28501200Y-64750000D01*
X28000000Y-60575000D02*
X26425000Y-59000000D01*
X24325000Y-59000000D02*
X26425000Y-59000000D01*
X28000000Y-63000000D02*
X28000000Y-60575000D01*
D55*
X31250000Y-65362500D02*
X31000000Y-65612500D01*
X29363700Y-65612500D02*
X28501200Y-64750000D01*
X31000000Y-65612500D02*
X29363700Y-65612500D01*
D54*
%TO.N,I_PRI*%
X27000000Y-54837500D02*
X27000000Y-54075000D01*
X27000000Y-54075000D02*
X25750000Y-52825000D01*
X28750000Y-56587500D02*
X27000000Y-54837500D01*
X28750000Y-56612500D02*
X28750000Y-57000000D01*
X28750000Y-57000000D02*
X29250000Y-57500000D01*
X28750000Y-56612500D02*
X28750000Y-56587500D01*
D55*
%TO.N,VREF*%
X42800000Y-67512500D02*
X41000000Y-67512500D01*
X35612500Y-63887500D02*
X36000000Y-63500000D01*
X40791499Y-67512500D02*
X41000000Y-67512500D01*
X34750000Y-63887500D02*
X35612500Y-63887500D01*
X33000000Y-63887500D02*
X34750000Y-63887500D01*
X39300000Y-66021001D02*
X40791499Y-67512500D01*
%TO.N,VBUS_SENSE*%
X45000000Y-53412500D02*
X45000000Y-53075000D01*
X45000000Y-53075000D02*
X47500000Y-50575000D01*
X44000000Y-57750000D02*
X44000000Y-56137500D01*
X44000000Y-56137500D02*
X45000000Y-55137500D01*
X45000000Y-55137500D02*
X45000000Y-53412500D01*
%TO.N,VAC_SENSE*%
X40500000Y-49750000D02*
X42337500Y-49750000D01*
X42500000Y-49912500D02*
X42500000Y-51637500D01*
X42375000Y-60875000D02*
X43500000Y-59750000D01*
X42500000Y-51637500D02*
X43500000Y-52637500D01*
X42337500Y-49750000D02*
X42500000Y-49912500D01*
X43500000Y-52637500D02*
X43500000Y-59750000D01*
%TO.N,VDDA*%
X36655600Y-63844400D02*
X37000000Y-63500000D01*
X34975000Y-68000000D02*
X34725000Y-67750000D01*
X36655600Y-68000000D02*
X36655600Y-63844400D01*
X36655600Y-68000000D02*
X34975000Y-68000000D01*
%TO.N,THERM2*%
X42112800Y-65687500D02*
X42800000Y-65687500D01*
X41000000Y-64574700D02*
X42112800Y-65687500D01*
X33500000Y-59500000D02*
X36250000Y-62250000D01*
X42800000Y-65687500D02*
X43112500Y-65687500D01*
X43056250Y-66549143D02*
X42800000Y-66292893D01*
X33000000Y-59500000D02*
X33500000Y-59500000D01*
X41000000Y-63400000D02*
X41000000Y-64574700D01*
X36250000Y-62250000D02*
X37250000Y-62250000D01*
X42800000Y-66292893D02*
X42800000Y-65687500D01*
X37250000Y-62250000D02*
X37800000Y-62800000D01*
X40400000Y-62800000D02*
X41000000Y-63400000D01*
X41500000Y-68900000D02*
X38800000Y-71600000D01*
X37800000Y-62800000D02*
X40400000Y-62800000D01*
X38800000Y-71600000D02*
X38380600Y-71600000D01*
%TO.N,THERM1*%
X33000000Y-60250000D02*
X33707107Y-60250000D01*
X33707107Y-60250000D02*
X36207107Y-62750000D01*
X41000000Y-66200000D02*
X41400000Y-66600000D01*
X40900000Y-68500000D02*
X39600000Y-69800000D01*
X38069300Y-65400000D02*
X40712500Y-65400000D01*
X39600000Y-69800000D02*
X38380600Y-69800000D01*
X36207107Y-62750000D02*
X36957107Y-62750000D01*
X37600000Y-63392893D02*
X37600000Y-64930700D01*
X41000000Y-65687500D02*
X41000000Y-66200000D01*
X40712500Y-65400000D02*
X41000000Y-65687500D01*
X36957107Y-62750000D02*
X37600000Y-63392893D01*
X37600000Y-64930700D02*
X38069300Y-65400000D01*
D54*
%TO.N,+24V*%
X64000000Y-38362500D02*
X64000000Y-40137500D01*
X30250000Y-36412500D02*
X30250000Y-38750000D01*
X22662500Y-34750000D02*
X24250000Y-36337500D01*
X40587500Y-34750000D02*
X42250000Y-36412500D01*
X34175000Y-34337500D02*
X34587500Y-34750000D01*
X24612500Y-20887500D02*
X25000000Y-20500000D01*
X22175000Y-34262500D02*
X22662500Y-34750000D01*
D55*
X50275300Y-75000000D02*
X57000000Y-75000000D01*
D54*
X28175000Y-32500000D02*
X28175000Y-34337500D01*
X36250000Y-36412500D02*
X36250000Y-38750000D01*
X40250000Y-34412500D02*
X40587500Y-34750000D01*
X42250000Y-36412500D02*
X42250000Y-38750000D01*
X28587500Y-34750000D02*
X30250000Y-36412500D01*
D55*
X48525300Y-73250000D02*
X50275300Y-75000000D01*
D54*
X28175000Y-34337500D02*
X28587500Y-34750000D01*
X34175000Y-32500000D02*
X34175000Y-34337500D01*
X22175000Y-32500000D02*
X22175000Y-34262500D01*
X24612500Y-18000000D02*
X24612500Y-20112500D01*
D56*
X60650000Y-38900000D02*
X61750000Y-40000000D01*
D54*
X24250000Y-36337500D02*
X24250000Y-38750000D01*
D55*
X46912500Y-73250000D02*
X48525300Y-73250000D01*
D54*
X34587500Y-34750000D02*
X36250000Y-36412500D01*
D56*
X61725000Y-38275000D02*
X61750000Y-38250000D01*
X60650000Y-38275000D02*
X60650000Y-37600000D01*
X60775000Y-38275000D02*
X61750000Y-39250000D01*
X60650000Y-38275000D02*
X60650000Y-38900000D01*
D54*
X24612500Y-20112500D02*
X25000000Y-20500000D01*
D56*
X60650000Y-38275000D02*
X61725000Y-38275000D01*
D54*
X40250000Y-32500000D02*
X40250000Y-34412500D01*
D56*
X60650000Y-38275000D02*
X60775000Y-38275000D01*
D54*
X64000000Y-38362500D02*
X61862500Y-38362500D01*
X61862500Y-38362500D02*
X61750000Y-38250000D01*
%TO.N,+12V*%
X38040000Y-41460000D02*
X38040000Y-40750000D01*
D56*
X53198000Y-46250000D02*
X55550000Y-43898000D01*
D54*
X25980000Y-40750000D02*
X25980000Y-41189000D01*
D56*
X51335500Y-44387500D02*
X50000000Y-44387500D01*
D54*
X49750000Y-52387500D02*
X51987500Y-52387500D01*
D56*
X53198000Y-46250000D02*
X51335500Y-44387500D01*
D54*
X36862500Y-42637500D02*
X37625000Y-41875000D01*
X30257500Y-42650000D02*
X30270000Y-42637500D01*
X25980000Y-41269000D02*
X25980000Y-40750000D01*
D56*
X53198000Y-52802000D02*
X52800000Y-53200000D01*
D54*
X27441000Y-42650000D02*
X30257500Y-42650000D01*
X37625000Y-41875000D02*
X38040000Y-41460000D01*
X30270000Y-42637500D02*
X36862500Y-42637500D01*
D56*
X55550000Y-38275000D02*
X55550000Y-34800000D01*
D54*
X51987500Y-52387500D02*
X52800000Y-53200000D01*
D56*
X55550000Y-34800000D02*
X55500000Y-34750000D01*
D54*
X25980000Y-41189000D02*
X27441000Y-42650000D01*
D56*
X53198000Y-46250000D02*
X53198000Y-52802000D01*
D54*
X26020000Y-40790000D02*
X25980000Y-40750000D01*
D56*
X50000000Y-44387500D02*
X50000000Y-42750000D01*
X55550000Y-43898000D02*
X55550000Y-38275000D01*
D55*
%TO.N,THERM_BOARD*%
X41750000Y-46750000D02*
X41750000Y-42000000D01*
X41750000Y-42000000D02*
X47162500Y-36587500D01*
X38000000Y-59400000D02*
X38000000Y-57100000D01*
X40137500Y-61537500D02*
X40137500Y-62000000D01*
X39000000Y-60400000D02*
X40137500Y-61537500D01*
X39750000Y-55350000D02*
X39750000Y-48750000D01*
X38000000Y-57100000D02*
X39750000Y-55350000D01*
X47162500Y-36587500D02*
X47162500Y-32750000D01*
X39000000Y-60400000D02*
X38000000Y-59400000D01*
X39750000Y-48750000D02*
X41750000Y-46750000D01*
D57*
%TO.N,Net-(Q2-D)*%
X50250000Y-69500000D02*
X49265000Y-69500000D01*
X49265000Y-69500000D02*
X48190000Y-70575000D01*
D56*
X50250000Y-71000000D02*
X50250000Y-70250000D01*
D57*
X50250000Y-71750000D02*
X49365000Y-71750000D01*
X49365000Y-71750000D02*
X48190000Y-70575000D01*
X50250000Y-69500000D02*
X50250000Y-71750000D01*
D55*
%TO.N,Net-(Q1-G)*%
X48162500Y-76250000D02*
X48587500Y-76250000D01*
X46912500Y-74750000D02*
X46912500Y-75000000D01*
X48550000Y-76287500D02*
X48587500Y-76250000D01*
X48550000Y-78625000D02*
X48550000Y-76287500D01*
X46912500Y-75000000D02*
X48162500Y-76250000D01*
D54*
%TO.N,Net-(Q2-G)*%
X44012500Y-69600000D02*
X44000000Y-69587500D01*
X46250000Y-69600000D02*
X44012500Y-69600000D01*
X42250000Y-69587500D02*
X44000000Y-69587500D01*
D55*
%TO.N,24V_SENSE*%
X42737500Y-72575000D02*
X43412500Y-73250000D01*
X43412500Y-74950000D02*
X43362500Y-75000000D01*
X43412500Y-73250000D02*
X43412500Y-74950000D01*
X38150000Y-72650000D02*
X38225000Y-72575000D01*
X38150000Y-72650000D02*
X38150000Y-73425000D01*
X38150000Y-73425000D02*
X38075000Y-73500000D01*
X38225000Y-72575000D02*
X42737500Y-72575000D01*
X43412500Y-73250000D02*
X45087500Y-73250000D01*
D54*
%TO.N,Net-(U10-G2)*%
X31312500Y-38562500D02*
X31500000Y-38750000D01*
X31312500Y-37000000D02*
X31312500Y-38562500D01*
X30412500Y-34750000D02*
X30412500Y-33412500D01*
X31312500Y-37000000D02*
X31312500Y-35650000D01*
X31312500Y-35650000D02*
X30412500Y-34750000D01*
X30412500Y-33412500D02*
X31325000Y-32500000D01*
%TO.N,Net-(IC4-OUT_A)*%
X27250000Y-40828000D02*
X27250000Y-40389000D01*
X28187500Y-37937500D02*
X29000000Y-38750000D01*
X28811000Y-38750000D02*
X27250000Y-40311000D01*
X27250000Y-40311000D02*
X27250000Y-40750000D01*
X28187500Y-37000000D02*
X28187500Y-37937500D01*
X29000000Y-38750000D02*
X28811000Y-38750000D01*
%TO.N,Net-(IC4-OUT_B)*%
X22187500Y-37937500D02*
X23000000Y-38750000D01*
X23000000Y-38750000D02*
X24710000Y-40460000D01*
X24710000Y-40828000D02*
X24710000Y-40310000D01*
X24710000Y-40460000D02*
X24710000Y-40750000D01*
X22187500Y-37000000D02*
X22187500Y-37937500D01*
%TO.N,Net-(U11-G2)*%
X24487500Y-33337500D02*
X25325000Y-32500000D01*
X25312500Y-37000000D02*
X25312500Y-35575000D01*
X25312500Y-37000000D02*
X25312500Y-38562500D01*
X25312500Y-35575000D02*
X24487500Y-34750000D01*
X24487500Y-34750000D02*
X24487500Y-33337500D01*
X25312500Y-38562500D02*
X25500000Y-38750000D01*
%TO.N,Net-(U12-G2)*%
X43312500Y-37000000D02*
X43312500Y-35650000D01*
X43312500Y-37000000D02*
X43312500Y-38562500D01*
X43312500Y-38562500D02*
X43500000Y-38750000D01*
X42412500Y-34750000D02*
X42412500Y-33487500D01*
X42412500Y-33487500D02*
X43400000Y-32500000D01*
X43312500Y-35650000D02*
X42412500Y-34750000D01*
%TO.N,Net-(IC5-OUT_A)*%
X40187500Y-37937500D02*
X41000000Y-38750000D01*
X39310000Y-40231000D02*
X40791000Y-38750000D01*
X39310000Y-40750000D02*
X39310000Y-40231000D01*
X40791000Y-38750000D02*
X41000000Y-38750000D01*
X40187500Y-37000000D02*
X40187500Y-37937500D01*
%TO.N,Net-(IC5-OUT_B)*%
X36770000Y-40520000D02*
X36770000Y-40750000D01*
X36770000Y-40750000D02*
X36770000Y-40250000D01*
X34187500Y-37000000D02*
X34187500Y-37937500D01*
X35000000Y-38750000D02*
X36770000Y-40520000D01*
X34187500Y-37937500D02*
X35000000Y-38750000D01*
%TO.N,Net-(U13-G2)*%
X36412500Y-34750000D02*
X36412500Y-33412500D01*
X37312500Y-37000000D02*
X37312500Y-38562500D01*
X36412500Y-33412500D02*
X37325000Y-32500000D01*
X37312500Y-37000000D02*
X37312500Y-35650000D01*
X37312500Y-38562500D02*
X37500000Y-38750000D01*
X37312500Y-35650000D02*
X36412500Y-34750000D01*
D56*
%TO.N,Net-(D12-K)*%
X62002000Y-48450000D02*
X59802000Y-46250000D01*
X58950000Y-38275000D02*
X58950000Y-45398000D01*
X63500000Y-48450000D02*
X62002000Y-48450000D01*
X58950000Y-45398000D02*
X59802000Y-46250000D01*
D55*
%TO.N,LED_TMP*%
X53250000Y-72250000D02*
X55460000Y-70040000D01*
X55460000Y-70040000D02*
X55460000Y-68000000D01*
D54*
%TO.N,Net-(IC1-RSET1)*%
X60540000Y-68000000D02*
X62337500Y-68000000D01*
%TO.N,Net-(IC1-RSET2)*%
X59270000Y-68000000D02*
X59270000Y-68542500D01*
X61477500Y-70750000D02*
X62337500Y-70750000D01*
X59270000Y-68542500D02*
X61477500Y-70750000D01*
%TO.N,Net-(IC1-RSET3)*%
X58000000Y-68412500D02*
X62337500Y-72750000D01*
X62337500Y-72750000D02*
X62337500Y-73500000D01*
X58000000Y-68000000D02*
X58000000Y-68412500D01*
D55*
%TO.N,LED_VBUS*%
X54190000Y-70560000D02*
X54190000Y-68000000D01*
X52500000Y-72250000D02*
X54190000Y-70560000D01*
%TO.N,LED_I_IN*%
X54000000Y-72250000D02*
X56730000Y-69520000D01*
X56730000Y-69520000D02*
X56730000Y-68000000D01*
%TO.N,GDT1_DIS*%
X28520000Y-40750000D02*
X28520000Y-42000000D01*
X28520000Y-46172000D02*
X28520000Y-45000000D01*
%TO.N,GDT_A*%
X27250000Y-47250000D02*
X27250000Y-46172000D01*
X39250000Y-47250000D02*
X39250000Y-46232000D01*
X39250000Y-46232000D02*
X39310000Y-46172000D01*
%TO.N,GDT_B*%
X36750000Y-47250000D02*
X36750000Y-46192000D01*
X24750000Y-47250000D02*
X24750000Y-46212000D01*
X24750000Y-46212000D02*
X24710000Y-46172000D01*
X36750000Y-46192000D02*
X36770000Y-46172000D01*
%TO.N,GDT2_DIS*%
X40520000Y-45000000D02*
X40580000Y-45060000D01*
X40580000Y-40750000D02*
X40580000Y-42000000D01*
X40580000Y-45060000D02*
X40580000Y-46172000D01*
X40580000Y-44940000D02*
X40520000Y-45000000D01*
%TO.N,TDO*%
X36000000Y-52000000D02*
X32130000Y-52000000D01*
X36800000Y-52800000D02*
X36000000Y-52000000D01*
X32130000Y-52000000D02*
X30800000Y-50670000D01*
%TO.N,TCK*%
X32854200Y-51454200D02*
X32070000Y-50670000D01*
X37454200Y-51454200D02*
X32854200Y-51454200D01*
X38000000Y-52000000D02*
X37454200Y-51454200D01*
%TO.N,TDI*%
X31260000Y-52400000D02*
X29530000Y-50670000D01*
X35800000Y-53400000D02*
X34800000Y-52400000D01*
X37000000Y-53400000D02*
X35800000Y-53400000D01*
X37400000Y-53000000D02*
X37000000Y-53400000D01*
X37400000Y-52400000D02*
X37400000Y-53000000D01*
X34800000Y-52400000D02*
X31260000Y-52400000D01*
%TO.N,TMS*%
X37670000Y-50670000D02*
X33340000Y-50670000D01*
X38600000Y-51600000D02*
X37670000Y-50670000D01*
%TO.N,VBUS_IN*%
X45000000Y-44250000D02*
X46500000Y-42750000D01*
X45000000Y-51587500D02*
X45000000Y-44250000D01*
X46500000Y-42750000D02*
X46500000Y-43000000D01*
%TO.N,I_L_IN*%
X45575000Y-60925000D02*
X45750000Y-60750000D01*
X45000000Y-60925000D02*
X45575000Y-60925000D01*
%TO.N,VAC_IN*%
X42500000Y-48087500D02*
X42500000Y-47000000D01*
%TO.N,PFC*%
X41750000Y-57912500D02*
X40750000Y-57912500D01*
X40750000Y-57912500D02*
X40500000Y-58162500D01*
%TO.N,SCR*%
X36500000Y-60175000D02*
X37500000Y-59175000D01*
X39000000Y-55250000D02*
X39000000Y-54412500D01*
X37500000Y-56750000D02*
X39000000Y-55250000D01*
X36500000Y-60250000D02*
X36500000Y-60175000D01*
X37500000Y-59175000D02*
X37500000Y-56750000D01*
D57*
%TO.N,GDT1_B*%
X28500000Y-20500000D02*
X25250000Y-23750000D01*
X28960000Y-20500000D02*
X28500000Y-20500000D01*
%TO.N,GDT2_B*%
X35235000Y-20500000D02*
X35235000Y-23735000D01*
D54*
%TO.N,Net-(Q1-D)*%
X48587500Y-82750000D02*
X49500000Y-81837500D01*
X49500000Y-81837500D02*
X49500000Y-80500000D01*
D55*
%TO.N,USART_TX*%
X44500000Y-74412500D02*
X45087500Y-75000000D01*
X44500000Y-74250000D02*
X44500000Y-74412500D01*
%TO.N,Net-(U6-V_{OUT})*%
X44800000Y-30250000D02*
X45337500Y-30787500D01*
X45337500Y-30787500D02*
X45337500Y-32250000D01*
%TO.N,Net-(U4-INPUT)*%
X36175000Y-58950000D02*
X35200000Y-58950000D01*
X35200000Y-58950000D02*
X34750000Y-58500000D01*
%TO.N,Net-(U4-OUTPUT)*%
X35200000Y-56550000D02*
X34750000Y-57000000D01*
X36175000Y-56550000D02*
X35200000Y-56550000D01*
%TO.N,FAN_EN*%
X41412500Y-71412500D02*
X41400000Y-71400000D01*
X42250000Y-71412500D02*
X41412500Y-71412500D01*
D56*
%TO.N,Net-(J4-Pad1)*%
X21998800Y-65000000D02*
X21998800Y-63501200D01*
X21998800Y-63501200D02*
X22000000Y-63500000D01*
%TO.N,Net-(J4-Pad2)*%
X21998800Y-66751200D02*
X22250000Y-66500000D01*
X21998800Y-68000000D02*
X21998800Y-66751200D01*
D55*
%TO.N,FAN_PWM*%
X53112500Y-58912500D02*
X53800000Y-59600000D01*
X46500000Y-58912500D02*
X53112500Y-58912500D01*
%TO.N,Net-(J2-Pin_6)*%
X39250000Y-52337500D02*
X39250000Y-51250000D01*
X39000000Y-52587500D02*
X39250000Y-52337500D01*
%TO.N,Net-(J2-Pin_4)*%
X40500000Y-56337500D02*
X40500000Y-54500000D01*
%TD*%
%TA.AperFunction,Conductor*%
%TO.N,GND*%
G36*
X69243039Y-16019685D02*
G01*
X69288794Y-16072489D01*
X69300000Y-16124000D01*
X69300000Y-87876000D01*
X69280315Y-87943039D01*
X69227511Y-87988794D01*
X69176000Y-88000000D01*
X65424000Y-88000000D01*
X65356961Y-87980315D01*
X65311206Y-87927511D01*
X65300000Y-87876000D01*
X65300000Y-33750000D01*
X68750000Y-33750000D01*
X68750000Y-24500000D01*
X65300000Y-24500000D01*
X65300000Y-16124000D01*
X65319685Y-16056961D01*
X65372489Y-16011206D01*
X65424000Y-16000000D01*
X69176000Y-16000000D01*
X69243039Y-16019685D01*
G37*
%TD.AperFunction*%
%TD*%
%TA.AperFunction,Conductor*%
%TO.N,GND*%
G36*
X44908537Y-27519685D02*
G01*
X44954292Y-27572489D01*
X44964236Y-27641647D01*
X44960574Y-27658596D01*
X44952900Y-27685008D01*
X44952899Y-27685010D01*
X44950000Y-27721850D01*
X44950000Y-28125000D01*
X46550000Y-28125000D01*
X46550000Y-27721865D01*
X46549999Y-27721850D01*
X46547100Y-27685010D01*
X46547099Y-27685008D01*
X46539426Y-27658596D01*
X46539625Y-27588727D01*
X46577566Y-27530057D01*
X46641204Y-27501212D01*
X46658502Y-27500000D01*
X46975500Y-27500000D01*
X47042539Y-27519685D01*
X47088294Y-27572489D01*
X47099500Y-27624000D01*
X47099500Y-29200130D01*
X47079815Y-29267169D01*
X47027011Y-29312924D01*
X46957853Y-29322868D01*
X46957623Y-29322835D01*
X46951393Y-29321927D01*
X46883260Y-29312000D01*
X46640490Y-29312000D01*
X46573451Y-29292315D01*
X46527696Y-29239511D01*
X46517752Y-29170353D01*
X46521414Y-29153405D01*
X46547099Y-29064995D01*
X46547100Y-29064989D01*
X46549999Y-29028149D01*
X46550000Y-29028134D01*
X46550000Y-28625000D01*
X46000000Y-28625000D01*
X46000000Y-29609795D01*
X46000001Y-29609795D01*
X46002486Y-29609600D01*
X46040905Y-29598439D01*
X46110775Y-29598639D01*
X46169445Y-29636582D01*
X46198288Y-29700220D01*
X46199500Y-29717516D01*
X46199500Y-30870760D01*
X46209426Y-30938891D01*
X46209427Y-30938893D01*
X46260802Y-31043983D01*
X46260803Y-31043984D01*
X46260804Y-31043986D01*
X46266773Y-31052347D01*
X46263912Y-31054389D01*
X46288622Y-31099642D01*
X46283638Y-31169334D01*
X46241766Y-31225267D01*
X46176302Y-31249684D01*
X46167456Y-31250000D01*
X45762000Y-31250000D01*
X45694961Y-31230315D01*
X45649206Y-31177511D01*
X45638000Y-31126000D01*
X45638000Y-30747940D01*
X45638000Y-30747938D01*
X45617522Y-30671512D01*
X45577960Y-30602989D01*
X45336819Y-30361848D01*
X45303334Y-30300525D01*
X45300500Y-30274167D01*
X45300500Y-29717516D01*
X45320185Y-29650477D01*
X45372989Y-29604722D01*
X45442147Y-29594778D01*
X45459095Y-29598439D01*
X45497514Y-29609600D01*
X45497511Y-29609600D01*
X45499998Y-29609795D01*
X45500000Y-29609795D01*
X45500000Y-28625000D01*
X44950000Y-28625000D01*
X44950000Y-29028149D01*
X44952899Y-29064989D01*
X44952900Y-29064995D01*
X44978586Y-29153405D01*
X44978387Y-29223275D01*
X44940445Y-29281945D01*
X44876806Y-29310788D01*
X44859510Y-29312000D01*
X44624000Y-29312000D01*
X44556961Y-29292315D01*
X44511206Y-29239511D01*
X44500000Y-29188000D01*
X44500000Y-27624000D01*
X44519685Y-27556961D01*
X44572489Y-27511206D01*
X44624000Y-27500000D01*
X44841498Y-27500000D01*
X44908537Y-27519685D01*
G37*
%TD.AperFunction*%
%TD*%
%TA.AperFunction,Conductor*%
%TO.N,GND*%
G36*
X19943039Y-16019685D02*
G01*
X19988794Y-16072489D01*
X20000000Y-16124000D01*
X20000000Y-87876000D01*
X19980315Y-87943039D01*
X19927511Y-87988794D01*
X19876000Y-88000000D01*
X16124000Y-88000000D01*
X16056961Y-87980315D01*
X16011206Y-87927511D01*
X16000000Y-87876000D01*
X16000000Y-16124000D01*
X16019685Y-16056961D01*
X16072489Y-16011206D01*
X16124000Y-16000000D01*
X19876000Y-16000000D01*
X19943039Y-16019685D01*
G37*
%TD.AperFunction*%
%TD*%
%TA.AperFunction,Conductor*%
%TO.N,GND*%
G36*
X68750000Y-33750000D02*
G01*
X63274000Y-33750000D01*
X63206961Y-33730315D01*
X63161206Y-33677511D01*
X63150000Y-33626000D01*
X63150000Y-32050000D01*
X62500000Y-32050000D01*
X62500000Y-31050000D01*
X63149999Y-31050000D01*
X63149999Y-29625000D01*
X62500000Y-29625000D01*
X62500000Y-28625000D01*
X63150000Y-28625000D01*
X63150000Y-27200000D01*
X62500000Y-27200000D01*
X62500000Y-26200000D01*
X63149999Y-26200000D01*
X63149999Y-24624000D01*
X63169684Y-24556961D01*
X63222488Y-24511206D01*
X63273999Y-24500000D01*
X65300000Y-24500000D01*
X68750000Y-24500000D01*
X68750000Y-33750000D01*
G37*
%TD.AperFunction*%
%TD*%
%TA.AperFunction,Conductor*%
%TO.N,Net-(U12-D1)*%
G36*
X44193039Y-22269685D02*
G01*
X44238794Y-22322489D01*
X44250000Y-22374000D01*
X44250000Y-31626000D01*
X44230315Y-31693039D01*
X44177511Y-31738794D01*
X44126000Y-31750000D01*
X38874000Y-31750000D01*
X38806961Y-31730315D01*
X38761206Y-31677511D01*
X38750000Y-31626000D01*
X38750000Y-22374000D01*
X38769685Y-22306961D01*
X38822489Y-22261206D01*
X38874000Y-22250000D01*
X44126000Y-22250000D01*
X44193039Y-22269685D01*
G37*
%TD.AperFunction*%
%TD*%
%TA.AperFunction,Conductor*%
%TO.N,GDT1_B*%
G36*
X26193039Y-22269685D02*
G01*
X26238794Y-22322489D01*
X26250000Y-22374000D01*
X26250000Y-31626000D01*
X26230315Y-31693039D01*
X26177511Y-31738794D01*
X26126000Y-31750000D01*
X20874000Y-31750000D01*
X20806961Y-31730315D01*
X20761206Y-31677511D01*
X20750000Y-31626000D01*
X20750000Y-22374000D01*
X20769685Y-22306961D01*
X20822489Y-22261206D01*
X20874000Y-22250000D01*
X26126000Y-22250000D01*
X26193039Y-22269685D01*
G37*
%TD.AperFunction*%
%TD*%
%TA.AperFunction,Conductor*%
%TO.N,Net-(U10-D1)*%
G36*
X32193039Y-22269685D02*
G01*
X32238794Y-22322489D01*
X32250000Y-22374000D01*
X32250000Y-31626000D01*
X32230315Y-31693039D01*
X32177511Y-31738794D01*
X32126000Y-31750000D01*
X26874000Y-31750000D01*
X26806961Y-31730315D01*
X26761206Y-31677511D01*
X26750000Y-31626000D01*
X26750000Y-24069836D01*
X26769685Y-24002797D01*
X26786319Y-23982155D01*
X28482155Y-22286319D01*
X28543478Y-22252834D01*
X28569836Y-22250000D01*
X32126000Y-22250000D01*
X32193039Y-22269685D01*
G37*
%TD.AperFunction*%
%TD*%
%TA.AperFunction,Conductor*%
%TO.N,GDT2_B*%
G36*
X38193039Y-22269685D02*
G01*
X38238794Y-22322489D01*
X38250000Y-22374000D01*
X38250000Y-31626000D01*
X38230315Y-31693039D01*
X38177511Y-31738794D01*
X38126000Y-31750000D01*
X32874000Y-31750000D01*
X32806961Y-31730315D01*
X32761206Y-31677511D01*
X32750000Y-31626000D01*
X32750000Y-22374000D01*
X32769685Y-22306961D01*
X32822489Y-22261206D01*
X32874000Y-22250000D01*
X38126000Y-22250000D01*
X38193039Y-22269685D01*
G37*
%TD.AperFunction*%
%TD*%
M02*
