M48
; DRILL file {KiCad 8.0.4} date 2024-11-10T12:25:27-0500
; FORMAT={-:-/ absolute / inch / decimal}
; #@! TF.CreationDate,2024-11-10T12:25:27-05:00
; #@! TF.GenerationSoftware,Kicad,Pcbnew,8.0.4
; #@! TF.FileFunction,Plated,1,4,PTH
FMAT,2
INCH
; #@! TA.AperFunction,Plated,PTH,ViaDrill
T1C0.0118
; #@! TA.AperFunction,Plated,PTH,ComponentDrill
T2C0.0260
; #@! TA.AperFunction,Plated,PTH,ComponentDrill
T3C0.0276
; #@! TA.AperFunction,Plated,PTH,ComponentDrill
T4C0.0300
; #@! TA.AperFunction,Plated,PTH,ComponentDrill
T5C0.0315
; #@! TA.AperFunction,Plated,PTH,ComponentDrill
T6C0.0350
; #@! TA.AperFunction,Plated,PTH,ComponentDrill
T7C0.0374
; #@! TA.AperFunction,Plated,PTH,ComponentDrill
T8C0.0394
; #@! TA.AperFunction,Plated,PTH,ComponentDrill
T9C0.0402
; #@! TA.AperFunction,Plated,PTH,ComponentDrill
T10C0.0425
%
G90
G05
T1
X0.7087Y-0.6693
X0.7087Y-0.7677
X0.7087Y-0.8661
X0.7087Y-0.9646
X0.7087Y-1.063
X0.7087Y-1.1614
X0.7087Y-1.2598
X0.7087Y-1.3583
X0.7087Y-1.4567
X0.7087Y-1.5551
X0.7087Y-1.6535
X0.7087Y-1.752
X0.7087Y-1.8504
X0.7087Y-1.9488
X0.7087Y-2.0472
X0.7087Y-2.1457
X0.7087Y-2.2441
X0.7087Y-2.3425
X0.7087Y-2.4409
X0.7087Y-2.5394
X0.7087Y-2.6378
X0.7087Y-2.7362
X0.7087Y-2.8346
X0.7087Y-2.9331
X0.7087Y-3.0315
X0.7087Y-3.1299
X0.7087Y-3.2283
X0.7087Y-3.3268
X0.7087Y-3.4252
X0.8366Y-1.1909
X0.8563Y-1.2205
X0.8563Y-1.5256
X0.8661Y-2.5
X0.876Y-1.1909
X0.876Y-2.6181
X0.8957Y-1.2205
X0.9055Y-1.5256
X0.9154Y-1.1909
X0.935Y-1.2205
X0.9547Y-1.1909
X0.9547Y-1.5256
X0.9744Y-1.2205
X0.9744Y-1.8602
X0.9941Y-1.1909
X1.0039Y-1.5256
X1.0138Y-1.2205
X1.0138Y-1.9882
X1.0244Y-1.7717
X1.0404Y-2.4803
X1.0728Y-1.1909
X1.0728Y-1.8602
X1.0925Y-1.2205
X1.0925Y-1.5256
X1.1024Y-2.4803
X1.1024Y-2.9528
X1.1122Y-1.1909
X1.1228Y-1.6535
X1.1228Y-1.7717
X1.1319Y-1.2205
X1.1323Y-2.126
X1.1417Y-1.5256
X1.1516Y-1.1909
X1.1516Y-2.2638
X1.1713Y-1.2205
X1.1811Y-2.5
X1.1811Y-2.7362
X1.1909Y-1.1909
X1.1909Y-1.5256
X1.2106Y-1.2205
X1.2303Y-1.1909
X1.2402Y-1.5256
X1.25Y-1.2205
X1.2795Y-1.8406
X1.2795Y-2.1555
X1.2894Y-1.7466
X1.2992Y-2.2047
X1.2992Y-2.3425
X1.2992Y-2.372
X1.3091Y-1.1909
X1.3287Y-1.2205
X1.3287Y-1.5256
X1.3287Y-2.1752
X1.3287Y-2.4016
X1.3484Y-1.1909
X1.3681Y-1.2205
X1.3681Y-2.2441
X1.3681Y-2.2736
X1.3681Y-2.3031
X1.378Y-1.5256
X1.378Y-2.9528
X1.3878Y-1.1909
X1.4075Y-1.2205
X1.4075Y-2.5787
X1.4075Y-2.628
X1.4173Y-2.5
X1.4272Y-1.1909
X1.4272Y-1.5256
X1.4272Y-2.4114
X1.437Y-2.372
X1.4469Y-1.2205
X1.4469Y-1.8602
X1.4488Y-2.0787
X1.4567Y-2.5
X1.4665Y-1.1909
X1.4718Y-1.7466
X1.4724Y-2.063
X1.4724Y-2.7795
X1.4764Y-1.5256
X1.4813Y-1.6486
X1.4862Y-1.2205
X1.4961Y-2.0472
X1.502Y-2.8602
X1.5059Y-2.5
X1.5118Y-2.6457
X1.5197Y-2.0315
X1.5354Y-2.3031
X1.5354Y-2.3327
X1.5354Y-2.378
X1.5354Y-2.5
X1.5354Y-3.0512
X1.5354Y-3.0807
X1.5354Y-3.3366
X1.5453Y-1.1909
X1.5453Y-1.8602
X1.5453Y-2.0177
X1.5472Y-2.5993
X1.565Y-1.2205
X1.565Y-1.5256
X1.5846Y-1.1909
X1.5945Y-2.1457
X1.5953Y-1.7717
X1.5976Y-1.6535
X1.6043Y-1.2205
X1.6102Y-2.6969
X1.6142Y-1.5256
X1.624Y-1.1909
X1.6299Y-2.622
X1.6299Y-2.811
X1.6339Y-2.0965
X1.6339Y-2.1752
X1.6339Y-2.2047
X1.6339Y-2.7126
X1.6393Y-2.9134
X1.6437Y-1.2205
X1.6437Y-2.28
X1.6535Y-2.5492
X1.6634Y-1.1909
X1.6634Y-1.5256
X1.6683Y-2.3967
X1.6732Y-1.8504
X1.6831Y-1.2205
X1.6951Y-2.62
X1.7028Y-1.1909
X1.7126Y-1.5256
X1.7224Y-1.2205
X1.7323Y-2.2736
X1.752Y-2.9232
X1.7618Y-2.7854
X1.7618Y-2.8115
X1.7717Y-2.4409
X1.7913Y-1.063
X1.7913Y-2.7854
X1.7913Y-2.8115
X1.8012Y-2.3917
X1.811Y-2.6083
X1.8307Y-1.6831
X1.8307Y-2.3194
X1.8602Y-2.4902
X1.9166Y-2.0992
X1.9193Y-2.2835
X1.9587Y-2.628
X1.9783Y-2.7362
X1.9783Y-2.7657
X1.9783Y-2.7953
X1.9783Y-2.8248
X1.9882Y-3.1398
X1.998Y-2.3622
X2.0079Y-2.8839
X2.0276Y-3.3366
X2.0571Y-2.6772
X2.0669Y-2.8445
X2.0965Y-2.8445
X2.1063Y-2.3917
X2.1063Y-2.4803
X2.1161Y-2.2441
X2.1181Y-2.3465
X2.126Y-2.8445
X2.185Y-1.3681
X2.185Y-1.3976
X2.2441Y-2.9528
X2.3843Y-1.9685
X2.4311Y-1.5059
X2.4311Y-1.5453
X2.4311Y-1.5748
X2.4705Y-2.6181
X2.5295Y-2.2638
X2.6575Y-0.6693
X2.6575Y-0.7677
X2.6575Y-0.8661
X2.6575Y-0.9646
X2.6575Y-1.063
X2.6575Y-1.1614
X2.6575Y-1.2598
X2.6575Y-1.3583
X2.6575Y-1.4567
X2.6575Y-1.5551
X2.6575Y-1.6535
X2.6575Y-1.752
X2.6575Y-1.8504
X2.6575Y-1.9488
X2.6575Y-2.0472
X2.6575Y-2.1457
X2.6575Y-2.2441
X2.6575Y-2.3425
X2.6575Y-2.4409
X2.6575Y-2.5394
X2.6575Y-2.6378
X2.6575Y-2.7362
X2.6575Y-2.8346
X2.6575Y-2.9331
X2.6575Y-3.0315
X2.6575Y-3.1299
X2.6575Y-3.2283
X2.6575Y-3.3268
X2.6575Y-3.4252
T2
X1.1126Y-1.9449
X1.1126Y-1.9949
X1.1626Y-1.9449
X1.1626Y-1.9949
X1.2126Y-1.9449
X1.2126Y-1.9949
X1.2626Y-1.9449
X1.2626Y-1.9949
X1.3126Y-1.9449
X1.3126Y-1.9949
T3
X1.9685Y-1.5453
X1.9685Y-1.6831
X1.9685Y-1.8701
X1.9685Y-2.0079
T4
X0.9157Y-2.8283
X0.9157Y-2.9283
X0.9157Y-3.0283
T5
X1.2516Y-3.3261
X1.3266Y-3.3261
X1.4016Y-3.3261
X1.6689Y-3.3261
X1.7439Y-3.3261
X1.8189Y-3.3261
X2.0996Y-3.3261
X2.1996Y-3.3261
T6
X1.9685Y-1.1417
X1.9685Y-1.3386
T7
X0.9157Y-3.2283
X1.0157Y-3.2283
T8
X1.9031Y-0.776
X1.9031Y-0.876
X2.0031Y-0.776
X2.0031Y-0.876
X2.1031Y-0.776
X2.1031Y-0.876
X2.2031Y-0.776
X2.2031Y-0.876
X2.3031Y-0.776
X2.3031Y-0.876
T9
X0.8843Y-0.8071
X0.9843Y-0.8071
X1.1402Y-0.8071
X1.2402Y-0.8071
X1.3872Y-0.8071
X1.4872Y-0.8071
T10
X2.412Y-2.9882
X2.412Y-3.0882
X2.412Y-3.1882
X2.512Y-2.9882
X2.512Y-3.0882
X2.512Y-3.1882
M30
