%TF.GenerationSoftware,KiCad,Pcbnew,8.0.4*%
%TF.CreationDate,2024-11-10T12:25:31-05:00*%
%TF.ProjectId,booster-tc-driver,626f6f73-7465-4722-9d74-632d64726976,rev?*%
%TF.SameCoordinates,Original*%
%TF.FileFunction,Soldermask,Bot*%
%TF.FilePolarity,Negative*%
%FSLAX46Y46*%
G04 Gerber Fmt 4.6, Leading zero omitted, Abs format (unit mm)*
G04 Created by KiCad (PCBNEW 8.0.4) date 2024-11-10 12:25:31*
%MOMM*%
%LPD*%
G01*
G04 APERTURE LIST*
G04 Aperture macros list*
%AMRoundRect*
0 Rectangle with rounded corners*
0 $1 Rounding radius*
0 $2 $3 $4 $5 $6 $7 $8 $9 X,Y pos of 4 corners*
0 Add a 4 corners polygon primitive as box body*
4,1,4,$2,$3,$4,$5,$6,$7,$8,$9,$2,$3,0*
0 Add four circle primitives for the rounded corners*
1,1,$1+$1,$2,$3*
1,1,$1+$1,$4,$5*
1,1,$1+$1,$6,$7*
1,1,$1+$1,$8,$9*
0 Add four rect primitives between the rounded corners*
20,1,$1+$1,$2,$3,$4,$5,0*
20,1,$1+$1,$4,$5,$6,$7,0*
20,1,$1+$1,$6,$7,$8,$9,0*
20,1,$1+$1,$8,$9,$2,$3,0*%
%AMFreePoly0*
4,1,21,1.545000,0.775000,0.925000,0.775000,0.925000,0.525000,1.545000,0.525000,1.545000,0.125000,0.925000,0.125000,0.925000,-0.125000,1.545000,-0.125000,1.545000,-0.525000,0.925000,-0.525000,0.925000,-0.775000,1.545000,-0.775000,1.545000,-1.175000,0.925000,-1.175000,0.925000,-1.125000,-0.925000,-1.125000,-0.925000,1.125000,0.925000,1.125000,0.925000,1.175000,1.545000,1.175000,
1.545000,0.775000,1.545000,0.775000,$1*%
G04 Aperture macros list end*
%ADD10C,0.100000*%
%ADD11C,1.524000*%
%ADD12C,1.400000*%
%ADD13C,2.020000*%
%ADD14C,1.168400*%
%ADD15R,1.100000X1.100000*%
%ADD16C,1.100000*%
%ADD17RoundRect,0.250000X-0.600000X0.600000X-0.600000X-0.600000X0.600000X-0.600000X0.600000X0.600000X0*%
%ADD18C,1.700000*%
%ADD19RoundRect,0.102000X0.810000X-0.810000X0.810000X0.810000X-0.810000X0.810000X-0.810000X-0.810000X0*%
%ADD20C,1.824000*%
%ADD21R,1.397000X1.397000*%
%ADD22C,1.397000*%
%ADD23R,0.900000X0.950000*%
%ADD24RoundRect,0.237500X-0.250000X-0.237500X0.250000X-0.237500X0.250000X0.237500X-0.250000X0.237500X0*%
%ADD25RoundRect,0.237500X0.237500X-0.250000X0.237500X0.250000X-0.237500X0.250000X-0.237500X-0.250000X0*%
%ADD26RoundRect,0.237500X-0.237500X0.300000X-0.237500X-0.300000X0.237500X-0.300000X0.237500X0.300000X0*%
%ADD27RoundRect,0.237500X-0.300000X-0.237500X0.300000X-0.237500X0.300000X0.237500X-0.300000X0.237500X0*%
%ADD28RoundRect,0.237500X0.300000X0.237500X-0.300000X0.237500X-0.300000X-0.237500X0.300000X-0.237500X0*%
%ADD29RoundRect,0.250000X-0.412500X-0.650000X0.412500X-0.650000X0.412500X0.650000X-0.412500X0.650000X0*%
%ADD30RoundRect,0.237500X-0.237500X0.250000X-0.237500X-0.250000X0.237500X-0.250000X0.237500X0.250000X0*%
%ADD31RoundRect,0.250000X0.300000X-2.050000X0.300000X2.050000X-0.300000X2.050000X-0.300000X-2.050000X0*%
%ADD32RoundRect,0.250002X5.149998X-4.449998X5.149998X4.449998X-5.149998X4.449998X-5.149998X-4.449998X0*%
%ADD33R,2.489200X1.498600*%
%ADD34R,0.950000X0.900000*%
%ADD35RoundRect,0.375000X-0.625000X-0.375000X0.625000X-0.375000X0.625000X0.375000X-0.625000X0.375000X0*%
%ADD36RoundRect,0.500000X-0.500000X-1.400000X0.500000X-1.400000X0.500000X1.400000X-0.500000X1.400000X0*%
%ADD37RoundRect,0.237500X0.237500X-0.300000X0.237500X0.300000X-0.237500X0.300000X-0.237500X-0.300000X0*%
%ADD38R,2.179320X1.620520*%
%ADD39RoundRect,0.150000X0.150000X-0.587500X0.150000X0.587500X-0.150000X0.587500X-0.150000X-0.587500X0*%
%ADD40RoundRect,0.150000X-0.150000X0.587500X-0.150000X-0.587500X0.150000X-0.587500X0.150000X0.587500X0*%
%ADD41R,0.650000X1.528000*%
%ADD42RoundRect,0.237500X0.250000X0.237500X-0.250000X0.237500X-0.250000X-0.237500X0.250000X-0.237500X0*%
%ADD43RoundRect,0.249999X1.425001X-0.450001X1.425001X0.450001X-1.425001X0.450001X-1.425001X-0.450001X0*%
%ADD44R,0.550000X1.600000*%
%ADD45RoundRect,0.250000X0.800000X-0.450000X0.800000X0.450000X-0.800000X0.450000X-0.800000X-0.450000X0*%
%ADD46R,2.794000X5.156200*%
%ADD47R,1.900000X0.400000*%
%ADD48R,2.750000X0.950000*%
%ADD49R,2.750000X3.250000*%
%ADD50R,0.700000X1.525000*%
%ADD51RoundRect,0.100000X-0.315000X-0.100000X0.315000X-0.100000X0.315000X0.100000X-0.315000X0.100000X0*%
%ADD52FreePoly0,0.000000*%
G04 APERTURE END LIST*
D10*
X16000000Y-16000000D02*
X20000000Y-16000000D01*
X20000000Y-88000000D01*
X16000000Y-88000000D01*
X16000000Y-16000000D01*
G36*
X16000000Y-16000000D02*
G01*
X20000000Y-16000000D01*
X20000000Y-88000000D01*
X16000000Y-88000000D01*
X16000000Y-16000000D01*
G37*
X65300000Y-16000000D02*
X69300000Y-16000000D01*
X69300000Y-88000000D01*
X65300000Y-88000000D01*
X65300000Y-16000000D01*
G36*
X65300000Y-16000000D02*
G01*
X69300000Y-16000000D01*
X69300000Y-88000000D01*
X65300000Y-88000000D01*
X65300000Y-16000000D01*
G37*
D11*
%TO.C,SW1*%
X23260000Y-71840000D03*
X23260000Y-82000000D03*
X25800000Y-82000000D03*
X23260000Y-74380000D03*
X23260000Y-76920000D03*
%TD*%
D12*
%TO.C,U3*%
X31790000Y-84482500D03*
X33695000Y-84482500D03*
X35600000Y-84482500D03*
%TD*%
%TO.C,U2*%
X53330000Y-84482500D03*
X55870000Y-84482500D03*
%TD*%
D13*
%TO.C,J9*%
X28960000Y-20500000D03*
X31500000Y-20500000D03*
%TD*%
D14*
%TO.C,J1*%
X33340000Y-49400000D03*
X33340000Y-50670000D03*
X32070000Y-49400000D03*
X32070000Y-50670000D03*
X30800000Y-49400000D03*
X30800000Y-50670000D03*
X29530000Y-49400000D03*
X29530000Y-50670000D03*
X28260000Y-49400000D03*
X28260000Y-50670000D03*
%TD*%
D15*
%TO.C,C29*%
X50000000Y-42750000D03*
D16*
X50000000Y-39250000D03*
%TD*%
D13*
%TO.C,J3*%
X22460000Y-20500000D03*
X25000000Y-20500000D03*
%TD*%
D17*
%TO.C,J2*%
X58500000Y-19710000D03*
D18*
X58500000Y-22250000D03*
X55960000Y-19710000D03*
X55960000Y-22250000D03*
X53420000Y-19710000D03*
X53420000Y-22250000D03*
X50880000Y-19710000D03*
X50880000Y-22250000D03*
X48340000Y-19710000D03*
X48340000Y-22250000D03*
%TD*%
D19*
%TO.C,D11*%
X63804000Y-80980000D03*
D20*
X61264000Y-80980000D03*
X63804000Y-78440000D03*
X61264000Y-78440000D03*
X63804000Y-75900000D03*
X61264000Y-75900000D03*
%TD*%
D12*
%TO.C,U1*%
X42390000Y-84482500D03*
X44295000Y-84482500D03*
X46200000Y-84482500D03*
%TD*%
D15*
%TO.C,C37*%
X50000000Y-51000000D03*
D16*
X50000000Y-47500000D03*
%TD*%
D13*
%TO.C,J10*%
X35235000Y-20500000D03*
X37775000Y-20500000D03*
%TD*%
D21*
%TO.C,C19*%
X50000000Y-34000000D03*
D22*
X50000000Y-29000000D03*
%TD*%
D23*
%TO.C,D19*%
X43400000Y-32500000D03*
X40250000Y-32500000D03*
%TD*%
%TO.C,D3*%
X21175000Y-59000000D03*
X24325000Y-59000000D03*
%TD*%
D24*
%TO.C,R21*%
X41587500Y-73250000D03*
X43412500Y-73250000D03*
%TD*%
D25*
%TO.C,R8*%
X38000000Y-79912500D03*
X38000000Y-78087500D03*
%TD*%
D26*
%TO.C,C18*%
X42500000Y-55137500D03*
X42500000Y-56862500D03*
%TD*%
D23*
%TO.C,D8*%
X40500000Y-49750000D03*
X37350000Y-49750000D03*
%TD*%
D27*
%TO.C,C15*%
X45137500Y-26000000D03*
X46862500Y-26000000D03*
%TD*%
D26*
%TO.C,C53*%
X35000000Y-42775000D03*
X35000000Y-44500000D03*
%TD*%
D28*
%TO.C,C16*%
X38380600Y-71600000D03*
X36655600Y-71600000D03*
%TD*%
D29*
%TO.C,C55*%
X22187500Y-37000000D03*
X25312500Y-37000000D03*
%TD*%
D23*
%TO.C,D17*%
X31325000Y-32500000D03*
X28175000Y-32500000D03*
%TD*%
D25*
%TO.C,R22*%
X42250000Y-71412500D03*
X42250000Y-69587500D03*
%TD*%
D30*
%TO.C,R16*%
X41000000Y-65687500D03*
X41000000Y-67512500D03*
%TD*%
D31*
%TO.C,U7*%
X60650000Y-38275000D03*
X58950000Y-38275000D03*
X57250000Y-38275000D03*
D32*
X57250000Y-29125000D03*
D31*
X55550000Y-38275000D03*
X53850000Y-38275000D03*
%TD*%
D26*
%TO.C,C38*%
X49750000Y-63887500D03*
X49750000Y-65612500D03*
%TD*%
D33*
%TO.C,L4*%
X28501200Y-65000000D03*
X28501200Y-68000000D03*
X21998800Y-68000000D03*
X21998800Y-65000000D03*
%TD*%
D26*
%TO.C,C22*%
X64000000Y-40137500D03*
X64000000Y-41862500D03*
%TD*%
D28*
%TO.C,C25*%
X24612500Y-18000000D03*
X22887500Y-18000000D03*
%TD*%
D34*
%TO.C,D1*%
X47250000Y-64825000D03*
X47250000Y-61675000D03*
%TD*%
D24*
%TO.C,R25*%
X22662500Y-34750000D03*
X24487500Y-34750000D03*
%TD*%
D35*
%TO.C,U8*%
X52100000Y-65300000D03*
X52100000Y-63000000D03*
D36*
X58400000Y-63000000D03*
D35*
X52100000Y-60700000D03*
%TD*%
D25*
%TO.C,R1*%
X45000000Y-62750000D03*
X45000000Y-60925000D03*
%TD*%
D37*
%TO.C,C39*%
X49750000Y-61862500D03*
X49750000Y-60137500D03*
%TD*%
D34*
%TO.C,D6*%
X25750000Y-52825000D03*
X25750000Y-49675000D03*
%TD*%
D38*
%TO.C,D13*%
X62500000Y-57610740D03*
X62500000Y-53389260D03*
%TD*%
D23*
%TO.C,D15*%
X38075000Y-73500000D03*
X34925000Y-73500000D03*
%TD*%
D39*
%TO.C,U6*%
X46700000Y-30250000D03*
X44800000Y-30250000D03*
X45750000Y-28375000D03*
%TD*%
D25*
%TO.C,R7*%
X27000000Y-56662500D03*
X27000000Y-54837500D03*
%TD*%
D40*
%TO.C,Q1*%
X48550000Y-78625000D03*
X50450000Y-78625000D03*
X49500000Y-80500000D03*
%TD*%
D30*
%TO.C,R30*%
X39000000Y-52587500D03*
X39000000Y-54412500D03*
%TD*%
D23*
%TO.C,D5*%
X21175000Y-61500000D03*
X24325000Y-61500000D03*
%TD*%
D41*
%TO.C,IC4*%
X28520000Y-46172000D03*
X27250000Y-46172000D03*
X25980000Y-46172000D03*
X24710000Y-46172000D03*
X24710000Y-40750000D03*
X25980000Y-40750000D03*
X27250000Y-40750000D03*
X28520000Y-40750000D03*
%TD*%
D27*
%TO.C,C14*%
X36655600Y-68000000D03*
X38380600Y-68000000D03*
%TD*%
%TO.C,C1*%
X48637500Y-84750000D03*
X50362500Y-84750000D03*
%TD*%
D23*
%TO.C,D20*%
X37325000Y-32500000D03*
X34175000Y-32500000D03*
%TD*%
D27*
%TO.C,C44*%
X36637500Y-66250000D03*
X38362500Y-66250000D03*
%TD*%
D37*
%TO.C,C10*%
X34750000Y-65612500D03*
X34750000Y-63887500D03*
%TD*%
D26*
%TO.C,C20*%
X49750000Y-52387500D03*
X49750000Y-54112500D03*
%TD*%
%TO.C,C34*%
X49750000Y-56387500D03*
X49750000Y-58112500D03*
%TD*%
D42*
%TO.C,R3*%
X50412500Y-82750000D03*
X48587500Y-82750000D03*
%TD*%
D37*
%TO.C,C9*%
X33000000Y-65612500D03*
X33000000Y-63887500D03*
%TD*%
D38*
%TO.C,D14*%
X62500000Y-65110740D03*
X62500000Y-60889260D03*
%TD*%
D41*
%TO.C,IC5*%
X40580000Y-46172000D03*
X39310000Y-46172000D03*
X38040000Y-46172000D03*
X36770000Y-46172000D03*
X36770000Y-40750000D03*
X38040000Y-40750000D03*
X39310000Y-40750000D03*
X40580000Y-40750000D03*
%TD*%
D27*
%TO.C,C21*%
X40137500Y-63750000D03*
X41862500Y-63750000D03*
%TD*%
D37*
%TO.C,C35*%
X47750000Y-54112500D03*
X47750000Y-52387500D03*
%TD*%
D26*
%TO.C,C3*%
X45000000Y-64387500D03*
X45000000Y-66112500D03*
%TD*%
D27*
%TO.C,C46*%
X36637500Y-64530400D03*
X38362500Y-64530400D03*
%TD*%
D30*
%TO.C,R23*%
X40500000Y-56337500D03*
X40500000Y-58162500D03*
%TD*%
D28*
%TO.C,C41*%
X43362500Y-75000000D03*
X41637500Y-75000000D03*
%TD*%
D25*
%TO.C,R5*%
X26000000Y-73912500D03*
X26000000Y-72087500D03*
%TD*%
D30*
%TO.C,R18*%
X44000000Y-69587500D03*
X44000000Y-71412500D03*
%TD*%
D26*
%TO.C,C27*%
X64000000Y-36637500D03*
X64000000Y-38362500D03*
%TD*%
D43*
%TO.C,R6*%
X22250000Y-56550000D03*
X22250000Y-50450000D03*
%TD*%
D44*
%TO.C,L2*%
X33275000Y-67750000D03*
X34725000Y-67750000D03*
%TD*%
D26*
%TO.C,C36*%
X47750000Y-56387500D03*
X47750000Y-58112500D03*
%TD*%
D42*
%TO.C,R20*%
X46912500Y-73250000D03*
X45087500Y-73250000D03*
%TD*%
D29*
%TO.C,C57*%
X34187500Y-37000000D03*
X37312500Y-37000000D03*
%TD*%
D26*
%TO.C,C28*%
X50000000Y-44387500D03*
X50000000Y-46112500D03*
%TD*%
D24*
%TO.C,R19*%
X45087500Y-75000000D03*
X46912500Y-75000000D03*
%TD*%
D26*
%TO.C,C4*%
X39000000Y-81887500D03*
X39000000Y-83612500D03*
%TD*%
D24*
%TO.C,R26*%
X40587500Y-34750000D03*
X42412500Y-34750000D03*
%TD*%
%TO.C,R24*%
X28587500Y-34750000D03*
X30412500Y-34750000D03*
%TD*%
D23*
%TO.C,D2*%
X26425000Y-59000000D03*
X29575000Y-59000000D03*
%TD*%
D37*
%TO.C,C7*%
X31250000Y-65612500D03*
X31250000Y-63887500D03*
%TD*%
D42*
%TO.C,R13*%
X64162500Y-70750000D03*
X62337500Y-70750000D03*
%TD*%
%TO.C,R14*%
X64162500Y-68000000D03*
X62337500Y-68000000D03*
%TD*%
D27*
%TO.C,C24*%
X40137500Y-62000000D03*
X41862500Y-62000000D03*
%TD*%
D29*
%TO.C,C54*%
X28187500Y-37000000D03*
X31312500Y-37000000D03*
%TD*%
D24*
%TO.C,R17*%
X45337500Y-32750000D03*
X47162500Y-32750000D03*
%TD*%
D34*
%TO.C,D9*%
X47500000Y-50575000D03*
X47500000Y-47425000D03*
%TD*%
D42*
%TO.C,R12*%
X64162500Y-73500000D03*
X62337500Y-73500000D03*
%TD*%
D45*
%TO.C,D12*%
X63500000Y-48450000D03*
X63500000Y-44050000D03*
%TD*%
D37*
%TO.C,C2*%
X25250000Y-56612500D03*
X25250000Y-54887500D03*
%TD*%
D27*
%TO.C,C17*%
X36655600Y-69800000D03*
X38380600Y-69800000D03*
%TD*%
D23*
%TO.C,D18*%
X25325000Y-32500000D03*
X22175000Y-32500000D03*
%TD*%
D24*
%TO.C,R27*%
X34587500Y-34750000D03*
X36412500Y-34750000D03*
%TD*%
D26*
%TO.C,C12*%
X42500000Y-51637500D03*
X42500000Y-53362500D03*
%TD*%
D46*
%TO.C,L1*%
X59802000Y-46250000D03*
X53198000Y-46250000D03*
%TD*%
D30*
%TO.C,R11*%
X45000000Y-51587500D03*
X45000000Y-53412500D03*
%TD*%
D26*
%TO.C,C6*%
X28000000Y-72137500D03*
X28000000Y-73862500D03*
%TD*%
D24*
%TO.C,R2*%
X48587500Y-76250000D03*
X50412500Y-76250000D03*
%TD*%
D47*
%TO.C,U4*%
X36175000Y-58950000D03*
X36175000Y-57750000D03*
X36175000Y-56550000D03*
%TD*%
D25*
%TO.C,R9*%
X42500000Y-49912500D03*
X42500000Y-48087500D03*
%TD*%
D29*
%TO.C,C56*%
X40187500Y-37000000D03*
X43312500Y-37000000D03*
%TD*%
D48*
%TO.C,IC2*%
X52800000Y-57800000D03*
X52800000Y-55500000D03*
X52800000Y-53200000D03*
D49*
X58000000Y-55500000D03*
%TD*%
D26*
%TO.C,C11*%
X45000000Y-55137500D03*
X45000000Y-56862500D03*
%TD*%
D25*
%TO.C,R15*%
X42800000Y-67512500D03*
X42800000Y-65687500D03*
%TD*%
D37*
%TO.C,C8*%
X28750000Y-56612500D03*
X28750000Y-54887500D03*
%TD*%
D26*
%TO.C,C5*%
X31250000Y-67387500D03*
X31250000Y-69112500D03*
%TD*%
%TO.C,C52*%
X30270000Y-42637500D03*
X30270000Y-44362500D03*
%TD*%
D50*
%TO.C,IC1*%
X51650000Y-68000000D03*
X52920000Y-68000000D03*
X54190000Y-68000000D03*
X55460000Y-68000000D03*
X56730000Y-68000000D03*
X58000000Y-68000000D03*
X59270000Y-68000000D03*
X60540000Y-68000000D03*
X60540000Y-73424000D03*
X59270000Y-73424000D03*
X58000000Y-73424000D03*
X56730000Y-73424000D03*
X55460000Y-73424000D03*
X54190000Y-73424000D03*
X52920000Y-73424000D03*
X51650000Y-73424000D03*
%TD*%
D51*
%TO.C,Q2*%
X46250000Y-71550000D03*
X46250000Y-70900000D03*
X46250000Y-70250000D03*
X46250000Y-69600000D03*
D52*
X48190000Y-70575000D03*
%TD*%
D26*
%TO.C,C26*%
X31750000Y-54137500D03*
X31750000Y-55862500D03*
%TD*%
D23*
%TO.C,D4*%
X26425000Y-61500000D03*
X29575000Y-61500000D03*
%TD*%
D25*
%TO.C,R4*%
X40000000Y-79912500D03*
X40000000Y-78087500D03*
%TD*%
M02*
