%TF.GenerationSoftware,KiCad,Pcbnew,8.0.4*%
%TF.CreationDate,2024-11-10T12:25:31-05:00*%
%TF.ProjectId,booster-tc-driver,626f6f73-7465-4722-9d74-632d64726976,rev?*%
%TF.SameCoordinates,Original*%
%TF.FileFunction,Copper,L3,Inr*%
%TF.FilePolarity,Positive*%
%FSLAX46Y46*%
G04 Gerber Fmt 4.6, Leading zero omitted, Abs format (unit mm)*
G04 Created by KiCad (PCBNEW 8.0.4) date 2024-11-10 12:25:31*
%MOMM*%
%LPD*%
G01*
G04 APERTURE LIST*
G04 Aperture macros list*
%AMRoundRect*
0 Rectangle with rounded corners*
0 $1 Rounding radius*
0 $2 $3 $4 $5 $6 $7 $8 $9 X,Y pos of 4 corners*
0 Add a 4 corners polygon primitive as box body*
4,1,4,$2,$3,$4,$5,$6,$7,$8,$9,$2,$3,0*
0 Add four circle primitives for the rounded corners*
1,1,$1+$1,$2,$3*
1,1,$1+$1,$4,$5*
1,1,$1+$1,$6,$7*
1,1,$1+$1,$8,$9*
0 Add four rect primitives between the rounded corners*
20,1,$1+$1,$2,$3,$4,$5,0*
20,1,$1+$1,$4,$5,$6,$7,0*
20,1,$1+$1,$6,$7,$8,$9,0*
20,1,$1+$1,$8,$9,$2,$3,0*%
G04 Aperture macros list end*
%TA.AperFunction,ComponentPad*%
%ADD10C,1.524000*%
%TD*%
%TA.AperFunction,ComponentPad*%
%ADD11C,1.400000*%
%TD*%
%TA.AperFunction,ComponentPad*%
%ADD12C,2.020000*%
%TD*%
%TA.AperFunction,ComponentPad*%
%ADD13C,1.168400*%
%TD*%
%TA.AperFunction,ComponentPad*%
%ADD14R,1.100000X1.100000*%
%TD*%
%TA.AperFunction,ComponentPad*%
%ADD15C,1.100000*%
%TD*%
%TA.AperFunction,ComponentPad*%
%ADD16RoundRect,0.250000X-0.600000X0.600000X-0.600000X-0.600000X0.600000X-0.600000X0.600000X0.600000X0*%
%TD*%
%TA.AperFunction,ComponentPad*%
%ADD17C,1.700000*%
%TD*%
%TA.AperFunction,ComponentPad*%
%ADD18R,1.620000X1.620000*%
%TD*%
%TA.AperFunction,ComponentPad*%
%ADD19C,1.620000*%
%TD*%
%TA.AperFunction,ComponentPad*%
%ADD20R,1.397000X1.397000*%
%TD*%
%TA.AperFunction,ComponentPad*%
%ADD21C,1.397000*%
%TD*%
%TA.AperFunction,ViaPad*%
%ADD22C,0.600000*%
%TD*%
%TA.AperFunction,Conductor*%
%ADD23C,0.500000*%
%TD*%
%TA.AperFunction,Conductor*%
%ADD24C,1.000000*%
%TD*%
%TA.AperFunction,Conductor*%
%ADD25C,0.200000*%
%TD*%
G04 APERTURE END LIST*
D10*
%TO.N,GND*%
%TO.C,SW1*%
X23260000Y-71840000D03*
X23260000Y-82000000D03*
X25800000Y-82000000D03*
%TO.N,Net-(SW1-B)*%
X23260000Y-74380000D03*
%TO.N,VDD*%
X23260000Y-76920000D03*
%TD*%
D11*
%TO.N,GND*%
%TO.C,U3*%
X31790000Y-84482500D03*
%TO.N,INT*%
X33695000Y-84482500D03*
%TO.N,+5V*%
X35600000Y-84482500D03*
%TD*%
%TO.N,Net-(U2-K)*%
%TO.C,U2*%
X53330000Y-84482500D03*
%TO.N,+5V*%
X55870000Y-84482500D03*
%TD*%
D12*
%TO.N,GDT1_B*%
%TO.C,J9*%
X28960000Y-20500000D03*
%TO.N,GDT1_A*%
X31500000Y-20500000D03*
%TD*%
D13*
%TO.N,VDD*%
%TO.C,J1*%
X33340000Y-49400000D03*
%TO.N,TMS*%
X33340000Y-50670000D03*
%TO.N,GND*%
X32070000Y-49400000D03*
%TO.N,TCK*%
X32070000Y-50670000D03*
%TO.N,GND*%
X30800000Y-49400000D03*
%TO.N,TDO*%
X30800000Y-50670000D03*
%TO.N,unconnected-(J1-Pad7)*%
X29530000Y-49400000D03*
%TO.N,TDI*%
X29530000Y-50670000D03*
%TO.N,GND*%
X28260000Y-49400000D03*
%TO.N,RST*%
X28260000Y-50670000D03*
%TD*%
D14*
%TO.N,+12V*%
%TO.C,C29*%
X50000000Y-42750000D03*
D15*
%TO.N,GND*%
X50000000Y-39250000D03*
%TD*%
D12*
%TO.N,GND*%
%TO.C,J3*%
X22460000Y-20500000D03*
%TO.N,+24V*%
X25000000Y-20500000D03*
%TD*%
D16*
%TO.N,+24V*%
%TO.C,J2*%
X58500000Y-19710000D03*
D17*
%TO.N,I_L_IN*%
X58500000Y-22250000D03*
%TO.N,GND*%
X55960000Y-19710000D03*
%TO.N,Net-(J2-Pin_4)*%
X55960000Y-22250000D03*
%TO.N,GND*%
X53420000Y-19710000D03*
%TO.N,Net-(J2-Pin_6)*%
X53420000Y-22250000D03*
%TO.N,GND*%
X50880000Y-19710000D03*
%TO.N,VBUS_IN*%
X50880000Y-22250000D03*
%TO.N,+5V*%
X48340000Y-19710000D03*
%TO.N,VAC_IN*%
X48340000Y-22250000D03*
%TD*%
D18*
%TO.N,+5V*%
%TO.C,D11*%
X63804000Y-80980000D03*
D19*
%TO.N,Net-(IC1-LED1)*%
X61264000Y-80980000D03*
%TO.N,+5V*%
X63804000Y-78440000D03*
%TO.N,Net-(IC1-LED2)*%
X61264000Y-78440000D03*
%TO.N,+5V*%
X63804000Y-75900000D03*
%TO.N,Net-(IC1-LED3)*%
X61264000Y-75900000D03*
%TD*%
D11*
%TO.N,GND*%
%TO.C,U1*%
X42390000Y-84482500D03*
%TO.N,USART_RX*%
X44295000Y-84482500D03*
%TO.N,+5V*%
X46200000Y-84482500D03*
%TD*%
D14*
%TO.N,VDD*%
%TO.C,C37*%
X50000000Y-51000000D03*
D15*
%TO.N,GND*%
X50000000Y-47500000D03*
%TD*%
D12*
%TO.N,GDT2_B*%
%TO.C,J10*%
X35235000Y-20500000D03*
%TO.N,GDT2_A*%
X37775000Y-20500000D03*
%TD*%
D20*
%TO.N,+24V*%
%TO.C,C19*%
X50000000Y-34000000D03*
D21*
%TO.N,GND*%
X50000000Y-29000000D03*
%TD*%
D22*
%TO.N,GND*%
X41500000Y-56000000D03*
X67500000Y-64500000D03*
X18000000Y-17000000D03*
X67500000Y-67000000D03*
X44750000Y-70750000D03*
X44750000Y-71412500D03*
X67500000Y-84500000D03*
X67500000Y-44500000D03*
X48681250Y-53318750D03*
X18000000Y-29500000D03*
X41500000Y-53250000D03*
X18000000Y-27000000D03*
X67500000Y-27000000D03*
X18000000Y-69500000D03*
X67500000Y-59500000D03*
X60560000Y-50000000D03*
X18000000Y-67000000D03*
X67500000Y-17000000D03*
X41637500Y-74000000D03*
X32750000Y-44362500D03*
X67500000Y-74500000D03*
X37400000Y-70600000D03*
X53750000Y-57000000D03*
X67500000Y-22000000D03*
X67500000Y-19500000D03*
X18000000Y-32000000D03*
X48750000Y-58000000D03*
X35750000Y-65500000D03*
X30000000Y-63500000D03*
X18000000Y-74500000D03*
X45500000Y-27000000D03*
X67500000Y-37000000D03*
X67500000Y-24500000D03*
X27750000Y-38750000D03*
X45500000Y-71412500D03*
X67500000Y-32000000D03*
X18000000Y-59500000D03*
X33000000Y-56000000D03*
X38250000Y-63500000D03*
X18000000Y-52000000D03*
X18000000Y-57000000D03*
X18000000Y-84500000D03*
X18000000Y-24500000D03*
X67500000Y-87000000D03*
X67500000Y-47000000D03*
X53500000Y-63000000D03*
X18000000Y-54500000D03*
X18000000Y-22000000D03*
X18000000Y-87000000D03*
X33750000Y-55250000D03*
X18000000Y-19500000D03*
X67500000Y-57000000D03*
X18000000Y-72000000D03*
X50750000Y-60000000D03*
X67500000Y-79500000D03*
X45500000Y-70750000D03*
X52250000Y-68000000D03*
X18000000Y-79500000D03*
X18000000Y-82000000D03*
X67500000Y-29500000D03*
X38400000Y-67200000D03*
X67500000Y-42000000D03*
X39750000Y-38750000D03*
X46000000Y-66250000D03*
X67500000Y-39500000D03*
X30000000Y-69500000D03*
X49750000Y-66750000D03*
X67500000Y-52000000D03*
X37382500Y-44362500D03*
X18000000Y-42000000D03*
X67500000Y-62000000D03*
X42000000Y-64750000D03*
X51500000Y-84750000D03*
X67500000Y-72000000D03*
X50500000Y-79750000D03*
X67500000Y-69500000D03*
X18000000Y-37000000D03*
X36250000Y-61250000D03*
X39000000Y-84750000D03*
X18000000Y-44500000D03*
X33750000Y-38750000D03*
X18000000Y-49500000D03*
X67500000Y-77000000D03*
X18000000Y-47000000D03*
X67500000Y-49500000D03*
X21750000Y-38750000D03*
X28760000Y-54000000D03*
X67500000Y-82000000D03*
X18000000Y-62000000D03*
X28000000Y-75000000D03*
X67500000Y-34500000D03*
X26020000Y-45000000D03*
X18000000Y-39500000D03*
X18000000Y-77000000D03*
X34750000Y-57750000D03*
X18000000Y-34500000D03*
X18000000Y-64500000D03*
X67500000Y-54500000D03*
%TO.N,+5V*%
X64250000Y-57500000D03*
%TO.N,VDD*%
X35000000Y-75000000D03*
X53500000Y-60750000D03*
X25750000Y-50500000D03*
X47250000Y-63250000D03*
X35750000Y-66750000D03*
X51000000Y-73250000D03*
X32500000Y-54750000D03*
X39000000Y-63500000D03*
X41500000Y-55250000D03*
X62750000Y-66500000D03*
%TO.N,USART_RX*%
X39000000Y-78250000D03*
%TO.N,INT*%
X39000000Y-77500000D03*
%TO.N,I_L*%
X45000000Y-62000000D03*
X39000000Y-59250000D03*
%TO.N,CT+*%
X26425000Y-63000000D03*
%TO.N,MODE_IN*%
X33750000Y-61000000D03*
%TO.N,CT-*%
X28000000Y-63000000D03*
%TO.N,I_PRI*%
X29250000Y-57500000D03*
%TO.N,VREF*%
X36000000Y-63500000D03*
X39300000Y-66021001D03*
%TO.N,VBUS_SENSE*%
X39000000Y-58500000D03*
X44000000Y-57750000D03*
%TO.N,VAC_SENSE*%
X42375000Y-60875000D03*
%TO.N,VDDA*%
X37000000Y-63500000D03*
%TO.N,THERM2*%
X41500000Y-68900000D03*
X43056250Y-66549143D03*
X33000000Y-59500000D03*
%TO.N,THERM1*%
X33000000Y-60250000D03*
X41400000Y-66600000D03*
X40900000Y-68500000D03*
%TO.N,+24V*%
X61750000Y-40000000D03*
X36250000Y-38750000D03*
X42250000Y-38750000D03*
X24250000Y-38750000D03*
X57000000Y-75000000D03*
X30250000Y-38750000D03*
X61750000Y-38250000D03*
X61750000Y-39250000D03*
%TO.N,+12V*%
X37625000Y-41875000D03*
X55500000Y-34750000D03*
X55500000Y-35500000D03*
%TO.N,THERM_BOARD*%
X39000000Y-60400000D03*
%TO.N,Net-(Q2-D)*%
X50250000Y-70250000D03*
X50250000Y-71000000D03*
X50250000Y-71750000D03*
X50250000Y-69500000D03*
%TO.N,24V_SENSE*%
X38150000Y-72650000D03*
%TO.N,Net-(U10-G2)*%
X31500000Y-38750000D03*
%TO.N,Net-(IC4-OUT_A)*%
X29000000Y-38750000D03*
%TO.N,Net-(IC4-OUT_B)*%
X23000000Y-38750000D03*
%TO.N,Net-(U11-G2)*%
X25500000Y-38750000D03*
%TO.N,Net-(U12-G2)*%
X43500000Y-38750000D03*
%TO.N,Net-(IC5-OUT_A)*%
X41000000Y-38750000D03*
%TO.N,Net-(IC5-OUT_B)*%
X35000000Y-38750000D03*
%TO.N,Net-(U13-G2)*%
X37500000Y-38750000D03*
%TO.N,Net-(U10-D1)*%
X28750000Y-31000000D03*
X31750000Y-31000000D03*
X29750000Y-31000000D03*
X30250000Y-30250000D03*
X28250000Y-30250000D03*
X27250000Y-30250000D03*
X27750000Y-31000000D03*
X31250000Y-30250000D03*
X29250000Y-30250000D03*
X30750000Y-31000000D03*
%TO.N,Net-(U12-D1)*%
X43750000Y-31000000D03*
X39250000Y-30250000D03*
X39750000Y-31000000D03*
X41250000Y-30250000D03*
X40250000Y-30250000D03*
X42750000Y-31000000D03*
X43250000Y-30250000D03*
X40750000Y-31000000D03*
X41750000Y-31000000D03*
X42250000Y-30250000D03*
%TO.N,LED_TMP*%
X53250000Y-72250000D03*
%TO.N,LED_VBUS*%
X52500000Y-72250000D03*
%TO.N,LED_I_IN*%
X54000000Y-72250000D03*
%TO.N,GDT1_DIS*%
X28520000Y-42000000D03*
X28520000Y-45000000D03*
%TO.N,GDT_A*%
X27250000Y-47250000D03*
X39250000Y-47250000D03*
X32500000Y-46750000D03*
%TO.N,GDT_B*%
X36750000Y-47250000D03*
X24750000Y-47250000D03*
%TO.N,GDT2_DIS*%
X40520000Y-45000000D03*
X40580000Y-42000000D03*
%TO.N,TDO*%
X36800000Y-52800000D03*
%TO.N,TCK*%
X38000000Y-52000000D03*
%TO.N,TDI*%
X37400000Y-52400000D03*
%TO.N,TMS*%
X38600000Y-51600000D03*
%TO.N,VBUS_IN*%
X46500000Y-42750000D03*
%TO.N,I_L_IN*%
X45750000Y-60750000D03*
%TO.N,VAC_IN*%
X42500000Y-47000000D03*
%TO.N,PFC*%
X41750000Y-57912500D03*
%TO.N,SCR*%
X36500000Y-60250000D03*
%TO.N,GDT1_B*%
X22250000Y-30250000D03*
X24250000Y-30250000D03*
X21250000Y-30250000D03*
X23750000Y-31000000D03*
X21750000Y-31000000D03*
X24750000Y-31000000D03*
X22750000Y-31000000D03*
X23250000Y-30250000D03*
X25250000Y-30250000D03*
X25750000Y-31000000D03*
%TO.N,GDT2_B*%
X37250000Y-30250000D03*
X35750000Y-31000000D03*
X34750000Y-31000000D03*
X36750000Y-31000000D03*
X33250000Y-30250000D03*
X34250000Y-30250000D03*
X36250000Y-30250000D03*
X37750000Y-31000000D03*
X33750000Y-31000000D03*
X35250000Y-30250000D03*
%TO.N,USART_TX*%
X44500000Y-74250000D03*
%TO.N,Net-(U4-INPUT)*%
X34750000Y-58500000D03*
%TO.N,Net-(U4-OUTPUT)*%
X34750000Y-57000000D03*
%TO.N,FAN_EN*%
X41400000Y-71400000D03*
%TO.N,Net-(J4-Pad1)*%
X22000000Y-63500000D03*
%TO.N,Net-(J4-Pad2)*%
X22250000Y-66500000D03*
%TO.N,FAN_PWM*%
X53800000Y-59600000D03*
X46500000Y-58912500D03*
%TO.N,Net-(J2-Pin_6)*%
X39250000Y-51250000D03*
%TO.N,Net-(J2-Pin_4)*%
X40500000Y-54500000D03*
%TD*%
D23*
%TO.N,+5V*%
X35600000Y-84482500D02*
X36867500Y-85750000D01*
X44932500Y-85750000D02*
X46200000Y-84482500D01*
D24*
X66000000Y-19750000D02*
X66000000Y-53500000D01*
D23*
X46200000Y-84482500D02*
X47250000Y-85532500D01*
D24*
X48340000Y-19710000D02*
X51050000Y-17000000D01*
D23*
X54820000Y-85532500D02*
X55870000Y-84482500D01*
D24*
X66000000Y-53500000D02*
X66000000Y-57500000D01*
D23*
X47250000Y-85532500D02*
X54820000Y-85532500D01*
D24*
X66000000Y-73704000D02*
X63804000Y-75900000D01*
X63804000Y-80980000D02*
X60301500Y-84482500D01*
X64250000Y-57500000D02*
X66000000Y-57500000D01*
X66000000Y-57500000D02*
X66000000Y-73704000D01*
X51050000Y-17000000D02*
X63250000Y-17000000D01*
X63250000Y-17000000D02*
X66000000Y-19750000D01*
X60301500Y-84482500D02*
X55870000Y-84482500D01*
X63804000Y-78440000D02*
X63804000Y-80980000D01*
D23*
X36867500Y-85750000D02*
X44932500Y-85750000D01*
D24*
X63804000Y-75900000D02*
X63804000Y-78440000D01*
D25*
%TO.N,USART_RX*%
X44250000Y-84437500D02*
X44295000Y-84482500D01*
D23*
%TO.N,+12V*%
X37625000Y-41875000D02*
X38150000Y-41350000D01*
X49350000Y-41350000D02*
X50000000Y-42000000D01*
X38150000Y-41350000D02*
X49350000Y-41350000D01*
D25*
%TO.N,GDT1_DIS*%
X28520000Y-45000000D02*
X28520000Y-42000000D01*
%TO.N,GDT_A*%
X27750000Y-46750000D02*
X38750000Y-46750000D01*
X38750000Y-46750000D02*
X39250000Y-47250000D01*
X27250000Y-47250000D02*
X27750000Y-46750000D01*
%TO.N,GDT_B*%
X25250000Y-47750000D02*
X24750000Y-47250000D01*
X36250000Y-47750000D02*
X25250000Y-47750000D01*
X36750000Y-47250000D02*
X36250000Y-47750000D01*
%TO.N,GDT2_DIS*%
X40520000Y-42060000D02*
X40580000Y-42000000D01*
X40520000Y-45000000D02*
X40520000Y-42060000D01*
%TD*%
%TA.AperFunction,Conductor*%
%TO.N,+24V*%
G36*
X58034075Y-19902993D02*
G01*
X58099901Y-20017007D01*
X58192993Y-20110099D01*
X58307007Y-20175925D01*
X58434174Y-20210000D01*
X58124000Y-20210000D01*
X58056961Y-20190315D01*
X58011206Y-20137511D01*
X58000000Y-20086000D01*
X58000000Y-19775826D01*
X58034075Y-19902993D01*
G37*
%TD.AperFunction*%
%TA.AperFunction,Conductor*%
G36*
X50077020Y-16769685D02*
G01*
X50122775Y-16822489D01*
X50132719Y-16891647D01*
X50103694Y-16955203D01*
X50097662Y-16961681D01*
X48440574Y-18618767D01*
X48379251Y-18652252D01*
X48346091Y-18654180D01*
X48346091Y-18654417D01*
X48342028Y-18654417D01*
X48340756Y-18654491D01*
X48340004Y-18654417D01*
X48340001Y-18654417D01*
X48340000Y-18654417D01*
X48319718Y-18656414D01*
X48134067Y-18674699D01*
X47936043Y-18734769D01*
X47831078Y-18790875D01*
X47753550Y-18832315D01*
X47753548Y-18832316D01*
X47753547Y-18832317D01*
X47593589Y-18963589D01*
X47462317Y-19123547D01*
X47364769Y-19306043D01*
X47304699Y-19504067D01*
X47284417Y-19710000D01*
X47304699Y-19915932D01*
X47327167Y-19990000D01*
X47364768Y-20113954D01*
X47462315Y-20296450D01*
X47462316Y-20296451D01*
X47462317Y-20296452D01*
X47593589Y-20456410D01*
X47646706Y-20500001D01*
X47753550Y-20587685D01*
X47936046Y-20685232D01*
X48134066Y-20745300D01*
X48134065Y-20745300D01*
X48152529Y-20747118D01*
X48340000Y-20765583D01*
X48545934Y-20745300D01*
X48743954Y-20685232D01*
X48926450Y-20587685D01*
X49086410Y-20456410D01*
X49217685Y-20296450D01*
X49315232Y-20113954D01*
X49375300Y-19915934D01*
X49395583Y-19710000D01*
X49395510Y-19709259D01*
X49395583Y-19708875D01*
X49395583Y-19703907D01*
X49396525Y-19703907D01*
X49408528Y-19640614D01*
X49431232Y-19609424D01*
X49523649Y-19517007D01*
X49633310Y-19407345D01*
X49694631Y-19373862D01*
X49764322Y-19378846D01*
X49820256Y-19420717D01*
X49844673Y-19486182D01*
X49844392Y-19507182D01*
X49824417Y-19709999D01*
X49844699Y-19915932D01*
X49867167Y-19990000D01*
X49904768Y-20113954D01*
X50002315Y-20296450D01*
X50002316Y-20296451D01*
X50002317Y-20296452D01*
X50133589Y-20456410D01*
X50186706Y-20500001D01*
X50293550Y-20587685D01*
X50476046Y-20685232D01*
X50674066Y-20745300D01*
X50674065Y-20745300D01*
X50692529Y-20747118D01*
X50880000Y-20765583D01*
X51085934Y-20745300D01*
X51283954Y-20685232D01*
X51466450Y-20587685D01*
X51626410Y-20456410D01*
X51757685Y-20296450D01*
X51855232Y-20113954D01*
X51915300Y-19915934D01*
X51935583Y-19710000D01*
X52364417Y-19710000D01*
X52384699Y-19915932D01*
X52407167Y-19990000D01*
X52444768Y-20113954D01*
X52542315Y-20296450D01*
X52542316Y-20296451D01*
X52542317Y-20296452D01*
X52673589Y-20456410D01*
X52726706Y-20500001D01*
X52833550Y-20587685D01*
X53016046Y-20685232D01*
X53214066Y-20745300D01*
X53214065Y-20745300D01*
X53232529Y-20747118D01*
X53420000Y-20765583D01*
X53625934Y-20745300D01*
X53823954Y-20685232D01*
X54006450Y-20587685D01*
X54166410Y-20456410D01*
X54297685Y-20296450D01*
X54395232Y-20113954D01*
X54455300Y-19915934D01*
X54475583Y-19710000D01*
X54904417Y-19710000D01*
X54924699Y-19915932D01*
X54947167Y-19990000D01*
X54984768Y-20113954D01*
X55082315Y-20296450D01*
X55082316Y-20296451D01*
X55082317Y-20296452D01*
X55213589Y-20456410D01*
X55266706Y-20500001D01*
X55373550Y-20587685D01*
X55556046Y-20685232D01*
X55754066Y-20745300D01*
X55754065Y-20745300D01*
X55772529Y-20747118D01*
X55960000Y-20765583D01*
X56165934Y-20745300D01*
X56363954Y-20685232D01*
X56546450Y-20587685D01*
X56706410Y-20456410D01*
X56837685Y-20296450D01*
X56916643Y-20148730D01*
X56965604Y-20098887D01*
X57033742Y-20083427D01*
X57099422Y-20107259D01*
X57141790Y-20162816D01*
X57150000Y-20207184D01*
X57150000Y-20359970D01*
X57150001Y-20359987D01*
X57160494Y-20462697D01*
X57215641Y-20629119D01*
X57215643Y-20629124D01*
X57307684Y-20778345D01*
X57431654Y-20902315D01*
X57580875Y-20994356D01*
X57580880Y-20994358D01*
X57747302Y-21049505D01*
X57747309Y-21049506D01*
X57850019Y-21059999D01*
X58002812Y-21059999D01*
X58069852Y-21079683D01*
X58115607Y-21132487D01*
X58125551Y-21201645D01*
X58096526Y-21265201D01*
X58061267Y-21293357D01*
X57957835Y-21348643D01*
X57913550Y-21372315D01*
X57913548Y-21372316D01*
X57913547Y-21372317D01*
X57753589Y-21503589D01*
X57622317Y-21663547D01*
X57524769Y-21846043D01*
X57464699Y-22044067D01*
X57444417Y-22250000D01*
X57464699Y-22455932D01*
X57464700Y-22455934D01*
X57524768Y-22653954D01*
X57622315Y-22836450D01*
X57622317Y-22836452D01*
X57753589Y-22996410D01*
X57850209Y-23075702D01*
X57913550Y-23127685D01*
X58096046Y-23225232D01*
X58294066Y-23285300D01*
X58294065Y-23285300D01*
X58312529Y-23287118D01*
X58500000Y-23305583D01*
X58705934Y-23285300D01*
X58903954Y-23225232D01*
X59086450Y-23127685D01*
X59246410Y-22996410D01*
X59377685Y-22836450D01*
X59475232Y-22653954D01*
X59535300Y-22455934D01*
X59555583Y-22250000D01*
X59535300Y-22044066D01*
X59475232Y-21846046D01*
X59377685Y-21663550D01*
X59286408Y-21552328D01*
X59246410Y-21503589D01*
X59086452Y-21372317D01*
X59086453Y-21372317D01*
X59086450Y-21372315D01*
X58938730Y-21293356D01*
X58888887Y-21244394D01*
X58873427Y-21176256D01*
X58897259Y-21110577D01*
X58952817Y-21068208D01*
X58997185Y-21059999D01*
X59149971Y-21059999D01*
X59149987Y-21059998D01*
X59252697Y-21049505D01*
X59419119Y-20994358D01*
X59419124Y-20994356D01*
X59568345Y-20902315D01*
X59692315Y-20778345D01*
X59784356Y-20629124D01*
X59784358Y-20629119D01*
X59839505Y-20462697D01*
X59839506Y-20462690D01*
X59849999Y-20359986D01*
X59850000Y-20359973D01*
X59850000Y-20210000D01*
X58565826Y-20210000D01*
X58692993Y-20175925D01*
X58807007Y-20110099D01*
X58900099Y-20017007D01*
X58965925Y-19902993D01*
X59000000Y-19775826D01*
X59000000Y-19644174D01*
X58965925Y-19517007D01*
X58900099Y-19402993D01*
X58807007Y-19309901D01*
X58692993Y-19244075D01*
X58565826Y-19210000D01*
X59000000Y-19210000D01*
X59849999Y-19210000D01*
X59849999Y-19060028D01*
X59849998Y-19060013D01*
X59839505Y-18957302D01*
X59784358Y-18790880D01*
X59784356Y-18790875D01*
X59692315Y-18641654D01*
X59568345Y-18517684D01*
X59419124Y-18425643D01*
X59419119Y-18425641D01*
X59252697Y-18370494D01*
X59252690Y-18370493D01*
X59149986Y-18360000D01*
X59000000Y-18360000D01*
X59000000Y-19210000D01*
X58565826Y-19210000D01*
X58434174Y-19210000D01*
X58307007Y-19244075D01*
X58192993Y-19309901D01*
X58099901Y-19402993D01*
X58034075Y-19517007D01*
X58000000Y-19644174D01*
X58000000Y-18360000D01*
X57850027Y-18360000D01*
X57850012Y-18360001D01*
X57747302Y-18370494D01*
X57580880Y-18425641D01*
X57580875Y-18425643D01*
X57431654Y-18517684D01*
X57307684Y-18641654D01*
X57215643Y-18790875D01*
X57215641Y-18790880D01*
X57160494Y-18957302D01*
X57160493Y-18957309D01*
X57150000Y-19060013D01*
X57150000Y-19212813D01*
X57130315Y-19279852D01*
X57077511Y-19325607D01*
X57008353Y-19335551D01*
X56944797Y-19306526D01*
X56916642Y-19271267D01*
X56837685Y-19123550D01*
X56785090Y-19059463D01*
X56706410Y-18963589D01*
X56546452Y-18832317D01*
X56546453Y-18832317D01*
X56546450Y-18832315D01*
X56363954Y-18734768D01*
X56165934Y-18674700D01*
X56165932Y-18674699D01*
X56165934Y-18674699D01*
X55960000Y-18654417D01*
X55754067Y-18674699D01*
X55556043Y-18734769D01*
X55451078Y-18790875D01*
X55373550Y-18832315D01*
X55373548Y-18832316D01*
X55373547Y-18832317D01*
X55213589Y-18963589D01*
X55082317Y-19123547D01*
X54984769Y-19306043D01*
X54924699Y-19504067D01*
X54904417Y-19710000D01*
X54475583Y-19710000D01*
X54455300Y-19504066D01*
X54395232Y-19306046D01*
X54297685Y-19123550D01*
X54245090Y-19059463D01*
X54166410Y-18963589D01*
X54006452Y-18832317D01*
X54006453Y-18832317D01*
X54006450Y-18832315D01*
X53823954Y-18734768D01*
X53625934Y-18674700D01*
X53625932Y-18674699D01*
X53625934Y-18674699D01*
X53420000Y-18654417D01*
X53214067Y-18674699D01*
X53016043Y-18734769D01*
X52911078Y-18790875D01*
X52833550Y-18832315D01*
X52833548Y-18832316D01*
X52833547Y-18832317D01*
X52673589Y-18963589D01*
X52542317Y-19123547D01*
X52444769Y-19306043D01*
X52384699Y-19504067D01*
X52364417Y-19710000D01*
X51935583Y-19710000D01*
X51915300Y-19504066D01*
X51855232Y-19306046D01*
X51757685Y-19123550D01*
X51705090Y-19059463D01*
X51626410Y-18963589D01*
X51466452Y-18832317D01*
X51466453Y-18832317D01*
X51466450Y-18832315D01*
X51283954Y-18734768D01*
X51085934Y-18674700D01*
X51085932Y-18674699D01*
X51085934Y-18674699D01*
X50898463Y-18656235D01*
X50880000Y-18654417D01*
X50879999Y-18654417D01*
X50677182Y-18674392D01*
X50608536Y-18661373D01*
X50557826Y-18613308D01*
X50541151Y-18545457D01*
X50563807Y-18479362D01*
X50577338Y-18463318D01*
X51303838Y-17736819D01*
X51365161Y-17703334D01*
X51391519Y-17700500D01*
X62908481Y-17700500D01*
X62975520Y-17720185D01*
X62996162Y-17736819D01*
X64463681Y-19204338D01*
X64497166Y-19265661D01*
X64500000Y-19292019D01*
X64500000Y-41126000D01*
X64480315Y-41193039D01*
X64427511Y-41238794D01*
X64376000Y-41250000D01*
X49938465Y-41250000D01*
X49871426Y-41230315D01*
X49850784Y-41213681D01*
X49626616Y-40989513D01*
X49626614Y-40989511D01*
X49575250Y-40959856D01*
X49523888Y-40930201D01*
X49511780Y-40926957D01*
X49499673Y-40923713D01*
X49499670Y-40923712D01*
X49461478Y-40913478D01*
X49409309Y-40899500D01*
X38090691Y-40899500D01*
X38000325Y-40923713D01*
X38000324Y-40923712D01*
X37976116Y-40930199D01*
X37976113Y-40930200D01*
X37873386Y-40989511D01*
X37873383Y-40989513D01*
X37649216Y-41213681D01*
X37587893Y-41247166D01*
X37561535Y-41250000D01*
X20874000Y-41250000D01*
X20806961Y-41230315D01*
X20761206Y-41177511D01*
X20750000Y-41126000D01*
X20750000Y-38750000D01*
X21244353Y-38750000D01*
X21264834Y-38892456D01*
X21324622Y-39023371D01*
X21324623Y-39023373D01*
X21418872Y-39132143D01*
X21539947Y-39209953D01*
X21539950Y-39209954D01*
X21539949Y-39209954D01*
X21647107Y-39241417D01*
X21676336Y-39250000D01*
X21678036Y-39250499D01*
X21678038Y-39250500D01*
X21678039Y-39250500D01*
X21821962Y-39250500D01*
X21821962Y-39250499D01*
X21960053Y-39209953D01*
X22081128Y-39132143D01*
X22175377Y-39023373D01*
X22235165Y-38892457D01*
X22252262Y-38773542D01*
X22263014Y-38749999D01*
X22486986Y-38749999D01*
X22497738Y-38773543D01*
X22514834Y-38892456D01*
X22574622Y-39023371D01*
X22574623Y-39023373D01*
X22668872Y-39132143D01*
X22789947Y-39209953D01*
X22789950Y-39209954D01*
X22789949Y-39209954D01*
X22897107Y-39241417D01*
X22926336Y-39250000D01*
X22928036Y-39250499D01*
X22928038Y-39250500D01*
X22928039Y-39250500D01*
X23071962Y-39250500D01*
X23071962Y-39250499D01*
X23210053Y-39209953D01*
X23331128Y-39132143D01*
X23425377Y-39023373D01*
X23485165Y-38892457D01*
X23505647Y-38750000D01*
X24994353Y-38750000D01*
X25014834Y-38892456D01*
X25074622Y-39023371D01*
X25074623Y-39023373D01*
X25168872Y-39132143D01*
X25289947Y-39209953D01*
X25289950Y-39209954D01*
X25289949Y-39209954D01*
X25397107Y-39241417D01*
X25426336Y-39250000D01*
X25428036Y-39250499D01*
X25428038Y-39250500D01*
X25428039Y-39250500D01*
X25571962Y-39250500D01*
X25571962Y-39250499D01*
X25710053Y-39209953D01*
X25831128Y-39132143D01*
X25925377Y-39023373D01*
X25985165Y-38892457D01*
X26005647Y-38750000D01*
X27244353Y-38750000D01*
X27264834Y-38892456D01*
X27324622Y-39023371D01*
X27324623Y-39023373D01*
X27418872Y-39132143D01*
X27539947Y-39209953D01*
X27539950Y-39209954D01*
X27539949Y-39209954D01*
X27647107Y-39241417D01*
X27676336Y-39250000D01*
X27678036Y-39250499D01*
X27678038Y-39250500D01*
X27678039Y-39250500D01*
X27821962Y-39250500D01*
X27821962Y-39250499D01*
X27960053Y-39209953D01*
X28081128Y-39132143D01*
X28175377Y-39023373D01*
X28235165Y-38892457D01*
X28252262Y-38773542D01*
X28263014Y-38749999D01*
X28486986Y-38749999D01*
X28497738Y-38773543D01*
X28514834Y-38892456D01*
X28574622Y-39023371D01*
X28574623Y-39023373D01*
X28668872Y-39132143D01*
X28789947Y-39209953D01*
X28789950Y-39209954D01*
X28789949Y-39209954D01*
X28897107Y-39241417D01*
X28926336Y-39250000D01*
X28928036Y-39250499D01*
X28928038Y-39250500D01*
X28928039Y-39250500D01*
X29071962Y-39250500D01*
X29071962Y-39250499D01*
X29210053Y-39209953D01*
X29331128Y-39132143D01*
X29425377Y-39023373D01*
X29485165Y-38892457D01*
X29505647Y-38750000D01*
X30994353Y-38750000D01*
X31014834Y-38892456D01*
X31074622Y-39023371D01*
X31074623Y-39023373D01*
X31168872Y-39132143D01*
X31289947Y-39209953D01*
X31289950Y-39209954D01*
X31289949Y-39209954D01*
X31397107Y-39241417D01*
X31426336Y-39250000D01*
X31428036Y-39250499D01*
X31428038Y-39250500D01*
X31428039Y-39250500D01*
X31571962Y-39250500D01*
X31571962Y-39250499D01*
X31710053Y-39209953D01*
X31831128Y-39132143D01*
X31925377Y-39023373D01*
X31985165Y-38892457D01*
X32005647Y-38750000D01*
X33244353Y-38750000D01*
X33264834Y-38892456D01*
X33324622Y-39023371D01*
X33324623Y-39023373D01*
X33418872Y-39132143D01*
X33539947Y-39209953D01*
X33539950Y-39209954D01*
X33539949Y-39209954D01*
X33647107Y-39241417D01*
X33676336Y-39250000D01*
X33678036Y-39250499D01*
X33678038Y-39250500D01*
X33678039Y-39250500D01*
X33821962Y-39250500D01*
X33821962Y-39250499D01*
X33960053Y-39209953D01*
X34081128Y-39132143D01*
X34175377Y-39023373D01*
X34235165Y-38892457D01*
X34252262Y-38773542D01*
X34263014Y-38749999D01*
X34486986Y-38749999D01*
X34497738Y-38773543D01*
X34514834Y-38892456D01*
X34574622Y-39023371D01*
X34574623Y-39023373D01*
X34668872Y-39132143D01*
X34789947Y-39209953D01*
X34789950Y-39209954D01*
X34789949Y-39209954D01*
X34897107Y-39241417D01*
X34926336Y-39250000D01*
X34928036Y-39250499D01*
X34928038Y-39250500D01*
X34928039Y-39250500D01*
X35071962Y-39250500D01*
X35071962Y-39250499D01*
X35210053Y-39209953D01*
X35331128Y-39132143D01*
X35425377Y-39023373D01*
X35485165Y-38892457D01*
X35505647Y-38750000D01*
X36994353Y-38750000D01*
X37014834Y-38892456D01*
X37074622Y-39023371D01*
X37074623Y-39023373D01*
X37168872Y-39132143D01*
X37289947Y-39209953D01*
X37289950Y-39209954D01*
X37289949Y-39209954D01*
X37397107Y-39241417D01*
X37426336Y-39250000D01*
X37428036Y-39250499D01*
X37428038Y-39250500D01*
X37428039Y-39250500D01*
X37571962Y-39250500D01*
X37571962Y-39250499D01*
X37710053Y-39209953D01*
X37831128Y-39132143D01*
X37925377Y-39023373D01*
X37985165Y-38892457D01*
X38005647Y-38750000D01*
X39244353Y-38750000D01*
X39264834Y-38892456D01*
X39324622Y-39023371D01*
X39324623Y-39023373D01*
X39418872Y-39132143D01*
X39539947Y-39209953D01*
X39539950Y-39209954D01*
X39539949Y-39209954D01*
X39647107Y-39241417D01*
X39676336Y-39250000D01*
X39678036Y-39250499D01*
X39678038Y-39250500D01*
X39678039Y-39250500D01*
X39821962Y-39250500D01*
X39821962Y-39250499D01*
X39960053Y-39209953D01*
X40081128Y-39132143D01*
X40175377Y-39023373D01*
X40235165Y-38892457D01*
X40252262Y-38773542D01*
X40263014Y-38749999D01*
X40486986Y-38749999D01*
X40497738Y-38773543D01*
X40514834Y-38892456D01*
X40574622Y-39023371D01*
X40574623Y-39023373D01*
X40668872Y-39132143D01*
X40789947Y-39209953D01*
X40789950Y-39209954D01*
X40789949Y-39209954D01*
X40897107Y-39241417D01*
X40926336Y-39250000D01*
X40928036Y-39250499D01*
X40928038Y-39250500D01*
X40928039Y-39250500D01*
X41071962Y-39250500D01*
X41071962Y-39250499D01*
X41210053Y-39209953D01*
X41331128Y-39132143D01*
X41425377Y-39023373D01*
X41485165Y-38892457D01*
X41505647Y-38750000D01*
X42994353Y-38750000D01*
X43014834Y-38892456D01*
X43074622Y-39023371D01*
X43074623Y-39023373D01*
X43168872Y-39132143D01*
X43289947Y-39209953D01*
X43289950Y-39209954D01*
X43289949Y-39209954D01*
X43397107Y-39241417D01*
X43426336Y-39250000D01*
X43428036Y-39250499D01*
X43428038Y-39250500D01*
X43428039Y-39250500D01*
X43571962Y-39250500D01*
X43571962Y-39250499D01*
X43573672Y-39249997D01*
X49244751Y-39249997D01*
X49244751Y-39250002D01*
X49263685Y-39418056D01*
X49319545Y-39577694D01*
X49319547Y-39577697D01*
X49409518Y-39720884D01*
X49409523Y-39720890D01*
X49529109Y-39840476D01*
X49529115Y-39840481D01*
X49672302Y-39930452D01*
X49672305Y-39930454D01*
X49672309Y-39930455D01*
X49672310Y-39930456D01*
X49744913Y-39955860D01*
X49831943Y-39986314D01*
X49999997Y-40005249D01*
X50000000Y-40005249D01*
X50000003Y-40005249D01*
X50168056Y-39986314D01*
X50168059Y-39986313D01*
X50327690Y-39930456D01*
X50327692Y-39930454D01*
X50327694Y-39930454D01*
X50327697Y-39930452D01*
X50470884Y-39840481D01*
X50470885Y-39840480D01*
X50470890Y-39840477D01*
X50590477Y-39720890D01*
X50680452Y-39577697D01*
X50680454Y-39577694D01*
X50680454Y-39577692D01*
X50680456Y-39577690D01*
X50736313Y-39418059D01*
X50736313Y-39418058D01*
X50736314Y-39418056D01*
X50755249Y-39250002D01*
X50755249Y-39249997D01*
X50736314Y-39081943D01*
X50680454Y-38922305D01*
X50680452Y-38922302D01*
X50590481Y-38779115D01*
X50590476Y-38779109D01*
X50470890Y-38659523D01*
X50470884Y-38659518D01*
X50327697Y-38569547D01*
X50327694Y-38569545D01*
X50168056Y-38513685D01*
X50000003Y-38494751D01*
X49999997Y-38494751D01*
X49831943Y-38513685D01*
X49672305Y-38569545D01*
X49672302Y-38569547D01*
X49529115Y-38659518D01*
X49529109Y-38659523D01*
X49409523Y-38779109D01*
X49409518Y-38779115D01*
X49319547Y-38922302D01*
X49319545Y-38922305D01*
X49263685Y-39081943D01*
X49244751Y-39249997D01*
X43573672Y-39249997D01*
X43710053Y-39209953D01*
X43831128Y-39132143D01*
X43925377Y-39023373D01*
X43985165Y-38892457D01*
X44005647Y-38750000D01*
X43985165Y-38607543D01*
X43925377Y-38476627D01*
X43831128Y-38367857D01*
X43710053Y-38290047D01*
X43710051Y-38290046D01*
X43710049Y-38290045D01*
X43710050Y-38290045D01*
X43571963Y-38249500D01*
X43571961Y-38249500D01*
X43428039Y-38249500D01*
X43428036Y-38249500D01*
X43289949Y-38290045D01*
X43168873Y-38367856D01*
X43074623Y-38476626D01*
X43074622Y-38476628D01*
X43014834Y-38607543D01*
X42994353Y-38750000D01*
X41505647Y-38750000D01*
X41485165Y-38607543D01*
X41425377Y-38476627D01*
X41331128Y-38367857D01*
X41210053Y-38290047D01*
X41210051Y-38290046D01*
X41210049Y-38290045D01*
X41210050Y-38290045D01*
X41071963Y-38249500D01*
X41071961Y-38249500D01*
X40928039Y-38249500D01*
X40928036Y-38249500D01*
X40789949Y-38290045D01*
X40668873Y-38367856D01*
X40574623Y-38476626D01*
X40574622Y-38476628D01*
X40514834Y-38607543D01*
X40497738Y-38726456D01*
X40486986Y-38749999D01*
X40263014Y-38749999D01*
X40252262Y-38726456D01*
X40235165Y-38607543D01*
X40175377Y-38476627D01*
X40081128Y-38367857D01*
X39960053Y-38290047D01*
X39960051Y-38290046D01*
X39960049Y-38290045D01*
X39960050Y-38290045D01*
X39821963Y-38249500D01*
X39821961Y-38249500D01*
X39678039Y-38249500D01*
X39678036Y-38249500D01*
X39539949Y-38290045D01*
X39418873Y-38367856D01*
X39324623Y-38476626D01*
X39324622Y-38476628D01*
X39264834Y-38607543D01*
X39244353Y-38750000D01*
X38005647Y-38750000D01*
X37985165Y-38607543D01*
X37925377Y-38476627D01*
X37831128Y-38367857D01*
X37710053Y-38290047D01*
X37710051Y-38290046D01*
X37710049Y-38290045D01*
X37710050Y-38290045D01*
X37571963Y-38249500D01*
X37571961Y-38249500D01*
X37428039Y-38249500D01*
X37428036Y-38249500D01*
X37289949Y-38290045D01*
X37168873Y-38367856D01*
X37074623Y-38476626D01*
X37074622Y-38476628D01*
X37014834Y-38607543D01*
X36994353Y-38750000D01*
X35505647Y-38750000D01*
X35485165Y-38607543D01*
X35425377Y-38476627D01*
X35331128Y-38367857D01*
X35210053Y-38290047D01*
X35210051Y-38290046D01*
X35210049Y-38290045D01*
X35210050Y-38290045D01*
X35071963Y-38249500D01*
X35071961Y-38249500D01*
X34928039Y-38249500D01*
X34928036Y-38249500D01*
X34789949Y-38290045D01*
X34668873Y-38367856D01*
X34574623Y-38476626D01*
X34574622Y-38476628D01*
X34514834Y-38607543D01*
X34497738Y-38726456D01*
X34486986Y-38749999D01*
X34263014Y-38749999D01*
X34252262Y-38726456D01*
X34235165Y-38607543D01*
X34175377Y-38476627D01*
X34081128Y-38367857D01*
X33960053Y-38290047D01*
X33960051Y-38290046D01*
X33960049Y-38290045D01*
X33960050Y-38290045D01*
X33821963Y-38249500D01*
X33821961Y-38249500D01*
X33678039Y-38249500D01*
X33678036Y-38249500D01*
X33539949Y-38290045D01*
X33418873Y-38367856D01*
X33324623Y-38476626D01*
X33324622Y-38476628D01*
X33264834Y-38607543D01*
X33244353Y-38750000D01*
X32005647Y-38750000D01*
X31985165Y-38607543D01*
X31925377Y-38476627D01*
X31831128Y-38367857D01*
X31710053Y-38290047D01*
X31710051Y-38290046D01*
X31710049Y-38290045D01*
X31710050Y-38290045D01*
X31571963Y-38249500D01*
X31571961Y-38249500D01*
X31428039Y-38249500D01*
X31428036Y-38249500D01*
X31289949Y-38290045D01*
X31168873Y-38367856D01*
X31074623Y-38476626D01*
X31074622Y-38476628D01*
X31014834Y-38607543D01*
X30994353Y-38750000D01*
X29505647Y-38750000D01*
X29485165Y-38607543D01*
X29425377Y-38476627D01*
X29331128Y-38367857D01*
X29210053Y-38290047D01*
X29210051Y-38290046D01*
X29210049Y-38290045D01*
X29210050Y-38290045D01*
X29071963Y-38249500D01*
X29071961Y-38249500D01*
X28928039Y-38249500D01*
X28928036Y-38249500D01*
X28789949Y-38290045D01*
X28668873Y-38367856D01*
X28574623Y-38476626D01*
X28574622Y-38476628D01*
X28514834Y-38607543D01*
X28497738Y-38726456D01*
X28486986Y-38749999D01*
X28263014Y-38749999D01*
X28252262Y-38726456D01*
X28235165Y-38607543D01*
X28175377Y-38476627D01*
X28081128Y-38367857D01*
X27960053Y-38290047D01*
X27960051Y-38290046D01*
X27960049Y-38290045D01*
X27960050Y-38290045D01*
X27821963Y-38249500D01*
X27821961Y-38249500D01*
X27678039Y-38249500D01*
X27678036Y-38249500D01*
X27539949Y-38290045D01*
X27418873Y-38367856D01*
X27324623Y-38476626D01*
X27324622Y-38476628D01*
X27264834Y-38607543D01*
X27244353Y-38750000D01*
X26005647Y-38750000D01*
X25985165Y-38607543D01*
X25925377Y-38476627D01*
X25831128Y-38367857D01*
X25710053Y-38290047D01*
X25710051Y-38290046D01*
X25710049Y-38290045D01*
X25710050Y-38290045D01*
X25571963Y-38249500D01*
X25571961Y-38249500D01*
X25428039Y-38249500D01*
X25428036Y-38249500D01*
X25289949Y-38290045D01*
X25168873Y-38367856D01*
X25074623Y-38476626D01*
X25074622Y-38476628D01*
X25014834Y-38607543D01*
X24994353Y-38750000D01*
X23505647Y-38750000D01*
X23485165Y-38607543D01*
X23425377Y-38476627D01*
X23331128Y-38367857D01*
X23210053Y-38290047D01*
X23210051Y-38290046D01*
X23210049Y-38290045D01*
X23210050Y-38290045D01*
X23071963Y-38249500D01*
X23071961Y-38249500D01*
X22928039Y-38249500D01*
X22928036Y-38249500D01*
X22789949Y-38290045D01*
X22668873Y-38367856D01*
X22574623Y-38476626D01*
X22574622Y-38476628D01*
X22514834Y-38607543D01*
X22497738Y-38726456D01*
X22486986Y-38749999D01*
X22263014Y-38749999D01*
X22252262Y-38726456D01*
X22235165Y-38607543D01*
X22175377Y-38476627D01*
X22081128Y-38367857D01*
X21960053Y-38290047D01*
X21960051Y-38290046D01*
X21960049Y-38290045D01*
X21960050Y-38290045D01*
X21821963Y-38249500D01*
X21821961Y-38249500D01*
X21678039Y-38249500D01*
X21678036Y-38249500D01*
X21539949Y-38290045D01*
X21418873Y-38367856D01*
X21324623Y-38476626D01*
X21324622Y-38476628D01*
X21264834Y-38607543D01*
X21244353Y-38750000D01*
X20750000Y-38750000D01*
X20750000Y-34746344D01*
X48801500Y-34746344D01*
X48807901Y-34805872D01*
X48807903Y-34805879D01*
X48858145Y-34940586D01*
X48858149Y-34940593D01*
X48944309Y-35055687D01*
X48944312Y-35055690D01*
X49059406Y-35141850D01*
X49059413Y-35141854D01*
X49194120Y-35192096D01*
X49194127Y-35192098D01*
X49253655Y-35198499D01*
X49253672Y-35198500D01*
X49500000Y-35198500D01*
X50500000Y-35198500D01*
X50746328Y-35198500D01*
X50746344Y-35198499D01*
X50805872Y-35192098D01*
X50805879Y-35192096D01*
X50940586Y-35141854D01*
X50940593Y-35141850D01*
X51055687Y-35055690D01*
X51055690Y-35055687D01*
X51141850Y-34940593D01*
X51141854Y-34940586D01*
X51192096Y-34805879D01*
X51192098Y-34805872D01*
X51198106Y-34750000D01*
X54994353Y-34750000D01*
X55014834Y-34892456D01*
X55074622Y-35023371D01*
X55074625Y-35023377D01*
X55092321Y-35043799D01*
X55121345Y-35107355D01*
X55111401Y-35176513D01*
X55092321Y-35206201D01*
X55074625Y-35226622D01*
X55074622Y-35226628D01*
X55014834Y-35357543D01*
X54994353Y-35500000D01*
X55014834Y-35642456D01*
X55074622Y-35773371D01*
X55074623Y-35773373D01*
X55168872Y-35882143D01*
X55289947Y-35959953D01*
X55289950Y-35959954D01*
X55289949Y-35959954D01*
X55428036Y-36000499D01*
X55428038Y-36000500D01*
X55428039Y-36000500D01*
X55571962Y-36000500D01*
X55571962Y-36000499D01*
X55710053Y-35959953D01*
X55831128Y-35882143D01*
X55925377Y-35773373D01*
X55985165Y-35642457D01*
X56005647Y-35500000D01*
X55985165Y-35357543D01*
X55925377Y-35226627D01*
X55925375Y-35226625D01*
X55925374Y-35226622D01*
X55907680Y-35206203D01*
X55878654Y-35142648D01*
X55888597Y-35073489D01*
X55907680Y-35043797D01*
X55925374Y-35023377D01*
X55925374Y-35023375D01*
X55925377Y-35023373D01*
X55985165Y-34892457D01*
X56005647Y-34750000D01*
X55985165Y-34607543D01*
X55925377Y-34476627D01*
X55831128Y-34367857D01*
X55710053Y-34290047D01*
X55710051Y-34290046D01*
X55710049Y-34290045D01*
X55710050Y-34290045D01*
X55571963Y-34249500D01*
X55571961Y-34249500D01*
X55428039Y-34249500D01*
X55428036Y-34249500D01*
X55289949Y-34290045D01*
X55168873Y-34367856D01*
X55074623Y-34476626D01*
X55074622Y-34476628D01*
X55014834Y-34607543D01*
X54994353Y-34750000D01*
X51198106Y-34750000D01*
X51198499Y-34746344D01*
X51198500Y-34746327D01*
X51198500Y-34500000D01*
X50500000Y-34500000D01*
X50500000Y-35198500D01*
X49500000Y-35198500D01*
X49500000Y-34500000D01*
X48801500Y-34500000D01*
X48801500Y-34746344D01*
X20750000Y-34746344D01*
X20750000Y-33941480D01*
X49555500Y-33941480D01*
X49555500Y-34058520D01*
X49585792Y-34171571D01*
X49644311Y-34272930D01*
X49727070Y-34355689D01*
X49828429Y-34414208D01*
X49941480Y-34444500D01*
X50058520Y-34444500D01*
X50171571Y-34414208D01*
X50272930Y-34355689D01*
X50355689Y-34272930D01*
X50414208Y-34171571D01*
X50444500Y-34058520D01*
X50444500Y-33941480D01*
X50414208Y-33828429D01*
X50355689Y-33727070D01*
X50272930Y-33644311D01*
X50171571Y-33585792D01*
X50058520Y-33555500D01*
X49941480Y-33555500D01*
X49828429Y-33585792D01*
X49727070Y-33644311D01*
X49644311Y-33727070D01*
X49585792Y-33828429D01*
X49555500Y-33941480D01*
X20750000Y-33941480D01*
X20750000Y-33253655D01*
X48801500Y-33253655D01*
X48801500Y-33500000D01*
X49500000Y-33500000D01*
X50500000Y-33500000D01*
X51198500Y-33500000D01*
X51198500Y-33253672D01*
X51198499Y-33253655D01*
X51192098Y-33194127D01*
X51192096Y-33194120D01*
X51141854Y-33059413D01*
X51141850Y-33059406D01*
X51055690Y-32944312D01*
X51055687Y-32944309D01*
X50940593Y-32858149D01*
X50940586Y-32858145D01*
X50805879Y-32807903D01*
X50805872Y-32807901D01*
X50746344Y-32801500D01*
X50500000Y-32801500D01*
X50500000Y-33500000D01*
X49500000Y-33500000D01*
X49500000Y-32801500D01*
X49253655Y-32801500D01*
X49194127Y-32807901D01*
X49194120Y-32807903D01*
X49059413Y-32858145D01*
X49059406Y-32858149D01*
X48944312Y-32944309D01*
X48944309Y-32944312D01*
X48858149Y-33059406D01*
X48858145Y-33059413D01*
X48807903Y-33194120D01*
X48807901Y-33194127D01*
X48801500Y-33253655D01*
X20750000Y-33253655D01*
X20750000Y-30750704D01*
X20769685Y-30683665D01*
X20822489Y-30637910D01*
X20891647Y-30627966D01*
X20941038Y-30646388D01*
X20997535Y-30682696D01*
X21039948Y-30709954D01*
X21172990Y-30749018D01*
X21231769Y-30786792D01*
X21260794Y-30850347D01*
X21260794Y-30885641D01*
X21244353Y-30999998D01*
X21244353Y-30999999D01*
X21264834Y-31142456D01*
X21317433Y-31257629D01*
X21324623Y-31273373D01*
X21418872Y-31382143D01*
X21539947Y-31459953D01*
X21539950Y-31459954D01*
X21539949Y-31459954D01*
X21678036Y-31500499D01*
X21678038Y-31500500D01*
X21678039Y-31500500D01*
X21821962Y-31500500D01*
X21821962Y-31500499D01*
X21960053Y-31459953D01*
X22081128Y-31382143D01*
X22156287Y-31295403D01*
X22215064Y-31257629D01*
X22284934Y-31257629D01*
X22343711Y-31295402D01*
X22418872Y-31382143D01*
X22539947Y-31459953D01*
X22539950Y-31459954D01*
X22539949Y-31459954D01*
X22678036Y-31500499D01*
X22678038Y-31500500D01*
X22678039Y-31500500D01*
X22821962Y-31500500D01*
X22821962Y-31500499D01*
X22960053Y-31459953D01*
X23081128Y-31382143D01*
X23156287Y-31295403D01*
X23215064Y-31257629D01*
X23284934Y-31257629D01*
X23343711Y-31295402D01*
X23418872Y-31382143D01*
X23539947Y-31459953D01*
X23539950Y-31459954D01*
X23539949Y-31459954D01*
X23678036Y-31500499D01*
X23678038Y-31500500D01*
X23678039Y-31500500D01*
X23821962Y-31500500D01*
X23821962Y-31500499D01*
X23960053Y-31459953D01*
X24081128Y-31382143D01*
X24156287Y-31295403D01*
X24215064Y-31257629D01*
X24284934Y-31257629D01*
X24343711Y-31295402D01*
X24418872Y-31382143D01*
X24539947Y-31459953D01*
X24539950Y-31459954D01*
X24539949Y-31459954D01*
X24678036Y-31500499D01*
X24678038Y-31500500D01*
X24678039Y-31500500D01*
X24821962Y-31500500D01*
X24821962Y-31500499D01*
X24960053Y-31459953D01*
X25081128Y-31382143D01*
X25156287Y-31295403D01*
X25215064Y-31257629D01*
X25284934Y-31257629D01*
X25343711Y-31295402D01*
X25418872Y-31382143D01*
X25539947Y-31459953D01*
X25539950Y-31459954D01*
X25539949Y-31459954D01*
X25678036Y-31500499D01*
X25678038Y-31500500D01*
X25678039Y-31500500D01*
X25821962Y-31500500D01*
X25821962Y-31500499D01*
X25960053Y-31459953D01*
X26081128Y-31382143D01*
X26175377Y-31273373D01*
X26235165Y-31142457D01*
X26255647Y-31000000D01*
X26235165Y-30857543D01*
X26175377Y-30726627D01*
X26081128Y-30617857D01*
X25960053Y-30540047D01*
X25960050Y-30540045D01*
X25827008Y-30500981D01*
X25768230Y-30463207D01*
X25739205Y-30399651D01*
X25739205Y-30364357D01*
X25755647Y-30250000D01*
X26744353Y-30250000D01*
X26764834Y-30392456D01*
X26768120Y-30399651D01*
X26824623Y-30523373D01*
X26918872Y-30632143D01*
X27039947Y-30709953D01*
X27039950Y-30709954D01*
X27039949Y-30709954D01*
X27172990Y-30749018D01*
X27231769Y-30786792D01*
X27260794Y-30850347D01*
X27260794Y-30885641D01*
X27244353Y-30999998D01*
X27244353Y-30999999D01*
X27264834Y-31142456D01*
X27317433Y-31257629D01*
X27324623Y-31273373D01*
X27418872Y-31382143D01*
X27539947Y-31459953D01*
X27539950Y-31459954D01*
X27539949Y-31459954D01*
X27678036Y-31500499D01*
X27678038Y-31500500D01*
X27678039Y-31500500D01*
X27821962Y-31500500D01*
X27821962Y-31500499D01*
X27960053Y-31459953D01*
X28081128Y-31382143D01*
X28156287Y-31295403D01*
X28215064Y-31257629D01*
X28284934Y-31257629D01*
X28343711Y-31295402D01*
X28418872Y-31382143D01*
X28539947Y-31459953D01*
X28539950Y-31459954D01*
X28539949Y-31459954D01*
X28678036Y-31500499D01*
X28678038Y-31500500D01*
X28678039Y-31500500D01*
X28821962Y-31500500D01*
X28821962Y-31500499D01*
X28960053Y-31459953D01*
X29081128Y-31382143D01*
X29156287Y-31295403D01*
X29215064Y-31257629D01*
X29284934Y-31257629D01*
X29343711Y-31295402D01*
X29418872Y-31382143D01*
X29539947Y-31459953D01*
X29539950Y-31459954D01*
X29539949Y-31459954D01*
X29678036Y-31500499D01*
X29678038Y-31500500D01*
X29678039Y-31500500D01*
X29821962Y-31500500D01*
X29821962Y-31500499D01*
X29960053Y-31459953D01*
X30081128Y-31382143D01*
X30156287Y-31295403D01*
X30215064Y-31257629D01*
X30284934Y-31257629D01*
X30343711Y-31295402D01*
X30418872Y-31382143D01*
X30539947Y-31459953D01*
X30539950Y-31459954D01*
X30539949Y-31459954D01*
X30678036Y-31500499D01*
X30678038Y-31500500D01*
X30678039Y-31500500D01*
X30821962Y-31500500D01*
X30821962Y-31500499D01*
X30960053Y-31459953D01*
X31081128Y-31382143D01*
X31156287Y-31295403D01*
X31215064Y-31257629D01*
X31284934Y-31257629D01*
X31343711Y-31295402D01*
X31418872Y-31382143D01*
X31539947Y-31459953D01*
X31539950Y-31459954D01*
X31539949Y-31459954D01*
X31678036Y-31500499D01*
X31678038Y-31500500D01*
X31678039Y-31500500D01*
X31821962Y-31500500D01*
X31821962Y-31500499D01*
X31960053Y-31459953D01*
X32081128Y-31382143D01*
X32175377Y-31273373D01*
X32235165Y-31142457D01*
X32255647Y-31000000D01*
X32235165Y-30857543D01*
X32175377Y-30726627D01*
X32081128Y-30617857D01*
X31960053Y-30540047D01*
X31960050Y-30540045D01*
X31827008Y-30500981D01*
X31768230Y-30463207D01*
X31739205Y-30399651D01*
X31739205Y-30364357D01*
X31755647Y-30250000D01*
X32744353Y-30250000D01*
X32764834Y-30392456D01*
X32768120Y-30399651D01*
X32824623Y-30523373D01*
X32918872Y-30632143D01*
X33039947Y-30709953D01*
X33039950Y-30709954D01*
X33039949Y-30709954D01*
X33172990Y-30749018D01*
X33231769Y-30786792D01*
X33260794Y-30850347D01*
X33260794Y-30885641D01*
X33244353Y-30999998D01*
X33244353Y-30999999D01*
X33264834Y-31142456D01*
X33317433Y-31257629D01*
X33324623Y-31273373D01*
X33418872Y-31382143D01*
X33539947Y-31459953D01*
X33539950Y-31459954D01*
X33539949Y-31459954D01*
X33678036Y-31500499D01*
X33678038Y-31500500D01*
X33678039Y-31500500D01*
X33821962Y-31500500D01*
X33821962Y-31500499D01*
X33960053Y-31459953D01*
X34081128Y-31382143D01*
X34156287Y-31295403D01*
X34215064Y-31257629D01*
X34284934Y-31257629D01*
X34343711Y-31295402D01*
X34418872Y-31382143D01*
X34539947Y-31459953D01*
X34539950Y-31459954D01*
X34539949Y-31459954D01*
X34678036Y-31500499D01*
X34678038Y-31500500D01*
X34678039Y-31500500D01*
X34821962Y-31500500D01*
X34821962Y-31500499D01*
X34960053Y-31459953D01*
X35081128Y-31382143D01*
X35156287Y-31295403D01*
X35215064Y-31257629D01*
X35284934Y-31257629D01*
X35343711Y-31295402D01*
X35418872Y-31382143D01*
X35539947Y-31459953D01*
X35539950Y-31459954D01*
X35539949Y-31459954D01*
X35678036Y-31500499D01*
X35678038Y-31500500D01*
X35678039Y-31500500D01*
X35821962Y-31500500D01*
X35821962Y-31500499D01*
X35960053Y-31459953D01*
X36081128Y-31382143D01*
X36156287Y-31295403D01*
X36215064Y-31257629D01*
X36284934Y-31257629D01*
X36343711Y-31295402D01*
X36418872Y-31382143D01*
X36539947Y-31459953D01*
X36539950Y-31459954D01*
X36539949Y-31459954D01*
X36678036Y-31500499D01*
X36678038Y-31500500D01*
X36678039Y-31500500D01*
X36821962Y-31500500D01*
X36821962Y-31500499D01*
X36960053Y-31459953D01*
X37081128Y-31382143D01*
X37156287Y-31295403D01*
X37215064Y-31257629D01*
X37284934Y-31257629D01*
X37343711Y-31295402D01*
X37418872Y-31382143D01*
X37539947Y-31459953D01*
X37539950Y-31459954D01*
X37539949Y-31459954D01*
X37678036Y-31500499D01*
X37678038Y-31500500D01*
X37678039Y-31500500D01*
X37821962Y-31500500D01*
X37821962Y-31500499D01*
X37960053Y-31459953D01*
X38081128Y-31382143D01*
X38175377Y-31273373D01*
X38235165Y-31142457D01*
X38255647Y-31000000D01*
X38235165Y-30857543D01*
X38175377Y-30726627D01*
X38081128Y-30617857D01*
X37960053Y-30540047D01*
X37960050Y-30540045D01*
X37827008Y-30500981D01*
X37768230Y-30463207D01*
X37739205Y-30399651D01*
X37739205Y-30364357D01*
X37755647Y-30250000D01*
X38744353Y-30250000D01*
X38764834Y-30392456D01*
X38768120Y-30399651D01*
X38824623Y-30523373D01*
X38918872Y-30632143D01*
X39039947Y-30709953D01*
X39039950Y-30709954D01*
X39039949Y-30709954D01*
X39172990Y-30749018D01*
X39231769Y-30786792D01*
X39260794Y-30850347D01*
X39260794Y-30885641D01*
X39244353Y-30999998D01*
X39244353Y-30999999D01*
X39264834Y-31142456D01*
X39317433Y-31257629D01*
X39324623Y-31273373D01*
X39418872Y-31382143D01*
X39539947Y-31459953D01*
X39539950Y-31459954D01*
X39539949Y-31459954D01*
X39678036Y-31500499D01*
X39678038Y-31500500D01*
X39678039Y-31500500D01*
X39821962Y-31500500D01*
X39821962Y-31500499D01*
X39960053Y-31459953D01*
X40081128Y-31382143D01*
X40156287Y-31295403D01*
X40215064Y-31257629D01*
X40284934Y-31257629D01*
X40343711Y-31295402D01*
X40418872Y-31382143D01*
X40539947Y-31459953D01*
X40539950Y-31459954D01*
X40539949Y-31459954D01*
X40678036Y-31500499D01*
X40678038Y-31500500D01*
X40678039Y-31500500D01*
X40821962Y-31500500D01*
X40821962Y-31500499D01*
X40960053Y-31459953D01*
X41081128Y-31382143D01*
X41156287Y-31295403D01*
X41215064Y-31257629D01*
X41284934Y-31257629D01*
X41343711Y-31295402D01*
X41418872Y-31382143D01*
X41539947Y-31459953D01*
X41539950Y-31459954D01*
X41539949Y-31459954D01*
X41678036Y-31500499D01*
X41678038Y-31500500D01*
X41678039Y-31500500D01*
X41821962Y-31500500D01*
X41821962Y-31500499D01*
X41960053Y-31459953D01*
X42081128Y-31382143D01*
X42156287Y-31295403D01*
X42215064Y-31257629D01*
X42284934Y-31257629D01*
X42343711Y-31295402D01*
X42418872Y-31382143D01*
X42539947Y-31459953D01*
X42539950Y-31459954D01*
X42539949Y-31459954D01*
X42678036Y-31500499D01*
X42678038Y-31500500D01*
X42678039Y-31500500D01*
X42821962Y-31500500D01*
X42821962Y-31500499D01*
X42960053Y-31459953D01*
X43081128Y-31382143D01*
X43156287Y-31295403D01*
X43215064Y-31257629D01*
X43284934Y-31257629D01*
X43343711Y-31295402D01*
X43418872Y-31382143D01*
X43539947Y-31459953D01*
X43539950Y-31459954D01*
X43539949Y-31459954D01*
X43678036Y-31500499D01*
X43678038Y-31500500D01*
X43678039Y-31500500D01*
X43821962Y-31500500D01*
X43821962Y-31500499D01*
X43960053Y-31459953D01*
X44081128Y-31382143D01*
X44175377Y-31273373D01*
X44235165Y-31142457D01*
X44255647Y-31000000D01*
X44235165Y-30857543D01*
X44175377Y-30726627D01*
X44081128Y-30617857D01*
X43960053Y-30540047D01*
X43960050Y-30540045D01*
X43827008Y-30500981D01*
X43768230Y-30463207D01*
X43739205Y-30399651D01*
X43739205Y-30364357D01*
X43755647Y-30250000D01*
X43735165Y-30107543D01*
X43675377Y-29976627D01*
X43581128Y-29867857D01*
X43460053Y-29790047D01*
X43460051Y-29790046D01*
X43460049Y-29790045D01*
X43460050Y-29790045D01*
X43321963Y-29749500D01*
X43321961Y-29749500D01*
X43178039Y-29749500D01*
X43178036Y-29749500D01*
X43039949Y-29790045D01*
X42918873Y-29867856D01*
X42843713Y-29954596D01*
X42784935Y-29992370D01*
X42715065Y-29992370D01*
X42656287Y-29954596D01*
X42608113Y-29899000D01*
X42581128Y-29867857D01*
X42460053Y-29790047D01*
X42460051Y-29790046D01*
X42460049Y-29790045D01*
X42460050Y-29790045D01*
X42321963Y-29749500D01*
X42321961Y-29749500D01*
X42178039Y-29749500D01*
X42178036Y-29749500D01*
X42039949Y-29790045D01*
X41918873Y-29867856D01*
X41843713Y-29954596D01*
X41784935Y-29992370D01*
X41715065Y-29992370D01*
X41656287Y-29954596D01*
X41608113Y-29899000D01*
X41581128Y-29867857D01*
X41460053Y-29790047D01*
X41460051Y-29790046D01*
X41460049Y-29790045D01*
X41460050Y-29790045D01*
X41321963Y-29749500D01*
X41321961Y-29749500D01*
X41178039Y-29749500D01*
X41178036Y-29749500D01*
X41039949Y-29790045D01*
X40918873Y-29867856D01*
X40843713Y-29954596D01*
X40784935Y-29992370D01*
X40715065Y-29992370D01*
X40656287Y-29954596D01*
X40608113Y-29899000D01*
X40581128Y-29867857D01*
X40460053Y-29790047D01*
X40460051Y-29790046D01*
X40460049Y-29790045D01*
X40460050Y-29790045D01*
X40321963Y-29749500D01*
X40321961Y-29749500D01*
X40178039Y-29749500D01*
X40178036Y-29749500D01*
X40039949Y-29790045D01*
X39918873Y-29867856D01*
X39843713Y-29954596D01*
X39784935Y-29992370D01*
X39715065Y-29992370D01*
X39656287Y-29954596D01*
X39608113Y-29899000D01*
X39581128Y-29867857D01*
X39460053Y-29790047D01*
X39460051Y-29790046D01*
X39460049Y-29790045D01*
X39460050Y-29790045D01*
X39321963Y-29749500D01*
X39321961Y-29749500D01*
X39178039Y-29749500D01*
X39178036Y-29749500D01*
X39039949Y-29790045D01*
X38918873Y-29867856D01*
X38824623Y-29976626D01*
X38824622Y-29976628D01*
X38764834Y-30107543D01*
X38744353Y-30250000D01*
X37755647Y-30250000D01*
X37735165Y-30107543D01*
X37675377Y-29976627D01*
X37581128Y-29867857D01*
X37460053Y-29790047D01*
X37460051Y-29790046D01*
X37460049Y-29790045D01*
X37460050Y-29790045D01*
X37321963Y-29749500D01*
X37321961Y-29749500D01*
X37178039Y-29749500D01*
X37178036Y-29749500D01*
X37039949Y-29790045D01*
X36918873Y-29867856D01*
X36843713Y-29954596D01*
X36784935Y-29992370D01*
X36715065Y-29992370D01*
X36656287Y-29954596D01*
X36608113Y-29899000D01*
X36581128Y-29867857D01*
X36460053Y-29790047D01*
X36460051Y-29790046D01*
X36460049Y-29790045D01*
X36460050Y-29790045D01*
X36321963Y-29749500D01*
X36321961Y-29749500D01*
X36178039Y-29749500D01*
X36178036Y-29749500D01*
X36039949Y-29790045D01*
X35918873Y-29867856D01*
X35843713Y-29954596D01*
X35784935Y-29992370D01*
X35715065Y-29992370D01*
X35656287Y-29954596D01*
X35608113Y-29899000D01*
X35581128Y-29867857D01*
X35460053Y-29790047D01*
X35460051Y-29790046D01*
X35460049Y-29790045D01*
X35460050Y-29790045D01*
X35321963Y-29749500D01*
X35321961Y-29749500D01*
X35178039Y-29749500D01*
X35178036Y-29749500D01*
X35039949Y-29790045D01*
X34918873Y-29867856D01*
X34843713Y-29954596D01*
X34784935Y-29992370D01*
X34715065Y-29992370D01*
X34656287Y-29954596D01*
X34608113Y-29899000D01*
X34581128Y-29867857D01*
X34460053Y-29790047D01*
X34460051Y-29790046D01*
X34460049Y-29790045D01*
X34460050Y-29790045D01*
X34321963Y-29749500D01*
X34321961Y-29749500D01*
X34178039Y-29749500D01*
X34178036Y-29749500D01*
X34039949Y-29790045D01*
X33918873Y-29867856D01*
X33843713Y-29954596D01*
X33784935Y-29992370D01*
X33715065Y-29992370D01*
X33656287Y-29954596D01*
X33608113Y-29899000D01*
X33581128Y-29867857D01*
X33460053Y-29790047D01*
X33460051Y-29790046D01*
X33460049Y-29790045D01*
X33460050Y-29790045D01*
X33321963Y-29749500D01*
X33321961Y-29749500D01*
X33178039Y-29749500D01*
X33178036Y-29749500D01*
X33039949Y-29790045D01*
X32918873Y-29867856D01*
X32824623Y-29976626D01*
X32824622Y-29976628D01*
X32764834Y-30107543D01*
X32744353Y-30250000D01*
X31755647Y-30250000D01*
X31735165Y-30107543D01*
X31675377Y-29976627D01*
X31581128Y-29867857D01*
X31460053Y-29790047D01*
X31460051Y-29790046D01*
X31460049Y-29790045D01*
X31460050Y-29790045D01*
X31321963Y-29749500D01*
X31321961Y-29749500D01*
X31178039Y-29749500D01*
X31178036Y-29749500D01*
X31039949Y-29790045D01*
X30918873Y-29867856D01*
X30843713Y-29954596D01*
X30784935Y-29992370D01*
X30715065Y-29992370D01*
X30656287Y-29954596D01*
X30608113Y-29899000D01*
X30581128Y-29867857D01*
X30460053Y-29790047D01*
X30460051Y-29790046D01*
X30460049Y-29790045D01*
X30460050Y-29790045D01*
X30321963Y-29749500D01*
X30321961Y-29749500D01*
X30178039Y-29749500D01*
X30178036Y-29749500D01*
X30039949Y-29790045D01*
X29918873Y-29867856D01*
X29843713Y-29954596D01*
X29784935Y-29992370D01*
X29715065Y-29992370D01*
X29656287Y-29954596D01*
X29608113Y-29899000D01*
X29581128Y-29867857D01*
X29460053Y-29790047D01*
X29460051Y-29790046D01*
X29460049Y-29790045D01*
X29460050Y-29790045D01*
X29321963Y-29749500D01*
X29321961Y-29749500D01*
X29178039Y-29749500D01*
X29178036Y-29749500D01*
X29039949Y-29790045D01*
X28918873Y-29867856D01*
X28843713Y-29954596D01*
X28784935Y-29992370D01*
X28715065Y-29992370D01*
X28656287Y-29954596D01*
X28608113Y-29899000D01*
X28581128Y-29867857D01*
X28460053Y-29790047D01*
X28460051Y-29790046D01*
X28460049Y-29790045D01*
X28460050Y-29790045D01*
X28321963Y-29749500D01*
X28321961Y-29749500D01*
X28178039Y-29749500D01*
X28178036Y-29749500D01*
X28039949Y-29790045D01*
X27918873Y-29867856D01*
X27843713Y-29954596D01*
X27784935Y-29992370D01*
X27715065Y-29992370D01*
X27656287Y-29954596D01*
X27608113Y-29899000D01*
X27581128Y-29867857D01*
X27460053Y-29790047D01*
X27460051Y-29790046D01*
X27460049Y-29790045D01*
X27460050Y-29790045D01*
X27321963Y-29749500D01*
X27321961Y-29749500D01*
X27178039Y-29749500D01*
X27178036Y-29749500D01*
X27039949Y-29790045D01*
X26918873Y-29867856D01*
X26824623Y-29976626D01*
X26824622Y-29976628D01*
X26764834Y-30107543D01*
X26744353Y-30250000D01*
X25755647Y-30250000D01*
X25735165Y-30107543D01*
X25675377Y-29976627D01*
X25581128Y-29867857D01*
X25460053Y-29790047D01*
X25460051Y-29790046D01*
X25460049Y-29790045D01*
X25460050Y-29790045D01*
X25321963Y-29749500D01*
X25321961Y-29749500D01*
X25178039Y-29749500D01*
X25178036Y-29749500D01*
X25039949Y-29790045D01*
X24918873Y-29867856D01*
X24843713Y-29954596D01*
X24784935Y-29992370D01*
X24715065Y-29992370D01*
X24656287Y-29954596D01*
X24608113Y-29899000D01*
X24581128Y-29867857D01*
X24460053Y-29790047D01*
X24460051Y-29790046D01*
X24460049Y-29790045D01*
X24460050Y-29790045D01*
X24321963Y-29749500D01*
X24321961Y-29749500D01*
X24178039Y-29749500D01*
X24178036Y-29749500D01*
X24039949Y-29790045D01*
X23918873Y-29867856D01*
X23843713Y-29954596D01*
X23784935Y-29992370D01*
X23715065Y-29992370D01*
X23656287Y-29954596D01*
X23608113Y-29899000D01*
X23581128Y-29867857D01*
X23460053Y-29790047D01*
X23460051Y-29790046D01*
X23460049Y-29790045D01*
X23460050Y-29790045D01*
X23321963Y-29749500D01*
X23321961Y-29749500D01*
X23178039Y-29749500D01*
X23178036Y-29749500D01*
X23039949Y-29790045D01*
X22918873Y-29867856D01*
X22843713Y-29954596D01*
X22784935Y-29992370D01*
X22715065Y-29992370D01*
X22656287Y-29954596D01*
X22608113Y-29899000D01*
X22581128Y-29867857D01*
X22460053Y-29790047D01*
X22460051Y-29790046D01*
X22460049Y-29790045D01*
X22460050Y-29790045D01*
X22321963Y-29749500D01*
X22321961Y-29749500D01*
X22178039Y-29749500D01*
X22178036Y-29749500D01*
X22039949Y-29790045D01*
X21918873Y-29867856D01*
X21843713Y-29954596D01*
X21784935Y-29992370D01*
X21715065Y-29992370D01*
X21656287Y-29954596D01*
X21608113Y-29899000D01*
X21581128Y-29867857D01*
X21460053Y-29790047D01*
X21460051Y-29790046D01*
X21460049Y-29790045D01*
X21460050Y-29790045D01*
X21321963Y-29749500D01*
X21321961Y-29749500D01*
X21178039Y-29749500D01*
X21178036Y-29749500D01*
X21039949Y-29790045D01*
X20941039Y-29853611D01*
X20874000Y-29873295D01*
X20806960Y-29853610D01*
X20761205Y-29800806D01*
X20750000Y-29749295D01*
X20750000Y-29000000D01*
X49096048Y-29000000D01*
X49115802Y-29187943D01*
X49115803Y-29187946D01*
X49174199Y-29367671D01*
X49174200Y-29367673D01*
X49268684Y-29531326D01*
X49268685Y-29531328D01*
X49268687Y-29531330D01*
X49395138Y-29671767D01*
X49395141Y-29671769D01*
X49548019Y-29782842D01*
X49548020Y-29782842D01*
X49548024Y-29782845D01*
X49688817Y-29845530D01*
X49720658Y-29859707D01*
X49720663Y-29859709D01*
X49905511Y-29899000D01*
X50094489Y-29899000D01*
X50279337Y-29859709D01*
X50451976Y-29782845D01*
X50604862Y-29671767D01*
X50731313Y-29531330D01*
X50825801Y-29367670D01*
X50884198Y-29187942D01*
X50903952Y-29000000D01*
X50884198Y-28812058D01*
X50825801Y-28632330D01*
X50731313Y-28468670D01*
X50604862Y-28328233D01*
X50604858Y-28328230D01*
X50451980Y-28217157D01*
X50451977Y-28217155D01*
X50451976Y-28217155D01*
X50389289Y-28189245D01*
X50279341Y-28140292D01*
X50279336Y-28140290D01*
X50094489Y-28101000D01*
X49905511Y-28101000D01*
X49720663Y-28140290D01*
X49720658Y-28140292D01*
X49548024Y-28217155D01*
X49548019Y-28217157D01*
X49395141Y-28328230D01*
X49268684Y-28468673D01*
X49174200Y-28632326D01*
X49174199Y-28632328D01*
X49115803Y-28812053D01*
X49115802Y-28812056D01*
X49096048Y-29000000D01*
X20750000Y-29000000D01*
X20750000Y-27000000D01*
X44994353Y-27000000D01*
X45014834Y-27142456D01*
X45074622Y-27273371D01*
X45074623Y-27273373D01*
X45168872Y-27382143D01*
X45289947Y-27459953D01*
X45289950Y-27459954D01*
X45289949Y-27459954D01*
X45428036Y-27500499D01*
X45428038Y-27500500D01*
X45428039Y-27500500D01*
X45571962Y-27500500D01*
X45571962Y-27500499D01*
X45710053Y-27459953D01*
X45831128Y-27382143D01*
X45925377Y-27273373D01*
X45985165Y-27142457D01*
X46005647Y-27000000D01*
X45985165Y-26857543D01*
X45925377Y-26726627D01*
X45831128Y-26617857D01*
X45710053Y-26540047D01*
X45710051Y-26540046D01*
X45710049Y-26540045D01*
X45710050Y-26540045D01*
X45571963Y-26499500D01*
X45571961Y-26499500D01*
X45428039Y-26499500D01*
X45428036Y-26499500D01*
X45289949Y-26540045D01*
X45168873Y-26617856D01*
X45074623Y-26726626D01*
X45074622Y-26726628D01*
X45014834Y-26857543D01*
X44994353Y-27000000D01*
X20750000Y-27000000D01*
X20750000Y-22250000D01*
X47284417Y-22250000D01*
X47304699Y-22455932D01*
X47304700Y-22455934D01*
X47364768Y-22653954D01*
X47462315Y-22836450D01*
X47462317Y-22836452D01*
X47593589Y-22996410D01*
X47690209Y-23075702D01*
X47753550Y-23127685D01*
X47936046Y-23225232D01*
X48134066Y-23285300D01*
X48134065Y-23285300D01*
X48152529Y-23287118D01*
X48340000Y-23305583D01*
X48545934Y-23285300D01*
X48743954Y-23225232D01*
X48926450Y-23127685D01*
X49086410Y-22996410D01*
X49217685Y-22836450D01*
X49315232Y-22653954D01*
X49375300Y-22455934D01*
X49395583Y-22250000D01*
X49824417Y-22250000D01*
X49844699Y-22455932D01*
X49844700Y-22455934D01*
X49904768Y-22653954D01*
X50002315Y-22836450D01*
X50002317Y-22836452D01*
X50133589Y-22996410D01*
X50230209Y-23075702D01*
X50293550Y-23127685D01*
X50476046Y-23225232D01*
X50674066Y-23285300D01*
X50674065Y-23285300D01*
X50692529Y-23287118D01*
X50880000Y-23305583D01*
X51085934Y-23285300D01*
X51283954Y-23225232D01*
X51466450Y-23127685D01*
X51626410Y-22996410D01*
X51757685Y-22836450D01*
X51855232Y-22653954D01*
X51915300Y-22455934D01*
X51935583Y-22250000D01*
X52364417Y-22250000D01*
X52384699Y-22455932D01*
X52384700Y-22455934D01*
X52444768Y-22653954D01*
X52542315Y-22836450D01*
X52542317Y-22836452D01*
X52673589Y-22996410D01*
X52770209Y-23075702D01*
X52833550Y-23127685D01*
X53016046Y-23225232D01*
X53214066Y-23285300D01*
X53214065Y-23285300D01*
X53232529Y-23287118D01*
X53420000Y-23305583D01*
X53625934Y-23285300D01*
X53823954Y-23225232D01*
X54006450Y-23127685D01*
X54166410Y-22996410D01*
X54297685Y-22836450D01*
X54395232Y-22653954D01*
X54455300Y-22455934D01*
X54475583Y-22250000D01*
X54904417Y-22250000D01*
X54924699Y-22455932D01*
X54924700Y-22455934D01*
X54984768Y-22653954D01*
X55082315Y-22836450D01*
X55082317Y-22836452D01*
X55213589Y-22996410D01*
X55310209Y-23075702D01*
X55373550Y-23127685D01*
X55556046Y-23225232D01*
X55754066Y-23285300D01*
X55754065Y-23285300D01*
X55772529Y-23287118D01*
X55960000Y-23305583D01*
X56165934Y-23285300D01*
X56363954Y-23225232D01*
X56546450Y-23127685D01*
X56706410Y-22996410D01*
X56837685Y-22836450D01*
X56935232Y-22653954D01*
X56995300Y-22455934D01*
X57015583Y-22250000D01*
X56995300Y-22044066D01*
X56935232Y-21846046D01*
X56837685Y-21663550D01*
X56746408Y-21552328D01*
X56706410Y-21503589D01*
X56546452Y-21372317D01*
X56546453Y-21372317D01*
X56546450Y-21372315D01*
X56375742Y-21281069D01*
X56363956Y-21274769D01*
X56363955Y-21274768D01*
X56363954Y-21274768D01*
X56165934Y-21214700D01*
X56165932Y-21214699D01*
X56165934Y-21214699D01*
X55960000Y-21194417D01*
X55754067Y-21214699D01*
X55556043Y-21274769D01*
X55445898Y-21333643D01*
X55373550Y-21372315D01*
X55373548Y-21372316D01*
X55373547Y-21372317D01*
X55213589Y-21503589D01*
X55082317Y-21663547D01*
X54984769Y-21846043D01*
X54924699Y-22044067D01*
X54904417Y-22250000D01*
X54475583Y-22250000D01*
X54455300Y-22044066D01*
X54395232Y-21846046D01*
X54297685Y-21663550D01*
X54206408Y-21552328D01*
X54166410Y-21503589D01*
X54006452Y-21372317D01*
X54006453Y-21372317D01*
X54006450Y-21372315D01*
X53835742Y-21281069D01*
X53823956Y-21274769D01*
X53823955Y-21274768D01*
X53823954Y-21274768D01*
X53625934Y-21214700D01*
X53625932Y-21214699D01*
X53625934Y-21214699D01*
X53420000Y-21194417D01*
X53214067Y-21214699D01*
X53016043Y-21274769D01*
X52905898Y-21333643D01*
X52833550Y-21372315D01*
X52833548Y-21372316D01*
X52833547Y-21372317D01*
X52673589Y-21503589D01*
X52542317Y-21663547D01*
X52444769Y-21846043D01*
X52384699Y-22044067D01*
X52364417Y-22250000D01*
X51935583Y-22250000D01*
X51915300Y-22044066D01*
X51855232Y-21846046D01*
X51757685Y-21663550D01*
X51666408Y-21552328D01*
X51626410Y-21503589D01*
X51466452Y-21372317D01*
X51466453Y-21372317D01*
X51466450Y-21372315D01*
X51295742Y-21281069D01*
X51283956Y-21274769D01*
X51283955Y-21274768D01*
X51283954Y-21274768D01*
X51085934Y-21214700D01*
X51085932Y-21214699D01*
X51085934Y-21214699D01*
X50880000Y-21194417D01*
X50674067Y-21214699D01*
X50476043Y-21274769D01*
X50365898Y-21333643D01*
X50293550Y-21372315D01*
X50293548Y-21372316D01*
X50293547Y-21372317D01*
X50133589Y-21503589D01*
X50002317Y-21663547D01*
X49904769Y-21846043D01*
X49844699Y-22044067D01*
X49824417Y-22250000D01*
X49395583Y-22250000D01*
X49375300Y-22044066D01*
X49315232Y-21846046D01*
X49217685Y-21663550D01*
X49126408Y-21552328D01*
X49086410Y-21503589D01*
X48926452Y-21372317D01*
X48926453Y-21372317D01*
X48926450Y-21372315D01*
X48755742Y-21281069D01*
X48743956Y-21274769D01*
X48743955Y-21274768D01*
X48743954Y-21274768D01*
X48545934Y-21214700D01*
X48545932Y-21214699D01*
X48545934Y-21214699D01*
X48340000Y-21194417D01*
X48134067Y-21214699D01*
X47936043Y-21274769D01*
X47825898Y-21333643D01*
X47753550Y-21372315D01*
X47753548Y-21372316D01*
X47753547Y-21372317D01*
X47593589Y-21503589D01*
X47462317Y-21663547D01*
X47364769Y-21846043D01*
X47304699Y-22044067D01*
X47284417Y-22250000D01*
X20750000Y-22250000D01*
X20750000Y-21862809D01*
X24344295Y-21862809D01*
X24531946Y-21940537D01*
X24763057Y-21996021D01*
X24763056Y-21996021D01*
X25000000Y-22014668D01*
X25236943Y-21996021D01*
X25468053Y-21940537D01*
X25655703Y-21862809D01*
X25000001Y-21207107D01*
X25000000Y-21207107D01*
X24344295Y-21862809D01*
X20750000Y-21862809D01*
X20750000Y-20499997D01*
X21244876Y-20499997D01*
X21244876Y-20500002D01*
X21263335Y-20710998D01*
X21263336Y-20711005D01*
X21318158Y-20915600D01*
X21407671Y-21107560D01*
X21407672Y-21107562D01*
X21529162Y-21281069D01*
X21678930Y-21430837D01*
X21678933Y-21430839D01*
X21852438Y-21552328D01*
X22044403Y-21641843D01*
X22248996Y-21696664D01*
X22399713Y-21709849D01*
X22459998Y-21715124D01*
X22460000Y-21715124D01*
X22460002Y-21715124D01*
X22512751Y-21710509D01*
X22671004Y-21696664D01*
X22875597Y-21641843D01*
X23067562Y-21552328D01*
X23241067Y-21430839D01*
X23390839Y-21281067D01*
X23451596Y-21194296D01*
X23506171Y-21150672D01*
X23575669Y-21143478D01*
X23577361Y-21143803D01*
X23637189Y-21155703D01*
X24292893Y-20500000D01*
X24292893Y-20499999D01*
X24225751Y-20432857D01*
X24490000Y-20432857D01*
X24490000Y-20567143D01*
X24524755Y-20696853D01*
X24591898Y-20813147D01*
X24686853Y-20908102D01*
X24803147Y-20975245D01*
X24932857Y-21010000D01*
X25067143Y-21010000D01*
X25196853Y-20975245D01*
X25313147Y-20908102D01*
X25408102Y-20813147D01*
X25475245Y-20696853D01*
X25510000Y-20567143D01*
X25510000Y-20499999D01*
X25707107Y-20499999D01*
X25707107Y-20500001D01*
X26362809Y-21155703D01*
X26440537Y-20968053D01*
X26496021Y-20736943D01*
X26514668Y-20500000D01*
X26514668Y-20499997D01*
X27744876Y-20499997D01*
X27744876Y-20500002D01*
X27763335Y-20710998D01*
X27763336Y-20711005D01*
X27818158Y-20915600D01*
X27907671Y-21107560D01*
X27907672Y-21107562D01*
X28029162Y-21281069D01*
X28178930Y-21430837D01*
X28178933Y-21430839D01*
X28352438Y-21552328D01*
X28544403Y-21641843D01*
X28748996Y-21696664D01*
X28899713Y-21709849D01*
X28959998Y-21715124D01*
X28960000Y-21715124D01*
X28960002Y-21715124D01*
X29012751Y-21710509D01*
X29171004Y-21696664D01*
X29375597Y-21641843D01*
X29567562Y-21552328D01*
X29741067Y-21430839D01*
X29890839Y-21281067D01*
X30012328Y-21107562D01*
X30101843Y-20915597D01*
X30110226Y-20884309D01*
X30146590Y-20824652D01*
X30209437Y-20794123D01*
X30278813Y-20802418D01*
X30332691Y-20846903D01*
X30349772Y-20884307D01*
X30356149Y-20908102D01*
X30358158Y-20915600D01*
X30447671Y-21107560D01*
X30447672Y-21107562D01*
X30569162Y-21281069D01*
X30718930Y-21430837D01*
X30718933Y-21430839D01*
X30892438Y-21552328D01*
X31084403Y-21641843D01*
X31288996Y-21696664D01*
X31439713Y-21709849D01*
X31499998Y-21715124D01*
X31500000Y-21715124D01*
X31500002Y-21715124D01*
X31552751Y-21710509D01*
X31711004Y-21696664D01*
X31915597Y-21641843D01*
X32107562Y-21552328D01*
X32281067Y-21430839D01*
X32430839Y-21281067D01*
X32552328Y-21107562D01*
X32641843Y-20915597D01*
X32696664Y-20711004D01*
X32715124Y-20500000D01*
X32715124Y-20499997D01*
X34019876Y-20499997D01*
X34019876Y-20500002D01*
X34038335Y-20710998D01*
X34038336Y-20711005D01*
X34093158Y-20915600D01*
X34182671Y-21107560D01*
X34182672Y-21107562D01*
X34304162Y-21281069D01*
X34453930Y-21430837D01*
X34453933Y-21430839D01*
X34627438Y-21552328D01*
X34819403Y-21641843D01*
X35023996Y-21696664D01*
X35174713Y-21709849D01*
X35234998Y-21715124D01*
X35235000Y-21715124D01*
X35235002Y-21715124D01*
X35287751Y-21710509D01*
X35446004Y-21696664D01*
X35650597Y-21641843D01*
X35842562Y-21552328D01*
X36016067Y-21430839D01*
X36165839Y-21281067D01*
X36287328Y-21107562D01*
X36376843Y-20915597D01*
X36385226Y-20884309D01*
X36421590Y-20824652D01*
X36484437Y-20794123D01*
X36553813Y-20802418D01*
X36607691Y-20846903D01*
X36624772Y-20884307D01*
X36631149Y-20908102D01*
X36633158Y-20915600D01*
X36722671Y-21107560D01*
X36722672Y-21107562D01*
X36844162Y-21281069D01*
X36993930Y-21430837D01*
X36993933Y-21430839D01*
X37167438Y-21552328D01*
X37359403Y-21641843D01*
X37563996Y-21696664D01*
X37714713Y-21709849D01*
X37774998Y-21715124D01*
X37775000Y-21715124D01*
X37775002Y-21715124D01*
X37827751Y-21710509D01*
X37986004Y-21696664D01*
X38190597Y-21641843D01*
X38382562Y-21552328D01*
X38556067Y-21430839D01*
X38705839Y-21281067D01*
X38827328Y-21107562D01*
X38916843Y-20915597D01*
X38971664Y-20711004D01*
X38990124Y-20500000D01*
X38986860Y-20462697D01*
X38977875Y-20359987D01*
X38971664Y-20288996D01*
X38916843Y-20084403D01*
X38827328Y-19892438D01*
X38705839Y-19718933D01*
X38705837Y-19718930D01*
X38556069Y-19569162D01*
X38382562Y-19447672D01*
X38382560Y-19447671D01*
X38190600Y-19358158D01*
X38190597Y-19358157D01*
X38010505Y-19309901D01*
X37986005Y-19303336D01*
X37985998Y-19303335D01*
X37775002Y-19284876D01*
X37774998Y-19284876D01*
X37564001Y-19303335D01*
X37563994Y-19303336D01*
X37359399Y-19358158D01*
X37167439Y-19447671D01*
X37167437Y-19447672D01*
X36993930Y-19569162D01*
X36844162Y-19718930D01*
X36722672Y-19892437D01*
X36722671Y-19892439D01*
X36633157Y-20084403D01*
X36624774Y-20115688D01*
X36588409Y-20175348D01*
X36525562Y-20205876D01*
X36456186Y-20197581D01*
X36402309Y-20153095D01*
X36385226Y-20115688D01*
X36378851Y-20091898D01*
X36376843Y-20084403D01*
X36287328Y-19892438D01*
X36165839Y-19718933D01*
X36165837Y-19718930D01*
X36016069Y-19569162D01*
X35842562Y-19447672D01*
X35842560Y-19447671D01*
X35650600Y-19358158D01*
X35650597Y-19358157D01*
X35470505Y-19309901D01*
X35446005Y-19303336D01*
X35445998Y-19303335D01*
X35235002Y-19284876D01*
X35234998Y-19284876D01*
X35024001Y-19303335D01*
X35023994Y-19303336D01*
X34819399Y-19358158D01*
X34627439Y-19447671D01*
X34627437Y-19447672D01*
X34453930Y-19569162D01*
X34304162Y-19718930D01*
X34182672Y-19892437D01*
X34182671Y-19892439D01*
X34093158Y-20084399D01*
X34038336Y-20288994D01*
X34038335Y-20289001D01*
X34019876Y-20499997D01*
X32715124Y-20499997D01*
X32711860Y-20462697D01*
X32702875Y-20359987D01*
X32696664Y-20288996D01*
X32641843Y-20084403D01*
X32552328Y-19892438D01*
X32430839Y-19718933D01*
X32430837Y-19718930D01*
X32281069Y-19569162D01*
X32107562Y-19447672D01*
X32107560Y-19447671D01*
X31915600Y-19358158D01*
X31915597Y-19358157D01*
X31735505Y-19309901D01*
X31711005Y-19303336D01*
X31710998Y-19303335D01*
X31500002Y-19284876D01*
X31499998Y-19284876D01*
X31289001Y-19303335D01*
X31288994Y-19303336D01*
X31084399Y-19358158D01*
X30892439Y-19447671D01*
X30892437Y-19447672D01*
X30718930Y-19569162D01*
X30569162Y-19718930D01*
X30447672Y-19892437D01*
X30447671Y-19892439D01*
X30358157Y-20084403D01*
X30349774Y-20115688D01*
X30313409Y-20175348D01*
X30250562Y-20205876D01*
X30181186Y-20197581D01*
X30127309Y-20153095D01*
X30110226Y-20115688D01*
X30103851Y-20091898D01*
X30101843Y-20084403D01*
X30012328Y-19892438D01*
X29890839Y-19718933D01*
X29890837Y-19718930D01*
X29741069Y-19569162D01*
X29567562Y-19447672D01*
X29567560Y-19447671D01*
X29375600Y-19358158D01*
X29375597Y-19358157D01*
X29195505Y-19309901D01*
X29171005Y-19303336D01*
X29170998Y-19303335D01*
X28960002Y-19284876D01*
X28959998Y-19284876D01*
X28749001Y-19303335D01*
X28748994Y-19303336D01*
X28544399Y-19358158D01*
X28352439Y-19447671D01*
X28352437Y-19447672D01*
X28178930Y-19569162D01*
X28029162Y-19718930D01*
X27907672Y-19892437D01*
X27907671Y-19892439D01*
X27818158Y-20084399D01*
X27763336Y-20288994D01*
X27763335Y-20289001D01*
X27744876Y-20499997D01*
X26514668Y-20499997D01*
X26496021Y-20263056D01*
X26440537Y-20031946D01*
X26362809Y-19844295D01*
X25707107Y-20499999D01*
X25510000Y-20499999D01*
X25510000Y-20432857D01*
X25475245Y-20303147D01*
X25408102Y-20186853D01*
X25313147Y-20091898D01*
X25196853Y-20024755D01*
X25067143Y-19990000D01*
X24932857Y-19990000D01*
X24803147Y-20024755D01*
X24686853Y-20091898D01*
X24591898Y-20186853D01*
X24524755Y-20303147D01*
X24490000Y-20432857D01*
X24225751Y-20432857D01*
X23637189Y-19844295D01*
X23577361Y-19856196D01*
X23507770Y-19849969D01*
X23452592Y-19807106D01*
X23451595Y-19805702D01*
X23390837Y-19718930D01*
X23241069Y-19569162D01*
X23067562Y-19447672D01*
X23067560Y-19447671D01*
X22875600Y-19358158D01*
X22875597Y-19358157D01*
X22695505Y-19309901D01*
X22671005Y-19303336D01*
X22670998Y-19303335D01*
X22460002Y-19284876D01*
X22459998Y-19284876D01*
X22249001Y-19303335D01*
X22248994Y-19303336D01*
X22044399Y-19358158D01*
X21852439Y-19447671D01*
X21852437Y-19447672D01*
X21678930Y-19569162D01*
X21529162Y-19718930D01*
X21407672Y-19892437D01*
X21407671Y-19892439D01*
X21318158Y-20084399D01*
X21263336Y-20288994D01*
X21263335Y-20289001D01*
X21244876Y-20499997D01*
X20750000Y-20499997D01*
X20750000Y-19137189D01*
X24344295Y-19137189D01*
X25000000Y-19792893D01*
X25000001Y-19792893D01*
X25655703Y-19137189D01*
X25468058Y-19059463D01*
X25236942Y-19003978D01*
X25236943Y-19003978D01*
X25000000Y-18985331D01*
X24763057Y-19003978D01*
X24531942Y-19059463D01*
X24344295Y-19137189D01*
X20750000Y-19137189D01*
X20750000Y-16874000D01*
X20769685Y-16806961D01*
X20822489Y-16761206D01*
X20874000Y-16750000D01*
X50009981Y-16750000D01*
X50077020Y-16769685D01*
G37*
%TD.AperFunction*%
%TD*%
%TA.AperFunction,Conductor*%
%TO.N,VDD*%
G36*
X24531077Y-47708680D02*
G01*
X24531437Y-47707455D01*
X24657529Y-47744477D01*
X24675280Y-47749690D01*
X24678036Y-47750499D01*
X24678038Y-47750500D01*
X24774167Y-47750500D01*
X24841206Y-47770185D01*
X24861848Y-47786819D01*
X25065489Y-47990460D01*
X25124829Y-48024720D01*
X25134008Y-48030020D01*
X25134012Y-48030022D01*
X25210438Y-48050500D01*
X25210440Y-48050500D01*
X36289560Y-48050500D01*
X36289562Y-48050500D01*
X36365989Y-48030021D01*
X36434511Y-47990460D01*
X36490460Y-47934511D01*
X36638152Y-47786817D01*
X36699473Y-47753334D01*
X36725832Y-47750500D01*
X36821962Y-47750500D01*
X36821962Y-47750499D01*
X36874797Y-47734985D01*
X36968563Y-47707455D01*
X36968922Y-47708680D01*
X37008822Y-47700000D01*
X38991178Y-47700000D01*
X39031077Y-47708680D01*
X39031437Y-47707455D01*
X39157529Y-47744477D01*
X39175280Y-47749690D01*
X39178036Y-47750499D01*
X39178038Y-47750500D01*
X39178039Y-47750500D01*
X39321962Y-47750500D01*
X39321962Y-47750499D01*
X39374797Y-47734985D01*
X39468563Y-47707455D01*
X39468922Y-47708680D01*
X39508822Y-47700000D01*
X49186881Y-47700000D01*
X49253920Y-47719685D01*
X49299675Y-47772489D01*
X49303923Y-47783047D01*
X49319543Y-47827689D01*
X49319547Y-47827697D01*
X49409518Y-47970884D01*
X49409523Y-47970890D01*
X49529109Y-48090476D01*
X49529115Y-48090481D01*
X49672302Y-48180452D01*
X49672305Y-48180454D01*
X49672309Y-48180455D01*
X49672310Y-48180456D01*
X49744913Y-48205860D01*
X49831943Y-48236314D01*
X49999997Y-48255249D01*
X50000000Y-48255249D01*
X50000003Y-48255249D01*
X50168056Y-48236314D01*
X50168059Y-48236313D01*
X50327690Y-48180456D01*
X50327692Y-48180454D01*
X50327694Y-48180454D01*
X50327697Y-48180452D01*
X50470884Y-48090481D01*
X50470885Y-48090480D01*
X50470890Y-48090477D01*
X50590477Y-47970890D01*
X50680456Y-47827690D01*
X50696077Y-47783046D01*
X50736798Y-47726270D01*
X50801751Y-47700522D01*
X50813119Y-47700000D01*
X64376000Y-47700000D01*
X64443039Y-47719685D01*
X64488794Y-47772489D01*
X64500000Y-47824000D01*
X64500000Y-56675500D01*
X64480315Y-56742539D01*
X64427511Y-56788294D01*
X64376000Y-56799500D01*
X64181005Y-56799500D01*
X64045677Y-56826418D01*
X64045667Y-56826421D01*
X63918195Y-56879221D01*
X63918182Y-56879228D01*
X63803458Y-56955885D01*
X63803454Y-56955888D01*
X63705888Y-57053454D01*
X63705885Y-57053458D01*
X63629228Y-57168182D01*
X63629221Y-57168195D01*
X63576421Y-57295667D01*
X63576418Y-57295677D01*
X63549500Y-57431004D01*
X63549500Y-57431007D01*
X63549500Y-57568993D01*
X63549500Y-57568995D01*
X63549499Y-57568995D01*
X63576418Y-57704322D01*
X63576421Y-57704332D01*
X63629221Y-57831804D01*
X63629228Y-57831817D01*
X63705885Y-57946541D01*
X63705888Y-57946545D01*
X63803454Y-58044111D01*
X63803458Y-58044114D01*
X63918182Y-58120771D01*
X63918195Y-58120778D01*
X64045667Y-58173578D01*
X64045672Y-58173580D01*
X64045676Y-58173580D01*
X64045677Y-58173581D01*
X64181004Y-58200500D01*
X64376000Y-58200500D01*
X64443039Y-58220185D01*
X64488794Y-58272989D01*
X64500000Y-58324500D01*
X64500000Y-74161980D01*
X64480315Y-74229019D01*
X64463681Y-74249661D01*
X63862806Y-74850535D01*
X63801483Y-74884020D01*
X63787279Y-74886257D01*
X63605905Y-74904121D01*
X63415425Y-74961903D01*
X63239885Y-75055731D01*
X63239878Y-75055735D01*
X63086011Y-75182011D01*
X62959735Y-75335878D01*
X62959731Y-75335885D01*
X62865903Y-75511425D01*
X62808121Y-75701904D01*
X62788611Y-75900000D01*
X62808121Y-76098095D01*
X62865903Y-76288574D01*
X62959731Y-76464114D01*
X62959735Y-76464121D01*
X63075353Y-76605000D01*
X63102666Y-76669310D01*
X63103500Y-76683665D01*
X63103500Y-77656335D01*
X63083815Y-77723374D01*
X63075353Y-77735000D01*
X62959735Y-77875878D01*
X62959731Y-77875885D01*
X62865903Y-78051425D01*
X62808121Y-78241904D01*
X62788611Y-78440000D01*
X62808121Y-78638095D01*
X62865903Y-78828574D01*
X62959731Y-79004114D01*
X62959735Y-79004121D01*
X63075353Y-79145000D01*
X63102666Y-79209310D01*
X63103500Y-79223665D01*
X63103500Y-79845500D01*
X63083815Y-79912539D01*
X63031011Y-79958294D01*
X62979500Y-79969500D01*
X62974247Y-79969500D01*
X62915770Y-79981131D01*
X62915769Y-79981132D01*
X62849447Y-80025447D01*
X62805132Y-80091769D01*
X62805131Y-80091770D01*
X62793500Y-80150247D01*
X62793500Y-80948481D01*
X62773815Y-81015520D01*
X62757181Y-81036162D01*
X62455180Y-81338162D01*
X62393857Y-81371647D01*
X62324165Y-81366663D01*
X62268232Y-81324791D01*
X62243815Y-81259327D01*
X62248838Y-81214488D01*
X62259879Y-81178093D01*
X62279389Y-80980000D01*
X62259879Y-80781907D01*
X62202097Y-80591427D01*
X62108265Y-80415880D01*
X62108264Y-80415878D01*
X61981988Y-80262011D01*
X61828121Y-80135735D01*
X61828114Y-80135731D01*
X61652574Y-80041903D01*
X61462095Y-79984121D01*
X61264000Y-79964611D01*
X61065904Y-79984121D01*
X60875425Y-80041903D01*
X60699885Y-80135731D01*
X60699878Y-80135735D01*
X60546011Y-80262011D01*
X60419735Y-80415878D01*
X60419731Y-80415885D01*
X60325903Y-80591425D01*
X60268121Y-80781904D01*
X60248611Y-80980000D01*
X60268121Y-81178095D01*
X60325903Y-81368574D01*
X60419731Y-81544114D01*
X60419735Y-81544121D01*
X60546011Y-81697988D01*
X60699878Y-81824264D01*
X60699885Y-81824268D01*
X60782134Y-81868231D01*
X60875427Y-81918097D01*
X61065907Y-81975879D01*
X61264000Y-81995389D01*
X61462093Y-81975879D01*
X61498486Y-81964838D01*
X61568350Y-81964214D01*
X61627464Y-82001461D01*
X61657056Y-82064754D01*
X61647732Y-82133999D01*
X61622162Y-82171180D01*
X60047662Y-83745681D01*
X59986339Y-83779166D01*
X59959981Y-83782000D01*
X56478156Y-83782000D01*
X56411117Y-83762315D01*
X56405271Y-83758318D01*
X56322734Y-83698351D01*
X56322729Y-83698348D01*
X56149807Y-83621357D01*
X56149802Y-83621355D01*
X56004001Y-83590365D01*
X55964646Y-83582000D01*
X55775354Y-83582000D01*
X55742897Y-83588898D01*
X55590197Y-83621355D01*
X55590192Y-83621357D01*
X55417270Y-83698348D01*
X55417265Y-83698351D01*
X55264129Y-83809611D01*
X55137466Y-83950285D01*
X55042821Y-84114215D01*
X55042818Y-84114222D01*
X54984327Y-84294240D01*
X54984326Y-84294244D01*
X54965157Y-84476626D01*
X54964540Y-84482500D01*
X54983880Y-84666513D01*
X54971310Y-84735243D01*
X54948240Y-84767155D01*
X54669714Y-85045682D01*
X54608394Y-85079166D01*
X54582035Y-85082000D01*
X54238460Y-85082000D01*
X54171421Y-85062315D01*
X54125666Y-85009511D01*
X54115722Y-84940353D01*
X54131072Y-84896002D01*
X54157179Y-84850784D01*
X54215674Y-84670756D01*
X54235460Y-84482500D01*
X54215674Y-84294244D01*
X54157179Y-84114216D01*
X54062533Y-83950284D01*
X53935871Y-83809612D01*
X53935870Y-83809611D01*
X53782734Y-83698351D01*
X53782729Y-83698348D01*
X53609807Y-83621357D01*
X53609802Y-83621355D01*
X53464001Y-83590365D01*
X53424646Y-83582000D01*
X53235354Y-83582000D01*
X53202897Y-83588898D01*
X53050197Y-83621355D01*
X53050192Y-83621357D01*
X52877270Y-83698348D01*
X52877265Y-83698351D01*
X52724129Y-83809611D01*
X52597466Y-83950285D01*
X52502821Y-84114215D01*
X52502818Y-84114222D01*
X52444327Y-84294240D01*
X52444326Y-84294244D01*
X52424540Y-84482500D01*
X52444326Y-84670756D01*
X52444327Y-84670759D01*
X52502818Y-84850777D01*
X52502821Y-84850784D01*
X52528927Y-84896001D01*
X52545400Y-84963900D01*
X52522548Y-85029927D01*
X52467626Y-85073117D01*
X52421540Y-85082000D01*
X52091551Y-85082000D01*
X52024512Y-85062315D01*
X51978757Y-85009511D01*
X51968813Y-84940353D01*
X51978757Y-84906488D01*
X51985165Y-84892456D01*
X52005647Y-84750000D01*
X51985165Y-84607543D01*
X51925377Y-84476627D01*
X51831128Y-84367857D01*
X51710053Y-84290047D01*
X51710051Y-84290046D01*
X51710049Y-84290045D01*
X51710050Y-84290045D01*
X51571963Y-84249500D01*
X51571961Y-84249500D01*
X51428039Y-84249500D01*
X51428036Y-84249500D01*
X51289949Y-84290045D01*
X51168873Y-84367856D01*
X51074623Y-84476626D01*
X51074622Y-84476628D01*
X51014834Y-84607543D01*
X50994353Y-84750000D01*
X51014834Y-84892456D01*
X51021243Y-84906488D01*
X51031187Y-84975646D01*
X51002162Y-85039202D01*
X50943385Y-85076977D01*
X50908449Y-85082000D01*
X47487965Y-85082000D01*
X47420926Y-85062315D01*
X47400284Y-85045681D01*
X47121759Y-84767156D01*
X47088274Y-84705833D01*
X47086119Y-84666518D01*
X47105460Y-84482500D01*
X47085674Y-84294244D01*
X47027179Y-84114216D01*
X46932533Y-83950284D01*
X46805871Y-83809612D01*
X46805870Y-83809611D01*
X46652734Y-83698351D01*
X46652729Y-83698348D01*
X46479807Y-83621357D01*
X46479802Y-83621355D01*
X46334001Y-83590365D01*
X46294646Y-83582000D01*
X46105354Y-83582000D01*
X46072897Y-83588898D01*
X45920197Y-83621355D01*
X45920192Y-83621357D01*
X45747270Y-83698348D01*
X45747265Y-83698351D01*
X45594129Y-83809611D01*
X45467466Y-83950285D01*
X45372821Y-84114215D01*
X45372818Y-84114222D01*
X45365431Y-84136959D01*
X45325993Y-84194635D01*
X45261635Y-84221833D01*
X45192789Y-84209918D01*
X45141313Y-84162674D01*
X45129569Y-84136959D01*
X45122181Y-84114222D01*
X45122180Y-84114221D01*
X45122179Y-84114216D01*
X45027533Y-83950284D01*
X44900871Y-83809612D01*
X44900870Y-83809611D01*
X44747734Y-83698351D01*
X44747729Y-83698348D01*
X44574807Y-83621357D01*
X44574802Y-83621355D01*
X44429001Y-83590365D01*
X44389646Y-83582000D01*
X44200354Y-83582000D01*
X44167897Y-83588898D01*
X44015197Y-83621355D01*
X44015192Y-83621357D01*
X43842270Y-83698348D01*
X43842265Y-83698351D01*
X43689129Y-83809611D01*
X43562466Y-83950285D01*
X43467821Y-84114215D01*
X43467818Y-84114222D01*
X43460431Y-84136959D01*
X43420993Y-84194635D01*
X43356635Y-84221833D01*
X43287789Y-84209918D01*
X43236313Y-84162674D01*
X43224569Y-84136959D01*
X43217181Y-84114222D01*
X43217180Y-84114221D01*
X43217179Y-84114216D01*
X43122533Y-83950284D01*
X42995871Y-83809612D01*
X42995870Y-83809611D01*
X42842734Y-83698351D01*
X42842729Y-83698348D01*
X42669807Y-83621357D01*
X42669802Y-83621355D01*
X42524001Y-83590365D01*
X42484646Y-83582000D01*
X42295354Y-83582000D01*
X42262897Y-83588898D01*
X42110197Y-83621355D01*
X42110192Y-83621357D01*
X41937270Y-83698348D01*
X41937265Y-83698351D01*
X41784129Y-83809611D01*
X41657466Y-83950285D01*
X41562821Y-84114215D01*
X41562818Y-84114222D01*
X41504327Y-84294240D01*
X41504326Y-84294244D01*
X41484540Y-84482500D01*
X41504326Y-84670756D01*
X41504327Y-84670759D01*
X41562818Y-84850777D01*
X41562821Y-84850784D01*
X41657467Y-85014716D01*
X41700325Y-85062315D01*
X41727529Y-85092528D01*
X41757759Y-85155520D01*
X41749134Y-85224855D01*
X41704392Y-85278520D01*
X41637740Y-85299478D01*
X41635379Y-85299500D01*
X39457634Y-85299500D01*
X39390595Y-85279815D01*
X39344840Y-85227011D01*
X39334896Y-85157853D01*
X39363921Y-85094297D01*
X39365454Y-85092528D01*
X39425377Y-85023373D01*
X39485165Y-84892457D01*
X39505647Y-84750000D01*
X39485165Y-84607543D01*
X39425377Y-84476627D01*
X39331128Y-84367857D01*
X39210053Y-84290047D01*
X39210051Y-84290046D01*
X39210049Y-84290045D01*
X39210050Y-84290045D01*
X39071963Y-84249500D01*
X39071961Y-84249500D01*
X38928039Y-84249500D01*
X38928036Y-84249500D01*
X38789949Y-84290045D01*
X38668873Y-84367856D01*
X38574623Y-84476626D01*
X38574622Y-84476628D01*
X38514834Y-84607543D01*
X38494353Y-84750000D01*
X38514834Y-84892456D01*
X38570669Y-85014716D01*
X38574623Y-85023373D01*
X38625423Y-85082000D01*
X38636079Y-85094297D01*
X38665104Y-85157853D01*
X38655160Y-85227012D01*
X38609405Y-85279816D01*
X38542366Y-85299500D01*
X37105466Y-85299500D01*
X37038427Y-85279815D01*
X37017785Y-85263181D01*
X36777975Y-85023371D01*
X36521758Y-84767155D01*
X36488274Y-84705833D01*
X36486119Y-84666518D01*
X36505460Y-84482500D01*
X36485674Y-84294244D01*
X36427179Y-84114216D01*
X36332533Y-83950284D01*
X36205871Y-83809612D01*
X36205870Y-83809611D01*
X36052734Y-83698351D01*
X36052729Y-83698348D01*
X35879807Y-83621357D01*
X35879802Y-83621355D01*
X35734001Y-83590365D01*
X35694646Y-83582000D01*
X35505354Y-83582000D01*
X35472897Y-83588898D01*
X35320197Y-83621355D01*
X35320192Y-83621357D01*
X35147270Y-83698348D01*
X35147265Y-83698351D01*
X34994129Y-83809611D01*
X34867466Y-83950285D01*
X34772821Y-84114215D01*
X34772818Y-84114222D01*
X34765431Y-84136959D01*
X34725993Y-84194635D01*
X34661635Y-84221833D01*
X34592789Y-84209918D01*
X34541313Y-84162674D01*
X34529569Y-84136959D01*
X34522181Y-84114222D01*
X34522180Y-84114221D01*
X34522179Y-84114216D01*
X34427533Y-83950284D01*
X34300871Y-83809612D01*
X34300870Y-83809611D01*
X34147734Y-83698351D01*
X34147729Y-83698348D01*
X33974807Y-83621357D01*
X33974802Y-83621355D01*
X33829001Y-83590365D01*
X33789646Y-83582000D01*
X33600354Y-83582000D01*
X33567897Y-83588898D01*
X33415197Y-83621355D01*
X33415192Y-83621357D01*
X33242270Y-83698348D01*
X33242265Y-83698351D01*
X33089129Y-83809611D01*
X32962466Y-83950285D01*
X32867821Y-84114215D01*
X32867818Y-84114222D01*
X32860431Y-84136959D01*
X32820993Y-84194635D01*
X32756635Y-84221833D01*
X32687789Y-84209918D01*
X32636313Y-84162674D01*
X32624569Y-84136959D01*
X32617181Y-84114222D01*
X32617180Y-84114221D01*
X32617179Y-84114216D01*
X32522533Y-83950284D01*
X32395871Y-83809612D01*
X32395870Y-83809611D01*
X32242734Y-83698351D01*
X32242729Y-83698348D01*
X32069807Y-83621357D01*
X32069802Y-83621355D01*
X31924001Y-83590365D01*
X31884646Y-83582000D01*
X31695354Y-83582000D01*
X31662897Y-83588898D01*
X31510197Y-83621355D01*
X31510192Y-83621357D01*
X31337270Y-83698348D01*
X31337265Y-83698351D01*
X31184129Y-83809611D01*
X31057466Y-83950285D01*
X30962821Y-84114215D01*
X30962818Y-84114222D01*
X30904327Y-84294240D01*
X30904326Y-84294244D01*
X30884540Y-84482500D01*
X30904326Y-84670756D01*
X30904327Y-84670759D01*
X30962818Y-84850777D01*
X30962821Y-84850784D01*
X31057467Y-85014716D01*
X31137206Y-85103275D01*
X31184129Y-85155388D01*
X31337265Y-85266648D01*
X31337270Y-85266651D01*
X31510192Y-85343642D01*
X31510197Y-85343644D01*
X31695354Y-85383000D01*
X31695355Y-85383000D01*
X31884644Y-85383000D01*
X31884646Y-85383000D01*
X32069803Y-85343644D01*
X32242730Y-85266651D01*
X32395871Y-85155388D01*
X32522533Y-85014716D01*
X32617179Y-84850784D01*
X32624569Y-84828041D01*
X32664006Y-84770365D01*
X32728364Y-84743166D01*
X32797210Y-84755080D01*
X32848687Y-84802324D01*
X32860431Y-84828041D01*
X32867817Y-84850775D01*
X32867821Y-84850784D01*
X32962467Y-85014716D01*
X33042206Y-85103275D01*
X33089129Y-85155388D01*
X33242265Y-85266648D01*
X33242270Y-85266651D01*
X33415192Y-85343642D01*
X33415197Y-85343644D01*
X33600354Y-85383000D01*
X33600355Y-85383000D01*
X33789644Y-85383000D01*
X33789646Y-85383000D01*
X33974803Y-85343644D01*
X34147730Y-85266651D01*
X34300871Y-85155388D01*
X34427533Y-85014716D01*
X34522179Y-84850784D01*
X34529569Y-84828041D01*
X34569006Y-84770365D01*
X34633364Y-84743166D01*
X34702210Y-84755080D01*
X34753687Y-84802324D01*
X34765431Y-84828041D01*
X34772817Y-84850775D01*
X34772821Y-84850784D01*
X34867467Y-85014716D01*
X34947206Y-85103275D01*
X34994129Y-85155388D01*
X35147265Y-85266648D01*
X35147270Y-85266651D01*
X35320192Y-85343642D01*
X35320197Y-85343644D01*
X35505354Y-85383000D01*
X35505355Y-85383000D01*
X35694645Y-85383000D01*
X35694646Y-85383000D01*
X35767960Y-85367416D01*
X35837626Y-85372731D01*
X35881422Y-85401025D01*
X36530260Y-86049864D01*
X36563745Y-86111187D01*
X36558761Y-86180879D01*
X36516889Y-86236812D01*
X36451425Y-86261229D01*
X36414987Y-86258436D01*
X36323157Y-86237476D01*
X36323151Y-86237476D01*
X36146249Y-86237476D01*
X36146242Y-86237476D01*
X35973781Y-86276839D01*
X35814399Y-86353594D01*
X35814396Y-86353596D01*
X35676092Y-86463892D01*
X35565796Y-86602196D01*
X35565794Y-86602199D01*
X35489039Y-86761581D01*
X35449676Y-86934042D01*
X35449676Y-87110953D01*
X35449807Y-87112116D01*
X35449676Y-87112863D01*
X35449676Y-87117915D01*
X35448791Y-87117915D01*
X35437753Y-87180938D01*
X35390404Y-87232317D01*
X35326587Y-87250000D01*
X32063109Y-87250000D01*
X31996070Y-87230315D01*
X31950315Y-87177511D01*
X31941111Y-87117077D01*
X31939854Y-87117042D01*
X31942500Y-87022515D01*
X31942500Y-87022484D01*
X31940024Y-86934056D01*
X31940024Y-86934049D01*
X31900660Y-86761582D01*
X31823905Y-86602199D01*
X31713608Y-86463892D01*
X31588672Y-86364258D01*
X31575303Y-86353596D01*
X31575300Y-86353594D01*
X31415918Y-86276839D01*
X31243457Y-86237476D01*
X31243451Y-86237476D01*
X31066549Y-86237476D01*
X31066542Y-86237476D01*
X30894081Y-86276839D01*
X30734699Y-86353594D01*
X30734696Y-86353596D01*
X30596392Y-86463892D01*
X30486096Y-86602196D01*
X30486094Y-86602199D01*
X30409339Y-86761581D01*
X30369976Y-86934042D01*
X30369976Y-87110953D01*
X30370107Y-87112116D01*
X30369976Y-87112863D01*
X30369976Y-87117915D01*
X30369091Y-87117915D01*
X30358053Y-87180938D01*
X30310704Y-87232317D01*
X30246887Y-87250000D01*
X20874000Y-87250000D01*
X20806961Y-87230315D01*
X20761206Y-87177511D01*
X20750000Y-87126000D01*
X20750000Y-82000000D01*
X22292843Y-82000000D01*
X22311426Y-82188681D01*
X22311427Y-82188683D01*
X22366463Y-82370115D01*
X22366464Y-82370118D01*
X22366465Y-82370119D01*
X22366466Y-82370122D01*
X22455834Y-82537318D01*
X22455838Y-82537325D01*
X22576116Y-82683883D01*
X22722674Y-82804161D01*
X22722681Y-82804165D01*
X22889877Y-82893533D01*
X22889878Y-82893533D01*
X22889885Y-82893537D01*
X23071317Y-82948573D01*
X23071316Y-82948573D01*
X23088233Y-82950239D01*
X23260000Y-82967157D01*
X23448683Y-82948573D01*
X23630115Y-82893537D01*
X23797324Y-82804162D01*
X23943883Y-82683883D01*
X24064162Y-82537324D01*
X24153537Y-82370115D01*
X24208573Y-82188683D01*
X24227157Y-82000000D01*
X24832843Y-82000000D01*
X24851426Y-82188681D01*
X24851427Y-82188683D01*
X24906463Y-82370115D01*
X24906464Y-82370118D01*
X24906465Y-82370119D01*
X24906466Y-82370122D01*
X24995834Y-82537318D01*
X24995838Y-82537325D01*
X25116116Y-82683883D01*
X25262674Y-82804161D01*
X25262681Y-82804165D01*
X25429877Y-82893533D01*
X25429878Y-82893533D01*
X25429885Y-82893537D01*
X25611317Y-82948573D01*
X25611316Y-82948573D01*
X25628233Y-82950239D01*
X25800000Y-82967157D01*
X25988683Y-82948573D01*
X26170115Y-82893537D01*
X26337324Y-82804162D01*
X26483883Y-82683883D01*
X26604162Y-82537324D01*
X26693537Y-82370115D01*
X26748573Y-82188683D01*
X26767157Y-82000000D01*
X26748573Y-81811317D01*
X26693537Y-81629885D01*
X26693533Y-81629877D01*
X26604165Y-81462681D01*
X26604161Y-81462674D01*
X26483883Y-81316116D01*
X26337325Y-81195838D01*
X26337318Y-81195834D01*
X26170122Y-81106466D01*
X26170119Y-81106465D01*
X26170118Y-81106464D01*
X26170115Y-81106463D01*
X25988683Y-81051427D01*
X25988681Y-81051426D01*
X25988683Y-81051426D01*
X25800000Y-81032843D01*
X25611318Y-81051426D01*
X25504194Y-81083921D01*
X25429885Y-81106463D01*
X25429882Y-81106464D01*
X25429880Y-81106465D01*
X25429877Y-81106466D01*
X25262681Y-81195834D01*
X25262674Y-81195838D01*
X25116116Y-81316116D01*
X24995838Y-81462674D01*
X24995834Y-81462681D01*
X24906466Y-81629877D01*
X24906465Y-81629880D01*
X24906464Y-81629882D01*
X24906463Y-81629885D01*
X24883921Y-81704194D01*
X24851426Y-81811318D01*
X24832843Y-82000000D01*
X24227157Y-82000000D01*
X24208573Y-81811317D01*
X24153537Y-81629885D01*
X24153533Y-81629877D01*
X24064165Y-81462681D01*
X24064161Y-81462674D01*
X23943883Y-81316116D01*
X23797325Y-81195838D01*
X23797318Y-81195834D01*
X23630122Y-81106466D01*
X23630119Y-81106465D01*
X23630118Y-81106464D01*
X23630115Y-81106463D01*
X23448683Y-81051427D01*
X23448681Y-81051426D01*
X23448683Y-81051426D01*
X23260000Y-81032843D01*
X23071318Y-81051426D01*
X22964194Y-81083921D01*
X22889885Y-81106463D01*
X22889882Y-81106464D01*
X22889880Y-81106465D01*
X22889877Y-81106466D01*
X22722681Y-81195834D01*
X22722674Y-81195838D01*
X22576116Y-81316116D01*
X22455838Y-81462674D01*
X22455834Y-81462681D01*
X22366466Y-81629877D01*
X22366465Y-81629880D01*
X22366464Y-81629882D01*
X22366463Y-81629885D01*
X22343921Y-81704194D01*
X22311426Y-81811318D01*
X22292843Y-82000000D01*
X20750000Y-82000000D01*
X20750000Y-79277748D01*
X32109947Y-79277748D01*
X32109947Y-79527251D01*
X32145227Y-79750000D01*
X32148976Y-79773668D01*
X32226074Y-80010949D01*
X32339341Y-80233249D01*
X32485989Y-80435093D01*
X32662407Y-80611511D01*
X32864251Y-80758159D01*
X33086551Y-80871426D01*
X33323832Y-80948524D01*
X33416240Y-80963159D01*
X33570249Y-80987553D01*
X33819746Y-80987553D01*
X33819751Y-80987553D01*
X33956647Y-80965870D01*
X34066168Y-80948524D01*
X34303449Y-80871426D01*
X34525749Y-80758159D01*
X34727593Y-80611511D01*
X34904011Y-80435093D01*
X35050659Y-80233249D01*
X35163926Y-80010949D01*
X35241024Y-79773668D01*
X35280053Y-79527246D01*
X35282500Y-79402500D01*
X35280053Y-79277754D01*
X35280052Y-79277748D01*
X42709947Y-79277748D01*
X42709947Y-79527251D01*
X42745227Y-79750000D01*
X42748976Y-79773668D01*
X42826074Y-80010949D01*
X42939341Y-80233249D01*
X43085989Y-80435093D01*
X43262407Y-80611511D01*
X43464251Y-80758159D01*
X43686551Y-80871426D01*
X43923832Y-80948524D01*
X44016240Y-80963159D01*
X44170249Y-80987553D01*
X44419746Y-80987553D01*
X44419751Y-80987553D01*
X44556647Y-80965870D01*
X44666168Y-80948524D01*
X44903449Y-80871426D01*
X45125749Y-80758159D01*
X45327593Y-80611511D01*
X45504011Y-80435093D01*
X45650659Y-80233249D01*
X45763926Y-80010949D01*
X45841024Y-79773668D01*
X45844773Y-79750000D01*
X49994353Y-79750000D01*
X50014834Y-79892456D01*
X50055332Y-79981132D01*
X50074623Y-80023373D01*
X50168872Y-80132143D01*
X50289947Y-80209953D01*
X50289950Y-80209954D01*
X50289949Y-80209954D01*
X50428036Y-80250499D01*
X50428038Y-80250500D01*
X50428039Y-80250500D01*
X50571962Y-80250500D01*
X50571962Y-80250499D01*
X50710053Y-80209953D01*
X50831128Y-80132143D01*
X50925377Y-80023373D01*
X50985165Y-79892457D01*
X51005647Y-79750000D01*
X50985165Y-79607543D01*
X50925377Y-79476627D01*
X50831128Y-79367857D01*
X50710053Y-79290047D01*
X50710051Y-79290046D01*
X50710049Y-79290045D01*
X50710050Y-79290045D01*
X50668169Y-79277748D01*
X52999947Y-79277748D01*
X52999947Y-79527251D01*
X53035227Y-79750000D01*
X53038976Y-79773668D01*
X53116074Y-80010949D01*
X53229341Y-80233249D01*
X53375989Y-80435093D01*
X53552407Y-80611511D01*
X53754251Y-80758159D01*
X53976551Y-80871426D01*
X54213832Y-80948524D01*
X54306240Y-80963159D01*
X54460249Y-80987553D01*
X54709746Y-80987553D01*
X54709751Y-80987553D01*
X54846647Y-80965870D01*
X54956168Y-80948524D01*
X55193449Y-80871426D01*
X55415749Y-80758159D01*
X55617593Y-80611511D01*
X55794011Y-80435093D01*
X55940659Y-80233249D01*
X56053926Y-80010949D01*
X56131024Y-79773668D01*
X56170053Y-79527246D01*
X56172500Y-79402500D01*
X56170053Y-79277754D01*
X56131024Y-79031332D01*
X56053926Y-78794051D01*
X55940659Y-78571751D01*
X55844936Y-78440000D01*
X60248611Y-78440000D01*
X60268121Y-78638095D01*
X60325903Y-78828574D01*
X60419731Y-79004114D01*
X60419735Y-79004121D01*
X60546011Y-79157988D01*
X60699878Y-79284264D01*
X60699885Y-79284268D01*
X60710697Y-79290047D01*
X60875427Y-79378097D01*
X61065907Y-79435879D01*
X61264000Y-79455389D01*
X61462093Y-79435879D01*
X61652573Y-79378097D01*
X61828120Y-79284265D01*
X61981988Y-79157988D01*
X62108265Y-79004120D01*
X62202097Y-78828573D01*
X62259879Y-78638093D01*
X62279389Y-78440000D01*
X62259879Y-78241907D01*
X62202097Y-78051427D01*
X62162116Y-77976628D01*
X62108268Y-77875885D01*
X62108264Y-77875878D01*
X61981988Y-77722011D01*
X61828121Y-77595735D01*
X61828114Y-77595731D01*
X61652574Y-77501903D01*
X61462095Y-77444121D01*
X61264000Y-77424611D01*
X61065904Y-77444121D01*
X60875425Y-77501903D01*
X60699885Y-77595731D01*
X60699878Y-77595735D01*
X60546011Y-77722011D01*
X60419735Y-77875878D01*
X60419731Y-77875885D01*
X60325903Y-78051425D01*
X60268121Y-78241904D01*
X60248611Y-78440000D01*
X55844936Y-78440000D01*
X55794011Y-78369907D01*
X55617593Y-78193489D01*
X55415749Y-78046841D01*
X55193449Y-77933574D01*
X54956168Y-77856476D01*
X54956166Y-77856475D01*
X54956164Y-77856475D01*
X54709751Y-77817447D01*
X54709746Y-77817447D01*
X54460254Y-77817447D01*
X54460249Y-77817447D01*
X54213835Y-77856475D01*
X53976548Y-77933575D01*
X53754250Y-78046841D01*
X53552404Y-78193491D01*
X53375991Y-78369904D01*
X53229341Y-78571750D01*
X53116075Y-78794048D01*
X53038975Y-79031335D01*
X52999947Y-79277748D01*
X50668169Y-79277748D01*
X50571963Y-79249500D01*
X50571961Y-79249500D01*
X50428039Y-79249500D01*
X50428036Y-79249500D01*
X50289949Y-79290045D01*
X50168873Y-79367856D01*
X50074623Y-79476626D01*
X50074622Y-79476628D01*
X50014834Y-79607543D01*
X49994353Y-79750000D01*
X45844773Y-79750000D01*
X45880053Y-79527246D01*
X45882500Y-79402500D01*
X45880053Y-79277754D01*
X45841024Y-79031332D01*
X45763926Y-78794051D01*
X45650659Y-78571751D01*
X45504011Y-78369907D01*
X45327593Y-78193489D01*
X45125749Y-78046841D01*
X44903449Y-77933574D01*
X44666168Y-77856476D01*
X44666166Y-77856475D01*
X44666164Y-77856475D01*
X44419751Y-77817447D01*
X44419746Y-77817447D01*
X44170254Y-77817447D01*
X44170249Y-77817447D01*
X43923835Y-77856475D01*
X43686548Y-77933575D01*
X43464250Y-78046841D01*
X43262404Y-78193491D01*
X43085991Y-78369904D01*
X42939341Y-78571750D01*
X42826075Y-78794048D01*
X42748975Y-79031335D01*
X42709947Y-79277748D01*
X35280052Y-79277748D01*
X35241024Y-79031332D01*
X35163926Y-78794051D01*
X35050659Y-78571751D01*
X34904011Y-78369907D01*
X34727593Y-78193489D01*
X34525749Y-78046841D01*
X34303449Y-77933574D01*
X34066168Y-77856476D01*
X34066166Y-77856475D01*
X34066164Y-77856475D01*
X33819751Y-77817447D01*
X33819746Y-77817447D01*
X33570254Y-77817447D01*
X33570249Y-77817447D01*
X33323835Y-77856475D01*
X33086548Y-77933575D01*
X32864250Y-78046841D01*
X32662404Y-78193491D01*
X32485991Y-78369904D01*
X32339341Y-78571750D01*
X32226075Y-78794048D01*
X32148975Y-79031335D01*
X32109947Y-79277748D01*
X20750000Y-79277748D01*
X20750000Y-78094508D01*
X22792596Y-78094508D01*
X22792597Y-78094509D01*
X22826708Y-78110416D01*
X22826719Y-78110420D01*
X23040017Y-78167574D01*
X23040023Y-78167575D01*
X23259999Y-78186821D01*
X23260001Y-78186821D01*
X23479976Y-78167575D01*
X23479982Y-78167574D01*
X23693282Y-78110420D01*
X23727402Y-78094508D01*
X23260001Y-77627107D01*
X23260000Y-77627107D01*
X22792596Y-78094508D01*
X20750000Y-78094508D01*
X20750000Y-77500000D01*
X38494353Y-77500000D01*
X38514834Y-77642456D01*
X38574622Y-77773371D01*
X38574625Y-77773377D01*
X38592321Y-77793799D01*
X38621345Y-77857355D01*
X38611401Y-77926513D01*
X38592321Y-77956201D01*
X38574625Y-77976622D01*
X38574622Y-77976628D01*
X38514834Y-78107543D01*
X38494353Y-78250000D01*
X38514834Y-78392456D01*
X38536547Y-78440000D01*
X38574623Y-78523373D01*
X38668872Y-78632143D01*
X38789947Y-78709953D01*
X38789950Y-78709954D01*
X38789949Y-78709954D01*
X38928036Y-78750499D01*
X38928038Y-78750500D01*
X38928039Y-78750500D01*
X39071962Y-78750500D01*
X39071962Y-78750499D01*
X39210053Y-78709953D01*
X39331128Y-78632143D01*
X39425377Y-78523373D01*
X39485165Y-78392457D01*
X39505647Y-78250000D01*
X39485165Y-78107543D01*
X39425377Y-77976627D01*
X39425375Y-77976625D01*
X39425374Y-77976622D01*
X39407680Y-77956203D01*
X39378654Y-77892648D01*
X39388597Y-77823489D01*
X39407680Y-77793797D01*
X39425374Y-77773377D01*
X39425374Y-77773375D01*
X39425377Y-77773373D01*
X39485165Y-77642457D01*
X39505647Y-77500000D01*
X39485165Y-77357543D01*
X39425377Y-77226627D01*
X39331128Y-77117857D01*
X39210053Y-77040047D01*
X39210051Y-77040046D01*
X39210049Y-77040045D01*
X39210050Y-77040045D01*
X39071963Y-76999500D01*
X39071961Y-76999500D01*
X38928039Y-76999500D01*
X38928036Y-76999500D01*
X38789949Y-77040045D01*
X38668873Y-77117856D01*
X38574623Y-77226626D01*
X38574622Y-77226628D01*
X38514834Y-77357543D01*
X38494353Y-77500000D01*
X20750000Y-77500000D01*
X20750000Y-76919999D01*
X21993179Y-76919999D01*
X21993179Y-76920000D01*
X22012424Y-77139976D01*
X22012426Y-77139986D01*
X22069576Y-77353273D01*
X22085490Y-77387401D01*
X22552893Y-76920000D01*
X22552893Y-76919999D01*
X22502734Y-76869840D01*
X22879000Y-76869840D01*
X22879000Y-76970160D01*
X22904964Y-77067061D01*
X22955124Y-77153940D01*
X23026060Y-77224876D01*
X23112939Y-77275036D01*
X23209840Y-77301000D01*
X23310160Y-77301000D01*
X23407061Y-77275036D01*
X23493940Y-77224876D01*
X23564876Y-77153940D01*
X23615036Y-77067061D01*
X23641000Y-76970160D01*
X23641000Y-76919999D01*
X23967107Y-76919999D01*
X23967107Y-76920001D01*
X24434508Y-77387402D01*
X24450420Y-77353282D01*
X24507574Y-77139982D01*
X24507575Y-77139976D01*
X24526821Y-76920000D01*
X24526821Y-76919999D01*
X24507575Y-76700023D01*
X24507574Y-76700017D01*
X24450420Y-76486719D01*
X24450416Y-76486708D01*
X24434509Y-76452597D01*
X24434508Y-76452596D01*
X23967107Y-76919999D01*
X23641000Y-76919999D01*
X23641000Y-76869840D01*
X23615036Y-76772939D01*
X23564876Y-76686060D01*
X23493940Y-76615124D01*
X23407061Y-76564964D01*
X23310160Y-76539000D01*
X23209840Y-76539000D01*
X23112939Y-76564964D01*
X23026060Y-76615124D01*
X22955124Y-76686060D01*
X22904964Y-76772939D01*
X22879000Y-76869840D01*
X22502734Y-76869840D01*
X22085490Y-76452596D01*
X22085489Y-76452597D01*
X22069580Y-76486716D01*
X22069576Y-76486727D01*
X22012426Y-76700013D01*
X22012424Y-76700023D01*
X21993179Y-76919999D01*
X20750000Y-76919999D01*
X20750000Y-75745490D01*
X22792596Y-75745490D01*
X23260000Y-76212893D01*
X23260001Y-76212893D01*
X23572892Y-75900000D01*
X60248611Y-75900000D01*
X60268121Y-76098095D01*
X60325903Y-76288574D01*
X60419731Y-76464114D01*
X60419735Y-76464121D01*
X60546011Y-76617988D01*
X60699878Y-76744264D01*
X60699885Y-76744268D01*
X60753525Y-76772939D01*
X60875427Y-76838097D01*
X61065907Y-76895879D01*
X61264000Y-76915389D01*
X61462093Y-76895879D01*
X61652573Y-76838097D01*
X61828120Y-76744265D01*
X61981988Y-76617988D01*
X62108265Y-76464120D01*
X62202097Y-76288573D01*
X62259879Y-76098093D01*
X62279389Y-75900000D01*
X62259879Y-75701907D01*
X62202097Y-75511427D01*
X62108265Y-75335880D01*
X62108264Y-75335878D01*
X61981988Y-75182011D01*
X61828121Y-75055735D01*
X61828114Y-75055731D01*
X61652574Y-74961903D01*
X61462095Y-74904121D01*
X61264000Y-74884611D01*
X61065904Y-74904121D01*
X60875425Y-74961903D01*
X60699885Y-75055731D01*
X60699878Y-75055735D01*
X60546011Y-75182011D01*
X60419735Y-75335878D01*
X60419731Y-75335885D01*
X60325903Y-75511425D01*
X60268121Y-75701904D01*
X60248611Y-75900000D01*
X23572892Y-75900000D01*
X23727401Y-75745490D01*
X23693273Y-75729576D01*
X23479986Y-75672426D01*
X23479976Y-75672424D01*
X23260001Y-75653179D01*
X23259999Y-75653179D01*
X23040023Y-75672424D01*
X23040013Y-75672426D01*
X22826727Y-75729576D01*
X22826716Y-75729580D01*
X22792597Y-75745489D01*
X22792596Y-75745490D01*
X20750000Y-75745490D01*
X20750000Y-74380000D01*
X22292843Y-74380000D01*
X22311426Y-74568681D01*
X22329772Y-74629160D01*
X22366463Y-74750115D01*
X22366464Y-74750118D01*
X22366465Y-74750119D01*
X22366466Y-74750122D01*
X22455834Y-74917318D01*
X22455838Y-74917325D01*
X22576116Y-75063883D01*
X22722674Y-75184161D01*
X22722681Y-75184165D01*
X22889877Y-75273533D01*
X22889878Y-75273533D01*
X22889885Y-75273537D01*
X23071317Y-75328573D01*
X23071316Y-75328573D01*
X23088233Y-75330239D01*
X23260000Y-75347157D01*
X23448683Y-75328573D01*
X23630115Y-75273537D01*
X23797324Y-75184162D01*
X23943883Y-75063883D01*
X23996311Y-75000000D01*
X27494353Y-75000000D01*
X27514834Y-75142456D01*
X27574622Y-75273371D01*
X27574623Y-75273373D01*
X27668872Y-75382143D01*
X27789947Y-75459953D01*
X27789950Y-75459954D01*
X27789949Y-75459954D01*
X27928036Y-75500499D01*
X27928038Y-75500500D01*
X27928039Y-75500500D01*
X28071962Y-75500500D01*
X28071962Y-75500499D01*
X28210053Y-75459953D01*
X28331128Y-75382143D01*
X28425377Y-75273373D01*
X28485165Y-75142457D01*
X28505647Y-75000000D01*
X56494353Y-75000000D01*
X56514834Y-75142456D01*
X56574622Y-75273371D01*
X56574623Y-75273373D01*
X56668872Y-75382143D01*
X56789947Y-75459953D01*
X56789950Y-75459954D01*
X56789949Y-75459954D01*
X56928036Y-75500499D01*
X56928038Y-75500500D01*
X56928039Y-75500500D01*
X57071962Y-75500500D01*
X57071962Y-75500499D01*
X57210053Y-75459953D01*
X57331128Y-75382143D01*
X57425377Y-75273373D01*
X57485165Y-75142457D01*
X57505647Y-75000000D01*
X57485165Y-74857543D01*
X57425377Y-74726627D01*
X57331128Y-74617857D01*
X57210053Y-74540047D01*
X57210051Y-74540046D01*
X57210049Y-74540045D01*
X57210050Y-74540045D01*
X57071963Y-74499500D01*
X57071961Y-74499500D01*
X56928039Y-74499500D01*
X56928036Y-74499500D01*
X56789949Y-74540045D01*
X56668873Y-74617856D01*
X56574623Y-74726626D01*
X56574622Y-74726628D01*
X56514834Y-74857543D01*
X56494353Y-75000000D01*
X28505647Y-75000000D01*
X28485165Y-74857543D01*
X28425377Y-74726627D01*
X28331128Y-74617857D01*
X28210053Y-74540047D01*
X28210051Y-74540046D01*
X28210049Y-74540045D01*
X28210050Y-74540045D01*
X28071963Y-74499500D01*
X28071961Y-74499500D01*
X27928039Y-74499500D01*
X27928036Y-74499500D01*
X27789949Y-74540045D01*
X27668873Y-74617856D01*
X27574623Y-74726626D01*
X27574622Y-74726628D01*
X27514834Y-74857543D01*
X27494353Y-75000000D01*
X23996311Y-75000000D01*
X24064162Y-74917324D01*
X24153537Y-74750115D01*
X24208573Y-74568683D01*
X24227157Y-74380000D01*
X24208573Y-74191317D01*
X24153537Y-74009885D01*
X24153533Y-74009877D01*
X24148254Y-74000000D01*
X41131853Y-74000000D01*
X41152334Y-74142456D01*
X41174649Y-74191318D01*
X41212123Y-74273373D01*
X41306372Y-74382143D01*
X41427447Y-74459953D01*
X41427450Y-74459954D01*
X41427449Y-74459954D01*
X41534607Y-74491417D01*
X41562133Y-74499500D01*
X41565536Y-74500499D01*
X41565538Y-74500500D01*
X41565539Y-74500500D01*
X41709462Y-74500500D01*
X41709462Y-74500499D01*
X41847553Y-74459953D01*
X41968628Y-74382143D01*
X42062877Y-74273373D01*
X42073551Y-74250000D01*
X43994353Y-74250000D01*
X44014834Y-74392456D01*
X44045660Y-74459954D01*
X44074623Y-74523373D01*
X44168872Y-74632143D01*
X44289947Y-74709953D01*
X44289950Y-74709954D01*
X44289949Y-74709954D01*
X44346737Y-74726628D01*
X44426741Y-74750119D01*
X44428036Y-74750499D01*
X44428038Y-74750500D01*
X44428039Y-74750500D01*
X44571962Y-74750500D01*
X44571962Y-74750499D01*
X44710053Y-74709953D01*
X44831128Y-74632143D01*
X44925377Y-74523373D01*
X44985165Y-74392457D01*
X45005647Y-74250000D01*
X44985165Y-74107543D01*
X44925377Y-73976627D01*
X44831128Y-73867857D01*
X44710053Y-73790047D01*
X44710051Y-73790046D01*
X44710049Y-73790045D01*
X44710050Y-73790045D01*
X44571963Y-73749500D01*
X44571961Y-73749500D01*
X44428039Y-73749500D01*
X44428036Y-73749500D01*
X44289949Y-73790045D01*
X44168873Y-73867856D01*
X44074623Y-73976626D01*
X44074622Y-73976628D01*
X44014834Y-74107543D01*
X43994353Y-74250000D01*
X42073551Y-74250000D01*
X42122665Y-74142457D01*
X42143147Y-74000000D01*
X42122665Y-73857543D01*
X42062877Y-73726627D01*
X41968628Y-73617857D01*
X41847553Y-73540047D01*
X41847551Y-73540046D01*
X41847549Y-73540045D01*
X41847550Y-73540045D01*
X41709463Y-73499500D01*
X41709461Y-73499500D01*
X41565539Y-73499500D01*
X41565536Y-73499500D01*
X41427449Y-73540045D01*
X41306373Y-73617856D01*
X41212123Y-73726626D01*
X41212122Y-73726628D01*
X41152334Y-73857543D01*
X41131853Y-74000000D01*
X24148254Y-74000000D01*
X24064165Y-73842681D01*
X24064161Y-73842674D01*
X23943883Y-73696116D01*
X23797325Y-73575838D01*
X23797318Y-73575834D01*
X23630122Y-73486466D01*
X23630119Y-73486465D01*
X23630118Y-73486464D01*
X23630115Y-73486463D01*
X23448683Y-73431427D01*
X23448681Y-73431426D01*
X23448683Y-73431426D01*
X23260000Y-73412843D01*
X23071318Y-73431426D01*
X22964194Y-73463921D01*
X22889885Y-73486463D01*
X22889882Y-73486464D01*
X22889880Y-73486465D01*
X22889877Y-73486466D01*
X22722681Y-73575834D01*
X22722674Y-73575838D01*
X22576116Y-73696116D01*
X22455838Y-73842674D01*
X22455834Y-73842681D01*
X22366466Y-74009877D01*
X22366465Y-74009880D01*
X22311426Y-74191318D01*
X22292843Y-74380000D01*
X20750000Y-74380000D01*
X20750000Y-71840000D01*
X22292843Y-71840000D01*
X22311426Y-72028681D01*
X22311427Y-72028683D01*
X22366463Y-72210115D01*
X22366464Y-72210118D01*
X22366465Y-72210119D01*
X22366466Y-72210122D01*
X22455834Y-72377318D01*
X22455838Y-72377325D01*
X22576116Y-72523883D01*
X22722674Y-72644161D01*
X22722681Y-72644165D01*
X22889877Y-72733533D01*
X22889878Y-72733533D01*
X22889885Y-72733537D01*
X23071317Y-72788573D01*
X23071316Y-72788573D01*
X23088233Y-72790239D01*
X23260000Y-72807157D01*
X23448683Y-72788573D01*
X23630115Y-72733537D01*
X23786402Y-72650000D01*
X37644353Y-72650000D01*
X37664834Y-72792456D01*
X37671548Y-72807157D01*
X37724623Y-72923373D01*
X37818872Y-73032143D01*
X37939947Y-73109953D01*
X37939950Y-73109954D01*
X37939949Y-73109954D01*
X38078036Y-73150499D01*
X38078038Y-73150500D01*
X38078039Y-73150500D01*
X38221962Y-73150500D01*
X38221962Y-73150499D01*
X38360053Y-73109953D01*
X38481128Y-73032143D01*
X38575377Y-72923373D01*
X38635165Y-72792457D01*
X38655647Y-72650000D01*
X38635165Y-72507543D01*
X38575377Y-72376627D01*
X38481128Y-72267857D01*
X38360053Y-72190047D01*
X38360051Y-72190046D01*
X38360049Y-72190045D01*
X38360050Y-72190045D01*
X38221963Y-72149500D01*
X38221961Y-72149500D01*
X38078039Y-72149500D01*
X38078036Y-72149500D01*
X37939949Y-72190045D01*
X37818873Y-72267856D01*
X37724623Y-72376626D01*
X37724622Y-72376628D01*
X37664834Y-72507543D01*
X37644353Y-72650000D01*
X23786402Y-72650000D01*
X23797324Y-72644162D01*
X23943883Y-72523883D01*
X24064162Y-72377324D01*
X24153537Y-72210115D01*
X24208573Y-72028683D01*
X24227157Y-71840000D01*
X24208573Y-71651317D01*
X24153537Y-71469885D01*
X24116183Y-71400000D01*
X40894353Y-71400000D01*
X40914834Y-71542456D01*
X40944559Y-71607543D01*
X40974623Y-71673373D01*
X41068872Y-71782143D01*
X41189947Y-71859953D01*
X41189950Y-71859954D01*
X41189949Y-71859954D01*
X41328036Y-71900499D01*
X41328038Y-71900500D01*
X41328039Y-71900500D01*
X41471962Y-71900500D01*
X41471962Y-71900499D01*
X41610053Y-71859953D01*
X41731128Y-71782143D01*
X41825377Y-71673373D01*
X41885165Y-71542457D01*
X41905647Y-71400000D01*
X41885165Y-71257543D01*
X41825377Y-71126627D01*
X41731128Y-71017857D01*
X41610053Y-70940047D01*
X41610051Y-70940046D01*
X41610049Y-70940045D01*
X41610050Y-70940045D01*
X41471963Y-70899500D01*
X41471961Y-70899500D01*
X41328039Y-70899500D01*
X41328036Y-70899500D01*
X41189949Y-70940045D01*
X41068873Y-71017856D01*
X40974623Y-71126626D01*
X40974622Y-71126628D01*
X40914834Y-71257543D01*
X40894353Y-71400000D01*
X24116183Y-71400000D01*
X24064162Y-71302676D01*
X24064161Y-71302674D01*
X23943883Y-71156116D01*
X23797325Y-71035838D01*
X23797318Y-71035834D01*
X23630122Y-70946466D01*
X23630119Y-70946465D01*
X23630118Y-70946464D01*
X23630115Y-70946463D01*
X23448683Y-70891427D01*
X23448681Y-70891426D01*
X23448683Y-70891426D01*
X23260000Y-70872843D01*
X23071318Y-70891426D01*
X22964194Y-70923921D01*
X22889885Y-70946463D01*
X22889882Y-70946464D01*
X22889880Y-70946465D01*
X22889877Y-70946466D01*
X22722681Y-71035834D01*
X22722674Y-71035838D01*
X22576116Y-71156116D01*
X22455838Y-71302674D01*
X22455834Y-71302681D01*
X22366466Y-71469877D01*
X22366465Y-71469880D01*
X22366464Y-71469882D01*
X22366463Y-71469885D01*
X22364418Y-71476627D01*
X22311426Y-71651318D01*
X22292843Y-71840000D01*
X20750000Y-71840000D01*
X20750000Y-70600000D01*
X36894353Y-70600000D01*
X36914834Y-70742456D01*
X36974381Y-70872843D01*
X36974623Y-70873373D01*
X37068872Y-70982143D01*
X37189947Y-71059953D01*
X37189950Y-71059954D01*
X37189949Y-71059954D01*
X37328036Y-71100499D01*
X37328038Y-71100500D01*
X37328039Y-71100500D01*
X37471962Y-71100500D01*
X37471962Y-71100499D01*
X37610053Y-71059953D01*
X37731128Y-70982143D01*
X37825377Y-70873373D01*
X37881720Y-70750000D01*
X44244353Y-70750000D01*
X44264834Y-70892457D01*
X44264835Y-70892458D01*
X44327529Y-71029739D01*
X44337473Y-71098897D01*
X44327529Y-71132761D01*
X44264835Y-71270041D01*
X44264834Y-71270042D01*
X44244353Y-71412500D01*
X44264834Y-71554956D01*
X44308842Y-71651318D01*
X44324623Y-71685873D01*
X44418872Y-71794643D01*
X44539947Y-71872453D01*
X44539950Y-71872454D01*
X44539949Y-71872454D01*
X44678036Y-71912999D01*
X44678038Y-71913000D01*
X44678039Y-71913000D01*
X44821962Y-71913000D01*
X44821962Y-71912999D01*
X44929121Y-71881535D01*
X44960050Y-71872454D01*
X44960050Y-71872453D01*
X44960053Y-71872453D01*
X45057960Y-71809531D01*
X45125000Y-71789847D01*
X45192039Y-71809532D01*
X45192040Y-71809532D01*
X45289947Y-71872453D01*
X45289948Y-71872453D01*
X45289949Y-71872454D01*
X45428036Y-71912999D01*
X45428038Y-71913000D01*
X45428039Y-71913000D01*
X45571962Y-71913000D01*
X45571962Y-71912999D01*
X45679121Y-71881535D01*
X45710050Y-71872454D01*
X45710050Y-71872453D01*
X45710053Y-71872453D01*
X45831128Y-71794643D01*
X45925377Y-71685873D01*
X45985165Y-71554957D01*
X46005647Y-71412500D01*
X45985165Y-71270043D01*
X45925377Y-71139127D01*
X45925376Y-71139126D01*
X45922470Y-71132762D01*
X45912526Y-71063604D01*
X45922470Y-71029738D01*
X45927896Y-71017857D01*
X45985165Y-70892457D01*
X46005647Y-70750000D01*
X45985165Y-70607543D01*
X45925377Y-70476627D01*
X45831128Y-70367857D01*
X45710053Y-70290047D01*
X45710051Y-70290046D01*
X45710049Y-70290045D01*
X45710050Y-70290045D01*
X45571963Y-70249500D01*
X45571961Y-70249500D01*
X45428039Y-70249500D01*
X45428036Y-70249500D01*
X45289949Y-70290045D01*
X45192039Y-70352968D01*
X45124999Y-70372652D01*
X45057961Y-70352968D01*
X44960050Y-70290045D01*
X44821963Y-70249500D01*
X44821961Y-70249500D01*
X44678039Y-70249500D01*
X44678036Y-70249500D01*
X44539949Y-70290045D01*
X44418873Y-70367856D01*
X44324623Y-70476626D01*
X44324622Y-70476628D01*
X44264834Y-70607543D01*
X44244353Y-70750000D01*
X37881720Y-70750000D01*
X37885165Y-70742457D01*
X37905647Y-70600000D01*
X37885165Y-70457543D01*
X37825377Y-70326627D01*
X37731128Y-70217857D01*
X37610053Y-70140047D01*
X37610051Y-70140046D01*
X37610049Y-70140045D01*
X37610050Y-70140045D01*
X37471963Y-70099500D01*
X37471961Y-70099500D01*
X37328039Y-70099500D01*
X37328036Y-70099500D01*
X37189949Y-70140045D01*
X37068873Y-70217856D01*
X36974623Y-70326626D01*
X36974622Y-70326628D01*
X36914834Y-70457543D01*
X36894353Y-70600000D01*
X20750000Y-70600000D01*
X20750000Y-69500000D01*
X29494353Y-69500000D01*
X29514834Y-69642456D01*
X29574622Y-69773371D01*
X29574623Y-69773373D01*
X29668872Y-69882143D01*
X29789947Y-69959953D01*
X29789950Y-69959954D01*
X29789949Y-69959954D01*
X29928036Y-70000499D01*
X29928038Y-70000500D01*
X29928039Y-70000500D01*
X30071962Y-70000500D01*
X30071962Y-70000499D01*
X30210053Y-69959953D01*
X30331128Y-69882143D01*
X30425377Y-69773373D01*
X30485165Y-69642457D01*
X30505647Y-69500000D01*
X49744353Y-69500000D01*
X49764834Y-69642456D01*
X49824622Y-69773371D01*
X49824625Y-69773377D01*
X49842321Y-69793799D01*
X49871345Y-69857355D01*
X49861401Y-69926513D01*
X49842321Y-69956201D01*
X49824625Y-69976622D01*
X49824622Y-69976628D01*
X49764834Y-70107543D01*
X49744353Y-70250000D01*
X49764834Y-70392456D01*
X49824622Y-70523371D01*
X49824625Y-70523377D01*
X49842321Y-70543799D01*
X49871345Y-70607355D01*
X49861401Y-70676513D01*
X49842321Y-70706201D01*
X49824625Y-70726622D01*
X49824622Y-70726628D01*
X49764834Y-70857543D01*
X49744353Y-71000000D01*
X49764834Y-71142456D01*
X49824622Y-71273371D01*
X49824625Y-71273377D01*
X49842321Y-71293799D01*
X49871345Y-71357355D01*
X49861401Y-71426513D01*
X49842321Y-71456201D01*
X49824625Y-71476622D01*
X49824622Y-71476628D01*
X49764834Y-71607543D01*
X49744353Y-71750000D01*
X49764834Y-71892456D01*
X49803275Y-71976628D01*
X49824623Y-72023373D01*
X49918872Y-72132143D01*
X50039947Y-72209953D01*
X50039950Y-72209954D01*
X50039949Y-72209954D01*
X50147107Y-72241417D01*
X50176336Y-72250000D01*
X50178036Y-72250499D01*
X50178038Y-72250500D01*
X50178039Y-72250500D01*
X50321962Y-72250500D01*
X50321962Y-72250499D01*
X50323661Y-72250000D01*
X51994353Y-72250000D01*
X52014834Y-72392456D01*
X52074622Y-72523371D01*
X52074623Y-72523373D01*
X52168872Y-72632143D01*
X52289947Y-72709953D01*
X52289950Y-72709954D01*
X52289949Y-72709954D01*
X52428036Y-72750499D01*
X52428038Y-72750500D01*
X52428039Y-72750500D01*
X52571962Y-72750500D01*
X52571962Y-72750499D01*
X52710053Y-72709953D01*
X52807960Y-72647031D01*
X52875000Y-72627347D01*
X52942039Y-72647032D01*
X52942040Y-72647032D01*
X53039947Y-72709953D01*
X53039948Y-72709953D01*
X53039949Y-72709954D01*
X53178036Y-72750499D01*
X53178038Y-72750500D01*
X53178039Y-72750500D01*
X53321962Y-72750500D01*
X53321962Y-72750499D01*
X53460053Y-72709953D01*
X53557960Y-72647031D01*
X53625000Y-72627347D01*
X53692039Y-72647032D01*
X53692040Y-72647032D01*
X53789947Y-72709953D01*
X53789948Y-72709953D01*
X53789949Y-72709954D01*
X53928036Y-72750499D01*
X53928038Y-72750500D01*
X53928039Y-72750500D01*
X54071962Y-72750500D01*
X54071962Y-72750499D01*
X54210053Y-72709953D01*
X54331128Y-72632143D01*
X54425377Y-72523373D01*
X54485165Y-72392457D01*
X54505647Y-72250000D01*
X54485165Y-72107543D01*
X54425377Y-71976627D01*
X54331128Y-71867857D01*
X54210053Y-71790047D01*
X54210051Y-71790046D01*
X54210049Y-71790045D01*
X54210050Y-71790045D01*
X54071963Y-71749500D01*
X54071961Y-71749500D01*
X53928039Y-71749500D01*
X53928036Y-71749500D01*
X53789949Y-71790045D01*
X53692039Y-71852968D01*
X53624999Y-71872652D01*
X53557961Y-71852968D01*
X53460050Y-71790045D01*
X53321963Y-71749500D01*
X53321961Y-71749500D01*
X53178039Y-71749500D01*
X53178036Y-71749500D01*
X53039949Y-71790045D01*
X52942039Y-71852968D01*
X52874999Y-71872652D01*
X52807961Y-71852968D01*
X52710050Y-71790045D01*
X52571963Y-71749500D01*
X52571961Y-71749500D01*
X52428039Y-71749500D01*
X52428036Y-71749500D01*
X52289949Y-71790045D01*
X52168873Y-71867856D01*
X52074623Y-71976626D01*
X52074622Y-71976628D01*
X52014834Y-72107543D01*
X51994353Y-72250000D01*
X50323661Y-72250000D01*
X50429121Y-72219035D01*
X50460050Y-72209954D01*
X50460050Y-72209953D01*
X50460053Y-72209953D01*
X50581128Y-72132143D01*
X50675377Y-72023373D01*
X50735165Y-71892457D01*
X50755647Y-71750000D01*
X50735165Y-71607543D01*
X50675377Y-71476627D01*
X50675375Y-71476625D01*
X50675374Y-71476622D01*
X50657680Y-71456203D01*
X50628654Y-71392648D01*
X50638597Y-71323489D01*
X50657680Y-71293797D01*
X50675374Y-71273377D01*
X50675374Y-71273375D01*
X50675377Y-71273373D01*
X50735165Y-71142457D01*
X50755647Y-71000000D01*
X50735165Y-70857543D01*
X50675377Y-70726627D01*
X50675375Y-70726625D01*
X50675374Y-70726622D01*
X50657680Y-70706203D01*
X50628654Y-70642648D01*
X50638597Y-70573489D01*
X50657680Y-70543797D01*
X50675374Y-70523377D01*
X50675374Y-70523375D01*
X50675377Y-70523373D01*
X50735165Y-70392457D01*
X50755647Y-70250000D01*
X50735165Y-70107543D01*
X50675377Y-69976627D01*
X50675375Y-69976625D01*
X50675374Y-69976622D01*
X50657680Y-69956203D01*
X50628654Y-69892648D01*
X50638597Y-69823489D01*
X50657680Y-69793797D01*
X50675374Y-69773377D01*
X50675374Y-69773375D01*
X50675377Y-69773373D01*
X50735165Y-69642457D01*
X50755647Y-69500000D01*
X50735165Y-69357543D01*
X50675377Y-69226627D01*
X50581128Y-69117857D01*
X50460053Y-69040047D01*
X50460051Y-69040046D01*
X50460049Y-69040045D01*
X50460050Y-69040045D01*
X50321963Y-68999500D01*
X50321961Y-68999500D01*
X50178039Y-68999500D01*
X50178036Y-68999500D01*
X50039949Y-69040045D01*
X49918873Y-69117856D01*
X49824623Y-69226626D01*
X49824622Y-69226628D01*
X49764834Y-69357543D01*
X49744353Y-69500000D01*
X30505647Y-69500000D01*
X30485165Y-69357543D01*
X30425377Y-69226627D01*
X30331128Y-69117857D01*
X30210053Y-69040047D01*
X30210051Y-69040046D01*
X30210049Y-69040045D01*
X30210050Y-69040045D01*
X30071963Y-68999500D01*
X30071961Y-68999500D01*
X29928039Y-68999500D01*
X29928036Y-68999500D01*
X29789949Y-69040045D01*
X29668873Y-69117856D01*
X29574623Y-69226626D01*
X29574622Y-69226628D01*
X29514834Y-69357543D01*
X29494353Y-69500000D01*
X20750000Y-69500000D01*
X20750000Y-68500000D01*
X40394353Y-68500000D01*
X40414834Y-68642456D01*
X40474622Y-68773371D01*
X40474623Y-68773373D01*
X40568872Y-68882143D01*
X40689947Y-68959953D01*
X40689950Y-68959954D01*
X40689949Y-68959954D01*
X40797107Y-68991417D01*
X40824633Y-68999500D01*
X40828036Y-69000499D01*
X40828038Y-69000500D01*
X40915984Y-69000500D01*
X40983023Y-69020185D01*
X41028778Y-69072988D01*
X41074623Y-69173373D01*
X41168872Y-69282143D01*
X41289947Y-69359953D01*
X41289950Y-69359954D01*
X41289949Y-69359954D01*
X41428036Y-69400499D01*
X41428038Y-69400500D01*
X41428039Y-69400500D01*
X41571962Y-69400500D01*
X41571962Y-69400499D01*
X41710053Y-69359953D01*
X41831128Y-69282143D01*
X41925377Y-69173373D01*
X41985165Y-69042457D01*
X42005647Y-68900000D01*
X41985165Y-68757543D01*
X41925377Y-68626627D01*
X41831128Y-68517857D01*
X41710053Y-68440047D01*
X41710051Y-68440046D01*
X41710049Y-68440045D01*
X41710050Y-68440045D01*
X41571963Y-68399500D01*
X41571961Y-68399500D01*
X41484016Y-68399500D01*
X41416977Y-68379815D01*
X41371222Y-68327012D01*
X41346725Y-68273373D01*
X41325377Y-68226627D01*
X41231128Y-68117857D01*
X41110053Y-68040047D01*
X41110051Y-68040046D01*
X41110049Y-68040045D01*
X41110050Y-68040045D01*
X40973666Y-68000000D01*
X51744353Y-68000000D01*
X51764834Y-68142456D01*
X51803275Y-68226628D01*
X51824623Y-68273373D01*
X51918872Y-68382143D01*
X52039947Y-68459953D01*
X52039950Y-68459954D01*
X52039949Y-68459954D01*
X52147107Y-68491417D01*
X52176336Y-68500000D01*
X52178036Y-68500499D01*
X52178038Y-68500500D01*
X52178039Y-68500500D01*
X52321962Y-68500500D01*
X52321962Y-68500499D01*
X52460053Y-68459953D01*
X52581128Y-68382143D01*
X52675377Y-68273373D01*
X52735165Y-68142457D01*
X52755647Y-68000000D01*
X52735165Y-67857543D01*
X52675377Y-67726627D01*
X52581128Y-67617857D01*
X52460053Y-67540047D01*
X52460051Y-67540046D01*
X52460049Y-67540045D01*
X52460050Y-67540045D01*
X52321963Y-67499500D01*
X52321961Y-67499500D01*
X52178039Y-67499500D01*
X52178036Y-67499500D01*
X52039949Y-67540045D01*
X51918873Y-67617856D01*
X51824623Y-67726626D01*
X51824622Y-67726628D01*
X51764834Y-67857543D01*
X51744353Y-68000000D01*
X40973666Y-68000000D01*
X40971963Y-67999500D01*
X40971961Y-67999500D01*
X40828039Y-67999500D01*
X40828036Y-67999500D01*
X40689949Y-68040045D01*
X40568873Y-68117856D01*
X40474623Y-68226626D01*
X40474622Y-68226628D01*
X40414834Y-68357543D01*
X40394353Y-68500000D01*
X20750000Y-68500000D01*
X20750000Y-67200000D01*
X37894353Y-67200000D01*
X37914834Y-67342456D01*
X37974622Y-67473371D01*
X37974623Y-67473373D01*
X38068872Y-67582143D01*
X38189947Y-67659953D01*
X38189950Y-67659954D01*
X38189949Y-67659954D01*
X38328036Y-67700499D01*
X38328038Y-67700500D01*
X38328039Y-67700500D01*
X38471962Y-67700500D01*
X38471962Y-67700499D01*
X38610053Y-67659953D01*
X38731128Y-67582143D01*
X38825377Y-67473373D01*
X38885165Y-67342457D01*
X38905647Y-67200000D01*
X38885165Y-67057543D01*
X38825377Y-66926627D01*
X38731128Y-66817857D01*
X38610053Y-66740047D01*
X38610051Y-66740046D01*
X38610049Y-66740045D01*
X38610050Y-66740045D01*
X38471963Y-66699500D01*
X38471961Y-66699500D01*
X38328039Y-66699500D01*
X38328036Y-66699500D01*
X38189949Y-66740045D01*
X38068873Y-66817856D01*
X37974623Y-66926626D01*
X37974622Y-66926628D01*
X37914834Y-67057543D01*
X37894353Y-67200000D01*
X20750000Y-67200000D01*
X20750000Y-66500000D01*
X21744353Y-66500000D01*
X21764834Y-66642456D01*
X21810504Y-66742457D01*
X21824623Y-66773373D01*
X21918872Y-66882143D01*
X22039947Y-66959953D01*
X22039950Y-66959954D01*
X22039949Y-66959954D01*
X22178036Y-67000499D01*
X22178038Y-67000500D01*
X22178039Y-67000500D01*
X22321962Y-67000500D01*
X22321962Y-67000499D01*
X22460053Y-66959953D01*
X22581128Y-66882143D01*
X22675377Y-66773373D01*
X22735165Y-66642457D01*
X22741269Y-66600000D01*
X40894353Y-66600000D01*
X40914834Y-66742456D01*
X40918508Y-66750500D01*
X40974623Y-66873373D01*
X41068872Y-66982143D01*
X41189947Y-67059953D01*
X41189950Y-67059954D01*
X41189949Y-67059954D01*
X41328036Y-67100499D01*
X41328038Y-67100500D01*
X41328039Y-67100500D01*
X41471962Y-67100500D01*
X41471962Y-67100499D01*
X41610053Y-67059953D01*
X41731128Y-66982143D01*
X41825377Y-66873373D01*
X41885165Y-66742457D01*
X41905647Y-66600000D01*
X41898335Y-66549143D01*
X42550603Y-66549143D01*
X42571084Y-66691599D01*
X42597984Y-66750500D01*
X42630873Y-66822516D01*
X42725122Y-66931286D01*
X42846197Y-67009096D01*
X42846200Y-67009097D01*
X42846199Y-67009097D01*
X42984286Y-67049642D01*
X42984288Y-67049643D01*
X42984289Y-67049643D01*
X43128212Y-67049643D01*
X43128212Y-67049642D01*
X43266303Y-67009096D01*
X43387378Y-66931286D01*
X43481627Y-66822516D01*
X43541415Y-66691600D01*
X43561897Y-66549143D01*
X43541415Y-66406686D01*
X43481627Y-66275770D01*
X43459297Y-66250000D01*
X45494353Y-66250000D01*
X45514834Y-66392456D01*
X45555251Y-66480955D01*
X45574623Y-66523373D01*
X45668872Y-66632143D01*
X45789947Y-66709953D01*
X45789950Y-66709954D01*
X45789949Y-66709954D01*
X45892432Y-66740045D01*
X45926336Y-66750000D01*
X45928036Y-66750499D01*
X45928038Y-66750500D01*
X45928039Y-66750500D01*
X46071962Y-66750500D01*
X46071962Y-66750499D01*
X46073661Y-66750000D01*
X49244353Y-66750000D01*
X49264834Y-66892456D01*
X49314177Y-67000499D01*
X49324623Y-67023373D01*
X49418872Y-67132143D01*
X49539947Y-67209953D01*
X49539950Y-67209954D01*
X49539949Y-67209954D01*
X49678036Y-67250499D01*
X49678038Y-67250500D01*
X49678039Y-67250500D01*
X49821962Y-67250500D01*
X49821962Y-67250499D01*
X49960053Y-67209953D01*
X50081128Y-67132143D01*
X50175377Y-67023373D01*
X50235165Y-66892457D01*
X50255647Y-66750000D01*
X50235165Y-66607543D01*
X50175377Y-66476627D01*
X50081128Y-66367857D01*
X49960053Y-66290047D01*
X49960051Y-66290046D01*
X49960049Y-66290045D01*
X49960050Y-66290045D01*
X49821963Y-66249500D01*
X49821961Y-66249500D01*
X49678039Y-66249500D01*
X49678036Y-66249500D01*
X49539949Y-66290045D01*
X49418873Y-66367856D01*
X49324623Y-66476626D01*
X49324622Y-66476628D01*
X49264834Y-66607543D01*
X49244353Y-66750000D01*
X46073661Y-66750000D01*
X46210053Y-66709953D01*
X46331128Y-66632143D01*
X46425377Y-66523373D01*
X46485165Y-66392457D01*
X46505647Y-66250000D01*
X46485165Y-66107543D01*
X46425377Y-65976627D01*
X46331128Y-65867857D01*
X46210053Y-65790047D01*
X46210051Y-65790046D01*
X46210049Y-65790045D01*
X46210050Y-65790045D01*
X46071963Y-65749500D01*
X46071961Y-65749500D01*
X45928039Y-65749500D01*
X45928036Y-65749500D01*
X45789949Y-65790045D01*
X45668873Y-65867856D01*
X45574623Y-65976626D01*
X45574622Y-65976628D01*
X45514834Y-66107543D01*
X45494353Y-66250000D01*
X43459297Y-66250000D01*
X43387378Y-66167000D01*
X43266303Y-66089190D01*
X43266301Y-66089189D01*
X43266299Y-66089188D01*
X43266300Y-66089188D01*
X43128213Y-66048643D01*
X43128211Y-66048643D01*
X42984289Y-66048643D01*
X42984286Y-66048643D01*
X42846199Y-66089188D01*
X42725123Y-66166999D01*
X42630873Y-66275769D01*
X42630872Y-66275771D01*
X42571084Y-66406686D01*
X42550603Y-66549143D01*
X41898335Y-66549143D01*
X41885165Y-66457543D01*
X41825377Y-66326627D01*
X41731128Y-66217857D01*
X41610053Y-66140047D01*
X41610051Y-66140046D01*
X41610049Y-66140045D01*
X41610050Y-66140045D01*
X41471963Y-66099500D01*
X41471961Y-66099500D01*
X41328039Y-66099500D01*
X41328036Y-66099500D01*
X41189949Y-66140045D01*
X41068873Y-66217856D01*
X40974623Y-66326626D01*
X40974622Y-66326628D01*
X40914834Y-66457543D01*
X40894353Y-66600000D01*
X22741269Y-66600000D01*
X22755647Y-66500000D01*
X22735165Y-66357543D01*
X22675377Y-66226627D01*
X22581128Y-66117857D01*
X22460053Y-66040047D01*
X22460051Y-66040046D01*
X22460049Y-66040045D01*
X22460050Y-66040045D01*
X22395190Y-66021001D01*
X38794353Y-66021001D01*
X38814834Y-66163457D01*
X38854358Y-66250000D01*
X38874623Y-66294374D01*
X38968872Y-66403144D01*
X39089947Y-66480954D01*
X39089950Y-66480955D01*
X39089949Y-66480955D01*
X39228036Y-66521500D01*
X39228038Y-66521501D01*
X39228039Y-66521501D01*
X39371962Y-66521501D01*
X39371962Y-66521500D01*
X39510053Y-66480954D01*
X39631128Y-66403144D01*
X39725377Y-66294374D01*
X39785165Y-66163458D01*
X39805647Y-66021001D01*
X39785165Y-65878544D01*
X39725377Y-65747628D01*
X39631128Y-65638858D01*
X39510053Y-65561048D01*
X39510051Y-65561047D01*
X39510049Y-65561046D01*
X39510050Y-65561046D01*
X39371963Y-65520501D01*
X39371961Y-65520501D01*
X39228039Y-65520501D01*
X39228036Y-65520501D01*
X39089949Y-65561046D01*
X38968873Y-65638857D01*
X38968872Y-65638857D01*
X38968872Y-65638858D01*
X38956290Y-65653378D01*
X38874623Y-65747627D01*
X38874622Y-65747629D01*
X38814834Y-65878544D01*
X38794353Y-66021001D01*
X22395190Y-66021001D01*
X22321963Y-65999500D01*
X22321961Y-65999500D01*
X22178039Y-65999500D01*
X22178036Y-65999500D01*
X22039949Y-66040045D01*
X21918873Y-66117856D01*
X21824623Y-66226626D01*
X21824622Y-66226628D01*
X21764834Y-66357543D01*
X21744353Y-66500000D01*
X20750000Y-66500000D01*
X20750000Y-65500000D01*
X35244353Y-65500000D01*
X35264834Y-65642456D01*
X35312866Y-65747629D01*
X35324623Y-65773373D01*
X35418872Y-65882143D01*
X35539947Y-65959953D01*
X35539950Y-65959954D01*
X35539949Y-65959954D01*
X35596737Y-65976628D01*
X35674633Y-65999500D01*
X35678036Y-66000499D01*
X35678038Y-66000500D01*
X35678039Y-66000500D01*
X35821962Y-66000500D01*
X35821962Y-66000499D01*
X35960053Y-65959953D01*
X36081128Y-65882143D01*
X36175377Y-65773373D01*
X36235165Y-65642457D01*
X36255647Y-65500000D01*
X36235165Y-65357543D01*
X36175377Y-65226627D01*
X36081128Y-65117857D01*
X35960053Y-65040047D01*
X35960051Y-65040046D01*
X35960049Y-65040045D01*
X35960050Y-65040045D01*
X35821963Y-64999500D01*
X35821961Y-64999500D01*
X35678039Y-64999500D01*
X35678036Y-64999500D01*
X35539949Y-65040045D01*
X35418873Y-65117856D01*
X35324623Y-65226626D01*
X35324622Y-65226628D01*
X35264834Y-65357543D01*
X35244353Y-65500000D01*
X20750000Y-65500000D01*
X20750000Y-64750000D01*
X41494353Y-64750000D01*
X41514834Y-64892456D01*
X41563720Y-64999500D01*
X41574623Y-65023373D01*
X41668872Y-65132143D01*
X41789947Y-65209953D01*
X41789950Y-65209954D01*
X41789949Y-65209954D01*
X41928036Y-65250499D01*
X41928038Y-65250500D01*
X41928039Y-65250500D01*
X42071962Y-65250500D01*
X42071962Y-65250499D01*
X42210053Y-65209953D01*
X42331128Y-65132143D01*
X42425377Y-65023373D01*
X42485165Y-64892457D01*
X42505647Y-64750000D01*
X42485165Y-64607543D01*
X42425377Y-64476627D01*
X42331128Y-64367857D01*
X42210053Y-64290047D01*
X42210051Y-64290046D01*
X42210049Y-64290045D01*
X42210050Y-64290045D01*
X42071963Y-64249500D01*
X42071961Y-64249500D01*
X41928039Y-64249500D01*
X41928036Y-64249500D01*
X41789949Y-64290045D01*
X41668873Y-64367856D01*
X41574623Y-64476626D01*
X41574622Y-64476628D01*
X41514834Y-64607543D01*
X41494353Y-64750000D01*
X20750000Y-64750000D01*
X20750000Y-63500000D01*
X21494353Y-63500000D01*
X21514834Y-63642456D01*
X21567433Y-63757629D01*
X21574623Y-63773373D01*
X21668872Y-63882143D01*
X21789947Y-63959953D01*
X21789950Y-63959954D01*
X21789949Y-63959954D01*
X21928036Y-64000499D01*
X21928038Y-64000500D01*
X21928039Y-64000500D01*
X22071962Y-64000500D01*
X22071962Y-64000499D01*
X22210053Y-63959953D01*
X22331128Y-63882143D01*
X22425377Y-63773373D01*
X22485165Y-63642457D01*
X22505647Y-63500000D01*
X22485165Y-63357543D01*
X22425377Y-63226627D01*
X22331128Y-63117857D01*
X22210053Y-63040047D01*
X22210051Y-63040046D01*
X22210049Y-63040045D01*
X22210050Y-63040045D01*
X22073666Y-63000000D01*
X25919353Y-63000000D01*
X25939834Y-63142456D01*
X25978275Y-63226628D01*
X25999623Y-63273373D01*
X26093872Y-63382143D01*
X26214947Y-63459953D01*
X26214950Y-63459954D01*
X26214949Y-63459954D01*
X26322107Y-63491417D01*
X26351336Y-63500000D01*
X26353036Y-63500499D01*
X26353038Y-63500500D01*
X26353039Y-63500500D01*
X26496962Y-63500500D01*
X26496962Y-63500499D01*
X26635053Y-63459953D01*
X26756128Y-63382143D01*
X26850377Y-63273373D01*
X26910165Y-63142457D01*
X26930647Y-63000000D01*
X27494353Y-63000000D01*
X27514834Y-63142456D01*
X27553275Y-63226628D01*
X27574623Y-63273373D01*
X27668872Y-63382143D01*
X27789947Y-63459953D01*
X27789950Y-63459954D01*
X27789949Y-63459954D01*
X27897107Y-63491417D01*
X27926336Y-63500000D01*
X27928036Y-63500499D01*
X27928038Y-63500500D01*
X27928039Y-63500500D01*
X28071962Y-63500500D01*
X28071962Y-63500499D01*
X28073661Y-63500000D01*
X29494353Y-63500000D01*
X29514834Y-63642456D01*
X29567433Y-63757629D01*
X29574623Y-63773373D01*
X29668872Y-63882143D01*
X29789947Y-63959953D01*
X29789950Y-63959954D01*
X29789949Y-63959954D01*
X29928036Y-64000499D01*
X29928038Y-64000500D01*
X29928039Y-64000500D01*
X30071962Y-64000500D01*
X30071962Y-64000499D01*
X30210053Y-63959953D01*
X30331128Y-63882143D01*
X30425377Y-63773373D01*
X30485165Y-63642457D01*
X30505647Y-63500000D01*
X35494353Y-63500000D01*
X35514834Y-63642456D01*
X35567433Y-63757629D01*
X35574623Y-63773373D01*
X35668872Y-63882143D01*
X35789947Y-63959953D01*
X35789950Y-63959954D01*
X35789949Y-63959954D01*
X35928036Y-64000499D01*
X35928038Y-64000500D01*
X35928039Y-64000500D01*
X36071962Y-64000500D01*
X36071962Y-64000499D01*
X36210053Y-63959953D01*
X36331128Y-63882143D01*
X36406287Y-63795403D01*
X36465064Y-63757629D01*
X36534934Y-63757629D01*
X36593711Y-63795402D01*
X36668872Y-63882143D01*
X36789947Y-63959953D01*
X36789950Y-63959954D01*
X36789949Y-63959954D01*
X36928036Y-64000499D01*
X36928038Y-64000500D01*
X36928039Y-64000500D01*
X37071962Y-64000500D01*
X37071962Y-64000499D01*
X37210053Y-63959953D01*
X37331128Y-63882143D01*
X37425377Y-63773373D01*
X37485165Y-63642457D01*
X37502262Y-63523542D01*
X37513014Y-63499999D01*
X37736986Y-63499999D01*
X37747738Y-63523543D01*
X37764834Y-63642456D01*
X37817433Y-63757629D01*
X37824623Y-63773373D01*
X37918872Y-63882143D01*
X38039947Y-63959953D01*
X38039950Y-63959954D01*
X38039949Y-63959954D01*
X38178036Y-64000499D01*
X38178038Y-64000500D01*
X38178039Y-64000500D01*
X38321962Y-64000500D01*
X38321962Y-64000499D01*
X38460053Y-63959953D01*
X38581128Y-63882143D01*
X38675377Y-63773373D01*
X38735165Y-63642457D01*
X38755647Y-63500000D01*
X38735165Y-63357543D01*
X38675377Y-63226627D01*
X38581128Y-63117857D01*
X38460053Y-63040047D01*
X38460051Y-63040046D01*
X38460049Y-63040045D01*
X38460050Y-63040045D01*
X38323666Y-63000000D01*
X52994353Y-63000000D01*
X53014834Y-63142456D01*
X53053275Y-63226628D01*
X53074623Y-63273373D01*
X53168872Y-63382143D01*
X53289947Y-63459953D01*
X53289950Y-63459954D01*
X53289949Y-63459954D01*
X53397107Y-63491417D01*
X53426336Y-63500000D01*
X53428036Y-63500499D01*
X53428038Y-63500500D01*
X53428039Y-63500500D01*
X53571962Y-63500500D01*
X53571962Y-63500499D01*
X53710053Y-63459953D01*
X53831128Y-63382143D01*
X53925377Y-63273373D01*
X53985165Y-63142457D01*
X54005647Y-63000000D01*
X53985165Y-62857543D01*
X53925377Y-62726627D01*
X53831128Y-62617857D01*
X53710053Y-62540047D01*
X53710051Y-62540046D01*
X53710049Y-62540045D01*
X53710050Y-62540045D01*
X53571963Y-62499500D01*
X53571961Y-62499500D01*
X53428039Y-62499500D01*
X53428036Y-62499500D01*
X53289949Y-62540045D01*
X53168873Y-62617856D01*
X53074623Y-62726626D01*
X53074622Y-62726628D01*
X53014834Y-62857543D01*
X52994353Y-63000000D01*
X38323666Y-63000000D01*
X38321963Y-62999500D01*
X38321961Y-62999500D01*
X38178039Y-62999500D01*
X38178036Y-62999500D01*
X38039949Y-63040045D01*
X37918873Y-63117856D01*
X37824623Y-63226626D01*
X37824622Y-63226628D01*
X37764834Y-63357543D01*
X37747738Y-63476456D01*
X37736986Y-63499999D01*
X37513014Y-63499999D01*
X37502262Y-63476456D01*
X37485165Y-63357543D01*
X37446725Y-63273373D01*
X37425377Y-63226627D01*
X37331128Y-63117857D01*
X37210053Y-63040047D01*
X37210051Y-63040046D01*
X37210049Y-63040045D01*
X37210050Y-63040045D01*
X37071963Y-62999500D01*
X37071961Y-62999500D01*
X36928039Y-62999500D01*
X36928036Y-62999500D01*
X36789949Y-63040045D01*
X36668873Y-63117856D01*
X36593713Y-63204596D01*
X36534935Y-63242370D01*
X36465065Y-63242370D01*
X36406287Y-63204596D01*
X36331128Y-63117857D01*
X36210053Y-63040047D01*
X36210051Y-63040046D01*
X36210049Y-63040045D01*
X36210050Y-63040045D01*
X36071963Y-62999500D01*
X36071961Y-62999500D01*
X35928039Y-62999500D01*
X35928036Y-62999500D01*
X35789949Y-63040045D01*
X35668873Y-63117856D01*
X35574623Y-63226626D01*
X35574622Y-63226628D01*
X35514834Y-63357543D01*
X35494353Y-63500000D01*
X30505647Y-63500000D01*
X30485165Y-63357543D01*
X30425377Y-63226627D01*
X30331128Y-63117857D01*
X30210053Y-63040047D01*
X30210051Y-63040046D01*
X30210049Y-63040045D01*
X30210050Y-63040045D01*
X30071963Y-62999500D01*
X30071961Y-62999500D01*
X29928039Y-62999500D01*
X29928036Y-62999500D01*
X29789949Y-63040045D01*
X29668873Y-63117856D01*
X29574623Y-63226626D01*
X29574622Y-63226628D01*
X29514834Y-63357543D01*
X29494353Y-63500000D01*
X28073661Y-63500000D01*
X28210053Y-63459953D01*
X28331128Y-63382143D01*
X28425377Y-63273373D01*
X28485165Y-63142457D01*
X28505647Y-63000000D01*
X28485165Y-62857543D01*
X28425377Y-62726627D01*
X28331128Y-62617857D01*
X28210053Y-62540047D01*
X28210051Y-62540046D01*
X28210049Y-62540045D01*
X28210050Y-62540045D01*
X28071963Y-62499500D01*
X28071961Y-62499500D01*
X27928039Y-62499500D01*
X27928036Y-62499500D01*
X27789949Y-62540045D01*
X27668873Y-62617856D01*
X27574623Y-62726626D01*
X27574622Y-62726628D01*
X27514834Y-62857543D01*
X27494353Y-63000000D01*
X26930647Y-63000000D01*
X26910165Y-62857543D01*
X26850377Y-62726627D01*
X26756128Y-62617857D01*
X26635053Y-62540047D01*
X26635051Y-62540046D01*
X26635049Y-62540045D01*
X26635050Y-62540045D01*
X26496963Y-62499500D01*
X26496961Y-62499500D01*
X26353039Y-62499500D01*
X26353036Y-62499500D01*
X26214949Y-62540045D01*
X26093873Y-62617856D01*
X25999623Y-62726626D01*
X25999622Y-62726628D01*
X25939834Y-62857543D01*
X25919353Y-63000000D01*
X22073666Y-63000000D01*
X22071963Y-62999500D01*
X22071961Y-62999500D01*
X21928039Y-62999500D01*
X21928036Y-62999500D01*
X21789949Y-63040045D01*
X21668873Y-63117856D01*
X21574623Y-63226626D01*
X21574622Y-63226628D01*
X21514834Y-63357543D01*
X21494353Y-63500000D01*
X20750000Y-63500000D01*
X20750000Y-62000000D01*
X44494353Y-62000000D01*
X44514834Y-62142456D01*
X44574622Y-62273371D01*
X44574623Y-62273373D01*
X44668872Y-62382143D01*
X44789947Y-62459953D01*
X44789950Y-62459954D01*
X44789949Y-62459954D01*
X44897107Y-62491417D01*
X44924633Y-62499500D01*
X44928036Y-62500499D01*
X44928038Y-62500500D01*
X44928039Y-62500500D01*
X45071962Y-62500500D01*
X45071962Y-62500499D01*
X45210053Y-62459953D01*
X45331128Y-62382143D01*
X45425377Y-62273373D01*
X45485165Y-62142457D01*
X45505647Y-62000000D01*
X45485165Y-61857543D01*
X45425377Y-61726627D01*
X45331128Y-61617857D01*
X45210053Y-61540047D01*
X45210051Y-61540046D01*
X45210049Y-61540045D01*
X45210050Y-61540045D01*
X45071963Y-61499500D01*
X45071961Y-61499500D01*
X44928039Y-61499500D01*
X44928036Y-61499500D01*
X44789949Y-61540045D01*
X44668873Y-61617856D01*
X44574623Y-61726626D01*
X44574622Y-61726628D01*
X44514834Y-61857543D01*
X44494353Y-62000000D01*
X20750000Y-62000000D01*
X20750000Y-59500000D01*
X32494353Y-59500000D01*
X32514834Y-59642456D01*
X32574622Y-59773371D01*
X32574625Y-59773377D01*
X32592321Y-59793799D01*
X32621345Y-59857355D01*
X32611401Y-59926513D01*
X32592321Y-59956201D01*
X32574625Y-59976622D01*
X32574622Y-59976628D01*
X32514834Y-60107543D01*
X32494353Y-60250000D01*
X32514834Y-60392456D01*
X32563720Y-60499500D01*
X32574623Y-60523373D01*
X32668872Y-60632143D01*
X32789947Y-60709953D01*
X32789950Y-60709954D01*
X32789949Y-60709954D01*
X32866882Y-60732543D01*
X32926336Y-60750000D01*
X32928036Y-60750499D01*
X32928038Y-60750500D01*
X32928039Y-60750500D01*
X33071962Y-60750500D01*
X33071962Y-60750499D01*
X33104271Y-60741012D01*
X33174139Y-60741011D01*
X33232918Y-60778784D01*
X33261945Y-60842340D01*
X33261945Y-60877635D01*
X33244353Y-60999998D01*
X33244353Y-60999999D01*
X33264834Y-61142456D01*
X33295660Y-61209954D01*
X33324623Y-61273373D01*
X33418872Y-61382143D01*
X33539947Y-61459953D01*
X33539950Y-61459954D01*
X33539949Y-61459954D01*
X33647107Y-61491417D01*
X33674633Y-61499500D01*
X33678036Y-61500499D01*
X33678038Y-61500500D01*
X33678039Y-61500500D01*
X33821962Y-61500500D01*
X33821962Y-61500499D01*
X33960053Y-61459953D01*
X34081128Y-61382143D01*
X34175377Y-61273373D01*
X34186051Y-61250000D01*
X35744353Y-61250000D01*
X35764834Y-61392456D01*
X35795660Y-61459954D01*
X35824623Y-61523373D01*
X35918872Y-61632143D01*
X36039947Y-61709953D01*
X36039950Y-61709954D01*
X36039949Y-61709954D01*
X36178036Y-61750499D01*
X36178038Y-61750500D01*
X36178039Y-61750500D01*
X36321962Y-61750500D01*
X36321962Y-61750499D01*
X36460053Y-61709953D01*
X36581128Y-61632143D01*
X36675377Y-61523373D01*
X36735165Y-61392457D01*
X36755647Y-61250000D01*
X36735165Y-61107543D01*
X36675377Y-60976627D01*
X36624556Y-60917976D01*
X36595532Y-60854422D01*
X36605476Y-60785264D01*
X36651230Y-60732460D01*
X36683334Y-60717798D01*
X36710053Y-60709953D01*
X36831128Y-60632143D01*
X36925377Y-60523373D01*
X36985165Y-60392457D01*
X37005647Y-60250000D01*
X36985165Y-60107543D01*
X36925377Y-59976627D01*
X36831128Y-59867857D01*
X36710053Y-59790047D01*
X36710051Y-59790046D01*
X36710049Y-59790045D01*
X36710050Y-59790045D01*
X36571963Y-59749500D01*
X36571961Y-59749500D01*
X36428039Y-59749500D01*
X36428036Y-59749500D01*
X36289949Y-59790045D01*
X36168873Y-59867856D01*
X36074623Y-59976626D01*
X36074622Y-59976628D01*
X36014834Y-60107543D01*
X35994353Y-60250000D01*
X36014834Y-60392456D01*
X36063720Y-60499500D01*
X36074623Y-60523373D01*
X36125442Y-60582022D01*
X36154467Y-60645577D01*
X36144523Y-60714735D01*
X36098768Y-60767539D01*
X36066666Y-60782200D01*
X36039951Y-60790044D01*
X36039950Y-60790045D01*
X35918873Y-60867856D01*
X35824623Y-60976626D01*
X35824622Y-60976628D01*
X35764834Y-61107543D01*
X35744353Y-61250000D01*
X34186051Y-61250000D01*
X34235165Y-61142457D01*
X34255647Y-61000000D01*
X34235165Y-60857543D01*
X34175377Y-60726627D01*
X34081128Y-60617857D01*
X33960053Y-60540047D01*
X33960051Y-60540046D01*
X33960049Y-60540045D01*
X33960050Y-60540045D01*
X33821963Y-60499500D01*
X33821961Y-60499500D01*
X33678039Y-60499500D01*
X33678035Y-60499500D01*
X33645726Y-60508987D01*
X33575856Y-60508987D01*
X33517078Y-60471212D01*
X33488054Y-60407656D01*
X33488054Y-60372363D01*
X33488702Y-60367856D01*
X33505647Y-60250000D01*
X33485165Y-60107543D01*
X33425377Y-59976627D01*
X33425375Y-59976625D01*
X33425374Y-59976622D01*
X33407680Y-59956203D01*
X33378654Y-59892648D01*
X33388597Y-59823489D01*
X33407680Y-59793797D01*
X33425374Y-59773377D01*
X33425374Y-59773375D01*
X33425377Y-59773373D01*
X33485165Y-59642457D01*
X33505647Y-59500000D01*
X33485165Y-59357543D01*
X33425377Y-59226627D01*
X33331128Y-59117857D01*
X33210053Y-59040047D01*
X33210051Y-59040046D01*
X33210049Y-59040045D01*
X33210050Y-59040045D01*
X33071963Y-58999500D01*
X33071961Y-58999500D01*
X32928039Y-58999500D01*
X32928036Y-58999500D01*
X32789949Y-59040045D01*
X32668873Y-59117856D01*
X32574623Y-59226626D01*
X32574622Y-59226628D01*
X32514834Y-59357543D01*
X32494353Y-59500000D01*
X20750000Y-59500000D01*
X20750000Y-57500000D01*
X28744353Y-57500000D01*
X28764834Y-57642456D01*
X28803275Y-57726628D01*
X28824623Y-57773373D01*
X28918872Y-57882143D01*
X29039947Y-57959953D01*
X29039950Y-57959954D01*
X29039949Y-57959954D01*
X29147107Y-57991417D01*
X29176336Y-58000000D01*
X29178036Y-58000499D01*
X29178038Y-58000500D01*
X29178039Y-58000500D01*
X29321962Y-58000500D01*
X29321962Y-58000499D01*
X29460053Y-57959953D01*
X29581128Y-57882143D01*
X29675377Y-57773373D01*
X29735165Y-57642457D01*
X29755647Y-57500000D01*
X29735165Y-57357543D01*
X29675377Y-57226627D01*
X29581128Y-57117857D01*
X29460053Y-57040047D01*
X29460051Y-57040046D01*
X29460049Y-57040045D01*
X29460050Y-57040045D01*
X29323666Y-57000000D01*
X34244353Y-57000000D01*
X34264834Y-57142456D01*
X34324622Y-57273371D01*
X34324625Y-57273377D01*
X34342321Y-57293799D01*
X34371345Y-57357355D01*
X34361401Y-57426513D01*
X34342321Y-57456201D01*
X34324625Y-57476622D01*
X34324622Y-57476628D01*
X34264834Y-57607543D01*
X34244353Y-57750000D01*
X34264834Y-57892456D01*
X34324622Y-58023371D01*
X34324625Y-58023377D01*
X34342321Y-58043799D01*
X34371345Y-58107355D01*
X34361401Y-58176513D01*
X34342321Y-58206201D01*
X34324625Y-58226622D01*
X34324622Y-58226628D01*
X34264834Y-58357543D01*
X34244353Y-58500000D01*
X34264834Y-58642456D01*
X34323102Y-58770043D01*
X34324623Y-58773373D01*
X34418872Y-58882143D01*
X34539947Y-58959953D01*
X34539950Y-58959954D01*
X34539949Y-58959954D01*
X34596737Y-58976628D01*
X34674633Y-58999500D01*
X34678036Y-59000499D01*
X34678038Y-59000500D01*
X34678039Y-59000500D01*
X34821962Y-59000500D01*
X34821962Y-59000499D01*
X34960053Y-58959953D01*
X35081128Y-58882143D01*
X35175377Y-58773373D01*
X35235165Y-58642457D01*
X35255647Y-58500000D01*
X38494353Y-58500000D01*
X38514834Y-58642456D01*
X38574622Y-58773371D01*
X38574625Y-58773377D01*
X38592321Y-58793799D01*
X38621345Y-58857355D01*
X38611401Y-58926513D01*
X38592321Y-58956201D01*
X38574625Y-58976622D01*
X38574622Y-58976628D01*
X38514834Y-59107543D01*
X38494353Y-59250000D01*
X38514834Y-59392456D01*
X38544559Y-59457543D01*
X38574623Y-59523373D01*
X38668872Y-59632143D01*
X38789947Y-59709953D01*
X38789949Y-59709953D01*
X38794882Y-59712207D01*
X38847685Y-59757964D01*
X38867367Y-59825004D01*
X38847680Y-59892043D01*
X38794882Y-59937793D01*
X38789948Y-59940046D01*
X38668873Y-60017856D01*
X38574623Y-60126626D01*
X38574622Y-60126628D01*
X38514834Y-60257543D01*
X38494353Y-60400000D01*
X38514834Y-60542456D01*
X38561929Y-60645577D01*
X38574623Y-60673373D01*
X38668872Y-60782143D01*
X38789947Y-60859953D01*
X38789950Y-60859954D01*
X38789949Y-60859954D01*
X38928036Y-60900499D01*
X38928038Y-60900500D01*
X38928039Y-60900500D01*
X39071962Y-60900500D01*
X39071962Y-60900499D01*
X39158806Y-60875000D01*
X41869353Y-60875000D01*
X41889834Y-61017456D01*
X41930976Y-61107543D01*
X41949623Y-61148373D01*
X42043872Y-61257143D01*
X42164947Y-61334953D01*
X42164950Y-61334954D01*
X42164949Y-61334954D01*
X42303036Y-61375499D01*
X42303038Y-61375500D01*
X42303039Y-61375500D01*
X42446962Y-61375500D01*
X42446962Y-61375499D01*
X42585053Y-61334953D01*
X42706128Y-61257143D01*
X42800377Y-61148373D01*
X42860165Y-61017457D01*
X42880647Y-60875000D01*
X42862675Y-60750000D01*
X45244353Y-60750000D01*
X45264834Y-60892456D01*
X45303275Y-60976628D01*
X45324623Y-61023373D01*
X45418872Y-61132143D01*
X45539947Y-61209953D01*
X45539950Y-61209954D01*
X45539949Y-61209954D01*
X45647107Y-61241417D01*
X45676336Y-61250000D01*
X45678036Y-61250499D01*
X45678038Y-61250500D01*
X45678039Y-61250500D01*
X45821962Y-61250500D01*
X45821962Y-61250499D01*
X45960053Y-61209953D01*
X46081128Y-61132143D01*
X46175377Y-61023373D01*
X46235165Y-60892457D01*
X46255647Y-60750000D01*
X46235165Y-60607543D01*
X46175377Y-60476627D01*
X46081128Y-60367857D01*
X45960053Y-60290047D01*
X45960051Y-60290046D01*
X45960049Y-60290045D01*
X45960050Y-60290045D01*
X45821963Y-60249500D01*
X45821961Y-60249500D01*
X45678039Y-60249500D01*
X45678036Y-60249500D01*
X45539949Y-60290045D01*
X45418873Y-60367856D01*
X45324623Y-60476626D01*
X45324622Y-60476628D01*
X45264834Y-60607543D01*
X45244353Y-60750000D01*
X42862675Y-60750000D01*
X42860165Y-60732543D01*
X42800377Y-60601627D01*
X42706128Y-60492857D01*
X42585053Y-60415047D01*
X42585051Y-60415046D01*
X42585049Y-60415045D01*
X42585050Y-60415045D01*
X42446963Y-60374500D01*
X42446961Y-60374500D01*
X42303039Y-60374500D01*
X42303036Y-60374500D01*
X42164949Y-60415045D01*
X42043873Y-60492856D01*
X41949623Y-60601626D01*
X41949622Y-60601628D01*
X41889834Y-60732543D01*
X41869353Y-60875000D01*
X39158806Y-60875000D01*
X39210053Y-60859953D01*
X39331128Y-60782143D01*
X39425377Y-60673373D01*
X39485165Y-60542457D01*
X39505647Y-60400000D01*
X39485165Y-60257543D01*
X39425377Y-60126627D01*
X39331128Y-60017857D01*
X39303342Y-60000000D01*
X50244353Y-60000000D01*
X50264834Y-60142456D01*
X50324622Y-60273371D01*
X50324623Y-60273373D01*
X50418872Y-60382143D01*
X50539947Y-60459953D01*
X50539950Y-60459954D01*
X50539949Y-60459954D01*
X50596737Y-60476628D01*
X50674633Y-60499500D01*
X50678036Y-60500499D01*
X50678038Y-60500500D01*
X50678039Y-60500500D01*
X50821962Y-60500500D01*
X50821962Y-60500499D01*
X50960053Y-60459953D01*
X51081128Y-60382143D01*
X51175377Y-60273373D01*
X51235165Y-60142457D01*
X51255647Y-60000000D01*
X51235165Y-59857543D01*
X51175377Y-59726627D01*
X51081128Y-59617857D01*
X51053342Y-59600000D01*
X53294353Y-59600000D01*
X53314834Y-59742456D01*
X53372103Y-59867856D01*
X53374623Y-59873373D01*
X53468872Y-59982143D01*
X53589947Y-60059953D01*
X53589950Y-60059954D01*
X53589949Y-60059954D01*
X53728036Y-60100499D01*
X53728038Y-60100500D01*
X53728039Y-60100500D01*
X53871962Y-60100500D01*
X53871962Y-60100499D01*
X54010053Y-60059953D01*
X54131128Y-59982143D01*
X54225377Y-59873373D01*
X54285165Y-59742457D01*
X54305647Y-59600000D01*
X54285165Y-59457543D01*
X54225377Y-59326627D01*
X54131128Y-59217857D01*
X54010053Y-59140047D01*
X54010051Y-59140046D01*
X54010049Y-59140045D01*
X54010050Y-59140045D01*
X53871963Y-59099500D01*
X53871961Y-59099500D01*
X53728039Y-59099500D01*
X53728036Y-59099500D01*
X53589949Y-59140045D01*
X53468873Y-59217856D01*
X53374623Y-59326626D01*
X53374622Y-59326628D01*
X53314834Y-59457543D01*
X53294353Y-59600000D01*
X51053342Y-59600000D01*
X50960053Y-59540047D01*
X50960051Y-59540046D01*
X50960049Y-59540045D01*
X50960050Y-59540045D01*
X50821963Y-59499500D01*
X50821961Y-59499500D01*
X50678039Y-59499500D01*
X50678036Y-59499500D01*
X50539949Y-59540045D01*
X50418873Y-59617856D01*
X50324623Y-59726626D01*
X50324622Y-59726628D01*
X50264834Y-59857543D01*
X50244353Y-60000000D01*
X39303342Y-60000000D01*
X39275556Y-59982143D01*
X39210051Y-59940045D01*
X39205120Y-59937794D01*
X39152316Y-59892039D01*
X39132632Y-59824999D01*
X39152317Y-59757960D01*
X39205120Y-59712206D01*
X39210051Y-59709954D01*
X39210053Y-59709953D01*
X39331128Y-59632143D01*
X39425377Y-59523373D01*
X39485165Y-59392457D01*
X39505647Y-59250000D01*
X39485165Y-59107543D01*
X39425377Y-58976627D01*
X39425375Y-58976625D01*
X39425374Y-58976622D01*
X39407680Y-58956203D01*
X39387721Y-58912500D01*
X45994353Y-58912500D01*
X46014834Y-59054956D01*
X46074622Y-59185871D01*
X46074623Y-59185873D01*
X46168872Y-59294643D01*
X46289947Y-59372453D01*
X46289950Y-59372454D01*
X46289949Y-59372454D01*
X46428036Y-59412999D01*
X46428038Y-59413000D01*
X46428039Y-59413000D01*
X46571962Y-59413000D01*
X46571962Y-59412999D01*
X46710053Y-59372453D01*
X46831128Y-59294643D01*
X46925377Y-59185873D01*
X46985165Y-59054957D01*
X47005647Y-58912500D01*
X46985165Y-58770043D01*
X46925377Y-58639127D01*
X46831128Y-58530357D01*
X46710053Y-58452547D01*
X46710051Y-58452546D01*
X46710049Y-58452545D01*
X46710050Y-58452545D01*
X46571963Y-58412000D01*
X46571961Y-58412000D01*
X46428039Y-58412000D01*
X46428036Y-58412000D01*
X46289949Y-58452545D01*
X46168873Y-58530356D01*
X46074623Y-58639126D01*
X46074622Y-58639128D01*
X46014834Y-58770043D01*
X45994353Y-58912500D01*
X39387721Y-58912500D01*
X39378654Y-58892648D01*
X39388597Y-58823489D01*
X39407680Y-58793797D01*
X39425374Y-58773377D01*
X39425374Y-58773375D01*
X39425377Y-58773373D01*
X39485165Y-58642457D01*
X39505647Y-58500000D01*
X39485165Y-58357543D01*
X39425377Y-58226627D01*
X39331128Y-58117857D01*
X39210053Y-58040047D01*
X39210051Y-58040046D01*
X39210049Y-58040045D01*
X39210050Y-58040045D01*
X39071963Y-57999500D01*
X39071961Y-57999500D01*
X38928039Y-57999500D01*
X38928036Y-57999500D01*
X38789949Y-58040045D01*
X38668873Y-58117856D01*
X38574623Y-58226626D01*
X38574622Y-58226628D01*
X38514834Y-58357543D01*
X38494353Y-58500000D01*
X35255647Y-58500000D01*
X35235165Y-58357543D01*
X35175377Y-58226627D01*
X35175375Y-58226625D01*
X35175374Y-58226622D01*
X35157680Y-58206203D01*
X35128654Y-58142648D01*
X35138597Y-58073489D01*
X35157680Y-58043797D01*
X35175374Y-58023377D01*
X35175374Y-58023375D01*
X35175377Y-58023373D01*
X35226012Y-57912500D01*
X41244353Y-57912500D01*
X41264834Y-58054956D01*
X41319008Y-58173578D01*
X41324623Y-58185873D01*
X41418872Y-58294643D01*
X41539947Y-58372453D01*
X41539950Y-58372454D01*
X41539949Y-58372454D01*
X41572948Y-58382143D01*
X41674633Y-58412000D01*
X41678036Y-58412999D01*
X41678038Y-58413000D01*
X41678039Y-58413000D01*
X41821962Y-58413000D01*
X41821962Y-58412999D01*
X41960053Y-58372453D01*
X42081128Y-58294643D01*
X42175377Y-58185873D01*
X42235165Y-58054957D01*
X42255647Y-57912500D01*
X42235165Y-57770043D01*
X42226012Y-57750000D01*
X43494353Y-57750000D01*
X43514834Y-57892456D01*
X43545660Y-57959954D01*
X43574623Y-58023373D01*
X43668872Y-58132143D01*
X43789947Y-58209953D01*
X43789950Y-58209954D01*
X43789949Y-58209954D01*
X43928036Y-58250499D01*
X43928038Y-58250500D01*
X43928039Y-58250500D01*
X44071962Y-58250500D01*
X44071962Y-58250499D01*
X44210053Y-58209953D01*
X44331128Y-58132143D01*
X44425377Y-58023373D01*
X44436051Y-58000000D01*
X48244353Y-58000000D01*
X48264834Y-58142456D01*
X48303275Y-58226628D01*
X48324623Y-58273373D01*
X48418872Y-58382143D01*
X48539947Y-58459953D01*
X48539950Y-58459954D01*
X48539949Y-58459954D01*
X48647107Y-58491417D01*
X48676336Y-58500000D01*
X48678036Y-58500499D01*
X48678038Y-58500500D01*
X48678039Y-58500500D01*
X48821962Y-58500500D01*
X48821962Y-58500499D01*
X48960053Y-58459953D01*
X49081128Y-58382143D01*
X49175377Y-58273373D01*
X49235165Y-58142457D01*
X49255647Y-58000000D01*
X49235165Y-57857543D01*
X49175377Y-57726627D01*
X49081128Y-57617857D01*
X48960053Y-57540047D01*
X48960051Y-57540046D01*
X48960049Y-57540045D01*
X48960050Y-57540045D01*
X48821963Y-57499500D01*
X48821961Y-57499500D01*
X48678039Y-57499500D01*
X48678036Y-57499500D01*
X48539949Y-57540045D01*
X48418873Y-57617856D01*
X48324623Y-57726626D01*
X48324622Y-57726628D01*
X48264834Y-57857543D01*
X48244353Y-58000000D01*
X44436051Y-58000000D01*
X44485165Y-57892457D01*
X44505647Y-57750000D01*
X44485165Y-57607543D01*
X44425377Y-57476627D01*
X44331128Y-57367857D01*
X44210053Y-57290047D01*
X44210051Y-57290046D01*
X44210049Y-57290045D01*
X44210050Y-57290045D01*
X44071963Y-57249500D01*
X44071961Y-57249500D01*
X43928039Y-57249500D01*
X43928036Y-57249500D01*
X43789949Y-57290045D01*
X43668873Y-57367856D01*
X43574623Y-57476626D01*
X43574622Y-57476628D01*
X43514834Y-57607543D01*
X43494353Y-57750000D01*
X42226012Y-57750000D01*
X42175377Y-57639127D01*
X42081128Y-57530357D01*
X41960053Y-57452547D01*
X41960051Y-57452546D01*
X41960049Y-57452545D01*
X41960050Y-57452545D01*
X41821963Y-57412000D01*
X41821961Y-57412000D01*
X41678039Y-57412000D01*
X41678036Y-57412000D01*
X41539949Y-57452545D01*
X41418873Y-57530356D01*
X41324623Y-57639126D01*
X41324622Y-57639128D01*
X41264834Y-57770043D01*
X41244353Y-57912500D01*
X35226012Y-57912500D01*
X35235165Y-57892457D01*
X35255647Y-57750000D01*
X35235165Y-57607543D01*
X35175377Y-57476627D01*
X35175375Y-57476625D01*
X35175374Y-57476622D01*
X35157680Y-57456203D01*
X35128654Y-57392648D01*
X35138597Y-57323489D01*
X35157680Y-57293797D01*
X35175374Y-57273377D01*
X35175374Y-57273375D01*
X35175377Y-57273373D01*
X35235165Y-57142457D01*
X35255647Y-57000000D01*
X53244353Y-57000000D01*
X53264834Y-57142456D01*
X53303275Y-57226628D01*
X53324623Y-57273373D01*
X53418872Y-57382143D01*
X53539947Y-57459953D01*
X53539950Y-57459954D01*
X53539949Y-57459954D01*
X53596737Y-57476628D01*
X53676336Y-57500000D01*
X53678036Y-57500499D01*
X53678038Y-57500500D01*
X53678039Y-57500500D01*
X53821962Y-57500500D01*
X53821962Y-57500499D01*
X53960053Y-57459953D01*
X54081128Y-57382143D01*
X54175377Y-57273373D01*
X54235165Y-57142457D01*
X54255647Y-57000000D01*
X54235165Y-56857543D01*
X54175377Y-56726627D01*
X54081128Y-56617857D01*
X53960053Y-56540047D01*
X53960051Y-56540046D01*
X53960049Y-56540045D01*
X53960050Y-56540045D01*
X53821963Y-56499500D01*
X53821961Y-56499500D01*
X53678039Y-56499500D01*
X53678036Y-56499500D01*
X53539949Y-56540045D01*
X53418873Y-56617856D01*
X53324623Y-56726626D01*
X53324622Y-56726628D01*
X53264834Y-56857543D01*
X53244353Y-57000000D01*
X35255647Y-57000000D01*
X35235165Y-56857543D01*
X35175377Y-56726627D01*
X35081128Y-56617857D01*
X34960053Y-56540047D01*
X34960051Y-56540046D01*
X34960049Y-56540045D01*
X34960050Y-56540045D01*
X34821963Y-56499500D01*
X34821961Y-56499500D01*
X34678039Y-56499500D01*
X34678036Y-56499500D01*
X34539949Y-56540045D01*
X34418873Y-56617856D01*
X34324623Y-56726626D01*
X34324622Y-56726628D01*
X34264834Y-56857543D01*
X34244353Y-57000000D01*
X29323666Y-57000000D01*
X29321963Y-56999500D01*
X29321961Y-56999500D01*
X29178039Y-56999500D01*
X29178036Y-56999500D01*
X29039949Y-57040045D01*
X28918873Y-57117856D01*
X28824623Y-57226626D01*
X28824622Y-57226628D01*
X28764834Y-57357543D01*
X28744353Y-57500000D01*
X20750000Y-57500000D01*
X20750000Y-56000000D01*
X32494353Y-56000000D01*
X32514834Y-56142456D01*
X32574622Y-56273371D01*
X32574623Y-56273373D01*
X32668872Y-56382143D01*
X32789947Y-56459953D01*
X32789950Y-56459954D01*
X32789949Y-56459954D01*
X32897107Y-56491417D01*
X32924633Y-56499500D01*
X32928036Y-56500499D01*
X32928038Y-56500500D01*
X32928039Y-56500500D01*
X33071962Y-56500500D01*
X33071962Y-56500499D01*
X33210053Y-56459953D01*
X33331128Y-56382143D01*
X33425377Y-56273373D01*
X33485165Y-56142457D01*
X33505647Y-56000000D01*
X40994353Y-56000000D01*
X41014834Y-56142456D01*
X41074622Y-56273371D01*
X41074623Y-56273373D01*
X41168872Y-56382143D01*
X41289947Y-56459953D01*
X41289950Y-56459954D01*
X41289949Y-56459954D01*
X41397107Y-56491417D01*
X41424633Y-56499500D01*
X41428036Y-56500499D01*
X41428038Y-56500500D01*
X41428039Y-56500500D01*
X41571962Y-56500500D01*
X41571962Y-56500499D01*
X41710053Y-56459953D01*
X41831128Y-56382143D01*
X41925377Y-56273373D01*
X41985165Y-56142457D01*
X42005647Y-56000000D01*
X41985165Y-55857543D01*
X41925377Y-55726627D01*
X41831128Y-55617857D01*
X41710053Y-55540047D01*
X41710051Y-55540046D01*
X41710049Y-55540045D01*
X41710050Y-55540045D01*
X41571963Y-55499500D01*
X41571961Y-55499500D01*
X41428039Y-55499500D01*
X41428036Y-55499500D01*
X41289949Y-55540045D01*
X41168873Y-55617856D01*
X41074623Y-55726626D01*
X41074622Y-55726628D01*
X41014834Y-55857543D01*
X40994353Y-56000000D01*
X33505647Y-56000000D01*
X33488054Y-55877636D01*
X33497998Y-55808477D01*
X33543753Y-55755673D01*
X33610792Y-55735989D01*
X33645723Y-55741011D01*
X33678039Y-55750500D01*
X33678040Y-55750500D01*
X33821962Y-55750500D01*
X33821962Y-55750499D01*
X33960053Y-55709953D01*
X34081128Y-55632143D01*
X34175377Y-55523373D01*
X34235165Y-55392457D01*
X34255647Y-55250000D01*
X34235165Y-55107543D01*
X34175377Y-54976627D01*
X34081128Y-54867857D01*
X33960053Y-54790047D01*
X33960051Y-54790046D01*
X33960049Y-54790045D01*
X33960050Y-54790045D01*
X33821963Y-54749500D01*
X33821961Y-54749500D01*
X33678039Y-54749500D01*
X33678036Y-54749500D01*
X33539949Y-54790045D01*
X33418873Y-54867856D01*
X33324623Y-54976626D01*
X33324622Y-54976628D01*
X33264834Y-55107543D01*
X33244353Y-55250000D01*
X33261945Y-55372364D01*
X33252001Y-55441522D01*
X33206246Y-55494326D01*
X33139206Y-55514010D01*
X33104273Y-55508987D01*
X33071963Y-55499500D01*
X33071961Y-55499500D01*
X32928039Y-55499500D01*
X32928036Y-55499500D01*
X32789949Y-55540045D01*
X32668873Y-55617856D01*
X32574623Y-55726626D01*
X32574622Y-55726628D01*
X32514834Y-55857543D01*
X32494353Y-56000000D01*
X20750000Y-56000000D01*
X20750000Y-54000000D01*
X28254353Y-54000000D01*
X28274834Y-54142456D01*
X28313275Y-54226628D01*
X28334623Y-54273373D01*
X28428872Y-54382143D01*
X28549947Y-54459953D01*
X28549950Y-54459954D01*
X28549949Y-54459954D01*
X28657107Y-54491417D01*
X28686336Y-54500000D01*
X28688036Y-54500499D01*
X28688038Y-54500500D01*
X28688039Y-54500500D01*
X28831962Y-54500500D01*
X28831962Y-54500499D01*
X28833661Y-54500000D01*
X39994353Y-54500000D01*
X40014834Y-54642456D01*
X40063720Y-54749500D01*
X40074623Y-54773373D01*
X40168872Y-54882143D01*
X40289947Y-54959953D01*
X40289950Y-54959954D01*
X40289949Y-54959954D01*
X40428036Y-55000499D01*
X40428038Y-55000500D01*
X40428039Y-55000500D01*
X40571962Y-55000500D01*
X40571962Y-55000499D01*
X40710053Y-54959953D01*
X40831128Y-54882143D01*
X40925377Y-54773373D01*
X40985165Y-54642457D01*
X41005647Y-54500000D01*
X40985165Y-54357543D01*
X40925377Y-54226627D01*
X40831128Y-54117857D01*
X40710053Y-54040047D01*
X40710051Y-54040046D01*
X40710049Y-54040045D01*
X40710050Y-54040045D01*
X40571963Y-53999500D01*
X40571961Y-53999500D01*
X40428039Y-53999500D01*
X40428036Y-53999500D01*
X40289949Y-54040045D01*
X40168873Y-54117856D01*
X40074623Y-54226626D01*
X40074622Y-54226628D01*
X40014834Y-54357543D01*
X39994353Y-54500000D01*
X28833661Y-54500000D01*
X28970053Y-54459953D01*
X29091128Y-54382143D01*
X29185377Y-54273373D01*
X29245165Y-54142457D01*
X29265647Y-54000000D01*
X29245165Y-53857543D01*
X29185377Y-53726627D01*
X29091128Y-53617857D01*
X28970053Y-53540047D01*
X28970051Y-53540046D01*
X28970049Y-53540045D01*
X28970050Y-53540045D01*
X28831963Y-53499500D01*
X28831961Y-53499500D01*
X28688039Y-53499500D01*
X28688036Y-53499500D01*
X28549949Y-53540045D01*
X28428873Y-53617856D01*
X28334623Y-53726626D01*
X28334622Y-53726628D01*
X28274834Y-53857543D01*
X28254353Y-54000000D01*
X20750000Y-54000000D01*
X20750000Y-52800000D01*
X36294353Y-52800000D01*
X36314834Y-52942456D01*
X36361838Y-53045378D01*
X36374623Y-53073373D01*
X36468872Y-53182143D01*
X36589947Y-53259953D01*
X36589950Y-53259954D01*
X36589949Y-53259954D01*
X36728036Y-53300499D01*
X36728038Y-53300500D01*
X36728039Y-53300500D01*
X36871962Y-53300500D01*
X36871962Y-53300499D01*
X37010053Y-53259953D01*
X37025540Y-53250000D01*
X40994353Y-53250000D01*
X41014834Y-53392456D01*
X41046232Y-53461206D01*
X41074623Y-53523373D01*
X41168872Y-53632143D01*
X41289947Y-53709953D01*
X41289950Y-53709954D01*
X41289949Y-53709954D01*
X41428036Y-53750499D01*
X41428038Y-53750500D01*
X41428039Y-53750500D01*
X41571962Y-53750500D01*
X41571962Y-53750499D01*
X41710053Y-53709953D01*
X41831128Y-53632143D01*
X41925377Y-53523373D01*
X41985165Y-53392457D01*
X41995762Y-53318750D01*
X48175603Y-53318750D01*
X48196084Y-53461206D01*
X48232090Y-53540047D01*
X48255873Y-53592123D01*
X48350122Y-53700893D01*
X48471197Y-53778703D01*
X48471200Y-53778704D01*
X48471199Y-53778704D01*
X48609286Y-53819249D01*
X48609288Y-53819250D01*
X48609289Y-53819250D01*
X48753212Y-53819250D01*
X48753212Y-53819249D01*
X48891303Y-53778703D01*
X49012378Y-53700893D01*
X49106627Y-53592123D01*
X49166415Y-53461207D01*
X49186897Y-53318750D01*
X49166415Y-53176293D01*
X49106627Y-53045377D01*
X49012378Y-52936607D01*
X48891303Y-52858797D01*
X48891301Y-52858796D01*
X48891299Y-52858795D01*
X48891300Y-52858795D01*
X48753213Y-52818250D01*
X48753211Y-52818250D01*
X48609289Y-52818250D01*
X48609286Y-52818250D01*
X48471199Y-52858795D01*
X48350123Y-52936606D01*
X48255873Y-53045376D01*
X48255872Y-53045378D01*
X48196084Y-53176293D01*
X48175603Y-53318750D01*
X41995762Y-53318750D01*
X42005647Y-53250000D01*
X41985165Y-53107543D01*
X41925377Y-52976627D01*
X41831128Y-52867857D01*
X41710053Y-52790047D01*
X41710051Y-52790046D01*
X41710049Y-52790045D01*
X41710050Y-52790045D01*
X41571963Y-52749500D01*
X41571961Y-52749500D01*
X41428039Y-52749500D01*
X41428036Y-52749500D01*
X41289949Y-52790045D01*
X41168873Y-52867856D01*
X41074623Y-52976626D01*
X41074622Y-52976628D01*
X41014834Y-53107543D01*
X40994353Y-53250000D01*
X37025540Y-53250000D01*
X37131128Y-53182143D01*
X37225377Y-53073373D01*
X37263127Y-52990712D01*
X37271222Y-52972988D01*
X37316977Y-52920184D01*
X37384016Y-52900500D01*
X37471962Y-52900500D01*
X37471962Y-52900499D01*
X37610053Y-52859953D01*
X37731128Y-52782143D01*
X37825377Y-52673373D01*
X37871222Y-52572988D01*
X37916977Y-52520184D01*
X37984016Y-52500500D01*
X38071962Y-52500500D01*
X38071962Y-52500499D01*
X38210053Y-52459953D01*
X38331128Y-52382143D01*
X38425377Y-52273373D01*
X38471222Y-52172988D01*
X38516977Y-52120184D01*
X38584016Y-52100500D01*
X38671962Y-52100500D01*
X38671962Y-52100499D01*
X38810053Y-52059953D01*
X38931128Y-51982143D01*
X39025377Y-51873373D01*
X39048880Y-51821908D01*
X39094633Y-51769107D01*
X39161672Y-51749422D01*
X39176749Y-51750500D01*
X39178039Y-51750500D01*
X39321962Y-51750500D01*
X39321962Y-51750499D01*
X39460053Y-51709953D01*
X39581128Y-51632143D01*
X39610848Y-51597844D01*
X48950000Y-51597844D01*
X48956401Y-51657372D01*
X48956403Y-51657379D01*
X49006645Y-51792086D01*
X49006649Y-51792093D01*
X49092809Y-51907187D01*
X49092812Y-51907190D01*
X49207906Y-51993350D01*
X49207913Y-51993354D01*
X49342620Y-52043596D01*
X49342627Y-52043598D01*
X49402155Y-52049999D01*
X49402172Y-52050000D01*
X49500000Y-52050000D01*
X50500000Y-52050000D01*
X50597828Y-52050000D01*
X50597844Y-52049999D01*
X50657372Y-52043598D01*
X50657379Y-52043596D01*
X50792086Y-51993354D01*
X50792093Y-51993350D01*
X50907187Y-51907190D01*
X50907190Y-51907187D01*
X50993350Y-51792093D01*
X50993354Y-51792086D01*
X51043596Y-51657379D01*
X51043598Y-51657372D01*
X51049999Y-51597844D01*
X51050000Y-51597827D01*
X51050000Y-51500000D01*
X50500000Y-51500000D01*
X50500000Y-52050000D01*
X49500000Y-52050000D01*
X49500000Y-51500000D01*
X48950000Y-51500000D01*
X48950000Y-51597844D01*
X39610848Y-51597844D01*
X39675377Y-51523373D01*
X39735165Y-51392457D01*
X39755647Y-51250000D01*
X39735165Y-51107543D01*
X39675377Y-50976627D01*
X39655703Y-50953922D01*
X49650000Y-50953922D01*
X49650000Y-51046078D01*
X49673852Y-51135095D01*
X49719930Y-51214905D01*
X49785095Y-51280070D01*
X49864905Y-51326148D01*
X49953922Y-51350000D01*
X50046078Y-51350000D01*
X50135095Y-51326148D01*
X50214905Y-51280070D01*
X50280070Y-51214905D01*
X50326148Y-51135095D01*
X50350000Y-51046078D01*
X50350000Y-50953922D01*
X50326148Y-50864905D01*
X50280070Y-50785095D01*
X50214905Y-50719930D01*
X50135095Y-50673852D01*
X50046078Y-50650000D01*
X49953922Y-50650000D01*
X49864905Y-50673852D01*
X49785095Y-50719930D01*
X49719930Y-50785095D01*
X49673852Y-50864905D01*
X49650000Y-50953922D01*
X39655703Y-50953922D01*
X39581128Y-50867857D01*
X39460053Y-50790047D01*
X39460051Y-50790046D01*
X39460049Y-50790045D01*
X39460050Y-50790045D01*
X39321963Y-50749500D01*
X39321961Y-50749500D01*
X39178039Y-50749500D01*
X39178036Y-50749500D01*
X39039949Y-50790045D01*
X38918873Y-50867856D01*
X38824623Y-50976626D01*
X38801120Y-51028090D01*
X38755364Y-51080893D01*
X38688324Y-51100577D01*
X38673252Y-51099500D01*
X38671961Y-51099500D01*
X38528039Y-51099500D01*
X38528036Y-51099500D01*
X38389949Y-51140045D01*
X38268873Y-51217856D01*
X38174623Y-51326626D01*
X38174622Y-51326628D01*
X38128778Y-51427012D01*
X38083023Y-51479816D01*
X38015984Y-51499500D01*
X37928036Y-51499500D01*
X37789949Y-51540045D01*
X37668873Y-51617856D01*
X37574623Y-51726626D01*
X37574622Y-51726628D01*
X37528778Y-51827012D01*
X37483023Y-51879816D01*
X37415984Y-51899500D01*
X37328036Y-51899500D01*
X37189949Y-51940045D01*
X37068873Y-52017856D01*
X36974623Y-52126626D01*
X36974622Y-52126628D01*
X36928778Y-52227012D01*
X36883023Y-52279816D01*
X36815984Y-52299500D01*
X36728036Y-52299500D01*
X36589949Y-52340045D01*
X36468873Y-52417856D01*
X36374623Y-52526626D01*
X36374622Y-52526628D01*
X36314834Y-52657543D01*
X36294353Y-52800000D01*
X20750000Y-52800000D01*
X20750000Y-49399997D01*
X27470335Y-49399997D01*
X27470335Y-49400002D01*
X27490132Y-49575712D01*
X27490133Y-49575716D01*
X27548536Y-49742625D01*
X27642613Y-49892345D01*
X27642615Y-49892348D01*
X27697586Y-49947319D01*
X27731070Y-50008643D01*
X27726085Y-50078335D01*
X27697586Y-50122681D01*
X27642613Y-50177654D01*
X27548537Y-50327374D01*
X27548536Y-50327374D01*
X27490133Y-50494283D01*
X27490132Y-50494287D01*
X27470335Y-50669997D01*
X27470335Y-50670002D01*
X27490132Y-50845712D01*
X27490133Y-50845716D01*
X27548536Y-51012625D01*
X27642613Y-51162346D01*
X27767653Y-51287386D01*
X27917374Y-51381462D01*
X27917374Y-51381463D01*
X28084283Y-51439866D01*
X28084287Y-51439867D01*
X28259997Y-51459665D01*
X28260000Y-51459665D01*
X28260003Y-51459665D01*
X28435712Y-51439867D01*
X28435715Y-51439866D01*
X28435717Y-51439866D01*
X28602623Y-51381464D01*
X28752348Y-51287385D01*
X28807319Y-51232414D01*
X28868642Y-51198929D01*
X28938334Y-51203913D01*
X28982681Y-51232414D01*
X29037653Y-51287386D01*
X29187374Y-51381462D01*
X29187374Y-51381463D01*
X29354283Y-51439866D01*
X29354287Y-51439867D01*
X29529997Y-51459665D01*
X29530000Y-51459665D01*
X29530003Y-51459665D01*
X29705712Y-51439867D01*
X29705715Y-51439866D01*
X29705717Y-51439866D01*
X29872623Y-51381464D01*
X30022348Y-51287385D01*
X30077319Y-51232414D01*
X30138642Y-51198929D01*
X30208334Y-51203913D01*
X30252681Y-51232414D01*
X30307653Y-51287386D01*
X30457374Y-51381462D01*
X30457374Y-51381463D01*
X30624283Y-51439866D01*
X30624287Y-51439867D01*
X30799997Y-51459665D01*
X30800000Y-51459665D01*
X30800003Y-51459665D01*
X30975712Y-51439867D01*
X30975715Y-51439866D01*
X30975717Y-51439866D01*
X31142623Y-51381464D01*
X31292348Y-51287385D01*
X31347319Y-51232414D01*
X31408642Y-51198929D01*
X31478334Y-51203913D01*
X31522681Y-51232414D01*
X31577653Y-51287386D01*
X31727374Y-51381462D01*
X31727374Y-51381463D01*
X31894283Y-51439866D01*
X31894287Y-51439867D01*
X32069997Y-51459665D01*
X32070000Y-51459665D01*
X32070003Y-51459665D01*
X32245712Y-51439867D01*
X32245715Y-51439866D01*
X32245717Y-51439866D01*
X32412623Y-51381464D01*
X32562348Y-51287385D01*
X32617319Y-51232414D01*
X32678642Y-51198929D01*
X32748334Y-51203913D01*
X32792681Y-51232414D01*
X32847653Y-51287386D01*
X32997374Y-51381462D01*
X32997374Y-51381463D01*
X33164283Y-51439866D01*
X33164287Y-51439867D01*
X33339997Y-51459665D01*
X33340000Y-51459665D01*
X33340003Y-51459665D01*
X33515712Y-51439867D01*
X33515715Y-51439866D01*
X33515717Y-51439866D01*
X33682623Y-51381464D01*
X33832348Y-51287385D01*
X33957385Y-51162348D01*
X34051464Y-51012623D01*
X34109866Y-50845717D01*
X34120708Y-50749500D01*
X34129665Y-50670002D01*
X34129665Y-50669997D01*
X34109867Y-50494287D01*
X34109866Y-50494283D01*
X34077630Y-50402155D01*
X48950000Y-50402155D01*
X48950000Y-50500000D01*
X49500000Y-50500000D01*
X50500000Y-50500000D01*
X51050000Y-50500000D01*
X51050000Y-50402172D01*
X51049999Y-50402155D01*
X51043598Y-50342627D01*
X51043596Y-50342620D01*
X50993354Y-50207913D01*
X50993350Y-50207906D01*
X50907190Y-50092812D01*
X50907187Y-50092809D01*
X50792093Y-50006649D01*
X50792086Y-50006645D01*
X50774270Y-50000000D01*
X60054353Y-50000000D01*
X60074834Y-50142456D01*
X60104725Y-50207906D01*
X60134623Y-50273373D01*
X60228872Y-50382143D01*
X60349947Y-50459953D01*
X60349950Y-50459954D01*
X60349949Y-50459954D01*
X60457107Y-50491417D01*
X60486336Y-50500000D01*
X60488036Y-50500499D01*
X60488038Y-50500500D01*
X60488039Y-50500500D01*
X60631962Y-50500500D01*
X60631962Y-50500499D01*
X60770053Y-50459953D01*
X60891128Y-50382143D01*
X60985377Y-50273373D01*
X61045165Y-50142457D01*
X61065647Y-50000000D01*
X61045165Y-49857543D01*
X60985377Y-49726627D01*
X60891128Y-49617857D01*
X60770053Y-49540047D01*
X60770051Y-49540046D01*
X60770049Y-49540045D01*
X60770050Y-49540045D01*
X60631963Y-49499500D01*
X60631961Y-49499500D01*
X60488039Y-49499500D01*
X60488036Y-49499500D01*
X60349949Y-49540045D01*
X60228873Y-49617856D01*
X60134623Y-49726626D01*
X60134622Y-49726628D01*
X60074834Y-49857543D01*
X60054353Y-50000000D01*
X50774270Y-50000000D01*
X50657379Y-49956403D01*
X50657372Y-49956401D01*
X50597844Y-49950000D01*
X50500000Y-49950000D01*
X50500000Y-50500000D01*
X49500000Y-50500000D01*
X49500000Y-49950000D01*
X49402155Y-49950000D01*
X49342627Y-49956401D01*
X49342620Y-49956403D01*
X49207913Y-50006645D01*
X49207906Y-50006649D01*
X49092812Y-50092809D01*
X49092809Y-50092812D01*
X49006649Y-50207906D01*
X49006645Y-50207913D01*
X48956403Y-50342620D01*
X48956401Y-50342627D01*
X48950000Y-50402155D01*
X34077630Y-50402155D01*
X34051463Y-50327374D01*
X33957386Y-50177653D01*
X33832346Y-50052613D01*
X33682625Y-49958537D01*
X33682625Y-49958536D01*
X33515716Y-49900133D01*
X33515712Y-49900132D01*
X33340003Y-49880335D01*
X33339996Y-49880335D01*
X33195530Y-49896612D01*
X33126708Y-49884557D01*
X33093966Y-49861073D01*
X32878926Y-49646033D01*
X32845441Y-49584710D01*
X32843387Y-49544468D01*
X32859665Y-49400002D01*
X32859665Y-49399997D01*
X32854767Y-49356528D01*
X33009800Y-49356528D01*
X33009800Y-49443472D01*
X33032303Y-49527452D01*
X33075774Y-49602747D01*
X33137253Y-49664226D01*
X33212548Y-49707697D01*
X33296528Y-49730200D01*
X33383472Y-49730200D01*
X33467452Y-49707697D01*
X33542747Y-49664226D01*
X33604226Y-49602747D01*
X33647697Y-49527452D01*
X33670200Y-49443472D01*
X33670200Y-49399999D01*
X34047107Y-49399999D01*
X34047107Y-49400001D01*
X34374172Y-49727066D01*
X34374173Y-49727066D01*
X34410304Y-49600077D01*
X34410305Y-49600074D01*
X34428845Y-49400000D01*
X34428845Y-49399999D01*
X34410305Y-49199925D01*
X34410304Y-49199922D01*
X34374172Y-49072932D01*
X34047107Y-49399999D01*
X33670200Y-49399999D01*
X33670200Y-49356528D01*
X33647697Y-49272548D01*
X33604226Y-49197253D01*
X33542747Y-49135774D01*
X33467452Y-49092303D01*
X33383472Y-49069800D01*
X33296528Y-49069800D01*
X33212548Y-49092303D01*
X33137253Y-49135774D01*
X33075774Y-49197253D01*
X33032303Y-49272548D01*
X33009800Y-49356528D01*
X32854767Y-49356528D01*
X32839867Y-49224287D01*
X32839866Y-49224283D01*
X32781463Y-49057374D01*
X32687386Y-48907653D01*
X32562346Y-48782613D01*
X32412625Y-48688537D01*
X32412625Y-48688536D01*
X32245716Y-48630133D01*
X32245712Y-48630132D01*
X32070003Y-48610335D01*
X32069997Y-48610335D01*
X31894287Y-48630132D01*
X31894283Y-48630133D01*
X31727374Y-48688536D01*
X31727374Y-48688537D01*
X31577654Y-48782613D01*
X31522681Y-48837586D01*
X31461357Y-48871070D01*
X31391665Y-48866085D01*
X31347319Y-48837586D01*
X31292348Y-48782615D01*
X31142625Y-48688537D01*
X31142625Y-48688536D01*
X30975716Y-48630133D01*
X30975712Y-48630132D01*
X30800003Y-48610335D01*
X30799997Y-48610335D01*
X30624287Y-48630132D01*
X30624283Y-48630133D01*
X30457374Y-48688536D01*
X30457374Y-48688537D01*
X30307654Y-48782613D01*
X30252681Y-48837586D01*
X30191357Y-48871070D01*
X30121665Y-48866085D01*
X30077319Y-48837586D01*
X30022348Y-48782615D01*
X29872625Y-48688537D01*
X29872625Y-48688536D01*
X29705716Y-48630133D01*
X29705712Y-48630132D01*
X29530003Y-48610335D01*
X29529997Y-48610335D01*
X29354287Y-48630132D01*
X29354283Y-48630133D01*
X29187374Y-48688536D01*
X29187374Y-48688537D01*
X29037654Y-48782613D01*
X28982681Y-48837586D01*
X28921357Y-48871070D01*
X28851665Y-48866085D01*
X28807319Y-48837586D01*
X28752348Y-48782615D01*
X28602625Y-48688537D01*
X28602625Y-48688536D01*
X28435716Y-48630133D01*
X28435712Y-48630132D01*
X28260003Y-48610335D01*
X28259997Y-48610335D01*
X28084287Y-48630132D01*
X28084283Y-48630133D01*
X27917374Y-48688536D01*
X27917374Y-48688537D01*
X27767653Y-48782613D01*
X27642613Y-48907653D01*
X27548537Y-49057374D01*
X27548536Y-49057374D01*
X27490133Y-49224283D01*
X27490132Y-49224287D01*
X27470335Y-49399997D01*
X20750000Y-49399997D01*
X20750000Y-48364503D01*
X33011609Y-48364503D01*
X33340000Y-48692893D01*
X33340001Y-48692893D01*
X33668389Y-48364504D01*
X33668388Y-48364503D01*
X33637979Y-48352722D01*
X33440464Y-48315800D01*
X33239536Y-48315800D01*
X33042015Y-48352723D01*
X33011610Y-48364502D01*
X33011609Y-48364503D01*
X20750000Y-48364503D01*
X20750000Y-47824000D01*
X20769685Y-47756961D01*
X20822489Y-47711206D01*
X20874000Y-47700000D01*
X24491178Y-47700000D01*
X24531077Y-47708680D01*
G37*
%TD.AperFunction*%
%TD*%
M02*
