%TF.GenerationSoftware,KiCad,Pcbnew,8.0.1*%
%TF.CreationDate,2024-08-02T13:46:56-04:00*%
%TF.ProjectId,booster-ftdi-board,626f6f73-7465-4722-9d66-7464692d626f,rev?*%
%TF.SameCoordinates,Original*%
%TF.FileFunction,Copper,L2,Bot*%
%TF.FilePolarity,Positive*%
%FSLAX46Y46*%
G04 Gerber Fmt 4.6, Leading zero omitted, Abs format (unit mm)*
G04 Created by KiCad (PCBNEW 8.0.1) date 2024-08-02 13:46:56*
%MOMM*%
%LPD*%
G01*
G04 APERTURE LIST*
%TA.AperFunction,ComponentPad*%
%ADD10C,1.400000*%
%TD*%
%TA.AperFunction,ComponentPad*%
%ADD11R,1.700000X1.700000*%
%TD*%
%TA.AperFunction,ComponentPad*%
%ADD12C,1.700000*%
%TD*%
%TA.AperFunction,ComponentPad*%
%ADD13C,3.500000*%
%TD*%
%TA.AperFunction,ViaPad*%
%ADD14C,0.600000*%
%TD*%
%TA.AperFunction,Conductor*%
%ADD15C,0.200000*%
%TD*%
G04 APERTURE END LIST*
D10*
%TO.P,U3,1,GND*%
%TO.N,GND*%
X62000000Y-25690000D03*
%TO.P,U3,2,OUT*%
%TO.N,Net-(U3-OUT)*%
X62000000Y-27595000D03*
%TO.P,U3,3,VCC*%
%TO.N,VCC*%
X62000000Y-29500000D03*
%TD*%
%TO.P,U2,1,K*%
%TO.N,Net-(U2-K)*%
X62000000Y-36000000D03*
%TO.P,U2,2,A*%
%TO.N,VCC*%
X62000000Y-38540000D03*
%TD*%
D11*
%TO.P,J1,1,VBUS*%
%TO.N,Net-(J1-VBUS)*%
X39010000Y-33587500D03*
D12*
%TO.P,J1,2,D-*%
%TO.N,/USBI_N*%
X39010000Y-31087500D03*
%TO.P,J1,3,D+*%
%TO.N,/USBI_P*%
X37010000Y-31087500D03*
%TO.P,J1,4,GND*%
%TO.N,GND*%
X37010000Y-33587500D03*
D13*
%TO.P,J1,5,Shield*%
X34300000Y-38357500D03*
X34300000Y-26317500D03*
%TD*%
D14*
%TO.N,GND*%
X50250000Y-24250000D03*
X44500000Y-38250000D03*
X43000000Y-38250000D03*
X40750000Y-41000000D03*
X46125000Y-25725000D03*
X42000000Y-32500000D03*
X47750000Y-36500000D03*
X43000000Y-32500000D03*
X42000000Y-25750000D03*
X49250000Y-40250000D03*
X51682500Y-31432500D03*
X48875000Y-32375000D03*
%TO.N,VCC*%
X50750000Y-29592500D03*
X48945000Y-31397500D03*
%TD*%
D15*
%TO.N,VCC*%
X50750000Y-29592500D02*
X48945000Y-31397500D01*
%TD*%
%TA.AperFunction,Conductor*%
%TO.N,GND*%
G36*
X64756061Y-23001097D02*
G01*
X64766635Y-23002138D01*
X64884069Y-23013704D01*
X64907897Y-23018443D01*
X65025140Y-23054008D01*
X65047589Y-23063308D01*
X65155630Y-23121057D01*
X65175840Y-23134561D01*
X65270535Y-23212274D01*
X65287725Y-23229464D01*
X65365438Y-23324159D01*
X65378942Y-23344369D01*
X65436690Y-23452407D01*
X65445993Y-23474865D01*
X65481554Y-23592093D01*
X65486296Y-23615935D01*
X65498903Y-23743938D01*
X65499500Y-23756092D01*
X65499500Y-23916590D01*
X65479815Y-23983629D01*
X65427011Y-24029384D01*
X65357853Y-24039328D01*
X65304376Y-24018164D01*
X65186466Y-23935602D01*
X65186463Y-23935600D01*
X65186460Y-23935598D01*
X65145697Y-23916590D01*
X64982211Y-23840355D01*
X64982200Y-23840351D01*
X64764514Y-23782022D01*
X64764507Y-23782021D01*
X64540002Y-23762380D01*
X64539998Y-23762380D01*
X64315492Y-23782021D01*
X64315485Y-23782022D01*
X64097799Y-23840351D01*
X64097788Y-23840355D01*
X63893543Y-23935596D01*
X63893533Y-23935602D01*
X63708926Y-24064866D01*
X63549566Y-24224226D01*
X63420302Y-24408833D01*
X63420296Y-24408843D01*
X63325055Y-24613088D01*
X63325051Y-24613099D01*
X63266722Y-24830785D01*
X63266721Y-24830792D01*
X63247080Y-25055297D01*
X63247080Y-25055302D01*
X63266721Y-25279807D01*
X63266722Y-25279814D01*
X63325051Y-25497500D01*
X63325055Y-25497511D01*
X63420296Y-25701756D01*
X63420298Y-25701760D01*
X63549566Y-25886373D01*
X63708927Y-26045734D01*
X63893540Y-26175002D01*
X64016424Y-26232303D01*
X64097788Y-26270244D01*
X64097790Y-26270244D01*
X64097795Y-26270247D01*
X64315487Y-26328578D01*
X64475853Y-26342608D01*
X64539998Y-26348220D01*
X64540000Y-26348220D01*
X64540002Y-26348220D01*
X64596128Y-26343309D01*
X64764513Y-26328578D01*
X64982205Y-26270247D01*
X65186460Y-26175002D01*
X65304379Y-26092433D01*
X65370581Y-26070107D01*
X65438349Y-26087116D01*
X65486162Y-26138064D01*
X65499500Y-26194009D01*
X65499500Y-28996290D01*
X65479815Y-29063329D01*
X65427011Y-29109084D01*
X65357853Y-29119028D01*
X65304376Y-29097864D01*
X65186466Y-29015302D01*
X65186463Y-29015300D01*
X65186460Y-29015298D01*
X65145697Y-28996290D01*
X64982211Y-28920055D01*
X64982200Y-28920051D01*
X64764514Y-28861722D01*
X64764507Y-28861721D01*
X64540002Y-28842080D01*
X64539998Y-28842080D01*
X64315492Y-28861721D01*
X64315485Y-28861722D01*
X64097799Y-28920051D01*
X64097788Y-28920055D01*
X63893543Y-29015296D01*
X63893533Y-29015302D01*
X63708926Y-29144566D01*
X63549566Y-29303926D01*
X63423651Y-29483749D01*
X63369074Y-29527374D01*
X63299575Y-29534566D01*
X63237221Y-29503043D01*
X63201808Y-29442813D01*
X63198607Y-29424073D01*
X63185115Y-29278464D01*
X63124229Y-29064472D01*
X63123660Y-29063329D01*
X63025061Y-28865316D01*
X63025056Y-28865308D01*
X62890979Y-28687761D01*
X62837640Y-28639137D01*
X62801358Y-28579426D01*
X62803119Y-28509579D01*
X62837640Y-28455863D01*
X62890979Y-28407238D01*
X63025056Y-28229691D01*
X63025058Y-28229689D01*
X63124229Y-28030528D01*
X63185115Y-27816536D01*
X63205643Y-27595000D01*
X63185115Y-27373464D01*
X63124229Y-27159472D01*
X63059938Y-27030359D01*
X63025061Y-26960316D01*
X63025056Y-26960308D01*
X62890979Y-26782761D01*
X62726562Y-26632876D01*
X62726560Y-26632874D01*
X62537404Y-26515754D01*
X62537398Y-26515752D01*
X62329940Y-26435382D01*
X62111243Y-26394500D01*
X61888757Y-26394500D01*
X61670060Y-26435382D01*
X61538864Y-26486207D01*
X61462601Y-26515752D01*
X61462595Y-26515754D01*
X61273439Y-26632874D01*
X61273437Y-26632876D01*
X61109020Y-26782761D01*
X60974943Y-26960308D01*
X60974938Y-26960316D01*
X60875775Y-27159461D01*
X60875769Y-27159476D01*
X60814885Y-27373462D01*
X60814884Y-27373464D01*
X60794357Y-27594999D01*
X60794357Y-27595000D01*
X60814884Y-27816535D01*
X60814885Y-27816537D01*
X60875769Y-28030523D01*
X60875775Y-28030538D01*
X60974938Y-28229683D01*
X60974943Y-28229691D01*
X61109020Y-28407237D01*
X61162360Y-28455863D01*
X61198641Y-28515575D01*
X61196880Y-28585422D01*
X61162360Y-28639137D01*
X61109020Y-28687762D01*
X60974943Y-28865308D01*
X60974938Y-28865316D01*
X60875775Y-29064461D01*
X60875769Y-29064476D01*
X60814885Y-29278462D01*
X60814884Y-29278464D01*
X60794357Y-29499999D01*
X60794357Y-29500000D01*
X60814884Y-29721535D01*
X60814885Y-29721537D01*
X60875769Y-29935523D01*
X60875775Y-29935538D01*
X60974938Y-30134683D01*
X60974943Y-30134691D01*
X61109020Y-30312238D01*
X61273437Y-30462123D01*
X61273439Y-30462125D01*
X61462595Y-30579245D01*
X61462596Y-30579245D01*
X61462599Y-30579247D01*
X61670060Y-30659618D01*
X61888757Y-30700500D01*
X61888759Y-30700500D01*
X62111241Y-30700500D01*
X62111243Y-30700500D01*
X62329940Y-30659618D01*
X62537401Y-30579247D01*
X62726562Y-30462124D01*
X62890981Y-30312236D01*
X63024823Y-30135000D01*
X63028513Y-30130114D01*
X63030255Y-30131429D01*
X63075102Y-30091188D01*
X63144077Y-30080047D01*
X63208127Y-30107965D01*
X63246915Y-30166080D01*
X63252089Y-30192264D01*
X63266721Y-30359508D01*
X63266722Y-30359514D01*
X63325051Y-30577200D01*
X63325055Y-30577211D01*
X63420296Y-30781456D01*
X63420302Y-30781466D01*
X63549566Y-30966073D01*
X63708927Y-31125434D01*
X63893540Y-31254702D01*
X64016424Y-31312003D01*
X64097788Y-31349944D01*
X64097790Y-31349944D01*
X64097795Y-31349947D01*
X64315487Y-31408278D01*
X64475853Y-31422308D01*
X64539998Y-31427920D01*
X64540000Y-31427920D01*
X64540002Y-31427920D01*
X64596128Y-31423009D01*
X64764513Y-31408278D01*
X64982205Y-31349947D01*
X65186460Y-31254702D01*
X65304379Y-31172133D01*
X65370581Y-31149807D01*
X65438349Y-31166816D01*
X65486162Y-31217764D01*
X65499500Y-31273709D01*
X65499500Y-33606590D01*
X65479815Y-33673629D01*
X65427011Y-33719384D01*
X65357853Y-33729328D01*
X65304376Y-33708164D01*
X65186466Y-33625602D01*
X65186463Y-33625600D01*
X65186460Y-33625598D01*
X65145697Y-33606590D01*
X64982211Y-33530355D01*
X64982200Y-33530351D01*
X64764514Y-33472022D01*
X64764507Y-33472021D01*
X64540002Y-33452380D01*
X64539998Y-33452380D01*
X64315492Y-33472021D01*
X64315485Y-33472022D01*
X64097799Y-33530351D01*
X64097788Y-33530355D01*
X63893543Y-33625596D01*
X63893533Y-33625602D01*
X63708926Y-33754866D01*
X63549566Y-33914226D01*
X63420302Y-34098833D01*
X63420296Y-34098843D01*
X63325055Y-34303088D01*
X63325051Y-34303099D01*
X63266722Y-34520785D01*
X63266721Y-34520792D01*
X63247080Y-34745297D01*
X63247080Y-34745302D01*
X63266721Y-34969807D01*
X63266722Y-34969814D01*
X63325051Y-35187500D01*
X63325055Y-35187511D01*
X63407967Y-35365316D01*
X63420298Y-35391760D01*
X63549566Y-35576373D01*
X63708927Y-35735734D01*
X63893540Y-35865002D01*
X64016424Y-35922303D01*
X64097788Y-35960244D01*
X64097790Y-35960244D01*
X64097795Y-35960247D01*
X64315487Y-36018578D01*
X64475853Y-36032608D01*
X64539998Y-36038220D01*
X64540000Y-36038220D01*
X64540002Y-36038220D01*
X64596128Y-36033309D01*
X64764513Y-36018578D01*
X64982205Y-35960247D01*
X65186460Y-35865002D01*
X65304379Y-35782433D01*
X65370581Y-35760107D01*
X65438349Y-35777116D01*
X65486162Y-35828064D01*
X65499500Y-35884009D01*
X65499500Y-38686290D01*
X65479815Y-38753329D01*
X65427011Y-38799084D01*
X65357853Y-38809028D01*
X65304376Y-38787864D01*
X65186466Y-38705302D01*
X65186463Y-38705300D01*
X65186460Y-38705298D01*
X65145697Y-38686290D01*
X64982211Y-38610055D01*
X64982200Y-38610051D01*
X64764514Y-38551722D01*
X64764507Y-38551721D01*
X64540002Y-38532080D01*
X64539998Y-38532080D01*
X64315492Y-38551721D01*
X64315485Y-38551722D01*
X64097799Y-38610051D01*
X64097788Y-38610055D01*
X63893543Y-38705296D01*
X63893533Y-38705302D01*
X63708926Y-38834566D01*
X63549566Y-38993926D01*
X63420302Y-39178533D01*
X63420296Y-39178543D01*
X63325055Y-39382788D01*
X63325051Y-39382799D01*
X63266722Y-39600485D01*
X63266721Y-39600492D01*
X63247080Y-39824997D01*
X63247080Y-39825002D01*
X63266721Y-40049507D01*
X63266722Y-40049514D01*
X63325051Y-40267200D01*
X63325055Y-40267211D01*
X63420296Y-40471456D01*
X63420298Y-40471460D01*
X63549566Y-40656073D01*
X63708927Y-40815434D01*
X63893540Y-40944702D01*
X63999061Y-40993907D01*
X64097788Y-41039944D01*
X64097790Y-41039944D01*
X64097795Y-41039947D01*
X64315487Y-41098278D01*
X64475853Y-41112308D01*
X64539998Y-41117920D01*
X64540000Y-41117920D01*
X64540002Y-41117920D01*
X64596128Y-41113009D01*
X64764513Y-41098278D01*
X64982205Y-41039947D01*
X65186460Y-40944702D01*
X65304379Y-40862133D01*
X65370581Y-40839807D01*
X65438349Y-40856816D01*
X65486162Y-40907764D01*
X65499500Y-40963709D01*
X65499500Y-40993907D01*
X65498903Y-41006061D01*
X65486296Y-41134064D01*
X65481554Y-41157906D01*
X65445993Y-41275134D01*
X65436690Y-41297592D01*
X65378942Y-41405630D01*
X65365438Y-41425840D01*
X65287725Y-41520535D01*
X65270535Y-41537725D01*
X65175840Y-41615438D01*
X65155630Y-41628942D01*
X65047592Y-41686690D01*
X65025134Y-41695993D01*
X64907906Y-41731554D01*
X64884064Y-41736296D01*
X64756062Y-41748903D01*
X64743908Y-41749500D01*
X25006092Y-41749500D01*
X24993938Y-41748903D01*
X24865935Y-41736296D01*
X24842095Y-41731554D01*
X24724864Y-41695992D01*
X24702407Y-41686690D01*
X24594369Y-41628942D01*
X24574159Y-41615438D01*
X24479464Y-41537725D01*
X24462274Y-41520535D01*
X24384561Y-41425840D01*
X24371057Y-41405630D01*
X24313308Y-41297589D01*
X24304008Y-41275140D01*
X24268443Y-41157897D01*
X24263704Y-41134069D01*
X24251097Y-41006060D01*
X24250500Y-40993907D01*
X24250500Y-37285000D01*
X54827121Y-37285000D01*
X54846613Y-37569980D01*
X54846614Y-37569981D01*
X54904727Y-37849640D01*
X54904732Y-37849657D01*
X55000387Y-38118803D01*
X55129180Y-38367363D01*
X55131804Y-38372426D01*
X55224459Y-38503690D01*
X55296531Y-38605793D01*
X55491491Y-38814543D01*
X55491494Y-38814546D01*
X55491499Y-38814551D01*
X55713078Y-38994819D01*
X55713080Y-38994820D01*
X55713081Y-38994821D01*
X55957141Y-39143237D01*
X56038424Y-39178543D01*
X56219137Y-39257038D01*
X56494191Y-39334105D01*
X56742981Y-39368299D01*
X56777176Y-39373000D01*
X56777177Y-39373000D01*
X57062824Y-39373000D01*
X57093332Y-39368806D01*
X57345809Y-39334105D01*
X57620863Y-39257038D01*
X57882860Y-39143236D01*
X58126922Y-38994819D01*
X58348501Y-38814551D01*
X58543470Y-38605791D01*
X58589910Y-38540000D01*
X60794357Y-38540000D01*
X60814884Y-38761535D01*
X60814885Y-38761537D01*
X60875769Y-38975523D01*
X60875775Y-38975538D01*
X60974938Y-39174683D01*
X60974943Y-39174691D01*
X61109020Y-39352238D01*
X61273437Y-39502123D01*
X61273439Y-39502125D01*
X61462595Y-39619245D01*
X61462596Y-39619245D01*
X61462599Y-39619247D01*
X61670060Y-39699618D01*
X61888757Y-39740500D01*
X61888759Y-39740500D01*
X62111241Y-39740500D01*
X62111243Y-39740500D01*
X62329940Y-39699618D01*
X62537401Y-39619247D01*
X62726562Y-39502124D01*
X62890981Y-39352236D01*
X63025058Y-39174689D01*
X63124229Y-38975528D01*
X63185115Y-38761536D01*
X63205643Y-38540000D01*
X63185115Y-38318464D01*
X63124229Y-38104472D01*
X63080826Y-38017307D01*
X63025061Y-37905316D01*
X63025056Y-37905308D01*
X62890979Y-37727761D01*
X62726562Y-37577876D01*
X62726560Y-37577874D01*
X62537404Y-37460754D01*
X62537395Y-37460750D01*
X62443956Y-37424552D01*
X62343475Y-37385625D01*
X62288075Y-37343054D01*
X62264484Y-37277288D01*
X62280195Y-37209207D01*
X62330219Y-37160428D01*
X62343466Y-37154377D01*
X62537401Y-37079247D01*
X62726562Y-36962124D01*
X62890981Y-36812236D01*
X63025058Y-36634689D01*
X63124229Y-36435528D01*
X63185115Y-36221536D01*
X63205643Y-36000000D01*
X63201959Y-35960248D01*
X63185115Y-35778464D01*
X63185114Y-35778462D01*
X63178568Y-35755456D01*
X63124229Y-35564472D01*
X63124224Y-35564461D01*
X63025061Y-35365316D01*
X63025056Y-35365308D01*
X62890979Y-35187761D01*
X62726562Y-35037876D01*
X62726560Y-35037874D01*
X62537404Y-34920754D01*
X62537398Y-34920752D01*
X62329940Y-34840382D01*
X62111243Y-34799500D01*
X61888757Y-34799500D01*
X61670060Y-34840382D01*
X61538864Y-34891207D01*
X61462601Y-34920752D01*
X61462595Y-34920754D01*
X61273439Y-35037874D01*
X61273437Y-35037876D01*
X61109020Y-35187761D01*
X60974943Y-35365308D01*
X60974938Y-35365316D01*
X60875775Y-35564461D01*
X60875769Y-35564476D01*
X60814885Y-35778462D01*
X60814884Y-35778464D01*
X60794357Y-35999999D01*
X60794357Y-36000000D01*
X60814884Y-36221535D01*
X60814885Y-36221537D01*
X60875769Y-36435523D01*
X60875775Y-36435538D01*
X60974938Y-36634683D01*
X60974943Y-36634691D01*
X61109020Y-36812238D01*
X61273437Y-36962123D01*
X61273439Y-36962125D01*
X61462595Y-37079245D01*
X61462596Y-37079245D01*
X61462599Y-37079247D01*
X61656524Y-37154374D01*
X61711924Y-37196946D01*
X61735515Y-37262713D01*
X61719804Y-37330793D01*
X61669780Y-37379572D01*
X61656533Y-37385622D01*
X61508488Y-37442975D01*
X61462601Y-37460752D01*
X61462595Y-37460754D01*
X61273439Y-37577874D01*
X61273437Y-37577876D01*
X61109020Y-37727761D01*
X60974943Y-37905308D01*
X60974938Y-37905316D01*
X60875775Y-38104461D01*
X60875769Y-38104476D01*
X60814885Y-38318462D01*
X60814884Y-38318464D01*
X60794357Y-38539999D01*
X60794357Y-38540000D01*
X58589910Y-38540000D01*
X58708196Y-38372426D01*
X58839612Y-38118805D01*
X58935269Y-37849652D01*
X58935270Y-37849645D01*
X58935272Y-37849640D01*
X58960598Y-37727761D01*
X58993386Y-37569980D01*
X59012879Y-37285000D01*
X58993386Y-37000020D01*
X58954364Y-36812236D01*
X58935272Y-36720359D01*
X58935267Y-36720342D01*
X58839612Y-36451196D01*
X58839612Y-36451195D01*
X58708196Y-36197574D01*
X58543470Y-35964209D01*
X58543468Y-35964206D01*
X58348508Y-35755456D01*
X58348504Y-35755452D01*
X58348501Y-35755449D01*
X58126922Y-35575181D01*
X58126920Y-35575180D01*
X58126918Y-35575178D01*
X57882858Y-35426762D01*
X57620866Y-35312963D01*
X57620864Y-35312962D01*
X57620863Y-35312962D01*
X57542610Y-35291036D01*
X57345814Y-35235896D01*
X57345810Y-35235895D01*
X57345809Y-35235895D01*
X57204316Y-35216447D01*
X57062824Y-35197000D01*
X57062823Y-35197000D01*
X56777177Y-35197000D01*
X56777176Y-35197000D01*
X56494191Y-35235895D01*
X56494185Y-35235896D01*
X56219133Y-35312963D01*
X55957141Y-35426762D01*
X55713081Y-35575178D01*
X55491505Y-35755443D01*
X55491491Y-35755456D01*
X55296531Y-35964206D01*
X55131801Y-36197578D01*
X55000387Y-36451196D01*
X54904732Y-36720342D01*
X54904727Y-36720359D01*
X54846614Y-37000018D01*
X54846613Y-37000019D01*
X54827121Y-37285000D01*
X24250500Y-37285000D01*
X24250500Y-31087500D01*
X35654341Y-31087500D01*
X35674936Y-31322903D01*
X35674938Y-31322913D01*
X35736094Y-31551155D01*
X35736096Y-31551159D01*
X35736097Y-31551163D01*
X35748031Y-31576755D01*
X35835965Y-31765330D01*
X35835967Y-31765334D01*
X35930095Y-31899762D01*
X35971505Y-31958901D01*
X36138599Y-32125995D01*
X36235384Y-32193765D01*
X36332165Y-32261532D01*
X36332167Y-32261533D01*
X36332170Y-32261535D01*
X36546337Y-32361403D01*
X36774592Y-32422563D01*
X36962918Y-32439039D01*
X37009999Y-32443159D01*
X37010000Y-32443159D01*
X37010001Y-32443159D01*
X37049234Y-32439726D01*
X37245408Y-32422563D01*
X37473663Y-32361403D01*
X37554874Y-32323533D01*
X37623948Y-32313042D01*
X37687732Y-32341561D01*
X37725972Y-32400037D01*
X37726527Y-32469905D01*
X37716447Y-32494514D01*
X37665908Y-32630017D01*
X37659501Y-32689616D01*
X37659501Y-32689623D01*
X37659500Y-32689635D01*
X37659500Y-34485370D01*
X37659501Y-34485376D01*
X37665908Y-34544983D01*
X37716202Y-34679828D01*
X37716206Y-34679835D01*
X37802452Y-34795044D01*
X37802455Y-34795047D01*
X37917664Y-34881293D01*
X37917671Y-34881297D01*
X38052517Y-34931591D01*
X38052516Y-34931591D01*
X38059444Y-34932335D01*
X38112127Y-34938000D01*
X39907872Y-34937999D01*
X39967483Y-34931591D01*
X40102331Y-34881296D01*
X40217546Y-34795046D01*
X40303796Y-34679831D01*
X40354091Y-34544983D01*
X40360500Y-34485373D01*
X40360499Y-32689628D01*
X40354091Y-32630017D01*
X40303796Y-32495169D01*
X40303795Y-32495168D01*
X40303793Y-32495164D01*
X40217547Y-32379955D01*
X40217544Y-32379952D01*
X40102335Y-32293706D01*
X40102328Y-32293702D01*
X40000051Y-32255556D01*
X39944117Y-32213685D01*
X39919700Y-32148221D01*
X39934551Y-32079948D01*
X39955703Y-32051693D01*
X39980081Y-32027315D01*
X40048495Y-31958901D01*
X40184035Y-31765330D01*
X40283903Y-31551163D01*
X40325076Y-31397503D01*
X48139435Y-31397503D01*
X48159630Y-31576749D01*
X48159631Y-31576754D01*
X48219211Y-31747023D01*
X48230717Y-31765334D01*
X48315184Y-31899762D01*
X48442738Y-32027316D01*
X48595478Y-32123289D01*
X48666730Y-32148221D01*
X48765745Y-32182868D01*
X48765750Y-32182869D01*
X48944996Y-32203065D01*
X48945000Y-32203065D01*
X48945004Y-32203065D01*
X49124249Y-32182869D01*
X49124252Y-32182868D01*
X49124255Y-32182868D01*
X49294522Y-32123289D01*
X49447262Y-32027316D01*
X49574816Y-31899762D01*
X49670789Y-31747022D01*
X49730368Y-31576755D01*
X49740161Y-31489829D01*
X49767226Y-31425418D01*
X49775690Y-31416043D01*
X50768535Y-30423198D01*
X50829856Y-30389715D01*
X50842311Y-30387663D01*
X50929255Y-30377868D01*
X51099522Y-30318289D01*
X51252262Y-30222316D01*
X51379816Y-30094762D01*
X51475789Y-29942022D01*
X51535368Y-29771755D01*
X51535369Y-29771749D01*
X51555565Y-29592503D01*
X51555565Y-29592496D01*
X51535369Y-29413250D01*
X51535368Y-29413245D01*
X51497116Y-29303927D01*
X51475789Y-29242978D01*
X51379816Y-29090238D01*
X51252262Y-28962684D01*
X51099523Y-28866711D01*
X50929254Y-28807131D01*
X50929249Y-28807130D01*
X50750004Y-28786935D01*
X50749996Y-28786935D01*
X50570750Y-28807130D01*
X50570745Y-28807131D01*
X50400476Y-28866711D01*
X50247737Y-28962684D01*
X50120184Y-29090237D01*
X50024210Y-29242978D01*
X49964630Y-29413250D01*
X49954837Y-29500168D01*
X49927770Y-29564582D01*
X49919298Y-29573965D01*
X48926465Y-30566798D01*
X48865142Y-30600283D01*
X48852668Y-30602337D01*
X48765750Y-30612130D01*
X48595478Y-30671710D01*
X48442737Y-30767684D01*
X48315184Y-30895237D01*
X48219211Y-31047976D01*
X48159631Y-31218245D01*
X48159630Y-31218250D01*
X48139435Y-31397496D01*
X48139435Y-31397503D01*
X40325076Y-31397503D01*
X40345063Y-31322908D01*
X40365659Y-31087500D01*
X40345063Y-30852092D01*
X40283903Y-30623837D01*
X40184035Y-30409671D01*
X40165745Y-30383549D01*
X40048494Y-30216097D01*
X39881402Y-30049006D01*
X39881395Y-30049001D01*
X39864027Y-30036840D01*
X39842521Y-30021781D01*
X39687834Y-29913467D01*
X39687830Y-29913465D01*
X39556790Y-29852360D01*
X39473663Y-29813597D01*
X39473659Y-29813596D01*
X39473655Y-29813594D01*
X39245413Y-29752438D01*
X39245403Y-29752436D01*
X39010001Y-29731841D01*
X39009999Y-29731841D01*
X38774596Y-29752436D01*
X38774586Y-29752438D01*
X38546344Y-29813594D01*
X38546335Y-29813598D01*
X38332171Y-29913464D01*
X38332169Y-29913465D01*
X38138596Y-30049006D01*
X38097679Y-30089923D01*
X38036356Y-30123408D01*
X37966664Y-30118422D01*
X37922318Y-30089922D01*
X37881402Y-30049006D01*
X37881395Y-30049001D01*
X37864027Y-30036840D01*
X37842521Y-30021781D01*
X37687834Y-29913467D01*
X37687830Y-29913465D01*
X37556790Y-29852360D01*
X37473663Y-29813597D01*
X37473659Y-29813596D01*
X37473655Y-29813594D01*
X37245413Y-29752438D01*
X37245403Y-29752436D01*
X37010001Y-29731841D01*
X37009999Y-29731841D01*
X36774596Y-29752436D01*
X36774586Y-29752438D01*
X36546344Y-29813594D01*
X36546335Y-29813598D01*
X36332171Y-29913464D01*
X36332169Y-29913465D01*
X36138597Y-30049005D01*
X35971505Y-30216097D01*
X35835965Y-30409669D01*
X35835964Y-30409671D01*
X35736098Y-30623835D01*
X35736094Y-30623844D01*
X35674938Y-30852086D01*
X35674936Y-30852096D01*
X35654341Y-31087499D01*
X35654341Y-31087500D01*
X24250500Y-31087500D01*
X24250500Y-27595000D01*
X54827121Y-27595000D01*
X54846613Y-27879980D01*
X54846614Y-27879981D01*
X54904727Y-28159640D01*
X54904732Y-28159657D01*
X55000387Y-28428803D01*
X55129180Y-28677363D01*
X55131804Y-28682426D01*
X55135570Y-28687761D01*
X55296531Y-28915793D01*
X55491491Y-29124543D01*
X55491494Y-29124546D01*
X55491499Y-29124551D01*
X55713078Y-29304819D01*
X55713080Y-29304820D01*
X55713081Y-29304821D01*
X55957141Y-29453237D01*
X56127822Y-29527374D01*
X56219137Y-29567038D01*
X56494191Y-29644105D01*
X56742981Y-29678299D01*
X56777176Y-29683000D01*
X56777177Y-29683000D01*
X57062824Y-29683000D01*
X57093332Y-29678806D01*
X57345809Y-29644105D01*
X57620863Y-29567038D01*
X57882860Y-29453236D01*
X58126922Y-29304819D01*
X58348501Y-29124551D01*
X58543470Y-28915791D01*
X58708196Y-28682426D01*
X58839612Y-28428805D01*
X58935269Y-28159652D01*
X58935270Y-28159645D01*
X58935272Y-28159640D01*
X58962099Y-28030538D01*
X58993386Y-27879980D01*
X59012879Y-27595000D01*
X58993386Y-27310020D01*
X58962099Y-27159461D01*
X58935272Y-27030359D01*
X58935267Y-27030342D01*
X58875684Y-26862693D01*
X58839612Y-26761195D01*
X58708196Y-26507574D01*
X58543470Y-26274209D01*
X58543468Y-26274206D01*
X58348508Y-26065456D01*
X58348504Y-26065452D01*
X58348501Y-26065449D01*
X58126922Y-25885181D01*
X58126920Y-25885180D01*
X58126918Y-25885178D01*
X57882858Y-25736762D01*
X57620866Y-25622963D01*
X57620864Y-25622962D01*
X57620863Y-25622962D01*
X57542610Y-25601036D01*
X57345814Y-25545896D01*
X57345810Y-25545895D01*
X57345809Y-25545895D01*
X57204316Y-25526447D01*
X57062824Y-25507000D01*
X57062823Y-25507000D01*
X56777177Y-25507000D01*
X56777176Y-25507000D01*
X56494191Y-25545895D01*
X56494185Y-25545896D01*
X56219133Y-25622963D01*
X55957141Y-25736762D01*
X55713081Y-25885178D01*
X55491505Y-26065443D01*
X55491491Y-26065456D01*
X55296531Y-26274206D01*
X55131801Y-26507578D01*
X55000387Y-26761196D01*
X54904732Y-27030342D01*
X54904727Y-27030359D01*
X54846614Y-27310018D01*
X54846613Y-27310019D01*
X54827121Y-27595000D01*
X24250500Y-27595000D01*
X24250500Y-23756092D01*
X24251097Y-23743939D01*
X24252015Y-23734614D01*
X24263704Y-23615928D01*
X24268442Y-23592104D01*
X24304010Y-23474855D01*
X24313306Y-23452413D01*
X24371061Y-23344363D01*
X24384556Y-23324165D01*
X24462279Y-23229458D01*
X24479458Y-23212279D01*
X24574165Y-23134556D01*
X24594363Y-23121061D01*
X24702413Y-23063306D01*
X24724855Y-23054010D01*
X24842104Y-23018442D01*
X24865928Y-23013704D01*
X24984614Y-23002015D01*
X24993939Y-23001097D01*
X25006092Y-23000500D01*
X25065892Y-23000500D01*
X64684108Y-23000500D01*
X64743908Y-23000500D01*
X64756061Y-23001097D01*
G37*
%TD.AperFunction*%
%TD*%
M02*
