%TF.GenerationSoftware,KiCad,Pcbnew,8.0.4*%
%TF.CreationDate,2024-09-12T14:18:40-04:00*%
%TF.ProjectId,booster-ftdi-board,626f6f73-7465-4722-9d66-7464692d626f,rev?*%
%TF.SameCoordinates,Original*%
%TF.FileFunction,Copper,L2,Bot*%
%TF.FilePolarity,Positive*%
%FSLAX46Y46*%
G04 Gerber Fmt 4.6, Leading zero omitted, Abs format (unit mm)*
G04 Created by KiCad (PCBNEW 8.0.4) date 2024-09-12 14:18:40*
%MOMM*%
%LPD*%
G01*
G04 APERTURE LIST*
%TA.AperFunction,ComponentPad*%
%ADD10C,1.400000*%
%TD*%
%TA.AperFunction,ComponentPad*%
%ADD11C,1.800000*%
%TD*%
%TA.AperFunction,ComponentPad*%
%ADD12O,3.500000X2.000000*%
%TD*%
%TA.AperFunction,ComponentPad*%
%ADD13C,2.200000*%
%TD*%
%TA.AperFunction,ViaPad*%
%ADD14C,0.600000*%
%TD*%
G04 APERTURE END LIST*
D10*
%TO.P,U8,1,GND*%
%TO.N,GND*%
X84582500Y-35405000D03*
%TO.P,U8,2,OUT*%
%TO.N,Net-(U6-RXD)*%
X84582500Y-33500000D03*
%TO.P,U8,3,VCC*%
%TO.N,VCC*%
X84582500Y-31595000D03*
%TD*%
D11*
%TO.P,J2,1,VBUS*%
%TO.N,VCC*%
X62100000Y-41700000D03*
%TO.P,J2,2,D-*%
%TO.N,/USB_-*%
X62100000Y-39200000D03*
%TO.P,J2,3,D+*%
%TO.N,/USB_+*%
X62100000Y-37200000D03*
%TO.P,J2,4,GND*%
%TO.N,GND*%
X62100000Y-34700000D03*
D12*
%TO.P,J2,SH*%
%TO.N,N/C*%
X60000000Y-32350000D03*
D13*
X60000000Y-35900000D03*
X60000000Y-40500000D03*
D12*
X60000000Y-44050000D03*
%TD*%
D10*
%TO.P,U7,1,K*%
%TO.N,Net-(U7-K)*%
X84582500Y-44270000D03*
%TO.P,U7,2,A*%
%TO.N,VCC*%
X84582500Y-41730000D03*
%TD*%
D14*
%TO.N,GND*%
X65000000Y-31000000D03*
X67500000Y-39500000D03*
X67500000Y-37500000D03*
X73000000Y-31000000D03*
X69000000Y-31000000D03*
X71500000Y-39500000D03*
X67500000Y-41500000D03*
%TD*%
%TA.AperFunction,Conductor*%
%TO.N,GND*%
G36*
X87506922Y-29001280D02*
G01*
X87597266Y-29011459D01*
X87624331Y-29017636D01*
X87703540Y-29045352D01*
X87728553Y-29057398D01*
X87799606Y-29102043D01*
X87821313Y-29119355D01*
X87880644Y-29178686D01*
X87897957Y-29200395D01*
X87942600Y-29271444D01*
X87954648Y-29296462D01*
X87982362Y-29375666D01*
X87988540Y-29402735D01*
X87998720Y-29493076D01*
X87999500Y-29506961D01*
X87999500Y-29763822D01*
X87979815Y-29830861D01*
X87927011Y-29876616D01*
X87857853Y-29886560D01*
X87804376Y-29865397D01*
X87768960Y-29840598D01*
X87748079Y-29830861D01*
X87564711Y-29745355D01*
X87564700Y-29745351D01*
X87347014Y-29687022D01*
X87347007Y-29687021D01*
X87122502Y-29667380D01*
X87122498Y-29667380D01*
X86897992Y-29687021D01*
X86897985Y-29687022D01*
X86680299Y-29745351D01*
X86680288Y-29745355D01*
X86476043Y-29840596D01*
X86476033Y-29840602D01*
X86291426Y-29969866D01*
X86132066Y-30129226D01*
X86002802Y-30313833D01*
X86002796Y-30313843D01*
X85907555Y-30518088D01*
X85907551Y-30518099D01*
X85849222Y-30735785D01*
X85849221Y-30735791D01*
X85834612Y-30902772D01*
X85809159Y-30967841D01*
X85752568Y-31008819D01*
X85682806Y-31012697D01*
X85622022Y-30978243D01*
X85611392Y-30964599D01*
X85611013Y-30964886D01*
X85473479Y-30782761D01*
X85309062Y-30632876D01*
X85309060Y-30632874D01*
X85119904Y-30515754D01*
X85119898Y-30515752D01*
X84912440Y-30435382D01*
X84693743Y-30394500D01*
X84471257Y-30394500D01*
X84252560Y-30435382D01*
X84121364Y-30486207D01*
X84045101Y-30515752D01*
X84045095Y-30515754D01*
X83855939Y-30632874D01*
X83855937Y-30632876D01*
X83691520Y-30782761D01*
X83557443Y-30960308D01*
X83557438Y-30960316D01*
X83458275Y-31159461D01*
X83458269Y-31159476D01*
X83397385Y-31373462D01*
X83397384Y-31373464D01*
X83376857Y-31594999D01*
X83376857Y-31595000D01*
X83397384Y-31816535D01*
X83397385Y-31816537D01*
X83458269Y-32030523D01*
X83458275Y-32030538D01*
X83557438Y-32229683D01*
X83557443Y-32229691D01*
X83691520Y-32407237D01*
X83744860Y-32455863D01*
X83781141Y-32515575D01*
X83779380Y-32585422D01*
X83744860Y-32639137D01*
X83691520Y-32687762D01*
X83557443Y-32865308D01*
X83557438Y-32865316D01*
X83458275Y-33064461D01*
X83458269Y-33064476D01*
X83397385Y-33278462D01*
X83397384Y-33278464D01*
X83376857Y-33499999D01*
X83376857Y-33500000D01*
X83397384Y-33721535D01*
X83397385Y-33721537D01*
X83458269Y-33935523D01*
X83458275Y-33935538D01*
X83557438Y-34134683D01*
X83557443Y-34134691D01*
X83606762Y-34200000D01*
X83639888Y-34243866D01*
X83691521Y-34312238D01*
X83691526Y-34312243D01*
X83745230Y-34361202D01*
X83781511Y-34420914D01*
X83779750Y-34490761D01*
X83745231Y-34544474D01*
X83691889Y-34593102D01*
X83557868Y-34770574D01*
X83458739Y-34969650D01*
X83406005Y-35155000D01*
X84266814Y-35155000D01*
X84262420Y-35159394D01*
X84209759Y-35250606D01*
X84182500Y-35352339D01*
X84182500Y-35457661D01*
X84209759Y-35559394D01*
X84262420Y-35650606D01*
X84266814Y-35655000D01*
X83406005Y-35655000D01*
X83458739Y-35840349D01*
X83557868Y-36039425D01*
X83691891Y-36216900D01*
X83856238Y-36366721D01*
X84045320Y-36483797D01*
X84045322Y-36483798D01*
X84252695Y-36564135D01*
X84332500Y-36579052D01*
X84332500Y-35720686D01*
X84336894Y-35725080D01*
X84428106Y-35777741D01*
X84529839Y-35805000D01*
X84635161Y-35805000D01*
X84736894Y-35777741D01*
X84828106Y-35725080D01*
X84832500Y-35720686D01*
X84832500Y-36579052D01*
X84912304Y-36564135D01*
X85119677Y-36483798D01*
X85119679Y-36483797D01*
X85308761Y-36366721D01*
X85473108Y-36216900D01*
X85610587Y-36034850D01*
X85612172Y-36036047D01*
X85657546Y-35995345D01*
X85726523Y-35984215D01*
X85790568Y-36012143D01*
X85829347Y-36070264D01*
X85834516Y-36096430D01*
X85849221Y-36264508D01*
X85849222Y-36264514D01*
X85907551Y-36482200D01*
X85907555Y-36482211D01*
X85945757Y-36564135D01*
X86002798Y-36686460D01*
X86132066Y-36871073D01*
X86291427Y-37030434D01*
X86476040Y-37159702D01*
X86559964Y-37198836D01*
X86680288Y-37254944D01*
X86680290Y-37254944D01*
X86680295Y-37254947D01*
X86897987Y-37313278D01*
X87058353Y-37327308D01*
X87122498Y-37332920D01*
X87122500Y-37332920D01*
X87122502Y-37332920D01*
X87178628Y-37328009D01*
X87347013Y-37313278D01*
X87564705Y-37254947D01*
X87768960Y-37159702D01*
X87804377Y-37134902D01*
X87870580Y-37112575D01*
X87938348Y-37129584D01*
X87986162Y-37180531D01*
X87999500Y-37236477D01*
X87999500Y-39278822D01*
X87979815Y-39345861D01*
X87927011Y-39391616D01*
X87857853Y-39401560D01*
X87804376Y-39380397D01*
X87782067Y-39364776D01*
X87768960Y-39355598D01*
X87748079Y-39345861D01*
X87564711Y-39260355D01*
X87564700Y-39260351D01*
X87347014Y-39202022D01*
X87347007Y-39202021D01*
X87122502Y-39182380D01*
X87122498Y-39182380D01*
X86897992Y-39202021D01*
X86897985Y-39202022D01*
X86680299Y-39260351D01*
X86680288Y-39260355D01*
X86476043Y-39355596D01*
X86476033Y-39355602D01*
X86291426Y-39484866D01*
X86132066Y-39644226D01*
X86002802Y-39828833D01*
X86002796Y-39828843D01*
X85907555Y-40033088D01*
X85907551Y-40033099D01*
X85849222Y-40250785D01*
X85849221Y-40250792D01*
X85829580Y-40475297D01*
X85829580Y-40475302D01*
X85849221Y-40699807D01*
X85849222Y-40699814D01*
X85907551Y-40917500D01*
X85907555Y-40917511D01*
X85990467Y-41095316D01*
X86002798Y-41121760D01*
X86132066Y-41306373D01*
X86291427Y-41465734D01*
X86476040Y-41595002D01*
X86562295Y-41635223D01*
X86680288Y-41690244D01*
X86680290Y-41690244D01*
X86680295Y-41690247D01*
X86897987Y-41748578D01*
X87058353Y-41762608D01*
X87122498Y-41768220D01*
X87122500Y-41768220D01*
X87122502Y-41768220D01*
X87178628Y-41763309D01*
X87347013Y-41748578D01*
X87564705Y-41690247D01*
X87768960Y-41595002D01*
X87804377Y-41570202D01*
X87870580Y-41547875D01*
X87938348Y-41564884D01*
X87986162Y-41615831D01*
X87999500Y-41671777D01*
X87999500Y-44358522D01*
X87979815Y-44425561D01*
X87927011Y-44471316D01*
X87857853Y-44481260D01*
X87804376Y-44460097D01*
X87768960Y-44435298D01*
X87748079Y-44425561D01*
X87564711Y-44340055D01*
X87564700Y-44340051D01*
X87347014Y-44281722D01*
X87347007Y-44281721D01*
X87122502Y-44262080D01*
X87122498Y-44262080D01*
X86897992Y-44281721D01*
X86897985Y-44281722D01*
X86680299Y-44340051D01*
X86680288Y-44340055D01*
X86476043Y-44435296D01*
X86476033Y-44435302D01*
X86291426Y-44564566D01*
X86132066Y-44723926D01*
X86002802Y-44908533D01*
X86002796Y-44908543D01*
X85907555Y-45112788D01*
X85907551Y-45112799D01*
X85849222Y-45330485D01*
X85849221Y-45330492D01*
X85829580Y-45554997D01*
X85829580Y-45555002D01*
X85849221Y-45779507D01*
X85849222Y-45779514D01*
X85907551Y-45997200D01*
X85907555Y-45997211D01*
X86002796Y-46201456D01*
X86002798Y-46201460D01*
X86132066Y-46386073D01*
X86291427Y-46545434D01*
X86476040Y-46674702D01*
X86598924Y-46732003D01*
X86680288Y-46769944D01*
X86680290Y-46769944D01*
X86680295Y-46769947D01*
X86897987Y-46828278D01*
X87058353Y-46842308D01*
X87122498Y-46847920D01*
X87122500Y-46847920D01*
X87122502Y-46847920D01*
X87178628Y-46843009D01*
X87347013Y-46828278D01*
X87564705Y-46769947D01*
X87768960Y-46674702D01*
X87804377Y-46649902D01*
X87870580Y-46627575D01*
X87938348Y-46644584D01*
X87986162Y-46695531D01*
X87999500Y-46751477D01*
X87999500Y-46993038D01*
X87998720Y-47006923D01*
X87988540Y-47097264D01*
X87982362Y-47124333D01*
X87954648Y-47203537D01*
X87942600Y-47228555D01*
X87897957Y-47299604D01*
X87880644Y-47321313D01*
X87821313Y-47380644D01*
X87799604Y-47397957D01*
X87728555Y-47442600D01*
X87703537Y-47454648D01*
X87624333Y-47482362D01*
X87597264Y-47488540D01*
X87517075Y-47497576D01*
X87506921Y-47498720D01*
X87493038Y-47499500D01*
X58006962Y-47499500D01*
X57993078Y-47498720D01*
X57980553Y-47497308D01*
X57902735Y-47488540D01*
X57875666Y-47482362D01*
X57796462Y-47454648D01*
X57771444Y-47442600D01*
X57700395Y-47397957D01*
X57678686Y-47380644D01*
X57619355Y-47321313D01*
X57602042Y-47299604D01*
X57557399Y-47228555D01*
X57545351Y-47203537D01*
X57517637Y-47124333D01*
X57511459Y-47097263D01*
X57501280Y-47006922D01*
X57500500Y-46993038D01*
X57500500Y-32231902D01*
X57749500Y-32231902D01*
X57749500Y-32468097D01*
X57786446Y-32701368D01*
X57859433Y-32925996D01*
X57929985Y-33064461D01*
X57966657Y-33136433D01*
X58105483Y-33327510D01*
X58272490Y-33494517D01*
X58463567Y-33633343D01*
X58562991Y-33684002D01*
X58674003Y-33740566D01*
X58674005Y-33740566D01*
X58674008Y-33740568D01*
X58794412Y-33779689D01*
X58898631Y-33813553D01*
X59131903Y-33850500D01*
X60754311Y-33850500D01*
X60821350Y-33870185D01*
X60867105Y-33922989D01*
X60877049Y-33992147D01*
X60865741Y-34026326D01*
X60866577Y-34026693D01*
X60771316Y-34243866D01*
X60771316Y-34243867D01*
X60750760Y-34325039D01*
X60715221Y-34385195D01*
X60652800Y-34416586D01*
X60583317Y-34409248D01*
X60583103Y-34409159D01*
X60496113Y-34373127D01*
X60251151Y-34314317D01*
X60000000Y-34294551D01*
X59748848Y-34314317D01*
X59503889Y-34373126D01*
X59271140Y-34469533D01*
X59056346Y-34601160D01*
X59056343Y-34601161D01*
X58864776Y-34764776D01*
X58701161Y-34956343D01*
X58701160Y-34956346D01*
X58569533Y-35171140D01*
X58473126Y-35403889D01*
X58414317Y-35648848D01*
X58394551Y-35900000D01*
X58414317Y-36151151D01*
X58473126Y-36396110D01*
X58569533Y-36628859D01*
X58701160Y-36843653D01*
X58701161Y-36843656D01*
X58701164Y-36843659D01*
X58864776Y-37035224D01*
X58981485Y-37134903D01*
X59056343Y-37198838D01*
X59056345Y-37198838D01*
X59058250Y-37200006D01*
X59271140Y-37330466D01*
X59440284Y-37400527D01*
X59503889Y-37426873D01*
X59748852Y-37485683D01*
X60000000Y-37505449D01*
X60251148Y-37485683D01*
X60496111Y-37426873D01*
X60559716Y-37400526D01*
X60629183Y-37393057D01*
X60691663Y-37424331D01*
X60727316Y-37484420D01*
X60727374Y-37484646D01*
X60770843Y-37656301D01*
X60864075Y-37868848D01*
X60864076Y-37868849D01*
X60991021Y-38063153D01*
X61039687Y-38116019D01*
X61070608Y-38178673D01*
X61062747Y-38248099D01*
X61039688Y-38283980D01*
X60991021Y-38336847D01*
X60991019Y-38336848D01*
X60991016Y-38336853D01*
X60864075Y-38531151D01*
X60770841Y-38743703D01*
X60770841Y-38743704D01*
X60727373Y-38915352D01*
X60691834Y-38975507D01*
X60629413Y-39006899D01*
X60559930Y-38999561D01*
X60559716Y-38999472D01*
X60496113Y-38973127D01*
X60251151Y-38914317D01*
X60000000Y-38894551D01*
X59748848Y-38914317D01*
X59503889Y-38973126D01*
X59271140Y-39069533D01*
X59056346Y-39201160D01*
X59056343Y-39201161D01*
X58864776Y-39364776D01*
X58701161Y-39556343D01*
X58701160Y-39556346D01*
X58569533Y-39771140D01*
X58473126Y-40003889D01*
X58414317Y-40248848D01*
X58394551Y-40500000D01*
X58414317Y-40751151D01*
X58473126Y-40996110D01*
X58569533Y-41228859D01*
X58701160Y-41443653D01*
X58701161Y-41443656D01*
X58736851Y-41485443D01*
X58864776Y-41635224D01*
X59013066Y-41761875D01*
X59056343Y-41798838D01*
X59056346Y-41798839D01*
X59271140Y-41930466D01*
X59365368Y-41969496D01*
X59503889Y-42026873D01*
X59748852Y-42085683D01*
X60000000Y-42105449D01*
X60251148Y-42085683D01*
X60496111Y-42026873D01*
X60582637Y-41991032D01*
X60652103Y-41983564D01*
X60714583Y-42014838D01*
X60750236Y-42074927D01*
X60750294Y-42075154D01*
X60770843Y-42156300D01*
X60866136Y-42373546D01*
X60864463Y-42374279D01*
X60877389Y-42434823D01*
X60852720Y-42500193D01*
X60796625Y-42541848D01*
X60753740Y-42549500D01*
X59131903Y-42549500D01*
X58898631Y-42586446D01*
X58674003Y-42659433D01*
X58463566Y-42766657D01*
X58404947Y-42809247D01*
X58272490Y-42905483D01*
X58272488Y-42905485D01*
X58272487Y-42905485D01*
X58105485Y-43072487D01*
X58105485Y-43072488D01*
X58105483Y-43072490D01*
X58077953Y-43110382D01*
X57966657Y-43263566D01*
X57859433Y-43474003D01*
X57786446Y-43698631D01*
X57749500Y-43931902D01*
X57749500Y-44168097D01*
X57786446Y-44401368D01*
X57859433Y-44625996D01*
X57966657Y-44836433D01*
X58105483Y-45027510D01*
X58272490Y-45194517D01*
X58463567Y-45333343D01*
X58536531Y-45370520D01*
X58674003Y-45440566D01*
X58674005Y-45440566D01*
X58674008Y-45440568D01*
X58766129Y-45470500D01*
X58898631Y-45513553D01*
X59131903Y-45550500D01*
X59131908Y-45550500D01*
X60868097Y-45550500D01*
X61101368Y-45513553D01*
X61325992Y-45440568D01*
X61536433Y-45333343D01*
X61727510Y-45194517D01*
X61894517Y-45027510D01*
X62033343Y-44836433D01*
X62140568Y-44625992D01*
X62213553Y-44401368D01*
X62223939Y-44335793D01*
X62250500Y-44168097D01*
X62250500Y-43931902D01*
X62213553Y-43698631D01*
X62140566Y-43474003D01*
X62042121Y-43280795D01*
X62029225Y-43212126D01*
X62055501Y-43147385D01*
X62112608Y-43107128D01*
X62152606Y-43100500D01*
X62216048Y-43100500D01*
X62216049Y-43100500D01*
X62444981Y-43062298D01*
X62582755Y-43015000D01*
X77409621Y-43015000D01*
X77429113Y-43299980D01*
X77429114Y-43299981D01*
X77487227Y-43579640D01*
X77487232Y-43579657D01*
X77582887Y-43848803D01*
X77711680Y-44097363D01*
X77714304Y-44102426D01*
X77806959Y-44233690D01*
X77879031Y-44335793D01*
X78073991Y-44544543D01*
X78073994Y-44544546D01*
X78073999Y-44544551D01*
X78295578Y-44724819D01*
X78295580Y-44724820D01*
X78295581Y-44724821D01*
X78539641Y-44873237D01*
X78620924Y-44908543D01*
X78801637Y-44987038D01*
X79076691Y-45064105D01*
X79325481Y-45098299D01*
X79359676Y-45103000D01*
X79359677Y-45103000D01*
X79645324Y-45103000D01*
X79675832Y-45098806D01*
X79928309Y-45064105D01*
X80203363Y-44987038D01*
X80465360Y-44873236D01*
X80709422Y-44724819D01*
X80931001Y-44544551D01*
X81125970Y-44335791D01*
X81290696Y-44102426D01*
X81422112Y-43848805D01*
X81517769Y-43579652D01*
X81517770Y-43579645D01*
X81517772Y-43579640D01*
X81543098Y-43457761D01*
X81575886Y-43299980D01*
X81595379Y-43015000D01*
X81575886Y-42730020D01*
X81542625Y-42569962D01*
X81517772Y-42450359D01*
X81517767Y-42450342D01*
X81422112Y-42181196D01*
X81422112Y-42181195D01*
X81290696Y-41927574D01*
X81151233Y-41729999D01*
X83376857Y-41729999D01*
X83376857Y-41730000D01*
X83397384Y-41951535D01*
X83397385Y-41951537D01*
X83458269Y-42165523D01*
X83458275Y-42165538D01*
X83557438Y-42364683D01*
X83557443Y-42364691D01*
X83691520Y-42542238D01*
X83855937Y-42692123D01*
X83855939Y-42692125D01*
X84045095Y-42809245D01*
X84045096Y-42809245D01*
X84045099Y-42809247D01*
X84239024Y-42884374D01*
X84294424Y-42926946D01*
X84318015Y-42992713D01*
X84302304Y-43060793D01*
X84252280Y-43109572D01*
X84239033Y-43115622D01*
X84090988Y-43172975D01*
X84045101Y-43190752D01*
X84045095Y-43190754D01*
X83855939Y-43307874D01*
X83855937Y-43307876D01*
X83691520Y-43457761D01*
X83557443Y-43635308D01*
X83557438Y-43635316D01*
X83458275Y-43834461D01*
X83458269Y-43834476D01*
X83397385Y-44048462D01*
X83397384Y-44048464D01*
X83376857Y-44269999D01*
X83376857Y-44270000D01*
X83397384Y-44491535D01*
X83397385Y-44491537D01*
X83458269Y-44705523D01*
X83458275Y-44705538D01*
X83557438Y-44904683D01*
X83557443Y-44904691D01*
X83691520Y-45082238D01*
X83855937Y-45232123D01*
X83855939Y-45232125D01*
X84045095Y-45349245D01*
X84045096Y-45349245D01*
X84045099Y-45349247D01*
X84252560Y-45429618D01*
X84471257Y-45470500D01*
X84471259Y-45470500D01*
X84693741Y-45470500D01*
X84693743Y-45470500D01*
X84912440Y-45429618D01*
X85119901Y-45349247D01*
X85309062Y-45232124D01*
X85473481Y-45082236D01*
X85607558Y-44904689D01*
X85706729Y-44705528D01*
X85767615Y-44491536D01*
X85788143Y-44270000D01*
X85767615Y-44048464D01*
X85706729Y-43834472D01*
X85663326Y-43747307D01*
X85607561Y-43635316D01*
X85607556Y-43635308D01*
X85473479Y-43457761D01*
X85309062Y-43307876D01*
X85309060Y-43307874D01*
X85119904Y-43190754D01*
X85119895Y-43190750D01*
X85026456Y-43154552D01*
X84925975Y-43115625D01*
X84870575Y-43073054D01*
X84846984Y-43007288D01*
X84862695Y-42939207D01*
X84912719Y-42890428D01*
X84925966Y-42884377D01*
X85119901Y-42809247D01*
X85309062Y-42692124D01*
X85473481Y-42542236D01*
X85607558Y-42364689D01*
X85706729Y-42165528D01*
X85767615Y-41951536D01*
X85788143Y-41730000D01*
X85785362Y-41699993D01*
X85767615Y-41508464D01*
X85767614Y-41508462D01*
X85761068Y-41485456D01*
X85706729Y-41294472D01*
X85706724Y-41294461D01*
X85607561Y-41095316D01*
X85607556Y-41095308D01*
X85473479Y-40917761D01*
X85309062Y-40767876D01*
X85309060Y-40767874D01*
X85119904Y-40650754D01*
X85119898Y-40650752D01*
X84912440Y-40570382D01*
X84693743Y-40529500D01*
X84471257Y-40529500D01*
X84252560Y-40570382D01*
X84121364Y-40621207D01*
X84045101Y-40650752D01*
X84045095Y-40650754D01*
X83855939Y-40767874D01*
X83855937Y-40767876D01*
X83691520Y-40917761D01*
X83557443Y-41095308D01*
X83557438Y-41095316D01*
X83458275Y-41294461D01*
X83458269Y-41294476D01*
X83397385Y-41508462D01*
X83397384Y-41508464D01*
X83376857Y-41729999D01*
X81151233Y-41729999D01*
X81125970Y-41694209D01*
X81125968Y-41694206D01*
X80931008Y-41485456D01*
X80931004Y-41485452D01*
X80931001Y-41485449D01*
X80709422Y-41305181D01*
X80709420Y-41305180D01*
X80709418Y-41305178D01*
X80465358Y-41156762D01*
X80203366Y-41042963D01*
X80203364Y-41042962D01*
X80203363Y-41042962D01*
X80036151Y-40996111D01*
X79928314Y-40965896D01*
X79928310Y-40965895D01*
X79928309Y-40965895D01*
X79786816Y-40946447D01*
X79645324Y-40927000D01*
X79645323Y-40927000D01*
X79359677Y-40927000D01*
X79359676Y-40927000D01*
X79076691Y-40965895D01*
X79076685Y-40965896D01*
X78801633Y-41042963D01*
X78539641Y-41156762D01*
X78295581Y-41305178D01*
X78074005Y-41485443D01*
X78073991Y-41485456D01*
X77879031Y-41694206D01*
X77714301Y-41927578D01*
X77582887Y-42181196D01*
X77487232Y-42450342D01*
X77487227Y-42450359D01*
X77429114Y-42730018D01*
X77429113Y-42730019D01*
X77409621Y-43015000D01*
X62582755Y-43015000D01*
X62664503Y-42986936D01*
X62868626Y-42876470D01*
X63051784Y-42733913D01*
X63208979Y-42563153D01*
X63335924Y-42368849D01*
X63429157Y-42156300D01*
X63486134Y-41931305D01*
X63486443Y-41927574D01*
X63505300Y-41700006D01*
X63505300Y-41699993D01*
X63486135Y-41468702D01*
X63486133Y-41468691D01*
X63429157Y-41243699D01*
X63335924Y-41031151D01*
X63208983Y-40836852D01*
X63208980Y-40836849D01*
X63208979Y-40836847D01*
X63051784Y-40666087D01*
X62899876Y-40547852D01*
X62859064Y-40491143D01*
X62855389Y-40421370D01*
X62890020Y-40360687D01*
X62899871Y-40352150D01*
X63051784Y-40233913D01*
X63208979Y-40063153D01*
X63335924Y-39868849D01*
X63429157Y-39656300D01*
X63486134Y-39431305D01*
X63489423Y-39391616D01*
X63505300Y-39200006D01*
X63505300Y-39199993D01*
X63486135Y-38968702D01*
X63486133Y-38968691D01*
X63429157Y-38743699D01*
X63335924Y-38531151D01*
X63208981Y-38336849D01*
X63202320Y-38329613D01*
X63160312Y-38283981D01*
X63129391Y-38221330D01*
X63137251Y-38151903D01*
X63160313Y-38116018D01*
X63208979Y-38063153D01*
X63335924Y-37868849D01*
X63429157Y-37656300D01*
X63486134Y-37431305D01*
X63486501Y-37426875D01*
X63505300Y-37200006D01*
X63505300Y-37199993D01*
X63486135Y-36968702D01*
X63486133Y-36968691D01*
X63429157Y-36743699D01*
X63335924Y-36531151D01*
X63208983Y-36336852D01*
X63208980Y-36336849D01*
X63208979Y-36336847D01*
X63051784Y-36166087D01*
X63012699Y-36135666D01*
X62899469Y-36047535D01*
X62858656Y-35990825D01*
X62854982Y-35921052D01*
X62889614Y-35860369D01*
X62898794Y-35852413D01*
X62898798Y-35852351D01*
X62229409Y-35182962D01*
X62292993Y-35165925D01*
X62407007Y-35100099D01*
X62500099Y-35007007D01*
X62565925Y-34892993D01*
X62582962Y-34829409D01*
X63251186Y-35497633D01*
X63335482Y-35368611D01*
X63428682Y-35156135D01*
X63485638Y-34931218D01*
X63504798Y-34700005D01*
X63504798Y-34699994D01*
X63485638Y-34468781D01*
X63428682Y-34243864D01*
X63335484Y-34031393D01*
X63251186Y-33902365D01*
X62582962Y-34570589D01*
X62565925Y-34507007D01*
X62500099Y-34392993D01*
X62407007Y-34299901D01*
X62292993Y-34234075D01*
X62229409Y-34217037D01*
X62898797Y-33547647D01*
X62898797Y-33547645D01*
X62868360Y-33523955D01*
X62868354Y-33523951D01*
X62824097Y-33500000D01*
X77409621Y-33500000D01*
X77429113Y-33784980D01*
X77429114Y-33784981D01*
X77487227Y-34064640D01*
X77487232Y-34064657D01*
X77582887Y-34333803D01*
X77711680Y-34582363D01*
X77714304Y-34587426D01*
X77794120Y-34700500D01*
X77879031Y-34820793D01*
X78073991Y-35029543D01*
X78073994Y-35029546D01*
X78073999Y-35029551D01*
X78074003Y-35029555D01*
X78074005Y-35029556D01*
X78098601Y-35049566D01*
X78295578Y-35209819D01*
X78295580Y-35209820D01*
X78295581Y-35209821D01*
X78539641Y-35358237D01*
X78644743Y-35403889D01*
X78801637Y-35472038D01*
X79076691Y-35549105D01*
X79325481Y-35583299D01*
X79359676Y-35588000D01*
X79359677Y-35588000D01*
X79645324Y-35588000D01*
X79675832Y-35583806D01*
X79928309Y-35549105D01*
X80203363Y-35472038D01*
X80423830Y-35376274D01*
X80465358Y-35358237D01*
X80642350Y-35250606D01*
X80709422Y-35209819D01*
X80931001Y-35029551D01*
X81125970Y-34820791D01*
X81290696Y-34587426D01*
X81422112Y-34333805D01*
X81517769Y-34064652D01*
X81517770Y-34064645D01*
X81517772Y-34064640D01*
X81544599Y-33935538D01*
X81575886Y-33784980D01*
X81595379Y-33500000D01*
X81575886Y-33215020D01*
X81544599Y-33064461D01*
X81517772Y-32935359D01*
X81517767Y-32935342D01*
X81434612Y-32701368D01*
X81422112Y-32666195D01*
X81290696Y-32412574D01*
X81125970Y-32179209D01*
X81125968Y-32179206D01*
X80931008Y-31970456D01*
X80931004Y-31970452D01*
X80931001Y-31970449D01*
X80709422Y-31790181D01*
X80709420Y-31790180D01*
X80709418Y-31790178D01*
X80465358Y-31641762D01*
X80203366Y-31527963D01*
X80203364Y-31527962D01*
X80203363Y-31527962D01*
X80125110Y-31506036D01*
X79928314Y-31450896D01*
X79928310Y-31450895D01*
X79928309Y-31450895D01*
X79786816Y-31431447D01*
X79645324Y-31412000D01*
X79645323Y-31412000D01*
X79359677Y-31412000D01*
X79359676Y-31412000D01*
X79076691Y-31450895D01*
X79076685Y-31450896D01*
X78801633Y-31527963D01*
X78539641Y-31641762D01*
X78295581Y-31790178D01*
X78074005Y-31970443D01*
X78073991Y-31970456D01*
X77879031Y-32179206D01*
X77714301Y-32412578D01*
X77582887Y-32666196D01*
X77487232Y-32935342D01*
X77487227Y-32935359D01*
X77429114Y-33215018D01*
X77429113Y-33215019D01*
X77409621Y-33500000D01*
X62824097Y-33500000D01*
X62664302Y-33413523D01*
X62664293Y-33413520D01*
X62444860Y-33338188D01*
X62216007Y-33300000D01*
X62152351Y-33300000D01*
X62085312Y-33280315D01*
X62039557Y-33227511D01*
X62029613Y-33158353D01*
X62041866Y-33119705D01*
X62048172Y-33107330D01*
X62140568Y-32925992D01*
X62213553Y-32701368D01*
X62219124Y-32666195D01*
X62250500Y-32468097D01*
X62250500Y-32231902D01*
X62213553Y-31998631D01*
X62179689Y-31894412D01*
X62140568Y-31774008D01*
X62140566Y-31774005D01*
X62140566Y-31774003D01*
X62073185Y-31641762D01*
X62033343Y-31563567D01*
X61894517Y-31372490D01*
X61727510Y-31205483D01*
X61536433Y-31066657D01*
X61325996Y-30959433D01*
X61101368Y-30886446D01*
X60868097Y-30849500D01*
X60868092Y-30849500D01*
X59131908Y-30849500D01*
X59131903Y-30849500D01*
X58898631Y-30886446D01*
X58674003Y-30959433D01*
X58463566Y-31066657D01*
X58356040Y-31144780D01*
X58272490Y-31205483D01*
X58272488Y-31205485D01*
X58272487Y-31205485D01*
X58105485Y-31372487D01*
X58105485Y-31372488D01*
X58105483Y-31372490D01*
X58083676Y-31402505D01*
X57966657Y-31563566D01*
X57859433Y-31774003D01*
X57786446Y-31998631D01*
X57749500Y-32231902D01*
X57500500Y-32231902D01*
X57500500Y-29506961D01*
X57501280Y-29493077D01*
X57501280Y-29493076D01*
X57511459Y-29402731D01*
X57517635Y-29375670D01*
X57545353Y-29296456D01*
X57557396Y-29271450D01*
X57602046Y-29200389D01*
X57619351Y-29178690D01*
X57678690Y-29119351D01*
X57700389Y-29102046D01*
X57771450Y-29057396D01*
X57796456Y-29045353D01*
X57875670Y-29017635D01*
X57902733Y-29011459D01*
X57965419Y-29004396D01*
X57993079Y-29001280D01*
X58006962Y-29000500D01*
X58065892Y-29000500D01*
X87434108Y-29000500D01*
X87493038Y-29000500D01*
X87506922Y-29001280D01*
G37*
%TD.AperFunction*%
%TA.AperFunction,Conductor*%
G36*
X85994056Y-31596818D02*
G01*
X86006124Y-31611510D01*
X86132066Y-31791373D01*
X86291427Y-31950734D01*
X86476040Y-32080002D01*
X86598924Y-32137303D01*
X86680288Y-32175244D01*
X86680290Y-32175244D01*
X86680295Y-32175247D01*
X86897987Y-32233578D01*
X87058353Y-32247608D01*
X87122498Y-32253220D01*
X87122500Y-32253220D01*
X87122502Y-32253220D01*
X87178628Y-32248309D01*
X87347013Y-32233578D01*
X87564705Y-32175247D01*
X87768960Y-32080002D01*
X87804377Y-32055202D01*
X87870580Y-32032875D01*
X87938348Y-32049884D01*
X87986162Y-32100831D01*
X87999500Y-32156777D01*
X87999500Y-34843522D01*
X87979815Y-34910561D01*
X87927011Y-34956316D01*
X87857853Y-34966260D01*
X87804376Y-34945097D01*
X87784555Y-34931218D01*
X87768960Y-34920298D01*
X87748079Y-34910561D01*
X87564711Y-34825055D01*
X87564700Y-34825051D01*
X87347014Y-34766722D01*
X87347007Y-34766721D01*
X87122502Y-34747080D01*
X87122498Y-34747080D01*
X86897992Y-34766721D01*
X86897985Y-34766722D01*
X86680299Y-34825051D01*
X86680288Y-34825055D01*
X86476043Y-34920296D01*
X86476033Y-34920302D01*
X86291426Y-35049566D01*
X86132066Y-35208926D01*
X86002802Y-35393533D01*
X86002798Y-35393539D01*
X85914263Y-35583405D01*
X85868091Y-35635844D01*
X85801881Y-35655000D01*
X84898186Y-35655000D01*
X84902580Y-35650606D01*
X84955241Y-35559394D01*
X84982500Y-35457661D01*
X84982500Y-35352339D01*
X84955241Y-35250606D01*
X84902580Y-35159394D01*
X84898186Y-35155000D01*
X85758995Y-35155000D01*
X85706260Y-34969650D01*
X85607131Y-34770574D01*
X85473108Y-34593100D01*
X85419769Y-34544475D01*
X85383487Y-34484764D01*
X85385248Y-34414917D01*
X85419769Y-34361201D01*
X85435953Y-34346447D01*
X85473481Y-34312236D01*
X85607558Y-34134689D01*
X85706729Y-33935528D01*
X85767615Y-33721536D01*
X85788143Y-33500000D01*
X85767615Y-33278464D01*
X85706729Y-33064472D01*
X85642438Y-32935359D01*
X85607561Y-32865316D01*
X85607556Y-32865308D01*
X85473479Y-32687761D01*
X85420140Y-32639137D01*
X85383858Y-32579426D01*
X85385619Y-32509579D01*
X85420140Y-32455863D01*
X85473479Y-32407238D01*
X85604622Y-32233577D01*
X85607558Y-32229689D01*
X85706729Y-32030528D01*
X85767615Y-31816536D01*
X85781082Y-31671196D01*
X85806868Y-31606261D01*
X85863668Y-31565573D01*
X85933449Y-31562053D01*
X85994056Y-31596818D01*
G37*
%TD.AperFunction*%
%TD*%
M02*
