M48
; DRILL file {KiCad 8.0.4} date 2024-09-12T14:18:38-0400
; FORMAT={-:-/ absolute / inch / decimal}
; #@! TF.CreationDate,2024-09-12T14:18:38-04:00
; #@! TF.GenerationSoftware,Kicad,Pcbnew,8.0.4
; #@! TF.FileFunction,Plated,1,2,PTH
FMAT,2
INCH
; #@! TA.AperFunction,Plated,PTH,ViaDrill
T1C0.0118
; #@! TA.AperFunction,Plated,PTH,ComponentDrill
T2C0.0315
; #@! TA.AperFunction,Plated,PTH,ComponentDrill
T3C0.0394
; #@! TA.AperFunction,Plated,PTH,ComponentDrill
T4C0.0472
%
G90
G05
T1
X2.5591Y-1.2205
X2.6575Y-1.4764
X2.6575Y-1.5551
X2.6575Y-1.6339
X2.7165Y-1.2205
X2.815Y-1.5551
X2.874Y-1.2205
T2
X3.33Y-1.2439
X3.33Y-1.3189
X3.33Y-1.3939
X3.33Y-1.6429
X3.33Y-1.7429
T3
X2.4449Y-1.3661
X2.4449Y-1.4646
X2.4449Y-1.5433
X2.4449Y-1.6417
T4
X2.3622Y-1.4134
X2.3622Y-1.5945
T3
G00X2.3917Y-1.2736
M15
G01X2.3327Y-1.2736
M16
G05
G00X2.3917Y-1.7343
M15
G01X2.3327Y-1.7343
M16
G05
M30
