M48
; DRILL file {KiCad 8.0.1} date 2024-08-02T13:46:55-0400
; FORMAT={-:-/ absolute / inch / decimal}
; #@! TF.CreationDate,2024-08-02T13:46:55-04:00
; #@! TF.GenerationSoftware,Kicad,Pcbnew,8.0.1
; #@! TF.FileFunction,Plated,1,2,PTH
FMAT,2
INCH
; #@! TA.AperFunction,Plated,PTH,ViaDrill
T1C0.0118
; #@! TA.AperFunction,Plated,PTH,ComponentDrill
T2C0.0315
; #@! TA.AperFunction,Plated,PTH,ComponentDrill
T3C0.0362
; #@! TA.AperFunction,Plated,PTH,ComponentDrill
T4C0.0917
%
G90
G05
T1
X1.6043Y-1.6142
X1.6535Y-1.0138
X1.6535Y-1.2795
X1.6929Y-1.2795
X1.6929Y-1.5059
X1.752Y-1.5059
X1.8159Y-1.0128
X1.8799Y-1.437
X1.9242Y-1.2746
X1.927Y-1.2361
X1.939Y-1.5846
X1.9783Y-0.9547
X1.998Y-1.1651
X2.0347Y-1.2375
T2
X2.4409Y-1.0114
X2.4409Y-1.0864
X2.4409Y-1.1614
X2.4409Y-1.4173
X2.4409Y-1.5173
T3
X1.4571Y-1.2239
X1.4571Y-1.3223
X1.5358Y-1.2239
X1.5358Y-1.3223
T4
X1.3504Y-1.0361
X1.3504Y-1.5101
M30
