%TF.GenerationSoftware,KiCad,Pcbnew,8.0.4*%
%TF.CreationDate,2024-09-12T14:18:40-04:00*%
%TF.ProjectId,booster-ftdi-board,626f6f73-7465-4722-9d66-7464692d626f,rev?*%
%TF.SameCoordinates,Original*%
%TF.FileFunction,Copper,L1,Top*%
%TF.FilePolarity,Positive*%
%FSLAX46Y46*%
G04 Gerber Fmt 4.6, Leading zero omitted, Abs format (unit mm)*
G04 Created by KiCad (PCBNEW 8.0.4) date 2024-09-12 14:18:40*
%MOMM*%
%LPD*%
G01*
G04 APERTURE LIST*
G04 Aperture macros list*
%AMRoundRect*
0 Rectangle with rounded corners*
0 $1 Rounding radius*
0 $2 $3 $4 $5 $6 $7 $8 $9 X,Y pos of 4 corners*
0 Add a 4 corners polygon primitive as box body*
4,1,4,$2,$3,$4,$5,$6,$7,$8,$9,$2,$3,0*
0 Add four circle primitives for the rounded corners*
1,1,$1+$1,$2,$3*
1,1,$1+$1,$4,$5*
1,1,$1+$1,$6,$7*
1,1,$1+$1,$8,$9*
0 Add four rect primitives between the rounded corners*
20,1,$1+$1,$2,$3,$4,$5,0*
20,1,$1+$1,$4,$5,$6,$7,0*
20,1,$1+$1,$6,$7,$8,$9,0*
20,1,$1+$1,$8,$9,$2,$3,0*%
G04 Aperture macros list end*
%TA.AperFunction,ComponentPad*%
%ADD10C,1.400000*%
%TD*%
%TA.AperFunction,ComponentPad*%
%ADD11C,1.800000*%
%TD*%
%TA.AperFunction,ComponentPad*%
%ADD12O,3.500000X2.000000*%
%TD*%
%TA.AperFunction,ComponentPad*%
%ADD13C,2.200000*%
%TD*%
%TA.AperFunction,SMDPad,CuDef*%
%ADD14RoundRect,0.250000X-0.337500X-0.475000X0.337500X-0.475000X0.337500X0.475000X-0.337500X0.475000X0*%
%TD*%
%TA.AperFunction,SMDPad,CuDef*%
%ADD15R,1.750000X0.450000*%
%TD*%
%TA.AperFunction,SMDPad,CuDef*%
%ADD16RoundRect,0.250000X-0.450000X0.350000X-0.450000X-0.350000X0.450000X-0.350000X0.450000X0.350000X0*%
%TD*%
%TA.AperFunction,SMDPad,CuDef*%
%ADD17RoundRect,0.250000X0.450000X-0.350000X0.450000X0.350000X-0.450000X0.350000X-0.450000X-0.350000X0*%
%TD*%
%TA.AperFunction,ViaPad*%
%ADD18C,0.600000*%
%TD*%
%TA.AperFunction,Conductor*%
%ADD19C,0.200000*%
%TD*%
%TA.AperFunction,Conductor*%
%ADD20C,0.400000*%
%TD*%
G04 APERTURE END LIST*
D10*
%TO.P,U8,1,GND*%
%TO.N,GND*%
X84582500Y-35405000D03*
%TO.P,U8,2,OUT*%
%TO.N,Net-(U6-RXD)*%
X84582500Y-33500000D03*
%TO.P,U8,3,VCC*%
%TO.N,VCC*%
X84582500Y-31595000D03*
%TD*%
D11*
%TO.P,J2,1,VBUS*%
%TO.N,VCC*%
X62100000Y-41700000D03*
%TO.P,J2,2,D-*%
%TO.N,/USB_-*%
X62100000Y-39200000D03*
%TO.P,J2,3,D+*%
%TO.N,/USB_+*%
X62100000Y-37200000D03*
%TO.P,J2,4,GND*%
%TO.N,GND*%
X62100000Y-34700000D03*
D12*
%TO.P,J2,SH*%
%TO.N,N/C*%
X60000000Y-32350000D03*
D13*
X60000000Y-35900000D03*
X60000000Y-40500000D03*
D12*
X60000000Y-44050000D03*
%TD*%
D14*
%TO.P,C1,1*%
%TO.N,GND*%
X69462500Y-32500000D03*
%TO.P,C1,2*%
%TO.N,VCC*%
X71537500Y-32500000D03*
%TD*%
%TO.P,C12,1*%
%TO.N,GND*%
X65462500Y-32500000D03*
%TO.P,C12,2*%
%TO.N,Net-(U6-3V3OUT)*%
X67537500Y-32500000D03*
%TD*%
D15*
%TO.P,U6,1,TXD*%
%TO.N,Net-(U6-TXD)*%
X73100000Y-43575000D03*
%TO.P,U6,2,DTR*%
%TO.N,unconnected-(U6-DTR-Pad2)*%
X73100000Y-42925000D03*
%TO.P,U6,3,RTS*%
%TO.N,unconnected-(U6-RTS-Pad3)*%
X73100000Y-42275000D03*
%TO.P,U6,4,VCCIO*%
%TO.N,VCC*%
X73100000Y-41625000D03*
%TO.P,U6,5,RXD*%
%TO.N,Net-(U6-RXD)*%
X73100000Y-40975000D03*
%TO.P,U6,6,RI*%
%TO.N,unconnected-(U6-RI-Pad6)*%
X73100000Y-40325000D03*
%TO.P,U6,7,GND*%
%TO.N,GND*%
X73100000Y-39675000D03*
%TO.P,U6,8*%
%TO.N,N/C*%
X73100000Y-39025000D03*
%TO.P,U6,9,DCR*%
%TO.N,unconnected-(U6-DCR-Pad9)*%
X73100000Y-38375000D03*
%TO.P,U6,10,DCD*%
%TO.N,unconnected-(U6-DCD-Pad10)*%
X73100000Y-37725000D03*
%TO.P,U6,11,CTS*%
%TO.N,unconnected-(U6-CTS-Pad11)*%
X73100000Y-37075000D03*
%TO.P,U6,12,CBUS4*%
%TO.N,unconnected-(U6-CBUS4-Pad12)*%
X73100000Y-36425000D03*
%TO.P,U6,13,CBUS2*%
%TO.N,unconnected-(U6-CBUS2-Pad13)*%
X73100000Y-35775000D03*
%TO.P,U6,14,CBUS3*%
%TO.N,unconnected-(U6-CBUS3-Pad14)*%
X73100000Y-35125000D03*
%TO.P,U6,15,USBD+*%
%TO.N,/USB_+*%
X65900000Y-35125000D03*
%TO.P,U6,16,USBD-*%
%TO.N,/USB_-*%
X65900000Y-35775000D03*
%TO.P,U6,17,3V3OUT*%
%TO.N,Net-(U6-3V3OUT)*%
X65900000Y-36425000D03*
%TO.P,U6,18,GND*%
%TO.N,GND*%
X65900000Y-37075000D03*
%TO.P,U6,19,~{RESET}*%
%TO.N,unconnected-(U6-~{RESET}-Pad19)*%
X65900000Y-37725000D03*
%TO.P,U6,20,VCC*%
%TO.N,VCC*%
X65900000Y-38375000D03*
%TO.P,U6,21,GND*%
%TO.N,GND*%
X65900000Y-39025000D03*
%TO.P,U6,22,CBUS1*%
%TO.N,unconnected-(U6-CBUS1-Pad22)*%
X65900000Y-39675000D03*
%TO.P,U6,23,CBUS0*%
%TO.N,unconnected-(U6-CBUS0-Pad23)*%
X65900000Y-40325000D03*
%TO.P,U6,24*%
%TO.N,N/C*%
X65900000Y-40975000D03*
%TO.P,U6,25,AGND*%
%TO.N,GND*%
X65900000Y-41625000D03*
%TO.P,U6,26,TEST*%
X65900000Y-42275000D03*
%TO.P,U6,27,OSCI*%
%TO.N,unconnected-(U6-OSCI-Pad27)*%
X65900000Y-42925000D03*
%TO.P,U6,28,OSCO*%
%TO.N,unconnected-(U6-OSCO-Pad28)*%
X65900000Y-43575000D03*
%TD*%
D14*
%TO.P,C2,1*%
%TO.N,GND*%
X73462500Y-32500000D03*
%TO.P,C2,2*%
%TO.N,VCC*%
X75537500Y-32500000D03*
%TD*%
D16*
%TO.P,R1,1*%
%TO.N,VCC*%
X75500000Y-37000000D03*
%TO.P,R1,2*%
%TO.N,Net-(U6-RXD)*%
X75500000Y-39000000D03*
%TD*%
D10*
%TO.P,U7,1,K*%
%TO.N,Net-(U7-K)*%
X84582500Y-44270000D03*
%TO.P,U7,2,A*%
%TO.N,VCC*%
X84582500Y-41730000D03*
%TD*%
D17*
%TO.P,R6,1*%
%TO.N,Net-(U6-TXD)*%
X75500000Y-43000000D03*
%TO.P,R6,2*%
%TO.N,Net-(U7-K)*%
X75500000Y-41000000D03*
%TD*%
D18*
%TO.N,GND*%
X65000000Y-31000000D03*
X67500000Y-39500000D03*
X67500000Y-37500000D03*
X73000000Y-31000000D03*
X69000000Y-31000000D03*
X71500000Y-39500000D03*
X67500000Y-41500000D03*
%TD*%
D19*
%TO.N,GND*%
X69000000Y-32037500D02*
X69462500Y-32500000D01*
X67375000Y-41625000D02*
X67500000Y-41500000D01*
X65900000Y-41625000D02*
X67375000Y-41625000D01*
X73000000Y-32037500D02*
X73462500Y-32500000D01*
X65000000Y-31000000D02*
X65000000Y-32037500D01*
X67075000Y-37075000D02*
X67500000Y-37500000D01*
X67025000Y-39025000D02*
X67500000Y-39500000D01*
X71500000Y-39500000D02*
X71675000Y-39675000D01*
X65900000Y-39025000D02*
X67025000Y-39025000D01*
X69000000Y-31000000D02*
X69000000Y-32037500D01*
X65900000Y-42275000D02*
X65900000Y-41625000D01*
X71675000Y-39675000D02*
X73100000Y-39675000D01*
X65000000Y-32037500D02*
X65462500Y-32500000D01*
X65900000Y-37075000D02*
X67075000Y-37075000D01*
X73000000Y-31000000D02*
X73000000Y-32037500D01*
D20*
%TO.N,VCC*%
X75537500Y-36462500D02*
X75537500Y-32500000D01*
X63400000Y-40400000D02*
X62100000Y-41700000D01*
X85682500Y-35652942D02*
X85632476Y-35872114D01*
X76827553Y-31209947D02*
X84197447Y-31209947D01*
X84197447Y-31209947D02*
X84582500Y-31595000D01*
X68575000Y-38375000D02*
X71825000Y-41625000D01*
X84582500Y-31595000D02*
X85682500Y-32695000D01*
X71537500Y-34000000D02*
X74037500Y-34000000D01*
X63400000Y-39600000D02*
X63400000Y-40400000D01*
X64625000Y-38375000D02*
X63400000Y-39600000D01*
X71825000Y-41625000D02*
X73100000Y-41625000D01*
X71537500Y-32500000D02*
X71537500Y-34000000D01*
X75500000Y-37000000D02*
X75500000Y-36500000D01*
X85632476Y-35872114D02*
X85632476Y-40680024D01*
X75537500Y-32500000D02*
X76827553Y-31209947D01*
X71537500Y-35412500D02*
X68575000Y-38375000D01*
X74037500Y-34000000D02*
X75537500Y-32500000D01*
X65900000Y-38375000D02*
X64625000Y-38375000D01*
X85682500Y-32695000D02*
X85682500Y-35652942D01*
X71537500Y-34000000D02*
X71537500Y-35412500D01*
X75500000Y-36500000D02*
X75537500Y-36462500D01*
X85632476Y-40680024D02*
X84582500Y-41730000D01*
X65900000Y-38375000D02*
X68575000Y-38375000D01*
%TO.N,Net-(U6-3V3OUT)*%
X67537500Y-36062500D02*
X67537500Y-32350000D01*
X65900000Y-36425000D02*
X67175000Y-36425000D01*
X67175000Y-36425000D02*
X67537500Y-36062500D01*
D19*
%TO.N,Net-(U7-K)*%
X78500000Y-45500000D02*
X83352500Y-45500000D01*
X75500000Y-41000000D02*
X77000000Y-42500000D01*
X83352500Y-45500000D02*
X84582500Y-44270000D01*
X77000000Y-42500000D02*
X77000000Y-44000000D01*
X77000000Y-44000000D02*
X78500000Y-45500000D01*
%TO.N,Net-(U6-TXD)*%
X73100000Y-43575000D02*
X74925000Y-43575000D01*
X74925000Y-43575000D02*
X75500000Y-43000000D01*
%TO.N,Net-(U6-RXD)*%
X74025000Y-40975000D02*
X74500000Y-40500000D01*
X79582500Y-38500000D02*
X84582500Y-33500000D01*
X75500000Y-39000000D02*
X76000000Y-38500000D01*
X73100000Y-40975000D02*
X74025000Y-40975000D01*
X74500000Y-40500000D02*
X74500000Y-40000000D01*
X74500000Y-40000000D02*
X75500000Y-39000000D01*
X76000000Y-38500000D02*
X79582500Y-38500000D01*
%TO.N,/USB_+*%
X64763633Y-35224999D02*
X64275020Y-35713612D01*
X65800001Y-35224999D02*
X64763633Y-35224999D01*
X64275020Y-35713612D02*
X64275020Y-36388583D01*
X65900000Y-35125000D02*
X65800001Y-35224999D01*
X63463603Y-37200000D02*
X62100000Y-37200000D01*
X64275020Y-36388583D02*
X63463603Y-37200000D01*
%TO.N,/USB_-*%
X64949999Y-35675001D02*
X64725000Y-35900000D01*
X65900000Y-35775000D02*
X65800001Y-35675001D01*
X64725000Y-35900000D02*
X64725000Y-36575000D01*
X64725000Y-36575000D02*
X62100000Y-39200000D01*
X65800001Y-35675001D02*
X64949999Y-35675001D01*
%TD*%
M02*
