%TF.GenerationSoftware,KiCad,Pcbnew,8.0.1*%
%TF.CreationDate,2024-08-02T13:46:56-04:00*%
%TF.ProjectId,booster-ftdi-board,626f6f73-7465-4722-9d66-7464692d626f,rev?*%
%TF.SameCoordinates,Original*%
%TF.FileFunction,Copper,L1,Top*%
%TF.FilePolarity,Positive*%
%FSLAX46Y46*%
G04 Gerber Fmt 4.6, Leading zero omitted, Abs format (unit mm)*
G04 Created by KiCad (PCBNEW 8.0.1) date 2024-08-02 13:46:56*
%MOMM*%
%LPD*%
G01*
G04 APERTURE LIST*
G04 Aperture macros list*
%AMRoundRect*
0 Rectangle with rounded corners*
0 $1 Rounding radius*
0 $2 $3 $4 $5 $6 $7 $8 $9 X,Y pos of 4 corners*
0 Add a 4 corners polygon primitive as box body*
4,1,4,$2,$3,$4,$5,$6,$7,$8,$9,$2,$3,0*
0 Add four circle primitives for the rounded corners*
1,1,$1+$1,$2,$3*
1,1,$1+$1,$4,$5*
1,1,$1+$1,$6,$7*
1,1,$1+$1,$8,$9*
0 Add four rect primitives between the rounded corners*
20,1,$1+$1,$2,$3,$4,$5,0*
20,1,$1+$1,$4,$5,$6,$7,0*
20,1,$1+$1,$6,$7,$8,$9,0*
20,1,$1+$1,$8,$9,$2,$3,0*%
G04 Aperture macros list end*
%TA.AperFunction,ComponentPad*%
%ADD10C,1.400000*%
%TD*%
%TA.AperFunction,SMDPad,CuDef*%
%ADD11RoundRect,0.250000X-0.262500X-0.450000X0.262500X-0.450000X0.262500X0.450000X-0.262500X0.450000X0*%
%TD*%
%TA.AperFunction,SMDPad,CuDef*%
%ADD12RoundRect,0.225000X-0.250000X0.225000X-0.250000X-0.225000X0.250000X-0.225000X0.250000X0.225000X0*%
%TD*%
%TA.AperFunction,SMDPad,CuDef*%
%ADD13RoundRect,0.225000X0.225000X0.250000X-0.225000X0.250000X-0.225000X-0.250000X0.225000X-0.250000X0*%
%TD*%
%TA.AperFunction,SMDPad,CuDef*%
%ADD14RoundRect,0.200000X-0.200000X-0.275000X0.200000X-0.275000X0.200000X0.275000X-0.200000X0.275000X0*%
%TD*%
%TA.AperFunction,SMDPad,CuDef*%
%ADD15RoundRect,0.150000X-0.512500X-0.150000X0.512500X-0.150000X0.512500X0.150000X-0.512500X0.150000X0*%
%TD*%
%TA.AperFunction,SMDPad,CuDef*%
%ADD16RoundRect,0.150000X0.512500X0.150000X-0.512500X0.150000X-0.512500X-0.150000X0.512500X-0.150000X0*%
%TD*%
%TA.AperFunction,SMDPad,CuDef*%
%ADD17RoundRect,0.225000X0.250000X-0.225000X0.250000X0.225000X-0.250000X0.225000X-0.250000X-0.225000X0*%
%TD*%
%TA.AperFunction,SMDPad,CuDef*%
%ADD18RoundRect,0.200000X-0.275000X0.200000X-0.275000X-0.200000X0.275000X-0.200000X0.275000X0.200000X0*%
%TD*%
%TA.AperFunction,SMDPad,CuDef*%
%ADD19RoundRect,0.200000X0.275000X-0.200000X0.275000X0.200000X-0.275000X0.200000X-0.275000X-0.200000X0*%
%TD*%
%TA.AperFunction,SMDPad,CuDef*%
%ADD20RoundRect,0.218750X0.256250X-0.218750X0.256250X0.218750X-0.256250X0.218750X-0.256250X-0.218750X0*%
%TD*%
%TA.AperFunction,SMDPad,CuDef*%
%ADD21RoundRect,0.150000X-0.587500X-0.150000X0.587500X-0.150000X0.587500X0.150000X-0.587500X0.150000X0*%
%TD*%
%TA.AperFunction,SMDPad,CuDef*%
%ADD22R,1.200000X0.400000*%
%TD*%
%TA.AperFunction,ComponentPad*%
%ADD23R,1.700000X1.700000*%
%TD*%
%TA.AperFunction,ComponentPad*%
%ADD24C,1.700000*%
%TD*%
%TA.AperFunction,ComponentPad*%
%ADD25C,3.500000*%
%TD*%
%TA.AperFunction,ViaPad*%
%ADD26C,0.600000*%
%TD*%
%TA.AperFunction,Conductor*%
%ADD27C,0.200000*%
%TD*%
G04 APERTURE END LIST*
D10*
%TO.P,U3,1,GND*%
%TO.N,GND*%
X62000000Y-25690000D03*
%TO.P,U3,2,OUT*%
%TO.N,Net-(U3-OUT)*%
X62000000Y-27595000D03*
%TO.P,U3,3,VCC*%
%TO.N,VCC*%
X62000000Y-29500000D03*
%TD*%
D11*
%TO.P,FB1,1*%
%TO.N,Net-(J1-VBUS)*%
X42087500Y-33775000D03*
%TO.P,FB1,2*%
%TO.N,VCC*%
X43912500Y-33775000D03*
%TD*%
D12*
%TO.P,C11,1*%
%TO.N,VCC*%
X53250000Y-24225000D03*
%TO.P,C11,2*%
%TO.N,GND*%
X53250000Y-25775000D03*
%TD*%
D10*
%TO.P,U2,1,K*%
%TO.N,Net-(U2-K)*%
X62000000Y-36000000D03*
%TO.P,U2,2,A*%
%TO.N,VCC*%
X62000000Y-38540000D03*
%TD*%
D13*
%TO.P,C9,1*%
%TO.N,VCC*%
X49800000Y-37500000D03*
%TO.P,C9,2*%
%TO.N,GND*%
X48250000Y-37500000D03*
%TD*%
D14*
%TO.P,R1,1*%
%TO.N,/USBI_P*%
X43675000Y-28250000D03*
%TO.P,R1,2*%
%TO.N,/USB_P*%
X45325000Y-28250000D03*
%TD*%
D15*
%TO.P,U5,1,NC*%
%TO.N,unconnected-(U5-NC-Pad1)*%
X42112500Y-39050000D03*
%TO.P,U5,2,A*%
%TO.N,Net-(U1-TXD)*%
X42112500Y-40000000D03*
%TO.P,U5,3,GND*%
%TO.N,GND*%
X42112500Y-40950000D03*
%TO.P,U5,4,Y*%
%TO.N,Net-(Q1-G)*%
X44387500Y-40950000D03*
%TO.P,U5,5,VCC*%
%TO.N,VCC*%
X44387500Y-39050000D03*
%TD*%
D12*
%TO.P,C8,1*%
%TO.N,VCC*%
X45375000Y-23450000D03*
%TO.P,C8,2*%
%TO.N,GND*%
X45375000Y-25000000D03*
%TD*%
D16*
%TO.P,U4,1,NC*%
%TO.N,unconnected-(U4-NC-Pad1)*%
X51275000Y-25950000D03*
%TO.P,U4,2,A*%
%TO.N,Net-(U3-OUT)*%
X51275000Y-25000000D03*
%TO.P,U4,3,GND*%
%TO.N,GND*%
X51275000Y-24050000D03*
%TO.P,U4,4,Y*%
%TO.N,Net-(U1-RXD)*%
X49000000Y-24050000D03*
%TO.P,U4,5,VCC*%
%TO.N,+3V3*%
X49000000Y-25950000D03*
%TD*%
D14*
%TO.P,R2,1*%
%TO.N,/USBI_N*%
X43675000Y-30000000D03*
%TO.P,R2,2*%
%TO.N,/USB_N*%
X45325000Y-30000000D03*
%TD*%
D17*
%TO.P,C1,1*%
%TO.N,GND*%
X42000000Y-37300000D03*
%TO.P,C1,2*%
%TO.N,Net-(J1-VBUS)*%
X42000000Y-35750000D03*
%TD*%
D12*
%TO.P,C4,1*%
%TO.N,VCC*%
X43750000Y-35750000D03*
%TO.P,C4,2*%
%TO.N,GND*%
X43750000Y-37300000D03*
%TD*%
D18*
%TO.P,R4,1*%
%TO.N,Net-(U2-K)*%
X53250000Y-39675000D03*
%TO.P,R4,2*%
%TO.N,Net-(Q1-D)*%
X53250000Y-41325000D03*
%TD*%
%TO.P,R3,1*%
%TO.N,Net-(Q1-G)*%
X47500000Y-39425000D03*
%TO.P,R3,2*%
%TO.N,GND*%
X47500000Y-41075000D03*
%TD*%
D19*
%TO.P,R5,1*%
%TO.N,VCC*%
X43750000Y-25075000D03*
%TO.P,R5,2*%
%TO.N,Net-(D1-A)*%
X43750000Y-23425000D03*
%TD*%
D13*
%TO.P,C6,1*%
%TO.N,+3V3*%
X45275000Y-31750000D03*
%TO.P,C6,2*%
%TO.N,GND*%
X43725000Y-31750000D03*
%TD*%
D20*
%TO.P,D1,1,K*%
%TO.N,GND*%
X42000000Y-25037500D03*
%TO.P,D1,2,A*%
%TO.N,Net-(D1-A)*%
X42000000Y-23462500D03*
%TD*%
D12*
%TO.P,C7,1*%
%TO.N,VCC*%
X47125000Y-23450000D03*
%TO.P,C7,2*%
%TO.N,GND*%
X47125000Y-25000000D03*
%TD*%
D21*
%TO.P,Q1,1,G*%
%TO.N,Net-(Q1-G)*%
X49375000Y-39300000D03*
%TO.P,Q1,2,S*%
%TO.N,GND*%
X49375000Y-41200000D03*
%TO.P,Q1,3,D*%
%TO.N,Net-(Q1-D)*%
X51250000Y-40250000D03*
%TD*%
D17*
%TO.P,C3,1*%
%TO.N,/USBI_P*%
X42000000Y-28275000D03*
%TO.P,C3,2*%
%TO.N,GND*%
X42000000Y-26725000D03*
%TD*%
D13*
%TO.P,C10,1*%
%TO.N,VCC*%
X53025000Y-37500000D03*
%TO.P,C10,2*%
%TO.N,GND*%
X51475000Y-37500000D03*
%TD*%
D22*
%TO.P,U1,1,~{DTR}*%
%TO.N,unconnected-(U1-~{DTR}-Pad1)*%
X52850000Y-34607500D03*
%TO.P,U1,2,~{RTS}*%
%TO.N,unconnected-(U1-~{RTS}-Pad2)*%
X52850000Y-33972500D03*
%TO.P,U1,3,VCCIO*%
%TO.N,+3V3*%
X52850000Y-33337500D03*
%TO.P,U1,4,RXD*%
%TO.N,Net-(U1-RXD)*%
X52850000Y-32702500D03*
%TO.P,U1,5,~{RI}*%
%TO.N,unconnected-(U1-~{RI}-Pad5)*%
X52850000Y-32067500D03*
%TO.P,U1,6,GND*%
%TO.N,GND*%
X52850000Y-31432500D03*
%TO.P,U1,7,~{DSR}*%
%TO.N,unconnected-(U1-~{DSR}-Pad7)*%
X52850000Y-30797500D03*
%TO.P,U1,8,~{DCD}*%
%TO.N,unconnected-(U1-~{DCD}-Pad8)*%
X52850000Y-30162500D03*
%TO.P,U1,9,~{CTS}*%
%TO.N,unconnected-(U1-~{CTS}-Pad9)*%
X52850000Y-29527500D03*
%TO.P,U1,10,CBUS2*%
%TO.N,unconnected-(U1-CBUS2-Pad10)*%
X52850000Y-28892500D03*
%TO.P,U1,11,USBDP*%
%TO.N,/USB_P*%
X47650000Y-28892500D03*
%TO.P,U1,12,USBDM*%
%TO.N,/USB_N*%
X47650000Y-29527500D03*
%TO.P,U1,13,3V3OUT*%
%TO.N,+3V3*%
X47650000Y-30162500D03*
%TO.P,U1,14,~{RESET}*%
X47650000Y-30797500D03*
%TO.P,U1,15,VCC*%
%TO.N,VCC*%
X47650000Y-31432500D03*
%TO.P,U1,16,GND*%
%TO.N,GND*%
X47650000Y-32067500D03*
%TO.P,U1,17,CBUS1*%
%TO.N,unconnected-(U1-CBUS1-Pad17)*%
X47650000Y-32702500D03*
%TO.P,U1,18,CBUS0*%
%TO.N,unconnected-(U1-CBUS0-Pad18)*%
X47650000Y-33337500D03*
%TO.P,U1,19,CBUS3*%
%TO.N,unconnected-(U1-CBUS3-Pad19)*%
X47650000Y-33972500D03*
%TO.P,U1,20,TXD*%
%TO.N,Net-(U1-TXD)*%
X47650000Y-34607500D03*
%TD*%
D23*
%TO.P,J1,1,VBUS*%
%TO.N,Net-(J1-VBUS)*%
X39010000Y-33587500D03*
D24*
%TO.P,J1,2,D-*%
%TO.N,/USBI_N*%
X39010000Y-31087500D03*
%TO.P,J1,3,D+*%
%TO.N,/USBI_P*%
X37010000Y-31087500D03*
%TO.P,J1,4,GND*%
%TO.N,GND*%
X37010000Y-33587500D03*
D25*
%TO.P,J1,5,Shield*%
X34300000Y-38357500D03*
X34300000Y-26317500D03*
%TD*%
D12*
%TO.P,C2,1*%
%TO.N,/USBI_N*%
X42000000Y-29975000D03*
%TO.P,C2,2*%
%TO.N,GND*%
X42000000Y-31525000D03*
%TD*%
%TO.P,C5,1*%
%TO.N,VCC*%
X45500000Y-35750000D03*
%TO.P,C5,2*%
%TO.N,GND*%
X45500000Y-37300000D03*
%TD*%
D26*
%TO.N,GND*%
X50250000Y-24250000D03*
X44500000Y-38250000D03*
X43000000Y-38250000D03*
X40750000Y-41000000D03*
X46125000Y-25725000D03*
X42000000Y-32500000D03*
X47750000Y-36500000D03*
X43000000Y-32500000D03*
X42000000Y-25750000D03*
X49250000Y-40250000D03*
X51682500Y-31432500D03*
X48875000Y-32375000D03*
%TO.N,VCC*%
X50750000Y-29592500D03*
X48945000Y-31397500D03*
%TD*%
D27*
%TO.N,GND*%
X42000000Y-31525000D02*
X42000000Y-32500000D01*
X42000000Y-25750000D02*
X42000000Y-25037500D01*
X49250000Y-40250000D02*
X49250000Y-41075000D01*
X47125000Y-25000000D02*
X46125000Y-25000000D01*
X42062500Y-41000000D02*
X42112500Y-40950000D01*
X51075000Y-24250000D02*
X51275000Y-24050000D01*
X42000000Y-25750000D02*
X42000000Y-26725000D01*
X46125000Y-25725000D02*
X46125000Y-25000000D01*
X46125000Y-25000000D02*
X45375000Y-25000000D01*
X49250000Y-41075000D02*
X49375000Y-41200000D01*
X45500000Y-37300000D02*
X44500000Y-37300000D01*
X51378052Y-24050000D02*
X51025000Y-24050000D01*
X49025000Y-38275000D02*
X48250000Y-37500000D01*
X47500000Y-41075000D02*
X49250000Y-41075000D01*
X40750000Y-41000000D02*
X42062500Y-41000000D01*
X47750000Y-37000000D02*
X48250000Y-37500000D01*
X48875000Y-32375000D02*
X48567500Y-32067500D01*
X50250000Y-24250000D02*
X51075000Y-24250000D01*
X51628052Y-24050000D02*
X51275000Y-24050000D01*
X53250000Y-25671948D02*
X51628052Y-24050000D01*
X43000000Y-37300000D02*
X42000000Y-37300000D01*
X43000000Y-32475000D02*
X43725000Y-31750000D01*
X51475000Y-37500000D02*
X50700000Y-38275000D01*
X48567500Y-32067500D02*
X47650000Y-32067500D01*
X43000000Y-32500000D02*
X43000000Y-32475000D01*
X50700000Y-38275000D02*
X49025000Y-38275000D01*
X47750000Y-36500000D02*
X47750000Y-37000000D01*
X43000000Y-38250000D02*
X43000000Y-37300000D01*
X51682500Y-31432500D02*
X52850000Y-31432500D01*
X44500000Y-37300000D02*
X43000000Y-37300000D01*
X53250000Y-25775000D02*
X53250000Y-25671948D01*
X44500000Y-38250000D02*
X44500000Y-37300000D01*
%TO.N,Net-(J1-VBUS)*%
X39197500Y-33775000D02*
X41812500Y-33775000D01*
X42000000Y-35475000D02*
X42000000Y-33587500D01*
X41812500Y-33775000D02*
X42000000Y-33587500D01*
X42000000Y-33587500D02*
X42087500Y-33500000D01*
X39010000Y-33587500D02*
X39197500Y-33775000D01*
%TO.N,VCC*%
X45500000Y-35475000D02*
X45225000Y-35750000D01*
X61500000Y-30000000D02*
X62000000Y-29500000D01*
X47125000Y-23450000D02*
X52475000Y-23450000D01*
X53642500Y-28392500D02*
X55250000Y-30000000D01*
X43750000Y-33662500D02*
X43862500Y-33775000D01*
X48945000Y-31397500D02*
X48910000Y-31432500D01*
X48910000Y-31432500D02*
X47650000Y-31432500D01*
X53862500Y-23612500D02*
X53250000Y-24225000D01*
X43862500Y-33775000D02*
X44556250Y-33775000D01*
X46898750Y-31432500D02*
X47650000Y-31432500D01*
X46275000Y-37975000D02*
X45200000Y-39050000D01*
X62000000Y-38540000D02*
X63000000Y-37540000D01*
X46275000Y-36525000D02*
X45500000Y-35750000D01*
X63000000Y-37540000D02*
X63000000Y-35000000D01*
X46275000Y-37975000D02*
X46275000Y-36525000D01*
X43750000Y-35750000D02*
X43750000Y-33662500D01*
X53862500Y-23612500D02*
X61336714Y-23612500D01*
X52275000Y-36725000D02*
X53050000Y-37500000D01*
X55250000Y-30000000D02*
X61500000Y-30000000D01*
X63000000Y-35000000D02*
X63000000Y-30500000D01*
X55775000Y-34750000D02*
X63000000Y-34750000D01*
X45375000Y-23450000D02*
X47125000Y-23450000D01*
X49800000Y-37500000D02*
X50575000Y-36725000D01*
X45200000Y-39050000D02*
X44387500Y-39050000D01*
X51950000Y-28392500D02*
X53642500Y-28392500D01*
X63000000Y-30500000D02*
X62000000Y-29500000D01*
X50750000Y-29592500D02*
X51950000Y-28392500D01*
X50575000Y-36725000D02*
X52275000Y-36725000D01*
X45225000Y-35750000D02*
X43750000Y-35750000D01*
X63000000Y-25275786D02*
X63000000Y-28500000D01*
X52475000Y-23450000D02*
X53250000Y-24225000D01*
X61336714Y-23612500D02*
X63000000Y-25275786D01*
X63000000Y-28500000D02*
X62000000Y-29500000D01*
X43750000Y-25075000D02*
X45375000Y-23450000D01*
X53025000Y-37500000D02*
X55775000Y-34750000D01*
X44556250Y-33775000D02*
X46898750Y-31432500D01*
%TO.N,+3V3*%
X46227500Y-30797500D02*
X47650000Y-30797500D01*
X49000000Y-29431250D02*
X49000000Y-25950000D01*
X45275000Y-31750000D02*
X46227500Y-30797500D01*
X52154314Y-33337500D02*
X49614314Y-30797500D01*
X49000000Y-25950000D02*
X48825000Y-25775000D01*
X49614314Y-30797500D02*
X47650000Y-30797500D01*
X47650000Y-30162500D02*
X48268750Y-30162500D01*
X52850000Y-33337500D02*
X52154314Y-33337500D01*
X47650000Y-30797500D02*
X47650000Y-30162500D01*
X48268750Y-30162500D02*
X49000000Y-29431250D01*
%TO.N,Net-(Q1-G)*%
X47625000Y-39300000D02*
X47500000Y-39425000D01*
X49375000Y-39300000D02*
X47625000Y-39300000D01*
X47500000Y-39425000D02*
X47325000Y-39425000D01*
X45800000Y-40950000D02*
X44387500Y-40950000D01*
X47325000Y-39425000D02*
X45800000Y-40950000D01*
X44387500Y-40950000D02*
X44753800Y-40950000D01*
%TO.N,Net-(Q1-D)*%
X52400000Y-41400000D02*
X51250000Y-40250000D01*
X53250000Y-41400000D02*
X52400000Y-41400000D01*
%TO.N,Net-(U2-K)*%
X58250000Y-39750000D02*
X62000000Y-36000000D01*
X53250000Y-39750000D02*
X58250000Y-39750000D01*
%TO.N,Net-(U1-RXD)*%
X50150000Y-25450000D02*
X48750000Y-24050000D01*
X50150000Y-30767500D02*
X50150000Y-25450000D01*
X52850000Y-32702500D02*
X52085000Y-32702500D01*
X52085000Y-32702500D02*
X50150000Y-30767500D01*
%TO.N,Net-(U1-TXD)*%
X46675000Y-35582500D02*
X46675000Y-38575000D01*
X46675000Y-38575000D02*
X45250000Y-40000000D01*
X45250000Y-40000000D02*
X42112500Y-40000000D01*
X47650000Y-34607500D02*
X46675000Y-35582500D01*
%TO.N,Net-(U3-OUT)*%
X52775000Y-26525000D02*
X54726372Y-26525000D01*
X54726372Y-26525000D02*
X56001372Y-25250000D01*
X52237500Y-25987500D02*
X52237500Y-25300001D01*
X56001372Y-25250000D02*
X59655000Y-25250000D01*
X52775000Y-26525000D02*
X52237500Y-25987500D01*
X52237500Y-25300001D02*
X51937499Y-25000000D01*
X51937499Y-25000000D02*
X51275000Y-25000000D01*
X51378052Y-25000000D02*
X51025000Y-25000000D01*
X59655000Y-25250000D02*
X62000000Y-27595000D01*
%TO.N,/USBI_N*%
X42000000Y-29975000D02*
X43650000Y-29975000D01*
X38235000Y-30312500D02*
X39010000Y-31087500D01*
X41287499Y-29975000D02*
X40662499Y-29350000D01*
X38235000Y-29750000D02*
X38235000Y-30312500D01*
X38635000Y-29350000D02*
X38235000Y-29750000D01*
X40662499Y-29350000D02*
X38635000Y-29350000D01*
X42000000Y-29975000D02*
X41287499Y-29975000D01*
%TO.N,/USBI_P*%
X38519314Y-28900000D02*
X37785000Y-29634314D01*
X43675000Y-28250000D02*
X42025000Y-28250000D01*
X37785000Y-30312500D02*
X37010000Y-31087500D01*
X41287499Y-28275000D02*
X40662499Y-28900000D01*
X40662499Y-28900000D02*
X38519314Y-28900000D01*
X37785000Y-29634314D02*
X37785000Y-30312500D01*
X42000000Y-28275000D02*
X41287499Y-28275000D01*
%TO.N,/USB_P*%
X46250000Y-28892500D02*
X46000410Y-28892500D01*
X45967500Y-28892500D02*
X45325000Y-28250000D01*
X47400000Y-28892500D02*
X46250000Y-28892500D01*
X46000410Y-28892500D02*
X45967500Y-28892500D01*
%TO.N,/USB_N*%
X45797500Y-29527500D02*
X45325000Y-30000000D01*
X47650000Y-29527500D02*
X45797500Y-29527500D01*
%TO.N,Net-(D1-A)*%
X42000000Y-23462500D02*
X43712500Y-23462500D01*
X43712500Y-23462500D02*
X43750000Y-23425000D01*
%TD*%
M02*
