%TF.GenerationSoftware,KiCad,Pcbnew,8.0.1*%
%TF.CreationDate,2024-08-02T13:46:57-04:00*%
%TF.ProjectId,booster-ftdi-board,626f6f73-7465-4722-9d66-7464692d626f,rev?*%
%TF.SameCoordinates,Original*%
%TF.FileFunction,Legend,Top*%
%TF.FilePolarity,Positive*%
%FSLAX46Y46*%
G04 Gerber Fmt 4.6, Leading zero omitted, Abs format (unit mm)*
G04 Created by KiCad (PCBNEW 8.0.1) date 2024-08-02 13:46:57*
%MOMM*%
%LPD*%
G01*
G04 APERTURE LIST*
%ADD10C,0.150000*%
%ADD11C,0.100000*%
%ADD12C,0.075000*%
%ADD13C,0.120000*%
G04 APERTURE END LIST*
D10*
X24586779Y-40869819D02*
X24586779Y-41679342D01*
X24586779Y-41679342D02*
X24634398Y-41774580D01*
X24634398Y-41774580D02*
X24682017Y-41822200D01*
X24682017Y-41822200D02*
X24777255Y-41869819D01*
X24777255Y-41869819D02*
X24967731Y-41869819D01*
X24967731Y-41869819D02*
X25062969Y-41822200D01*
X25062969Y-41822200D02*
X25110588Y-41774580D01*
X25110588Y-41774580D02*
X25158207Y-41679342D01*
X25158207Y-41679342D02*
X25158207Y-40869819D01*
X25586779Y-41822200D02*
X25729636Y-41869819D01*
X25729636Y-41869819D02*
X25967731Y-41869819D01*
X25967731Y-41869819D02*
X26062969Y-41822200D01*
X26062969Y-41822200D02*
X26110588Y-41774580D01*
X26110588Y-41774580D02*
X26158207Y-41679342D01*
X26158207Y-41679342D02*
X26158207Y-41584104D01*
X26158207Y-41584104D02*
X26110588Y-41488866D01*
X26110588Y-41488866D02*
X26062969Y-41441247D01*
X26062969Y-41441247D02*
X25967731Y-41393628D01*
X25967731Y-41393628D02*
X25777255Y-41346009D01*
X25777255Y-41346009D02*
X25682017Y-41298390D01*
X25682017Y-41298390D02*
X25634398Y-41250771D01*
X25634398Y-41250771D02*
X25586779Y-41155533D01*
X25586779Y-41155533D02*
X25586779Y-41060295D01*
X25586779Y-41060295D02*
X25634398Y-40965057D01*
X25634398Y-40965057D02*
X25682017Y-40917438D01*
X25682017Y-40917438D02*
X25777255Y-40869819D01*
X25777255Y-40869819D02*
X26015350Y-40869819D01*
X26015350Y-40869819D02*
X26158207Y-40917438D01*
X26920112Y-41346009D02*
X27062969Y-41393628D01*
X27062969Y-41393628D02*
X27110588Y-41441247D01*
X27110588Y-41441247D02*
X27158207Y-41536485D01*
X27158207Y-41536485D02*
X27158207Y-41679342D01*
X27158207Y-41679342D02*
X27110588Y-41774580D01*
X27110588Y-41774580D02*
X27062969Y-41822200D01*
X27062969Y-41822200D02*
X26967731Y-41869819D01*
X26967731Y-41869819D02*
X26586779Y-41869819D01*
X26586779Y-41869819D02*
X26586779Y-40869819D01*
X26586779Y-40869819D02*
X26920112Y-40869819D01*
X26920112Y-40869819D02*
X27015350Y-40917438D01*
X27015350Y-40917438D02*
X27062969Y-40965057D01*
X27062969Y-40965057D02*
X27110588Y-41060295D01*
X27110588Y-41060295D02*
X27110588Y-41155533D01*
X27110588Y-41155533D02*
X27062969Y-41250771D01*
X27062969Y-41250771D02*
X27015350Y-41298390D01*
X27015350Y-41298390D02*
X26920112Y-41346009D01*
X26920112Y-41346009D02*
X26586779Y-41346009D01*
X28301065Y-41822200D02*
X28443922Y-41869819D01*
X28443922Y-41869819D02*
X28682017Y-41869819D01*
X28682017Y-41869819D02*
X28777255Y-41822200D01*
X28777255Y-41822200D02*
X28824874Y-41774580D01*
X28824874Y-41774580D02*
X28872493Y-41679342D01*
X28872493Y-41679342D02*
X28872493Y-41584104D01*
X28872493Y-41584104D02*
X28824874Y-41488866D01*
X28824874Y-41488866D02*
X28777255Y-41441247D01*
X28777255Y-41441247D02*
X28682017Y-41393628D01*
X28682017Y-41393628D02*
X28491541Y-41346009D01*
X28491541Y-41346009D02*
X28396303Y-41298390D01*
X28396303Y-41298390D02*
X28348684Y-41250771D01*
X28348684Y-41250771D02*
X28301065Y-41155533D01*
X28301065Y-41155533D02*
X28301065Y-41060295D01*
X28301065Y-41060295D02*
X28348684Y-40965057D01*
X28348684Y-40965057D02*
X28396303Y-40917438D01*
X28396303Y-40917438D02*
X28491541Y-40869819D01*
X28491541Y-40869819D02*
X28729636Y-40869819D01*
X28729636Y-40869819D02*
X28872493Y-40917438D01*
X29301065Y-41346009D02*
X29634398Y-41346009D01*
X29777255Y-41869819D02*
X29301065Y-41869819D01*
X29301065Y-41869819D02*
X29301065Y-40869819D01*
X29301065Y-40869819D02*
X29777255Y-40869819D01*
X30777255Y-41869819D02*
X30443922Y-41393628D01*
X30205827Y-41869819D02*
X30205827Y-40869819D01*
X30205827Y-40869819D02*
X30586779Y-40869819D01*
X30586779Y-40869819D02*
X30682017Y-40917438D01*
X30682017Y-40917438D02*
X30729636Y-40965057D01*
X30729636Y-40965057D02*
X30777255Y-41060295D01*
X30777255Y-41060295D02*
X30777255Y-41203152D01*
X30777255Y-41203152D02*
X30729636Y-41298390D01*
X30729636Y-41298390D02*
X30682017Y-41346009D01*
X30682017Y-41346009D02*
X30586779Y-41393628D01*
X30586779Y-41393628D02*
X30205827Y-41393628D01*
X31205827Y-41869819D02*
X31205827Y-40869819D01*
X31634398Y-41584104D02*
X32110588Y-41584104D01*
X31539160Y-41869819D02*
X31872493Y-40869819D01*
X31872493Y-40869819D02*
X32205826Y-41869819D01*
X33015350Y-41869819D02*
X32539160Y-41869819D01*
X32539160Y-41869819D02*
X32539160Y-40869819D01*
X34062970Y-41584104D02*
X34539160Y-41584104D01*
X33967732Y-41869819D02*
X34301065Y-40869819D01*
X34301065Y-40869819D02*
X34634398Y-41869819D01*
X34967732Y-41869819D02*
X34967732Y-40869819D01*
X34967732Y-40869819D02*
X35205827Y-40869819D01*
X35205827Y-40869819D02*
X35348684Y-40917438D01*
X35348684Y-40917438D02*
X35443922Y-41012676D01*
X35443922Y-41012676D02*
X35491541Y-41107914D01*
X35491541Y-41107914D02*
X35539160Y-41298390D01*
X35539160Y-41298390D02*
X35539160Y-41441247D01*
X35539160Y-41441247D02*
X35491541Y-41631723D01*
X35491541Y-41631723D02*
X35443922Y-41726961D01*
X35443922Y-41726961D02*
X35348684Y-41822200D01*
X35348684Y-41822200D02*
X35205827Y-41869819D01*
X35205827Y-41869819D02*
X34967732Y-41869819D01*
X35920113Y-41584104D02*
X36396303Y-41584104D01*
X35824875Y-41869819D02*
X36158208Y-40869819D01*
X36158208Y-40869819D02*
X36491541Y-41869819D01*
X36824875Y-41869819D02*
X36824875Y-40869819D01*
X36824875Y-40869819D02*
X37205827Y-40869819D01*
X37205827Y-40869819D02*
X37301065Y-40917438D01*
X37301065Y-40917438D02*
X37348684Y-40965057D01*
X37348684Y-40965057D02*
X37396303Y-41060295D01*
X37396303Y-41060295D02*
X37396303Y-41203152D01*
X37396303Y-41203152D02*
X37348684Y-41298390D01*
X37348684Y-41298390D02*
X37301065Y-41346009D01*
X37301065Y-41346009D02*
X37205827Y-41393628D01*
X37205827Y-41393628D02*
X36824875Y-41393628D01*
X37682018Y-40869819D02*
X38253446Y-40869819D01*
X37967732Y-41869819D02*
X37967732Y-40869819D01*
X38586780Y-41346009D02*
X38920113Y-41346009D01*
X39062970Y-41869819D02*
X38586780Y-41869819D01*
X38586780Y-41869819D02*
X38586780Y-40869819D01*
X38586780Y-40869819D02*
X39062970Y-40869819D01*
X40062970Y-41869819D02*
X39729637Y-41393628D01*
X39491542Y-41869819D02*
X39491542Y-40869819D01*
X39491542Y-40869819D02*
X39872494Y-40869819D01*
X39872494Y-40869819D02*
X39967732Y-40917438D01*
X39967732Y-40917438D02*
X40015351Y-40965057D01*
X40015351Y-40965057D02*
X40062970Y-41060295D01*
X40062970Y-41060295D02*
X40062970Y-41203152D01*
X40062970Y-41203152D02*
X40015351Y-41298390D01*
X40015351Y-41298390D02*
X39967732Y-41346009D01*
X39967732Y-41346009D02*
X39872494Y-41393628D01*
X39872494Y-41393628D02*
X39491542Y-41393628D01*
D11*
X60960080Y-26678095D02*
X60150557Y-26678095D01*
X60150557Y-26678095D02*
X60055319Y-26725714D01*
X60055319Y-26725714D02*
X60007700Y-26773333D01*
X60007700Y-26773333D02*
X59960080Y-26868571D01*
X59960080Y-26868571D02*
X59960080Y-27059047D01*
X59960080Y-27059047D02*
X60007700Y-27154285D01*
X60007700Y-27154285D02*
X60055319Y-27201904D01*
X60055319Y-27201904D02*
X60150557Y-27249523D01*
X60150557Y-27249523D02*
X60960080Y-27249523D01*
X60960080Y-27630476D02*
X60960080Y-28249523D01*
X60960080Y-28249523D02*
X60579128Y-27916190D01*
X60579128Y-27916190D02*
X60579128Y-28059047D01*
X60579128Y-28059047D02*
X60531509Y-28154285D01*
X60531509Y-28154285D02*
X60483890Y-28201904D01*
X60483890Y-28201904D02*
X60388652Y-28249523D01*
X60388652Y-28249523D02*
X60150557Y-28249523D01*
X60150557Y-28249523D02*
X60055319Y-28201904D01*
X60055319Y-28201904D02*
X60007700Y-28154285D01*
X60007700Y-28154285D02*
X59960080Y-28059047D01*
X59960080Y-28059047D02*
X59960080Y-27773333D01*
X59960080Y-27773333D02*
X60007700Y-27678095D01*
X60007700Y-27678095D02*
X60055319Y-27630476D01*
D12*
X42977742Y-33999999D02*
X42977742Y-34099999D01*
X43134885Y-34099999D02*
X42834885Y-34099999D01*
X42834885Y-34099999D02*
X42834885Y-33957142D01*
X42977742Y-33742856D02*
X42992028Y-33699999D01*
X42992028Y-33699999D02*
X43006314Y-33685713D01*
X43006314Y-33685713D02*
X43034885Y-33671427D01*
X43034885Y-33671427D02*
X43077742Y-33671427D01*
X43077742Y-33671427D02*
X43106314Y-33685713D01*
X43106314Y-33685713D02*
X43120600Y-33699999D01*
X43120600Y-33699999D02*
X43134885Y-33728570D01*
X43134885Y-33728570D02*
X43134885Y-33842856D01*
X43134885Y-33842856D02*
X42834885Y-33842856D01*
X42834885Y-33842856D02*
X42834885Y-33742856D01*
X42834885Y-33742856D02*
X42849171Y-33714285D01*
X42849171Y-33714285D02*
X42863457Y-33699999D01*
X42863457Y-33699999D02*
X42892028Y-33685713D01*
X42892028Y-33685713D02*
X42920600Y-33685713D01*
X42920600Y-33685713D02*
X42949171Y-33699999D01*
X42949171Y-33699999D02*
X42963457Y-33714285D01*
X42963457Y-33714285D02*
X42977742Y-33742856D01*
X42977742Y-33742856D02*
X42977742Y-33842856D01*
X43134885Y-33385713D02*
X43134885Y-33557142D01*
X43134885Y-33471427D02*
X42834885Y-33471427D01*
X42834885Y-33471427D02*
X42877742Y-33499999D01*
X42877742Y-33499999D02*
X42906314Y-33528570D01*
X42906314Y-33528570D02*
X42920600Y-33557142D01*
X53057143Y-25106314D02*
X53042857Y-25120600D01*
X53042857Y-25120600D02*
X53000000Y-25134885D01*
X53000000Y-25134885D02*
X52971428Y-25134885D01*
X52971428Y-25134885D02*
X52928571Y-25120600D01*
X52928571Y-25120600D02*
X52900000Y-25092028D01*
X52900000Y-25092028D02*
X52885714Y-25063457D01*
X52885714Y-25063457D02*
X52871428Y-25006314D01*
X52871428Y-25006314D02*
X52871428Y-24963457D01*
X52871428Y-24963457D02*
X52885714Y-24906314D01*
X52885714Y-24906314D02*
X52900000Y-24877742D01*
X52900000Y-24877742D02*
X52928571Y-24849171D01*
X52928571Y-24849171D02*
X52971428Y-24834885D01*
X52971428Y-24834885D02*
X53000000Y-24834885D01*
X53000000Y-24834885D02*
X53042857Y-24849171D01*
X53042857Y-24849171D02*
X53057143Y-24863457D01*
X53342857Y-25134885D02*
X53171428Y-25134885D01*
X53257143Y-25134885D02*
X53257143Y-24834885D01*
X53257143Y-24834885D02*
X53228571Y-24877742D01*
X53228571Y-24877742D02*
X53200000Y-24906314D01*
X53200000Y-24906314D02*
X53171428Y-24920600D01*
X53628571Y-25134885D02*
X53457142Y-25134885D01*
X53542857Y-25134885D02*
X53542857Y-24834885D01*
X53542857Y-24834885D02*
X53514285Y-24877742D01*
X53514285Y-24877742D02*
X53485714Y-24906314D01*
X53485714Y-24906314D02*
X53457142Y-24920600D01*
D11*
X60710080Y-36508095D02*
X59900557Y-36508095D01*
X59900557Y-36508095D02*
X59805319Y-36555714D01*
X59805319Y-36555714D02*
X59757700Y-36603333D01*
X59757700Y-36603333D02*
X59710080Y-36698571D01*
X59710080Y-36698571D02*
X59710080Y-36889047D01*
X59710080Y-36889047D02*
X59757700Y-36984285D01*
X59757700Y-36984285D02*
X59805319Y-37031904D01*
X59805319Y-37031904D02*
X59900557Y-37079523D01*
X59900557Y-37079523D02*
X60710080Y-37079523D01*
X60614842Y-37508095D02*
X60662461Y-37555714D01*
X60662461Y-37555714D02*
X60710080Y-37650952D01*
X60710080Y-37650952D02*
X60710080Y-37889047D01*
X60710080Y-37889047D02*
X60662461Y-37984285D01*
X60662461Y-37984285D02*
X60614842Y-38031904D01*
X60614842Y-38031904D02*
X60519604Y-38079523D01*
X60519604Y-38079523D02*
X60424366Y-38079523D01*
X60424366Y-38079523D02*
X60281509Y-38031904D01*
X60281509Y-38031904D02*
X59710080Y-37460476D01*
X59710080Y-37460476D02*
X59710080Y-38079523D01*
D12*
X49106314Y-37549999D02*
X49120600Y-37564285D01*
X49120600Y-37564285D02*
X49134885Y-37607142D01*
X49134885Y-37607142D02*
X49134885Y-37635714D01*
X49134885Y-37635714D02*
X49120600Y-37678571D01*
X49120600Y-37678571D02*
X49092028Y-37707142D01*
X49092028Y-37707142D02*
X49063457Y-37721428D01*
X49063457Y-37721428D02*
X49006314Y-37735714D01*
X49006314Y-37735714D02*
X48963457Y-37735714D01*
X48963457Y-37735714D02*
X48906314Y-37721428D01*
X48906314Y-37721428D02*
X48877742Y-37707142D01*
X48877742Y-37707142D02*
X48849171Y-37678571D01*
X48849171Y-37678571D02*
X48834885Y-37635714D01*
X48834885Y-37635714D02*
X48834885Y-37607142D01*
X48834885Y-37607142D02*
X48849171Y-37564285D01*
X48849171Y-37564285D02*
X48863457Y-37549999D01*
X49134885Y-37407142D02*
X49134885Y-37349999D01*
X49134885Y-37349999D02*
X49120600Y-37321428D01*
X49120600Y-37321428D02*
X49106314Y-37307142D01*
X49106314Y-37307142D02*
X49063457Y-37278571D01*
X49063457Y-37278571D02*
X49006314Y-37264285D01*
X49006314Y-37264285D02*
X48892028Y-37264285D01*
X48892028Y-37264285D02*
X48863457Y-37278571D01*
X48863457Y-37278571D02*
X48849171Y-37292857D01*
X48849171Y-37292857D02*
X48834885Y-37321428D01*
X48834885Y-37321428D02*
X48834885Y-37378571D01*
X48834885Y-37378571D02*
X48849171Y-37407142D01*
X48849171Y-37407142D02*
X48863457Y-37421428D01*
X48863457Y-37421428D02*
X48892028Y-37435714D01*
X48892028Y-37435714D02*
X48963457Y-37435714D01*
X48963457Y-37435714D02*
X48992028Y-37421428D01*
X48992028Y-37421428D02*
X49006314Y-37407142D01*
X49006314Y-37407142D02*
X49020600Y-37378571D01*
X49020600Y-37378571D02*
X49020600Y-37321428D01*
X49020600Y-37321428D02*
X49006314Y-37292857D01*
X49006314Y-37292857D02*
X48992028Y-37278571D01*
X48992028Y-37278571D02*
X48963457Y-37264285D01*
X44634885Y-28299999D02*
X44492028Y-28399999D01*
X44634885Y-28471428D02*
X44334885Y-28471428D01*
X44334885Y-28471428D02*
X44334885Y-28357142D01*
X44334885Y-28357142D02*
X44349171Y-28328571D01*
X44349171Y-28328571D02*
X44363457Y-28314285D01*
X44363457Y-28314285D02*
X44392028Y-28299999D01*
X44392028Y-28299999D02*
X44434885Y-28299999D01*
X44434885Y-28299999D02*
X44463457Y-28314285D01*
X44463457Y-28314285D02*
X44477742Y-28328571D01*
X44477742Y-28328571D02*
X44492028Y-28357142D01*
X44492028Y-28357142D02*
X44492028Y-28471428D01*
X44634885Y-28014285D02*
X44634885Y-28185714D01*
X44634885Y-28099999D02*
X44334885Y-28099999D01*
X44334885Y-28099999D02*
X44377742Y-28128571D01*
X44377742Y-28128571D02*
X44406314Y-28157142D01*
X44406314Y-28157142D02*
X44420600Y-28185714D01*
D11*
X43226109Y-40380952D02*
X43630871Y-40380952D01*
X43630871Y-40380952D02*
X43678490Y-40357142D01*
X43678490Y-40357142D02*
X43702300Y-40333333D01*
X43702300Y-40333333D02*
X43726109Y-40285714D01*
X43726109Y-40285714D02*
X43726109Y-40190476D01*
X43726109Y-40190476D02*
X43702300Y-40142857D01*
X43702300Y-40142857D02*
X43678490Y-40119047D01*
X43678490Y-40119047D02*
X43630871Y-40095238D01*
X43630871Y-40095238D02*
X43226109Y-40095238D01*
X43226109Y-39619047D02*
X43226109Y-39857142D01*
X43226109Y-39857142D02*
X43464204Y-39880951D01*
X43464204Y-39880951D02*
X43440395Y-39857142D01*
X43440395Y-39857142D02*
X43416585Y-39809523D01*
X43416585Y-39809523D02*
X43416585Y-39690475D01*
X43416585Y-39690475D02*
X43440395Y-39642856D01*
X43440395Y-39642856D02*
X43464204Y-39619047D01*
X43464204Y-39619047D02*
X43511823Y-39595237D01*
X43511823Y-39595237D02*
X43630871Y-39595237D01*
X43630871Y-39595237D02*
X43678490Y-39619047D01*
X43678490Y-39619047D02*
X43702300Y-39642856D01*
X43702300Y-39642856D02*
X43726109Y-39690475D01*
X43726109Y-39690475D02*
X43726109Y-39809523D01*
X43726109Y-39809523D02*
X43702300Y-39857142D01*
X43702300Y-39857142D02*
X43678490Y-39880951D01*
D12*
X45325000Y-24331314D02*
X45310714Y-24345600D01*
X45310714Y-24345600D02*
X45267857Y-24359885D01*
X45267857Y-24359885D02*
X45239285Y-24359885D01*
X45239285Y-24359885D02*
X45196428Y-24345600D01*
X45196428Y-24345600D02*
X45167857Y-24317028D01*
X45167857Y-24317028D02*
X45153571Y-24288457D01*
X45153571Y-24288457D02*
X45139285Y-24231314D01*
X45139285Y-24231314D02*
X45139285Y-24188457D01*
X45139285Y-24188457D02*
X45153571Y-24131314D01*
X45153571Y-24131314D02*
X45167857Y-24102742D01*
X45167857Y-24102742D02*
X45196428Y-24074171D01*
X45196428Y-24074171D02*
X45239285Y-24059885D01*
X45239285Y-24059885D02*
X45267857Y-24059885D01*
X45267857Y-24059885D02*
X45310714Y-24074171D01*
X45310714Y-24074171D02*
X45325000Y-24088457D01*
X45496428Y-24188457D02*
X45467857Y-24174171D01*
X45467857Y-24174171D02*
X45453571Y-24159885D01*
X45453571Y-24159885D02*
X45439285Y-24131314D01*
X45439285Y-24131314D02*
X45439285Y-24117028D01*
X45439285Y-24117028D02*
X45453571Y-24088457D01*
X45453571Y-24088457D02*
X45467857Y-24074171D01*
X45467857Y-24074171D02*
X45496428Y-24059885D01*
X45496428Y-24059885D02*
X45553571Y-24059885D01*
X45553571Y-24059885D02*
X45582143Y-24074171D01*
X45582143Y-24074171D02*
X45596428Y-24088457D01*
X45596428Y-24088457D02*
X45610714Y-24117028D01*
X45610714Y-24117028D02*
X45610714Y-24131314D01*
X45610714Y-24131314D02*
X45596428Y-24159885D01*
X45596428Y-24159885D02*
X45582143Y-24174171D01*
X45582143Y-24174171D02*
X45553571Y-24188457D01*
X45553571Y-24188457D02*
X45496428Y-24188457D01*
X45496428Y-24188457D02*
X45467857Y-24202742D01*
X45467857Y-24202742D02*
X45453571Y-24217028D01*
X45453571Y-24217028D02*
X45439285Y-24245600D01*
X45439285Y-24245600D02*
X45439285Y-24302742D01*
X45439285Y-24302742D02*
X45453571Y-24331314D01*
X45453571Y-24331314D02*
X45467857Y-24345600D01*
X45467857Y-24345600D02*
X45496428Y-24359885D01*
X45496428Y-24359885D02*
X45553571Y-24359885D01*
X45553571Y-24359885D02*
X45582143Y-24345600D01*
X45582143Y-24345600D02*
X45596428Y-24331314D01*
X45596428Y-24331314D02*
X45610714Y-24302742D01*
X45610714Y-24302742D02*
X45610714Y-24245600D01*
X45610714Y-24245600D02*
X45596428Y-24217028D01*
X45596428Y-24217028D02*
X45582143Y-24202742D01*
X45582143Y-24202742D02*
X45553571Y-24188457D01*
D11*
X49369047Y-24726109D02*
X49369047Y-25130871D01*
X49369047Y-25130871D02*
X49392857Y-25178490D01*
X49392857Y-25178490D02*
X49416666Y-25202300D01*
X49416666Y-25202300D02*
X49464285Y-25226109D01*
X49464285Y-25226109D02*
X49559523Y-25226109D01*
X49559523Y-25226109D02*
X49607142Y-25202300D01*
X49607142Y-25202300D02*
X49630952Y-25178490D01*
X49630952Y-25178490D02*
X49654761Y-25130871D01*
X49654761Y-25130871D02*
X49654761Y-24726109D01*
X50107143Y-24892776D02*
X50107143Y-25226109D01*
X49988095Y-24702300D02*
X49869048Y-25059442D01*
X49869048Y-25059442D02*
X50178571Y-25059442D01*
D12*
X44634885Y-30049999D02*
X44492028Y-30149999D01*
X44634885Y-30221428D02*
X44334885Y-30221428D01*
X44334885Y-30221428D02*
X44334885Y-30107142D01*
X44334885Y-30107142D02*
X44349171Y-30078571D01*
X44349171Y-30078571D02*
X44363457Y-30064285D01*
X44363457Y-30064285D02*
X44392028Y-30049999D01*
X44392028Y-30049999D02*
X44434885Y-30049999D01*
X44434885Y-30049999D02*
X44463457Y-30064285D01*
X44463457Y-30064285D02*
X44477742Y-30078571D01*
X44477742Y-30078571D02*
X44492028Y-30107142D01*
X44492028Y-30107142D02*
X44492028Y-30221428D01*
X44363457Y-29935714D02*
X44349171Y-29921428D01*
X44349171Y-29921428D02*
X44334885Y-29892857D01*
X44334885Y-29892857D02*
X44334885Y-29821428D01*
X44334885Y-29821428D02*
X44349171Y-29792857D01*
X44349171Y-29792857D02*
X44363457Y-29778571D01*
X44363457Y-29778571D02*
X44392028Y-29764285D01*
X44392028Y-29764285D02*
X44420600Y-29764285D01*
X44420600Y-29764285D02*
X44463457Y-29778571D01*
X44463457Y-29778571D02*
X44634885Y-29949999D01*
X44634885Y-29949999D02*
X44634885Y-29764285D01*
X41950000Y-36606314D02*
X41935714Y-36620600D01*
X41935714Y-36620600D02*
X41892857Y-36634885D01*
X41892857Y-36634885D02*
X41864285Y-36634885D01*
X41864285Y-36634885D02*
X41821428Y-36620600D01*
X41821428Y-36620600D02*
X41792857Y-36592028D01*
X41792857Y-36592028D02*
X41778571Y-36563457D01*
X41778571Y-36563457D02*
X41764285Y-36506314D01*
X41764285Y-36506314D02*
X41764285Y-36463457D01*
X41764285Y-36463457D02*
X41778571Y-36406314D01*
X41778571Y-36406314D02*
X41792857Y-36377742D01*
X41792857Y-36377742D02*
X41821428Y-36349171D01*
X41821428Y-36349171D02*
X41864285Y-36334885D01*
X41864285Y-36334885D02*
X41892857Y-36334885D01*
X41892857Y-36334885D02*
X41935714Y-36349171D01*
X41935714Y-36349171D02*
X41950000Y-36363457D01*
X42235714Y-36634885D02*
X42064285Y-36634885D01*
X42150000Y-36634885D02*
X42150000Y-36334885D01*
X42150000Y-36334885D02*
X42121428Y-36377742D01*
X42121428Y-36377742D02*
X42092857Y-36406314D01*
X42092857Y-36406314D02*
X42064285Y-36420600D01*
X43700000Y-36631314D02*
X43685714Y-36645600D01*
X43685714Y-36645600D02*
X43642857Y-36659885D01*
X43642857Y-36659885D02*
X43614285Y-36659885D01*
X43614285Y-36659885D02*
X43571428Y-36645600D01*
X43571428Y-36645600D02*
X43542857Y-36617028D01*
X43542857Y-36617028D02*
X43528571Y-36588457D01*
X43528571Y-36588457D02*
X43514285Y-36531314D01*
X43514285Y-36531314D02*
X43514285Y-36488457D01*
X43514285Y-36488457D02*
X43528571Y-36431314D01*
X43528571Y-36431314D02*
X43542857Y-36402742D01*
X43542857Y-36402742D02*
X43571428Y-36374171D01*
X43571428Y-36374171D02*
X43614285Y-36359885D01*
X43614285Y-36359885D02*
X43642857Y-36359885D01*
X43642857Y-36359885D02*
X43685714Y-36374171D01*
X43685714Y-36374171D02*
X43700000Y-36388457D01*
X43957143Y-36459885D02*
X43957143Y-36659885D01*
X43885714Y-36345600D02*
X43814285Y-36559885D01*
X43814285Y-36559885D02*
X44000000Y-36559885D01*
X53200000Y-40634885D02*
X53100000Y-40492028D01*
X53028571Y-40634885D02*
X53028571Y-40334885D01*
X53028571Y-40334885D02*
X53142857Y-40334885D01*
X53142857Y-40334885D02*
X53171428Y-40349171D01*
X53171428Y-40349171D02*
X53185714Y-40363457D01*
X53185714Y-40363457D02*
X53200000Y-40392028D01*
X53200000Y-40392028D02*
X53200000Y-40434885D01*
X53200000Y-40434885D02*
X53185714Y-40463457D01*
X53185714Y-40463457D02*
X53171428Y-40477742D01*
X53171428Y-40477742D02*
X53142857Y-40492028D01*
X53142857Y-40492028D02*
X53028571Y-40492028D01*
X53457143Y-40434885D02*
X53457143Y-40634885D01*
X53385714Y-40320600D02*
X53314285Y-40534885D01*
X53314285Y-40534885D02*
X53500000Y-40534885D01*
X47421200Y-40384885D02*
X47321200Y-40242028D01*
X47249771Y-40384885D02*
X47249771Y-40084885D01*
X47249771Y-40084885D02*
X47364057Y-40084885D01*
X47364057Y-40084885D02*
X47392628Y-40099171D01*
X47392628Y-40099171D02*
X47406914Y-40113457D01*
X47406914Y-40113457D02*
X47421200Y-40142028D01*
X47421200Y-40142028D02*
X47421200Y-40184885D01*
X47421200Y-40184885D02*
X47406914Y-40213457D01*
X47406914Y-40213457D02*
X47392628Y-40227742D01*
X47392628Y-40227742D02*
X47364057Y-40242028D01*
X47364057Y-40242028D02*
X47249771Y-40242028D01*
X47521200Y-40084885D02*
X47706914Y-40084885D01*
X47706914Y-40084885D02*
X47606914Y-40199171D01*
X47606914Y-40199171D02*
X47649771Y-40199171D01*
X47649771Y-40199171D02*
X47678343Y-40213457D01*
X47678343Y-40213457D02*
X47692628Y-40227742D01*
X47692628Y-40227742D02*
X47706914Y-40256314D01*
X47706914Y-40256314D02*
X47706914Y-40327742D01*
X47706914Y-40327742D02*
X47692628Y-40356314D01*
X47692628Y-40356314D02*
X47678343Y-40370600D01*
X47678343Y-40370600D02*
X47649771Y-40384885D01*
X47649771Y-40384885D02*
X47564057Y-40384885D01*
X47564057Y-40384885D02*
X47535485Y-40370600D01*
X47535485Y-40370600D02*
X47521200Y-40356314D01*
X43700000Y-24384885D02*
X43600000Y-24242028D01*
X43528571Y-24384885D02*
X43528571Y-24084885D01*
X43528571Y-24084885D02*
X43642857Y-24084885D01*
X43642857Y-24084885D02*
X43671428Y-24099171D01*
X43671428Y-24099171D02*
X43685714Y-24113457D01*
X43685714Y-24113457D02*
X43700000Y-24142028D01*
X43700000Y-24142028D02*
X43700000Y-24184885D01*
X43700000Y-24184885D02*
X43685714Y-24213457D01*
X43685714Y-24213457D02*
X43671428Y-24227742D01*
X43671428Y-24227742D02*
X43642857Y-24242028D01*
X43642857Y-24242028D02*
X43528571Y-24242028D01*
X43971428Y-24084885D02*
X43828571Y-24084885D01*
X43828571Y-24084885D02*
X43814285Y-24227742D01*
X43814285Y-24227742D02*
X43828571Y-24213457D01*
X43828571Y-24213457D02*
X43857143Y-24199171D01*
X43857143Y-24199171D02*
X43928571Y-24199171D01*
X43928571Y-24199171D02*
X43957143Y-24213457D01*
X43957143Y-24213457D02*
X43971428Y-24227742D01*
X43971428Y-24227742D02*
X43985714Y-24256314D01*
X43985714Y-24256314D02*
X43985714Y-24327742D01*
X43985714Y-24327742D02*
X43971428Y-24356314D01*
X43971428Y-24356314D02*
X43957143Y-24370600D01*
X43957143Y-24370600D02*
X43928571Y-24384885D01*
X43928571Y-24384885D02*
X43857143Y-24384885D01*
X43857143Y-24384885D02*
X43828571Y-24370600D01*
X43828571Y-24370600D02*
X43814285Y-24356314D01*
X44606314Y-31799999D02*
X44620600Y-31814285D01*
X44620600Y-31814285D02*
X44634885Y-31857142D01*
X44634885Y-31857142D02*
X44634885Y-31885714D01*
X44634885Y-31885714D02*
X44620600Y-31928571D01*
X44620600Y-31928571D02*
X44592028Y-31957142D01*
X44592028Y-31957142D02*
X44563457Y-31971428D01*
X44563457Y-31971428D02*
X44506314Y-31985714D01*
X44506314Y-31985714D02*
X44463457Y-31985714D01*
X44463457Y-31985714D02*
X44406314Y-31971428D01*
X44406314Y-31971428D02*
X44377742Y-31957142D01*
X44377742Y-31957142D02*
X44349171Y-31928571D01*
X44349171Y-31928571D02*
X44334885Y-31885714D01*
X44334885Y-31885714D02*
X44334885Y-31857142D01*
X44334885Y-31857142D02*
X44349171Y-31814285D01*
X44349171Y-31814285D02*
X44363457Y-31799999D01*
X44334885Y-31542857D02*
X44334885Y-31599999D01*
X44334885Y-31599999D02*
X44349171Y-31628571D01*
X44349171Y-31628571D02*
X44363457Y-31642857D01*
X44363457Y-31642857D02*
X44406314Y-31671428D01*
X44406314Y-31671428D02*
X44463457Y-31685714D01*
X44463457Y-31685714D02*
X44577742Y-31685714D01*
X44577742Y-31685714D02*
X44606314Y-31671428D01*
X44606314Y-31671428D02*
X44620600Y-31657142D01*
X44620600Y-31657142D02*
X44634885Y-31628571D01*
X44634885Y-31628571D02*
X44634885Y-31571428D01*
X44634885Y-31571428D02*
X44620600Y-31542857D01*
X44620600Y-31542857D02*
X44606314Y-31528571D01*
X44606314Y-31528571D02*
X44577742Y-31514285D01*
X44577742Y-31514285D02*
X44506314Y-31514285D01*
X44506314Y-31514285D02*
X44477742Y-31528571D01*
X44477742Y-31528571D02*
X44463457Y-31542857D01*
X44463457Y-31542857D02*
X44449171Y-31571428D01*
X44449171Y-31571428D02*
X44449171Y-31628571D01*
X44449171Y-31628571D02*
X44463457Y-31657142D01*
X44463457Y-31657142D02*
X44477742Y-31671428D01*
X44477742Y-31671428D02*
X44506314Y-31685714D01*
X41778571Y-24384885D02*
X41778571Y-24084885D01*
X41778571Y-24084885D02*
X41850000Y-24084885D01*
X41850000Y-24084885D02*
X41892857Y-24099171D01*
X41892857Y-24099171D02*
X41921428Y-24127742D01*
X41921428Y-24127742D02*
X41935714Y-24156314D01*
X41935714Y-24156314D02*
X41950000Y-24213457D01*
X41950000Y-24213457D02*
X41950000Y-24256314D01*
X41950000Y-24256314D02*
X41935714Y-24313457D01*
X41935714Y-24313457D02*
X41921428Y-24342028D01*
X41921428Y-24342028D02*
X41892857Y-24370600D01*
X41892857Y-24370600D02*
X41850000Y-24384885D01*
X41850000Y-24384885D02*
X41778571Y-24384885D01*
X42235714Y-24384885D02*
X42064285Y-24384885D01*
X42150000Y-24384885D02*
X42150000Y-24084885D01*
X42150000Y-24084885D02*
X42121428Y-24127742D01*
X42121428Y-24127742D02*
X42092857Y-24156314D01*
X42092857Y-24156314D02*
X42064285Y-24170600D01*
X47075000Y-24331314D02*
X47060714Y-24345600D01*
X47060714Y-24345600D02*
X47017857Y-24359885D01*
X47017857Y-24359885D02*
X46989285Y-24359885D01*
X46989285Y-24359885D02*
X46946428Y-24345600D01*
X46946428Y-24345600D02*
X46917857Y-24317028D01*
X46917857Y-24317028D02*
X46903571Y-24288457D01*
X46903571Y-24288457D02*
X46889285Y-24231314D01*
X46889285Y-24231314D02*
X46889285Y-24188457D01*
X46889285Y-24188457D02*
X46903571Y-24131314D01*
X46903571Y-24131314D02*
X46917857Y-24102742D01*
X46917857Y-24102742D02*
X46946428Y-24074171D01*
X46946428Y-24074171D02*
X46989285Y-24059885D01*
X46989285Y-24059885D02*
X47017857Y-24059885D01*
X47017857Y-24059885D02*
X47060714Y-24074171D01*
X47060714Y-24074171D02*
X47075000Y-24088457D01*
X47175000Y-24059885D02*
X47375000Y-24059885D01*
X47375000Y-24059885D02*
X47246428Y-24359885D01*
X50225957Y-40278571D02*
X50211671Y-40307142D01*
X50211671Y-40307142D02*
X50183100Y-40335714D01*
X50183100Y-40335714D02*
X50140242Y-40378571D01*
X50140242Y-40378571D02*
X50125957Y-40407142D01*
X50125957Y-40407142D02*
X50125957Y-40435714D01*
X50197385Y-40421428D02*
X50183100Y-40450000D01*
X50183100Y-40450000D02*
X50154528Y-40478571D01*
X50154528Y-40478571D02*
X50097385Y-40492857D01*
X50097385Y-40492857D02*
X49997385Y-40492857D01*
X49997385Y-40492857D02*
X49940242Y-40478571D01*
X49940242Y-40478571D02*
X49911671Y-40450000D01*
X49911671Y-40450000D02*
X49897385Y-40421428D01*
X49897385Y-40421428D02*
X49897385Y-40364285D01*
X49897385Y-40364285D02*
X49911671Y-40335714D01*
X49911671Y-40335714D02*
X49940242Y-40307142D01*
X49940242Y-40307142D02*
X49997385Y-40292857D01*
X49997385Y-40292857D02*
X50097385Y-40292857D01*
X50097385Y-40292857D02*
X50154528Y-40307142D01*
X50154528Y-40307142D02*
X50183100Y-40335714D01*
X50183100Y-40335714D02*
X50197385Y-40364285D01*
X50197385Y-40364285D02*
X50197385Y-40421428D01*
X50197385Y-40007142D02*
X50197385Y-40178571D01*
X50197385Y-40092856D02*
X49897385Y-40092856D01*
X49897385Y-40092856D02*
X49940242Y-40121428D01*
X49940242Y-40121428D02*
X49968814Y-40149999D01*
X49968814Y-40149999D02*
X49983100Y-40178571D01*
X41950000Y-27606314D02*
X41935714Y-27620600D01*
X41935714Y-27620600D02*
X41892857Y-27634885D01*
X41892857Y-27634885D02*
X41864285Y-27634885D01*
X41864285Y-27634885D02*
X41821428Y-27620600D01*
X41821428Y-27620600D02*
X41792857Y-27592028D01*
X41792857Y-27592028D02*
X41778571Y-27563457D01*
X41778571Y-27563457D02*
X41764285Y-27506314D01*
X41764285Y-27506314D02*
X41764285Y-27463457D01*
X41764285Y-27463457D02*
X41778571Y-27406314D01*
X41778571Y-27406314D02*
X41792857Y-27377742D01*
X41792857Y-27377742D02*
X41821428Y-27349171D01*
X41821428Y-27349171D02*
X41864285Y-27334885D01*
X41864285Y-27334885D02*
X41892857Y-27334885D01*
X41892857Y-27334885D02*
X41935714Y-27349171D01*
X41935714Y-27349171D02*
X41950000Y-27363457D01*
X42050000Y-27334885D02*
X42235714Y-27334885D01*
X42235714Y-27334885D02*
X42135714Y-27449171D01*
X42135714Y-27449171D02*
X42178571Y-27449171D01*
X42178571Y-27449171D02*
X42207143Y-27463457D01*
X42207143Y-27463457D02*
X42221428Y-27477742D01*
X42221428Y-27477742D02*
X42235714Y-27506314D01*
X42235714Y-27506314D02*
X42235714Y-27577742D01*
X42235714Y-27577742D02*
X42221428Y-27606314D01*
X42221428Y-27606314D02*
X42207143Y-27620600D01*
X42207143Y-27620600D02*
X42178571Y-27634885D01*
X42178571Y-27634885D02*
X42092857Y-27634885D01*
X42092857Y-27634885D02*
X42064285Y-27620600D01*
X42064285Y-27620600D02*
X42050000Y-27606314D01*
X52356314Y-37692856D02*
X52370600Y-37707142D01*
X52370600Y-37707142D02*
X52384885Y-37749999D01*
X52384885Y-37749999D02*
X52384885Y-37778571D01*
X52384885Y-37778571D02*
X52370600Y-37821428D01*
X52370600Y-37821428D02*
X52342028Y-37849999D01*
X52342028Y-37849999D02*
X52313457Y-37864285D01*
X52313457Y-37864285D02*
X52256314Y-37878571D01*
X52256314Y-37878571D02*
X52213457Y-37878571D01*
X52213457Y-37878571D02*
X52156314Y-37864285D01*
X52156314Y-37864285D02*
X52127742Y-37849999D01*
X52127742Y-37849999D02*
X52099171Y-37821428D01*
X52099171Y-37821428D02*
X52084885Y-37778571D01*
X52084885Y-37778571D02*
X52084885Y-37749999D01*
X52084885Y-37749999D02*
X52099171Y-37707142D01*
X52099171Y-37707142D02*
X52113457Y-37692856D01*
X52384885Y-37407142D02*
X52384885Y-37578571D01*
X52384885Y-37492856D02*
X52084885Y-37492856D01*
X52084885Y-37492856D02*
X52127742Y-37521428D01*
X52127742Y-37521428D02*
X52156314Y-37549999D01*
X52156314Y-37549999D02*
X52170600Y-37578571D01*
X52084885Y-37221428D02*
X52084885Y-37192857D01*
X52084885Y-37192857D02*
X52099171Y-37164285D01*
X52099171Y-37164285D02*
X52113457Y-37150000D01*
X52113457Y-37150000D02*
X52142028Y-37135714D01*
X52142028Y-37135714D02*
X52199171Y-37121428D01*
X52199171Y-37121428D02*
X52270600Y-37121428D01*
X52270600Y-37121428D02*
X52327742Y-37135714D01*
X52327742Y-37135714D02*
X52356314Y-37150000D01*
X52356314Y-37150000D02*
X52370600Y-37164285D01*
X52370600Y-37164285D02*
X52384885Y-37192857D01*
X52384885Y-37192857D02*
X52384885Y-37221428D01*
X52384885Y-37221428D02*
X52370600Y-37250000D01*
X52370600Y-37250000D02*
X52356314Y-37264285D01*
X52356314Y-37264285D02*
X52327742Y-37278571D01*
X52327742Y-37278571D02*
X52270600Y-37292857D01*
X52270600Y-37292857D02*
X52199171Y-37292857D01*
X52199171Y-37292857D02*
X52142028Y-37278571D01*
X52142028Y-37278571D02*
X52113457Y-37264285D01*
X52113457Y-37264285D02*
X52099171Y-37250000D01*
X52099171Y-37250000D02*
X52084885Y-37221428D01*
D10*
X49704819Y-32761904D02*
X50514342Y-32761904D01*
X50514342Y-32761904D02*
X50609580Y-32714285D01*
X50609580Y-32714285D02*
X50657200Y-32666666D01*
X50657200Y-32666666D02*
X50704819Y-32571428D01*
X50704819Y-32571428D02*
X50704819Y-32380952D01*
X50704819Y-32380952D02*
X50657200Y-32285714D01*
X50657200Y-32285714D02*
X50609580Y-32238095D01*
X50609580Y-32238095D02*
X50514342Y-32190476D01*
X50514342Y-32190476D02*
X49704819Y-32190476D01*
X50704819Y-31190476D02*
X50704819Y-31761904D01*
X50704819Y-31476190D02*
X49704819Y-31476190D01*
X49704819Y-31476190D02*
X49847676Y-31571428D01*
X49847676Y-31571428D02*
X49942914Y-31666666D01*
X49942914Y-31666666D02*
X49990533Y-31761904D01*
X34204819Y-32583333D02*
X34919104Y-32583333D01*
X34919104Y-32583333D02*
X35061961Y-32630952D01*
X35061961Y-32630952D02*
X35157200Y-32726190D01*
X35157200Y-32726190D02*
X35204819Y-32869047D01*
X35204819Y-32869047D02*
X35204819Y-32964285D01*
X35204819Y-31583333D02*
X35204819Y-32154761D01*
X35204819Y-31869047D02*
X34204819Y-31869047D01*
X34204819Y-31869047D02*
X34347676Y-31964285D01*
X34347676Y-31964285D02*
X34442914Y-32059523D01*
X34442914Y-32059523D02*
X34490533Y-32154761D01*
D12*
X41950000Y-30856314D02*
X41935714Y-30870600D01*
X41935714Y-30870600D02*
X41892857Y-30884885D01*
X41892857Y-30884885D02*
X41864285Y-30884885D01*
X41864285Y-30884885D02*
X41821428Y-30870600D01*
X41821428Y-30870600D02*
X41792857Y-30842028D01*
X41792857Y-30842028D02*
X41778571Y-30813457D01*
X41778571Y-30813457D02*
X41764285Y-30756314D01*
X41764285Y-30756314D02*
X41764285Y-30713457D01*
X41764285Y-30713457D02*
X41778571Y-30656314D01*
X41778571Y-30656314D02*
X41792857Y-30627742D01*
X41792857Y-30627742D02*
X41821428Y-30599171D01*
X41821428Y-30599171D02*
X41864285Y-30584885D01*
X41864285Y-30584885D02*
X41892857Y-30584885D01*
X41892857Y-30584885D02*
X41935714Y-30599171D01*
X41935714Y-30599171D02*
X41950000Y-30613457D01*
X42064285Y-30613457D02*
X42078571Y-30599171D01*
X42078571Y-30599171D02*
X42107143Y-30584885D01*
X42107143Y-30584885D02*
X42178571Y-30584885D01*
X42178571Y-30584885D02*
X42207143Y-30599171D01*
X42207143Y-30599171D02*
X42221428Y-30613457D01*
X42221428Y-30613457D02*
X42235714Y-30642028D01*
X42235714Y-30642028D02*
X42235714Y-30670600D01*
X42235714Y-30670600D02*
X42221428Y-30713457D01*
X42221428Y-30713457D02*
X42050000Y-30884885D01*
X42050000Y-30884885D02*
X42235714Y-30884885D01*
X45450000Y-36631314D02*
X45435714Y-36645600D01*
X45435714Y-36645600D02*
X45392857Y-36659885D01*
X45392857Y-36659885D02*
X45364285Y-36659885D01*
X45364285Y-36659885D02*
X45321428Y-36645600D01*
X45321428Y-36645600D02*
X45292857Y-36617028D01*
X45292857Y-36617028D02*
X45278571Y-36588457D01*
X45278571Y-36588457D02*
X45264285Y-36531314D01*
X45264285Y-36531314D02*
X45264285Y-36488457D01*
X45264285Y-36488457D02*
X45278571Y-36431314D01*
X45278571Y-36431314D02*
X45292857Y-36402742D01*
X45292857Y-36402742D02*
X45321428Y-36374171D01*
X45321428Y-36374171D02*
X45364285Y-36359885D01*
X45364285Y-36359885D02*
X45392857Y-36359885D01*
X45392857Y-36359885D02*
X45435714Y-36374171D01*
X45435714Y-36374171D02*
X45450000Y-36388457D01*
X45721428Y-36359885D02*
X45578571Y-36359885D01*
X45578571Y-36359885D02*
X45564285Y-36502742D01*
X45564285Y-36502742D02*
X45578571Y-36488457D01*
X45578571Y-36488457D02*
X45607143Y-36474171D01*
X45607143Y-36474171D02*
X45678571Y-36474171D01*
X45678571Y-36474171D02*
X45707143Y-36488457D01*
X45707143Y-36488457D02*
X45721428Y-36502742D01*
X45721428Y-36502742D02*
X45735714Y-36531314D01*
X45735714Y-36531314D02*
X45735714Y-36602742D01*
X45735714Y-36602742D02*
X45721428Y-36631314D01*
X45721428Y-36631314D02*
X45707143Y-36645600D01*
X45707143Y-36645600D02*
X45678571Y-36659885D01*
X45678571Y-36659885D02*
X45607143Y-36659885D01*
X45607143Y-36659885D02*
X45578571Y-36645600D01*
X45578571Y-36645600D02*
X45564285Y-36631314D01*
%TO.C,U3*%
D11*
X65485000Y-23025000D02*
X54150000Y-23025000D01*
X54150000Y-32165000D01*
X65485000Y-32165000D01*
X65485000Y-23025000D01*
D13*
%TO.C,FB1*%
X42772936Y-33040000D02*
X43227064Y-33040000D01*
X42772936Y-34510000D02*
X43227064Y-34510000D01*
%TO.C,C11*%
X52740000Y-24859420D02*
X52740000Y-25140580D01*
X53760000Y-24859420D02*
X53760000Y-25140580D01*
%TO.C,U2*%
D11*
X65485000Y-32700000D02*
X54150000Y-32700000D01*
X54150000Y-41840000D01*
X65485000Y-41840000D01*
X65485000Y-32700000D01*
D13*
%TO.C,C9*%
X49165580Y-36990000D02*
X48884420Y-36990000D01*
X49165580Y-38010000D02*
X48884420Y-38010000D01*
%TO.C,R1*%
X44262742Y-27727500D02*
X44737258Y-27727500D01*
X44262742Y-28772500D02*
X44737258Y-28772500D01*
%TO.C,U5*%
X43250000Y-38440000D02*
X42450000Y-38440000D01*
X43250000Y-38440000D02*
X44050000Y-38440000D01*
X43250000Y-41560000D02*
X42450000Y-41560000D01*
X43250000Y-41560000D02*
X44050000Y-41560000D01*
X41950000Y-38490000D02*
X41710000Y-38160000D01*
X42190000Y-38160000D01*
X41950000Y-38490000D01*
G36*
X41950000Y-38490000D02*
G01*
X41710000Y-38160000D01*
X42190000Y-38160000D01*
X41950000Y-38490000D01*
G37*
%TO.C,C8*%
X44865000Y-24084420D02*
X44865000Y-24365580D01*
X45885000Y-24084420D02*
X45885000Y-24365580D01*
%TO.C,U4*%
X50137500Y-23440000D02*
X49337500Y-23440000D01*
X50137500Y-23440000D02*
X50937500Y-23440000D01*
X50137500Y-26560000D02*
X49337500Y-26560000D01*
X50137500Y-26560000D02*
X50937500Y-26560000D01*
X51677500Y-26840000D02*
X51197500Y-26840000D01*
X51437500Y-26510000D01*
X51677500Y-26840000D01*
G36*
X51677500Y-26840000D02*
G01*
X51197500Y-26840000D01*
X51437500Y-26510000D01*
X51677500Y-26840000D01*
G37*
%TO.C,R2*%
X44262742Y-29477500D02*
X44737258Y-29477500D01*
X44262742Y-30522500D02*
X44737258Y-30522500D01*
%TO.C,C1*%
X41490000Y-36665580D02*
X41490000Y-36384420D01*
X42510000Y-36665580D02*
X42510000Y-36384420D01*
%TO.C,C4*%
X43240000Y-36384420D02*
X43240000Y-36665580D01*
X44260000Y-36384420D02*
X44260000Y-36665580D01*
%TO.C,R4*%
X52727500Y-40262742D02*
X52727500Y-40737258D01*
X53772500Y-40262742D02*
X53772500Y-40737258D01*
%TO.C,R3*%
X46977500Y-40012742D02*
X46977500Y-40487258D01*
X48022500Y-40012742D02*
X48022500Y-40487258D01*
%TO.C,R5*%
X43227500Y-24487258D02*
X43227500Y-24012742D01*
X44272500Y-24487258D02*
X44272500Y-24012742D01*
%TO.C,C6*%
X44640580Y-31240000D02*
X44359420Y-31240000D01*
X44640580Y-32260000D02*
X44359420Y-32260000D01*
%TO.C,D1*%
X41265000Y-23450000D02*
X41265000Y-25735000D01*
X41265000Y-25735000D02*
X42735000Y-25735000D01*
X42735000Y-25735000D02*
X42735000Y-23450000D01*
%TO.C,C7*%
X46615000Y-24084420D02*
X46615000Y-24365580D01*
X47635000Y-24084420D02*
X47635000Y-24365580D01*
%TO.C,Q1*%
X50312500Y-38690000D02*
X49662500Y-38690000D01*
X50312500Y-38690000D02*
X50962500Y-38690000D01*
X50312500Y-41810000D02*
X49662500Y-41810000D01*
X50312500Y-41810000D02*
X50962500Y-41810000D01*
X49150000Y-38740000D02*
X48910000Y-38410000D01*
X49390000Y-38410000D01*
X49150000Y-38740000D01*
G36*
X49150000Y-38740000D02*
G01*
X48910000Y-38410000D01*
X49390000Y-38410000D01*
X49150000Y-38740000D01*
G37*
%TO.C,C3*%
X41490000Y-27640580D02*
X41490000Y-27359420D01*
X42510000Y-27640580D02*
X42510000Y-27359420D01*
%TO.C,C10*%
X52390580Y-36990000D02*
X52109420Y-36990000D01*
X52390580Y-38010000D02*
X52109420Y-38010000D01*
D10*
%TO.C,U1*%
X48175000Y-27275000D02*
X48175000Y-28385000D01*
X48175000Y-36225000D02*
X48175000Y-35115000D01*
X52325000Y-27275000D02*
X48175000Y-27275000D01*
X52325000Y-27275000D02*
X52325000Y-28385000D01*
X52325000Y-35115000D02*
X52325000Y-36225000D01*
X52325000Y-36225000D02*
X48175000Y-36225000D01*
D13*
X53127500Y-35445000D02*
X52647500Y-35445000D01*
X52887500Y-35115000D01*
X53127500Y-35445000D01*
G36*
X53127500Y-35445000D02*
G01*
X52647500Y-35445000D01*
X52887500Y-35115000D01*
X53127500Y-35445000D01*
G37*
%TO.C,J1*%
X23890000Y-26177500D02*
X32250000Y-26177500D01*
X23890000Y-38497500D02*
X23890000Y-26177500D01*
X32250000Y-38497500D02*
X23890000Y-38497500D01*
X36350000Y-38497500D02*
X40610000Y-38497500D01*
X40610000Y-26177500D02*
X36350000Y-26177500D01*
X40610000Y-38497500D02*
X40610000Y-26177500D01*
X40830000Y-33587500D02*
X41330000Y-34087500D01*
X41330000Y-33087500D02*
X40830000Y-33587500D01*
X41330000Y-34087500D02*
X41330000Y-33087500D01*
%TO.C,C2*%
X41490000Y-30609420D02*
X41490000Y-30890580D01*
X42510000Y-30609420D02*
X42510000Y-30890580D01*
%TO.C,C5*%
X44990000Y-36384420D02*
X44990000Y-36665580D01*
X46010000Y-36384420D02*
X46010000Y-36665580D01*
%TD*%
M02*
