%TF.GenerationSoftware,KiCad,Pcbnew,8.0.4*%
%TF.CreationDate,2024-09-12T14:18:40-04:00*%
%TF.ProjectId,booster-ftdi-board,626f6f73-7465-4722-9d66-7464692d626f,rev?*%
%TF.SameCoordinates,Original*%
%TF.FileFunction,Legend,Top*%
%TF.FilePolarity,Positive*%
%FSLAX46Y46*%
G04 Gerber Fmt 4.6, Leading zero omitted, Abs format (unit mm)*
G04 Created by KiCad (PCBNEW 8.0.4) date 2024-09-12 14:18:40*
%MOMM*%
%LPD*%
G01*
G04 APERTURE LIST*
%ADD10C,0.100000*%
%ADD11C,0.150000*%
%ADD12C,0.120000*%
G04 APERTURE END LIST*
D10*
X75457419Y-30261904D02*
X76266942Y-30261904D01*
X76266942Y-30261904D02*
X76362180Y-30214285D01*
X76362180Y-30214285D02*
X76409800Y-30166666D01*
X76409800Y-30166666D02*
X76457419Y-30071428D01*
X76457419Y-30071428D02*
X76457419Y-29880952D01*
X76457419Y-29880952D02*
X76409800Y-29785714D01*
X76409800Y-29785714D02*
X76362180Y-29738095D01*
X76362180Y-29738095D02*
X76266942Y-29690476D01*
X76266942Y-29690476D02*
X75457419Y-29690476D01*
X75885990Y-29071428D02*
X75838371Y-29166666D01*
X75838371Y-29166666D02*
X75790752Y-29214285D01*
X75790752Y-29214285D02*
X75695514Y-29261904D01*
X75695514Y-29261904D02*
X75647895Y-29261904D01*
X75647895Y-29261904D02*
X75552657Y-29214285D01*
X75552657Y-29214285D02*
X75505038Y-29166666D01*
X75505038Y-29166666D02*
X75457419Y-29071428D01*
X75457419Y-29071428D02*
X75457419Y-28880952D01*
X75457419Y-28880952D02*
X75505038Y-28785714D01*
X75505038Y-28785714D02*
X75552657Y-28738095D01*
X75552657Y-28738095D02*
X75647895Y-28690476D01*
X75647895Y-28690476D02*
X75695514Y-28690476D01*
X75695514Y-28690476D02*
X75790752Y-28738095D01*
X75790752Y-28738095D02*
X75838371Y-28785714D01*
X75838371Y-28785714D02*
X75885990Y-28880952D01*
X75885990Y-28880952D02*
X75885990Y-29071428D01*
X75885990Y-29071428D02*
X75933609Y-29166666D01*
X75933609Y-29166666D02*
X75981228Y-29214285D01*
X75981228Y-29214285D02*
X76076466Y-29261904D01*
X76076466Y-29261904D02*
X76266942Y-29261904D01*
X76266942Y-29261904D02*
X76362180Y-29214285D01*
X76362180Y-29214285D02*
X76409800Y-29166666D01*
X76409800Y-29166666D02*
X76457419Y-29071428D01*
X76457419Y-29071428D02*
X76457419Y-28880952D01*
X76457419Y-28880952D02*
X76409800Y-28785714D01*
X76409800Y-28785714D02*
X76362180Y-28738095D01*
X76362180Y-28738095D02*
X76266942Y-28690476D01*
X76266942Y-28690476D02*
X76076466Y-28690476D01*
X76076466Y-28690476D02*
X75981228Y-28738095D01*
X75981228Y-28738095D02*
X75933609Y-28785714D01*
X75933609Y-28785714D02*
X75885990Y-28880952D01*
D11*
X63429819Y-41483333D02*
X64144104Y-41483333D01*
X64144104Y-41483333D02*
X64286961Y-41530952D01*
X64286961Y-41530952D02*
X64382200Y-41626190D01*
X64382200Y-41626190D02*
X64429819Y-41769047D01*
X64429819Y-41769047D02*
X64429819Y-41864285D01*
X63525057Y-41054761D02*
X63477438Y-41007142D01*
X63477438Y-41007142D02*
X63429819Y-40911904D01*
X63429819Y-40911904D02*
X63429819Y-40673809D01*
X63429819Y-40673809D02*
X63477438Y-40578571D01*
X63477438Y-40578571D02*
X63525057Y-40530952D01*
X63525057Y-40530952D02*
X63620295Y-40483333D01*
X63620295Y-40483333D02*
X63715533Y-40483333D01*
X63715533Y-40483333D02*
X63858390Y-40530952D01*
X63858390Y-40530952D02*
X64429819Y-41102380D01*
X64429819Y-41102380D02*
X64429819Y-40483333D01*
X70333333Y-31179580D02*
X70285714Y-31227200D01*
X70285714Y-31227200D02*
X70142857Y-31274819D01*
X70142857Y-31274819D02*
X70047619Y-31274819D01*
X70047619Y-31274819D02*
X69904762Y-31227200D01*
X69904762Y-31227200D02*
X69809524Y-31131961D01*
X69809524Y-31131961D02*
X69761905Y-31036723D01*
X69761905Y-31036723D02*
X69714286Y-30846247D01*
X69714286Y-30846247D02*
X69714286Y-30703390D01*
X69714286Y-30703390D02*
X69761905Y-30512914D01*
X69761905Y-30512914D02*
X69809524Y-30417676D01*
X69809524Y-30417676D02*
X69904762Y-30322438D01*
X69904762Y-30322438D02*
X70047619Y-30274819D01*
X70047619Y-30274819D02*
X70142857Y-30274819D01*
X70142857Y-30274819D02*
X70285714Y-30322438D01*
X70285714Y-30322438D02*
X70333333Y-30370057D01*
X71285714Y-31274819D02*
X70714286Y-31274819D01*
X71000000Y-31274819D02*
X71000000Y-30274819D01*
X71000000Y-30274819D02*
X70904762Y-30417676D01*
X70904762Y-30417676D02*
X70809524Y-30512914D01*
X70809524Y-30512914D02*
X70714286Y-30560533D01*
X65857142Y-31179580D02*
X65809523Y-31227200D01*
X65809523Y-31227200D02*
X65666666Y-31274819D01*
X65666666Y-31274819D02*
X65571428Y-31274819D01*
X65571428Y-31274819D02*
X65428571Y-31227200D01*
X65428571Y-31227200D02*
X65333333Y-31131961D01*
X65333333Y-31131961D02*
X65285714Y-31036723D01*
X65285714Y-31036723D02*
X65238095Y-30846247D01*
X65238095Y-30846247D02*
X65238095Y-30703390D01*
X65238095Y-30703390D02*
X65285714Y-30512914D01*
X65285714Y-30512914D02*
X65333333Y-30417676D01*
X65333333Y-30417676D02*
X65428571Y-30322438D01*
X65428571Y-30322438D02*
X65571428Y-30274819D01*
X65571428Y-30274819D02*
X65666666Y-30274819D01*
X65666666Y-30274819D02*
X65809523Y-30322438D01*
X65809523Y-30322438D02*
X65857142Y-30370057D01*
X66809523Y-31274819D02*
X66238095Y-31274819D01*
X66523809Y-31274819D02*
X66523809Y-30274819D01*
X66523809Y-30274819D02*
X66428571Y-30417676D01*
X66428571Y-30417676D02*
X66333333Y-30512914D01*
X66333333Y-30512914D02*
X66238095Y-30560533D01*
X67190476Y-30370057D02*
X67238095Y-30322438D01*
X67238095Y-30322438D02*
X67333333Y-30274819D01*
X67333333Y-30274819D02*
X67571428Y-30274819D01*
X67571428Y-30274819D02*
X67666666Y-30322438D01*
X67666666Y-30322438D02*
X67714285Y-30370057D01*
X67714285Y-30370057D02*
X67761904Y-30465295D01*
X67761904Y-30465295D02*
X67761904Y-30560533D01*
X67761904Y-30560533D02*
X67714285Y-30703390D01*
X67714285Y-30703390D02*
X67142857Y-31274819D01*
X67142857Y-31274819D02*
X67761904Y-31274819D01*
X68738095Y-45054819D02*
X68738095Y-45864342D01*
X68738095Y-45864342D02*
X68785714Y-45959580D01*
X68785714Y-45959580D02*
X68833333Y-46007200D01*
X68833333Y-46007200D02*
X68928571Y-46054819D01*
X68928571Y-46054819D02*
X69119047Y-46054819D01*
X69119047Y-46054819D02*
X69214285Y-46007200D01*
X69214285Y-46007200D02*
X69261904Y-45959580D01*
X69261904Y-45959580D02*
X69309523Y-45864342D01*
X69309523Y-45864342D02*
X69309523Y-45054819D01*
X70214285Y-45054819D02*
X70023809Y-45054819D01*
X70023809Y-45054819D02*
X69928571Y-45102438D01*
X69928571Y-45102438D02*
X69880952Y-45150057D01*
X69880952Y-45150057D02*
X69785714Y-45292914D01*
X69785714Y-45292914D02*
X69738095Y-45483390D01*
X69738095Y-45483390D02*
X69738095Y-45864342D01*
X69738095Y-45864342D02*
X69785714Y-45959580D01*
X69785714Y-45959580D02*
X69833333Y-46007200D01*
X69833333Y-46007200D02*
X69928571Y-46054819D01*
X69928571Y-46054819D02*
X70119047Y-46054819D01*
X70119047Y-46054819D02*
X70214285Y-46007200D01*
X70214285Y-46007200D02*
X70261904Y-45959580D01*
X70261904Y-45959580D02*
X70309523Y-45864342D01*
X70309523Y-45864342D02*
X70309523Y-45626247D01*
X70309523Y-45626247D02*
X70261904Y-45531009D01*
X70261904Y-45531009D02*
X70214285Y-45483390D01*
X70214285Y-45483390D02*
X70119047Y-45435771D01*
X70119047Y-45435771D02*
X69928571Y-45435771D01*
X69928571Y-45435771D02*
X69833333Y-45483390D01*
X69833333Y-45483390D02*
X69785714Y-45531009D01*
X69785714Y-45531009D02*
X69738095Y-45626247D01*
X74333333Y-31179580D02*
X74285714Y-31227200D01*
X74285714Y-31227200D02*
X74142857Y-31274819D01*
X74142857Y-31274819D02*
X74047619Y-31274819D01*
X74047619Y-31274819D02*
X73904762Y-31227200D01*
X73904762Y-31227200D02*
X73809524Y-31131961D01*
X73809524Y-31131961D02*
X73761905Y-31036723D01*
X73761905Y-31036723D02*
X73714286Y-30846247D01*
X73714286Y-30846247D02*
X73714286Y-30703390D01*
X73714286Y-30703390D02*
X73761905Y-30512914D01*
X73761905Y-30512914D02*
X73809524Y-30417676D01*
X73809524Y-30417676D02*
X73904762Y-30322438D01*
X73904762Y-30322438D02*
X74047619Y-30274819D01*
X74047619Y-30274819D02*
X74142857Y-30274819D01*
X74142857Y-30274819D02*
X74285714Y-30322438D01*
X74285714Y-30322438D02*
X74333333Y-30370057D01*
X74714286Y-30370057D02*
X74761905Y-30322438D01*
X74761905Y-30322438D02*
X74857143Y-30274819D01*
X74857143Y-30274819D02*
X75095238Y-30274819D01*
X75095238Y-30274819D02*
X75190476Y-30322438D01*
X75190476Y-30322438D02*
X75238095Y-30370057D01*
X75238095Y-30370057D02*
X75285714Y-30465295D01*
X75285714Y-30465295D02*
X75285714Y-30560533D01*
X75285714Y-30560533D02*
X75238095Y-30703390D01*
X75238095Y-30703390D02*
X74666667Y-31274819D01*
X74666667Y-31274819D02*
X75285714Y-31274819D01*
X75333333Y-35954819D02*
X75000000Y-35478628D01*
X74761905Y-35954819D02*
X74761905Y-34954819D01*
X74761905Y-34954819D02*
X75142857Y-34954819D01*
X75142857Y-34954819D02*
X75238095Y-35002438D01*
X75238095Y-35002438D02*
X75285714Y-35050057D01*
X75285714Y-35050057D02*
X75333333Y-35145295D01*
X75333333Y-35145295D02*
X75333333Y-35288152D01*
X75333333Y-35288152D02*
X75285714Y-35383390D01*
X75285714Y-35383390D02*
X75238095Y-35431009D01*
X75238095Y-35431009D02*
X75142857Y-35478628D01*
X75142857Y-35478628D02*
X74761905Y-35478628D01*
X76285714Y-35954819D02*
X75714286Y-35954819D01*
X76000000Y-35954819D02*
X76000000Y-34954819D01*
X76000000Y-34954819D02*
X75904762Y-35097676D01*
X75904762Y-35097676D02*
X75809524Y-35192914D01*
X75809524Y-35192914D02*
X75714286Y-35240533D01*
D10*
X75457419Y-47761904D02*
X76266942Y-47761904D01*
X76266942Y-47761904D02*
X76362180Y-47714285D01*
X76362180Y-47714285D02*
X76409800Y-47666666D01*
X76409800Y-47666666D02*
X76457419Y-47571428D01*
X76457419Y-47571428D02*
X76457419Y-47380952D01*
X76457419Y-47380952D02*
X76409800Y-47285714D01*
X76409800Y-47285714D02*
X76362180Y-47238095D01*
X76362180Y-47238095D02*
X76266942Y-47190476D01*
X76266942Y-47190476D02*
X75457419Y-47190476D01*
X75457419Y-46809523D02*
X75457419Y-46142857D01*
X75457419Y-46142857D02*
X76457419Y-46571428D01*
D11*
X75333333Y-44954819D02*
X75000000Y-44478628D01*
X74761905Y-44954819D02*
X74761905Y-43954819D01*
X74761905Y-43954819D02*
X75142857Y-43954819D01*
X75142857Y-43954819D02*
X75238095Y-44002438D01*
X75238095Y-44002438D02*
X75285714Y-44050057D01*
X75285714Y-44050057D02*
X75333333Y-44145295D01*
X75333333Y-44145295D02*
X75333333Y-44288152D01*
X75333333Y-44288152D02*
X75285714Y-44383390D01*
X75285714Y-44383390D02*
X75238095Y-44431009D01*
X75238095Y-44431009D02*
X75142857Y-44478628D01*
X75142857Y-44478628D02*
X74761905Y-44478628D01*
X76190476Y-43954819D02*
X76000000Y-43954819D01*
X76000000Y-43954819D02*
X75904762Y-44002438D01*
X75904762Y-44002438D02*
X75857143Y-44050057D01*
X75857143Y-44050057D02*
X75761905Y-44192914D01*
X75761905Y-44192914D02*
X75714286Y-44383390D01*
X75714286Y-44383390D02*
X75714286Y-44764342D01*
X75714286Y-44764342D02*
X75761905Y-44859580D01*
X75761905Y-44859580D02*
X75809524Y-44907200D01*
X75809524Y-44907200D02*
X75904762Y-44954819D01*
X75904762Y-44954819D02*
X76095238Y-44954819D01*
X76095238Y-44954819D02*
X76190476Y-44907200D01*
X76190476Y-44907200D02*
X76238095Y-44859580D01*
X76238095Y-44859580D02*
X76285714Y-44764342D01*
X76285714Y-44764342D02*
X76285714Y-44526247D01*
X76285714Y-44526247D02*
X76238095Y-44431009D01*
X76238095Y-44431009D02*
X76190476Y-44383390D01*
X76190476Y-44383390D02*
X76095238Y-44335771D01*
X76095238Y-44335771D02*
X75904762Y-44335771D01*
X75904762Y-44335771D02*
X75809524Y-44383390D01*
X75809524Y-44383390D02*
X75761905Y-44431009D01*
X75761905Y-44431009D02*
X75714286Y-44526247D01*
%TO.C,U8*%
D10*
X88067500Y-28930000D02*
X76732500Y-28930000D01*
X76732500Y-38070000D01*
X88067500Y-38070000D01*
X88067500Y-28930000D01*
%TO.C,J2*%
X42075000Y-32075000D02*
X42625000Y-32075000D01*
X42075000Y-32775000D02*
X42075000Y-32075000D01*
X42075000Y-43600000D02*
X42075000Y-44325000D01*
X42075000Y-44325000D02*
X42675000Y-44325000D01*
X57450000Y-44325000D02*
X56500000Y-44325000D01*
X58200000Y-32075000D02*
X56425000Y-32075000D01*
X58200000Y-44325000D02*
X57425000Y-44325000D01*
D12*
%TO.C,C1*%
X70238748Y-31765000D02*
X70761252Y-31765000D01*
X70238748Y-33235000D02*
X70761252Y-33235000D01*
%TO.C,C12*%
X66238748Y-31765000D02*
X66761252Y-31765000D01*
X66238748Y-33235000D02*
X66761252Y-33235000D01*
D11*
%TO.C,U6*%
X66625000Y-34600000D02*
X66625000Y-34025000D01*
X66625000Y-44675000D02*
X66625000Y-44100000D01*
X72375000Y-34025000D02*
X66625000Y-34025000D01*
X72375000Y-34600000D02*
X72375000Y-34025000D01*
X72375000Y-44675000D02*
X66625000Y-44675000D01*
X72375000Y-44675000D02*
X72375000Y-44100000D01*
D12*
X73115000Y-44430000D02*
X72635000Y-44430000D01*
X72875000Y-44100000D01*
X73115000Y-44430000D01*
G36*
X73115000Y-44430000D02*
G01*
X72635000Y-44430000D01*
X72875000Y-44100000D01*
X73115000Y-44430000D01*
G37*
%TO.C,C2*%
X74238748Y-31765000D02*
X74761252Y-31765000D01*
X74238748Y-33235000D02*
X74761252Y-33235000D01*
%TO.C,R1*%
X74765000Y-37772936D02*
X74765000Y-38227064D01*
X76235000Y-37772936D02*
X76235000Y-38227064D01*
%TO.C,U7*%
D10*
X88067500Y-38430000D02*
X76732500Y-38430000D01*
X76732500Y-47570000D01*
X88067500Y-47570000D01*
X88067500Y-38430000D01*
D12*
%TO.C,R6*%
X74765000Y-42227064D02*
X74765000Y-41772936D01*
X76235000Y-42227064D02*
X76235000Y-41772936D01*
%TD*%
M02*
