%TF.GenerationSoftware,KiCad,Pcbnew,8.0.4*%
%TF.CreationDate,2024-09-12T14:18:41-04:00*%
%TF.ProjectId,booster-ftdi-board,626f6f73-7465-4722-9d66-7464692d626f,rev?*%
%TF.SameCoordinates,Original*%
%TF.FileFunction,Soldermask,Top*%
%TF.FilePolarity,Negative*%
%FSLAX46Y46*%
G04 Gerber Fmt 4.6, Leading zero omitted, Abs format (unit mm)*
G04 Created by KiCad (PCBNEW 8.0.4) date 2024-09-12 14:18:41*
%MOMM*%
%LPD*%
G01*
G04 APERTURE LIST*
G04 Aperture macros list*
%AMRoundRect*
0 Rectangle with rounded corners*
0 $1 Rounding radius*
0 $2 $3 $4 $5 $6 $7 $8 $9 X,Y pos of 4 corners*
0 Add a 4 corners polygon primitive as box body*
4,1,4,$2,$3,$4,$5,$6,$7,$8,$9,$2,$3,0*
0 Add four circle primitives for the rounded corners*
1,1,$1+$1,$2,$3*
1,1,$1+$1,$4,$5*
1,1,$1+$1,$6,$7*
1,1,$1+$1,$8,$9*
0 Add four rect primitives between the rounded corners*
20,1,$1+$1,$2,$3,$4,$5,0*
20,1,$1+$1,$4,$5,$6,$7,0*
20,1,$1+$1,$6,$7,$8,$9,0*
20,1,$1+$1,$8,$9,$2,$3,0*%
G04 Aperture macros list end*
%ADD10C,1.400000*%
%ADD11C,1.800000*%
%ADD12O,3.500000X2.000000*%
%ADD13C,2.200000*%
%ADD14RoundRect,0.250000X-0.337500X-0.475000X0.337500X-0.475000X0.337500X0.475000X-0.337500X0.475000X0*%
%ADD15R,1.750000X0.450000*%
%ADD16RoundRect,0.250000X-0.450000X0.350000X-0.450000X-0.350000X0.450000X-0.350000X0.450000X0.350000X0*%
%ADD17RoundRect,0.250000X0.450000X-0.350000X0.450000X0.350000X-0.450000X0.350000X-0.450000X-0.350000X0*%
G04 APERTURE END LIST*
D10*
%TO.C,U8*%
X84582500Y-35405000D03*
X84582500Y-33500000D03*
X84582500Y-31595000D03*
%TD*%
D11*
%TO.C,J2*%
X62100000Y-41700000D03*
X62100000Y-39200000D03*
X62100000Y-37200000D03*
X62100000Y-34700000D03*
D12*
X60000000Y-32350000D03*
D13*
X60000000Y-35900000D03*
X60000000Y-40500000D03*
D12*
X60000000Y-44050000D03*
%TD*%
D14*
%TO.C,C1*%
X69462500Y-32500000D03*
X71537500Y-32500000D03*
%TD*%
%TO.C,C12*%
X65462500Y-32500000D03*
X67537500Y-32500000D03*
%TD*%
D15*
%TO.C,U6*%
X73100000Y-43575000D03*
X73100000Y-42925000D03*
X73100000Y-42275000D03*
X73100000Y-41625000D03*
X73100000Y-40975000D03*
X73100000Y-40325000D03*
X73100000Y-39675000D03*
X73100000Y-39025000D03*
X73100000Y-38375000D03*
X73100000Y-37725000D03*
X73100000Y-37075000D03*
X73100000Y-36425000D03*
X73100000Y-35775000D03*
X73100000Y-35125000D03*
X65900000Y-35125000D03*
X65900000Y-35775000D03*
X65900000Y-36425000D03*
X65900000Y-37075000D03*
X65900000Y-37725000D03*
X65900000Y-38375000D03*
X65900000Y-39025000D03*
X65900000Y-39675000D03*
X65900000Y-40325000D03*
X65900000Y-40975000D03*
X65900000Y-41625000D03*
X65900000Y-42275000D03*
X65900000Y-42925000D03*
X65900000Y-43575000D03*
%TD*%
D14*
%TO.C,C2*%
X73462500Y-32500000D03*
X75537500Y-32500000D03*
%TD*%
D16*
%TO.C,R1*%
X75500000Y-37000000D03*
X75500000Y-39000000D03*
%TD*%
D10*
%TO.C,U7*%
X84582500Y-44270000D03*
X84582500Y-41730000D03*
%TD*%
D17*
%TO.C,R6*%
X75500000Y-43000000D03*
X75500000Y-41000000D03*
%TD*%
M02*
