%TF.GenerationSoftware,KiCad,Pcbnew,8.0.1*%
%TF.CreationDate,2024-08-02T13:46:57-04:00*%
%TF.ProjectId,booster-ftdi-board,626f6f73-7465-4722-9d66-7464692d626f,rev?*%
%TF.SameCoordinates,Original*%
%TF.FileFunction,Profile,NP*%
%FSLAX46Y46*%
G04 Gerber Fmt 4.6, Leading zero omitted, Abs format (unit mm)*
G04 Created by KiCad (PCBNEW 8.0.1) date 2024-08-02 13:46:57*
%MOMM*%
%LPD*%
G01*
G04 APERTURE LIST*
%TA.AperFunction,Profile*%
%ADD10C,0.050000*%
%TD*%
G04 APERTURE END LIST*
D10*
X23750000Y-23750000D02*
G75*
G02*
X25000000Y-22500000I1250000J0D01*
G01*
X64750000Y-22500000D02*
G75*
G02*
X66000000Y-23750000I0J-1250000D01*
G01*
X25000000Y-42250000D02*
X64750000Y-42250000D01*
X23750000Y-23750000D02*
X23750000Y-41000000D01*
X64750000Y-22500000D02*
X25000000Y-22500000D01*
X25000000Y-42250000D02*
G75*
G02*
X23750000Y-41000000I0J1250000D01*
G01*
X66000000Y-41000000D02*
G75*
G02*
X64750000Y-42250000I-1250000J0D01*
G01*
X66000000Y-41000000D02*
X66000000Y-23750000D01*
%TO.C,U3*%
X58507500Y-27595000D02*
G75*
G02*
X55332500Y-27595000I-1587500J0D01*
G01*
X55332500Y-27595000D02*
G75*
G02*
X58507500Y-27595000I1587500J0D01*
G01*
X65327500Y-25055300D02*
G75*
G02*
X63752500Y-25055300I-787500J0D01*
G01*
X63752500Y-25055300D02*
G75*
G02*
X65327500Y-25055300I787500J0D01*
G01*
X65327500Y-30135000D02*
G75*
G02*
X63752500Y-30135000I-787500J0D01*
G01*
X63752500Y-30135000D02*
G75*
G02*
X65327500Y-30135000I787500J0D01*
G01*
%TO.C,U2*%
X58507500Y-37285000D02*
G75*
G02*
X55332500Y-37285000I-1587500J0D01*
G01*
X55332500Y-37285000D02*
G75*
G02*
X58507500Y-37285000I1587500J0D01*
G01*
X65327500Y-34745300D02*
G75*
G02*
X63752500Y-34745300I-787500J0D01*
G01*
X63752500Y-34745300D02*
G75*
G02*
X65327500Y-34745300I787500J0D01*
G01*
X65327500Y-39825000D02*
G75*
G02*
X63752500Y-39825000I-787500J0D01*
G01*
X63752500Y-39825000D02*
G75*
G02*
X65327500Y-39825000I787500J0D01*
G01*
%TD*%
M02*
