M48
; DRILL file {KiCad 8.0.1} date 2024-06-26T23:15:25-0400
; FORMAT={-:-/ absolute / inch / decimal}
; #@! TF.CreationDate,2024-06-26T23:15:25-04:00
; #@! TF.GenerationSoftware,Kicad,Pcbnew,8.0.1
; #@! TF.FileFunction,Plated,1,2,PTH
FMAT,2
INCH
; #@! TA.AperFunction,Plated,PTH,ViaDrill
T1C0.0118
; #@! TA.AperFunction,Plated,PTH,ComponentDrill
T2C0.0236
; #@! TA.AperFunction,Plated,PTH,ComponentDrill
T3C0.0315
; #@! TA.AperFunction,Plated,PTH,ComponentDrill
T4C0.0394
; #@! TA.AperFunction,Plated,PTH,ComponentDrill
T5C0.0413
; #@! TA.AperFunction,Plated,PTH,ComponentDrill
T6C0.0433
%
G90
G05
T1
X1.5157Y-0.8858
X1.5157Y-0.9252
X1.5157Y-0.9646
X1.5157Y-1.0039
X1.5157Y-1.0433
X1.5157Y-1.0827
X1.5157Y-1.122
X1.5157Y-1.1614
X1.5157Y-1.2008
X1.5157Y-1.2402
X1.5157Y-1.2795
X1.5157Y-1.3189
X1.5157Y-1.3583
X1.5157Y-1.3976
X1.5157Y-1.8701
X1.5157Y-1.9094
X1.5157Y-1.9488
X1.5157Y-1.9882
X1.5157Y-2.0276
X1.5157Y-2.0669
X1.5157Y-2.1063
X1.5157Y-2.1457
X1.5157Y-2.185
X1.5157Y-2.2244
X1.5157Y-2.2638
X1.5157Y-2.3031
X1.5157Y-2.3425
X1.5157Y-2.3819
X1.5157Y-2.8543
X1.5157Y-2.8937
X1.5157Y-2.9331
X1.5157Y-2.9724
X1.5157Y-3.0118
X1.5157Y-3.0512
X1.5157Y-3.0906
X1.5157Y-3.1299
X1.5157Y-3.1693
X1.5157Y-3.2087
X1.5157Y-3.248
X1.5157Y-3.2874
X1.5157Y-3.3268
X1.5157Y-3.3661
X1.5533Y-3.3659
X1.5551Y-0.8858
X1.5551Y-0.9252
X1.5551Y-0.9646
X1.5551Y-1.0039
X1.5551Y-1.0433
X1.5551Y-1.0827
X1.5551Y-1.122
X1.5551Y-1.1614
X1.5551Y-1.2008
X1.5551Y-1.2402
X1.5551Y-1.2795
X1.5551Y-1.3189
X1.5551Y-1.3583
X1.5551Y-1.3976
X1.5551Y-1.8701
X1.5551Y-1.9094
X1.5551Y-1.9488
X1.5551Y-1.9882
X1.5551Y-2.0276
X1.5551Y-2.0669
X1.5551Y-2.1063
X1.5551Y-2.1457
X1.5551Y-2.185
X1.5551Y-2.2244
X1.5551Y-2.2638
X1.5551Y-2.3031
X1.5551Y-2.3425
X1.5551Y-2.3819
X1.5551Y-2.8543
X1.5551Y-2.8937
X1.5551Y-2.9331
X1.5551Y-2.9724
X1.5551Y-3.0118
X1.5551Y-3.0512
X1.5551Y-3.0906
X1.5551Y-3.1299
X1.5551Y-3.1693
X1.5551Y-3.2087
X1.5551Y-3.248
X1.5551Y-3.2874
X1.5551Y-3.3268
X1.5936Y-3.2865
X1.5945Y-0.8858
X1.5945Y-0.9252
X1.5945Y-0.9646
X1.5945Y-1.0039
X1.5945Y-1.0433
X1.5945Y-1.0827
X1.5945Y-1.122
X1.5945Y-1.1614
X1.5945Y-1.2008
X1.5945Y-1.2402
X1.5945Y-1.2795
X1.5945Y-1.3189
X1.5945Y-1.3583
X1.5945Y-1.3976
X1.5945Y-1.8701
X1.5945Y-1.9094
X1.5945Y-1.9488
X1.5945Y-1.9882
X1.5945Y-2.0276
X1.5945Y-2.0669
X1.5945Y-2.1063
X1.5945Y-2.1457
X1.5945Y-2.185
X1.5945Y-2.2244
X1.5945Y-2.2638
X1.5945Y-2.3031
X1.5945Y-2.3425
X1.5945Y-2.3819
X1.5945Y-2.8543
X1.5945Y-2.8937
X1.5945Y-2.9331
X1.5945Y-2.9724
X1.5945Y-3.0118
X1.5945Y-3.0512
X1.5945Y-3.0906
X1.5945Y-3.1299
X1.5945Y-3.1693
X1.5945Y-3.2087
X1.5945Y-3.248
X1.5945Y-3.3268
X1.5945Y-3.3661
X1.6339Y-0.8858
X1.6339Y-0.9252
X1.6339Y-0.9646
X1.6339Y-1.0039
X1.6339Y-1.0433
X1.6339Y-1.0827
X1.6339Y-1.122
X1.6339Y-1.1614
X1.6339Y-1.2008
X1.6339Y-1.2402
X1.6339Y-1.2795
X1.6339Y-1.3189
X1.6339Y-1.3583
X1.6339Y-1.3976
X1.6339Y-1.8701
X1.6339Y-1.9094
X1.6339Y-1.9488
X1.6339Y-1.9882
X1.6339Y-2.0276
X1.6339Y-2.0669
X1.6339Y-2.1063
X1.6339Y-2.1457
X1.6339Y-2.185
X1.6339Y-2.2244
X1.6339Y-2.2638
X1.6339Y-2.3031
X1.6339Y-2.3819
X1.6339Y-2.8543
X1.6339Y-2.8937
X1.6339Y-2.9331
X1.6339Y-2.9724
X1.6339Y-3.0118
X1.6339Y-3.0512
X1.6339Y-3.0906
X1.6339Y-3.1299
X1.6339Y-3.1693
X1.6339Y-3.2087
X1.6339Y-3.248
X1.6339Y-3.2874
X1.6339Y-3.3268
X1.6339Y-3.3661
X1.6339Y-2.3425
X1.6732Y-0.8858
X1.6732Y-0.9252
X1.6732Y-0.9646
X1.6732Y-1.0039
X1.6732Y-1.0433
X1.6732Y-1.0827
X1.6732Y-1.2008
X1.6732Y-1.2402
X1.6732Y-1.2795
X1.6732Y-1.3189
X1.6732Y-1.3583
X1.6732Y-1.3976
X1.6732Y-1.8701
X1.6732Y-1.9094
X1.6732Y-1.9488
X1.6732Y-1.9882
X1.6732Y-2.0276
X1.6732Y-2.0669
X1.6732Y-2.185
X1.6732Y-2.2244
X1.6732Y-2.2638
X1.6732Y-2.3031
X1.6732Y-2.3425
X1.6732Y-2.3819
X1.6732Y-2.8543
X1.6732Y-2.8937
X1.6732Y-2.9331
X1.6732Y-2.9724
X1.6732Y-3.0118
X1.6732Y-3.0512
X1.6732Y-3.1693
X1.6732Y-3.2087
X1.6732Y-3.248
X1.6732Y-3.2874
X1.6732Y-3.3268
X1.6732Y-3.3661
X1.7126Y-0.8858
X1.7126Y-0.9252
X1.7126Y-0.9646
X1.7126Y-1.0039
X1.7126Y-1.2795
X1.7126Y-1.3189
X1.7126Y-1.3583
X1.7126Y-1.3976
X1.7126Y-1.8701
X1.7126Y-1.9094
X1.7126Y-1.9488
X1.7126Y-1.9882
X1.7126Y-2.2638
X1.7126Y-2.3031
X1.7126Y-2.3425
X1.7126Y-2.3819
X1.7126Y-2.8543
X1.7126Y-2.8937
X1.7126Y-2.9331
X1.7126Y-2.9724
X1.7126Y-3.248
X1.7126Y-3.2874
X1.7126Y-3.3268
X1.7126Y-3.3661
X1.7519Y-3.2874
X1.7519Y-3.326
X1.752Y-0.8858
X1.752Y-0.9252
X1.752Y-0.9646
X1.752Y-1.0039
X1.752Y-1.3189
X1.752Y-1.3583
X1.752Y-1.3976
X1.752Y-1.8701
X1.752Y-1.9094
X1.752Y-1.9488
X1.752Y-1.9882
X1.752Y-2.2638
X1.752Y-2.3031
X1.752Y-2.3425
X1.752Y-2.3819
X1.752Y-2.8543
X1.752Y-2.8937
X1.752Y-2.9331
X1.752Y-2.9724
X1.752Y-3.3661
X1.7913Y-0.8858
X1.7913Y-0.9252
X1.7913Y-0.9646
X1.7913Y-1.3189
X1.7913Y-1.3583
X1.7913Y-1.3976
X1.7913Y-1.8701
X1.7913Y-1.9094
X1.7913Y-1.9488
X1.7913Y-2.3031
X1.7913Y-2.3425
X1.7913Y-2.3819
X1.7913Y-2.8543
X1.7913Y-2.8937
X1.7913Y-2.9331
X1.7913Y-3.2874
X1.7913Y-3.3268
X1.7913Y-3.3661
X1.8307Y-0.8858
X1.8307Y-0.9252
X1.8307Y-0.9646
X1.8307Y-1.3189
X1.8307Y-1.3583
X1.8307Y-1.3976
X1.8307Y-1.8701
X1.8307Y-1.9094
X1.8307Y-1.9488
X1.8307Y-2.3031
X1.8307Y-2.3425
X1.8307Y-2.3819
X1.8307Y-2.8543
X1.8307Y-2.8937
X1.8307Y-2.9331
X1.8307Y-3.2874
X1.8307Y-3.3268
X1.8307Y-3.3661
X1.8698Y-3.3673
X1.8701Y-0.8858
X1.8701Y-0.9252
X1.8701Y-0.9646
X1.8701Y-1.3189
X1.8701Y-1.3583
X1.8701Y-1.3976
X1.8701Y-1.8701
X1.8701Y-1.9094
X1.8701Y-1.9488
X1.8701Y-2.3031
X1.8701Y-2.3425
X1.8701Y-2.3819
X1.8701Y-2.8543
X1.8701Y-2.8937
X1.8701Y-2.9331
X1.8701Y-3.2874
X1.8701Y-3.3268
X1.9094Y-0.8858
X1.9094Y-0.9252
X1.9094Y-0.9646
X1.9094Y-1.0039
X1.9094Y-1.2795
X1.9094Y-1.3189
X1.9094Y-1.3583
X1.9094Y-1.3976
X1.9094Y-1.8701
X1.9094Y-1.9094
X1.9094Y-1.9488
X1.9094Y-1.9882
X1.9094Y-2.2638
X1.9094Y-2.3031
X1.9094Y-2.3425
X1.9094Y-2.3819
X1.9094Y-2.8543
X1.9094Y-2.8937
X1.9094Y-2.9331
X1.9094Y-2.9724
X1.9094Y-3.248
X1.9094Y-3.2874
X1.9094Y-3.3268
X1.9094Y-3.3661
X1.9488Y-0.8858
X1.9488Y-0.9252
X1.9488Y-0.9646
X1.9488Y-1.0039
X1.9488Y-1.0433
X1.9488Y-1.2402
X1.9488Y-1.2795
X1.9488Y-1.3189
X1.9488Y-1.3583
X1.9488Y-1.3976
X1.9488Y-1.8701
X1.9488Y-1.9094
X1.9488Y-1.9488
X1.9488Y-1.9882
X1.9488Y-2.0276
X1.9488Y-2.2244
X1.9488Y-2.2638
X1.9488Y-2.3031
X1.9488Y-2.3425
X1.9488Y-2.3819
X1.9488Y-2.8543
X1.9488Y-2.8937
X1.9488Y-2.9331
X1.9488Y-2.9724
X1.9488Y-3.0118
X1.9488Y-3.2087
X1.9488Y-3.248
X1.9488Y-3.2874
X1.9488Y-3.3268
X1.9488Y-3.3661
X1.9882Y-0.8858
X1.9882Y-0.9252
X1.9882Y-0.9646
X1.9882Y-1.0039
X1.9882Y-1.0433
X1.9882Y-1.0827
X1.9882Y-1.122
X1.9882Y-1.1614
X1.9882Y-1.2008
X1.9882Y-1.2402
X1.9882Y-1.2795
X1.9882Y-1.3189
X1.9882Y-1.3583
X1.9882Y-1.3976
X1.9882Y-1.8701
X1.9882Y-1.9094
X1.9882Y-1.9488
X1.9882Y-1.9882
X1.9882Y-2.0276
X1.9882Y-2.0669
X1.9882Y-2.1063
X1.9882Y-2.1457
X1.9882Y-2.185
X1.9882Y-2.2244
X1.9882Y-2.2638
X1.9882Y-2.3031
X1.9882Y-2.3425
X1.9882Y-2.3819
X1.9882Y-2.8543
X1.9882Y-2.8937
X1.9882Y-2.9331
X1.9882Y-2.9724
X1.9882Y-3.0118
X1.9882Y-3.0512
X1.9882Y-3.0906
X1.9882Y-3.1299
X1.9882Y-3.1693
X1.9882Y-3.2087
X1.9882Y-3.248
X1.9882Y-3.2874
X1.9882Y-3.3268
X1.9882Y-3.3682
X2.0272Y-3.0915
X2.0272Y-3.1686
X2.0276Y-0.8858
X2.0276Y-0.9252
X2.0276Y-0.9646
X2.0276Y-1.0039
X2.0276Y-1.0433
X2.0276Y-1.0827
X2.0276Y-1.122
X2.0276Y-1.1614
X2.0276Y-1.2008
X2.0276Y-1.2402
X2.0276Y-1.2795
X2.0276Y-1.3189
X2.0276Y-1.3583
X2.0276Y-1.3976
X2.0276Y-1.8701
X2.0276Y-1.9094
X2.0276Y-1.9488
X2.0276Y-1.9882
X2.0276Y-2.0276
X2.0276Y-2.0669
X2.0276Y-2.1063
X2.0276Y-2.1457
X2.0276Y-2.185
X2.0276Y-2.2244
X2.0276Y-2.2638
X2.0276Y-2.3031
X2.0276Y-2.3425
X2.0276Y-2.3819
X2.0276Y-2.8543
X2.0276Y-2.8937
X2.0276Y-2.9331
X2.0276Y-2.9724
X2.0276Y-3.0118
X2.0276Y-3.0512
X2.0276Y-3.1299
X2.0276Y-3.2087
X2.0276Y-3.248
X2.0276Y-3.2874
X2.0276Y-3.3268
X2.0276Y-3.3661
X2.0669Y-0.8858
X2.0669Y-0.9252
X2.0669Y-0.9646
X2.0669Y-1.0039
X2.0669Y-1.0433
X2.0669Y-1.0827
X2.0669Y-1.122
X2.0669Y-1.1614
X2.0669Y-1.2008
X2.0669Y-1.2402
X2.0669Y-1.2795
X2.0669Y-1.3189
X2.0669Y-1.3583
X2.0669Y-1.3976
X2.0669Y-1.8701
X2.0669Y-1.9094
X2.0669Y-1.9488
X2.0669Y-1.9882
X2.0669Y-2.0276
X2.0669Y-2.0669
X2.0669Y-2.1063
X2.0669Y-2.1457
X2.0669Y-2.185
X2.0669Y-2.2244
X2.0669Y-2.2638
X2.0669Y-2.3031
X2.0669Y-2.3425
X2.0669Y-2.3819
X2.0669Y-2.8543
X2.0669Y-2.9331
X2.0669Y-2.9724
X2.0669Y-3.0118
X2.0669Y-3.0512
X2.0669Y-3.0906
X2.0669Y-3.1299
X2.0669Y-3.1693
X2.0669Y-3.2087
X2.0669Y-3.248
X2.0669Y-3.2874
X2.0669Y-3.3268
X2.0669Y-3.3661
X2.0671Y-2.8933
X2.1063Y-0.8858
X2.1063Y-0.9252
X2.1063Y-0.9646
X2.1063Y-1.0039
X2.1063Y-1.0433
X2.1063Y-1.0827
X2.1063Y-1.122
X2.1063Y-1.1614
X2.1063Y-1.2008
X2.1063Y-1.2402
X2.1063Y-1.2795
X2.1063Y-1.3189
X2.1063Y-1.3583
X2.1063Y-1.3976
X2.1063Y-1.8701
X2.1063Y-1.9094
X2.1063Y-1.9488
X2.1063Y-1.9882
X2.1063Y-2.0276
X2.1063Y-2.0669
X2.1063Y-2.1063
X2.1063Y-2.1457
X2.1063Y-2.185
X2.1063Y-2.2244
X2.1063Y-2.2638
X2.1063Y-2.3031
X2.1063Y-2.3425
X2.1063Y-2.3819
X2.1063Y-2.8937
X2.1063Y-2.9331
X2.1063Y-2.9724
X2.1063Y-3.0118
X2.1063Y-3.0512
X2.1063Y-3.0906
X2.1063Y-3.1299
X2.1063Y-3.1693
X2.1063Y-3.2087
X2.1063Y-3.248
X2.1063Y-3.3268
X2.1063Y-3.3661
X2.108Y-2.8552
X2.108Y-3.2879
X2.1451Y-3.3242
X2.1457Y-0.8858
X2.1457Y-0.9252
X2.1457Y-0.9646
X2.1457Y-1.0039
X2.1457Y-1.0433
X2.1457Y-1.0827
X2.1457Y-1.122
X2.1457Y-1.1614
X2.1457Y-1.2008
X2.1457Y-1.2402
X2.1457Y-1.2795
X2.1457Y-1.3189
X2.1457Y-1.3583
X2.1457Y-1.3976
X2.1457Y-1.8701
X2.1457Y-1.9094
X2.1457Y-1.9488
X2.1457Y-1.9882
X2.1457Y-2.0276
X2.1457Y-2.0669
X2.1457Y-2.1063
X2.1457Y-2.1457
X2.1457Y-2.185
X2.1457Y-2.2244
X2.1457Y-2.2638
X2.1457Y-2.3031
X2.1457Y-2.3425
X2.1457Y-2.3819
X2.1457Y-2.8543
X2.1457Y-2.8937
X2.1457Y-2.9331
X2.1457Y-3.0118
X2.1457Y-3.0512
X2.1457Y-3.0906
X2.1457Y-3.1299
X2.1457Y-3.1693
X2.1457Y-3.2087
X2.1457Y-3.248
X2.1457Y-3.2874
X2.1457Y-3.3661
X2.1483Y-2.9722
X2.185Y-0.8858
X2.185Y-0.9252
X2.185Y-0.9646
X2.185Y-1.0039
X2.185Y-1.0433
X2.185Y-1.0827
X2.185Y-1.122
X2.185Y-1.1614
X2.185Y-1.2008
X2.185Y-1.2402
X2.185Y-1.2795
X2.185Y-1.3189
X2.185Y-1.3583
X2.185Y-1.3976
X2.185Y-1.8701
X2.185Y-1.9094
X2.185Y-1.9488
X2.185Y-1.9882
X2.185Y-2.0276
X2.185Y-2.0669
X2.185Y-2.1063
X2.185Y-2.1457
X2.185Y-2.185
X2.185Y-2.2244
X2.185Y-2.2638
X2.185Y-2.3031
X2.185Y-2.3425
X2.185Y-2.3819
X2.185Y-2.8543
X2.185Y-2.8937
X2.185Y-2.9331
X2.185Y-2.9724
X2.185Y-3.0118
X2.185Y-3.0512
X2.185Y-3.0906
X2.185Y-3.1299
X2.185Y-3.1693
X2.185Y-3.2087
X2.185Y-3.248
X2.185Y-3.2874
X2.185Y-3.3268
X2.185Y-3.3661
X3.2874Y-1.122
X3.2874Y-1.1614
X3.2874Y-1.2008
X3.2874Y-2.3622
X3.3268Y-1.0039
X3.3268Y-1.0433
X3.3268Y-1.0827
X3.3268Y-1.122
X3.3268Y-1.1614
X3.3268Y-1.2008
X3.3268Y-1.2402
X3.3268Y-1.2795
X3.3268Y-2.2441
X3.3268Y-2.2835
X3.3268Y-2.3228
X3.3268Y-2.3622
X3.3268Y-2.4016
X3.3268Y-2.4409
X3.3268Y-2.4803
X3.3268Y-2.5197
X3.3661Y-0.9252
X3.3661Y-0.9646
X3.3661Y-1.0039
X3.3661Y-1.0433
X3.3661Y-1.0827
X3.3661Y-1.122
X3.3661Y-1.1614
X3.3661Y-1.2008
X3.3661Y-1.2402
X3.3661Y-1.2795
X3.3661Y-1.3189
X3.3661Y-1.3583
X3.3661Y-2.2047
X3.3661Y-2.2441
X3.3661Y-2.2835
X3.3661Y-2.3228
X3.3661Y-2.3622
X3.3661Y-2.4016
X3.3661Y-2.4409
X3.3661Y-2.4803
X3.3661Y-2.5197
X3.3661Y-2.5591
X3.3661Y-2.5984
X3.4055Y-0.8858
X3.4055Y-0.9245
X3.4055Y-0.9646
X3.4055Y-1.0039
X3.4055Y-1.0433
X3.4055Y-1.0827
X3.4055Y-1.122
X3.4055Y-1.1614
X3.4055Y-1.2008
X3.4055Y-1.2402
X3.4055Y-1.2795
X3.4055Y-1.3189
X3.4055Y-1.3583
X3.4055Y-1.3976
X3.4055Y-2.1654
X3.4055Y-2.2047
X3.4055Y-2.2441
X3.4055Y-2.2835
X3.4055Y-2.3228
X3.4055Y-2.3622
X3.4055Y-2.4016
X3.4055Y-2.4409
X3.4055Y-2.4803
X3.4055Y-2.5197
X3.4055Y-2.5591
X3.4055Y-2.5984
X3.4055Y-2.6378
X3.4441Y-0.9255
X3.4449Y-0.8858
X3.4449Y-0.9646
X3.4449Y-1.0039
X3.4449Y-1.0433
X3.4449Y-1.0827
X3.4449Y-1.1223
X3.4449Y-1.1614
X3.4449Y-1.2008
X3.4449Y-1.2402
X3.4449Y-1.2795
X3.4449Y-1.3189
X3.4449Y-1.3572
X3.4449Y-1.3976
X3.4449Y-2.126
X3.4449Y-2.1654
X3.4449Y-2.2047
X3.4449Y-2.2441
X3.4449Y-2.2835
X3.4449Y-2.3228
X3.4449Y-2.3622
X3.4449Y-2.4016
X3.4449Y-2.4409
X3.4449Y-2.4803
X3.4449Y-2.5197
X3.4449Y-2.5591
X3.4449Y-2.5984
X3.4449Y-2.6378
X3.4449Y-2.6772
X3.4843Y-0.8465
X3.4843Y-0.8858
X3.4843Y-0.9252
X3.4843Y-0.9646
X3.4843Y-1.0039
X3.4843Y-1.0433
X3.4843Y-1.0827
X3.4843Y-1.2008
X3.4843Y-1.2402
X3.4843Y-1.2795
X3.4843Y-1.3189
X3.4843Y-1.3583
X3.4843Y-1.3976
X3.4843Y-1.437
X3.4843Y-2.0866
X3.4843Y-2.126
X3.4843Y-2.1654
X3.4843Y-2.2047
X3.4843Y-2.2441
X3.4843Y-2.2835
X3.4843Y-2.3228
X3.4843Y-2.4409
X3.4843Y-2.4803
X3.4843Y-2.5197
X3.4843Y-2.5591
X3.4843Y-2.5984
X3.4843Y-2.6378
X3.4843Y-2.6772
X3.5236Y-0.8465
X3.5236Y-0.8858
X3.5236Y-0.9252
X3.5236Y-0.9646
X3.5236Y-1.0039
X3.5236Y-1.2795
X3.5236Y-1.3189
X3.5236Y-1.3583
X3.5236Y-1.3976
X3.5236Y-1.437
X3.5236Y-2.0866
X3.5236Y-2.126
X3.5236Y-2.1654
X3.5236Y-2.2441
X3.5236Y-2.5197
X3.5236Y-2.5591
X3.5236Y-2.5984
X3.5236Y-2.6378
X3.5236Y-2.6772
X3.5236Y-2.7165
X3.5242Y-2.205
X3.563Y-0.8071
X3.563Y-0.8465
X3.563Y-0.8858
X3.563Y-0.9252
X3.563Y-0.9646
X3.563Y-1.0039
X3.563Y-1.3189
X3.563Y-1.3583
X3.563Y-1.3976
X3.563Y-1.437
X3.563Y-1.4764
X3.563Y-2.0866
X3.563Y-2.126
X3.563Y-2.1654
X3.563Y-2.2047
X3.563Y-2.2441
X3.563Y-2.5591
X3.563Y-2.5984
X3.563Y-2.6378
X3.563Y-2.6772
X3.563Y-2.7165
X3.6008Y-0.8465
X3.6024Y-0.8071
X3.6024Y-0.8858
X3.6024Y-0.9252
X3.6024Y-0.9646
X3.6024Y-1.3189
X3.6024Y-1.3583
X3.6024Y-1.3976
X3.6024Y-1.437
X3.6024Y-1.4764
X3.6024Y-2.0866
X3.6024Y-2.126
X3.6024Y-2.1654
X3.6024Y-2.2047
X3.6024Y-2.5591
X3.6024Y-2.5984
X3.6024Y-2.6378
X3.6024Y-2.6772
X3.6024Y-2.7165
X3.6415Y-2.5568
X3.6417Y-0.8071
X3.6417Y-0.8858
X3.6417Y-0.9252
X3.6417Y-0.9646
X3.6417Y-1.3189
X3.6417Y-1.3583
X3.6417Y-1.3976
X3.6417Y-1.437
X3.6417Y-1.4764
X3.6417Y-2.0472
X3.6417Y-2.0866
X3.6417Y-2.126
X3.6417Y-2.1654
X3.6417Y-2.2047
X3.6417Y-2.5984
X3.6417Y-2.6378
X3.6417Y-2.6772
X3.6417Y-2.7165
X3.6428Y-0.8482
X3.6811Y-0.8071
X3.6811Y-0.8465
X3.6811Y-0.8858
X3.6811Y-0.9252
X3.6811Y-0.9646
X3.6811Y-1.3189
X3.6811Y-1.3583
X3.6811Y-1.3976
X3.6811Y-1.437
X3.6811Y-1.4764
X3.6811Y-2.0866
X3.6811Y-2.126
X3.6811Y-2.1654
X3.6811Y-2.2047
X3.6811Y-2.2441
X3.6811Y-2.5591
X3.6811Y-2.5984
X3.6811Y-2.6378
X3.6811Y-2.6772
X3.6811Y-2.7165
X3.7203Y-2.6754
X3.7205Y-0.8465
X3.7205Y-0.8858
X3.7205Y-0.9252
X3.7205Y-0.9646
X3.7205Y-1.0039
X3.7205Y-1.2795
X3.7205Y-1.3189
X3.7205Y-1.3583
X3.7205Y-1.3976
X3.7205Y-1.437
X3.7205Y-2.0866
X3.7205Y-2.126
X3.7205Y-2.1654
X3.7205Y-2.2047
X3.7205Y-2.2441
X3.7205Y-2.5197
X3.7205Y-2.5591
X3.7205Y-2.5984
X3.7205Y-2.6378
X3.7205Y-2.7165
X3.7598Y-0.8465
X3.7598Y-0.8858
X3.7598Y-0.9252
X3.7598Y-0.9646
X3.7598Y-1.0039
X3.7598Y-1.0433
X3.7598Y-1.2402
X3.7598Y-1.2795
X3.7598Y-1.3189
X3.7598Y-1.3583
X3.7598Y-1.3976
X3.7598Y-1.437
X3.7598Y-2.0866
X3.7598Y-2.126
X3.7598Y-2.1654
X3.7598Y-2.2047
X3.7598Y-2.2441
X3.7598Y-2.2835
X3.7598Y-2.4803
X3.7598Y-2.5197
X3.7598Y-2.5591
X3.7598Y-2.5984
X3.7598Y-2.6378
X3.7598Y-2.6772
X3.7991Y-2.5632
X3.7992Y-0.8465
X3.7992Y-0.8858
X3.7992Y-0.9252
X3.7992Y-0.9646
X3.7992Y-1.0039
X3.7992Y-1.0433
X3.7992Y-1.0827
X3.7992Y-1.122
X3.7992Y-1.1614
X3.7992Y-1.2008
X3.7992Y-1.2402
X3.7992Y-1.2795
X3.7992Y-1.3189
X3.7992Y-1.3583
X3.7992Y-1.3976
X3.7992Y-1.437
X3.7992Y-2.126
X3.7992Y-2.1654
X3.7992Y-2.2047
X3.7992Y-2.2441
X3.7992Y-2.2835
X3.7992Y-2.3228
X3.7992Y-2.3622
X3.7992Y-2.4016
X3.7992Y-2.4409
X3.7992Y-2.4803
X3.7992Y-2.5197
X3.7992Y-2.5984
X3.7992Y-2.6378
X3.7992Y-2.6772
X3.8381Y-2.5597
X3.8386Y-0.8858
X3.8386Y-0.9646
X3.8386Y-1.0039
X3.8386Y-1.0433
X3.8386Y-1.0827
X3.8386Y-1.122
X3.8386Y-1.2008
X3.8386Y-1.2402
X3.8386Y-1.2795
X3.8386Y-1.3189
X3.8386Y-1.3583
X3.8386Y-1.3976
X3.8386Y-2.126
X3.8386Y-2.1654
X3.8386Y-2.2047
X3.8386Y-2.2441
X3.8386Y-2.2835
X3.8386Y-2.3228
X3.8386Y-2.3622
X3.8386Y-2.4016
X3.8386Y-2.4409
X3.8386Y-2.4803
X3.8386Y-2.5197
X3.8386Y-2.5984
X3.8386Y-2.6378
X3.839Y-0.9252
X3.8391Y-1.1604
X3.878Y-0.9252
X3.878Y-0.9646
X3.878Y-1.0039
X3.878Y-1.0433
X3.878Y-1.0827
X3.878Y-1.122
X3.878Y-1.1614
X3.878Y-1.2008
X3.878Y-1.2402
X3.878Y-1.2795
X3.878Y-1.3189
X3.878Y-1.3583
X3.878Y-2.1654
X3.878Y-2.2047
X3.878Y-2.2441
X3.878Y-2.2835
X3.878Y-2.3228
X3.878Y-2.3622
X3.878Y-2.4016
X3.878Y-2.4409
X3.878Y-2.5197
X3.878Y-2.5591
X3.878Y-2.5984
X3.8793Y-2.4809
X3.9173Y-0.9646
X3.9173Y-1.0039
X3.9173Y-1.0433
X3.9173Y-1.0827
X3.9173Y-1.122
X3.9173Y-1.1614
X3.9173Y-1.2008
X3.9173Y-1.2402
X3.9173Y-1.2795
X3.9173Y-1.3189
X3.9173Y-2.2441
X3.9173Y-2.2835
X3.9173Y-2.3228
X3.9173Y-2.3622
X3.9173Y-2.4016
X3.9173Y-2.4409
X3.9173Y-2.4803
X3.9173Y-2.5197
X3.9173Y-2.5591
X3.9567Y-1.0433
X3.9567Y-1.0827
X3.9567Y-1.122
X3.9567Y-1.1614
X3.9567Y-1.2008
X3.9567Y-1.2402
X3.9567Y-2.3228
X3.9567Y-2.3622
X3.9567Y-2.4016
X3.9567Y-2.4409
X3.9567Y-2.4803
X5.0777Y-1.9073
X5.0787Y-0.8858
X5.0787Y-0.9252
X5.0787Y-0.9646
X5.0787Y-1.0039
X5.0787Y-1.0433
X5.0787Y-1.0827
X5.0787Y-1.122
X5.0787Y-1.1614
X5.0787Y-1.2008
X5.0787Y-1.2402
X5.0787Y-1.2795
X5.0787Y-1.3189
X5.0787Y-1.3583
X5.0787Y-1.3976
X5.0787Y-1.8701
X5.0787Y-1.9488
X5.0787Y-1.9882
X5.0787Y-2.0276
X5.0787Y-2.0669
X5.0787Y-2.1063
X5.0787Y-2.1457
X5.0787Y-2.185
X5.0787Y-2.2244
X5.0787Y-2.2638
X5.0787Y-2.3031
X5.0787Y-2.3425
X5.0787Y-2.3819
X5.0787Y-2.8543
X5.0787Y-2.8937
X5.0787Y-2.9331
X5.0787Y-2.9724
X5.0787Y-3.0118
X5.0787Y-3.0512
X5.0787Y-3.0906
X5.0787Y-3.1299
X5.0787Y-3.1693
X5.0787Y-3.2087
X5.0787Y-3.248
X5.0787Y-3.2874
X5.0787Y-3.3268
X5.0787Y-3.3661
X5.1181Y-0.8858
X5.1181Y-0.9252
X5.1181Y-0.9646
X5.1181Y-1.0039
X5.1181Y-1.0433
X5.1181Y-1.0827
X5.1181Y-1.122
X5.1181Y-1.1614
X5.1181Y-1.2008
X5.1181Y-1.2402
X5.1181Y-1.2795
X5.1181Y-1.3189
X5.1181Y-1.3583
X5.1181Y-1.3976
X5.1181Y-1.8701
X5.1181Y-1.9094
X5.1181Y-1.9488
X5.1181Y-1.9882
X5.1181Y-2.0276
X5.1181Y-2.0669
X5.1181Y-2.1063
X5.1181Y-2.1457
X5.1181Y-2.185
X5.1181Y-2.2256
X5.1181Y-2.2638
X5.1181Y-2.3031
X5.1181Y-2.3425
X5.1181Y-2.3819
X5.1181Y-2.8543
X5.1181Y-2.8937
X5.1181Y-2.9331
X5.1181Y-2.9724
X5.1181Y-3.0118
X5.1181Y-3.0512
X5.1181Y-3.0906
X5.1181Y-3.1299
X5.1181Y-3.1693
X5.1181Y-3.2087
X5.1181Y-3.248
X5.1181Y-3.2874
X5.1181Y-3.3268
X5.1181Y-3.3661
X5.1557Y-2.3004
X5.1575Y-0.8858
X5.1575Y-0.9252
X5.1575Y-0.9646
X5.1575Y-1.0039
X5.1575Y-1.0433
X5.1575Y-1.0827
X5.1575Y-1.122
X5.1575Y-1.1614
X5.1575Y-1.2008
X5.1575Y-1.2402
X5.1575Y-1.2795
X5.1575Y-1.3189
X5.1575Y-1.3583
X5.1575Y-1.3976
X5.1575Y-1.8701
X5.1575Y-1.9094
X5.1575Y-1.9488
X5.1575Y-1.9882
X5.1575Y-2.0276
X5.1575Y-2.0669
X5.1575Y-2.1063
X5.1575Y-2.1457
X5.1575Y-2.185
X5.1575Y-2.2244
X5.1575Y-2.2638
X5.1575Y-2.3425
X5.1575Y-2.3819
X5.1575Y-2.8543
X5.1575Y-2.8937
X5.1575Y-2.9331
X5.1575Y-2.9724
X5.1575Y-3.0118
X5.1575Y-3.0512
X5.1575Y-3.0906
X5.1575Y-3.1299
X5.1575Y-3.1693
X5.1575Y-3.2087
X5.1575Y-3.248
X5.1575Y-3.2874
X5.1575Y-3.3268
X5.1575Y-3.3661
X5.1969Y-1.9888
X5.1969Y-0.8858
X5.1969Y-0.9252
X5.1969Y-0.9646
X5.1969Y-1.0039
X5.1969Y-1.0433
X5.1969Y-1.0827
X5.1969Y-1.122
X5.1969Y-1.1614
X5.1969Y-1.2008
X5.1969Y-1.2402
X5.1969Y-1.2795
X5.1969Y-1.3189
X5.1969Y-1.3583
X5.1969Y-1.3976
X5.1969Y-1.8701
X5.1969Y-1.9094
X5.1969Y-1.9488
X5.1969Y-2.0276
X5.1969Y-2.0669
X5.1969Y-2.1063
X5.1969Y-2.1457
X5.1969Y-2.185
X5.1969Y-2.2244
X5.1969Y-2.2638
X5.1969Y-2.3031
X5.1969Y-2.3425
X5.1969Y-2.3819
X5.1969Y-2.8543
X5.1969Y-2.8937
X5.1969Y-2.9331
X5.1969Y-2.9724
X5.1969Y-3.0118
X5.1969Y-3.0512
X5.1969Y-3.0906
X5.1969Y-3.1299
X5.1969Y-3.1693
X5.1969Y-3.2087
X5.1969Y-3.248
X5.1969Y-3.2874
X5.1969Y-3.3268
X5.1969Y-3.3661
X5.2362Y-0.8858
X5.2362Y-0.9252
X5.2362Y-0.9646
X5.2362Y-1.0039
X5.2362Y-1.0433
X5.2362Y-1.0827
X5.2362Y-1.2008
X5.2362Y-1.2402
X5.2362Y-1.2795
X5.2362Y-1.3189
X5.2362Y-1.3583
X5.2362Y-1.3976
X5.2362Y-1.8701
X5.2362Y-1.9094
X5.2362Y-1.9488
X5.2362Y-1.9882
X5.2362Y-2.0276
X5.2362Y-2.0669
X5.2362Y-2.185
X5.2362Y-2.2244
X5.2362Y-2.2638
X5.2362Y-2.3425
X5.2362Y-2.3819
X5.2362Y-2.8543
X5.2362Y-2.8937
X5.2362Y-2.9331
X5.2362Y-2.9724
X5.2362Y-3.0118
X5.2362Y-3.0512
X5.2362Y-3.1693
X5.2362Y-3.2087
X5.2362Y-3.248
X5.2362Y-3.2874
X5.2362Y-3.3268
X5.2362Y-3.3661
X5.2366Y-2.3025
X5.2756Y-0.8858
X5.2756Y-0.9252
X5.2756Y-0.9646
X5.2756Y-1.0039
X5.2756Y-1.2795
X5.2756Y-1.3189
X5.2756Y-1.3583
X5.2756Y-1.3976
X5.2756Y-1.8701
X5.2756Y-1.9094
X5.2756Y-1.9488
X5.2756Y-1.9882
X5.2756Y-2.2638
X5.2756Y-2.3031
X5.2756Y-2.3425
X5.2756Y-2.3819
X5.2756Y-2.8543
X5.2756Y-2.8937
X5.2756Y-2.9331
X5.2756Y-2.9724
X5.2756Y-3.248
X5.2756Y-3.2874
X5.2756Y-3.3268
X5.2756Y-3.3661
X5.315Y-0.8858
X5.315Y-0.9252
X5.315Y-0.9646
X5.315Y-1.0039
X5.315Y-1.3189
X5.315Y-1.3583
X5.315Y-1.3976
X5.315Y-1.8701
X5.315Y-1.9094
X5.315Y-1.9488
X5.315Y-2.2638
X5.315Y-2.3031
X5.315Y-2.3425
X5.315Y-2.3819
X5.315Y-2.8543
X5.315Y-2.8937
X5.315Y-2.9331
X5.315Y-2.9724
X5.315Y-3.2874
X5.315Y-3.3268
X5.315Y-3.3661
X5.3543Y-0.8858
X5.3543Y-0.9252
X5.3543Y-0.9646
X5.3543Y-1.3189
X5.3543Y-1.3583
X5.3543Y-1.3976
X5.3543Y-1.8701
X5.3543Y-1.9094
X5.3543Y-1.9488
X5.3543Y-2.3031
X5.3543Y-2.3425
X5.3543Y-2.3819
X5.3543Y-2.8543
X5.3543Y-2.8937
X5.3543Y-2.9331
X5.3543Y-3.2874
X5.3543Y-3.3268
X5.3543Y-3.3661
X5.3937Y-0.8858
X5.3937Y-0.9252
X5.3937Y-0.9646
X5.3937Y-1.3189
X5.3937Y-1.3583
X5.3937Y-1.3976
X5.3937Y-1.8701
X5.3937Y-1.9094
X5.3937Y-1.9488
X5.3937Y-2.3031
X5.3937Y-2.3425
X5.3937Y-2.3819
X5.3937Y-2.8543
X5.3937Y-2.8937
X5.3937Y-2.9331
X5.3937Y-3.2874
X5.3937Y-3.3268
X5.3937Y-3.3661
X5.4331Y-0.8858
X5.4331Y-0.9252
X5.4331Y-0.9646
X5.4331Y-1.3189
X5.4331Y-1.3583
X5.4331Y-1.3976
X5.4331Y-1.8701
X5.4331Y-1.9094
X5.4331Y-1.9488
X5.4331Y-2.3031
X5.4331Y-2.3425
X5.4331Y-2.3819
X5.4331Y-2.8543
X5.4331Y-2.8937
X5.4331Y-2.9331
X5.4331Y-3.2874
X5.4331Y-3.3268
X5.4331Y-3.3661
X5.4724Y-0.8858
X5.4724Y-0.9252
X5.4724Y-0.9646
X5.4724Y-1.0039
X5.4724Y-1.2795
X5.4724Y-1.3189
X5.4724Y-1.3583
X5.4724Y-1.3976
X5.4724Y-1.8701
X5.4724Y-1.9094
X5.4724Y-1.9488
X5.4724Y-1.9882
X5.4724Y-2.2638
X5.4724Y-2.3031
X5.4724Y-2.3423
X5.4724Y-2.3819
X5.4724Y-2.8543
X5.4724Y-2.8937
X5.4724Y-2.9331
X5.4724Y-2.9724
X5.4724Y-3.248
X5.4724Y-3.2874
X5.4724Y-3.3268
X5.4724Y-3.3661
X5.5118Y-0.8858
X5.5118Y-0.9252
X5.5118Y-0.9646
X5.5118Y-1.0039
X5.5118Y-1.0433
X5.5118Y-1.2402
X5.5118Y-1.2795
X5.5118Y-1.3189
X5.5118Y-1.3583
X5.5118Y-1.3976
X5.5118Y-1.8701
X5.5118Y-1.9094
X5.5118Y-1.9488
X5.5118Y-1.9882
X5.5118Y-2.0276
X5.5118Y-2.2244
X5.5118Y-2.2638
X5.5118Y-2.3031
X5.5118Y-2.3425
X5.5118Y-2.3819
X5.5118Y-2.8543
X5.5118Y-2.8937
X5.5118Y-2.9331
X5.5118Y-2.9724
X5.5118Y-3.0118
X5.5118Y-3.2087
X5.5118Y-3.248
X5.5118Y-3.2874
X5.5118Y-3.3268
X5.5118Y-3.3661
X5.5496Y-2.2628
X5.551Y-1.9902
X5.5512Y-0.8858
X5.5512Y-0.9252
X5.5512Y-0.9646
X5.5512Y-1.0039
X5.5512Y-1.0433
X5.5512Y-1.0827
X5.5512Y-1.122
X5.5512Y-1.1614
X5.5512Y-1.2008
X5.5512Y-1.2402
X5.5512Y-1.2795
X5.5512Y-1.3189
X5.5512Y-1.3583
X5.5512Y-1.3976
X5.5512Y-1.8701
X5.5512Y-1.9094
X5.5512Y-1.9488
X5.5512Y-2.0276
X5.5512Y-2.0669
X5.5512Y-2.1063
X5.5512Y-2.1457
X5.5512Y-2.185
X5.5512Y-2.2244
X5.5512Y-2.3031
X5.5512Y-2.3425
X5.5512Y-2.3819
X5.5512Y-2.8543
X5.5512Y-2.8937
X5.5512Y-2.9331
X5.5512Y-2.9724
X5.5512Y-3.0118
X5.5512Y-3.0512
X5.5512Y-3.0906
X5.5512Y-3.1299
X5.5512Y-3.1693
X5.5512Y-3.2087
X5.5512Y-3.248
X5.5512Y-3.2874
X5.5512Y-3.3268
X5.5512Y-3.3661
X5.5906Y-0.8858
X5.5906Y-0.9252
X5.5906Y-0.9646
X5.5906Y-1.0039
X5.5906Y-1.0433
X5.5906Y-1.0827
X5.5906Y-1.122
X5.5906Y-1.1614
X5.5906Y-1.2008
X5.5906Y-1.2402
X5.5906Y-1.2795
X5.5906Y-1.3189
X5.5906Y-1.3583
X5.5906Y-1.3976
X5.5906Y-1.8701
X5.5906Y-1.9094
X5.5906Y-1.9488
X5.5906Y-1.9882
X5.5906Y-2.0276
X5.5906Y-2.0669
X5.5906Y-2.1063
X5.5906Y-2.1457
X5.5906Y-2.185
X5.5906Y-2.2244
X5.5906Y-2.2638
X5.5906Y-2.3031
X5.5906Y-2.3425
X5.5906Y-2.3819
X5.5906Y-2.8543
X5.5906Y-2.8937
X5.5906Y-2.9331
X5.5906Y-2.9724
X5.5906Y-3.0118
X5.5906Y-3.0512
X5.5906Y-3.0906
X5.5906Y-3.1299
X5.5906Y-3.1693
X5.5906Y-3.2087
X5.5906Y-3.248
X5.5906Y-3.2874
X5.5906Y-3.3268
X5.5906Y-3.3661
X5.6269Y-3.0875
X5.6299Y-0.8858
X5.6299Y-0.9252
X5.6299Y-0.9646
X5.6299Y-1.0039
X5.6299Y-1.0433
X5.6299Y-1.0827
X5.6299Y-1.122
X5.6299Y-1.1614
X5.6299Y-1.2008
X5.6299Y-1.2402
X5.6299Y-1.2795
X5.6299Y-1.3189
X5.6299Y-1.3583
X5.6299Y-1.3976
X5.6299Y-1.8701
X5.6299Y-1.9094
X5.6299Y-1.9488
X5.6299Y-1.9882
X5.6299Y-2.0276
X5.6299Y-2.0669
X5.6299Y-2.1063
X5.6299Y-2.1457
X5.6299Y-2.185
X5.6299Y-2.2244
X5.6299Y-2.2638
X5.6299Y-2.3031
X5.6299Y-2.3425
X5.6299Y-2.3819
X5.6299Y-2.8543
X5.6299Y-2.8937
X5.6299Y-2.9331
X5.6299Y-2.9724
X5.6299Y-3.0118
X5.6299Y-3.0512
X5.6299Y-3.1299
X5.6299Y-3.1693
X5.6299Y-3.2087
X5.6299Y-3.248
X5.6299Y-3.2874
X5.6299Y-3.3268
X5.6299Y-3.3661
X5.6681Y-2.1045
X5.6693Y-0.8858
X5.6693Y-0.9252
X5.6693Y-0.9646
X5.6693Y-1.0039
X5.6693Y-1.0433
X5.6693Y-1.0827
X5.6693Y-1.122
X5.6693Y-1.1614
X5.6693Y-1.2008
X5.6693Y-1.2402
X5.6693Y-1.2795
X5.6693Y-1.3189
X5.6693Y-1.3583
X5.6693Y-1.3976
X5.6693Y-1.8701
X5.6693Y-1.9094
X5.6693Y-1.9488
X5.6693Y-1.9882
X5.6693Y-2.0276
X5.6693Y-2.0669
X5.6693Y-2.1457
X5.6693Y-2.185
X5.6693Y-2.2244
X5.6693Y-2.2638
X5.6693Y-2.3031
X5.6693Y-2.3425
X5.6693Y-2.3819
X5.6693Y-2.8543
X5.6693Y-2.8937
X5.6693Y-2.9331
X5.6693Y-2.9724
X5.6693Y-3.0118
X5.6693Y-3.0512
X5.6693Y-3.0906
X5.6693Y-3.1299
X5.6693Y-3.1693
X5.6693Y-3.2087
X5.6693Y-3.248
X5.6693Y-3.2874
X5.6693Y-3.3268
X5.6693Y-3.3661
X5.7087Y-0.8858
X5.7087Y-0.9252
X5.7087Y-0.9646
X5.7087Y-1.0039
X5.7087Y-1.0433
X5.7087Y-1.0827
X5.7087Y-1.122
X5.7087Y-1.1614
X5.7087Y-1.2008
X5.7087Y-1.2402
X5.7087Y-1.2795
X5.7087Y-1.3189
X5.7087Y-1.3583
X5.7087Y-1.3976
X5.7087Y-1.8701
X5.7087Y-1.9094
X5.7087Y-1.9488
X5.7087Y-1.9882
X5.7087Y-2.0276
X5.7087Y-2.0669
X5.7087Y-2.1063
X5.7087Y-2.1457
X5.7087Y-2.185
X5.7087Y-2.2244
X5.7087Y-2.2638
X5.7087Y-2.3031
X5.7087Y-2.3425
X5.7087Y-2.3819
X5.7087Y-2.8543
X5.7087Y-2.8937
X5.7087Y-2.9331
X5.7087Y-2.9724
X5.7087Y-3.0118
X5.7087Y-3.0512
X5.7087Y-3.0906
X5.7087Y-3.1299
X5.7087Y-3.1693
X5.7087Y-3.2087
X5.7087Y-3.248
X5.7087Y-3.2874
X5.7087Y-3.3268
X5.7087Y-3.3661
X5.748Y-0.8858
X5.748Y-0.9252
X5.748Y-0.9646
X5.748Y-1.0039
X5.748Y-1.0433
X5.748Y-1.0827
X5.748Y-1.122
X5.748Y-1.1614
X5.748Y-1.2008
X5.748Y-1.2402
X5.748Y-1.2795
X5.748Y-1.3189
X5.748Y-1.3583
X5.748Y-1.3976
X5.748Y-1.8701
X5.748Y-1.9094
X5.748Y-1.9488
X5.748Y-1.9882
X5.748Y-2.0276
X5.748Y-2.0669
X5.748Y-2.1063
X5.748Y-2.1457
X5.748Y-2.185
X5.748Y-2.2244
X5.748Y-2.2638
X5.748Y-2.3031
X5.748Y-2.3425
X5.748Y-2.3819
X5.748Y-2.8543
X5.748Y-2.8937
X5.748Y-2.9331
X5.748Y-2.9724
X5.748Y-3.0118
X5.748Y-3.0512
X5.748Y-3.0906
X5.748Y-3.1299
X5.748Y-3.1693
X5.748Y-3.2087
X5.748Y-3.248
X5.748Y-3.2874
X5.748Y-3.3268
X5.748Y-3.3661
T2
X4.6063Y-3.5236
X4.7244Y-3.5236
T3
X4.5154Y-3.1496
X4.8154Y-3.1496
T4
X2.9921Y-2.1457
X2.9921Y-3.2283
T5
X2.5984Y-0.9764
X2.5984Y-1.9764
X2.5984Y-2.1575
X2.5984Y-3.1575
X2.8346Y-0.9764
X2.8346Y-1.9764
X3.0709Y-0.9764
X3.0709Y-1.9764
T6
X2.4606Y-3.5236
X4.4291Y-3.5236
M30
