%TF.GenerationSoftware,KiCad,Pcbnew,8.0.1*%
%TF.CreationDate,2024-06-26T23:15:26-04:00*%
%TF.ProjectId,booster-bus,626f6f73-7465-4722-9d62-75732e6b6963,rev?*%
%TF.SameCoordinates,Original*%
%TF.FileFunction,Soldermask,Bot*%
%TF.FilePolarity,Negative*%
%FSLAX46Y46*%
G04 Gerber Fmt 4.6, Leading zero omitted, Abs format (unit mm)*
G04 Created by KiCad (PCBNEW 8.0.1) date 2024-06-26 23:15:26*
%MOMM*%
%LPD*%
G01*
G04 APERTURE LIST*
%ADD10C,0.100000*%
%ADD11C,9.050000*%
%ADD12C,2.000000*%
%ADD13C,1.600000*%
%ADD14O,1.600000X1.600000*%
%ADD15C,1.000000*%
%ADD16C,1.575000*%
G04 APERTURE END LIST*
D10*
X37900000Y-72000000D02*
X55900000Y-72000000D01*
X55900000Y-86000000D01*
X37900000Y-86000000D01*
X37900000Y-72000000D01*
G36*
X37900000Y-72000000D02*
G01*
X55900000Y-72000000D01*
X55900000Y-86000000D01*
X37900000Y-86000000D01*
X37900000Y-72000000D01*
G37*
X37900000Y-47000000D02*
X55900000Y-47000000D01*
X55900000Y-61000000D01*
X37900000Y-61000000D01*
X37900000Y-47000000D01*
G36*
X37900000Y-47000000D02*
G01*
X55900000Y-47000000D01*
X55900000Y-61000000D01*
X37900000Y-61000000D01*
X37900000Y-47000000D01*
G37*
X128400000Y-47000000D02*
X146400000Y-47000000D01*
X146400000Y-61000000D01*
X128400000Y-61000000D01*
X128400000Y-47000000D01*
G36*
X128400000Y-47000000D02*
G01*
X146400000Y-47000000D01*
X146400000Y-61000000D01*
X128400000Y-61000000D01*
X128400000Y-47000000D01*
G37*
D11*
X96675000Y-60750000D02*
G75*
G02*
X87625000Y-60750000I-4525000J0D01*
G01*
X87625000Y-60750000D02*
G75*
G02*
X96675000Y-60750000I4525000J0D01*
G01*
D10*
X128500000Y-22000000D02*
X146500000Y-22000000D01*
X146500000Y-36000000D01*
X128500000Y-36000000D01*
X128500000Y-22000000D01*
G36*
X128500000Y-22000000D02*
G01*
X146500000Y-22000000D01*
X146500000Y-36000000D01*
X128500000Y-36000000D01*
X128500000Y-22000000D01*
G37*
D11*
X96675000Y-29000000D02*
G75*
G02*
X87625000Y-29000000I-4525000J0D01*
G01*
X87625000Y-29000000D02*
G75*
G02*
X96675000Y-29000000I4525000J0D01*
G01*
D10*
X55900000Y-22000000D02*
X128400000Y-22000000D01*
X128400000Y-36000000D01*
X55900000Y-36000000D01*
X55900000Y-22000000D01*
G36*
X55900000Y-22000000D02*
G01*
X128400000Y-22000000D01*
X128400000Y-36000000D01*
X55900000Y-36000000D01*
X55900000Y-22000000D01*
G37*
X128400000Y-72000000D02*
X146400000Y-72000000D01*
X146400000Y-86000000D01*
X128400000Y-86000000D01*
X128400000Y-72000000D01*
G36*
X128400000Y-72000000D02*
G01*
X146400000Y-72000000D01*
X146400000Y-86000000D01*
X128400000Y-86000000D01*
X128400000Y-72000000D01*
G37*
X74500000Y-80500000D02*
X77500000Y-80500000D01*
X77500000Y-95500000D01*
X74500000Y-95500000D01*
X74500000Y-80500000D01*
G36*
X74500000Y-80500000D02*
G01*
X77500000Y-80500000D01*
X77500000Y-95500000D01*
X74500000Y-95500000D01*
X74500000Y-80500000D01*
G37*
X37900000Y-22000000D02*
X55900000Y-22000000D01*
X55900000Y-36000000D01*
X37900000Y-36000000D01*
X37900000Y-22000000D01*
G36*
X37900000Y-22000000D02*
G01*
X55900000Y-22000000D01*
X55900000Y-36000000D01*
X37900000Y-36000000D01*
X37900000Y-22000000D01*
G37*
D12*
%TO.C,R1*%
X62500000Y-89500000D03*
X112500000Y-89500000D03*
%TD*%
D13*
%TO.C,R7*%
X122310000Y-80000000D03*
D14*
X114690000Y-80000000D03*
%TD*%
D15*
%TO.C,NE1*%
X120000000Y-89500000D03*
X117000000Y-89500000D03*
%TD*%
D16*
%TO.C,R3*%
X72000000Y-24800000D03*
X72000000Y-50200000D03*
%TD*%
%TO.C,R5*%
X66000000Y-80200000D03*
X66000000Y-54800000D03*
%TD*%
%TO.C,R2*%
X66000000Y-24800000D03*
X66000000Y-50200000D03*
%TD*%
%TO.C,R4*%
X78000000Y-24800000D03*
X78000000Y-50200000D03*
%TD*%
D12*
%TO.C,C6*%
X76000000Y-54500000D03*
X76000000Y-82000000D03*
%TD*%
M02*
