%TF.GenerationSoftware,KiCad,Pcbnew,8.0.1*%
%TF.CreationDate,2024-06-26T23:15:26-04:00*%
%TF.ProjectId,booster-bus,626f6f73-7465-4722-9d62-75732e6b6963,rev?*%
%TF.SameCoordinates,Original*%
%TF.FileFunction,Profile,NP*%
%FSLAX46Y46*%
G04 Gerber Fmt 4.6, Leading zero omitted, Abs format (unit mm)*
G04 Created by KiCad (PCBNEW 8.0.1) date 2024-06-26 23:15:26*
%MOMM*%
%LPD*%
G01*
G04 APERTURE LIST*
%TA.AperFunction,Profile*%
%ADD10C,0.050000*%
%TD*%
G04 APERTURE END LIST*
D10*
X33500000Y-65500000D02*
X33500000Y-18500000D01*
X35500000Y-95500000D02*
G75*
G02*
X33500000Y-93500000I0J2000000D01*
G01*
X49650000Y-54000000D02*
G75*
G02*
X42650000Y-54000000I-3500000J0D01*
G01*
X42650000Y-54000000D02*
G75*
G02*
X49650000Y-54000000I3500000J0D01*
G01*
X140150000Y-29000000D02*
G75*
G02*
X133150000Y-29000000I-3500000J0D01*
G01*
X133150000Y-29000000D02*
G75*
G02*
X140150000Y-29000000I3500000J0D01*
G01*
X95650000Y-29000000D02*
G75*
G02*
X88650000Y-29000000I-3500000J0D01*
G01*
X88650000Y-29000000D02*
G75*
G02*
X95650000Y-29000000I3500000J0D01*
G01*
X152500000Y-93500000D02*
G75*
G02*
X150500000Y-95500000I-2000000J0D01*
G01*
X140150000Y-54000000D02*
G75*
G02*
X133150000Y-54000000I-3500000J0D01*
G01*
X133150000Y-54000000D02*
G75*
G02*
X140150000Y-54000000I3500000J0D01*
G01*
X95650000Y-60750000D02*
G75*
G02*
X88650000Y-60750000I-3500000J0D01*
G01*
X88650000Y-60750000D02*
G75*
G02*
X95650000Y-60750000I3500000J0D01*
G01*
X140150000Y-79000000D02*
G75*
G02*
X133150000Y-79000000I-3500000J0D01*
G01*
X133150000Y-79000000D02*
G75*
G02*
X140150000Y-79000000I3500000J0D01*
G01*
X49650000Y-29000000D02*
G75*
G02*
X42650000Y-29000000I-3500000J0D01*
G01*
X42650000Y-29000000D02*
G75*
G02*
X49650000Y-29000000I3500000J0D01*
G01*
X49650000Y-79000000D02*
G75*
G02*
X42650000Y-79000000I-3500000J0D01*
G01*
X42650000Y-79000000D02*
G75*
G02*
X49650000Y-79000000I3500000J0D01*
G01*
X150500000Y-16500000D02*
G75*
G02*
X152500000Y-18500000I0J-2000000D01*
G01*
X150500000Y-95500000D02*
X35500000Y-95500000D01*
X35500000Y-16500000D02*
X150500000Y-16500000D01*
X152500000Y-93500000D02*
X152500000Y-18500000D01*
X33500000Y-18500000D02*
G75*
G02*
X35500000Y-16500000I2000000J0D01*
G01*
X33500000Y-65500000D02*
X33500000Y-93500000D01*
M02*
