%TF.GenerationSoftware,KiCad,Pcbnew,8.0.1*%
%TF.CreationDate,2024-06-26T23:15:26-04:00*%
%TF.ProjectId,booster-bus,626f6f73-7465-4722-9d62-75732e6b6963,rev?*%
%TF.SameCoordinates,Original*%
%TF.FileFunction,Copper,L2,Bot*%
%TF.FilePolarity,Positive*%
%FSLAX46Y46*%
G04 Gerber Fmt 4.6, Leading zero omitted, Abs format (unit mm)*
G04 Created by KiCad (PCBNEW 8.0.1) date 2024-06-26 23:15:26*
%MOMM*%
%LPD*%
G01*
G04 APERTURE LIST*
%TA.AperFunction,Conductor*%
%ADD10C,9.100000*%
%TD*%
%TA.AperFunction,ComponentPad*%
%ADD11C,2.000000*%
%TD*%
%TA.AperFunction,ComponentPad*%
%ADD12C,1.600000*%
%TD*%
%TA.AperFunction,ComponentPad*%
%ADD13O,1.600000X1.600000*%
%TD*%
%TA.AperFunction,ComponentPad*%
%ADD14C,1.000000*%
%TD*%
%TA.AperFunction,ComponentPad*%
%ADD15C,1.575000*%
%TD*%
%TA.AperFunction,ViaPad*%
%ADD16C,0.600000*%
%TD*%
%TA.AperFunction,Conductor*%
%ADD17C,1.000000*%
%TD*%
G04 APERTURE END LIST*
%TO.N,/V-*%
D10*
X96700000Y-60750000D02*
G75*
G02*
X87600000Y-60750000I-4550000J0D01*
G01*
X87600000Y-60750000D02*
G75*
G02*
X96700000Y-60750000I4550000J0D01*
G01*
%TD*%
D11*
%TO.P,R1,1*%
%TO.N,/OUT+*%
X62500000Y-89500000D03*
%TO.P,R1,2*%
%TO.N,/OUT-*%
X112500000Y-89500000D03*
%TD*%
D12*
%TO.P,R7,1*%
%TO.N,Net-(NE1-Pad1)*%
X122310000Y-80000000D03*
D13*
%TO.P,R7,2*%
%TO.N,/V-*%
X114690000Y-80000000D03*
%TD*%
D14*
%TO.P,NE1,1*%
%TO.N,Net-(NE1-Pad1)*%
X120000000Y-89500000D03*
%TO.P,NE1,2*%
%TO.N,/V+*%
X117000000Y-89500000D03*
%TD*%
D15*
%TO.P,R3,1*%
%TO.N,/V+*%
X72000000Y-24800000D03*
%TO.P,R3,2*%
%TO.N,/V-*%
X72000000Y-50200000D03*
%TD*%
%TO.P,R5,1*%
%TO.N,/V+*%
X66000000Y-80200000D03*
%TO.P,R5,2*%
%TO.N,/V-*%
X66000000Y-54800000D03*
%TD*%
%TO.P,R2,1*%
%TO.N,/V+*%
X66000000Y-24800000D03*
%TO.P,R2,2*%
%TO.N,/V-*%
X66000000Y-50200000D03*
%TD*%
%TO.P,R4,1*%
%TO.N,/V+*%
X78000000Y-24800000D03*
%TO.P,R4,2*%
%TO.N,/V-*%
X78000000Y-50200000D03*
%TD*%
D11*
%TO.P,C6,1*%
%TO.N,/V-*%
X76000000Y-54500000D03*
%TO.P,C6,2*%
%TO.N,/GND*%
X76000000Y-82000000D03*
%TD*%
D16*
%TO.N,/V+*%
X55500000Y-33500000D03*
X98500000Y-32500000D03*
X54500000Y-23500000D03*
X54500000Y-31500000D03*
X95500000Y-25500000D03*
X94500000Y-32500000D03*
X133000000Y-33500000D03*
X43500000Y-34500000D03*
X87500000Y-29500000D03*
X97512068Y-29473538D03*
X40500000Y-23500000D03*
X92500000Y-22500000D03*
X93500000Y-36500000D03*
X53500000Y-30500000D03*
X49500000Y-33500000D03*
X146000000Y-33500000D03*
X140000000Y-35500000D03*
X90500000Y-37500000D03*
X44500000Y-34500000D03*
X143000000Y-24500000D03*
X99500000Y-26500000D03*
X87500000Y-22500000D03*
X54500000Y-34500000D03*
X131000000Y-34500000D03*
X142000000Y-26500000D03*
X97500000Y-35500000D03*
X132000000Y-33500000D03*
X129000000Y-23500000D03*
X55500000Y-28500000D03*
X40500000Y-22500000D03*
X136000000Y-22500000D03*
X140000000Y-34500000D03*
X135000000Y-24500000D03*
X47500000Y-35500000D03*
X85500000Y-31500000D03*
X45500000Y-23500000D03*
X145000000Y-32500000D03*
X86500000Y-26500000D03*
X42500000Y-22500000D03*
X95500000Y-26500000D03*
X140000000Y-33500000D03*
X50500000Y-35500000D03*
X142000000Y-33500000D03*
X38500000Y-29500000D03*
X84500000Y-28500000D03*
X96500000Y-28500000D03*
X144000000Y-33500000D03*
X97500000Y-31500000D03*
X94500000Y-35500000D03*
X39500000Y-32500000D03*
X94500000Y-34500000D03*
X42500000Y-23500000D03*
X87500000Y-34472796D03*
X39500000Y-35500000D03*
X145000000Y-33500000D03*
X47500000Y-24500000D03*
X130000000Y-29500000D03*
X145000000Y-22500000D03*
X145000000Y-26500000D03*
X86500000Y-25500000D03*
X42500000Y-27500000D03*
X141000000Y-26500000D03*
X50500000Y-33500000D03*
X138000000Y-33500000D03*
X52500000Y-26500000D03*
X41500000Y-33500000D03*
X86500000Y-27500000D03*
X43500000Y-23500000D03*
X141000000Y-30500000D03*
X55500000Y-23500000D03*
X135000000Y-25500000D03*
X38500000Y-31500000D03*
X86500000Y-33500000D03*
X92500000Y-24500000D03*
X144000000Y-26500000D03*
X52500000Y-34500000D03*
X129000000Y-32500000D03*
X136000000Y-35500000D03*
X137000000Y-34500000D03*
X47500000Y-23500000D03*
X42500000Y-25500000D03*
X130000000Y-33500000D03*
X146000000Y-23500000D03*
X86500000Y-22500000D03*
X144000000Y-27500000D03*
X94500000Y-25500000D03*
X142000000Y-30500000D03*
X144000000Y-24500000D03*
X95500000Y-22500000D03*
X142000000Y-28500000D03*
X53500000Y-22500000D03*
X39500000Y-24500000D03*
X96500000Y-34500000D03*
X54500000Y-24500000D03*
X133000000Y-35500000D03*
X132000000Y-28500000D03*
X50500000Y-34500000D03*
X140000000Y-26500000D03*
X89500000Y-23500000D03*
X99500000Y-30500000D03*
X146000000Y-26500000D03*
X100500000Y-28500000D03*
X38500000Y-34500000D03*
X84500000Y-29500000D03*
X42500000Y-30500000D03*
X95500000Y-36500000D03*
X130000000Y-31500000D03*
X134000000Y-32500000D03*
X96500000Y-29500000D03*
X141000000Y-35500000D03*
X84500000Y-30500000D03*
X132000000Y-32500000D03*
X130000000Y-27500000D03*
X90500000Y-24500000D03*
X99500000Y-32500000D03*
X53500000Y-29500000D03*
X146000000Y-35500000D03*
X88500000Y-23500000D03*
X140000000Y-31500000D03*
X40500000Y-25500000D03*
X53500000Y-23500000D03*
X140000000Y-23500000D03*
X89500000Y-25500000D03*
X98500000Y-27500000D03*
X52500000Y-23500000D03*
X98500000Y-24500000D03*
X132000000Y-24500000D03*
X142000000Y-27500000D03*
X98500000Y-28500000D03*
X53500000Y-31500000D03*
X95500000Y-31500000D03*
X84500000Y-32500000D03*
X54500000Y-33500000D03*
X46500000Y-34500000D03*
X49500000Y-31500000D03*
X144000000Y-22500000D03*
X84500000Y-27500000D03*
X90500000Y-36500000D03*
X99500000Y-27500000D03*
X47500000Y-22500000D03*
X130000000Y-30500000D03*
X97500000Y-28500000D03*
X41500000Y-24500000D03*
X130000000Y-34500000D03*
X95500000Y-35500000D03*
X146000000Y-34500000D03*
X41500000Y-23500000D03*
X142000000Y-32500000D03*
X134000000Y-22500000D03*
X85500000Y-28500000D03*
X141000000Y-31500000D03*
X39500000Y-27500000D03*
X38500000Y-23500000D03*
X145000000Y-35500000D03*
X52500000Y-28500000D03*
X53500000Y-34500000D03*
X91500000Y-22500000D03*
X49500000Y-34500000D03*
X131000000Y-33500000D03*
X132000000Y-34500000D03*
X133000000Y-27500000D03*
X131000000Y-35500000D03*
X89500000Y-32500000D03*
X143000000Y-29500000D03*
X47500000Y-34500000D03*
X39500000Y-26500000D03*
X40500000Y-30500000D03*
X134000000Y-24500000D03*
X92500000Y-34500000D03*
X85500000Y-25500000D03*
X40500000Y-28500000D03*
X41500000Y-25500000D03*
X146000000Y-27500000D03*
X85500000Y-30500000D03*
X93500000Y-22500000D03*
X139000000Y-25500000D03*
X51500000Y-31500000D03*
X45500000Y-35500000D03*
X44500000Y-25500000D03*
X88500000Y-33500000D03*
X98500000Y-31500000D03*
X135000000Y-22500000D03*
X38500000Y-24500000D03*
X98500000Y-30500000D03*
X94500000Y-22500000D03*
X40500000Y-24500000D03*
X91461419Y-21500000D03*
X97500000Y-33500000D03*
X39500000Y-22500000D03*
X39500000Y-29500000D03*
X141000000Y-34500000D03*
X50500000Y-24500000D03*
X129000000Y-22500000D03*
X146000000Y-32500000D03*
X140000000Y-32500000D03*
X129000000Y-31500000D03*
X97500000Y-24500000D03*
X51500000Y-26500000D03*
X88500000Y-22500000D03*
X95500000Y-23500000D03*
X92500000Y-20500000D03*
X92500000Y-23500000D03*
X100500000Y-29500000D03*
X130000000Y-26500000D03*
X83500000Y-30500000D03*
X86500000Y-35500000D03*
X88500000Y-36500000D03*
X143000000Y-22500000D03*
X134000000Y-35500000D03*
X89500000Y-22500000D03*
X131000000Y-25500000D03*
X130000000Y-35500000D03*
X41500000Y-29500000D03*
X41500000Y-30500000D03*
X95500000Y-34500000D03*
X88500000Y-30500000D03*
X140000000Y-24500000D03*
X41500000Y-31500000D03*
X48500000Y-25500000D03*
X137000000Y-35500000D03*
X40500000Y-32500000D03*
X144000000Y-30500000D03*
X93500000Y-37500000D03*
X129000000Y-26500000D03*
X99500000Y-28500000D03*
X97509545Y-23500000D03*
X53500000Y-35500000D03*
X54500000Y-30500000D03*
X132000000Y-26500000D03*
X55500000Y-35500000D03*
X41500000Y-34500000D03*
X50500000Y-28500000D03*
X42500000Y-35500000D03*
X100500000Y-30500000D03*
X93500000Y-35500000D03*
X96500000Y-23500000D03*
X143000000Y-23500000D03*
X129000000Y-34500000D03*
X139000000Y-22500000D03*
X88500000Y-26500000D03*
X96500000Y-36500000D03*
X42500000Y-26500000D03*
X145000000Y-23500000D03*
X51500000Y-28500000D03*
X142000000Y-34500000D03*
X136000000Y-34500000D03*
X39500000Y-25500000D03*
X44500000Y-23500000D03*
X133000000Y-34500000D03*
X95500000Y-32500000D03*
X132000000Y-22500000D03*
X45500000Y-24500000D03*
X48500000Y-33500000D03*
X141000000Y-28500000D03*
X88500000Y-34500000D03*
X40500000Y-29500000D03*
X139000000Y-23500000D03*
X50500000Y-29500000D03*
X55500000Y-29500000D03*
X144000000Y-34500000D03*
X146000000Y-30500000D03*
X51500000Y-23500000D03*
X145000000Y-25500000D03*
X137000000Y-22500000D03*
X87500000Y-33500000D03*
X133000000Y-24500000D03*
X131000000Y-30500000D03*
X142000000Y-31500000D03*
X146000000Y-31500000D03*
X142000000Y-23500000D03*
X134000000Y-23500000D03*
X87500000Y-27500000D03*
X46500000Y-24500000D03*
X136000000Y-24500000D03*
X141000000Y-33500000D03*
X96500000Y-30500000D03*
X96500000Y-22500000D03*
X96500000Y-27500000D03*
X38500000Y-33500000D03*
X129000000Y-27500000D03*
X97500000Y-25500000D03*
X146000000Y-29500000D03*
X86500000Y-31500000D03*
X83500000Y-29500000D03*
X89500000Y-36500000D03*
X44500000Y-35500000D03*
X94500000Y-24500000D03*
X45500000Y-34500000D03*
X96500000Y-32500000D03*
X45500000Y-33500000D03*
X97500000Y-30500000D03*
X136000000Y-23500000D03*
X91500000Y-37500000D03*
X87500000Y-26500000D03*
X39500000Y-34500000D03*
X49500000Y-23500000D03*
X139000000Y-24500000D03*
X38500000Y-22500000D03*
X91500000Y-34500000D03*
X39500000Y-28500000D03*
X48500000Y-34500000D03*
X51500000Y-27500000D03*
X97500000Y-26500000D03*
X142000000Y-25500000D03*
X97500000Y-22500000D03*
X131000000Y-29500000D03*
X145000000Y-27500000D03*
X134000000Y-34500000D03*
X139000000Y-32500000D03*
X141000000Y-32500000D03*
X145000000Y-31500000D03*
X91500000Y-36500000D03*
X87500000Y-31500000D03*
X54500000Y-32500000D03*
X40500000Y-34500000D03*
X97500000Y-32500000D03*
X40500000Y-35500000D03*
X96500000Y-26500000D03*
X144000000Y-25500000D03*
X85500000Y-34500000D03*
X141000000Y-25500000D03*
X137000000Y-24500000D03*
X131000000Y-26500000D03*
X99500000Y-29500000D03*
X55500000Y-27500000D03*
X98500000Y-26500000D03*
X133000000Y-30500000D03*
X42500000Y-34500000D03*
X145000000Y-24500000D03*
X90500000Y-25500000D03*
X132000000Y-27500000D03*
X85500000Y-33500000D03*
X143000000Y-33500000D03*
X48500000Y-35500000D03*
X52500000Y-29500000D03*
X93500000Y-34500000D03*
X48500000Y-23500000D03*
X131000000Y-27500000D03*
X95500000Y-24500000D03*
X52500000Y-32500000D03*
X53500000Y-24500000D03*
X49500000Y-26500000D03*
X138000000Y-22500000D03*
X132000000Y-25500000D03*
X88500000Y-35500000D03*
X146000000Y-22500000D03*
X91500000Y-20500000D03*
X91500000Y-35500000D03*
X98500000Y-34500000D03*
X98500000Y-25500000D03*
X90500000Y-23500000D03*
X50500000Y-32500000D03*
X50500000Y-31500000D03*
X134000000Y-25500000D03*
X86500000Y-23482442D03*
X132000000Y-31500000D03*
X146000000Y-25500000D03*
X39500000Y-30500000D03*
X38500000Y-30500000D03*
X50500000Y-26500000D03*
X39500000Y-31500000D03*
X55500000Y-34500000D03*
X54500000Y-26500000D03*
X98500000Y-33500000D03*
X51500000Y-24500000D03*
X88500000Y-24500000D03*
X129000000Y-29500000D03*
X131000000Y-31500000D03*
X84500000Y-26500000D03*
X43500000Y-35500000D03*
X145000000Y-29500000D03*
X96500000Y-25500000D03*
X45500000Y-22500000D03*
X39500000Y-33500000D03*
X145000000Y-30500000D03*
X139000000Y-33500000D03*
X86500000Y-34500000D03*
X130000000Y-24500000D03*
X86500000Y-29500000D03*
X46500000Y-35500000D03*
X92500000Y-37500000D03*
X55500000Y-26500000D03*
X129000000Y-28500000D03*
X51500000Y-30500000D03*
X84500000Y-31500000D03*
X135000000Y-34500000D03*
X89500000Y-35500000D03*
X53500000Y-32500000D03*
X133000000Y-26500000D03*
X144000000Y-35500000D03*
X93500000Y-21500000D03*
X132000000Y-29500000D03*
X141000000Y-24500000D03*
X40500000Y-31500000D03*
X54500000Y-27500000D03*
X53500000Y-27500000D03*
X96500000Y-31500000D03*
X137000000Y-33500000D03*
X96500000Y-33500000D03*
X133000000Y-32500000D03*
X90500000Y-35500000D03*
X85500000Y-26500000D03*
X143000000Y-32500000D03*
X87500000Y-35500000D03*
X96500000Y-21500000D03*
X87500000Y-30500000D03*
X52500000Y-33500000D03*
X52500000Y-30500000D03*
X38500000Y-28500000D03*
X53500000Y-33500000D03*
X50500000Y-30500000D03*
X48500000Y-24500000D03*
X90500000Y-20500000D03*
X88500000Y-25500000D03*
X143000000Y-31500000D03*
X137000000Y-23500000D03*
X44500000Y-24500000D03*
X135000000Y-35500000D03*
X41500000Y-26500000D03*
X48500000Y-32500000D03*
X93500000Y-33500000D03*
X86500000Y-32500000D03*
X43500000Y-32500000D03*
X92500000Y-36500000D03*
X95500000Y-33500000D03*
X43500000Y-33500000D03*
X93500000Y-20500000D03*
X94500000Y-21500000D03*
X41500000Y-32500000D03*
X41500000Y-28500000D03*
X38500000Y-25500000D03*
X40500000Y-27500000D03*
X50500000Y-22500000D03*
X133000000Y-22500000D03*
X49500000Y-25500000D03*
X141000000Y-22500000D03*
X51500000Y-22500000D03*
X142000000Y-29500000D03*
X138000000Y-24500000D03*
X40500000Y-33500000D03*
X142000000Y-35500000D03*
X55500000Y-24500000D03*
X96500000Y-24500000D03*
X130000000Y-32500000D03*
X145000000Y-28500000D03*
X54500000Y-29500000D03*
X85500000Y-24500000D03*
X88500000Y-21500000D03*
X40500000Y-26500000D03*
X88500000Y-27500000D03*
X131000000Y-28500000D03*
X96500000Y-35500000D03*
X130000000Y-28500000D03*
X53500000Y-28500000D03*
X86500000Y-24500000D03*
X55500000Y-31500000D03*
X54500000Y-35500000D03*
X143000000Y-35500000D03*
X39500000Y-23500000D03*
X131000000Y-32500000D03*
X93500000Y-24500000D03*
X131000000Y-23500000D03*
X141000000Y-29500000D03*
X95500000Y-21500000D03*
X130000000Y-25500000D03*
X90500000Y-22500000D03*
X93500000Y-23500000D03*
X140000000Y-22500000D03*
X48500000Y-22500000D03*
X139000000Y-35500000D03*
X87500000Y-28506430D03*
X44500000Y-22500000D03*
X141000000Y-27500000D03*
X143000000Y-26500000D03*
X144000000Y-32500000D03*
X143000000Y-28500000D03*
X89500000Y-33500000D03*
X38500000Y-26500000D03*
X55500000Y-32500000D03*
X51500000Y-29500000D03*
X89500000Y-34500000D03*
X47500000Y-33500000D03*
X134000000Y-33500000D03*
X87500000Y-32500000D03*
X94500000Y-36500000D03*
X139000000Y-34500000D03*
X43500000Y-25500000D03*
X99500000Y-25500000D03*
X132000000Y-35500000D03*
X49500000Y-24500000D03*
X142000000Y-24500000D03*
X99500000Y-24500000D03*
X42500000Y-33500000D03*
X51500000Y-34500000D03*
X97500000Y-34500000D03*
X87500000Y-24500000D03*
X85500000Y-29500000D03*
X97500000Y-27500000D03*
X53500000Y-26500000D03*
X41500000Y-27500000D03*
X136000000Y-33500000D03*
X142000000Y-22500000D03*
X83500000Y-28500000D03*
X86500000Y-30500000D03*
X55500000Y-22500000D03*
X90500000Y-33500000D03*
X38500000Y-35500000D03*
X143000000Y-30500000D03*
X89500000Y-24500000D03*
X100500000Y-27500000D03*
X43500000Y-22500000D03*
X52500000Y-31500000D03*
X138000000Y-34500000D03*
X141000000Y-23500000D03*
X54500000Y-22500000D03*
X41500000Y-35500000D03*
X42500000Y-31500000D03*
X144000000Y-23500000D03*
X131000000Y-22500000D03*
X129000000Y-35500000D03*
X51500000Y-25500000D03*
X86500000Y-28500000D03*
X51500000Y-32500000D03*
X52500000Y-25500000D03*
X100500000Y-31500000D03*
X54500000Y-28500000D03*
X44500000Y-33500000D03*
X91500000Y-24500000D03*
X49500000Y-22500000D03*
X92527103Y-21543378D03*
X130000000Y-22500000D03*
X130000000Y-23500000D03*
X138000000Y-23500000D03*
X143000000Y-27500000D03*
X49500000Y-32500000D03*
X129000000Y-25500000D03*
X51500000Y-35500000D03*
X133000000Y-25500000D03*
X143000000Y-34500000D03*
X42500000Y-32500000D03*
X94500000Y-23500000D03*
X91500000Y-33500000D03*
X51500000Y-33500000D03*
X55500000Y-30500000D03*
X54500000Y-25500000D03*
X135000000Y-23500000D03*
X143000000Y-25500000D03*
X129000000Y-30500000D03*
X52500000Y-24500000D03*
X84500000Y-25500000D03*
X49500000Y-35500000D03*
X132000000Y-23500000D03*
X89500000Y-21500000D03*
X43500000Y-24500000D03*
X52500000Y-27500000D03*
X92500000Y-35500000D03*
X144000000Y-29500000D03*
X129000000Y-33500000D03*
X90500000Y-21500000D03*
X41500000Y-22500000D03*
X53500000Y-25500000D03*
X88500000Y-32500000D03*
X91500000Y-23500000D03*
X144000000Y-28500000D03*
X46500000Y-23500000D03*
X146000000Y-24500000D03*
X38500000Y-32500000D03*
X132000000Y-30500000D03*
X87500000Y-25500000D03*
X129000000Y-24500000D03*
X146000000Y-28500000D03*
X100500000Y-26500000D03*
X131000000Y-24500000D03*
X87479127Y-23506480D03*
X46500000Y-22500000D03*
X52500000Y-22500000D03*
X50500000Y-25500000D03*
X94500000Y-33500000D03*
X85500000Y-23500000D03*
X99500000Y-31500000D03*
X42500000Y-24500000D03*
X145000000Y-34500000D03*
X99500000Y-33500000D03*
X85500000Y-32500000D03*
X138000000Y-35500000D03*
X98500000Y-23500000D03*
X133000000Y-31500000D03*
X90500000Y-34500000D03*
X85500000Y-27500000D03*
X50500000Y-23500000D03*
X55500000Y-25500000D03*
X133000000Y-23500000D03*
X135000000Y-33500000D03*
X92500000Y-33500000D03*
X98500000Y-29500000D03*
X144000000Y-31500000D03*
X140000000Y-25500000D03*
X38500000Y-27500000D03*
X46500000Y-33500000D03*
X88500000Y-31500000D03*
X52500000Y-35500000D03*
X50500000Y-27500000D03*
%TO.N,/V-*%
X52500000Y-49500000D03*
X55500000Y-48500000D03*
X141000000Y-51500000D03*
X146000000Y-53500000D03*
X85500000Y-64000000D03*
X96500000Y-60000000D03*
X85500000Y-56000000D03*
X84500000Y-63000000D03*
X99500000Y-59000000D03*
X137000000Y-60500000D03*
X97500000Y-54000000D03*
X94500000Y-57000000D03*
X87500000Y-56000000D03*
X52500000Y-53500000D03*
X40500000Y-54500000D03*
X130000000Y-57500000D03*
X88500000Y-62000000D03*
X87500000Y-55000000D03*
X145000000Y-57500000D03*
X96500000Y-58000000D03*
X95500000Y-65000000D03*
X97500000Y-62000000D03*
X84500000Y-61000000D03*
X98500000Y-65000000D03*
X86500000Y-66000000D03*
X43500000Y-60500000D03*
X49500000Y-58500000D03*
X91500000Y-68000000D03*
X139000000Y-49500000D03*
X136000000Y-47500000D03*
X42500000Y-59500000D03*
X143000000Y-57500000D03*
X135000000Y-58500000D03*
X51500000Y-52500000D03*
X88500000Y-56000000D03*
X140000000Y-60500000D03*
X142000000Y-60500000D03*
X40500000Y-60500000D03*
X41500000Y-55500000D03*
X55500000Y-59500000D03*
X96500000Y-64000000D03*
X94500000Y-66000000D03*
X141000000Y-58500000D03*
X145000000Y-58500000D03*
X93500000Y-55000000D03*
X142000000Y-57500000D03*
X140000000Y-58500000D03*
X142000000Y-47500000D03*
X131000000Y-60500000D03*
X89500000Y-65000000D03*
X146000000Y-56500000D03*
X40500000Y-51500000D03*
X95500000Y-63000000D03*
X92500000Y-67000000D03*
X54500000Y-49500000D03*
X130954347Y-58430209D03*
X91500000Y-55000000D03*
X135000000Y-48500000D03*
X131000000Y-57500000D03*
X143000000Y-52500000D03*
X132000000Y-47500000D03*
X131000000Y-59500000D03*
X41500000Y-50500000D03*
X38500000Y-58500000D03*
X51500000Y-59500000D03*
X39500000Y-48500000D03*
X39500000Y-49500000D03*
X96500000Y-54000000D03*
X46500000Y-48500000D03*
X145000000Y-60500000D03*
X100500000Y-62000000D03*
X146000000Y-58500000D03*
X131999999Y-50515704D03*
X54500000Y-60500000D03*
X129000000Y-55500000D03*
X41500000Y-51500000D03*
X53500000Y-57500000D03*
X144000000Y-51500000D03*
X38500000Y-60500000D03*
X141000000Y-54500000D03*
X94500000Y-67000000D03*
X54500000Y-47500000D03*
X143000000Y-58500000D03*
X87500000Y-63000000D03*
X49500000Y-51500000D03*
X96500000Y-56000000D03*
X95500000Y-68000000D03*
X143000000Y-60500000D03*
X85500000Y-63000000D03*
X50500000Y-53500000D03*
X98500000Y-60000000D03*
X97500000Y-59000000D03*
X54500000Y-48500000D03*
X87500000Y-64000000D03*
X54500000Y-52500000D03*
X99500000Y-57000000D03*
X132000000Y-58500000D03*
X133000000Y-50500000D03*
X88500000Y-64000000D03*
X137000000Y-49500000D03*
X49500000Y-57500000D03*
X40500000Y-47500000D03*
X142000000Y-52500000D03*
X87500000Y-62000000D03*
X85500000Y-60000000D03*
X85500000Y-59000000D03*
X89500000Y-57000000D03*
X134000000Y-60500000D03*
X134000000Y-50500000D03*
X98500000Y-64000000D03*
X42500000Y-52500000D03*
X41500000Y-60500000D03*
X131000000Y-50500000D03*
X100500000Y-61000000D03*
X88500000Y-54000000D03*
X39500000Y-58500000D03*
X38500000Y-47500000D03*
X47500000Y-58500000D03*
X43500000Y-57500000D03*
X53500000Y-52500000D03*
X43500000Y-59500000D03*
X145000000Y-55500000D03*
X86500000Y-62000000D03*
X144000000Y-57500000D03*
X38500000Y-51500000D03*
X141000000Y-47500000D03*
X39500000Y-59500000D03*
X55500000Y-47500000D03*
X40500000Y-55500000D03*
X141000000Y-52500000D03*
X129000000Y-57500000D03*
X134000000Y-48500000D03*
X86500000Y-64000000D03*
X42500000Y-49500000D03*
X143000000Y-53500000D03*
X98500000Y-66000000D03*
X88500000Y-55000000D03*
X146000000Y-47500000D03*
X143000000Y-55500000D03*
X143000000Y-48500000D03*
X44500000Y-50500000D03*
X42500000Y-50500000D03*
X89514642Y-56007271D03*
X89500000Y-55000000D03*
X54500000Y-58500000D03*
X88500000Y-57000000D03*
X49500000Y-59500000D03*
X130000000Y-47500000D03*
X140000000Y-56500000D03*
X41500000Y-48500000D03*
X95500000Y-66000000D03*
X132000000Y-52500000D03*
X128972376Y-48446495D03*
X46500000Y-47500000D03*
X49500000Y-50500000D03*
X98534595Y-63014392D03*
X55500000Y-58500000D03*
X95500000Y-67000000D03*
X91500000Y-69000000D03*
X129000000Y-47500000D03*
X95500000Y-53000000D03*
X89500000Y-64000000D03*
X54500000Y-56500000D03*
X50500000Y-58500000D03*
X130000000Y-58500000D03*
X38500000Y-50500000D03*
X46500000Y-49500000D03*
X50500000Y-57500000D03*
X45500000Y-47500000D03*
X96500000Y-59000000D03*
X145000000Y-52500000D03*
X50500000Y-50500000D03*
X48500000Y-60500000D03*
X38500000Y-49500000D03*
X38500000Y-54500000D03*
X143970914Y-53454347D03*
X87500000Y-61000000D03*
X86500000Y-58000000D03*
X42500000Y-51500000D03*
X38500000Y-48500000D03*
X38500000Y-59500000D03*
X88500000Y-63000000D03*
X130000000Y-48500000D03*
X99500000Y-58000000D03*
X39500000Y-55500000D03*
X97500000Y-60000000D03*
X142000000Y-53500000D03*
X144000000Y-50500000D03*
X143000000Y-54500000D03*
X47500000Y-60500000D03*
X86500000Y-56000000D03*
X86500000Y-63000000D03*
X137000000Y-47500000D03*
X51500000Y-54500000D03*
X131000000Y-55500000D03*
X95500000Y-54000000D03*
X141000000Y-53500000D03*
X51500000Y-58500000D03*
X132000000Y-56500000D03*
X52500000Y-55500000D03*
X86500000Y-67000000D03*
X92500000Y-68000000D03*
X89500000Y-53000000D03*
X91500000Y-65000000D03*
X133000000Y-49500000D03*
X139000000Y-50500000D03*
X140000000Y-49500000D03*
X131000000Y-51500000D03*
X54500000Y-54500000D03*
X131000000Y-49500000D03*
X132000000Y-60500000D03*
X90500000Y-68000000D03*
X133009595Y-58484295D03*
X93500000Y-69000000D03*
X97500000Y-64000000D03*
X94500000Y-54000000D03*
X89500000Y-67000000D03*
X49500000Y-47500000D03*
X96497376Y-65105697D03*
X98500000Y-56000000D03*
X49500000Y-60500000D03*
X135000000Y-49500000D03*
X144000000Y-47500000D03*
X52500000Y-57500000D03*
X133000000Y-51500000D03*
X48500000Y-49500000D03*
X129000000Y-54500000D03*
X48500000Y-58500000D03*
X43500000Y-48500000D03*
X97500000Y-61000000D03*
X140000000Y-50500000D03*
X47500000Y-49500000D03*
X146000000Y-54500000D03*
X50500000Y-59500000D03*
X146000000Y-48500000D03*
X139000000Y-57500000D03*
X145000000Y-49500000D03*
X44500000Y-57500000D03*
X53500000Y-59500000D03*
X44500000Y-60500000D03*
X48500000Y-50500000D03*
X52500000Y-60500000D03*
X139000000Y-48500000D03*
X52500000Y-56500000D03*
X52500000Y-52500000D03*
X84500000Y-62000000D03*
X130000000Y-52500000D03*
X129000000Y-52500000D03*
X53500000Y-51500000D03*
X53500000Y-47500000D03*
X42500000Y-58500000D03*
X129000000Y-50500000D03*
X87500000Y-60000000D03*
X41500000Y-49500000D03*
X130000000Y-59500000D03*
X40500000Y-52500000D03*
X84500000Y-59000000D03*
X130000000Y-60500000D03*
X134000000Y-58500000D03*
X55500000Y-55500000D03*
X100500000Y-59000000D03*
X90500000Y-54000000D03*
X144000000Y-58500000D03*
X53500000Y-56500000D03*
X55500000Y-53500000D03*
X136000000Y-49500000D03*
X42500000Y-48500000D03*
X89500000Y-68000000D03*
X133000000Y-56500000D03*
X87500000Y-68000000D03*
X98500000Y-57000000D03*
X87500000Y-57000000D03*
X140000000Y-48500000D03*
X89500000Y-54000000D03*
X44500000Y-48500000D03*
X38500000Y-55500000D03*
X92500000Y-52000000D03*
X133000000Y-59500000D03*
X130000000Y-53500000D03*
X141000000Y-55500000D03*
X88500000Y-65000000D03*
X131000000Y-53500000D03*
X145000000Y-51500000D03*
X91500000Y-66000000D03*
X50500000Y-48500000D03*
X97500000Y-55000000D03*
X48500000Y-59500000D03*
X96500000Y-67000000D03*
X134000000Y-47500000D03*
X44500000Y-49500000D03*
X49500000Y-48500000D03*
X98500000Y-55000000D03*
X42500000Y-55500000D03*
X40500000Y-48500000D03*
X85500000Y-57000000D03*
X132000000Y-55500000D03*
X130000000Y-55500000D03*
X51500000Y-50500000D03*
X53500000Y-54500000D03*
X133000000Y-57500000D03*
X55500000Y-54500000D03*
X51500000Y-55500000D03*
X139000000Y-47500000D03*
X96500000Y-62000000D03*
X141000000Y-56500000D03*
X47500000Y-59500000D03*
X40500000Y-53500000D03*
X137000000Y-58500000D03*
X138000000Y-49500000D03*
X138000000Y-48500000D03*
X85500000Y-66000000D03*
X94500000Y-55000000D03*
X140000000Y-51500000D03*
X84500000Y-64000000D03*
X90500000Y-65000000D03*
X144000000Y-56500000D03*
X44500000Y-47500000D03*
X96500000Y-55000000D03*
X39500000Y-56500000D03*
X53500000Y-48500000D03*
X142000000Y-49500000D03*
X96500000Y-57000000D03*
X41500000Y-54500000D03*
X129000000Y-60500000D03*
X88500000Y-58000000D03*
X53500000Y-55500000D03*
X87500000Y-59000000D03*
X140996214Y-50551761D03*
X144000000Y-55500000D03*
X41501161Y-59500000D03*
X43500000Y-49500000D03*
X41500000Y-56500000D03*
X136000000Y-60500000D03*
X91500000Y-53000000D03*
X47500000Y-48500000D03*
X130000000Y-54500000D03*
X44500000Y-58500000D03*
X41500000Y-58500000D03*
X93500000Y-53000000D03*
X87500000Y-54000000D03*
X92500000Y-56000000D03*
X144000000Y-60500000D03*
X142000000Y-58500000D03*
X49500000Y-49500000D03*
X46500000Y-59500000D03*
X130000000Y-51500000D03*
X139000000Y-60500000D03*
X143000000Y-56500000D03*
X133000000Y-60500000D03*
X129000000Y-56500000D03*
X55500000Y-57500000D03*
X96500000Y-68000000D03*
X145000000Y-47500000D03*
X42500000Y-60500000D03*
X40500000Y-59500000D03*
X49500000Y-56500000D03*
X88500000Y-66000000D03*
X54500000Y-53500000D03*
X131000000Y-54500000D03*
X40500000Y-49500000D03*
X42500000Y-47500000D03*
X45500000Y-48500000D03*
X97500000Y-63000000D03*
X51500000Y-48500000D03*
X87500000Y-65000000D03*
X48500000Y-48500000D03*
X45500000Y-59500000D03*
X141000000Y-49500000D03*
X144000000Y-48500000D03*
X51500000Y-60500000D03*
X130000000Y-56529947D03*
X140000000Y-47500000D03*
X41500000Y-57500000D03*
X94496214Y-67954198D03*
X45500000Y-58500000D03*
X143000000Y-47500000D03*
X52500000Y-58500000D03*
X90500000Y-56000000D03*
X38500000Y-53500000D03*
X50500000Y-51500000D03*
X145000000Y-50500000D03*
X93500000Y-67000000D03*
X94500000Y-69000000D03*
X98500000Y-62000000D03*
X38500000Y-52500000D03*
X131000000Y-56500000D03*
X144000000Y-59500000D03*
X135000000Y-47500000D03*
X95500000Y-57000000D03*
X146000000Y-49500000D03*
X39500000Y-51500000D03*
X51500000Y-51500000D03*
X131000000Y-48500000D03*
X54500000Y-50500000D03*
X138000000Y-60500000D03*
X138000000Y-47500000D03*
X94500000Y-65000000D03*
X96500000Y-66000000D03*
X52500000Y-47500000D03*
X48500000Y-47500000D03*
X85500000Y-61000000D03*
X51500000Y-56500000D03*
X138000000Y-59500000D03*
X40500000Y-58500000D03*
X53500000Y-53500000D03*
X39500000Y-54500000D03*
X95500000Y-56000000D03*
X43500000Y-47500000D03*
X94500000Y-53000000D03*
X136000000Y-58500000D03*
X88500000Y-59000000D03*
X132000000Y-57500000D03*
X92500000Y-66000000D03*
X51500000Y-47500000D03*
X39500000Y-60500000D03*
X39500000Y-53500000D03*
X52500000Y-51500000D03*
X136000000Y-59500000D03*
X146000000Y-51500000D03*
X97500000Y-66000000D03*
X42500000Y-57500000D03*
X88500000Y-53000000D03*
X85500000Y-62000000D03*
X43500000Y-50500000D03*
X83500000Y-60000000D03*
X90500000Y-55000000D03*
X132000000Y-49500000D03*
X99500000Y-60000000D03*
X93500000Y-56000000D03*
X54500000Y-59500000D03*
X54500000Y-57500000D03*
X143000000Y-50500000D03*
X44500000Y-59500000D03*
X95500000Y-55000000D03*
X143000000Y-59500000D03*
X53500000Y-60500000D03*
X50500000Y-52500000D03*
X141000000Y-59500000D03*
X90500000Y-53000000D03*
X85500000Y-58000000D03*
X97500000Y-56000000D03*
X146000000Y-59500000D03*
X84500000Y-58000000D03*
X132000000Y-53500000D03*
X88500000Y-67000000D03*
X139000000Y-59493890D03*
X99500000Y-65000000D03*
X142000000Y-59500000D03*
X99500000Y-62000000D03*
X145000000Y-56500000D03*
X39500000Y-50500000D03*
X39500000Y-52500000D03*
X55500000Y-50500000D03*
X89500000Y-69000000D03*
X50500000Y-56500000D03*
X55500000Y-51500000D03*
X137000000Y-48500000D03*
X51500000Y-57500000D03*
X134000000Y-57500000D03*
X41500000Y-52500000D03*
X129000000Y-51500000D03*
X97500000Y-58000000D03*
X40500000Y-50500000D03*
X142000000Y-55500000D03*
X84500000Y-60000000D03*
X100500000Y-60000000D03*
X94500000Y-56000000D03*
X92500000Y-53000000D03*
X93500000Y-65000000D03*
X130000000Y-50500000D03*
X51500000Y-53500000D03*
X142000000Y-54500000D03*
X53500000Y-50500000D03*
X142000000Y-48500000D03*
X87500000Y-58000000D03*
X133000000Y-48500000D03*
X41500000Y-53500000D03*
X52500000Y-50500000D03*
X143000000Y-49500000D03*
X39500000Y-47500000D03*
X134000000Y-59500000D03*
X86500000Y-57000000D03*
X133000000Y-52500000D03*
X100500000Y-63000000D03*
X55500000Y-60500000D03*
X86500000Y-59000000D03*
X50500000Y-54500000D03*
X140960157Y-57474700D03*
X146000000Y-55500000D03*
X93500000Y-57000000D03*
X50500000Y-55500000D03*
X132000000Y-51500000D03*
X91500000Y-67000000D03*
X146000000Y-60500000D03*
X96500000Y-61000000D03*
X47500000Y-47500000D03*
X41500000Y-47500000D03*
X136000000Y-48500000D03*
X99500000Y-64000000D03*
X141000000Y-48500000D03*
X40500000Y-57500000D03*
X86500000Y-60000000D03*
X93500000Y-66000000D03*
X54500000Y-51500000D03*
X96500000Y-63000000D03*
X90500000Y-66000000D03*
X133000000Y-55500000D03*
X88500000Y-68000000D03*
X89500000Y-66000000D03*
X129000000Y-53500000D03*
X98500000Y-59000000D03*
X92500000Y-55000000D03*
X97500000Y-67000000D03*
X38500000Y-57500000D03*
X138000000Y-58500000D03*
X142000000Y-56500000D03*
X90500000Y-67000000D03*
X87500000Y-66000000D03*
X46500000Y-58500000D03*
X91500000Y-56000000D03*
X86500000Y-65000000D03*
X94500000Y-64000000D03*
X50500000Y-47500000D03*
X48500000Y-57500000D03*
X92500000Y-54000000D03*
X99500000Y-61000000D03*
X146000000Y-50500000D03*
X99500000Y-63000000D03*
X86500000Y-61000000D03*
X144000000Y-52500000D03*
X50500000Y-49500000D03*
X145000000Y-53500000D03*
X55500000Y-52500000D03*
X92495052Y-64943440D03*
X53500000Y-49500000D03*
X135000000Y-60500000D03*
X134000000Y-49500000D03*
X141000000Y-60500000D03*
X146000000Y-57500000D03*
X53500000Y-58500000D03*
X45500000Y-49500000D03*
X133000000Y-47500000D03*
X140000000Y-59500000D03*
X54500000Y-55500000D03*
X38500000Y-56500000D03*
X144000000Y-49500000D03*
X132000000Y-54500000D03*
X90500000Y-69000000D03*
X55500000Y-49500000D03*
X98500000Y-61000000D03*
X45500000Y-60500000D03*
X145000000Y-48500000D03*
X135000000Y-57500000D03*
X85500000Y-65000000D03*
X93500000Y-54000000D03*
X52500000Y-54500000D03*
X86500000Y-55000000D03*
X50500000Y-60500000D03*
X39500000Y-57500000D03*
X92500000Y-69000000D03*
X145000000Y-54500000D03*
X144000000Y-54500000D03*
X84500000Y-57000000D03*
X131000000Y-52500000D03*
X129000000Y-59500000D03*
X43500000Y-58500000D03*
X137000000Y-59500000D03*
X135000000Y-59500000D03*
X146000000Y-52500000D03*
X93500000Y-68000000D03*
X98500000Y-58000000D03*
X40500000Y-56500000D03*
X46500000Y-60500000D03*
X143000000Y-51500000D03*
X142000000Y-51500000D03*
X131000000Y-47500000D03*
X145000000Y-59500000D03*
X52500000Y-48500000D03*
X91500000Y-54000000D03*
X42500000Y-56500000D03*
X95500000Y-58000000D03*
X142000000Y-50500000D03*
X51500000Y-49500000D03*
X132000000Y-48500000D03*
X129000000Y-58500000D03*
X52500000Y-59500000D03*
X130000000Y-49500000D03*
X97488943Y-65015554D03*
X139000000Y-58500000D03*
X132000000Y-59500000D03*
X140000000Y-57500000D03*
X90500000Y-57000000D03*
X55500000Y-56500000D03*
X97500000Y-57000000D03*
X87500000Y-67000000D03*
X129000000Y-49500000D03*
X95500000Y-64000000D03*
%TO.N,/OUT+*%
X39500000Y-74500000D03*
X44500000Y-73500000D03*
X48500000Y-83500000D03*
X43500000Y-83500000D03*
X54500000Y-83500000D03*
X40478307Y-83477838D03*
X42500000Y-73500000D03*
X42500000Y-77500000D03*
X43500000Y-72500000D03*
X48500000Y-82500000D03*
X50500000Y-79500000D03*
X51500000Y-74500000D03*
X55500000Y-83500000D03*
X47493869Y-85528899D03*
X50500000Y-83500000D03*
X44498853Y-83500000D03*
X50500000Y-73500000D03*
X39500000Y-84500000D03*
X51500000Y-84500000D03*
X52500000Y-80500000D03*
X49500000Y-83500000D03*
X54500000Y-76500000D03*
X52500000Y-77500000D03*
X44500000Y-75500000D03*
X41500000Y-77500000D03*
X43500000Y-74500000D03*
X51500000Y-77500000D03*
X39452777Y-85493938D03*
X46500000Y-85500000D03*
X51500000Y-76500000D03*
X38500000Y-83500000D03*
X39500000Y-76500000D03*
X48500000Y-74500000D03*
X46500000Y-73500000D03*
X40500000Y-81500000D03*
X48500000Y-85500000D03*
X39500000Y-77499461D03*
X53500000Y-77500000D03*
X55500000Y-74500000D03*
X38500000Y-74500000D03*
X55500000Y-81500000D03*
X40500000Y-74500000D03*
X38500000Y-76500000D03*
X55500000Y-76500000D03*
X40500000Y-84500000D03*
X46500000Y-74500000D03*
X44500000Y-85500000D03*
X49500000Y-82500000D03*
X55500000Y-75500000D03*
X40500000Y-76500000D03*
X52500000Y-78500000D03*
X43500000Y-73500000D03*
X38500000Y-78500000D03*
X55500000Y-84500000D03*
X40500000Y-82500000D03*
X51500000Y-72500000D03*
X40500000Y-77500000D03*
X51500000Y-81500000D03*
X53500000Y-85500000D03*
X51500000Y-83500000D03*
X47500000Y-83500000D03*
X44500000Y-74500000D03*
X40500000Y-75500000D03*
X52500000Y-76500000D03*
X55500000Y-72500000D03*
X38500000Y-82500000D03*
X52500000Y-82500000D03*
X39500000Y-72500000D03*
X49500000Y-73500000D03*
X43500000Y-85500000D03*
X47500000Y-73500000D03*
X49500000Y-72500000D03*
X50500000Y-72500000D03*
X50500000Y-81500000D03*
X48500000Y-84500000D03*
X54500000Y-77500000D03*
X54500000Y-82500000D03*
X38500000Y-72500000D03*
X52500000Y-85500000D03*
X54486123Y-84433446D03*
X44498853Y-84480061D03*
X53500000Y-80500000D03*
X40500000Y-80500000D03*
X54500000Y-72500000D03*
X42500000Y-72500000D03*
X51491107Y-78524992D03*
X50500000Y-84500000D03*
X53500000Y-81500000D03*
X43500000Y-84500000D03*
X49500000Y-85500000D03*
X41500000Y-72500000D03*
X42500000Y-74500000D03*
X52500000Y-72500000D03*
X55500000Y-85500000D03*
X42500000Y-82500000D03*
X51500000Y-85500000D03*
X55500000Y-73500000D03*
X51491107Y-80482823D03*
X41500000Y-73500000D03*
X49500000Y-75500000D03*
X48500000Y-75500000D03*
X52500000Y-75500000D03*
X54500000Y-85500000D03*
X41500000Y-81500000D03*
X39500000Y-78500000D03*
X39500000Y-81500000D03*
X51500000Y-75500000D03*
X55500000Y-79500000D03*
X54500000Y-81500000D03*
X51500000Y-79500000D03*
X45500000Y-72500000D03*
X39500000Y-80500000D03*
X47500000Y-74500000D03*
X46500000Y-72500000D03*
X51500000Y-73500000D03*
X51500000Y-82500000D03*
X45500000Y-84500000D03*
X45500000Y-73500000D03*
X50500000Y-82500000D03*
X38500000Y-80500000D03*
X45500000Y-83500000D03*
X45500000Y-85500000D03*
X50500000Y-74500000D03*
X52500000Y-79500000D03*
X52504984Y-73490569D03*
X41500000Y-83500000D03*
X52500000Y-84500000D03*
X41500000Y-82500000D03*
X42500000Y-83500000D03*
X48500000Y-72500000D03*
X54500000Y-78500000D03*
X53500000Y-79500000D03*
X41500000Y-80500000D03*
X38500000Y-81500000D03*
X53500000Y-74500000D03*
X53500000Y-73500000D03*
X38500000Y-79500000D03*
X53500000Y-82500000D03*
X54567699Y-75495015D03*
X50500000Y-75500000D03*
X49500000Y-76500000D03*
X41500000Y-74500000D03*
X40500000Y-72500000D03*
X38500000Y-84500000D03*
X49500000Y-74500000D03*
X54500000Y-80500000D03*
X47500000Y-84500000D03*
X41500000Y-75500000D03*
X42500000Y-81500000D03*
X45500000Y-74500000D03*
X40500000Y-85500000D03*
X44500000Y-72500000D03*
X39500000Y-79500000D03*
X50500000Y-78500000D03*
X39500000Y-83500000D03*
X50500000Y-80500000D03*
X46500000Y-83500000D03*
X40500000Y-79500000D03*
X42500000Y-75500000D03*
X42500000Y-85500000D03*
X47500000Y-72500000D03*
X38500000Y-75500000D03*
X55500000Y-78500000D03*
X55500000Y-80500000D03*
X43500000Y-82500000D03*
X53542168Y-72523307D03*
X50500000Y-77500000D03*
X41500000Y-79500000D03*
X38500000Y-85500000D03*
X38500000Y-77500000D03*
X55500000Y-77500000D03*
X53500000Y-75500000D03*
X53500000Y-84500000D03*
X42500000Y-84500000D03*
X41500000Y-78500000D03*
X52500000Y-81500000D03*
X55500000Y-82500000D03*
X52500000Y-74500000D03*
X39500000Y-75500000D03*
X54500000Y-79500000D03*
X53500000Y-78500000D03*
X41500000Y-84500000D03*
X42500000Y-76500000D03*
X53500000Y-76500000D03*
X54500000Y-73500000D03*
X40500000Y-78500000D03*
X39500000Y-73500000D03*
X38500000Y-73500000D03*
X43500000Y-75500000D03*
X50500000Y-76500000D03*
X39500000Y-82500000D03*
X48500000Y-73500000D03*
X53542168Y-83512799D03*
X46500000Y-84500000D03*
X50500000Y-85552207D03*
X54500000Y-74500000D03*
X49500000Y-84500000D03*
X41500000Y-85500000D03*
X42500000Y-80500000D03*
X41500000Y-76500000D03*
X49500000Y-81500000D03*
X40500000Y-73500000D03*
X52500000Y-83500000D03*
%TO.N,/OUT-*%
X146000000Y-76500000D03*
X144000000Y-73500000D03*
X129000000Y-82500000D03*
X146000000Y-80500000D03*
X145000000Y-82500000D03*
X131000000Y-77500000D03*
X139000000Y-72500000D03*
X144000000Y-80500000D03*
X140000000Y-84500000D03*
X129000000Y-75500000D03*
X132000000Y-80500000D03*
X133000000Y-77500000D03*
X145000000Y-72500000D03*
X146000000Y-79500000D03*
X136000000Y-85500000D03*
X143000000Y-75500000D03*
X138000000Y-74500000D03*
X140000000Y-73500000D03*
X139000000Y-84500000D03*
X143000000Y-74500000D03*
X137000000Y-73500000D03*
X145000000Y-73500000D03*
X130000000Y-80500000D03*
X130000000Y-75500000D03*
X144000000Y-75500000D03*
X143000000Y-82500000D03*
X131000000Y-78500000D03*
X135000000Y-85500000D03*
X142000000Y-83500000D03*
X144000000Y-77500000D03*
X134000000Y-82500000D03*
X129000000Y-74500000D03*
X146000000Y-73500000D03*
X146000000Y-82500000D03*
X139000000Y-73500000D03*
X140000000Y-76500000D03*
X133000000Y-84500000D03*
X145000000Y-84500000D03*
X131000000Y-76500000D03*
X131000000Y-81500000D03*
X138000000Y-85500000D03*
X142000000Y-74500000D03*
X145000000Y-75500000D03*
X145000000Y-77500000D03*
X129000000Y-84500000D03*
X130000000Y-74500000D03*
X138000000Y-73500000D03*
X134000000Y-72500000D03*
X144000000Y-81500000D03*
X136000000Y-84500000D03*
X134000000Y-75500000D03*
X143000000Y-81500000D03*
X130000000Y-83500000D03*
X133000000Y-80500000D03*
X130000000Y-73500000D03*
X138000000Y-84500000D03*
X143000000Y-73500000D03*
X132000000Y-85500000D03*
X132000000Y-78500000D03*
X145000000Y-80500000D03*
X142000000Y-75500000D03*
X129000000Y-79500000D03*
X129000000Y-83500000D03*
X141000000Y-83500000D03*
X146000000Y-83500000D03*
X136000000Y-73500000D03*
X144000000Y-78500000D03*
X143000000Y-77500000D03*
X145000000Y-81500000D03*
X136000000Y-74500000D03*
X131000000Y-73500000D03*
X142000000Y-79500000D03*
X137000000Y-85500000D03*
X134000000Y-83500000D03*
X141000000Y-81500000D03*
X133000000Y-82500000D03*
X146000000Y-72500000D03*
X131000000Y-75500000D03*
X138000000Y-72500000D03*
X133000000Y-74500000D03*
X142000000Y-72500000D03*
X142000000Y-78500000D03*
X131000000Y-82500000D03*
X141000000Y-84500000D03*
X130000000Y-72500000D03*
X132000000Y-83500000D03*
X141000000Y-76500000D03*
X144000000Y-74500000D03*
X139000000Y-74500000D03*
X146000000Y-75500000D03*
X133000000Y-81500000D03*
X139000000Y-83500000D03*
X140000000Y-72500000D03*
X142000000Y-80500000D03*
X132000000Y-75500000D03*
X139000000Y-82500000D03*
X146000000Y-85500000D03*
X132000000Y-72500000D03*
X139000000Y-85500000D03*
X129000000Y-76500000D03*
X140000000Y-82500000D03*
X141000000Y-74500000D03*
X132000000Y-76500000D03*
X141000000Y-82500000D03*
X135000000Y-72500000D03*
X141000000Y-85500000D03*
X133000000Y-83500000D03*
X134000000Y-74500000D03*
X131000000Y-80500000D03*
X143000000Y-84500000D03*
X130000000Y-76500000D03*
X145000000Y-85500000D03*
X129000000Y-81500000D03*
X137000000Y-72500000D03*
X130000000Y-85500000D03*
X144000000Y-72500000D03*
X145000000Y-74500000D03*
X144000000Y-79500000D03*
X141000000Y-80500000D03*
X146000000Y-81500000D03*
X135000000Y-74500000D03*
X132000000Y-82500000D03*
X129000000Y-77500000D03*
X143000000Y-80500000D03*
X143000000Y-76500000D03*
X134000000Y-85500000D03*
X129000000Y-80500000D03*
X145000000Y-76500000D03*
X133000000Y-73500000D03*
X135000000Y-73500000D03*
X133000000Y-76500000D03*
X130000000Y-84500000D03*
X137000000Y-84500000D03*
X144000000Y-76500000D03*
X130000000Y-79500000D03*
X135000000Y-75500000D03*
X144000000Y-82500000D03*
X131000000Y-72500000D03*
X130000000Y-82500000D03*
X129000000Y-78500000D03*
X142922228Y-78423668D03*
X145000000Y-79500000D03*
X141000000Y-75500000D03*
X146000000Y-84500000D03*
X142000000Y-82500000D03*
X145000000Y-83500000D03*
X132000000Y-84500000D03*
X133000000Y-75500000D03*
X131000000Y-83500000D03*
X129000000Y-73500000D03*
X132000000Y-77500000D03*
X141000000Y-77500000D03*
X143000000Y-72500000D03*
X146000000Y-74500000D03*
X136000000Y-72500000D03*
X141000000Y-79500000D03*
X143000000Y-79500000D03*
X142000000Y-77500000D03*
X129000000Y-72500000D03*
X140000000Y-81500000D03*
X141000000Y-78500000D03*
X145000000Y-78500000D03*
X142000000Y-76500000D03*
X140000000Y-85500000D03*
X144000000Y-83500000D03*
X133000000Y-85500000D03*
X131000000Y-74500000D03*
X130000000Y-78500000D03*
X140000000Y-83500000D03*
X130000000Y-77500000D03*
X132000000Y-79500000D03*
X132000000Y-73500000D03*
X141000000Y-72500000D03*
X144000000Y-85500000D03*
X132000000Y-81500000D03*
X133000000Y-72500000D03*
X138000000Y-83500000D03*
X134000000Y-84500000D03*
X142000000Y-73500000D03*
X135000000Y-83500000D03*
X137000000Y-83500000D03*
X131000000Y-79500000D03*
X131000000Y-85500000D03*
X140000000Y-75500000D03*
X146000000Y-77500000D03*
X130000000Y-81500000D03*
X142000000Y-84500000D03*
X132000000Y-74500000D03*
X143000000Y-85500000D03*
X142000000Y-81500000D03*
X140000000Y-74500000D03*
X134000000Y-73500000D03*
X135000000Y-84500000D03*
X137000000Y-74500000D03*
X142000000Y-85500000D03*
X136000000Y-83500000D03*
X129000000Y-85500000D03*
X139000000Y-75500000D03*
X131000000Y-84500000D03*
X146000000Y-78500000D03*
X144000000Y-84500000D03*
X143000000Y-83500000D03*
X141000000Y-73500000D03*
%TD*%
D17*
%TO.N,/OUT+*%
X62500000Y-89500000D02*
X55500000Y-82500000D01*
%TO.N,/OUT-*%
X112500000Y-89500000D02*
X112500000Y-85000000D01*
X113000000Y-84500000D02*
X132000000Y-84500000D01*
X112500000Y-85000000D02*
X113000000Y-84500000D01*
%TD*%
%TA.AperFunction,Conductor*%
%TO.N,/OUT-*%
G36*
X146393039Y-71969685D02*
G01*
X146438794Y-72022489D01*
X146450000Y-72074000D01*
X146450000Y-85926000D01*
X146430315Y-85993039D01*
X146377511Y-86038794D01*
X146326000Y-86050000D01*
X128474000Y-86050000D01*
X128406961Y-86030315D01*
X128361206Y-85977511D01*
X128350000Y-85926000D01*
X128350000Y-79000000D01*
X133147516Y-79000000D01*
X133167356Y-79372277D01*
X133167359Y-79372304D01*
X133226659Y-79740361D01*
X133226660Y-79740364D01*
X133324750Y-80100049D01*
X133460516Y-80447269D01*
X133632421Y-80778091D01*
X133737295Y-80936183D01*
X133838511Y-81088761D01*
X133838517Y-81088770D01*
X134076455Y-81375765D01*
X134076468Y-81375779D01*
X134343572Y-81635866D01*
X134636805Y-81866084D01*
X134636808Y-81866086D01*
X134636816Y-81866092D01*
X134952868Y-82063844D01*
X135288150Y-82226880D01*
X135638861Y-82353355D01*
X135638866Y-82353356D01*
X135638871Y-82353358D01*
X136001020Y-82441833D01*
X136001022Y-82441833D01*
X136001029Y-82441835D01*
X136370550Y-82491318D01*
X136743238Y-82501243D01*
X137114869Y-82471497D01*
X137481233Y-82402418D01*
X137838179Y-82294788D01*
X138181662Y-82149826D01*
X138507791Y-81969176D01*
X138507792Y-81969174D01*
X138507796Y-81969173D01*
X138617116Y-81892383D01*
X138812870Y-81754884D01*
X139093443Y-81509378D01*
X139346331Y-81235440D01*
X139568669Y-80936173D01*
X139757936Y-80614969D01*
X139911990Y-80275467D01*
X140029084Y-79921513D01*
X140107892Y-79557117D01*
X140147520Y-79186410D01*
X140150000Y-79000000D01*
X140147520Y-78813590D01*
X140107892Y-78442883D01*
X140029084Y-78078487D01*
X139911990Y-77724533D01*
X139757936Y-77385031D01*
X139568669Y-77063827D01*
X139346331Y-76764560D01*
X139093443Y-76490622D01*
X138812870Y-76245116D01*
X138654548Y-76133908D01*
X138507795Y-76030826D01*
X138507796Y-76030826D01*
X138181662Y-75850173D01*
X137838179Y-75705211D01*
X137481239Y-75597583D01*
X137114875Y-75528504D01*
X137114873Y-75528503D01*
X137114869Y-75528503D01*
X136743238Y-75498757D01*
X136743233Y-75498757D01*
X136743232Y-75498757D01*
X136370559Y-75508681D01*
X136370551Y-75508681D01*
X136370550Y-75508682D01*
X136370543Y-75508683D01*
X136001033Y-75558164D01*
X136001020Y-75558166D01*
X135638871Y-75646641D01*
X135288152Y-75773119D01*
X134952869Y-75936155D01*
X134636805Y-76133915D01*
X134343572Y-76364133D01*
X134076468Y-76624220D01*
X134076455Y-76624234D01*
X133838517Y-76911229D01*
X133838511Y-76911238D01*
X133737288Y-77063827D01*
X133632421Y-77221909D01*
X133547660Y-77385028D01*
X133460515Y-77552733D01*
X133324750Y-77899950D01*
X133226660Y-78259635D01*
X133226659Y-78259638D01*
X133167359Y-78627695D01*
X133167356Y-78627722D01*
X133147516Y-78999994D01*
X133147516Y-79000000D01*
X128350000Y-79000000D01*
X128350000Y-72074000D01*
X128369685Y-72006961D01*
X128422489Y-71961206D01*
X128474000Y-71950000D01*
X146326000Y-71950000D01*
X146393039Y-71969685D01*
G37*
%TD.AperFunction*%
%TD*%
%TA.AperFunction,Conductor*%
%TO.N,/OUT+*%
G36*
X55893039Y-71969685D02*
G01*
X55938794Y-72022489D01*
X55950000Y-72074000D01*
X55950000Y-85926000D01*
X55930315Y-85993039D01*
X55877511Y-86038794D01*
X55826000Y-86050000D01*
X37974000Y-86050000D01*
X37906961Y-86030315D01*
X37861206Y-85977511D01*
X37850000Y-85926000D01*
X37850000Y-79000000D01*
X42647516Y-79000000D01*
X42667356Y-79372277D01*
X42667359Y-79372304D01*
X42726659Y-79740361D01*
X42726660Y-79740364D01*
X42824750Y-80100049D01*
X42960516Y-80447269D01*
X43132421Y-80778091D01*
X43237295Y-80936183D01*
X43338511Y-81088761D01*
X43338517Y-81088770D01*
X43576455Y-81375765D01*
X43576468Y-81375779D01*
X43843572Y-81635866D01*
X44136805Y-81866084D01*
X44136808Y-81866086D01*
X44136816Y-81866092D01*
X44452868Y-82063844D01*
X44788150Y-82226880D01*
X45138861Y-82353355D01*
X45138866Y-82353356D01*
X45138871Y-82353358D01*
X45501020Y-82441833D01*
X45501022Y-82441833D01*
X45501029Y-82441835D01*
X45870550Y-82491318D01*
X46243238Y-82501243D01*
X46614869Y-82471497D01*
X46981233Y-82402418D01*
X47338179Y-82294788D01*
X47681662Y-82149826D01*
X48007791Y-81969176D01*
X48007792Y-81969174D01*
X48007796Y-81969173D01*
X48117116Y-81892383D01*
X48312870Y-81754884D01*
X48593443Y-81509378D01*
X48846331Y-81235440D01*
X49068669Y-80936173D01*
X49257936Y-80614969D01*
X49411990Y-80275467D01*
X49529084Y-79921513D01*
X49607892Y-79557117D01*
X49647520Y-79186410D01*
X49650000Y-79000000D01*
X49647520Y-78813590D01*
X49607892Y-78442883D01*
X49529084Y-78078487D01*
X49411990Y-77724533D01*
X49257936Y-77385031D01*
X49068669Y-77063827D01*
X48846331Y-76764560D01*
X48593443Y-76490622D01*
X48312870Y-76245116D01*
X48154548Y-76133908D01*
X48007795Y-76030826D01*
X48007796Y-76030826D01*
X47681662Y-75850173D01*
X47338179Y-75705211D01*
X46981239Y-75597583D01*
X46614875Y-75528504D01*
X46614873Y-75528503D01*
X46614869Y-75528503D01*
X46243238Y-75498757D01*
X46243233Y-75498757D01*
X46243232Y-75498757D01*
X45870559Y-75508681D01*
X45870551Y-75508681D01*
X45870550Y-75508682D01*
X45870543Y-75508683D01*
X45501033Y-75558164D01*
X45501020Y-75558166D01*
X45138871Y-75646641D01*
X44788152Y-75773119D01*
X44452869Y-75936155D01*
X44136805Y-76133915D01*
X43843572Y-76364133D01*
X43576468Y-76624220D01*
X43576455Y-76624234D01*
X43338517Y-76911229D01*
X43338511Y-76911238D01*
X43237288Y-77063827D01*
X43132421Y-77221909D01*
X43047660Y-77385028D01*
X42960515Y-77552733D01*
X42824750Y-77899950D01*
X42726660Y-78259635D01*
X42726659Y-78259638D01*
X42667359Y-78627695D01*
X42667356Y-78627722D01*
X42647516Y-78999994D01*
X42647516Y-79000000D01*
X37850000Y-79000000D01*
X37850000Y-72074000D01*
X37869685Y-72006961D01*
X37922489Y-71961206D01*
X37974000Y-71950000D01*
X55826000Y-71950000D01*
X55893039Y-71969685D01*
G37*
%TD.AperFunction*%
%TD*%
%TA.AperFunction,Conductor*%
%TO.N,/GND*%
G36*
X77443039Y-80519685D02*
G01*
X77488794Y-80572489D01*
X77500000Y-80624000D01*
X77500000Y-95376000D01*
X77480315Y-95443039D01*
X77427511Y-95488794D01*
X77376000Y-95500000D01*
X74624000Y-95500000D01*
X74556961Y-95480315D01*
X74511206Y-95427511D01*
X74500000Y-95376000D01*
X74500000Y-80624000D01*
X74519685Y-80556961D01*
X74572489Y-80511206D01*
X74624000Y-80500000D01*
X77376000Y-80500000D01*
X77443039Y-80519685D01*
G37*
%TD.AperFunction*%
%TD*%
%TA.AperFunction,Conductor*%
%TO.N,/V-*%
G36*
X146443039Y-47019685D02*
G01*
X146488794Y-47072489D01*
X146500000Y-47124000D01*
X146500000Y-60876000D01*
X146480315Y-60943039D01*
X146427511Y-60988794D01*
X146376000Y-61000000D01*
X128624000Y-61000000D01*
X128556961Y-60980315D01*
X128511206Y-60927511D01*
X128500000Y-60876000D01*
X128500000Y-54000000D01*
X133147516Y-54000000D01*
X133167356Y-54372277D01*
X133167359Y-54372304D01*
X133226659Y-54740361D01*
X133226660Y-54740364D01*
X133324750Y-55100049D01*
X133460516Y-55447269D01*
X133632421Y-55778091D01*
X133737295Y-55936183D01*
X133838511Y-56088761D01*
X133838517Y-56088770D01*
X134076455Y-56375765D01*
X134076468Y-56375779D01*
X134343572Y-56635866D01*
X134636805Y-56866084D01*
X134636808Y-56866086D01*
X134636816Y-56866092D01*
X134952868Y-57063844D01*
X135288150Y-57226880D01*
X135638861Y-57353355D01*
X135638866Y-57353356D01*
X135638871Y-57353358D01*
X136001020Y-57441833D01*
X136001022Y-57441833D01*
X136001029Y-57441835D01*
X136370550Y-57491318D01*
X136743238Y-57501243D01*
X137114869Y-57471497D01*
X137481233Y-57402418D01*
X137838179Y-57294788D01*
X138181662Y-57149826D01*
X138507791Y-56969176D01*
X138507792Y-56969174D01*
X138507796Y-56969173D01*
X138617116Y-56892383D01*
X138812870Y-56754884D01*
X139093443Y-56509378D01*
X139346331Y-56235440D01*
X139568669Y-55936173D01*
X139757936Y-55614969D01*
X139911990Y-55275467D01*
X140029084Y-54921513D01*
X140107892Y-54557117D01*
X140147520Y-54186410D01*
X140150000Y-54000000D01*
X140147520Y-53813590D01*
X140107892Y-53442883D01*
X140029084Y-53078487D01*
X139911990Y-52724533D01*
X139757936Y-52385031D01*
X139568669Y-52063827D01*
X139346331Y-51764560D01*
X139093443Y-51490622D01*
X138812870Y-51245116D01*
X138654548Y-51133908D01*
X138507795Y-51030826D01*
X138507796Y-51030826D01*
X138181662Y-50850173D01*
X137838179Y-50705211D01*
X137481239Y-50597583D01*
X137114875Y-50528504D01*
X137114873Y-50528503D01*
X137114869Y-50528503D01*
X136743238Y-50498757D01*
X136743233Y-50498757D01*
X136743232Y-50498757D01*
X136370559Y-50508681D01*
X136370551Y-50508681D01*
X136370550Y-50508682D01*
X136370543Y-50508683D01*
X136001033Y-50558164D01*
X136001020Y-50558166D01*
X135638871Y-50646641D01*
X135288152Y-50773119D01*
X134952869Y-50936155D01*
X134636805Y-51133915D01*
X134343572Y-51364133D01*
X134076468Y-51624220D01*
X134076455Y-51624234D01*
X133838517Y-51911229D01*
X133838511Y-51911238D01*
X133737288Y-52063827D01*
X133632421Y-52221909D01*
X133547660Y-52385028D01*
X133460515Y-52552733D01*
X133324750Y-52899950D01*
X133226660Y-53259635D01*
X133226659Y-53259638D01*
X133167359Y-53627695D01*
X133167356Y-53627722D01*
X133147516Y-53999994D01*
X133147516Y-54000000D01*
X128500000Y-54000000D01*
X128500000Y-47124000D01*
X128519685Y-47056961D01*
X128572489Y-47011206D01*
X128624000Y-47000000D01*
X146376000Y-47000000D01*
X146443039Y-47019685D01*
G37*
%TD.AperFunction*%
%TD*%
%TA.AperFunction,Conductor*%
%TO.N,/V-*%
G36*
X55943039Y-47019685D02*
G01*
X55988794Y-47072489D01*
X56000000Y-47124000D01*
X56000000Y-60876000D01*
X55980315Y-60943039D01*
X55927511Y-60988794D01*
X55876000Y-61000000D01*
X38124000Y-61000000D01*
X38056961Y-60980315D01*
X38011206Y-60927511D01*
X38000000Y-60876000D01*
X38000000Y-54000000D01*
X42647516Y-54000000D01*
X42667356Y-54372277D01*
X42667359Y-54372304D01*
X42726659Y-54740361D01*
X42726660Y-54740364D01*
X42824750Y-55100049D01*
X42960516Y-55447269D01*
X43132421Y-55778091D01*
X43237295Y-55936183D01*
X43338511Y-56088761D01*
X43338517Y-56088770D01*
X43576455Y-56375765D01*
X43576468Y-56375779D01*
X43843572Y-56635866D01*
X44136805Y-56866084D01*
X44136808Y-56866086D01*
X44136816Y-56866092D01*
X44452868Y-57063844D01*
X44788150Y-57226880D01*
X45138861Y-57353355D01*
X45138866Y-57353356D01*
X45138871Y-57353358D01*
X45501020Y-57441833D01*
X45501022Y-57441833D01*
X45501029Y-57441835D01*
X45870550Y-57491318D01*
X46243238Y-57501243D01*
X46614869Y-57471497D01*
X46981233Y-57402418D01*
X47338179Y-57294788D01*
X47681662Y-57149826D01*
X48007791Y-56969176D01*
X48007792Y-56969174D01*
X48007796Y-56969173D01*
X48117116Y-56892383D01*
X48312870Y-56754884D01*
X48593443Y-56509378D01*
X48846331Y-56235440D01*
X49068669Y-55936173D01*
X49257936Y-55614969D01*
X49411990Y-55275467D01*
X49529084Y-54921513D01*
X49607892Y-54557117D01*
X49647520Y-54186410D01*
X49650000Y-54000000D01*
X49647520Y-53813590D01*
X49607892Y-53442883D01*
X49529084Y-53078487D01*
X49411990Y-52724533D01*
X49257936Y-52385031D01*
X49068669Y-52063827D01*
X48846331Y-51764560D01*
X48593443Y-51490622D01*
X48312870Y-51245116D01*
X48154548Y-51133908D01*
X48007795Y-51030826D01*
X48007796Y-51030826D01*
X47681662Y-50850173D01*
X47338179Y-50705211D01*
X46981239Y-50597583D01*
X46614875Y-50528504D01*
X46614873Y-50528503D01*
X46614869Y-50528503D01*
X46243238Y-50498757D01*
X46243233Y-50498757D01*
X46243232Y-50498757D01*
X45870559Y-50508681D01*
X45870551Y-50508681D01*
X45870550Y-50508682D01*
X45870543Y-50508683D01*
X45501033Y-50558164D01*
X45501020Y-50558166D01*
X45138871Y-50646641D01*
X44788152Y-50773119D01*
X44452869Y-50936155D01*
X44136805Y-51133915D01*
X43843572Y-51364133D01*
X43576468Y-51624220D01*
X43576455Y-51624234D01*
X43338517Y-51911229D01*
X43338511Y-51911238D01*
X43237288Y-52063827D01*
X43132421Y-52221909D01*
X43047660Y-52385028D01*
X42960515Y-52552733D01*
X42824750Y-52899950D01*
X42726660Y-53259635D01*
X42726659Y-53259638D01*
X42667359Y-53627695D01*
X42667356Y-53627722D01*
X42647516Y-53999994D01*
X42647516Y-54000000D01*
X38000000Y-54000000D01*
X38000000Y-47124000D01*
X38019685Y-47056961D01*
X38072489Y-47011206D01*
X38124000Y-47000000D01*
X55876000Y-47000000D01*
X55943039Y-47019685D01*
G37*
%TD.AperFunction*%
%TD*%
%TA.AperFunction,Conductor*%
%TO.N,/V+*%
G36*
X150501121Y-16500020D02*
G01*
X150635109Y-16502409D01*
X150650528Y-16503650D01*
X150916897Y-16541948D01*
X150934184Y-16545708D01*
X151191313Y-16621209D01*
X151207887Y-16627391D01*
X151317159Y-16677293D01*
X151451659Y-16738717D01*
X151467173Y-16747188D01*
X151692628Y-16892080D01*
X151706787Y-16902679D01*
X151909317Y-17078172D01*
X151921827Y-17090682D01*
X152097320Y-17293212D01*
X152107921Y-17307374D01*
X152252808Y-17532821D01*
X152261284Y-17548345D01*
X152372608Y-17792112D01*
X152378791Y-17808688D01*
X152454290Y-18065814D01*
X152458051Y-18083102D01*
X152496348Y-18349463D01*
X152497590Y-18364898D01*
X152499980Y-18498877D01*
X152500000Y-18501089D01*
X152500000Y-93498910D01*
X152499980Y-93501122D01*
X152497590Y-93635101D01*
X152496348Y-93650536D01*
X152458051Y-93916897D01*
X152454290Y-93934185D01*
X152378791Y-94191311D01*
X152372608Y-94207887D01*
X152261284Y-94451654D01*
X152252805Y-94467183D01*
X152107922Y-94692624D01*
X152097320Y-94706787D01*
X151921827Y-94909317D01*
X151909317Y-94921827D01*
X151706787Y-95097320D01*
X151692624Y-95107922D01*
X151467183Y-95252805D01*
X151451654Y-95261284D01*
X151207887Y-95372608D01*
X151191311Y-95378791D01*
X150934185Y-95454290D01*
X150916897Y-95458051D01*
X150650536Y-95496348D01*
X150635101Y-95497590D01*
X150504818Y-95499914D01*
X150501120Y-95499980D01*
X150498910Y-95500000D01*
X80129500Y-95500000D01*
X80062461Y-95480315D01*
X80016706Y-95427511D01*
X80005500Y-95376000D01*
X80005500Y-89500000D01*
X108994696Y-89500000D01*
X109013898Y-89866405D01*
X109071294Y-90228788D01*
X109071294Y-90228790D01*
X109166260Y-90583206D01*
X109297746Y-90925739D01*
X109464320Y-91252656D01*
X109664147Y-91560364D01*
X109868736Y-91813010D01*
X109895051Y-91845506D01*
X110154494Y-92104949D01*
X110154498Y-92104952D01*
X110439635Y-92335852D01*
X110693172Y-92500500D01*
X110747348Y-92535682D01*
X111074264Y-92702255D01*
X111416801Y-92833742D01*
X111771206Y-92928705D01*
X112133596Y-92986102D01*
X112479734Y-93004241D01*
X112499999Y-93005304D01*
X112500000Y-93005304D01*
X112500001Y-93005304D01*
X112519203Y-93004297D01*
X112866404Y-92986102D01*
X113228794Y-92928705D01*
X113583199Y-92833742D01*
X113925736Y-92702255D01*
X114252652Y-92535682D01*
X114560366Y-92335851D01*
X114845506Y-92104949D01*
X115104949Y-91845506D01*
X115335851Y-91560366D01*
X115535682Y-91252652D01*
X115702255Y-90925736D01*
X115833742Y-90583199D01*
X115928705Y-90228794D01*
X115986102Y-89866404D01*
X116005304Y-89500000D01*
X115986102Y-89133596D01*
X115928705Y-88771206D01*
X115833742Y-88416801D01*
X115702255Y-88074264D01*
X115535682Y-87747348D01*
X115520504Y-87723975D01*
X115500501Y-87657030D01*
X115500500Y-87656441D01*
X115500500Y-87624500D01*
X115520185Y-87557461D01*
X115572989Y-87511706D01*
X115624500Y-87500500D01*
X117500970Y-87500500D01*
X117568009Y-87520185D01*
X117613764Y-87572989D01*
X117623708Y-87642147D01*
X117600433Y-87698548D01*
X117488870Y-87848402D01*
X117314113Y-88151091D01*
X117314107Y-88151104D01*
X117175674Y-88472027D01*
X117075430Y-88806865D01*
X117075428Y-88806872D01*
X117014739Y-89151061D01*
X117014738Y-89151072D01*
X116994415Y-89499996D01*
X116994415Y-89500003D01*
X117014738Y-89848927D01*
X117014739Y-89848938D01*
X117075428Y-90193127D01*
X117075430Y-90193134D01*
X117175674Y-90527972D01*
X117314107Y-90848895D01*
X117314113Y-90848908D01*
X117488870Y-91151597D01*
X117697584Y-91431949D01*
X117697589Y-91431955D01*
X117818738Y-91560364D01*
X117937442Y-91686183D01*
X118113903Y-91834251D01*
X118205186Y-91910847D01*
X118205194Y-91910853D01*
X118497203Y-92102911D01*
X118497207Y-92102913D01*
X118809549Y-92259777D01*
X119137989Y-92379319D01*
X119478086Y-92459923D01*
X119825241Y-92500500D01*
X119825248Y-92500500D01*
X120174752Y-92500500D01*
X120174759Y-92500500D01*
X120521914Y-92459923D01*
X120862011Y-92379319D01*
X121190451Y-92259777D01*
X121502793Y-92102913D01*
X121794811Y-91910849D01*
X122062558Y-91686183D01*
X122302412Y-91431953D01*
X122511130Y-91151596D01*
X122685889Y-90848904D01*
X122824326Y-90527971D01*
X122924569Y-90193136D01*
X122985262Y-89848927D01*
X123005585Y-89500000D01*
X122985262Y-89151073D01*
X122982180Y-89133594D01*
X122924571Y-88806872D01*
X122924569Y-88806865D01*
X122913895Y-88771211D01*
X122824326Y-88472029D01*
X122685889Y-88151096D01*
X122511130Y-87848404D01*
X122511129Y-87848402D01*
X122399567Y-87698548D01*
X122375323Y-87633019D01*
X122390355Y-87564785D01*
X122439891Y-87515511D01*
X122499030Y-87500500D01*
X126316527Y-87500500D01*
X126383566Y-87520185D01*
X126415154Y-87549342D01*
X126467680Y-87618270D01*
X126513441Y-87671080D01*
X126630227Y-87796879D01*
X126630231Y-87796882D01*
X126630238Y-87796890D01*
X126865659Y-88005642D01*
X127125387Y-88183243D01*
X127125391Y-88183245D01*
X127405322Y-88326888D01*
X127405333Y-88326893D01*
X127701049Y-88434315D01*
X127701054Y-88434316D01*
X127701061Y-88434319D01*
X127768100Y-88454004D01*
X127850907Y-88476785D01*
X128159978Y-88535743D01*
X128159983Y-88535743D01*
X128159988Y-88535744D01*
X128473989Y-88555500D01*
X128474000Y-88555500D01*
X146325989Y-88555500D01*
X146326000Y-88555500D01*
X146547558Y-88545685D01*
X146858604Y-88498237D01*
X146910115Y-88487031D01*
X147096504Y-88434319D01*
X147205986Y-88403357D01*
X147205987Y-88403356D01*
X147205992Y-88403355D01*
X147495817Y-88280874D01*
X147768006Y-88123033D01*
X148018266Y-87932323D01*
X148071070Y-87886568D01*
X148196890Y-87769762D01*
X148405642Y-87534341D01*
X148583243Y-87274613D01*
X148726890Y-86994674D01*
X148834319Y-86698939D01*
X148854004Y-86631900D01*
X148876785Y-86549093D01*
X148935743Y-86240022D01*
X148940384Y-86166258D01*
X148955500Y-85926010D01*
X148955500Y-72074011D01*
X148955499Y-72073989D01*
X148945685Y-71852442D01*
X148898237Y-71541396D01*
X148887031Y-71489885D01*
X148876006Y-71450900D01*
X148803357Y-71194013D01*
X148803355Y-71194009D01*
X148680874Y-70904183D01*
X148577191Y-70725387D01*
X148523033Y-70631994D01*
X148332323Y-70381734D01*
X148286568Y-70328930D01*
X148286558Y-70328919D01*
X148169772Y-70203120D01*
X148169767Y-70203116D01*
X148169762Y-70203110D01*
X147934341Y-69994358D01*
X147674613Y-69816757D01*
X147674610Y-69816755D01*
X147674608Y-69816754D01*
X147394677Y-69673111D01*
X147394666Y-69673106D01*
X147098950Y-69565684D01*
X147031903Y-69545997D01*
X147031900Y-69545996D01*
X147014378Y-69541175D01*
X146949099Y-69523216D01*
X146640018Y-69464256D01*
X146640011Y-69464255D01*
X146326011Y-69444500D01*
X146326000Y-69444500D01*
X128474000Y-69444500D01*
X128399187Y-69447814D01*
X128252443Y-69454314D01*
X128252436Y-69454315D01*
X127941396Y-69501763D01*
X127889885Y-69512969D01*
X127889881Y-69512970D01*
X127889856Y-69512976D01*
X127594013Y-69596642D01*
X127594009Y-69596644D01*
X127304183Y-69719125D01*
X127031990Y-69876969D01*
X126781729Y-70067680D01*
X126728919Y-70113441D01*
X126603120Y-70230227D01*
X126394356Y-70465661D01*
X126216754Y-70725391D01*
X126073111Y-71005322D01*
X126073106Y-71005333D01*
X125965684Y-71301049D01*
X125945997Y-71368096D01*
X125923216Y-71450900D01*
X125864256Y-71759981D01*
X125864255Y-71759988D01*
X125844500Y-72073989D01*
X125844500Y-79649013D01*
X125824815Y-79716052D01*
X125772011Y-79761807D01*
X125702853Y-79771751D01*
X125639297Y-79742726D01*
X125601523Y-79683948D01*
X125596682Y-79655727D01*
X125596318Y-79649013D01*
X125595972Y-79642629D01*
X125594565Y-79634049D01*
X125538073Y-79289460D01*
X125538072Y-79289459D01*
X125538071Y-79289448D01*
X125442324Y-78944597D01*
X125320257Y-78638232D01*
X125309857Y-78612129D01*
X125309848Y-78612111D01*
X125142215Y-78295922D01*
X125142213Y-78295919D01*
X125142211Y-78295915D01*
X124941365Y-77999689D01*
X124941361Y-77999684D01*
X124941358Y-77999680D01*
X124709668Y-77726914D01*
X124449837Y-77480789D01*
X124449830Y-77480783D01*
X124449827Y-77480781D01*
X124382245Y-77429407D01*
X124164919Y-77264200D01*
X123858253Y-77079685D01*
X123858252Y-77079684D01*
X123858248Y-77079682D01*
X123858244Y-77079680D01*
X123533447Y-76929414D01*
X123533441Y-76929411D01*
X123533435Y-76929409D01*
X123363854Y-76872270D01*
X123194273Y-76815131D01*
X122844744Y-76738194D01*
X122488949Y-76699500D01*
X122488948Y-76699500D01*
X122131052Y-76699500D01*
X122131050Y-76699500D01*
X121775255Y-76738194D01*
X121425726Y-76815131D01*
X121169970Y-76901306D01*
X121086565Y-76929409D01*
X121086563Y-76929410D01*
X121086552Y-76929414D01*
X120761755Y-77079680D01*
X120761751Y-77079682D01*
X120533367Y-77217096D01*
X120455081Y-77264200D01*
X120366768Y-77331333D01*
X120170172Y-77480781D01*
X120170163Y-77480789D01*
X119910331Y-77726914D01*
X119678641Y-77999680D01*
X119678634Y-77999690D01*
X119477790Y-78295913D01*
X119477784Y-78295922D01*
X119310151Y-78612111D01*
X119310142Y-78612129D01*
X119177674Y-78944600D01*
X119177672Y-78944607D01*
X119081932Y-79289434D01*
X119081926Y-79289460D01*
X119024029Y-79642614D01*
X119024028Y-79642627D01*
X119024028Y-79642629D01*
X119017566Y-79761807D01*
X119007302Y-79951132D01*
X119004652Y-80000000D01*
X119021458Y-80309978D01*
X119024028Y-80357368D01*
X119024029Y-80357385D01*
X119081926Y-80710539D01*
X119081932Y-80710565D01*
X119177672Y-81055392D01*
X119177674Y-81055399D01*
X119286927Y-81329603D01*
X119293454Y-81399167D01*
X119261336Y-81461217D01*
X119200770Y-81496052D01*
X119171734Y-81499500D01*
X117828266Y-81499500D01*
X117761227Y-81479815D01*
X117715472Y-81427011D01*
X117705528Y-81357853D01*
X117713073Y-81329603D01*
X117780334Y-81160790D01*
X117822324Y-81055403D01*
X117918071Y-80710552D01*
X117975972Y-80357371D01*
X117995348Y-80000000D01*
X117975972Y-79642629D01*
X117974565Y-79634049D01*
X117918073Y-79289460D01*
X117918072Y-79289459D01*
X117918071Y-79289448D01*
X117822324Y-78944597D01*
X117700257Y-78638232D01*
X117689857Y-78612129D01*
X117689848Y-78612111D01*
X117522215Y-78295922D01*
X117522213Y-78295919D01*
X117522211Y-78295915D01*
X117321365Y-77999689D01*
X117321361Y-77999684D01*
X117321358Y-77999680D01*
X117089668Y-77726914D01*
X116829837Y-77480789D01*
X116829830Y-77480783D01*
X116829827Y-77480781D01*
X116762245Y-77429407D01*
X116544919Y-77264200D01*
X116238253Y-77079685D01*
X116238252Y-77079684D01*
X116238248Y-77079682D01*
X116238244Y-77079680D01*
X115913447Y-76929414D01*
X115913441Y-76929411D01*
X115913435Y-76929409D01*
X115743854Y-76872270D01*
X115574273Y-76815131D01*
X115224744Y-76738194D01*
X114868949Y-76699500D01*
X114868948Y-76699500D01*
X114511052Y-76699500D01*
X114511050Y-76699500D01*
X114155255Y-76738194D01*
X113805726Y-76815131D01*
X113549970Y-76901306D01*
X113466565Y-76929409D01*
X113466563Y-76929410D01*
X113466552Y-76929414D01*
X113141755Y-77079680D01*
X113141751Y-77079682D01*
X112913367Y-77217096D01*
X112835081Y-77264200D01*
X112746768Y-77331333D01*
X112550172Y-77480781D01*
X112550163Y-77480789D01*
X112290331Y-77726914D01*
X112058641Y-77999680D01*
X112058634Y-77999690D01*
X111857790Y-78295913D01*
X111857784Y-78295922D01*
X111690151Y-78612111D01*
X111690142Y-78612129D01*
X111557674Y-78944600D01*
X111557672Y-78944607D01*
X111461932Y-79289434D01*
X111461926Y-79289460D01*
X111404029Y-79642614D01*
X111404028Y-79642627D01*
X111404028Y-79642629D01*
X111397566Y-79761807D01*
X111387302Y-79951132D01*
X111384652Y-80000000D01*
X111401458Y-80309978D01*
X111404028Y-80357368D01*
X111404029Y-80357385D01*
X111461926Y-80710539D01*
X111461932Y-80710565D01*
X111557672Y-81055392D01*
X111557674Y-81055399D01*
X111690142Y-81387870D01*
X111690144Y-81387873D01*
X111690147Y-81387880D01*
X111802064Y-81598978D01*
X111804032Y-81602689D01*
X111818042Y-81671140D01*
X111792821Y-81736299D01*
X111748278Y-81772492D01*
X111546316Y-81869752D01*
X111260962Y-82049053D01*
X110997477Y-82259174D01*
X110759172Y-82497480D01*
X110490410Y-82766241D01*
X110259168Y-82997483D01*
X110096858Y-83201016D01*
X110075648Y-83227611D01*
X110049053Y-83260961D01*
X109869752Y-83546316D01*
X109723532Y-83849945D01*
X109612227Y-84168034D01*
X109612223Y-84168046D01*
X109537231Y-84496612D01*
X109500158Y-84825659D01*
X109500157Y-84825669D01*
X109499500Y-84831496D01*
X109499500Y-87656441D01*
X109479815Y-87723480D01*
X109479496Y-87723975D01*
X109464318Y-87747346D01*
X109297746Y-88074260D01*
X109166260Y-88416793D01*
X109071294Y-88771209D01*
X109071294Y-88771211D01*
X109013898Y-89133594D01*
X108994696Y-89499999D01*
X108994696Y-89500000D01*
X80005500Y-89500000D01*
X80005500Y-80624011D01*
X80005499Y-80623989D01*
X79995685Y-80402442D01*
X79948237Y-80091396D01*
X79937031Y-80039885D01*
X79925752Y-80000002D01*
X79853357Y-79744013D01*
X79853355Y-79744009D01*
X79841540Y-79716052D01*
X79730874Y-79454183D01*
X79573033Y-79181994D01*
X79382323Y-78931734D01*
X79336568Y-78878930D01*
X79254017Y-78790008D01*
X79219772Y-78753120D01*
X79219767Y-78753116D01*
X79219762Y-78753110D01*
X78984341Y-78544358D01*
X78724613Y-78366757D01*
X78724610Y-78366755D01*
X78724608Y-78366754D01*
X78444677Y-78223111D01*
X78444666Y-78223106D01*
X78148950Y-78115684D01*
X78081903Y-78095997D01*
X78081900Y-78095996D01*
X78064378Y-78091175D01*
X77999099Y-78073216D01*
X77690018Y-78014256D01*
X77690011Y-78014255D01*
X77376011Y-77994500D01*
X77376000Y-77994500D01*
X74624000Y-77994500D01*
X74549187Y-77997814D01*
X74402443Y-78004314D01*
X74402436Y-78004315D01*
X74110394Y-78048865D01*
X74091396Y-78051763D01*
X74039885Y-78062969D01*
X74039881Y-78062970D01*
X74039856Y-78062976D01*
X73744013Y-78146642D01*
X73744009Y-78146644D01*
X73454183Y-78269125D01*
X73181990Y-78426969D01*
X72931729Y-78617680D01*
X72878919Y-78663441D01*
X72753120Y-78780227D01*
X72544356Y-79015661D01*
X72366754Y-79275391D01*
X72223111Y-79555322D01*
X72223106Y-79555333D01*
X72115684Y-79851049D01*
X72095997Y-79918096D01*
X72073216Y-80000900D01*
X72014256Y-80309981D01*
X72014255Y-80309988D01*
X71994500Y-80623989D01*
X71994500Y-95376000D01*
X71974815Y-95443039D01*
X71922011Y-95488794D01*
X71870500Y-95500000D01*
X35501090Y-95500000D01*
X35498879Y-95499980D01*
X35495015Y-95499911D01*
X35364898Y-95497590D01*
X35349463Y-95496348D01*
X35083102Y-95458051D01*
X35065814Y-95454290D01*
X34808688Y-95378791D01*
X34792112Y-95372608D01*
X34548345Y-95261284D01*
X34532821Y-95252808D01*
X34307374Y-95107921D01*
X34293212Y-95097320D01*
X34090682Y-94921827D01*
X34078172Y-94909317D01*
X33902679Y-94706787D01*
X33892077Y-94692624D01*
X33747188Y-94467173D01*
X33738715Y-94451654D01*
X33627391Y-94207887D01*
X33621208Y-94191311D01*
X33545709Y-93934185D01*
X33541948Y-93916897D01*
X33503651Y-93650536D01*
X33502409Y-93635109D01*
X33500020Y-93501121D01*
X33500000Y-93498910D01*
X33500000Y-85926000D01*
X35344500Y-85926000D01*
X35348115Y-86007613D01*
X35354314Y-86147556D01*
X35354315Y-86147563D01*
X35377225Y-86297745D01*
X35401763Y-86458604D01*
X35403006Y-86464320D01*
X35412968Y-86510109D01*
X35412976Y-86510143D01*
X35496642Y-86805986D01*
X35496644Y-86805990D01*
X35619125Y-87095816D01*
X35776969Y-87368009D01*
X35967680Y-87618270D01*
X36013441Y-87671080D01*
X36130227Y-87796879D01*
X36130231Y-87796882D01*
X36130238Y-87796890D01*
X36365659Y-88005642D01*
X36625387Y-88183243D01*
X36625391Y-88183245D01*
X36905322Y-88326888D01*
X36905333Y-88326893D01*
X37201049Y-88434315D01*
X37201054Y-88434316D01*
X37201061Y-88434319D01*
X37268100Y-88454004D01*
X37350907Y-88476785D01*
X37659978Y-88535743D01*
X37659983Y-88535743D01*
X37659988Y-88535744D01*
X37973989Y-88555500D01*
X37974000Y-88555500D01*
X55825989Y-88555500D01*
X55826000Y-88555500D01*
X56047558Y-88545685D01*
X56358604Y-88498237D01*
X56410115Y-88487031D01*
X56596504Y-88434319D01*
X56705986Y-88403357D01*
X56705987Y-88403356D01*
X56705992Y-88403355D01*
X56948226Y-88300985D01*
X57017639Y-88293021D01*
X57080340Y-88323849D01*
X57084176Y-88327524D01*
X59079223Y-90322571D01*
X59111317Y-90378158D01*
X59166260Y-90583206D01*
X59297746Y-90925739D01*
X59464320Y-91252656D01*
X59664147Y-91560364D01*
X59868736Y-91813010D01*
X59895051Y-91845506D01*
X60154494Y-92104949D01*
X60154498Y-92104952D01*
X60439635Y-92335852D01*
X60693172Y-92500500D01*
X60747348Y-92535682D01*
X61074264Y-92702255D01*
X61416801Y-92833742D01*
X61771206Y-92928705D01*
X62133596Y-92986102D01*
X62479734Y-93004241D01*
X62499999Y-93005304D01*
X62500000Y-93005304D01*
X62500001Y-93005304D01*
X62519203Y-93004297D01*
X62866404Y-92986102D01*
X63228794Y-92928705D01*
X63583199Y-92833742D01*
X63925736Y-92702255D01*
X64252652Y-92535682D01*
X64560366Y-92335851D01*
X64845506Y-92104949D01*
X65104949Y-91845506D01*
X65335851Y-91560366D01*
X65535682Y-91252652D01*
X65702255Y-90925736D01*
X65833742Y-90583199D01*
X65928705Y-90228794D01*
X65986102Y-89866404D01*
X66005304Y-89500000D01*
X65986102Y-89133596D01*
X65928705Y-88771206D01*
X65833742Y-88416801D01*
X65702255Y-88074264D01*
X65535682Y-87747348D01*
X65535679Y-87747343D01*
X65335852Y-87439635D01*
X65233557Y-87313311D01*
X65104949Y-87154494D01*
X64845506Y-86895051D01*
X64813010Y-86868736D01*
X64560364Y-86664147D01*
X64252656Y-86464320D01*
X63925739Y-86297746D01*
X63583206Y-86166260D01*
X63513402Y-86147556D01*
X63378158Y-86111317D01*
X63322571Y-86079223D01*
X58491819Y-81248471D01*
X58458334Y-81187148D01*
X58455500Y-81160790D01*
X58455500Y-72074011D01*
X58455499Y-72073989D01*
X58445685Y-71852442D01*
X58398237Y-71541396D01*
X58387031Y-71489885D01*
X58376006Y-71450900D01*
X58303357Y-71194013D01*
X58303355Y-71194009D01*
X58180874Y-70904183D01*
X58077191Y-70725387D01*
X58023033Y-70631994D01*
X57832323Y-70381734D01*
X57786568Y-70328930D01*
X57786558Y-70328919D01*
X57669772Y-70203120D01*
X57669767Y-70203116D01*
X57669762Y-70203110D01*
X57434341Y-69994358D01*
X57174613Y-69816757D01*
X57174610Y-69816755D01*
X57174608Y-69816754D01*
X56894677Y-69673111D01*
X56894666Y-69673106D01*
X56598950Y-69565684D01*
X56531903Y-69545997D01*
X56531900Y-69545996D01*
X56514378Y-69541175D01*
X56449099Y-69523216D01*
X56140018Y-69464256D01*
X56140011Y-69464255D01*
X55826011Y-69444500D01*
X55826000Y-69444500D01*
X37974000Y-69444500D01*
X37899187Y-69447814D01*
X37752443Y-69454314D01*
X37752436Y-69454315D01*
X37441396Y-69501763D01*
X37389885Y-69512969D01*
X37389881Y-69512970D01*
X37389856Y-69512976D01*
X37094013Y-69596642D01*
X37094009Y-69596644D01*
X36804183Y-69719125D01*
X36531990Y-69876969D01*
X36281729Y-70067680D01*
X36228919Y-70113441D01*
X36103120Y-70230227D01*
X35894356Y-70465661D01*
X35716754Y-70725391D01*
X35573111Y-71005322D01*
X35573106Y-71005333D01*
X35465684Y-71301049D01*
X35445997Y-71368096D01*
X35423216Y-71450900D01*
X35364256Y-71759981D01*
X35364255Y-71759988D01*
X35344500Y-72073989D01*
X35344500Y-72074000D01*
X35344500Y-78999998D01*
X35344500Y-85926000D01*
X33500000Y-85926000D01*
X33500000Y-60875996D01*
X34994500Y-60875996D01*
X35008878Y-61169632D01*
X35063191Y-61514890D01*
X35063197Y-61514921D01*
X35074393Y-61566388D01*
X35098083Y-61666935D01*
X35203627Y-62000141D01*
X35347124Y-62318804D01*
X35347130Y-62318815D01*
X35347133Y-62318822D01*
X35526668Y-62618695D01*
X35526672Y-62618700D01*
X35739798Y-62895693D01*
X35780548Y-62942721D01*
X35785557Y-62948501D01*
X36006035Y-63177298D01*
X36274952Y-63400538D01*
X36314717Y-63426392D01*
X36567977Y-63591054D01*
X36881134Y-63746262D01*
X37210191Y-63864064D01*
X37277230Y-63883749D01*
X37277234Y-63883750D01*
X37430886Y-63924487D01*
X37775071Y-63985176D01*
X37775072Y-63985176D01*
X37775083Y-63985178D01*
X38085591Y-64003262D01*
X38123998Y-64005500D01*
X38124000Y-64005500D01*
X55875996Y-64005500D01*
X55876000Y-64005500D01*
X56169628Y-63991122D01*
X56514890Y-63936809D01*
X56545715Y-63930102D01*
X56566388Y-63925606D01*
X56566401Y-63925603D01*
X56666942Y-63901915D01*
X57000135Y-63796375D01*
X57318822Y-63652867D01*
X57618695Y-63473332D01*
X57895697Y-63260198D01*
X57948501Y-63214443D01*
X58177298Y-62993965D01*
X58400541Y-62725043D01*
X58591054Y-62432023D01*
X58746262Y-62118866D01*
X58864064Y-61789809D01*
X58883749Y-61722770D01*
X58924486Y-61569116D01*
X58949933Y-61424804D01*
X58985176Y-61224928D01*
X58985175Y-61224928D01*
X58985178Y-61224917D01*
X59005500Y-60876000D01*
X59005500Y-60750000D01*
X80544590Y-60750000D01*
X80564225Y-61424800D01*
X80564225Y-61424804D01*
X80623060Y-62097285D01*
X80623062Y-62097308D01*
X80720904Y-62765272D01*
X80857410Y-63426372D01*
X80857414Y-63426389D01*
X81032135Y-64078456D01*
X81032142Y-64078479D01*
X81244477Y-64719271D01*
X81244481Y-64719281D01*
X81244482Y-64719284D01*
X81493726Y-65346668D01*
X81779027Y-65958498D01*
X82099420Y-66552705D01*
X82453821Y-67127277D01*
X82841031Y-67680270D01*
X83242986Y-68188626D01*
X83259736Y-68209809D01*
X83708533Y-68714118D01*
X83708549Y-68714135D01*
X84185864Y-69191450D01*
X84185881Y-69191466D01*
X84185884Y-69191469D01*
X84690186Y-69640260D01*
X85219730Y-70058969D01*
X85772723Y-70446179D01*
X86347295Y-70800580D01*
X86941502Y-71120973D01*
X87553332Y-71406274D01*
X88180716Y-71655518D01*
X88821531Y-71867861D01*
X89473608Y-72042585D01*
X90134742Y-72179098D01*
X90802694Y-72276938D01*
X91475205Y-72335775D01*
X92150000Y-72355410D01*
X92824795Y-72335775D01*
X93497306Y-72276938D01*
X94165258Y-72179098D01*
X94826392Y-72042585D01*
X95478469Y-71867861D01*
X96119284Y-71655518D01*
X96746668Y-71406274D01*
X97358498Y-71120973D01*
X97952705Y-70800580D01*
X98527277Y-70446179D01*
X99080270Y-70058969D01*
X99609814Y-69640260D01*
X100114116Y-69191469D01*
X100591469Y-68714116D01*
X101040260Y-68209814D01*
X101458969Y-67680270D01*
X101846179Y-67127277D01*
X102200580Y-66552705D01*
X102520973Y-65958498D01*
X102806274Y-65346668D01*
X103055518Y-64719284D01*
X103267861Y-64078469D01*
X103442585Y-63426392D01*
X103579098Y-62765258D01*
X103676938Y-62097306D01*
X103735775Y-61424795D01*
X103751744Y-60875996D01*
X125494500Y-60875996D01*
X125508878Y-61169632D01*
X125563191Y-61514890D01*
X125563197Y-61514921D01*
X125574393Y-61566388D01*
X125598083Y-61666935D01*
X125703627Y-62000141D01*
X125847124Y-62318804D01*
X125847130Y-62318815D01*
X125847133Y-62318822D01*
X126026668Y-62618695D01*
X126026672Y-62618700D01*
X126239798Y-62895693D01*
X126280548Y-62942721D01*
X126285557Y-62948501D01*
X126506035Y-63177298D01*
X126774952Y-63400538D01*
X126814717Y-63426392D01*
X127067977Y-63591054D01*
X127381134Y-63746262D01*
X127710191Y-63864064D01*
X127777230Y-63883749D01*
X127777234Y-63883750D01*
X127930886Y-63924487D01*
X128275071Y-63985176D01*
X128275072Y-63985176D01*
X128275083Y-63985178D01*
X128585591Y-64003262D01*
X128623998Y-64005500D01*
X128624000Y-64005500D01*
X146375996Y-64005500D01*
X146376000Y-64005500D01*
X146669628Y-63991122D01*
X147014890Y-63936809D01*
X147045715Y-63930102D01*
X147066388Y-63925606D01*
X147066401Y-63925603D01*
X147166942Y-63901915D01*
X147500135Y-63796375D01*
X147818822Y-63652867D01*
X148118695Y-63473332D01*
X148395697Y-63260198D01*
X148448501Y-63214443D01*
X148677298Y-62993965D01*
X148900541Y-62725043D01*
X149091054Y-62432023D01*
X149246262Y-62118866D01*
X149364064Y-61789809D01*
X149383749Y-61722770D01*
X149424486Y-61569116D01*
X149449933Y-61424804D01*
X149485176Y-61224928D01*
X149485175Y-61224928D01*
X149485178Y-61224917D01*
X149505500Y-60876000D01*
X149505500Y-47124000D01*
X149491122Y-46830372D01*
X149436809Y-46485110D01*
X149425603Y-46433599D01*
X149401915Y-46333058D01*
X149296375Y-45999865D01*
X149152867Y-45681178D01*
X148973332Y-45381305D01*
X148891501Y-45274952D01*
X148760201Y-45104306D01*
X148714448Y-45051505D01*
X148714443Y-45051499D01*
X148493965Y-44822702D01*
X148449220Y-44785557D01*
X148225047Y-44599461D01*
X147932022Y-44408945D01*
X147618862Y-44253736D01*
X147289811Y-44135936D01*
X147222765Y-44116249D01*
X147069113Y-44075512D01*
X146724928Y-44014823D01*
X146724917Y-44014822D01*
X146376002Y-43994500D01*
X146376000Y-43994500D01*
X128624000Y-43994500D01*
X128493498Y-44000890D01*
X128330367Y-44008878D01*
X127985109Y-44063191D01*
X127985078Y-44063197D01*
X127933611Y-44074393D01*
X127833064Y-44098083D01*
X127499858Y-44203627D01*
X127181195Y-44347124D01*
X127181176Y-44347134D01*
X126881315Y-44526661D01*
X126881299Y-44526672D01*
X126604306Y-44739798D01*
X126551505Y-44785551D01*
X126322701Y-45006035D01*
X126099461Y-45274952D01*
X125908945Y-45567977D01*
X125753736Y-45881137D01*
X125635936Y-46210188D01*
X125616249Y-46277234D01*
X125575512Y-46430886D01*
X125514823Y-46775071D01*
X125514822Y-46775082D01*
X125494500Y-47123998D01*
X125494500Y-60875996D01*
X103751744Y-60875996D01*
X103755410Y-60750000D01*
X103735775Y-60075205D01*
X103676938Y-59402694D01*
X103579098Y-58734742D01*
X103445556Y-58087999D01*
X103442589Y-58073627D01*
X103442585Y-58073610D01*
X103442585Y-58073608D01*
X103267861Y-57421531D01*
X103055518Y-56780716D01*
X102806274Y-56153332D01*
X102520973Y-55541502D01*
X102200580Y-54947295D01*
X101846179Y-54372723D01*
X101458969Y-53819730D01*
X101040260Y-53290186D01*
X100591469Y-52785884D01*
X100591466Y-52785881D01*
X100591450Y-52785864D01*
X100114135Y-52308549D01*
X100114118Y-52308533D01*
X99983996Y-52192734D01*
X99609814Y-51859740D01*
X99080270Y-51441031D01*
X98527277Y-51053821D01*
X97952705Y-50699420D01*
X97952696Y-50699415D01*
X97952691Y-50699412D01*
X97358519Y-50379038D01*
X97358510Y-50379033D01*
X97358498Y-50379027D01*
X96746668Y-50093726D01*
X96746661Y-50093723D01*
X96746649Y-50093718D01*
X96119271Y-49844477D01*
X95478479Y-49632142D01*
X95478456Y-49632135D01*
X94826389Y-49457414D01*
X94826372Y-49457410D01*
X94165272Y-49320904D01*
X93497308Y-49223062D01*
X93497285Y-49223060D01*
X92824802Y-49164225D01*
X92150000Y-49144590D01*
X91475199Y-49164225D01*
X91475195Y-49164225D01*
X90802714Y-49223060D01*
X90802691Y-49223062D01*
X90134727Y-49320904D01*
X89473627Y-49457410D01*
X89473610Y-49457414D01*
X88821543Y-49632135D01*
X88821520Y-49632142D01*
X88180728Y-49844477D01*
X87553350Y-50093718D01*
X87553320Y-50093731D01*
X86941514Y-50379021D01*
X86941480Y-50379038D01*
X86347308Y-50699412D01*
X85772723Y-51053821D01*
X85219738Y-51441025D01*
X84690190Y-51859736D01*
X84185881Y-52308533D01*
X84185864Y-52308549D01*
X83708549Y-52785864D01*
X83708533Y-52785881D01*
X83259736Y-53290190D01*
X83048856Y-53556892D01*
X82879397Y-53771209D01*
X82841025Y-53819738D01*
X82453821Y-54372723D01*
X82099412Y-54947308D01*
X81779038Y-55541480D01*
X81779021Y-55541514D01*
X81493731Y-56153320D01*
X81493718Y-56153350D01*
X81244477Y-56780728D01*
X81032142Y-57421520D01*
X81032135Y-57421543D01*
X80857414Y-58073610D01*
X80857410Y-58073627D01*
X80720904Y-58734727D01*
X80623062Y-59402691D01*
X80623060Y-59402714D01*
X80564225Y-60075195D01*
X80564225Y-60075199D01*
X80544590Y-60750000D01*
X59005500Y-60750000D01*
X59005500Y-54800002D01*
X62707171Y-54800002D01*
X62726473Y-55156014D01*
X62726475Y-55156031D01*
X62784153Y-55507848D01*
X62784159Y-55507874D01*
X62879536Y-55851394D01*
X62879538Y-55851401D01*
X63011504Y-56182613D01*
X63011513Y-56182631D01*
X63178511Y-56497623D01*
X63178514Y-56497628D01*
X63178516Y-56497631D01*
X63378602Y-56792735D01*
X63609421Y-57064477D01*
X63868268Y-57309669D01*
X64152107Y-57525438D01*
X64457611Y-57709254D01*
X64457613Y-57709255D01*
X64457615Y-57709256D01*
X64457619Y-57709258D01*
X64726681Y-57833739D01*
X64781198Y-57858961D01*
X65119075Y-57972805D01*
X65467280Y-58049451D01*
X65821730Y-58088000D01*
X65821736Y-58088000D01*
X66178264Y-58088000D01*
X66178270Y-58088000D01*
X66532720Y-58049451D01*
X66880925Y-57972805D01*
X67218802Y-57858961D01*
X67542389Y-57709254D01*
X67847893Y-57525438D01*
X68131732Y-57309669D01*
X68390579Y-57064477D01*
X68621398Y-56792735D01*
X68821484Y-56497631D01*
X68988491Y-56182623D01*
X69120460Y-55851405D01*
X69215844Y-55507861D01*
X69261595Y-55228794D01*
X69273524Y-55156031D01*
X69273526Y-55156014D01*
X69292829Y-54800002D01*
X69292829Y-54799997D01*
X69273526Y-54443985D01*
X69273524Y-54443968D01*
X69215846Y-54092151D01*
X69215845Y-54092150D01*
X69215844Y-54092139D01*
X69188512Y-53993698D01*
X69120462Y-53748601D01*
X69120461Y-53748598D01*
X69112105Y-53727627D01*
X69027712Y-53515815D01*
X68988495Y-53417386D01*
X68988486Y-53417368D01*
X68988185Y-53416801D01*
X68867364Y-53188907D01*
X68821488Y-53102376D01*
X68821486Y-53102373D01*
X68821484Y-53102369D01*
X68621398Y-52807265D01*
X68428591Y-52580274D01*
X68400194Y-52516438D01*
X68410818Y-52447380D01*
X68428592Y-52419724D01*
X68621398Y-52192735D01*
X68821484Y-51897631D01*
X68890445Y-51767556D01*
X68939238Y-51717548D01*
X69007323Y-51701856D01*
X69073083Y-51725465D01*
X69109554Y-51767556D01*
X69178512Y-51897623D01*
X69178515Y-51897629D01*
X69178517Y-51897632D01*
X69378601Y-52192734D01*
X69594898Y-52447380D01*
X69609421Y-52464477D01*
X69868268Y-52709669D01*
X70152107Y-52925438D01*
X70457611Y-53109254D01*
X70457613Y-53109255D01*
X70457615Y-53109256D01*
X70457619Y-53109258D01*
X70735042Y-53237607D01*
X70781198Y-53258961D01*
X71119075Y-53372805D01*
X71467280Y-53449451D01*
X71821730Y-53488000D01*
X71821736Y-53488000D01*
X72178264Y-53488000D01*
X72178270Y-53488000D01*
X72481197Y-53455054D01*
X72549970Y-53467375D01*
X72601166Y-53514922D01*
X72618528Y-53582600D01*
X72614377Y-53610420D01*
X72571295Y-53771204D01*
X72571294Y-53771211D01*
X72513898Y-54133594D01*
X72496609Y-54463502D01*
X72494696Y-54500000D01*
X72513898Y-54866404D01*
X72571295Y-55228794D01*
X72655088Y-55541514D01*
X72666260Y-55583206D01*
X72797746Y-55925739D01*
X72964320Y-56252656D01*
X73164147Y-56560364D01*
X73164149Y-56560366D01*
X73395051Y-56845506D01*
X73654494Y-57104949D01*
X73654498Y-57104952D01*
X73939635Y-57335852D01*
X74231575Y-57525439D01*
X74247348Y-57535682D01*
X74574264Y-57702255D01*
X74916801Y-57833742D01*
X75271206Y-57928705D01*
X75633596Y-57986102D01*
X75979734Y-58004241D01*
X75999999Y-58005304D01*
X76000000Y-58005304D01*
X76000001Y-58005304D01*
X76019203Y-58004297D01*
X76366404Y-57986102D01*
X76728794Y-57928705D01*
X77083199Y-57833742D01*
X77425736Y-57702255D01*
X77752652Y-57535682D01*
X78060366Y-57335851D01*
X78345506Y-57104949D01*
X78604949Y-56845506D01*
X78835851Y-56560366D01*
X79035682Y-56252652D01*
X79202255Y-55925736D01*
X79333742Y-55583199D01*
X79428705Y-55228794D01*
X79486102Y-54866404D01*
X79505304Y-54500000D01*
X79486102Y-54133596D01*
X79428705Y-53771206D01*
X79333742Y-53416801D01*
X79306520Y-53345885D01*
X79300872Y-53276244D01*
X79333772Y-53214604D01*
X79370213Y-53188910D01*
X79542389Y-53109254D01*
X79847893Y-52925438D01*
X80131732Y-52709669D01*
X80390579Y-52464477D01*
X80621398Y-52192735D01*
X80821484Y-51897631D01*
X80988491Y-51582623D01*
X81120460Y-51251405D01*
X81215844Y-50907861D01*
X81273526Y-50556017D01*
X81292829Y-50200000D01*
X81287066Y-50093718D01*
X81273526Y-49843985D01*
X81273524Y-49843968D01*
X81215846Y-49492151D01*
X81215845Y-49492150D01*
X81215844Y-49492139D01*
X81120460Y-49148595D01*
X80988491Y-48817377D01*
X80912760Y-48674533D01*
X80821488Y-48502376D01*
X80821486Y-48502373D01*
X80821484Y-48502369D01*
X80621398Y-48207265D01*
X80390579Y-47935523D01*
X80131732Y-47690331D01*
X79847893Y-47474562D01*
X79542389Y-47290746D01*
X79542388Y-47290745D01*
X79542384Y-47290743D01*
X79542380Y-47290741D01*
X79218812Y-47141043D01*
X79218807Y-47141041D01*
X79218802Y-47141039D01*
X79054106Y-47085546D01*
X78880924Y-47027194D01*
X78532718Y-46950548D01*
X78178271Y-46912000D01*
X78178270Y-46912000D01*
X77821730Y-46912000D01*
X77821728Y-46912000D01*
X77467281Y-46950548D01*
X77119075Y-47027194D01*
X76857889Y-47115198D01*
X76781198Y-47141039D01*
X76781195Y-47141040D01*
X76781187Y-47141043D01*
X76457619Y-47290741D01*
X76457615Y-47290743D01*
X76152109Y-47474560D01*
X75868263Y-47690335D01*
X75609418Y-47935525D01*
X75609413Y-47935531D01*
X75378601Y-48207265D01*
X75178517Y-48502367D01*
X75178511Y-48502376D01*
X75109555Y-48632442D01*
X75060762Y-48682451D01*
X74992677Y-48698143D01*
X74926917Y-48674533D01*
X74890445Y-48632442D01*
X74821488Y-48502376D01*
X74821486Y-48502373D01*
X74821484Y-48502369D01*
X74621398Y-48207265D01*
X74390579Y-47935523D01*
X74131732Y-47690331D01*
X73847893Y-47474562D01*
X73542389Y-47290746D01*
X73542388Y-47290745D01*
X73542384Y-47290743D01*
X73542380Y-47290741D01*
X73218812Y-47141043D01*
X73218807Y-47141041D01*
X73218802Y-47141039D01*
X73054106Y-47085546D01*
X72880924Y-47027194D01*
X72532718Y-46950548D01*
X72178271Y-46912000D01*
X72178270Y-46912000D01*
X71821730Y-46912000D01*
X71821728Y-46912000D01*
X71467281Y-46950548D01*
X71119075Y-47027194D01*
X70857889Y-47115198D01*
X70781198Y-47141039D01*
X70781195Y-47141040D01*
X70781187Y-47141043D01*
X70457619Y-47290741D01*
X70457615Y-47290743D01*
X70152109Y-47474560D01*
X69868263Y-47690335D01*
X69609418Y-47935525D01*
X69609413Y-47935531D01*
X69378601Y-48207265D01*
X69178517Y-48502367D01*
X69178511Y-48502376D01*
X69109555Y-48632442D01*
X69060762Y-48682451D01*
X68992677Y-48698143D01*
X68926917Y-48674533D01*
X68890445Y-48632442D01*
X68821488Y-48502376D01*
X68821486Y-48502373D01*
X68821484Y-48502369D01*
X68621398Y-48207265D01*
X68390579Y-47935523D01*
X68131732Y-47690331D01*
X67847893Y-47474562D01*
X67542389Y-47290746D01*
X67542388Y-47290745D01*
X67542384Y-47290743D01*
X67542380Y-47290741D01*
X67218812Y-47141043D01*
X67218807Y-47141041D01*
X67218802Y-47141039D01*
X67054106Y-47085546D01*
X66880924Y-47027194D01*
X66532718Y-46950548D01*
X66178271Y-46912000D01*
X66178270Y-46912000D01*
X65821730Y-46912000D01*
X65821728Y-46912000D01*
X65467281Y-46950548D01*
X65119075Y-47027194D01*
X64857889Y-47115198D01*
X64781198Y-47141039D01*
X64781195Y-47141040D01*
X64781187Y-47141043D01*
X64457619Y-47290741D01*
X64457615Y-47290743D01*
X64152109Y-47474560D01*
X63868263Y-47690335D01*
X63609418Y-47935525D01*
X63609413Y-47935531D01*
X63378601Y-48207265D01*
X63178517Y-48502367D01*
X63178511Y-48502376D01*
X63011513Y-48817368D01*
X63011504Y-48817386D01*
X62879538Y-49148598D01*
X62879536Y-49148605D01*
X62784159Y-49492125D01*
X62784153Y-49492151D01*
X62726475Y-49843968D01*
X62726473Y-49843985D01*
X62707171Y-50199997D01*
X62707171Y-50200002D01*
X62726473Y-50556014D01*
X62726475Y-50556031D01*
X62784153Y-50907848D01*
X62784159Y-50907874D01*
X62879536Y-51251394D01*
X62879538Y-51251401D01*
X63011504Y-51582613D01*
X63011513Y-51582631D01*
X63178511Y-51897623D01*
X63178517Y-51897632D01*
X63378601Y-52192734D01*
X63571407Y-52419724D01*
X63599805Y-52483563D01*
X63589181Y-52552620D01*
X63571407Y-52580276D01*
X63378601Y-52807265D01*
X63178517Y-53102367D01*
X63178511Y-53102376D01*
X63011513Y-53417368D01*
X63011504Y-53417386D01*
X62879538Y-53748598D01*
X62879538Y-53748601D01*
X62784159Y-54092125D01*
X62784153Y-54092151D01*
X62726475Y-54443968D01*
X62726473Y-54443985D01*
X62707171Y-54799997D01*
X62707171Y-54800002D01*
X59005500Y-54800002D01*
X59005500Y-47124000D01*
X58991122Y-46830372D01*
X58936809Y-46485110D01*
X58925603Y-46433599D01*
X58901915Y-46333058D01*
X58796375Y-45999865D01*
X58652867Y-45681178D01*
X58473332Y-45381305D01*
X58391501Y-45274952D01*
X58260201Y-45104306D01*
X58214448Y-45051505D01*
X58214443Y-45051499D01*
X57993965Y-44822702D01*
X57949220Y-44785557D01*
X57725047Y-44599461D01*
X57432022Y-44408945D01*
X57118862Y-44253736D01*
X56789811Y-44135936D01*
X56722765Y-44116249D01*
X56569113Y-44075512D01*
X56224928Y-44014823D01*
X56224917Y-44014822D01*
X55876002Y-43994500D01*
X55876000Y-43994500D01*
X38124000Y-43994500D01*
X37993498Y-44000890D01*
X37830367Y-44008878D01*
X37485109Y-44063191D01*
X37485078Y-44063197D01*
X37433611Y-44074393D01*
X37333064Y-44098083D01*
X36999858Y-44203627D01*
X36681195Y-44347124D01*
X36681176Y-44347134D01*
X36381315Y-44526661D01*
X36381299Y-44526672D01*
X36104306Y-44739798D01*
X36051505Y-44785551D01*
X35822701Y-45006035D01*
X35599461Y-45274952D01*
X35408945Y-45567977D01*
X35253736Y-45881137D01*
X35135936Y-46210188D01*
X35116249Y-46277234D01*
X35075512Y-46430886D01*
X35014823Y-46775071D01*
X35014822Y-46775082D01*
X34994500Y-47123998D01*
X34994500Y-60875996D01*
X33500000Y-60875996D01*
X33500000Y-29000000D01*
X42647516Y-29000000D01*
X42667356Y-29372277D01*
X42667359Y-29372304D01*
X42726659Y-29740361D01*
X42726660Y-29740364D01*
X42824750Y-30100049D01*
X42960516Y-30447269D01*
X43132421Y-30778091D01*
X43237295Y-30936183D01*
X43338511Y-31088761D01*
X43338517Y-31088770D01*
X43576455Y-31375765D01*
X43576468Y-31375779D01*
X43843572Y-31635866D01*
X44136805Y-31866084D01*
X44136808Y-31866086D01*
X44136816Y-31866092D01*
X44452868Y-32063844D01*
X44788150Y-32226880D01*
X45138861Y-32353355D01*
X45138866Y-32353356D01*
X45138871Y-32353358D01*
X45501020Y-32441833D01*
X45501022Y-32441833D01*
X45501029Y-32441835D01*
X45870550Y-32491318D01*
X46243238Y-32501243D01*
X46614869Y-32471497D01*
X46981233Y-32402418D01*
X47338179Y-32294788D01*
X47681662Y-32149826D01*
X48007791Y-31969176D01*
X48007792Y-31969174D01*
X48007796Y-31969173D01*
X48117116Y-31892383D01*
X48312870Y-31754884D01*
X48593443Y-31509378D01*
X48846331Y-31235440D01*
X49068669Y-30936173D01*
X49257936Y-30614969D01*
X49411990Y-30275467D01*
X49529084Y-29921513D01*
X49607892Y-29557117D01*
X49647520Y-29186410D01*
X49650000Y-29000000D01*
X88647516Y-29000000D01*
X88667356Y-29372277D01*
X88667359Y-29372304D01*
X88726659Y-29740361D01*
X88726660Y-29740364D01*
X88824750Y-30100049D01*
X88960516Y-30447269D01*
X89132421Y-30778091D01*
X89237295Y-30936183D01*
X89338511Y-31088761D01*
X89338517Y-31088770D01*
X89576455Y-31375765D01*
X89576468Y-31375779D01*
X89843572Y-31635866D01*
X90136805Y-31866084D01*
X90136808Y-31866086D01*
X90136816Y-31866092D01*
X90452868Y-32063844D01*
X90788150Y-32226880D01*
X91138861Y-32353355D01*
X91138866Y-32353356D01*
X91138871Y-32353358D01*
X91501020Y-32441833D01*
X91501022Y-32441833D01*
X91501029Y-32441835D01*
X91870550Y-32491318D01*
X92243238Y-32501243D01*
X92614869Y-32471497D01*
X92981233Y-32402418D01*
X93338179Y-32294788D01*
X93681662Y-32149826D01*
X94007791Y-31969176D01*
X94007792Y-31969174D01*
X94007796Y-31969173D01*
X94117116Y-31892383D01*
X94312870Y-31754884D01*
X94593443Y-31509378D01*
X94846331Y-31235440D01*
X95068669Y-30936173D01*
X95257936Y-30614969D01*
X95411990Y-30275467D01*
X95529084Y-29921513D01*
X95607892Y-29557117D01*
X95647520Y-29186410D01*
X95650000Y-29000000D01*
X133147516Y-29000000D01*
X133167356Y-29372277D01*
X133167359Y-29372304D01*
X133226659Y-29740361D01*
X133226660Y-29740364D01*
X133324750Y-30100049D01*
X133460516Y-30447269D01*
X133632421Y-30778091D01*
X133737295Y-30936183D01*
X133838511Y-31088761D01*
X133838517Y-31088770D01*
X134076455Y-31375765D01*
X134076468Y-31375779D01*
X134343572Y-31635866D01*
X134636805Y-31866084D01*
X134636808Y-31866086D01*
X134636816Y-31866092D01*
X134952868Y-32063844D01*
X135288150Y-32226880D01*
X135638861Y-32353355D01*
X135638866Y-32353356D01*
X135638871Y-32353358D01*
X136001020Y-32441833D01*
X136001022Y-32441833D01*
X136001029Y-32441835D01*
X136370550Y-32491318D01*
X136743238Y-32501243D01*
X137114869Y-32471497D01*
X137481233Y-32402418D01*
X137838179Y-32294788D01*
X138181662Y-32149826D01*
X138507791Y-31969176D01*
X138507792Y-31969174D01*
X138507796Y-31969173D01*
X138617116Y-31892383D01*
X138812870Y-31754884D01*
X139093443Y-31509378D01*
X139346331Y-31235440D01*
X139568669Y-30936173D01*
X139757936Y-30614969D01*
X139911990Y-30275467D01*
X140029084Y-29921513D01*
X140107892Y-29557117D01*
X140147520Y-29186410D01*
X140150000Y-29000000D01*
X140147520Y-28813590D01*
X140107892Y-28442883D01*
X140029084Y-28078487D01*
X139911990Y-27724533D01*
X139757936Y-27385031D01*
X139568669Y-27063827D01*
X139346331Y-26764560D01*
X139093443Y-26490622D01*
X138812870Y-26245116D01*
X138654548Y-26133908D01*
X138507795Y-26030826D01*
X138507796Y-26030826D01*
X138181662Y-25850173D01*
X137838179Y-25705211D01*
X137481239Y-25597583D01*
X137114875Y-25528504D01*
X137114873Y-25528503D01*
X137114869Y-25528503D01*
X136743238Y-25498757D01*
X136743233Y-25498757D01*
X136743232Y-25498757D01*
X136370559Y-25508681D01*
X136370551Y-25508681D01*
X136370550Y-25508682D01*
X136370543Y-25508683D01*
X136001033Y-25558164D01*
X136001020Y-25558166D01*
X135638871Y-25646641D01*
X135288152Y-25773119D01*
X134952869Y-25936155D01*
X134636805Y-26133915D01*
X134343572Y-26364133D01*
X134076468Y-26624220D01*
X134076455Y-26624234D01*
X133838517Y-26911229D01*
X133838511Y-26911238D01*
X133737288Y-27063827D01*
X133632421Y-27221909D01*
X133547660Y-27385028D01*
X133460515Y-27552733D01*
X133324750Y-27899950D01*
X133226660Y-28259635D01*
X133226659Y-28259638D01*
X133167359Y-28627695D01*
X133167356Y-28627722D01*
X133147516Y-28999994D01*
X133147516Y-29000000D01*
X95650000Y-29000000D01*
X95647520Y-28813590D01*
X95607892Y-28442883D01*
X95529084Y-28078487D01*
X95411990Y-27724533D01*
X95257936Y-27385031D01*
X95068669Y-27063827D01*
X94846331Y-26764560D01*
X94593443Y-26490622D01*
X94312870Y-26245116D01*
X94154548Y-26133908D01*
X94007795Y-26030826D01*
X94007796Y-26030826D01*
X93681662Y-25850173D01*
X93338179Y-25705211D01*
X92981239Y-25597583D01*
X92614875Y-25528504D01*
X92614873Y-25528503D01*
X92614869Y-25528503D01*
X92243238Y-25498757D01*
X92243233Y-25498757D01*
X92243232Y-25498757D01*
X91870559Y-25508681D01*
X91870551Y-25508681D01*
X91870550Y-25508682D01*
X91870543Y-25508683D01*
X91501033Y-25558164D01*
X91501020Y-25558166D01*
X91138871Y-25646641D01*
X90788152Y-25773119D01*
X90452869Y-25936155D01*
X90136805Y-26133915D01*
X89843572Y-26364133D01*
X89576468Y-26624220D01*
X89576455Y-26624234D01*
X89338517Y-26911229D01*
X89338511Y-26911238D01*
X89237288Y-27063827D01*
X89132421Y-27221909D01*
X89047660Y-27385028D01*
X88960515Y-27552733D01*
X88824750Y-27899950D01*
X88726660Y-28259635D01*
X88726659Y-28259638D01*
X88667359Y-28627695D01*
X88667356Y-28627722D01*
X88647516Y-28999994D01*
X88647516Y-29000000D01*
X49650000Y-29000000D01*
X49647520Y-28813590D01*
X49607892Y-28442883D01*
X49529084Y-28078487D01*
X49411990Y-27724533D01*
X49257936Y-27385031D01*
X49068669Y-27063827D01*
X48846331Y-26764560D01*
X48593443Y-26490622D01*
X48312870Y-26245116D01*
X48154548Y-26133908D01*
X48007795Y-26030826D01*
X48007796Y-26030826D01*
X47681662Y-25850173D01*
X47338179Y-25705211D01*
X46981239Y-25597583D01*
X46614875Y-25528504D01*
X46614873Y-25528503D01*
X46614869Y-25528503D01*
X46243238Y-25498757D01*
X46243233Y-25498757D01*
X46243232Y-25498757D01*
X45870559Y-25508681D01*
X45870551Y-25508681D01*
X45870550Y-25508682D01*
X45870543Y-25508683D01*
X45501033Y-25558164D01*
X45501020Y-25558166D01*
X45138871Y-25646641D01*
X44788152Y-25773119D01*
X44452869Y-25936155D01*
X44136805Y-26133915D01*
X43843572Y-26364133D01*
X43576468Y-26624220D01*
X43576455Y-26624234D01*
X43338517Y-26911229D01*
X43338511Y-26911238D01*
X43237288Y-27063827D01*
X43132421Y-27221909D01*
X43047660Y-27385028D01*
X42960515Y-27552733D01*
X42824750Y-27899950D01*
X42726660Y-28259635D01*
X42726659Y-28259638D01*
X42667359Y-28627695D01*
X42667356Y-28627722D01*
X42647516Y-28999994D01*
X42647516Y-29000000D01*
X33500000Y-29000000D01*
X33500000Y-18501089D01*
X33500020Y-18498878D01*
X33500020Y-18498877D01*
X33502409Y-18364889D01*
X33503650Y-18349472D01*
X33541948Y-18083099D01*
X33545709Y-18065814D01*
X33621210Y-17808681D01*
X33627391Y-17792112D01*
X33738720Y-17548334D01*
X33747185Y-17532832D01*
X33892084Y-17307364D01*
X33902670Y-17293222D01*
X34078177Y-17090676D01*
X34090676Y-17078177D01*
X34293222Y-16902670D01*
X34307364Y-16892084D01*
X34532832Y-16747185D01*
X34548334Y-16738720D01*
X34792112Y-16627390D01*
X34808681Y-16621210D01*
X35065818Y-16545707D01*
X35083099Y-16541948D01*
X35349472Y-16503650D01*
X35364889Y-16502409D01*
X35498879Y-16500020D01*
X35501090Y-16500000D01*
X150498910Y-16500000D01*
X150501121Y-16500020D01*
G37*
%TD.AperFunction*%
%TD*%
M02*
