M48
; DRILL file {KiCad 8.0.1} date 2024-07-22T16:18:24-0400
; FORMAT={-:-/ absolute / inch / decimal}
; #@! TF.CreationDate,2024-07-22T16:18:24-04:00
; #@! TF.GenerationSoftware,Kicad,Pcbnew,8.0.1
; #@! TF.FileFunction,Plated,1,4,PTH
FMAT,2
INCH
; #@! TA.AperFunction,Plated,PTH,ViaDrill
T1C0.0118
; #@! TA.AperFunction,Plated,PTH,ComponentDrill
T2C0.0260
; #@! TA.AperFunction,Plated,PTH,ComponentDrill
T3C0.0276
; #@! TA.AperFunction,Plated,PTH,ComponentDrill
T4C0.0300
; #@! TA.AperFunction,Plated,PTH,ComponentDrill
T5C0.0315
; #@! TA.AperFunction,Plated,PTH,ComponentDrill
T6C0.0350
; #@! TA.AperFunction,Plated,PTH,ComponentDrill
T7C0.0350
; #@! TA.AperFunction,Plated,PTH,ComponentDrill
T8C0.0374
; #@! TA.AperFunction,Plated,PTH,ComponentDrill
T9C0.0402
; #@! TA.AperFunction,Plated,PTH,ComponentDrill
T10C0.0425
%
G90
G05
T1
X0.7087Y-0.6693
X0.7087Y-0.7677
X0.7087Y-0.8661
X0.7087Y-0.9646
X0.7087Y-1.063
X0.7087Y-1.1614
X0.7087Y-1.2598
X0.7087Y-1.3583
X0.7087Y-1.4567
X0.7087Y-1.5551
X0.7087Y-1.6535
X0.7087Y-1.752
X0.7087Y-1.8504
X0.7087Y-1.9488
X0.7087Y-2.0472
X0.7087Y-2.1457
X0.7087Y-2.2441
X0.7087Y-2.3425
X0.7087Y-2.4409
X0.7087Y-2.5394
X0.7087Y-2.6378
X0.7087Y-2.7362
X0.7087Y-2.8346
X0.7087Y-2.9331
X0.7087Y-3.0315
X0.7087Y-3.1299
X0.7087Y-3.2283
X0.7087Y-3.3268
X0.7087Y-3.4252
X0.815Y-2.0039
X0.8287Y-1.1004
X1.0079Y-1.6732
X1.0157Y-1.7028
X1.0157Y-3.3898
X1.0197Y-1.7323
X1.0236Y-1.2205
X1.0276Y-2.5945
X1.0394Y-2.2992
X1.0531Y-2.5906
X1.0787Y-1.7008
X1.1063Y-1.122
X1.1122Y-1.3189
X1.1122Y-1.3583
X1.1142Y-1.6929
X1.122Y-2.374
X1.122Y-2.7953
X1.122Y-2.8248
X1.126Y-2.4606
X1.1417Y-1.2402
X1.1417Y-1.6929
X1.1457Y-1.0787
X1.1516Y-2.7953
X1.1516Y-2.8248
X1.1614Y-1.2008
X1.1614Y-1.4291
X1.1614Y-2.4606
X1.1732Y-1.6378
X1.185Y-2.0
X1.1969Y-1.6378
X1.2231Y-1.5512
X1.2441Y-2.0906
X1.2598Y-1.9587
X1.2677Y-2.4764
X1.3287Y-1.7677
X1.3858Y-2.1811
X1.437Y-1.8366
X1.4606Y-2.5276
X1.5157Y-2.9213
X1.5276Y-3.2835
X1.5394Y-2.4685
X1.5472Y-2.7677
X1.5827Y-2.8465
X1.5866Y-2.5827
X1.5984Y-1.6063
X1.6181Y-2.1417
X1.6278Y-1.5333
X1.6299Y-2.8071
X1.6772Y-1.9488
X1.6772Y-2.1575
X1.6811Y-2.8071
X1.6929Y-2.5433
X1.6969Y-2.2593
X1.7283Y-2.1457
X1.7402Y-2.8071
X1.748Y-2.4488
X1.7677Y-2.5098
X1.7717Y-2.2126
X1.7717Y-2.6693
X1.7815Y-1.5059
X1.7874Y-2.5295
X1.8031Y-2.7008
X1.8071Y-2.8465
X1.8189Y-2.2992
X1.8209Y-1.7717
X1.8209Y-1.8012
X1.8425Y-2.0118
X1.8504Y-1.252
X1.8661Y-2.1732
X1.874Y-1.2795
X1.874Y-1.4134
X1.878Y-2.6969
X1.9055Y-3.1575
X1.9173Y-2.9094
X1.9291Y-2.2638
X1.9449Y-2.5591
X1.9488Y-2.8346
X1.9783Y-1.9685
X1.9803Y-2.3858
X1.9882Y-1.8898
X1.9882Y-3.1575
X2.0079Y-1.9193
X2.0118Y-2.9488
X2.0118Y-2.9803
X2.0276Y-1.939
X2.0433Y-2.1575
X2.0433Y-2.185
X2.0433Y-2.752
X2.0557Y-2.4288
X2.063Y-2.6378
X2.0866Y-2.682
X2.0948Y-2.4437
X2.0961Y-2.6415
X2.0965Y-1.7028
X2.0965Y-2.3189
X2.0965Y-2.3465
X2.1026Y-2.6021
X2.126Y-1.4567
X2.1264Y-2.4487
X2.1299Y-2.476
X2.1358Y-2.3189
X2.1575Y-2.3386
X2.1693Y-2.9843
X2.1732Y-2.6575
X2.1811Y-2.3583
X2.1811Y-2.5
X2.1863Y-2.7968
X2.1909Y-2.563
X2.2008Y-2.311
X2.2047Y-1.8406
X2.2126Y-1.4961
X2.2126Y-2.5433
X2.2168Y-2.7892
X2.2244Y-2.5827
X2.2441Y-2.6339
X2.2598Y-3.2992
X2.2889Y-2.4621
X2.2992Y-2.1969
X2.3043Y-2.7801
X2.3071Y-2.5787
X2.313Y-2.7362
X2.3307Y-2.0648
X2.3346Y-2.9764
X2.3524Y-2.7067
X2.3622Y-2.0394
X2.3858Y-1.7126
X2.3976Y-2.4685
X2.4016Y-2.5236
X2.4016Y-3.2913
X2.4114Y-1.4961
X2.4173Y-2.1929
X2.4311Y-1.8307
X2.4314Y-2.5256
X2.4488Y-1.4665
X2.4547Y-2.5059
X2.4646Y-2.0039
X2.4705Y-1.9685
X2.4724Y-1.2441
X2.4902Y-1.8406
X2.4921Y-2.0039
X2.5266Y-1.4734
X2.5316Y-2.4093
X2.6575Y-0.6693
X2.6575Y-0.7677
X2.6575Y-0.8661
X2.6575Y-0.9646
X2.6575Y-1.063
X2.6575Y-1.1614
X2.6575Y-1.2598
X2.6575Y-1.3583
X2.6575Y-1.4567
X2.6575Y-1.5551
X2.6575Y-1.6535
X2.6575Y-1.752
X2.6575Y-1.8504
X2.6575Y-1.9488
X2.6575Y-2.0472
X2.6575Y-2.1457
X2.6575Y-2.2441
X2.6575Y-2.3425
X2.6575Y-2.4409
X2.6575Y-2.5394
X2.6575Y-2.6378
X2.6575Y-2.7362
X2.6575Y-2.8346
X2.6575Y-2.9331
X2.6575Y-3.0315
X2.6575Y-3.1299
X2.6575Y-3.2283
X2.6575Y-3.3268
X2.6575Y-3.4252
T2
X2.45Y-2.6272
X2.45Y-2.6772
X2.45Y-2.7272
X2.45Y-2.7772
X2.45Y-2.8272
X2.5Y-2.6272
X2.5Y-2.6772
X2.5Y-2.7272
X2.5Y-2.7772
X2.5Y-2.8272
T3
X1.0433Y-0.9626
X1.0433Y-1.1004
X1.2972Y-2.7913
X1.311Y-1.1516
X1.311Y-1.2894
X1.435Y-2.7913
T4
X0.9157Y-2.8283
X0.9157Y-2.9283
X0.9157Y-3.0283
T5
X1.2516Y-3.3261
X1.3266Y-3.3261
X1.4016Y-3.3261
X1.6689Y-3.3261
X1.7439Y-3.3261
X1.8189Y-3.3261
X2.0996Y-3.3261
X2.1996Y-3.3261
T6
X1.378Y-0.748
X1.378Y-0.9449
T7
X1.9291Y-0.748
X1.9291Y-0.8268
X2.0079Y-0.748
X2.0079Y-0.8268
X2.0866Y-0.748
X2.0866Y-0.8268
X2.1654Y-0.748
X2.1654Y-0.8268
X2.2441Y-0.748
X2.2441Y-0.8268
T8
X0.9157Y-3.2283
X1.0157Y-3.2283
T9
X0.9843Y-0.6988
X0.9843Y-0.7988
X1.9488Y-1.0039
X1.9488Y-1.1039
X2.2244Y-1.0039
X2.2244Y-1.1039
T10
X2.412Y-2.9882
X2.412Y-3.0882
X2.412Y-3.1882
X2.512Y-2.9882
X2.512Y-3.0882
X2.512Y-3.1882
M30
