%TF.GenerationSoftware,KiCad,Pcbnew,8.0.4*%
%TF.CreationDate,2024-10-12T12:23:15-04:00*%
%TF.ProjectId,booster-tc-driver,626f6f73-7465-4722-9d74-632d64726976,rev?*%
%TF.SameCoordinates,Original*%
%TF.FileFunction,Copper,L6,Bot*%
%TF.FilePolarity,Positive*%
%FSLAX46Y46*%
G04 Gerber Fmt 4.6, Leading zero omitted, Abs format (unit mm)*
G04 Created by KiCad (PCBNEW 8.0.4) date 2024-10-12 12:23:15*
%MOMM*%
%LPD*%
G01*
G04 APERTURE LIST*
G04 Aperture macros list*
%AMRoundRect*
0 Rectangle with rounded corners*
0 $1 Rounding radius*
0 $2 $3 $4 $5 $6 $7 $8 $9 X,Y pos of 4 corners*
0 Add a 4 corners polygon primitive as box body*
4,1,4,$2,$3,$4,$5,$6,$7,$8,$9,$2,$3,0*
0 Add four circle primitives for the rounded corners*
1,1,$1+$1,$2,$3*
1,1,$1+$1,$4,$5*
1,1,$1+$1,$6,$7*
1,1,$1+$1,$8,$9*
0 Add four rect primitives between the rounded corners*
20,1,$1+$1,$2,$3,$4,$5,0*
20,1,$1+$1,$4,$5,$6,$7,0*
20,1,$1+$1,$6,$7,$8,$9,0*
20,1,$1+$1,$8,$9,$2,$3,0*%
%AMRotRect*
0 Rectangle, with rotation*
0 The origin of the aperture is its center*
0 $1 length*
0 $2 width*
0 $3 Rotation angle, in degrees counterclockwise*
0 Add horizontal line*
21,1,$1,$2,0,0,$3*%
G04 Aperture macros list end*
%TA.AperFunction,ComponentPad*%
%ADD10C,1.524000*%
%TD*%
%TA.AperFunction,ComponentPad*%
%ADD11C,1.400000*%
%TD*%
%TA.AperFunction,ComponentPad*%
%ADD12C,2.020000*%
%TD*%
%TA.AperFunction,ComponentPad*%
%ADD13R,1.397000X1.397000*%
%TD*%
%TA.AperFunction,ComponentPad*%
%ADD14C,1.397000*%
%TD*%
%TA.AperFunction,ComponentPad*%
%ADD15R,1.100000X1.100000*%
%TD*%
%TA.AperFunction,ComponentPad*%
%ADD16C,1.100000*%
%TD*%
%TA.AperFunction,ComponentPad*%
%ADD17R,1.620000X1.620000*%
%TD*%
%TA.AperFunction,ComponentPad*%
%ADD18C,1.620000*%
%TD*%
%TA.AperFunction,ComponentPad*%
%ADD19R,1.240000X1.240000*%
%TD*%
%TA.AperFunction,ComponentPad*%
%ADD20C,1.240000*%
%TD*%
%TA.AperFunction,SMDPad,CuDef*%
%ADD21R,0.900000X0.950000*%
%TD*%
%TA.AperFunction,SMDPad,CuDef*%
%ADD22R,0.950000X0.900000*%
%TD*%
%TA.AperFunction,SMDPad,CuDef*%
%ADD23RoundRect,0.237500X0.237500X-0.250000X0.237500X0.250000X-0.237500X0.250000X-0.237500X-0.250000X0*%
%TD*%
%TA.AperFunction,SMDPad,CuDef*%
%ADD24R,2.179320X1.620520*%
%TD*%
%TA.AperFunction,SMDPad,CuDef*%
%ADD25RoundRect,0.237500X0.300000X0.237500X-0.300000X0.237500X-0.300000X-0.237500X0.300000X-0.237500X0*%
%TD*%
%TA.AperFunction,SMDPad,CuDef*%
%ADD26RoundRect,0.237500X-0.300000X-0.237500X0.300000X-0.237500X0.300000X0.237500X-0.300000X0.237500X0*%
%TD*%
%TA.AperFunction,SMDPad,CuDef*%
%ADD27RoundRect,0.237500X0.250000X0.237500X-0.250000X0.237500X-0.250000X-0.237500X0.250000X-0.237500X0*%
%TD*%
%TA.AperFunction,SMDPad,CuDef*%
%ADD28RoundRect,0.237500X-0.250000X-0.237500X0.250000X-0.237500X0.250000X0.237500X-0.250000X0.237500X0*%
%TD*%
%TA.AperFunction,SMDPad,CuDef*%
%ADD29RoundRect,0.250000X-0.412500X-0.650000X0.412500X-0.650000X0.412500X0.650000X-0.412500X0.650000X0*%
%TD*%
%TA.AperFunction,SMDPad,CuDef*%
%ADD30RoundRect,0.237500X-0.237500X0.250000X-0.237500X-0.250000X0.237500X-0.250000X0.237500X0.250000X0*%
%TD*%
%TA.AperFunction,SMDPad,CuDef*%
%ADD31RoundRect,0.237500X0.237500X-0.300000X0.237500X0.300000X-0.237500X0.300000X-0.237500X-0.300000X0*%
%TD*%
%TA.AperFunction,SMDPad,CuDef*%
%ADD32RoundRect,0.150000X0.150000X-0.587500X0.150000X0.587500X-0.150000X0.587500X-0.150000X-0.587500X0*%
%TD*%
%TA.AperFunction,SMDPad,CuDef*%
%ADD33RoundRect,0.237500X-0.237500X0.300000X-0.237500X-0.300000X0.237500X-0.300000X0.237500X0.300000X0*%
%TD*%
%TA.AperFunction,SMDPad,CuDef*%
%ADD34R,1.498600X2.489200*%
%TD*%
%TA.AperFunction,SMDPad,CuDef*%
%ADD35RoundRect,0.250000X0.300000X-2.050000X0.300000X2.050000X-0.300000X2.050000X-0.300000X-2.050000X0*%
%TD*%
%TA.AperFunction,SMDPad,CuDef*%
%ADD36RoundRect,0.250000X2.375000X-2.025000X2.375000X2.025000X-2.375000X2.025000X-2.375000X-2.025000X0*%
%TD*%
%TA.AperFunction,SMDPad,CuDef*%
%ADD37RoundRect,0.250002X5.149998X-4.449998X5.149998X4.449998X-5.149998X4.449998X-5.149998X-4.449998X0*%
%TD*%
%TA.AperFunction,SMDPad,CuDef*%
%ADD38R,0.650000X1.528000*%
%TD*%
%TA.AperFunction,SMDPad,CuDef*%
%ADD39RoundRect,0.150000X0.150000X-0.825000X0.150000X0.825000X-0.150000X0.825000X-0.150000X-0.825000X0*%
%TD*%
%TA.AperFunction,HeatsinkPad*%
%ADD40R,3.000000X2.290000*%
%TD*%
%TA.AperFunction,SMDPad,CuDef*%
%ADD41R,1.600000X0.550000*%
%TD*%
%TA.AperFunction,SMDPad,CuDef*%
%ADD42R,0.700000X1.525000*%
%TD*%
%TA.AperFunction,SMDPad,CuDef*%
%ADD43RoundRect,0.249999X-1.425001X0.450001X-1.425001X-0.450001X1.425001X-0.450001X1.425001X0.450001X0*%
%TD*%
%TA.AperFunction,SMDPad,CuDef*%
%ADD44RoundRect,0.250000X-0.450000X-0.800000X0.450000X-0.800000X0.450000X0.800000X-0.450000X0.800000X0*%
%TD*%
%TA.AperFunction,SMDPad,CuDef*%
%ADD45R,0.950000X2.750000*%
%TD*%
%TA.AperFunction,SMDPad,CuDef*%
%ADD46R,3.250000X2.750000*%
%TD*%
%TA.AperFunction,SMDPad,CuDef*%
%ADD47RoundRect,0.250000X-0.800000X0.450000X-0.800000X-0.450000X0.800000X-0.450000X0.800000X0.450000X0*%
%TD*%
%TA.AperFunction,SMDPad,CuDef*%
%ADD48RoundRect,0.150000X0.587500X0.150000X-0.587500X0.150000X-0.587500X-0.150000X0.587500X-0.150000X0*%
%TD*%
%TA.AperFunction,SMDPad,CuDef*%
%ADD49R,0.450000X1.200000*%
%TD*%
%TA.AperFunction,SMDPad,CuDef*%
%ADD50RotRect,0.400000X1.900000X45.000000*%
%TD*%
%TA.AperFunction,SMDPad,CuDef*%
%ADD51R,2.794000X5.156200*%
%TD*%
%TA.AperFunction,SMDPad,CuDef*%
%ADD52RoundRect,0.375000X0.625000X0.375000X-0.625000X0.375000X-0.625000X-0.375000X0.625000X-0.375000X0*%
%TD*%
%TA.AperFunction,SMDPad,CuDef*%
%ADD53RoundRect,0.500000X0.500000X1.400000X-0.500000X1.400000X-0.500000X-1.400000X0.500000X-1.400000X0*%
%TD*%
%TA.AperFunction,ViaPad*%
%ADD54C,0.600000*%
%TD*%
%TA.AperFunction,Conductor*%
%ADD55C,0.200000*%
%TD*%
%TA.AperFunction,Conductor*%
%ADD56C,1.000000*%
%TD*%
%TA.AperFunction,Conductor*%
%ADD57C,0.500000*%
%TD*%
%TA.AperFunction,Conductor*%
%ADD58C,2.000000*%
%TD*%
G04 APERTURE END LIST*
D10*
%TO.P,SW1,1,A*%
%TO.N,GND*%
X23260000Y-71840000D03*
X23260000Y-82000000D03*
X25800000Y-82000000D03*
%TO.P,SW1,2,B*%
%TO.N,Net-(SW1-B)*%
X23260000Y-74380000D03*
%TO.P,SW1,3,C*%
%TO.N,VDD*%
X23260000Y-76920000D03*
%TD*%
D11*
%TO.P,U3,1,GND*%
%TO.N,GND*%
X31790000Y-84482500D03*
%TO.P,U3,2,OUT*%
%TO.N,INT*%
X33695000Y-84482500D03*
%TO.P,U3,3,VCC*%
%TO.N,+5V*%
X35600000Y-84482500D03*
%TD*%
%TO.P,U2,1,K*%
%TO.N,Net-(U2-K)*%
X53330000Y-84482500D03*
%TO.P,U2,2,A*%
%TO.N,+5V*%
X55870000Y-84482500D03*
%TD*%
D12*
%TO.P,J9,1*%
%TO.N,GDT1_B*%
X28960000Y-20500000D03*
%TO.P,J9,2*%
%TO.N,GDT1_A*%
X31500000Y-20500000D03*
%TD*%
D13*
%TO.P,C19,1*%
%TO.N,+24V*%
X50000000Y-27666750D03*
D14*
%TO.P,C19,2*%
%TO.N,GND*%
X50000000Y-32666750D03*
%TD*%
D15*
%TO.P,C37,1*%
%TO.N,VDD*%
X51000000Y-46500000D03*
D16*
%TO.P,C37,2*%
%TO.N,GND*%
X51000000Y-50000000D03*
%TD*%
D12*
%TO.P,J3,1*%
%TO.N,GND*%
X22460000Y-20500000D03*
%TO.P,J3,2*%
%TO.N,+24V*%
X25000000Y-20500000D03*
%TD*%
D15*
%TO.P,C29,1*%
%TO.N,+12V*%
X51000000Y-41500000D03*
D16*
%TO.P,C29,2*%
%TO.N,GND*%
X51000000Y-38000000D03*
%TD*%
D17*
%TO.P,D11,1*%
%TO.N,+5V*%
X63804000Y-80980000D03*
D18*
%TO.P,D11,2*%
%TO.N,Net-(IC1-LED1)*%
X61264000Y-80980000D03*
%TO.P,D11,3*%
%TO.N,+5V*%
X63804000Y-78440000D03*
%TO.P,D11,4*%
%TO.N,Net-(IC1-LED2)*%
X61264000Y-78440000D03*
%TO.P,D11,5*%
%TO.N,+5V*%
X63804000Y-75900000D03*
%TO.P,D11,6*%
%TO.N,Net-(IC1-LED3)*%
X61264000Y-75900000D03*
%TD*%
D11*
%TO.P,U1,1,GND*%
%TO.N,GND*%
X42390000Y-84482500D03*
%TO.P,U1,2,OUT*%
%TO.N,USART_RX*%
X44295000Y-84482500D03*
%TO.P,U1,3,VCC*%
%TO.N,+5V*%
X46200000Y-84482500D03*
%TD*%
D19*
%TO.P,J2,01,01*%
%TO.N,I_L_IN*%
X57000000Y-19500000D03*
D20*
%TO.P,J2,02,02*%
%TO.N,+24V*%
X57000000Y-21500000D03*
%TO.P,J2,03,03*%
%TO.N,GND*%
X55000000Y-19500000D03*
%TO.P,J2,04,04*%
%TO.N,PFC*%
X55000000Y-21500000D03*
%TO.P,J2,05,05*%
%TO.N,GND*%
X53000000Y-19500000D03*
%TO.P,J2,06,06*%
%TO.N,SCR*%
X53000000Y-21500000D03*
%TO.P,J2,07,07*%
%TO.N,GND*%
X51000000Y-19500000D03*
%TO.P,J2,08,08*%
%TO.N,VBUS_IN*%
X51000000Y-21500000D03*
%TO.P,J2,09,09*%
%TO.N,+5V*%
X49000000Y-19500000D03*
%TO.P,J2,10,10*%
%TO.N,VAC_IN*%
X49000000Y-21500000D03*
%TD*%
D12*
%TO.P,J10,1*%
%TO.N,GDT2_B*%
X35235000Y-20500000D03*
%TO.P,J10,2*%
%TO.N,GDT2_A*%
X37775000Y-20500000D03*
%TD*%
D21*
%TO.P,D19,A*%
%TO.N,Net-(U12-G2)*%
X43400000Y-32500000D03*
%TO.P,D19,K*%
%TO.N,+24V*%
X40250000Y-32500000D03*
%TD*%
D22*
%TO.P,D9,A*%
%TO.N,VBUS_SENSE*%
X34250000Y-51825000D03*
%TO.P,D9,K*%
%TO.N,VDD*%
X34250000Y-48675000D03*
%TD*%
D23*
%TO.P,R21,1*%
%TO.N,GND*%
X22750000Y-80412500D03*
%TO.P,R21,2*%
%TO.N,24V_SENSE*%
X22750000Y-78587500D03*
%TD*%
%TO.P,R8,1*%
%TO.N,+5V*%
X37500000Y-84912500D03*
%TO.P,R8,2*%
%TO.N,INT*%
X37500000Y-83087500D03*
%TD*%
D24*
%TO.P,D14,1,K*%
%TO.N,VDD*%
X51250000Y-60139260D03*
%TO.P,D14,2,A*%
%TO.N,GND*%
X51250000Y-64360740D03*
%TD*%
D25*
%TO.P,C36,1*%
%TO.N,+5V*%
X56612500Y-57750000D03*
%TO.P,C36,2*%
%TO.N,GND*%
X54887500Y-57750000D03*
%TD*%
%TO.P,C12,1*%
%TO.N,VAC_SENSE*%
X28612500Y-74250000D03*
%TO.P,C12,2*%
%TO.N,GND*%
X26887500Y-74250000D03*
%TD*%
D26*
%TO.P,C15,1*%
%TO.N,GND*%
X45387500Y-26250000D03*
%TO.P,C15,2*%
%TO.N,VDD*%
X47112500Y-26250000D03*
%TD*%
D27*
%TO.P,R16,1*%
%TO.N,THERM1*%
X40912500Y-74250000D03*
%TO.P,R16,2*%
%TO.N,VREF*%
X39087500Y-74250000D03*
%TD*%
D26*
%TO.P,C9,1*%
%TO.N,GND*%
X23637500Y-70250000D03*
%TO.P,C9,2*%
%TO.N,VREF*%
X25362500Y-70250000D03*
%TD*%
D28*
%TO.P,R15,1*%
%TO.N,VREF*%
X39087500Y-72500000D03*
%TO.P,R15,2*%
%TO.N,THERM2*%
X40912500Y-72500000D03*
%TD*%
D29*
%TO.P,C55,1*%
%TO.N,Net-(IC4-OUT_B)*%
X22187500Y-37000000D03*
%TO.P,C55,2*%
%TO.N,Net-(U11-G2)*%
X25312500Y-37000000D03*
%TD*%
D21*
%TO.P,D17,A*%
%TO.N,Net-(U10-G2)*%
X31325000Y-32500000D03*
%TO.P,D17,K*%
%TO.N,+24V*%
X28175000Y-32500000D03*
%TD*%
D30*
%TO.P,R11,1*%
%TO.N,VBUS_IN*%
X37250000Y-53837500D03*
%TO.P,R11,2*%
%TO.N,VBUS_SENSE*%
X37250000Y-55662500D03*
%TD*%
D25*
%TO.P,C25,1*%
%TO.N,+24V*%
X24612500Y-18000000D03*
%TO.P,C25,2*%
%TO.N,GND*%
X22887500Y-18000000D03*
%TD*%
D30*
%TO.P,R2,1*%
%TO.N,USART_TX*%
X64250000Y-83587500D03*
%TO.P,R2,2*%
%TO.N,GND*%
X64250000Y-85412500D03*
%TD*%
D26*
%TO.P,C34,1*%
%TO.N,+5V*%
X51387500Y-57750000D03*
%TO.P,C34,2*%
%TO.N,GND*%
X53112500Y-57750000D03*
%TD*%
D21*
%TO.P,D8,A*%
%TO.N,VAC_SENSE*%
X28575000Y-76250000D03*
%TO.P,D8,K*%
%TO.N,VDD*%
X25425000Y-76250000D03*
%TD*%
D25*
%TO.P,C43,1*%
%TO.N,VFAN_OUT*%
X40862500Y-66750000D03*
%TO.P,C43,2*%
%TO.N,GND*%
X39137500Y-66750000D03*
%TD*%
D28*
%TO.P,R25,1*%
%TO.N,+24V*%
X22662500Y-34750000D03*
%TO.P,R25,2*%
%TO.N,Net-(U11-G2)*%
X24487500Y-34750000D03*
%TD*%
D21*
%TO.P,D1,A*%
%TO.N,I_L*%
X33675000Y-58000000D03*
%TO.P,D1,K*%
%TO.N,VDD*%
X36825000Y-58000000D03*
%TD*%
D30*
%TO.P,R10,1*%
%TO.N,VREF*%
X25250000Y-72337500D03*
%TO.P,R10,2*%
%TO.N,VAC_SENSE*%
X25250000Y-74162500D03*
%TD*%
D25*
%TO.P,C51,1*%
%TO.N,VFAN_OUT*%
X40862500Y-70250000D03*
%TO.P,C51,2*%
%TO.N,GND*%
X39137500Y-70250000D03*
%TD*%
D31*
%TO.P,C20,1*%
%TO.N,+12V*%
X52750000Y-38362500D03*
%TO.P,C20,2*%
%TO.N,GND*%
X52750000Y-36637500D03*
%TD*%
D32*
%TO.P,U6,1,V_{DD}*%
%TO.N,VDD*%
X46700000Y-30250000D03*
%TO.P,U6,2,V_{OUT}*%
%TO.N,Net-(U6-V_{OUT})*%
X44800000Y-30250000D03*
%TO.P,U6,3,GND*%
%TO.N,GND*%
X45750000Y-28375000D03*
%TD*%
D33*
%TO.P,C26,1*%
%TO.N,VDD*%
X37500000Y-66887500D03*
%TO.P,C26,2*%
%TO.N,GND*%
X37500000Y-68612500D03*
%TD*%
%TO.P,C11,1*%
%TO.N,VBUS_SENSE*%
X35000000Y-69250000D03*
%TO.P,C11,2*%
%TO.N,GND*%
X35000000Y-70975000D03*
%TD*%
D23*
%TO.P,R4,1*%
%TO.N,+5V*%
X40500000Y-84912500D03*
%TO.P,R4,2*%
%TO.N,USART_RX*%
X40500000Y-83087500D03*
%TD*%
D31*
%TO.P,C31,1*%
%TO.N,GND*%
X39500000Y-50862500D03*
%TO.P,C31,2*%
%TO.N,Net-(C31-Pad2)*%
X39500000Y-49137500D03*
%TD*%
D26*
%TO.P,C18,1*%
%TO.N,VDD*%
X28887500Y-68750000D03*
%TO.P,C18,2*%
%TO.N,GND*%
X30612500Y-68750000D03*
%TD*%
D22*
%TO.P,D15,A*%
%TO.N,24V_SENSE*%
X21500000Y-70575000D03*
%TO.P,D15,K*%
%TO.N,VDD*%
X21500000Y-67425000D03*
%TD*%
D23*
%TO.P,R20,1*%
%TO.N,+24V*%
X21000000Y-80412500D03*
%TO.P,R20,2*%
%TO.N,24V_SENSE*%
X21000000Y-78587500D03*
%TD*%
D34*
%TO.P,L4,1,1*%
%TO.N,CT-*%
X27750000Y-48000000D03*
%TO.P,L4,2,2*%
%TO.N,CT+*%
X30750000Y-48000000D03*
%TO.P,L4,3,3*%
%TO.N,Net-(J4-Pad2)*%
X30750000Y-54502400D03*
%TO.P,L4,4,4*%
%TO.N,Net-(J4-Pad1)*%
X27750000Y-54502400D03*
%TD*%
D35*
%TO.P,U7,1,VIN*%
%TO.N,+24V*%
X62650000Y-36525000D03*
%TO.P,U7,2,VOUT*%
%TO.N,Net-(D12-K)*%
X60950000Y-36525000D03*
%TO.P,U7,3,GND*%
%TO.N,GND*%
X59250000Y-36525000D03*
D36*
X56475000Y-29800000D03*
X62025000Y-29800000D03*
D37*
X59250000Y-27375000D03*
D36*
X56475000Y-24950000D03*
X62025000Y-24950000D03*
D35*
%TO.P,U7,4,FB*%
%TO.N,+12V*%
X57550000Y-36525000D03*
%TO.P,U7,5,SD*%
%TO.N,GND*%
X55850000Y-36525000D03*
%TD*%
D22*
%TO.P,D2,A*%
%TO.N,CT-*%
X21750000Y-53925000D03*
%TO.P,D2,K*%
%TO.N,Net-(C2-Pad1)*%
X21750000Y-57075000D03*
%TD*%
D31*
%TO.P,C5,1*%
%TO.N,CT+*%
X30250000Y-45362500D03*
%TO.P,C5,2*%
%TO.N,GND*%
X30250000Y-43637500D03*
%TD*%
D33*
%TO.P,C46,1*%
%TO.N,VDDA*%
X30500000Y-70387500D03*
%TO.P,C46,2*%
%TO.N,GND*%
X30500000Y-72112500D03*
%TD*%
D38*
%TO.P,IC4,1,ENA*%
%TO.N,GDT1_DIS*%
X25250000Y-46172000D03*
%TO.P,IC4,2,INA*%
%TO.N,GDT_A*%
X23980000Y-46172000D03*
%TO.P,IC4,3,GND*%
%TO.N,GND*%
X22710000Y-46172000D03*
%TO.P,IC4,4,INB*%
%TO.N,GDT_B*%
X21440000Y-46172000D03*
%TO.P,IC4,5,OUT_B*%
%TO.N,Net-(IC4-OUT_B)*%
X21440000Y-40750000D03*
%TO.P,IC4,6,VDD*%
%TO.N,+12V*%
X22710000Y-40750000D03*
%TO.P,IC4,7,OUT_A*%
%TO.N,Net-(IC4-OUT_A)*%
X23980000Y-40750000D03*
%TO.P,IC4,8,ENB*%
%TO.N,GDT1_DIS*%
X25250000Y-40750000D03*
%TD*%
D31*
%TO.P,C39,1*%
%TO.N,VDD*%
X49500000Y-57612500D03*
%TO.P,C39,2*%
%TO.N,GND*%
X49500000Y-55887500D03*
%TD*%
D39*
%TO.P,U9,1,LX*%
%TO.N,Net-(D16-K)*%
X45250000Y-53905000D03*
%TO.P,U9,2,BST*%
%TO.N,Net-(U9-BST)*%
X43980000Y-53905000D03*
%TO.P,U9,3,GND*%
%TO.N,GND*%
X42710000Y-53905000D03*
%TO.P,U9,4,FSW*%
%TO.N,Net-(U9-FSW)*%
X41440000Y-53905000D03*
%TO.P,U9,5,COMP*%
%TO.N,Net-(U9-COMP)*%
X41440000Y-48955000D03*
%TO.P,U9,6,FB*%
%TO.N,Net-(U9-FB)*%
X42710000Y-48955000D03*
%TO.P,U9,7,SS*%
%TO.N,Net-(U9-SS)*%
X43980000Y-48955000D03*
%TO.P,U9,8,EN*%
%TO.N,FAN_EN*%
X45250000Y-48955000D03*
D40*
%TO.P,U9,9,VIN*%
%TO.N,+24V*%
X43345000Y-51430000D03*
%TD*%
D31*
%TO.P,C41,1*%
%TO.N,24V_SENSE*%
X21000000Y-76612500D03*
%TO.P,C41,2*%
%TO.N,GND*%
X21000000Y-74887500D03*
%TD*%
D41*
%TO.P,L2,1,1*%
%TO.N,VDD*%
X32750000Y-66300000D03*
%TO.P,L2,2,2*%
%TO.N,VDDA*%
X32750000Y-67750000D03*
%TD*%
D30*
%TO.P,R5,1*%
%TO.N,Net-(SW1-B)*%
X24500000Y-78587500D03*
%TO.P,R5,2*%
%TO.N,MODE_IN*%
X24500000Y-80412500D03*
%TD*%
D21*
%TO.P,D20,A*%
%TO.N,Net-(U13-G2)*%
X37325000Y-32500000D03*
%TO.P,D20,K*%
%TO.N,+24V*%
X34175000Y-32500000D03*
%TD*%
D31*
%TO.P,C38,1*%
%TO.N,VDD*%
X64250000Y-63362500D03*
%TO.P,C38,2*%
%TO.N,GND*%
X64250000Y-61637500D03*
%TD*%
D22*
%TO.P,D7,A*%
%TO.N,GND*%
X28250000Y-81825000D03*
%TO.P,D7,K*%
%TO.N,VAC_SENSE*%
X28250000Y-78675000D03*
%TD*%
D31*
%TO.P,C40,1*%
%TO.N,Net-(U9-FB)*%
X47250000Y-46612500D03*
%TO.P,C40,2*%
%TO.N,GND*%
X47250000Y-44887500D03*
%TD*%
D33*
%TO.P,C14,1*%
%TO.N,VDDA*%
X27000000Y-70137500D03*
%TO.P,C14,2*%
%TO.N,GND*%
X27000000Y-71862500D03*
%TD*%
D30*
%TO.P,R12,1*%
%TO.N,GND*%
X64250000Y-72087500D03*
%TO.P,R12,2*%
%TO.N,Net-(IC1-RSET3)*%
X64250000Y-73912500D03*
%TD*%
D38*
%TO.P,IC5,1,ENA*%
%TO.N,GDT2_DIS*%
X37310000Y-46172000D03*
%TO.P,IC5,2,INA*%
%TO.N,GDT_A*%
X36040000Y-46172000D03*
%TO.P,IC5,3,GND*%
%TO.N,GND*%
X34770000Y-46172000D03*
%TO.P,IC5,4,INB*%
%TO.N,GDT_B*%
X33500000Y-46172000D03*
%TO.P,IC5,5,OUT_B*%
%TO.N,Net-(IC5-OUT_B)*%
X33500000Y-40750000D03*
%TO.P,IC5,6,VDD*%
%TO.N,+12V*%
X34770000Y-40750000D03*
%TO.P,IC5,7,OUT_A*%
%TO.N,Net-(IC5-OUT_A)*%
X36040000Y-40750000D03*
%TO.P,IC5,8,ENB*%
%TO.N,GDT2_DIS*%
X37310000Y-40750000D03*
%TD*%
D33*
%TO.P,C44,1*%
%TO.N,VDDA*%
X28750000Y-70387500D03*
%TO.P,C44,2*%
%TO.N,GND*%
X28750000Y-72112500D03*
%TD*%
D25*
%TO.P,C50,1*%
%TO.N,GND*%
X44612500Y-68500000D03*
%TO.P,C50,2*%
%TO.N,VFAN_OUT*%
X42887500Y-68500000D03*
%TD*%
D42*
%TO.P,IC1,1,PGND*%
%TO.N,GND*%
X53610000Y-67576000D03*
%TO.P,IC1,2,GND*%
X54880000Y-67576000D03*
%TO.P,IC1,3,PWM3*%
%TO.N,LED_VBUS*%
X56150000Y-67576000D03*
%TO.P,IC1,4,PWM2*%
%TO.N,LED_TMP*%
X57420000Y-67576000D03*
%TO.P,IC1,5,PWM1*%
%TO.N,LED_I_IN*%
X58690000Y-67576000D03*
%TO.P,IC1,6,RSET3*%
%TO.N,Net-(IC1-RSET3)*%
X59960000Y-67576000D03*
%TO.P,IC1,7,RSET2*%
%TO.N,Net-(IC1-RSET2)*%
X61230000Y-67576000D03*
%TO.P,IC1,8,RSET1*%
%TO.N,Net-(IC1-RSET1)*%
X62500000Y-67576000D03*
%TO.P,IC1,9,LED3*%
%TO.N,Net-(IC1-LED3)*%
X62500000Y-73000000D03*
%TO.P,IC1,10,LED2*%
%TO.N,Net-(IC1-LED2)*%
X61230000Y-73000000D03*
%TO.P,IC1,11,LED1*%
%TO.N,Net-(IC1-LED1)*%
X59960000Y-73000000D03*
%TO.P,IC1,12,NC_1*%
%TO.N,unconnected-(IC1-NC_1-Pad12)*%
X58690000Y-73000000D03*
%TO.P,IC1,13,NC_2*%
%TO.N,unconnected-(IC1-NC_2-Pad13)*%
X57420000Y-73000000D03*
%TO.P,IC1,14,NC_3*%
%TO.N,unconnected-(IC1-NC_3-Pad14)*%
X56150000Y-73000000D03*
%TO.P,IC1,15,OE*%
%TO.N,VDD*%
X54880000Y-73000000D03*
%TO.P,IC1,16,VDD*%
X53610000Y-73000000D03*
%TD*%
D33*
%TO.P,C35,1*%
%TO.N,+5V*%
X51250000Y-54137500D03*
%TO.P,C35,2*%
%TO.N,GND*%
X51250000Y-55862500D03*
%TD*%
D22*
%TO.P,D5,A*%
%TO.N,GND*%
X24250000Y-48675000D03*
%TO.P,D5,K*%
%TO.N,CT+*%
X24250000Y-51825000D03*
%TD*%
D43*
%TO.P,R6,1*%
%TO.N,Net-(C2-Pad1)*%
X22500000Y-59200000D03*
%TO.P,R6,2*%
%TO.N,GND*%
X22500000Y-65300000D03*
%TD*%
D26*
%TO.P,C47,1*%
%TO.N,VFAN_OUT*%
X42887500Y-66750000D03*
%TO.P,C47,2*%
%TO.N,GND*%
X44612500Y-66750000D03*
%TD*%
D25*
%TO.P,C45,1*%
%TO.N,VFAN_OUT*%
X40862500Y-68500000D03*
%TO.P,C45,2*%
%TO.N,GND*%
X39137500Y-68500000D03*
%TD*%
%TO.P,C4,1*%
%TO.N,+5V*%
X34612500Y-86250000D03*
%TO.P,C4,2*%
%TO.N,GND*%
X32887500Y-86250000D03*
%TD*%
D29*
%TO.P,C57,1*%
%TO.N,Net-(IC5-OUT_B)*%
X34187500Y-37000000D03*
%TO.P,C57,2*%
%TO.N,Net-(U13-G2)*%
X37312500Y-37000000D03*
%TD*%
D44*
%TO.P,D16,1,K*%
%TO.N,Net-(D16-K)*%
X46800000Y-67750000D03*
%TO.P,D16,2,A*%
%TO.N,GND*%
X51200000Y-67750000D03*
%TD*%
D30*
%TO.P,R7,1*%
%TO.N,Net-(C2-Pad1)*%
X28250000Y-57337500D03*
%TO.P,R7,2*%
%TO.N,I_PRI*%
X28250000Y-59162500D03*
%TD*%
D26*
%TO.P,C48,1*%
%TO.N,VFAN_OUT*%
X42887500Y-70250000D03*
%TO.P,C48,2*%
%TO.N,GND*%
X44612500Y-70250000D03*
%TD*%
D30*
%TO.P,R3,1*%
%TO.N,Net-(U2-K)*%
X58250000Y-83587500D03*
%TO.P,R3,2*%
%TO.N,Net-(Q1-D)*%
X58250000Y-85412500D03*
%TD*%
D23*
%TO.P,R19,1*%
%TO.N,Net-(C31-Pad2)*%
X39500000Y-47412500D03*
%TO.P,R19,2*%
%TO.N,Net-(U9-COMP)*%
X39500000Y-45587500D03*
%TD*%
D45*
%TO.P,IC2,1,GND*%
%TO.N,GND*%
X58950000Y-51800000D03*
%TO.P,IC2,2,VOUT_1*%
%TO.N,+5V*%
X61250000Y-51800000D03*
%TO.P,IC2,3,VIN*%
%TO.N,+12V*%
X63550000Y-51800000D03*
D46*
%TO.P,IC2,4,VOUT_2*%
%TO.N,+5V*%
X61250000Y-57000000D03*
%TD*%
D47*
%TO.P,D12,1,K*%
%TO.N,Net-(D12-K)*%
X63500000Y-40800000D03*
%TO.P,D12,2,A*%
%TO.N,GND*%
X63500000Y-45200000D03*
%TD*%
D48*
%TO.P,Q1,1,G*%
%TO.N,USART_TX*%
X62187500Y-83600000D03*
%TO.P,Q1,2,S*%
%TO.N,GND*%
X62187500Y-85500000D03*
%TO.P,Q1,3,D*%
%TO.N,Net-(Q1-D)*%
X60312500Y-84550000D03*
%TD*%
D28*
%TO.P,R26,1*%
%TO.N,+24V*%
X40587500Y-34750000D03*
%TO.P,R26,2*%
%TO.N,Net-(U12-G2)*%
X42412500Y-34750000D03*
%TD*%
D33*
%TO.P,C53,1*%
%TO.N,+12V*%
X31750000Y-42637500D03*
%TO.P,C53,2*%
%TO.N,GND*%
X31750000Y-44362500D03*
%TD*%
D31*
%TO.P,C30,1*%
%TO.N,GND*%
X49000000Y-54112500D03*
%TO.P,C30,2*%
%TO.N,+24V*%
X49000000Y-52387500D03*
%TD*%
D28*
%TO.P,R24,1*%
%TO.N,+24V*%
X28587500Y-34750000D03*
%TO.P,R24,2*%
%TO.N,Net-(U10-G2)*%
X30412500Y-34750000D03*
%TD*%
D31*
%TO.P,C49,1*%
%TO.N,VFAN_OUT*%
X49000000Y-50362500D03*
%TO.P,C49,2*%
%TO.N,GND*%
X49000000Y-48637500D03*
%TD*%
D33*
%TO.P,C6,1*%
%TO.N,MODE_IN*%
X26250000Y-78637500D03*
%TO.P,C6,2*%
%TO.N,GND*%
X26250000Y-80362500D03*
%TD*%
D30*
%TO.P,R14,1*%
%TO.N,GND*%
X64250000Y-65087500D03*
%TO.P,R14,2*%
%TO.N,Net-(IC1-RSET1)*%
X64250000Y-66912500D03*
%TD*%
D25*
%TO.P,C17,1*%
%TO.N,GND*%
X44612500Y-74250000D03*
%TO.P,C17,2*%
%TO.N,THERM1*%
X42887500Y-74250000D03*
%TD*%
D22*
%TO.P,D3,A*%
%TO.N,GND*%
X21750000Y-48675000D03*
%TO.P,D3,K*%
%TO.N,CT-*%
X21750000Y-51825000D03*
%TD*%
D49*
%TO.P,IC3,1,W*%
%TO.N,GND*%
X41512500Y-42250000D03*
%TO.P,IC3,2,VDD*%
%TO.N,+5V*%
X42162500Y-42250000D03*
%TO.P,IC3,3,GND*%
%TO.N,GND*%
X42812500Y-42250000D03*
%TO.P,IC3,4,CLK*%
%TO.N,SPI_CLK*%
X43462500Y-42250000D03*
%TO.P,IC3,5,SDI*%
%TO.N,SPI_MOSI*%
X43462500Y-44750000D03*
%TO.P,IC3,6,~{CS}*%
%TO.N,CS_FAN*%
X42812500Y-44750000D03*
%TO.P,IC3,7,B*%
%TO.N,GND*%
X42162500Y-44750000D03*
%TO.P,IC3,8,A*%
%TO.N,Net-(IC3-A)*%
X41512500Y-44750000D03*
%TD*%
D24*
%TO.P,D13,1,K*%
%TO.N,+5V*%
X54750000Y-55360740D03*
%TO.P,D13,2,A*%
%TO.N,GND*%
X54750000Y-51139260D03*
%TD*%
D31*
%TO.P,C8,1*%
%TO.N,I_PRI*%
X26500000Y-59112500D03*
%TO.P,C8,2*%
%TO.N,GND*%
X26500000Y-57387500D03*
%TD*%
D22*
%TO.P,D6,A*%
%TO.N,I_PRI*%
X25750000Y-62925000D03*
%TO.P,D6,K*%
%TO.N,VDD*%
X25750000Y-66075000D03*
%TD*%
D50*
%TO.P,U4,1,INPUT*%
%TO.N,Net-(U4-INPUT)*%
X29701992Y-64399049D03*
%TO.P,U4,2,GND*%
%TO.N,GND*%
X30550520Y-63550520D03*
%TO.P,U4,3,OUTPUT*%
%TO.N,Net-(U4-OUTPUT)*%
X31399049Y-62701992D03*
%TD*%
D25*
%TO.P,C24,1*%
%TO.N,THERM_BOARD*%
X47112500Y-34000000D03*
%TO.P,C24,2*%
%TO.N,GND*%
X45387500Y-34000000D03*
%TD*%
D29*
%TO.P,C54,1*%
%TO.N,Net-(IC4-OUT_A)*%
X28187500Y-37000000D03*
%TO.P,C54,2*%
%TO.N,Net-(U10-G2)*%
X31312500Y-37000000D03*
%TD*%
D28*
%TO.P,R17,1*%
%TO.N,Net-(U6-V_{OUT})*%
X45337500Y-32250000D03*
%TO.P,R17,2*%
%TO.N,THERM_BOARD*%
X47162500Y-32250000D03*
%TD*%
D22*
%TO.P,D4,A*%
%TO.N,CT+*%
X24250000Y-53925000D03*
%TO.P,D4,K*%
%TO.N,Net-(C2-Pad1)*%
X24250000Y-57075000D03*
%TD*%
D31*
%TO.P,C7,1*%
%TO.N,CT-*%
X28500000Y-45362500D03*
%TO.P,C7,2*%
%TO.N,GND*%
X28500000Y-43637500D03*
%TD*%
%TO.P,C28,1*%
%TO.N,+12V*%
X63500000Y-48862500D03*
%TO.P,C28,2*%
%TO.N,GND*%
X63500000Y-47137500D03*
%TD*%
%TO.P,C27,1*%
%TO.N,GND*%
X52750000Y-31112500D03*
%TO.P,C27,2*%
%TO.N,+24V*%
X52750000Y-29387500D03*
%TD*%
D21*
%TO.P,D18,A*%
%TO.N,Net-(U11-G2)*%
X25325000Y-32500000D03*
%TO.P,D18,K*%
%TO.N,+24V*%
X22175000Y-32500000D03*
%TD*%
D28*
%TO.P,R27,1*%
%TO.N,+24V*%
X34587500Y-34750000D03*
%TO.P,R27,2*%
%TO.N,Net-(U13-G2)*%
X36412500Y-34750000D03*
%TD*%
D31*
%TO.P,C22,1*%
%TO.N,+24V*%
X52750000Y-27612500D03*
%TO.P,C22,2*%
%TO.N,GND*%
X52750000Y-25887500D03*
%TD*%
D30*
%TO.P,R18,1*%
%TO.N,GND*%
X39500000Y-52587500D03*
%TO.P,R18,2*%
%TO.N,Net-(U9-FSW)*%
X39500000Y-54412500D03*
%TD*%
%TO.P,R13,1*%
%TO.N,GND*%
X64250000Y-68587500D03*
%TO.P,R13,2*%
%TO.N,Net-(IC1-RSET2)*%
X64250000Y-70412500D03*
%TD*%
D28*
%TO.P,R22,1*%
%TO.N,Net-(IC3-A)*%
X41500000Y-46750000D03*
%TO.P,R22,2*%
%TO.N,Net-(U9-FB)*%
X43325000Y-46750000D03*
%TD*%
D33*
%TO.P,C3,1*%
%TO.N,I_L*%
X33250000Y-70637500D03*
%TO.P,C3,2*%
%TO.N,GND*%
X33250000Y-72362500D03*
%TD*%
D23*
%TO.P,R23,1*%
%TO.N,VFAN_OUT*%
X47250000Y-50412500D03*
%TO.P,R23,2*%
%TO.N,Net-(U9-FB)*%
X47250000Y-48587500D03*
%TD*%
D28*
%TO.P,R9,1*%
%TO.N,VAC_SENSE*%
X30837500Y-74000000D03*
%TO.P,R9,2*%
%TO.N,VAC_IN*%
X32662500Y-74000000D03*
%TD*%
D26*
%TO.P,C10,1*%
%TO.N,GND*%
X23637500Y-68500000D03*
%TO.P,C10,2*%
%TO.N,VREF*%
X25362500Y-68500000D03*
%TD*%
D29*
%TO.P,C56,1*%
%TO.N,Net-(IC5-OUT_A)*%
X40187500Y-37000000D03*
%TO.P,C56,2*%
%TO.N,Net-(U12-G2)*%
X43312500Y-37000000D03*
%TD*%
D33*
%TO.P,C23,1*%
%TO.N,+12V*%
X52750000Y-33000000D03*
%TO.P,C23,2*%
%TO.N,GND*%
X52750000Y-34725000D03*
%TD*%
D31*
%TO.P,C21,1*%
%TO.N,VDD*%
X31750000Y-59112500D03*
%TO.P,C21,2*%
%TO.N,GND*%
X31750000Y-57387500D03*
%TD*%
D25*
%TO.P,C1,1*%
%TO.N,+5V*%
X45112500Y-86250000D03*
%TO.P,C1,2*%
%TO.N,GND*%
X43387500Y-86250000D03*
%TD*%
D31*
%TO.P,C32,1*%
%TO.N,Net-(U9-SS)*%
X45250000Y-46612500D03*
%TO.P,C32,2*%
%TO.N,GND*%
X45250000Y-44887500D03*
%TD*%
%TO.P,C2,1*%
%TO.N,Net-(C2-Pad1)*%
X30000000Y-59112500D03*
%TO.P,C2,2*%
%TO.N,GND*%
X30000000Y-57387500D03*
%TD*%
D26*
%TO.P,C16,1*%
%TO.N,THERM2*%
X42887500Y-72500000D03*
%TO.P,C16,2*%
%TO.N,GND*%
X44612500Y-72500000D03*
%TD*%
%TO.P,C33,1*%
%TO.N,+5V*%
X41550000Y-40250000D03*
%TO.P,C33,2*%
%TO.N,GND*%
X43275000Y-40250000D03*
%TD*%
D33*
%TO.P,C52,1*%
%TO.N,+12V*%
X27000000Y-42637500D03*
%TO.P,C52,2*%
%TO.N,GND*%
X27000000Y-44362500D03*
%TD*%
D31*
%TO.P,C42,1*%
%TO.N,Net-(U9-BST)*%
X47250000Y-54112500D03*
%TO.P,C42,2*%
%TO.N,Net-(D16-K)*%
X47250000Y-52387500D03*
%TD*%
D51*
%TO.P,L1,1,1*%
%TO.N,Net-(D12-K)*%
X60052000Y-44500000D03*
%TO.P,L1,2,2*%
%TO.N,+12V*%
X53448000Y-44500000D03*
%TD*%
%TO.P,L3,1,1*%
%TO.N,Net-(D16-K)*%
X46552000Y-60500000D03*
%TO.P,L3,2,2*%
%TO.N,VFAN_OUT*%
X39948000Y-60500000D03*
%TD*%
D22*
%TO.P,D10,A*%
%TO.N,GND*%
X36750000Y-48675000D03*
%TO.P,D10,K*%
%TO.N,VBUS_SENSE*%
X36750000Y-51825000D03*
%TD*%
D52*
%TO.P,U8,1,IN*%
%TO.N,+5V*%
X61650000Y-60200000D03*
%TO.P,U8,2,GND*%
%TO.N,GND*%
X61650000Y-62500000D03*
D53*
X55350000Y-62500000D03*
D52*
%TO.P,U8,3,OUT*%
%TO.N,VDD*%
X61650000Y-64800000D03*
%TD*%
D27*
%TO.P,R1,1*%
%TO.N,I_L*%
X35412500Y-55750000D03*
%TO.P,R1,2*%
%TO.N,I_L_IN*%
X33587500Y-55750000D03*
%TD*%
D54*
%TO.N,GND*%
X45500000Y-35000000D03*
X67500000Y-64500000D03*
X18000000Y-17000000D03*
X67500000Y-67000000D03*
X42250000Y-55500000D03*
X67500000Y-84500000D03*
X67500000Y-44500000D03*
X56500000Y-51250000D03*
X39250000Y-65750000D03*
X18000000Y-29500000D03*
X45500000Y-27250000D03*
X18000000Y-27000000D03*
X67500000Y-27000000D03*
X18000000Y-69500000D03*
X67500000Y-59500000D03*
X18000000Y-67000000D03*
X67500000Y-17000000D03*
X67500000Y-74500000D03*
X67500000Y-22000000D03*
X67500000Y-19500000D03*
X43000000Y-55500000D03*
X43750000Y-73500000D03*
X57500000Y-62500000D03*
X48000000Y-49500000D03*
X39750000Y-51750000D03*
X18000000Y-32000000D03*
X34250000Y-70250000D03*
X18000000Y-74500000D03*
X67500000Y-37000000D03*
X67500000Y-24500000D03*
X27750000Y-38750000D03*
X67500000Y-32000000D03*
X46250000Y-45000000D03*
X42500000Y-40250000D03*
X18000000Y-59500000D03*
X44750000Y-29000000D03*
X45500000Y-66500000D03*
X29500000Y-62500000D03*
X18000000Y-52000000D03*
X40750000Y-42000000D03*
X18000000Y-57000000D03*
X18000000Y-84500000D03*
X44750000Y-27750000D03*
X18000000Y-24500000D03*
X50500000Y-56000000D03*
X67500000Y-87000000D03*
X67500000Y-47000000D03*
X18000000Y-54500000D03*
X18000000Y-22000000D03*
X18000000Y-87000000D03*
X24750000Y-59500000D03*
X18000000Y-19500000D03*
X67500000Y-57000000D03*
X28250000Y-66000000D03*
X18000000Y-72000000D03*
X36250000Y-66000000D03*
X52750000Y-64500000D03*
X67500000Y-79500000D03*
X51250000Y-66000000D03*
X18000000Y-79500000D03*
X18000000Y-82000000D03*
X67500000Y-29500000D03*
X67500000Y-42000000D03*
X46750000Y-29000000D03*
X39750000Y-38750000D03*
X63250000Y-62500000D03*
X67500000Y-39500000D03*
X67500000Y-52000000D03*
X34750000Y-45000000D03*
X18000000Y-42000000D03*
X67500000Y-62000000D03*
X67500000Y-72000000D03*
X67500000Y-69500000D03*
X18000000Y-37000000D03*
X37500000Y-69750000D03*
X18000000Y-44500000D03*
X46750000Y-27750000D03*
X33750000Y-38750000D03*
X29750000Y-67750000D03*
X57500000Y-51250000D03*
X18000000Y-49500000D03*
X67500000Y-77000000D03*
X18000000Y-47000000D03*
X32214650Y-58212064D03*
X67500000Y-49500000D03*
X21750000Y-38750000D03*
X54000000Y-58000000D03*
X67500000Y-82000000D03*
X18000000Y-62000000D03*
X67500000Y-34500000D03*
X22750000Y-45000000D03*
X18000000Y-39500000D03*
X18000000Y-77000000D03*
X27750000Y-72500000D03*
X18000000Y-34500000D03*
X18000000Y-64500000D03*
X67500000Y-54500000D03*
%TO.N,+5V*%
X52250000Y-54000000D03*
X61750000Y-59000000D03*
X50000000Y-47500000D03*
%TO.N,VDD*%
X63750000Y-64000000D03*
X37500000Y-57250000D03*
X32250000Y-65250000D03*
X50000000Y-58750000D03*
X30547226Y-58247206D03*
X23750000Y-66750000D03*
X54250000Y-73000000D03*
X63250000Y-64500000D03*
X36750000Y-65500000D03*
X40000000Y-64500000D03*
X26497986Y-76327514D03*
X27750000Y-69250000D03*
X32750000Y-48500000D03*
X21500000Y-68500000D03*
%TO.N,USART_RX*%
X31250000Y-60750000D03*
%TO.N,I_L*%
X33750000Y-68500000D03*
%TO.N,CT+*%
X23500000Y-55000000D03*
%TO.N,MODE_IN*%
X35750000Y-66500000D03*
X25500000Y-79500000D03*
X35750000Y-72750000D03*
%TO.N,CT-*%
X22500000Y-55000000D03*
%TO.N,I_PRI*%
X27250000Y-62500000D03*
%TO.N,VREF*%
X26750000Y-68250000D03*
X36500000Y-72500000D03*
X25250000Y-71250000D03*
%TO.N,VBUS_SENSE*%
X34750000Y-67500000D03*
%TO.N,VAC_SENSE*%
X32250000Y-70000000D03*
%TO.N,VDDA*%
X27250000Y-68750000D03*
%TO.N,THERM2*%
X29750000Y-73250000D03*
X24750000Y-61250000D03*
X42000000Y-72500000D03*
%TO.N,THERM1*%
X24250000Y-60750000D03*
X29750000Y-74000000D03*
X42000000Y-73500000D03*
%TO.N,+24V*%
X36250000Y-38750000D03*
X63750000Y-38250000D03*
X42250000Y-38750000D03*
X63750000Y-35750000D03*
X24250000Y-38750000D03*
X30250000Y-38750000D03*
X63750000Y-34500000D03*
X63750000Y-37000000D03*
X45500000Y-50500000D03*
X45500000Y-52500000D03*
X21000000Y-79500000D03*
X45500000Y-51500000D03*
%TO.N,+12V*%
X57500000Y-33750000D03*
X57500000Y-33000000D03*
X34750000Y-42000000D03*
X22750000Y-42000000D03*
%TO.N,THERM_BOARD*%
X47000000Y-35000000D03*
X32750000Y-69500000D03*
%TO.N,24V_SENSE*%
X25750000Y-67250000D03*
%TO.N,Net-(U9-BST)*%
X44000000Y-55500000D03*
X47250000Y-55500000D03*
%TO.N,VFAN_OUT*%
X54465696Y-68965696D03*
X44000000Y-56250000D03*
X48000000Y-50500000D03*
%TO.N,Net-(U10-G2)*%
X31500000Y-38750000D03*
%TO.N,Net-(IC4-OUT_A)*%
X29000000Y-38750000D03*
%TO.N,Net-(IC4-OUT_B)*%
X23000000Y-38750000D03*
%TO.N,Net-(U11-G2)*%
X25500000Y-38750000D03*
%TO.N,Net-(U12-G2)*%
X43500000Y-38750000D03*
%TO.N,Net-(IC5-OUT_A)*%
X41000000Y-38750000D03*
%TO.N,Net-(IC5-OUT_B)*%
X35000000Y-38750000D03*
%TO.N,Net-(U13-G2)*%
X37500000Y-38750000D03*
%TO.N,Net-(U10-D1)*%
X28750000Y-31000000D03*
X31750000Y-31000000D03*
X29750000Y-31000000D03*
X30250000Y-30250000D03*
X28250000Y-30250000D03*
X27250000Y-30250000D03*
X27750000Y-31000000D03*
X31250000Y-30250000D03*
X29250000Y-30250000D03*
X30750000Y-31000000D03*
%TO.N,Net-(U12-D1)*%
X43750000Y-31000000D03*
X39250000Y-30250000D03*
X39750000Y-31000000D03*
X41250000Y-30250000D03*
X40250000Y-30250000D03*
X42750000Y-31000000D03*
X43250000Y-30250000D03*
X40750000Y-31000000D03*
X41750000Y-31000000D03*
X42250000Y-30250000D03*
%TO.N,LED_TMP*%
X50739897Y-71500000D03*
%TO.N,LED_VBUS*%
X50250000Y-71000000D03*
%TO.N,LED_I_IN*%
X51250000Y-72000000D03*
%TO.N,SPI_CLK*%
X33250000Y-69000000D03*
X43500000Y-43500000D03*
%TO.N,SPI_MOSI*%
X34250000Y-68000000D03*
X43250000Y-45750000D03*
%TO.N,CS_FAN*%
X42491159Y-46245726D03*
%TO.N,GDT1_DIS*%
X33250000Y-59250000D03*
X25250000Y-42000000D03*
X25250000Y-45000000D03*
%TO.N,GDT_A*%
X24000000Y-45000000D03*
X36000000Y-45000000D03*
X32750000Y-58750000D03*
%TO.N,GDT_B*%
X21500000Y-45000000D03*
X34250000Y-60250000D03*
X33500000Y-45000000D03*
%TO.N,GDT2_DIS*%
X37250000Y-45000000D03*
X37310000Y-42000000D03*
X33750000Y-59750000D03*
%TO.N,VBUS_IN*%
X37500000Y-49500000D03*
%TO.N,I_L_IN*%
X32500000Y-53250000D03*
%TO.N,VAC_IN*%
X31725000Y-73750000D03*
X31750000Y-52500000D03*
%TO.N,PFC*%
X44750000Y-42250000D03*
X35250000Y-67000000D03*
%TO.N,SCR*%
X26250000Y-67750000D03*
X22750000Y-43750000D03*
X40887498Y-45250000D03*
%TO.N,GDT1_B*%
X22250000Y-30250000D03*
X24250000Y-30250000D03*
X21250000Y-30250000D03*
X23750000Y-31000000D03*
X21750000Y-31000000D03*
X24750000Y-31000000D03*
X22750000Y-31000000D03*
X23250000Y-30250000D03*
X25250000Y-30250000D03*
X25750000Y-31000000D03*
%TO.N,GDT2_B*%
X37250000Y-30250000D03*
X35750000Y-31000000D03*
X34750000Y-31000000D03*
X36750000Y-31000000D03*
X33250000Y-30250000D03*
X34250000Y-30250000D03*
X36250000Y-30250000D03*
X37750000Y-31000000D03*
X33750000Y-31000000D03*
X35250000Y-30250000D03*
%TO.N,USART_TX*%
X29750000Y-67000000D03*
X43509804Y-82990196D03*
%TO.N,Net-(U4-INPUT)*%
X28625000Y-62125000D03*
%TO.N,Net-(U4-OUTPUT)*%
X29250000Y-61750000D03*
%TO.N,FAN_EN*%
X44750000Y-47500000D03*
%TO.N,Net-(J4-Pad1)*%
X25750000Y-54000000D03*
%TO.N,Net-(J4-Pad2)*%
X29750000Y-52750000D03*
%TD*%
D55*
%TO.N,GND*%
X45387500Y-27137500D02*
X45387500Y-26250000D01*
D56*
X57389260Y-51139260D02*
X57500000Y-51250000D01*
D55*
X36750000Y-48675000D02*
X34770000Y-46695000D01*
X65587500Y-65087500D02*
X67500000Y-67000000D01*
D57*
X44612500Y-66750000D02*
X45250000Y-66750000D01*
D56*
X59250000Y-36525000D02*
X59250000Y-27375000D01*
X56500000Y-51250000D02*
X56610740Y-51139260D01*
D57*
X39250000Y-66637500D02*
X39137500Y-66750000D01*
X53750000Y-57750000D02*
X54000000Y-58000000D01*
D55*
X31750000Y-44362500D02*
X30975000Y-44362500D01*
X26887500Y-74250000D02*
X26887500Y-73362500D01*
D56*
X18800000Y-65300000D02*
X18000000Y-64500000D01*
D55*
X23637500Y-71462500D02*
X23260000Y-71840000D01*
X34770000Y-46695000D02*
X34770000Y-46172000D01*
D57*
X65912500Y-85412500D02*
X67500000Y-87000000D01*
D55*
X24750000Y-59500000D02*
X26500000Y-57750000D01*
D57*
X39500000Y-52000000D02*
X39500000Y-52587500D01*
D56*
X55850000Y-30425000D02*
X56475000Y-29800000D01*
D55*
X30612500Y-68612500D02*
X29750000Y-67750000D01*
X41512500Y-43525000D02*
X42162500Y-44175000D01*
X33612500Y-72362500D02*
X35000000Y-70975000D01*
D56*
X22500000Y-65300000D02*
X18800000Y-65300000D01*
D55*
X45500000Y-28125000D02*
X45750000Y-28375000D01*
D56*
X66437500Y-35937500D02*
X67500000Y-37000000D01*
D57*
X64250000Y-85412500D02*
X65912500Y-85412500D01*
X48000000Y-49500000D02*
X48137500Y-49500000D01*
X54000000Y-58000000D02*
X54250000Y-57750000D01*
X50387500Y-55887500D02*
X50500000Y-56000000D01*
D55*
X64250000Y-65087500D02*
X65587500Y-65087500D01*
X32887500Y-85580000D02*
X31790000Y-84482500D01*
X21000000Y-74887500D02*
X18387500Y-74887500D01*
D56*
X55850000Y-36525000D02*
X55850000Y-30425000D01*
D57*
X46137500Y-44887500D02*
X46250000Y-45000000D01*
D55*
X34975000Y-70975000D02*
X34250000Y-70250000D01*
X32887500Y-86250000D02*
X32887500Y-85580000D01*
D56*
X18250000Y-56750000D02*
X18000000Y-57000000D01*
D55*
X25975000Y-81825000D02*
X25800000Y-82000000D01*
X30000000Y-57387500D02*
X31750000Y-57387500D01*
D57*
X27112500Y-71862500D02*
X27750000Y-72500000D01*
D55*
X35000000Y-70975000D02*
X34975000Y-70975000D01*
D56*
X61650000Y-62500000D02*
X59250000Y-62500000D01*
D57*
X51000000Y-38000000D02*
X51387500Y-38000000D01*
X51554250Y-31112500D02*
X50000000Y-32666750D01*
D56*
X53489260Y-64360740D02*
X53500000Y-64350000D01*
D57*
X50500000Y-56000000D02*
X50612500Y-55887500D01*
X44612500Y-70250000D02*
X44612500Y-66750000D01*
D56*
X19075000Y-48675000D02*
X19000000Y-48750000D01*
D55*
X26250000Y-80362500D02*
X26250000Y-81550000D01*
X34112500Y-44362500D02*
X34750000Y-45000000D01*
D57*
X51387500Y-38000000D02*
X52750000Y-36637500D01*
X63500000Y-47137500D02*
X63500000Y-45200000D01*
D55*
X23387500Y-44362500D02*
X22750000Y-45000000D01*
X33250000Y-72362500D02*
X33612500Y-72362500D01*
D56*
X57610740Y-51139260D02*
X58289260Y-51139260D01*
D57*
X28750000Y-72112500D02*
X30500000Y-72112500D01*
D55*
X41512500Y-42250000D02*
X41512500Y-43525000D01*
D57*
X39500000Y-50862500D02*
X39500000Y-51500000D01*
D55*
X22750000Y-81490000D02*
X23260000Y-82000000D01*
D57*
X28137500Y-72112500D02*
X27750000Y-72500000D01*
D55*
X42500000Y-40250000D02*
X43275000Y-40250000D01*
X27000000Y-44362500D02*
X23387500Y-44362500D01*
D57*
X62187500Y-85500000D02*
X64162500Y-85500000D01*
X39500000Y-51500000D02*
X39750000Y-51750000D01*
X55537500Y-25887500D02*
X56475000Y-24950000D01*
D55*
X30612500Y-68750000D02*
X30612500Y-68612500D01*
X43387500Y-85480000D02*
X42390000Y-84482500D01*
D57*
X52750000Y-25887500D02*
X55537500Y-25887500D01*
X54250000Y-57750000D02*
X54887500Y-57750000D01*
D55*
X27775000Y-44362500D02*
X28500000Y-43637500D01*
X30975000Y-44362500D02*
X30250000Y-43637500D01*
D57*
X22887500Y-20927500D02*
X22460000Y-20500000D01*
D55*
X41000000Y-42250000D02*
X40750000Y-42000000D01*
D57*
X18037500Y-86962500D02*
X18000000Y-87000000D01*
X50612500Y-55887500D02*
X51225000Y-55887500D01*
D56*
X56389260Y-51139260D02*
X56500000Y-51250000D01*
D55*
X45387500Y-34887500D02*
X45500000Y-35000000D01*
D57*
X42710000Y-55210000D02*
X43000000Y-55500000D01*
D55*
X45387500Y-34000000D02*
X45387500Y-34887500D01*
X49000000Y-55387500D02*
X49500000Y-55887500D01*
X30550520Y-63550520D02*
X29500000Y-62500000D01*
D56*
X53500000Y-64350000D02*
X53500000Y-64250000D01*
D55*
X66587500Y-68587500D02*
X67500000Y-69500000D01*
X42162500Y-43475000D02*
X42812500Y-42825000D01*
D57*
X53610000Y-64460000D02*
X53500000Y-64350000D01*
D55*
X37500000Y-68612500D02*
X37500000Y-69750000D01*
D56*
X21750000Y-48675000D02*
X19075000Y-48675000D01*
D55*
X22750000Y-80412500D02*
X22750000Y-81490000D01*
D56*
X54750000Y-51139260D02*
X56389260Y-51139260D01*
D55*
X23637500Y-70250000D02*
X23637500Y-71462500D01*
X45500000Y-27250000D02*
X45387500Y-27137500D01*
X26887500Y-73362500D02*
X27750000Y-72500000D01*
D57*
X45250000Y-44887500D02*
X46137500Y-44887500D01*
D56*
X57500000Y-62500000D02*
X55350000Y-62500000D01*
X63500000Y-45200000D02*
X66800000Y-45200000D01*
D55*
X44612500Y-73500000D02*
X44612500Y-72500000D01*
D56*
X66800000Y-45200000D02*
X67500000Y-44500000D01*
D57*
X42710000Y-53905000D02*
X42710000Y-55210000D01*
X64250000Y-61637500D02*
X67137500Y-61637500D01*
D55*
X45500000Y-27250000D02*
X45500000Y-28125000D01*
X28250000Y-81825000D02*
X25975000Y-81825000D01*
X64250000Y-72087500D02*
X67412500Y-72087500D01*
D57*
X52750000Y-31112500D02*
X51554250Y-31112500D01*
D55*
X32214650Y-58212064D02*
X32214650Y-57852150D01*
X42812500Y-42825000D02*
X42812500Y-42250000D01*
D56*
X51250000Y-64360740D02*
X53489260Y-64360740D01*
X53500000Y-64250000D02*
X53600000Y-64250000D01*
D55*
X28500000Y-43637500D02*
X30250000Y-43637500D01*
D56*
X53600000Y-64250000D02*
X55350000Y-62500000D01*
D55*
X26250000Y-81550000D02*
X25800000Y-82000000D01*
D58*
X67500000Y-27000000D02*
X59625000Y-27000000D01*
D57*
X45250000Y-66750000D02*
X45500000Y-66500000D01*
D55*
X41512500Y-42250000D02*
X41000000Y-42250000D01*
D58*
X59625000Y-27000000D02*
X59250000Y-27375000D01*
D57*
X46362500Y-44887500D02*
X46250000Y-45000000D01*
X39137500Y-66750000D02*
X39137500Y-70250000D01*
D55*
X43387500Y-86250000D02*
X43387500Y-85480000D01*
D56*
X59250000Y-62500000D02*
X57500000Y-62500000D01*
D55*
X67412500Y-72087500D02*
X67500000Y-72000000D01*
X31750000Y-44362500D02*
X34112500Y-44362500D01*
D57*
X34770000Y-46172000D02*
X34770000Y-45020000D01*
X52750000Y-36637500D02*
X52750000Y-34725000D01*
X34770000Y-45020000D02*
X34750000Y-45000000D01*
D55*
X66250000Y-52750000D02*
X66500000Y-53000000D01*
D57*
X53112500Y-57750000D02*
X53750000Y-57750000D01*
X39750000Y-51750000D02*
X39500000Y-52000000D01*
D56*
X57500000Y-51250000D02*
X57610740Y-51139260D01*
D57*
X43000000Y-55500000D02*
X42250000Y-55500000D01*
D55*
X27000000Y-44362500D02*
X27775000Y-44362500D01*
D57*
X48137500Y-49500000D02*
X49000000Y-48637500D01*
D55*
X42162500Y-44750000D02*
X42162500Y-43475000D01*
D57*
X53610000Y-67576000D02*
X53610000Y-64460000D01*
X22887500Y-20072500D02*
X22460000Y-20500000D01*
D56*
X56610740Y-51139260D02*
X57389260Y-51139260D01*
D57*
X64162500Y-85500000D02*
X64250000Y-85412500D01*
D55*
X42162500Y-44175000D02*
X42162500Y-44750000D01*
X23637500Y-68500000D02*
X23637500Y-70250000D01*
D57*
X47250000Y-44887500D02*
X46362500Y-44887500D01*
X49500000Y-55887500D02*
X50387500Y-55887500D01*
D55*
X44612500Y-73500000D02*
X43750000Y-73500000D01*
X49000000Y-54112500D02*
X49000000Y-55387500D01*
D57*
X39250000Y-65750000D02*
X39250000Y-66637500D01*
X59250000Y-27375000D02*
X59600000Y-27375000D01*
D55*
X44612500Y-74250000D02*
X44612500Y-73500000D01*
D57*
X53610000Y-67576000D02*
X54880000Y-67576000D01*
X22710000Y-46172000D02*
X22710000Y-45040000D01*
X59600000Y-27375000D02*
X62025000Y-24950000D01*
X44500000Y-66637500D02*
X44612500Y-66750000D01*
X51225000Y-55887500D02*
X51250000Y-55862500D01*
D56*
X24250000Y-48675000D02*
X21750000Y-48675000D01*
D55*
X26500000Y-57750000D02*
X26500000Y-57387500D01*
D57*
X22710000Y-45040000D02*
X22750000Y-45000000D01*
X27000000Y-71862500D02*
X27112500Y-71862500D01*
X67137500Y-61637500D02*
X67500000Y-62000000D01*
X28750000Y-72112500D02*
X28137500Y-72112500D01*
D56*
X58289260Y-51139260D02*
X58950000Y-51800000D01*
D55*
X64250000Y-68587500D02*
X66587500Y-68587500D01*
X34750000Y-46192000D02*
X34770000Y-46172000D01*
X32214650Y-57852150D02*
X31750000Y-57387500D01*
D56*
X61650000Y-62500000D02*
X63250000Y-62500000D01*
D57*
X22887500Y-18000000D02*
X22887500Y-20072500D01*
D56*
X51200000Y-67750000D02*
X51200000Y-64410740D01*
D55*
X18387500Y-74887500D02*
X18000000Y-74500000D01*
D56*
X51200000Y-64410740D02*
X51250000Y-64360740D01*
D57*
%TO.N,+5V*%
X56612500Y-57223240D02*
X54750000Y-55360740D01*
D55*
X36030000Y-84912500D02*
X35600000Y-84482500D01*
X34612500Y-85470000D02*
X35600000Y-84482500D01*
D57*
X53526760Y-54137500D02*
X54750000Y-55360740D01*
D56*
X56750000Y-55360740D02*
X59610740Y-55360740D01*
D55*
X45112500Y-85570000D02*
X46200000Y-84482500D01*
D57*
X42162500Y-40862500D02*
X41550000Y-40250000D01*
X48250000Y-45750000D02*
X48250000Y-44250000D01*
X53776760Y-55360740D02*
X54750000Y-55360740D01*
X42162500Y-41250000D02*
X42162500Y-42250000D01*
D56*
X54750000Y-55360740D02*
X56750000Y-55360740D01*
D55*
X37500000Y-84912500D02*
X40500000Y-84912500D01*
D57*
X52387500Y-54137500D02*
X53526760Y-54137500D01*
X48250000Y-44250000D02*
X45250000Y-41250000D01*
D56*
X59610740Y-55360740D02*
X61250000Y-57000000D01*
D57*
X42162500Y-41250000D02*
X42162500Y-40862500D01*
D55*
X37500000Y-84912500D02*
X36030000Y-84912500D01*
D57*
X51387500Y-57750000D02*
X53776760Y-55360740D01*
X50000000Y-47500000D02*
X48250000Y-45750000D01*
X56612500Y-57750000D02*
X56612500Y-57223240D01*
D56*
X56612500Y-55498240D02*
X56750000Y-55360740D01*
X61650000Y-60200000D02*
X61650000Y-57400000D01*
D55*
X34612500Y-86250000D02*
X34612500Y-85470000D01*
D57*
X52250000Y-54000000D02*
X52387500Y-54137500D01*
D56*
X61650000Y-57400000D02*
X61250000Y-57000000D01*
X61250000Y-54250000D02*
X61250000Y-57000000D01*
D57*
X52112500Y-54137500D02*
X52250000Y-54000000D01*
D56*
X61250000Y-51800000D02*
X61250000Y-54250000D01*
D57*
X51250000Y-54137500D02*
X52112500Y-54137500D01*
X45250000Y-41250000D02*
X42162500Y-41250000D01*
D55*
X45112500Y-86250000D02*
X45112500Y-85570000D01*
%TO.N,VDD*%
X26497986Y-76327514D02*
X25502514Y-76327514D01*
X37500000Y-66887500D02*
X37500000Y-66250000D01*
D57*
X63250000Y-64362500D02*
X63612500Y-64000000D01*
X53610000Y-73000000D02*
X54250000Y-73000000D01*
D55*
X47212500Y-30250000D02*
X48500000Y-31537500D01*
X30547226Y-58247206D02*
X31412520Y-59112500D01*
X32925000Y-48675000D02*
X32750000Y-48500000D01*
X48500000Y-31537500D02*
X48500000Y-34250000D01*
X46700000Y-30250000D02*
X47212500Y-30250000D01*
D57*
X54250000Y-73000000D02*
X54880000Y-73000000D01*
X63750000Y-63862500D02*
X64250000Y-63362500D01*
X63750000Y-64000000D02*
X63750000Y-63862500D01*
D55*
X28250000Y-68750000D02*
X27750000Y-69250000D01*
X34250000Y-48675000D02*
X32925000Y-48675000D01*
D57*
X63612500Y-64000000D02*
X63750000Y-64000000D01*
D55*
X25075000Y-66750000D02*
X23750000Y-66750000D01*
X25750000Y-66075000D02*
X25075000Y-66750000D01*
X36825000Y-58000000D02*
X36825000Y-57925000D01*
D57*
X50000000Y-58889260D02*
X51250000Y-60139260D01*
D55*
X31412520Y-59112500D02*
X31750000Y-59112500D01*
D57*
X63250000Y-64500000D02*
X63250000Y-64362500D01*
X62812500Y-64800000D02*
X63112500Y-64500000D01*
D55*
X21500000Y-67425000D02*
X21500000Y-68500000D01*
D57*
X49500000Y-58389260D02*
X49860740Y-58750000D01*
D55*
X37500000Y-66250000D02*
X36750000Y-65500000D01*
X49500000Y-45000000D02*
X51000000Y-46500000D01*
D57*
X49500000Y-57612500D02*
X49500000Y-58389260D01*
D55*
X25502514Y-76327514D02*
X25425000Y-76250000D01*
D57*
X63112500Y-64500000D02*
X63250000Y-64500000D01*
D55*
X36825000Y-57925000D02*
X37500000Y-57250000D01*
D57*
X32750000Y-66300000D02*
X32750000Y-65750000D01*
D55*
X49500000Y-35250000D02*
X49500000Y-45000000D01*
X48500000Y-34250000D02*
X49500000Y-35250000D01*
X47250000Y-26250000D02*
X47250000Y-30212500D01*
D57*
X49860740Y-58750000D02*
X50000000Y-58750000D01*
X61650000Y-64800000D02*
X62812500Y-64800000D01*
D55*
X28887500Y-68750000D02*
X28250000Y-68750000D01*
D57*
X32750000Y-65750000D02*
X32250000Y-65250000D01*
X50000000Y-58750000D02*
X50000000Y-58889260D01*
D55*
X47250000Y-30212500D02*
X47212500Y-30250000D01*
%TO.N,Net-(SW1-B)*%
X24500000Y-78587500D02*
X24500000Y-75620000D01*
X24500000Y-75620000D02*
X23260000Y-74380000D01*
%TO.N,USART_RX*%
X42900000Y-83087500D02*
X44295000Y-84482500D01*
X40500000Y-83087500D02*
X42900000Y-83087500D01*
%TO.N,INT*%
X33695000Y-84482500D02*
X35090000Y-83087500D01*
X35090000Y-83087500D02*
X37500000Y-83087500D01*
D57*
%TO.N,Net-(IC1-LED3)*%
X62500000Y-73000000D02*
X62500000Y-74664000D01*
X62500000Y-74664000D02*
X61264000Y-75900000D01*
%TO.N,Net-(IC1-LED1)*%
X59960000Y-73542500D02*
X59000000Y-74502500D01*
X59960000Y-73000000D02*
X59960000Y-73542500D01*
X59000000Y-74502500D02*
X59000000Y-78716000D01*
X59000000Y-78716000D02*
X61264000Y-80980000D01*
%TO.N,Net-(IC1-LED2)*%
X61230000Y-73000000D02*
X61230000Y-73412500D01*
X61230000Y-73412500D02*
X60000000Y-74642500D01*
X60000000Y-77176000D02*
X61264000Y-78440000D01*
X60000000Y-74642500D02*
X60000000Y-77176000D01*
%TO.N,Net-(U2-K)*%
X58095000Y-83432500D02*
X54380000Y-83432500D01*
X58250000Y-83587500D02*
X58095000Y-83432500D01*
X54380000Y-83432500D02*
X53330000Y-84482500D01*
D55*
%TO.N,Net-(C2-Pad1)*%
X30000000Y-59087500D02*
X28250000Y-57337500D01*
D56*
X21750000Y-58450000D02*
X22500000Y-59200000D01*
D55*
X28250000Y-57337500D02*
X27562500Y-56650000D01*
X27562500Y-56650000D02*
X24675000Y-56650000D01*
X30000000Y-59112500D02*
X30000000Y-59087500D01*
D56*
X24250000Y-57075000D02*
X21750000Y-57075000D01*
X21750000Y-57075000D02*
X21750000Y-58450000D01*
D55*
X24675000Y-56650000D02*
X24250000Y-57075000D01*
%TO.N,I_L*%
X33750000Y-66750000D02*
X35000000Y-65500000D01*
X33750000Y-68500000D02*
X33750000Y-66750000D01*
X35412500Y-56262500D02*
X33675000Y-58000000D01*
X33750000Y-70137500D02*
X33750000Y-68500000D01*
X35000000Y-65500000D02*
X35000000Y-59325000D01*
X35412500Y-55750000D02*
X35412500Y-56262500D01*
X35000000Y-59325000D02*
X33675000Y-58000000D01*
X33250000Y-70637500D02*
X33750000Y-70137500D01*
%TO.N,CT+*%
X23500000Y-54675000D02*
X24250000Y-53925000D01*
X30250000Y-47500000D02*
X30250000Y-46862500D01*
D56*
X30750000Y-48000000D02*
X30750000Y-48500000D01*
X27425000Y-51825000D02*
X24250000Y-51825000D01*
D55*
X30250000Y-47500000D02*
X30750000Y-48000000D01*
D56*
X30750000Y-48500000D02*
X27425000Y-51825000D01*
D55*
X23500000Y-55000000D02*
X23500000Y-54675000D01*
D56*
X24250000Y-51825000D02*
X24250000Y-53925000D01*
D55*
X30250000Y-45362500D02*
X30250000Y-47500000D01*
%TO.N,MODE_IN*%
X25387500Y-79500000D02*
X25500000Y-79500000D01*
X25500000Y-79387500D02*
X26250000Y-78637500D01*
X25500000Y-79500000D02*
X25500000Y-79387500D01*
X24500000Y-80412500D02*
X24500000Y-80387500D01*
X35750000Y-72750000D02*
X35750000Y-66500000D01*
X24500000Y-80387500D02*
X25387500Y-79500000D01*
D56*
%TO.N,CT-*%
X21750000Y-53925000D02*
X21750000Y-51825000D01*
D55*
X22500000Y-54675000D02*
X21750000Y-53925000D01*
X22500000Y-55000000D02*
X22500000Y-54675000D01*
D56*
X25500000Y-50250000D02*
X23325000Y-50250000D01*
X27750000Y-48000000D02*
X25500000Y-50250000D01*
X23325000Y-50250000D02*
X21750000Y-51825000D01*
D55*
X28500000Y-47250000D02*
X27750000Y-48000000D01*
X28500000Y-47250000D02*
X28500000Y-46862500D01*
X28500000Y-45362500D02*
X28500000Y-47250000D01*
%TO.N,I_PRI*%
X25750000Y-62925000D02*
X26825000Y-62925000D01*
X26500000Y-59112500D02*
X28200000Y-59112500D01*
X27250000Y-62500000D02*
X28250000Y-61500000D01*
X28200000Y-59112500D02*
X28250000Y-59162500D01*
X28250000Y-61500000D02*
X28250000Y-59337500D01*
X26825000Y-62925000D02*
X27250000Y-62500000D01*
%TO.N,VREF*%
X39087500Y-72500000D02*
X36500000Y-72500000D01*
X25362500Y-68500000D02*
X26500000Y-68500000D01*
X25362500Y-71137500D02*
X25250000Y-71250000D01*
X25362500Y-70250000D02*
X25362500Y-71137500D01*
X26500000Y-68500000D02*
X26750000Y-68250000D01*
X39087500Y-72500000D02*
X39087500Y-74250000D01*
X25250000Y-72337500D02*
X25250000Y-71250000D01*
X25362500Y-70250000D02*
X25362500Y-68500000D01*
%TO.N,VBUS_SENSE*%
X34750000Y-69000000D02*
X34750000Y-67500000D01*
X35750000Y-57162500D02*
X37250000Y-55662500D01*
X34750000Y-66500000D02*
X35750000Y-65500000D01*
X36575000Y-52000000D02*
X36750000Y-51825000D01*
X34250000Y-51825000D02*
X36750000Y-51825000D01*
X35000000Y-69250000D02*
X34750000Y-69000000D01*
X35750000Y-65500000D02*
X35750000Y-57162500D01*
X34750000Y-67500000D02*
X34750000Y-66500000D01*
X37250000Y-55662500D02*
X36575000Y-54987500D01*
X36575000Y-54987500D02*
X36575000Y-52000000D01*
%TO.N,VAC_SENSE*%
X28250000Y-78675000D02*
X28250000Y-76575000D01*
X30337500Y-74500000D02*
X28912500Y-74500000D01*
X28575000Y-74162500D02*
X28412500Y-74000000D01*
X32250000Y-72500000D02*
X32250000Y-70000000D01*
X25250000Y-74162500D02*
X26087500Y-75000000D01*
X26087500Y-75000000D02*
X28575000Y-75000000D01*
X28575000Y-76250000D02*
X28575000Y-75000000D01*
X28250000Y-76575000D02*
X28575000Y-76250000D01*
X28912500Y-74500000D02*
X28412500Y-74000000D01*
X30837500Y-74000000D02*
X30837500Y-73912500D01*
X30837500Y-74000000D02*
X30337500Y-74500000D01*
X28575000Y-75000000D02*
X28575000Y-74162500D01*
X30837500Y-73912500D02*
X32250000Y-72500000D01*
%TO.N,VDDA*%
X27000000Y-69000000D02*
X27250000Y-68750000D01*
D57*
X27250000Y-70387500D02*
X27000000Y-70137500D01*
X28750000Y-70387500D02*
X27250000Y-70387500D01*
X32750000Y-68137500D02*
X30500000Y-70387500D01*
X32750000Y-67750000D02*
X32750000Y-68137500D01*
X30500000Y-70387500D02*
X28750000Y-70387500D01*
D55*
X27000000Y-70137500D02*
X27000000Y-69000000D01*
%TO.N,THERM2*%
X42000000Y-72500000D02*
X42887500Y-72500000D01*
X42000000Y-72500000D02*
X40912500Y-72500000D01*
%TO.N,THERM1*%
X42000000Y-73500000D02*
X41250000Y-74250000D01*
X42750000Y-74250000D02*
X42887500Y-74250000D01*
X41250000Y-74250000D02*
X40912500Y-74250000D01*
X42000000Y-73500000D02*
X42750000Y-74250000D01*
D57*
%TO.N,+24V*%
X30250000Y-36412500D02*
X30250000Y-38750000D01*
X62975000Y-36525000D02*
X63750000Y-35750000D01*
X22662500Y-34750000D02*
X24250000Y-36337500D01*
X62650000Y-35600000D02*
X63750000Y-34500000D01*
X40587500Y-34750000D02*
X42250000Y-36412500D01*
X62650000Y-37150000D02*
X63750000Y-38250000D01*
X34175000Y-34337500D02*
X34587500Y-34750000D01*
X24612500Y-20887500D02*
X25000000Y-20500000D01*
X22175000Y-34262500D02*
X22662500Y-34750000D01*
X63275000Y-36525000D02*
X63750000Y-37000000D01*
X28175000Y-32500000D02*
X28175000Y-34337500D01*
D55*
X49000000Y-52387500D02*
X48042500Y-51430000D01*
D57*
X36250000Y-36412500D02*
X36250000Y-38750000D01*
X40250000Y-34412500D02*
X40587500Y-34750000D01*
X42250000Y-36412500D02*
X42250000Y-38750000D01*
X28587500Y-34750000D02*
X30250000Y-36412500D01*
X52750000Y-27612500D02*
X50054250Y-27612500D01*
X50054250Y-27612500D02*
X50000000Y-27666750D01*
D56*
X43415000Y-51500000D02*
X43345000Y-51430000D01*
D57*
X28175000Y-34337500D02*
X28587500Y-34750000D01*
X34175000Y-32500000D02*
X34175000Y-34337500D01*
X22175000Y-32500000D02*
X22175000Y-34262500D01*
X24612500Y-18000000D02*
X24612500Y-20112500D01*
X24250000Y-36337500D02*
X24250000Y-38750000D01*
X62650000Y-36525000D02*
X63275000Y-36525000D01*
X34587500Y-34750000D02*
X36250000Y-36412500D01*
X62650000Y-36525000D02*
X62650000Y-35600000D01*
X62650000Y-36525000D02*
X62650000Y-37150000D01*
D56*
X45500000Y-51500000D02*
X45500000Y-50530000D01*
D57*
X62650000Y-36525000D02*
X62975000Y-36525000D01*
D55*
X21000000Y-80412500D02*
X21000000Y-79500000D01*
D57*
X52750000Y-29387500D02*
X51720750Y-29387500D01*
X24612500Y-20112500D02*
X25000000Y-20500000D01*
D56*
X45500000Y-51500000D02*
X43415000Y-51500000D01*
D57*
X40250000Y-32500000D02*
X40250000Y-34412500D01*
X51720750Y-29387500D02*
X50000000Y-27666750D01*
D56*
X45500000Y-51500000D02*
X45500000Y-52330000D01*
D55*
X48042500Y-51430000D02*
X43345000Y-51430000D01*
D56*
%TO.N,+12V*%
X57550000Y-36525000D02*
X57550000Y-33050000D01*
D55*
X34112500Y-42637500D02*
X34750000Y-42000000D01*
D57*
X53575000Y-33825000D02*
X52750000Y-33000000D01*
D55*
X31750000Y-42637500D02*
X34112500Y-42637500D01*
D57*
X52750000Y-38362500D02*
X52750000Y-43802000D01*
D56*
X57550000Y-36525000D02*
X57550000Y-40398000D01*
X51000000Y-42052000D02*
X53448000Y-44500000D01*
X57550000Y-33050000D02*
X57500000Y-33000000D01*
X51000000Y-41500000D02*
X51000000Y-42052000D01*
D57*
X52750000Y-38362500D02*
X53575000Y-37537500D01*
D55*
X23387500Y-42637500D02*
X22750000Y-42000000D01*
D56*
X63500000Y-48862500D02*
X57810500Y-48862500D01*
X63550000Y-51800000D02*
X63550000Y-48912500D01*
D57*
X34770000Y-41980000D02*
X34750000Y-42000000D01*
D56*
X57550000Y-40398000D02*
X53448000Y-44500000D01*
D57*
X53575000Y-37537500D02*
X53575000Y-33825000D01*
X22750000Y-42000000D02*
X22750000Y-40790000D01*
D55*
X27000000Y-42637500D02*
X23387500Y-42637500D01*
D56*
X57810500Y-48862500D02*
X53448000Y-44500000D01*
D57*
X52750000Y-43802000D02*
X53448000Y-44500000D01*
X22750000Y-40790000D02*
X22710000Y-40750000D01*
D56*
X63550000Y-48912500D02*
X63500000Y-48862500D01*
D57*
X34770000Y-40750000D02*
X34770000Y-41980000D01*
D55*
%TO.N,THERM_BOARD*%
X47112500Y-34000000D02*
X47112500Y-34887500D01*
X47112500Y-34000000D02*
X47112500Y-32300000D01*
X47112500Y-32300000D02*
X47162500Y-32250000D01*
X47112500Y-34887500D02*
X47000000Y-35000000D01*
%TO.N,Net-(C31-Pad2)*%
X39500000Y-49137500D02*
X39500000Y-47412500D01*
%TO.N,Net-(U9-SS)*%
X44887500Y-46612500D02*
X43980000Y-47520000D01*
X45250000Y-46612500D02*
X44887500Y-46612500D01*
X43980000Y-47520000D02*
X43980000Y-48955000D01*
%TO.N,Net-(U9-FB)*%
X47250000Y-46612500D02*
X47250000Y-48587500D01*
X44200000Y-45875000D02*
X46512500Y-45875000D01*
X43325000Y-46750000D02*
X44200000Y-45875000D01*
X43325000Y-46750000D02*
X43325000Y-48340000D01*
X43325000Y-48340000D02*
X42710000Y-48955000D01*
X46512500Y-45875000D02*
X47250000Y-46612500D01*
%TO.N,24V_SENSE*%
X21675000Y-70750000D02*
X21500000Y-70575000D01*
X21000000Y-76612500D02*
X21000000Y-78587500D01*
X21000000Y-76612500D02*
X21675000Y-75937500D01*
X22750000Y-78587500D02*
X21000000Y-78587500D01*
X25750000Y-67250000D02*
X23500000Y-67250000D01*
X23500000Y-67250000D02*
X21500000Y-69250000D01*
X21675000Y-75937500D02*
X21675000Y-70750000D01*
X21500000Y-69250000D02*
X21500000Y-70575000D01*
%TO.N,Net-(D16-K)*%
X47250000Y-52387500D02*
X46767500Y-52387500D01*
D56*
X46552000Y-67502000D02*
X46800000Y-67750000D01*
X46552000Y-60500000D02*
X46552000Y-67502000D01*
D55*
X46767500Y-52387500D02*
X45250000Y-53905000D01*
D56*
X46552000Y-60500000D02*
X45250000Y-59198000D01*
X45250000Y-59198000D02*
X45250000Y-53905000D01*
D55*
%TO.N,Net-(U9-BST)*%
X43980000Y-53905000D02*
X43980000Y-55480000D01*
X43980000Y-55480000D02*
X44000000Y-55500000D01*
X47250000Y-54112500D02*
X47250000Y-55500000D01*
%TO.N,VFAN_OUT*%
X47250000Y-50412500D02*
X47912500Y-50412500D01*
D57*
X40862500Y-68500000D02*
X40862500Y-66750000D01*
D55*
X47912500Y-50412500D02*
X48000000Y-50500000D01*
X48087500Y-50412500D02*
X48950000Y-50412500D01*
D57*
X51000000Y-70250000D02*
X46500000Y-70250000D01*
X42887500Y-66750000D02*
X40862500Y-66750000D01*
X52284304Y-68965696D02*
X51000000Y-70250000D01*
X40862500Y-70250000D02*
X40862500Y-68500000D01*
X40862500Y-66750000D02*
X40862500Y-61414500D01*
X40862500Y-61414500D02*
X39948000Y-60500000D01*
X44000000Y-56323691D02*
X39948000Y-60375691D01*
X42887500Y-70250000D02*
X40862500Y-70250000D01*
X44000000Y-56250000D02*
X44000000Y-56323691D01*
X39948000Y-60375691D02*
X39948000Y-60500000D01*
X45250000Y-71500000D02*
X44137500Y-71500000D01*
D55*
X48950000Y-50412500D02*
X49000000Y-50362500D01*
D57*
X42887500Y-68500000D02*
X40862500Y-68500000D01*
X44137500Y-71500000D02*
X42887500Y-70250000D01*
D55*
X48000000Y-50500000D02*
X48087500Y-50412500D01*
D57*
X54465696Y-68965696D02*
X52284304Y-68965696D01*
X46500000Y-70250000D02*
X45250000Y-71500000D01*
%TO.N,Net-(U10-G2)*%
X31312500Y-38562500D02*
X31500000Y-38750000D01*
X31312500Y-37000000D02*
X31312500Y-38562500D01*
X30412500Y-34750000D02*
X30412500Y-33412500D01*
X31312500Y-37000000D02*
X31312500Y-35650000D01*
X31312500Y-35650000D02*
X30412500Y-34750000D01*
X30412500Y-33412500D02*
X31325000Y-32500000D01*
%TO.N,Net-(IC4-OUT_A)*%
X23980000Y-40389000D02*
X24969000Y-39400000D01*
X23980000Y-40828000D02*
X23980000Y-40389000D01*
X28187500Y-37937500D02*
X29000000Y-38750000D01*
X28350000Y-39400000D02*
X29000000Y-38750000D01*
X28187500Y-37000000D02*
X28187500Y-37937500D01*
X24969000Y-39400000D02*
X28350000Y-39400000D01*
%TO.N,Net-(IC4-OUT_B)*%
X21440000Y-40310000D02*
X23000000Y-38750000D01*
X22187500Y-37937500D02*
X23000000Y-38750000D01*
X21440000Y-40828000D02*
X21440000Y-40310000D01*
X22187500Y-37000000D02*
X22187500Y-37937500D01*
%TO.N,Net-(U11-G2)*%
X24487500Y-33337500D02*
X25325000Y-32500000D01*
X25312500Y-37000000D02*
X25312500Y-35575000D01*
X25312500Y-37000000D02*
X25312500Y-38562500D01*
X25312500Y-35575000D02*
X24487500Y-34750000D01*
X24487500Y-34750000D02*
X24487500Y-33337500D01*
X25312500Y-38562500D02*
X25500000Y-38750000D01*
%TO.N,Net-(U12-G2)*%
X43312500Y-37000000D02*
X43312500Y-35650000D01*
X43312500Y-37000000D02*
X43312500Y-38562500D01*
X43312500Y-38562500D02*
X43500000Y-38750000D01*
X42412500Y-34750000D02*
X42412500Y-33487500D01*
X42412500Y-33487500D02*
X43400000Y-32500000D01*
X43312500Y-35650000D02*
X42412500Y-34750000D01*
%TO.N,Net-(IC5-OUT_A)*%
X40187500Y-37937500D02*
X41000000Y-38750000D01*
X36771000Y-39500000D02*
X40250000Y-39500000D01*
X36040000Y-40231000D02*
X36771000Y-39500000D01*
X40250000Y-39500000D02*
X41000000Y-38750000D01*
X40187500Y-37000000D02*
X40187500Y-37937500D01*
X36040000Y-40750000D02*
X36040000Y-40231000D01*
%TO.N,Net-(IC5-OUT_B)*%
X33500000Y-40750000D02*
X33500000Y-40250000D01*
X33500000Y-40250000D02*
X35000000Y-38750000D01*
X34187500Y-37000000D02*
X34187500Y-37937500D01*
X34187500Y-37937500D02*
X35000000Y-38750000D01*
%TO.N,Net-(U13-G2)*%
X36412500Y-34750000D02*
X36412500Y-33412500D01*
X37312500Y-37000000D02*
X37312500Y-38562500D01*
X36412500Y-33412500D02*
X37325000Y-32500000D01*
X37312500Y-37000000D02*
X37312500Y-35650000D01*
X37312500Y-38562500D02*
X37500000Y-38750000D01*
X37312500Y-35650000D02*
X36412500Y-34750000D01*
D56*
%TO.N,Net-(D12-K)*%
X60052000Y-44248000D02*
X63500000Y-40800000D01*
X60950000Y-36525000D02*
X60950000Y-43602000D01*
X60950000Y-43602000D02*
X60052000Y-44500000D01*
X60052000Y-44500000D02*
X60052000Y-44248000D01*
D55*
%TO.N,LED_TMP*%
X53908500Y-71500000D02*
X57420000Y-67988500D01*
X57420000Y-67988500D02*
X57420000Y-67576000D01*
X50739897Y-71500000D02*
X53908500Y-71500000D01*
%TO.N,Net-(IC1-RSET1)*%
X62500000Y-67576000D02*
X63586500Y-67576000D01*
X63586500Y-67576000D02*
X64250000Y-66912500D01*
%TO.N,Net-(IC1-RSET2)*%
X64250000Y-70412500D02*
X63775000Y-70412500D01*
X63775000Y-70412500D02*
X61230000Y-67867500D01*
X61230000Y-67867500D02*
X61230000Y-67576000D01*
%TO.N,Net-(IC1-RSET3)*%
X59960000Y-68960000D02*
X59960000Y-67576000D01*
X64250000Y-73912500D02*
X64250000Y-73250000D01*
X64250000Y-73250000D02*
X59960000Y-68960000D01*
%TO.N,LED_VBUS*%
X53138500Y-71000000D02*
X56150000Y-67988500D01*
X56150000Y-67988500D02*
X56150000Y-67576000D01*
X50250000Y-71000000D02*
X53138500Y-71000000D01*
%TO.N,LED_I_IN*%
X58690000Y-67988500D02*
X58690000Y-67576000D01*
X54678500Y-72000000D02*
X58690000Y-67988500D01*
X51250000Y-72000000D02*
X54678500Y-72000000D01*
%TO.N,SPI_CLK*%
X43462500Y-43462500D02*
X43462500Y-42250000D01*
X43500000Y-43500000D02*
X43462500Y-43462500D01*
%TO.N,SPI_MOSI*%
X43462500Y-44750000D02*
X43462500Y-45537500D01*
X43462500Y-45537500D02*
X43250000Y-45750000D01*
%TO.N,CS_FAN*%
X42491159Y-46245726D02*
X42750000Y-45986885D01*
X42750000Y-45986885D02*
X42750000Y-44812500D01*
X42750000Y-44812500D02*
X42812500Y-44750000D01*
%TO.N,Net-(IC3-A)*%
X41500000Y-46750000D02*
X41500000Y-44762500D01*
X41500000Y-44762500D02*
X41512500Y-44750000D01*
%TO.N,GDT1_DIS*%
X25250000Y-40750000D02*
X25250000Y-42000000D01*
X25250000Y-46172000D02*
X25250000Y-45000000D01*
%TO.N,GDT_A*%
X23980000Y-45020000D02*
X24000000Y-45000000D01*
X36040000Y-46172000D02*
X36040000Y-45040000D01*
X36040000Y-45040000D02*
X36000000Y-45000000D01*
X23980000Y-46172000D02*
X23980000Y-45020000D01*
%TO.N,GDT_B*%
X21440000Y-45060000D02*
X21500000Y-45000000D01*
X33500000Y-46172000D02*
X33500000Y-45000000D01*
X21440000Y-46172000D02*
X21440000Y-45060000D01*
%TO.N,GDT2_DIS*%
X37310000Y-44940000D02*
X37250000Y-45000000D01*
X37310000Y-40750000D02*
X37310000Y-42000000D01*
X37310000Y-45060000D02*
X37250000Y-45000000D01*
X37310000Y-46172000D02*
X37310000Y-45060000D01*
%TO.N,VBUS_IN*%
X37500000Y-53587500D02*
X37250000Y-53837500D01*
X37500000Y-49500000D02*
X37500000Y-53587500D01*
%TO.N,I_L_IN*%
X33587500Y-55750000D02*
X32500000Y-54662500D01*
X32500000Y-54662500D02*
X32500000Y-53250000D01*
%TO.N,VAC_IN*%
X31975000Y-74000000D02*
X31725000Y-73750000D01*
X32662500Y-74000000D02*
X31975000Y-74000000D01*
D58*
%TO.N,GDT1_B*%
X28500000Y-20500000D02*
X25250000Y-23750000D01*
X28960000Y-20500000D02*
X28500000Y-20500000D01*
%TO.N,GDT2_B*%
X35235000Y-20500000D02*
X35235000Y-23735000D01*
D57*
%TO.N,Net-(Q1-D)*%
X58250000Y-85412500D02*
X59450000Y-85412500D01*
X59450000Y-85412500D02*
X60312500Y-84550000D01*
D55*
%TO.N,USART_TX*%
X62200000Y-83587500D02*
X62187500Y-83600000D01*
X45980489Y-82990196D02*
X48490293Y-85500000D01*
X57125293Y-84500000D02*
X58450300Y-84500000D01*
X43509804Y-82990196D02*
X45980489Y-82990196D01*
X64250000Y-83587500D02*
X62200000Y-83587500D01*
X48490293Y-85500000D02*
X56125293Y-85500000D01*
X59350300Y-83600000D02*
X62187500Y-83600000D01*
X58450300Y-84500000D02*
X59350300Y-83600000D01*
X56125293Y-85500000D02*
X57125293Y-84500000D01*
%TO.N,Net-(U6-V_{OUT})*%
X44800000Y-30250000D02*
X45337500Y-30787500D01*
X45337500Y-30787500D02*
X45337500Y-32250000D01*
%TO.N,Net-(U9-FSW)*%
X39500000Y-54412500D02*
X40932500Y-54412500D01*
X40932500Y-54412500D02*
X41440000Y-53905000D01*
%TO.N,Net-(U9-COMP)*%
X41440000Y-48015000D02*
X41440000Y-48955000D01*
X39500000Y-46075000D02*
X41440000Y-48015000D01*
X39500000Y-45587500D02*
X39500000Y-46075000D01*
%TO.N,Net-(U4-INPUT)*%
X28625000Y-62125000D02*
X28625000Y-63322057D01*
X28625000Y-63322057D02*
X29701992Y-64399049D01*
%TO.N,Net-(U4-OUTPUT)*%
X29250000Y-61750000D02*
X30447057Y-61750000D01*
X30447057Y-61750000D02*
X31399049Y-62701992D01*
%TO.N,FAN_EN*%
X45250000Y-48955000D02*
X45250000Y-48000000D01*
X45250000Y-48000000D02*
X44750000Y-47500000D01*
D56*
%TO.N,Net-(J4-Pad1)*%
X25750000Y-54000000D02*
X27247600Y-54000000D01*
X27247600Y-54000000D02*
X27750000Y-54502400D01*
%TO.N,Net-(J4-Pad2)*%
X29750000Y-52750000D02*
X29750000Y-53502400D01*
X29750000Y-53502400D02*
X30750000Y-54502400D01*
%TD*%
%TA.AperFunction,Conductor*%
%TO.N,GND*%
G36*
X69243039Y-16019685D02*
G01*
X69288794Y-16072489D01*
X69300000Y-16124000D01*
X69300000Y-87876000D01*
X69280315Y-87943039D01*
X69227511Y-87988794D01*
X69176000Y-88000000D01*
X65424000Y-88000000D01*
X65356961Y-87980315D01*
X65311206Y-87927511D01*
X65300000Y-87876000D01*
X65300000Y-16124000D01*
X65319685Y-16056961D01*
X65372489Y-16011206D01*
X65424000Y-16000000D01*
X69176000Y-16000000D01*
X69243039Y-16019685D01*
G37*
%TD.AperFunction*%
%TD*%
%TA.AperFunction,Conductor*%
%TO.N,GND*%
G36*
X44908537Y-27519685D02*
G01*
X44954292Y-27572489D01*
X44964236Y-27641647D01*
X44960574Y-27658596D01*
X44952900Y-27685008D01*
X44952899Y-27685010D01*
X44950000Y-27721850D01*
X44950000Y-28125000D01*
X46550000Y-28125000D01*
X46550000Y-27721865D01*
X46549999Y-27721850D01*
X46547100Y-27685010D01*
X46547099Y-27685008D01*
X46539426Y-27658596D01*
X46539625Y-27588727D01*
X46577566Y-27530057D01*
X46641204Y-27501212D01*
X46658502Y-27500000D01*
X46825500Y-27500000D01*
X46892539Y-27519685D01*
X46938294Y-27572489D01*
X46949500Y-27624000D01*
X46949500Y-29188000D01*
X46929815Y-29255039D01*
X46877011Y-29300794D01*
X46825500Y-29312000D01*
X46640490Y-29312000D01*
X46573451Y-29292315D01*
X46527696Y-29239511D01*
X46517752Y-29170353D01*
X46521414Y-29153405D01*
X46547099Y-29064995D01*
X46547100Y-29064989D01*
X46549999Y-29028149D01*
X46550000Y-29028134D01*
X46550000Y-28625000D01*
X46000000Y-28625000D01*
X46000000Y-29609795D01*
X46000001Y-29609795D01*
X46002486Y-29609600D01*
X46040905Y-29598439D01*
X46110775Y-29598639D01*
X46169445Y-29636582D01*
X46198288Y-29700220D01*
X46199500Y-29717516D01*
X46199500Y-30870760D01*
X46209426Y-30938891D01*
X46209427Y-30938893D01*
X46260802Y-31043983D01*
X46260803Y-31043984D01*
X46260804Y-31043986D01*
X46266773Y-31052347D01*
X46263912Y-31054389D01*
X46288622Y-31099642D01*
X46283638Y-31169334D01*
X46241766Y-31225267D01*
X46176302Y-31249684D01*
X46167456Y-31250000D01*
X45762000Y-31250000D01*
X45694961Y-31230315D01*
X45649206Y-31177511D01*
X45638000Y-31126000D01*
X45638000Y-30747940D01*
X45638000Y-30747938D01*
X45617639Y-30671950D01*
X45617522Y-30671512D01*
X45577960Y-30602989D01*
X45336819Y-30361848D01*
X45303334Y-30300525D01*
X45300500Y-30274167D01*
X45300500Y-29717516D01*
X45320185Y-29650477D01*
X45372989Y-29604722D01*
X45442147Y-29594778D01*
X45459095Y-29598439D01*
X45497514Y-29609600D01*
X45497511Y-29609600D01*
X45499998Y-29609795D01*
X45500000Y-29609795D01*
X45500000Y-28625000D01*
X44950000Y-28625000D01*
X44950000Y-29028149D01*
X44952899Y-29064989D01*
X44952900Y-29064995D01*
X44978586Y-29153405D01*
X44978387Y-29223275D01*
X44940445Y-29281945D01*
X44876806Y-29310788D01*
X44859510Y-29312000D01*
X44624000Y-29312000D01*
X44556961Y-29292315D01*
X44511206Y-29239511D01*
X44500000Y-29188000D01*
X44500000Y-27624000D01*
X44519685Y-27556961D01*
X44572489Y-27511206D01*
X44624000Y-27500000D01*
X44841498Y-27500000D01*
X44908537Y-27519685D01*
G37*
%TD.AperFunction*%
%TD*%
%TA.AperFunction,Conductor*%
%TO.N,GND*%
G36*
X19943039Y-16019685D02*
G01*
X19988794Y-16072489D01*
X20000000Y-16124000D01*
X20000000Y-87876000D01*
X19980315Y-87943039D01*
X19927511Y-87988794D01*
X19876000Y-88000000D01*
X16124000Y-88000000D01*
X16056961Y-87980315D01*
X16011206Y-87927511D01*
X16000000Y-87876000D01*
X16000000Y-16124000D01*
X16019685Y-16056961D01*
X16072489Y-16011206D01*
X16124000Y-16000000D01*
X19876000Y-16000000D01*
X19943039Y-16019685D01*
G37*
%TD.AperFunction*%
%TD*%
%TA.AperFunction,Conductor*%
%TO.N,Net-(U12-D1)*%
G36*
X44193039Y-22269685D02*
G01*
X44238794Y-22322489D01*
X44250000Y-22374000D01*
X44250000Y-27701854D01*
X44248738Y-27719500D01*
X44244353Y-27749999D01*
X44248738Y-27780498D01*
X44250000Y-27798145D01*
X44250000Y-28951854D01*
X44248738Y-28969500D01*
X44244353Y-28999999D01*
X44248738Y-29030498D01*
X44250000Y-29048145D01*
X44250000Y-31626000D01*
X44230315Y-31693039D01*
X44177511Y-31738794D01*
X44126000Y-31750000D01*
X38874000Y-31750000D01*
X38806961Y-31730315D01*
X38761206Y-31677511D01*
X38750000Y-31626000D01*
X38750000Y-22374000D01*
X38769685Y-22306961D01*
X38822489Y-22261206D01*
X38874000Y-22250000D01*
X44126000Y-22250000D01*
X44193039Y-22269685D01*
G37*
%TD.AperFunction*%
%TD*%
%TA.AperFunction,Conductor*%
%TO.N,GDT1_B*%
G36*
X26193039Y-22269685D02*
G01*
X26238794Y-22322489D01*
X26250000Y-22374000D01*
X26250000Y-31626000D01*
X26230315Y-31693039D01*
X26177511Y-31738794D01*
X26126000Y-31750000D01*
X20874000Y-31750000D01*
X20806961Y-31730315D01*
X20761206Y-31677511D01*
X20750000Y-31626000D01*
X20750000Y-22374000D01*
X20769685Y-22306961D01*
X20822489Y-22261206D01*
X20874000Y-22250000D01*
X26126000Y-22250000D01*
X26193039Y-22269685D01*
G37*
%TD.AperFunction*%
%TD*%
%TA.AperFunction,Conductor*%
%TO.N,Net-(U10-D1)*%
G36*
X32193039Y-22269685D02*
G01*
X32238794Y-22322489D01*
X32250000Y-22374000D01*
X32250000Y-31626000D01*
X32230315Y-31693039D01*
X32177511Y-31738794D01*
X32126000Y-31750000D01*
X26874000Y-31750000D01*
X26806961Y-31730315D01*
X26761206Y-31677511D01*
X26750000Y-31626000D01*
X26750000Y-24069836D01*
X26769685Y-24002797D01*
X26786319Y-23982155D01*
X28482155Y-22286319D01*
X28543478Y-22252834D01*
X28569836Y-22250000D01*
X32126000Y-22250000D01*
X32193039Y-22269685D01*
G37*
%TD.AperFunction*%
%TD*%
%TA.AperFunction,Conductor*%
%TO.N,GDT2_B*%
G36*
X38193039Y-22269685D02*
G01*
X38238794Y-22322489D01*
X38250000Y-22374000D01*
X38250000Y-31626000D01*
X38230315Y-31693039D01*
X38177511Y-31738794D01*
X38126000Y-31750000D01*
X32874000Y-31750000D01*
X32806961Y-31730315D01*
X32761206Y-31677511D01*
X32750000Y-31626000D01*
X32750000Y-22374000D01*
X32769685Y-22306961D01*
X32822489Y-22261206D01*
X32874000Y-22250000D01*
X38126000Y-22250000D01*
X38193039Y-22269685D01*
G37*
%TD.AperFunction*%
%TD*%
M02*
