%TF.GenerationSoftware,KiCad,Pcbnew,8.0.4*%
%TF.CreationDate,2024-10-12T12:23:15-04:00*%
%TF.ProjectId,booster-tc-driver,626f6f73-7465-4722-9d74-632d64726976,rev?*%
%TF.SameCoordinates,Original*%
%TF.FileFunction,Paste,Top*%
%TF.FilePolarity,Positive*%
%FSLAX46Y46*%
G04 Gerber Fmt 4.6, Leading zero omitted, Abs format (unit mm)*
G04 Created by KiCad (PCBNEW 8.0.4) date 2024-10-12 12:23:15*
%MOMM*%
%LPD*%
G01*
G04 APERTURE LIST*
G04 Aperture macros list*
%AMRoundRect*
0 Rectangle with rounded corners*
0 $1 Rounding radius*
0 $2 $3 $4 $5 $6 $7 $8 $9 X,Y pos of 4 corners*
0 Add a 4 corners polygon primitive as box body*
4,1,4,$2,$3,$4,$5,$6,$7,$8,$9,$2,$3,0*
0 Add four circle primitives for the rounded corners*
1,1,$1+$1,$2,$3*
1,1,$1+$1,$4,$5*
1,1,$1+$1,$6,$7*
1,1,$1+$1,$8,$9*
0 Add four rect primitives between the rounded corners*
20,1,$1+$1,$2,$3,$4,$5,0*
20,1,$1+$1,$4,$5,$6,$7,0*
20,1,$1+$1,$6,$7,$8,$9,0*
20,1,$1+$1,$8,$9,$2,$3,0*%
G04 Aperture macros list end*
%ADD10C,0.000000*%
%ADD11R,1.780000X5.970000*%
%ADD12RoundRect,0.250000X0.650000X-0.412500X0.650000X0.412500X-0.650000X0.412500X-0.650000X-0.412500X0*%
%ADD13RoundRect,0.075000X-0.521491X0.415425X0.415425X-0.521491X0.521491X-0.415425X-0.415425X0.521491X0*%
%ADD14RoundRect,0.075000X-0.521491X-0.415425X-0.415425X-0.521491X0.521491X0.415425X0.415425X0.521491X0*%
%ADD15R,0.650000X2.770000*%
%ADD16R,0.406400X0.711200*%
%ADD17R,0.584200X0.508000*%
%ADD18R,1.727200X3.987800*%
%ADD19R,0.523200X0.406200*%
%ADD20R,0.532940X0.407008*%
%ADD21RoundRect,0.250000X1.100000X-0.412500X1.100000X0.412500X-1.100000X0.412500X-1.100000X-0.412500X0*%
%ADD22R,5.970000X1.780000*%
%ADD23RoundRect,0.250000X1.075000X-0.400000X1.075000X0.400000X-1.075000X0.400000X-1.075000X-0.400000X0*%
G04 APERTURE END LIST*
D10*
%TO.C,U13*%
G36*
X35363600Y-35993900D02*
G01*
X33636400Y-35993900D01*
X33633800Y-35334008D01*
X33049600Y-35334008D01*
X33049600Y-34826008D01*
X33633800Y-34826008D01*
X33636400Y-32412500D01*
X33153800Y-32412500D01*
X33153800Y-32006100D01*
X35363600Y-32006100D01*
X35363600Y-35993900D01*
G37*
G36*
X38081400Y-32412500D02*
G01*
X37598800Y-32412500D01*
X37596200Y-34826008D01*
X38180400Y-34826008D01*
X38180400Y-35334008D01*
X37596200Y-35334008D01*
X37593660Y-35993900D01*
X35866460Y-35993900D01*
X35866460Y-32006100D01*
X38116900Y-32006100D01*
X38081400Y-32412500D01*
G37*
%TO.C,U12*%
G36*
X41363600Y-35993900D02*
G01*
X39636400Y-35993900D01*
X39633800Y-35334008D01*
X39049600Y-35334008D01*
X39049600Y-34826008D01*
X39633800Y-34826008D01*
X39636400Y-32412500D01*
X39153800Y-32412500D01*
X39153800Y-32006100D01*
X41363600Y-32006100D01*
X41363600Y-35993900D01*
G37*
G36*
X44081400Y-32412500D02*
G01*
X43598800Y-32412500D01*
X43596200Y-34826008D01*
X44180400Y-34826008D01*
X44180400Y-35334008D01*
X43596200Y-35334008D01*
X43593660Y-35993900D01*
X41866460Y-35993900D01*
X41866460Y-32006100D01*
X44116900Y-32006100D01*
X44081400Y-32412500D01*
G37*
%TO.C,U11*%
G36*
X23323600Y-35993900D02*
G01*
X21596400Y-35993900D01*
X21593800Y-35334008D01*
X21009600Y-35334008D01*
X21009600Y-34826008D01*
X21593800Y-34826008D01*
X21596400Y-32412500D01*
X21113800Y-32412500D01*
X21113800Y-32006100D01*
X23323600Y-32006100D01*
X23323600Y-35993900D01*
G37*
G36*
X26041400Y-32412500D02*
G01*
X25558800Y-32412500D01*
X25556200Y-34826008D01*
X26140400Y-34826008D01*
X26140400Y-35334008D01*
X25556200Y-35334008D01*
X25553660Y-35993900D01*
X23826460Y-35993900D01*
X23826460Y-32006100D01*
X26076900Y-32006100D01*
X26041400Y-32412500D01*
G37*
%TO.C,U10*%
G36*
X29363600Y-35993900D02*
G01*
X27636400Y-35993900D01*
X27633800Y-35334008D01*
X27049600Y-35334008D01*
X27049600Y-34826008D01*
X27633800Y-34826008D01*
X27636400Y-32412500D01*
X27153800Y-32412500D01*
X27153800Y-32006100D01*
X29363600Y-32006100D01*
X29363600Y-35993900D01*
G37*
G36*
X32081400Y-32412500D02*
G01*
X31598800Y-32412500D01*
X31596200Y-34826008D01*
X32180400Y-34826008D01*
X32180400Y-35334008D01*
X31596200Y-35334008D01*
X31593660Y-35993900D01*
X29866460Y-35993900D01*
X29866460Y-32006100D01*
X32116900Y-32006100D01*
X32081400Y-32412500D01*
G37*
%TD*%
D11*
%TO.C,J7*%
X61500000Y-32250000D03*
X58960000Y-29210000D03*
%TD*%
D12*
%TO.C,C60*%
X22500000Y-28562500D03*
X22500000Y-25437500D03*
%TD*%
%TO.C,C61*%
X32500000Y-28562500D03*
X32500000Y-25437500D03*
%TD*%
D11*
%TO.C,J8*%
X61540000Y-67290000D03*
X59000000Y-64250000D03*
%TD*%
%TO.C,J6*%
X61540000Y-55290000D03*
X59000000Y-52250000D03*
%TD*%
D13*
%TO.C,U5*%
X29001212Y-58862124D03*
X28647658Y-59215678D03*
X28294105Y-59569231D03*
X27940551Y-59922785D03*
X27586998Y-60276338D03*
X27233445Y-60629891D03*
X26879891Y-60983445D03*
X26526338Y-61336998D03*
X26172785Y-61690551D03*
X25819231Y-62044105D03*
X25465678Y-62397658D03*
X25112124Y-62751212D03*
D14*
X25112124Y-64748788D03*
X25465678Y-65102342D03*
X25819231Y-65455895D03*
X26172785Y-65809449D03*
X26526338Y-66163002D03*
X26879891Y-66516555D03*
X27233445Y-66870109D03*
X27586998Y-67223662D03*
X27940551Y-67577215D03*
X28294105Y-67930769D03*
X28647658Y-68284322D03*
X29001212Y-68637876D03*
D13*
X30998788Y-68637876D03*
X31352342Y-68284322D03*
X31705895Y-67930769D03*
X32059449Y-67577215D03*
X32413002Y-67223662D03*
X32766555Y-66870109D03*
X33120109Y-66516555D03*
X33473662Y-66163002D03*
X33827215Y-65809449D03*
X34180769Y-65455895D03*
X34534322Y-65102342D03*
X34887876Y-64748788D03*
D14*
X34887876Y-62751212D03*
X34534322Y-62397658D03*
X34180769Y-62044105D03*
X33827215Y-61690551D03*
X33473662Y-61336998D03*
X33120109Y-60983445D03*
X32766555Y-60629891D03*
X32413002Y-60276338D03*
X32059449Y-59922785D03*
X31705895Y-59569231D03*
X31352342Y-59215678D03*
X30998788Y-58862124D03*
%TD*%
D15*
%TO.C,J11*%
X41420000Y-64530000D03*
X41420000Y-60500000D03*
X42690000Y-64530000D03*
X42690000Y-60500000D03*
X43960000Y-64530000D03*
X43960000Y-60500000D03*
X45230000Y-64530000D03*
X45230000Y-60500000D03*
X46500000Y-64530000D03*
X46500000Y-60500000D03*
%TD*%
D16*
%TO.C,U13*%
X33710000Y-37795009D03*
X34980000Y-37795009D03*
X36250000Y-37795009D03*
X37520000Y-37795009D03*
D17*
X33345000Y-35080008D03*
D18*
X34500000Y-34000000D03*
D19*
X33415000Y-32210008D03*
D17*
X37885000Y-35080008D03*
D18*
X36730060Y-34000000D03*
D20*
X37860130Y-32209604D03*
%TD*%
D16*
%TO.C,U12*%
X39710000Y-37795009D03*
X40980000Y-37795009D03*
X42250000Y-37795009D03*
X43520000Y-37795009D03*
D17*
X39345000Y-35080008D03*
D18*
X40500000Y-34000000D03*
D19*
X39415000Y-32210008D03*
D17*
X43885000Y-35080008D03*
D18*
X42730060Y-34000000D03*
D20*
X43860130Y-32209604D03*
%TD*%
D21*
%TO.C,C59*%
X35500000Y-28562500D03*
X35500000Y-25437500D03*
%TD*%
D22*
%TO.C,J4*%
X25210000Y-52290000D03*
X28250000Y-49750000D03*
%TD*%
D21*
%TO.C,C58*%
X25500000Y-28562500D03*
X25500000Y-25437500D03*
%TD*%
D23*
%TO.C,R29*%
X39000000Y-28550000D03*
X39000000Y-25450000D03*
%TD*%
D11*
%TO.C,J5*%
X61540000Y-43790000D03*
X59000000Y-40750000D03*
%TD*%
D16*
%TO.C,U11*%
X21670000Y-37795009D03*
X22940000Y-37795009D03*
X24210000Y-37795009D03*
X25480000Y-37795009D03*
D17*
X21305000Y-35080008D03*
D18*
X22460000Y-34000000D03*
D19*
X21375000Y-32210008D03*
D17*
X25845000Y-35080008D03*
D18*
X24690060Y-34000000D03*
D20*
X25820130Y-32209604D03*
%TD*%
D23*
%TO.C,R28*%
X29000000Y-28550000D03*
X29000000Y-25450000D03*
%TD*%
D16*
%TO.C,U10*%
X27710000Y-37795009D03*
X28980000Y-37795009D03*
X30250000Y-37795009D03*
X31520000Y-37795009D03*
D17*
X27345000Y-35080008D03*
D18*
X28500000Y-34000000D03*
D19*
X27415000Y-32210008D03*
D17*
X31885000Y-35080008D03*
D18*
X30730060Y-34000000D03*
D20*
X31860130Y-32209604D03*
%TD*%
M02*
