%TF.GenerationSoftware,KiCad,Pcbnew,8.0.1*%
%TF.CreationDate,2024-07-22T16:18:30-04:00*%
%TF.ProjectId,booster-tc-driver,626f6f73-7465-4722-9d74-632d64726976,rev?*%
%TF.SameCoordinates,Original*%
%TF.FileFunction,Copper,L3,Inr*%
%TF.FilePolarity,Positive*%
%FSLAX46Y46*%
G04 Gerber Fmt 4.6, Leading zero omitted, Abs format (unit mm)*
G04 Created by KiCad (PCBNEW 8.0.1) date 2024-07-22 16:18:30*
%MOMM*%
%LPD*%
G01*
G04 APERTURE LIST*
%TA.AperFunction,ComponentPad*%
%ADD10R,1.240000X1.240000*%
%TD*%
%TA.AperFunction,ComponentPad*%
%ADD11C,1.240000*%
%TD*%
%TA.AperFunction,ComponentPad*%
%ADD12C,1.524000*%
%TD*%
%TA.AperFunction,ComponentPad*%
%ADD13C,1.400000*%
%TD*%
%TA.AperFunction,ComponentPad*%
%ADD14R,1.100000X1.100000*%
%TD*%
%TA.AperFunction,ComponentPad*%
%ADD15C,1.100000*%
%TD*%
%TA.AperFunction,ComponentPad*%
%ADD16C,1.168400*%
%TD*%
%TA.AperFunction,ComponentPad*%
%ADD17R,1.397000X1.397000*%
%TD*%
%TA.AperFunction,ComponentPad*%
%ADD18C,1.397000*%
%TD*%
%TA.AperFunction,ComponentPad*%
%ADD19R,1.620000X1.620000*%
%TD*%
%TA.AperFunction,ComponentPad*%
%ADD20C,1.620000*%
%TD*%
%TA.AperFunction,ComponentPad*%
%ADD21C,2.020000*%
%TD*%
%TA.AperFunction,ViaPad*%
%ADD22C,0.600000*%
%TD*%
%TA.AperFunction,Conductor*%
%ADD23C,1.000000*%
%TD*%
%TA.AperFunction,Conductor*%
%ADD24C,0.200000*%
%TD*%
G04 APERTURE END LIST*
D10*
%TO.N,I_L_IN*%
%TO.C,J2*%
X49000000Y-21000000D03*
D11*
%TO.N,+24V*%
X49000000Y-19000000D03*
%TO.N,GND*%
X51000000Y-21000000D03*
%TO.N,PFC*%
X51000000Y-19000000D03*
%TO.N,GND*%
X53000000Y-21000000D03*
%TO.N,SCR*%
X53000000Y-19000000D03*
%TO.N,GND*%
X55000000Y-21000000D03*
%TO.N,VBUS_IN*%
X55000000Y-19000000D03*
%TO.N,+5V*%
X57000000Y-21000000D03*
%TO.N,VAC_IN*%
X57000000Y-19000000D03*
%TD*%
D12*
%TO.N,GND*%
%TO.C,SW1*%
X23260000Y-71840000D03*
X23260000Y-82000000D03*
X25800000Y-82000000D03*
%TO.N,Net-(SW1-B)*%
X23260000Y-74380000D03*
%TO.N,VDD*%
X23260000Y-76920000D03*
%TD*%
D13*
%TO.N,GND*%
%TO.C,U6*%
X35600000Y-84482500D03*
%TO.N,INT*%
X33695000Y-84482500D03*
%TO.N,+5V*%
X31790000Y-84482500D03*
%TD*%
%TO.N,Net-(U5-K)*%
%TO.C,U5*%
X55870000Y-84482500D03*
%TO.N,+5V*%
X53330000Y-84482500D03*
%TD*%
D14*
%TO.N,VDD*%
%TO.C,C3*%
X36450000Y-70900000D03*
D15*
%TO.N,GND*%
X32950000Y-70900000D03*
%TD*%
D14*
%TO.N,VDRIVE*%
%TO.C,C43*%
X33300000Y-32750000D03*
D15*
%TO.N,GND*%
X33300000Y-29250000D03*
%TD*%
D16*
%TO.N,VDD*%
%TO.C,J1*%
X62230000Y-66730000D03*
%TO.N,TMS*%
X63500000Y-66730000D03*
%TO.N,GND*%
X62230000Y-68000000D03*
%TO.N,TCK*%
X63500000Y-68000000D03*
%TO.N,GND*%
X62230000Y-69270000D03*
%TO.N,TDO*%
X63500000Y-69270000D03*
%TO.N,unconnected-(J1-Pad7)*%
X62230000Y-70540000D03*
%TO.N,TDI*%
X63500000Y-70540000D03*
%TO.N,GND*%
X62230000Y-71810000D03*
%TO.N,RST*%
X63500000Y-71810000D03*
%TD*%
D17*
%TO.N,+24V*%
%TO.C,C21*%
X35000000Y-24000000D03*
D18*
%TO.N,GND*%
X35000000Y-19000000D03*
%TD*%
D19*
%TO.N,+5V*%
%TO.C,D16*%
X63804000Y-80980000D03*
D20*
%TO.N,Net-(IC4-LED1)*%
X61264000Y-80980000D03*
%TO.N,+5V*%
X63804000Y-78440000D03*
%TO.N,Net-(IC4-LED2)*%
X61264000Y-78440000D03*
%TO.N,+5V*%
X63804000Y-75900000D03*
%TO.N,Net-(IC4-LED3)*%
X61264000Y-75900000D03*
%TD*%
D13*
%TO.N,GND*%
%TO.C,U4*%
X46200000Y-84482500D03*
%TO.N,USART_RX*%
X44295000Y-84482500D03*
%TO.N,+5V*%
X42390000Y-84482500D03*
%TD*%
D14*
%TO.N,+12V*%
%TO.C,C45*%
X26500000Y-27950000D03*
D15*
%TO.N,GND*%
X26500000Y-24450000D03*
%TD*%
D21*
%TO.N,GND*%
%TO.C,J6*%
X25000000Y-17750000D03*
%TO.N,+24V*%
X25000000Y-20290000D03*
%TD*%
%TO.N,GDT1_B*%
%TO.C,J4*%
X49500000Y-28040000D03*
%TO.N,GDT1_A*%
X49500000Y-25500000D03*
%TD*%
%TO.N,GDT2_B*%
%TO.C,J5*%
X56500000Y-28040000D03*
%TO.N,GDT2_A*%
X56500000Y-25500000D03*
%TD*%
D22*
%TO.N,GND*%
X51100000Y-74900000D03*
X35200000Y-55400000D03*
X56000000Y-46750000D03*
X67500000Y-64500000D03*
X29000000Y-31500000D03*
X29000000Y-43000000D03*
X18000000Y-17000000D03*
X67500000Y-67000000D03*
X43000000Y-64600000D03*
X46200000Y-58400000D03*
X67500000Y-84500000D03*
X67500000Y-44500000D03*
X45900000Y-72300000D03*
X43900000Y-54500000D03*
X18000000Y-29500000D03*
X46800000Y-51100000D03*
X62750000Y-50000000D03*
X18000000Y-27000000D03*
X67500000Y-27000000D03*
X18000000Y-69500000D03*
X67500000Y-59500000D03*
X18000000Y-67000000D03*
X67500000Y-17000000D03*
X67500000Y-74500000D03*
X47600000Y-35900000D03*
X50300000Y-60600000D03*
X42600000Y-54800000D03*
X67500000Y-22000000D03*
X47400000Y-55200000D03*
X46250000Y-45000000D03*
X67500000Y-19500000D03*
X47700000Y-68500000D03*
X18000000Y-32000000D03*
X42600000Y-49500000D03*
X29500000Y-36300000D03*
X26000000Y-31000000D03*
X57400000Y-83800000D03*
X18000000Y-74500000D03*
X27400000Y-43200000D03*
X67500000Y-37000000D03*
X67500000Y-24500000D03*
X50250000Y-50000000D03*
X58529926Y-70613775D03*
X67500000Y-32000000D03*
X18000000Y-59500000D03*
X31600000Y-53100000D03*
X60000000Y-51800000D03*
X31065686Y-39400000D03*
X18000000Y-52000000D03*
X54000000Y-37000000D03*
X18000000Y-57000000D03*
X58400000Y-55800000D03*
X18000000Y-84500000D03*
X53209065Y-62070908D03*
X18000000Y-24500000D03*
X67500000Y-87000000D03*
X67500000Y-47000000D03*
X18000000Y-54500000D03*
X18000000Y-22000000D03*
X18000000Y-87000000D03*
X55531387Y-71038612D03*
X18000000Y-19500000D03*
X67500000Y-57000000D03*
X46250000Y-45750000D03*
X18000000Y-72000000D03*
X38500000Y-74200000D03*
X67500000Y-79500000D03*
X63250000Y-46750000D03*
X18000000Y-79500000D03*
X49400000Y-65000000D03*
X18000000Y-82000000D03*
X67500000Y-29500000D03*
X67500000Y-42000000D03*
X67500000Y-39500000D03*
X67500000Y-52000000D03*
X41345000Y-38945000D03*
X18000000Y-42000000D03*
X67500000Y-62000000D03*
X32000000Y-49750000D03*
X67500000Y-72000000D03*
X28300000Y-43000000D03*
X48400000Y-80200000D03*
X67500000Y-69500000D03*
X60900000Y-62700000D03*
X18000000Y-37000000D03*
X53250000Y-43250000D03*
X61250000Y-38000000D03*
X18000000Y-44500000D03*
X18000000Y-49500000D03*
X49500000Y-72000000D03*
X67500000Y-77000000D03*
X18000000Y-47000000D03*
X67500000Y-49500000D03*
X28600000Y-62500000D03*
X57000000Y-66900000D03*
X67500000Y-82000000D03*
X18000000Y-62000000D03*
X44400000Y-62200000D03*
X67500000Y-34500000D03*
X18000000Y-39500000D03*
X18000000Y-77000000D03*
X55100000Y-75800000D03*
X18000000Y-34500000D03*
X18000000Y-64500000D03*
X67500000Y-54500000D03*
%TO.N,+5V*%
X29500000Y-30500000D03*
X26100000Y-65900000D03*
X26750000Y-65800000D03*
X61750000Y-46500000D03*
%TO.N,VDD*%
X29500000Y-62500000D03*
X58750000Y-69500000D03*
X41100000Y-54400000D03*
X51100000Y-75700000D03*
X59300000Y-75600000D03*
X28500000Y-71000000D03*
X52214807Y-61691149D03*
X28500000Y-71750000D03*
X58137500Y-62537500D03*
X50500000Y-80200000D03*
X29250000Y-71750000D03*
X29250000Y-71000000D03*
X45800000Y-68600000D03*
%TO.N,Net-(U8-DT)*%
X49000000Y-57500000D03*
%TO.N,+12V*%
X59200000Y-52445001D03*
X20700000Y-50900000D03*
X45000000Y-56200000D03*
X29100000Y-27400000D03*
X21050000Y-27950000D03*
%TO.N,+24V*%
X39300000Y-70300000D03*
X51000000Y-48750000D03*
X25800000Y-43250000D03*
X47600000Y-32500000D03*
X47000000Y-31800000D03*
X25900000Y-44000000D03*
X25600000Y-42500000D03*
X50500000Y-48000000D03*
X51500000Y-49250000D03*
X62800000Y-31600000D03*
%TO.N,Net-(D11-A)*%
X45250000Y-38250000D03*
X40600000Y-40800000D03*
%TO.N,VAC_SENSE*%
X59750000Y-68750000D03*
%TO.N,VREF*%
X56307988Y-70846531D03*
%TO.N,THERM2*%
X37100000Y-64200000D03*
X52400000Y-67000000D03*
X51900000Y-69900000D03*
%TO.N,I_L*%
X56500000Y-65600000D03*
%TO.N,VBUS_SENSE*%
X58600000Y-65500000D03*
%TO.N,I_PRI*%
X32200000Y-62900000D03*
X53240598Y-67092897D03*
%TO.N,VFAN_OUT*%
X63300003Y-50900000D03*
X62600000Y-50900000D03*
X51900000Y-55500000D03*
X51900000Y-54800000D03*
X33750000Y-44900000D03*
%TO.N,THERM1*%
X39100000Y-62700000D03*
X53000000Y-68121933D03*
%TO.N,DRIVE_EN*%
X55400000Y-63500000D03*
%TO.N,CT-*%
X26400000Y-58400000D03*
%TO.N,CT+*%
X28500000Y-60300000D03*
%TO.N,Net-(IC4-RSET1)*%
X41400000Y-71300000D03*
%TO.N,SPI_CLK*%
X28100000Y-28500000D03*
X62349940Y-63649492D03*
%TO.N,SPI_MOSI*%
X61756333Y-64149225D03*
X28250000Y-34500000D03*
%TO.N,Net-(IC4-RSET3)*%
X44200000Y-71300000D03*
%TO.N,Net-(IC4-RSET2)*%
X42700000Y-71300000D03*
%TO.N,Net-(U9-DT)*%
X61400000Y-55700000D03*
%TO.N,Net-(D17-A)*%
X62200000Y-37250000D03*
X64175000Y-37425000D03*
%TO.N,Net-(IC9-G1)*%
X60600000Y-43500000D03*
X56200000Y-38000000D03*
%TO.N,GDT1_DIS*%
X54250000Y-58900000D03*
X53250000Y-58899997D03*
%TO.N,GDT2_DIS*%
X54800000Y-59400000D03*
X55900000Y-58700000D03*
%TO.N,CS_FAN*%
X54100228Y-62891501D03*
%TO.N,CS_DRIVE*%
X28250000Y-33500000D03*
X61000000Y-64100000D03*
%TO.N,RST*%
X55200000Y-67500000D03*
%TO.N,PFC*%
X44900000Y-63750000D03*
X56200000Y-64600000D03*
%TO.N,SCR*%
X45400000Y-64250000D03*
X55650000Y-65100000D03*
%TO.N,USART_TX*%
X61000000Y-83600000D03*
%TO.N,USART_RX*%
X53407103Y-66092897D03*
X40200000Y-72300000D03*
X45000000Y-67800000D03*
%TO.N,INT*%
X38800000Y-83400000D03*
%TO.N,MODE_IN*%
X25800000Y-86100000D03*
%TO.N,FAN_EN*%
X54011383Y-62197160D03*
%TO.N,GDT_B*%
X55400000Y-59900000D03*
X53250000Y-59600000D03*
%TO.N,24V_SENSE*%
X48700000Y-73900000D03*
%TO.N,TDO*%
X64303554Y-61196446D03*
%TO.N,Net-(Q2-D)*%
X29800000Y-41600000D03*
X30400000Y-41600000D03*
%TO.N,PMP_EN*%
X36499998Y-46650000D03*
%TO.N,I_L_IN*%
X43100261Y-57385914D03*
%TO.N,VAC_IN*%
X40300000Y-65600000D03*
%TO.N,VBUS_IN*%
X30100000Y-50800000D03*
%TD*%
D23*
%TO.N,+5V*%
X56125000Y-52000000D02*
X65750000Y-42375000D01*
X65750000Y-42375000D02*
X65750000Y-21250000D01*
X26835786Y-32250000D02*
X21000000Y-32250000D01*
X27500000Y-65050000D02*
X27500000Y-52720000D01*
D24*
X29500000Y-30500000D02*
X29151471Y-30500000D01*
D23*
X26200000Y-65800000D02*
X26100000Y-65900000D01*
X27500000Y-52720000D02*
X26780000Y-52000000D01*
X29500000Y-30500000D02*
X28585786Y-30500000D01*
X20500000Y-49100000D02*
X23400000Y-52000000D01*
X65750000Y-21250000D02*
X65500000Y-21000000D01*
X65500000Y-21000000D02*
X57000000Y-21000000D01*
X28585786Y-30500000D02*
X26835786Y-32250000D01*
X26750000Y-65800000D02*
X27500000Y-65050000D01*
X20500000Y-32750000D02*
X20500000Y-49100000D01*
X21000000Y-32250000D02*
X20500000Y-32750000D01*
X26750000Y-65800000D02*
X26200000Y-65800000D01*
X26780000Y-52000000D02*
X56125000Y-52000000D01*
X23400000Y-52000000D02*
X26780000Y-52000000D01*
D24*
%TO.N,Net-(D11-A)*%
X40900000Y-41100000D02*
X42400000Y-41100000D01*
X42400000Y-41100000D02*
X45250000Y-38250000D01*
X40600000Y-40800000D02*
X40900000Y-41100000D01*
%TO.N,THERM2*%
X52400000Y-69400000D02*
X51900000Y-69900000D01*
X52400000Y-67000000D02*
X52400000Y-69400000D01*
D23*
%TO.N,VFAN_OUT*%
X52600000Y-53100000D02*
X51900000Y-53800000D01*
X51900000Y-53800000D02*
X51900000Y-55500000D01*
X58800000Y-50900000D02*
X56600000Y-53100000D01*
X56600000Y-53100000D02*
X52600000Y-53100000D01*
X63300003Y-50900000D02*
X58800000Y-50900000D01*
D24*
%TO.N,SPI_CLK*%
X66400000Y-81572792D02*
X65072792Y-82900000D01*
X28774264Y-83900000D02*
X20877208Y-83900000D01*
X62349940Y-63649492D02*
X64172284Y-63649492D01*
X65072792Y-82900000D02*
X29774264Y-82900000D01*
X20877208Y-83900000D02*
X18850000Y-81872792D01*
X29774264Y-82900000D02*
X28774264Y-83900000D01*
X22028680Y-29100000D02*
X27500000Y-29100000D01*
X64172284Y-63649492D02*
X66400000Y-65877208D01*
X18850000Y-32278680D02*
X22028680Y-29100000D01*
X18850000Y-81872792D02*
X18850000Y-32278680D01*
X66400000Y-65877208D02*
X66400000Y-81572792D01*
X27500000Y-29100000D02*
X28100000Y-28500000D01*
%TO.N,SPI_MOSI*%
X30600000Y-30075736D02*
X30600000Y-32100000D01*
X28250000Y-34450000D02*
X28250000Y-34500000D01*
X22152944Y-29400000D02*
X29924264Y-29400000D01*
X29924264Y-29400000D02*
X30600000Y-30075736D01*
X28650000Y-83600000D02*
X21001472Y-83600000D01*
X66100000Y-81448528D02*
X64948528Y-82600000D01*
X29650000Y-82600000D02*
X28650000Y-83600000D01*
X64247753Y-64149225D02*
X66100000Y-66001472D01*
X19150000Y-32402944D02*
X22152944Y-29400000D01*
X66100000Y-66001472D02*
X66100000Y-81448528D01*
X19150000Y-81748528D02*
X19150000Y-32402944D01*
X30600000Y-32100000D02*
X28250000Y-34450000D01*
X61756333Y-64149225D02*
X64247753Y-64149225D01*
X21001472Y-83600000D02*
X19150000Y-81748528D01*
X64948528Y-82600000D02*
X29650000Y-82600000D01*
%TO.N,Net-(D17-A)*%
X62200000Y-37250000D02*
X64000000Y-37250000D01*
X64000000Y-37250000D02*
X64175000Y-37425000D01*
%TO.N,Net-(IC9-G1)*%
X57800000Y-39600000D02*
X57800000Y-41550000D01*
X56200000Y-38000000D02*
X57800000Y-39600000D01*
X57800000Y-41550000D02*
X59750000Y-43500000D01*
X59750000Y-43500000D02*
X60600000Y-43500000D01*
%TO.N,GDT1_DIS*%
X53250003Y-58900000D02*
X53250000Y-58899997D01*
X54250000Y-58900000D02*
X53250003Y-58900000D01*
%TO.N,GDT2_DIS*%
X54800000Y-59100000D02*
X55200000Y-58700000D01*
X54800000Y-59400000D02*
X54800000Y-59100000D01*
X55900000Y-58700000D02*
X55800000Y-58700000D01*
X55200000Y-58700000D02*
X55900000Y-58700000D01*
%TO.N,CS_DRIVE*%
X29800000Y-29700000D02*
X30300000Y-30200000D01*
X19450000Y-81624264D02*
X19450000Y-32527208D01*
X65800000Y-66125736D02*
X65800000Y-81324264D01*
X61900000Y-65000000D02*
X64674264Y-65000000D01*
X29500000Y-82300000D02*
X28500000Y-83300000D01*
X19450000Y-32527208D02*
X22277208Y-29700000D01*
X28500000Y-83300000D02*
X21125736Y-83300000D01*
X21125736Y-83300000D02*
X19450000Y-81624264D01*
X65800000Y-81324264D02*
X64824264Y-82300000D01*
X22277208Y-29700000D02*
X29800000Y-29700000D01*
X30300000Y-31450000D02*
X28250000Y-33500000D01*
X61000000Y-64100000D02*
X61900000Y-65000000D01*
X30300000Y-30200000D02*
X30300000Y-31450000D01*
X64674264Y-65000000D02*
X65800000Y-66125736D01*
X64824264Y-82300000D02*
X29500000Y-82300000D01*
%TO.N,GDT_B*%
X53257107Y-59607107D02*
X54300000Y-59607107D01*
X53250000Y-59600000D02*
X53257107Y-59607107D01*
X54300000Y-59607107D02*
X54592893Y-59900000D01*
X54592893Y-59900000D02*
X55400000Y-59900000D01*
%TD*%
%TA.AperFunction,Conductor*%
%TO.N,VDD*%
G36*
X21854309Y-51519685D02*
G01*
X21874951Y-51536319D01*
X22391013Y-52052380D01*
X22817048Y-52478415D01*
X22817049Y-52478416D01*
X22921584Y-52582951D01*
X22921585Y-52582952D01*
X23044498Y-52665080D01*
X23044511Y-52665087D01*
X23181082Y-52721656D01*
X23181087Y-52721658D01*
X23181091Y-52721658D01*
X23181092Y-52721659D01*
X23326079Y-52750500D01*
X23326082Y-52750500D01*
X26417770Y-52750500D01*
X26484809Y-52770185D01*
X26505451Y-52786819D01*
X26713181Y-52994549D01*
X26746666Y-53055872D01*
X26749500Y-53082230D01*
X26749500Y-57763332D01*
X26729815Y-57830371D01*
X26677011Y-57876126D01*
X26607853Y-57886070D01*
X26578049Y-57877894D01*
X26573781Y-57876126D01*
X26543709Y-57863670D01*
X26471854Y-57854210D01*
X26400001Y-57844750D01*
X26399999Y-57844750D01*
X26256291Y-57863670D01*
X26256287Y-57863671D01*
X26122377Y-57919137D01*
X26007379Y-58007379D01*
X25919137Y-58122377D01*
X25863671Y-58256287D01*
X25863670Y-58256291D01*
X25844750Y-58399999D01*
X25844750Y-58400000D01*
X25863670Y-58543708D01*
X25863671Y-58543712D01*
X25919137Y-58677622D01*
X25919138Y-58677624D01*
X25919139Y-58677625D01*
X26007379Y-58792621D01*
X26122375Y-58880861D01*
X26256291Y-58936330D01*
X26383280Y-58953048D01*
X26399999Y-58955250D01*
X26400000Y-58955250D01*
X26400001Y-58955250D01*
X26435927Y-58950520D01*
X26543709Y-58936330D01*
X26578050Y-58922105D01*
X26647516Y-58914637D01*
X26709995Y-58945911D01*
X26745648Y-59006000D01*
X26749500Y-59036667D01*
X26749500Y-64687770D01*
X26729815Y-64754809D01*
X26713181Y-64775451D01*
X26475451Y-65013181D01*
X26414128Y-65046666D01*
X26387770Y-65049500D01*
X26126080Y-65049500D01*
X25981092Y-65078340D01*
X25981082Y-65078343D01*
X25844511Y-65134912D01*
X25844498Y-65134919D01*
X25721584Y-65217048D01*
X25721580Y-65217051D01*
X25517052Y-65421578D01*
X25517052Y-65421579D01*
X25517049Y-65421582D01*
X25517048Y-65421584D01*
X25493861Y-65456287D01*
X25434918Y-65544502D01*
X25434914Y-65544509D01*
X25378342Y-65681087D01*
X25378340Y-65681093D01*
X25349500Y-65826080D01*
X25349500Y-65826083D01*
X25349500Y-65973917D01*
X25349500Y-65973919D01*
X25349499Y-65973919D01*
X25378340Y-66118906D01*
X25378342Y-66118912D01*
X25427093Y-66236609D01*
X25434916Y-66255494D01*
X25517048Y-66378416D01*
X25517052Y-66378420D01*
X25517052Y-66378421D01*
X25621578Y-66482947D01*
X25621581Y-66482949D01*
X25621584Y-66482952D01*
X25744506Y-66565084D01*
X25881088Y-66621658D01*
X25881092Y-66621658D01*
X25881093Y-66621659D01*
X26026080Y-66650500D01*
X26026083Y-66650500D01*
X26173919Y-66650500D01*
X26315307Y-66622375D01*
X26318912Y-66621658D01*
X26455494Y-66565084D01*
X26455495Y-66565083D01*
X26461121Y-66562753D01*
X26461478Y-66563614D01*
X26513839Y-66550500D01*
X26823920Y-66550500D01*
X26921462Y-66531096D01*
X26968913Y-66521658D01*
X27105495Y-66465084D01*
X27174257Y-66419139D01*
X27174260Y-66419136D01*
X27174262Y-66419136D01*
X27219915Y-66388632D01*
X27228416Y-66382952D01*
X28011367Y-65600000D01*
X39744750Y-65600000D01*
X39763434Y-65741920D01*
X39763670Y-65743708D01*
X39763671Y-65743712D01*
X39819137Y-65877622D01*
X39819138Y-65877624D01*
X39819139Y-65877625D01*
X39907379Y-65992621D01*
X40022375Y-66080861D01*
X40156291Y-66136330D01*
X40283280Y-66153048D01*
X40299999Y-66155250D01*
X40300000Y-66155250D01*
X40300001Y-66155250D01*
X40314977Y-66153278D01*
X40443709Y-66136330D01*
X40577625Y-66080861D01*
X40692621Y-65992621D01*
X40780861Y-65877625D01*
X40836330Y-65743709D01*
X40855250Y-65600000D01*
X40836330Y-65456291D01*
X40782617Y-65326614D01*
X40780862Y-65322377D01*
X40780861Y-65322376D01*
X40780861Y-65322375D01*
X40692621Y-65207379D01*
X40577625Y-65119139D01*
X40577624Y-65119138D01*
X40577622Y-65119137D01*
X40443712Y-65063671D01*
X40443710Y-65063670D01*
X40443709Y-65063670D01*
X40371854Y-65054210D01*
X40300001Y-65044750D01*
X40299999Y-65044750D01*
X40156291Y-65063670D01*
X40156287Y-65063671D01*
X40022377Y-65119137D01*
X39907379Y-65207379D01*
X39819137Y-65322377D01*
X39763671Y-65456287D01*
X39763670Y-65456291D01*
X39747270Y-65580862D01*
X39744750Y-65600000D01*
X28011367Y-65600000D01*
X28082951Y-65528416D01*
X28165084Y-65405495D01*
X28221658Y-65268913D01*
X28246563Y-65143712D01*
X28250500Y-65123920D01*
X28250500Y-64200000D01*
X36544750Y-64200000D01*
X36563670Y-64343708D01*
X36563671Y-64343712D01*
X36619137Y-64477622D01*
X36619138Y-64477624D01*
X36619139Y-64477625D01*
X36707379Y-64592621D01*
X36822375Y-64680861D01*
X36956291Y-64736330D01*
X37083280Y-64753048D01*
X37099999Y-64755250D01*
X37100000Y-64755250D01*
X37100001Y-64755250D01*
X37114977Y-64753278D01*
X37243709Y-64736330D01*
X37377625Y-64680861D01*
X37483005Y-64600000D01*
X42444750Y-64600000D01*
X42463067Y-64739132D01*
X42463670Y-64743708D01*
X42463671Y-64743712D01*
X42519137Y-64877622D01*
X42519138Y-64877623D01*
X42519139Y-64877625D01*
X42607379Y-64992621D01*
X42722375Y-65080861D01*
X42856291Y-65136330D01*
X42983280Y-65153048D01*
X42999999Y-65155250D01*
X43000000Y-65155250D01*
X43000001Y-65155250D01*
X43014977Y-65153278D01*
X43143709Y-65136330D01*
X43277625Y-65080861D01*
X43383005Y-65000000D01*
X48844750Y-65000000D01*
X48862698Y-65136329D01*
X48863670Y-65143708D01*
X48863671Y-65143712D01*
X48919137Y-65277622D01*
X48919138Y-65277624D01*
X48919139Y-65277625D01*
X49007379Y-65392621D01*
X49122375Y-65480861D01*
X49122376Y-65480861D01*
X49122377Y-65480862D01*
X49167013Y-65499350D01*
X49256291Y-65536330D01*
X49383280Y-65553048D01*
X49399999Y-65555250D01*
X49400000Y-65555250D01*
X49400001Y-65555250D01*
X49414977Y-65553278D01*
X49543709Y-65536330D01*
X49677625Y-65480861D01*
X49792621Y-65392621D01*
X49880861Y-65277625D01*
X49936330Y-65143709D01*
X49942085Y-65100000D01*
X55094750Y-65100000D01*
X55113670Y-65243708D01*
X55113671Y-65243712D01*
X55169137Y-65377622D01*
X55169138Y-65377624D01*
X55169139Y-65377625D01*
X55257379Y-65492621D01*
X55372375Y-65580861D01*
X55506291Y-65636330D01*
X55633280Y-65653048D01*
X55649999Y-65655250D01*
X55650000Y-65655250D01*
X55650001Y-65655250D01*
X55664977Y-65653278D01*
X55793709Y-65636330D01*
X55793717Y-65636326D01*
X55801560Y-65634226D01*
X55802010Y-65635908D01*
X55861634Y-65629493D01*
X55924116Y-65660762D01*
X55959774Y-65720848D01*
X55962567Y-65735333D01*
X55963670Y-65743708D01*
X55963670Y-65743709D01*
X55963671Y-65743712D01*
X56019137Y-65877622D01*
X56019138Y-65877624D01*
X56019139Y-65877625D01*
X56107379Y-65992621D01*
X56222375Y-66080861D01*
X56356291Y-66136330D01*
X56483280Y-66153048D01*
X56499999Y-66155250D01*
X56500000Y-66155250D01*
X56500001Y-66155250D01*
X56514977Y-66153278D01*
X56643709Y-66136330D01*
X56777625Y-66080861D01*
X56892621Y-65992621D01*
X56980861Y-65877625D01*
X57036330Y-65743709D01*
X57055250Y-65600000D01*
X57042085Y-65500000D01*
X58044750Y-65500000D01*
X58062698Y-65636329D01*
X58063670Y-65643708D01*
X58063671Y-65643712D01*
X58119137Y-65777622D01*
X58119138Y-65777624D01*
X58119139Y-65777625D01*
X58207379Y-65892621D01*
X58322375Y-65980861D01*
X58322376Y-65980861D01*
X58322377Y-65980862D01*
X58367013Y-65999350D01*
X58456291Y-66036330D01*
X58583280Y-66053048D01*
X58599999Y-66055250D01*
X58600000Y-66055250D01*
X58600001Y-66055250D01*
X58614977Y-66053278D01*
X58743709Y-66036330D01*
X58877625Y-65980861D01*
X58992621Y-65892621D01*
X59080861Y-65777625D01*
X59136330Y-65643709D01*
X59155250Y-65500000D01*
X59136330Y-65356291D01*
X59080861Y-65222375D01*
X58992621Y-65107379D01*
X58877625Y-65019139D01*
X58877624Y-65019138D01*
X58877622Y-65019137D01*
X58743712Y-64963671D01*
X58743710Y-64963670D01*
X58743709Y-64963670D01*
X58671854Y-64954210D01*
X58600001Y-64944750D01*
X58599999Y-64944750D01*
X58456291Y-64963670D01*
X58456287Y-64963671D01*
X58322377Y-65019137D01*
X58207379Y-65107379D01*
X58119137Y-65222377D01*
X58063671Y-65356287D01*
X58063670Y-65356291D01*
X58045722Y-65492620D01*
X58044750Y-65500000D01*
X57042085Y-65500000D01*
X57036330Y-65456291D01*
X56982617Y-65326614D01*
X56980862Y-65322377D01*
X56980861Y-65322376D01*
X56980861Y-65322375D01*
X56892621Y-65207379D01*
X56777625Y-65119139D01*
X56777624Y-65119138D01*
X56777622Y-65119137D01*
X56712873Y-65092318D01*
X56658469Y-65048478D01*
X56636404Y-64982184D01*
X56653683Y-64914484D01*
X56661950Y-64902270D01*
X56680861Y-64877625D01*
X56736330Y-64743709D01*
X56755250Y-64600000D01*
X56736330Y-64456291D01*
X56680861Y-64322375D01*
X56592621Y-64207379D01*
X56477625Y-64119139D01*
X56477624Y-64119138D01*
X56477622Y-64119137D01*
X56343712Y-64063671D01*
X56343710Y-64063670D01*
X56343709Y-64063670D01*
X56271854Y-64054210D01*
X56200001Y-64044750D01*
X56199999Y-64044750D01*
X56056291Y-64063670D01*
X56056287Y-64063671D01*
X55922377Y-64119137D01*
X55807379Y-64207379D01*
X55719137Y-64322377D01*
X55663669Y-64456291D01*
X55661566Y-64464142D01*
X55658637Y-64463357D01*
X55636201Y-64514054D01*
X55577871Y-64552517D01*
X55557727Y-64556898D01*
X55506291Y-64563670D01*
X55506287Y-64563671D01*
X55372377Y-64619137D01*
X55257379Y-64707379D01*
X55169137Y-64822377D01*
X55113671Y-64956287D01*
X55113670Y-64956291D01*
X55094750Y-65099999D01*
X55094750Y-65100000D01*
X49942085Y-65100000D01*
X49955250Y-65000000D01*
X49936330Y-64856291D01*
X49886641Y-64736329D01*
X49880862Y-64722377D01*
X49880861Y-64722376D01*
X49880861Y-64722375D01*
X49792621Y-64607379D01*
X49677625Y-64519139D01*
X49677624Y-64519138D01*
X49677622Y-64519137D01*
X49543712Y-64463671D01*
X49543710Y-64463670D01*
X49543709Y-64463670D01*
X49471854Y-64454210D01*
X49400001Y-64444750D01*
X49399999Y-64444750D01*
X49256291Y-64463670D01*
X49256287Y-64463671D01*
X49122377Y-64519137D01*
X49007379Y-64607379D01*
X48919137Y-64722377D01*
X48863671Y-64856287D01*
X48863670Y-64856291D01*
X48845722Y-64992620D01*
X48844750Y-65000000D01*
X43383005Y-65000000D01*
X43392621Y-64992621D01*
X43480861Y-64877625D01*
X43536330Y-64743709D01*
X43555250Y-64600000D01*
X43536330Y-64456291D01*
X43480861Y-64322375D01*
X43392621Y-64207379D01*
X43277625Y-64119139D01*
X43277624Y-64119138D01*
X43277622Y-64119137D01*
X43143712Y-64063671D01*
X43143710Y-64063670D01*
X43143709Y-64063670D01*
X43071854Y-64054210D01*
X43000001Y-64044750D01*
X42999999Y-64044750D01*
X42856291Y-64063670D01*
X42856287Y-64063671D01*
X42722377Y-64119137D01*
X42607379Y-64207379D01*
X42519137Y-64322377D01*
X42463671Y-64456287D01*
X42463670Y-64456291D01*
X42445722Y-64592620D01*
X42444750Y-64600000D01*
X37483005Y-64600000D01*
X37492621Y-64592621D01*
X37580861Y-64477625D01*
X37636330Y-64343709D01*
X37655250Y-64200000D01*
X37636330Y-64056291D01*
X37580861Y-63922375D01*
X37492621Y-63807379D01*
X37417844Y-63750000D01*
X44344750Y-63750000D01*
X44363670Y-63893708D01*
X44363671Y-63893712D01*
X44419137Y-64027622D01*
X44419138Y-64027624D01*
X44419139Y-64027625D01*
X44507379Y-64142621D01*
X44622375Y-64230861D01*
X44622376Y-64230861D01*
X44622377Y-64230862D01*
X44667013Y-64249350D01*
X44756291Y-64286330D01*
X44756838Y-64286402D01*
X44757264Y-64286590D01*
X44764141Y-64288433D01*
X44763853Y-64289505D01*
X44820734Y-64314664D01*
X44859209Y-64372986D01*
X44863597Y-64393153D01*
X44863670Y-64393710D01*
X44919137Y-64527622D01*
X44919138Y-64527624D01*
X44919139Y-64527625D01*
X45007379Y-64642621D01*
X45122375Y-64730861D01*
X45122376Y-64730861D01*
X45122377Y-64730862D01*
X45167013Y-64749350D01*
X45256291Y-64786330D01*
X45383280Y-64803048D01*
X45399999Y-64805250D01*
X45400000Y-64805250D01*
X45400001Y-64805250D01*
X45414977Y-64803278D01*
X45543709Y-64786330D01*
X45677625Y-64730861D01*
X45792621Y-64642621D01*
X45880861Y-64527625D01*
X45936330Y-64393709D01*
X45955250Y-64250000D01*
X45936330Y-64106291D01*
X45899350Y-64017013D01*
X45880862Y-63972377D01*
X45880861Y-63972376D01*
X45880861Y-63972375D01*
X45792621Y-63857379D01*
X45677625Y-63769139D01*
X45677624Y-63769138D01*
X45677622Y-63769137D01*
X45543710Y-63713670D01*
X45543491Y-63713641D01*
X45543152Y-63713596D01*
X45542716Y-63713403D01*
X45535858Y-63711566D01*
X45536144Y-63710496D01*
X45479257Y-63685329D01*
X45440787Y-63627003D01*
X45436402Y-63606844D01*
X45436330Y-63606291D01*
X45394697Y-63505778D01*
X45392304Y-63500000D01*
X54844750Y-63500000D01*
X54858815Y-63606836D01*
X54863670Y-63643708D01*
X54863671Y-63643712D01*
X54919137Y-63777622D01*
X54919138Y-63777624D01*
X54919139Y-63777625D01*
X55007379Y-63892621D01*
X55122375Y-63980861D01*
X55256291Y-64036330D01*
X55383280Y-64053048D01*
X55399999Y-64055250D01*
X55400000Y-64055250D01*
X55400001Y-64055250D01*
X55414977Y-64053278D01*
X55543709Y-64036330D01*
X55677625Y-63980861D01*
X55792621Y-63892621D01*
X55880861Y-63777625D01*
X55936330Y-63643709D01*
X55955250Y-63500000D01*
X55936330Y-63356291D01*
X55895152Y-63256876D01*
X55880862Y-63222377D01*
X55880861Y-63222376D01*
X55880861Y-63222375D01*
X55792621Y-63107379D01*
X55677625Y-63019139D01*
X55677624Y-63019138D01*
X55677622Y-63019137D01*
X55543712Y-62963671D01*
X55543710Y-62963670D01*
X55543709Y-62963670D01*
X55471854Y-62954210D01*
X55400001Y-62944750D01*
X55399999Y-62944750D01*
X55256291Y-62963670D01*
X55256287Y-62963671D01*
X55122377Y-63019137D01*
X55007379Y-63107379D01*
X54919137Y-63222377D01*
X54863671Y-63356287D01*
X54863670Y-63356291D01*
X54850642Y-63455250D01*
X54844750Y-63500000D01*
X45392304Y-63500000D01*
X45380862Y-63472377D01*
X45380861Y-63472376D01*
X45380861Y-63472375D01*
X45292621Y-63357379D01*
X45177625Y-63269139D01*
X45177624Y-63269138D01*
X45177622Y-63269137D01*
X45043712Y-63213671D01*
X45043710Y-63213670D01*
X45043709Y-63213670D01*
X44971854Y-63204210D01*
X44900001Y-63194750D01*
X44899999Y-63194750D01*
X44756291Y-63213670D01*
X44756287Y-63213671D01*
X44622377Y-63269137D01*
X44507379Y-63357379D01*
X44419137Y-63472377D01*
X44363671Y-63606287D01*
X44363670Y-63606291D01*
X44344750Y-63749999D01*
X44344750Y-63750000D01*
X37417844Y-63750000D01*
X37377625Y-63719139D01*
X37377624Y-63719138D01*
X37377622Y-63719137D01*
X37243712Y-63663671D01*
X37243710Y-63663670D01*
X37243709Y-63663670D01*
X37171854Y-63654210D01*
X37100001Y-63644750D01*
X37099999Y-63644750D01*
X36956291Y-63663670D01*
X36956287Y-63663671D01*
X36822377Y-63719137D01*
X36707379Y-63807379D01*
X36619137Y-63922377D01*
X36563671Y-64056287D01*
X36563670Y-64056291D01*
X36544750Y-64199999D01*
X36544750Y-64200000D01*
X28250500Y-64200000D01*
X28250500Y-63136667D01*
X28270185Y-63069628D01*
X28322989Y-63023873D01*
X28392147Y-63013929D01*
X28421944Y-63022103D01*
X28456291Y-63036330D01*
X28552097Y-63048943D01*
X28599999Y-63055250D01*
X28600000Y-63055250D01*
X28600001Y-63055250D01*
X28614977Y-63053278D01*
X28743709Y-63036330D01*
X28877625Y-62980861D01*
X28983005Y-62900000D01*
X31644750Y-62900000D01*
X31662698Y-63036329D01*
X31663670Y-63043708D01*
X31663671Y-63043712D01*
X31719137Y-63177622D01*
X31719138Y-63177624D01*
X31719139Y-63177625D01*
X31807379Y-63292621D01*
X31922375Y-63380861D01*
X32056291Y-63436330D01*
X32183280Y-63453048D01*
X32199999Y-63455250D01*
X32200000Y-63455250D01*
X32200001Y-63455250D01*
X32214977Y-63453278D01*
X32343709Y-63436330D01*
X32477625Y-63380861D01*
X32592621Y-63292621D01*
X32680861Y-63177625D01*
X32736330Y-63043709D01*
X32755250Y-62900000D01*
X32736330Y-62756291D01*
X32713014Y-62700000D01*
X38544750Y-62700000D01*
X38552160Y-62756287D01*
X38563670Y-62843708D01*
X38563671Y-62843712D01*
X38619137Y-62977622D01*
X38619138Y-62977624D01*
X38619139Y-62977625D01*
X38707379Y-63092621D01*
X38822375Y-63180861D01*
X38822376Y-63180861D01*
X38822377Y-63180862D01*
X38867013Y-63199350D01*
X38956291Y-63236330D01*
X39083280Y-63253048D01*
X39099999Y-63255250D01*
X39100000Y-63255250D01*
X39100001Y-63255250D01*
X39114977Y-63253278D01*
X39243709Y-63236330D01*
X39377625Y-63180861D01*
X39492621Y-63092621D01*
X39580861Y-62977625D01*
X39636330Y-62843709D01*
X39655250Y-62700000D01*
X39636330Y-62556291D01*
X39580861Y-62422375D01*
X39492621Y-62307379D01*
X39377625Y-62219139D01*
X39377624Y-62219138D01*
X39377622Y-62219137D01*
X39331420Y-62200000D01*
X43844750Y-62200000D01*
X43863296Y-62340872D01*
X43863670Y-62343708D01*
X43863671Y-62343712D01*
X43919137Y-62477622D01*
X43919138Y-62477624D01*
X43919139Y-62477625D01*
X44007379Y-62592621D01*
X44122375Y-62680861D01*
X44256291Y-62736330D01*
X44383280Y-62753048D01*
X44399999Y-62755250D01*
X44400000Y-62755250D01*
X44400001Y-62755250D01*
X44414977Y-62753278D01*
X44543709Y-62736330D01*
X44677625Y-62680861D01*
X44792621Y-62592621D01*
X44880861Y-62477625D01*
X44936330Y-62343709D01*
X44955250Y-62200000D01*
X44938254Y-62070908D01*
X52653815Y-62070908D01*
X52670810Y-62199999D01*
X52672735Y-62214616D01*
X52672736Y-62214620D01*
X52728202Y-62348530D01*
X52728203Y-62348532D01*
X52728204Y-62348533D01*
X52816444Y-62463529D01*
X52931440Y-62551769D01*
X52931441Y-62551769D01*
X52931442Y-62551770D01*
X52942357Y-62556291D01*
X53065356Y-62607238D01*
X53192345Y-62623956D01*
X53209064Y-62626158D01*
X53209065Y-62626158D01*
X53209066Y-62626158D01*
X53224042Y-62624186D01*
X53352774Y-62607238D01*
X53401327Y-62587126D01*
X53470794Y-62579658D01*
X53533274Y-62610933D01*
X53568926Y-62671022D01*
X53566433Y-62740847D01*
X53564040Y-62747262D01*
X53563898Y-62747792D01*
X53544978Y-62891501D01*
X53562405Y-63023873D01*
X53563898Y-63035209D01*
X53563899Y-63035213D01*
X53619365Y-63169123D01*
X53619366Y-63169125D01*
X53619367Y-63169126D01*
X53707607Y-63284122D01*
X53822603Y-63372362D01*
X53822604Y-63372362D01*
X53822605Y-63372363D01*
X53843124Y-63380862D01*
X53956519Y-63427831D01*
X54083508Y-63444549D01*
X54100227Y-63446751D01*
X54100228Y-63446751D01*
X54100229Y-63446751D01*
X54115205Y-63444779D01*
X54243937Y-63427831D01*
X54377853Y-63372362D01*
X54492849Y-63284122D01*
X54581089Y-63169126D01*
X54636558Y-63035210D01*
X54655478Y-62891501D01*
X54636558Y-62747792D01*
X54616762Y-62700000D01*
X60344750Y-62700000D01*
X60352160Y-62756287D01*
X60363670Y-62843708D01*
X60363671Y-62843712D01*
X60419137Y-62977622D01*
X60419138Y-62977624D01*
X60419139Y-62977625D01*
X60507379Y-63092621D01*
X60622375Y-63180861D01*
X60622376Y-63180861D01*
X60622377Y-63180862D01*
X60667013Y-63199350D01*
X60756291Y-63236330D01*
X60883280Y-63253048D01*
X60899999Y-63255250D01*
X60900000Y-63255250D01*
X60900001Y-63255250D01*
X60914977Y-63253278D01*
X61043709Y-63236330D01*
X61177625Y-63180861D01*
X61292621Y-63092621D01*
X61380861Y-62977625D01*
X61436330Y-62843709D01*
X61455250Y-62700000D01*
X61436330Y-62556291D01*
X61380861Y-62422375D01*
X61292621Y-62307379D01*
X61177625Y-62219139D01*
X61177624Y-62219138D01*
X61177622Y-62219137D01*
X61043712Y-62163671D01*
X61043710Y-62163670D01*
X61043709Y-62163670D01*
X60971854Y-62154210D01*
X60900001Y-62144750D01*
X60899999Y-62144750D01*
X60756291Y-62163670D01*
X60756287Y-62163671D01*
X60622377Y-62219137D01*
X60507379Y-62307379D01*
X60419137Y-62422377D01*
X60363671Y-62556287D01*
X60363670Y-62556291D01*
X60347270Y-62680862D01*
X60344750Y-62700000D01*
X54616762Y-62700000D01*
X54581089Y-62613876D01*
X54529555Y-62546716D01*
X54504362Y-62481548D01*
X54513371Y-62423779D01*
X54538268Y-62363671D01*
X54547713Y-62340869D01*
X54566633Y-62197160D01*
X54547713Y-62053451D01*
X54502688Y-61944750D01*
X54492245Y-61919537D01*
X54492244Y-61919536D01*
X54492244Y-61919535D01*
X54404004Y-61804539D01*
X54289008Y-61716299D01*
X54289007Y-61716298D01*
X54289005Y-61716297D01*
X54155095Y-61660831D01*
X54155093Y-61660830D01*
X54155092Y-61660830D01*
X54032955Y-61644750D01*
X54011384Y-61641910D01*
X54011382Y-61641910D01*
X53867676Y-61660829D01*
X53743577Y-61712232D01*
X53674107Y-61719700D01*
X53611628Y-61688424D01*
X53607543Y-61683930D01*
X53607437Y-61684037D01*
X53601692Y-61678292D01*
X53601686Y-61678287D01*
X53486690Y-61590047D01*
X53486689Y-61590046D01*
X53486687Y-61590045D01*
X53352777Y-61534579D01*
X53352775Y-61534578D01*
X53352774Y-61534578D01*
X53280919Y-61525118D01*
X53209066Y-61515658D01*
X53209064Y-61515658D01*
X53065356Y-61534578D01*
X53065352Y-61534579D01*
X52931442Y-61590045D01*
X52816444Y-61678287D01*
X52728202Y-61793285D01*
X52672736Y-61927195D01*
X52672735Y-61927199D01*
X52653815Y-62070908D01*
X44938254Y-62070908D01*
X44936330Y-62056291D01*
X44882859Y-61927199D01*
X44880862Y-61922377D01*
X44880861Y-61922376D01*
X44880861Y-61922375D01*
X44792621Y-61807379D01*
X44677625Y-61719139D01*
X44677624Y-61719138D01*
X44677622Y-61719137D01*
X44543712Y-61663671D01*
X44543710Y-61663670D01*
X44543709Y-61663670D01*
X44471854Y-61654210D01*
X44400001Y-61644750D01*
X44399999Y-61644750D01*
X44256291Y-61663670D01*
X44256287Y-61663671D01*
X44122377Y-61719137D01*
X44007379Y-61807379D01*
X43919137Y-61922377D01*
X43863671Y-62056287D01*
X43863670Y-62056291D01*
X43844750Y-62200000D01*
X39331420Y-62200000D01*
X39243712Y-62163671D01*
X39243710Y-62163670D01*
X39243709Y-62163670D01*
X39171854Y-62154210D01*
X39100001Y-62144750D01*
X39099999Y-62144750D01*
X38956291Y-62163670D01*
X38956287Y-62163671D01*
X38822377Y-62219137D01*
X38707379Y-62307379D01*
X38619137Y-62422377D01*
X38563671Y-62556287D01*
X38563670Y-62556291D01*
X38547270Y-62680862D01*
X38544750Y-62700000D01*
X32713014Y-62700000D01*
X32680861Y-62622375D01*
X32592621Y-62507379D01*
X32477625Y-62419139D01*
X32477624Y-62419138D01*
X32477622Y-62419137D01*
X32343712Y-62363671D01*
X32343710Y-62363670D01*
X32343709Y-62363670D01*
X32271854Y-62354210D01*
X32200001Y-62344750D01*
X32199999Y-62344750D01*
X32056291Y-62363670D01*
X32056287Y-62363671D01*
X31922377Y-62419137D01*
X31807379Y-62507379D01*
X31719137Y-62622377D01*
X31663671Y-62756287D01*
X31663670Y-62756291D01*
X31645722Y-62892620D01*
X31644750Y-62900000D01*
X28983005Y-62900000D01*
X28992621Y-62892621D01*
X29080861Y-62777625D01*
X29136330Y-62643709D01*
X29155250Y-62500000D01*
X29136330Y-62356291D01*
X29080861Y-62222375D01*
X28992621Y-62107379D01*
X28877625Y-62019139D01*
X28877624Y-62019138D01*
X28877622Y-62019137D01*
X28743712Y-61963671D01*
X28743710Y-61963670D01*
X28743709Y-61963670D01*
X28670913Y-61954086D01*
X28600001Y-61944750D01*
X28599999Y-61944750D01*
X28456291Y-61963670D01*
X28421951Y-61977894D01*
X28352482Y-61985362D01*
X28290003Y-61954086D01*
X28254351Y-61893997D01*
X28250500Y-61863332D01*
X28250500Y-60963797D01*
X28270185Y-60896758D01*
X28322989Y-60851003D01*
X28390685Y-60840858D01*
X28464320Y-60850552D01*
X28499999Y-60855250D01*
X28500000Y-60855250D01*
X28500001Y-60855250D01*
X28514977Y-60853278D01*
X28643709Y-60836330D01*
X28777625Y-60780861D01*
X28892621Y-60692621D01*
X28963692Y-60600000D01*
X49744750Y-60600000D01*
X49763670Y-60743708D01*
X49763671Y-60743712D01*
X49819137Y-60877622D01*
X49819138Y-60877624D01*
X49819139Y-60877625D01*
X49907379Y-60992621D01*
X50022375Y-61080861D01*
X50156291Y-61136330D01*
X50283280Y-61153048D01*
X50299999Y-61155250D01*
X50300000Y-61155250D01*
X50300001Y-61155250D01*
X50314977Y-61153278D01*
X50443709Y-61136330D01*
X50577625Y-61080861D01*
X50692621Y-60992621D01*
X50780861Y-60877625D01*
X50836330Y-60743709D01*
X50855250Y-60600000D01*
X50836330Y-60456291D01*
X50780861Y-60322375D01*
X50692621Y-60207379D01*
X50577625Y-60119139D01*
X50577624Y-60119138D01*
X50577622Y-60119137D01*
X50443712Y-60063671D01*
X50443710Y-60063670D01*
X50443709Y-60063670D01*
X50371854Y-60054210D01*
X50300001Y-60044750D01*
X50299999Y-60044750D01*
X50156291Y-60063670D01*
X50156287Y-60063671D01*
X50022377Y-60119137D01*
X49907379Y-60207379D01*
X49819137Y-60322377D01*
X49763671Y-60456287D01*
X49763670Y-60456291D01*
X49744750Y-60599999D01*
X49744750Y-60600000D01*
X28963692Y-60600000D01*
X28980861Y-60577625D01*
X29036330Y-60443709D01*
X29055250Y-60300000D01*
X29053681Y-60288086D01*
X29045588Y-60226611D01*
X29036330Y-60156291D01*
X28980861Y-60022375D01*
X28892621Y-59907379D01*
X28777625Y-59819139D01*
X28777624Y-59819138D01*
X28777622Y-59819137D01*
X28643712Y-59763671D01*
X28643710Y-59763670D01*
X28643709Y-59763670D01*
X28571854Y-59754210D01*
X28500001Y-59744750D01*
X28499998Y-59744750D01*
X28390685Y-59759141D01*
X28321650Y-59748375D01*
X28269394Y-59701995D01*
X28250500Y-59636202D01*
X28250500Y-59600000D01*
X52694750Y-59600000D01*
X52713670Y-59743708D01*
X52713671Y-59743712D01*
X52769137Y-59877622D01*
X52769138Y-59877624D01*
X52769139Y-59877625D01*
X52857379Y-59992621D01*
X52972375Y-60080861D01*
X53106291Y-60136330D01*
X53233280Y-60153048D01*
X53249999Y-60155250D01*
X53250000Y-60155250D01*
X53250001Y-60155250D01*
X53264977Y-60153278D01*
X53393709Y-60136330D01*
X53527625Y-60080861D01*
X53640922Y-59993925D01*
X53649070Y-59987673D01*
X53650162Y-59989096D01*
X53702640Y-59960441D01*
X53728998Y-59957607D01*
X54103455Y-59957607D01*
X54170494Y-59977292D01*
X54191136Y-59993925D01*
X54260882Y-60063670D01*
X54312424Y-60115212D01*
X54377681Y-60180469D01*
X54377684Y-60180470D01*
X54377687Y-60180473D01*
X54457599Y-60226611D01*
X54457600Y-60226611D01*
X54457605Y-60226614D01*
X54546749Y-60250500D01*
X54913908Y-60250500D01*
X54980947Y-60270185D01*
X55000412Y-60288086D01*
X55001628Y-60286871D01*
X55007372Y-60292615D01*
X55007377Y-60292619D01*
X55007379Y-60292621D01*
X55122375Y-60380861D01*
X55256291Y-60436330D01*
X55383280Y-60453048D01*
X55399999Y-60455250D01*
X55400000Y-60455250D01*
X55400001Y-60455250D01*
X55414977Y-60453278D01*
X55543709Y-60436330D01*
X55677625Y-60380861D01*
X55792621Y-60292621D01*
X55880861Y-60177625D01*
X55936330Y-60043709D01*
X55955250Y-59900000D01*
X55936330Y-59756291D01*
X55880861Y-59622375D01*
X55792621Y-59507379D01*
X55792619Y-59507377D01*
X55792618Y-59507376D01*
X55740892Y-59467685D01*
X55699689Y-59411257D01*
X55695535Y-59341511D01*
X55729748Y-59280591D01*
X55791466Y-59247838D01*
X55832560Y-59246371D01*
X55900000Y-59255250D01*
X56043709Y-59236330D01*
X56177625Y-59180861D01*
X56292621Y-59092621D01*
X56380861Y-58977625D01*
X56436330Y-58843709D01*
X56455250Y-58700000D01*
X56436330Y-58556291D01*
X56380861Y-58422375D01*
X56292621Y-58307379D01*
X56177625Y-58219139D01*
X56177624Y-58219138D01*
X56177622Y-58219137D01*
X56043712Y-58163671D01*
X56043710Y-58163670D01*
X56043709Y-58163670D01*
X55971854Y-58154210D01*
X55900001Y-58144750D01*
X55899999Y-58144750D01*
X55756291Y-58163670D01*
X55756287Y-58163671D01*
X55622377Y-58219137D01*
X55507372Y-58307384D01*
X55501628Y-58313129D01*
X55499111Y-58310612D01*
X55455817Y-58342203D01*
X55413908Y-58349500D01*
X55153856Y-58349500D01*
X55070073Y-58371948D01*
X55070074Y-58371949D01*
X55064715Y-58373385D01*
X55064712Y-58373386D01*
X54984791Y-58419528D01*
X54984789Y-58419530D01*
X54853020Y-58551298D01*
X54791696Y-58584782D01*
X54722005Y-58579797D01*
X54666964Y-58539103D01*
X54647033Y-58513129D01*
X54642621Y-58507379D01*
X54527625Y-58419139D01*
X54527624Y-58419138D01*
X54527622Y-58419137D01*
X54393712Y-58363671D01*
X54393710Y-58363670D01*
X54393709Y-58363670D01*
X54321854Y-58354210D01*
X54250001Y-58344750D01*
X54249999Y-58344750D01*
X54106291Y-58363670D01*
X54106287Y-58363671D01*
X53972377Y-58419137D01*
X53857372Y-58507384D01*
X53851628Y-58513129D01*
X53849111Y-58510612D01*
X53805817Y-58542203D01*
X53763908Y-58549500D01*
X53736094Y-58549500D01*
X53669055Y-58529815D01*
X53649536Y-58511954D01*
X53648368Y-58513123D01*
X53642625Y-58507380D01*
X53642622Y-58507378D01*
X53642621Y-58507376D01*
X53527625Y-58419136D01*
X53527624Y-58419135D01*
X53527622Y-58419134D01*
X53393712Y-58363668D01*
X53393710Y-58363667D01*
X53393709Y-58363667D01*
X53286102Y-58349500D01*
X53250001Y-58344747D01*
X53249999Y-58344747D01*
X53106291Y-58363667D01*
X53106287Y-58363668D01*
X52972377Y-58419134D01*
X52857379Y-58507376D01*
X52769137Y-58622374D01*
X52713671Y-58756284D01*
X52713670Y-58756288D01*
X52694750Y-58899996D01*
X52694750Y-58899997D01*
X52713670Y-59043705D01*
X52713671Y-59043709D01*
X52769138Y-59177622D01*
X52773203Y-59184662D01*
X52771138Y-59185853D01*
X52791947Y-59239689D01*
X52777904Y-59308133D01*
X52772553Y-59316459D01*
X52769138Y-59322374D01*
X52713671Y-59456287D01*
X52713670Y-59456291D01*
X52694750Y-59599999D01*
X52694750Y-59600000D01*
X28250500Y-59600000D01*
X28250500Y-58400000D01*
X45644750Y-58400000D01*
X45663670Y-58543708D01*
X45663671Y-58543712D01*
X45719137Y-58677622D01*
X45719138Y-58677624D01*
X45719139Y-58677625D01*
X45807379Y-58792621D01*
X45922375Y-58880861D01*
X46056291Y-58936330D01*
X46183280Y-58953048D01*
X46199999Y-58955250D01*
X46200000Y-58955250D01*
X46200001Y-58955250D01*
X46214977Y-58953278D01*
X46343709Y-58936330D01*
X46477625Y-58880861D01*
X46592621Y-58792621D01*
X46680861Y-58677625D01*
X46736330Y-58543709D01*
X46755250Y-58400000D01*
X46736330Y-58256291D01*
X46680861Y-58122375D01*
X46592621Y-58007379D01*
X46477625Y-57919139D01*
X46477624Y-57919138D01*
X46477622Y-57919137D01*
X46343712Y-57863671D01*
X46343710Y-57863670D01*
X46343709Y-57863670D01*
X46271854Y-57854210D01*
X46200001Y-57844750D01*
X46199999Y-57844750D01*
X46056291Y-57863670D01*
X46056287Y-57863671D01*
X45922377Y-57919137D01*
X45807379Y-58007379D01*
X45719137Y-58122377D01*
X45663671Y-58256287D01*
X45663670Y-58256291D01*
X45644750Y-58399999D01*
X45644750Y-58400000D01*
X28250500Y-58400000D01*
X28250500Y-57385914D01*
X42545011Y-57385914D01*
X42563931Y-57529622D01*
X42563932Y-57529626D01*
X42619398Y-57663536D01*
X42619399Y-57663538D01*
X42619400Y-57663539D01*
X42707640Y-57778535D01*
X42822636Y-57866775D01*
X42822637Y-57866775D01*
X42822638Y-57866776D01*
X42849480Y-57877894D01*
X42956552Y-57922244D01*
X43083541Y-57938962D01*
X43100260Y-57941164D01*
X43100261Y-57941164D01*
X43100262Y-57941164D01*
X43115238Y-57939192D01*
X43243970Y-57922244D01*
X43377886Y-57866775D01*
X43492882Y-57778535D01*
X43581122Y-57663539D01*
X43636591Y-57529623D01*
X43640491Y-57500000D01*
X48444750Y-57500000D01*
X48463670Y-57643708D01*
X48463671Y-57643712D01*
X48519137Y-57777622D01*
X48519138Y-57777624D01*
X48519139Y-57777625D01*
X48607379Y-57892621D01*
X48722375Y-57980861D01*
X48856291Y-58036330D01*
X48983280Y-58053048D01*
X48999999Y-58055250D01*
X49000000Y-58055250D01*
X49000001Y-58055250D01*
X49014977Y-58053278D01*
X49143709Y-58036330D01*
X49277625Y-57980861D01*
X49392621Y-57892621D01*
X49480861Y-57777625D01*
X49536330Y-57643709D01*
X49555250Y-57500000D01*
X49536330Y-57356291D01*
X49480861Y-57222375D01*
X49392621Y-57107379D01*
X49277625Y-57019139D01*
X49277624Y-57019138D01*
X49277622Y-57019137D01*
X49143712Y-56963671D01*
X49143710Y-56963670D01*
X49143709Y-56963670D01*
X49071854Y-56954210D01*
X49000001Y-56944750D01*
X48999999Y-56944750D01*
X48856291Y-56963670D01*
X48856287Y-56963671D01*
X48722377Y-57019137D01*
X48607379Y-57107379D01*
X48519137Y-57222377D01*
X48463671Y-57356287D01*
X48463670Y-57356291D01*
X48444750Y-57499999D01*
X48444750Y-57500000D01*
X43640491Y-57500000D01*
X43655511Y-57385914D01*
X43636591Y-57242205D01*
X43581122Y-57108289D01*
X43492882Y-56993293D01*
X43377886Y-56905053D01*
X43377885Y-56905052D01*
X43377883Y-56905051D01*
X43243973Y-56849585D01*
X43243971Y-56849584D01*
X43243970Y-56849584D01*
X43172115Y-56840124D01*
X43100262Y-56830664D01*
X43100260Y-56830664D01*
X42956552Y-56849584D01*
X42956548Y-56849585D01*
X42822638Y-56905051D01*
X42707640Y-56993293D01*
X42619398Y-57108291D01*
X42563932Y-57242201D01*
X42563931Y-57242205D01*
X42545011Y-57385913D01*
X42545011Y-57385914D01*
X28250500Y-57385914D01*
X28250500Y-56200000D01*
X44444750Y-56200000D01*
X44462698Y-56336329D01*
X44463670Y-56343708D01*
X44463671Y-56343712D01*
X44519137Y-56477622D01*
X44519138Y-56477624D01*
X44519139Y-56477625D01*
X44607379Y-56592621D01*
X44722375Y-56680861D01*
X44856291Y-56736330D01*
X44983280Y-56753048D01*
X44999999Y-56755250D01*
X45000000Y-56755250D01*
X45000001Y-56755250D01*
X45014977Y-56753278D01*
X45143709Y-56736330D01*
X45277625Y-56680861D01*
X45392621Y-56592621D01*
X45480861Y-56477625D01*
X45536330Y-56343709D01*
X45555250Y-56200000D01*
X45536330Y-56056291D01*
X45486641Y-55936329D01*
X45480862Y-55922377D01*
X45480861Y-55922376D01*
X45480861Y-55922375D01*
X45392621Y-55807379D01*
X45277625Y-55719139D01*
X45277624Y-55719138D01*
X45277622Y-55719137D01*
X45143712Y-55663671D01*
X45143710Y-55663670D01*
X45143709Y-55663670D01*
X45071854Y-55654210D01*
X45000001Y-55644750D01*
X44999999Y-55644750D01*
X44856291Y-55663670D01*
X44856287Y-55663671D01*
X44722377Y-55719137D01*
X44607379Y-55807379D01*
X44519137Y-55922377D01*
X44463671Y-56056287D01*
X44463670Y-56056291D01*
X44445722Y-56192620D01*
X44444750Y-56200000D01*
X28250500Y-56200000D01*
X28250500Y-55400000D01*
X34644750Y-55400000D01*
X34663670Y-55543708D01*
X34663671Y-55543712D01*
X34719137Y-55677622D01*
X34719138Y-55677624D01*
X34719139Y-55677625D01*
X34807379Y-55792621D01*
X34922375Y-55880861D01*
X35056291Y-55936330D01*
X35183280Y-55953048D01*
X35199999Y-55955250D01*
X35200000Y-55955250D01*
X35200001Y-55955250D01*
X35214977Y-55953278D01*
X35343709Y-55936330D01*
X35477625Y-55880861D01*
X35592621Y-55792621D01*
X35680861Y-55677625D01*
X35736330Y-55543709D01*
X35755250Y-55400000D01*
X35736330Y-55256291D01*
X35680861Y-55122375D01*
X35592621Y-55007379D01*
X35477625Y-54919139D01*
X35477624Y-54919138D01*
X35477622Y-54919137D01*
X35343712Y-54863671D01*
X35343710Y-54863670D01*
X35343709Y-54863670D01*
X35271854Y-54854210D01*
X35200001Y-54844750D01*
X35199999Y-54844750D01*
X35056291Y-54863670D01*
X35056287Y-54863671D01*
X34922377Y-54919137D01*
X34807379Y-55007379D01*
X34719137Y-55122377D01*
X34663671Y-55256287D01*
X34663670Y-55256291D01*
X34644750Y-55399999D01*
X34644750Y-55400000D01*
X28250500Y-55400000D01*
X28250500Y-54800000D01*
X42044750Y-54800000D01*
X42053132Y-54863670D01*
X42063670Y-54943708D01*
X42063671Y-54943712D01*
X42119137Y-55077622D01*
X42119138Y-55077624D01*
X42119139Y-55077625D01*
X42207379Y-55192621D01*
X42322375Y-55280861D01*
X42456291Y-55336330D01*
X42583280Y-55353048D01*
X42599999Y-55355250D01*
X42600000Y-55355250D01*
X42600001Y-55355250D01*
X42614977Y-55353278D01*
X42743709Y-55336330D01*
X42877625Y-55280861D01*
X42983005Y-55200000D01*
X46844750Y-55200000D01*
X46862698Y-55336329D01*
X46863670Y-55343708D01*
X46863671Y-55343712D01*
X46919137Y-55477622D01*
X46919138Y-55477624D01*
X46919139Y-55477625D01*
X47007379Y-55592621D01*
X47122375Y-55680861D01*
X47256291Y-55736330D01*
X47383280Y-55753048D01*
X47399999Y-55755250D01*
X47400000Y-55755250D01*
X47400001Y-55755250D01*
X47414977Y-55753278D01*
X47543709Y-55736330D01*
X47677625Y-55680861D01*
X47792621Y-55592621D01*
X47880861Y-55477625D01*
X47936330Y-55343709D01*
X47955250Y-55200000D01*
X47936330Y-55056291D01*
X47880861Y-54922375D01*
X47792621Y-54807379D01*
X47677625Y-54719139D01*
X47677624Y-54719138D01*
X47677622Y-54719137D01*
X47543712Y-54663671D01*
X47543710Y-54663670D01*
X47543709Y-54663670D01*
X47420106Y-54647397D01*
X47400001Y-54644750D01*
X47399999Y-54644750D01*
X47256291Y-54663670D01*
X47256287Y-54663671D01*
X47122377Y-54719137D01*
X47007379Y-54807379D01*
X46919137Y-54922377D01*
X46863671Y-55056287D01*
X46863670Y-55056291D01*
X46845722Y-55192620D01*
X46844750Y-55200000D01*
X42983005Y-55200000D01*
X42992621Y-55192621D01*
X43080861Y-55077625D01*
X43136330Y-54943709D01*
X43155250Y-54800000D01*
X43150917Y-54767093D01*
X43161681Y-54698062D01*
X43192582Y-54663244D01*
X43157868Y-54652601D01*
X43144464Y-54636755D01*
X43307415Y-54636755D01*
X43342129Y-54647397D01*
X43387254Y-54700740D01*
X43388417Y-54703456D01*
X43419138Y-54777622D01*
X43419139Y-54777625D01*
X43507379Y-54892621D01*
X43622375Y-54980861D01*
X43756291Y-55036330D01*
X43883280Y-55053048D01*
X43899999Y-55055250D01*
X43900000Y-55055250D01*
X43900001Y-55055250D01*
X43914977Y-55053278D01*
X44043709Y-55036330D01*
X44177625Y-54980861D01*
X44292621Y-54892621D01*
X44380861Y-54777625D01*
X44436330Y-54643709D01*
X44455250Y-54500000D01*
X44436330Y-54356291D01*
X44380861Y-54222375D01*
X44292621Y-54107379D01*
X44177625Y-54019139D01*
X44177624Y-54019138D01*
X44177622Y-54019137D01*
X44043712Y-53963671D01*
X44043710Y-53963670D01*
X44043709Y-53963670D01*
X43971854Y-53954210D01*
X43900001Y-53944750D01*
X43899999Y-53944750D01*
X43756291Y-53963670D01*
X43756287Y-53963671D01*
X43622377Y-54019137D01*
X43507379Y-54107379D01*
X43419137Y-54222377D01*
X43363671Y-54356287D01*
X43363670Y-54356291D01*
X43344750Y-54499999D01*
X43344750Y-54500000D01*
X43349082Y-54532904D01*
X43338317Y-54601939D01*
X43307415Y-54636755D01*
X43144464Y-54636755D01*
X43112744Y-54599256D01*
X43111582Y-54596542D01*
X43080862Y-54522378D01*
X43080861Y-54522375D01*
X42992621Y-54407379D01*
X42877625Y-54319139D01*
X42877624Y-54319138D01*
X42877622Y-54319137D01*
X42743712Y-54263671D01*
X42743710Y-54263670D01*
X42743709Y-54263670D01*
X42671854Y-54254210D01*
X42600001Y-54244750D01*
X42599999Y-54244750D01*
X42456291Y-54263670D01*
X42456287Y-54263671D01*
X42322377Y-54319137D01*
X42207379Y-54407379D01*
X42119137Y-54522377D01*
X42063671Y-54656287D01*
X42063670Y-54656291D01*
X42044750Y-54800000D01*
X28250500Y-54800000D01*
X28250500Y-52874500D01*
X28270185Y-52807461D01*
X28322989Y-52761706D01*
X28374500Y-52750500D01*
X30963332Y-52750500D01*
X31030371Y-52770185D01*
X31076126Y-52822989D01*
X31086070Y-52892147D01*
X31077894Y-52921951D01*
X31063670Y-52956291D01*
X31044750Y-53099999D01*
X31044750Y-53100000D01*
X31063670Y-53243708D01*
X31063671Y-53243712D01*
X31119137Y-53377622D01*
X31119138Y-53377624D01*
X31119139Y-53377625D01*
X31207379Y-53492621D01*
X31322375Y-53580861D01*
X31322376Y-53580861D01*
X31322377Y-53580862D01*
X31367013Y-53599350D01*
X31456291Y-53636330D01*
X31583280Y-53653048D01*
X31599999Y-53655250D01*
X31600000Y-53655250D01*
X31600001Y-53655250D01*
X31614977Y-53653278D01*
X31743709Y-53636330D01*
X31877625Y-53580861D01*
X31992621Y-53492621D01*
X32080861Y-53377625D01*
X32136330Y-53243709D01*
X32155250Y-53100000D01*
X32136330Y-52956291D01*
X32122105Y-52921950D01*
X32114638Y-52852482D01*
X32145914Y-52790003D01*
X32206003Y-52754351D01*
X32236668Y-52750500D01*
X51588771Y-52750500D01*
X51655810Y-52770185D01*
X51701565Y-52822989D01*
X51711509Y-52892147D01*
X51682484Y-52955703D01*
X51676452Y-52962181D01*
X51317048Y-53321583D01*
X51295763Y-53353439D01*
X51274620Y-53385084D01*
X51254768Y-53414794D01*
X51234916Y-53444504D01*
X51234912Y-53444511D01*
X51178343Y-53581082D01*
X51178340Y-53581092D01*
X51149500Y-53726079D01*
X51149500Y-53726081D01*
X51149500Y-53726082D01*
X51149500Y-55573918D01*
X51149500Y-55573920D01*
X51149499Y-55573920D01*
X51178340Y-55718907D01*
X51178343Y-55718917D01*
X51234912Y-55855488D01*
X51234919Y-55855501D01*
X51317048Y-55978415D01*
X51317051Y-55978419D01*
X51421580Y-56082948D01*
X51421584Y-56082951D01*
X51544498Y-56165080D01*
X51544511Y-56165087D01*
X51681082Y-56221656D01*
X51681087Y-56221658D01*
X51681091Y-56221658D01*
X51681092Y-56221659D01*
X51826079Y-56250500D01*
X51826082Y-56250500D01*
X51973920Y-56250500D01*
X52071462Y-56231096D01*
X52118913Y-56221658D01*
X52255495Y-56165084D01*
X52378416Y-56082951D01*
X52482951Y-55978416D01*
X52565084Y-55855495D01*
X52588071Y-55800000D01*
X57844750Y-55800000D01*
X57862698Y-55936329D01*
X57863670Y-55943708D01*
X57863671Y-55943712D01*
X57919137Y-56077622D01*
X57919138Y-56077624D01*
X57919139Y-56077625D01*
X58007379Y-56192621D01*
X58122375Y-56280861D01*
X58256291Y-56336330D01*
X58383280Y-56353048D01*
X58399999Y-56355250D01*
X58400000Y-56355250D01*
X58400001Y-56355250D01*
X58414977Y-56353278D01*
X58543709Y-56336330D01*
X58677625Y-56280861D01*
X58792621Y-56192621D01*
X58880861Y-56077625D01*
X58936330Y-55943709D01*
X58955250Y-55800000D01*
X58942085Y-55700000D01*
X60844750Y-55700000D01*
X60857915Y-55800000D01*
X60863670Y-55843708D01*
X60863671Y-55843712D01*
X60919137Y-55977622D01*
X60919138Y-55977624D01*
X60919139Y-55977625D01*
X61007379Y-56092621D01*
X61122375Y-56180861D01*
X61122376Y-56180861D01*
X61122377Y-56180862D01*
X61167013Y-56199350D01*
X61256291Y-56236330D01*
X61383280Y-56253048D01*
X61399999Y-56255250D01*
X61400000Y-56255250D01*
X61400001Y-56255250D01*
X61414977Y-56253278D01*
X61543709Y-56236330D01*
X61677625Y-56180861D01*
X61792621Y-56092621D01*
X61880861Y-55977625D01*
X61936330Y-55843709D01*
X61955250Y-55700000D01*
X61936330Y-55556291D01*
X61880861Y-55422375D01*
X61792621Y-55307379D01*
X61677625Y-55219139D01*
X61677624Y-55219138D01*
X61677622Y-55219137D01*
X61543712Y-55163671D01*
X61543710Y-55163670D01*
X61543709Y-55163670D01*
X61471854Y-55154210D01*
X61400001Y-55144750D01*
X61399999Y-55144750D01*
X61256291Y-55163670D01*
X61256287Y-55163671D01*
X61122377Y-55219137D01*
X61007379Y-55307379D01*
X60919137Y-55422377D01*
X60863671Y-55556287D01*
X60863670Y-55556291D01*
X60847270Y-55680862D01*
X60844750Y-55700000D01*
X58942085Y-55700000D01*
X58936330Y-55656291D01*
X58880861Y-55522375D01*
X58792621Y-55407379D01*
X58677625Y-55319139D01*
X58677624Y-55319138D01*
X58677622Y-55319137D01*
X58543712Y-55263671D01*
X58543710Y-55263670D01*
X58543709Y-55263670D01*
X58471854Y-55254210D01*
X58400001Y-55244750D01*
X58399999Y-55244750D01*
X58256291Y-55263670D01*
X58256287Y-55263671D01*
X58122377Y-55319137D01*
X58007379Y-55407379D01*
X57919137Y-55522377D01*
X57863671Y-55656287D01*
X57863670Y-55656291D01*
X57845722Y-55792620D01*
X57844750Y-55800000D01*
X52588071Y-55800000D01*
X52621658Y-55718913D01*
X52650500Y-55573918D01*
X52650500Y-54162229D01*
X52670185Y-54095190D01*
X52686819Y-54074548D01*
X52874548Y-53886819D01*
X52935871Y-53853334D01*
X52962229Y-53850500D01*
X56673920Y-53850500D01*
X56771462Y-53831096D01*
X56818913Y-53821658D01*
X56955495Y-53765084D01*
X57013866Y-53726082D01*
X57013866Y-53726081D01*
X57013868Y-53726081D01*
X57046141Y-53704517D01*
X57078416Y-53682952D01*
X58436238Y-52325129D01*
X58497559Y-52291646D01*
X58567250Y-52296630D01*
X58623184Y-52338501D01*
X58647601Y-52403966D01*
X58646857Y-52428994D01*
X58644750Y-52445001D01*
X58663670Y-52588709D01*
X58663671Y-52588713D01*
X58719137Y-52722623D01*
X58719138Y-52722625D01*
X58719139Y-52722626D01*
X58807379Y-52837622D01*
X58922375Y-52925862D01*
X59056291Y-52981331D01*
X59183280Y-52998049D01*
X59199999Y-53000251D01*
X59200000Y-53000251D01*
X59200001Y-53000251D01*
X59214977Y-52998279D01*
X59343709Y-52981331D01*
X59477625Y-52925862D01*
X59592621Y-52837622D01*
X59680861Y-52722626D01*
X59736330Y-52588710D01*
X59754849Y-52448044D01*
X59783116Y-52384148D01*
X59841440Y-52345677D01*
X59893973Y-52341291D01*
X59950989Y-52348797D01*
X59999999Y-52355250D01*
X60000000Y-52355250D01*
X60000001Y-52355250D01*
X60014977Y-52353278D01*
X60143709Y-52336330D01*
X60277625Y-52280861D01*
X60392621Y-52192621D01*
X60480861Y-52077625D01*
X60536330Y-51943709D01*
X60555250Y-51800000D01*
X60554024Y-51790685D01*
X60564790Y-51721650D01*
X60611170Y-51669394D01*
X60676963Y-51650500D01*
X63373923Y-51650500D01*
X63507142Y-51624000D01*
X63518916Y-51621658D01*
X63655498Y-51565084D01*
X63721627Y-51520897D01*
X63788304Y-51500020D01*
X63790518Y-51500000D01*
X64876000Y-51500000D01*
X64943039Y-51519685D01*
X64988794Y-51572489D01*
X65000000Y-51624000D01*
X65000000Y-60834484D01*
X64980315Y-60901523D01*
X64927511Y-60947278D01*
X64858353Y-60957222D01*
X64794797Y-60928197D01*
X64777625Y-60909971D01*
X64721116Y-60836329D01*
X64696175Y-60803825D01*
X64581179Y-60715585D01*
X64581178Y-60715584D01*
X64581176Y-60715583D01*
X64447266Y-60660117D01*
X64447264Y-60660116D01*
X64447263Y-60660116D01*
X64375408Y-60650656D01*
X64303555Y-60641196D01*
X64303553Y-60641196D01*
X64159845Y-60660116D01*
X64159841Y-60660117D01*
X64025931Y-60715583D01*
X63910933Y-60803825D01*
X63822691Y-60918823D01*
X63767225Y-61052733D01*
X63767224Y-61052737D01*
X63748304Y-61196445D01*
X63748304Y-61196446D01*
X63767224Y-61340154D01*
X63767225Y-61340158D01*
X63822691Y-61474068D01*
X63822692Y-61474070D01*
X63822693Y-61474071D01*
X63910933Y-61589067D01*
X64025929Y-61677307D01*
X64025930Y-61677307D01*
X64025931Y-61677308D01*
X64042177Y-61684037D01*
X64159845Y-61732776D01*
X64286834Y-61749494D01*
X64303553Y-61751696D01*
X64303554Y-61751696D01*
X64303555Y-61751696D01*
X64318531Y-61749724D01*
X64447263Y-61732776D01*
X64581179Y-61677307D01*
X64696175Y-61589067D01*
X64777626Y-61482918D01*
X64834052Y-61441718D01*
X64903798Y-61437563D01*
X64964719Y-61471776D01*
X64997471Y-61533493D01*
X65000000Y-61558407D01*
X65000000Y-63682164D01*
X64980315Y-63749203D01*
X64927511Y-63794958D01*
X64858353Y-63804902D01*
X64794797Y-63775877D01*
X64788319Y-63769845D01*
X64387497Y-63369023D01*
X64387492Y-63369019D01*
X64307575Y-63322879D01*
X64307571Y-63322877D01*
X64302210Y-63321441D01*
X64302210Y-63321440D01*
X64233760Y-63303100D01*
X64218428Y-63298992D01*
X64218427Y-63298992D01*
X62836032Y-63298992D01*
X62768993Y-63279307D01*
X62749527Y-63261405D01*
X62748312Y-63262621D01*
X62742567Y-63256876D01*
X62742561Y-63256871D01*
X62627565Y-63168631D01*
X62627564Y-63168630D01*
X62627562Y-63168629D01*
X62493652Y-63113163D01*
X62493650Y-63113162D01*
X62493649Y-63113162D01*
X62421794Y-63103702D01*
X62349941Y-63094242D01*
X62349939Y-63094242D01*
X62206231Y-63113162D01*
X62206227Y-63113163D01*
X62072317Y-63168629D01*
X61957319Y-63256871D01*
X61869077Y-63371869D01*
X61813611Y-63505778D01*
X61812654Y-63509353D01*
X61811022Y-63512029D01*
X61810500Y-63513291D01*
X61810303Y-63513209D01*
X61776289Y-63569013D01*
X61713442Y-63599542D01*
X61709065Y-63600198D01*
X61612624Y-63612895D01*
X61612620Y-63612896D01*
X61478703Y-63668365D01*
X61472316Y-63672053D01*
X61404415Y-63688522D01*
X61338390Y-63665667D01*
X61334835Y-63663038D01*
X61277626Y-63619139D01*
X61277623Y-63619138D01*
X61143712Y-63563671D01*
X61143710Y-63563670D01*
X61143709Y-63563670D01*
X61071854Y-63554210D01*
X61000001Y-63544750D01*
X60999999Y-63544750D01*
X60856291Y-63563670D01*
X60856287Y-63563671D01*
X60722377Y-63619137D01*
X60607379Y-63707379D01*
X60519137Y-63822377D01*
X60463671Y-63956287D01*
X60463670Y-63956291D01*
X60450505Y-64056291D01*
X60444750Y-64100000D01*
X60461978Y-64230861D01*
X60463670Y-64243708D01*
X60463671Y-64243712D01*
X60519137Y-64377622D01*
X60519138Y-64377624D01*
X60519139Y-64377625D01*
X60607379Y-64492621D01*
X60722375Y-64580861D01*
X60722376Y-64580861D01*
X60722377Y-64580862D01*
X60767013Y-64599350D01*
X60856291Y-64636330D01*
X61000000Y-64655250D01*
X61008129Y-64655250D01*
X61008129Y-64658828D01*
X61060970Y-64667031D01*
X61095878Y-64691560D01*
X61684788Y-65280470D01*
X61757370Y-65322375D01*
X61764712Y-65326614D01*
X61853856Y-65350500D01*
X64477720Y-65350500D01*
X64544759Y-65370185D01*
X64565401Y-65386819D01*
X64963681Y-65785099D01*
X64997166Y-65846422D01*
X65000000Y-65872780D01*
X65000000Y-75392825D01*
X64980315Y-75459864D01*
X64927511Y-75505619D01*
X64858353Y-75515563D01*
X64794797Y-75486538D01*
X64766642Y-75451278D01*
X64690043Y-75307972D01*
X64690039Y-75307965D01*
X64557515Y-75146484D01*
X64396034Y-75013960D01*
X64396027Y-75013956D01*
X64211806Y-74915488D01*
X64211803Y-74915487D01*
X64211802Y-74915486D01*
X64211799Y-74915485D01*
X64011894Y-74854845D01*
X64011892Y-74854844D01*
X64011894Y-74854844D01*
X63804000Y-74834369D01*
X63596107Y-74854844D01*
X63478075Y-74890648D01*
X63396201Y-74915485D01*
X63396198Y-74915486D01*
X63396196Y-74915487D01*
X63396193Y-74915488D01*
X63211972Y-75013956D01*
X63211965Y-75013960D01*
X63050484Y-75146484D01*
X62917960Y-75307965D01*
X62917956Y-75307972D01*
X62819488Y-75492193D01*
X62819487Y-75492196D01*
X62819486Y-75492198D01*
X62819485Y-75492201D01*
X62794648Y-75574075D01*
X62758844Y-75692107D01*
X62738369Y-75900000D01*
X62758844Y-76107892D01*
X62758845Y-76107894D01*
X62819485Y-76307799D01*
X62819486Y-76307802D01*
X62819487Y-76307803D01*
X62819488Y-76307806D01*
X62917956Y-76492027D01*
X62917960Y-76492034D01*
X63050484Y-76653515D01*
X63211965Y-76786039D01*
X63211972Y-76786043D01*
X63396193Y-76884511D01*
X63396194Y-76884511D01*
X63396201Y-76884515D01*
X63596106Y-76945155D01*
X63596105Y-76945155D01*
X63614745Y-76946990D01*
X63804000Y-76965631D01*
X64011894Y-76945155D01*
X64211799Y-76884515D01*
X64396033Y-76786040D01*
X64557515Y-76653515D01*
X64690040Y-76492033D01*
X64766642Y-76348721D01*
X64815604Y-76298877D01*
X64883741Y-76283416D01*
X64949421Y-76307247D01*
X64991790Y-76362805D01*
X65000000Y-76407174D01*
X65000000Y-77932825D01*
X64980315Y-77999864D01*
X64927511Y-78045619D01*
X64858353Y-78055563D01*
X64794797Y-78026538D01*
X64766642Y-77991278D01*
X64690043Y-77847972D01*
X64690039Y-77847965D01*
X64557515Y-77686484D01*
X64396034Y-77553960D01*
X64396027Y-77553956D01*
X64211806Y-77455488D01*
X64211803Y-77455487D01*
X64211802Y-77455486D01*
X64211799Y-77455485D01*
X64011894Y-77394845D01*
X64011892Y-77394844D01*
X64011894Y-77394844D01*
X63804000Y-77374369D01*
X63596107Y-77394844D01*
X63478075Y-77430648D01*
X63396201Y-77455485D01*
X63396198Y-77455486D01*
X63396196Y-77455487D01*
X63396193Y-77455488D01*
X63211972Y-77553956D01*
X63211965Y-77553960D01*
X63050484Y-77686484D01*
X62917960Y-77847965D01*
X62917956Y-77847972D01*
X62819488Y-78032193D01*
X62819487Y-78032196D01*
X62819486Y-78032198D01*
X62819485Y-78032201D01*
X62794648Y-78114075D01*
X62758844Y-78232107D01*
X62738369Y-78440000D01*
X62758844Y-78647892D01*
X62758845Y-78647894D01*
X62819485Y-78847799D01*
X62819486Y-78847802D01*
X62819487Y-78847803D01*
X62819488Y-78847806D01*
X62917956Y-79032027D01*
X62917960Y-79032034D01*
X63050484Y-79193515D01*
X63211965Y-79326039D01*
X63211972Y-79326043D01*
X63396193Y-79424511D01*
X63396194Y-79424511D01*
X63396201Y-79424515D01*
X63596106Y-79485155D01*
X63596105Y-79485155D01*
X63614745Y-79486990D01*
X63804000Y-79505631D01*
X64011894Y-79485155D01*
X64211799Y-79424515D01*
X64396033Y-79326040D01*
X64557515Y-79193515D01*
X64690040Y-79032033D01*
X64766642Y-78888721D01*
X64815604Y-78838877D01*
X64883741Y-78823416D01*
X64949421Y-78847247D01*
X64991790Y-78902805D01*
X65000000Y-78947174D01*
X65000000Y-79895436D01*
X64980315Y-79962475D01*
X64927511Y-80008230D01*
X64858353Y-80018174D01*
X64806029Y-79994278D01*
X64804756Y-79996185D01*
X64794601Y-79989400D01*
X64794601Y-79989399D01*
X64712954Y-79934845D01*
X64711739Y-79934033D01*
X64711735Y-79934032D01*
X64638677Y-79919500D01*
X64638674Y-79919500D01*
X62969326Y-79919500D01*
X62969323Y-79919500D01*
X62896264Y-79934032D01*
X62896260Y-79934033D01*
X62813399Y-79989399D01*
X62758033Y-80072260D01*
X62758032Y-80072264D01*
X62743500Y-80145321D01*
X62743500Y-81820766D01*
X62741964Y-81820766D01*
X62730347Y-81881998D01*
X62682279Y-81932706D01*
X62619966Y-81949500D01*
X62100893Y-81949500D01*
X62033854Y-81929815D01*
X61988099Y-81877011D01*
X61978155Y-81807853D01*
X62007180Y-81744297D01*
X62013212Y-81737819D01*
X62017513Y-81733517D01*
X62150039Y-81572034D01*
X62150043Y-81572027D01*
X62174299Y-81526648D01*
X62248515Y-81387799D01*
X62309155Y-81187894D01*
X62329631Y-80980000D01*
X62309155Y-80772106D01*
X62248515Y-80572201D01*
X62197962Y-80477622D01*
X62150043Y-80387972D01*
X62150039Y-80387965D01*
X62017515Y-80226484D01*
X61856034Y-80093960D01*
X61856027Y-80093956D01*
X61671806Y-79995488D01*
X61671803Y-79995487D01*
X61671802Y-79995486D01*
X61671799Y-79995485D01*
X61471894Y-79934845D01*
X61471892Y-79934844D01*
X61471894Y-79934844D01*
X61264000Y-79914369D01*
X61056107Y-79934844D01*
X60965021Y-79962475D01*
X60856201Y-79995485D01*
X60856198Y-79995486D01*
X60856196Y-79995487D01*
X60856193Y-79995488D01*
X60671972Y-80093956D01*
X60671965Y-80093960D01*
X60510484Y-80226484D01*
X60377960Y-80387965D01*
X60377956Y-80387972D01*
X60279488Y-80572193D01*
X60279487Y-80572196D01*
X60218844Y-80772107D01*
X60198369Y-80980000D01*
X60218844Y-81187892D01*
X60218845Y-81187894D01*
X60279485Y-81387799D01*
X60279486Y-81387802D01*
X60279487Y-81387803D01*
X60279488Y-81387806D01*
X60377956Y-81572027D01*
X60377960Y-81572034D01*
X60510486Y-81733517D01*
X60514788Y-81737819D01*
X60548273Y-81799142D01*
X60543289Y-81868834D01*
X60501417Y-81924767D01*
X60435953Y-81949184D01*
X60427107Y-81949500D01*
X29453854Y-81949500D01*
X29397817Y-81964515D01*
X29397816Y-81964514D01*
X29364716Y-81973384D01*
X29364709Y-81973387D01*
X29284791Y-82019527D01*
X29284786Y-82019531D01*
X28391137Y-82913181D01*
X28329814Y-82946666D01*
X28303456Y-82949500D01*
X26585602Y-82949500D01*
X26518563Y-82929815D01*
X26472808Y-82877011D01*
X26462864Y-82807853D01*
X26491889Y-82744297D01*
X26506937Y-82729647D01*
X26519410Y-82719410D01*
X26645936Y-82565237D01*
X26739954Y-82389342D01*
X26797850Y-82198485D01*
X26817399Y-82000000D01*
X26797850Y-81801515D01*
X26739954Y-81610658D01*
X26739951Y-81610654D01*
X26739951Y-81610651D01*
X26645939Y-81434768D01*
X26645937Y-81434766D01*
X26645936Y-81434763D01*
X26533411Y-81297650D01*
X26519410Y-81280589D01*
X26365238Y-81154065D01*
X26365231Y-81154060D01*
X26189348Y-81060048D01*
X26189342Y-81060046D01*
X25998485Y-81002150D01*
X25998483Y-81002149D01*
X25998481Y-81002149D01*
X25800000Y-80982601D01*
X25601518Y-81002149D01*
X25410651Y-81060048D01*
X25234768Y-81154060D01*
X25234761Y-81154065D01*
X25080589Y-81280589D01*
X24954065Y-81434761D01*
X24954060Y-81434768D01*
X24860048Y-81610651D01*
X24802149Y-81801518D01*
X24782601Y-82000000D01*
X24802149Y-82198481D01*
X24860048Y-82389348D01*
X24954060Y-82565231D01*
X24954065Y-82565238D01*
X25080589Y-82719410D01*
X25093063Y-82729647D01*
X25132397Y-82787393D01*
X25134268Y-82857237D01*
X25098080Y-82917006D01*
X25035324Y-82947721D01*
X25014398Y-82949500D01*
X24045602Y-82949500D01*
X23978563Y-82929815D01*
X23932808Y-82877011D01*
X23922864Y-82807853D01*
X23951889Y-82744297D01*
X23966937Y-82729647D01*
X23979410Y-82719410D01*
X24105936Y-82565237D01*
X24199954Y-82389342D01*
X24257850Y-82198485D01*
X24277399Y-82000000D01*
X24257850Y-81801515D01*
X24199954Y-81610658D01*
X24199951Y-81610654D01*
X24199951Y-81610651D01*
X24105939Y-81434768D01*
X24105937Y-81434766D01*
X24105936Y-81434763D01*
X23993411Y-81297650D01*
X23979410Y-81280589D01*
X23825238Y-81154065D01*
X23825231Y-81154060D01*
X23649348Y-81060048D01*
X23649342Y-81060046D01*
X23458485Y-81002150D01*
X23458483Y-81002149D01*
X23458481Y-81002149D01*
X23260000Y-80982601D01*
X23061518Y-81002149D01*
X22870651Y-81060048D01*
X22694768Y-81154060D01*
X22694761Y-81154065D01*
X22540589Y-81280589D01*
X22414065Y-81434761D01*
X22414060Y-81434768D01*
X22320048Y-81610651D01*
X22262149Y-81801518D01*
X22242601Y-82000000D01*
X22262149Y-82198481D01*
X22320048Y-82389348D01*
X22414060Y-82565231D01*
X22414065Y-82565238D01*
X22540589Y-82719410D01*
X22553063Y-82729647D01*
X22592397Y-82787393D01*
X22594268Y-82857237D01*
X22558080Y-82917006D01*
X22495324Y-82947721D01*
X22474398Y-82949500D01*
X21322280Y-82949500D01*
X21255241Y-82929815D01*
X21234599Y-82913181D01*
X20286319Y-81964901D01*
X20252834Y-81903578D01*
X20250000Y-81877220D01*
X20250000Y-79527251D01*
X32109947Y-79527251D01*
X32131554Y-79663670D01*
X32148976Y-79773668D01*
X32226074Y-80010949D01*
X32339341Y-80233249D01*
X32485989Y-80435093D01*
X32662407Y-80611511D01*
X32864251Y-80758159D01*
X33086551Y-80871426D01*
X33323832Y-80948524D01*
X33416240Y-80963159D01*
X33570249Y-80987553D01*
X33819746Y-80987553D01*
X33819751Y-80987553D01*
X33956647Y-80965870D01*
X34066168Y-80948524D01*
X34303449Y-80871426D01*
X34525749Y-80758159D01*
X34727593Y-80611511D01*
X34904011Y-80435093D01*
X35050659Y-80233249D01*
X35163926Y-80010949D01*
X35241024Y-79773668D01*
X35280052Y-79527251D01*
X42709947Y-79527251D01*
X42731554Y-79663670D01*
X42748976Y-79773668D01*
X42826074Y-80010949D01*
X42939341Y-80233249D01*
X43085989Y-80435093D01*
X43262407Y-80611511D01*
X43464251Y-80758159D01*
X43686551Y-80871426D01*
X43923832Y-80948524D01*
X44016240Y-80963159D01*
X44170249Y-80987553D01*
X44419746Y-80987553D01*
X44419751Y-80987553D01*
X44556647Y-80965870D01*
X44666168Y-80948524D01*
X44903449Y-80871426D01*
X45125749Y-80758159D01*
X45327593Y-80611511D01*
X45504011Y-80435093D01*
X45650659Y-80233249D01*
X45667600Y-80200000D01*
X47844750Y-80200000D01*
X47863670Y-80343708D01*
X47863671Y-80343712D01*
X47919137Y-80477622D01*
X47919138Y-80477624D01*
X47919139Y-80477625D01*
X48007379Y-80592621D01*
X48122375Y-80680861D01*
X48256291Y-80736330D01*
X48383280Y-80753048D01*
X48399999Y-80755250D01*
X48400000Y-80755250D01*
X48400001Y-80755250D01*
X48414977Y-80753278D01*
X48543709Y-80736330D01*
X48677625Y-80680861D01*
X48792621Y-80592621D01*
X48880861Y-80477625D01*
X48936330Y-80343709D01*
X48955250Y-80200000D01*
X48936330Y-80056291D01*
X48885690Y-79934033D01*
X48880862Y-79922377D01*
X48880861Y-79922376D01*
X48880861Y-79922375D01*
X48792621Y-79807379D01*
X48677625Y-79719139D01*
X48677624Y-79719138D01*
X48677622Y-79719137D01*
X48543712Y-79663671D01*
X48543710Y-79663670D01*
X48543709Y-79663670D01*
X48471854Y-79654210D01*
X48400001Y-79644750D01*
X48399999Y-79644750D01*
X48256291Y-79663670D01*
X48256287Y-79663671D01*
X48122377Y-79719137D01*
X48007379Y-79807379D01*
X47919137Y-79922377D01*
X47863671Y-80056287D01*
X47863670Y-80056291D01*
X47844750Y-80199999D01*
X47844750Y-80200000D01*
X45667600Y-80200000D01*
X45763926Y-80010949D01*
X45841024Y-79773668D01*
X45880052Y-79527251D01*
X52999947Y-79527251D01*
X53021554Y-79663670D01*
X53038976Y-79773668D01*
X53116074Y-80010949D01*
X53229341Y-80233249D01*
X53375989Y-80435093D01*
X53552407Y-80611511D01*
X53754251Y-80758159D01*
X53976551Y-80871426D01*
X54213832Y-80948524D01*
X54306240Y-80963159D01*
X54460249Y-80987553D01*
X54709746Y-80987553D01*
X54709751Y-80987553D01*
X54846647Y-80965870D01*
X54956168Y-80948524D01*
X55193449Y-80871426D01*
X55415749Y-80758159D01*
X55617593Y-80611511D01*
X55794011Y-80435093D01*
X55940659Y-80233249D01*
X56053926Y-80010949D01*
X56131024Y-79773668D01*
X56170053Y-79527246D01*
X56172500Y-79402500D01*
X56170053Y-79277754D01*
X56131024Y-79031332D01*
X56053926Y-78794051D01*
X55940659Y-78571751D01*
X55844936Y-78440000D01*
X60198369Y-78440000D01*
X60218844Y-78647892D01*
X60218845Y-78647894D01*
X60279485Y-78847799D01*
X60279486Y-78847802D01*
X60279487Y-78847803D01*
X60279488Y-78847806D01*
X60377956Y-79032027D01*
X60377960Y-79032034D01*
X60510484Y-79193515D01*
X60671965Y-79326039D01*
X60671972Y-79326043D01*
X60856193Y-79424511D01*
X60856194Y-79424511D01*
X60856201Y-79424515D01*
X61056106Y-79485155D01*
X61056105Y-79485155D01*
X61074745Y-79486990D01*
X61264000Y-79505631D01*
X61471894Y-79485155D01*
X61671799Y-79424515D01*
X61856033Y-79326040D01*
X62017515Y-79193515D01*
X62150040Y-79032033D01*
X62248515Y-78847799D01*
X62309155Y-78647894D01*
X62329631Y-78440000D01*
X62309155Y-78232106D01*
X62248515Y-78032201D01*
X62231231Y-77999864D01*
X62150043Y-77847972D01*
X62150039Y-77847965D01*
X62017515Y-77686484D01*
X61856034Y-77553960D01*
X61856027Y-77553956D01*
X61671806Y-77455488D01*
X61671803Y-77455487D01*
X61671802Y-77455486D01*
X61671799Y-77455485D01*
X61471894Y-77394845D01*
X61471892Y-77394844D01*
X61471894Y-77394844D01*
X61264000Y-77374369D01*
X61056107Y-77394844D01*
X60938075Y-77430648D01*
X60856201Y-77455485D01*
X60856198Y-77455486D01*
X60856196Y-77455487D01*
X60856193Y-77455488D01*
X60671972Y-77553956D01*
X60671965Y-77553960D01*
X60510484Y-77686484D01*
X60377960Y-77847965D01*
X60377956Y-77847972D01*
X60279488Y-78032193D01*
X60279487Y-78032196D01*
X60279486Y-78032198D01*
X60279485Y-78032201D01*
X60254648Y-78114075D01*
X60218844Y-78232107D01*
X60198369Y-78440000D01*
X55844936Y-78440000D01*
X55794011Y-78369907D01*
X55617593Y-78193489D01*
X55415749Y-78046841D01*
X55193449Y-77933574D01*
X54956168Y-77856476D01*
X54956166Y-77856475D01*
X54956164Y-77856475D01*
X54709751Y-77817447D01*
X54709746Y-77817447D01*
X54460254Y-77817447D01*
X54460249Y-77817447D01*
X54213835Y-77856475D01*
X53976548Y-77933575D01*
X53754250Y-78046841D01*
X53552404Y-78193491D01*
X53375991Y-78369904D01*
X53229341Y-78571750D01*
X53116075Y-78794048D01*
X53038975Y-79031335D01*
X52999947Y-79277748D01*
X52999947Y-79527251D01*
X45880052Y-79527251D01*
X45880053Y-79527246D01*
X45882500Y-79402500D01*
X45880053Y-79277754D01*
X45841024Y-79031332D01*
X45763926Y-78794051D01*
X45650659Y-78571751D01*
X45504011Y-78369907D01*
X45327593Y-78193489D01*
X45125749Y-78046841D01*
X44903449Y-77933574D01*
X44666168Y-77856476D01*
X44666166Y-77856475D01*
X44666164Y-77856475D01*
X44419751Y-77817447D01*
X44419746Y-77817447D01*
X44170254Y-77817447D01*
X44170249Y-77817447D01*
X43923835Y-77856475D01*
X43686548Y-77933575D01*
X43464250Y-78046841D01*
X43262404Y-78193491D01*
X43085991Y-78369904D01*
X42939341Y-78571750D01*
X42826075Y-78794048D01*
X42748975Y-79031335D01*
X42709947Y-79277748D01*
X42709947Y-79527251D01*
X35280052Y-79527251D01*
X35280053Y-79527246D01*
X35282500Y-79402500D01*
X35280053Y-79277754D01*
X35241024Y-79031332D01*
X35163926Y-78794051D01*
X35050659Y-78571751D01*
X34904011Y-78369907D01*
X34727593Y-78193489D01*
X34525749Y-78046841D01*
X34303449Y-77933574D01*
X34066168Y-77856476D01*
X34066166Y-77856475D01*
X34066164Y-77856475D01*
X33819751Y-77817447D01*
X33819746Y-77817447D01*
X33570254Y-77817447D01*
X33570249Y-77817447D01*
X33323835Y-77856475D01*
X33086548Y-77933575D01*
X32864250Y-78046841D01*
X32662404Y-78193491D01*
X32485991Y-78369904D01*
X32339341Y-78571750D01*
X32226075Y-78794048D01*
X32148975Y-79031335D01*
X32109947Y-79277748D01*
X32109947Y-79527251D01*
X20250000Y-79527251D01*
X20250000Y-75800000D01*
X54544750Y-75800000D01*
X54557915Y-75900000D01*
X54563670Y-75943708D01*
X54563671Y-75943712D01*
X54619137Y-76077622D01*
X54619138Y-76077624D01*
X54619139Y-76077625D01*
X54707379Y-76192621D01*
X54822375Y-76280861D01*
X54956291Y-76336330D01*
X55083280Y-76353048D01*
X55099999Y-76355250D01*
X55100000Y-76355250D01*
X55100001Y-76355250D01*
X55114977Y-76353278D01*
X55243709Y-76336330D01*
X55377625Y-76280861D01*
X55492621Y-76192621D01*
X55580861Y-76077625D01*
X55636330Y-75943709D01*
X55642085Y-75900000D01*
X60198369Y-75900000D01*
X60218844Y-76107892D01*
X60218845Y-76107894D01*
X60279485Y-76307799D01*
X60279486Y-76307802D01*
X60279487Y-76307803D01*
X60279488Y-76307806D01*
X60377956Y-76492027D01*
X60377960Y-76492034D01*
X60510484Y-76653515D01*
X60671965Y-76786039D01*
X60671972Y-76786043D01*
X60856193Y-76884511D01*
X60856194Y-76884511D01*
X60856201Y-76884515D01*
X61056106Y-76945155D01*
X61056105Y-76945155D01*
X61074745Y-76946990D01*
X61264000Y-76965631D01*
X61471894Y-76945155D01*
X61671799Y-76884515D01*
X61856033Y-76786040D01*
X62017515Y-76653515D01*
X62150040Y-76492033D01*
X62248515Y-76307799D01*
X62309155Y-76107894D01*
X62329631Y-75900000D01*
X62309155Y-75692106D01*
X62248515Y-75492201D01*
X62231231Y-75459864D01*
X62150043Y-75307972D01*
X62150039Y-75307965D01*
X62017515Y-75146484D01*
X61856034Y-75013960D01*
X61856027Y-75013956D01*
X61671806Y-74915488D01*
X61671803Y-74915487D01*
X61671802Y-74915486D01*
X61671799Y-74915485D01*
X61471894Y-74854845D01*
X61471892Y-74854844D01*
X61471894Y-74854844D01*
X61264000Y-74834369D01*
X61056107Y-74854844D01*
X60938075Y-74890648D01*
X60856201Y-74915485D01*
X60856198Y-74915486D01*
X60856196Y-74915487D01*
X60856193Y-74915488D01*
X60671972Y-75013956D01*
X60671965Y-75013960D01*
X60510484Y-75146484D01*
X60377960Y-75307965D01*
X60377956Y-75307972D01*
X60279488Y-75492193D01*
X60279487Y-75492196D01*
X60279486Y-75492198D01*
X60279485Y-75492201D01*
X60254648Y-75574075D01*
X60218844Y-75692107D01*
X60198369Y-75900000D01*
X55642085Y-75900000D01*
X55655250Y-75800000D01*
X55636330Y-75656291D01*
X55580861Y-75522375D01*
X55492621Y-75407379D01*
X55377625Y-75319139D01*
X55377624Y-75319138D01*
X55377622Y-75319137D01*
X55243712Y-75263671D01*
X55243710Y-75263670D01*
X55243709Y-75263670D01*
X55171854Y-75254210D01*
X55100001Y-75244750D01*
X55099999Y-75244750D01*
X54956291Y-75263670D01*
X54956287Y-75263671D01*
X54822377Y-75319137D01*
X54707379Y-75407379D01*
X54619137Y-75522377D01*
X54563671Y-75656287D01*
X54563670Y-75656291D01*
X54544750Y-75800000D01*
X20250000Y-75800000D01*
X20250000Y-74380000D01*
X22242601Y-74380000D01*
X22262149Y-74578481D01*
X22320048Y-74769348D01*
X22414060Y-74945231D01*
X22414065Y-74945238D01*
X22540589Y-75099410D01*
X22597950Y-75146484D01*
X22694763Y-75225936D01*
X22694766Y-75225937D01*
X22694768Y-75225939D01*
X22870651Y-75319951D01*
X22870654Y-75319951D01*
X22870658Y-75319954D01*
X23061515Y-75377850D01*
X23260000Y-75397399D01*
X23458485Y-75377850D01*
X23649342Y-75319954D01*
X23650871Y-75319137D01*
X23754642Y-75263670D01*
X23825237Y-75225936D01*
X23979410Y-75099410D01*
X24105936Y-74945237D01*
X24130116Y-74900000D01*
X50544750Y-74900000D01*
X50559753Y-75013960D01*
X50563670Y-75043708D01*
X50563671Y-75043712D01*
X50619137Y-75177622D01*
X50619138Y-75177624D01*
X50619139Y-75177625D01*
X50707379Y-75292621D01*
X50822375Y-75380861D01*
X50956291Y-75436330D01*
X51083280Y-75453048D01*
X51099999Y-75455250D01*
X51100000Y-75455250D01*
X51100001Y-75455250D01*
X51114977Y-75453278D01*
X51243709Y-75436330D01*
X51377625Y-75380861D01*
X51492621Y-75292621D01*
X51580861Y-75177625D01*
X51636330Y-75043709D01*
X51655250Y-74900000D01*
X51636330Y-74756291D01*
X51580861Y-74622375D01*
X51492621Y-74507379D01*
X51377625Y-74419139D01*
X51377624Y-74419138D01*
X51377622Y-74419137D01*
X51243712Y-74363671D01*
X51243710Y-74363670D01*
X51243709Y-74363670D01*
X51171854Y-74354210D01*
X51100001Y-74344750D01*
X51099999Y-74344750D01*
X50956291Y-74363670D01*
X50956287Y-74363671D01*
X50822377Y-74419137D01*
X50707379Y-74507379D01*
X50619137Y-74622377D01*
X50563671Y-74756287D01*
X50563670Y-74756291D01*
X50544750Y-74900000D01*
X24130116Y-74900000D01*
X24199954Y-74769342D01*
X24257850Y-74578485D01*
X24277399Y-74380000D01*
X24259671Y-74200000D01*
X37944750Y-74200000D01*
X37963670Y-74343708D01*
X37963671Y-74343712D01*
X38019137Y-74477622D01*
X38019138Y-74477624D01*
X38019139Y-74477625D01*
X38107379Y-74592621D01*
X38222375Y-74680861D01*
X38356291Y-74736330D01*
X38483280Y-74753048D01*
X38499999Y-74755250D01*
X38500000Y-74755250D01*
X38500001Y-74755250D01*
X38514977Y-74753278D01*
X38643709Y-74736330D01*
X38777625Y-74680861D01*
X38892621Y-74592621D01*
X38980861Y-74477625D01*
X39036330Y-74343709D01*
X39055250Y-74200000D01*
X39036330Y-74056291D01*
X38980861Y-73922375D01*
X38963692Y-73900000D01*
X48144750Y-73900000D01*
X48163670Y-74043708D01*
X48163671Y-74043712D01*
X48219137Y-74177622D01*
X48219138Y-74177624D01*
X48219139Y-74177625D01*
X48307379Y-74292621D01*
X48422375Y-74380861D01*
X48556291Y-74436330D01*
X48683280Y-74453048D01*
X48699999Y-74455250D01*
X48700000Y-74455250D01*
X48700001Y-74455250D01*
X48714977Y-74453278D01*
X48843709Y-74436330D01*
X48977625Y-74380861D01*
X49092621Y-74292621D01*
X49180861Y-74177625D01*
X49236330Y-74043709D01*
X49255250Y-73900000D01*
X49236330Y-73756291D01*
X49180861Y-73622375D01*
X49092621Y-73507379D01*
X48977625Y-73419139D01*
X48977624Y-73419138D01*
X48977622Y-73419137D01*
X48843712Y-73363671D01*
X48843710Y-73363670D01*
X48843709Y-73363670D01*
X48771854Y-73354210D01*
X48700001Y-73344750D01*
X48699999Y-73344750D01*
X48556291Y-73363670D01*
X48556287Y-73363671D01*
X48422377Y-73419137D01*
X48307379Y-73507379D01*
X48219137Y-73622377D01*
X48163671Y-73756287D01*
X48163670Y-73756291D01*
X48144750Y-73899999D01*
X48144750Y-73900000D01*
X38963692Y-73900000D01*
X38892621Y-73807379D01*
X38777625Y-73719139D01*
X38777624Y-73719138D01*
X38777622Y-73719137D01*
X38643712Y-73663671D01*
X38643710Y-73663670D01*
X38643709Y-73663670D01*
X38571854Y-73654210D01*
X38500001Y-73644750D01*
X38499999Y-73644750D01*
X38356291Y-73663670D01*
X38356287Y-73663671D01*
X38222377Y-73719137D01*
X38107379Y-73807379D01*
X38019137Y-73922377D01*
X37963671Y-74056287D01*
X37963670Y-74056291D01*
X37944750Y-74199999D01*
X37944750Y-74200000D01*
X24259671Y-74200000D01*
X24257850Y-74181515D01*
X24199954Y-73990658D01*
X24199951Y-73990654D01*
X24199951Y-73990651D01*
X24105939Y-73814768D01*
X24105937Y-73814766D01*
X24105936Y-73814763D01*
X24067456Y-73767875D01*
X23979410Y-73660589D01*
X23825238Y-73534065D01*
X23825231Y-73534060D01*
X23649348Y-73440048D01*
X23649342Y-73440046D01*
X23458485Y-73382150D01*
X23458483Y-73382149D01*
X23458481Y-73382149D01*
X23260000Y-73362601D01*
X23061518Y-73382149D01*
X22870651Y-73440048D01*
X22694768Y-73534060D01*
X22694761Y-73534065D01*
X22540589Y-73660589D01*
X22414065Y-73814761D01*
X22414060Y-73814768D01*
X22320048Y-73990651D01*
X22262149Y-74181518D01*
X22242601Y-74380000D01*
X20250000Y-74380000D01*
X20250000Y-71840000D01*
X22242601Y-71840000D01*
X22262149Y-72038481D01*
X22262149Y-72038483D01*
X22262150Y-72038485D01*
X22296394Y-72151373D01*
X22320048Y-72229348D01*
X22414060Y-72405231D01*
X22414065Y-72405238D01*
X22540589Y-72559410D01*
X22600063Y-72608218D01*
X22694763Y-72685936D01*
X22694766Y-72685937D01*
X22694768Y-72685939D01*
X22870651Y-72779951D01*
X22870654Y-72779951D01*
X22870658Y-72779954D01*
X23061515Y-72837850D01*
X23260000Y-72857399D01*
X23458485Y-72837850D01*
X23649342Y-72779954D01*
X23825237Y-72685936D01*
X23979410Y-72559410D01*
X24105936Y-72405237D01*
X24162186Y-72300000D01*
X39644750Y-72300000D01*
X39663670Y-72443708D01*
X39663671Y-72443712D01*
X39719137Y-72577622D01*
X39719138Y-72577624D01*
X39719139Y-72577625D01*
X39807379Y-72692621D01*
X39922375Y-72780861D01*
X40056291Y-72836330D01*
X40183280Y-72853048D01*
X40199999Y-72855250D01*
X40200000Y-72855250D01*
X40200001Y-72855250D01*
X40214977Y-72853278D01*
X40343709Y-72836330D01*
X40477625Y-72780861D01*
X40592621Y-72692621D01*
X40680861Y-72577625D01*
X40736330Y-72443709D01*
X40755250Y-72300000D01*
X45344750Y-72300000D01*
X45363670Y-72443708D01*
X45363671Y-72443712D01*
X45419137Y-72577622D01*
X45419138Y-72577624D01*
X45419139Y-72577625D01*
X45507379Y-72692621D01*
X45622375Y-72780861D01*
X45756291Y-72836330D01*
X45883280Y-72853048D01*
X45899999Y-72855250D01*
X45900000Y-72855250D01*
X45900001Y-72855250D01*
X45914977Y-72853278D01*
X46043709Y-72836330D01*
X46177625Y-72780861D01*
X46292621Y-72692621D01*
X46380861Y-72577625D01*
X46436330Y-72443709D01*
X46455250Y-72300000D01*
X46436330Y-72156291D01*
X46380861Y-72022375D01*
X46363692Y-72000000D01*
X48944750Y-72000000D01*
X48963670Y-72143708D01*
X48963671Y-72143712D01*
X49019137Y-72277622D01*
X49019138Y-72277624D01*
X49019139Y-72277625D01*
X49107379Y-72392621D01*
X49222375Y-72480861D01*
X49356291Y-72536330D01*
X49483280Y-72553048D01*
X49499999Y-72555250D01*
X49500000Y-72555250D01*
X49500001Y-72555250D01*
X49514977Y-72553278D01*
X49643709Y-72536330D01*
X49777625Y-72480861D01*
X49892621Y-72392621D01*
X49980861Y-72277625D01*
X50036330Y-72143709D01*
X50055250Y-72000000D01*
X50036330Y-71856291D01*
X50017156Y-71810000D01*
X61390702Y-71810000D01*
X61409043Y-71984501D01*
X61463260Y-72151367D01*
X61463263Y-72151373D01*
X61550993Y-72303326D01*
X61668394Y-72433715D01*
X61668401Y-72433721D01*
X61810346Y-72536850D01*
X61810351Y-72536853D01*
X61970638Y-72608218D01*
X61970643Y-72608220D01*
X62142269Y-72644700D01*
X62142270Y-72644700D01*
X62317729Y-72644700D01*
X62317731Y-72644700D01*
X62489357Y-72608220D01*
X62649649Y-72536853D01*
X62791600Y-72433720D01*
X62791604Y-72433715D01*
X62792114Y-72433345D01*
X62857920Y-72409865D01*
X62925974Y-72425690D01*
X62937886Y-72433345D01*
X62938395Y-72433715D01*
X62938400Y-72433720D01*
X63079628Y-72536328D01*
X63080351Y-72536853D01*
X63240638Y-72608218D01*
X63240643Y-72608220D01*
X63412269Y-72644700D01*
X63412270Y-72644700D01*
X63587729Y-72644700D01*
X63587731Y-72644700D01*
X63759357Y-72608220D01*
X63919649Y-72536853D01*
X64061600Y-72433720D01*
X64068831Y-72425690D01*
X64103413Y-72387281D01*
X64179006Y-72303327D01*
X64266737Y-72151373D01*
X64269228Y-72143708D01*
X64303416Y-72038485D01*
X64320957Y-71984500D01*
X64339298Y-71810000D01*
X64320957Y-71635500D01*
X64294790Y-71554968D01*
X64266739Y-71468632D01*
X64266736Y-71468626D01*
X64263875Y-71463671D01*
X64201376Y-71355418D01*
X64179007Y-71316674D01*
X64163993Y-71299999D01*
X64126150Y-71257970D01*
X64095921Y-71194981D01*
X64104546Y-71125646D01*
X64126149Y-71092030D01*
X64179006Y-71033327D01*
X64266737Y-70881373D01*
X64320957Y-70714500D01*
X64339298Y-70540000D01*
X64320957Y-70365500D01*
X64289987Y-70270184D01*
X64266739Y-70198632D01*
X64266736Y-70198626D01*
X64254609Y-70177622D01*
X64196773Y-70077446D01*
X64179007Y-70046674D01*
X64157128Y-70022375D01*
X64126150Y-69987970D01*
X64095921Y-69924981D01*
X64104546Y-69855646D01*
X64126149Y-69822030D01*
X64179006Y-69763327D01*
X64266737Y-69611373D01*
X64320957Y-69444500D01*
X64339298Y-69270000D01*
X64320957Y-69095500D01*
X64266737Y-68928627D01*
X64179006Y-68776673D01*
X64126150Y-68717970D01*
X64095921Y-68654981D01*
X64104546Y-68585646D01*
X64126149Y-68552030D01*
X64179006Y-68493327D01*
X64266737Y-68341373D01*
X64320957Y-68174500D01*
X64339298Y-68000000D01*
X64320957Y-67825500D01*
X64266737Y-67658627D01*
X64179006Y-67506673D01*
X64126150Y-67447970D01*
X64095921Y-67384981D01*
X64104546Y-67315646D01*
X64126149Y-67282030D01*
X64179006Y-67223327D01*
X64266737Y-67071373D01*
X64320957Y-66904500D01*
X64339298Y-66730000D01*
X64320957Y-66555500D01*
X64284972Y-66444750D01*
X64266739Y-66388632D01*
X64266736Y-66388626D01*
X64263460Y-66382952D01*
X64179006Y-66236673D01*
X64149427Y-66203822D01*
X64061605Y-66106284D01*
X64061598Y-66106278D01*
X63919653Y-66003149D01*
X63919648Y-66003146D01*
X63759361Y-65931781D01*
X63759356Y-65931779D01*
X63624210Y-65903053D01*
X63587731Y-65895300D01*
X63412269Y-65895300D01*
X63382184Y-65901694D01*
X63240643Y-65931779D01*
X63240638Y-65931781D01*
X63080351Y-66003146D01*
X63080346Y-66003149D01*
X62938401Y-66106278D01*
X62938394Y-66106284D01*
X62820993Y-66236673D01*
X62733263Y-66388626D01*
X62733260Y-66388632D01*
X62679043Y-66555498D01*
X62660702Y-66730000D01*
X62679043Y-66904501D01*
X62733260Y-67071367D01*
X62734590Y-67074352D01*
X62734842Y-67076235D01*
X62735271Y-67077554D01*
X62735030Y-67077632D01*
X62743880Y-67143602D01*
X62714256Y-67206880D01*
X62655123Y-67244098D01*
X62585257Y-67243438D01*
X62570882Y-67238077D01*
X62489357Y-67201780D01*
X62489355Y-67201779D01*
X62489354Y-67201779D01*
X62375702Y-67177622D01*
X62317731Y-67165300D01*
X62142269Y-67165300D01*
X62112184Y-67171694D01*
X61970643Y-67201779D01*
X61970638Y-67201781D01*
X61810351Y-67273146D01*
X61810346Y-67273149D01*
X61668401Y-67376278D01*
X61668394Y-67376284D01*
X61550993Y-67506673D01*
X61463263Y-67658626D01*
X61463260Y-67658632D01*
X61409043Y-67825498D01*
X61390702Y-68000000D01*
X61409043Y-68174501D01*
X61463260Y-68341367D01*
X61463263Y-68341373D01*
X61550993Y-68493326D01*
X61603848Y-68552028D01*
X61634078Y-68615020D01*
X61625452Y-68684355D01*
X61603848Y-68717972D01*
X61550993Y-68776673D01*
X61463263Y-68928626D01*
X61463260Y-68928632D01*
X61409043Y-69095498D01*
X61390702Y-69270000D01*
X61409043Y-69444501D01*
X61463260Y-69611367D01*
X61463263Y-69611373D01*
X61550993Y-69763326D01*
X61603848Y-69822028D01*
X61634078Y-69885020D01*
X61625452Y-69954355D01*
X61603848Y-69987972D01*
X61550993Y-70046673D01*
X61463263Y-70198626D01*
X61463260Y-70198632D01*
X61409043Y-70365498D01*
X61390702Y-70540000D01*
X61409043Y-70714501D01*
X61463260Y-70881367D01*
X61463263Y-70881373D01*
X61550993Y-71033326D01*
X61603848Y-71092028D01*
X61634078Y-71155020D01*
X61625452Y-71224355D01*
X61603848Y-71257972D01*
X61550993Y-71316673D01*
X61463263Y-71468626D01*
X61463260Y-71468632D01*
X61409043Y-71635498D01*
X61390702Y-71810000D01*
X50017156Y-71810000D01*
X49980861Y-71722375D01*
X49892621Y-71607379D01*
X49777625Y-71519139D01*
X49777624Y-71519138D01*
X49777622Y-71519137D01*
X49643712Y-71463671D01*
X49643710Y-71463670D01*
X49643709Y-71463670D01*
X49544822Y-71450651D01*
X49500001Y-71444750D01*
X49499999Y-71444750D01*
X49356291Y-71463670D01*
X49356287Y-71463671D01*
X49222377Y-71519137D01*
X49107379Y-71607379D01*
X49019137Y-71722377D01*
X48963671Y-71856287D01*
X48963670Y-71856291D01*
X48944750Y-71999999D01*
X48944750Y-72000000D01*
X46363692Y-72000000D01*
X46292621Y-71907379D01*
X46177625Y-71819139D01*
X46177624Y-71819138D01*
X46177622Y-71819137D01*
X46043712Y-71763671D01*
X46043710Y-71763670D01*
X46043709Y-71763670D01*
X45971854Y-71754210D01*
X45900001Y-71744750D01*
X45899999Y-71744750D01*
X45756291Y-71763670D01*
X45756287Y-71763671D01*
X45622377Y-71819137D01*
X45507379Y-71907379D01*
X45419137Y-72022377D01*
X45363671Y-72156287D01*
X45363670Y-72156291D01*
X45344750Y-72299999D01*
X45344750Y-72300000D01*
X40755250Y-72300000D01*
X40736330Y-72156291D01*
X40680861Y-72022375D01*
X40592621Y-71907379D01*
X40477625Y-71819139D01*
X40477624Y-71819138D01*
X40477622Y-71819137D01*
X40343712Y-71763671D01*
X40343710Y-71763670D01*
X40343709Y-71763670D01*
X40271854Y-71754210D01*
X40200001Y-71744750D01*
X40199999Y-71744750D01*
X40056291Y-71763670D01*
X40056287Y-71763671D01*
X39922377Y-71819137D01*
X39807379Y-71907379D01*
X39719137Y-72022377D01*
X39663671Y-72156287D01*
X39663670Y-72156291D01*
X39644750Y-72299999D01*
X39644750Y-72300000D01*
X24162186Y-72300000D01*
X24199954Y-72229342D01*
X24257850Y-72038485D01*
X24277399Y-71840000D01*
X24257850Y-71641515D01*
X24199954Y-71450658D01*
X24199951Y-71450654D01*
X24199951Y-71450651D01*
X24105939Y-71274768D01*
X24105937Y-71274766D01*
X24105936Y-71274763D01*
X24030071Y-71182321D01*
X23979410Y-71120589D01*
X23825238Y-70994065D01*
X23825231Y-70994060D01*
X23649348Y-70900048D01*
X23649342Y-70900046D01*
X23649200Y-70900003D01*
X32144435Y-70900003D01*
X32164630Y-71079249D01*
X32164631Y-71079254D01*
X32224211Y-71249523D01*
X32310387Y-71386670D01*
X32320184Y-71402262D01*
X32447738Y-71529816D01*
X32519552Y-71574940D01*
X32571178Y-71607379D01*
X32600478Y-71625789D01*
X32770745Y-71685368D01*
X32770750Y-71685369D01*
X32949996Y-71705565D01*
X32950000Y-71705565D01*
X32950004Y-71705565D01*
X33129249Y-71685369D01*
X33129252Y-71685368D01*
X33129255Y-71685368D01*
X33299522Y-71625789D01*
X33452262Y-71529816D01*
X33579816Y-71402262D01*
X33644072Y-71300000D01*
X40844750Y-71300000D01*
X40862027Y-71431233D01*
X40863670Y-71443708D01*
X40863671Y-71443712D01*
X40919137Y-71577622D01*
X40919138Y-71577624D01*
X40919139Y-71577625D01*
X41007379Y-71692621D01*
X41122375Y-71780861D01*
X41256291Y-71836330D01*
X41383280Y-71853048D01*
X41399999Y-71855250D01*
X41400000Y-71855250D01*
X41400001Y-71855250D01*
X41414977Y-71853278D01*
X41543709Y-71836330D01*
X41677625Y-71780861D01*
X41792621Y-71692621D01*
X41880861Y-71577625D01*
X41935439Y-71445859D01*
X41979279Y-71391456D01*
X42045573Y-71369391D01*
X42113273Y-71386670D01*
X42160884Y-71437807D01*
X42164561Y-71445860D01*
X42219137Y-71577622D01*
X42219138Y-71577624D01*
X42219139Y-71577625D01*
X42307379Y-71692621D01*
X42422375Y-71780861D01*
X42556291Y-71836330D01*
X42683280Y-71853048D01*
X42699999Y-71855250D01*
X42700000Y-71855250D01*
X42700001Y-71855250D01*
X42714977Y-71853278D01*
X42843709Y-71836330D01*
X42977625Y-71780861D01*
X43092621Y-71692621D01*
X43180861Y-71577625D01*
X43236330Y-71443709D01*
X43255250Y-71300000D01*
X43644750Y-71300000D01*
X43662027Y-71431233D01*
X43663670Y-71443708D01*
X43663671Y-71443712D01*
X43719137Y-71577622D01*
X43719138Y-71577624D01*
X43719139Y-71577625D01*
X43807379Y-71692621D01*
X43922375Y-71780861D01*
X44056291Y-71836330D01*
X44183280Y-71853048D01*
X44199999Y-71855250D01*
X44200000Y-71855250D01*
X44200001Y-71855250D01*
X44214977Y-71853278D01*
X44343709Y-71836330D01*
X44477625Y-71780861D01*
X44592621Y-71692621D01*
X44680861Y-71577625D01*
X44736330Y-71443709D01*
X44755250Y-71300000D01*
X44736330Y-71156291D01*
X44699350Y-71067013D01*
X44687586Y-71038612D01*
X54976137Y-71038612D01*
X54991629Y-71156287D01*
X54995057Y-71182320D01*
X54995058Y-71182324D01*
X55050524Y-71316234D01*
X55050525Y-71316236D01*
X55050526Y-71316237D01*
X55138766Y-71431233D01*
X55253762Y-71519473D01*
X55253763Y-71519473D01*
X55253764Y-71519474D01*
X55298400Y-71537962D01*
X55387678Y-71574942D01*
X55514667Y-71591660D01*
X55531386Y-71593862D01*
X55531387Y-71593862D01*
X55531388Y-71593862D01*
X55546364Y-71591890D01*
X55675096Y-71574942D01*
X55809012Y-71519473D01*
X55924008Y-71431233D01*
X55952200Y-71394492D01*
X56008625Y-71353291D01*
X56078371Y-71349136D01*
X56098020Y-71355416D01*
X56164279Y-71382861D01*
X56252639Y-71394494D01*
X56307987Y-71401781D01*
X56307988Y-71401781D01*
X56307989Y-71401781D01*
X56322965Y-71399809D01*
X56451697Y-71382861D01*
X56585613Y-71327392D01*
X56700609Y-71239152D01*
X56788849Y-71124156D01*
X56844318Y-70990240D01*
X56863238Y-70846531D01*
X56844318Y-70702822D01*
X56807434Y-70613775D01*
X57974676Y-70613775D01*
X57986399Y-70702822D01*
X57993596Y-70757483D01*
X57993597Y-70757487D01*
X58049063Y-70891397D01*
X58049064Y-70891399D01*
X58049065Y-70891400D01*
X58137305Y-71006396D01*
X58252301Y-71094636D01*
X58386217Y-71150105D01*
X58513206Y-71166823D01*
X58529925Y-71169025D01*
X58529926Y-71169025D01*
X58529927Y-71169025D01*
X58544903Y-71167053D01*
X58673635Y-71150105D01*
X58807551Y-71094636D01*
X58922547Y-71006396D01*
X59010787Y-70891400D01*
X59066256Y-70757484D01*
X59085176Y-70613775D01*
X59066256Y-70470066D01*
X59010787Y-70336150D01*
X58922547Y-70221154D01*
X58807551Y-70132914D01*
X58807550Y-70132913D01*
X58807548Y-70132912D01*
X58673638Y-70077446D01*
X58673636Y-70077445D01*
X58673635Y-70077445D01*
X58601780Y-70067985D01*
X58529927Y-70058525D01*
X58529925Y-70058525D01*
X58386217Y-70077445D01*
X58386213Y-70077446D01*
X58252303Y-70132912D01*
X58137305Y-70221154D01*
X58049063Y-70336152D01*
X57993597Y-70470062D01*
X57993596Y-70470066D01*
X57974676Y-70613775D01*
X56807434Y-70613775D01*
X56807338Y-70613544D01*
X56788850Y-70568908D01*
X56788849Y-70568907D01*
X56788849Y-70568906D01*
X56700609Y-70453910D01*
X56585613Y-70365670D01*
X56585612Y-70365669D01*
X56585610Y-70365668D01*
X56451700Y-70310202D01*
X56451698Y-70310201D01*
X56451697Y-70310201D01*
X56374207Y-70299999D01*
X56307989Y-70291281D01*
X56307987Y-70291281D01*
X56164279Y-70310201D01*
X56164275Y-70310202D01*
X56030365Y-70365668D01*
X55988573Y-70397737D01*
X55915367Y-70453910D01*
X55915365Y-70453911D01*
X55915364Y-70453913D01*
X55887174Y-70490650D01*
X55830746Y-70531852D01*
X55761000Y-70536005D01*
X55741349Y-70529724D01*
X55705655Y-70514940D01*
X55675096Y-70502282D01*
X55586744Y-70490650D01*
X55531388Y-70483362D01*
X55531386Y-70483362D01*
X55387678Y-70502282D01*
X55387674Y-70502283D01*
X55253764Y-70557749D01*
X55138766Y-70645991D01*
X55050524Y-70760989D01*
X54995058Y-70894899D01*
X54995057Y-70894903D01*
X54980379Y-71006395D01*
X54976137Y-71038612D01*
X44687586Y-71038612D01*
X44680862Y-71022377D01*
X44680861Y-71022376D01*
X44680861Y-71022375D01*
X44592621Y-70907379D01*
X44477625Y-70819139D01*
X44477624Y-70819138D01*
X44477622Y-70819137D01*
X44343712Y-70763671D01*
X44343710Y-70763670D01*
X44343709Y-70763670D01*
X44271854Y-70754210D01*
X44200001Y-70744750D01*
X44199999Y-70744750D01*
X44056291Y-70763670D01*
X44056287Y-70763671D01*
X43922377Y-70819137D01*
X43807379Y-70907379D01*
X43719137Y-71022377D01*
X43663671Y-71156287D01*
X43663670Y-71156291D01*
X43648073Y-71274763D01*
X43644750Y-71300000D01*
X43255250Y-71300000D01*
X43236330Y-71156291D01*
X43199350Y-71067013D01*
X43180862Y-71022377D01*
X43180861Y-71022376D01*
X43180861Y-71022375D01*
X43092621Y-70907379D01*
X42977625Y-70819139D01*
X42977624Y-70819138D01*
X42977622Y-70819137D01*
X42843712Y-70763671D01*
X42843710Y-70763670D01*
X42843709Y-70763670D01*
X42771854Y-70754210D01*
X42700001Y-70744750D01*
X42699999Y-70744750D01*
X42556291Y-70763670D01*
X42556287Y-70763671D01*
X42422377Y-70819137D01*
X42307379Y-70907379D01*
X42219137Y-71022377D01*
X42164561Y-71154139D01*
X42120720Y-71208543D01*
X42054426Y-71230608D01*
X41986727Y-71213329D01*
X41939116Y-71162192D01*
X41935439Y-71154139D01*
X41880862Y-71022377D01*
X41880861Y-71022376D01*
X41880861Y-71022375D01*
X41792621Y-70907379D01*
X41677625Y-70819139D01*
X41677624Y-70819138D01*
X41677622Y-70819137D01*
X41543712Y-70763671D01*
X41543710Y-70763670D01*
X41543709Y-70763670D01*
X41471854Y-70754210D01*
X41400001Y-70744750D01*
X41399999Y-70744750D01*
X41256291Y-70763670D01*
X41256287Y-70763671D01*
X41122377Y-70819137D01*
X41007379Y-70907379D01*
X40919137Y-71022377D01*
X40863671Y-71156287D01*
X40863670Y-71156291D01*
X40848073Y-71274763D01*
X40844750Y-71300000D01*
X33644072Y-71300000D01*
X33675789Y-71249522D01*
X33735368Y-71079255D01*
X33735369Y-71079249D01*
X33755565Y-70900003D01*
X33755565Y-70899996D01*
X33735369Y-70720750D01*
X33735368Y-70720745D01*
X33709210Y-70645991D01*
X33675789Y-70550478D01*
X33664085Y-70531852D01*
X33608703Y-70443712D01*
X33579816Y-70397738D01*
X33482078Y-70300000D01*
X38744750Y-70300000D01*
X38762698Y-70436329D01*
X38763670Y-70443708D01*
X38763671Y-70443712D01*
X38819137Y-70577622D01*
X38819138Y-70577624D01*
X38819139Y-70577625D01*
X38907379Y-70692621D01*
X39022375Y-70780861D01*
X39156291Y-70836330D01*
X39283280Y-70853048D01*
X39299999Y-70855250D01*
X39300000Y-70855250D01*
X39300001Y-70855250D01*
X39314977Y-70853278D01*
X39443709Y-70836330D01*
X39577625Y-70780861D01*
X39692621Y-70692621D01*
X39780861Y-70577625D01*
X39836330Y-70443709D01*
X39855250Y-70300000D01*
X39836330Y-70156291D01*
X39780861Y-70022375D01*
X39692621Y-69907379D01*
X39683005Y-69900000D01*
X51344750Y-69900000D01*
X51363670Y-70043708D01*
X51363671Y-70043712D01*
X51419137Y-70177622D01*
X51419138Y-70177624D01*
X51419139Y-70177625D01*
X51507379Y-70292621D01*
X51622375Y-70380861D01*
X51756291Y-70436330D01*
X51883280Y-70453048D01*
X51899999Y-70455250D01*
X51900000Y-70455250D01*
X51900001Y-70455250D01*
X51914977Y-70453278D01*
X52043709Y-70436330D01*
X52177625Y-70380861D01*
X52292621Y-70292621D01*
X52380861Y-70177625D01*
X52436330Y-70043709D01*
X52455250Y-69900000D01*
X52455250Y-69899999D01*
X52455250Y-69891871D01*
X52459049Y-69891871D01*
X52466388Y-69840418D01*
X52491554Y-69804127D01*
X52680470Y-69615212D01*
X52726614Y-69535288D01*
X52750500Y-69446144D01*
X52750500Y-69353856D01*
X52750500Y-68785730D01*
X52760992Y-68750000D01*
X59194750Y-68750000D01*
X59213670Y-68893708D01*
X59213671Y-68893712D01*
X59269137Y-69027622D01*
X59269138Y-69027624D01*
X59269139Y-69027625D01*
X59357379Y-69142621D01*
X59472375Y-69230861D01*
X59606291Y-69286330D01*
X59733280Y-69303048D01*
X59749999Y-69305250D01*
X59750000Y-69305250D01*
X59750001Y-69305250D01*
X59764977Y-69303278D01*
X59893709Y-69286330D01*
X60027625Y-69230861D01*
X60142621Y-69142621D01*
X60230861Y-69027625D01*
X60286330Y-68893709D01*
X60305250Y-68750000D01*
X60286330Y-68606291D01*
X60248331Y-68514553D01*
X60230862Y-68472377D01*
X60230861Y-68472376D01*
X60230861Y-68472375D01*
X60142621Y-68357379D01*
X60027625Y-68269139D01*
X60027624Y-68269138D01*
X60027622Y-68269137D01*
X59893712Y-68213671D01*
X59893710Y-68213670D01*
X59893709Y-68213670D01*
X59821854Y-68204210D01*
X59750001Y-68194750D01*
X59749999Y-68194750D01*
X59606291Y-68213670D01*
X59606287Y-68213671D01*
X59472377Y-68269137D01*
X59357379Y-68357379D01*
X59269137Y-68472377D01*
X59213671Y-68606287D01*
X59213670Y-68606291D01*
X59194750Y-68749999D01*
X59194750Y-68750000D01*
X52760992Y-68750000D01*
X52770185Y-68718691D01*
X52822989Y-68672936D01*
X52890685Y-68662791D01*
X52964320Y-68672485D01*
X52999999Y-68677183D01*
X53000000Y-68677183D01*
X53000001Y-68677183D01*
X53014977Y-68675211D01*
X53143709Y-68658263D01*
X53277625Y-68602794D01*
X53392621Y-68514554D01*
X53480861Y-68399558D01*
X53536330Y-68265642D01*
X53555250Y-68121933D01*
X53536330Y-67978224D01*
X53480861Y-67844308D01*
X53430715Y-67778957D01*
X53405522Y-67713789D01*
X53419560Y-67645345D01*
X53468374Y-67595355D01*
X53481626Y-67588916D01*
X53518223Y-67573758D01*
X53614346Y-67500000D01*
X54644750Y-67500000D01*
X54656455Y-67588910D01*
X54663670Y-67643708D01*
X54663671Y-67643712D01*
X54719137Y-67777622D01*
X54719138Y-67777624D01*
X54719139Y-67777625D01*
X54807379Y-67892621D01*
X54922375Y-67980861D01*
X55056291Y-68036330D01*
X55183280Y-68053048D01*
X55199999Y-68055250D01*
X55200000Y-68055250D01*
X55200001Y-68055250D01*
X55214977Y-68053278D01*
X55343709Y-68036330D01*
X55477625Y-67980861D01*
X55592621Y-67892621D01*
X55680861Y-67777625D01*
X55736330Y-67643709D01*
X55755250Y-67500000D01*
X55736330Y-67356291D01*
X55689859Y-67244098D01*
X55680862Y-67222377D01*
X55680861Y-67222376D01*
X55680861Y-67222375D01*
X55592621Y-67107379D01*
X55477625Y-67019139D01*
X55477624Y-67019138D01*
X55477622Y-67019137D01*
X55343712Y-66963671D01*
X55343710Y-66963670D01*
X55343709Y-66963670D01*
X55271854Y-66954210D01*
X55200001Y-66944750D01*
X55199999Y-66944750D01*
X55056291Y-66963670D01*
X55056287Y-66963671D01*
X54922377Y-67019137D01*
X54807379Y-67107379D01*
X54719137Y-67222377D01*
X54663671Y-67356287D01*
X54663670Y-67356291D01*
X54650642Y-67455250D01*
X54644750Y-67500000D01*
X53614346Y-67500000D01*
X53633219Y-67485518D01*
X53721459Y-67370522D01*
X53776928Y-67236606D01*
X53795848Y-67092897D01*
X53776928Y-66949188D01*
X53756554Y-66900000D01*
X56444750Y-66900000D01*
X56457915Y-67000000D01*
X56463670Y-67043708D01*
X56463671Y-67043712D01*
X56519137Y-67177622D01*
X56519138Y-67177624D01*
X56519139Y-67177625D01*
X56607379Y-67292621D01*
X56722375Y-67380861D01*
X56722376Y-67380861D01*
X56722377Y-67380862D01*
X56750771Y-67392623D01*
X56856291Y-67436330D01*
X56983280Y-67453048D01*
X56999999Y-67455250D01*
X57000000Y-67455250D01*
X57000001Y-67455250D01*
X57014977Y-67453278D01*
X57143709Y-67436330D01*
X57277625Y-67380861D01*
X57392621Y-67292621D01*
X57480861Y-67177625D01*
X57536330Y-67043709D01*
X57555250Y-66900000D01*
X57536330Y-66756291D01*
X57480861Y-66622375D01*
X57392621Y-66507379D01*
X57277625Y-66419139D01*
X57277624Y-66419138D01*
X57277622Y-66419137D01*
X57143712Y-66363671D01*
X57143710Y-66363670D01*
X57143709Y-66363670D01*
X57054856Y-66351972D01*
X57000001Y-66344750D01*
X56999999Y-66344750D01*
X56856291Y-66363670D01*
X56856287Y-66363671D01*
X56722377Y-66419137D01*
X56607379Y-66507379D01*
X56519137Y-66622377D01*
X56463671Y-66756287D01*
X56463670Y-66756291D01*
X56450505Y-66856291D01*
X56444750Y-66900000D01*
X53756554Y-66900000D01*
X53721459Y-66815272D01*
X53666689Y-66743895D01*
X53641496Y-66678728D01*
X53655534Y-66610283D01*
X53689577Y-66570036D01*
X53799724Y-66485518D01*
X53887964Y-66370522D01*
X53943433Y-66236606D01*
X53962353Y-66092897D01*
X53943433Y-65949188D01*
X53887964Y-65815272D01*
X53799724Y-65700276D01*
X53684728Y-65612036D01*
X53684727Y-65612035D01*
X53684725Y-65612034D01*
X53550815Y-65556568D01*
X53550813Y-65556567D01*
X53550812Y-65556567D01*
X53459224Y-65544509D01*
X53407104Y-65537647D01*
X53407102Y-65537647D01*
X53263394Y-65556567D01*
X53263390Y-65556568D01*
X53129480Y-65612034D01*
X53014482Y-65700276D01*
X52926240Y-65815274D01*
X52870774Y-65949184D01*
X52870773Y-65949188D01*
X52853438Y-66080861D01*
X52851853Y-66092897D01*
X52869601Y-66227707D01*
X52870773Y-66236605D01*
X52870774Y-66236609D01*
X52926241Y-66370520D01*
X52926242Y-66370522D01*
X52981010Y-66441897D01*
X53006204Y-66507066D01*
X52992166Y-66575511D01*
X52958113Y-66615764D01*
X52955484Y-66617781D01*
X52890313Y-66642971D01*
X52821869Y-66628927D01*
X52799194Y-66612162D01*
X52799068Y-66612327D01*
X52792622Y-66607381D01*
X52792621Y-66607379D01*
X52677625Y-66519139D01*
X52677624Y-66519138D01*
X52677622Y-66519137D01*
X52543712Y-66463671D01*
X52543710Y-66463670D01*
X52543709Y-66463670D01*
X52457727Y-66452350D01*
X52400001Y-66444750D01*
X52399999Y-66444750D01*
X52256291Y-66463670D01*
X52256287Y-66463671D01*
X52122377Y-66519137D01*
X52007379Y-66607379D01*
X51919137Y-66722377D01*
X51863671Y-66856287D01*
X51863670Y-66856291D01*
X51844750Y-66999999D01*
X51844750Y-67000000D01*
X51863670Y-67143708D01*
X51863671Y-67143712D01*
X51919138Y-67277623D01*
X51919139Y-67277625D01*
X52007380Y-67392623D01*
X52013126Y-67398369D01*
X52010574Y-67400920D01*
X52042091Y-67443873D01*
X52049500Y-67486092D01*
X52049500Y-69203454D01*
X52029815Y-69270493D01*
X52013179Y-69291138D01*
X51995874Y-69308442D01*
X51934550Y-69341925D01*
X51908128Y-69343185D01*
X51908128Y-69344750D01*
X51900000Y-69344750D01*
X51756291Y-69363670D01*
X51756287Y-69363671D01*
X51622377Y-69419137D01*
X51507379Y-69507379D01*
X51419137Y-69622377D01*
X51363671Y-69756287D01*
X51363670Y-69756291D01*
X51344750Y-69899999D01*
X51344750Y-69900000D01*
X39683005Y-69900000D01*
X39577625Y-69819139D01*
X39577624Y-69819138D01*
X39577622Y-69819137D01*
X39443712Y-69763671D01*
X39443710Y-69763670D01*
X39443709Y-69763670D01*
X39371854Y-69754210D01*
X39300001Y-69744750D01*
X39299999Y-69744750D01*
X39156291Y-69763670D01*
X39156287Y-69763671D01*
X39022377Y-69819137D01*
X38907379Y-69907379D01*
X38819137Y-70022377D01*
X38763671Y-70156287D01*
X38763670Y-70156291D01*
X38745722Y-70292620D01*
X38744750Y-70300000D01*
X33482078Y-70300000D01*
X33452262Y-70270184D01*
X33299523Y-70174211D01*
X33129254Y-70114631D01*
X33129249Y-70114630D01*
X32950004Y-70094435D01*
X32949996Y-70094435D01*
X32770750Y-70114630D01*
X32770745Y-70114631D01*
X32600476Y-70174211D01*
X32447737Y-70270184D01*
X32320184Y-70397737D01*
X32224211Y-70550476D01*
X32164631Y-70720745D01*
X32164630Y-70720750D01*
X32144435Y-70899996D01*
X32144435Y-70900003D01*
X23649200Y-70900003D01*
X23458485Y-70842150D01*
X23458483Y-70842149D01*
X23458481Y-70842149D01*
X23260000Y-70822601D01*
X23061518Y-70842149D01*
X22870651Y-70900048D01*
X22694768Y-70994060D01*
X22694761Y-70994065D01*
X22540589Y-71120589D01*
X22414065Y-71274761D01*
X22414060Y-71274768D01*
X22320048Y-71450651D01*
X22262149Y-71641518D01*
X22242601Y-71840000D01*
X20250000Y-71840000D01*
X20250000Y-68500000D01*
X47144750Y-68500000D01*
X47162523Y-68635000D01*
X47163670Y-68643708D01*
X47163671Y-68643712D01*
X47219137Y-68777622D01*
X47219138Y-68777624D01*
X47219139Y-68777625D01*
X47307379Y-68892621D01*
X47422375Y-68980861D01*
X47556291Y-69036330D01*
X47683280Y-69053048D01*
X47699999Y-69055250D01*
X47700000Y-69055250D01*
X47700001Y-69055250D01*
X47714977Y-69053278D01*
X47843709Y-69036330D01*
X47977625Y-68980861D01*
X48092621Y-68892621D01*
X48180861Y-68777625D01*
X48236330Y-68643709D01*
X48255250Y-68500000D01*
X48254371Y-68493327D01*
X48242026Y-68399558D01*
X48236330Y-68356291D01*
X48180861Y-68222375D01*
X48092621Y-68107379D01*
X47977625Y-68019139D01*
X47977624Y-68019138D01*
X47977622Y-68019137D01*
X47843712Y-67963671D01*
X47843710Y-67963670D01*
X47843709Y-67963670D01*
X47771854Y-67954210D01*
X47700001Y-67944750D01*
X47699999Y-67944750D01*
X47556291Y-67963670D01*
X47556287Y-67963671D01*
X47422377Y-68019137D01*
X47307379Y-68107379D01*
X47219137Y-68222377D01*
X47163671Y-68356287D01*
X47163670Y-68356291D01*
X47145629Y-68493327D01*
X47144750Y-68500000D01*
X20250000Y-68500000D01*
X20250000Y-67800000D01*
X44444750Y-67800000D01*
X44463670Y-67943708D01*
X44463671Y-67943712D01*
X44519137Y-68077622D01*
X44519138Y-68077624D01*
X44519139Y-68077625D01*
X44607379Y-68192621D01*
X44722375Y-68280861D01*
X44856291Y-68336330D01*
X44983280Y-68353048D01*
X44999999Y-68355250D01*
X45000000Y-68355250D01*
X45000001Y-68355250D01*
X45014977Y-68353278D01*
X45143709Y-68336330D01*
X45277625Y-68280861D01*
X45392621Y-68192621D01*
X45480861Y-68077625D01*
X45536330Y-67943709D01*
X45555250Y-67800000D01*
X45536330Y-67656291D01*
X45480861Y-67522375D01*
X45392621Y-67407379D01*
X45277625Y-67319139D01*
X45277624Y-67319138D01*
X45277622Y-67319137D01*
X45143712Y-67263671D01*
X45143710Y-67263670D01*
X45143709Y-67263670D01*
X45071854Y-67254210D01*
X45000001Y-67244750D01*
X44999999Y-67244750D01*
X44856291Y-67263670D01*
X44856287Y-67263671D01*
X44722377Y-67319137D01*
X44607379Y-67407379D01*
X44519137Y-67522377D01*
X44463671Y-67656287D01*
X44463670Y-67656291D01*
X44444750Y-67799999D01*
X44444750Y-67800000D01*
X20250000Y-67800000D01*
X20250000Y-51624000D01*
X20269685Y-51556961D01*
X20322489Y-51511206D01*
X20374000Y-51500000D01*
X21787270Y-51500000D01*
X21854309Y-51519685D01*
G37*
%TD.AperFunction*%
%TD*%
%TA.AperFunction,Conductor*%
%TO.N,+24V*%
G36*
X24184228Y-16269685D02*
G01*
X24229983Y-16322489D01*
X24239927Y-16391647D01*
X24210902Y-16455203D01*
X24181979Y-16479727D01*
X24109407Y-16524199D01*
X24109402Y-16524202D01*
X23928612Y-16678612D01*
X23774202Y-16859402D01*
X23774199Y-16859407D01*
X23649972Y-17062126D01*
X23558988Y-17281783D01*
X23503482Y-17512979D01*
X23484829Y-17750000D01*
X23503482Y-17987020D01*
X23503482Y-17987023D01*
X23503483Y-17987025D01*
X23558987Y-18218214D01*
X23558988Y-18218216D01*
X23649972Y-18437873D01*
X23774199Y-18640592D01*
X23774202Y-18640597D01*
X23844195Y-18722548D01*
X23928612Y-18821388D01*
X24044337Y-18920226D01*
X24109402Y-18975797D01*
X24109407Y-18975800D01*
X24312126Y-19100027D01*
X24389786Y-19132194D01*
X24531786Y-19191013D01*
X24762975Y-19246517D01*
X25000000Y-19265171D01*
X25237025Y-19246517D01*
X25468214Y-19191013D01*
X25687873Y-19100027D01*
X25851102Y-19000000D01*
X33795863Y-19000000D01*
X33816365Y-19221259D01*
X33816366Y-19221261D01*
X33877174Y-19434979D01*
X33877180Y-19434994D01*
X33976222Y-19633896D01*
X34110133Y-19811224D01*
X34274344Y-19960921D01*
X34274346Y-19960923D01*
X34463266Y-20077897D01*
X34463272Y-20077900D01*
X34489480Y-20088053D01*
X34670472Y-20158170D01*
X34888896Y-20199000D01*
X34888899Y-20199000D01*
X35111101Y-20199000D01*
X35111104Y-20199000D01*
X35329528Y-20158170D01*
X35536730Y-20077899D01*
X35725655Y-19960922D01*
X35889868Y-19811222D01*
X36023778Y-19633896D01*
X36122824Y-19434984D01*
X36183634Y-19221260D01*
X36204137Y-19000000D01*
X36201894Y-18975799D01*
X36183634Y-18778740D01*
X36183633Y-18778738D01*
X36130927Y-18593497D01*
X36122824Y-18565016D01*
X36023778Y-18366104D01*
X35929976Y-18241890D01*
X35889866Y-18188775D01*
X35725655Y-18039078D01*
X35725653Y-18039076D01*
X35536733Y-17922102D01*
X35536727Y-17922099D01*
X35426765Y-17879500D01*
X35329528Y-17841830D01*
X35111104Y-17801000D01*
X34888896Y-17801000D01*
X34670472Y-17841830D01*
X34620695Y-17861113D01*
X34463272Y-17922099D01*
X34463266Y-17922102D01*
X34274346Y-18039076D01*
X34274344Y-18039078D01*
X34110133Y-18188775D01*
X33976222Y-18366103D01*
X33877180Y-18565005D01*
X33877174Y-18565020D01*
X33816366Y-18778738D01*
X33816365Y-18778740D01*
X33795863Y-18999999D01*
X33795863Y-19000000D01*
X25851102Y-19000000D01*
X25890595Y-18975799D01*
X26071388Y-18821388D01*
X26225799Y-18640595D01*
X26350027Y-18437873D01*
X26441013Y-18218214D01*
X26496517Y-17987025D01*
X26515171Y-17750000D01*
X26496517Y-17512975D01*
X26441013Y-17281786D01*
X26350027Y-17062127D01*
X26350027Y-17062126D01*
X26225800Y-16859407D01*
X26225797Y-16859402D01*
X26170226Y-16794337D01*
X26071388Y-16678612D01*
X25972548Y-16594195D01*
X25890597Y-16524202D01*
X25890592Y-16524199D01*
X25818021Y-16479727D01*
X25771146Y-16427915D01*
X25759723Y-16358986D01*
X25787380Y-16294823D01*
X25845336Y-16255798D01*
X25882811Y-16250000D01*
X64876000Y-16250000D01*
X64943039Y-16269685D01*
X64988794Y-16322489D01*
X65000000Y-16374000D01*
X65000000Y-19875500D01*
X64980315Y-19942539D01*
X64927511Y-19988294D01*
X64876000Y-19999500D01*
X57886896Y-19999500D01*
X57819857Y-19979815D01*
X57774102Y-19927011D01*
X57764158Y-19857853D01*
X57793183Y-19794297D01*
X57803358Y-19783863D01*
X57815135Y-19773125D01*
X57831607Y-19758110D01*
X57910551Y-19653570D01*
X57956747Y-19592397D01*
X57956747Y-19592395D01*
X57956749Y-19592394D01*
X58049311Y-19406505D01*
X58106140Y-19206773D01*
X58125300Y-19000000D01*
X58123057Y-18975799D01*
X58106140Y-18793227D01*
X58102017Y-18778738D01*
X58049311Y-18593495D01*
X58035130Y-18565016D01*
X57956747Y-18407602D01*
X57831609Y-18241892D01*
X57831607Y-18241889D01*
X57678149Y-18101994D01*
X57678143Y-18101990D01*
X57501592Y-17992674D01*
X57501583Y-17992670D01*
X57411389Y-17957729D01*
X57307953Y-17917658D01*
X57103830Y-17879500D01*
X56896170Y-17879500D01*
X56692047Y-17917658D01*
X56498416Y-17992670D01*
X56498407Y-17992674D01*
X56321856Y-18101990D01*
X56321850Y-18101994D01*
X56168393Y-18241888D01*
X56098954Y-18333842D01*
X56042845Y-18375478D01*
X55973133Y-18380169D01*
X55911951Y-18346427D01*
X55901046Y-18333842D01*
X55831606Y-18241888D01*
X55678149Y-18101994D01*
X55678143Y-18101990D01*
X55501592Y-17992674D01*
X55501583Y-17992670D01*
X55411389Y-17957729D01*
X55307953Y-17917658D01*
X55103830Y-17879500D01*
X54896170Y-17879500D01*
X54692047Y-17917658D01*
X54498416Y-17992670D01*
X54498407Y-17992674D01*
X54321856Y-18101990D01*
X54321850Y-18101994D01*
X54168393Y-18241888D01*
X54098954Y-18333842D01*
X54042845Y-18375478D01*
X53973133Y-18380169D01*
X53911951Y-18346427D01*
X53901046Y-18333842D01*
X53831606Y-18241888D01*
X53678149Y-18101994D01*
X53678143Y-18101990D01*
X53501592Y-17992674D01*
X53501583Y-17992670D01*
X53411389Y-17957729D01*
X53307953Y-17917658D01*
X53103830Y-17879500D01*
X52896170Y-17879500D01*
X52692047Y-17917658D01*
X52498416Y-17992670D01*
X52498407Y-17992674D01*
X52321856Y-18101990D01*
X52321850Y-18101994D01*
X52168393Y-18241888D01*
X52098954Y-18333842D01*
X52042845Y-18375478D01*
X51973133Y-18380169D01*
X51911951Y-18346427D01*
X51901046Y-18333842D01*
X51831606Y-18241888D01*
X51678149Y-18101994D01*
X51678143Y-18101990D01*
X51501592Y-17992674D01*
X51501583Y-17992670D01*
X51411389Y-17957729D01*
X51307953Y-17917658D01*
X51103830Y-17879500D01*
X50896170Y-17879500D01*
X50692047Y-17917658D01*
X50498416Y-17992670D01*
X50498407Y-17992674D01*
X50321856Y-18101990D01*
X50321850Y-18101994D01*
X50168392Y-18241889D01*
X50168390Y-18241892D01*
X50043252Y-18407602D01*
X49950693Y-18593484D01*
X49950688Y-18593497D01*
X49893859Y-18793227D01*
X49874700Y-18999999D01*
X49874700Y-19000000D01*
X49893859Y-19206772D01*
X49950688Y-19406502D01*
X49950693Y-19406515D01*
X50043252Y-19592397D01*
X50168390Y-19758107D01*
X50168392Y-19758110D01*
X50321853Y-19898008D01*
X50325880Y-19901049D01*
X50367514Y-19957160D01*
X50372202Y-20026872D01*
X50338457Y-20088053D01*
X50325880Y-20098951D01*
X50321859Y-20101987D01*
X50253247Y-20164535D01*
X50190442Y-20195151D01*
X50121055Y-20186953D01*
X50069482Y-20144491D01*
X50069112Y-20144769D01*
X50067976Y-20143252D01*
X50067115Y-20142543D01*
X50065656Y-20140152D01*
X49977547Y-20022455D01*
X49977544Y-20022452D01*
X49862335Y-19936206D01*
X49862328Y-19936202D01*
X49727482Y-19885908D01*
X49727483Y-19885908D01*
X49667883Y-19879501D01*
X49667881Y-19879500D01*
X49667873Y-19879500D01*
X49667864Y-19879500D01*
X48332129Y-19879500D01*
X48332123Y-19879501D01*
X48272516Y-19885908D01*
X48137671Y-19936202D01*
X48137664Y-19936206D01*
X48022455Y-20022452D01*
X48022452Y-20022455D01*
X47936206Y-20137664D01*
X47936202Y-20137671D01*
X47885908Y-20272517D01*
X47879501Y-20332116D01*
X47879500Y-20332135D01*
X47879500Y-21667870D01*
X47879501Y-21667876D01*
X47885908Y-21727483D01*
X47936202Y-21862328D01*
X47936206Y-21862335D01*
X48022452Y-21977544D01*
X48022455Y-21977547D01*
X48137664Y-22063793D01*
X48137671Y-22063797D01*
X48272517Y-22114091D01*
X48272516Y-22114091D01*
X48279444Y-22114835D01*
X48332127Y-22120500D01*
X49667872Y-22120499D01*
X49727483Y-22114091D01*
X49862331Y-22063796D01*
X49977546Y-21977546D01*
X50009293Y-21935136D01*
X50069112Y-21855231D01*
X50071525Y-21857038D01*
X50110236Y-21818295D01*
X50178503Y-21803414D01*
X50243977Y-21827803D01*
X50253247Y-21835465D01*
X50321850Y-21898005D01*
X50321852Y-21898006D01*
X50321855Y-21898009D01*
X50421609Y-21959774D01*
X50498407Y-22007325D01*
X50498409Y-22007326D01*
X50498411Y-22007327D01*
X50692047Y-22082342D01*
X50896170Y-22120500D01*
X50896172Y-22120500D01*
X51103828Y-22120500D01*
X51103830Y-22120500D01*
X51307953Y-22082342D01*
X51501589Y-22007327D01*
X51678145Y-21898009D01*
X51831607Y-21758110D01*
X51901047Y-21666155D01*
X51957154Y-21624521D01*
X52026866Y-21619828D01*
X52088048Y-21653570D01*
X52098945Y-21666146D01*
X52117976Y-21691346D01*
X52168394Y-21758112D01*
X52321850Y-21898005D01*
X52321852Y-21898006D01*
X52321855Y-21898009D01*
X52421609Y-21959774D01*
X52498407Y-22007325D01*
X52498409Y-22007326D01*
X52498411Y-22007327D01*
X52692047Y-22082342D01*
X52896170Y-22120500D01*
X52896172Y-22120500D01*
X53103828Y-22120500D01*
X53103830Y-22120500D01*
X53307953Y-22082342D01*
X53501589Y-22007327D01*
X53678145Y-21898009D01*
X53831607Y-21758110D01*
X53901047Y-21666155D01*
X53957154Y-21624521D01*
X54026866Y-21619828D01*
X54088048Y-21653570D01*
X54098945Y-21666146D01*
X54117976Y-21691346D01*
X54168394Y-21758112D01*
X54321850Y-21898005D01*
X54321852Y-21898006D01*
X54321855Y-21898009D01*
X54421609Y-21959774D01*
X54498407Y-22007325D01*
X54498409Y-22007326D01*
X54498411Y-22007327D01*
X54692047Y-22082342D01*
X54896170Y-22120500D01*
X54896172Y-22120500D01*
X55103828Y-22120500D01*
X55103830Y-22120500D01*
X55307953Y-22082342D01*
X55501589Y-22007327D01*
X55678145Y-21898009D01*
X55831607Y-21758110D01*
X55901047Y-21666155D01*
X55957154Y-21624521D01*
X56026866Y-21619828D01*
X56088048Y-21653570D01*
X56098945Y-21666146D01*
X56117976Y-21691346D01*
X56168394Y-21758112D01*
X56321850Y-21898005D01*
X56321852Y-21898006D01*
X56321855Y-21898009D01*
X56421609Y-21959774D01*
X56498407Y-22007325D01*
X56498409Y-22007326D01*
X56498411Y-22007327D01*
X56692047Y-22082342D01*
X56896170Y-22120500D01*
X56896172Y-22120500D01*
X57103828Y-22120500D01*
X57103830Y-22120500D01*
X57307953Y-22082342D01*
X57468399Y-22020185D01*
X57497599Y-22008873D01*
X57542392Y-22000500D01*
X64625500Y-22000500D01*
X64692539Y-22020185D01*
X64738294Y-22072989D01*
X64749500Y-22124500D01*
X64749500Y-36616212D01*
X64729815Y-36683251D01*
X64677011Y-36729006D01*
X64607853Y-36738950D01*
X64559529Y-36721206D01*
X64524525Y-36699212D01*
X64354254Y-36639631D01*
X64354249Y-36639630D01*
X64175004Y-36619435D01*
X64174996Y-36619435D01*
X63995753Y-36639630D01*
X63995746Y-36639631D01*
X63991159Y-36641236D01*
X63987433Y-36642540D01*
X63946480Y-36649499D01*
X63913347Y-36649499D01*
X63913331Y-36649500D01*
X62782412Y-36649500D01*
X62715373Y-36629815D01*
X62705097Y-36622445D01*
X62702263Y-36620185D01*
X62702262Y-36620184D01*
X62645496Y-36584515D01*
X62549523Y-36524211D01*
X62379254Y-36464631D01*
X62379249Y-36464630D01*
X62200004Y-36444435D01*
X62199996Y-36444435D01*
X62020750Y-36464630D01*
X62020745Y-36464631D01*
X61850476Y-36524211D01*
X61697737Y-36620184D01*
X61570184Y-36747737D01*
X61474210Y-36900478D01*
X61414630Y-37070750D01*
X61412689Y-37087982D01*
X61385622Y-37152396D01*
X61328026Y-37191950D01*
X61275587Y-37197317D01*
X61250000Y-37194435D01*
X61249998Y-37194435D01*
X61249996Y-37194435D01*
X61070750Y-37214630D01*
X61070745Y-37214631D01*
X60900476Y-37274211D01*
X60747737Y-37370184D01*
X60620184Y-37497737D01*
X60524211Y-37650476D01*
X60464631Y-37820745D01*
X60464630Y-37820750D01*
X60444435Y-37999996D01*
X60444435Y-38000003D01*
X60464630Y-38179249D01*
X60464631Y-38179254D01*
X60524211Y-38349523D01*
X60620184Y-38502262D01*
X60747738Y-38629816D01*
X60900478Y-38725789D01*
X61014666Y-38765745D01*
X61070745Y-38785368D01*
X61070750Y-38785369D01*
X61249996Y-38805565D01*
X61250000Y-38805565D01*
X61250004Y-38805565D01*
X61429249Y-38785369D01*
X61429252Y-38785368D01*
X61429255Y-38785368D01*
X61599522Y-38725789D01*
X61752262Y-38629816D01*
X61879816Y-38502262D01*
X61975789Y-38349522D01*
X62035368Y-38179255D01*
X62037309Y-38162020D01*
X62064374Y-38097607D01*
X62121968Y-38058051D01*
X62174414Y-38052682D01*
X62190172Y-38054457D01*
X62199999Y-38055565D01*
X62200000Y-38055565D01*
X62200003Y-38055565D01*
X62379249Y-38035369D01*
X62379252Y-38035368D01*
X62379255Y-38035368D01*
X62549522Y-37975789D01*
X62702262Y-37879816D01*
X62702267Y-37879810D01*
X62705097Y-37877555D01*
X62707275Y-37876665D01*
X62708158Y-37876111D01*
X62708255Y-37876265D01*
X62769783Y-37851145D01*
X62782412Y-37850500D01*
X63428419Y-37850500D01*
X63495458Y-37870185D01*
X63533411Y-37908526D01*
X63545184Y-37927262D01*
X63672738Y-38054816D01*
X63825478Y-38150789D01*
X63918755Y-38183428D01*
X63995745Y-38210368D01*
X63995750Y-38210369D01*
X64174996Y-38230565D01*
X64175000Y-38230565D01*
X64175004Y-38230565D01*
X64354249Y-38210369D01*
X64354252Y-38210368D01*
X64354255Y-38210368D01*
X64524522Y-38150789D01*
X64559527Y-38128794D01*
X64626764Y-38109793D01*
X64693599Y-38130160D01*
X64738813Y-38183428D01*
X64749500Y-38233787D01*
X64749500Y-41909217D01*
X64729815Y-41976256D01*
X64713180Y-41996898D01*
X60060077Y-46650003D01*
X55996399Y-50713681D01*
X55935076Y-50747166D01*
X55908718Y-50750000D01*
X50931440Y-50750000D01*
X50864401Y-50730315D01*
X50818646Y-50677511D01*
X50808702Y-50608353D01*
X50837727Y-50544797D01*
X50843759Y-50538319D01*
X50846710Y-50535368D01*
X50879816Y-50502262D01*
X50975789Y-50349522D01*
X51035368Y-50179255D01*
X51036390Y-50170184D01*
X51055565Y-50000003D01*
X51055565Y-49999996D01*
X51035369Y-49820750D01*
X51035368Y-49820745D01*
X50988855Y-49687819D01*
X50975789Y-49650478D01*
X50879816Y-49497738D01*
X50752262Y-49370184D01*
X50599523Y-49274211D01*
X50429254Y-49214631D01*
X50429249Y-49214630D01*
X50250004Y-49194435D01*
X50249996Y-49194435D01*
X50070750Y-49214630D01*
X50070745Y-49214631D01*
X49900476Y-49274211D01*
X49747737Y-49370184D01*
X49620184Y-49497737D01*
X49524211Y-49650476D01*
X49464631Y-49820745D01*
X49464630Y-49820750D01*
X49444435Y-49999996D01*
X49444435Y-50000003D01*
X49464630Y-50179249D01*
X49464631Y-50179254D01*
X49524211Y-50349523D01*
X49620184Y-50502262D01*
X49656241Y-50538319D01*
X49689726Y-50599642D01*
X49684742Y-50669334D01*
X49642870Y-50725267D01*
X49577406Y-50749684D01*
X49568560Y-50750000D01*
X47594021Y-50750000D01*
X47526982Y-50730315D01*
X47489027Y-50691972D01*
X47429816Y-50597738D01*
X47302262Y-50470184D01*
X47270897Y-50450476D01*
X47149523Y-50374211D01*
X46979254Y-50314631D01*
X46979249Y-50314630D01*
X46800004Y-50294435D01*
X46799996Y-50294435D01*
X46620750Y-50314630D01*
X46620745Y-50314631D01*
X46450476Y-50374211D01*
X46297737Y-50470184D01*
X46170184Y-50597737D01*
X46125619Y-50668662D01*
X46116489Y-50683194D01*
X46110973Y-50691972D01*
X46058638Y-50738263D01*
X46005979Y-50750000D01*
X32295685Y-50750000D01*
X32228646Y-50730315D01*
X32182891Y-50677511D01*
X32172947Y-50608353D01*
X32201972Y-50544797D01*
X32254731Y-50508958D01*
X32288607Y-50497103D01*
X32349522Y-50475789D01*
X32502262Y-50379816D01*
X32629816Y-50252262D01*
X32725789Y-50099522D01*
X32785368Y-49929255D01*
X32785369Y-49929249D01*
X32805565Y-49750003D01*
X32805565Y-49749996D01*
X32785369Y-49570750D01*
X32785368Y-49570745D01*
X32760614Y-49500003D01*
X41794435Y-49500003D01*
X41814630Y-49679249D01*
X41814631Y-49679254D01*
X41874211Y-49849523D01*
X41929773Y-49937949D01*
X41970184Y-50002262D01*
X42097738Y-50129816D01*
X42250478Y-50225789D01*
X42354575Y-50262214D01*
X42420745Y-50285368D01*
X42420750Y-50285369D01*
X42599996Y-50305565D01*
X42600000Y-50305565D01*
X42600004Y-50305565D01*
X42779249Y-50285369D01*
X42779252Y-50285368D01*
X42779255Y-50285368D01*
X42949522Y-50225789D01*
X43102262Y-50129816D01*
X43229816Y-50002262D01*
X43325789Y-49849522D01*
X43385368Y-49679255D01*
X43385369Y-49679249D01*
X43405565Y-49500003D01*
X43405565Y-49499996D01*
X43385369Y-49320750D01*
X43385368Y-49320745D01*
X43325788Y-49150476D01*
X43229815Y-48997737D01*
X43102262Y-48870184D01*
X42949523Y-48774211D01*
X42779254Y-48714631D01*
X42779249Y-48714630D01*
X42600004Y-48694435D01*
X42599996Y-48694435D01*
X42420750Y-48714630D01*
X42420745Y-48714631D01*
X42250476Y-48774211D01*
X42097737Y-48870184D01*
X41970184Y-48997737D01*
X41874211Y-49150476D01*
X41814631Y-49320745D01*
X41814630Y-49320750D01*
X41794435Y-49499996D01*
X41794435Y-49500003D01*
X32760614Y-49500003D01*
X32725788Y-49400476D01*
X32686582Y-49338080D01*
X32629816Y-49247738D01*
X32502262Y-49120184D01*
X32349523Y-49024211D01*
X32179254Y-48964631D01*
X32179249Y-48964630D01*
X32000004Y-48944435D01*
X31999996Y-48944435D01*
X31820750Y-48964630D01*
X31820745Y-48964631D01*
X31650476Y-49024211D01*
X31497737Y-49120184D01*
X31370184Y-49247737D01*
X31274211Y-49400476D01*
X31214631Y-49570745D01*
X31214630Y-49570750D01*
X31194435Y-49749996D01*
X31194435Y-49750003D01*
X31214630Y-49929249D01*
X31214631Y-49929254D01*
X31274211Y-50099523D01*
X31353549Y-50225788D01*
X31370184Y-50252262D01*
X31497738Y-50379816D01*
X31571386Y-50426092D01*
X31650478Y-50475789D01*
X31745269Y-50508958D01*
X31802046Y-50549680D01*
X31827793Y-50614633D01*
X31814337Y-50683194D01*
X31765950Y-50733597D01*
X31704315Y-50750000D01*
X31010745Y-50750000D01*
X30943706Y-50730315D01*
X30897951Y-50677511D01*
X30887525Y-50639883D01*
X30885369Y-50620750D01*
X30885368Y-50620745D01*
X30881032Y-50608353D01*
X30825789Y-50450478D01*
X30810462Y-50426086D01*
X30740431Y-50314632D01*
X30729816Y-50297738D01*
X30602262Y-50170184D01*
X30538017Y-50129816D01*
X30449523Y-50074211D01*
X30279254Y-50014631D01*
X30279249Y-50014630D01*
X30100004Y-49994435D01*
X30099996Y-49994435D01*
X29920750Y-50014630D01*
X29920745Y-50014631D01*
X29750476Y-50074211D01*
X29597737Y-50170184D01*
X29470184Y-50297737D01*
X29374211Y-50450476D01*
X29314631Y-50620745D01*
X29314630Y-50620750D01*
X29312475Y-50639883D01*
X29285409Y-50704297D01*
X29227814Y-50743853D01*
X29189255Y-50750000D01*
X23616283Y-50750000D01*
X23549244Y-50730315D01*
X23528602Y-50713681D01*
X21536819Y-48721898D01*
X21503334Y-48660575D01*
X21500500Y-48634217D01*
X21500500Y-46650003D01*
X35694433Y-46650003D01*
X35714628Y-46829249D01*
X35714629Y-46829254D01*
X35774209Y-46999523D01*
X35837043Y-47099522D01*
X35870182Y-47152262D01*
X35997736Y-47279816D01*
X36150476Y-47375789D01*
X36161982Y-47379815D01*
X36320743Y-47435368D01*
X36320748Y-47435369D01*
X36499994Y-47455565D01*
X36499998Y-47455565D01*
X36500002Y-47455565D01*
X36679247Y-47435369D01*
X36679250Y-47435368D01*
X36679253Y-47435368D01*
X36849520Y-47375789D01*
X37002260Y-47279816D01*
X37129814Y-47152262D01*
X37225787Y-46999522D01*
X37285366Y-46829255D01*
X37285367Y-46829249D01*
X37294296Y-46750003D01*
X55194435Y-46750003D01*
X55214630Y-46929249D01*
X55214631Y-46929254D01*
X55274211Y-47099523D01*
X55370184Y-47252262D01*
X55497738Y-47379816D01*
X55650478Y-47475789D01*
X55820745Y-47535368D01*
X55820750Y-47535369D01*
X55999996Y-47555565D01*
X56000000Y-47555565D01*
X56000004Y-47555565D01*
X56179249Y-47535369D01*
X56179252Y-47535368D01*
X56179255Y-47535368D01*
X56349522Y-47475789D01*
X56502262Y-47379816D01*
X56629816Y-47252262D01*
X56725789Y-47099522D01*
X56785368Y-46929255D01*
X56785369Y-46929249D01*
X56805565Y-46750003D01*
X56805565Y-46749996D01*
X56785369Y-46570750D01*
X56785368Y-46570745D01*
X56725788Y-46400476D01*
X56662955Y-46300478D01*
X56629816Y-46247738D01*
X56502262Y-46120184D01*
X56429708Y-46074595D01*
X56349523Y-46024211D01*
X56179254Y-45964631D01*
X56179249Y-45964630D01*
X56000004Y-45944435D01*
X55999996Y-45944435D01*
X55820750Y-45964630D01*
X55820745Y-45964631D01*
X55650476Y-46024211D01*
X55497737Y-46120184D01*
X55370184Y-46247737D01*
X55274211Y-46400476D01*
X55214631Y-46570745D01*
X55214630Y-46570750D01*
X55194435Y-46749996D01*
X55194435Y-46750003D01*
X37294296Y-46750003D01*
X37305563Y-46650003D01*
X37305563Y-46649996D01*
X37285367Y-46470750D01*
X37285366Y-46470745D01*
X37225787Y-46300478D01*
X37129814Y-46147738D01*
X37002260Y-46020184D01*
X36913850Y-45964632D01*
X36849521Y-45924211D01*
X36679252Y-45864631D01*
X36679247Y-45864630D01*
X36500002Y-45844435D01*
X36499994Y-45844435D01*
X36320748Y-45864630D01*
X36320743Y-45864631D01*
X36150474Y-45924211D01*
X35997735Y-46020184D01*
X35870182Y-46147737D01*
X35774209Y-46300476D01*
X35714629Y-46470745D01*
X35714628Y-46470750D01*
X35694433Y-46649996D01*
X35694433Y-46650003D01*
X21500500Y-46650003D01*
X21500500Y-45750003D01*
X45444435Y-45750003D01*
X45464630Y-45929249D01*
X45464631Y-45929254D01*
X45524211Y-46099523D01*
X45554507Y-46147738D01*
X45620184Y-46252262D01*
X45747738Y-46379816D01*
X45838080Y-46436582D01*
X45892450Y-46470745D01*
X45900478Y-46475789D01*
X46070745Y-46535368D01*
X46070750Y-46535369D01*
X46249996Y-46555565D01*
X46250000Y-46555565D01*
X46250004Y-46555565D01*
X46429249Y-46535369D01*
X46429252Y-46535368D01*
X46429255Y-46535368D01*
X46599522Y-46475789D01*
X46752262Y-46379816D01*
X46879816Y-46252262D01*
X46975789Y-46099522D01*
X47035368Y-45929255D01*
X47035369Y-45929249D01*
X47055565Y-45750003D01*
X47055565Y-45749996D01*
X47035369Y-45570750D01*
X47035366Y-45570737D01*
X46981205Y-45415955D01*
X46977643Y-45346176D01*
X46981205Y-45334045D01*
X47035366Y-45179262D01*
X47035369Y-45179249D01*
X47055565Y-45000003D01*
X47055565Y-44999996D01*
X47035369Y-44820750D01*
X47035368Y-44820745D01*
X46975788Y-44650476D01*
X46912955Y-44550478D01*
X46879816Y-44497738D01*
X46752262Y-44370184D01*
X46649422Y-44305565D01*
X46599523Y-44274211D01*
X46429254Y-44214631D01*
X46429249Y-44214630D01*
X46250004Y-44194435D01*
X46249996Y-44194435D01*
X46070750Y-44214630D01*
X46070745Y-44214631D01*
X45900476Y-44274211D01*
X45747737Y-44370184D01*
X45620184Y-44497737D01*
X45524211Y-44650476D01*
X45464631Y-44820745D01*
X45464630Y-44820750D01*
X45444435Y-44999996D01*
X45444435Y-45000003D01*
X45464630Y-45179249D01*
X45464632Y-45179257D01*
X45518795Y-45334046D01*
X45522356Y-45403824D01*
X45518795Y-45415954D01*
X45464632Y-45570742D01*
X45464630Y-45570750D01*
X45444435Y-45749996D01*
X45444435Y-45750003D01*
X21500500Y-45750003D01*
X21500500Y-44900003D01*
X32944435Y-44900003D01*
X32964630Y-45079249D01*
X32964631Y-45079254D01*
X33024211Y-45249523D01*
X33077320Y-45334045D01*
X33120184Y-45402262D01*
X33247738Y-45529816D01*
X33400478Y-45625789D01*
X33570745Y-45685368D01*
X33570750Y-45685369D01*
X33749996Y-45705565D01*
X33750000Y-45705565D01*
X33750004Y-45705565D01*
X33929249Y-45685369D01*
X33929252Y-45685368D01*
X33929255Y-45685368D01*
X34099522Y-45625789D01*
X34252262Y-45529816D01*
X34379816Y-45402262D01*
X34475789Y-45249522D01*
X34535368Y-45079255D01*
X34535369Y-45079249D01*
X34555565Y-44900003D01*
X34555565Y-44899996D01*
X34535369Y-44720750D01*
X34535368Y-44720745D01*
X34534448Y-44718115D01*
X34475789Y-44550478D01*
X34379816Y-44397738D01*
X34252262Y-44270184D01*
X34181608Y-44225789D01*
X34099523Y-44174211D01*
X33929254Y-44114631D01*
X33929249Y-44114630D01*
X33750004Y-44094435D01*
X33749996Y-44094435D01*
X33570750Y-44114630D01*
X33570745Y-44114631D01*
X33400476Y-44174211D01*
X33247737Y-44270184D01*
X33120184Y-44397737D01*
X33024211Y-44550476D01*
X32964631Y-44720745D01*
X32964630Y-44720750D01*
X32944435Y-44899996D01*
X32944435Y-44900003D01*
X21500500Y-44900003D01*
X21500500Y-43200003D01*
X26594435Y-43200003D01*
X26614630Y-43379249D01*
X26614631Y-43379254D01*
X26674211Y-43549523D01*
X26724662Y-43629815D01*
X26770184Y-43702262D01*
X26897738Y-43829816D01*
X27050478Y-43925789D01*
X27193367Y-43975788D01*
X27220745Y-43985368D01*
X27220750Y-43985369D01*
X27399996Y-44005565D01*
X27400000Y-44005565D01*
X27400004Y-44005565D01*
X27579249Y-43985369D01*
X27579252Y-43985368D01*
X27579255Y-43985368D01*
X27749522Y-43925789D01*
X27902262Y-43829816D01*
X27936728Y-43795350D01*
X27998050Y-43761864D01*
X28065363Y-43765988D01*
X28120745Y-43785368D01*
X28120749Y-43785368D01*
X28120751Y-43785369D01*
X28120748Y-43785369D01*
X28299996Y-43805565D01*
X28300000Y-43805565D01*
X28300004Y-43805565D01*
X28479249Y-43785369D01*
X28479251Y-43785368D01*
X28479255Y-43785368D01*
X28479258Y-43785366D01*
X28479262Y-43785366D01*
X28609045Y-43739953D01*
X28678824Y-43736391D01*
X28690955Y-43739953D01*
X28820737Y-43785366D01*
X28820743Y-43785367D01*
X28820745Y-43785368D01*
X28820746Y-43785368D01*
X28820750Y-43785369D01*
X28999996Y-43805565D01*
X29000000Y-43805565D01*
X29000004Y-43805565D01*
X29179249Y-43785369D01*
X29179252Y-43785368D01*
X29179255Y-43785368D01*
X29349522Y-43725789D01*
X29502262Y-43629816D01*
X29629816Y-43502262D01*
X29725789Y-43349522D01*
X29760612Y-43250003D01*
X52444435Y-43250003D01*
X52464630Y-43429249D01*
X52464631Y-43429254D01*
X52524211Y-43599523D01*
X52588767Y-43702262D01*
X52620184Y-43752262D01*
X52747738Y-43879816D01*
X52900478Y-43975789D01*
X52985573Y-44005565D01*
X53070745Y-44035368D01*
X53070750Y-44035369D01*
X53249996Y-44055565D01*
X53250000Y-44055565D01*
X53250004Y-44055565D01*
X53429249Y-44035369D01*
X53429252Y-44035368D01*
X53429255Y-44035368D01*
X53599522Y-43975789D01*
X53752262Y-43879816D01*
X53879816Y-43752262D01*
X53975789Y-43599522D01*
X54035368Y-43429255D01*
X54041002Y-43379254D01*
X54055565Y-43250003D01*
X54055565Y-43249996D01*
X54035369Y-43070750D01*
X54035368Y-43070745D01*
X54017872Y-43020745D01*
X53975789Y-42900478D01*
X53975174Y-42899500D01*
X53936582Y-42838080D01*
X53879816Y-42747738D01*
X53752262Y-42620184D01*
X53672688Y-42570184D01*
X53599523Y-42524211D01*
X53429254Y-42464631D01*
X53429249Y-42464630D01*
X53250004Y-42444435D01*
X53249996Y-42444435D01*
X53070750Y-42464630D01*
X53070745Y-42464631D01*
X52900476Y-42524211D01*
X52747737Y-42620184D01*
X52620184Y-42747737D01*
X52524211Y-42900476D01*
X52464631Y-43070745D01*
X52464630Y-43070750D01*
X52444435Y-43249996D01*
X52444435Y-43250003D01*
X29760612Y-43250003D01*
X29785368Y-43179255D01*
X29785369Y-43179249D01*
X29805565Y-43000003D01*
X29805565Y-42999996D01*
X29785369Y-42820750D01*
X29785368Y-42820745D01*
X29725788Y-42650475D01*
X29691268Y-42595538D01*
X29672267Y-42528301D01*
X29692634Y-42461466D01*
X29745902Y-42416251D01*
X29796261Y-42405565D01*
X29800004Y-42405565D01*
X29979249Y-42385369D01*
X29979250Y-42385368D01*
X29979255Y-42385368D01*
X30059048Y-42357446D01*
X30128823Y-42353884D01*
X30140933Y-42357440D01*
X30220745Y-42385368D01*
X30220749Y-42385368D01*
X30220751Y-42385369D01*
X30220748Y-42385369D01*
X30399996Y-42405565D01*
X30400000Y-42405565D01*
X30400004Y-42405565D01*
X30579249Y-42385369D01*
X30579252Y-42385368D01*
X30579255Y-42385368D01*
X30749522Y-42325789D01*
X30902262Y-42229816D01*
X31029816Y-42102262D01*
X31125789Y-41949522D01*
X31185368Y-41779255D01*
X31185369Y-41779249D01*
X31205565Y-41600003D01*
X31205565Y-41599996D01*
X31185369Y-41420750D01*
X31185368Y-41420745D01*
X31125788Y-41250476D01*
X31029815Y-41097737D01*
X30902262Y-40970184D01*
X30749523Y-40874211D01*
X30579254Y-40814631D01*
X30579249Y-40814630D01*
X30449424Y-40800003D01*
X39794435Y-40800003D01*
X39814630Y-40979249D01*
X39814631Y-40979254D01*
X39874211Y-41149523D01*
X39937646Y-41250478D01*
X39970184Y-41302262D01*
X40097738Y-41429816D01*
X40250478Y-41525789D01*
X40406890Y-41580520D01*
X40420745Y-41585368D01*
X40420749Y-41585369D01*
X40522685Y-41596853D01*
X40542809Y-41599121D01*
X40590924Y-41614953D01*
X40649962Y-41649038D01*
X40668211Y-41659575D01*
X40668215Y-41659577D01*
X40820943Y-41700500D01*
X40979057Y-41700500D01*
X42313331Y-41700500D01*
X42313347Y-41700501D01*
X42320943Y-41700501D01*
X42479054Y-41700501D01*
X42479057Y-41700501D01*
X42631785Y-41659577D01*
X42725336Y-41605565D01*
X42768716Y-41580520D01*
X42880520Y-41468716D01*
X42880520Y-41468714D01*
X42890724Y-41458511D01*
X42890727Y-41458506D01*
X45268536Y-39080698D01*
X45329857Y-39047215D01*
X45342310Y-39045163D01*
X45429255Y-39035368D01*
X45599522Y-38975789D01*
X45752262Y-38879816D01*
X45879816Y-38752262D01*
X45975789Y-38599522D01*
X46035368Y-38429255D01*
X46055565Y-38250000D01*
X46053738Y-38233787D01*
X46035369Y-38070750D01*
X46035368Y-38070745D01*
X46010614Y-38000003D01*
X55394435Y-38000003D01*
X55414630Y-38179249D01*
X55414631Y-38179254D01*
X55474211Y-38349523D01*
X55570184Y-38502262D01*
X55697738Y-38629816D01*
X55850478Y-38725789D01*
X56020745Y-38785368D01*
X56107669Y-38795161D01*
X56172080Y-38822226D01*
X56181465Y-38830700D01*
X57163181Y-39812416D01*
X57196666Y-39873739D01*
X57199500Y-39900097D01*
X57199500Y-41463330D01*
X57199499Y-41463348D01*
X57199499Y-41629054D01*
X57199498Y-41629054D01*
X57240423Y-41781785D01*
X57269358Y-41831900D01*
X57269359Y-41831904D01*
X57269360Y-41831904D01*
X57319479Y-41918714D01*
X57319481Y-41918717D01*
X57438349Y-42037585D01*
X57438355Y-42037590D01*
X59265139Y-43864374D01*
X59265149Y-43864385D01*
X59269479Y-43868715D01*
X59269480Y-43868716D01*
X59381284Y-43980520D01*
X59381286Y-43980521D01*
X59381290Y-43980524D01*
X59476284Y-44035368D01*
X59518216Y-44059577D01*
X59630019Y-44089534D01*
X59670942Y-44100500D01*
X59670943Y-44100500D01*
X60017588Y-44100500D01*
X60084627Y-44120185D01*
X60094903Y-44127555D01*
X60097736Y-44129814D01*
X60097738Y-44129816D01*
X60211270Y-44201152D01*
X60232718Y-44214630D01*
X60250478Y-44225789D01*
X60377352Y-44270184D01*
X60420745Y-44285368D01*
X60420750Y-44285369D01*
X60599996Y-44305565D01*
X60600000Y-44305565D01*
X60600004Y-44305565D01*
X60779249Y-44285369D01*
X60779252Y-44285368D01*
X60779255Y-44285368D01*
X60949522Y-44225789D01*
X61102262Y-44129816D01*
X61229816Y-44002262D01*
X61325789Y-43849522D01*
X61385368Y-43679255D01*
X61385369Y-43679249D01*
X61405565Y-43500003D01*
X61405565Y-43499996D01*
X61385369Y-43320750D01*
X61385368Y-43320745D01*
X61360612Y-43249996D01*
X61325789Y-43150478D01*
X61229816Y-42997738D01*
X61102262Y-42870184D01*
X61068411Y-42848914D01*
X60949523Y-42774211D01*
X60779254Y-42714631D01*
X60779249Y-42714630D01*
X60600004Y-42694435D01*
X60599996Y-42694435D01*
X60420750Y-42714630D01*
X60420745Y-42714631D01*
X60250476Y-42774211D01*
X60102664Y-42867089D01*
X60035428Y-42886089D01*
X59968592Y-42865721D01*
X59949011Y-42849776D01*
X58436819Y-41337584D01*
X58403334Y-41276261D01*
X58400500Y-41249903D01*
X58400500Y-39689060D01*
X58400501Y-39689047D01*
X58400501Y-39520944D01*
X58400501Y-39520943D01*
X58359577Y-39368216D01*
X58317030Y-39294522D01*
X58280524Y-39231290D01*
X58280518Y-39231282D01*
X57663866Y-38614630D01*
X57030699Y-37981464D01*
X56997215Y-37920142D01*
X56995163Y-37907686D01*
X56985368Y-37820745D01*
X56925789Y-37650478D01*
X56829816Y-37497738D01*
X56702262Y-37370184D01*
X56669379Y-37349522D01*
X56549523Y-37274211D01*
X56379254Y-37214631D01*
X56379249Y-37214630D01*
X56200004Y-37194435D01*
X56199996Y-37194435D01*
X56020750Y-37214630D01*
X56020745Y-37214631D01*
X55850476Y-37274211D01*
X55697737Y-37370184D01*
X55570184Y-37497737D01*
X55474211Y-37650476D01*
X55414631Y-37820745D01*
X55414630Y-37820750D01*
X55394435Y-37999996D01*
X55394435Y-38000003D01*
X46010614Y-38000003D01*
X46004517Y-37982578D01*
X45975789Y-37900478D01*
X45879816Y-37747738D01*
X45752262Y-37620184D01*
X45599523Y-37524211D01*
X45429254Y-37464631D01*
X45429249Y-37464630D01*
X45250004Y-37444435D01*
X45249996Y-37444435D01*
X45070750Y-37464630D01*
X45070745Y-37464631D01*
X44900476Y-37524211D01*
X44747737Y-37620184D01*
X44620184Y-37747737D01*
X44524210Y-37900478D01*
X44464630Y-38070750D01*
X44454837Y-38157667D01*
X44427770Y-38222081D01*
X44419298Y-38231464D01*
X42187584Y-40463181D01*
X42126261Y-40496666D01*
X42099903Y-40499500D01*
X41425124Y-40499500D01*
X41358085Y-40479815D01*
X41320130Y-40441472D01*
X41229815Y-40297737D01*
X41102262Y-40170184D01*
X40949523Y-40074211D01*
X40779254Y-40014631D01*
X40779249Y-40014630D01*
X40600004Y-39994435D01*
X40599996Y-39994435D01*
X40420750Y-40014630D01*
X40420745Y-40014631D01*
X40250476Y-40074211D01*
X40097737Y-40170184D01*
X39970184Y-40297737D01*
X39874211Y-40450476D01*
X39814631Y-40620745D01*
X39814630Y-40620750D01*
X39794435Y-40799996D01*
X39794435Y-40800003D01*
X30449424Y-40800003D01*
X30400004Y-40794435D01*
X30399996Y-40794435D01*
X30220746Y-40814631D01*
X30220745Y-40814631D01*
X30140953Y-40842551D01*
X30071174Y-40846112D01*
X30059047Y-40842551D01*
X29979253Y-40814631D01*
X29800004Y-40794435D01*
X29799996Y-40794435D01*
X29620750Y-40814630D01*
X29620745Y-40814631D01*
X29450476Y-40874211D01*
X29297737Y-40970184D01*
X29170184Y-41097737D01*
X29074211Y-41250476D01*
X29014631Y-41420745D01*
X29014630Y-41420750D01*
X28994435Y-41599996D01*
X28994435Y-41600003D01*
X29014630Y-41779249D01*
X29014631Y-41779254D01*
X29074211Y-41949524D01*
X29108732Y-42004462D01*
X29127733Y-42071699D01*
X29107366Y-42138534D01*
X29054098Y-42183749D01*
X29003739Y-42194435D01*
X28999996Y-42194435D01*
X28820750Y-42214630D01*
X28820742Y-42214632D01*
X28690954Y-42260047D01*
X28621175Y-42263608D01*
X28609046Y-42260047D01*
X28479257Y-42214632D01*
X28479249Y-42214630D01*
X28300004Y-42194435D01*
X28299996Y-42194435D01*
X28120750Y-42214630D01*
X28120745Y-42214631D01*
X27950476Y-42274211D01*
X27797734Y-42370186D01*
X27797733Y-42370186D01*
X27763269Y-42404651D01*
X27701946Y-42438136D01*
X27634634Y-42434010D01*
X27579257Y-42414632D01*
X27579246Y-42414630D01*
X27400004Y-42394435D01*
X27399996Y-42394435D01*
X27220750Y-42414630D01*
X27220745Y-42414631D01*
X27050476Y-42474211D01*
X26897737Y-42570184D01*
X26770184Y-42697737D01*
X26674211Y-42850476D01*
X26614631Y-43020745D01*
X26614630Y-43020750D01*
X26594435Y-43199996D01*
X26594435Y-43200003D01*
X21500500Y-43200003D01*
X21500500Y-39400003D01*
X30260121Y-39400003D01*
X30280316Y-39579249D01*
X30280317Y-39579254D01*
X30339897Y-39749523D01*
X30340552Y-39750565D01*
X30435870Y-39902262D01*
X30563424Y-40029816D01*
X30716164Y-40125789D01*
X30843038Y-40170184D01*
X30886431Y-40185368D01*
X30886436Y-40185369D01*
X31065682Y-40205565D01*
X31065686Y-40205565D01*
X31065690Y-40205565D01*
X31244935Y-40185369D01*
X31244938Y-40185368D01*
X31244941Y-40185368D01*
X31415208Y-40125789D01*
X31567948Y-40029816D01*
X31695502Y-39902262D01*
X31791475Y-39749522D01*
X31851054Y-39579255D01*
X31851554Y-39574816D01*
X31871251Y-39400003D01*
X31871251Y-39399996D01*
X31851055Y-39220750D01*
X31851054Y-39220745D01*
X31817290Y-39124254D01*
X31791475Y-39050478D01*
X31788133Y-39045160D01*
X31744545Y-38975789D01*
X31725201Y-38945003D01*
X40539435Y-38945003D01*
X40559630Y-39124249D01*
X40559631Y-39124254D01*
X40619211Y-39294523D01*
X40665516Y-39368216D01*
X40715184Y-39447262D01*
X40842738Y-39574816D01*
X40995478Y-39670789D01*
X41047694Y-39689060D01*
X41165745Y-39730368D01*
X41165750Y-39730369D01*
X41344996Y-39750565D01*
X41345000Y-39750565D01*
X41345004Y-39750565D01*
X41524249Y-39730369D01*
X41524252Y-39730368D01*
X41524255Y-39730368D01*
X41694522Y-39670789D01*
X41847262Y-39574816D01*
X41974816Y-39447262D01*
X42070789Y-39294522D01*
X42130368Y-39124255D01*
X42130369Y-39124249D01*
X42150565Y-38945003D01*
X42150565Y-38944996D01*
X42130369Y-38765750D01*
X42130368Y-38765745D01*
X42077491Y-38614631D01*
X42070789Y-38595478D01*
X41974816Y-38442738D01*
X41847262Y-38315184D01*
X41694523Y-38219211D01*
X41524254Y-38159631D01*
X41524249Y-38159630D01*
X41345004Y-38139435D01*
X41344996Y-38139435D01*
X41165750Y-38159630D01*
X41165745Y-38159631D01*
X40995476Y-38219211D01*
X40842737Y-38315184D01*
X40715184Y-38442737D01*
X40619211Y-38595476D01*
X40559631Y-38765745D01*
X40559630Y-38765750D01*
X40539435Y-38944996D01*
X40539435Y-38945003D01*
X31725201Y-38945003D01*
X31695502Y-38897738D01*
X31567948Y-38770184D01*
X31560883Y-38765745D01*
X31415209Y-38674211D01*
X31244940Y-38614631D01*
X31244935Y-38614630D01*
X31065690Y-38594435D01*
X31065682Y-38594435D01*
X30886436Y-38614630D01*
X30886431Y-38614631D01*
X30716162Y-38674211D01*
X30563423Y-38770184D01*
X30435870Y-38897737D01*
X30339897Y-39050476D01*
X30280317Y-39220745D01*
X30280316Y-39220750D01*
X30260121Y-39399996D01*
X30260121Y-39400003D01*
X21500500Y-39400003D01*
X21500500Y-36300003D01*
X28694435Y-36300003D01*
X28714630Y-36479249D01*
X28714631Y-36479254D01*
X28774211Y-36649523D01*
X28835924Y-36747738D01*
X28870184Y-36802262D01*
X28997738Y-36929816D01*
X29150478Y-37025789D01*
X29278955Y-37070745D01*
X29320745Y-37085368D01*
X29320750Y-37085369D01*
X29499996Y-37105565D01*
X29500000Y-37105565D01*
X29500004Y-37105565D01*
X29679249Y-37085369D01*
X29679252Y-37085368D01*
X29679255Y-37085368D01*
X29849522Y-37025789D01*
X29890560Y-37000003D01*
X53194435Y-37000003D01*
X53214630Y-37179249D01*
X53214631Y-37179254D01*
X53274211Y-37349523D01*
X53333849Y-37444435D01*
X53370184Y-37502262D01*
X53497738Y-37629816D01*
X53650478Y-37725789D01*
X53713202Y-37747737D01*
X53820745Y-37785368D01*
X53820750Y-37785369D01*
X53999996Y-37805565D01*
X54000000Y-37805565D01*
X54000004Y-37805565D01*
X54179249Y-37785369D01*
X54179252Y-37785368D01*
X54179255Y-37785368D01*
X54349522Y-37725789D01*
X54502262Y-37629816D01*
X54629816Y-37502262D01*
X54725789Y-37349522D01*
X54785368Y-37179255D01*
X54785369Y-37179249D01*
X54805565Y-37000003D01*
X54805565Y-36999996D01*
X54785369Y-36820750D01*
X54785368Y-36820745D01*
X54725789Y-36650478D01*
X54725188Y-36649522D01*
X54629815Y-36497737D01*
X54502262Y-36370184D01*
X54349523Y-36274211D01*
X54179254Y-36214631D01*
X54179249Y-36214630D01*
X54000004Y-36194435D01*
X53999996Y-36194435D01*
X53820750Y-36214630D01*
X53820745Y-36214631D01*
X53650476Y-36274211D01*
X53497737Y-36370184D01*
X53370184Y-36497737D01*
X53274211Y-36650476D01*
X53214631Y-36820745D01*
X53214630Y-36820750D01*
X53194435Y-36999996D01*
X53194435Y-37000003D01*
X29890560Y-37000003D01*
X30002262Y-36929816D01*
X30129816Y-36802262D01*
X30225789Y-36649522D01*
X30285368Y-36479255D01*
X30287016Y-36464630D01*
X30305565Y-36300003D01*
X30305565Y-36299996D01*
X30285369Y-36120750D01*
X30285368Y-36120745D01*
X30225788Y-35950476D01*
X30194073Y-35900003D01*
X46794435Y-35900003D01*
X46814630Y-36079249D01*
X46814631Y-36079254D01*
X46874211Y-36249523D01*
X46889724Y-36274211D01*
X46970184Y-36402262D01*
X47097738Y-36529816D01*
X47188080Y-36586582D01*
X47241557Y-36620184D01*
X47250478Y-36625789D01*
X47414695Y-36683251D01*
X47420745Y-36685368D01*
X47420750Y-36685369D01*
X47599996Y-36705565D01*
X47600000Y-36705565D01*
X47600004Y-36705565D01*
X47779249Y-36685369D01*
X47779252Y-36685368D01*
X47779255Y-36685368D01*
X47949522Y-36625789D01*
X48102262Y-36529816D01*
X48229816Y-36402262D01*
X48325789Y-36249522D01*
X48385368Y-36079255D01*
X48405565Y-35900000D01*
X48385368Y-35720745D01*
X48325789Y-35550478D01*
X48303265Y-35514632D01*
X48229815Y-35397737D01*
X48102262Y-35270184D01*
X47949523Y-35174211D01*
X47779254Y-35114631D01*
X47779249Y-35114630D01*
X47600004Y-35094435D01*
X47599996Y-35094435D01*
X47420750Y-35114630D01*
X47420745Y-35114631D01*
X47250476Y-35174211D01*
X47097737Y-35270184D01*
X46970184Y-35397737D01*
X46874211Y-35550476D01*
X46814631Y-35720745D01*
X46814630Y-35720750D01*
X46794435Y-35899996D01*
X46794435Y-35900003D01*
X30194073Y-35900003D01*
X30129815Y-35797737D01*
X30002262Y-35670184D01*
X29849523Y-35574211D01*
X29679254Y-35514631D01*
X29679249Y-35514630D01*
X29500004Y-35494435D01*
X29499996Y-35494435D01*
X29320750Y-35514630D01*
X29320745Y-35514631D01*
X29150476Y-35574211D01*
X28997737Y-35670184D01*
X28870184Y-35797737D01*
X28774211Y-35950476D01*
X28714631Y-36120745D01*
X28714630Y-36120750D01*
X28694435Y-36299996D01*
X28694435Y-36300003D01*
X21500500Y-36300003D01*
X21500500Y-33374500D01*
X21520185Y-33307461D01*
X21572989Y-33261706D01*
X21624500Y-33250500D01*
X26934328Y-33250500D01*
X26953656Y-33246655D01*
X27030974Y-33231275D01*
X27127622Y-33212051D01*
X27180951Y-33189961D01*
X27309700Y-33136632D01*
X27309704Y-33136629D01*
X27310219Y-33136416D01*
X27379688Y-33128947D01*
X27442167Y-33160222D01*
X27477819Y-33220311D01*
X27475325Y-33290137D01*
X27474714Y-33291928D01*
X27464632Y-33320740D01*
X27464630Y-33320750D01*
X27444435Y-33499996D01*
X27444435Y-33500003D01*
X27464630Y-33679249D01*
X27464633Y-33679262D01*
X27524209Y-33849520D01*
X27577309Y-33934029D01*
X27596309Y-34001266D01*
X27577309Y-34065971D01*
X27524209Y-34150479D01*
X27464633Y-34320737D01*
X27464630Y-34320750D01*
X27444435Y-34499996D01*
X27444435Y-34500003D01*
X27464630Y-34679249D01*
X27464631Y-34679254D01*
X27524211Y-34849523D01*
X27620184Y-35002262D01*
X27747738Y-35129816D01*
X27900478Y-35225789D01*
X28027352Y-35270184D01*
X28070745Y-35285368D01*
X28070750Y-35285369D01*
X28249996Y-35305565D01*
X28250000Y-35305565D01*
X28250004Y-35305565D01*
X28429249Y-35285369D01*
X28429252Y-35285368D01*
X28429255Y-35285368D01*
X28599522Y-35225789D01*
X28752262Y-35129816D01*
X28879816Y-35002262D01*
X28975789Y-34849522D01*
X29035368Y-34679255D01*
X29051511Y-34535981D01*
X29078577Y-34471567D01*
X29087040Y-34462193D01*
X30201364Y-33347870D01*
X32249500Y-33347870D01*
X32249501Y-33347876D01*
X32255908Y-33407483D01*
X32306202Y-33542328D01*
X32306206Y-33542335D01*
X32392452Y-33657544D01*
X32392455Y-33657547D01*
X32507664Y-33743793D01*
X32507671Y-33743797D01*
X32642517Y-33794091D01*
X32642516Y-33794091D01*
X32649444Y-33794835D01*
X32702127Y-33800500D01*
X33897872Y-33800499D01*
X33957483Y-33794091D01*
X34092331Y-33743796D01*
X34207546Y-33657546D01*
X34293796Y-33542331D01*
X34344091Y-33407483D01*
X34350500Y-33347873D01*
X34350499Y-32152128D01*
X34344091Y-32092517D01*
X34293796Y-31957669D01*
X34293795Y-31957668D01*
X34293793Y-31957664D01*
X34207547Y-31842455D01*
X34207544Y-31842452D01*
X34092335Y-31756206D01*
X34092328Y-31756202D01*
X33957482Y-31705908D01*
X33957483Y-31705908D01*
X33897883Y-31699501D01*
X33897881Y-31699500D01*
X33897873Y-31699500D01*
X33897864Y-31699500D01*
X32702129Y-31699500D01*
X32702123Y-31699501D01*
X32642516Y-31705908D01*
X32507671Y-31756202D01*
X32507664Y-31756206D01*
X32392455Y-31842452D01*
X32392452Y-31842455D01*
X32306206Y-31957664D01*
X32306202Y-31957671D01*
X32255908Y-32092517D01*
X32249501Y-32152116D01*
X32249501Y-32152123D01*
X32249500Y-32152135D01*
X32249500Y-33347870D01*
X30201364Y-33347870D01*
X30958506Y-32590728D01*
X30958511Y-32590724D01*
X30968714Y-32580520D01*
X30968716Y-32580520D01*
X31080520Y-32468716D01*
X31144593Y-32357737D01*
X31159577Y-32331785D01*
X31200501Y-32179057D01*
X31200501Y-32020943D01*
X31200501Y-32013348D01*
X31200500Y-32013330D01*
X31200500Y-30164795D01*
X31200501Y-30164782D01*
X31200501Y-29996681D01*
X31200501Y-29996679D01*
X31159577Y-29843951D01*
X31116140Y-29768716D01*
X31080520Y-29707020D01*
X30968716Y-29595216D01*
X30968715Y-29595215D01*
X30964385Y-29590885D01*
X30964374Y-29590875D01*
X30623499Y-29250000D01*
X32244417Y-29250000D01*
X32264699Y-29455932D01*
X32289144Y-29536517D01*
X32324768Y-29653954D01*
X32422315Y-29836450D01*
X32456969Y-29878677D01*
X32553589Y-29996410D01*
X32650209Y-30075702D01*
X32713550Y-30127685D01*
X32896046Y-30225232D01*
X33094066Y-30285300D01*
X33094065Y-30285300D01*
X33112529Y-30287118D01*
X33300000Y-30305583D01*
X33505934Y-30285300D01*
X33703954Y-30225232D01*
X33886450Y-30127685D01*
X34046410Y-29996410D01*
X34177685Y-29836450D01*
X34275232Y-29653954D01*
X34335300Y-29455934D01*
X34355583Y-29250000D01*
X34335300Y-29044066D01*
X34275232Y-28846046D01*
X34177685Y-28663550D01*
X34125702Y-28600209D01*
X34046410Y-28503589D01*
X33886452Y-28372317D01*
X33886453Y-28372317D01*
X33886450Y-28372315D01*
X33703954Y-28274768D01*
X33505934Y-28214700D01*
X33505932Y-28214699D01*
X33505934Y-28214699D01*
X33300000Y-28194417D01*
X33094067Y-28214699D01*
X32896043Y-28274769D01*
X32785898Y-28333643D01*
X32713550Y-28372315D01*
X32713548Y-28372316D01*
X32713547Y-28372317D01*
X32553589Y-28503589D01*
X32423901Y-28661617D01*
X32422315Y-28663550D01*
X32388394Y-28727011D01*
X32324769Y-28846043D01*
X32264699Y-29044067D01*
X32244417Y-29250000D01*
X30623499Y-29250000D01*
X30411854Y-29038355D01*
X30411852Y-29038352D01*
X30292981Y-28919481D01*
X30292973Y-28919475D01*
X30204187Y-28868215D01*
X30204186Y-28868215D01*
X30156049Y-28840423D01*
X30003321Y-28799499D01*
X29845207Y-28799499D01*
X29837611Y-28799499D01*
X29837595Y-28799500D01*
X29010576Y-28799500D01*
X28943537Y-28779815D01*
X28897782Y-28727011D01*
X28887356Y-28661617D01*
X28905565Y-28500003D01*
X28905565Y-28499997D01*
X28886873Y-28334103D01*
X28898927Y-28265281D01*
X28946276Y-28213901D01*
X29013887Y-28196277D01*
X29023968Y-28196998D01*
X29069949Y-28202179D01*
X29099998Y-28205565D01*
X29100000Y-28205565D01*
X29100004Y-28205565D01*
X29279249Y-28185369D01*
X29279252Y-28185368D01*
X29279255Y-28185368D01*
X29449522Y-28125789D01*
X29586054Y-28040000D01*
X47984829Y-28040000D01*
X48003482Y-28277020D01*
X48003482Y-28277023D01*
X48003483Y-28277025D01*
X48058987Y-28508214D01*
X48058988Y-28508216D01*
X48149972Y-28727873D01*
X48274199Y-28930592D01*
X48274202Y-28930597D01*
X48287332Y-28945970D01*
X48428612Y-29111388D01*
X48544337Y-29210226D01*
X48609402Y-29265797D01*
X48609407Y-29265800D01*
X48812126Y-29390027D01*
X48889786Y-29422194D01*
X49031786Y-29481013D01*
X49262975Y-29536517D01*
X49500000Y-29555171D01*
X49737025Y-29536517D01*
X49968214Y-29481013D01*
X50187873Y-29390027D01*
X50390595Y-29265799D01*
X50571388Y-29111388D01*
X50725799Y-28930595D01*
X50850027Y-28727873D01*
X50941013Y-28508214D01*
X50996517Y-28277025D01*
X51015171Y-28040000D01*
X54984829Y-28040000D01*
X55003482Y-28277020D01*
X55003482Y-28277023D01*
X55003483Y-28277025D01*
X55058987Y-28508214D01*
X55058988Y-28508216D01*
X55149972Y-28727873D01*
X55274199Y-28930592D01*
X55274202Y-28930597D01*
X55287332Y-28945970D01*
X55428612Y-29111388D01*
X55544337Y-29210226D01*
X55609402Y-29265797D01*
X55609407Y-29265800D01*
X55812126Y-29390027D01*
X55889786Y-29422194D01*
X56031786Y-29481013D01*
X56262975Y-29536517D01*
X56500000Y-29555171D01*
X56737025Y-29536517D01*
X56968214Y-29481013D01*
X57187873Y-29390027D01*
X57390595Y-29265799D01*
X57571388Y-29111388D01*
X57725799Y-28930595D01*
X57850027Y-28727873D01*
X57941013Y-28508214D01*
X57996517Y-28277025D01*
X58015171Y-28040000D01*
X57996517Y-27802975D01*
X57941013Y-27571786D01*
X57869855Y-27399996D01*
X57850027Y-27352126D01*
X57725800Y-27149407D01*
X57725797Y-27149402D01*
X57641306Y-27050476D01*
X57571388Y-26968612D01*
X57449242Y-26864290D01*
X57411049Y-26805783D01*
X57410550Y-26735916D01*
X57447904Y-26676869D01*
X57449242Y-26675710D01*
X57450997Y-26674211D01*
X57571388Y-26571388D01*
X57725799Y-26390595D01*
X57850027Y-26187873D01*
X57941013Y-25968214D01*
X57996517Y-25737025D01*
X58015171Y-25500000D01*
X57996517Y-25262975D01*
X57941013Y-25031786D01*
X57867353Y-24853956D01*
X57850027Y-24812126D01*
X57725800Y-24609407D01*
X57725797Y-24609402D01*
X57670226Y-24544337D01*
X57571388Y-24428612D01*
X57472548Y-24344195D01*
X57390597Y-24274202D01*
X57390592Y-24274199D01*
X57187873Y-24149972D01*
X56968216Y-24058988D01*
X56968214Y-24058987D01*
X56737025Y-24003483D01*
X56737023Y-24003482D01*
X56737020Y-24003482D01*
X56500000Y-23984829D01*
X56262979Y-24003482D01*
X56262975Y-24003483D01*
X56031786Y-24058987D01*
X56031784Y-24058987D01*
X56031783Y-24058988D01*
X55812126Y-24149972D01*
X55609407Y-24274199D01*
X55609402Y-24274202D01*
X55428612Y-24428612D01*
X55274202Y-24609402D01*
X55274199Y-24609407D01*
X55149972Y-24812126D01*
X55058988Y-25031783D01*
X55058987Y-25031786D01*
X55057867Y-25036452D01*
X55003482Y-25262979D01*
X54984829Y-25500000D01*
X55003482Y-25737020D01*
X55003482Y-25737023D01*
X55003483Y-25737025D01*
X55058987Y-25968214D01*
X55058988Y-25968216D01*
X55149972Y-26187873D01*
X55274199Y-26390592D01*
X55274202Y-26390597D01*
X55344195Y-26472548D01*
X55428612Y-26571388D01*
X55494228Y-26627429D01*
X55550757Y-26675710D01*
X55588950Y-26734217D01*
X55589448Y-26804085D01*
X55552094Y-26863131D01*
X55550757Y-26864290D01*
X55428612Y-26968612D01*
X55274202Y-27149402D01*
X55274199Y-27149407D01*
X55149972Y-27352126D01*
X55061426Y-27565897D01*
X55058987Y-27571786D01*
X55021997Y-27725860D01*
X55003482Y-27802979D01*
X54984829Y-28040000D01*
X51015171Y-28040000D01*
X50996517Y-27802975D01*
X50941013Y-27571786D01*
X50869855Y-27399996D01*
X50850027Y-27352126D01*
X50725800Y-27149407D01*
X50725797Y-27149402D01*
X50641306Y-27050476D01*
X50571388Y-26968612D01*
X50449242Y-26864290D01*
X50411049Y-26805783D01*
X50410550Y-26735916D01*
X50447904Y-26676869D01*
X50449242Y-26675710D01*
X50450997Y-26674211D01*
X50571388Y-26571388D01*
X50725799Y-26390595D01*
X50850027Y-26187873D01*
X50941013Y-25968214D01*
X50996517Y-25737025D01*
X51015171Y-25500000D01*
X50996517Y-25262975D01*
X50941013Y-25031786D01*
X50867353Y-24853956D01*
X50850027Y-24812126D01*
X50725800Y-24609407D01*
X50725797Y-24609402D01*
X50670226Y-24544337D01*
X50571388Y-24428612D01*
X50472548Y-24344195D01*
X50390597Y-24274202D01*
X50390592Y-24274199D01*
X50187873Y-24149972D01*
X49968216Y-24058988D01*
X49968214Y-24058987D01*
X49737025Y-24003483D01*
X49737023Y-24003482D01*
X49737020Y-24003482D01*
X49500000Y-23984829D01*
X49262979Y-24003482D01*
X49262975Y-24003483D01*
X49031786Y-24058987D01*
X49031784Y-24058987D01*
X49031783Y-24058988D01*
X48812126Y-24149972D01*
X48609407Y-24274199D01*
X48609402Y-24274202D01*
X48428612Y-24428612D01*
X48274202Y-24609402D01*
X48274199Y-24609407D01*
X48149972Y-24812126D01*
X48058988Y-25031783D01*
X48058987Y-25031786D01*
X48057867Y-25036452D01*
X48003482Y-25262979D01*
X47984829Y-25500000D01*
X48003482Y-25737020D01*
X48003482Y-25737023D01*
X48003483Y-25737025D01*
X48058987Y-25968214D01*
X48058988Y-25968216D01*
X48149972Y-26187873D01*
X48274199Y-26390592D01*
X48274202Y-26390597D01*
X48344195Y-26472548D01*
X48428612Y-26571388D01*
X48494228Y-26627429D01*
X48550757Y-26675710D01*
X48588950Y-26734217D01*
X48589448Y-26804085D01*
X48552094Y-26863131D01*
X48550757Y-26864290D01*
X48428612Y-26968612D01*
X48274202Y-27149402D01*
X48274199Y-27149407D01*
X48149972Y-27352126D01*
X48061426Y-27565897D01*
X48058987Y-27571786D01*
X48021997Y-27725860D01*
X48003482Y-27802979D01*
X47984829Y-28040000D01*
X29586054Y-28040000D01*
X29602262Y-28029816D01*
X29729816Y-27902262D01*
X29825789Y-27749522D01*
X29885368Y-27579255D01*
X29886873Y-27565897D01*
X29905565Y-27400003D01*
X29905565Y-27399996D01*
X29885369Y-27220750D01*
X29885368Y-27220745D01*
X29865733Y-27164631D01*
X29825789Y-27050478D01*
X29729816Y-26897738D01*
X29602262Y-26770184D01*
X29531624Y-26725799D01*
X29449523Y-26674211D01*
X29279254Y-26614631D01*
X29279249Y-26614630D01*
X29100004Y-26594435D01*
X29099996Y-26594435D01*
X28920750Y-26614630D01*
X28920745Y-26614631D01*
X28750476Y-26674211D01*
X28597737Y-26770184D01*
X28470184Y-26897737D01*
X28374211Y-27050476D01*
X28314631Y-27220745D01*
X28314630Y-27220750D01*
X28294435Y-27399996D01*
X28294435Y-27400003D01*
X28313126Y-27565897D01*
X28301071Y-27634719D01*
X28253722Y-27686098D01*
X28186112Y-27703722D01*
X28176023Y-27703000D01*
X28100004Y-27694435D01*
X28099996Y-27694435D01*
X27920750Y-27714630D01*
X27920745Y-27714631D01*
X27750475Y-27774211D01*
X27740469Y-27780499D01*
X27673231Y-27799498D01*
X27606397Y-27779129D01*
X27561184Y-27725860D01*
X27550499Y-27675504D01*
X27550499Y-27352129D01*
X27550498Y-27352123D01*
X27550497Y-27352116D01*
X27544091Y-27292517D01*
X27496392Y-27164630D01*
X27493797Y-27157671D01*
X27493793Y-27157664D01*
X27407547Y-27042455D01*
X27407544Y-27042452D01*
X27292335Y-26956206D01*
X27292328Y-26956202D01*
X27157482Y-26905908D01*
X27157483Y-26905908D01*
X27097883Y-26899501D01*
X27097881Y-26899500D01*
X27097873Y-26899500D01*
X27097864Y-26899500D01*
X25902129Y-26899500D01*
X25902123Y-26899501D01*
X25842516Y-26905908D01*
X25707671Y-26956202D01*
X25707664Y-26956206D01*
X25592455Y-27042452D01*
X25592452Y-27042455D01*
X25506206Y-27157664D01*
X25506202Y-27157671D01*
X25455908Y-27292517D01*
X25449501Y-27352116D01*
X25449500Y-27352127D01*
X25449500Y-27917422D01*
X25449501Y-28375500D01*
X25429817Y-28442539D01*
X25377013Y-28488294D01*
X25325501Y-28499500D01*
X21949621Y-28499500D01*
X21917100Y-28508214D01*
X21917099Y-28508214D01*
X21894683Y-28514220D01*
X21824833Y-28512557D01*
X21766971Y-28473393D01*
X21739468Y-28409164D01*
X21751055Y-28340262D01*
X21757593Y-28328480D01*
X21775789Y-28299522D01*
X21835368Y-28129255D01*
X21855565Y-27950000D01*
X21851894Y-27917422D01*
X21835369Y-27770750D01*
X21835368Y-27770745D01*
X21815733Y-27714631D01*
X21775789Y-27600478D01*
X21679816Y-27447738D01*
X21552262Y-27320184D01*
X21549677Y-27318560D01*
X21399523Y-27224211D01*
X21229254Y-27164631D01*
X21229249Y-27164630D01*
X21050004Y-27144435D01*
X21049996Y-27144435D01*
X20870750Y-27164630D01*
X20870745Y-27164631D01*
X20700476Y-27224211D01*
X20547737Y-27320184D01*
X20461681Y-27406241D01*
X20400358Y-27439726D01*
X20330666Y-27434742D01*
X20274733Y-27392870D01*
X20250316Y-27327406D01*
X20250000Y-27318560D01*
X20250000Y-24450000D01*
X25444417Y-24450000D01*
X25464699Y-24655932D01*
X25464700Y-24655934D01*
X25524768Y-24853954D01*
X25622315Y-25036450D01*
X25622317Y-25036452D01*
X25753589Y-25196410D01*
X25834700Y-25262975D01*
X25913550Y-25327685D01*
X26096046Y-25425232D01*
X26294066Y-25485300D01*
X26294065Y-25485300D01*
X26312529Y-25487118D01*
X26500000Y-25505583D01*
X26705934Y-25485300D01*
X26903954Y-25425232D01*
X27086450Y-25327685D01*
X27246410Y-25196410D01*
X27377685Y-25036450D01*
X27475232Y-24853954D01*
X27535300Y-24655934D01*
X27555583Y-24450000D01*
X27535300Y-24244066D01*
X27475232Y-24046046D01*
X27377685Y-23863550D01*
X27325702Y-23800209D01*
X27246410Y-23703589D01*
X27086452Y-23572317D01*
X27086453Y-23572317D01*
X27086450Y-23572315D01*
X26903954Y-23474768D01*
X26705934Y-23414700D01*
X26705932Y-23414699D01*
X26705934Y-23414699D01*
X26500000Y-23394417D01*
X26294067Y-23414699D01*
X26096043Y-23474769D01*
X25985898Y-23533643D01*
X25913550Y-23572315D01*
X25913548Y-23572316D01*
X25913547Y-23572317D01*
X25753589Y-23703589D01*
X25622317Y-23863547D01*
X25524769Y-24046043D01*
X25464699Y-24244067D01*
X25444417Y-24450000D01*
X20250000Y-24450000D01*
X20250000Y-16374000D01*
X20269685Y-16306961D01*
X20322489Y-16261206D01*
X20374000Y-16250000D01*
X24117189Y-16250000D01*
X24184228Y-16269685D01*
G37*
%TD.AperFunction*%
%TD*%
M02*
