%TF.GenerationSoftware,KiCad,Pcbnew,8.0.4*%
%TF.CreationDate,2024-10-12T12:23:15-04:00*%
%TF.ProjectId,booster-tc-driver,626f6f73-7465-4722-9d74-632d64726976,rev?*%
%TF.SameCoordinates,Original*%
%TF.FileFunction,Copper,L5,Inr*%
%TF.FilePolarity,Positive*%
%FSLAX46Y46*%
G04 Gerber Fmt 4.6, Leading zero omitted, Abs format (unit mm)*
G04 Created by KiCad (PCBNEW 8.0.4) date 2024-10-12 12:23:15*
%MOMM*%
%LPD*%
G01*
G04 APERTURE LIST*
%TA.AperFunction,ComponentPad*%
%ADD10C,1.524000*%
%TD*%
%TA.AperFunction,ComponentPad*%
%ADD11C,1.400000*%
%TD*%
%TA.AperFunction,ComponentPad*%
%ADD12C,2.020000*%
%TD*%
%TA.AperFunction,ComponentPad*%
%ADD13R,1.397000X1.397000*%
%TD*%
%TA.AperFunction,ComponentPad*%
%ADD14C,1.397000*%
%TD*%
%TA.AperFunction,ComponentPad*%
%ADD15R,1.100000X1.100000*%
%TD*%
%TA.AperFunction,ComponentPad*%
%ADD16C,1.100000*%
%TD*%
%TA.AperFunction,ComponentPad*%
%ADD17R,1.620000X1.620000*%
%TD*%
%TA.AperFunction,ComponentPad*%
%ADD18C,1.620000*%
%TD*%
%TA.AperFunction,ComponentPad*%
%ADD19R,1.240000X1.240000*%
%TD*%
%TA.AperFunction,ComponentPad*%
%ADD20C,1.240000*%
%TD*%
%TA.AperFunction,ViaPad*%
%ADD21C,0.600000*%
%TD*%
G04 APERTURE END LIST*
D10*
%TO.N,GND*%
%TO.C,SW1*%
X23260000Y-71840000D03*
X23260000Y-82000000D03*
X25800000Y-82000000D03*
%TO.N,Net-(SW1-B)*%
X23260000Y-74380000D03*
%TO.N,VDD*%
X23260000Y-76920000D03*
%TD*%
D11*
%TO.N,GND*%
%TO.C,U3*%
X31790000Y-84482500D03*
%TO.N,INT*%
X33695000Y-84482500D03*
%TO.N,+5V*%
X35600000Y-84482500D03*
%TD*%
%TO.N,Net-(U2-K)*%
%TO.C,U2*%
X53330000Y-84482500D03*
%TO.N,+5V*%
X55870000Y-84482500D03*
%TD*%
D12*
%TO.N,GDT1_B*%
%TO.C,J9*%
X28960000Y-20500000D03*
%TO.N,GDT1_A*%
X31500000Y-20500000D03*
%TD*%
D13*
%TO.N,+24V*%
%TO.C,C19*%
X50000000Y-27666750D03*
D14*
%TO.N,GND*%
X50000000Y-32666750D03*
%TD*%
D15*
%TO.N,VDD*%
%TO.C,C37*%
X51000000Y-46500000D03*
D16*
%TO.N,GND*%
X51000000Y-50000000D03*
%TD*%
D12*
%TO.N,GND*%
%TO.C,J3*%
X22460000Y-20500000D03*
%TO.N,+24V*%
X25000000Y-20500000D03*
%TD*%
D15*
%TO.N,+12V*%
%TO.C,C29*%
X51000000Y-41500000D03*
D16*
%TO.N,GND*%
X51000000Y-38000000D03*
%TD*%
D17*
%TO.N,+5V*%
%TO.C,D11*%
X63804000Y-80980000D03*
D18*
%TO.N,Net-(IC1-LED1)*%
X61264000Y-80980000D03*
%TO.N,+5V*%
X63804000Y-78440000D03*
%TO.N,Net-(IC1-LED2)*%
X61264000Y-78440000D03*
%TO.N,+5V*%
X63804000Y-75900000D03*
%TO.N,Net-(IC1-LED3)*%
X61264000Y-75900000D03*
%TD*%
D11*
%TO.N,GND*%
%TO.C,U1*%
X42390000Y-84482500D03*
%TO.N,USART_RX*%
X44295000Y-84482500D03*
%TO.N,+5V*%
X46200000Y-84482500D03*
%TD*%
D19*
%TO.N,I_L_IN*%
%TO.C,J2*%
X57000000Y-19500000D03*
D20*
%TO.N,+24V*%
X57000000Y-21500000D03*
%TO.N,GND*%
X55000000Y-19500000D03*
%TO.N,PFC*%
X55000000Y-21500000D03*
%TO.N,GND*%
X53000000Y-19500000D03*
%TO.N,SCR*%
X53000000Y-21500000D03*
%TO.N,GND*%
X51000000Y-19500000D03*
%TO.N,VBUS_IN*%
X51000000Y-21500000D03*
%TO.N,+5V*%
X49000000Y-19500000D03*
%TO.N,VAC_IN*%
X49000000Y-21500000D03*
%TD*%
D12*
%TO.N,GDT2_B*%
%TO.C,J10*%
X35235000Y-20500000D03*
%TO.N,GDT2_A*%
X37775000Y-20500000D03*
%TD*%
D21*
%TO.N,GND*%
X45500000Y-35000000D03*
X67500000Y-64500000D03*
X18000000Y-17000000D03*
X67500000Y-67000000D03*
X42250000Y-55500000D03*
X67500000Y-84500000D03*
X67500000Y-44500000D03*
X56500000Y-51250000D03*
X39250000Y-65750000D03*
X18000000Y-29500000D03*
X45500000Y-27250000D03*
X18000000Y-27000000D03*
X67500000Y-27000000D03*
X18000000Y-69500000D03*
X67500000Y-59500000D03*
X18000000Y-67000000D03*
X67500000Y-17000000D03*
X67500000Y-74500000D03*
X67500000Y-22000000D03*
X67500000Y-19500000D03*
X43000000Y-55500000D03*
X43750000Y-73500000D03*
X57500000Y-62500000D03*
X48000000Y-49500000D03*
X39750000Y-51750000D03*
X18000000Y-32000000D03*
X34250000Y-70250000D03*
X18000000Y-74500000D03*
X67500000Y-37000000D03*
X67500000Y-24500000D03*
X27750000Y-38750000D03*
X67500000Y-32000000D03*
X46250000Y-45000000D03*
X42500000Y-40250000D03*
X18000000Y-59500000D03*
X44750000Y-29000000D03*
X45500000Y-66500000D03*
X29500000Y-62500000D03*
X18000000Y-52000000D03*
X40750000Y-42000000D03*
X18000000Y-57000000D03*
X18000000Y-84500000D03*
X44750000Y-27750000D03*
X18000000Y-24500000D03*
X50500000Y-56000000D03*
X67500000Y-87000000D03*
X67500000Y-47000000D03*
X18000000Y-54500000D03*
X18000000Y-22000000D03*
X18000000Y-87000000D03*
X24750000Y-59500000D03*
X18000000Y-19500000D03*
X67500000Y-57000000D03*
X28250000Y-66000000D03*
X18000000Y-72000000D03*
X36250000Y-66000000D03*
X52750000Y-64500000D03*
X67500000Y-79500000D03*
X51250000Y-66000000D03*
X18000000Y-79500000D03*
X18000000Y-82000000D03*
X67500000Y-29500000D03*
X67500000Y-42000000D03*
X46750000Y-29000000D03*
X39750000Y-38750000D03*
X63250000Y-62500000D03*
X67500000Y-39500000D03*
X67500000Y-52000000D03*
X34750000Y-45000000D03*
X18000000Y-42000000D03*
X67500000Y-62000000D03*
X67500000Y-72000000D03*
X67500000Y-69500000D03*
X18000000Y-37000000D03*
X37500000Y-69750000D03*
X18000000Y-44500000D03*
X46750000Y-27750000D03*
X33750000Y-38750000D03*
X29750000Y-67750000D03*
X57500000Y-51250000D03*
X18000000Y-49500000D03*
X67500000Y-77000000D03*
X18000000Y-47000000D03*
X32214650Y-58212064D03*
X67500000Y-49500000D03*
X21750000Y-38750000D03*
X54000000Y-58000000D03*
X67500000Y-82000000D03*
X18000000Y-62000000D03*
X67500000Y-34500000D03*
X22750000Y-45000000D03*
X18000000Y-39500000D03*
X18000000Y-77000000D03*
X27750000Y-72500000D03*
X18000000Y-34500000D03*
X18000000Y-64500000D03*
X67500000Y-54500000D03*
%TO.N,+5V*%
X52250000Y-54000000D03*
X61750000Y-59000000D03*
X50000000Y-47500000D03*
%TO.N,VDD*%
X63750000Y-64000000D03*
X37500000Y-57250000D03*
X32250000Y-65250000D03*
X50000000Y-58750000D03*
X30547226Y-58247206D03*
X23750000Y-66750000D03*
X54250000Y-73000000D03*
X63250000Y-64500000D03*
X36750000Y-65500000D03*
X40000000Y-64500000D03*
X26497986Y-76327514D03*
X27750000Y-69250000D03*
X32750000Y-48500000D03*
X21500000Y-68500000D03*
%TO.N,USART_RX*%
X31250000Y-60750000D03*
%TO.N,I_L*%
X33750000Y-68500000D03*
%TO.N,CT+*%
X23500000Y-55000000D03*
%TO.N,MODE_IN*%
X35750000Y-66500000D03*
X25500000Y-79500000D03*
X35750000Y-72750000D03*
%TO.N,CT-*%
X22500000Y-55000000D03*
%TO.N,I_PRI*%
X27250000Y-62500000D03*
%TO.N,VREF*%
X26750000Y-68250000D03*
X36500000Y-72500000D03*
X25250000Y-71250000D03*
%TO.N,VBUS_SENSE*%
X34750000Y-67500000D03*
%TO.N,VAC_SENSE*%
X32250000Y-70000000D03*
%TO.N,VDDA*%
X27250000Y-68750000D03*
%TO.N,THERM2*%
X29750000Y-73250000D03*
X24750000Y-61250000D03*
X42000000Y-72500000D03*
%TO.N,THERM1*%
X24250000Y-60750000D03*
X29750000Y-74000000D03*
X42000000Y-73500000D03*
%TO.N,+24V*%
X36250000Y-38750000D03*
X63750000Y-38250000D03*
X42250000Y-38750000D03*
X63750000Y-35750000D03*
X24250000Y-38750000D03*
X30250000Y-38750000D03*
X63750000Y-34500000D03*
X63750000Y-37000000D03*
X45500000Y-50500000D03*
X45500000Y-52500000D03*
X21000000Y-79500000D03*
X45500000Y-51500000D03*
%TO.N,+12V*%
X57500000Y-33750000D03*
X57500000Y-33000000D03*
X34750000Y-42000000D03*
X22750000Y-42000000D03*
%TO.N,THERM_BOARD*%
X47000000Y-35000000D03*
X32750000Y-69500000D03*
%TO.N,24V_SENSE*%
X25750000Y-67250000D03*
%TO.N,Net-(U9-BST)*%
X44000000Y-55500000D03*
X47250000Y-55500000D03*
%TO.N,VFAN_OUT*%
X54465696Y-68965696D03*
X44000000Y-56250000D03*
X48000000Y-50500000D03*
%TO.N,Net-(U10-G2)*%
X31500000Y-38750000D03*
%TO.N,Net-(IC4-OUT_A)*%
X29000000Y-38750000D03*
%TO.N,Net-(IC4-OUT_B)*%
X23000000Y-38750000D03*
%TO.N,Net-(U11-G2)*%
X25500000Y-38750000D03*
%TO.N,Net-(U12-G2)*%
X43500000Y-38750000D03*
%TO.N,Net-(IC5-OUT_A)*%
X41000000Y-38750000D03*
%TO.N,Net-(IC5-OUT_B)*%
X35000000Y-38750000D03*
%TO.N,Net-(U13-G2)*%
X37500000Y-38750000D03*
%TO.N,Net-(U10-D1)*%
X28750000Y-31000000D03*
X31750000Y-31000000D03*
X29750000Y-31000000D03*
X30250000Y-30250000D03*
X28250000Y-30250000D03*
X27250000Y-30250000D03*
X27750000Y-31000000D03*
X31250000Y-30250000D03*
X29250000Y-30250000D03*
X30750000Y-31000000D03*
%TO.N,Net-(U12-D1)*%
X43750000Y-31000000D03*
X39250000Y-30250000D03*
X39750000Y-31000000D03*
X41250000Y-30250000D03*
X40250000Y-30250000D03*
X42750000Y-31000000D03*
X43250000Y-30250000D03*
X40750000Y-31000000D03*
X41750000Y-31000000D03*
X42250000Y-30250000D03*
%TO.N,LED_TMP*%
X50739897Y-71500000D03*
%TO.N,LED_VBUS*%
X50250000Y-71000000D03*
%TO.N,LED_I_IN*%
X51250000Y-72000000D03*
%TO.N,SPI_CLK*%
X33250000Y-69000000D03*
X43500000Y-43500000D03*
%TO.N,SPI_MOSI*%
X34250000Y-68000000D03*
X43250000Y-45750000D03*
%TO.N,CS_FAN*%
X42491159Y-46245726D03*
%TO.N,GDT1_DIS*%
X33250000Y-59250000D03*
X25250000Y-42000000D03*
X25250000Y-45000000D03*
%TO.N,GDT_A*%
X24000000Y-45000000D03*
X36000000Y-45000000D03*
X32750000Y-58750000D03*
%TO.N,GDT_B*%
X21500000Y-45000000D03*
X34250000Y-60250000D03*
X33500000Y-45000000D03*
%TO.N,GDT2_DIS*%
X37250000Y-45000000D03*
X37310000Y-42000000D03*
X33750000Y-59750000D03*
%TO.N,VBUS_IN*%
X37500000Y-49500000D03*
%TO.N,I_L_IN*%
X32500000Y-53250000D03*
%TO.N,VAC_IN*%
X31725000Y-73750000D03*
X31750000Y-52500000D03*
%TO.N,PFC*%
X44750000Y-42250000D03*
X35250000Y-67000000D03*
%TO.N,SCR*%
X26250000Y-67750000D03*
X22750000Y-43750000D03*
X40887498Y-45250000D03*
%TO.N,GDT1_B*%
X22250000Y-30250000D03*
X24250000Y-30250000D03*
X21250000Y-30250000D03*
X23750000Y-31000000D03*
X21750000Y-31000000D03*
X24750000Y-31000000D03*
X22750000Y-31000000D03*
X23250000Y-30250000D03*
X25250000Y-30250000D03*
X25750000Y-31000000D03*
%TO.N,GDT2_B*%
X37250000Y-30250000D03*
X35750000Y-31000000D03*
X34750000Y-31000000D03*
X36750000Y-31000000D03*
X33250000Y-30250000D03*
X34250000Y-30250000D03*
X36250000Y-30250000D03*
X37750000Y-31000000D03*
X33750000Y-31000000D03*
X35250000Y-30250000D03*
%TO.N,USART_TX*%
X29750000Y-67000000D03*
X43509804Y-82990196D03*
%TO.N,Net-(U4-INPUT)*%
X28625000Y-62125000D03*
%TO.N,Net-(U4-OUTPUT)*%
X29250000Y-61750000D03*
%TO.N,FAN_EN*%
X44750000Y-47500000D03*
%TO.N,Net-(J4-Pad1)*%
X25750000Y-54000000D03*
%TO.N,Net-(J4-Pad2)*%
X29750000Y-52750000D03*
%TD*%
%TA.AperFunction,Conductor*%
%TO.N,GND*%
G36*
X69193039Y-16019685D02*
G01*
X69238794Y-16072489D01*
X69250000Y-16124000D01*
X69250000Y-87876000D01*
X69230315Y-87943039D01*
X69177511Y-87988794D01*
X69126000Y-88000000D01*
X57447478Y-88000000D01*
X57380439Y-87980315D01*
X57334684Y-87927511D01*
X57324740Y-87858353D01*
X57353765Y-87794797D01*
X57393676Y-87764280D01*
X57473526Y-87725825D01*
X57545001Y-87691405D01*
X57683308Y-87581108D01*
X57793605Y-87442801D01*
X57870360Y-87283418D01*
X57909724Y-87110951D01*
X57912200Y-87022500D01*
X57909724Y-86934049D01*
X57870360Y-86761582D01*
X57793605Y-86602199D01*
X57683308Y-86463892D01*
X57604097Y-86400723D01*
X57545003Y-86353596D01*
X57545000Y-86353594D01*
X57385618Y-86276839D01*
X57213157Y-86237476D01*
X57213151Y-86237476D01*
X57036249Y-86237476D01*
X57036242Y-86237476D01*
X56863781Y-86276839D01*
X56704399Y-86353594D01*
X56704396Y-86353596D01*
X56566092Y-86463892D01*
X56455796Y-86602196D01*
X56455794Y-86602199D01*
X56379039Y-86761581D01*
X56339676Y-86934042D01*
X56339676Y-87110957D01*
X56379039Y-87283418D01*
X56455794Y-87442800D01*
X56455796Y-87442803D01*
X56502923Y-87501897D01*
X56566092Y-87581108D01*
X56665417Y-87660317D01*
X56704396Y-87691403D01*
X56704399Y-87691405D01*
X56855724Y-87764280D01*
X56907583Y-87811103D01*
X56925896Y-87878530D01*
X56904848Y-87945154D01*
X56851122Y-87989822D01*
X56801922Y-88000000D01*
X52367778Y-88000000D01*
X52300739Y-87980315D01*
X52254984Y-87927511D01*
X52245040Y-87858353D01*
X52274065Y-87794797D01*
X52313976Y-87764280D01*
X52393826Y-87725825D01*
X52465301Y-87691405D01*
X52603608Y-87581108D01*
X52713905Y-87442801D01*
X52790660Y-87283418D01*
X52830024Y-87110951D01*
X52832500Y-87022500D01*
X52830024Y-86934049D01*
X52790660Y-86761582D01*
X52713905Y-86602199D01*
X52603608Y-86463892D01*
X52524397Y-86400723D01*
X52465303Y-86353596D01*
X52465300Y-86353594D01*
X52305918Y-86276839D01*
X52133457Y-86237476D01*
X52133451Y-86237476D01*
X51956549Y-86237476D01*
X51956542Y-86237476D01*
X51784081Y-86276839D01*
X51624699Y-86353594D01*
X51624696Y-86353596D01*
X51486392Y-86463892D01*
X51376096Y-86602196D01*
X51376094Y-86602199D01*
X51299339Y-86761581D01*
X51259976Y-86934042D01*
X51259976Y-87110957D01*
X51299339Y-87283418D01*
X51376094Y-87442800D01*
X51376096Y-87442803D01*
X51423223Y-87501897D01*
X51486392Y-87581108D01*
X51585717Y-87660317D01*
X51624696Y-87691403D01*
X51624699Y-87691405D01*
X51776024Y-87764280D01*
X51827883Y-87811103D01*
X51846196Y-87878530D01*
X51825148Y-87945154D01*
X51771422Y-87989822D01*
X51722222Y-88000000D01*
X47157478Y-88000000D01*
X47090439Y-87980315D01*
X47044684Y-87927511D01*
X47034740Y-87858353D01*
X47063765Y-87794797D01*
X47103676Y-87764280D01*
X47183526Y-87725825D01*
X47255001Y-87691405D01*
X47393308Y-87581108D01*
X47503605Y-87442801D01*
X47580360Y-87283418D01*
X47619724Y-87110951D01*
X47622200Y-87022500D01*
X47619724Y-86934049D01*
X47580360Y-86761582D01*
X47503605Y-86602199D01*
X47393308Y-86463892D01*
X47314097Y-86400723D01*
X47255003Y-86353596D01*
X47255000Y-86353594D01*
X47095618Y-86276839D01*
X46923157Y-86237476D01*
X46923151Y-86237476D01*
X46746249Y-86237476D01*
X46746242Y-86237476D01*
X46573781Y-86276839D01*
X46414399Y-86353594D01*
X46414396Y-86353596D01*
X46276092Y-86463892D01*
X46165796Y-86602196D01*
X46165794Y-86602199D01*
X46089039Y-86761581D01*
X46049676Y-86934042D01*
X46049676Y-87110957D01*
X46089039Y-87283418D01*
X46165794Y-87442800D01*
X46165796Y-87442803D01*
X46212923Y-87501897D01*
X46276092Y-87581108D01*
X46375417Y-87660317D01*
X46414396Y-87691403D01*
X46414399Y-87691405D01*
X46565724Y-87764280D01*
X46617583Y-87811103D01*
X46635896Y-87878530D01*
X46614848Y-87945154D01*
X46561122Y-87989822D01*
X46511922Y-88000000D01*
X42077778Y-88000000D01*
X42010739Y-87980315D01*
X41964984Y-87927511D01*
X41955040Y-87858353D01*
X41984065Y-87794797D01*
X42023976Y-87764280D01*
X42103826Y-87725825D01*
X42175301Y-87691405D01*
X42313608Y-87581108D01*
X42423905Y-87442801D01*
X42500660Y-87283418D01*
X42540024Y-87110951D01*
X42542500Y-87022500D01*
X42540024Y-86934049D01*
X42500660Y-86761582D01*
X42423905Y-86602199D01*
X42313608Y-86463892D01*
X42234397Y-86400723D01*
X42175303Y-86353596D01*
X42175300Y-86353594D01*
X42015918Y-86276839D01*
X41843457Y-86237476D01*
X41843451Y-86237476D01*
X41666549Y-86237476D01*
X41666542Y-86237476D01*
X41494081Y-86276839D01*
X41334699Y-86353594D01*
X41334696Y-86353596D01*
X41196392Y-86463892D01*
X41086096Y-86602196D01*
X41086094Y-86602199D01*
X41009339Y-86761581D01*
X40969976Y-86934042D01*
X40969976Y-87110957D01*
X41009339Y-87283418D01*
X41086094Y-87442800D01*
X41086096Y-87442803D01*
X41133223Y-87501897D01*
X41196392Y-87581108D01*
X41295717Y-87660317D01*
X41334696Y-87691403D01*
X41334699Y-87691405D01*
X41486024Y-87764280D01*
X41537883Y-87811103D01*
X41556196Y-87878530D01*
X41535148Y-87945154D01*
X41481422Y-87989822D01*
X41432222Y-88000000D01*
X36557478Y-88000000D01*
X36490439Y-87980315D01*
X36444684Y-87927511D01*
X36434740Y-87858353D01*
X36463765Y-87794797D01*
X36503676Y-87764280D01*
X36583526Y-87725825D01*
X36655001Y-87691405D01*
X36793308Y-87581108D01*
X36903605Y-87442801D01*
X36980360Y-87283418D01*
X37019724Y-87110951D01*
X37022200Y-87022500D01*
X37019724Y-86934049D01*
X36980360Y-86761582D01*
X36903605Y-86602199D01*
X36793308Y-86463892D01*
X36714097Y-86400723D01*
X36655003Y-86353596D01*
X36655000Y-86353594D01*
X36495618Y-86276839D01*
X36323157Y-86237476D01*
X36323151Y-86237476D01*
X36146249Y-86237476D01*
X36146242Y-86237476D01*
X35973781Y-86276839D01*
X35814399Y-86353594D01*
X35814396Y-86353596D01*
X35676092Y-86463892D01*
X35565796Y-86602196D01*
X35565794Y-86602199D01*
X35489039Y-86761581D01*
X35449676Y-86934042D01*
X35449676Y-87110957D01*
X35489039Y-87283418D01*
X35565794Y-87442800D01*
X35565796Y-87442803D01*
X35612923Y-87501897D01*
X35676092Y-87581108D01*
X35775417Y-87660317D01*
X35814396Y-87691403D01*
X35814399Y-87691405D01*
X35965724Y-87764280D01*
X36017583Y-87811103D01*
X36035896Y-87878530D01*
X36014848Y-87945154D01*
X35961122Y-87989822D01*
X35911922Y-88000000D01*
X31477778Y-88000000D01*
X31410739Y-87980315D01*
X31364984Y-87927511D01*
X31355040Y-87858353D01*
X31384065Y-87794797D01*
X31423976Y-87764280D01*
X31503826Y-87725825D01*
X31575301Y-87691405D01*
X31713608Y-87581108D01*
X31823905Y-87442801D01*
X31900660Y-87283418D01*
X31940024Y-87110951D01*
X31942500Y-87022500D01*
X31940024Y-86934049D01*
X31900660Y-86761582D01*
X31823905Y-86602199D01*
X31713608Y-86463892D01*
X31634397Y-86400723D01*
X31575303Y-86353596D01*
X31575300Y-86353594D01*
X31415918Y-86276839D01*
X31243457Y-86237476D01*
X31243451Y-86237476D01*
X31066549Y-86237476D01*
X31066542Y-86237476D01*
X30894081Y-86276839D01*
X30734699Y-86353594D01*
X30734696Y-86353596D01*
X30596392Y-86463892D01*
X30486096Y-86602196D01*
X30486094Y-86602199D01*
X30409339Y-86761581D01*
X30369976Y-86934042D01*
X30369976Y-87110957D01*
X30409339Y-87283418D01*
X30486094Y-87442800D01*
X30486096Y-87442803D01*
X30533223Y-87501897D01*
X30596392Y-87581108D01*
X30695717Y-87660317D01*
X30734696Y-87691403D01*
X30734699Y-87691405D01*
X30886024Y-87764280D01*
X30937883Y-87811103D01*
X30956196Y-87878530D01*
X30935148Y-87945154D01*
X30881422Y-87989822D01*
X30832222Y-88000000D01*
X16124000Y-88000000D01*
X16056961Y-87980315D01*
X16011206Y-87927511D01*
X16000000Y-87876000D01*
X16000000Y-84482500D01*
X32739901Y-84482500D01*
X32758252Y-84668831D01*
X32758253Y-84668833D01*
X32812604Y-84848002D01*
X32900862Y-85013123D01*
X32900864Y-85013126D01*
X33019642Y-85157857D01*
X33164373Y-85276635D01*
X33164376Y-85276637D01*
X33329497Y-85364895D01*
X33329499Y-85364896D01*
X33508666Y-85419246D01*
X33508668Y-85419247D01*
X33525374Y-85420892D01*
X33695000Y-85437599D01*
X33881331Y-85419247D01*
X34060501Y-85364896D01*
X34225625Y-85276636D01*
X34370357Y-85157857D01*
X34489136Y-85013125D01*
X34538142Y-84921441D01*
X34587104Y-84871597D01*
X34655241Y-84856136D01*
X34720921Y-84879967D01*
X34756858Y-84921441D01*
X34805862Y-85013123D01*
X34805864Y-85013126D01*
X34924642Y-85157857D01*
X35069373Y-85276635D01*
X35069376Y-85276637D01*
X35234497Y-85364895D01*
X35234499Y-85364896D01*
X35413666Y-85419246D01*
X35413668Y-85419247D01*
X35430374Y-85420892D01*
X35600000Y-85437599D01*
X35786331Y-85419247D01*
X35965501Y-85364896D01*
X36130625Y-85276636D01*
X36275357Y-85157857D01*
X36394136Y-85013125D01*
X36482396Y-84848001D01*
X36536747Y-84668831D01*
X36555099Y-84482500D01*
X36536747Y-84296169D01*
X36482396Y-84116999D01*
X36394136Y-83951875D01*
X36394135Y-83951873D01*
X36275357Y-83807142D01*
X36130626Y-83688364D01*
X36130623Y-83688362D01*
X35965502Y-83600104D01*
X35786333Y-83545753D01*
X35786331Y-83545752D01*
X35600000Y-83527401D01*
X35413668Y-83545752D01*
X35413666Y-83545753D01*
X35234497Y-83600104D01*
X35069376Y-83688362D01*
X35069373Y-83688364D01*
X34924642Y-83807142D01*
X34805864Y-83951873D01*
X34805862Y-83951876D01*
X34756858Y-84043558D01*
X34707896Y-84093402D01*
X34639758Y-84108863D01*
X34574078Y-84085031D01*
X34538142Y-84043558D01*
X34489137Y-83951876D01*
X34489135Y-83951873D01*
X34370357Y-83807142D01*
X34225626Y-83688364D01*
X34225623Y-83688362D01*
X34060502Y-83600104D01*
X33881333Y-83545753D01*
X33881331Y-83545752D01*
X33695000Y-83527401D01*
X33508668Y-83545752D01*
X33508666Y-83545753D01*
X33329497Y-83600104D01*
X33164376Y-83688362D01*
X33164373Y-83688364D01*
X33019642Y-83807142D01*
X32900864Y-83951873D01*
X32900862Y-83951876D01*
X32812604Y-84116997D01*
X32758253Y-84296166D01*
X32758252Y-84296168D01*
X32739901Y-84482500D01*
X16000000Y-84482500D01*
X16000000Y-82990195D01*
X42954554Y-82990195D01*
X42954554Y-82990196D01*
X42973474Y-83133904D01*
X42973475Y-83133908D01*
X43028941Y-83267818D01*
X43028942Y-83267819D01*
X43028943Y-83267821D01*
X43117183Y-83382817D01*
X43232179Y-83471057D01*
X43366095Y-83526526D01*
X43493084Y-83543244D01*
X43509803Y-83545446D01*
X43509803Y-83545445D01*
X43509804Y-83545446D01*
X43589926Y-83534897D01*
X43658959Y-83545662D01*
X43711215Y-83592041D01*
X43730101Y-83659310D01*
X43709621Y-83726111D01*
X43684776Y-83753689D01*
X43619640Y-83807145D01*
X43500864Y-83951873D01*
X43500862Y-83951876D01*
X43412604Y-84116997D01*
X43358253Y-84296166D01*
X43358252Y-84296168D01*
X43339901Y-84482500D01*
X43358252Y-84668831D01*
X43358253Y-84668833D01*
X43412604Y-84848002D01*
X43500862Y-85013123D01*
X43500864Y-85013126D01*
X43619642Y-85157857D01*
X43764373Y-85276635D01*
X43764376Y-85276637D01*
X43929497Y-85364895D01*
X43929499Y-85364896D01*
X44108666Y-85419246D01*
X44108668Y-85419247D01*
X44125374Y-85420892D01*
X44295000Y-85437599D01*
X44481331Y-85419247D01*
X44660501Y-85364896D01*
X44825625Y-85276636D01*
X44970357Y-85157857D01*
X45089136Y-85013125D01*
X45138142Y-84921441D01*
X45187104Y-84871597D01*
X45255241Y-84856136D01*
X45320921Y-84879967D01*
X45356858Y-84921441D01*
X45405862Y-85013123D01*
X45405864Y-85013126D01*
X45524642Y-85157857D01*
X45669373Y-85276635D01*
X45669376Y-85276637D01*
X45834497Y-85364895D01*
X45834499Y-85364896D01*
X46013666Y-85419246D01*
X46013668Y-85419247D01*
X46030374Y-85420892D01*
X46200000Y-85437599D01*
X46386331Y-85419247D01*
X46565501Y-85364896D01*
X46730625Y-85276636D01*
X46875357Y-85157857D01*
X46994136Y-85013125D01*
X47082396Y-84848001D01*
X47136747Y-84668831D01*
X47155099Y-84482500D01*
X52374901Y-84482500D01*
X52393252Y-84668831D01*
X52393253Y-84668833D01*
X52447604Y-84848002D01*
X52535862Y-85013123D01*
X52535864Y-85013126D01*
X52654642Y-85157857D01*
X52799373Y-85276635D01*
X52799376Y-85276637D01*
X52964497Y-85364895D01*
X52964499Y-85364896D01*
X53143666Y-85419246D01*
X53143668Y-85419247D01*
X53160374Y-85420892D01*
X53330000Y-85437599D01*
X53516331Y-85419247D01*
X53695501Y-85364896D01*
X53860625Y-85276636D01*
X54005357Y-85157857D01*
X54124136Y-85013125D01*
X54212396Y-84848001D01*
X54266747Y-84668831D01*
X54285099Y-84482500D01*
X54914901Y-84482500D01*
X54933252Y-84668831D01*
X54933253Y-84668833D01*
X54987604Y-84848002D01*
X55075862Y-85013123D01*
X55075864Y-85013126D01*
X55194642Y-85157857D01*
X55339373Y-85276635D01*
X55339376Y-85276637D01*
X55504497Y-85364895D01*
X55504499Y-85364896D01*
X55683666Y-85419246D01*
X55683668Y-85419247D01*
X55700374Y-85420892D01*
X55870000Y-85437599D01*
X56056331Y-85419247D01*
X56235501Y-85364896D01*
X56400625Y-85276636D01*
X56545357Y-85157857D01*
X56664136Y-85013125D01*
X56752396Y-84848001D01*
X56806747Y-84668831D01*
X56825099Y-84482500D01*
X56806747Y-84296169D01*
X56752396Y-84116999D01*
X56664136Y-83951875D01*
X56664135Y-83951873D01*
X56545357Y-83807142D01*
X56400626Y-83688364D01*
X56400623Y-83688362D01*
X56235502Y-83600104D01*
X56056333Y-83545753D01*
X56056331Y-83545752D01*
X55870000Y-83527401D01*
X55683668Y-83545752D01*
X55683666Y-83545753D01*
X55504497Y-83600104D01*
X55339376Y-83688362D01*
X55339373Y-83688364D01*
X55194642Y-83807142D01*
X55075864Y-83951873D01*
X55075862Y-83951876D01*
X54987604Y-84116997D01*
X54933253Y-84296166D01*
X54933252Y-84296168D01*
X54914901Y-84482500D01*
X54285099Y-84482500D01*
X54266747Y-84296169D01*
X54212396Y-84116999D01*
X54124136Y-83951875D01*
X54124135Y-83951873D01*
X54005357Y-83807142D01*
X53860626Y-83688364D01*
X53860623Y-83688362D01*
X53695502Y-83600104D01*
X53516333Y-83545753D01*
X53516331Y-83545752D01*
X53330000Y-83527401D01*
X53143668Y-83545752D01*
X53143666Y-83545753D01*
X52964497Y-83600104D01*
X52799376Y-83688362D01*
X52799373Y-83688364D01*
X52654642Y-83807142D01*
X52535864Y-83951873D01*
X52535862Y-83951876D01*
X52447604Y-84116997D01*
X52393253Y-84296166D01*
X52393252Y-84296168D01*
X52374901Y-84482500D01*
X47155099Y-84482500D01*
X47136747Y-84296169D01*
X47082396Y-84116999D01*
X46994136Y-83951875D01*
X46994135Y-83951873D01*
X46875357Y-83807142D01*
X46730626Y-83688364D01*
X46730623Y-83688362D01*
X46565502Y-83600104D01*
X46386333Y-83545753D01*
X46386331Y-83545752D01*
X46200000Y-83527401D01*
X46013668Y-83545752D01*
X46013666Y-83545753D01*
X45834497Y-83600104D01*
X45669376Y-83688362D01*
X45669373Y-83688364D01*
X45524642Y-83807142D01*
X45405864Y-83951873D01*
X45405862Y-83951876D01*
X45356858Y-84043558D01*
X45307896Y-84093402D01*
X45239758Y-84108863D01*
X45174078Y-84085031D01*
X45138142Y-84043558D01*
X45089137Y-83951876D01*
X45089135Y-83951873D01*
X44970357Y-83807142D01*
X44825626Y-83688364D01*
X44825623Y-83688362D01*
X44660502Y-83600104D01*
X44481333Y-83545753D01*
X44481331Y-83545752D01*
X44295000Y-83527401D01*
X44108670Y-83545752D01*
X44046205Y-83564701D01*
X43976338Y-83565324D01*
X43917225Y-83528075D01*
X43887634Y-83464781D01*
X43896961Y-83395537D01*
X43911833Y-83370556D01*
X43990665Y-83267821D01*
X44046134Y-83133905D01*
X44065054Y-82990196D01*
X44046134Y-82846487D01*
X43990665Y-82712571D01*
X43902425Y-82597575D01*
X43787429Y-82509335D01*
X43787428Y-82509334D01*
X43787426Y-82509333D01*
X43653516Y-82453867D01*
X43653514Y-82453866D01*
X43653513Y-82453866D01*
X43581658Y-82444406D01*
X43509805Y-82434946D01*
X43509803Y-82434946D01*
X43366095Y-82453866D01*
X43366091Y-82453867D01*
X43232181Y-82509333D01*
X43117183Y-82597575D01*
X43028941Y-82712573D01*
X42973475Y-82846483D01*
X42973474Y-82846487D01*
X42954554Y-82990195D01*
X16000000Y-82990195D01*
X16000000Y-79499999D01*
X20444750Y-79499999D01*
X20444750Y-79500000D01*
X20463670Y-79643708D01*
X20463671Y-79643712D01*
X20519137Y-79777622D01*
X20519138Y-79777624D01*
X20519139Y-79777625D01*
X20607379Y-79892621D01*
X20722375Y-79980861D01*
X20856291Y-80036330D01*
X20983280Y-80053048D01*
X20999999Y-80055250D01*
X21000000Y-80055250D01*
X21000001Y-80055250D01*
X21014977Y-80053278D01*
X21143709Y-80036330D01*
X21277625Y-79980861D01*
X21392621Y-79892621D01*
X21480861Y-79777625D01*
X21536330Y-79643709D01*
X21555250Y-79500000D01*
X21555250Y-79499999D01*
X24944750Y-79499999D01*
X24944750Y-79500000D01*
X24963670Y-79643708D01*
X24963671Y-79643712D01*
X25019137Y-79777622D01*
X25019138Y-79777624D01*
X25019139Y-79777625D01*
X25107379Y-79892621D01*
X25222375Y-79980861D01*
X25356291Y-80036330D01*
X25483280Y-80053048D01*
X25499999Y-80055250D01*
X25500000Y-80055250D01*
X25500001Y-80055250D01*
X25514977Y-80053278D01*
X25643709Y-80036330D01*
X25777625Y-79980861D01*
X25892621Y-79892621D01*
X25980861Y-79777625D01*
X26036330Y-79643709D01*
X26055250Y-79500000D01*
X26036330Y-79356291D01*
X26003797Y-79277748D01*
X32109947Y-79277748D01*
X32109947Y-79527251D01*
X32128393Y-79643712D01*
X32148976Y-79773668D01*
X32226074Y-80010949D01*
X32339341Y-80233249D01*
X32485989Y-80435093D01*
X32662407Y-80611511D01*
X32864251Y-80758159D01*
X33086551Y-80871426D01*
X33323832Y-80948524D01*
X33416240Y-80963159D01*
X33570249Y-80987553D01*
X33819746Y-80987553D01*
X33819751Y-80987553D01*
X33956647Y-80965870D01*
X34066168Y-80948524D01*
X34303449Y-80871426D01*
X34525749Y-80758159D01*
X34727593Y-80611511D01*
X34904011Y-80435093D01*
X35050659Y-80233249D01*
X35163926Y-80010949D01*
X35241024Y-79773668D01*
X35280053Y-79527246D01*
X35282500Y-79402500D01*
X35280053Y-79277754D01*
X35280052Y-79277748D01*
X42709947Y-79277748D01*
X42709947Y-79527251D01*
X42728393Y-79643712D01*
X42748976Y-79773668D01*
X42826074Y-80010949D01*
X42939341Y-80233249D01*
X43085989Y-80435093D01*
X43262407Y-80611511D01*
X43464251Y-80758159D01*
X43686551Y-80871426D01*
X43923832Y-80948524D01*
X44016240Y-80963159D01*
X44170249Y-80987553D01*
X44419746Y-80987553D01*
X44419751Y-80987553D01*
X44556647Y-80965870D01*
X44666168Y-80948524D01*
X44903449Y-80871426D01*
X45125749Y-80758159D01*
X45327593Y-80611511D01*
X45504011Y-80435093D01*
X45650659Y-80233249D01*
X45763926Y-80010949D01*
X45841024Y-79773668D01*
X45880053Y-79527246D01*
X45882500Y-79402500D01*
X45880053Y-79277754D01*
X45880052Y-79277748D01*
X52999947Y-79277748D01*
X52999947Y-79527251D01*
X53018393Y-79643712D01*
X53038976Y-79773668D01*
X53116074Y-80010949D01*
X53229341Y-80233249D01*
X53375989Y-80435093D01*
X53552407Y-80611511D01*
X53754251Y-80758159D01*
X53976551Y-80871426D01*
X54213832Y-80948524D01*
X54306240Y-80963159D01*
X54460249Y-80987553D01*
X54709746Y-80987553D01*
X54709751Y-80987553D01*
X54757437Y-80980000D01*
X60198369Y-80980000D01*
X60218844Y-81187892D01*
X60218845Y-81187894D01*
X60279485Y-81387799D01*
X60279486Y-81387802D01*
X60279487Y-81387803D01*
X60279488Y-81387806D01*
X60377956Y-81572027D01*
X60377960Y-81572034D01*
X60510484Y-81733515D01*
X60671965Y-81866039D01*
X60671972Y-81866043D01*
X60856193Y-81964511D01*
X60856194Y-81964511D01*
X60856201Y-81964515D01*
X61056106Y-82025155D01*
X61056105Y-82025155D01*
X61064340Y-82025966D01*
X61264000Y-82045631D01*
X61471894Y-82025155D01*
X61671799Y-81964515D01*
X61856033Y-81866040D01*
X62017515Y-81733515D01*
X62150040Y-81572033D01*
X62248515Y-81387799D01*
X62309155Y-81187894D01*
X62329631Y-80980000D01*
X62309155Y-80772106D01*
X62248515Y-80572201D01*
X62248511Y-80572193D01*
X62150043Y-80387972D01*
X62150039Y-80387965D01*
X62017515Y-80226484D01*
X61918618Y-80145321D01*
X62743500Y-80145321D01*
X62743500Y-81814678D01*
X62758032Y-81887735D01*
X62758033Y-81887739D01*
X62758034Y-81887740D01*
X62813399Y-81970601D01*
X62895046Y-82025155D01*
X62896260Y-82025966D01*
X62896264Y-82025967D01*
X62969321Y-82040499D01*
X62969324Y-82040500D01*
X62969326Y-82040500D01*
X64638676Y-82040500D01*
X64638677Y-82040499D01*
X64711740Y-82025966D01*
X64794601Y-81970601D01*
X64849966Y-81887740D01*
X64864500Y-81814674D01*
X64864500Y-80145326D01*
X64864500Y-80145323D01*
X64864499Y-80145321D01*
X64849967Y-80072264D01*
X64849966Y-80072260D01*
X64838600Y-80055250D01*
X64794601Y-79989399D01*
X64712954Y-79934845D01*
X64711739Y-79934033D01*
X64711735Y-79934032D01*
X64638677Y-79919500D01*
X64638674Y-79919500D01*
X62969326Y-79919500D01*
X62969323Y-79919500D01*
X62896264Y-79934032D01*
X62896260Y-79934033D01*
X62813399Y-79989399D01*
X62758033Y-80072260D01*
X62758032Y-80072264D01*
X62743500Y-80145321D01*
X61918618Y-80145321D01*
X61856034Y-80093960D01*
X61856027Y-80093956D01*
X61671806Y-79995488D01*
X61671803Y-79995487D01*
X61671802Y-79995486D01*
X61671799Y-79995485D01*
X61471894Y-79934845D01*
X61471892Y-79934844D01*
X61471894Y-79934844D01*
X61264000Y-79914369D01*
X61056107Y-79934844D01*
X60938075Y-79970648D01*
X60856201Y-79995485D01*
X60856198Y-79995486D01*
X60856196Y-79995487D01*
X60856193Y-79995488D01*
X60671972Y-80093956D01*
X60671965Y-80093960D01*
X60510484Y-80226484D01*
X60377960Y-80387965D01*
X60377956Y-80387972D01*
X60279488Y-80572193D01*
X60279487Y-80572196D01*
X60218844Y-80772107D01*
X60198369Y-80980000D01*
X54757437Y-80980000D01*
X54846647Y-80965870D01*
X54956168Y-80948524D01*
X55193449Y-80871426D01*
X55415749Y-80758159D01*
X55617593Y-80611511D01*
X55794011Y-80435093D01*
X55940659Y-80233249D01*
X56053926Y-80010949D01*
X56131024Y-79773668D01*
X56170053Y-79527246D01*
X56172500Y-79402500D01*
X56170053Y-79277754D01*
X56131024Y-79031332D01*
X56053926Y-78794051D01*
X55940659Y-78571751D01*
X55844936Y-78440000D01*
X60198369Y-78440000D01*
X60218844Y-78647892D01*
X60218845Y-78647894D01*
X60279485Y-78847799D01*
X60279486Y-78847802D01*
X60279487Y-78847803D01*
X60279488Y-78847806D01*
X60377956Y-79032027D01*
X60377960Y-79032034D01*
X60510484Y-79193515D01*
X60671965Y-79326039D01*
X60671972Y-79326043D01*
X60856193Y-79424511D01*
X60856194Y-79424511D01*
X60856201Y-79424515D01*
X61056106Y-79485155D01*
X61056105Y-79485155D01*
X61074745Y-79486990D01*
X61264000Y-79505631D01*
X61471894Y-79485155D01*
X61671799Y-79424515D01*
X61856033Y-79326040D01*
X62017515Y-79193515D01*
X62150040Y-79032033D01*
X62248515Y-78847799D01*
X62309155Y-78647894D01*
X62329631Y-78440000D01*
X62738369Y-78440000D01*
X62758844Y-78647892D01*
X62758845Y-78647894D01*
X62819485Y-78847799D01*
X62819486Y-78847802D01*
X62819487Y-78847803D01*
X62819488Y-78847806D01*
X62917956Y-79032027D01*
X62917960Y-79032034D01*
X63050484Y-79193515D01*
X63211965Y-79326039D01*
X63211972Y-79326043D01*
X63396193Y-79424511D01*
X63396194Y-79424511D01*
X63396201Y-79424515D01*
X63596106Y-79485155D01*
X63596105Y-79485155D01*
X63614745Y-79486990D01*
X63804000Y-79505631D01*
X64011894Y-79485155D01*
X64211799Y-79424515D01*
X64396033Y-79326040D01*
X64557515Y-79193515D01*
X64690040Y-79032033D01*
X64788515Y-78847799D01*
X64849155Y-78647894D01*
X64869631Y-78440000D01*
X64849155Y-78232106D01*
X64788515Y-78032201D01*
X64788511Y-78032193D01*
X64690043Y-77847972D01*
X64690039Y-77847965D01*
X64557515Y-77686484D01*
X64396034Y-77553960D01*
X64396027Y-77553956D01*
X64211806Y-77455488D01*
X64211803Y-77455487D01*
X64211802Y-77455486D01*
X64211799Y-77455485D01*
X64011894Y-77394845D01*
X64011892Y-77394844D01*
X64011894Y-77394844D01*
X63804000Y-77374369D01*
X63596107Y-77394844D01*
X63478075Y-77430648D01*
X63396201Y-77455485D01*
X63396198Y-77455486D01*
X63396196Y-77455487D01*
X63396193Y-77455488D01*
X63211972Y-77553956D01*
X63211965Y-77553960D01*
X63050484Y-77686484D01*
X62917960Y-77847965D01*
X62917956Y-77847972D01*
X62819488Y-78032193D01*
X62819487Y-78032196D01*
X62758844Y-78232107D01*
X62738369Y-78440000D01*
X62329631Y-78440000D01*
X62309155Y-78232106D01*
X62248515Y-78032201D01*
X62248511Y-78032193D01*
X62150043Y-77847972D01*
X62150039Y-77847965D01*
X62017515Y-77686484D01*
X61856034Y-77553960D01*
X61856027Y-77553956D01*
X61671806Y-77455488D01*
X61671803Y-77455487D01*
X61671802Y-77455486D01*
X61671799Y-77455485D01*
X61471894Y-77394845D01*
X61471892Y-77394844D01*
X61471894Y-77394844D01*
X61264000Y-77374369D01*
X61056107Y-77394844D01*
X60938075Y-77430648D01*
X60856201Y-77455485D01*
X60856198Y-77455486D01*
X60856196Y-77455487D01*
X60856193Y-77455488D01*
X60671972Y-77553956D01*
X60671965Y-77553960D01*
X60510484Y-77686484D01*
X60377960Y-77847965D01*
X60377956Y-77847972D01*
X60279488Y-78032193D01*
X60279487Y-78032196D01*
X60218844Y-78232107D01*
X60198369Y-78440000D01*
X55844936Y-78440000D01*
X55794011Y-78369907D01*
X55617593Y-78193489D01*
X55415749Y-78046841D01*
X55193449Y-77933574D01*
X54956168Y-77856476D01*
X54956166Y-77856475D01*
X54956164Y-77856475D01*
X54709751Y-77817447D01*
X54709746Y-77817447D01*
X54460254Y-77817447D01*
X54460249Y-77817447D01*
X54213835Y-77856475D01*
X53976548Y-77933575D01*
X53754250Y-78046841D01*
X53552404Y-78193491D01*
X53375991Y-78369904D01*
X53229341Y-78571750D01*
X53116075Y-78794048D01*
X53038975Y-79031335D01*
X52999947Y-79277748D01*
X45880052Y-79277748D01*
X45841024Y-79031332D01*
X45763926Y-78794051D01*
X45650659Y-78571751D01*
X45504011Y-78369907D01*
X45327593Y-78193489D01*
X45125749Y-78046841D01*
X44903449Y-77933574D01*
X44666168Y-77856476D01*
X44666166Y-77856475D01*
X44666164Y-77856475D01*
X44419751Y-77817447D01*
X44419746Y-77817447D01*
X44170254Y-77817447D01*
X44170249Y-77817447D01*
X43923835Y-77856475D01*
X43686548Y-77933575D01*
X43464250Y-78046841D01*
X43262404Y-78193491D01*
X43085991Y-78369904D01*
X42939341Y-78571750D01*
X42826075Y-78794048D01*
X42748975Y-79031335D01*
X42709947Y-79277748D01*
X35280052Y-79277748D01*
X35241024Y-79031332D01*
X35163926Y-78794051D01*
X35050659Y-78571751D01*
X34904011Y-78369907D01*
X34727593Y-78193489D01*
X34525749Y-78046841D01*
X34303449Y-77933574D01*
X34066168Y-77856476D01*
X34066166Y-77856475D01*
X34066164Y-77856475D01*
X33819751Y-77817447D01*
X33819746Y-77817447D01*
X33570254Y-77817447D01*
X33570249Y-77817447D01*
X33323835Y-77856475D01*
X33086548Y-77933575D01*
X32864250Y-78046841D01*
X32662404Y-78193491D01*
X32485991Y-78369904D01*
X32339341Y-78571750D01*
X32226075Y-78794048D01*
X32148975Y-79031335D01*
X32109947Y-79277748D01*
X26003797Y-79277748D01*
X25980861Y-79222375D01*
X25892621Y-79107379D01*
X25777625Y-79019139D01*
X25777624Y-79019138D01*
X25777622Y-79019137D01*
X25643712Y-78963671D01*
X25643710Y-78963670D01*
X25643709Y-78963670D01*
X25571854Y-78954210D01*
X25500001Y-78944750D01*
X25499999Y-78944750D01*
X25356291Y-78963670D01*
X25356287Y-78963671D01*
X25222377Y-79019137D01*
X25107379Y-79107379D01*
X25019137Y-79222377D01*
X24963671Y-79356287D01*
X24963670Y-79356291D01*
X24944750Y-79499999D01*
X21555250Y-79499999D01*
X21536330Y-79356291D01*
X21480861Y-79222375D01*
X21392621Y-79107379D01*
X21277625Y-79019139D01*
X21277624Y-79019138D01*
X21277622Y-79019137D01*
X21143712Y-78963671D01*
X21143710Y-78963670D01*
X21143709Y-78963670D01*
X21071854Y-78954210D01*
X21000001Y-78944750D01*
X20999999Y-78944750D01*
X20856291Y-78963670D01*
X20856287Y-78963671D01*
X20722377Y-79019137D01*
X20607379Y-79107379D01*
X20519137Y-79222377D01*
X20463671Y-79356287D01*
X20463670Y-79356291D01*
X20444750Y-79499999D01*
X16000000Y-79499999D01*
X16000000Y-76920000D01*
X22242601Y-76920000D01*
X22262149Y-77118481D01*
X22320048Y-77309348D01*
X22414060Y-77485231D01*
X22414065Y-77485238D01*
X22540589Y-77639410D01*
X22597950Y-77686484D01*
X22694763Y-77765936D01*
X22694766Y-77765937D01*
X22694768Y-77765939D01*
X22870651Y-77859951D01*
X22870654Y-77859951D01*
X22870658Y-77859954D01*
X23061515Y-77917850D01*
X23260000Y-77937399D01*
X23458485Y-77917850D01*
X23649342Y-77859954D01*
X23825237Y-77765936D01*
X23979410Y-77639410D01*
X24105936Y-77485237D01*
X24199954Y-77309342D01*
X24257850Y-77118485D01*
X24277399Y-76920000D01*
X24257850Y-76721515D01*
X24199954Y-76530658D01*
X24199951Y-76530654D01*
X24199951Y-76530651D01*
X24105939Y-76354768D01*
X24105937Y-76354766D01*
X24105936Y-76354763D01*
X24083573Y-76327513D01*
X25942736Y-76327513D01*
X25942736Y-76327514D01*
X25961656Y-76471222D01*
X25961657Y-76471226D01*
X26017123Y-76605136D01*
X26017124Y-76605138D01*
X26017125Y-76605139D01*
X26105365Y-76720135D01*
X26220361Y-76808375D01*
X26354277Y-76863844D01*
X26481266Y-76880562D01*
X26497985Y-76882764D01*
X26497986Y-76882764D01*
X26497987Y-76882764D01*
X26512963Y-76880792D01*
X26641695Y-76863844D01*
X26775611Y-76808375D01*
X26890607Y-76720135D01*
X26978847Y-76605139D01*
X27034316Y-76471223D01*
X27053236Y-76327514D01*
X27034316Y-76183805D01*
X26988861Y-76074065D01*
X26978848Y-76049891D01*
X26978847Y-76049890D01*
X26978847Y-76049889D01*
X26890607Y-75934893D01*
X26845134Y-75900000D01*
X60198369Y-75900000D01*
X60218844Y-76107892D01*
X60218845Y-76107894D01*
X60279485Y-76307799D01*
X60279486Y-76307802D01*
X60279487Y-76307803D01*
X60279488Y-76307806D01*
X60377956Y-76492027D01*
X60377960Y-76492034D01*
X60510484Y-76653515D01*
X60671965Y-76786039D01*
X60671972Y-76786043D01*
X60856193Y-76884511D01*
X60856194Y-76884511D01*
X60856201Y-76884515D01*
X61056106Y-76945155D01*
X61056105Y-76945155D01*
X61074745Y-76946990D01*
X61264000Y-76965631D01*
X61471894Y-76945155D01*
X61671799Y-76884515D01*
X61856033Y-76786040D01*
X62017515Y-76653515D01*
X62150040Y-76492033D01*
X62248515Y-76307799D01*
X62309155Y-76107894D01*
X62329631Y-75900000D01*
X62738369Y-75900000D01*
X62758844Y-76107892D01*
X62758845Y-76107894D01*
X62819485Y-76307799D01*
X62819486Y-76307802D01*
X62819487Y-76307803D01*
X62819488Y-76307806D01*
X62917956Y-76492027D01*
X62917960Y-76492034D01*
X63050484Y-76653515D01*
X63211965Y-76786039D01*
X63211972Y-76786043D01*
X63396193Y-76884511D01*
X63396194Y-76884511D01*
X63396201Y-76884515D01*
X63596106Y-76945155D01*
X63596105Y-76945155D01*
X63614745Y-76946990D01*
X63804000Y-76965631D01*
X64011894Y-76945155D01*
X64211799Y-76884515D01*
X64396033Y-76786040D01*
X64557515Y-76653515D01*
X64690040Y-76492033D01*
X64788515Y-76307799D01*
X64849155Y-76107894D01*
X64869631Y-75900000D01*
X64849155Y-75692106D01*
X64788515Y-75492201D01*
X64788511Y-75492193D01*
X64690043Y-75307972D01*
X64690039Y-75307965D01*
X64557515Y-75146484D01*
X64396034Y-75013960D01*
X64396027Y-75013956D01*
X64211806Y-74915488D01*
X64211803Y-74915487D01*
X64211802Y-74915486D01*
X64211799Y-74915485D01*
X64011894Y-74854845D01*
X64011892Y-74854844D01*
X64011894Y-74854844D01*
X63804000Y-74834369D01*
X63596107Y-74854844D01*
X63478075Y-74890648D01*
X63396201Y-74915485D01*
X63396198Y-74915486D01*
X63396196Y-74915487D01*
X63396193Y-74915488D01*
X63211972Y-75013956D01*
X63211965Y-75013960D01*
X63050484Y-75146484D01*
X62917960Y-75307965D01*
X62917956Y-75307972D01*
X62819488Y-75492193D01*
X62819487Y-75492196D01*
X62758844Y-75692107D01*
X62738369Y-75900000D01*
X62329631Y-75900000D01*
X62309155Y-75692106D01*
X62248515Y-75492201D01*
X62248511Y-75492193D01*
X62150043Y-75307972D01*
X62150039Y-75307965D01*
X62017515Y-75146484D01*
X61856034Y-75013960D01*
X61856027Y-75013956D01*
X61671806Y-74915488D01*
X61671803Y-74915487D01*
X61671802Y-74915486D01*
X61671799Y-74915485D01*
X61471894Y-74854845D01*
X61471892Y-74854844D01*
X61471894Y-74854844D01*
X61264000Y-74834369D01*
X61056107Y-74854844D01*
X60938075Y-74890648D01*
X60856201Y-74915485D01*
X60856198Y-74915486D01*
X60856196Y-74915487D01*
X60856193Y-74915488D01*
X60671972Y-75013956D01*
X60671965Y-75013960D01*
X60510484Y-75146484D01*
X60377960Y-75307965D01*
X60377956Y-75307972D01*
X60279488Y-75492193D01*
X60279487Y-75492196D01*
X60218844Y-75692107D01*
X60198369Y-75900000D01*
X26845134Y-75900000D01*
X26775611Y-75846653D01*
X26775610Y-75846652D01*
X26775608Y-75846651D01*
X26641698Y-75791185D01*
X26641696Y-75791184D01*
X26641695Y-75791184D01*
X26569840Y-75781724D01*
X26497987Y-75772264D01*
X26497985Y-75772264D01*
X26354277Y-75791184D01*
X26354273Y-75791185D01*
X26220363Y-75846651D01*
X26105365Y-75934893D01*
X26017123Y-76049891D01*
X25961657Y-76183801D01*
X25961656Y-76183805D01*
X25942736Y-76327513D01*
X24083573Y-76327513D01*
X24067394Y-76307799D01*
X23979410Y-76200589D01*
X23825238Y-76074065D01*
X23825231Y-76074060D01*
X23649348Y-75980048D01*
X23649342Y-75980046D01*
X23458485Y-75922150D01*
X23458483Y-75922149D01*
X23458481Y-75922149D01*
X23260000Y-75902601D01*
X23061518Y-75922149D01*
X22870651Y-75980048D01*
X22694768Y-76074060D01*
X22694761Y-76074065D01*
X22540589Y-76200589D01*
X22414065Y-76354761D01*
X22414060Y-76354768D01*
X22320048Y-76530651D01*
X22262149Y-76721518D01*
X22242601Y-76920000D01*
X16000000Y-76920000D01*
X16000000Y-74380000D01*
X22242601Y-74380000D01*
X22262149Y-74578481D01*
X22320048Y-74769348D01*
X22414060Y-74945231D01*
X22414065Y-74945238D01*
X22540589Y-75099410D01*
X22597950Y-75146484D01*
X22694763Y-75225936D01*
X22694766Y-75225937D01*
X22694768Y-75225939D01*
X22870651Y-75319951D01*
X22870654Y-75319951D01*
X22870658Y-75319954D01*
X23061515Y-75377850D01*
X23260000Y-75397399D01*
X23458485Y-75377850D01*
X23649342Y-75319954D01*
X23825237Y-75225936D01*
X23979410Y-75099410D01*
X24105936Y-74945237D01*
X24199954Y-74769342D01*
X24257850Y-74578485D01*
X24277399Y-74380000D01*
X24257850Y-74181515D01*
X24199954Y-73990658D01*
X24199951Y-73990654D01*
X24199951Y-73990651D01*
X24105939Y-73814768D01*
X24105937Y-73814766D01*
X24105936Y-73814763D01*
X24052786Y-73749999D01*
X23979410Y-73660589D01*
X23825238Y-73534065D01*
X23825231Y-73534060D01*
X23649348Y-73440048D01*
X23649342Y-73440046D01*
X23458485Y-73382150D01*
X23458483Y-73382149D01*
X23458481Y-73382149D01*
X23260000Y-73362601D01*
X23061518Y-73382149D01*
X22870651Y-73440048D01*
X22694768Y-73534060D01*
X22694761Y-73534065D01*
X22540589Y-73660589D01*
X22414065Y-73814761D01*
X22414060Y-73814768D01*
X22320048Y-73990651D01*
X22262149Y-74181518D01*
X22242601Y-74380000D01*
X16000000Y-74380000D01*
X16000000Y-73250000D01*
X29194750Y-73250000D01*
X29209574Y-73362601D01*
X29213670Y-73393708D01*
X29213671Y-73393712D01*
X29269138Y-73527624D01*
X29285935Y-73549515D01*
X29311128Y-73614685D01*
X29297089Y-73683129D01*
X29285935Y-73700485D01*
X29269138Y-73722375D01*
X29213671Y-73856287D01*
X29213670Y-73856291D01*
X29194750Y-73999999D01*
X29194750Y-74000000D01*
X29213670Y-74143708D01*
X29213671Y-74143712D01*
X29269137Y-74277622D01*
X29269138Y-74277624D01*
X29269139Y-74277625D01*
X29357379Y-74392621D01*
X29472375Y-74480861D01*
X29606291Y-74536330D01*
X29733280Y-74553048D01*
X29749999Y-74555250D01*
X29750000Y-74555250D01*
X29750001Y-74555250D01*
X29764977Y-74553278D01*
X29893709Y-74536330D01*
X30027625Y-74480861D01*
X30142621Y-74392621D01*
X30230861Y-74277625D01*
X30286330Y-74143709D01*
X30305250Y-74000000D01*
X30286330Y-73856291D01*
X30242303Y-73749999D01*
X31169750Y-73749999D01*
X31169750Y-73750000D01*
X31188670Y-73893708D01*
X31188671Y-73893712D01*
X31244137Y-74027622D01*
X31244138Y-74027624D01*
X31244139Y-74027625D01*
X31332379Y-74142621D01*
X31447375Y-74230861D01*
X31581291Y-74286330D01*
X31708280Y-74303048D01*
X31724999Y-74305250D01*
X31725000Y-74305250D01*
X31725001Y-74305250D01*
X31739977Y-74303278D01*
X31868709Y-74286330D01*
X32002625Y-74230861D01*
X32117621Y-74142621D01*
X32205861Y-74027625D01*
X32261330Y-73893709D01*
X32280250Y-73750000D01*
X32261330Y-73606291D01*
X32224350Y-73517013D01*
X32205862Y-73472377D01*
X32205861Y-73472376D01*
X32205861Y-73472375D01*
X32117621Y-73357379D01*
X32002625Y-73269139D01*
X32002624Y-73269138D01*
X32002622Y-73269137D01*
X31868712Y-73213671D01*
X31868710Y-73213670D01*
X31868709Y-73213670D01*
X31796854Y-73204210D01*
X31725001Y-73194750D01*
X31724999Y-73194750D01*
X31581291Y-73213670D01*
X31581287Y-73213671D01*
X31447377Y-73269137D01*
X31332379Y-73357379D01*
X31244137Y-73472377D01*
X31188671Y-73606287D01*
X31188670Y-73606291D01*
X31169750Y-73749999D01*
X30242303Y-73749999D01*
X30230861Y-73722375D01*
X30214065Y-73700486D01*
X30188871Y-73635317D01*
X30202909Y-73566872D01*
X30214065Y-73549514D01*
X30224182Y-73536329D01*
X30230861Y-73527625D01*
X30286330Y-73393709D01*
X30305250Y-73250000D01*
X30286330Y-73106291D01*
X30249350Y-73017013D01*
X30230862Y-72972377D01*
X30230861Y-72972376D01*
X30230861Y-72972375D01*
X30142621Y-72857379D01*
X30027625Y-72769139D01*
X30027624Y-72769138D01*
X30027622Y-72769137D01*
X29981418Y-72749999D01*
X35194750Y-72749999D01*
X35194750Y-72750000D01*
X35213670Y-72893708D01*
X35213671Y-72893712D01*
X35269137Y-73027622D01*
X35269138Y-73027624D01*
X35269139Y-73027625D01*
X35357379Y-73142621D01*
X35472375Y-73230861D01*
X35606291Y-73286330D01*
X35733280Y-73303048D01*
X35749999Y-73305250D01*
X35750000Y-73305250D01*
X35750001Y-73305250D01*
X35764977Y-73303278D01*
X35893709Y-73286330D01*
X36027625Y-73230861D01*
X36142621Y-73142621D01*
X36198122Y-73070289D01*
X36254547Y-73029089D01*
X36324293Y-73024934D01*
X36343944Y-73031215D01*
X36356291Y-73036330D01*
X36483280Y-73053048D01*
X36499999Y-73055250D01*
X36500000Y-73055250D01*
X36500001Y-73055250D01*
X36514977Y-73053278D01*
X36643709Y-73036330D01*
X36777625Y-72980861D01*
X36892621Y-72892621D01*
X36980861Y-72777625D01*
X37036330Y-72643709D01*
X37055250Y-72500000D01*
X37055250Y-72499999D01*
X41444750Y-72499999D01*
X41444750Y-72500000D01*
X41463670Y-72643708D01*
X41463671Y-72643712D01*
X41519137Y-72777622D01*
X41519138Y-72777624D01*
X41519139Y-72777625D01*
X41607379Y-72892621D01*
X41608796Y-72893708D01*
X41619113Y-72901625D01*
X41660316Y-72958053D01*
X41664470Y-73027799D01*
X41630257Y-73088719D01*
X41619113Y-73098375D01*
X41607381Y-73107377D01*
X41607380Y-73107378D01*
X41607379Y-73107379D01*
X41580337Y-73142621D01*
X41519137Y-73222377D01*
X41463671Y-73356287D01*
X41463670Y-73356291D01*
X41444750Y-73499999D01*
X41444750Y-73500000D01*
X41463670Y-73643708D01*
X41463671Y-73643712D01*
X41519137Y-73777622D01*
X41519138Y-73777624D01*
X41519139Y-73777625D01*
X41607379Y-73892621D01*
X41722375Y-73980861D01*
X41722376Y-73980861D01*
X41722377Y-73980862D01*
X41746027Y-73990658D01*
X41856291Y-74036330D01*
X41983280Y-74053048D01*
X41999999Y-74055250D01*
X42000000Y-74055250D01*
X42000001Y-74055250D01*
X42014977Y-74053278D01*
X42143709Y-74036330D01*
X42277625Y-73980861D01*
X42392621Y-73892621D01*
X42480861Y-73777625D01*
X42536330Y-73643709D01*
X42555250Y-73500000D01*
X42536330Y-73356291D01*
X42499350Y-73267013D01*
X42480862Y-73222377D01*
X42480861Y-73222376D01*
X42480861Y-73222375D01*
X42392621Y-73107379D01*
X42380886Y-73098374D01*
X42339685Y-73041950D01*
X42337185Y-73000000D01*
X53694750Y-73000000D01*
X53713526Y-73142619D01*
X53713670Y-73143708D01*
X53713671Y-73143712D01*
X53769137Y-73277622D01*
X53769138Y-73277624D01*
X53769139Y-73277625D01*
X53857379Y-73392621D01*
X53972375Y-73480861D01*
X54106291Y-73536330D01*
X54233280Y-73553048D01*
X54249999Y-73555250D01*
X54250000Y-73555250D01*
X54250001Y-73555250D01*
X54264977Y-73553278D01*
X54393709Y-73536330D01*
X54527625Y-73480861D01*
X54642621Y-73392621D01*
X54730861Y-73277625D01*
X54786330Y-73143709D01*
X54805250Y-73000000D01*
X54786330Y-72856291D01*
X54749350Y-72767013D01*
X54730862Y-72722377D01*
X54730861Y-72722376D01*
X54730861Y-72722375D01*
X54642621Y-72607379D01*
X54527625Y-72519139D01*
X54527624Y-72519138D01*
X54527622Y-72519137D01*
X54393712Y-72463671D01*
X54393710Y-72463670D01*
X54393709Y-72463670D01*
X54321854Y-72454210D01*
X54250001Y-72444750D01*
X54249999Y-72444750D01*
X54106291Y-72463670D01*
X54106287Y-72463671D01*
X53972377Y-72519137D01*
X53857379Y-72607379D01*
X53769137Y-72722377D01*
X53713671Y-72856287D01*
X53713670Y-72856291D01*
X53697270Y-72980862D01*
X53694750Y-73000000D01*
X42337185Y-73000000D01*
X42335529Y-72972204D01*
X42369740Y-72911283D01*
X42380876Y-72901632D01*
X42392621Y-72892621D01*
X42480861Y-72777625D01*
X42536330Y-72643709D01*
X42555250Y-72500000D01*
X42536330Y-72356291D01*
X42480861Y-72222375D01*
X42392621Y-72107379D01*
X42277625Y-72019139D01*
X42277624Y-72019138D01*
X42277622Y-72019137D01*
X42143712Y-71963671D01*
X42143710Y-71963670D01*
X42143709Y-71963670D01*
X42071854Y-71954210D01*
X42000001Y-71944750D01*
X41999999Y-71944750D01*
X41856291Y-71963670D01*
X41856287Y-71963671D01*
X41722377Y-72019137D01*
X41607379Y-72107379D01*
X41519137Y-72222377D01*
X41463671Y-72356287D01*
X41463670Y-72356291D01*
X41444750Y-72499999D01*
X37055250Y-72499999D01*
X37036330Y-72356291D01*
X36980861Y-72222375D01*
X36892621Y-72107379D01*
X36777625Y-72019139D01*
X36777624Y-72019138D01*
X36777622Y-72019137D01*
X36643712Y-71963671D01*
X36643710Y-71963670D01*
X36643709Y-71963670D01*
X36571854Y-71954210D01*
X36500001Y-71944750D01*
X36499999Y-71944750D01*
X36356291Y-71963670D01*
X36356287Y-71963671D01*
X36222377Y-72019137D01*
X36199971Y-72036330D01*
X36107379Y-72107379D01*
X36107378Y-72107380D01*
X36107377Y-72107381D01*
X36051878Y-72179708D01*
X35995450Y-72220911D01*
X35925704Y-72225065D01*
X35906053Y-72218783D01*
X35893709Y-72213670D01*
X35821854Y-72204210D01*
X35750001Y-72194750D01*
X35749999Y-72194750D01*
X35606291Y-72213670D01*
X35606287Y-72213671D01*
X35472377Y-72269137D01*
X35357379Y-72357379D01*
X35269137Y-72472377D01*
X35213671Y-72606287D01*
X35213670Y-72606291D01*
X35194750Y-72749999D01*
X29981418Y-72749999D01*
X29893712Y-72713671D01*
X29893710Y-72713670D01*
X29893709Y-72713670D01*
X29821854Y-72704210D01*
X29750001Y-72694750D01*
X29749999Y-72694750D01*
X29606291Y-72713670D01*
X29606287Y-72713671D01*
X29472377Y-72769137D01*
X29357379Y-72857379D01*
X29269137Y-72972377D01*
X29213671Y-73106287D01*
X29213670Y-73106291D01*
X29197270Y-73230862D01*
X29194750Y-73250000D01*
X16000000Y-73250000D01*
X16000000Y-71249999D01*
X24694750Y-71249999D01*
X24694750Y-71250000D01*
X24713670Y-71393708D01*
X24713671Y-71393712D01*
X24769137Y-71527622D01*
X24769138Y-71527624D01*
X24769139Y-71527625D01*
X24857379Y-71642621D01*
X24972375Y-71730861D01*
X25106291Y-71786330D01*
X25233280Y-71803048D01*
X25249999Y-71805250D01*
X25250000Y-71805250D01*
X25250001Y-71805250D01*
X25264977Y-71803278D01*
X25393709Y-71786330D01*
X25527625Y-71730861D01*
X25642621Y-71642621D01*
X25730861Y-71527625D01*
X25786330Y-71393709D01*
X25805250Y-71250000D01*
X25786330Y-71106291D01*
X25749350Y-71017013D01*
X25742303Y-70999999D01*
X49694750Y-70999999D01*
X49694750Y-71000000D01*
X49713670Y-71143708D01*
X49713671Y-71143712D01*
X49769137Y-71277622D01*
X49769138Y-71277624D01*
X49769139Y-71277625D01*
X49857379Y-71392621D01*
X49972375Y-71480861D01*
X50106291Y-71536330D01*
X50106301Y-71536331D01*
X50112435Y-71537975D01*
X50172096Y-71574338D01*
X50202627Y-71637184D01*
X50203283Y-71641555D01*
X50203566Y-71643708D01*
X50259034Y-71777622D01*
X50259035Y-71777624D01*
X50259036Y-71777625D01*
X50347276Y-71892621D01*
X50462272Y-71980861D01*
X50596188Y-72036330D01*
X50607021Y-72037756D01*
X50670918Y-72066022D01*
X50709389Y-72124347D01*
X50713306Y-72142353D01*
X50713669Y-72143708D01*
X50769137Y-72277622D01*
X50769138Y-72277624D01*
X50769139Y-72277625D01*
X50857379Y-72392621D01*
X50972375Y-72480861D01*
X51106291Y-72536330D01*
X51233280Y-72553048D01*
X51249999Y-72555250D01*
X51250000Y-72555250D01*
X51250001Y-72555250D01*
X51264977Y-72553278D01*
X51393709Y-72536330D01*
X51527625Y-72480861D01*
X51642621Y-72392621D01*
X51730861Y-72277625D01*
X51786330Y-72143709D01*
X51805250Y-72000000D01*
X51786330Y-71856291D01*
X51749350Y-71767013D01*
X51730862Y-71722377D01*
X51730861Y-71722376D01*
X51730861Y-71722375D01*
X51642621Y-71607379D01*
X51527625Y-71519139D01*
X51527624Y-71519138D01*
X51527622Y-71519137D01*
X51393712Y-71463671D01*
X51393702Y-71463668D01*
X51382870Y-71462242D01*
X51318974Y-71433973D01*
X51280505Y-71375647D01*
X51276591Y-71357651D01*
X51276227Y-71356297D01*
X51276227Y-71356291D01*
X51239247Y-71267013D01*
X51220759Y-71222377D01*
X51220758Y-71222376D01*
X51220758Y-71222375D01*
X51132518Y-71107379D01*
X51017522Y-71019139D01*
X51017521Y-71019138D01*
X51017519Y-71019137D01*
X50883606Y-70963670D01*
X50877459Y-70962023D01*
X50817798Y-70925660D01*
X50787267Y-70862813D01*
X50786615Y-70858460D01*
X50786330Y-70856291D01*
X50730861Y-70722375D01*
X50642621Y-70607379D01*
X50527625Y-70519139D01*
X50527624Y-70519138D01*
X50527622Y-70519137D01*
X50393712Y-70463671D01*
X50393710Y-70463670D01*
X50393709Y-70463670D01*
X50321854Y-70454210D01*
X50250001Y-70444750D01*
X50249999Y-70444750D01*
X50106291Y-70463670D01*
X50106287Y-70463671D01*
X49972377Y-70519137D01*
X49857379Y-70607379D01*
X49769137Y-70722377D01*
X49713671Y-70856287D01*
X49713670Y-70856291D01*
X49694750Y-70999999D01*
X25742303Y-70999999D01*
X25730862Y-70972377D01*
X25730861Y-70972376D01*
X25730861Y-70972375D01*
X25642621Y-70857379D01*
X25527625Y-70769139D01*
X25527624Y-70769138D01*
X25527622Y-70769137D01*
X25393712Y-70713671D01*
X25393710Y-70713670D01*
X25393709Y-70713670D01*
X25321854Y-70704210D01*
X25250001Y-70694750D01*
X25249999Y-70694750D01*
X25106291Y-70713670D01*
X25106287Y-70713671D01*
X24972377Y-70769137D01*
X24857379Y-70857379D01*
X24769137Y-70972377D01*
X24713671Y-71106287D01*
X24713670Y-71106291D01*
X24694750Y-71249999D01*
X16000000Y-71249999D01*
X16000000Y-70000000D01*
X31694750Y-70000000D01*
X31713670Y-70143709D01*
X31713670Y-70143710D01*
X31713671Y-70143712D01*
X31769137Y-70277622D01*
X31769138Y-70277624D01*
X31769139Y-70277625D01*
X31857379Y-70392621D01*
X31972375Y-70480861D01*
X32106291Y-70536330D01*
X32233280Y-70553048D01*
X32249999Y-70555250D01*
X32250000Y-70555250D01*
X32250001Y-70555250D01*
X32264977Y-70553278D01*
X32393709Y-70536330D01*
X32527625Y-70480861D01*
X32642621Y-70392621D01*
X32730861Y-70277625D01*
X32786330Y-70143709D01*
X32786401Y-70143162D01*
X32786589Y-70142738D01*
X32788433Y-70135859D01*
X32789505Y-70136146D01*
X32814662Y-70079266D01*
X32872984Y-70040791D01*
X32893157Y-70036402D01*
X32893709Y-70036330D01*
X33027625Y-69980861D01*
X33142621Y-69892621D01*
X33230861Y-69777625D01*
X33286330Y-69643709D01*
X33286401Y-69643162D01*
X33286589Y-69642738D01*
X33288433Y-69635859D01*
X33289505Y-69636146D01*
X33314662Y-69579266D01*
X33372984Y-69540791D01*
X33393157Y-69536402D01*
X33393709Y-69536330D01*
X33527625Y-69480861D01*
X33642621Y-69392621D01*
X33730861Y-69277625D01*
X33786330Y-69143709D01*
X33786401Y-69143162D01*
X33786589Y-69142738D01*
X33788433Y-69135859D01*
X33789505Y-69136146D01*
X33814662Y-69079266D01*
X33872984Y-69040791D01*
X33893157Y-69036402D01*
X33893709Y-69036330D01*
X34027625Y-68980861D01*
X34047388Y-68965696D01*
X53910446Y-68965696D01*
X53928955Y-69106287D01*
X53929366Y-69109404D01*
X53929367Y-69109408D01*
X53984833Y-69243318D01*
X53984834Y-69243320D01*
X53984835Y-69243321D01*
X54073075Y-69358317D01*
X54188071Y-69446557D01*
X54321987Y-69502026D01*
X54448976Y-69518744D01*
X54465695Y-69520946D01*
X54465696Y-69520946D01*
X54465697Y-69520946D01*
X54480673Y-69518974D01*
X54609405Y-69502026D01*
X54743321Y-69446557D01*
X54858317Y-69358317D01*
X54946557Y-69243321D01*
X55002026Y-69109405D01*
X55020946Y-68965696D01*
X55002026Y-68821987D01*
X54946557Y-68688071D01*
X54858317Y-68573075D01*
X54743321Y-68484835D01*
X54743320Y-68484834D01*
X54743318Y-68484833D01*
X54609408Y-68429367D01*
X54609406Y-68429366D01*
X54609405Y-68429366D01*
X54537550Y-68419906D01*
X54465697Y-68410446D01*
X54465695Y-68410446D01*
X54321987Y-68429366D01*
X54321983Y-68429367D01*
X54188073Y-68484833D01*
X54073075Y-68573075D01*
X53984833Y-68688073D01*
X53929367Y-68821983D01*
X53929366Y-68821987D01*
X53910446Y-68965696D01*
X34047388Y-68965696D01*
X34142621Y-68892621D01*
X34230861Y-68777625D01*
X34286330Y-68643709D01*
X34286401Y-68643162D01*
X34286589Y-68642738D01*
X34288433Y-68635859D01*
X34289505Y-68636146D01*
X34314662Y-68579266D01*
X34372984Y-68540791D01*
X34393157Y-68536402D01*
X34393709Y-68536330D01*
X34527625Y-68480861D01*
X34642621Y-68392621D01*
X34730861Y-68277625D01*
X34786330Y-68143709D01*
X34786401Y-68143162D01*
X34786589Y-68142738D01*
X34788433Y-68135859D01*
X34789505Y-68136146D01*
X34814662Y-68079266D01*
X34872984Y-68040791D01*
X34893157Y-68036402D01*
X34893709Y-68036330D01*
X35027625Y-67980861D01*
X35142621Y-67892621D01*
X35230861Y-67777625D01*
X35286330Y-67643709D01*
X35286401Y-67643162D01*
X35286589Y-67642738D01*
X35288433Y-67635859D01*
X35289505Y-67636146D01*
X35314662Y-67579266D01*
X35372984Y-67540791D01*
X35393157Y-67536402D01*
X35393709Y-67536330D01*
X35527625Y-67480861D01*
X35642621Y-67392621D01*
X35730861Y-67277625D01*
X35786330Y-67143709D01*
X35786401Y-67143162D01*
X35786589Y-67142738D01*
X35788433Y-67135859D01*
X35789505Y-67136146D01*
X35814662Y-67079266D01*
X35872984Y-67040791D01*
X35893157Y-67036402D01*
X35893709Y-67036330D01*
X36027625Y-66980861D01*
X36142621Y-66892621D01*
X36230861Y-66777625D01*
X36286330Y-66643709D01*
X36305250Y-66500000D01*
X36286330Y-66356291D01*
X36230861Y-66222375D01*
X36142621Y-66107379D01*
X36027625Y-66019139D01*
X36027624Y-66019138D01*
X36027622Y-66019137D01*
X35893712Y-65963671D01*
X35893710Y-65963670D01*
X35893709Y-65963670D01*
X35821854Y-65954210D01*
X35750001Y-65944750D01*
X35749999Y-65944750D01*
X35606291Y-65963670D01*
X35606287Y-65963671D01*
X35472377Y-66019137D01*
X35357379Y-66107379D01*
X35269137Y-66222377D01*
X35213670Y-66356289D01*
X35213597Y-66356848D01*
X35213403Y-66357286D01*
X35211566Y-66364142D01*
X35210496Y-66363855D01*
X35185327Y-66420744D01*
X35127002Y-66459212D01*
X35106851Y-66463596D01*
X35106534Y-66463637D01*
X35106289Y-66463670D01*
X34972377Y-66519137D01*
X34857379Y-66607379D01*
X34769137Y-66722377D01*
X34713670Y-66856289D01*
X34713597Y-66856848D01*
X34713403Y-66857286D01*
X34711566Y-66864142D01*
X34710496Y-66863855D01*
X34685327Y-66920744D01*
X34627002Y-66959212D01*
X34606851Y-66963596D01*
X34606534Y-66963637D01*
X34606289Y-66963670D01*
X34472377Y-67019137D01*
X34357379Y-67107379D01*
X34269137Y-67222377D01*
X34213670Y-67356289D01*
X34213597Y-67356848D01*
X34213403Y-67357286D01*
X34211566Y-67364142D01*
X34210496Y-67363855D01*
X34185327Y-67420744D01*
X34127002Y-67459212D01*
X34106851Y-67463596D01*
X34106534Y-67463637D01*
X34106289Y-67463670D01*
X33972377Y-67519137D01*
X33857379Y-67607379D01*
X33769137Y-67722377D01*
X33713670Y-67856289D01*
X33713597Y-67856848D01*
X33713403Y-67857286D01*
X33711566Y-67864142D01*
X33710496Y-67863855D01*
X33685327Y-67920744D01*
X33627002Y-67959212D01*
X33606851Y-67963596D01*
X33606534Y-67963637D01*
X33606289Y-67963670D01*
X33472377Y-68019137D01*
X33357379Y-68107379D01*
X33269137Y-68222377D01*
X33213670Y-68356289D01*
X33213597Y-68356848D01*
X33213403Y-68357286D01*
X33211566Y-68364142D01*
X33210496Y-68363855D01*
X33185327Y-68420744D01*
X33127002Y-68459212D01*
X33106851Y-68463596D01*
X33106534Y-68463637D01*
X33106289Y-68463670D01*
X32972377Y-68519137D01*
X32857379Y-68607379D01*
X32769137Y-68722377D01*
X32713670Y-68856289D01*
X32713597Y-68856848D01*
X32713403Y-68857286D01*
X32711566Y-68864142D01*
X32710496Y-68863855D01*
X32685327Y-68920744D01*
X32627002Y-68959212D01*
X32606851Y-68963596D01*
X32606534Y-68963637D01*
X32606289Y-68963670D01*
X32472377Y-69019137D01*
X32357379Y-69107379D01*
X32269137Y-69222377D01*
X32213670Y-69356289D01*
X32213597Y-69356848D01*
X32213403Y-69357286D01*
X32211566Y-69364142D01*
X32210496Y-69363855D01*
X32185327Y-69420744D01*
X32127002Y-69459212D01*
X32106851Y-69463596D01*
X32106534Y-69463637D01*
X32106289Y-69463670D01*
X31972377Y-69519137D01*
X31857379Y-69607379D01*
X31769137Y-69722377D01*
X31713671Y-69856287D01*
X31713670Y-69856291D01*
X31697270Y-69980862D01*
X31694750Y-70000000D01*
X16000000Y-70000000D01*
X16000000Y-68500000D01*
X20944750Y-68500000D01*
X20963670Y-68643709D01*
X20963670Y-68643710D01*
X20963671Y-68643712D01*
X21019137Y-68777622D01*
X21019138Y-68777624D01*
X21019139Y-68777625D01*
X21107379Y-68892621D01*
X21222375Y-68980861D01*
X21356291Y-69036330D01*
X21483280Y-69053048D01*
X21499999Y-69055250D01*
X21500000Y-69055250D01*
X21500001Y-69055250D01*
X21514977Y-69053278D01*
X21643709Y-69036330D01*
X21777625Y-68980861D01*
X21892621Y-68892621D01*
X21980861Y-68777625D01*
X22036330Y-68643709D01*
X22055250Y-68500000D01*
X22036330Y-68356291D01*
X21999350Y-68267013D01*
X21980862Y-68222377D01*
X21980861Y-68222376D01*
X21980861Y-68222375D01*
X21892621Y-68107379D01*
X21777625Y-68019139D01*
X21777624Y-68019138D01*
X21777622Y-68019137D01*
X21643712Y-67963671D01*
X21643710Y-67963670D01*
X21643709Y-67963670D01*
X21548817Y-67951177D01*
X21500001Y-67944750D01*
X21499999Y-67944750D01*
X21356291Y-67963670D01*
X21356287Y-67963671D01*
X21222377Y-68019137D01*
X21107379Y-68107379D01*
X21019137Y-68222377D01*
X20963671Y-68356287D01*
X20963670Y-68356291D01*
X20946747Y-68484835D01*
X20944750Y-68500000D01*
X16000000Y-68500000D01*
X16000000Y-66750000D01*
X23194750Y-66750000D01*
X23208743Y-66856289D01*
X23213670Y-66893708D01*
X23213671Y-66893712D01*
X23269137Y-67027622D01*
X23269138Y-67027624D01*
X23269139Y-67027625D01*
X23357379Y-67142621D01*
X23472375Y-67230861D01*
X23606291Y-67286330D01*
X23733280Y-67303048D01*
X23749999Y-67305250D01*
X23750000Y-67305250D01*
X23750001Y-67305250D01*
X23764977Y-67303278D01*
X23893709Y-67286330D01*
X23981419Y-67250000D01*
X25194750Y-67250000D01*
X25208743Y-67356289D01*
X25213670Y-67393708D01*
X25213671Y-67393712D01*
X25269137Y-67527622D01*
X25269138Y-67527624D01*
X25269139Y-67527625D01*
X25357379Y-67642621D01*
X25472375Y-67730861D01*
X25606291Y-67786330D01*
X25606838Y-67786402D01*
X25607264Y-67786590D01*
X25614141Y-67788433D01*
X25613853Y-67789505D01*
X25670734Y-67814664D01*
X25709209Y-67872986D01*
X25713597Y-67893153D01*
X25713670Y-67893710D01*
X25769137Y-68027622D01*
X25769138Y-68027624D01*
X25769139Y-68027625D01*
X25857379Y-68142621D01*
X25972375Y-68230861D01*
X26106291Y-68286330D01*
X26106838Y-68286402D01*
X26107264Y-68286590D01*
X26114141Y-68288433D01*
X26113853Y-68289505D01*
X26170734Y-68314664D01*
X26209209Y-68372986D01*
X26213597Y-68393153D01*
X26213670Y-68393710D01*
X26269137Y-68527622D01*
X26269138Y-68527624D01*
X26269139Y-68527625D01*
X26357379Y-68642621D01*
X26472375Y-68730861D01*
X26606291Y-68786330D01*
X26606838Y-68786402D01*
X26607264Y-68786590D01*
X26614141Y-68788433D01*
X26613853Y-68789505D01*
X26670734Y-68814664D01*
X26709209Y-68872986D01*
X26713597Y-68893153D01*
X26713670Y-68893710D01*
X26769137Y-69027622D01*
X26769138Y-69027624D01*
X26769139Y-69027625D01*
X26857379Y-69142621D01*
X26972375Y-69230861D01*
X26972376Y-69230861D01*
X26972377Y-69230862D01*
X27017013Y-69249350D01*
X27106291Y-69286330D01*
X27106838Y-69286402D01*
X27107264Y-69286590D01*
X27114141Y-69288433D01*
X27113853Y-69289505D01*
X27170734Y-69314664D01*
X27209209Y-69372986D01*
X27213597Y-69393153D01*
X27213670Y-69393710D01*
X27269137Y-69527622D01*
X27269138Y-69527624D01*
X27269139Y-69527625D01*
X27357379Y-69642621D01*
X27472375Y-69730861D01*
X27606291Y-69786330D01*
X27733280Y-69803048D01*
X27749999Y-69805250D01*
X27750000Y-69805250D01*
X27750001Y-69805250D01*
X27764977Y-69803278D01*
X27893709Y-69786330D01*
X28027625Y-69730861D01*
X28142621Y-69642621D01*
X28230861Y-69527625D01*
X28286330Y-69393709D01*
X28305250Y-69250000D01*
X28286330Y-69106291D01*
X28249350Y-69017013D01*
X28230862Y-68972377D01*
X28230861Y-68972376D01*
X28230861Y-68972375D01*
X28142621Y-68857379D01*
X28027625Y-68769139D01*
X28027624Y-68769138D01*
X28027622Y-68769137D01*
X27893710Y-68713670D01*
X27893491Y-68713641D01*
X27893152Y-68713596D01*
X27892716Y-68713403D01*
X27885858Y-68711566D01*
X27886144Y-68710496D01*
X27829257Y-68685329D01*
X27790787Y-68627003D01*
X27786402Y-68606844D01*
X27786330Y-68606291D01*
X27749350Y-68517013D01*
X27730862Y-68472377D01*
X27730861Y-68472376D01*
X27730861Y-68472375D01*
X27642621Y-68357379D01*
X27527625Y-68269139D01*
X27527624Y-68269138D01*
X27527622Y-68269137D01*
X27393710Y-68213670D01*
X27393491Y-68213641D01*
X27393152Y-68213596D01*
X27392716Y-68213403D01*
X27385858Y-68211566D01*
X27386144Y-68210496D01*
X27329257Y-68185329D01*
X27290787Y-68127003D01*
X27286402Y-68106844D01*
X27286330Y-68106291D01*
X27249350Y-68017013D01*
X27230862Y-67972377D01*
X27230861Y-67972376D01*
X27230861Y-67972375D01*
X27142621Y-67857379D01*
X27027625Y-67769139D01*
X27027624Y-67769138D01*
X27027622Y-67769137D01*
X26893710Y-67713670D01*
X26893491Y-67713641D01*
X26893152Y-67713596D01*
X26892716Y-67713403D01*
X26885858Y-67711566D01*
X26886144Y-67710496D01*
X26829257Y-67685329D01*
X26790787Y-67627003D01*
X26786402Y-67606844D01*
X26786330Y-67606291D01*
X26749350Y-67517013D01*
X26730862Y-67472377D01*
X26730861Y-67472376D01*
X26730861Y-67472375D01*
X26642621Y-67357379D01*
X26527625Y-67269139D01*
X26527624Y-67269138D01*
X26527622Y-67269137D01*
X26393710Y-67213670D01*
X26393491Y-67213641D01*
X26393152Y-67213596D01*
X26392716Y-67213403D01*
X26385858Y-67211566D01*
X26386144Y-67210496D01*
X26329257Y-67185329D01*
X26290787Y-67127003D01*
X26286402Y-67106844D01*
X26286330Y-67106291D01*
X26249350Y-67017013D01*
X26242303Y-67000000D01*
X29194750Y-67000000D01*
X29213670Y-67143709D01*
X29213670Y-67143710D01*
X29213671Y-67143712D01*
X29269137Y-67277622D01*
X29269138Y-67277624D01*
X29269139Y-67277625D01*
X29357379Y-67392621D01*
X29472375Y-67480861D01*
X29606291Y-67536330D01*
X29733280Y-67553048D01*
X29749999Y-67555250D01*
X29750000Y-67555250D01*
X29750001Y-67555250D01*
X29764977Y-67553278D01*
X29893709Y-67536330D01*
X30027625Y-67480861D01*
X30142621Y-67392621D01*
X30230861Y-67277625D01*
X30286330Y-67143709D01*
X30305250Y-67000000D01*
X30286330Y-66856291D01*
X30249350Y-66767013D01*
X30230862Y-66722377D01*
X30230861Y-66722376D01*
X30230861Y-66722375D01*
X30142621Y-66607379D01*
X30027625Y-66519139D01*
X30027624Y-66519138D01*
X30027622Y-66519137D01*
X29893712Y-66463671D01*
X29893710Y-66463670D01*
X29893709Y-66463670D01*
X29798817Y-66451177D01*
X29750001Y-66444750D01*
X29749999Y-66444750D01*
X29606291Y-66463670D01*
X29606287Y-66463671D01*
X29472377Y-66519137D01*
X29357379Y-66607379D01*
X29269137Y-66722377D01*
X29213671Y-66856287D01*
X29213670Y-66856291D01*
X29197270Y-66980862D01*
X29194750Y-67000000D01*
X26242303Y-67000000D01*
X26230862Y-66972377D01*
X26230861Y-66972376D01*
X26230861Y-66972375D01*
X26142621Y-66857379D01*
X26027625Y-66769139D01*
X26027624Y-66769138D01*
X26027622Y-66769137D01*
X25893712Y-66713671D01*
X25893710Y-66713670D01*
X25893709Y-66713670D01*
X25821854Y-66704210D01*
X25750001Y-66694750D01*
X25749999Y-66694750D01*
X25606291Y-66713670D01*
X25606287Y-66713671D01*
X25472377Y-66769137D01*
X25357379Y-66857379D01*
X25269137Y-66972377D01*
X25213671Y-67106287D01*
X25213670Y-67106291D01*
X25197270Y-67230862D01*
X25194750Y-67250000D01*
X23981419Y-67250000D01*
X24027625Y-67230861D01*
X24142621Y-67142621D01*
X24230861Y-67027625D01*
X24286330Y-66893709D01*
X24305250Y-66750000D01*
X24286330Y-66606291D01*
X24249350Y-66517013D01*
X24230862Y-66472377D01*
X24230861Y-66472376D01*
X24230861Y-66472375D01*
X24142621Y-66357379D01*
X24027625Y-66269139D01*
X24027624Y-66269138D01*
X24027622Y-66269137D01*
X23893712Y-66213671D01*
X23893710Y-66213670D01*
X23893709Y-66213670D01*
X23821854Y-66204210D01*
X23750001Y-66194750D01*
X23749999Y-66194750D01*
X23606291Y-66213670D01*
X23606287Y-66213671D01*
X23472377Y-66269137D01*
X23357379Y-66357379D01*
X23269137Y-66472377D01*
X23213671Y-66606287D01*
X23213670Y-66606291D01*
X23194750Y-66750000D01*
X16000000Y-66750000D01*
X16000000Y-65249999D01*
X31694750Y-65249999D01*
X31694750Y-65250000D01*
X31713670Y-65393708D01*
X31713671Y-65393712D01*
X31769137Y-65527622D01*
X31769138Y-65527624D01*
X31769139Y-65527625D01*
X31857379Y-65642621D01*
X31972375Y-65730861D01*
X32106291Y-65786330D01*
X32233280Y-65803048D01*
X32249999Y-65805250D01*
X32250000Y-65805250D01*
X32250001Y-65805250D01*
X32264977Y-65803278D01*
X32393709Y-65786330D01*
X32527625Y-65730861D01*
X32642621Y-65642621D01*
X32730861Y-65527625D01*
X32742304Y-65499999D01*
X36194750Y-65499999D01*
X36194750Y-65500000D01*
X36213670Y-65643708D01*
X36213671Y-65643712D01*
X36269137Y-65777622D01*
X36269138Y-65777624D01*
X36269139Y-65777625D01*
X36357379Y-65892621D01*
X36472375Y-65980861D01*
X36606291Y-66036330D01*
X36733280Y-66053048D01*
X36749999Y-66055250D01*
X36750000Y-66055250D01*
X36750001Y-66055250D01*
X36764977Y-66053278D01*
X36893709Y-66036330D01*
X37027625Y-65980861D01*
X37142621Y-65892621D01*
X37230861Y-65777625D01*
X37286330Y-65643709D01*
X37305250Y-65500000D01*
X37286330Y-65356291D01*
X37249350Y-65267013D01*
X37230862Y-65222377D01*
X37230861Y-65222376D01*
X37230861Y-65222375D01*
X37142621Y-65107379D01*
X37027625Y-65019139D01*
X37027624Y-65019138D01*
X37027622Y-65019137D01*
X36893712Y-64963671D01*
X36893710Y-64963670D01*
X36893709Y-64963670D01*
X36821854Y-64954210D01*
X36750001Y-64944750D01*
X36749999Y-64944750D01*
X36606291Y-64963670D01*
X36606287Y-64963671D01*
X36472377Y-65019137D01*
X36357379Y-65107379D01*
X36269137Y-65222377D01*
X36213671Y-65356287D01*
X36213670Y-65356291D01*
X36194750Y-65499999D01*
X32742304Y-65499999D01*
X32786330Y-65393709D01*
X32805250Y-65250000D01*
X32786330Y-65106291D01*
X32749350Y-65017013D01*
X32730862Y-64972377D01*
X32730861Y-64972376D01*
X32730861Y-64972375D01*
X32642621Y-64857379D01*
X32527625Y-64769139D01*
X32527624Y-64769138D01*
X32527622Y-64769137D01*
X32393712Y-64713671D01*
X32393710Y-64713670D01*
X32393709Y-64713670D01*
X32321854Y-64704210D01*
X32250001Y-64694750D01*
X32249999Y-64694750D01*
X32106291Y-64713670D01*
X32106287Y-64713671D01*
X31972377Y-64769137D01*
X31857379Y-64857379D01*
X31769137Y-64972377D01*
X31713671Y-65106287D01*
X31713670Y-65106291D01*
X31694750Y-65249999D01*
X16000000Y-65249999D01*
X16000000Y-64500000D01*
X39444750Y-64500000D01*
X39463670Y-64643709D01*
X39463670Y-64643710D01*
X39463671Y-64643712D01*
X39519137Y-64777622D01*
X39519138Y-64777624D01*
X39519139Y-64777625D01*
X39607379Y-64892621D01*
X39722375Y-64980861D01*
X39856291Y-65036330D01*
X39983280Y-65053048D01*
X39999999Y-65055250D01*
X40000000Y-65055250D01*
X40000001Y-65055250D01*
X40014977Y-65053278D01*
X40143709Y-65036330D01*
X40277625Y-64980861D01*
X40392621Y-64892621D01*
X40480861Y-64777625D01*
X40536330Y-64643709D01*
X40555250Y-64500000D01*
X62694750Y-64500000D01*
X62713670Y-64643709D01*
X62713670Y-64643710D01*
X62713671Y-64643712D01*
X62769137Y-64777622D01*
X62769138Y-64777624D01*
X62769139Y-64777625D01*
X62857379Y-64892621D01*
X62972375Y-64980861D01*
X63106291Y-65036330D01*
X63233280Y-65053048D01*
X63249999Y-65055250D01*
X63250000Y-65055250D01*
X63250001Y-65055250D01*
X63264977Y-65053278D01*
X63393709Y-65036330D01*
X63527625Y-64980861D01*
X63642621Y-64892621D01*
X63730861Y-64777625D01*
X63786330Y-64643709D01*
X63786401Y-64643162D01*
X63786589Y-64642738D01*
X63788433Y-64635859D01*
X63789505Y-64636146D01*
X63814662Y-64579266D01*
X63872984Y-64540791D01*
X63893157Y-64536402D01*
X63893709Y-64536330D01*
X64027625Y-64480861D01*
X64142621Y-64392621D01*
X64230861Y-64277625D01*
X64286330Y-64143709D01*
X64305250Y-64000000D01*
X64286330Y-63856291D01*
X64230861Y-63722375D01*
X64142621Y-63607379D01*
X64027625Y-63519139D01*
X64027624Y-63519138D01*
X64027622Y-63519137D01*
X63893712Y-63463671D01*
X63893710Y-63463670D01*
X63893709Y-63463670D01*
X63821854Y-63454210D01*
X63750001Y-63444750D01*
X63749999Y-63444750D01*
X63606291Y-63463670D01*
X63606287Y-63463671D01*
X63472377Y-63519137D01*
X63357379Y-63607379D01*
X63269137Y-63722377D01*
X63213670Y-63856289D01*
X63213597Y-63856848D01*
X63213403Y-63857286D01*
X63211566Y-63864142D01*
X63210496Y-63863855D01*
X63185327Y-63920744D01*
X63127002Y-63959212D01*
X63106851Y-63963596D01*
X63106534Y-63963637D01*
X63106289Y-63963670D01*
X62972377Y-64019137D01*
X62857379Y-64107379D01*
X62769137Y-64222377D01*
X62713671Y-64356287D01*
X62713670Y-64356291D01*
X62697270Y-64480862D01*
X62694750Y-64500000D01*
X40555250Y-64500000D01*
X40536330Y-64356291D01*
X40480861Y-64222375D01*
X40392621Y-64107379D01*
X40277625Y-64019139D01*
X40277624Y-64019138D01*
X40277622Y-64019137D01*
X40143712Y-63963671D01*
X40143710Y-63963670D01*
X40143709Y-63963670D01*
X40048817Y-63951177D01*
X40000001Y-63944750D01*
X39999999Y-63944750D01*
X39856291Y-63963670D01*
X39856287Y-63963671D01*
X39722377Y-64019137D01*
X39607379Y-64107379D01*
X39519137Y-64222377D01*
X39463671Y-64356287D01*
X39463670Y-64356291D01*
X39447270Y-64480862D01*
X39444750Y-64500000D01*
X16000000Y-64500000D01*
X16000000Y-62500000D01*
X26694750Y-62500000D01*
X26697069Y-62517618D01*
X26713670Y-62643708D01*
X26713671Y-62643712D01*
X26769137Y-62777622D01*
X26769138Y-62777624D01*
X26769139Y-62777625D01*
X26857379Y-62892621D01*
X26972375Y-62980861D01*
X27106291Y-63036330D01*
X27233280Y-63053048D01*
X27249999Y-63055250D01*
X27250000Y-63055250D01*
X27250001Y-63055250D01*
X27264977Y-63053278D01*
X27393709Y-63036330D01*
X27527625Y-62980861D01*
X27642621Y-62892621D01*
X27730861Y-62777625D01*
X27786330Y-62643709D01*
X27805250Y-62500000D01*
X27786330Y-62356291D01*
X27749350Y-62267013D01*
X27730862Y-62222377D01*
X27730861Y-62222376D01*
X27730861Y-62222375D01*
X27656141Y-62124999D01*
X28069750Y-62124999D01*
X28069750Y-62125000D01*
X28088670Y-62268708D01*
X28088671Y-62268712D01*
X28144137Y-62402622D01*
X28144138Y-62402624D01*
X28144139Y-62402625D01*
X28232379Y-62517621D01*
X28347375Y-62605861D01*
X28481291Y-62661330D01*
X28608280Y-62678048D01*
X28624999Y-62680250D01*
X28625000Y-62680250D01*
X28625001Y-62680250D01*
X28639977Y-62678278D01*
X28768709Y-62661330D01*
X28902625Y-62605861D01*
X29017621Y-62517621D01*
X29105861Y-62402625D01*
X29115151Y-62380197D01*
X29158991Y-62325793D01*
X29225285Y-62303728D01*
X29245898Y-62304710D01*
X29249999Y-62305250D01*
X29250000Y-62305250D01*
X29393709Y-62286330D01*
X29527625Y-62230861D01*
X29642621Y-62142621D01*
X29730861Y-62027625D01*
X29786330Y-61893709D01*
X29805250Y-61750000D01*
X29786330Y-61606291D01*
X29730861Y-61472375D01*
X29642621Y-61357379D01*
X29527625Y-61269139D01*
X29527624Y-61269138D01*
X29527622Y-61269137D01*
X29393712Y-61213671D01*
X29393710Y-61213670D01*
X29393709Y-61213670D01*
X29321854Y-61204210D01*
X29250001Y-61194750D01*
X29249999Y-61194750D01*
X29106291Y-61213670D01*
X29106287Y-61213671D01*
X28972377Y-61269137D01*
X28857379Y-61357379D01*
X28769136Y-61472378D01*
X28769136Y-61472379D01*
X28759847Y-61494805D01*
X28716005Y-61549208D01*
X28649710Y-61571271D01*
X28629111Y-61570290D01*
X28625007Y-61569750D01*
X28624999Y-61569750D01*
X28481291Y-61588670D01*
X28481287Y-61588671D01*
X28347377Y-61644137D01*
X28232379Y-61732379D01*
X28144137Y-61847377D01*
X28088671Y-61981287D01*
X28088670Y-61981291D01*
X28069750Y-62124999D01*
X27656141Y-62124999D01*
X27642621Y-62107379D01*
X27527625Y-62019139D01*
X27527624Y-62019138D01*
X27527622Y-62019137D01*
X27393712Y-61963671D01*
X27393710Y-61963670D01*
X27393709Y-61963670D01*
X27321854Y-61954210D01*
X27250001Y-61944750D01*
X27249999Y-61944750D01*
X27106291Y-61963670D01*
X27106287Y-61963671D01*
X26972377Y-62019137D01*
X26857379Y-62107379D01*
X26769137Y-62222377D01*
X26713671Y-62356287D01*
X26713670Y-62356291D01*
X26694750Y-62500000D01*
X16000000Y-62500000D01*
X16000000Y-60749999D01*
X23694750Y-60749999D01*
X23694750Y-60750000D01*
X23713670Y-60893708D01*
X23713671Y-60893712D01*
X23769137Y-61027622D01*
X23769138Y-61027624D01*
X23769139Y-61027625D01*
X23857379Y-61142621D01*
X23972375Y-61230861D01*
X24106291Y-61286330D01*
X24106838Y-61286402D01*
X24107264Y-61286590D01*
X24114141Y-61288433D01*
X24113853Y-61289505D01*
X24170734Y-61314664D01*
X24209209Y-61372986D01*
X24213597Y-61393153D01*
X24213670Y-61393710D01*
X24269137Y-61527622D01*
X24269138Y-61527624D01*
X24269139Y-61527625D01*
X24357379Y-61642621D01*
X24472375Y-61730861D01*
X24472376Y-61730861D01*
X24472377Y-61730862D01*
X24517013Y-61749350D01*
X24606291Y-61786330D01*
X24733280Y-61803048D01*
X24749999Y-61805250D01*
X24750000Y-61805250D01*
X24750001Y-61805250D01*
X24764977Y-61803278D01*
X24893709Y-61786330D01*
X25027625Y-61730861D01*
X25142621Y-61642621D01*
X25230861Y-61527625D01*
X25286330Y-61393709D01*
X25305250Y-61250000D01*
X25286330Y-61106291D01*
X25230861Y-60972375D01*
X25142621Y-60857379D01*
X25027625Y-60769139D01*
X25027624Y-60769138D01*
X25027622Y-60769137D01*
X24981418Y-60749999D01*
X30694750Y-60749999D01*
X30694750Y-60750000D01*
X30713670Y-60893708D01*
X30713671Y-60893712D01*
X30769137Y-61027622D01*
X30769138Y-61027624D01*
X30769139Y-61027625D01*
X30857379Y-61142621D01*
X30972375Y-61230861D01*
X31106291Y-61286330D01*
X31233280Y-61303048D01*
X31249999Y-61305250D01*
X31250000Y-61305250D01*
X31250001Y-61305250D01*
X31264977Y-61303278D01*
X31393709Y-61286330D01*
X31527625Y-61230861D01*
X31642621Y-61142621D01*
X31730861Y-61027625D01*
X31786330Y-60893709D01*
X31805250Y-60750000D01*
X31786330Y-60606291D01*
X31730861Y-60472375D01*
X31642621Y-60357379D01*
X31527625Y-60269139D01*
X31527624Y-60269138D01*
X31527622Y-60269137D01*
X31393712Y-60213671D01*
X31393710Y-60213670D01*
X31393709Y-60213670D01*
X31321854Y-60204210D01*
X31250001Y-60194750D01*
X31249999Y-60194750D01*
X31106291Y-60213670D01*
X31106287Y-60213671D01*
X30972377Y-60269137D01*
X30857379Y-60357379D01*
X30769137Y-60472377D01*
X30713671Y-60606287D01*
X30713670Y-60606291D01*
X30694750Y-60749999D01*
X24981418Y-60749999D01*
X24893710Y-60713670D01*
X24893491Y-60713641D01*
X24893152Y-60713596D01*
X24892716Y-60713403D01*
X24885858Y-60711566D01*
X24886144Y-60710496D01*
X24829257Y-60685329D01*
X24790787Y-60627003D01*
X24786402Y-60606844D01*
X24786330Y-60606291D01*
X24730861Y-60472375D01*
X24642621Y-60357379D01*
X24527625Y-60269139D01*
X24527624Y-60269138D01*
X24527622Y-60269137D01*
X24393712Y-60213671D01*
X24393710Y-60213670D01*
X24393709Y-60213670D01*
X24321854Y-60204210D01*
X24250001Y-60194750D01*
X24249999Y-60194750D01*
X24106291Y-60213670D01*
X24106287Y-60213671D01*
X23972377Y-60269137D01*
X23857379Y-60357379D01*
X23769137Y-60472377D01*
X23713671Y-60606287D01*
X23713670Y-60606291D01*
X23694750Y-60749999D01*
X16000000Y-60749999D01*
X16000000Y-58247205D01*
X29991976Y-58247205D01*
X29991976Y-58247206D01*
X30010896Y-58390914D01*
X30010897Y-58390918D01*
X30066363Y-58524828D01*
X30066364Y-58524830D01*
X30066365Y-58524831D01*
X30154605Y-58639827D01*
X30269601Y-58728067D01*
X30403517Y-58783536D01*
X30530506Y-58800254D01*
X30547225Y-58802456D01*
X30547226Y-58802456D01*
X30547227Y-58802456D01*
X30562203Y-58800484D01*
X30690935Y-58783536D01*
X30771902Y-58749999D01*
X32194750Y-58749999D01*
X32194750Y-58750000D01*
X32213670Y-58893708D01*
X32213671Y-58893712D01*
X32269137Y-59027622D01*
X32269138Y-59027624D01*
X32269139Y-59027625D01*
X32357379Y-59142621D01*
X32472375Y-59230861D01*
X32606291Y-59286330D01*
X32606838Y-59286402D01*
X32607264Y-59286590D01*
X32614141Y-59288433D01*
X32613853Y-59289505D01*
X32670734Y-59314664D01*
X32709209Y-59372986D01*
X32713597Y-59393153D01*
X32713670Y-59393710D01*
X32769137Y-59527622D01*
X32769138Y-59527624D01*
X32769139Y-59527625D01*
X32857379Y-59642621D01*
X32972375Y-59730861D01*
X33106291Y-59786330D01*
X33106838Y-59786402D01*
X33107264Y-59786590D01*
X33114141Y-59788433D01*
X33113853Y-59789505D01*
X33170734Y-59814664D01*
X33209209Y-59872986D01*
X33213597Y-59893153D01*
X33213670Y-59893710D01*
X33269137Y-60027622D01*
X33269138Y-60027624D01*
X33269139Y-60027625D01*
X33357379Y-60142621D01*
X33472375Y-60230861D01*
X33606291Y-60286330D01*
X33606838Y-60286402D01*
X33607264Y-60286590D01*
X33614141Y-60288433D01*
X33613853Y-60289505D01*
X33670734Y-60314664D01*
X33709209Y-60372986D01*
X33713597Y-60393153D01*
X33713670Y-60393710D01*
X33769137Y-60527622D01*
X33769138Y-60527624D01*
X33769139Y-60527625D01*
X33857379Y-60642621D01*
X33972375Y-60730861D01*
X34106291Y-60786330D01*
X34233280Y-60803048D01*
X34249999Y-60805250D01*
X34250000Y-60805250D01*
X34250001Y-60805250D01*
X34264977Y-60803278D01*
X34393709Y-60786330D01*
X34527625Y-60730861D01*
X34642621Y-60642621D01*
X34730861Y-60527625D01*
X34786330Y-60393709D01*
X34805250Y-60250000D01*
X34786330Y-60106291D01*
X34730861Y-59972375D01*
X34642621Y-59857379D01*
X34527625Y-59769139D01*
X34527624Y-59769138D01*
X34527622Y-59769137D01*
X34393710Y-59713670D01*
X34393491Y-59713641D01*
X34393152Y-59713596D01*
X34392716Y-59713403D01*
X34385858Y-59711566D01*
X34386144Y-59710496D01*
X34329257Y-59685329D01*
X34290787Y-59627003D01*
X34286402Y-59606844D01*
X34286330Y-59606291D01*
X34249350Y-59517013D01*
X34230862Y-59472377D01*
X34230861Y-59472376D01*
X34230861Y-59472375D01*
X34142621Y-59357379D01*
X34027625Y-59269139D01*
X34027624Y-59269138D01*
X34027622Y-59269137D01*
X33893710Y-59213670D01*
X33893491Y-59213641D01*
X33893152Y-59213596D01*
X33892716Y-59213403D01*
X33885858Y-59211566D01*
X33886144Y-59210496D01*
X33829257Y-59185329D01*
X33790787Y-59127003D01*
X33786402Y-59106844D01*
X33786330Y-59106291D01*
X33749350Y-59017013D01*
X33730862Y-58972377D01*
X33730861Y-58972376D01*
X33730861Y-58972375D01*
X33642621Y-58857379D01*
X33527625Y-58769139D01*
X33527624Y-58769138D01*
X33527622Y-58769137D01*
X33481418Y-58749999D01*
X49444750Y-58749999D01*
X49444750Y-58750000D01*
X49463670Y-58893708D01*
X49463671Y-58893712D01*
X49519137Y-59027622D01*
X49519138Y-59027624D01*
X49519139Y-59027625D01*
X49607379Y-59142621D01*
X49722375Y-59230861D01*
X49856291Y-59286330D01*
X49983280Y-59303048D01*
X49999999Y-59305250D01*
X50000000Y-59305250D01*
X50000001Y-59305250D01*
X50014977Y-59303278D01*
X50143709Y-59286330D01*
X50277625Y-59230861D01*
X50392621Y-59142621D01*
X50480861Y-59027625D01*
X50492303Y-59000000D01*
X61194750Y-59000000D01*
X61208815Y-59106836D01*
X61213670Y-59143708D01*
X61213671Y-59143712D01*
X61269137Y-59277622D01*
X61269138Y-59277624D01*
X61269139Y-59277625D01*
X61357379Y-59392621D01*
X61472375Y-59480861D01*
X61606291Y-59536330D01*
X61733280Y-59553048D01*
X61749999Y-59555250D01*
X61750000Y-59555250D01*
X61750001Y-59555250D01*
X61764977Y-59553278D01*
X61893709Y-59536330D01*
X62027625Y-59480861D01*
X62142621Y-59392621D01*
X62230861Y-59277625D01*
X62286330Y-59143709D01*
X62305250Y-59000000D01*
X62286330Y-58856291D01*
X62249350Y-58767013D01*
X62230862Y-58722377D01*
X62230861Y-58722376D01*
X62230861Y-58722375D01*
X62142621Y-58607379D01*
X62027625Y-58519139D01*
X62027624Y-58519138D01*
X62027622Y-58519137D01*
X61893712Y-58463671D01*
X61893710Y-58463670D01*
X61893709Y-58463670D01*
X61821854Y-58454210D01*
X61750001Y-58444750D01*
X61749999Y-58444750D01*
X61606291Y-58463670D01*
X61606287Y-58463671D01*
X61472377Y-58519137D01*
X61357379Y-58607379D01*
X61269137Y-58722377D01*
X61213671Y-58856287D01*
X61213670Y-58856291D01*
X61194750Y-59000000D01*
X50492303Y-59000000D01*
X50536330Y-58893709D01*
X50555250Y-58750000D01*
X50536330Y-58606291D01*
X50480861Y-58472375D01*
X50392621Y-58357379D01*
X50277625Y-58269139D01*
X50277624Y-58269138D01*
X50277622Y-58269137D01*
X50143712Y-58213671D01*
X50143710Y-58213670D01*
X50143709Y-58213670D01*
X50071854Y-58204210D01*
X50000001Y-58194750D01*
X49999999Y-58194750D01*
X49856291Y-58213670D01*
X49856287Y-58213671D01*
X49722377Y-58269137D01*
X49607379Y-58357379D01*
X49519137Y-58472377D01*
X49463671Y-58606287D01*
X49463670Y-58606291D01*
X49444750Y-58749999D01*
X33481418Y-58749999D01*
X33393710Y-58713670D01*
X33393491Y-58713641D01*
X33393152Y-58713596D01*
X33392716Y-58713403D01*
X33385858Y-58711566D01*
X33386144Y-58710496D01*
X33329257Y-58685329D01*
X33290787Y-58627003D01*
X33286402Y-58606844D01*
X33286330Y-58606291D01*
X33230861Y-58472375D01*
X33142621Y-58357379D01*
X33027625Y-58269139D01*
X33027624Y-58269138D01*
X33027622Y-58269137D01*
X32893712Y-58213671D01*
X32893710Y-58213670D01*
X32893709Y-58213670D01*
X32821854Y-58204210D01*
X32750001Y-58194750D01*
X32749999Y-58194750D01*
X32606291Y-58213670D01*
X32606287Y-58213671D01*
X32472377Y-58269137D01*
X32357379Y-58357379D01*
X32269137Y-58472377D01*
X32213671Y-58606287D01*
X32213670Y-58606291D01*
X32194750Y-58749999D01*
X30771902Y-58749999D01*
X30824851Y-58728067D01*
X30939847Y-58639827D01*
X31028087Y-58524831D01*
X31083556Y-58390915D01*
X31102476Y-58247206D01*
X31083556Y-58103497D01*
X31028087Y-57969581D01*
X30939847Y-57854585D01*
X30824851Y-57766345D01*
X30824850Y-57766344D01*
X30824848Y-57766343D01*
X30690938Y-57710877D01*
X30690936Y-57710876D01*
X30690935Y-57710876D01*
X30619080Y-57701416D01*
X30547227Y-57691956D01*
X30547225Y-57691956D01*
X30403517Y-57710876D01*
X30403513Y-57710877D01*
X30269603Y-57766343D01*
X30154605Y-57854585D01*
X30066363Y-57969583D01*
X30010897Y-58103493D01*
X30010896Y-58103497D01*
X29991976Y-58247205D01*
X16000000Y-58247205D01*
X16000000Y-57249999D01*
X36944750Y-57249999D01*
X36944750Y-57250000D01*
X36963670Y-57393708D01*
X36963671Y-57393712D01*
X37019137Y-57527622D01*
X37019138Y-57527624D01*
X37019139Y-57527625D01*
X37107379Y-57642621D01*
X37222375Y-57730861D01*
X37356291Y-57786330D01*
X37483280Y-57803048D01*
X37499999Y-57805250D01*
X37500000Y-57805250D01*
X37500001Y-57805250D01*
X37514977Y-57803278D01*
X37643709Y-57786330D01*
X37777625Y-57730861D01*
X37892621Y-57642621D01*
X37980861Y-57527625D01*
X38036330Y-57393709D01*
X38055250Y-57250000D01*
X38036330Y-57106291D01*
X37980861Y-56972375D01*
X37892621Y-56857379D01*
X37777625Y-56769139D01*
X37777624Y-56769138D01*
X37777622Y-56769137D01*
X37643712Y-56713671D01*
X37643710Y-56713670D01*
X37643709Y-56713670D01*
X37571854Y-56704210D01*
X37500001Y-56694750D01*
X37499999Y-56694750D01*
X37356291Y-56713670D01*
X37356287Y-56713671D01*
X37222377Y-56769137D01*
X37107379Y-56857379D01*
X37019137Y-56972377D01*
X36963671Y-57106287D01*
X36963670Y-57106291D01*
X36944750Y-57249999D01*
X16000000Y-57249999D01*
X16000000Y-54999999D01*
X21944750Y-54999999D01*
X21944750Y-55000000D01*
X21963670Y-55143708D01*
X21963671Y-55143712D01*
X22019137Y-55277622D01*
X22019138Y-55277624D01*
X22019139Y-55277625D01*
X22107379Y-55392621D01*
X22222375Y-55480861D01*
X22356291Y-55536330D01*
X22483280Y-55553048D01*
X22499999Y-55555250D01*
X22500000Y-55555250D01*
X22500001Y-55555250D01*
X22514977Y-55553278D01*
X22643709Y-55536330D01*
X22777625Y-55480861D01*
X22892621Y-55392621D01*
X22901625Y-55380886D01*
X22958050Y-55339685D01*
X23027796Y-55335529D01*
X23088717Y-55369740D01*
X23098367Y-55380876D01*
X23107379Y-55392621D01*
X23222375Y-55480861D01*
X23356291Y-55536330D01*
X23483280Y-55553048D01*
X23499999Y-55555250D01*
X23500000Y-55555250D01*
X23500001Y-55555250D01*
X23514977Y-55553278D01*
X23643709Y-55536330D01*
X23731421Y-55499999D01*
X43444750Y-55499999D01*
X43444750Y-55500000D01*
X43463670Y-55643708D01*
X43463671Y-55643712D01*
X43519138Y-55777624D01*
X43535935Y-55799515D01*
X43561128Y-55864685D01*
X43547089Y-55933129D01*
X43535935Y-55950485D01*
X43519138Y-55972375D01*
X43463671Y-56106287D01*
X43463670Y-56106291D01*
X43444750Y-56249999D01*
X43444750Y-56250000D01*
X43463670Y-56393708D01*
X43463671Y-56393712D01*
X43519137Y-56527622D01*
X43519138Y-56527624D01*
X43519139Y-56527625D01*
X43607379Y-56642621D01*
X43722375Y-56730861D01*
X43856291Y-56786330D01*
X43983280Y-56803048D01*
X43999999Y-56805250D01*
X44000000Y-56805250D01*
X44000001Y-56805250D01*
X44014977Y-56803278D01*
X44143709Y-56786330D01*
X44277625Y-56730861D01*
X44392621Y-56642621D01*
X44480861Y-56527625D01*
X44536330Y-56393709D01*
X44555250Y-56250000D01*
X44536330Y-56106291D01*
X44480861Y-55972375D01*
X44464065Y-55950486D01*
X44438871Y-55885317D01*
X44452909Y-55816872D01*
X44464065Y-55799514D01*
X44466135Y-55796815D01*
X44480861Y-55777625D01*
X44536330Y-55643709D01*
X44555250Y-55500000D01*
X44555250Y-55499999D01*
X46694750Y-55499999D01*
X46694750Y-55500000D01*
X46713670Y-55643708D01*
X46713671Y-55643712D01*
X46769137Y-55777622D01*
X46769138Y-55777623D01*
X46769139Y-55777625D01*
X46857379Y-55892621D01*
X46972375Y-55980861D01*
X47106291Y-56036330D01*
X47233280Y-56053048D01*
X47249999Y-56055250D01*
X47250000Y-56055250D01*
X47250001Y-56055250D01*
X47264977Y-56053278D01*
X47393709Y-56036330D01*
X47527625Y-55980861D01*
X47642621Y-55892621D01*
X47730861Y-55777625D01*
X47786330Y-55643709D01*
X47805250Y-55500000D01*
X47786330Y-55356291D01*
X47730861Y-55222375D01*
X47642621Y-55107379D01*
X47527625Y-55019139D01*
X47527624Y-55019138D01*
X47527622Y-55019137D01*
X47393712Y-54963671D01*
X47393710Y-54963670D01*
X47393709Y-54963670D01*
X47321854Y-54954210D01*
X47250001Y-54944750D01*
X47249999Y-54944750D01*
X47106291Y-54963670D01*
X47106287Y-54963671D01*
X46972377Y-55019137D01*
X46857379Y-55107379D01*
X46769137Y-55222377D01*
X46713671Y-55356287D01*
X46713670Y-55356291D01*
X46694750Y-55499999D01*
X44555250Y-55499999D01*
X44536330Y-55356291D01*
X44480861Y-55222375D01*
X44392621Y-55107379D01*
X44277625Y-55019139D01*
X44277624Y-55019138D01*
X44277622Y-55019137D01*
X44143712Y-54963671D01*
X44143710Y-54963670D01*
X44143709Y-54963670D01*
X44071854Y-54954210D01*
X44000001Y-54944750D01*
X43999999Y-54944750D01*
X43856291Y-54963670D01*
X43856287Y-54963671D01*
X43722377Y-55019137D01*
X43607379Y-55107379D01*
X43519137Y-55222377D01*
X43463671Y-55356287D01*
X43463670Y-55356291D01*
X43444750Y-55499999D01*
X23731421Y-55499999D01*
X23777625Y-55480861D01*
X23892621Y-55392621D01*
X23980861Y-55277625D01*
X24036330Y-55143709D01*
X24055250Y-55000000D01*
X24036330Y-54856291D01*
X23980861Y-54722375D01*
X23892621Y-54607379D01*
X23777625Y-54519139D01*
X23777624Y-54519138D01*
X23777622Y-54519137D01*
X23643712Y-54463671D01*
X23643710Y-54463670D01*
X23643709Y-54463670D01*
X23571854Y-54454210D01*
X23500001Y-54444750D01*
X23499999Y-54444750D01*
X23356291Y-54463670D01*
X23356287Y-54463671D01*
X23222377Y-54519137D01*
X23199971Y-54536330D01*
X23107379Y-54607379D01*
X23107378Y-54607380D01*
X23107377Y-54607381D01*
X23098375Y-54619113D01*
X23041947Y-54660316D01*
X22972201Y-54664470D01*
X22911281Y-54630257D01*
X22901625Y-54619113D01*
X22899782Y-54616711D01*
X22892621Y-54607379D01*
X22777625Y-54519139D01*
X22777624Y-54519138D01*
X22777622Y-54519137D01*
X22643712Y-54463671D01*
X22643710Y-54463670D01*
X22643709Y-54463670D01*
X22571854Y-54454210D01*
X22500001Y-54444750D01*
X22499999Y-54444750D01*
X22356291Y-54463670D01*
X22356287Y-54463671D01*
X22222377Y-54519137D01*
X22107379Y-54607379D01*
X22019137Y-54722377D01*
X21963671Y-54856287D01*
X21963670Y-54856291D01*
X21944750Y-54999999D01*
X16000000Y-54999999D01*
X16000000Y-53999999D01*
X25194750Y-53999999D01*
X25194750Y-54000000D01*
X25213670Y-54143708D01*
X25213671Y-54143712D01*
X25269137Y-54277622D01*
X25269138Y-54277624D01*
X25269139Y-54277625D01*
X25357379Y-54392621D01*
X25472375Y-54480861D01*
X25606291Y-54536330D01*
X25733280Y-54553048D01*
X25749999Y-54555250D01*
X25750000Y-54555250D01*
X25750001Y-54555250D01*
X25764977Y-54553278D01*
X25893709Y-54536330D01*
X26027625Y-54480861D01*
X26142621Y-54392621D01*
X26230861Y-54277625D01*
X26286330Y-54143709D01*
X26305250Y-54000000D01*
X26305250Y-53999999D01*
X51694750Y-53999999D01*
X51694750Y-54000000D01*
X51713670Y-54143708D01*
X51713671Y-54143712D01*
X51769137Y-54277622D01*
X51769138Y-54277624D01*
X51769139Y-54277625D01*
X51857379Y-54392621D01*
X51972375Y-54480861D01*
X52106291Y-54536330D01*
X52233280Y-54553048D01*
X52249999Y-54555250D01*
X52250000Y-54555250D01*
X52250001Y-54555250D01*
X52264977Y-54553278D01*
X52393709Y-54536330D01*
X52527625Y-54480861D01*
X52642621Y-54392621D01*
X52730861Y-54277625D01*
X52786330Y-54143709D01*
X52805250Y-54000000D01*
X52786330Y-53856291D01*
X52749350Y-53767013D01*
X52730862Y-53722377D01*
X52730861Y-53722376D01*
X52730861Y-53722375D01*
X52642621Y-53607379D01*
X52527625Y-53519139D01*
X52527624Y-53519138D01*
X52527622Y-53519137D01*
X52393712Y-53463671D01*
X52393710Y-53463670D01*
X52393709Y-53463670D01*
X52321854Y-53454210D01*
X52250001Y-53444750D01*
X52249999Y-53444750D01*
X52106291Y-53463670D01*
X52106287Y-53463671D01*
X51972377Y-53519137D01*
X51857379Y-53607379D01*
X51769137Y-53722377D01*
X51713671Y-53856287D01*
X51713670Y-53856291D01*
X51694750Y-53999999D01*
X26305250Y-53999999D01*
X26286330Y-53856291D01*
X26249350Y-53767013D01*
X26230862Y-53722377D01*
X26230861Y-53722376D01*
X26230861Y-53722375D01*
X26142621Y-53607379D01*
X26027625Y-53519139D01*
X26027624Y-53519138D01*
X26027622Y-53519137D01*
X25893712Y-53463671D01*
X25893710Y-53463670D01*
X25893709Y-53463670D01*
X25821854Y-53454210D01*
X25750001Y-53444750D01*
X25749999Y-53444750D01*
X25606291Y-53463670D01*
X25606287Y-53463671D01*
X25472377Y-53519137D01*
X25357379Y-53607379D01*
X25269137Y-53722377D01*
X25213671Y-53856287D01*
X25213670Y-53856291D01*
X25194750Y-53999999D01*
X16000000Y-53999999D01*
X16000000Y-52749999D01*
X29194750Y-52749999D01*
X29194750Y-52750000D01*
X29213670Y-52893708D01*
X29213671Y-52893712D01*
X29269137Y-53027622D01*
X29269138Y-53027624D01*
X29269139Y-53027625D01*
X29357379Y-53142621D01*
X29472375Y-53230861D01*
X29606291Y-53286330D01*
X29733280Y-53303048D01*
X29749999Y-53305250D01*
X29750000Y-53305250D01*
X29750001Y-53305250D01*
X29764977Y-53303278D01*
X29893709Y-53286330D01*
X30027625Y-53230861D01*
X30142621Y-53142621D01*
X30230861Y-53027625D01*
X30286330Y-52893709D01*
X30305250Y-52750000D01*
X30286330Y-52606291D01*
X30249350Y-52517013D01*
X30242303Y-52499999D01*
X31194750Y-52499999D01*
X31194750Y-52500000D01*
X31213670Y-52643708D01*
X31213671Y-52643712D01*
X31269137Y-52777622D01*
X31269138Y-52777624D01*
X31269139Y-52777625D01*
X31357379Y-52892621D01*
X31472375Y-52980861D01*
X31606291Y-53036330D01*
X31733280Y-53053048D01*
X31749999Y-53055250D01*
X31749999Y-53055249D01*
X31750000Y-53055250D01*
X31814059Y-53046816D01*
X31883093Y-53057581D01*
X31935349Y-53103961D01*
X31954235Y-53171229D01*
X31953183Y-53185940D01*
X31944750Y-53249997D01*
X31944750Y-53250000D01*
X31963670Y-53393708D01*
X31963671Y-53393712D01*
X32019137Y-53527622D01*
X32019138Y-53527624D01*
X32019139Y-53527625D01*
X32107379Y-53642621D01*
X32222375Y-53730861D01*
X32356291Y-53786330D01*
X32483280Y-53803048D01*
X32499999Y-53805250D01*
X32500000Y-53805250D01*
X32500001Y-53805250D01*
X32514977Y-53803278D01*
X32643709Y-53786330D01*
X32777625Y-53730861D01*
X32892621Y-53642621D01*
X32980861Y-53527625D01*
X33036330Y-53393709D01*
X33055250Y-53250000D01*
X33036330Y-53106291D01*
X32986861Y-52986861D01*
X32980862Y-52972377D01*
X32980861Y-52972376D01*
X32980861Y-52972375D01*
X32892621Y-52857379D01*
X32777625Y-52769139D01*
X32777624Y-52769138D01*
X32777622Y-52769137D01*
X32643712Y-52713671D01*
X32643710Y-52713670D01*
X32643709Y-52713670D01*
X32564054Y-52703183D01*
X32500001Y-52694750D01*
X32499998Y-52694750D01*
X32435940Y-52703183D01*
X32366904Y-52692417D01*
X32314649Y-52646037D01*
X32295764Y-52578768D01*
X32296815Y-52564066D01*
X32305250Y-52500000D01*
X32286330Y-52356291D01*
X32230861Y-52222375D01*
X32142621Y-52107379D01*
X32027625Y-52019139D01*
X32027624Y-52019138D01*
X32027622Y-52019137D01*
X31893712Y-51963671D01*
X31893710Y-51963670D01*
X31893709Y-51963670D01*
X31821854Y-51954210D01*
X31750001Y-51944750D01*
X31749999Y-51944750D01*
X31606291Y-51963670D01*
X31606287Y-51963671D01*
X31472377Y-52019137D01*
X31357379Y-52107379D01*
X31269137Y-52222377D01*
X31213671Y-52356287D01*
X31213670Y-52356291D01*
X31194750Y-52499999D01*
X30242303Y-52499999D01*
X30230862Y-52472377D01*
X30230861Y-52472376D01*
X30230861Y-52472375D01*
X30142621Y-52357379D01*
X30027625Y-52269139D01*
X30027624Y-52269138D01*
X30027622Y-52269137D01*
X29893712Y-52213671D01*
X29893710Y-52213670D01*
X29893709Y-52213670D01*
X29821854Y-52204210D01*
X29750001Y-52194750D01*
X29749999Y-52194750D01*
X29606291Y-52213670D01*
X29606287Y-52213671D01*
X29472377Y-52269137D01*
X29357379Y-52357379D01*
X29269137Y-52472377D01*
X29213671Y-52606287D01*
X29213670Y-52606291D01*
X29194750Y-52749999D01*
X16000000Y-52749999D01*
X16000000Y-50499999D01*
X44944750Y-50499999D01*
X44944750Y-50500000D01*
X44963670Y-50643708D01*
X44963671Y-50643712D01*
X45019137Y-50777622D01*
X45019138Y-50777624D01*
X45019139Y-50777625D01*
X45107379Y-50892621D01*
X45116711Y-50899782D01*
X45119113Y-50901625D01*
X45160316Y-50958053D01*
X45164470Y-51027799D01*
X45130257Y-51088719D01*
X45119113Y-51098375D01*
X45107381Y-51107377D01*
X45019137Y-51222377D01*
X44963671Y-51356287D01*
X44963670Y-51356291D01*
X44944750Y-51499999D01*
X44944750Y-51500000D01*
X44963670Y-51643708D01*
X44963671Y-51643712D01*
X45019137Y-51777622D01*
X45019138Y-51777624D01*
X45019139Y-51777625D01*
X45107379Y-51892621D01*
X45116711Y-51899782D01*
X45119113Y-51901625D01*
X45160316Y-51958053D01*
X45164470Y-52027799D01*
X45130257Y-52088719D01*
X45119113Y-52098375D01*
X45107381Y-52107377D01*
X45019137Y-52222377D01*
X44963671Y-52356287D01*
X44963670Y-52356291D01*
X44944750Y-52499999D01*
X44944750Y-52500000D01*
X44963670Y-52643708D01*
X44963671Y-52643712D01*
X45019137Y-52777622D01*
X45019138Y-52777624D01*
X45019139Y-52777625D01*
X45107379Y-52892621D01*
X45222375Y-52980861D01*
X45356291Y-53036330D01*
X45483280Y-53053048D01*
X45499999Y-53055250D01*
X45500000Y-53055250D01*
X45500001Y-53055250D01*
X45514977Y-53053278D01*
X45643709Y-53036330D01*
X45777625Y-52980861D01*
X45892621Y-52892621D01*
X45980861Y-52777625D01*
X46036330Y-52643709D01*
X46055250Y-52500000D01*
X46036330Y-52356291D01*
X45980861Y-52222375D01*
X45892621Y-52107379D01*
X45880886Y-52098374D01*
X45839685Y-52041950D01*
X45835529Y-51972204D01*
X45869740Y-51911283D01*
X45880876Y-51901632D01*
X45892621Y-51892621D01*
X45980861Y-51777625D01*
X46036330Y-51643709D01*
X46055250Y-51500000D01*
X46036330Y-51356291D01*
X45980861Y-51222375D01*
X45892621Y-51107379D01*
X45880886Y-51098374D01*
X45839685Y-51041950D01*
X45835529Y-50972204D01*
X45869740Y-50911283D01*
X45880876Y-50901632D01*
X45892621Y-50892621D01*
X45980861Y-50777625D01*
X46036330Y-50643709D01*
X46055250Y-50500000D01*
X46055250Y-50499999D01*
X47444750Y-50499999D01*
X47444750Y-50500000D01*
X47463670Y-50643708D01*
X47463671Y-50643712D01*
X47519137Y-50777622D01*
X47519138Y-50777624D01*
X47519139Y-50777625D01*
X47607379Y-50892621D01*
X47722375Y-50980861D01*
X47856291Y-51036330D01*
X47983280Y-51053048D01*
X47999999Y-51055250D01*
X48000000Y-51055250D01*
X48000001Y-51055250D01*
X48014977Y-51053278D01*
X48143709Y-51036330D01*
X48277625Y-50980861D01*
X48392621Y-50892621D01*
X48480861Y-50777625D01*
X48536330Y-50643709D01*
X48555250Y-50500000D01*
X48536330Y-50356291D01*
X48480861Y-50222375D01*
X48392621Y-50107379D01*
X48277625Y-50019139D01*
X48277624Y-50019138D01*
X48277622Y-50019137D01*
X48143712Y-49963671D01*
X48143710Y-49963670D01*
X48143709Y-49963670D01*
X48071854Y-49954210D01*
X48000001Y-49944750D01*
X47999999Y-49944750D01*
X47856291Y-49963670D01*
X47856287Y-49963671D01*
X47722377Y-50019137D01*
X47607379Y-50107379D01*
X47519137Y-50222377D01*
X47463671Y-50356287D01*
X47463670Y-50356291D01*
X47444750Y-50499999D01*
X46055250Y-50499999D01*
X46036330Y-50356291D01*
X45980861Y-50222375D01*
X45892621Y-50107379D01*
X45777625Y-50019139D01*
X45777624Y-50019138D01*
X45777622Y-50019137D01*
X45643712Y-49963671D01*
X45643710Y-49963670D01*
X45643709Y-49963670D01*
X45571854Y-49954210D01*
X45500001Y-49944750D01*
X45499999Y-49944750D01*
X45356291Y-49963670D01*
X45356287Y-49963671D01*
X45222377Y-50019137D01*
X45107379Y-50107379D01*
X45019137Y-50222377D01*
X44963671Y-50356287D01*
X44963670Y-50356291D01*
X44944750Y-50499999D01*
X16000000Y-50499999D01*
X16000000Y-49499999D01*
X36944750Y-49499999D01*
X36944750Y-49500000D01*
X36963670Y-49643708D01*
X36963671Y-49643712D01*
X37019137Y-49777622D01*
X37019138Y-49777624D01*
X37019139Y-49777625D01*
X37107379Y-49892621D01*
X37222375Y-49980861D01*
X37356291Y-50036330D01*
X37483280Y-50053048D01*
X37499999Y-50055250D01*
X37500000Y-50055250D01*
X37500001Y-50055250D01*
X37514977Y-50053278D01*
X37643709Y-50036330D01*
X37777625Y-49980861D01*
X37892621Y-49892621D01*
X37980861Y-49777625D01*
X38036330Y-49643709D01*
X38055250Y-49500000D01*
X38036330Y-49356291D01*
X37980861Y-49222375D01*
X37892621Y-49107379D01*
X37777625Y-49019139D01*
X37777624Y-49019138D01*
X37777622Y-49019137D01*
X37643712Y-48963671D01*
X37643710Y-48963670D01*
X37643709Y-48963670D01*
X37571854Y-48954210D01*
X37500001Y-48944750D01*
X37499999Y-48944750D01*
X37356291Y-48963670D01*
X37356287Y-48963671D01*
X37222377Y-49019137D01*
X37107379Y-49107379D01*
X37019137Y-49222377D01*
X36963671Y-49356287D01*
X36963670Y-49356291D01*
X36944750Y-49499999D01*
X16000000Y-49499999D01*
X16000000Y-48499999D01*
X32194750Y-48499999D01*
X32194750Y-48500000D01*
X32213670Y-48643708D01*
X32213671Y-48643712D01*
X32269137Y-48777622D01*
X32269138Y-48777624D01*
X32269139Y-48777625D01*
X32357379Y-48892621D01*
X32472375Y-48980861D01*
X32606291Y-49036330D01*
X32733280Y-49053048D01*
X32749999Y-49055250D01*
X32750000Y-49055250D01*
X32750001Y-49055250D01*
X32764977Y-49053278D01*
X32893709Y-49036330D01*
X33027625Y-48980861D01*
X33142621Y-48892621D01*
X33230861Y-48777625D01*
X33286330Y-48643709D01*
X33305250Y-48500000D01*
X33286330Y-48356291D01*
X33230861Y-48222375D01*
X33142621Y-48107379D01*
X33027625Y-48019139D01*
X33027624Y-48019138D01*
X33027622Y-48019137D01*
X32893712Y-47963671D01*
X32893710Y-47963670D01*
X32893709Y-47963670D01*
X32821854Y-47954210D01*
X32750001Y-47944750D01*
X32749999Y-47944750D01*
X32606291Y-47963670D01*
X32606287Y-47963671D01*
X32472377Y-48019137D01*
X32357379Y-48107379D01*
X32269137Y-48222377D01*
X32213671Y-48356287D01*
X32213670Y-48356291D01*
X32194750Y-48499999D01*
X16000000Y-48499999D01*
X16000000Y-47499999D01*
X44194750Y-47499999D01*
X44194750Y-47500000D01*
X44213670Y-47643708D01*
X44213671Y-47643712D01*
X44269137Y-47777622D01*
X44269138Y-47777624D01*
X44269139Y-47777625D01*
X44357379Y-47892621D01*
X44472375Y-47980861D01*
X44606291Y-48036330D01*
X44733280Y-48053048D01*
X44749999Y-48055250D01*
X44750000Y-48055250D01*
X44750001Y-48055250D01*
X44764977Y-48053278D01*
X44893709Y-48036330D01*
X45027625Y-47980861D01*
X45142621Y-47892621D01*
X45230861Y-47777625D01*
X45286330Y-47643709D01*
X45305250Y-47500000D01*
X45305250Y-47499999D01*
X49444750Y-47499999D01*
X49444750Y-47500000D01*
X49463670Y-47643708D01*
X49463671Y-47643712D01*
X49519137Y-47777622D01*
X49519138Y-47777624D01*
X49519139Y-47777625D01*
X49607379Y-47892621D01*
X49722375Y-47980861D01*
X49856291Y-48036330D01*
X49983280Y-48053048D01*
X49999999Y-48055250D01*
X50000000Y-48055250D01*
X50000001Y-48055250D01*
X50014977Y-48053278D01*
X50143709Y-48036330D01*
X50277625Y-47980861D01*
X50392621Y-47892621D01*
X50480861Y-47777625D01*
X50536330Y-47643709D01*
X50555250Y-47500000D01*
X50547441Y-47440685D01*
X50558206Y-47371650D01*
X50604586Y-47319394D01*
X50670380Y-47300500D01*
X51574676Y-47300500D01*
X51574677Y-47300499D01*
X51647740Y-47285966D01*
X51730601Y-47230601D01*
X51785966Y-47147740D01*
X51800500Y-47074674D01*
X51800500Y-45925326D01*
X51800500Y-45925323D01*
X51800499Y-45925321D01*
X51785967Y-45852264D01*
X51785966Y-45852260D01*
X51754555Y-45805250D01*
X51730601Y-45769399D01*
X51647740Y-45714034D01*
X51647739Y-45714033D01*
X51647735Y-45714032D01*
X51574677Y-45699500D01*
X51574674Y-45699500D01*
X50425326Y-45699500D01*
X50425323Y-45699500D01*
X50352264Y-45714032D01*
X50352260Y-45714033D01*
X50269399Y-45769399D01*
X50214033Y-45852260D01*
X50214032Y-45852264D01*
X50199500Y-45925321D01*
X50199500Y-46829620D01*
X50179815Y-46896659D01*
X50127011Y-46942414D01*
X50059314Y-46952559D01*
X50000001Y-46944750D01*
X49999999Y-46944750D01*
X49856291Y-46963670D01*
X49856287Y-46963671D01*
X49722377Y-47019137D01*
X49607379Y-47107379D01*
X49519137Y-47222377D01*
X49463671Y-47356287D01*
X49463670Y-47356291D01*
X49444750Y-47499999D01*
X45305250Y-47499999D01*
X45286330Y-47356291D01*
X45230861Y-47222375D01*
X45142621Y-47107379D01*
X45027625Y-47019139D01*
X45027624Y-47019138D01*
X45027622Y-47019137D01*
X44893712Y-46963671D01*
X44893710Y-46963670D01*
X44893709Y-46963670D01*
X44809314Y-46952559D01*
X44750001Y-46944750D01*
X44749999Y-46944750D01*
X44606291Y-46963670D01*
X44606287Y-46963671D01*
X44472377Y-47019137D01*
X44357379Y-47107379D01*
X44269137Y-47222377D01*
X44213671Y-47356287D01*
X44213670Y-47356291D01*
X44194750Y-47499999D01*
X16000000Y-47499999D01*
X16000000Y-46245725D01*
X41935909Y-46245725D01*
X41935909Y-46245726D01*
X41954829Y-46389434D01*
X41954830Y-46389438D01*
X42010296Y-46523348D01*
X42010297Y-46523350D01*
X42010298Y-46523351D01*
X42098538Y-46638347D01*
X42213534Y-46726587D01*
X42347450Y-46782056D01*
X42474439Y-46798774D01*
X42491158Y-46800976D01*
X42491159Y-46800976D01*
X42491160Y-46800976D01*
X42506136Y-46799004D01*
X42634868Y-46782056D01*
X42768784Y-46726587D01*
X42883780Y-46638347D01*
X42972020Y-46523351D01*
X43027489Y-46389435D01*
X43027490Y-46389424D01*
X43028711Y-46384870D01*
X43065071Y-46325207D01*
X43127916Y-46294673D01*
X43164671Y-46294016D01*
X43229277Y-46302521D01*
X43249999Y-46305250D01*
X43250000Y-46305250D01*
X43250001Y-46305250D01*
X43264977Y-46303278D01*
X43393709Y-46286330D01*
X43527625Y-46230861D01*
X43642621Y-46142621D01*
X43730861Y-46027625D01*
X43786330Y-45893709D01*
X43805250Y-45750000D01*
X43786330Y-45606291D01*
X43749350Y-45517013D01*
X43730862Y-45472377D01*
X43730861Y-45472376D01*
X43730861Y-45472375D01*
X43642621Y-45357379D01*
X43527625Y-45269139D01*
X43527624Y-45269138D01*
X43527622Y-45269137D01*
X43393712Y-45213671D01*
X43393710Y-45213670D01*
X43393709Y-45213670D01*
X43321854Y-45204210D01*
X43250001Y-45194750D01*
X43249999Y-45194750D01*
X43106291Y-45213670D01*
X43106287Y-45213671D01*
X42972377Y-45269137D01*
X42857379Y-45357379D01*
X42769137Y-45472377D01*
X42713669Y-45606291D01*
X42712441Y-45610875D01*
X42676070Y-45670532D01*
X42613220Y-45701055D01*
X42576484Y-45701709D01*
X42491161Y-45690476D01*
X42491158Y-45690476D01*
X42347450Y-45709396D01*
X42347446Y-45709397D01*
X42213536Y-45764863D01*
X42098538Y-45853105D01*
X42010296Y-45968103D01*
X41954830Y-46102013D01*
X41954829Y-46102017D01*
X41935909Y-46245725D01*
X16000000Y-46245725D01*
X16000000Y-44999999D01*
X20944750Y-44999999D01*
X20944750Y-45000000D01*
X20963670Y-45143708D01*
X20963671Y-45143712D01*
X21019137Y-45277622D01*
X21019138Y-45277624D01*
X21019139Y-45277625D01*
X21107379Y-45392621D01*
X21222375Y-45480861D01*
X21356291Y-45536330D01*
X21483280Y-45553048D01*
X21499999Y-45555250D01*
X21500000Y-45555250D01*
X21500001Y-45555250D01*
X21514977Y-45553278D01*
X21643709Y-45536330D01*
X21777625Y-45480861D01*
X21892621Y-45392621D01*
X21980861Y-45277625D01*
X22036330Y-45143709D01*
X22055250Y-45000000D01*
X22055250Y-44999999D01*
X23444750Y-44999999D01*
X23444750Y-45000000D01*
X23463670Y-45143708D01*
X23463671Y-45143712D01*
X23519137Y-45277622D01*
X23519138Y-45277624D01*
X23519139Y-45277625D01*
X23607379Y-45392621D01*
X23722375Y-45480861D01*
X23856291Y-45536330D01*
X23983280Y-45553048D01*
X23999999Y-45555250D01*
X24000000Y-45555250D01*
X24000001Y-45555250D01*
X24014977Y-45553278D01*
X24143709Y-45536330D01*
X24277625Y-45480861D01*
X24392621Y-45392621D01*
X24480861Y-45277625D01*
X24510440Y-45206213D01*
X24554279Y-45151813D01*
X24620573Y-45129747D01*
X24688272Y-45147026D01*
X24735883Y-45198162D01*
X24739549Y-45206189D01*
X24769139Y-45277625D01*
X24857379Y-45392621D01*
X24972375Y-45480861D01*
X25106291Y-45536330D01*
X25233280Y-45553048D01*
X25249999Y-45555250D01*
X25250000Y-45555250D01*
X25250001Y-45555250D01*
X25264977Y-45553278D01*
X25393709Y-45536330D01*
X25527625Y-45480861D01*
X25642621Y-45392621D01*
X25730861Y-45277625D01*
X25786330Y-45143709D01*
X25805250Y-45000000D01*
X25805250Y-44999999D01*
X32944750Y-44999999D01*
X32944750Y-45000000D01*
X32963670Y-45143708D01*
X32963671Y-45143712D01*
X33019137Y-45277622D01*
X33019138Y-45277624D01*
X33019139Y-45277625D01*
X33107379Y-45392621D01*
X33222375Y-45480861D01*
X33356291Y-45536330D01*
X33483280Y-45553048D01*
X33499999Y-45555250D01*
X33500000Y-45555250D01*
X33500001Y-45555250D01*
X33514977Y-45553278D01*
X33643709Y-45536330D01*
X33777625Y-45480861D01*
X33892621Y-45392621D01*
X33980861Y-45277625D01*
X34036330Y-45143709D01*
X34055250Y-45000000D01*
X34055250Y-44999999D01*
X35444750Y-44999999D01*
X35444750Y-45000000D01*
X35463670Y-45143708D01*
X35463671Y-45143712D01*
X35519137Y-45277622D01*
X35519138Y-45277624D01*
X35519139Y-45277625D01*
X35607379Y-45392621D01*
X35722375Y-45480861D01*
X35856291Y-45536330D01*
X35983280Y-45553048D01*
X35999999Y-45555250D01*
X36000000Y-45555250D01*
X36000001Y-45555250D01*
X36014977Y-45553278D01*
X36143709Y-45536330D01*
X36277625Y-45480861D01*
X36392621Y-45392621D01*
X36480861Y-45277625D01*
X36510440Y-45206213D01*
X36554279Y-45151813D01*
X36620573Y-45129747D01*
X36688272Y-45147026D01*
X36735883Y-45198162D01*
X36739549Y-45206189D01*
X36769139Y-45277625D01*
X36857379Y-45392621D01*
X36972375Y-45480861D01*
X37106291Y-45536330D01*
X37233280Y-45553048D01*
X37249999Y-45555250D01*
X37250000Y-45555250D01*
X37250001Y-45555250D01*
X37264977Y-45553278D01*
X37393709Y-45536330D01*
X37527625Y-45480861D01*
X37642621Y-45392621D01*
X37730861Y-45277625D01*
X37742304Y-45249999D01*
X40332248Y-45249999D01*
X40332248Y-45250000D01*
X40351168Y-45393708D01*
X40351169Y-45393712D01*
X40406635Y-45527622D01*
X40406636Y-45527624D01*
X40406637Y-45527625D01*
X40494877Y-45642621D01*
X40609873Y-45730861D01*
X40743789Y-45786330D01*
X40870778Y-45803048D01*
X40887497Y-45805250D01*
X40887498Y-45805250D01*
X40887499Y-45805250D01*
X40902475Y-45803278D01*
X41031207Y-45786330D01*
X41165123Y-45730861D01*
X41280119Y-45642621D01*
X41368359Y-45527625D01*
X41423828Y-45393709D01*
X41442748Y-45250000D01*
X41423828Y-45106291D01*
X41386848Y-45017013D01*
X41368360Y-44972377D01*
X41368359Y-44972376D01*
X41368359Y-44972375D01*
X41280119Y-44857379D01*
X41165123Y-44769139D01*
X41165122Y-44769138D01*
X41165120Y-44769137D01*
X41031210Y-44713671D01*
X41031208Y-44713670D01*
X41031207Y-44713670D01*
X40959352Y-44704210D01*
X40887499Y-44694750D01*
X40887497Y-44694750D01*
X40743789Y-44713670D01*
X40743785Y-44713671D01*
X40609875Y-44769137D01*
X40494877Y-44857379D01*
X40406635Y-44972377D01*
X40351169Y-45106287D01*
X40351168Y-45106291D01*
X40332248Y-45249999D01*
X37742304Y-45249999D01*
X37786330Y-45143709D01*
X37805250Y-45000000D01*
X37786330Y-44856291D01*
X37730861Y-44722375D01*
X37642621Y-44607379D01*
X37527625Y-44519139D01*
X37527624Y-44519138D01*
X37527622Y-44519137D01*
X37393712Y-44463671D01*
X37393710Y-44463670D01*
X37393709Y-44463670D01*
X37321854Y-44454210D01*
X37250001Y-44444750D01*
X37249999Y-44444750D01*
X37106291Y-44463670D01*
X37106287Y-44463671D01*
X36972377Y-44519137D01*
X36857379Y-44607379D01*
X36769137Y-44722377D01*
X36739561Y-44793783D01*
X36695721Y-44848187D01*
X36629427Y-44870252D01*
X36561727Y-44852973D01*
X36514116Y-44801836D01*
X36510439Y-44793783D01*
X36480862Y-44722377D01*
X36480861Y-44722376D01*
X36480861Y-44722375D01*
X36392621Y-44607379D01*
X36277625Y-44519139D01*
X36277624Y-44519138D01*
X36277622Y-44519137D01*
X36143712Y-44463671D01*
X36143710Y-44463670D01*
X36143709Y-44463670D01*
X36071854Y-44454210D01*
X36000001Y-44444750D01*
X35999999Y-44444750D01*
X35856291Y-44463670D01*
X35856287Y-44463671D01*
X35722377Y-44519137D01*
X35607379Y-44607379D01*
X35519137Y-44722377D01*
X35463671Y-44856287D01*
X35463670Y-44856291D01*
X35444750Y-44999999D01*
X34055250Y-44999999D01*
X34036330Y-44856291D01*
X33980861Y-44722375D01*
X33892621Y-44607379D01*
X33777625Y-44519139D01*
X33777624Y-44519138D01*
X33777622Y-44519137D01*
X33643712Y-44463671D01*
X33643710Y-44463670D01*
X33643709Y-44463670D01*
X33571854Y-44454210D01*
X33500001Y-44444750D01*
X33499999Y-44444750D01*
X33356291Y-44463670D01*
X33356287Y-44463671D01*
X33222377Y-44519137D01*
X33107379Y-44607379D01*
X33019137Y-44722377D01*
X32963671Y-44856287D01*
X32963670Y-44856291D01*
X32944750Y-44999999D01*
X25805250Y-44999999D01*
X25786330Y-44856291D01*
X25730861Y-44722375D01*
X25642621Y-44607379D01*
X25527625Y-44519139D01*
X25527624Y-44519138D01*
X25527622Y-44519137D01*
X25393712Y-44463671D01*
X25393710Y-44463670D01*
X25393709Y-44463670D01*
X25321854Y-44454210D01*
X25250001Y-44444750D01*
X25249999Y-44444750D01*
X25106291Y-44463670D01*
X25106287Y-44463671D01*
X24972377Y-44519137D01*
X24857379Y-44607379D01*
X24769137Y-44722377D01*
X24739561Y-44793783D01*
X24695721Y-44848187D01*
X24629427Y-44870252D01*
X24561727Y-44852973D01*
X24514116Y-44801836D01*
X24510439Y-44793783D01*
X24480862Y-44722377D01*
X24480861Y-44722376D01*
X24480861Y-44722375D01*
X24392621Y-44607379D01*
X24277625Y-44519139D01*
X24277624Y-44519138D01*
X24277622Y-44519137D01*
X24143712Y-44463671D01*
X24143710Y-44463670D01*
X24143709Y-44463670D01*
X24071854Y-44454210D01*
X24000001Y-44444750D01*
X23999999Y-44444750D01*
X23856291Y-44463670D01*
X23856287Y-44463671D01*
X23722377Y-44519137D01*
X23607379Y-44607379D01*
X23519137Y-44722377D01*
X23463671Y-44856287D01*
X23463670Y-44856291D01*
X23444750Y-44999999D01*
X22055250Y-44999999D01*
X22036330Y-44856291D01*
X21980861Y-44722375D01*
X21892621Y-44607379D01*
X21777625Y-44519139D01*
X21777624Y-44519138D01*
X21777622Y-44519137D01*
X21643712Y-44463671D01*
X21643710Y-44463670D01*
X21643709Y-44463670D01*
X21571854Y-44454210D01*
X21500001Y-44444750D01*
X21499999Y-44444750D01*
X21356291Y-44463670D01*
X21356287Y-44463671D01*
X21222377Y-44519137D01*
X21107379Y-44607379D01*
X21019137Y-44722377D01*
X20963671Y-44856287D01*
X20963670Y-44856291D01*
X20944750Y-44999999D01*
X16000000Y-44999999D01*
X16000000Y-43749999D01*
X22194750Y-43749999D01*
X22194750Y-43750000D01*
X22213670Y-43893708D01*
X22213671Y-43893712D01*
X22269137Y-44027622D01*
X22269138Y-44027624D01*
X22269139Y-44027625D01*
X22357379Y-44142621D01*
X22472375Y-44230861D01*
X22606291Y-44286330D01*
X22733280Y-44303048D01*
X22749999Y-44305250D01*
X22750000Y-44305250D01*
X22750001Y-44305250D01*
X22764977Y-44303278D01*
X22893709Y-44286330D01*
X23027625Y-44230861D01*
X23142621Y-44142621D01*
X23230861Y-44027625D01*
X23286330Y-43893709D01*
X23305250Y-43750000D01*
X23286330Y-43606291D01*
X23249350Y-43517013D01*
X23242303Y-43499999D01*
X42944750Y-43499999D01*
X42944750Y-43500000D01*
X42963670Y-43643708D01*
X42963671Y-43643712D01*
X43019137Y-43777622D01*
X43019138Y-43777624D01*
X43019139Y-43777625D01*
X43107379Y-43892621D01*
X43222375Y-43980861D01*
X43356291Y-44036330D01*
X43483280Y-44053048D01*
X43499999Y-44055250D01*
X43500000Y-44055250D01*
X43500001Y-44055250D01*
X43514977Y-44053278D01*
X43643709Y-44036330D01*
X43777625Y-43980861D01*
X43892621Y-43892621D01*
X43980861Y-43777625D01*
X44036330Y-43643709D01*
X44055250Y-43500000D01*
X44036330Y-43356291D01*
X43980861Y-43222375D01*
X43892621Y-43107379D01*
X43777625Y-43019139D01*
X43777624Y-43019138D01*
X43777622Y-43019137D01*
X43643712Y-42963671D01*
X43643710Y-42963670D01*
X43643709Y-42963670D01*
X43571854Y-42954210D01*
X43500001Y-42944750D01*
X43499999Y-42944750D01*
X43356291Y-42963670D01*
X43356287Y-42963671D01*
X43222377Y-43019137D01*
X43107379Y-43107379D01*
X43019137Y-43222377D01*
X42963671Y-43356287D01*
X42963670Y-43356291D01*
X42944750Y-43499999D01*
X23242303Y-43499999D01*
X23230862Y-43472377D01*
X23230861Y-43472376D01*
X23230861Y-43472375D01*
X23142621Y-43357379D01*
X23027625Y-43269139D01*
X23027624Y-43269138D01*
X23027622Y-43269137D01*
X22893712Y-43213671D01*
X22893710Y-43213670D01*
X22893709Y-43213670D01*
X22821854Y-43204210D01*
X22750001Y-43194750D01*
X22749999Y-43194750D01*
X22606291Y-43213670D01*
X22606287Y-43213671D01*
X22472377Y-43269137D01*
X22357379Y-43357379D01*
X22269137Y-43472377D01*
X22213671Y-43606287D01*
X22213670Y-43606291D01*
X22194750Y-43749999D01*
X16000000Y-43749999D01*
X16000000Y-42000000D01*
X22194750Y-42000000D01*
X22204581Y-42074676D01*
X22213670Y-42143708D01*
X22213671Y-42143712D01*
X22269137Y-42277622D01*
X22269138Y-42277624D01*
X22269139Y-42277625D01*
X22357379Y-42392621D01*
X22472375Y-42480861D01*
X22606291Y-42536330D01*
X22733280Y-42553048D01*
X22749999Y-42555250D01*
X22750000Y-42555250D01*
X22750001Y-42555250D01*
X22764977Y-42553278D01*
X22893709Y-42536330D01*
X23027625Y-42480861D01*
X23142621Y-42392621D01*
X23230861Y-42277625D01*
X23286330Y-42143709D01*
X23305250Y-42000000D01*
X24694750Y-42000000D01*
X24704581Y-42074676D01*
X24713670Y-42143708D01*
X24713671Y-42143712D01*
X24769137Y-42277622D01*
X24769138Y-42277624D01*
X24769139Y-42277625D01*
X24857379Y-42392621D01*
X24972375Y-42480861D01*
X25106291Y-42536330D01*
X25233280Y-42553048D01*
X25249999Y-42555250D01*
X25250000Y-42555250D01*
X25250001Y-42555250D01*
X25264977Y-42553278D01*
X25393709Y-42536330D01*
X25527625Y-42480861D01*
X25642621Y-42392621D01*
X25730861Y-42277625D01*
X25786330Y-42143709D01*
X25805250Y-42000000D01*
X34194750Y-42000000D01*
X34204581Y-42074676D01*
X34213670Y-42143708D01*
X34213671Y-42143712D01*
X34269137Y-42277622D01*
X34269138Y-42277624D01*
X34269139Y-42277625D01*
X34357379Y-42392621D01*
X34472375Y-42480861D01*
X34606291Y-42536330D01*
X34733280Y-42553048D01*
X34749999Y-42555250D01*
X34750000Y-42555250D01*
X34750001Y-42555250D01*
X34764977Y-42553278D01*
X34893709Y-42536330D01*
X35027625Y-42480861D01*
X35142621Y-42392621D01*
X35230861Y-42277625D01*
X35286330Y-42143709D01*
X35305250Y-42000000D01*
X36754750Y-42000000D01*
X36764581Y-42074676D01*
X36773670Y-42143708D01*
X36773671Y-42143712D01*
X36829137Y-42277622D01*
X36829138Y-42277624D01*
X36829139Y-42277625D01*
X36917379Y-42392621D01*
X37032375Y-42480861D01*
X37166291Y-42536330D01*
X37293280Y-42553048D01*
X37309999Y-42555250D01*
X37310000Y-42555250D01*
X37310001Y-42555250D01*
X37324977Y-42553278D01*
X37453709Y-42536330D01*
X37587625Y-42480861D01*
X37702621Y-42392621D01*
X37790861Y-42277625D01*
X37802304Y-42249999D01*
X44194750Y-42249999D01*
X44194750Y-42250000D01*
X44213670Y-42393708D01*
X44213671Y-42393712D01*
X44269137Y-42527622D01*
X44269138Y-42527624D01*
X44269139Y-42527625D01*
X44357379Y-42642621D01*
X44472375Y-42730861D01*
X44606291Y-42786330D01*
X44733280Y-42803048D01*
X44749999Y-42805250D01*
X44750000Y-42805250D01*
X44750001Y-42805250D01*
X44764977Y-42803278D01*
X44893709Y-42786330D01*
X45027625Y-42730861D01*
X45142621Y-42642621D01*
X45230861Y-42527625D01*
X45286330Y-42393709D01*
X45305250Y-42250000D01*
X45286330Y-42106291D01*
X45249350Y-42017013D01*
X45230862Y-41972377D01*
X45230861Y-41972376D01*
X45230861Y-41972375D01*
X45142621Y-41857379D01*
X45027625Y-41769139D01*
X45027624Y-41769138D01*
X45027622Y-41769137D01*
X44893712Y-41713671D01*
X44893710Y-41713670D01*
X44893709Y-41713670D01*
X44821854Y-41704210D01*
X44750001Y-41694750D01*
X44749999Y-41694750D01*
X44606291Y-41713670D01*
X44606287Y-41713671D01*
X44472377Y-41769137D01*
X44357379Y-41857379D01*
X44269137Y-41972377D01*
X44213671Y-42106287D01*
X44213670Y-42106291D01*
X44194750Y-42249999D01*
X37802304Y-42249999D01*
X37846330Y-42143709D01*
X37865250Y-42000000D01*
X37846330Y-41856291D01*
X37790861Y-41722375D01*
X37702621Y-41607379D01*
X37587625Y-41519139D01*
X37587624Y-41519138D01*
X37587622Y-41519137D01*
X37453712Y-41463671D01*
X37453710Y-41463670D01*
X37453709Y-41463670D01*
X37381854Y-41454210D01*
X37310001Y-41444750D01*
X37309999Y-41444750D01*
X37166291Y-41463670D01*
X37166287Y-41463671D01*
X37032377Y-41519137D01*
X36917379Y-41607379D01*
X36829137Y-41722377D01*
X36773671Y-41856287D01*
X36773670Y-41856291D01*
X36754750Y-42000000D01*
X35305250Y-42000000D01*
X35286330Y-41856291D01*
X35230861Y-41722375D01*
X35142621Y-41607379D01*
X35027625Y-41519139D01*
X35027624Y-41519138D01*
X35027622Y-41519137D01*
X34893712Y-41463671D01*
X34893710Y-41463670D01*
X34893709Y-41463670D01*
X34821854Y-41454210D01*
X34750001Y-41444750D01*
X34749999Y-41444750D01*
X34606291Y-41463670D01*
X34606287Y-41463671D01*
X34472377Y-41519137D01*
X34357379Y-41607379D01*
X34269137Y-41722377D01*
X34213671Y-41856287D01*
X34213670Y-41856291D01*
X34194750Y-42000000D01*
X25805250Y-42000000D01*
X25786330Y-41856291D01*
X25730861Y-41722375D01*
X25642621Y-41607379D01*
X25527625Y-41519139D01*
X25527624Y-41519138D01*
X25527622Y-41519137D01*
X25393712Y-41463671D01*
X25393710Y-41463670D01*
X25393709Y-41463670D01*
X25321854Y-41454210D01*
X25250001Y-41444750D01*
X25249999Y-41444750D01*
X25106291Y-41463670D01*
X25106287Y-41463671D01*
X24972377Y-41519137D01*
X24857379Y-41607379D01*
X24769137Y-41722377D01*
X24713671Y-41856287D01*
X24713670Y-41856291D01*
X24694750Y-42000000D01*
X23305250Y-42000000D01*
X23286330Y-41856291D01*
X23230861Y-41722375D01*
X23142621Y-41607379D01*
X23027625Y-41519139D01*
X23027624Y-41519138D01*
X23027622Y-41519137D01*
X22893712Y-41463671D01*
X22893710Y-41463670D01*
X22893709Y-41463670D01*
X22821854Y-41454210D01*
X22750001Y-41444750D01*
X22749999Y-41444750D01*
X22606291Y-41463670D01*
X22606287Y-41463671D01*
X22472377Y-41519137D01*
X22357379Y-41607379D01*
X22269137Y-41722377D01*
X22213671Y-41856287D01*
X22213670Y-41856291D01*
X22194750Y-42000000D01*
X16000000Y-42000000D01*
X16000000Y-40925321D01*
X50199500Y-40925321D01*
X50199500Y-42074678D01*
X50214032Y-42147735D01*
X50214033Y-42147739D01*
X50214034Y-42147740D01*
X50269399Y-42230601D01*
X50339772Y-42277622D01*
X50352260Y-42285966D01*
X50352264Y-42285967D01*
X50425321Y-42300499D01*
X50425324Y-42300500D01*
X50425326Y-42300500D01*
X51574676Y-42300500D01*
X51574677Y-42300499D01*
X51647740Y-42285966D01*
X51730601Y-42230601D01*
X51785966Y-42147740D01*
X51800500Y-42074674D01*
X51800500Y-40925326D01*
X51800500Y-40925323D01*
X51800499Y-40925321D01*
X51785967Y-40852264D01*
X51785966Y-40852260D01*
X51730601Y-40769399D01*
X51647740Y-40714034D01*
X51647739Y-40714033D01*
X51647735Y-40714032D01*
X51574677Y-40699500D01*
X51574674Y-40699500D01*
X50425326Y-40699500D01*
X50425323Y-40699500D01*
X50352264Y-40714032D01*
X50352260Y-40714033D01*
X50269399Y-40769399D01*
X50214033Y-40852260D01*
X50214032Y-40852264D01*
X50199500Y-40925321D01*
X16000000Y-40925321D01*
X16000000Y-38749999D01*
X22444750Y-38749999D01*
X22444750Y-38750000D01*
X22463670Y-38893708D01*
X22463671Y-38893712D01*
X22519137Y-39027622D01*
X22519138Y-39027624D01*
X22519139Y-39027625D01*
X22607379Y-39142621D01*
X22722375Y-39230861D01*
X22856291Y-39286330D01*
X22983280Y-39303048D01*
X22999999Y-39305250D01*
X23000000Y-39305250D01*
X23000001Y-39305250D01*
X23014977Y-39303278D01*
X23143709Y-39286330D01*
X23277625Y-39230861D01*
X23392621Y-39142621D01*
X23480861Y-39027625D01*
X23510440Y-38956213D01*
X23554279Y-38901813D01*
X23620573Y-38879747D01*
X23688272Y-38897026D01*
X23735883Y-38948162D01*
X23739549Y-38956189D01*
X23769139Y-39027625D01*
X23857379Y-39142621D01*
X23972375Y-39230861D01*
X24106291Y-39286330D01*
X24233280Y-39303048D01*
X24249999Y-39305250D01*
X24250000Y-39305250D01*
X24250001Y-39305250D01*
X24264977Y-39303278D01*
X24393709Y-39286330D01*
X24527625Y-39230861D01*
X24642621Y-39142621D01*
X24730861Y-39027625D01*
X24760440Y-38956213D01*
X24804279Y-38901813D01*
X24870573Y-38879747D01*
X24938272Y-38897026D01*
X24985883Y-38948162D01*
X24989549Y-38956189D01*
X25019139Y-39027625D01*
X25107379Y-39142621D01*
X25222375Y-39230861D01*
X25356291Y-39286330D01*
X25483280Y-39303048D01*
X25499999Y-39305250D01*
X25500000Y-39305250D01*
X25500001Y-39305250D01*
X25514977Y-39303278D01*
X25643709Y-39286330D01*
X25777625Y-39230861D01*
X25892621Y-39142621D01*
X25980861Y-39027625D01*
X26036330Y-38893709D01*
X26055250Y-38750000D01*
X26055250Y-38749999D01*
X28444750Y-38749999D01*
X28444750Y-38750000D01*
X28463670Y-38893708D01*
X28463671Y-38893712D01*
X28519137Y-39027622D01*
X28519138Y-39027624D01*
X28519139Y-39027625D01*
X28607379Y-39142621D01*
X28722375Y-39230861D01*
X28856291Y-39286330D01*
X28983280Y-39303048D01*
X28999999Y-39305250D01*
X29000000Y-39305250D01*
X29000001Y-39305250D01*
X29014977Y-39303278D01*
X29143709Y-39286330D01*
X29277625Y-39230861D01*
X29392621Y-39142621D01*
X29480861Y-39027625D01*
X29510440Y-38956213D01*
X29554279Y-38901813D01*
X29620573Y-38879747D01*
X29688272Y-38897026D01*
X29735883Y-38948162D01*
X29739549Y-38956189D01*
X29769139Y-39027625D01*
X29857379Y-39142621D01*
X29972375Y-39230861D01*
X30106291Y-39286330D01*
X30233280Y-39303048D01*
X30249999Y-39305250D01*
X30250000Y-39305250D01*
X30250001Y-39305250D01*
X30264977Y-39303278D01*
X30393709Y-39286330D01*
X30527625Y-39230861D01*
X30642621Y-39142621D01*
X30730861Y-39027625D01*
X30760440Y-38956213D01*
X30804279Y-38901813D01*
X30870573Y-38879747D01*
X30938272Y-38897026D01*
X30985883Y-38948162D01*
X30989549Y-38956189D01*
X31019139Y-39027625D01*
X31107379Y-39142621D01*
X31222375Y-39230861D01*
X31356291Y-39286330D01*
X31483280Y-39303048D01*
X31499999Y-39305250D01*
X31500000Y-39305250D01*
X31500001Y-39305250D01*
X31514977Y-39303278D01*
X31643709Y-39286330D01*
X31777625Y-39230861D01*
X31892621Y-39142621D01*
X31980861Y-39027625D01*
X32036330Y-38893709D01*
X32055250Y-38750000D01*
X32055250Y-38749999D01*
X34444750Y-38749999D01*
X34444750Y-38750000D01*
X34463670Y-38893708D01*
X34463671Y-38893712D01*
X34519137Y-39027622D01*
X34519138Y-39027624D01*
X34519139Y-39027625D01*
X34607379Y-39142621D01*
X34722375Y-39230861D01*
X34856291Y-39286330D01*
X34983280Y-39303048D01*
X34999999Y-39305250D01*
X35000000Y-39305250D01*
X35000001Y-39305250D01*
X35014977Y-39303278D01*
X35143709Y-39286330D01*
X35277625Y-39230861D01*
X35392621Y-39142621D01*
X35480861Y-39027625D01*
X35510440Y-38956213D01*
X35554279Y-38901813D01*
X35620573Y-38879747D01*
X35688272Y-38897026D01*
X35735883Y-38948162D01*
X35739549Y-38956189D01*
X35769139Y-39027625D01*
X35857379Y-39142621D01*
X35972375Y-39230861D01*
X36106291Y-39286330D01*
X36233280Y-39303048D01*
X36249999Y-39305250D01*
X36250000Y-39305250D01*
X36250001Y-39305250D01*
X36264977Y-39303278D01*
X36393709Y-39286330D01*
X36527625Y-39230861D01*
X36642621Y-39142621D01*
X36730861Y-39027625D01*
X36760440Y-38956213D01*
X36804279Y-38901813D01*
X36870573Y-38879747D01*
X36938272Y-38897026D01*
X36985883Y-38948162D01*
X36989549Y-38956189D01*
X37019139Y-39027625D01*
X37107379Y-39142621D01*
X37222375Y-39230861D01*
X37356291Y-39286330D01*
X37483280Y-39303048D01*
X37499999Y-39305250D01*
X37500000Y-39305250D01*
X37500001Y-39305250D01*
X37514977Y-39303278D01*
X37643709Y-39286330D01*
X37777625Y-39230861D01*
X37892621Y-39142621D01*
X37980861Y-39027625D01*
X38036330Y-38893709D01*
X38055250Y-38750000D01*
X38055250Y-38749999D01*
X40444750Y-38749999D01*
X40444750Y-38750000D01*
X40463670Y-38893708D01*
X40463671Y-38893712D01*
X40519137Y-39027622D01*
X40519138Y-39027624D01*
X40519139Y-39027625D01*
X40607379Y-39142621D01*
X40722375Y-39230861D01*
X40856291Y-39286330D01*
X40983280Y-39303048D01*
X40999999Y-39305250D01*
X41000000Y-39305250D01*
X41000001Y-39305250D01*
X41014977Y-39303278D01*
X41143709Y-39286330D01*
X41277625Y-39230861D01*
X41392621Y-39142621D01*
X41480861Y-39027625D01*
X41510440Y-38956213D01*
X41554279Y-38901813D01*
X41620573Y-38879747D01*
X41688272Y-38897026D01*
X41735883Y-38948162D01*
X41739549Y-38956189D01*
X41769139Y-39027625D01*
X41857379Y-39142621D01*
X41972375Y-39230861D01*
X42106291Y-39286330D01*
X42233280Y-39303048D01*
X42249999Y-39305250D01*
X42250000Y-39305250D01*
X42250001Y-39305250D01*
X42264977Y-39303278D01*
X42393709Y-39286330D01*
X42527625Y-39230861D01*
X42642621Y-39142621D01*
X42730861Y-39027625D01*
X42760440Y-38956213D01*
X42804279Y-38901813D01*
X42870573Y-38879747D01*
X42938272Y-38897026D01*
X42985883Y-38948162D01*
X42989549Y-38956189D01*
X43019139Y-39027625D01*
X43107379Y-39142621D01*
X43222375Y-39230861D01*
X43356291Y-39286330D01*
X43483280Y-39303048D01*
X43499999Y-39305250D01*
X43500000Y-39305250D01*
X43500001Y-39305250D01*
X43514977Y-39303278D01*
X43643709Y-39286330D01*
X43777625Y-39230861D01*
X43892621Y-39142621D01*
X43980861Y-39027625D01*
X44036330Y-38893709D01*
X44055250Y-38750000D01*
X44036330Y-38606291D01*
X43980861Y-38472375D01*
X43892621Y-38357379D01*
X43777625Y-38269139D01*
X43777624Y-38269138D01*
X43777622Y-38269137D01*
X43643712Y-38213671D01*
X43643710Y-38213670D01*
X43643709Y-38213670D01*
X43571854Y-38204210D01*
X43500001Y-38194750D01*
X43499999Y-38194750D01*
X43356291Y-38213670D01*
X43356287Y-38213671D01*
X43222377Y-38269137D01*
X43107379Y-38357379D01*
X43019137Y-38472377D01*
X42989561Y-38543783D01*
X42945721Y-38598187D01*
X42879427Y-38620252D01*
X42811727Y-38602973D01*
X42764116Y-38551836D01*
X42760439Y-38543783D01*
X42730862Y-38472377D01*
X42730861Y-38472376D01*
X42730861Y-38472375D01*
X42642621Y-38357379D01*
X42527625Y-38269139D01*
X42527624Y-38269138D01*
X42527622Y-38269137D01*
X42393712Y-38213671D01*
X42393710Y-38213670D01*
X42393709Y-38213670D01*
X42321854Y-38204210D01*
X42250001Y-38194750D01*
X42249999Y-38194750D01*
X42106291Y-38213670D01*
X42106287Y-38213671D01*
X41972377Y-38269137D01*
X41857379Y-38357379D01*
X41769137Y-38472377D01*
X41739561Y-38543783D01*
X41695721Y-38598187D01*
X41629427Y-38620252D01*
X41561727Y-38602973D01*
X41514116Y-38551836D01*
X41510439Y-38543783D01*
X41480862Y-38472377D01*
X41480861Y-38472376D01*
X41480861Y-38472375D01*
X41392621Y-38357379D01*
X41277625Y-38269139D01*
X41277624Y-38269138D01*
X41277622Y-38269137D01*
X41143712Y-38213671D01*
X41143710Y-38213670D01*
X41143709Y-38213670D01*
X41071854Y-38204210D01*
X41000001Y-38194750D01*
X40999999Y-38194750D01*
X40856291Y-38213670D01*
X40856287Y-38213671D01*
X40722377Y-38269137D01*
X40607379Y-38357379D01*
X40519137Y-38472377D01*
X40463671Y-38606287D01*
X40463670Y-38606291D01*
X40444750Y-38749999D01*
X38055250Y-38749999D01*
X38036330Y-38606291D01*
X37980861Y-38472375D01*
X37892621Y-38357379D01*
X37777625Y-38269139D01*
X37777624Y-38269138D01*
X37777622Y-38269137D01*
X37643712Y-38213671D01*
X37643710Y-38213670D01*
X37643709Y-38213670D01*
X37571854Y-38204210D01*
X37500001Y-38194750D01*
X37499999Y-38194750D01*
X37356291Y-38213670D01*
X37356287Y-38213671D01*
X37222377Y-38269137D01*
X37107379Y-38357379D01*
X37019137Y-38472377D01*
X36989561Y-38543783D01*
X36945721Y-38598187D01*
X36879427Y-38620252D01*
X36811727Y-38602973D01*
X36764116Y-38551836D01*
X36760439Y-38543783D01*
X36730862Y-38472377D01*
X36730861Y-38472376D01*
X36730861Y-38472375D01*
X36642621Y-38357379D01*
X36527625Y-38269139D01*
X36527624Y-38269138D01*
X36527622Y-38269137D01*
X36393712Y-38213671D01*
X36393710Y-38213670D01*
X36393709Y-38213670D01*
X36321854Y-38204210D01*
X36250001Y-38194750D01*
X36249999Y-38194750D01*
X36106291Y-38213670D01*
X36106287Y-38213671D01*
X35972377Y-38269137D01*
X35857379Y-38357379D01*
X35769137Y-38472377D01*
X35739561Y-38543783D01*
X35695721Y-38598187D01*
X35629427Y-38620252D01*
X35561727Y-38602973D01*
X35514116Y-38551836D01*
X35510439Y-38543783D01*
X35480862Y-38472377D01*
X35480861Y-38472376D01*
X35480861Y-38472375D01*
X35392621Y-38357379D01*
X35277625Y-38269139D01*
X35277624Y-38269138D01*
X35277622Y-38269137D01*
X35143712Y-38213671D01*
X35143710Y-38213670D01*
X35143709Y-38213670D01*
X35071854Y-38204210D01*
X35000001Y-38194750D01*
X34999999Y-38194750D01*
X34856291Y-38213670D01*
X34856287Y-38213671D01*
X34722377Y-38269137D01*
X34607379Y-38357379D01*
X34519137Y-38472377D01*
X34463671Y-38606287D01*
X34463670Y-38606291D01*
X34444750Y-38749999D01*
X32055250Y-38749999D01*
X32036330Y-38606291D01*
X31980861Y-38472375D01*
X31892621Y-38357379D01*
X31777625Y-38269139D01*
X31777624Y-38269138D01*
X31777622Y-38269137D01*
X31643712Y-38213671D01*
X31643710Y-38213670D01*
X31643709Y-38213670D01*
X31571854Y-38204210D01*
X31500001Y-38194750D01*
X31499999Y-38194750D01*
X31356291Y-38213670D01*
X31356287Y-38213671D01*
X31222377Y-38269137D01*
X31107379Y-38357379D01*
X31019137Y-38472377D01*
X30989561Y-38543783D01*
X30945721Y-38598187D01*
X30879427Y-38620252D01*
X30811727Y-38602973D01*
X30764116Y-38551836D01*
X30760439Y-38543783D01*
X30730862Y-38472377D01*
X30730861Y-38472376D01*
X30730861Y-38472375D01*
X30642621Y-38357379D01*
X30527625Y-38269139D01*
X30527624Y-38269138D01*
X30527622Y-38269137D01*
X30393712Y-38213671D01*
X30393710Y-38213670D01*
X30393709Y-38213670D01*
X30321854Y-38204210D01*
X30250001Y-38194750D01*
X30249999Y-38194750D01*
X30106291Y-38213670D01*
X30106287Y-38213671D01*
X29972377Y-38269137D01*
X29857379Y-38357379D01*
X29769137Y-38472377D01*
X29739561Y-38543783D01*
X29695721Y-38598187D01*
X29629427Y-38620252D01*
X29561727Y-38602973D01*
X29514116Y-38551836D01*
X29510439Y-38543783D01*
X29480862Y-38472377D01*
X29480861Y-38472376D01*
X29480861Y-38472375D01*
X29392621Y-38357379D01*
X29277625Y-38269139D01*
X29277624Y-38269138D01*
X29277622Y-38269137D01*
X29143712Y-38213671D01*
X29143710Y-38213670D01*
X29143709Y-38213670D01*
X29071854Y-38204210D01*
X29000001Y-38194750D01*
X28999999Y-38194750D01*
X28856291Y-38213670D01*
X28856287Y-38213671D01*
X28722377Y-38269137D01*
X28607379Y-38357379D01*
X28519137Y-38472377D01*
X28463671Y-38606287D01*
X28463670Y-38606291D01*
X28444750Y-38749999D01*
X26055250Y-38749999D01*
X26036330Y-38606291D01*
X25980861Y-38472375D01*
X25892621Y-38357379D01*
X25777625Y-38269139D01*
X25777624Y-38269138D01*
X25777622Y-38269137D01*
X25643712Y-38213671D01*
X25643710Y-38213670D01*
X25643709Y-38213670D01*
X25571854Y-38204210D01*
X25500001Y-38194750D01*
X25499999Y-38194750D01*
X25356291Y-38213670D01*
X25356287Y-38213671D01*
X25222377Y-38269137D01*
X25107379Y-38357379D01*
X25019137Y-38472377D01*
X24989561Y-38543783D01*
X24945721Y-38598187D01*
X24879427Y-38620252D01*
X24811727Y-38602973D01*
X24764116Y-38551836D01*
X24760439Y-38543783D01*
X24730862Y-38472377D01*
X24730861Y-38472376D01*
X24730861Y-38472375D01*
X24642621Y-38357379D01*
X24527625Y-38269139D01*
X24527624Y-38269138D01*
X24527622Y-38269137D01*
X24393712Y-38213671D01*
X24393710Y-38213670D01*
X24393709Y-38213670D01*
X24321854Y-38204210D01*
X24250001Y-38194750D01*
X24249999Y-38194750D01*
X24106291Y-38213670D01*
X24106287Y-38213671D01*
X23972377Y-38269137D01*
X23857379Y-38357379D01*
X23769137Y-38472377D01*
X23739561Y-38543783D01*
X23695721Y-38598187D01*
X23629427Y-38620252D01*
X23561727Y-38602973D01*
X23514116Y-38551836D01*
X23510439Y-38543783D01*
X23480862Y-38472377D01*
X23480861Y-38472376D01*
X23480861Y-38472375D01*
X23392621Y-38357379D01*
X23277625Y-38269139D01*
X23277624Y-38269138D01*
X23277622Y-38269137D01*
X23143712Y-38213671D01*
X23143710Y-38213670D01*
X23143709Y-38213670D01*
X23071854Y-38204210D01*
X23000001Y-38194750D01*
X22999999Y-38194750D01*
X22856291Y-38213670D01*
X22856287Y-38213671D01*
X22722377Y-38269137D01*
X22607379Y-38357379D01*
X22519137Y-38472377D01*
X22463671Y-38606287D01*
X22463670Y-38606291D01*
X22444750Y-38749999D01*
X16000000Y-38749999D01*
X16000000Y-34999999D01*
X46444750Y-34999999D01*
X46444750Y-35000000D01*
X46463670Y-35143708D01*
X46463671Y-35143712D01*
X46519137Y-35277622D01*
X46519138Y-35277624D01*
X46519139Y-35277625D01*
X46607379Y-35392621D01*
X46722375Y-35480861D01*
X46856291Y-35536330D01*
X46983280Y-35553048D01*
X46999999Y-35555250D01*
X47000000Y-35555250D01*
X47000001Y-35555250D01*
X47014977Y-35553278D01*
X47143709Y-35536330D01*
X47277625Y-35480861D01*
X47392621Y-35392621D01*
X47480861Y-35277625D01*
X47536330Y-35143709D01*
X47555250Y-35000000D01*
X47536330Y-34856291D01*
X47480861Y-34722375D01*
X47392621Y-34607379D01*
X47277625Y-34519139D01*
X47277624Y-34519138D01*
X47277622Y-34519137D01*
X47231418Y-34499999D01*
X63194750Y-34499999D01*
X63194750Y-34500000D01*
X63213670Y-34643708D01*
X63213671Y-34643712D01*
X63269137Y-34777622D01*
X63269138Y-34777624D01*
X63269139Y-34777625D01*
X63357379Y-34892621D01*
X63472375Y-34980861D01*
X63472376Y-34980861D01*
X63472377Y-34980862D01*
X63543783Y-35010439D01*
X63598187Y-35054279D01*
X63620252Y-35120573D01*
X63602973Y-35188273D01*
X63551836Y-35235884D01*
X63543783Y-35239561D01*
X63472377Y-35269137D01*
X63357379Y-35357379D01*
X63269137Y-35472377D01*
X63213671Y-35606287D01*
X63213670Y-35606291D01*
X63194750Y-35749999D01*
X63194750Y-35750000D01*
X63213670Y-35893708D01*
X63213671Y-35893712D01*
X63269137Y-36027622D01*
X63269138Y-36027624D01*
X63269139Y-36027625D01*
X63357379Y-36142621D01*
X63472375Y-36230861D01*
X63472376Y-36230861D01*
X63472377Y-36230862D01*
X63543783Y-36260439D01*
X63598187Y-36304279D01*
X63620252Y-36370573D01*
X63602973Y-36438273D01*
X63551836Y-36485884D01*
X63543783Y-36489561D01*
X63472377Y-36519137D01*
X63357379Y-36607379D01*
X63269137Y-36722377D01*
X63213671Y-36856287D01*
X63213670Y-36856291D01*
X63194750Y-36999999D01*
X63194750Y-37000000D01*
X63213670Y-37143708D01*
X63213671Y-37143712D01*
X63269137Y-37277622D01*
X63269138Y-37277624D01*
X63269139Y-37277625D01*
X63357379Y-37392621D01*
X63472375Y-37480861D01*
X63472376Y-37480861D01*
X63472377Y-37480862D01*
X63543783Y-37510439D01*
X63598187Y-37554279D01*
X63620252Y-37620573D01*
X63602973Y-37688273D01*
X63551836Y-37735884D01*
X63543783Y-37739561D01*
X63472377Y-37769137D01*
X63357379Y-37857379D01*
X63269137Y-37972377D01*
X63213671Y-38106287D01*
X63213670Y-38106291D01*
X63194750Y-38249999D01*
X63194750Y-38250000D01*
X63213670Y-38393708D01*
X63213671Y-38393712D01*
X63269137Y-38527622D01*
X63269138Y-38527624D01*
X63269139Y-38527625D01*
X63357379Y-38642621D01*
X63472375Y-38730861D01*
X63606291Y-38786330D01*
X63733280Y-38803048D01*
X63749999Y-38805250D01*
X63750000Y-38805250D01*
X63750001Y-38805250D01*
X63764977Y-38803278D01*
X63893709Y-38786330D01*
X64027625Y-38730861D01*
X64142621Y-38642621D01*
X64230861Y-38527625D01*
X64286330Y-38393709D01*
X64305250Y-38250000D01*
X64286330Y-38106291D01*
X64230861Y-37972375D01*
X64142621Y-37857379D01*
X64027625Y-37769139D01*
X63956213Y-37739559D01*
X63901813Y-37695721D01*
X63879747Y-37629427D01*
X63897026Y-37561728D01*
X63948162Y-37514117D01*
X63956189Y-37510450D01*
X64027625Y-37480861D01*
X64142621Y-37392621D01*
X64230861Y-37277625D01*
X64286330Y-37143709D01*
X64305250Y-37000000D01*
X64286330Y-36856291D01*
X64230861Y-36722375D01*
X64142621Y-36607379D01*
X64027625Y-36519139D01*
X63956213Y-36489559D01*
X63901813Y-36445721D01*
X63879747Y-36379427D01*
X63897026Y-36311728D01*
X63948162Y-36264117D01*
X63956189Y-36260450D01*
X64027625Y-36230861D01*
X64142621Y-36142621D01*
X64230861Y-36027625D01*
X64286330Y-35893709D01*
X64305250Y-35750000D01*
X64286330Y-35606291D01*
X64249350Y-35517013D01*
X64230862Y-35472377D01*
X64230861Y-35472376D01*
X64230861Y-35472375D01*
X64142621Y-35357379D01*
X64027625Y-35269139D01*
X63956213Y-35239559D01*
X63901813Y-35195721D01*
X63879747Y-35129427D01*
X63897026Y-35061728D01*
X63948162Y-35014117D01*
X63956189Y-35010450D01*
X64027625Y-34980861D01*
X64142621Y-34892621D01*
X64230861Y-34777625D01*
X64286330Y-34643709D01*
X64305250Y-34500000D01*
X64286330Y-34356291D01*
X64249350Y-34267013D01*
X64230862Y-34222377D01*
X64230861Y-34222376D01*
X64230861Y-34222375D01*
X64142621Y-34107379D01*
X64027625Y-34019139D01*
X64027624Y-34019138D01*
X64027622Y-34019137D01*
X63893712Y-33963671D01*
X63893710Y-33963670D01*
X63893709Y-33963670D01*
X63821854Y-33954210D01*
X63750001Y-33944750D01*
X63749999Y-33944750D01*
X63606291Y-33963670D01*
X63606287Y-33963671D01*
X63472377Y-34019137D01*
X63357379Y-34107379D01*
X63269137Y-34222377D01*
X63213671Y-34356287D01*
X63213670Y-34356291D01*
X63194750Y-34499999D01*
X47231418Y-34499999D01*
X47143712Y-34463671D01*
X47143710Y-34463670D01*
X47143709Y-34463670D01*
X47071854Y-34454210D01*
X47000001Y-34444750D01*
X46999999Y-34444750D01*
X46856291Y-34463670D01*
X46856287Y-34463671D01*
X46722377Y-34519137D01*
X46607379Y-34607379D01*
X46519137Y-34722377D01*
X46463671Y-34856287D01*
X46463670Y-34856291D01*
X46444750Y-34999999D01*
X16000000Y-34999999D01*
X16000000Y-32999999D01*
X56944750Y-32999999D01*
X56944750Y-33000000D01*
X56963670Y-33143708D01*
X56963671Y-33143712D01*
X57019138Y-33277624D01*
X57035935Y-33299515D01*
X57061128Y-33364685D01*
X57047089Y-33433129D01*
X57035935Y-33450485D01*
X57019138Y-33472375D01*
X56963671Y-33606287D01*
X56963670Y-33606291D01*
X56944750Y-33749999D01*
X56944750Y-33750000D01*
X56963670Y-33893708D01*
X56963671Y-33893712D01*
X57019137Y-34027622D01*
X57019138Y-34027624D01*
X57019139Y-34027625D01*
X57107379Y-34142621D01*
X57222375Y-34230861D01*
X57356291Y-34286330D01*
X57483280Y-34303048D01*
X57499999Y-34305250D01*
X57500000Y-34305250D01*
X57500001Y-34305250D01*
X57514977Y-34303278D01*
X57643709Y-34286330D01*
X57777625Y-34230861D01*
X57892621Y-34142621D01*
X57980861Y-34027625D01*
X58036330Y-33893709D01*
X58055250Y-33750000D01*
X58036330Y-33606291D01*
X57980861Y-33472375D01*
X57964065Y-33450486D01*
X57938871Y-33385317D01*
X57952909Y-33316872D01*
X57964065Y-33299514D01*
X57966135Y-33296815D01*
X57980861Y-33277625D01*
X58036330Y-33143709D01*
X58055250Y-33000000D01*
X58036330Y-32856291D01*
X57980861Y-32722375D01*
X57892621Y-32607379D01*
X57777625Y-32519139D01*
X57777624Y-32519138D01*
X57777622Y-32519137D01*
X57643712Y-32463671D01*
X57643710Y-32463670D01*
X57643709Y-32463670D01*
X57571854Y-32454210D01*
X57500001Y-32444750D01*
X57499999Y-32444750D01*
X57356291Y-32463670D01*
X57356287Y-32463671D01*
X57222377Y-32519137D01*
X57107379Y-32607379D01*
X57019137Y-32722377D01*
X56963671Y-32856287D01*
X56963670Y-32856291D01*
X56944750Y-32999999D01*
X16000000Y-32999999D01*
X16000000Y-30249999D01*
X20694750Y-30249999D01*
X20694750Y-30250000D01*
X20713670Y-30393708D01*
X20713671Y-30393712D01*
X20769137Y-30527622D01*
X20769138Y-30527624D01*
X20769139Y-30527625D01*
X20857379Y-30642621D01*
X20972375Y-30730861D01*
X21106291Y-30786330D01*
X21106306Y-30786332D01*
X21113865Y-30788358D01*
X21173526Y-30824722D01*
X21204057Y-30887568D01*
X21204713Y-30924319D01*
X21194750Y-30999997D01*
X21194750Y-31000000D01*
X21213670Y-31143708D01*
X21213671Y-31143712D01*
X21269137Y-31277622D01*
X21269138Y-31277624D01*
X21269139Y-31277625D01*
X21357379Y-31392621D01*
X21472375Y-31480861D01*
X21606291Y-31536330D01*
X21733280Y-31553048D01*
X21749999Y-31555250D01*
X21750000Y-31555250D01*
X21750001Y-31555250D01*
X21764977Y-31553278D01*
X21893709Y-31536330D01*
X22027625Y-31480861D01*
X22142621Y-31392621D01*
X22151625Y-31380886D01*
X22208050Y-31339685D01*
X22277796Y-31335529D01*
X22338717Y-31369740D01*
X22348367Y-31380876D01*
X22357379Y-31392621D01*
X22472375Y-31480861D01*
X22606291Y-31536330D01*
X22733280Y-31553048D01*
X22749999Y-31555250D01*
X22750000Y-31555250D01*
X22750001Y-31555250D01*
X22764977Y-31553278D01*
X22893709Y-31536330D01*
X23027625Y-31480861D01*
X23142621Y-31392621D01*
X23151625Y-31380886D01*
X23208050Y-31339685D01*
X23277796Y-31335529D01*
X23338717Y-31369740D01*
X23348367Y-31380876D01*
X23357379Y-31392621D01*
X23472375Y-31480861D01*
X23606291Y-31536330D01*
X23733280Y-31553048D01*
X23749999Y-31555250D01*
X23750000Y-31555250D01*
X23750001Y-31555250D01*
X23764977Y-31553278D01*
X23893709Y-31536330D01*
X24027625Y-31480861D01*
X24142621Y-31392621D01*
X24151625Y-31380886D01*
X24208050Y-31339685D01*
X24277796Y-31335529D01*
X24338717Y-31369740D01*
X24348367Y-31380876D01*
X24357379Y-31392621D01*
X24472375Y-31480861D01*
X24606291Y-31536330D01*
X24733280Y-31553048D01*
X24749999Y-31555250D01*
X24750000Y-31555250D01*
X24750001Y-31555250D01*
X24764977Y-31553278D01*
X24893709Y-31536330D01*
X25027625Y-31480861D01*
X25142621Y-31392621D01*
X25151625Y-31380886D01*
X25208050Y-31339685D01*
X25277796Y-31335529D01*
X25338717Y-31369740D01*
X25348367Y-31380876D01*
X25357379Y-31392621D01*
X25472375Y-31480861D01*
X25606291Y-31536330D01*
X25733280Y-31553048D01*
X25749999Y-31555250D01*
X25750000Y-31555250D01*
X25750001Y-31555250D01*
X25764977Y-31553278D01*
X25893709Y-31536330D01*
X26027625Y-31480861D01*
X26142621Y-31392621D01*
X26230861Y-31277625D01*
X26286330Y-31143709D01*
X26305250Y-31000000D01*
X26286330Y-30856291D01*
X26249350Y-30767013D01*
X26230862Y-30722377D01*
X26230861Y-30722376D01*
X26230861Y-30722375D01*
X26142621Y-30607379D01*
X26027625Y-30519139D01*
X26027624Y-30519138D01*
X26027622Y-30519137D01*
X25893713Y-30463671D01*
X25886131Y-30461640D01*
X25826471Y-30425274D01*
X25795942Y-30362427D01*
X25795286Y-30325679D01*
X25805250Y-30250000D01*
X25805250Y-30249999D01*
X26694750Y-30249999D01*
X26694750Y-30250000D01*
X26713670Y-30393708D01*
X26713671Y-30393712D01*
X26769137Y-30527622D01*
X26769138Y-30527624D01*
X26769139Y-30527625D01*
X26857379Y-30642621D01*
X26972375Y-30730861D01*
X27106291Y-30786330D01*
X27106306Y-30786332D01*
X27113865Y-30788358D01*
X27173526Y-30824722D01*
X27204057Y-30887568D01*
X27204713Y-30924319D01*
X27194750Y-30999997D01*
X27194750Y-31000000D01*
X27213670Y-31143708D01*
X27213671Y-31143712D01*
X27269137Y-31277622D01*
X27269138Y-31277624D01*
X27269139Y-31277625D01*
X27357379Y-31392621D01*
X27472375Y-31480861D01*
X27606291Y-31536330D01*
X27733280Y-31553048D01*
X27749999Y-31555250D01*
X27750000Y-31555250D01*
X27750001Y-31555250D01*
X27764977Y-31553278D01*
X27893709Y-31536330D01*
X28027625Y-31480861D01*
X28142621Y-31392621D01*
X28151625Y-31380886D01*
X28208050Y-31339685D01*
X28277796Y-31335529D01*
X28338717Y-31369740D01*
X28348367Y-31380876D01*
X28357379Y-31392621D01*
X28472375Y-31480861D01*
X28606291Y-31536330D01*
X28733280Y-31553048D01*
X28749999Y-31555250D01*
X28750000Y-31555250D01*
X28750001Y-31555250D01*
X28764977Y-31553278D01*
X28893709Y-31536330D01*
X29027625Y-31480861D01*
X29142621Y-31392621D01*
X29151625Y-31380886D01*
X29208050Y-31339685D01*
X29277796Y-31335529D01*
X29338717Y-31369740D01*
X29348367Y-31380876D01*
X29357379Y-31392621D01*
X29472375Y-31480861D01*
X29606291Y-31536330D01*
X29733280Y-31553048D01*
X29749999Y-31555250D01*
X29750000Y-31555250D01*
X29750001Y-31555250D01*
X29764977Y-31553278D01*
X29893709Y-31536330D01*
X30027625Y-31480861D01*
X30142621Y-31392621D01*
X30151625Y-31380886D01*
X30208050Y-31339685D01*
X30277796Y-31335529D01*
X30338717Y-31369740D01*
X30348367Y-31380876D01*
X30357379Y-31392621D01*
X30472375Y-31480861D01*
X30606291Y-31536330D01*
X30733280Y-31553048D01*
X30749999Y-31555250D01*
X30750000Y-31555250D01*
X30750001Y-31555250D01*
X30764977Y-31553278D01*
X30893709Y-31536330D01*
X31027625Y-31480861D01*
X31142621Y-31392621D01*
X31151625Y-31380886D01*
X31208050Y-31339685D01*
X31277796Y-31335529D01*
X31338717Y-31369740D01*
X31348367Y-31380876D01*
X31357379Y-31392621D01*
X31472375Y-31480861D01*
X31606291Y-31536330D01*
X31733280Y-31553048D01*
X31749999Y-31555250D01*
X31750000Y-31555250D01*
X31750001Y-31555250D01*
X31764977Y-31553278D01*
X31893709Y-31536330D01*
X32027625Y-31480861D01*
X32142621Y-31392621D01*
X32230861Y-31277625D01*
X32286330Y-31143709D01*
X32305250Y-31000000D01*
X32286330Y-30856291D01*
X32249350Y-30767013D01*
X32230862Y-30722377D01*
X32230861Y-30722376D01*
X32230861Y-30722375D01*
X32142621Y-30607379D01*
X32027625Y-30519139D01*
X32027624Y-30519138D01*
X32027622Y-30519137D01*
X31893713Y-30463671D01*
X31886131Y-30461640D01*
X31826471Y-30425274D01*
X31795942Y-30362427D01*
X31795286Y-30325679D01*
X31805250Y-30250000D01*
X31805250Y-30249999D01*
X32694750Y-30249999D01*
X32694750Y-30250000D01*
X32713670Y-30393708D01*
X32713671Y-30393712D01*
X32769137Y-30527622D01*
X32769138Y-30527624D01*
X32769139Y-30527625D01*
X32857379Y-30642621D01*
X32972375Y-30730861D01*
X33106291Y-30786330D01*
X33106306Y-30786332D01*
X33113865Y-30788358D01*
X33173526Y-30824722D01*
X33204057Y-30887568D01*
X33204713Y-30924319D01*
X33194750Y-30999997D01*
X33194750Y-31000000D01*
X33213670Y-31143708D01*
X33213671Y-31143712D01*
X33269137Y-31277622D01*
X33269138Y-31277624D01*
X33269139Y-31277625D01*
X33357379Y-31392621D01*
X33472375Y-31480861D01*
X33606291Y-31536330D01*
X33733280Y-31553048D01*
X33749999Y-31555250D01*
X33750000Y-31555250D01*
X33750001Y-31555250D01*
X33764977Y-31553278D01*
X33893709Y-31536330D01*
X34027625Y-31480861D01*
X34142621Y-31392621D01*
X34151625Y-31380886D01*
X34208050Y-31339685D01*
X34277796Y-31335529D01*
X34338717Y-31369740D01*
X34348367Y-31380876D01*
X34357379Y-31392621D01*
X34472375Y-31480861D01*
X34606291Y-31536330D01*
X34733280Y-31553048D01*
X34749999Y-31555250D01*
X34750000Y-31555250D01*
X34750001Y-31555250D01*
X34764977Y-31553278D01*
X34893709Y-31536330D01*
X35027625Y-31480861D01*
X35142621Y-31392621D01*
X35151625Y-31380886D01*
X35208050Y-31339685D01*
X35277796Y-31335529D01*
X35338717Y-31369740D01*
X35348367Y-31380876D01*
X35357379Y-31392621D01*
X35472375Y-31480861D01*
X35606291Y-31536330D01*
X35733280Y-31553048D01*
X35749999Y-31555250D01*
X35750000Y-31555250D01*
X35750001Y-31555250D01*
X35764977Y-31553278D01*
X35893709Y-31536330D01*
X36027625Y-31480861D01*
X36142621Y-31392621D01*
X36151625Y-31380886D01*
X36208050Y-31339685D01*
X36277796Y-31335529D01*
X36338717Y-31369740D01*
X36348367Y-31380876D01*
X36357379Y-31392621D01*
X36472375Y-31480861D01*
X36606291Y-31536330D01*
X36733280Y-31553048D01*
X36749999Y-31555250D01*
X36750000Y-31555250D01*
X36750001Y-31555250D01*
X36764977Y-31553278D01*
X36893709Y-31536330D01*
X37027625Y-31480861D01*
X37142621Y-31392621D01*
X37151625Y-31380886D01*
X37208050Y-31339685D01*
X37277796Y-31335529D01*
X37338717Y-31369740D01*
X37348367Y-31380876D01*
X37357379Y-31392621D01*
X37472375Y-31480861D01*
X37606291Y-31536330D01*
X37733280Y-31553048D01*
X37749999Y-31555250D01*
X37750000Y-31555250D01*
X37750001Y-31555250D01*
X37764977Y-31553278D01*
X37893709Y-31536330D01*
X38027625Y-31480861D01*
X38142621Y-31392621D01*
X38230861Y-31277625D01*
X38286330Y-31143709D01*
X38305250Y-31000000D01*
X38286330Y-30856291D01*
X38249350Y-30767013D01*
X38230862Y-30722377D01*
X38230861Y-30722376D01*
X38230861Y-30722375D01*
X38142621Y-30607379D01*
X38027625Y-30519139D01*
X38027624Y-30519138D01*
X38027622Y-30519137D01*
X37893713Y-30463671D01*
X37886131Y-30461640D01*
X37826471Y-30425274D01*
X37795942Y-30362427D01*
X37795286Y-30325679D01*
X37805250Y-30250000D01*
X37805250Y-30249999D01*
X38694750Y-30249999D01*
X38694750Y-30250000D01*
X38713670Y-30393708D01*
X38713671Y-30393712D01*
X38769137Y-30527622D01*
X38769138Y-30527624D01*
X38769139Y-30527625D01*
X38857379Y-30642621D01*
X38972375Y-30730861D01*
X39106291Y-30786330D01*
X39106306Y-30786332D01*
X39113865Y-30788358D01*
X39173526Y-30824722D01*
X39204057Y-30887568D01*
X39204713Y-30924319D01*
X39194750Y-30999997D01*
X39194750Y-31000000D01*
X39213670Y-31143708D01*
X39213671Y-31143712D01*
X39269137Y-31277622D01*
X39269138Y-31277624D01*
X39269139Y-31277625D01*
X39357379Y-31392621D01*
X39472375Y-31480861D01*
X39606291Y-31536330D01*
X39733280Y-31553048D01*
X39749999Y-31555250D01*
X39750000Y-31555250D01*
X39750001Y-31555250D01*
X39764977Y-31553278D01*
X39893709Y-31536330D01*
X40027625Y-31480861D01*
X40142621Y-31392621D01*
X40151625Y-31380886D01*
X40208050Y-31339685D01*
X40277796Y-31335529D01*
X40338717Y-31369740D01*
X40348367Y-31380876D01*
X40357379Y-31392621D01*
X40472375Y-31480861D01*
X40606291Y-31536330D01*
X40733280Y-31553048D01*
X40749999Y-31555250D01*
X40750000Y-31555250D01*
X40750001Y-31555250D01*
X40764977Y-31553278D01*
X40893709Y-31536330D01*
X41027625Y-31480861D01*
X41142621Y-31392621D01*
X41151625Y-31380886D01*
X41208050Y-31339685D01*
X41277796Y-31335529D01*
X41338717Y-31369740D01*
X41348367Y-31380876D01*
X41357379Y-31392621D01*
X41472375Y-31480861D01*
X41606291Y-31536330D01*
X41733280Y-31553048D01*
X41749999Y-31555250D01*
X41750000Y-31555250D01*
X41750001Y-31555250D01*
X41764977Y-31553278D01*
X41893709Y-31536330D01*
X42027625Y-31480861D01*
X42142621Y-31392621D01*
X42151625Y-31380886D01*
X42208050Y-31339685D01*
X42277796Y-31335529D01*
X42338717Y-31369740D01*
X42348367Y-31380876D01*
X42357379Y-31392621D01*
X42472375Y-31480861D01*
X42606291Y-31536330D01*
X42733280Y-31553048D01*
X42749999Y-31555250D01*
X42750000Y-31555250D01*
X42750001Y-31555250D01*
X42764977Y-31553278D01*
X42893709Y-31536330D01*
X43027625Y-31480861D01*
X43142621Y-31392621D01*
X43151625Y-31380886D01*
X43208050Y-31339685D01*
X43277796Y-31335529D01*
X43338717Y-31369740D01*
X43348367Y-31380876D01*
X43357379Y-31392621D01*
X43472375Y-31480861D01*
X43606291Y-31536330D01*
X43733280Y-31553048D01*
X43749999Y-31555250D01*
X43750000Y-31555250D01*
X43750001Y-31555250D01*
X43764977Y-31553278D01*
X43893709Y-31536330D01*
X44027625Y-31480861D01*
X44142621Y-31392621D01*
X44230861Y-31277625D01*
X44286330Y-31143709D01*
X44305250Y-31000000D01*
X44286330Y-30856291D01*
X44249350Y-30767013D01*
X44230862Y-30722377D01*
X44230861Y-30722376D01*
X44230861Y-30722375D01*
X44142621Y-30607379D01*
X44027625Y-30519139D01*
X44027624Y-30519138D01*
X44027622Y-30519137D01*
X43893713Y-30463671D01*
X43886131Y-30461640D01*
X43826471Y-30425274D01*
X43795942Y-30362427D01*
X43795286Y-30325679D01*
X43805250Y-30250000D01*
X43805250Y-30249999D01*
X43803048Y-30233280D01*
X43786330Y-30106291D01*
X43730861Y-29972375D01*
X43642621Y-29857379D01*
X43527625Y-29769139D01*
X43527624Y-29769138D01*
X43527622Y-29769137D01*
X43393712Y-29713671D01*
X43393710Y-29713670D01*
X43393709Y-29713670D01*
X43321854Y-29704210D01*
X43250001Y-29694750D01*
X43249999Y-29694750D01*
X43106291Y-29713670D01*
X43106287Y-29713671D01*
X42972377Y-29769137D01*
X42914877Y-29813259D01*
X42857379Y-29857379D01*
X42857378Y-29857380D01*
X42857377Y-29857381D01*
X42848375Y-29869113D01*
X42791947Y-29910316D01*
X42722201Y-29914470D01*
X42661281Y-29880257D01*
X42651625Y-29869113D01*
X42649782Y-29866711D01*
X42642621Y-29857379D01*
X42527625Y-29769139D01*
X42527624Y-29769138D01*
X42527622Y-29769137D01*
X42393712Y-29713671D01*
X42393710Y-29713670D01*
X42393709Y-29713670D01*
X42321854Y-29704210D01*
X42250001Y-29694750D01*
X42249999Y-29694750D01*
X42106291Y-29713670D01*
X42106287Y-29713671D01*
X41972377Y-29769137D01*
X41914877Y-29813259D01*
X41857379Y-29857379D01*
X41857378Y-29857380D01*
X41857377Y-29857381D01*
X41848375Y-29869113D01*
X41791947Y-29910316D01*
X41722201Y-29914470D01*
X41661281Y-29880257D01*
X41651625Y-29869113D01*
X41649782Y-29866711D01*
X41642621Y-29857379D01*
X41527625Y-29769139D01*
X41527624Y-29769138D01*
X41527622Y-29769137D01*
X41393712Y-29713671D01*
X41393710Y-29713670D01*
X41393709Y-29713670D01*
X41321854Y-29704210D01*
X41250001Y-29694750D01*
X41249999Y-29694750D01*
X41106291Y-29713670D01*
X41106287Y-29713671D01*
X40972377Y-29769137D01*
X40914877Y-29813259D01*
X40857379Y-29857379D01*
X40857378Y-29857380D01*
X40857377Y-29857381D01*
X40848375Y-29869113D01*
X40791947Y-29910316D01*
X40722201Y-29914470D01*
X40661281Y-29880257D01*
X40651625Y-29869113D01*
X40649782Y-29866711D01*
X40642621Y-29857379D01*
X40527625Y-29769139D01*
X40527624Y-29769138D01*
X40527622Y-29769137D01*
X40393712Y-29713671D01*
X40393710Y-29713670D01*
X40393709Y-29713670D01*
X40321854Y-29704210D01*
X40250001Y-29694750D01*
X40249999Y-29694750D01*
X40106291Y-29713670D01*
X40106287Y-29713671D01*
X39972377Y-29769137D01*
X39914877Y-29813259D01*
X39857379Y-29857379D01*
X39857378Y-29857380D01*
X39857377Y-29857381D01*
X39848375Y-29869113D01*
X39791947Y-29910316D01*
X39722201Y-29914470D01*
X39661281Y-29880257D01*
X39651625Y-29869113D01*
X39649782Y-29866711D01*
X39642621Y-29857379D01*
X39527625Y-29769139D01*
X39527624Y-29769138D01*
X39527622Y-29769137D01*
X39393712Y-29713671D01*
X39393710Y-29713670D01*
X39393709Y-29713670D01*
X39321854Y-29704210D01*
X39250001Y-29694750D01*
X39249999Y-29694750D01*
X39106291Y-29713670D01*
X39106287Y-29713671D01*
X38972377Y-29769137D01*
X38857379Y-29857379D01*
X38769137Y-29972377D01*
X38713671Y-30106287D01*
X38713670Y-30106291D01*
X38694750Y-30249999D01*
X37805250Y-30249999D01*
X37803048Y-30233280D01*
X37786330Y-30106291D01*
X37730861Y-29972375D01*
X37642621Y-29857379D01*
X37527625Y-29769139D01*
X37527624Y-29769138D01*
X37527622Y-29769137D01*
X37393712Y-29713671D01*
X37393710Y-29713670D01*
X37393709Y-29713670D01*
X37321854Y-29704210D01*
X37250001Y-29694750D01*
X37249999Y-29694750D01*
X37106291Y-29713670D01*
X37106287Y-29713671D01*
X36972377Y-29769137D01*
X36914877Y-29813259D01*
X36857379Y-29857379D01*
X36857378Y-29857380D01*
X36857377Y-29857381D01*
X36848375Y-29869113D01*
X36791947Y-29910316D01*
X36722201Y-29914470D01*
X36661281Y-29880257D01*
X36651625Y-29869113D01*
X36649782Y-29866711D01*
X36642621Y-29857379D01*
X36527625Y-29769139D01*
X36527624Y-29769138D01*
X36527622Y-29769137D01*
X36393712Y-29713671D01*
X36393710Y-29713670D01*
X36393709Y-29713670D01*
X36321854Y-29704210D01*
X36250001Y-29694750D01*
X36249999Y-29694750D01*
X36106291Y-29713670D01*
X36106287Y-29713671D01*
X35972377Y-29769137D01*
X35914877Y-29813259D01*
X35857379Y-29857379D01*
X35857378Y-29857380D01*
X35857377Y-29857381D01*
X35848375Y-29869113D01*
X35791947Y-29910316D01*
X35722201Y-29914470D01*
X35661281Y-29880257D01*
X35651625Y-29869113D01*
X35649782Y-29866711D01*
X35642621Y-29857379D01*
X35527625Y-29769139D01*
X35527624Y-29769138D01*
X35527622Y-29769137D01*
X35393712Y-29713671D01*
X35393710Y-29713670D01*
X35393709Y-29713670D01*
X35321854Y-29704210D01*
X35250001Y-29694750D01*
X35249999Y-29694750D01*
X35106291Y-29713670D01*
X35106287Y-29713671D01*
X34972377Y-29769137D01*
X34914877Y-29813259D01*
X34857379Y-29857379D01*
X34857378Y-29857380D01*
X34857377Y-29857381D01*
X34848375Y-29869113D01*
X34791947Y-29910316D01*
X34722201Y-29914470D01*
X34661281Y-29880257D01*
X34651625Y-29869113D01*
X34649782Y-29866711D01*
X34642621Y-29857379D01*
X34527625Y-29769139D01*
X34527624Y-29769138D01*
X34527622Y-29769137D01*
X34393712Y-29713671D01*
X34393710Y-29713670D01*
X34393709Y-29713670D01*
X34321854Y-29704210D01*
X34250001Y-29694750D01*
X34249999Y-29694750D01*
X34106291Y-29713670D01*
X34106287Y-29713671D01*
X33972377Y-29769137D01*
X33914877Y-29813259D01*
X33857379Y-29857379D01*
X33857378Y-29857380D01*
X33857377Y-29857381D01*
X33848375Y-29869113D01*
X33791947Y-29910316D01*
X33722201Y-29914470D01*
X33661281Y-29880257D01*
X33651625Y-29869113D01*
X33649782Y-29866711D01*
X33642621Y-29857379D01*
X33527625Y-29769139D01*
X33527624Y-29769138D01*
X33527622Y-29769137D01*
X33393712Y-29713671D01*
X33393710Y-29713670D01*
X33393709Y-29713670D01*
X33321854Y-29704210D01*
X33250001Y-29694750D01*
X33249999Y-29694750D01*
X33106291Y-29713670D01*
X33106287Y-29713671D01*
X32972377Y-29769137D01*
X32857379Y-29857379D01*
X32769137Y-29972377D01*
X32713671Y-30106287D01*
X32713670Y-30106291D01*
X32694750Y-30249999D01*
X31805250Y-30249999D01*
X31803048Y-30233280D01*
X31786330Y-30106291D01*
X31730861Y-29972375D01*
X31642621Y-29857379D01*
X31527625Y-29769139D01*
X31527624Y-29769138D01*
X31527622Y-29769137D01*
X31393712Y-29713671D01*
X31393710Y-29713670D01*
X31393709Y-29713670D01*
X31321854Y-29704210D01*
X31250001Y-29694750D01*
X31249999Y-29694750D01*
X31106291Y-29713670D01*
X31106287Y-29713671D01*
X30972377Y-29769137D01*
X30914877Y-29813259D01*
X30857379Y-29857379D01*
X30857378Y-29857380D01*
X30857377Y-29857381D01*
X30848375Y-29869113D01*
X30791947Y-29910316D01*
X30722201Y-29914470D01*
X30661281Y-29880257D01*
X30651625Y-29869113D01*
X30649782Y-29866711D01*
X30642621Y-29857379D01*
X30527625Y-29769139D01*
X30527624Y-29769138D01*
X30527622Y-29769137D01*
X30393712Y-29713671D01*
X30393710Y-29713670D01*
X30393709Y-29713670D01*
X30321854Y-29704210D01*
X30250001Y-29694750D01*
X30249999Y-29694750D01*
X30106291Y-29713670D01*
X30106287Y-29713671D01*
X29972377Y-29769137D01*
X29914877Y-29813259D01*
X29857379Y-29857379D01*
X29857378Y-29857380D01*
X29857377Y-29857381D01*
X29848375Y-29869113D01*
X29791947Y-29910316D01*
X29722201Y-29914470D01*
X29661281Y-29880257D01*
X29651625Y-29869113D01*
X29649782Y-29866711D01*
X29642621Y-29857379D01*
X29527625Y-29769139D01*
X29527624Y-29769138D01*
X29527622Y-29769137D01*
X29393712Y-29713671D01*
X29393710Y-29713670D01*
X29393709Y-29713670D01*
X29321854Y-29704210D01*
X29250001Y-29694750D01*
X29249999Y-29694750D01*
X29106291Y-29713670D01*
X29106287Y-29713671D01*
X28972377Y-29769137D01*
X28914877Y-29813259D01*
X28857379Y-29857379D01*
X28857378Y-29857380D01*
X28857377Y-29857381D01*
X28848375Y-29869113D01*
X28791947Y-29910316D01*
X28722201Y-29914470D01*
X28661281Y-29880257D01*
X28651625Y-29869113D01*
X28649782Y-29866711D01*
X28642621Y-29857379D01*
X28527625Y-29769139D01*
X28527624Y-29769138D01*
X28527622Y-29769137D01*
X28393712Y-29713671D01*
X28393710Y-29713670D01*
X28393709Y-29713670D01*
X28321854Y-29704210D01*
X28250001Y-29694750D01*
X28249999Y-29694750D01*
X28106291Y-29713670D01*
X28106287Y-29713671D01*
X27972377Y-29769137D01*
X27914877Y-29813259D01*
X27857379Y-29857379D01*
X27857378Y-29857380D01*
X27857377Y-29857381D01*
X27848375Y-29869113D01*
X27791947Y-29910316D01*
X27722201Y-29914470D01*
X27661281Y-29880257D01*
X27651625Y-29869113D01*
X27649782Y-29866711D01*
X27642621Y-29857379D01*
X27527625Y-29769139D01*
X27527624Y-29769138D01*
X27527622Y-29769137D01*
X27393712Y-29713671D01*
X27393710Y-29713670D01*
X27393709Y-29713670D01*
X27321854Y-29704210D01*
X27250001Y-29694750D01*
X27249999Y-29694750D01*
X27106291Y-29713670D01*
X27106287Y-29713671D01*
X26972377Y-29769137D01*
X26857379Y-29857379D01*
X26769137Y-29972377D01*
X26713671Y-30106287D01*
X26713670Y-30106291D01*
X26694750Y-30249999D01*
X25805250Y-30249999D01*
X25803048Y-30233280D01*
X25786330Y-30106291D01*
X25730861Y-29972375D01*
X25642621Y-29857379D01*
X25527625Y-29769139D01*
X25527624Y-29769138D01*
X25527622Y-29769137D01*
X25393712Y-29713671D01*
X25393710Y-29713670D01*
X25393709Y-29713670D01*
X25321854Y-29704210D01*
X25250001Y-29694750D01*
X25249999Y-29694750D01*
X25106291Y-29713670D01*
X25106287Y-29713671D01*
X24972377Y-29769137D01*
X24914877Y-29813259D01*
X24857379Y-29857379D01*
X24857378Y-29857380D01*
X24857377Y-29857381D01*
X24848375Y-29869113D01*
X24791947Y-29910316D01*
X24722201Y-29914470D01*
X24661281Y-29880257D01*
X24651625Y-29869113D01*
X24649782Y-29866711D01*
X24642621Y-29857379D01*
X24527625Y-29769139D01*
X24527624Y-29769138D01*
X24527622Y-29769137D01*
X24393712Y-29713671D01*
X24393710Y-29713670D01*
X24393709Y-29713670D01*
X24321854Y-29704210D01*
X24250001Y-29694750D01*
X24249999Y-29694750D01*
X24106291Y-29713670D01*
X24106287Y-29713671D01*
X23972377Y-29769137D01*
X23914877Y-29813259D01*
X23857379Y-29857379D01*
X23857378Y-29857380D01*
X23857377Y-29857381D01*
X23848375Y-29869113D01*
X23791947Y-29910316D01*
X23722201Y-29914470D01*
X23661281Y-29880257D01*
X23651625Y-29869113D01*
X23649782Y-29866711D01*
X23642621Y-29857379D01*
X23527625Y-29769139D01*
X23527624Y-29769138D01*
X23527622Y-29769137D01*
X23393712Y-29713671D01*
X23393710Y-29713670D01*
X23393709Y-29713670D01*
X23321854Y-29704210D01*
X23250001Y-29694750D01*
X23249999Y-29694750D01*
X23106291Y-29713670D01*
X23106287Y-29713671D01*
X22972377Y-29769137D01*
X22914877Y-29813259D01*
X22857379Y-29857379D01*
X22857378Y-29857380D01*
X22857377Y-29857381D01*
X22848375Y-29869113D01*
X22791947Y-29910316D01*
X22722201Y-29914470D01*
X22661281Y-29880257D01*
X22651625Y-29869113D01*
X22649782Y-29866711D01*
X22642621Y-29857379D01*
X22527625Y-29769139D01*
X22527624Y-29769138D01*
X22527622Y-29769137D01*
X22393712Y-29713671D01*
X22393710Y-29713670D01*
X22393709Y-29713670D01*
X22321854Y-29704210D01*
X22250001Y-29694750D01*
X22249999Y-29694750D01*
X22106291Y-29713670D01*
X22106287Y-29713671D01*
X21972377Y-29769137D01*
X21914877Y-29813259D01*
X21857379Y-29857379D01*
X21857378Y-29857380D01*
X21857377Y-29857381D01*
X21848375Y-29869113D01*
X21791947Y-29910316D01*
X21722201Y-29914470D01*
X21661281Y-29880257D01*
X21651625Y-29869113D01*
X21649782Y-29866711D01*
X21642621Y-29857379D01*
X21527625Y-29769139D01*
X21527624Y-29769138D01*
X21527622Y-29769137D01*
X21393712Y-29713671D01*
X21393710Y-29713670D01*
X21393709Y-29713670D01*
X21321854Y-29704210D01*
X21250001Y-29694750D01*
X21249999Y-29694750D01*
X21106291Y-29713670D01*
X21106287Y-29713671D01*
X20972377Y-29769137D01*
X20857379Y-29857379D01*
X20769137Y-29972377D01*
X20713671Y-30106287D01*
X20713670Y-30106291D01*
X20694750Y-30249999D01*
X16000000Y-30249999D01*
X16000000Y-26943571D01*
X49051000Y-26943571D01*
X49051000Y-28389928D01*
X49065532Y-28462985D01*
X49065533Y-28462989D01*
X49065534Y-28462990D01*
X49120899Y-28545851D01*
X49203760Y-28601216D01*
X49203764Y-28601217D01*
X49276821Y-28615749D01*
X49276824Y-28615750D01*
X49276826Y-28615750D01*
X50723176Y-28615750D01*
X50723177Y-28615749D01*
X50796240Y-28601216D01*
X50879101Y-28545851D01*
X50934466Y-28462990D01*
X50949000Y-28389924D01*
X50949000Y-26943576D01*
X50949000Y-26943573D01*
X50948999Y-26943571D01*
X50934467Y-26870514D01*
X50934466Y-26870510D01*
X50879101Y-26787649D01*
X50796240Y-26732284D01*
X50796239Y-26732283D01*
X50796235Y-26732282D01*
X50723177Y-26717750D01*
X50723174Y-26717750D01*
X49276826Y-26717750D01*
X49276823Y-26717750D01*
X49203764Y-26732282D01*
X49203760Y-26732283D01*
X49120899Y-26787649D01*
X49065533Y-26870510D01*
X49065532Y-26870514D01*
X49051000Y-26943571D01*
X16000000Y-26943571D01*
X16000000Y-20499998D01*
X23734685Y-20499998D01*
X23734685Y-20500001D01*
X23753907Y-20719714D01*
X23753909Y-20719724D01*
X23810990Y-20932755D01*
X23810995Y-20932769D01*
X23904203Y-21132654D01*
X23904207Y-21132662D01*
X24030712Y-21313330D01*
X24186669Y-21469287D01*
X24367337Y-21595792D01*
X24367339Y-21595793D01*
X24367342Y-21595795D01*
X24487603Y-21651873D01*
X24567230Y-21689004D01*
X24567232Y-21689004D01*
X24567237Y-21689007D01*
X24780280Y-21746092D01*
X24937222Y-21759822D01*
X24999998Y-21765315D01*
X25000000Y-21765315D01*
X25000002Y-21765315D01*
X25054930Y-21760509D01*
X25219720Y-21746092D01*
X25432763Y-21689007D01*
X25632658Y-21595795D01*
X25813329Y-21469288D01*
X25969288Y-21313329D01*
X26095795Y-21132658D01*
X26189007Y-20932763D01*
X26246092Y-20719720D01*
X26265315Y-20500000D01*
X26265315Y-20499998D01*
X27694685Y-20499998D01*
X27694685Y-20500001D01*
X27713907Y-20719714D01*
X27713909Y-20719724D01*
X27770990Y-20932755D01*
X27770995Y-20932769D01*
X27864203Y-21132654D01*
X27864207Y-21132662D01*
X27990712Y-21313330D01*
X28146669Y-21469287D01*
X28327337Y-21595792D01*
X28327339Y-21595793D01*
X28327342Y-21595795D01*
X28447603Y-21651873D01*
X28527230Y-21689004D01*
X28527232Y-21689004D01*
X28527237Y-21689007D01*
X28740280Y-21746092D01*
X28897222Y-21759822D01*
X28959998Y-21765315D01*
X28960000Y-21765315D01*
X28960002Y-21765315D01*
X29014930Y-21760509D01*
X29179720Y-21746092D01*
X29392763Y-21689007D01*
X29592658Y-21595795D01*
X29773329Y-21469288D01*
X29929288Y-21313329D01*
X30055795Y-21132658D01*
X30117618Y-21000076D01*
X30163790Y-20947637D01*
X30230983Y-20928485D01*
X30297864Y-20948700D01*
X30342382Y-21000077D01*
X30404203Y-21132654D01*
X30404207Y-21132662D01*
X30530712Y-21313330D01*
X30686669Y-21469287D01*
X30867337Y-21595792D01*
X30867339Y-21595793D01*
X30867342Y-21595795D01*
X30987603Y-21651873D01*
X31067230Y-21689004D01*
X31067232Y-21689004D01*
X31067237Y-21689007D01*
X31280280Y-21746092D01*
X31437222Y-21759822D01*
X31499998Y-21765315D01*
X31500000Y-21765315D01*
X31500002Y-21765315D01*
X31554930Y-21760509D01*
X31719720Y-21746092D01*
X31932763Y-21689007D01*
X32132658Y-21595795D01*
X32313329Y-21469288D01*
X32469288Y-21313329D01*
X32595795Y-21132658D01*
X32689007Y-20932763D01*
X32746092Y-20719720D01*
X32765315Y-20500000D01*
X32765315Y-20499998D01*
X33969685Y-20499998D01*
X33969685Y-20500001D01*
X33988907Y-20719714D01*
X33988909Y-20719724D01*
X34045990Y-20932755D01*
X34045995Y-20932769D01*
X34139203Y-21132654D01*
X34139207Y-21132662D01*
X34265712Y-21313330D01*
X34421669Y-21469287D01*
X34602337Y-21595792D01*
X34602339Y-21595793D01*
X34602342Y-21595795D01*
X34722603Y-21651873D01*
X34802230Y-21689004D01*
X34802232Y-21689004D01*
X34802237Y-21689007D01*
X35015280Y-21746092D01*
X35172222Y-21759822D01*
X35234998Y-21765315D01*
X35235000Y-21765315D01*
X35235002Y-21765315D01*
X35289930Y-21760509D01*
X35454720Y-21746092D01*
X35667763Y-21689007D01*
X35867658Y-21595795D01*
X36048329Y-21469288D01*
X36204288Y-21313329D01*
X36330795Y-21132658D01*
X36392618Y-21000076D01*
X36438790Y-20947637D01*
X36505983Y-20928485D01*
X36572864Y-20948700D01*
X36617382Y-21000077D01*
X36679203Y-21132654D01*
X36679207Y-21132662D01*
X36805712Y-21313330D01*
X36961669Y-21469287D01*
X37142337Y-21595792D01*
X37142339Y-21595793D01*
X37142342Y-21595795D01*
X37262603Y-21651873D01*
X37342230Y-21689004D01*
X37342232Y-21689004D01*
X37342237Y-21689007D01*
X37555280Y-21746092D01*
X37712222Y-21759822D01*
X37774998Y-21765315D01*
X37775000Y-21765315D01*
X37775002Y-21765315D01*
X37829930Y-21760509D01*
X37994720Y-21746092D01*
X38207763Y-21689007D01*
X38407658Y-21595795D01*
X38544468Y-21500000D01*
X48124705Y-21500000D01*
X48143832Y-21681984D01*
X48143833Y-21681987D01*
X48200375Y-21856009D01*
X48200378Y-21856015D01*
X48291871Y-22014485D01*
X48414313Y-22150471D01*
X48513005Y-22222175D01*
X48562353Y-22258029D01*
X48655093Y-22299318D01*
X48729519Y-22332455D01*
X48908507Y-22370500D01*
X48908508Y-22370500D01*
X49091491Y-22370500D01*
X49091493Y-22370500D01*
X49270481Y-22332455D01*
X49437648Y-22258028D01*
X49585687Y-22150471D01*
X49708129Y-22014485D01*
X49799622Y-21856015D01*
X49856168Y-21681984D01*
X49875295Y-21500000D01*
X50124705Y-21500000D01*
X50143832Y-21681984D01*
X50143833Y-21681987D01*
X50200375Y-21856009D01*
X50200378Y-21856015D01*
X50291871Y-22014485D01*
X50414313Y-22150471D01*
X50513005Y-22222175D01*
X50562353Y-22258029D01*
X50655093Y-22299318D01*
X50729519Y-22332455D01*
X50908507Y-22370500D01*
X50908508Y-22370500D01*
X51091491Y-22370500D01*
X51091493Y-22370500D01*
X51270481Y-22332455D01*
X51437648Y-22258028D01*
X51585687Y-22150471D01*
X51708129Y-22014485D01*
X51799622Y-21856015D01*
X51856168Y-21681984D01*
X51875295Y-21500000D01*
X52124705Y-21500000D01*
X52143832Y-21681984D01*
X52143833Y-21681987D01*
X52200375Y-21856009D01*
X52200378Y-21856015D01*
X52291871Y-22014485D01*
X52414313Y-22150471D01*
X52513005Y-22222175D01*
X52562353Y-22258029D01*
X52655093Y-22299318D01*
X52729519Y-22332455D01*
X52908507Y-22370500D01*
X52908508Y-22370500D01*
X53091491Y-22370500D01*
X53091493Y-22370500D01*
X53270481Y-22332455D01*
X53437648Y-22258028D01*
X53585687Y-22150471D01*
X53708129Y-22014485D01*
X53799622Y-21856015D01*
X53856168Y-21681984D01*
X53875295Y-21500000D01*
X54124705Y-21500000D01*
X54143832Y-21681984D01*
X54143833Y-21681987D01*
X54200375Y-21856009D01*
X54200378Y-21856015D01*
X54291871Y-22014485D01*
X54414313Y-22150471D01*
X54513005Y-22222175D01*
X54562353Y-22258029D01*
X54655093Y-22299318D01*
X54729519Y-22332455D01*
X54908507Y-22370500D01*
X54908508Y-22370500D01*
X55091491Y-22370500D01*
X55091493Y-22370500D01*
X55270481Y-22332455D01*
X55437648Y-22258028D01*
X55585687Y-22150471D01*
X55708129Y-22014485D01*
X55799622Y-21856015D01*
X55856168Y-21681984D01*
X55875295Y-21500000D01*
X56124705Y-21500000D01*
X56143832Y-21681984D01*
X56143833Y-21681987D01*
X56200375Y-21856009D01*
X56200378Y-21856015D01*
X56291871Y-22014485D01*
X56414313Y-22150471D01*
X56513005Y-22222175D01*
X56562353Y-22258029D01*
X56655093Y-22299318D01*
X56729519Y-22332455D01*
X56908507Y-22370500D01*
X56908508Y-22370500D01*
X57091491Y-22370500D01*
X57091493Y-22370500D01*
X57270481Y-22332455D01*
X57437648Y-22258028D01*
X57585687Y-22150471D01*
X57708129Y-22014485D01*
X57799622Y-21856015D01*
X57856168Y-21681984D01*
X57875295Y-21500000D01*
X57856168Y-21318016D01*
X57799622Y-21143985D01*
X57708129Y-20985515D01*
X57585687Y-20849529D01*
X57536340Y-20813676D01*
X57437646Y-20741970D01*
X57270479Y-20667544D01*
X57139806Y-20639769D01*
X57091493Y-20629500D01*
X56908507Y-20629500D01*
X56877131Y-20636168D01*
X56729519Y-20667544D01*
X56729514Y-20667546D01*
X56562353Y-20741972D01*
X56562348Y-20741974D01*
X56414314Y-20849527D01*
X56414307Y-20849533D01*
X56291870Y-20985515D01*
X56200378Y-21143984D01*
X56200375Y-21143990D01*
X56143833Y-21318012D01*
X56143832Y-21318016D01*
X56124705Y-21500000D01*
X55875295Y-21500000D01*
X55856168Y-21318016D01*
X55799622Y-21143985D01*
X55708129Y-20985515D01*
X55585687Y-20849529D01*
X55536340Y-20813676D01*
X55437646Y-20741970D01*
X55270479Y-20667544D01*
X55139806Y-20639769D01*
X55091493Y-20629500D01*
X54908507Y-20629500D01*
X54877131Y-20636168D01*
X54729519Y-20667544D01*
X54729514Y-20667546D01*
X54562353Y-20741972D01*
X54562348Y-20741974D01*
X54414314Y-20849527D01*
X54414307Y-20849533D01*
X54291870Y-20985515D01*
X54200378Y-21143984D01*
X54200375Y-21143990D01*
X54143833Y-21318012D01*
X54143832Y-21318016D01*
X54124705Y-21500000D01*
X53875295Y-21500000D01*
X53856168Y-21318016D01*
X53799622Y-21143985D01*
X53708129Y-20985515D01*
X53585687Y-20849529D01*
X53536340Y-20813676D01*
X53437646Y-20741970D01*
X53270479Y-20667544D01*
X53139806Y-20639769D01*
X53091493Y-20629500D01*
X52908507Y-20629500D01*
X52877131Y-20636168D01*
X52729519Y-20667544D01*
X52729514Y-20667546D01*
X52562353Y-20741972D01*
X52562348Y-20741974D01*
X52414314Y-20849527D01*
X52414307Y-20849533D01*
X52291870Y-20985515D01*
X52200378Y-21143984D01*
X52200375Y-21143990D01*
X52143833Y-21318012D01*
X52143832Y-21318016D01*
X52124705Y-21500000D01*
X51875295Y-21500000D01*
X51856168Y-21318016D01*
X51799622Y-21143985D01*
X51708129Y-20985515D01*
X51585687Y-20849529D01*
X51536340Y-20813676D01*
X51437646Y-20741970D01*
X51270479Y-20667544D01*
X51139806Y-20639769D01*
X51091493Y-20629500D01*
X50908507Y-20629500D01*
X50877131Y-20636168D01*
X50729519Y-20667544D01*
X50729514Y-20667546D01*
X50562353Y-20741972D01*
X50562348Y-20741974D01*
X50414314Y-20849527D01*
X50414307Y-20849533D01*
X50291870Y-20985515D01*
X50200378Y-21143984D01*
X50200375Y-21143990D01*
X50143833Y-21318012D01*
X50143832Y-21318016D01*
X50124705Y-21500000D01*
X49875295Y-21500000D01*
X49856168Y-21318016D01*
X49799622Y-21143985D01*
X49708129Y-20985515D01*
X49585687Y-20849529D01*
X49536340Y-20813676D01*
X49437646Y-20741970D01*
X49270479Y-20667544D01*
X49139806Y-20639769D01*
X49091493Y-20629500D01*
X48908507Y-20629500D01*
X48877131Y-20636168D01*
X48729519Y-20667544D01*
X48729514Y-20667546D01*
X48562353Y-20741972D01*
X48562348Y-20741974D01*
X48414314Y-20849527D01*
X48414307Y-20849533D01*
X48291870Y-20985515D01*
X48200378Y-21143984D01*
X48200375Y-21143990D01*
X48143833Y-21318012D01*
X48143832Y-21318016D01*
X48124705Y-21500000D01*
X38544468Y-21500000D01*
X38588329Y-21469288D01*
X38744288Y-21313329D01*
X38870795Y-21132658D01*
X38964007Y-20932763D01*
X39021092Y-20719720D01*
X39040315Y-20500000D01*
X39021092Y-20280280D01*
X38964007Y-20067237D01*
X38870795Y-19867343D01*
X38744288Y-19686671D01*
X38744286Y-19686668D01*
X38588330Y-19530712D01*
X38544469Y-19500000D01*
X48124705Y-19500000D01*
X48143832Y-19681984D01*
X48143833Y-19681987D01*
X48200375Y-19856009D01*
X48200378Y-19856015D01*
X48291871Y-20014485D01*
X48414313Y-20150471D01*
X48506894Y-20217735D01*
X48562353Y-20258029D01*
X48612331Y-20280280D01*
X48729519Y-20332455D01*
X48908507Y-20370500D01*
X48908508Y-20370500D01*
X49091491Y-20370500D01*
X49091493Y-20370500D01*
X49270481Y-20332455D01*
X49437648Y-20258028D01*
X49585687Y-20150471D01*
X49708129Y-20014485D01*
X49799622Y-19856015D01*
X49856168Y-19681984D01*
X49875295Y-19500000D01*
X49856168Y-19318016D01*
X49799622Y-19143985D01*
X49708129Y-18985515D01*
X49590902Y-18855321D01*
X56129500Y-18855321D01*
X56129500Y-20144678D01*
X56144032Y-20217735D01*
X56144033Y-20217739D01*
X56144034Y-20217740D01*
X56199399Y-20300601D01*
X56247073Y-20332455D01*
X56282260Y-20355966D01*
X56282264Y-20355967D01*
X56355321Y-20370499D01*
X56355324Y-20370500D01*
X56355326Y-20370500D01*
X57644676Y-20370500D01*
X57644677Y-20370499D01*
X57717740Y-20355966D01*
X57800601Y-20300601D01*
X57855966Y-20217740D01*
X57870500Y-20144674D01*
X57870500Y-18855326D01*
X57870500Y-18855323D01*
X57870499Y-18855321D01*
X57855967Y-18782264D01*
X57855966Y-18782260D01*
X57829048Y-18741974D01*
X57800601Y-18699399D01*
X57717740Y-18644034D01*
X57717739Y-18644033D01*
X57717735Y-18644032D01*
X57644677Y-18629500D01*
X57644674Y-18629500D01*
X56355326Y-18629500D01*
X56355323Y-18629500D01*
X56282264Y-18644032D01*
X56282260Y-18644033D01*
X56199399Y-18699399D01*
X56144033Y-18782260D01*
X56144032Y-18782264D01*
X56129500Y-18855321D01*
X49590902Y-18855321D01*
X49585687Y-18849529D01*
X49493105Y-18782264D01*
X49437646Y-18741970D01*
X49270479Y-18667544D01*
X49139806Y-18639769D01*
X49091493Y-18629500D01*
X48908507Y-18629500D01*
X48877131Y-18636168D01*
X48729519Y-18667544D01*
X48729514Y-18667546D01*
X48562353Y-18741972D01*
X48562348Y-18741974D01*
X48414314Y-18849527D01*
X48414307Y-18849533D01*
X48291870Y-18985515D01*
X48200378Y-19143984D01*
X48200375Y-19143990D01*
X48146113Y-19310995D01*
X48143832Y-19318016D01*
X48124705Y-19500000D01*
X38544469Y-19500000D01*
X38407662Y-19404207D01*
X38407654Y-19404203D01*
X38207769Y-19310995D01*
X38207755Y-19310990D01*
X37994724Y-19253909D01*
X37994722Y-19253908D01*
X37994720Y-19253908D01*
X37994718Y-19253907D01*
X37994714Y-19253907D01*
X37775002Y-19234685D01*
X37774998Y-19234685D01*
X37555285Y-19253907D01*
X37555275Y-19253909D01*
X37342244Y-19310990D01*
X37342235Y-19310994D01*
X37142344Y-19404204D01*
X37142342Y-19404205D01*
X36961668Y-19530713D01*
X36805713Y-19686668D01*
X36679205Y-19867342D01*
X36679204Y-19867344D01*
X36617382Y-19999923D01*
X36571210Y-20052362D01*
X36504016Y-20071514D01*
X36437135Y-20051298D01*
X36392618Y-19999923D01*
X36330795Y-19867344D01*
X36330794Y-19867342D01*
X36204286Y-19686668D01*
X36048330Y-19530712D01*
X35867662Y-19404207D01*
X35867654Y-19404203D01*
X35667769Y-19310995D01*
X35667755Y-19310990D01*
X35454724Y-19253909D01*
X35454722Y-19253908D01*
X35454720Y-19253908D01*
X35454718Y-19253907D01*
X35454714Y-19253907D01*
X35235002Y-19234685D01*
X35234998Y-19234685D01*
X35015285Y-19253907D01*
X35015275Y-19253909D01*
X34802244Y-19310990D01*
X34802235Y-19310994D01*
X34602344Y-19404204D01*
X34602342Y-19404205D01*
X34421668Y-19530713D01*
X34265713Y-19686668D01*
X34139205Y-19867342D01*
X34139204Y-19867344D01*
X34045994Y-20067235D01*
X34045990Y-20067244D01*
X33988909Y-20280275D01*
X33988907Y-20280285D01*
X33969685Y-20499998D01*
X32765315Y-20499998D01*
X32746092Y-20280280D01*
X32689007Y-20067237D01*
X32595795Y-19867343D01*
X32469288Y-19686671D01*
X32469286Y-19686668D01*
X32313330Y-19530712D01*
X32132662Y-19404207D01*
X32132654Y-19404203D01*
X31932769Y-19310995D01*
X31932755Y-19310990D01*
X31719724Y-19253909D01*
X31719722Y-19253908D01*
X31719720Y-19253908D01*
X31719718Y-19253907D01*
X31719714Y-19253907D01*
X31500002Y-19234685D01*
X31499998Y-19234685D01*
X31280285Y-19253907D01*
X31280275Y-19253909D01*
X31067244Y-19310990D01*
X31067235Y-19310994D01*
X30867344Y-19404204D01*
X30867342Y-19404205D01*
X30686668Y-19530713D01*
X30530713Y-19686668D01*
X30404205Y-19867342D01*
X30404204Y-19867344D01*
X30342382Y-19999923D01*
X30296210Y-20052362D01*
X30229016Y-20071514D01*
X30162135Y-20051298D01*
X30117618Y-19999923D01*
X30055795Y-19867344D01*
X30055794Y-19867342D01*
X29929286Y-19686668D01*
X29773330Y-19530712D01*
X29592662Y-19404207D01*
X29592654Y-19404203D01*
X29392769Y-19310995D01*
X29392755Y-19310990D01*
X29179724Y-19253909D01*
X29179722Y-19253908D01*
X29179720Y-19253908D01*
X29179718Y-19253907D01*
X29179714Y-19253907D01*
X28960002Y-19234685D01*
X28959998Y-19234685D01*
X28740285Y-19253907D01*
X28740275Y-19253909D01*
X28527244Y-19310990D01*
X28527235Y-19310994D01*
X28327344Y-19404204D01*
X28327342Y-19404205D01*
X28146668Y-19530713D01*
X27990713Y-19686668D01*
X27864205Y-19867342D01*
X27864204Y-19867344D01*
X27770994Y-20067235D01*
X27770990Y-20067244D01*
X27713909Y-20280275D01*
X27713907Y-20280285D01*
X27694685Y-20499998D01*
X26265315Y-20499998D01*
X26246092Y-20280280D01*
X26189007Y-20067237D01*
X26095795Y-19867343D01*
X25969288Y-19686671D01*
X25969286Y-19686668D01*
X25813330Y-19530712D01*
X25632662Y-19404207D01*
X25632654Y-19404203D01*
X25432769Y-19310995D01*
X25432755Y-19310990D01*
X25219724Y-19253909D01*
X25219722Y-19253908D01*
X25219720Y-19253908D01*
X25219718Y-19253907D01*
X25219714Y-19253907D01*
X25000002Y-19234685D01*
X24999998Y-19234685D01*
X24780285Y-19253907D01*
X24780275Y-19253909D01*
X24567244Y-19310990D01*
X24567235Y-19310994D01*
X24367344Y-19404204D01*
X24367342Y-19404205D01*
X24186668Y-19530713D01*
X24030713Y-19686668D01*
X23904205Y-19867342D01*
X23904204Y-19867344D01*
X23810994Y-20067235D01*
X23810990Y-20067244D01*
X23753909Y-20280275D01*
X23753907Y-20280285D01*
X23734685Y-20499998D01*
X16000000Y-20499998D01*
X16000000Y-16124000D01*
X16019685Y-16056961D01*
X16072489Y-16011206D01*
X16124000Y-16000000D01*
X69126000Y-16000000D01*
X69193039Y-16019685D01*
G37*
%TD.AperFunction*%
%TD*%
M02*
