%TF.GenerationSoftware,KiCad,Pcbnew,8.0.4*%
%TF.CreationDate,2024-10-12T12:23:15-04:00*%
%TF.ProjectId,booster-tc-driver,626f6f73-7465-4722-9d74-632d64726976,rev?*%
%TF.SameCoordinates,Original*%
%TF.FileFunction,Copper,L3,Inr*%
%TF.FilePolarity,Positive*%
%FSLAX46Y46*%
G04 Gerber Fmt 4.6, Leading zero omitted, Abs format (unit mm)*
G04 Created by KiCad (PCBNEW 8.0.4) date 2024-10-12 12:23:15*
%MOMM*%
%LPD*%
G01*
G04 APERTURE LIST*
%TA.AperFunction,ComponentPad*%
%ADD10C,1.524000*%
%TD*%
%TA.AperFunction,ComponentPad*%
%ADD11C,1.400000*%
%TD*%
%TA.AperFunction,ComponentPad*%
%ADD12C,2.020000*%
%TD*%
%TA.AperFunction,ComponentPad*%
%ADD13R,1.397000X1.397000*%
%TD*%
%TA.AperFunction,ComponentPad*%
%ADD14C,1.397000*%
%TD*%
%TA.AperFunction,ComponentPad*%
%ADD15R,1.100000X1.100000*%
%TD*%
%TA.AperFunction,ComponentPad*%
%ADD16C,1.100000*%
%TD*%
%TA.AperFunction,ComponentPad*%
%ADD17R,1.620000X1.620000*%
%TD*%
%TA.AperFunction,ComponentPad*%
%ADD18C,1.620000*%
%TD*%
%TA.AperFunction,ComponentPad*%
%ADD19R,1.240000X1.240000*%
%TD*%
%TA.AperFunction,ComponentPad*%
%ADD20C,1.240000*%
%TD*%
%TA.AperFunction,ViaPad*%
%ADD21C,0.600000*%
%TD*%
%TA.AperFunction,Conductor*%
%ADD22C,1.000000*%
%TD*%
%TA.AperFunction,Conductor*%
%ADD23C,0.500000*%
%TD*%
%TA.AperFunction,Conductor*%
%ADD24C,0.200000*%
%TD*%
G04 APERTURE END LIST*
D10*
%TO.N,GND*%
%TO.C,SW1*%
X23260000Y-71840000D03*
X23260000Y-82000000D03*
X25800000Y-82000000D03*
%TO.N,Net-(SW1-B)*%
X23260000Y-74380000D03*
%TO.N,VDD*%
X23260000Y-76920000D03*
%TD*%
D11*
%TO.N,GND*%
%TO.C,U3*%
X31790000Y-84482500D03*
%TO.N,INT*%
X33695000Y-84482500D03*
%TO.N,+5V*%
X35600000Y-84482500D03*
%TD*%
%TO.N,Net-(U2-K)*%
%TO.C,U2*%
X53330000Y-84482500D03*
%TO.N,+5V*%
X55870000Y-84482500D03*
%TD*%
D12*
%TO.N,GDT1_B*%
%TO.C,J9*%
X28960000Y-20500000D03*
%TO.N,GDT1_A*%
X31500000Y-20500000D03*
%TD*%
D13*
%TO.N,+24V*%
%TO.C,C19*%
X50000000Y-27666750D03*
D14*
%TO.N,GND*%
X50000000Y-32666750D03*
%TD*%
D15*
%TO.N,VDD*%
%TO.C,C37*%
X51000000Y-46500000D03*
D16*
%TO.N,GND*%
X51000000Y-50000000D03*
%TD*%
D12*
%TO.N,GND*%
%TO.C,J3*%
X22460000Y-20500000D03*
%TO.N,+24V*%
X25000000Y-20500000D03*
%TD*%
D15*
%TO.N,+12V*%
%TO.C,C29*%
X51000000Y-41500000D03*
D16*
%TO.N,GND*%
X51000000Y-38000000D03*
%TD*%
D17*
%TO.N,+5V*%
%TO.C,D11*%
X63804000Y-80980000D03*
D18*
%TO.N,Net-(IC1-LED1)*%
X61264000Y-80980000D03*
%TO.N,+5V*%
X63804000Y-78440000D03*
%TO.N,Net-(IC1-LED2)*%
X61264000Y-78440000D03*
%TO.N,+5V*%
X63804000Y-75900000D03*
%TO.N,Net-(IC1-LED3)*%
X61264000Y-75900000D03*
%TD*%
D11*
%TO.N,GND*%
%TO.C,U1*%
X42390000Y-84482500D03*
%TO.N,USART_RX*%
X44295000Y-84482500D03*
%TO.N,+5V*%
X46200000Y-84482500D03*
%TD*%
D19*
%TO.N,I_L_IN*%
%TO.C,J2*%
X57000000Y-19500000D03*
D20*
%TO.N,+24V*%
X57000000Y-21500000D03*
%TO.N,GND*%
X55000000Y-19500000D03*
%TO.N,PFC*%
X55000000Y-21500000D03*
%TO.N,GND*%
X53000000Y-19500000D03*
%TO.N,SCR*%
X53000000Y-21500000D03*
%TO.N,GND*%
X51000000Y-19500000D03*
%TO.N,VBUS_IN*%
X51000000Y-21500000D03*
%TO.N,+5V*%
X49000000Y-19500000D03*
%TO.N,VAC_IN*%
X49000000Y-21500000D03*
%TD*%
D12*
%TO.N,GDT2_B*%
%TO.C,J10*%
X35235000Y-20500000D03*
%TO.N,GDT2_A*%
X37775000Y-20500000D03*
%TD*%
D21*
%TO.N,GND*%
X45500000Y-35000000D03*
X67500000Y-64500000D03*
X18000000Y-17000000D03*
X67500000Y-67000000D03*
X42250000Y-55500000D03*
X67500000Y-84500000D03*
X67500000Y-44500000D03*
X56500000Y-51250000D03*
X39250000Y-65750000D03*
X18000000Y-29500000D03*
X45500000Y-27250000D03*
X18000000Y-27000000D03*
X67500000Y-27000000D03*
X18000000Y-69500000D03*
X67500000Y-59500000D03*
X18000000Y-67000000D03*
X67500000Y-17000000D03*
X67500000Y-74500000D03*
X67500000Y-22000000D03*
X67500000Y-19500000D03*
X43000000Y-55500000D03*
X43750000Y-73500000D03*
X57500000Y-62500000D03*
X48000000Y-49500000D03*
X39750000Y-51750000D03*
X18000000Y-32000000D03*
X34250000Y-70250000D03*
X18000000Y-74500000D03*
X67500000Y-37000000D03*
X67500000Y-24500000D03*
X27750000Y-38750000D03*
X67500000Y-32000000D03*
X46250000Y-45000000D03*
X42500000Y-40250000D03*
X18000000Y-59500000D03*
X44750000Y-29000000D03*
X45500000Y-66500000D03*
X29500000Y-62500000D03*
X18000000Y-52000000D03*
X40750000Y-42000000D03*
X18000000Y-57000000D03*
X18000000Y-84500000D03*
X44750000Y-27750000D03*
X18000000Y-24500000D03*
X50500000Y-56000000D03*
X67500000Y-87000000D03*
X67500000Y-47000000D03*
X18000000Y-54500000D03*
X18000000Y-22000000D03*
X18000000Y-87000000D03*
X24750000Y-59500000D03*
X18000000Y-19500000D03*
X67500000Y-57000000D03*
X28250000Y-66000000D03*
X18000000Y-72000000D03*
X36250000Y-66000000D03*
X52750000Y-64500000D03*
X67500000Y-79500000D03*
X51250000Y-66000000D03*
X18000000Y-79500000D03*
X18000000Y-82000000D03*
X67500000Y-29500000D03*
X67500000Y-42000000D03*
X46750000Y-29000000D03*
X39750000Y-38750000D03*
X63250000Y-62500000D03*
X67500000Y-39500000D03*
X67500000Y-52000000D03*
X34750000Y-45000000D03*
X18000000Y-42000000D03*
X67500000Y-62000000D03*
X67500000Y-72000000D03*
X67500000Y-69500000D03*
X18000000Y-37000000D03*
X37500000Y-69750000D03*
X18000000Y-44500000D03*
X46750000Y-27750000D03*
X33750000Y-38750000D03*
X29750000Y-67750000D03*
X57500000Y-51250000D03*
X18000000Y-49500000D03*
X67500000Y-77000000D03*
X18000000Y-47000000D03*
X32214650Y-58212064D03*
X67500000Y-49500000D03*
X21750000Y-38750000D03*
X54000000Y-58000000D03*
X67500000Y-82000000D03*
X18000000Y-62000000D03*
X67500000Y-34500000D03*
X22750000Y-45000000D03*
X18000000Y-39500000D03*
X18000000Y-77000000D03*
X27750000Y-72500000D03*
X18000000Y-34500000D03*
X18000000Y-64500000D03*
X67500000Y-54500000D03*
%TO.N,+5V*%
X52250000Y-54000000D03*
X61750000Y-59000000D03*
X50000000Y-47500000D03*
%TO.N,VDD*%
X63750000Y-64000000D03*
X37500000Y-57250000D03*
X32250000Y-65250000D03*
X50000000Y-58750000D03*
X30547226Y-58247206D03*
X23750000Y-66750000D03*
X54250000Y-73000000D03*
X63250000Y-64500000D03*
X36750000Y-65500000D03*
X40000000Y-64500000D03*
X26497986Y-76327514D03*
X27750000Y-69250000D03*
X32750000Y-48500000D03*
X21500000Y-68500000D03*
%TO.N,USART_RX*%
X31250000Y-60750000D03*
%TO.N,I_L*%
X33750000Y-68500000D03*
%TO.N,CT+*%
X23500000Y-55000000D03*
%TO.N,MODE_IN*%
X35750000Y-66500000D03*
X25500000Y-79500000D03*
X35750000Y-72750000D03*
%TO.N,CT-*%
X22500000Y-55000000D03*
%TO.N,I_PRI*%
X27250000Y-62500000D03*
%TO.N,VREF*%
X26750000Y-68250000D03*
X36500000Y-72500000D03*
X25250000Y-71250000D03*
%TO.N,VBUS_SENSE*%
X34750000Y-67500000D03*
%TO.N,VAC_SENSE*%
X32250000Y-70000000D03*
%TO.N,VDDA*%
X27250000Y-68750000D03*
%TO.N,THERM2*%
X29750000Y-73250000D03*
X24750000Y-61250000D03*
X42000000Y-72500000D03*
%TO.N,THERM1*%
X24250000Y-60750000D03*
X29750000Y-74000000D03*
X42000000Y-73500000D03*
%TO.N,+24V*%
X36250000Y-38750000D03*
X63750000Y-38250000D03*
X42250000Y-38750000D03*
X63750000Y-35750000D03*
X24250000Y-38750000D03*
X30250000Y-38750000D03*
X63750000Y-34500000D03*
X63750000Y-37000000D03*
X45500000Y-50500000D03*
X45500000Y-52500000D03*
X21000000Y-79500000D03*
X45500000Y-51500000D03*
%TO.N,+12V*%
X57500000Y-33750000D03*
X57500000Y-33000000D03*
X34750000Y-42000000D03*
X22750000Y-42000000D03*
%TO.N,THERM_BOARD*%
X47000000Y-35000000D03*
X32750000Y-69500000D03*
%TO.N,24V_SENSE*%
X25750000Y-67250000D03*
%TO.N,Net-(U9-BST)*%
X44000000Y-55500000D03*
X47250000Y-55500000D03*
%TO.N,VFAN_OUT*%
X54465696Y-68965696D03*
X44000000Y-56250000D03*
X48000000Y-50500000D03*
%TO.N,Net-(U10-G2)*%
X31500000Y-38750000D03*
%TO.N,Net-(IC4-OUT_A)*%
X29000000Y-38750000D03*
%TO.N,Net-(IC4-OUT_B)*%
X23000000Y-38750000D03*
%TO.N,Net-(U11-G2)*%
X25500000Y-38750000D03*
%TO.N,Net-(U12-G2)*%
X43500000Y-38750000D03*
%TO.N,Net-(IC5-OUT_A)*%
X41000000Y-38750000D03*
%TO.N,Net-(IC5-OUT_B)*%
X35000000Y-38750000D03*
%TO.N,Net-(U13-G2)*%
X37500000Y-38750000D03*
%TO.N,Net-(U10-D1)*%
X28750000Y-31000000D03*
X31750000Y-31000000D03*
X29750000Y-31000000D03*
X30250000Y-30250000D03*
X28250000Y-30250000D03*
X27250000Y-30250000D03*
X27750000Y-31000000D03*
X31250000Y-30250000D03*
X29250000Y-30250000D03*
X30750000Y-31000000D03*
%TO.N,Net-(U12-D1)*%
X43750000Y-31000000D03*
X39250000Y-30250000D03*
X39750000Y-31000000D03*
X41250000Y-30250000D03*
X40250000Y-30250000D03*
X42750000Y-31000000D03*
X43250000Y-30250000D03*
X40750000Y-31000000D03*
X41750000Y-31000000D03*
X42250000Y-30250000D03*
%TO.N,LED_TMP*%
X50739897Y-71500000D03*
%TO.N,LED_VBUS*%
X50250000Y-71000000D03*
%TO.N,LED_I_IN*%
X51250000Y-72000000D03*
%TO.N,SPI_CLK*%
X33250000Y-69000000D03*
X43500000Y-43500000D03*
%TO.N,SPI_MOSI*%
X34250000Y-68000000D03*
X43250000Y-45750000D03*
%TO.N,CS_FAN*%
X42491159Y-46245726D03*
%TO.N,GDT1_DIS*%
X33250000Y-59250000D03*
X25250000Y-42000000D03*
X25250000Y-45000000D03*
%TO.N,GDT_A*%
X24000000Y-45000000D03*
X36000000Y-45000000D03*
X32750000Y-58750000D03*
%TO.N,GDT_B*%
X21500000Y-45000000D03*
X34250000Y-60250000D03*
X33500000Y-45000000D03*
%TO.N,GDT2_DIS*%
X37250000Y-45000000D03*
X37310000Y-42000000D03*
X33750000Y-59750000D03*
%TO.N,VBUS_IN*%
X37500000Y-49500000D03*
%TO.N,I_L_IN*%
X32500000Y-53250000D03*
%TO.N,VAC_IN*%
X31725000Y-73750000D03*
X31750000Y-52500000D03*
%TO.N,PFC*%
X44750000Y-42250000D03*
X35250000Y-67000000D03*
%TO.N,SCR*%
X26250000Y-67750000D03*
X22750000Y-43750000D03*
X40887498Y-45250000D03*
%TO.N,GDT1_B*%
X22250000Y-30250000D03*
X24250000Y-30250000D03*
X21250000Y-30250000D03*
X23750000Y-31000000D03*
X21750000Y-31000000D03*
X24750000Y-31000000D03*
X22750000Y-31000000D03*
X23250000Y-30250000D03*
X25250000Y-30250000D03*
X25750000Y-31000000D03*
%TO.N,GDT2_B*%
X37250000Y-30250000D03*
X35750000Y-31000000D03*
X34750000Y-31000000D03*
X36750000Y-31000000D03*
X33250000Y-30250000D03*
X34250000Y-30250000D03*
X36250000Y-30250000D03*
X37750000Y-31000000D03*
X33750000Y-31000000D03*
X35250000Y-30250000D03*
%TO.N,USART_TX*%
X29750000Y-67000000D03*
X43509804Y-82990196D03*
%TO.N,Net-(U4-INPUT)*%
X28625000Y-62125000D03*
%TO.N,Net-(U4-OUTPUT)*%
X29250000Y-61750000D03*
%TO.N,FAN_EN*%
X44750000Y-47500000D03*
%TO.N,Net-(J4-Pad1)*%
X25750000Y-54000000D03*
%TO.N,Net-(J4-Pad2)*%
X29750000Y-52750000D03*
%TD*%
D22*
%TO.N,+5V*%
X65250000Y-74454000D02*
X63804000Y-75900000D01*
X42183764Y-85797162D02*
X44885338Y-85797162D01*
X35600000Y-84482500D02*
X36849976Y-85732476D01*
X65250000Y-59000000D02*
X61750000Y-59000000D01*
X62500000Y-17500000D02*
X65250000Y-20250000D01*
D23*
X52250000Y-49750000D02*
X52250000Y-54000000D01*
D22*
X41900351Y-85732476D02*
X42183764Y-85797162D01*
X65250000Y-57554000D02*
X65250000Y-59000000D01*
X46200000Y-84482500D02*
X51491522Y-84482500D01*
X60301500Y-84482500D02*
X63804000Y-80980000D01*
X51000000Y-17500000D02*
X62500000Y-17500000D01*
X52791522Y-85782500D02*
X54570000Y-85782500D01*
X51491522Y-84482500D02*
X52791522Y-85782500D01*
D23*
X50000000Y-47500000D02*
X52250000Y-49750000D01*
D22*
X65250000Y-20250000D02*
X65250000Y-57554000D01*
X49000000Y-19500000D02*
X51000000Y-17500000D01*
X44885338Y-85797162D02*
X46200000Y-84482500D01*
X55870000Y-84482500D02*
X60301500Y-84482500D01*
X63804000Y-78440000D02*
X63804000Y-75900000D01*
X36849976Y-85732476D02*
X41900351Y-85732476D01*
X63804000Y-80980000D02*
X63804000Y-78440000D01*
X54570000Y-85782500D02*
X55870000Y-84482500D01*
X65250000Y-57554000D02*
X65250000Y-74454000D01*
D24*
%TO.N,USART_RX*%
X44250000Y-83000000D02*
X44250000Y-84437500D01*
X31250000Y-60750000D02*
X31250000Y-70000000D01*
X31250000Y-70000000D02*
X44250000Y-83000000D01*
X44250000Y-84437500D02*
X44295000Y-84482500D01*
%TO.N,THERM2*%
X24500000Y-61500000D02*
X24500000Y-64000000D01*
X29750000Y-73250000D02*
X28800000Y-72300000D01*
X28800000Y-72300000D02*
X28800000Y-72250000D01*
X28800000Y-68300000D02*
X28800000Y-72250000D01*
X24750000Y-61250000D02*
X24500000Y-61500000D01*
X24500000Y-64000000D02*
X28800000Y-68300000D01*
%TO.N,THERM1*%
X24250000Y-60750000D02*
X24200000Y-60800000D01*
X28500000Y-68600000D02*
X28500000Y-72750000D01*
X24200000Y-64300000D02*
X28500000Y-68600000D01*
X28500000Y-72750000D02*
X29750000Y-74000000D01*
X24200000Y-60800000D02*
X24200000Y-64300000D01*
D22*
%TO.N,+24V*%
X45500000Y-49500000D02*
X50000000Y-45000000D01*
X45500000Y-52500000D02*
X45500000Y-50500000D01*
D23*
X20500000Y-46500000D02*
X20500000Y-79000000D01*
D22*
X45500000Y-50500000D02*
X45500000Y-49500000D01*
D23*
X24250000Y-38750000D02*
X20500000Y-42500000D01*
D22*
X63750000Y-43000000D02*
X63750000Y-34500000D01*
X50000000Y-45000000D02*
X61750000Y-45000000D01*
D23*
X20500000Y-79000000D02*
X21000000Y-79500000D01*
D22*
X61750000Y-45000000D02*
X63750000Y-43000000D01*
D23*
X20500000Y-42500000D02*
X20500000Y-46500000D01*
D24*
%TO.N,THERM_BOARD*%
X36250000Y-59500000D02*
X36250000Y-47500000D01*
X36250000Y-47500000D02*
X47000000Y-36750000D01*
X32750000Y-69500000D02*
X32750000Y-63000000D01*
X47000000Y-36750000D02*
X47000000Y-35000000D01*
X32750000Y-63000000D02*
X36250000Y-59500000D01*
%TO.N,VFAN_OUT*%
X44073691Y-56250000D02*
X48000000Y-52323691D01*
X44000000Y-56250000D02*
X44073691Y-56250000D01*
X48000000Y-52323691D02*
X48000000Y-50500000D01*
%TO.N,SPI_CLK*%
X37000000Y-48000000D02*
X37000000Y-59750000D01*
X40750000Y-44250000D02*
X37000000Y-48000000D01*
X43500000Y-43500000D02*
X42750000Y-44250000D01*
X33250000Y-63500000D02*
X33250000Y-69000000D01*
X37000000Y-59750000D02*
X33250000Y-63500000D01*
X42750000Y-44250000D02*
X40750000Y-44250000D01*
%TO.N,SPI_MOSI*%
X39500000Y-47000000D02*
X42500000Y-47000000D01*
X42500000Y-47000000D02*
X43250000Y-46250000D01*
X38000000Y-48500000D02*
X39500000Y-47000000D01*
X43250000Y-46250000D02*
X43250000Y-45750000D01*
X34250000Y-68000000D02*
X34250000Y-63750000D01*
X38000000Y-60000000D02*
X38000000Y-48500000D01*
X34250000Y-63750000D02*
X38000000Y-60000000D01*
%TO.N,GDT1_DIS*%
X25250000Y-42000000D02*
X25250000Y-45000000D01*
X34000000Y-58500000D02*
X34000000Y-47750000D01*
X31250000Y-45000000D02*
X25250000Y-45000000D01*
X33250000Y-59250000D02*
X34000000Y-58500000D01*
X34000000Y-47750000D02*
X31250000Y-45000000D01*
%TO.N,GDT_A*%
X31625000Y-46250000D02*
X33250000Y-47875000D01*
X25250000Y-46250000D02*
X31625000Y-46250000D01*
X33250000Y-47875000D02*
X33250000Y-58250000D01*
X24000000Y-45000000D02*
X25250000Y-46250000D01*
X33250000Y-58250000D02*
X32750000Y-58750000D01*
%TO.N,GDT_B*%
X35500000Y-47500000D02*
X33500000Y-45500000D01*
X33500000Y-45500000D02*
X33500000Y-45000000D01*
X34250000Y-60250000D02*
X35500000Y-59000000D01*
X35500000Y-59000000D02*
X35500000Y-47500000D01*
%TO.N,GDT2_DIS*%
X37250000Y-44250000D02*
X37250000Y-44000000D01*
X34750000Y-47750000D02*
X33000000Y-46000000D01*
X33000000Y-46000000D02*
X33000000Y-44750000D01*
X33750000Y-59750000D02*
X34750000Y-58750000D01*
X37250000Y-45000000D02*
X37250000Y-44250000D01*
X33000000Y-44750000D02*
X33500000Y-44250000D01*
X34750000Y-58750000D02*
X34750000Y-47750000D01*
X33500000Y-44250000D02*
X37250000Y-44250000D01*
X37250000Y-44000000D02*
X37250000Y-42060000D01*
X37250000Y-42060000D02*
X37310000Y-42000000D01*
%TO.N,VAC_IN*%
X30000000Y-62707107D02*
X29250000Y-63457107D01*
X29250000Y-63457107D02*
X29250000Y-71275000D01*
X31750000Y-52500000D02*
X30000000Y-54250000D01*
X29250000Y-71275000D02*
X31725000Y-73750000D01*
X30000000Y-54250000D02*
X30000000Y-62707107D01*
%TO.N,PFC*%
X35250000Y-67000000D02*
X36250000Y-67000000D01*
X39000000Y-51750000D02*
X44750000Y-46000000D01*
X36250000Y-67000000D02*
X39000000Y-64250000D01*
X39000000Y-64250000D02*
X39000000Y-51750000D01*
X44750000Y-46000000D02*
X44750000Y-42250000D01*
%TO.N,SCR*%
X22000000Y-65750000D02*
X24000000Y-67750000D01*
X22750000Y-43750000D02*
X22000000Y-44500000D01*
X24000000Y-67750000D02*
X26250000Y-67750000D01*
X22000000Y-44500000D02*
X22000000Y-65750000D01*
%TO.N,USART_TX*%
X29750000Y-67000000D02*
X30250000Y-67500000D01*
X30250000Y-70500000D02*
X42740196Y-82990196D01*
X30250000Y-67500000D02*
X30250000Y-70500000D01*
X42740196Y-82990196D02*
X43509804Y-82990196D01*
%TD*%
%TA.AperFunction,Conductor*%
%TO.N,GDT2_B*%
G36*
X38193039Y-22269685D02*
G01*
X38238794Y-22322489D01*
X38250000Y-22374000D01*
X38250000Y-36876000D01*
X38230315Y-36943039D01*
X38177511Y-36988794D01*
X38126000Y-37000000D01*
X32874000Y-37000000D01*
X32806961Y-36980315D01*
X32761206Y-36927511D01*
X32750000Y-36876000D01*
X32750000Y-22374000D01*
X32769685Y-22306961D01*
X32822489Y-22261206D01*
X32874000Y-22250000D01*
X38126000Y-22250000D01*
X38193039Y-22269685D01*
G37*
%TD.AperFunction*%
%TD*%
%TA.AperFunction,Conductor*%
%TO.N,GDT1_B*%
G36*
X26193039Y-22269685D02*
G01*
X26238794Y-22322489D01*
X26250000Y-22374000D01*
X26250000Y-36876000D01*
X26230315Y-36943039D01*
X26177511Y-36988794D01*
X26126000Y-37000000D01*
X20874000Y-37000000D01*
X20806961Y-36980315D01*
X20761206Y-36927511D01*
X20750000Y-36876000D01*
X20750000Y-22374000D01*
X20769685Y-22306961D01*
X20822489Y-22261206D01*
X20874000Y-22250000D01*
X26126000Y-22250000D01*
X26193039Y-22269685D01*
G37*
%TD.AperFunction*%
%TD*%
%TA.AperFunction,Conductor*%
%TO.N,Net-(U12-D1)*%
G36*
X44193039Y-22269685D02*
G01*
X44238794Y-22322489D01*
X44250000Y-22374000D01*
X44250000Y-27493917D01*
X44240561Y-27541369D01*
X44213671Y-27606287D01*
X44213670Y-27606291D01*
X44194750Y-27750000D01*
X44213670Y-27893709D01*
X44240561Y-27958632D01*
X44250000Y-28006082D01*
X44250000Y-28743917D01*
X44240561Y-28791369D01*
X44213671Y-28856287D01*
X44213670Y-28856291D01*
X44194750Y-29000000D01*
X44213670Y-29143709D01*
X44240561Y-29208632D01*
X44250000Y-29256082D01*
X44250000Y-36876000D01*
X44230315Y-36943039D01*
X44177511Y-36988794D01*
X44126000Y-37000000D01*
X38874000Y-37000000D01*
X38806961Y-36980315D01*
X38761206Y-36927511D01*
X38750000Y-36876000D01*
X38750000Y-22374000D01*
X38769685Y-22306961D01*
X38822489Y-22261206D01*
X38874000Y-22250000D01*
X44126000Y-22250000D01*
X44193039Y-22269685D01*
G37*
%TD.AperFunction*%
%TD*%
%TA.AperFunction,Conductor*%
%TO.N,Net-(U10-D1)*%
G36*
X32193039Y-22269685D02*
G01*
X32238794Y-22322489D01*
X32250000Y-22374000D01*
X32250000Y-36876000D01*
X32230315Y-36943039D01*
X32177511Y-36988794D01*
X32126000Y-37000000D01*
X26874000Y-37000000D01*
X26806961Y-36980315D01*
X26761206Y-36927511D01*
X26750000Y-36876000D01*
X26750000Y-22374000D01*
X26769685Y-22306961D01*
X26822489Y-22261206D01*
X26874000Y-22250000D01*
X32126000Y-22250000D01*
X32193039Y-22269685D01*
G37*
%TD.AperFunction*%
%TD*%
M02*
