%TF.GenerationSoftware,KiCad,Pcbnew,8.0.4*%
%TF.CreationDate,2024-10-12T12:23:15-04:00*%
%TF.ProjectId,booster-tc-driver,626f6f73-7465-4722-9d74-632d64726976,rev?*%
%TF.SameCoordinates,Original*%
%TF.FileFunction,Legend,Bot*%
%TF.FilePolarity,Positive*%
%FSLAX46Y46*%
G04 Gerber Fmt 4.6, Leading zero omitted, Abs format (unit mm)*
G04 Created by KiCad (PCBNEW 8.0.4) date 2024-10-12 12:23:15*
%MOMM*%
%LPD*%
G01*
G04 APERTURE LIST*
%ADD10C,0.100000*%
%ADD11C,0.150000*%
%ADD12C,0.254000*%
%ADD13C,0.120000*%
%ADD14C,0.127000*%
%ADD15C,0.152400*%
%ADD16C,0.200000*%
G04 APERTURE END LIST*
D10*
X65300000Y-16000000D02*
X65300000Y-88000000D01*
X20000000Y-16000000D02*
X20000000Y-88000000D01*
D11*
X39204819Y-31285714D02*
X38204819Y-31285714D01*
X38204819Y-31285714D02*
X38204819Y-31523809D01*
X38204819Y-31523809D02*
X38252438Y-31666666D01*
X38252438Y-31666666D02*
X38347676Y-31761904D01*
X38347676Y-31761904D02*
X38442914Y-31809523D01*
X38442914Y-31809523D02*
X38633390Y-31857142D01*
X38633390Y-31857142D02*
X38776247Y-31857142D01*
X38776247Y-31857142D02*
X38966723Y-31809523D01*
X38966723Y-31809523D02*
X39061961Y-31761904D01*
X39061961Y-31761904D02*
X39157200Y-31666666D01*
X39157200Y-31666666D02*
X39204819Y-31523809D01*
X39204819Y-31523809D02*
X39204819Y-31285714D01*
X39204819Y-32809523D02*
X39204819Y-32238095D01*
X39204819Y-32523809D02*
X38204819Y-32523809D01*
X38204819Y-32523809D02*
X38347676Y-32428571D01*
X38347676Y-32428571D02*
X38442914Y-32333333D01*
X38442914Y-32333333D02*
X38490533Y-32238095D01*
X39204819Y-33285714D02*
X39204819Y-33476190D01*
X39204819Y-33476190D02*
X39157200Y-33571428D01*
X39157200Y-33571428D02*
X39109580Y-33619047D01*
X39109580Y-33619047D02*
X38966723Y-33714285D01*
X38966723Y-33714285D02*
X38776247Y-33761904D01*
X38776247Y-33761904D02*
X38395295Y-33761904D01*
X38395295Y-33761904D02*
X38300057Y-33714285D01*
X38300057Y-33714285D02*
X38252438Y-33666666D01*
X38252438Y-33666666D02*
X38204819Y-33571428D01*
X38204819Y-33571428D02*
X38204819Y-33380952D01*
X38204819Y-33380952D02*
X38252438Y-33285714D01*
X38252438Y-33285714D02*
X38300057Y-33238095D01*
X38300057Y-33238095D02*
X38395295Y-33190476D01*
X38395295Y-33190476D02*
X38633390Y-33190476D01*
X38633390Y-33190476D02*
X38728628Y-33238095D01*
X38728628Y-33238095D02*
X38776247Y-33285714D01*
X38776247Y-33285714D02*
X38823866Y-33380952D01*
X38823866Y-33380952D02*
X38823866Y-33571428D01*
X38823866Y-33571428D02*
X38776247Y-33666666D01*
X38776247Y-33666666D02*
X38728628Y-33714285D01*
X38728628Y-33714285D02*
X38633390Y-33761904D01*
X32814819Y-49501905D02*
X31814819Y-49501905D01*
X31814819Y-49501905D02*
X31814819Y-49740000D01*
X31814819Y-49740000D02*
X31862438Y-49882857D01*
X31862438Y-49882857D02*
X31957676Y-49978095D01*
X31957676Y-49978095D02*
X32052914Y-50025714D01*
X32052914Y-50025714D02*
X32243390Y-50073333D01*
X32243390Y-50073333D02*
X32386247Y-50073333D01*
X32386247Y-50073333D02*
X32576723Y-50025714D01*
X32576723Y-50025714D02*
X32671961Y-49978095D01*
X32671961Y-49978095D02*
X32767200Y-49882857D01*
X32767200Y-49882857D02*
X32814819Y-49740000D01*
X32814819Y-49740000D02*
X32814819Y-49501905D01*
X32814819Y-50549524D02*
X32814819Y-50740000D01*
X32814819Y-50740000D02*
X32767200Y-50835238D01*
X32767200Y-50835238D02*
X32719580Y-50882857D01*
X32719580Y-50882857D02*
X32576723Y-50978095D01*
X32576723Y-50978095D02*
X32386247Y-51025714D01*
X32386247Y-51025714D02*
X32005295Y-51025714D01*
X32005295Y-51025714D02*
X31910057Y-50978095D01*
X31910057Y-50978095D02*
X31862438Y-50930476D01*
X31862438Y-50930476D02*
X31814819Y-50835238D01*
X31814819Y-50835238D02*
X31814819Y-50644762D01*
X31814819Y-50644762D02*
X31862438Y-50549524D01*
X31862438Y-50549524D02*
X31910057Y-50501905D01*
X31910057Y-50501905D02*
X32005295Y-50454286D01*
X32005295Y-50454286D02*
X32243390Y-50454286D01*
X32243390Y-50454286D02*
X32338628Y-50501905D01*
X32338628Y-50501905D02*
X32386247Y-50549524D01*
X32386247Y-50549524D02*
X32433866Y-50644762D01*
X32433866Y-50644762D02*
X32433866Y-50835238D01*
X32433866Y-50835238D02*
X32386247Y-50930476D01*
X32386247Y-50930476D02*
X32338628Y-50978095D01*
X32338628Y-50978095D02*
X32243390Y-51025714D01*
X24634819Y-78857142D02*
X24158628Y-78523809D01*
X24634819Y-78285714D02*
X23634819Y-78285714D01*
X23634819Y-78285714D02*
X23634819Y-78666666D01*
X23634819Y-78666666D02*
X23682438Y-78761904D01*
X23682438Y-78761904D02*
X23730057Y-78809523D01*
X23730057Y-78809523D02*
X23825295Y-78857142D01*
X23825295Y-78857142D02*
X23968152Y-78857142D01*
X23968152Y-78857142D02*
X24063390Y-78809523D01*
X24063390Y-78809523D02*
X24111009Y-78761904D01*
X24111009Y-78761904D02*
X24158628Y-78666666D01*
X24158628Y-78666666D02*
X24158628Y-78285714D01*
X23730057Y-79238095D02*
X23682438Y-79285714D01*
X23682438Y-79285714D02*
X23634819Y-79380952D01*
X23634819Y-79380952D02*
X23634819Y-79619047D01*
X23634819Y-79619047D02*
X23682438Y-79714285D01*
X23682438Y-79714285D02*
X23730057Y-79761904D01*
X23730057Y-79761904D02*
X23825295Y-79809523D01*
X23825295Y-79809523D02*
X23920533Y-79809523D01*
X23920533Y-79809523D02*
X24063390Y-79761904D01*
X24063390Y-79761904D02*
X24634819Y-79190476D01*
X24634819Y-79190476D02*
X24634819Y-79809523D01*
X24634819Y-80761904D02*
X24634819Y-80190476D01*
X24634819Y-80476190D02*
X23634819Y-80476190D01*
X23634819Y-80476190D02*
X23777676Y-80380952D01*
X23777676Y-80380952D02*
X23872914Y-80285714D01*
X23872914Y-80285714D02*
X23920533Y-80190476D01*
X39384819Y-83833333D02*
X38908628Y-83500000D01*
X39384819Y-83261905D02*
X38384819Y-83261905D01*
X38384819Y-83261905D02*
X38384819Y-83642857D01*
X38384819Y-83642857D02*
X38432438Y-83738095D01*
X38432438Y-83738095D02*
X38480057Y-83785714D01*
X38480057Y-83785714D02*
X38575295Y-83833333D01*
X38575295Y-83833333D02*
X38718152Y-83833333D01*
X38718152Y-83833333D02*
X38813390Y-83785714D01*
X38813390Y-83785714D02*
X38861009Y-83738095D01*
X38861009Y-83738095D02*
X38908628Y-83642857D01*
X38908628Y-83642857D02*
X38908628Y-83261905D01*
X38813390Y-84404762D02*
X38765771Y-84309524D01*
X38765771Y-84309524D02*
X38718152Y-84261905D01*
X38718152Y-84261905D02*
X38622914Y-84214286D01*
X38622914Y-84214286D02*
X38575295Y-84214286D01*
X38575295Y-84214286D02*
X38480057Y-84261905D01*
X38480057Y-84261905D02*
X38432438Y-84309524D01*
X38432438Y-84309524D02*
X38384819Y-84404762D01*
X38384819Y-84404762D02*
X38384819Y-84595238D01*
X38384819Y-84595238D02*
X38432438Y-84690476D01*
X38432438Y-84690476D02*
X38480057Y-84738095D01*
X38480057Y-84738095D02*
X38575295Y-84785714D01*
X38575295Y-84785714D02*
X38622914Y-84785714D01*
X38622914Y-84785714D02*
X38718152Y-84738095D01*
X38718152Y-84738095D02*
X38765771Y-84690476D01*
X38765771Y-84690476D02*
X38813390Y-84595238D01*
X38813390Y-84595238D02*
X38813390Y-84404762D01*
X38813390Y-84404762D02*
X38861009Y-84309524D01*
X38861009Y-84309524D02*
X38908628Y-84261905D01*
X38908628Y-84261905D02*
X39003866Y-84214286D01*
X39003866Y-84214286D02*
X39194342Y-84214286D01*
X39194342Y-84214286D02*
X39289580Y-84261905D01*
X39289580Y-84261905D02*
X39337200Y-84309524D01*
X39337200Y-84309524D02*
X39384819Y-84404762D01*
X39384819Y-84404762D02*
X39384819Y-84595238D01*
X39384819Y-84595238D02*
X39337200Y-84690476D01*
X39337200Y-84690476D02*
X39289580Y-84738095D01*
X39289580Y-84738095D02*
X39194342Y-84785714D01*
X39194342Y-84785714D02*
X39003866Y-84785714D01*
X39003866Y-84785714D02*
X38908628Y-84738095D01*
X38908628Y-84738095D02*
X38861009Y-84690476D01*
X38861009Y-84690476D02*
X38813390Y-84595238D01*
X56392857Y-56679580D02*
X56440476Y-56727200D01*
X56440476Y-56727200D02*
X56583333Y-56774819D01*
X56583333Y-56774819D02*
X56678571Y-56774819D01*
X56678571Y-56774819D02*
X56821428Y-56727200D01*
X56821428Y-56727200D02*
X56916666Y-56631961D01*
X56916666Y-56631961D02*
X56964285Y-56536723D01*
X56964285Y-56536723D02*
X57011904Y-56346247D01*
X57011904Y-56346247D02*
X57011904Y-56203390D01*
X57011904Y-56203390D02*
X56964285Y-56012914D01*
X56964285Y-56012914D02*
X56916666Y-55917676D01*
X56916666Y-55917676D02*
X56821428Y-55822438D01*
X56821428Y-55822438D02*
X56678571Y-55774819D01*
X56678571Y-55774819D02*
X56583333Y-55774819D01*
X56583333Y-55774819D02*
X56440476Y-55822438D01*
X56440476Y-55822438D02*
X56392857Y-55870057D01*
X56059523Y-55774819D02*
X55440476Y-55774819D01*
X55440476Y-55774819D02*
X55773809Y-56155771D01*
X55773809Y-56155771D02*
X55630952Y-56155771D01*
X55630952Y-56155771D02*
X55535714Y-56203390D01*
X55535714Y-56203390D02*
X55488095Y-56251009D01*
X55488095Y-56251009D02*
X55440476Y-56346247D01*
X55440476Y-56346247D02*
X55440476Y-56584342D01*
X55440476Y-56584342D02*
X55488095Y-56679580D01*
X55488095Y-56679580D02*
X55535714Y-56727200D01*
X55535714Y-56727200D02*
X55630952Y-56774819D01*
X55630952Y-56774819D02*
X55916666Y-56774819D01*
X55916666Y-56774819D02*
X56011904Y-56727200D01*
X56011904Y-56727200D02*
X56059523Y-56679580D01*
X54583333Y-55774819D02*
X54773809Y-55774819D01*
X54773809Y-55774819D02*
X54869047Y-55822438D01*
X54869047Y-55822438D02*
X54916666Y-55870057D01*
X54916666Y-55870057D02*
X55011904Y-56012914D01*
X55011904Y-56012914D02*
X55059523Y-56203390D01*
X55059523Y-56203390D02*
X55059523Y-56584342D01*
X55059523Y-56584342D02*
X55011904Y-56679580D01*
X55011904Y-56679580D02*
X54964285Y-56727200D01*
X54964285Y-56727200D02*
X54869047Y-56774819D01*
X54869047Y-56774819D02*
X54678571Y-56774819D01*
X54678571Y-56774819D02*
X54583333Y-56727200D01*
X54583333Y-56727200D02*
X54535714Y-56679580D01*
X54535714Y-56679580D02*
X54488095Y-56584342D01*
X54488095Y-56584342D02*
X54488095Y-56346247D01*
X54488095Y-56346247D02*
X54535714Y-56251009D01*
X54535714Y-56251009D02*
X54583333Y-56203390D01*
X54583333Y-56203390D02*
X54678571Y-56155771D01*
X54678571Y-56155771D02*
X54869047Y-56155771D01*
X54869047Y-56155771D02*
X54964285Y-56203390D01*
X54964285Y-56203390D02*
X55011904Y-56251009D01*
X55011904Y-56251009D02*
X55059523Y-56346247D01*
X28392857Y-73179580D02*
X28440476Y-73227200D01*
X28440476Y-73227200D02*
X28583333Y-73274819D01*
X28583333Y-73274819D02*
X28678571Y-73274819D01*
X28678571Y-73274819D02*
X28821428Y-73227200D01*
X28821428Y-73227200D02*
X28916666Y-73131961D01*
X28916666Y-73131961D02*
X28964285Y-73036723D01*
X28964285Y-73036723D02*
X29011904Y-72846247D01*
X29011904Y-72846247D02*
X29011904Y-72703390D01*
X29011904Y-72703390D02*
X28964285Y-72512914D01*
X28964285Y-72512914D02*
X28916666Y-72417676D01*
X28916666Y-72417676D02*
X28821428Y-72322438D01*
X28821428Y-72322438D02*
X28678571Y-72274819D01*
X28678571Y-72274819D02*
X28583333Y-72274819D01*
X28583333Y-72274819D02*
X28440476Y-72322438D01*
X28440476Y-72322438D02*
X28392857Y-72370057D01*
X27440476Y-73274819D02*
X28011904Y-73274819D01*
X27726190Y-73274819D02*
X27726190Y-72274819D01*
X27726190Y-72274819D02*
X27821428Y-72417676D01*
X27821428Y-72417676D02*
X27916666Y-72512914D01*
X27916666Y-72512914D02*
X28011904Y-72560533D01*
X27059523Y-72370057D02*
X27011904Y-72322438D01*
X27011904Y-72322438D02*
X26916666Y-72274819D01*
X26916666Y-72274819D02*
X26678571Y-72274819D01*
X26678571Y-72274819D02*
X26583333Y-72322438D01*
X26583333Y-72322438D02*
X26535714Y-72370057D01*
X26535714Y-72370057D02*
X26488095Y-72465295D01*
X26488095Y-72465295D02*
X26488095Y-72560533D01*
X26488095Y-72560533D02*
X26535714Y-72703390D01*
X26535714Y-72703390D02*
X27107142Y-73274819D01*
X27107142Y-73274819D02*
X26488095Y-73274819D01*
X46892857Y-25109580D02*
X46940476Y-25157200D01*
X46940476Y-25157200D02*
X47083333Y-25204819D01*
X47083333Y-25204819D02*
X47178571Y-25204819D01*
X47178571Y-25204819D02*
X47321428Y-25157200D01*
X47321428Y-25157200D02*
X47416666Y-25061961D01*
X47416666Y-25061961D02*
X47464285Y-24966723D01*
X47464285Y-24966723D02*
X47511904Y-24776247D01*
X47511904Y-24776247D02*
X47511904Y-24633390D01*
X47511904Y-24633390D02*
X47464285Y-24442914D01*
X47464285Y-24442914D02*
X47416666Y-24347676D01*
X47416666Y-24347676D02*
X47321428Y-24252438D01*
X47321428Y-24252438D02*
X47178571Y-24204819D01*
X47178571Y-24204819D02*
X47083333Y-24204819D01*
X47083333Y-24204819D02*
X46940476Y-24252438D01*
X46940476Y-24252438D02*
X46892857Y-24300057D01*
X45940476Y-25204819D02*
X46511904Y-25204819D01*
X46226190Y-25204819D02*
X46226190Y-24204819D01*
X46226190Y-24204819D02*
X46321428Y-24347676D01*
X46321428Y-24347676D02*
X46416666Y-24442914D01*
X46416666Y-24442914D02*
X46511904Y-24490533D01*
X45035714Y-24204819D02*
X45511904Y-24204819D01*
X45511904Y-24204819D02*
X45559523Y-24681009D01*
X45559523Y-24681009D02*
X45511904Y-24633390D01*
X45511904Y-24633390D02*
X45416666Y-24585771D01*
X45416666Y-24585771D02*
X45178571Y-24585771D01*
X45178571Y-24585771D02*
X45083333Y-24633390D01*
X45083333Y-24633390D02*
X45035714Y-24681009D01*
X45035714Y-24681009D02*
X44988095Y-24776247D01*
X44988095Y-24776247D02*
X44988095Y-25014342D01*
X44988095Y-25014342D02*
X45035714Y-25109580D01*
X45035714Y-25109580D02*
X45083333Y-25157200D01*
X45083333Y-25157200D02*
X45178571Y-25204819D01*
X45178571Y-25204819D02*
X45416666Y-25204819D01*
X45416666Y-25204819D02*
X45511904Y-25157200D01*
X45511904Y-25157200D02*
X45559523Y-25109580D01*
X40642857Y-73274819D02*
X40976190Y-72798628D01*
X41214285Y-73274819D02*
X41214285Y-72274819D01*
X41214285Y-72274819D02*
X40833333Y-72274819D01*
X40833333Y-72274819D02*
X40738095Y-72322438D01*
X40738095Y-72322438D02*
X40690476Y-72370057D01*
X40690476Y-72370057D02*
X40642857Y-72465295D01*
X40642857Y-72465295D02*
X40642857Y-72608152D01*
X40642857Y-72608152D02*
X40690476Y-72703390D01*
X40690476Y-72703390D02*
X40738095Y-72751009D01*
X40738095Y-72751009D02*
X40833333Y-72798628D01*
X40833333Y-72798628D02*
X41214285Y-72798628D01*
X39690476Y-73274819D02*
X40261904Y-73274819D01*
X39976190Y-73274819D02*
X39976190Y-72274819D01*
X39976190Y-72274819D02*
X40071428Y-72417676D01*
X40071428Y-72417676D02*
X40166666Y-72512914D01*
X40166666Y-72512914D02*
X40261904Y-72560533D01*
X38833333Y-72274819D02*
X39023809Y-72274819D01*
X39023809Y-72274819D02*
X39119047Y-72322438D01*
X39119047Y-72322438D02*
X39166666Y-72370057D01*
X39166666Y-72370057D02*
X39261904Y-72512914D01*
X39261904Y-72512914D02*
X39309523Y-72703390D01*
X39309523Y-72703390D02*
X39309523Y-73084342D01*
X39309523Y-73084342D02*
X39261904Y-73179580D01*
X39261904Y-73179580D02*
X39214285Y-73227200D01*
X39214285Y-73227200D02*
X39119047Y-73274819D01*
X39119047Y-73274819D02*
X38928571Y-73274819D01*
X38928571Y-73274819D02*
X38833333Y-73227200D01*
X38833333Y-73227200D02*
X38785714Y-73179580D01*
X38785714Y-73179580D02*
X38738095Y-73084342D01*
X38738095Y-73084342D02*
X38738095Y-72846247D01*
X38738095Y-72846247D02*
X38785714Y-72751009D01*
X38785714Y-72751009D02*
X38833333Y-72703390D01*
X38833333Y-72703390D02*
X38928571Y-72655771D01*
X38928571Y-72655771D02*
X39119047Y-72655771D01*
X39119047Y-72655771D02*
X39214285Y-72703390D01*
X39214285Y-72703390D02*
X39261904Y-72751009D01*
X39261904Y-72751009D02*
X39309523Y-72846247D01*
X24666666Y-72039580D02*
X24714285Y-72087200D01*
X24714285Y-72087200D02*
X24857142Y-72134819D01*
X24857142Y-72134819D02*
X24952380Y-72134819D01*
X24952380Y-72134819D02*
X25095237Y-72087200D01*
X25095237Y-72087200D02*
X25190475Y-71991961D01*
X25190475Y-71991961D02*
X25238094Y-71896723D01*
X25238094Y-71896723D02*
X25285713Y-71706247D01*
X25285713Y-71706247D02*
X25285713Y-71563390D01*
X25285713Y-71563390D02*
X25238094Y-71372914D01*
X25238094Y-71372914D02*
X25190475Y-71277676D01*
X25190475Y-71277676D02*
X25095237Y-71182438D01*
X25095237Y-71182438D02*
X24952380Y-71134819D01*
X24952380Y-71134819D02*
X24857142Y-71134819D01*
X24857142Y-71134819D02*
X24714285Y-71182438D01*
X24714285Y-71182438D02*
X24666666Y-71230057D01*
X24190475Y-72134819D02*
X23999999Y-72134819D01*
X23999999Y-72134819D02*
X23904761Y-72087200D01*
X23904761Y-72087200D02*
X23857142Y-72039580D01*
X23857142Y-72039580D02*
X23761904Y-71896723D01*
X23761904Y-71896723D02*
X23714285Y-71706247D01*
X23714285Y-71706247D02*
X23714285Y-71325295D01*
X23714285Y-71325295D02*
X23761904Y-71230057D01*
X23761904Y-71230057D02*
X23809523Y-71182438D01*
X23809523Y-71182438D02*
X23904761Y-71134819D01*
X23904761Y-71134819D02*
X24095237Y-71134819D01*
X24095237Y-71134819D02*
X24190475Y-71182438D01*
X24190475Y-71182438D02*
X24238094Y-71230057D01*
X24238094Y-71230057D02*
X24285713Y-71325295D01*
X24285713Y-71325295D02*
X24285713Y-71563390D01*
X24285713Y-71563390D02*
X24238094Y-71658628D01*
X24238094Y-71658628D02*
X24190475Y-71706247D01*
X24190475Y-71706247D02*
X24095237Y-71753866D01*
X24095237Y-71753866D02*
X23904761Y-71753866D01*
X23904761Y-71753866D02*
X23809523Y-71706247D01*
X23809523Y-71706247D02*
X23761904Y-71658628D01*
X23761904Y-71658628D02*
X23714285Y-71563390D01*
X40642857Y-74384819D02*
X40976190Y-73908628D01*
X41214285Y-74384819D02*
X41214285Y-73384819D01*
X41214285Y-73384819D02*
X40833333Y-73384819D01*
X40833333Y-73384819D02*
X40738095Y-73432438D01*
X40738095Y-73432438D02*
X40690476Y-73480057D01*
X40690476Y-73480057D02*
X40642857Y-73575295D01*
X40642857Y-73575295D02*
X40642857Y-73718152D01*
X40642857Y-73718152D02*
X40690476Y-73813390D01*
X40690476Y-73813390D02*
X40738095Y-73861009D01*
X40738095Y-73861009D02*
X40833333Y-73908628D01*
X40833333Y-73908628D02*
X41214285Y-73908628D01*
X39690476Y-74384819D02*
X40261904Y-74384819D01*
X39976190Y-74384819D02*
X39976190Y-73384819D01*
X39976190Y-73384819D02*
X40071428Y-73527676D01*
X40071428Y-73527676D02*
X40166666Y-73622914D01*
X40166666Y-73622914D02*
X40261904Y-73670533D01*
X38785714Y-73384819D02*
X39261904Y-73384819D01*
X39261904Y-73384819D02*
X39309523Y-73861009D01*
X39309523Y-73861009D02*
X39261904Y-73813390D01*
X39261904Y-73813390D02*
X39166666Y-73765771D01*
X39166666Y-73765771D02*
X38928571Y-73765771D01*
X38928571Y-73765771D02*
X38833333Y-73813390D01*
X38833333Y-73813390D02*
X38785714Y-73861009D01*
X38785714Y-73861009D02*
X38738095Y-73956247D01*
X38738095Y-73956247D02*
X38738095Y-74194342D01*
X38738095Y-74194342D02*
X38785714Y-74289580D01*
X38785714Y-74289580D02*
X38833333Y-74337200D01*
X38833333Y-74337200D02*
X38928571Y-74384819D01*
X38928571Y-74384819D02*
X39166666Y-74384819D01*
X39166666Y-74384819D02*
X39261904Y-74337200D01*
X39261904Y-74337200D02*
X39309523Y-74289580D01*
X21109580Y-37357142D02*
X21157200Y-37309523D01*
X21157200Y-37309523D02*
X21204819Y-37166666D01*
X21204819Y-37166666D02*
X21204819Y-37071428D01*
X21204819Y-37071428D02*
X21157200Y-36928571D01*
X21157200Y-36928571D02*
X21061961Y-36833333D01*
X21061961Y-36833333D02*
X20966723Y-36785714D01*
X20966723Y-36785714D02*
X20776247Y-36738095D01*
X20776247Y-36738095D02*
X20633390Y-36738095D01*
X20633390Y-36738095D02*
X20442914Y-36785714D01*
X20442914Y-36785714D02*
X20347676Y-36833333D01*
X20347676Y-36833333D02*
X20252438Y-36928571D01*
X20252438Y-36928571D02*
X20204819Y-37071428D01*
X20204819Y-37071428D02*
X20204819Y-37166666D01*
X20204819Y-37166666D02*
X20252438Y-37309523D01*
X20252438Y-37309523D02*
X20300057Y-37357142D01*
X20204819Y-38261904D02*
X20204819Y-37785714D01*
X20204819Y-37785714D02*
X20681009Y-37738095D01*
X20681009Y-37738095D02*
X20633390Y-37785714D01*
X20633390Y-37785714D02*
X20585771Y-37880952D01*
X20585771Y-37880952D02*
X20585771Y-38119047D01*
X20585771Y-38119047D02*
X20633390Y-38214285D01*
X20633390Y-38214285D02*
X20681009Y-38261904D01*
X20681009Y-38261904D02*
X20776247Y-38309523D01*
X20776247Y-38309523D02*
X21014342Y-38309523D01*
X21014342Y-38309523D02*
X21109580Y-38261904D01*
X21109580Y-38261904D02*
X21157200Y-38214285D01*
X21157200Y-38214285D02*
X21204819Y-38119047D01*
X21204819Y-38119047D02*
X21204819Y-37880952D01*
X21204819Y-37880952D02*
X21157200Y-37785714D01*
X21157200Y-37785714D02*
X21109580Y-37738095D01*
X20204819Y-39214285D02*
X20204819Y-38738095D01*
X20204819Y-38738095D02*
X20681009Y-38690476D01*
X20681009Y-38690476D02*
X20633390Y-38738095D01*
X20633390Y-38738095D02*
X20585771Y-38833333D01*
X20585771Y-38833333D02*
X20585771Y-39071428D01*
X20585771Y-39071428D02*
X20633390Y-39166666D01*
X20633390Y-39166666D02*
X20681009Y-39214285D01*
X20681009Y-39214285D02*
X20776247Y-39261904D01*
X20776247Y-39261904D02*
X21014342Y-39261904D01*
X21014342Y-39261904D02*
X21109580Y-39214285D01*
X21109580Y-39214285D02*
X21157200Y-39166666D01*
X21157200Y-39166666D02*
X21204819Y-39071428D01*
X21204819Y-39071428D02*
X21204819Y-38833333D01*
X21204819Y-38833333D02*
X21157200Y-38738095D01*
X21157200Y-38738095D02*
X21109580Y-38690476D01*
X27204819Y-31285714D02*
X26204819Y-31285714D01*
X26204819Y-31285714D02*
X26204819Y-31523809D01*
X26204819Y-31523809D02*
X26252438Y-31666666D01*
X26252438Y-31666666D02*
X26347676Y-31761904D01*
X26347676Y-31761904D02*
X26442914Y-31809523D01*
X26442914Y-31809523D02*
X26633390Y-31857142D01*
X26633390Y-31857142D02*
X26776247Y-31857142D01*
X26776247Y-31857142D02*
X26966723Y-31809523D01*
X26966723Y-31809523D02*
X27061961Y-31761904D01*
X27061961Y-31761904D02*
X27157200Y-31666666D01*
X27157200Y-31666666D02*
X27204819Y-31523809D01*
X27204819Y-31523809D02*
X27204819Y-31285714D01*
X27204819Y-32809523D02*
X27204819Y-32238095D01*
X27204819Y-32523809D02*
X26204819Y-32523809D01*
X26204819Y-32523809D02*
X26347676Y-32428571D01*
X26347676Y-32428571D02*
X26442914Y-32333333D01*
X26442914Y-32333333D02*
X26490533Y-32238095D01*
X26204819Y-33142857D02*
X26204819Y-33809523D01*
X26204819Y-33809523D02*
X27204819Y-33380952D01*
X36274819Y-54107142D02*
X35798628Y-53773809D01*
X36274819Y-53535714D02*
X35274819Y-53535714D01*
X35274819Y-53535714D02*
X35274819Y-53916666D01*
X35274819Y-53916666D02*
X35322438Y-54011904D01*
X35322438Y-54011904D02*
X35370057Y-54059523D01*
X35370057Y-54059523D02*
X35465295Y-54107142D01*
X35465295Y-54107142D02*
X35608152Y-54107142D01*
X35608152Y-54107142D02*
X35703390Y-54059523D01*
X35703390Y-54059523D02*
X35751009Y-54011904D01*
X35751009Y-54011904D02*
X35798628Y-53916666D01*
X35798628Y-53916666D02*
X35798628Y-53535714D01*
X36274819Y-55059523D02*
X36274819Y-54488095D01*
X36274819Y-54773809D02*
X35274819Y-54773809D01*
X35274819Y-54773809D02*
X35417676Y-54678571D01*
X35417676Y-54678571D02*
X35512914Y-54583333D01*
X35512914Y-54583333D02*
X35560533Y-54488095D01*
X36274819Y-56011904D02*
X36274819Y-55440476D01*
X36274819Y-55726190D02*
X35274819Y-55726190D01*
X35274819Y-55726190D02*
X35417676Y-55630952D01*
X35417676Y-55630952D02*
X35512914Y-55535714D01*
X35512914Y-55535714D02*
X35560533Y-55440476D01*
X24392857Y-17109580D02*
X24440476Y-17157200D01*
X24440476Y-17157200D02*
X24583333Y-17204819D01*
X24583333Y-17204819D02*
X24678571Y-17204819D01*
X24678571Y-17204819D02*
X24821428Y-17157200D01*
X24821428Y-17157200D02*
X24916666Y-17061961D01*
X24916666Y-17061961D02*
X24964285Y-16966723D01*
X24964285Y-16966723D02*
X25011904Y-16776247D01*
X25011904Y-16776247D02*
X25011904Y-16633390D01*
X25011904Y-16633390D02*
X24964285Y-16442914D01*
X24964285Y-16442914D02*
X24916666Y-16347676D01*
X24916666Y-16347676D02*
X24821428Y-16252438D01*
X24821428Y-16252438D02*
X24678571Y-16204819D01*
X24678571Y-16204819D02*
X24583333Y-16204819D01*
X24583333Y-16204819D02*
X24440476Y-16252438D01*
X24440476Y-16252438D02*
X24392857Y-16300057D01*
X24011904Y-16300057D02*
X23964285Y-16252438D01*
X23964285Y-16252438D02*
X23869047Y-16204819D01*
X23869047Y-16204819D02*
X23630952Y-16204819D01*
X23630952Y-16204819D02*
X23535714Y-16252438D01*
X23535714Y-16252438D02*
X23488095Y-16300057D01*
X23488095Y-16300057D02*
X23440476Y-16395295D01*
X23440476Y-16395295D02*
X23440476Y-16490533D01*
X23440476Y-16490533D02*
X23488095Y-16633390D01*
X23488095Y-16633390D02*
X24059523Y-17204819D01*
X24059523Y-17204819D02*
X23440476Y-17204819D01*
X22535714Y-16204819D02*
X23011904Y-16204819D01*
X23011904Y-16204819D02*
X23059523Y-16681009D01*
X23059523Y-16681009D02*
X23011904Y-16633390D01*
X23011904Y-16633390D02*
X22916666Y-16585771D01*
X22916666Y-16585771D02*
X22678571Y-16585771D01*
X22678571Y-16585771D02*
X22583333Y-16633390D01*
X22583333Y-16633390D02*
X22535714Y-16681009D01*
X22535714Y-16681009D02*
X22488095Y-16776247D01*
X22488095Y-16776247D02*
X22488095Y-17014342D01*
X22488095Y-17014342D02*
X22535714Y-17109580D01*
X22535714Y-17109580D02*
X22583333Y-17157200D01*
X22583333Y-17157200D02*
X22678571Y-17204819D01*
X22678571Y-17204819D02*
X22916666Y-17204819D01*
X22916666Y-17204819D02*
X23011904Y-17157200D01*
X23011904Y-17157200D02*
X23059523Y-17109580D01*
X63274819Y-84333333D02*
X62798628Y-84000000D01*
X63274819Y-83761905D02*
X62274819Y-83761905D01*
X62274819Y-83761905D02*
X62274819Y-84142857D01*
X62274819Y-84142857D02*
X62322438Y-84238095D01*
X62322438Y-84238095D02*
X62370057Y-84285714D01*
X62370057Y-84285714D02*
X62465295Y-84333333D01*
X62465295Y-84333333D02*
X62608152Y-84333333D01*
X62608152Y-84333333D02*
X62703390Y-84285714D01*
X62703390Y-84285714D02*
X62751009Y-84238095D01*
X62751009Y-84238095D02*
X62798628Y-84142857D01*
X62798628Y-84142857D02*
X62798628Y-83761905D01*
X62370057Y-84714286D02*
X62322438Y-84761905D01*
X62322438Y-84761905D02*
X62274819Y-84857143D01*
X62274819Y-84857143D02*
X62274819Y-85095238D01*
X62274819Y-85095238D02*
X62322438Y-85190476D01*
X62322438Y-85190476D02*
X62370057Y-85238095D01*
X62370057Y-85238095D02*
X62465295Y-85285714D01*
X62465295Y-85285714D02*
X62560533Y-85285714D01*
X62560533Y-85285714D02*
X62703390Y-85238095D01*
X62703390Y-85238095D02*
X63274819Y-84666667D01*
X63274819Y-84666667D02*
X63274819Y-85285714D01*
X52892857Y-59539580D02*
X52940476Y-59587200D01*
X52940476Y-59587200D02*
X53083333Y-59634819D01*
X53083333Y-59634819D02*
X53178571Y-59634819D01*
X53178571Y-59634819D02*
X53321428Y-59587200D01*
X53321428Y-59587200D02*
X53416666Y-59491961D01*
X53416666Y-59491961D02*
X53464285Y-59396723D01*
X53464285Y-59396723D02*
X53511904Y-59206247D01*
X53511904Y-59206247D02*
X53511904Y-59063390D01*
X53511904Y-59063390D02*
X53464285Y-58872914D01*
X53464285Y-58872914D02*
X53416666Y-58777676D01*
X53416666Y-58777676D02*
X53321428Y-58682438D01*
X53321428Y-58682438D02*
X53178571Y-58634819D01*
X53178571Y-58634819D02*
X53083333Y-58634819D01*
X53083333Y-58634819D02*
X52940476Y-58682438D01*
X52940476Y-58682438D02*
X52892857Y-58730057D01*
X52559523Y-58634819D02*
X51940476Y-58634819D01*
X51940476Y-58634819D02*
X52273809Y-59015771D01*
X52273809Y-59015771D02*
X52130952Y-59015771D01*
X52130952Y-59015771D02*
X52035714Y-59063390D01*
X52035714Y-59063390D02*
X51988095Y-59111009D01*
X51988095Y-59111009D02*
X51940476Y-59206247D01*
X51940476Y-59206247D02*
X51940476Y-59444342D01*
X51940476Y-59444342D02*
X51988095Y-59539580D01*
X51988095Y-59539580D02*
X52035714Y-59587200D01*
X52035714Y-59587200D02*
X52130952Y-59634819D01*
X52130952Y-59634819D02*
X52416666Y-59634819D01*
X52416666Y-59634819D02*
X52511904Y-59587200D01*
X52511904Y-59587200D02*
X52559523Y-59539580D01*
X51083333Y-58968152D02*
X51083333Y-59634819D01*
X51321428Y-58587200D02*
X51559523Y-59301485D01*
X51559523Y-59301485D02*
X50940476Y-59301485D01*
X27728094Y-78594819D02*
X27728094Y-77594819D01*
X27728094Y-77594819D02*
X27489999Y-77594819D01*
X27489999Y-77594819D02*
X27347142Y-77642438D01*
X27347142Y-77642438D02*
X27251904Y-77737676D01*
X27251904Y-77737676D02*
X27204285Y-77832914D01*
X27204285Y-77832914D02*
X27156666Y-78023390D01*
X27156666Y-78023390D02*
X27156666Y-78166247D01*
X27156666Y-78166247D02*
X27204285Y-78356723D01*
X27204285Y-78356723D02*
X27251904Y-78451961D01*
X27251904Y-78451961D02*
X27347142Y-78547200D01*
X27347142Y-78547200D02*
X27489999Y-78594819D01*
X27489999Y-78594819D02*
X27728094Y-78594819D01*
X26585237Y-78023390D02*
X26680475Y-77975771D01*
X26680475Y-77975771D02*
X26728094Y-77928152D01*
X26728094Y-77928152D02*
X26775713Y-77832914D01*
X26775713Y-77832914D02*
X26775713Y-77785295D01*
X26775713Y-77785295D02*
X26728094Y-77690057D01*
X26728094Y-77690057D02*
X26680475Y-77642438D01*
X26680475Y-77642438D02*
X26585237Y-77594819D01*
X26585237Y-77594819D02*
X26394761Y-77594819D01*
X26394761Y-77594819D02*
X26299523Y-77642438D01*
X26299523Y-77642438D02*
X26251904Y-77690057D01*
X26251904Y-77690057D02*
X26204285Y-77785295D01*
X26204285Y-77785295D02*
X26204285Y-77832914D01*
X26204285Y-77832914D02*
X26251904Y-77928152D01*
X26251904Y-77928152D02*
X26299523Y-77975771D01*
X26299523Y-77975771D02*
X26394761Y-78023390D01*
X26394761Y-78023390D02*
X26585237Y-78023390D01*
X26585237Y-78023390D02*
X26680475Y-78071009D01*
X26680475Y-78071009D02*
X26728094Y-78118628D01*
X26728094Y-78118628D02*
X26775713Y-78213866D01*
X26775713Y-78213866D02*
X26775713Y-78404342D01*
X26775713Y-78404342D02*
X26728094Y-78499580D01*
X26728094Y-78499580D02*
X26680475Y-78547200D01*
X26680475Y-78547200D02*
X26585237Y-78594819D01*
X26585237Y-78594819D02*
X26394761Y-78594819D01*
X26394761Y-78594819D02*
X26299523Y-78547200D01*
X26299523Y-78547200D02*
X26251904Y-78499580D01*
X26251904Y-78499580D02*
X26204285Y-78404342D01*
X26204285Y-78404342D02*
X26204285Y-78213866D01*
X26204285Y-78213866D02*
X26251904Y-78118628D01*
X26251904Y-78118628D02*
X26299523Y-78071009D01*
X26299523Y-78071009D02*
X26394761Y-78023390D01*
X40642857Y-65679580D02*
X40690476Y-65727200D01*
X40690476Y-65727200D02*
X40833333Y-65774819D01*
X40833333Y-65774819D02*
X40928571Y-65774819D01*
X40928571Y-65774819D02*
X41071428Y-65727200D01*
X41071428Y-65727200D02*
X41166666Y-65631961D01*
X41166666Y-65631961D02*
X41214285Y-65536723D01*
X41214285Y-65536723D02*
X41261904Y-65346247D01*
X41261904Y-65346247D02*
X41261904Y-65203390D01*
X41261904Y-65203390D02*
X41214285Y-65012914D01*
X41214285Y-65012914D02*
X41166666Y-64917676D01*
X41166666Y-64917676D02*
X41071428Y-64822438D01*
X41071428Y-64822438D02*
X40928571Y-64774819D01*
X40928571Y-64774819D02*
X40833333Y-64774819D01*
X40833333Y-64774819D02*
X40690476Y-64822438D01*
X40690476Y-64822438D02*
X40642857Y-64870057D01*
X39785714Y-65108152D02*
X39785714Y-65774819D01*
X40023809Y-64727200D02*
X40261904Y-65441485D01*
X40261904Y-65441485D02*
X39642857Y-65441485D01*
X39357142Y-64774819D02*
X38738095Y-64774819D01*
X38738095Y-64774819D02*
X39071428Y-65155771D01*
X39071428Y-65155771D02*
X38928571Y-65155771D01*
X38928571Y-65155771D02*
X38833333Y-65203390D01*
X38833333Y-65203390D02*
X38785714Y-65251009D01*
X38785714Y-65251009D02*
X38738095Y-65346247D01*
X38738095Y-65346247D02*
X38738095Y-65584342D01*
X38738095Y-65584342D02*
X38785714Y-65679580D01*
X38785714Y-65679580D02*
X38833333Y-65727200D01*
X38833333Y-65727200D02*
X38928571Y-65774819D01*
X38928571Y-65774819D02*
X39214285Y-65774819D01*
X39214285Y-65774819D02*
X39309523Y-65727200D01*
X39309523Y-65727200D02*
X39357142Y-65679580D01*
X21204819Y-34607142D02*
X20728628Y-34273809D01*
X21204819Y-34035714D02*
X20204819Y-34035714D01*
X20204819Y-34035714D02*
X20204819Y-34416666D01*
X20204819Y-34416666D02*
X20252438Y-34511904D01*
X20252438Y-34511904D02*
X20300057Y-34559523D01*
X20300057Y-34559523D02*
X20395295Y-34607142D01*
X20395295Y-34607142D02*
X20538152Y-34607142D01*
X20538152Y-34607142D02*
X20633390Y-34559523D01*
X20633390Y-34559523D02*
X20681009Y-34511904D01*
X20681009Y-34511904D02*
X20728628Y-34416666D01*
X20728628Y-34416666D02*
X20728628Y-34035714D01*
X20300057Y-34988095D02*
X20252438Y-35035714D01*
X20252438Y-35035714D02*
X20204819Y-35130952D01*
X20204819Y-35130952D02*
X20204819Y-35369047D01*
X20204819Y-35369047D02*
X20252438Y-35464285D01*
X20252438Y-35464285D02*
X20300057Y-35511904D01*
X20300057Y-35511904D02*
X20395295Y-35559523D01*
X20395295Y-35559523D02*
X20490533Y-35559523D01*
X20490533Y-35559523D02*
X20633390Y-35511904D01*
X20633390Y-35511904D02*
X21204819Y-34940476D01*
X21204819Y-34940476D02*
X21204819Y-35559523D01*
X20204819Y-36464285D02*
X20204819Y-35988095D01*
X20204819Y-35988095D02*
X20681009Y-35940476D01*
X20681009Y-35940476D02*
X20633390Y-35988095D01*
X20633390Y-35988095D02*
X20585771Y-36083333D01*
X20585771Y-36083333D02*
X20585771Y-36321428D01*
X20585771Y-36321428D02*
X20633390Y-36416666D01*
X20633390Y-36416666D02*
X20681009Y-36464285D01*
X20681009Y-36464285D02*
X20776247Y-36511904D01*
X20776247Y-36511904D02*
X21014342Y-36511904D01*
X21014342Y-36511904D02*
X21109580Y-36464285D01*
X21109580Y-36464285D02*
X21157200Y-36416666D01*
X21157200Y-36416666D02*
X21204819Y-36321428D01*
X21204819Y-36321428D02*
X21204819Y-36083333D01*
X21204819Y-36083333D02*
X21157200Y-35988095D01*
X21157200Y-35988095D02*
X21109580Y-35940476D01*
X35988094Y-58454819D02*
X35988094Y-57454819D01*
X35988094Y-57454819D02*
X35749999Y-57454819D01*
X35749999Y-57454819D02*
X35607142Y-57502438D01*
X35607142Y-57502438D02*
X35511904Y-57597676D01*
X35511904Y-57597676D02*
X35464285Y-57692914D01*
X35464285Y-57692914D02*
X35416666Y-57883390D01*
X35416666Y-57883390D02*
X35416666Y-58026247D01*
X35416666Y-58026247D02*
X35464285Y-58216723D01*
X35464285Y-58216723D02*
X35511904Y-58311961D01*
X35511904Y-58311961D02*
X35607142Y-58407200D01*
X35607142Y-58407200D02*
X35749999Y-58454819D01*
X35749999Y-58454819D02*
X35988094Y-58454819D01*
X34464285Y-58454819D02*
X35035713Y-58454819D01*
X34749999Y-58454819D02*
X34749999Y-57454819D01*
X34749999Y-57454819D02*
X34845237Y-57597676D01*
X34845237Y-57597676D02*
X34940475Y-57692914D01*
X34940475Y-57692914D02*
X35035713Y-57740533D01*
X24274819Y-72607142D02*
X23798628Y-72273809D01*
X24274819Y-72035714D02*
X23274819Y-72035714D01*
X23274819Y-72035714D02*
X23274819Y-72416666D01*
X23274819Y-72416666D02*
X23322438Y-72511904D01*
X23322438Y-72511904D02*
X23370057Y-72559523D01*
X23370057Y-72559523D02*
X23465295Y-72607142D01*
X23465295Y-72607142D02*
X23608152Y-72607142D01*
X23608152Y-72607142D02*
X23703390Y-72559523D01*
X23703390Y-72559523D02*
X23751009Y-72511904D01*
X23751009Y-72511904D02*
X23798628Y-72416666D01*
X23798628Y-72416666D02*
X23798628Y-72035714D01*
X24274819Y-73559523D02*
X24274819Y-72988095D01*
X24274819Y-73273809D02*
X23274819Y-73273809D01*
X23274819Y-73273809D02*
X23417676Y-73178571D01*
X23417676Y-73178571D02*
X23512914Y-73083333D01*
X23512914Y-73083333D02*
X23560533Y-72988095D01*
X23274819Y-74178571D02*
X23274819Y-74273809D01*
X23274819Y-74273809D02*
X23322438Y-74369047D01*
X23322438Y-74369047D02*
X23370057Y-74416666D01*
X23370057Y-74416666D02*
X23465295Y-74464285D01*
X23465295Y-74464285D02*
X23655771Y-74511904D01*
X23655771Y-74511904D02*
X23893866Y-74511904D01*
X23893866Y-74511904D02*
X24084342Y-74464285D01*
X24084342Y-74464285D02*
X24179580Y-74416666D01*
X24179580Y-74416666D02*
X24227200Y-74369047D01*
X24227200Y-74369047D02*
X24274819Y-74273809D01*
X24274819Y-74273809D02*
X24274819Y-74178571D01*
X24274819Y-74178571D02*
X24227200Y-74083333D01*
X24227200Y-74083333D02*
X24179580Y-74035714D01*
X24179580Y-74035714D02*
X24084342Y-73988095D01*
X24084342Y-73988095D02*
X23893866Y-73940476D01*
X23893866Y-73940476D02*
X23655771Y-73940476D01*
X23655771Y-73940476D02*
X23465295Y-73988095D01*
X23465295Y-73988095D02*
X23370057Y-74035714D01*
X23370057Y-74035714D02*
X23322438Y-74083333D01*
X23322438Y-74083333D02*
X23274819Y-74178571D01*
X40642857Y-69179580D02*
X40690476Y-69227200D01*
X40690476Y-69227200D02*
X40833333Y-69274819D01*
X40833333Y-69274819D02*
X40928571Y-69274819D01*
X40928571Y-69274819D02*
X41071428Y-69227200D01*
X41071428Y-69227200D02*
X41166666Y-69131961D01*
X41166666Y-69131961D02*
X41214285Y-69036723D01*
X41214285Y-69036723D02*
X41261904Y-68846247D01*
X41261904Y-68846247D02*
X41261904Y-68703390D01*
X41261904Y-68703390D02*
X41214285Y-68512914D01*
X41214285Y-68512914D02*
X41166666Y-68417676D01*
X41166666Y-68417676D02*
X41071428Y-68322438D01*
X41071428Y-68322438D02*
X40928571Y-68274819D01*
X40928571Y-68274819D02*
X40833333Y-68274819D01*
X40833333Y-68274819D02*
X40690476Y-68322438D01*
X40690476Y-68322438D02*
X40642857Y-68370057D01*
X39738095Y-68274819D02*
X40214285Y-68274819D01*
X40214285Y-68274819D02*
X40261904Y-68751009D01*
X40261904Y-68751009D02*
X40214285Y-68703390D01*
X40214285Y-68703390D02*
X40119047Y-68655771D01*
X40119047Y-68655771D02*
X39880952Y-68655771D01*
X39880952Y-68655771D02*
X39785714Y-68703390D01*
X39785714Y-68703390D02*
X39738095Y-68751009D01*
X39738095Y-68751009D02*
X39690476Y-68846247D01*
X39690476Y-68846247D02*
X39690476Y-69084342D01*
X39690476Y-69084342D02*
X39738095Y-69179580D01*
X39738095Y-69179580D02*
X39785714Y-69227200D01*
X39785714Y-69227200D02*
X39880952Y-69274819D01*
X39880952Y-69274819D02*
X40119047Y-69274819D01*
X40119047Y-69274819D02*
X40214285Y-69227200D01*
X40214285Y-69227200D02*
X40261904Y-69179580D01*
X38738095Y-69274819D02*
X39309523Y-69274819D01*
X39023809Y-69274819D02*
X39023809Y-68274819D01*
X39023809Y-68274819D02*
X39119047Y-68417676D01*
X39119047Y-68417676D02*
X39214285Y-68512914D01*
X39214285Y-68512914D02*
X39309523Y-68560533D01*
X51859580Y-36857142D02*
X51907200Y-36809523D01*
X51907200Y-36809523D02*
X51954819Y-36666666D01*
X51954819Y-36666666D02*
X51954819Y-36571428D01*
X51954819Y-36571428D02*
X51907200Y-36428571D01*
X51907200Y-36428571D02*
X51811961Y-36333333D01*
X51811961Y-36333333D02*
X51716723Y-36285714D01*
X51716723Y-36285714D02*
X51526247Y-36238095D01*
X51526247Y-36238095D02*
X51383390Y-36238095D01*
X51383390Y-36238095D02*
X51192914Y-36285714D01*
X51192914Y-36285714D02*
X51097676Y-36333333D01*
X51097676Y-36333333D02*
X51002438Y-36428571D01*
X51002438Y-36428571D02*
X50954819Y-36571428D01*
X50954819Y-36571428D02*
X50954819Y-36666666D01*
X50954819Y-36666666D02*
X51002438Y-36809523D01*
X51002438Y-36809523D02*
X51050057Y-36857142D01*
X51050057Y-37238095D02*
X51002438Y-37285714D01*
X51002438Y-37285714D02*
X50954819Y-37380952D01*
X50954819Y-37380952D02*
X50954819Y-37619047D01*
X50954819Y-37619047D02*
X51002438Y-37714285D01*
X51002438Y-37714285D02*
X51050057Y-37761904D01*
X51050057Y-37761904D02*
X51145295Y-37809523D01*
X51145295Y-37809523D02*
X51240533Y-37809523D01*
X51240533Y-37809523D02*
X51383390Y-37761904D01*
X51383390Y-37761904D02*
X51954819Y-37190476D01*
X51954819Y-37190476D02*
X51954819Y-37809523D01*
X50954819Y-38428571D02*
X50954819Y-38523809D01*
X50954819Y-38523809D02*
X51002438Y-38619047D01*
X51002438Y-38619047D02*
X51050057Y-38666666D01*
X51050057Y-38666666D02*
X51145295Y-38714285D01*
X51145295Y-38714285D02*
X51335771Y-38761904D01*
X51335771Y-38761904D02*
X51573866Y-38761904D01*
X51573866Y-38761904D02*
X51764342Y-38714285D01*
X51764342Y-38714285D02*
X51859580Y-38666666D01*
X51859580Y-38666666D02*
X51907200Y-38619047D01*
X51907200Y-38619047D02*
X51954819Y-38523809D01*
X51954819Y-38523809D02*
X51954819Y-38428571D01*
X51954819Y-38428571D02*
X51907200Y-38333333D01*
X51907200Y-38333333D02*
X51859580Y-38285714D01*
X51859580Y-38285714D02*
X51764342Y-38238095D01*
X51764342Y-38238095D02*
X51573866Y-38190476D01*
X51573866Y-38190476D02*
X51335771Y-38190476D01*
X51335771Y-38190476D02*
X51145295Y-38238095D01*
X51145295Y-38238095D02*
X51050057Y-38285714D01*
X51050057Y-38285714D02*
X51002438Y-38333333D01*
X51002438Y-38333333D02*
X50954819Y-38428571D01*
X47454819Y-28488095D02*
X48264342Y-28488095D01*
X48264342Y-28488095D02*
X48359580Y-28535714D01*
X48359580Y-28535714D02*
X48407200Y-28583333D01*
X48407200Y-28583333D02*
X48454819Y-28678571D01*
X48454819Y-28678571D02*
X48454819Y-28869047D01*
X48454819Y-28869047D02*
X48407200Y-28964285D01*
X48407200Y-28964285D02*
X48359580Y-29011904D01*
X48359580Y-29011904D02*
X48264342Y-29059523D01*
X48264342Y-29059523D02*
X47454819Y-29059523D01*
X47454819Y-29964285D02*
X47454819Y-29773809D01*
X47454819Y-29773809D02*
X47502438Y-29678571D01*
X47502438Y-29678571D02*
X47550057Y-29630952D01*
X47550057Y-29630952D02*
X47692914Y-29535714D01*
X47692914Y-29535714D02*
X47883390Y-29488095D01*
X47883390Y-29488095D02*
X48264342Y-29488095D01*
X48264342Y-29488095D02*
X48359580Y-29535714D01*
X48359580Y-29535714D02*
X48407200Y-29583333D01*
X48407200Y-29583333D02*
X48454819Y-29678571D01*
X48454819Y-29678571D02*
X48454819Y-29869047D01*
X48454819Y-29869047D02*
X48407200Y-29964285D01*
X48407200Y-29964285D02*
X48359580Y-30011904D01*
X48359580Y-30011904D02*
X48264342Y-30059523D01*
X48264342Y-30059523D02*
X48026247Y-30059523D01*
X48026247Y-30059523D02*
X47931009Y-30011904D01*
X47931009Y-30011904D02*
X47883390Y-29964285D01*
X47883390Y-29964285D02*
X47835771Y-29869047D01*
X47835771Y-29869047D02*
X47835771Y-29678571D01*
X47835771Y-29678571D02*
X47883390Y-29583333D01*
X47883390Y-29583333D02*
X47931009Y-29535714D01*
X47931009Y-29535714D02*
X48026247Y-29488095D01*
X36429580Y-67107142D02*
X36477200Y-67059523D01*
X36477200Y-67059523D02*
X36524819Y-66916666D01*
X36524819Y-66916666D02*
X36524819Y-66821428D01*
X36524819Y-66821428D02*
X36477200Y-66678571D01*
X36477200Y-66678571D02*
X36381961Y-66583333D01*
X36381961Y-66583333D02*
X36286723Y-66535714D01*
X36286723Y-66535714D02*
X36096247Y-66488095D01*
X36096247Y-66488095D02*
X35953390Y-66488095D01*
X35953390Y-66488095D02*
X35762914Y-66535714D01*
X35762914Y-66535714D02*
X35667676Y-66583333D01*
X35667676Y-66583333D02*
X35572438Y-66678571D01*
X35572438Y-66678571D02*
X35524819Y-66821428D01*
X35524819Y-66821428D02*
X35524819Y-66916666D01*
X35524819Y-66916666D02*
X35572438Y-67059523D01*
X35572438Y-67059523D02*
X35620057Y-67107142D01*
X35620057Y-67488095D02*
X35572438Y-67535714D01*
X35572438Y-67535714D02*
X35524819Y-67630952D01*
X35524819Y-67630952D02*
X35524819Y-67869047D01*
X35524819Y-67869047D02*
X35572438Y-67964285D01*
X35572438Y-67964285D02*
X35620057Y-68011904D01*
X35620057Y-68011904D02*
X35715295Y-68059523D01*
X35715295Y-68059523D02*
X35810533Y-68059523D01*
X35810533Y-68059523D02*
X35953390Y-68011904D01*
X35953390Y-68011904D02*
X36524819Y-67440476D01*
X36524819Y-67440476D02*
X36524819Y-68059523D01*
X35524819Y-68916666D02*
X35524819Y-68726190D01*
X35524819Y-68726190D02*
X35572438Y-68630952D01*
X35572438Y-68630952D02*
X35620057Y-68583333D01*
X35620057Y-68583333D02*
X35762914Y-68488095D01*
X35762914Y-68488095D02*
X35953390Y-68440476D01*
X35953390Y-68440476D02*
X36334342Y-68440476D01*
X36334342Y-68440476D02*
X36429580Y-68488095D01*
X36429580Y-68488095D02*
X36477200Y-68535714D01*
X36477200Y-68535714D02*
X36524819Y-68630952D01*
X36524819Y-68630952D02*
X36524819Y-68821428D01*
X36524819Y-68821428D02*
X36477200Y-68916666D01*
X36477200Y-68916666D02*
X36429580Y-68964285D01*
X36429580Y-68964285D02*
X36334342Y-69011904D01*
X36334342Y-69011904D02*
X36096247Y-69011904D01*
X36096247Y-69011904D02*
X36001009Y-68964285D01*
X36001009Y-68964285D02*
X35953390Y-68916666D01*
X35953390Y-68916666D02*
X35905771Y-68821428D01*
X35905771Y-68821428D02*
X35905771Y-68630952D01*
X35905771Y-68630952D02*
X35953390Y-68535714D01*
X35953390Y-68535714D02*
X36001009Y-68488095D01*
X36001009Y-68488095D02*
X36096247Y-68440476D01*
X33929580Y-69469642D02*
X33977200Y-69422023D01*
X33977200Y-69422023D02*
X34024819Y-69279166D01*
X34024819Y-69279166D02*
X34024819Y-69183928D01*
X34024819Y-69183928D02*
X33977200Y-69041071D01*
X33977200Y-69041071D02*
X33881961Y-68945833D01*
X33881961Y-68945833D02*
X33786723Y-68898214D01*
X33786723Y-68898214D02*
X33596247Y-68850595D01*
X33596247Y-68850595D02*
X33453390Y-68850595D01*
X33453390Y-68850595D02*
X33262914Y-68898214D01*
X33262914Y-68898214D02*
X33167676Y-68945833D01*
X33167676Y-68945833D02*
X33072438Y-69041071D01*
X33072438Y-69041071D02*
X33024819Y-69183928D01*
X33024819Y-69183928D02*
X33024819Y-69279166D01*
X33024819Y-69279166D02*
X33072438Y-69422023D01*
X33072438Y-69422023D02*
X33120057Y-69469642D01*
X34024819Y-70422023D02*
X34024819Y-69850595D01*
X34024819Y-70136309D02*
X33024819Y-70136309D01*
X33024819Y-70136309D02*
X33167676Y-70041071D01*
X33167676Y-70041071D02*
X33262914Y-69945833D01*
X33262914Y-69945833D02*
X33310533Y-69850595D01*
X34024819Y-71374404D02*
X34024819Y-70802976D01*
X34024819Y-71088690D02*
X33024819Y-71088690D01*
X33024819Y-71088690D02*
X33167676Y-70993452D01*
X33167676Y-70993452D02*
X33262914Y-70898214D01*
X33262914Y-70898214D02*
X33310533Y-70802976D01*
X42384819Y-83833333D02*
X41908628Y-83500000D01*
X42384819Y-83261905D02*
X41384819Y-83261905D01*
X41384819Y-83261905D02*
X41384819Y-83642857D01*
X41384819Y-83642857D02*
X41432438Y-83738095D01*
X41432438Y-83738095D02*
X41480057Y-83785714D01*
X41480057Y-83785714D02*
X41575295Y-83833333D01*
X41575295Y-83833333D02*
X41718152Y-83833333D01*
X41718152Y-83833333D02*
X41813390Y-83785714D01*
X41813390Y-83785714D02*
X41861009Y-83738095D01*
X41861009Y-83738095D02*
X41908628Y-83642857D01*
X41908628Y-83642857D02*
X41908628Y-83261905D01*
X41718152Y-84690476D02*
X42384819Y-84690476D01*
X41337200Y-84452381D02*
X42051485Y-84214286D01*
X42051485Y-84214286D02*
X42051485Y-84833333D01*
X41289580Y-49357142D02*
X41337200Y-49309523D01*
X41337200Y-49309523D02*
X41384819Y-49166666D01*
X41384819Y-49166666D02*
X41384819Y-49071428D01*
X41384819Y-49071428D02*
X41337200Y-48928571D01*
X41337200Y-48928571D02*
X41241961Y-48833333D01*
X41241961Y-48833333D02*
X41146723Y-48785714D01*
X41146723Y-48785714D02*
X40956247Y-48738095D01*
X40956247Y-48738095D02*
X40813390Y-48738095D01*
X40813390Y-48738095D02*
X40622914Y-48785714D01*
X40622914Y-48785714D02*
X40527676Y-48833333D01*
X40527676Y-48833333D02*
X40432438Y-48928571D01*
X40432438Y-48928571D02*
X40384819Y-49071428D01*
X40384819Y-49071428D02*
X40384819Y-49166666D01*
X40384819Y-49166666D02*
X40432438Y-49309523D01*
X40432438Y-49309523D02*
X40480057Y-49357142D01*
X40384819Y-49690476D02*
X40384819Y-50309523D01*
X40384819Y-50309523D02*
X40765771Y-49976190D01*
X40765771Y-49976190D02*
X40765771Y-50119047D01*
X40765771Y-50119047D02*
X40813390Y-50214285D01*
X40813390Y-50214285D02*
X40861009Y-50261904D01*
X40861009Y-50261904D02*
X40956247Y-50309523D01*
X40956247Y-50309523D02*
X41194342Y-50309523D01*
X41194342Y-50309523D02*
X41289580Y-50261904D01*
X41289580Y-50261904D02*
X41337200Y-50214285D01*
X41337200Y-50214285D02*
X41384819Y-50119047D01*
X41384819Y-50119047D02*
X41384819Y-49833333D01*
X41384819Y-49833333D02*
X41337200Y-49738095D01*
X41337200Y-49738095D02*
X41289580Y-49690476D01*
X41384819Y-51261904D02*
X41384819Y-50690476D01*
X41384819Y-50976190D02*
X40384819Y-50976190D01*
X40384819Y-50976190D02*
X40527676Y-50880952D01*
X40527676Y-50880952D02*
X40622914Y-50785714D01*
X40622914Y-50785714D02*
X40670533Y-50690476D01*
X30392857Y-70539580D02*
X30440476Y-70587200D01*
X30440476Y-70587200D02*
X30583333Y-70634819D01*
X30583333Y-70634819D02*
X30678571Y-70634819D01*
X30678571Y-70634819D02*
X30821428Y-70587200D01*
X30821428Y-70587200D02*
X30916666Y-70491961D01*
X30916666Y-70491961D02*
X30964285Y-70396723D01*
X30964285Y-70396723D02*
X31011904Y-70206247D01*
X31011904Y-70206247D02*
X31011904Y-70063390D01*
X31011904Y-70063390D02*
X30964285Y-69872914D01*
X30964285Y-69872914D02*
X30916666Y-69777676D01*
X30916666Y-69777676D02*
X30821428Y-69682438D01*
X30821428Y-69682438D02*
X30678571Y-69634819D01*
X30678571Y-69634819D02*
X30583333Y-69634819D01*
X30583333Y-69634819D02*
X30440476Y-69682438D01*
X30440476Y-69682438D02*
X30392857Y-69730057D01*
X29440476Y-70634819D02*
X30011904Y-70634819D01*
X29726190Y-70634819D02*
X29726190Y-69634819D01*
X29726190Y-69634819D02*
X29821428Y-69777676D01*
X29821428Y-69777676D02*
X29916666Y-69872914D01*
X29916666Y-69872914D02*
X30011904Y-69920533D01*
X28869047Y-70063390D02*
X28964285Y-70015771D01*
X28964285Y-70015771D02*
X29011904Y-69968152D01*
X29011904Y-69968152D02*
X29059523Y-69872914D01*
X29059523Y-69872914D02*
X29059523Y-69825295D01*
X29059523Y-69825295D02*
X29011904Y-69730057D01*
X29011904Y-69730057D02*
X28964285Y-69682438D01*
X28964285Y-69682438D02*
X28869047Y-69634819D01*
X28869047Y-69634819D02*
X28678571Y-69634819D01*
X28678571Y-69634819D02*
X28583333Y-69682438D01*
X28583333Y-69682438D02*
X28535714Y-69730057D01*
X28535714Y-69730057D02*
X28488095Y-69825295D01*
X28488095Y-69825295D02*
X28488095Y-69872914D01*
X28488095Y-69872914D02*
X28535714Y-69968152D01*
X28535714Y-69968152D02*
X28583333Y-70015771D01*
X28583333Y-70015771D02*
X28678571Y-70063390D01*
X28678571Y-70063390D02*
X28869047Y-70063390D01*
X28869047Y-70063390D02*
X28964285Y-70111009D01*
X28964285Y-70111009D02*
X29011904Y-70158628D01*
X29011904Y-70158628D02*
X29059523Y-70253866D01*
X29059523Y-70253866D02*
X29059523Y-70444342D01*
X29059523Y-70444342D02*
X29011904Y-70539580D01*
X29011904Y-70539580D02*
X28964285Y-70587200D01*
X28964285Y-70587200D02*
X28869047Y-70634819D01*
X28869047Y-70634819D02*
X28678571Y-70634819D01*
X28678571Y-70634819D02*
X28583333Y-70587200D01*
X28583333Y-70587200D02*
X28535714Y-70539580D01*
X28535714Y-70539580D02*
X28488095Y-70444342D01*
X28488095Y-70444342D02*
X28488095Y-70253866D01*
X28488095Y-70253866D02*
X28535714Y-70158628D01*
X28535714Y-70158628D02*
X28583333Y-70111009D01*
X28583333Y-70111009D02*
X28678571Y-70063390D01*
X20064819Y-67775714D02*
X19064819Y-67775714D01*
X19064819Y-67775714D02*
X19064819Y-68013809D01*
X19064819Y-68013809D02*
X19112438Y-68156666D01*
X19112438Y-68156666D02*
X19207676Y-68251904D01*
X19207676Y-68251904D02*
X19302914Y-68299523D01*
X19302914Y-68299523D02*
X19493390Y-68347142D01*
X19493390Y-68347142D02*
X19636247Y-68347142D01*
X19636247Y-68347142D02*
X19826723Y-68299523D01*
X19826723Y-68299523D02*
X19921961Y-68251904D01*
X19921961Y-68251904D02*
X20017200Y-68156666D01*
X20017200Y-68156666D02*
X20064819Y-68013809D01*
X20064819Y-68013809D02*
X20064819Y-67775714D01*
X20064819Y-69299523D02*
X20064819Y-68728095D01*
X20064819Y-69013809D02*
X19064819Y-69013809D01*
X19064819Y-69013809D02*
X19207676Y-68918571D01*
X19207676Y-68918571D02*
X19302914Y-68823333D01*
X19302914Y-68823333D02*
X19350533Y-68728095D01*
X19064819Y-70204285D02*
X19064819Y-69728095D01*
X19064819Y-69728095D02*
X19541009Y-69680476D01*
X19541009Y-69680476D02*
X19493390Y-69728095D01*
X19493390Y-69728095D02*
X19445771Y-69823333D01*
X19445771Y-69823333D02*
X19445771Y-70061428D01*
X19445771Y-70061428D02*
X19493390Y-70156666D01*
X19493390Y-70156666D02*
X19541009Y-70204285D01*
X19541009Y-70204285D02*
X19636247Y-70251904D01*
X19636247Y-70251904D02*
X19874342Y-70251904D01*
X19874342Y-70251904D02*
X19969580Y-70204285D01*
X19969580Y-70204285D02*
X20017200Y-70156666D01*
X20017200Y-70156666D02*
X20064819Y-70061428D01*
X20064819Y-70061428D02*
X20064819Y-69823333D01*
X20064819Y-69823333D02*
X20017200Y-69728095D01*
X20017200Y-69728095D02*
X19969580Y-69680476D01*
X22884819Y-78857142D02*
X22408628Y-78523809D01*
X22884819Y-78285714D02*
X21884819Y-78285714D01*
X21884819Y-78285714D02*
X21884819Y-78666666D01*
X21884819Y-78666666D02*
X21932438Y-78761904D01*
X21932438Y-78761904D02*
X21980057Y-78809523D01*
X21980057Y-78809523D02*
X22075295Y-78857142D01*
X22075295Y-78857142D02*
X22218152Y-78857142D01*
X22218152Y-78857142D02*
X22313390Y-78809523D01*
X22313390Y-78809523D02*
X22361009Y-78761904D01*
X22361009Y-78761904D02*
X22408628Y-78666666D01*
X22408628Y-78666666D02*
X22408628Y-78285714D01*
X21980057Y-79238095D02*
X21932438Y-79285714D01*
X21932438Y-79285714D02*
X21884819Y-79380952D01*
X21884819Y-79380952D02*
X21884819Y-79619047D01*
X21884819Y-79619047D02*
X21932438Y-79714285D01*
X21932438Y-79714285D02*
X21980057Y-79761904D01*
X21980057Y-79761904D02*
X22075295Y-79809523D01*
X22075295Y-79809523D02*
X22170533Y-79809523D01*
X22170533Y-79809523D02*
X22313390Y-79761904D01*
X22313390Y-79761904D02*
X22884819Y-79190476D01*
X22884819Y-79190476D02*
X22884819Y-79809523D01*
X21884819Y-80428571D02*
X21884819Y-80523809D01*
X21884819Y-80523809D02*
X21932438Y-80619047D01*
X21932438Y-80619047D02*
X21980057Y-80666666D01*
X21980057Y-80666666D02*
X22075295Y-80714285D01*
X22075295Y-80714285D02*
X22265771Y-80761904D01*
X22265771Y-80761904D02*
X22503866Y-80761904D01*
X22503866Y-80761904D02*
X22694342Y-80714285D01*
X22694342Y-80714285D02*
X22789580Y-80666666D01*
X22789580Y-80666666D02*
X22837200Y-80619047D01*
X22837200Y-80619047D02*
X22884819Y-80523809D01*
X22884819Y-80523809D02*
X22884819Y-80428571D01*
X22884819Y-80428571D02*
X22837200Y-80333333D01*
X22837200Y-80333333D02*
X22789580Y-80285714D01*
X22789580Y-80285714D02*
X22694342Y-80238095D01*
X22694342Y-80238095D02*
X22503866Y-80190476D01*
X22503866Y-80190476D02*
X22265771Y-80190476D01*
X22265771Y-80190476D02*
X22075295Y-80238095D01*
X22075295Y-80238095D02*
X21980057Y-80285714D01*
X21980057Y-80285714D02*
X21932438Y-80333333D01*
X21932438Y-80333333D02*
X21884819Y-80428571D01*
X29704819Y-51084533D02*
X29704819Y-50608343D01*
X29704819Y-50608343D02*
X28704819Y-50608343D01*
X29038152Y-51846438D02*
X29704819Y-51846438D01*
X28657200Y-51608343D02*
X29371485Y-51370248D01*
X29371485Y-51370248D02*
X29371485Y-51989295D01*
X60511904Y-21204819D02*
X60511904Y-22014342D01*
X60511904Y-22014342D02*
X60464285Y-22109580D01*
X60464285Y-22109580D02*
X60416666Y-22157200D01*
X60416666Y-22157200D02*
X60321428Y-22204819D01*
X60321428Y-22204819D02*
X60130952Y-22204819D01*
X60130952Y-22204819D02*
X60035714Y-22157200D01*
X60035714Y-22157200D02*
X59988095Y-22109580D01*
X59988095Y-22109580D02*
X59940476Y-22014342D01*
X59940476Y-22014342D02*
X59940476Y-21204819D01*
X59559523Y-21204819D02*
X58892857Y-21204819D01*
X58892857Y-21204819D02*
X59321428Y-22204819D01*
X24094819Y-54771905D02*
X23094819Y-54771905D01*
X23094819Y-54771905D02*
X23094819Y-55010000D01*
X23094819Y-55010000D02*
X23142438Y-55152857D01*
X23142438Y-55152857D02*
X23237676Y-55248095D01*
X23237676Y-55248095D02*
X23332914Y-55295714D01*
X23332914Y-55295714D02*
X23523390Y-55343333D01*
X23523390Y-55343333D02*
X23666247Y-55343333D01*
X23666247Y-55343333D02*
X23856723Y-55295714D01*
X23856723Y-55295714D02*
X23951961Y-55248095D01*
X23951961Y-55248095D02*
X24047200Y-55152857D01*
X24047200Y-55152857D02*
X24094819Y-55010000D01*
X24094819Y-55010000D02*
X24094819Y-54771905D01*
X23190057Y-55724286D02*
X23142438Y-55771905D01*
X23142438Y-55771905D02*
X23094819Y-55867143D01*
X23094819Y-55867143D02*
X23094819Y-56105238D01*
X23094819Y-56105238D02*
X23142438Y-56200476D01*
X23142438Y-56200476D02*
X23190057Y-56248095D01*
X23190057Y-56248095D02*
X23285295Y-56295714D01*
X23285295Y-56295714D02*
X23380533Y-56295714D01*
X23380533Y-56295714D02*
X23523390Y-56248095D01*
X23523390Y-56248095D02*
X24094819Y-55676667D01*
X24094819Y-55676667D02*
X24094819Y-56295714D01*
X32039580Y-44333333D02*
X32087200Y-44285714D01*
X32087200Y-44285714D02*
X32134819Y-44142857D01*
X32134819Y-44142857D02*
X32134819Y-44047619D01*
X32134819Y-44047619D02*
X32087200Y-43904762D01*
X32087200Y-43904762D02*
X31991961Y-43809524D01*
X31991961Y-43809524D02*
X31896723Y-43761905D01*
X31896723Y-43761905D02*
X31706247Y-43714286D01*
X31706247Y-43714286D02*
X31563390Y-43714286D01*
X31563390Y-43714286D02*
X31372914Y-43761905D01*
X31372914Y-43761905D02*
X31277676Y-43809524D01*
X31277676Y-43809524D02*
X31182438Y-43904762D01*
X31182438Y-43904762D02*
X31134819Y-44047619D01*
X31134819Y-44047619D02*
X31134819Y-44142857D01*
X31134819Y-44142857D02*
X31182438Y-44285714D01*
X31182438Y-44285714D02*
X31230057Y-44333333D01*
X31134819Y-45238095D02*
X31134819Y-44761905D01*
X31134819Y-44761905D02*
X31611009Y-44714286D01*
X31611009Y-44714286D02*
X31563390Y-44761905D01*
X31563390Y-44761905D02*
X31515771Y-44857143D01*
X31515771Y-44857143D02*
X31515771Y-45095238D01*
X31515771Y-45095238D02*
X31563390Y-45190476D01*
X31563390Y-45190476D02*
X31611009Y-45238095D01*
X31611009Y-45238095D02*
X31706247Y-45285714D01*
X31706247Y-45285714D02*
X31944342Y-45285714D01*
X31944342Y-45285714D02*
X32039580Y-45238095D01*
X32039580Y-45238095D02*
X32087200Y-45190476D01*
X32087200Y-45190476D02*
X32134819Y-45095238D01*
X32134819Y-45095238D02*
X32134819Y-44857143D01*
X32134819Y-44857143D02*
X32087200Y-44761905D01*
X32087200Y-44761905D02*
X32039580Y-44714286D01*
X29429580Y-70607142D02*
X29477200Y-70559523D01*
X29477200Y-70559523D02*
X29524819Y-70416666D01*
X29524819Y-70416666D02*
X29524819Y-70321428D01*
X29524819Y-70321428D02*
X29477200Y-70178571D01*
X29477200Y-70178571D02*
X29381961Y-70083333D01*
X29381961Y-70083333D02*
X29286723Y-70035714D01*
X29286723Y-70035714D02*
X29096247Y-69988095D01*
X29096247Y-69988095D02*
X28953390Y-69988095D01*
X28953390Y-69988095D02*
X28762914Y-70035714D01*
X28762914Y-70035714D02*
X28667676Y-70083333D01*
X28667676Y-70083333D02*
X28572438Y-70178571D01*
X28572438Y-70178571D02*
X28524819Y-70321428D01*
X28524819Y-70321428D02*
X28524819Y-70416666D01*
X28524819Y-70416666D02*
X28572438Y-70559523D01*
X28572438Y-70559523D02*
X28620057Y-70607142D01*
X28858152Y-71464285D02*
X29524819Y-71464285D01*
X28477200Y-71226190D02*
X29191485Y-70988095D01*
X29191485Y-70988095D02*
X29191485Y-71607142D01*
X28524819Y-72416666D02*
X28524819Y-72226190D01*
X28524819Y-72226190D02*
X28572438Y-72130952D01*
X28572438Y-72130952D02*
X28620057Y-72083333D01*
X28620057Y-72083333D02*
X28762914Y-71988095D01*
X28762914Y-71988095D02*
X28953390Y-71940476D01*
X28953390Y-71940476D02*
X29334342Y-71940476D01*
X29334342Y-71940476D02*
X29429580Y-71988095D01*
X29429580Y-71988095D02*
X29477200Y-72035714D01*
X29477200Y-72035714D02*
X29524819Y-72130952D01*
X29524819Y-72130952D02*
X29524819Y-72321428D01*
X29524819Y-72321428D02*
X29477200Y-72416666D01*
X29477200Y-72416666D02*
X29429580Y-72464285D01*
X29429580Y-72464285D02*
X29334342Y-72511904D01*
X29334342Y-72511904D02*
X29096247Y-72511904D01*
X29096247Y-72511904D02*
X29001009Y-72464285D01*
X29001009Y-72464285D02*
X28953390Y-72416666D01*
X28953390Y-72416666D02*
X28905771Y-72321428D01*
X28905771Y-72321428D02*
X28905771Y-72130952D01*
X28905771Y-72130952D02*
X28953390Y-72035714D01*
X28953390Y-72035714D02*
X29001009Y-71988095D01*
X29001009Y-71988095D02*
X29096247Y-71940476D01*
D12*
X23919318Y-42221237D02*
X22649318Y-42221237D01*
X23798365Y-43551714D02*
X23858842Y-43491238D01*
X23858842Y-43491238D02*
X23919318Y-43309809D01*
X23919318Y-43309809D02*
X23919318Y-43188857D01*
X23919318Y-43188857D02*
X23858842Y-43007428D01*
X23858842Y-43007428D02*
X23737889Y-42886476D01*
X23737889Y-42886476D02*
X23616937Y-42825999D01*
X23616937Y-42825999D02*
X23375032Y-42765523D01*
X23375032Y-42765523D02*
X23193603Y-42765523D01*
X23193603Y-42765523D02*
X22951699Y-42825999D01*
X22951699Y-42825999D02*
X22830746Y-42886476D01*
X22830746Y-42886476D02*
X22709794Y-43007428D01*
X22709794Y-43007428D02*
X22649318Y-43188857D01*
X22649318Y-43188857D02*
X22649318Y-43309809D01*
X22649318Y-43309809D02*
X22709794Y-43491238D01*
X22709794Y-43491238D02*
X22770270Y-43551714D01*
X23072651Y-44640285D02*
X23919318Y-44640285D01*
X22588842Y-44337904D02*
X23495984Y-44035523D01*
X23495984Y-44035523D02*
X23495984Y-44821714D01*
D11*
X51289580Y-56107142D02*
X51337200Y-56059523D01*
X51337200Y-56059523D02*
X51384819Y-55916666D01*
X51384819Y-55916666D02*
X51384819Y-55821428D01*
X51384819Y-55821428D02*
X51337200Y-55678571D01*
X51337200Y-55678571D02*
X51241961Y-55583333D01*
X51241961Y-55583333D02*
X51146723Y-55535714D01*
X51146723Y-55535714D02*
X50956247Y-55488095D01*
X50956247Y-55488095D02*
X50813390Y-55488095D01*
X50813390Y-55488095D02*
X50622914Y-55535714D01*
X50622914Y-55535714D02*
X50527676Y-55583333D01*
X50527676Y-55583333D02*
X50432438Y-55678571D01*
X50432438Y-55678571D02*
X50384819Y-55821428D01*
X50384819Y-55821428D02*
X50384819Y-55916666D01*
X50384819Y-55916666D02*
X50432438Y-56059523D01*
X50432438Y-56059523D02*
X50480057Y-56107142D01*
X50384819Y-56440476D02*
X50384819Y-57059523D01*
X50384819Y-57059523D02*
X50765771Y-56726190D01*
X50765771Y-56726190D02*
X50765771Y-56869047D01*
X50765771Y-56869047D02*
X50813390Y-56964285D01*
X50813390Y-56964285D02*
X50861009Y-57011904D01*
X50861009Y-57011904D02*
X50956247Y-57059523D01*
X50956247Y-57059523D02*
X51194342Y-57059523D01*
X51194342Y-57059523D02*
X51289580Y-57011904D01*
X51289580Y-57011904D02*
X51337200Y-56964285D01*
X51337200Y-56964285D02*
X51384819Y-56869047D01*
X51384819Y-56869047D02*
X51384819Y-56583333D01*
X51384819Y-56583333D02*
X51337200Y-56488095D01*
X51337200Y-56488095D02*
X51289580Y-56440476D01*
X51384819Y-57535714D02*
X51384819Y-57726190D01*
X51384819Y-57726190D02*
X51337200Y-57821428D01*
X51337200Y-57821428D02*
X51289580Y-57869047D01*
X51289580Y-57869047D02*
X51146723Y-57964285D01*
X51146723Y-57964285D02*
X50956247Y-58011904D01*
X50956247Y-58011904D02*
X50575295Y-58011904D01*
X50575295Y-58011904D02*
X50480057Y-57964285D01*
X50480057Y-57964285D02*
X50432438Y-57916666D01*
X50432438Y-57916666D02*
X50384819Y-57821428D01*
X50384819Y-57821428D02*
X50384819Y-57630952D01*
X50384819Y-57630952D02*
X50432438Y-57535714D01*
X50432438Y-57535714D02*
X50480057Y-57488095D01*
X50480057Y-57488095D02*
X50575295Y-57440476D01*
X50575295Y-57440476D02*
X50813390Y-57440476D01*
X50813390Y-57440476D02*
X50908628Y-57488095D01*
X50908628Y-57488095D02*
X50956247Y-57535714D01*
X50956247Y-57535714D02*
X51003866Y-57630952D01*
X51003866Y-57630952D02*
X51003866Y-57821428D01*
X51003866Y-57821428D02*
X50956247Y-57916666D01*
X50956247Y-57916666D02*
X50908628Y-57964285D01*
X50908628Y-57964285D02*
X50813390Y-58011904D01*
X46199819Y-50668095D02*
X47009342Y-50668095D01*
X47009342Y-50668095D02*
X47104580Y-50715714D01*
X47104580Y-50715714D02*
X47152200Y-50763333D01*
X47152200Y-50763333D02*
X47199819Y-50858571D01*
X47199819Y-50858571D02*
X47199819Y-51049047D01*
X47199819Y-51049047D02*
X47152200Y-51144285D01*
X47152200Y-51144285D02*
X47104580Y-51191904D01*
X47104580Y-51191904D02*
X47009342Y-51239523D01*
X47009342Y-51239523D02*
X46199819Y-51239523D01*
X47199819Y-51763333D02*
X47199819Y-51953809D01*
X47199819Y-51953809D02*
X47152200Y-52049047D01*
X47152200Y-52049047D02*
X47104580Y-52096666D01*
X47104580Y-52096666D02*
X46961723Y-52191904D01*
X46961723Y-52191904D02*
X46771247Y-52239523D01*
X46771247Y-52239523D02*
X46390295Y-52239523D01*
X46390295Y-52239523D02*
X46295057Y-52191904D01*
X46295057Y-52191904D02*
X46247438Y-52144285D01*
X46247438Y-52144285D02*
X46199819Y-52049047D01*
X46199819Y-52049047D02*
X46199819Y-51858571D01*
X46199819Y-51858571D02*
X46247438Y-51763333D01*
X46247438Y-51763333D02*
X46295057Y-51715714D01*
X46295057Y-51715714D02*
X46390295Y-51668095D01*
X46390295Y-51668095D02*
X46628390Y-51668095D01*
X46628390Y-51668095D02*
X46723628Y-51715714D01*
X46723628Y-51715714D02*
X46771247Y-51763333D01*
X46771247Y-51763333D02*
X46818866Y-51858571D01*
X46818866Y-51858571D02*
X46818866Y-52049047D01*
X46818866Y-52049047D02*
X46771247Y-52144285D01*
X46771247Y-52144285D02*
X46723628Y-52191904D01*
X46723628Y-52191904D02*
X46628390Y-52239523D01*
X22789580Y-75107142D02*
X22837200Y-75059523D01*
X22837200Y-75059523D02*
X22884819Y-74916666D01*
X22884819Y-74916666D02*
X22884819Y-74821428D01*
X22884819Y-74821428D02*
X22837200Y-74678571D01*
X22837200Y-74678571D02*
X22741961Y-74583333D01*
X22741961Y-74583333D02*
X22646723Y-74535714D01*
X22646723Y-74535714D02*
X22456247Y-74488095D01*
X22456247Y-74488095D02*
X22313390Y-74488095D01*
X22313390Y-74488095D02*
X22122914Y-74535714D01*
X22122914Y-74535714D02*
X22027676Y-74583333D01*
X22027676Y-74583333D02*
X21932438Y-74678571D01*
X21932438Y-74678571D02*
X21884819Y-74821428D01*
X21884819Y-74821428D02*
X21884819Y-74916666D01*
X21884819Y-74916666D02*
X21932438Y-75059523D01*
X21932438Y-75059523D02*
X21980057Y-75107142D01*
X22218152Y-75964285D02*
X22884819Y-75964285D01*
X21837200Y-75726190D02*
X22551485Y-75488095D01*
X22551485Y-75488095D02*
X22551485Y-76107142D01*
X22884819Y-77011904D02*
X22884819Y-76440476D01*
X22884819Y-76726190D02*
X21884819Y-76726190D01*
X21884819Y-76726190D02*
X22027676Y-76630952D01*
X22027676Y-76630952D02*
X22122914Y-76535714D01*
X22122914Y-76535714D02*
X22170533Y-76440476D01*
X31404819Y-66858333D02*
X31404819Y-66382143D01*
X31404819Y-66382143D02*
X30404819Y-66382143D01*
X30500057Y-67144048D02*
X30452438Y-67191667D01*
X30452438Y-67191667D02*
X30404819Y-67286905D01*
X30404819Y-67286905D02*
X30404819Y-67525000D01*
X30404819Y-67525000D02*
X30452438Y-67620238D01*
X30452438Y-67620238D02*
X30500057Y-67667857D01*
X30500057Y-67667857D02*
X30595295Y-67715476D01*
X30595295Y-67715476D02*
X30690533Y-67715476D01*
X30690533Y-67715476D02*
X30833390Y-67667857D01*
X30833390Y-67667857D02*
X31404819Y-67096429D01*
X31404819Y-67096429D02*
X31404819Y-67715476D01*
X23524819Y-79333333D02*
X23048628Y-79000000D01*
X23524819Y-78761905D02*
X22524819Y-78761905D01*
X22524819Y-78761905D02*
X22524819Y-79142857D01*
X22524819Y-79142857D02*
X22572438Y-79238095D01*
X22572438Y-79238095D02*
X22620057Y-79285714D01*
X22620057Y-79285714D02*
X22715295Y-79333333D01*
X22715295Y-79333333D02*
X22858152Y-79333333D01*
X22858152Y-79333333D02*
X22953390Y-79285714D01*
X22953390Y-79285714D02*
X23001009Y-79238095D01*
X23001009Y-79238095D02*
X23048628Y-79142857D01*
X23048628Y-79142857D02*
X23048628Y-78761905D01*
X22524819Y-80238095D02*
X22524819Y-79761905D01*
X22524819Y-79761905D02*
X23001009Y-79714286D01*
X23001009Y-79714286D02*
X22953390Y-79761905D01*
X22953390Y-79761905D02*
X22905771Y-79857143D01*
X22905771Y-79857143D02*
X22905771Y-80095238D01*
X22905771Y-80095238D02*
X22953390Y-80190476D01*
X22953390Y-80190476D02*
X23001009Y-80238095D01*
X23001009Y-80238095D02*
X23096247Y-80285714D01*
X23096247Y-80285714D02*
X23334342Y-80285714D01*
X23334342Y-80285714D02*
X23429580Y-80238095D01*
X23429580Y-80238095D02*
X23477200Y-80190476D01*
X23477200Y-80190476D02*
X23524819Y-80095238D01*
X23524819Y-80095238D02*
X23524819Y-79857143D01*
X23524819Y-79857143D02*
X23477200Y-79761905D01*
X23477200Y-79761905D02*
X23429580Y-79714286D01*
X33204819Y-31285714D02*
X32204819Y-31285714D01*
X32204819Y-31285714D02*
X32204819Y-31523809D01*
X32204819Y-31523809D02*
X32252438Y-31666666D01*
X32252438Y-31666666D02*
X32347676Y-31761904D01*
X32347676Y-31761904D02*
X32442914Y-31809523D01*
X32442914Y-31809523D02*
X32633390Y-31857142D01*
X32633390Y-31857142D02*
X32776247Y-31857142D01*
X32776247Y-31857142D02*
X32966723Y-31809523D01*
X32966723Y-31809523D02*
X33061961Y-31761904D01*
X33061961Y-31761904D02*
X33157200Y-31666666D01*
X33157200Y-31666666D02*
X33204819Y-31523809D01*
X33204819Y-31523809D02*
X33204819Y-31285714D01*
X32300057Y-32238095D02*
X32252438Y-32285714D01*
X32252438Y-32285714D02*
X32204819Y-32380952D01*
X32204819Y-32380952D02*
X32204819Y-32619047D01*
X32204819Y-32619047D02*
X32252438Y-32714285D01*
X32252438Y-32714285D02*
X32300057Y-32761904D01*
X32300057Y-32761904D02*
X32395295Y-32809523D01*
X32395295Y-32809523D02*
X32490533Y-32809523D01*
X32490533Y-32809523D02*
X32633390Y-32761904D01*
X32633390Y-32761904D02*
X33204819Y-32190476D01*
X33204819Y-32190476D02*
X33204819Y-32809523D01*
X32204819Y-33428571D02*
X32204819Y-33523809D01*
X32204819Y-33523809D02*
X32252438Y-33619047D01*
X32252438Y-33619047D02*
X32300057Y-33666666D01*
X32300057Y-33666666D02*
X32395295Y-33714285D01*
X32395295Y-33714285D02*
X32585771Y-33761904D01*
X32585771Y-33761904D02*
X32823866Y-33761904D01*
X32823866Y-33761904D02*
X33014342Y-33714285D01*
X33014342Y-33714285D02*
X33109580Y-33666666D01*
X33109580Y-33666666D02*
X33157200Y-33619047D01*
X33157200Y-33619047D02*
X33204819Y-33523809D01*
X33204819Y-33523809D02*
X33204819Y-33428571D01*
X33204819Y-33428571D02*
X33157200Y-33333333D01*
X33157200Y-33333333D02*
X33109580Y-33285714D01*
X33109580Y-33285714D02*
X33014342Y-33238095D01*
X33014342Y-33238095D02*
X32823866Y-33190476D01*
X32823866Y-33190476D02*
X32585771Y-33190476D01*
X32585771Y-33190476D02*
X32395295Y-33238095D01*
X32395295Y-33238095D02*
X32300057Y-33285714D01*
X32300057Y-33285714D02*
X32252438Y-33333333D01*
X32252438Y-33333333D02*
X32204819Y-33428571D01*
X66039580Y-61857142D02*
X66087200Y-61809523D01*
X66087200Y-61809523D02*
X66134819Y-61666666D01*
X66134819Y-61666666D02*
X66134819Y-61571428D01*
X66134819Y-61571428D02*
X66087200Y-61428571D01*
X66087200Y-61428571D02*
X65991961Y-61333333D01*
X65991961Y-61333333D02*
X65896723Y-61285714D01*
X65896723Y-61285714D02*
X65706247Y-61238095D01*
X65706247Y-61238095D02*
X65563390Y-61238095D01*
X65563390Y-61238095D02*
X65372914Y-61285714D01*
X65372914Y-61285714D02*
X65277676Y-61333333D01*
X65277676Y-61333333D02*
X65182438Y-61428571D01*
X65182438Y-61428571D02*
X65134819Y-61571428D01*
X65134819Y-61571428D02*
X65134819Y-61666666D01*
X65134819Y-61666666D02*
X65182438Y-61809523D01*
X65182438Y-61809523D02*
X65230057Y-61857142D01*
X65134819Y-62190476D02*
X65134819Y-62809523D01*
X65134819Y-62809523D02*
X65515771Y-62476190D01*
X65515771Y-62476190D02*
X65515771Y-62619047D01*
X65515771Y-62619047D02*
X65563390Y-62714285D01*
X65563390Y-62714285D02*
X65611009Y-62761904D01*
X65611009Y-62761904D02*
X65706247Y-62809523D01*
X65706247Y-62809523D02*
X65944342Y-62809523D01*
X65944342Y-62809523D02*
X66039580Y-62761904D01*
X66039580Y-62761904D02*
X66087200Y-62714285D01*
X66087200Y-62714285D02*
X66134819Y-62619047D01*
X66134819Y-62619047D02*
X66134819Y-62333333D01*
X66134819Y-62333333D02*
X66087200Y-62238095D01*
X66087200Y-62238095D02*
X66039580Y-62190476D01*
X65563390Y-63380952D02*
X65515771Y-63285714D01*
X65515771Y-63285714D02*
X65468152Y-63238095D01*
X65468152Y-63238095D02*
X65372914Y-63190476D01*
X65372914Y-63190476D02*
X65325295Y-63190476D01*
X65325295Y-63190476D02*
X65230057Y-63238095D01*
X65230057Y-63238095D02*
X65182438Y-63285714D01*
X65182438Y-63285714D02*
X65134819Y-63380952D01*
X65134819Y-63380952D02*
X65134819Y-63571428D01*
X65134819Y-63571428D02*
X65182438Y-63666666D01*
X65182438Y-63666666D02*
X65230057Y-63714285D01*
X65230057Y-63714285D02*
X65325295Y-63761904D01*
X65325295Y-63761904D02*
X65372914Y-63761904D01*
X65372914Y-63761904D02*
X65468152Y-63714285D01*
X65468152Y-63714285D02*
X65515771Y-63666666D01*
X65515771Y-63666666D02*
X65563390Y-63571428D01*
X65563390Y-63571428D02*
X65563390Y-63380952D01*
X65563390Y-63380952D02*
X65611009Y-63285714D01*
X65611009Y-63285714D02*
X65658628Y-63238095D01*
X65658628Y-63238095D02*
X65753866Y-63190476D01*
X65753866Y-63190476D02*
X65944342Y-63190476D01*
X65944342Y-63190476D02*
X66039580Y-63238095D01*
X66039580Y-63238095D02*
X66087200Y-63285714D01*
X66087200Y-63285714D02*
X66134819Y-63380952D01*
X66134819Y-63380952D02*
X66134819Y-63571428D01*
X66134819Y-63571428D02*
X66087200Y-63666666D01*
X66087200Y-63666666D02*
X66039580Y-63714285D01*
X66039580Y-63714285D02*
X65944342Y-63761904D01*
X65944342Y-63761904D02*
X65753866Y-63761904D01*
X65753866Y-63761904D02*
X65658628Y-63714285D01*
X65658628Y-63714285D02*
X65611009Y-63666666D01*
X65611009Y-63666666D02*
X65563390Y-63571428D01*
X26814819Y-79501905D02*
X25814819Y-79501905D01*
X25814819Y-79501905D02*
X25814819Y-79740000D01*
X25814819Y-79740000D02*
X25862438Y-79882857D01*
X25862438Y-79882857D02*
X25957676Y-79978095D01*
X25957676Y-79978095D02*
X26052914Y-80025714D01*
X26052914Y-80025714D02*
X26243390Y-80073333D01*
X26243390Y-80073333D02*
X26386247Y-80073333D01*
X26386247Y-80073333D02*
X26576723Y-80025714D01*
X26576723Y-80025714D02*
X26671961Y-79978095D01*
X26671961Y-79978095D02*
X26767200Y-79882857D01*
X26767200Y-79882857D02*
X26814819Y-79740000D01*
X26814819Y-79740000D02*
X26814819Y-79501905D01*
X25814819Y-80406667D02*
X25814819Y-81073333D01*
X25814819Y-81073333D02*
X26814819Y-80644762D01*
X49039580Y-45107142D02*
X49087200Y-45059523D01*
X49087200Y-45059523D02*
X49134819Y-44916666D01*
X49134819Y-44916666D02*
X49134819Y-44821428D01*
X49134819Y-44821428D02*
X49087200Y-44678571D01*
X49087200Y-44678571D02*
X48991961Y-44583333D01*
X48991961Y-44583333D02*
X48896723Y-44535714D01*
X48896723Y-44535714D02*
X48706247Y-44488095D01*
X48706247Y-44488095D02*
X48563390Y-44488095D01*
X48563390Y-44488095D02*
X48372914Y-44535714D01*
X48372914Y-44535714D02*
X48277676Y-44583333D01*
X48277676Y-44583333D02*
X48182438Y-44678571D01*
X48182438Y-44678571D02*
X48134819Y-44821428D01*
X48134819Y-44821428D02*
X48134819Y-44916666D01*
X48134819Y-44916666D02*
X48182438Y-45059523D01*
X48182438Y-45059523D02*
X48230057Y-45107142D01*
X48468152Y-45964285D02*
X49134819Y-45964285D01*
X48087200Y-45726190D02*
X48801485Y-45488095D01*
X48801485Y-45488095D02*
X48801485Y-46107142D01*
X48134819Y-46678571D02*
X48134819Y-46773809D01*
X48134819Y-46773809D02*
X48182438Y-46869047D01*
X48182438Y-46869047D02*
X48230057Y-46916666D01*
X48230057Y-46916666D02*
X48325295Y-46964285D01*
X48325295Y-46964285D02*
X48515771Y-47011904D01*
X48515771Y-47011904D02*
X48753866Y-47011904D01*
X48753866Y-47011904D02*
X48944342Y-46964285D01*
X48944342Y-46964285D02*
X49039580Y-46916666D01*
X49039580Y-46916666D02*
X49087200Y-46869047D01*
X49087200Y-46869047D02*
X49134819Y-46773809D01*
X49134819Y-46773809D02*
X49134819Y-46678571D01*
X49134819Y-46678571D02*
X49087200Y-46583333D01*
X49087200Y-46583333D02*
X49039580Y-46535714D01*
X49039580Y-46535714D02*
X48944342Y-46488095D01*
X48944342Y-46488095D02*
X48753866Y-46440476D01*
X48753866Y-46440476D02*
X48515771Y-46440476D01*
X48515771Y-46440476D02*
X48325295Y-46488095D01*
X48325295Y-46488095D02*
X48230057Y-46535714D01*
X48230057Y-46535714D02*
X48182438Y-46583333D01*
X48182438Y-46583333D02*
X48134819Y-46678571D01*
X25929580Y-70357142D02*
X25977200Y-70309523D01*
X25977200Y-70309523D02*
X26024819Y-70166666D01*
X26024819Y-70166666D02*
X26024819Y-70071428D01*
X26024819Y-70071428D02*
X25977200Y-69928571D01*
X25977200Y-69928571D02*
X25881961Y-69833333D01*
X25881961Y-69833333D02*
X25786723Y-69785714D01*
X25786723Y-69785714D02*
X25596247Y-69738095D01*
X25596247Y-69738095D02*
X25453390Y-69738095D01*
X25453390Y-69738095D02*
X25262914Y-69785714D01*
X25262914Y-69785714D02*
X25167676Y-69833333D01*
X25167676Y-69833333D02*
X25072438Y-69928571D01*
X25072438Y-69928571D02*
X25024819Y-70071428D01*
X25024819Y-70071428D02*
X25024819Y-70166666D01*
X25024819Y-70166666D02*
X25072438Y-70309523D01*
X25072438Y-70309523D02*
X25120057Y-70357142D01*
X26024819Y-71309523D02*
X26024819Y-70738095D01*
X26024819Y-71023809D02*
X25024819Y-71023809D01*
X25024819Y-71023809D02*
X25167676Y-70928571D01*
X25167676Y-70928571D02*
X25262914Y-70833333D01*
X25262914Y-70833333D02*
X25310533Y-70738095D01*
X25358152Y-72166666D02*
X26024819Y-72166666D01*
X24977200Y-71928571D02*
X25691485Y-71690476D01*
X25691485Y-71690476D02*
X25691485Y-72309523D01*
X63274819Y-72357142D02*
X62798628Y-72023809D01*
X63274819Y-71785714D02*
X62274819Y-71785714D01*
X62274819Y-71785714D02*
X62274819Y-72166666D01*
X62274819Y-72166666D02*
X62322438Y-72261904D01*
X62322438Y-72261904D02*
X62370057Y-72309523D01*
X62370057Y-72309523D02*
X62465295Y-72357142D01*
X62465295Y-72357142D02*
X62608152Y-72357142D01*
X62608152Y-72357142D02*
X62703390Y-72309523D01*
X62703390Y-72309523D02*
X62751009Y-72261904D01*
X62751009Y-72261904D02*
X62798628Y-72166666D01*
X62798628Y-72166666D02*
X62798628Y-71785714D01*
X63274819Y-73309523D02*
X63274819Y-72738095D01*
X63274819Y-73023809D02*
X62274819Y-73023809D01*
X62274819Y-73023809D02*
X62417676Y-72928571D01*
X62417676Y-72928571D02*
X62512914Y-72833333D01*
X62512914Y-72833333D02*
X62560533Y-72738095D01*
X62370057Y-73690476D02*
X62322438Y-73738095D01*
X62322438Y-73738095D02*
X62274819Y-73833333D01*
X62274819Y-73833333D02*
X62274819Y-74071428D01*
X62274819Y-74071428D02*
X62322438Y-74166666D01*
X62322438Y-74166666D02*
X62370057Y-74214285D01*
X62370057Y-74214285D02*
X62465295Y-74261904D01*
X62465295Y-74261904D02*
X62560533Y-74261904D01*
X62560533Y-74261904D02*
X62703390Y-74214285D01*
X62703390Y-74214285D02*
X63274819Y-73642857D01*
X63274819Y-73642857D02*
X63274819Y-74261904D01*
D12*
X35979318Y-42221237D02*
X34709318Y-42221237D01*
X35858365Y-43551714D02*
X35918842Y-43491238D01*
X35918842Y-43491238D02*
X35979318Y-43309809D01*
X35979318Y-43309809D02*
X35979318Y-43188857D01*
X35979318Y-43188857D02*
X35918842Y-43007428D01*
X35918842Y-43007428D02*
X35797889Y-42886476D01*
X35797889Y-42886476D02*
X35676937Y-42825999D01*
X35676937Y-42825999D02*
X35435032Y-42765523D01*
X35435032Y-42765523D02*
X35253603Y-42765523D01*
X35253603Y-42765523D02*
X35011699Y-42825999D01*
X35011699Y-42825999D02*
X34890746Y-42886476D01*
X34890746Y-42886476D02*
X34769794Y-43007428D01*
X34769794Y-43007428D02*
X34709318Y-43188857D01*
X34709318Y-43188857D02*
X34709318Y-43309809D01*
X34709318Y-43309809D02*
X34769794Y-43491238D01*
X34769794Y-43491238D02*
X34830270Y-43551714D01*
X34709318Y-44700761D02*
X34709318Y-44095999D01*
X34709318Y-44095999D02*
X35314080Y-44035523D01*
X35314080Y-44035523D02*
X35253603Y-44095999D01*
X35253603Y-44095999D02*
X35193127Y-44216952D01*
X35193127Y-44216952D02*
X35193127Y-44519333D01*
X35193127Y-44519333D02*
X35253603Y-44640285D01*
X35253603Y-44640285D02*
X35314080Y-44700761D01*
X35314080Y-44700761D02*
X35435032Y-44761238D01*
X35435032Y-44761238D02*
X35737413Y-44761238D01*
X35737413Y-44761238D02*
X35858365Y-44700761D01*
X35858365Y-44700761D02*
X35918842Y-44640285D01*
X35918842Y-44640285D02*
X35979318Y-44519333D01*
X35979318Y-44519333D02*
X35979318Y-44216952D01*
X35979318Y-44216952D02*
X35918842Y-44095999D01*
X35918842Y-44095999D02*
X35858365Y-44035523D01*
D11*
X27679580Y-70607142D02*
X27727200Y-70559523D01*
X27727200Y-70559523D02*
X27774819Y-70416666D01*
X27774819Y-70416666D02*
X27774819Y-70321428D01*
X27774819Y-70321428D02*
X27727200Y-70178571D01*
X27727200Y-70178571D02*
X27631961Y-70083333D01*
X27631961Y-70083333D02*
X27536723Y-70035714D01*
X27536723Y-70035714D02*
X27346247Y-69988095D01*
X27346247Y-69988095D02*
X27203390Y-69988095D01*
X27203390Y-69988095D02*
X27012914Y-70035714D01*
X27012914Y-70035714D02*
X26917676Y-70083333D01*
X26917676Y-70083333D02*
X26822438Y-70178571D01*
X26822438Y-70178571D02*
X26774819Y-70321428D01*
X26774819Y-70321428D02*
X26774819Y-70416666D01*
X26774819Y-70416666D02*
X26822438Y-70559523D01*
X26822438Y-70559523D02*
X26870057Y-70607142D01*
X27108152Y-71464285D02*
X27774819Y-71464285D01*
X26727200Y-71226190D02*
X27441485Y-70988095D01*
X27441485Y-70988095D02*
X27441485Y-71607142D01*
X27108152Y-72416666D02*
X27774819Y-72416666D01*
X26727200Y-72178571D02*
X27441485Y-71940476D01*
X27441485Y-71940476D02*
X27441485Y-72559523D01*
X44392857Y-67429580D02*
X44440476Y-67477200D01*
X44440476Y-67477200D02*
X44583333Y-67524819D01*
X44583333Y-67524819D02*
X44678571Y-67524819D01*
X44678571Y-67524819D02*
X44821428Y-67477200D01*
X44821428Y-67477200D02*
X44916666Y-67381961D01*
X44916666Y-67381961D02*
X44964285Y-67286723D01*
X44964285Y-67286723D02*
X45011904Y-67096247D01*
X45011904Y-67096247D02*
X45011904Y-66953390D01*
X45011904Y-66953390D02*
X44964285Y-66762914D01*
X44964285Y-66762914D02*
X44916666Y-66667676D01*
X44916666Y-66667676D02*
X44821428Y-66572438D01*
X44821428Y-66572438D02*
X44678571Y-66524819D01*
X44678571Y-66524819D02*
X44583333Y-66524819D01*
X44583333Y-66524819D02*
X44440476Y-66572438D01*
X44440476Y-66572438D02*
X44392857Y-66620057D01*
X43488095Y-66524819D02*
X43964285Y-66524819D01*
X43964285Y-66524819D02*
X44011904Y-67001009D01*
X44011904Y-67001009D02*
X43964285Y-66953390D01*
X43964285Y-66953390D02*
X43869047Y-66905771D01*
X43869047Y-66905771D02*
X43630952Y-66905771D01*
X43630952Y-66905771D02*
X43535714Y-66953390D01*
X43535714Y-66953390D02*
X43488095Y-67001009D01*
X43488095Y-67001009D02*
X43440476Y-67096247D01*
X43440476Y-67096247D02*
X43440476Y-67334342D01*
X43440476Y-67334342D02*
X43488095Y-67429580D01*
X43488095Y-67429580D02*
X43535714Y-67477200D01*
X43535714Y-67477200D02*
X43630952Y-67524819D01*
X43630952Y-67524819D02*
X43869047Y-67524819D01*
X43869047Y-67524819D02*
X43964285Y-67477200D01*
X43964285Y-67477200D02*
X44011904Y-67429580D01*
X42821428Y-66524819D02*
X42726190Y-66524819D01*
X42726190Y-66524819D02*
X42630952Y-66572438D01*
X42630952Y-66572438D02*
X42583333Y-66620057D01*
X42583333Y-66620057D02*
X42535714Y-66715295D01*
X42535714Y-66715295D02*
X42488095Y-66905771D01*
X42488095Y-66905771D02*
X42488095Y-67143866D01*
X42488095Y-67143866D02*
X42535714Y-67334342D01*
X42535714Y-67334342D02*
X42583333Y-67429580D01*
X42583333Y-67429580D02*
X42630952Y-67477200D01*
X42630952Y-67477200D02*
X42726190Y-67524819D01*
X42726190Y-67524819D02*
X42821428Y-67524819D01*
X42821428Y-67524819D02*
X42916666Y-67477200D01*
X42916666Y-67477200D02*
X42964285Y-67429580D01*
X42964285Y-67429580D02*
X43011904Y-67334342D01*
X43011904Y-67334342D02*
X43059523Y-67143866D01*
X43059523Y-67143866D02*
X43059523Y-66905771D01*
X43059523Y-66905771D02*
X43011904Y-66715295D01*
X43011904Y-66715295D02*
X42964285Y-66620057D01*
X42964285Y-66620057D02*
X42916666Y-66572438D01*
X42916666Y-66572438D02*
X42821428Y-66524819D01*
D12*
X58629318Y-69048237D02*
X57359318Y-69048237D01*
X58508365Y-70378714D02*
X58568842Y-70318238D01*
X58568842Y-70318238D02*
X58629318Y-70136809D01*
X58629318Y-70136809D02*
X58629318Y-70015857D01*
X58629318Y-70015857D02*
X58568842Y-69834428D01*
X58568842Y-69834428D02*
X58447889Y-69713476D01*
X58447889Y-69713476D02*
X58326937Y-69652999D01*
X58326937Y-69652999D02*
X58085032Y-69592523D01*
X58085032Y-69592523D02*
X57903603Y-69592523D01*
X57903603Y-69592523D02*
X57661699Y-69652999D01*
X57661699Y-69652999D02*
X57540746Y-69713476D01*
X57540746Y-69713476D02*
X57419794Y-69834428D01*
X57419794Y-69834428D02*
X57359318Y-70015857D01*
X57359318Y-70015857D02*
X57359318Y-70136809D01*
X57359318Y-70136809D02*
X57419794Y-70318238D01*
X57419794Y-70318238D02*
X57480270Y-70378714D01*
X58629318Y-71588238D02*
X58629318Y-70862523D01*
X58629318Y-71225380D02*
X57359318Y-71225380D01*
X57359318Y-71225380D02*
X57540746Y-71104428D01*
X57540746Y-71104428D02*
X57661699Y-70983476D01*
X57661699Y-70983476D02*
X57722175Y-70862523D01*
D11*
X50179580Y-54357142D02*
X50227200Y-54309523D01*
X50227200Y-54309523D02*
X50274819Y-54166666D01*
X50274819Y-54166666D02*
X50274819Y-54071428D01*
X50274819Y-54071428D02*
X50227200Y-53928571D01*
X50227200Y-53928571D02*
X50131961Y-53833333D01*
X50131961Y-53833333D02*
X50036723Y-53785714D01*
X50036723Y-53785714D02*
X49846247Y-53738095D01*
X49846247Y-53738095D02*
X49703390Y-53738095D01*
X49703390Y-53738095D02*
X49512914Y-53785714D01*
X49512914Y-53785714D02*
X49417676Y-53833333D01*
X49417676Y-53833333D02*
X49322438Y-53928571D01*
X49322438Y-53928571D02*
X49274819Y-54071428D01*
X49274819Y-54071428D02*
X49274819Y-54166666D01*
X49274819Y-54166666D02*
X49322438Y-54309523D01*
X49322438Y-54309523D02*
X49370057Y-54357142D01*
X49274819Y-54690476D02*
X49274819Y-55309523D01*
X49274819Y-55309523D02*
X49655771Y-54976190D01*
X49655771Y-54976190D02*
X49655771Y-55119047D01*
X49655771Y-55119047D02*
X49703390Y-55214285D01*
X49703390Y-55214285D02*
X49751009Y-55261904D01*
X49751009Y-55261904D02*
X49846247Y-55309523D01*
X49846247Y-55309523D02*
X50084342Y-55309523D01*
X50084342Y-55309523D02*
X50179580Y-55261904D01*
X50179580Y-55261904D02*
X50227200Y-55214285D01*
X50227200Y-55214285D02*
X50274819Y-55119047D01*
X50274819Y-55119047D02*
X50274819Y-54833333D01*
X50274819Y-54833333D02*
X50227200Y-54738095D01*
X50227200Y-54738095D02*
X50179580Y-54690476D01*
X49274819Y-56214285D02*
X49274819Y-55738095D01*
X49274819Y-55738095D02*
X49751009Y-55690476D01*
X49751009Y-55690476D02*
X49703390Y-55738095D01*
X49703390Y-55738095D02*
X49655771Y-55833333D01*
X49655771Y-55833333D02*
X49655771Y-56071428D01*
X49655771Y-56071428D02*
X49703390Y-56166666D01*
X49703390Y-56166666D02*
X49751009Y-56214285D01*
X49751009Y-56214285D02*
X49846247Y-56261904D01*
X49846247Y-56261904D02*
X50084342Y-56261904D01*
X50084342Y-56261904D02*
X50179580Y-56214285D01*
X50179580Y-56214285D02*
X50227200Y-56166666D01*
X50227200Y-56166666D02*
X50274819Y-56071428D01*
X50274819Y-56071428D02*
X50274819Y-55833333D01*
X50274819Y-55833333D02*
X50227200Y-55738095D01*
X50227200Y-55738095D02*
X50179580Y-55690476D01*
X26594819Y-49521905D02*
X25594819Y-49521905D01*
X25594819Y-49521905D02*
X25594819Y-49760000D01*
X25594819Y-49760000D02*
X25642438Y-49902857D01*
X25642438Y-49902857D02*
X25737676Y-49998095D01*
X25737676Y-49998095D02*
X25832914Y-50045714D01*
X25832914Y-50045714D02*
X26023390Y-50093333D01*
X26023390Y-50093333D02*
X26166247Y-50093333D01*
X26166247Y-50093333D02*
X26356723Y-50045714D01*
X26356723Y-50045714D02*
X26451961Y-49998095D01*
X26451961Y-49998095D02*
X26547200Y-49902857D01*
X26547200Y-49902857D02*
X26594819Y-49760000D01*
X26594819Y-49760000D02*
X26594819Y-49521905D01*
X25594819Y-50998095D02*
X25594819Y-50521905D01*
X25594819Y-50521905D02*
X26071009Y-50474286D01*
X26071009Y-50474286D02*
X26023390Y-50521905D01*
X26023390Y-50521905D02*
X25975771Y-50617143D01*
X25975771Y-50617143D02*
X25975771Y-50855238D01*
X25975771Y-50855238D02*
X26023390Y-50950476D01*
X26023390Y-50950476D02*
X26071009Y-50998095D01*
X26071009Y-50998095D02*
X26166247Y-51045714D01*
X26166247Y-51045714D02*
X26404342Y-51045714D01*
X26404342Y-51045714D02*
X26499580Y-50998095D01*
X26499580Y-50998095D02*
X26547200Y-50950476D01*
X26547200Y-50950476D02*
X26594819Y-50855238D01*
X26594819Y-50855238D02*
X26594819Y-50617143D01*
X26594819Y-50617143D02*
X26547200Y-50521905D01*
X26547200Y-50521905D02*
X26499580Y-50474286D01*
X22954819Y-62083333D02*
X22478628Y-61750000D01*
X22954819Y-61511905D02*
X21954819Y-61511905D01*
X21954819Y-61511905D02*
X21954819Y-61892857D01*
X21954819Y-61892857D02*
X22002438Y-61988095D01*
X22002438Y-61988095D02*
X22050057Y-62035714D01*
X22050057Y-62035714D02*
X22145295Y-62083333D01*
X22145295Y-62083333D02*
X22288152Y-62083333D01*
X22288152Y-62083333D02*
X22383390Y-62035714D01*
X22383390Y-62035714D02*
X22431009Y-61988095D01*
X22431009Y-61988095D02*
X22478628Y-61892857D01*
X22478628Y-61892857D02*
X22478628Y-61511905D01*
X21954819Y-62940476D02*
X21954819Y-62750000D01*
X21954819Y-62750000D02*
X22002438Y-62654762D01*
X22002438Y-62654762D02*
X22050057Y-62607143D01*
X22050057Y-62607143D02*
X22192914Y-62511905D01*
X22192914Y-62511905D02*
X22383390Y-62464286D01*
X22383390Y-62464286D02*
X22764342Y-62464286D01*
X22764342Y-62464286D02*
X22859580Y-62511905D01*
X22859580Y-62511905D02*
X22907200Y-62559524D01*
X22907200Y-62559524D02*
X22954819Y-62654762D01*
X22954819Y-62654762D02*
X22954819Y-62845238D01*
X22954819Y-62845238D02*
X22907200Y-62940476D01*
X22907200Y-62940476D02*
X22859580Y-62988095D01*
X22859580Y-62988095D02*
X22764342Y-63035714D01*
X22764342Y-63035714D02*
X22526247Y-63035714D01*
X22526247Y-63035714D02*
X22431009Y-62988095D01*
X22431009Y-62988095D02*
X22383390Y-62940476D01*
X22383390Y-62940476D02*
X22335771Y-62845238D01*
X22335771Y-62845238D02*
X22335771Y-62654762D01*
X22335771Y-62654762D02*
X22383390Y-62559524D01*
X22383390Y-62559524D02*
X22431009Y-62511905D01*
X22431009Y-62511905D02*
X22526247Y-62464286D01*
X44392857Y-68539580D02*
X44440476Y-68587200D01*
X44440476Y-68587200D02*
X44583333Y-68634819D01*
X44583333Y-68634819D02*
X44678571Y-68634819D01*
X44678571Y-68634819D02*
X44821428Y-68587200D01*
X44821428Y-68587200D02*
X44916666Y-68491961D01*
X44916666Y-68491961D02*
X44964285Y-68396723D01*
X44964285Y-68396723D02*
X45011904Y-68206247D01*
X45011904Y-68206247D02*
X45011904Y-68063390D01*
X45011904Y-68063390D02*
X44964285Y-67872914D01*
X44964285Y-67872914D02*
X44916666Y-67777676D01*
X44916666Y-67777676D02*
X44821428Y-67682438D01*
X44821428Y-67682438D02*
X44678571Y-67634819D01*
X44678571Y-67634819D02*
X44583333Y-67634819D01*
X44583333Y-67634819D02*
X44440476Y-67682438D01*
X44440476Y-67682438D02*
X44392857Y-67730057D01*
X43535714Y-67968152D02*
X43535714Y-68634819D01*
X43773809Y-67587200D02*
X44011904Y-68301485D01*
X44011904Y-68301485D02*
X43392857Y-68301485D01*
X43107142Y-67634819D02*
X42440476Y-67634819D01*
X42440476Y-67634819D02*
X42869047Y-68634819D01*
X40642857Y-67429580D02*
X40690476Y-67477200D01*
X40690476Y-67477200D02*
X40833333Y-67524819D01*
X40833333Y-67524819D02*
X40928571Y-67524819D01*
X40928571Y-67524819D02*
X41071428Y-67477200D01*
X41071428Y-67477200D02*
X41166666Y-67381961D01*
X41166666Y-67381961D02*
X41214285Y-67286723D01*
X41214285Y-67286723D02*
X41261904Y-67096247D01*
X41261904Y-67096247D02*
X41261904Y-66953390D01*
X41261904Y-66953390D02*
X41214285Y-66762914D01*
X41214285Y-66762914D02*
X41166666Y-66667676D01*
X41166666Y-66667676D02*
X41071428Y-66572438D01*
X41071428Y-66572438D02*
X40928571Y-66524819D01*
X40928571Y-66524819D02*
X40833333Y-66524819D01*
X40833333Y-66524819D02*
X40690476Y-66572438D01*
X40690476Y-66572438D02*
X40642857Y-66620057D01*
X39785714Y-66858152D02*
X39785714Y-67524819D01*
X40023809Y-66477200D02*
X40261904Y-67191485D01*
X40261904Y-67191485D02*
X39642857Y-67191485D01*
X38785714Y-66524819D02*
X39261904Y-66524819D01*
X39261904Y-66524819D02*
X39309523Y-67001009D01*
X39309523Y-67001009D02*
X39261904Y-66953390D01*
X39261904Y-66953390D02*
X39166666Y-66905771D01*
X39166666Y-66905771D02*
X38928571Y-66905771D01*
X38928571Y-66905771D02*
X38833333Y-66953390D01*
X38833333Y-66953390D02*
X38785714Y-67001009D01*
X38785714Y-67001009D02*
X38738095Y-67096247D01*
X38738095Y-67096247D02*
X38738095Y-67334342D01*
X38738095Y-67334342D02*
X38785714Y-67429580D01*
X38785714Y-67429580D02*
X38833333Y-67477200D01*
X38833333Y-67477200D02*
X38928571Y-67524819D01*
X38928571Y-67524819D02*
X39166666Y-67524819D01*
X39166666Y-67524819D02*
X39261904Y-67477200D01*
X39261904Y-67477200D02*
X39309523Y-67429580D01*
X33916666Y-85179580D02*
X33964285Y-85227200D01*
X33964285Y-85227200D02*
X34107142Y-85274819D01*
X34107142Y-85274819D02*
X34202380Y-85274819D01*
X34202380Y-85274819D02*
X34345237Y-85227200D01*
X34345237Y-85227200D02*
X34440475Y-85131961D01*
X34440475Y-85131961D02*
X34488094Y-85036723D01*
X34488094Y-85036723D02*
X34535713Y-84846247D01*
X34535713Y-84846247D02*
X34535713Y-84703390D01*
X34535713Y-84703390D02*
X34488094Y-84512914D01*
X34488094Y-84512914D02*
X34440475Y-84417676D01*
X34440475Y-84417676D02*
X34345237Y-84322438D01*
X34345237Y-84322438D02*
X34202380Y-84274819D01*
X34202380Y-84274819D02*
X34107142Y-84274819D01*
X34107142Y-84274819D02*
X33964285Y-84322438D01*
X33964285Y-84322438D02*
X33916666Y-84370057D01*
X33059523Y-84608152D02*
X33059523Y-85274819D01*
X33297618Y-84227200D02*
X33535713Y-84941485D01*
X33535713Y-84941485D02*
X32916666Y-84941485D01*
X33109580Y-37357142D02*
X33157200Y-37309523D01*
X33157200Y-37309523D02*
X33204819Y-37166666D01*
X33204819Y-37166666D02*
X33204819Y-37071428D01*
X33204819Y-37071428D02*
X33157200Y-36928571D01*
X33157200Y-36928571D02*
X33061961Y-36833333D01*
X33061961Y-36833333D02*
X32966723Y-36785714D01*
X32966723Y-36785714D02*
X32776247Y-36738095D01*
X32776247Y-36738095D02*
X32633390Y-36738095D01*
X32633390Y-36738095D02*
X32442914Y-36785714D01*
X32442914Y-36785714D02*
X32347676Y-36833333D01*
X32347676Y-36833333D02*
X32252438Y-36928571D01*
X32252438Y-36928571D02*
X32204819Y-37071428D01*
X32204819Y-37071428D02*
X32204819Y-37166666D01*
X32204819Y-37166666D02*
X32252438Y-37309523D01*
X32252438Y-37309523D02*
X32300057Y-37357142D01*
X32204819Y-38261904D02*
X32204819Y-37785714D01*
X32204819Y-37785714D02*
X32681009Y-37738095D01*
X32681009Y-37738095D02*
X32633390Y-37785714D01*
X32633390Y-37785714D02*
X32585771Y-37880952D01*
X32585771Y-37880952D02*
X32585771Y-38119047D01*
X32585771Y-38119047D02*
X32633390Y-38214285D01*
X32633390Y-38214285D02*
X32681009Y-38261904D01*
X32681009Y-38261904D02*
X32776247Y-38309523D01*
X32776247Y-38309523D02*
X33014342Y-38309523D01*
X33014342Y-38309523D02*
X33109580Y-38261904D01*
X33109580Y-38261904D02*
X33157200Y-38214285D01*
X33157200Y-38214285D02*
X33204819Y-38119047D01*
X33204819Y-38119047D02*
X33204819Y-37880952D01*
X33204819Y-37880952D02*
X33157200Y-37785714D01*
X33157200Y-37785714D02*
X33109580Y-37738095D01*
X32204819Y-38642857D02*
X32204819Y-39309523D01*
X32204819Y-39309523D02*
X33204819Y-38880952D01*
X50214285Y-70454819D02*
X50214285Y-69454819D01*
X50214285Y-69454819D02*
X49976190Y-69454819D01*
X49976190Y-69454819D02*
X49833333Y-69502438D01*
X49833333Y-69502438D02*
X49738095Y-69597676D01*
X49738095Y-69597676D02*
X49690476Y-69692914D01*
X49690476Y-69692914D02*
X49642857Y-69883390D01*
X49642857Y-69883390D02*
X49642857Y-70026247D01*
X49642857Y-70026247D02*
X49690476Y-70216723D01*
X49690476Y-70216723D02*
X49738095Y-70311961D01*
X49738095Y-70311961D02*
X49833333Y-70407200D01*
X49833333Y-70407200D02*
X49976190Y-70454819D01*
X49976190Y-70454819D02*
X50214285Y-70454819D01*
X48690476Y-70454819D02*
X49261904Y-70454819D01*
X48976190Y-70454819D02*
X48976190Y-69454819D01*
X48976190Y-69454819D02*
X49071428Y-69597676D01*
X49071428Y-69597676D02*
X49166666Y-69692914D01*
X49166666Y-69692914D02*
X49261904Y-69740533D01*
X47833333Y-69454819D02*
X48023809Y-69454819D01*
X48023809Y-69454819D02*
X48119047Y-69502438D01*
X48119047Y-69502438D02*
X48166666Y-69550057D01*
X48166666Y-69550057D02*
X48261904Y-69692914D01*
X48261904Y-69692914D02*
X48309523Y-69883390D01*
X48309523Y-69883390D02*
X48309523Y-70264342D01*
X48309523Y-70264342D02*
X48261904Y-70359580D01*
X48261904Y-70359580D02*
X48214285Y-70407200D01*
X48214285Y-70407200D02*
X48119047Y-70454819D01*
X48119047Y-70454819D02*
X47928571Y-70454819D01*
X47928571Y-70454819D02*
X47833333Y-70407200D01*
X47833333Y-70407200D02*
X47785714Y-70359580D01*
X47785714Y-70359580D02*
X47738095Y-70264342D01*
X47738095Y-70264342D02*
X47738095Y-70026247D01*
X47738095Y-70026247D02*
X47785714Y-69931009D01*
X47785714Y-69931009D02*
X47833333Y-69883390D01*
X47833333Y-69883390D02*
X47928571Y-69835771D01*
X47928571Y-69835771D02*
X48119047Y-69835771D01*
X48119047Y-69835771D02*
X48214285Y-69883390D01*
X48214285Y-69883390D02*
X48261904Y-69931009D01*
X48261904Y-69931009D02*
X48309523Y-70026247D01*
X28704819Y-60583333D02*
X28228628Y-60250000D01*
X28704819Y-60011905D02*
X27704819Y-60011905D01*
X27704819Y-60011905D02*
X27704819Y-60392857D01*
X27704819Y-60392857D02*
X27752438Y-60488095D01*
X27752438Y-60488095D02*
X27800057Y-60535714D01*
X27800057Y-60535714D02*
X27895295Y-60583333D01*
X27895295Y-60583333D02*
X28038152Y-60583333D01*
X28038152Y-60583333D02*
X28133390Y-60535714D01*
X28133390Y-60535714D02*
X28181009Y-60488095D01*
X28181009Y-60488095D02*
X28228628Y-60392857D01*
X28228628Y-60392857D02*
X28228628Y-60011905D01*
X27704819Y-60916667D02*
X27704819Y-61583333D01*
X27704819Y-61583333D02*
X28704819Y-61154762D01*
X44392857Y-72039580D02*
X44440476Y-72087200D01*
X44440476Y-72087200D02*
X44583333Y-72134819D01*
X44583333Y-72134819D02*
X44678571Y-72134819D01*
X44678571Y-72134819D02*
X44821428Y-72087200D01*
X44821428Y-72087200D02*
X44916666Y-71991961D01*
X44916666Y-71991961D02*
X44964285Y-71896723D01*
X44964285Y-71896723D02*
X45011904Y-71706247D01*
X45011904Y-71706247D02*
X45011904Y-71563390D01*
X45011904Y-71563390D02*
X44964285Y-71372914D01*
X44964285Y-71372914D02*
X44916666Y-71277676D01*
X44916666Y-71277676D02*
X44821428Y-71182438D01*
X44821428Y-71182438D02*
X44678571Y-71134819D01*
X44678571Y-71134819D02*
X44583333Y-71134819D01*
X44583333Y-71134819D02*
X44440476Y-71182438D01*
X44440476Y-71182438D02*
X44392857Y-71230057D01*
X43535714Y-71468152D02*
X43535714Y-72134819D01*
X43773809Y-71087200D02*
X44011904Y-71801485D01*
X44011904Y-71801485D02*
X43392857Y-71801485D01*
X42869047Y-71563390D02*
X42964285Y-71515771D01*
X42964285Y-71515771D02*
X43011904Y-71468152D01*
X43011904Y-71468152D02*
X43059523Y-71372914D01*
X43059523Y-71372914D02*
X43059523Y-71325295D01*
X43059523Y-71325295D02*
X43011904Y-71230057D01*
X43011904Y-71230057D02*
X42964285Y-71182438D01*
X42964285Y-71182438D02*
X42869047Y-71134819D01*
X42869047Y-71134819D02*
X42678571Y-71134819D01*
X42678571Y-71134819D02*
X42583333Y-71182438D01*
X42583333Y-71182438D02*
X42535714Y-71230057D01*
X42535714Y-71230057D02*
X42488095Y-71325295D01*
X42488095Y-71325295D02*
X42488095Y-71372914D01*
X42488095Y-71372914D02*
X42535714Y-71468152D01*
X42535714Y-71468152D02*
X42583333Y-71515771D01*
X42583333Y-71515771D02*
X42678571Y-71563390D01*
X42678571Y-71563390D02*
X42869047Y-71563390D01*
X42869047Y-71563390D02*
X42964285Y-71611009D01*
X42964285Y-71611009D02*
X43011904Y-71658628D01*
X43011904Y-71658628D02*
X43059523Y-71753866D01*
X43059523Y-71753866D02*
X43059523Y-71944342D01*
X43059523Y-71944342D02*
X43011904Y-72039580D01*
X43011904Y-72039580D02*
X42964285Y-72087200D01*
X42964285Y-72087200D02*
X42869047Y-72134819D01*
X42869047Y-72134819D02*
X42678571Y-72134819D01*
X42678571Y-72134819D02*
X42583333Y-72087200D01*
X42583333Y-72087200D02*
X42535714Y-72039580D01*
X42535714Y-72039580D02*
X42488095Y-71944342D01*
X42488095Y-71944342D02*
X42488095Y-71753866D01*
X42488095Y-71753866D02*
X42535714Y-71658628D01*
X42535714Y-71658628D02*
X42583333Y-71611009D01*
X42583333Y-71611009D02*
X42678571Y-71563390D01*
X57274819Y-84333333D02*
X56798628Y-84000000D01*
X57274819Y-83761905D02*
X56274819Y-83761905D01*
X56274819Y-83761905D02*
X56274819Y-84142857D01*
X56274819Y-84142857D02*
X56322438Y-84238095D01*
X56322438Y-84238095D02*
X56370057Y-84285714D01*
X56370057Y-84285714D02*
X56465295Y-84333333D01*
X56465295Y-84333333D02*
X56608152Y-84333333D01*
X56608152Y-84333333D02*
X56703390Y-84285714D01*
X56703390Y-84285714D02*
X56751009Y-84238095D01*
X56751009Y-84238095D02*
X56798628Y-84142857D01*
X56798628Y-84142857D02*
X56798628Y-83761905D01*
X56274819Y-84666667D02*
X56274819Y-85285714D01*
X56274819Y-85285714D02*
X56655771Y-84952381D01*
X56655771Y-84952381D02*
X56655771Y-85095238D01*
X56655771Y-85095238D02*
X56703390Y-85190476D01*
X56703390Y-85190476D02*
X56751009Y-85238095D01*
X56751009Y-85238095D02*
X56846247Y-85285714D01*
X56846247Y-85285714D02*
X57084342Y-85285714D01*
X57084342Y-85285714D02*
X57179580Y-85238095D01*
X57179580Y-85238095D02*
X57227200Y-85190476D01*
X57227200Y-85190476D02*
X57274819Y-85095238D01*
X57274819Y-85095238D02*
X57274819Y-84809524D01*
X57274819Y-84809524D02*
X57227200Y-84714286D01*
X57227200Y-84714286D02*
X57179580Y-84666667D01*
X41384819Y-45857142D02*
X40908628Y-45523809D01*
X41384819Y-45285714D02*
X40384819Y-45285714D01*
X40384819Y-45285714D02*
X40384819Y-45666666D01*
X40384819Y-45666666D02*
X40432438Y-45761904D01*
X40432438Y-45761904D02*
X40480057Y-45809523D01*
X40480057Y-45809523D02*
X40575295Y-45857142D01*
X40575295Y-45857142D02*
X40718152Y-45857142D01*
X40718152Y-45857142D02*
X40813390Y-45809523D01*
X40813390Y-45809523D02*
X40861009Y-45761904D01*
X40861009Y-45761904D02*
X40908628Y-45666666D01*
X40908628Y-45666666D02*
X40908628Y-45285714D01*
X41384819Y-46809523D02*
X41384819Y-46238095D01*
X41384819Y-46523809D02*
X40384819Y-46523809D01*
X40384819Y-46523809D02*
X40527676Y-46428571D01*
X40527676Y-46428571D02*
X40622914Y-46333333D01*
X40622914Y-46333333D02*
X40670533Y-46238095D01*
X41384819Y-47285714D02*
X41384819Y-47476190D01*
X41384819Y-47476190D02*
X41337200Y-47571428D01*
X41337200Y-47571428D02*
X41289580Y-47619047D01*
X41289580Y-47619047D02*
X41146723Y-47714285D01*
X41146723Y-47714285D02*
X40956247Y-47761904D01*
X40956247Y-47761904D02*
X40575295Y-47761904D01*
X40575295Y-47761904D02*
X40480057Y-47714285D01*
X40480057Y-47714285D02*
X40432438Y-47666666D01*
X40432438Y-47666666D02*
X40384819Y-47571428D01*
X40384819Y-47571428D02*
X40384819Y-47380952D01*
X40384819Y-47380952D02*
X40432438Y-47285714D01*
X40432438Y-47285714D02*
X40480057Y-47238095D01*
X40480057Y-47238095D02*
X40575295Y-47190476D01*
X40575295Y-47190476D02*
X40813390Y-47190476D01*
X40813390Y-47190476D02*
X40908628Y-47238095D01*
X40908628Y-47238095D02*
X40956247Y-47285714D01*
X40956247Y-47285714D02*
X41003866Y-47380952D01*
X41003866Y-47380952D02*
X41003866Y-47571428D01*
X41003866Y-47571428D02*
X40956247Y-47666666D01*
X40956247Y-47666666D02*
X40908628Y-47714285D01*
X40908628Y-47714285D02*
X40813390Y-47761904D01*
D10*
X61738094Y-54626109D02*
X61738094Y-54126109D01*
X61214285Y-54578490D02*
X61238094Y-54602300D01*
X61238094Y-54602300D02*
X61309523Y-54626109D01*
X61309523Y-54626109D02*
X61357142Y-54626109D01*
X61357142Y-54626109D02*
X61428570Y-54602300D01*
X61428570Y-54602300D02*
X61476189Y-54554680D01*
X61476189Y-54554680D02*
X61499999Y-54507061D01*
X61499999Y-54507061D02*
X61523808Y-54411823D01*
X61523808Y-54411823D02*
X61523808Y-54340395D01*
X61523808Y-54340395D02*
X61499999Y-54245157D01*
X61499999Y-54245157D02*
X61476189Y-54197538D01*
X61476189Y-54197538D02*
X61428570Y-54149919D01*
X61428570Y-54149919D02*
X61357142Y-54126109D01*
X61357142Y-54126109D02*
X61309523Y-54126109D01*
X61309523Y-54126109D02*
X61238094Y-54149919D01*
X61238094Y-54149919D02*
X61214285Y-54173728D01*
X61023808Y-54173728D02*
X60999999Y-54149919D01*
X60999999Y-54149919D02*
X60952380Y-54126109D01*
X60952380Y-54126109D02*
X60833332Y-54126109D01*
X60833332Y-54126109D02*
X60785713Y-54149919D01*
X60785713Y-54149919D02*
X60761904Y-54173728D01*
X60761904Y-54173728D02*
X60738094Y-54221347D01*
X60738094Y-54221347D02*
X60738094Y-54268966D01*
X60738094Y-54268966D02*
X60761904Y-54340395D01*
X60761904Y-54340395D02*
X61047618Y-54626109D01*
X61047618Y-54626109D02*
X60738094Y-54626109D01*
D11*
X61704819Y-41785714D02*
X60704819Y-41785714D01*
X60704819Y-41785714D02*
X60704819Y-42023809D01*
X60704819Y-42023809D02*
X60752438Y-42166666D01*
X60752438Y-42166666D02*
X60847676Y-42261904D01*
X60847676Y-42261904D02*
X60942914Y-42309523D01*
X60942914Y-42309523D02*
X61133390Y-42357142D01*
X61133390Y-42357142D02*
X61276247Y-42357142D01*
X61276247Y-42357142D02*
X61466723Y-42309523D01*
X61466723Y-42309523D02*
X61561961Y-42261904D01*
X61561961Y-42261904D02*
X61657200Y-42166666D01*
X61657200Y-42166666D02*
X61704819Y-42023809D01*
X61704819Y-42023809D02*
X61704819Y-41785714D01*
X61704819Y-43309523D02*
X61704819Y-42738095D01*
X61704819Y-43023809D02*
X60704819Y-43023809D01*
X60704819Y-43023809D02*
X60847676Y-42928571D01*
X60847676Y-42928571D02*
X60942914Y-42833333D01*
X60942914Y-42833333D02*
X60990533Y-42738095D01*
X60800057Y-43690476D02*
X60752438Y-43738095D01*
X60752438Y-43738095D02*
X60704819Y-43833333D01*
X60704819Y-43833333D02*
X60704819Y-44071428D01*
X60704819Y-44071428D02*
X60752438Y-44166666D01*
X60752438Y-44166666D02*
X60800057Y-44214285D01*
X60800057Y-44214285D02*
X60895295Y-44261904D01*
X60895295Y-44261904D02*
X60990533Y-44261904D01*
X60990533Y-44261904D02*
X61133390Y-44214285D01*
X61133390Y-44214285D02*
X61704819Y-43642857D01*
X61704819Y-43642857D02*
X61704819Y-44261904D01*
X61345238Y-82700057D02*
X61440476Y-82652438D01*
X61440476Y-82652438D02*
X61535714Y-82557200D01*
X61535714Y-82557200D02*
X61678571Y-82414342D01*
X61678571Y-82414342D02*
X61773809Y-82366723D01*
X61773809Y-82366723D02*
X61869047Y-82366723D01*
X61821428Y-82604819D02*
X61916666Y-82557200D01*
X61916666Y-82557200D02*
X62011904Y-82461961D01*
X62011904Y-82461961D02*
X62059523Y-82271485D01*
X62059523Y-82271485D02*
X62059523Y-81938152D01*
X62059523Y-81938152D02*
X62011904Y-81747676D01*
X62011904Y-81747676D02*
X61916666Y-81652438D01*
X61916666Y-81652438D02*
X61821428Y-81604819D01*
X61821428Y-81604819D02*
X61630952Y-81604819D01*
X61630952Y-81604819D02*
X61535714Y-81652438D01*
X61535714Y-81652438D02*
X61440476Y-81747676D01*
X61440476Y-81747676D02*
X61392857Y-81938152D01*
X61392857Y-81938152D02*
X61392857Y-82271485D01*
X61392857Y-82271485D02*
X61440476Y-82461961D01*
X61440476Y-82461961D02*
X61535714Y-82557200D01*
X61535714Y-82557200D02*
X61630952Y-82604819D01*
X61630952Y-82604819D02*
X61821428Y-82604819D01*
X60440476Y-82604819D02*
X61011904Y-82604819D01*
X60726190Y-82604819D02*
X60726190Y-81604819D01*
X60726190Y-81604819D02*
X60821428Y-81747676D01*
X60821428Y-81747676D02*
X60916666Y-81842914D01*
X60916666Y-81842914D02*
X61011904Y-81890533D01*
X39204819Y-34607142D02*
X38728628Y-34273809D01*
X39204819Y-34035714D02*
X38204819Y-34035714D01*
X38204819Y-34035714D02*
X38204819Y-34416666D01*
X38204819Y-34416666D02*
X38252438Y-34511904D01*
X38252438Y-34511904D02*
X38300057Y-34559523D01*
X38300057Y-34559523D02*
X38395295Y-34607142D01*
X38395295Y-34607142D02*
X38538152Y-34607142D01*
X38538152Y-34607142D02*
X38633390Y-34559523D01*
X38633390Y-34559523D02*
X38681009Y-34511904D01*
X38681009Y-34511904D02*
X38728628Y-34416666D01*
X38728628Y-34416666D02*
X38728628Y-34035714D01*
X38300057Y-34988095D02*
X38252438Y-35035714D01*
X38252438Y-35035714D02*
X38204819Y-35130952D01*
X38204819Y-35130952D02*
X38204819Y-35369047D01*
X38204819Y-35369047D02*
X38252438Y-35464285D01*
X38252438Y-35464285D02*
X38300057Y-35511904D01*
X38300057Y-35511904D02*
X38395295Y-35559523D01*
X38395295Y-35559523D02*
X38490533Y-35559523D01*
X38490533Y-35559523D02*
X38633390Y-35511904D01*
X38633390Y-35511904D02*
X39204819Y-34940476D01*
X39204819Y-34940476D02*
X39204819Y-35559523D01*
X38204819Y-36416666D02*
X38204819Y-36226190D01*
X38204819Y-36226190D02*
X38252438Y-36130952D01*
X38252438Y-36130952D02*
X38300057Y-36083333D01*
X38300057Y-36083333D02*
X38442914Y-35988095D01*
X38442914Y-35988095D02*
X38633390Y-35940476D01*
X38633390Y-35940476D02*
X39014342Y-35940476D01*
X39014342Y-35940476D02*
X39109580Y-35988095D01*
X39109580Y-35988095D02*
X39157200Y-36035714D01*
X39157200Y-36035714D02*
X39204819Y-36130952D01*
X39204819Y-36130952D02*
X39204819Y-36321428D01*
X39204819Y-36321428D02*
X39157200Y-36416666D01*
X39157200Y-36416666D02*
X39109580Y-36464285D01*
X39109580Y-36464285D02*
X39014342Y-36511904D01*
X39014342Y-36511904D02*
X38776247Y-36511904D01*
X38776247Y-36511904D02*
X38681009Y-36464285D01*
X38681009Y-36464285D02*
X38633390Y-36416666D01*
X38633390Y-36416666D02*
X38585771Y-36321428D01*
X38585771Y-36321428D02*
X38585771Y-36130952D01*
X38585771Y-36130952D02*
X38633390Y-36035714D01*
X38633390Y-36035714D02*
X38681009Y-35988095D01*
X38681009Y-35988095D02*
X38776247Y-35940476D01*
X30679580Y-42857142D02*
X30727200Y-42809523D01*
X30727200Y-42809523D02*
X30774819Y-42666666D01*
X30774819Y-42666666D02*
X30774819Y-42571428D01*
X30774819Y-42571428D02*
X30727200Y-42428571D01*
X30727200Y-42428571D02*
X30631961Y-42333333D01*
X30631961Y-42333333D02*
X30536723Y-42285714D01*
X30536723Y-42285714D02*
X30346247Y-42238095D01*
X30346247Y-42238095D02*
X30203390Y-42238095D01*
X30203390Y-42238095D02*
X30012914Y-42285714D01*
X30012914Y-42285714D02*
X29917676Y-42333333D01*
X29917676Y-42333333D02*
X29822438Y-42428571D01*
X29822438Y-42428571D02*
X29774819Y-42571428D01*
X29774819Y-42571428D02*
X29774819Y-42666666D01*
X29774819Y-42666666D02*
X29822438Y-42809523D01*
X29822438Y-42809523D02*
X29870057Y-42857142D01*
X29774819Y-43761904D02*
X29774819Y-43285714D01*
X29774819Y-43285714D02*
X30251009Y-43238095D01*
X30251009Y-43238095D02*
X30203390Y-43285714D01*
X30203390Y-43285714D02*
X30155771Y-43380952D01*
X30155771Y-43380952D02*
X30155771Y-43619047D01*
X30155771Y-43619047D02*
X30203390Y-43714285D01*
X30203390Y-43714285D02*
X30251009Y-43761904D01*
X30251009Y-43761904D02*
X30346247Y-43809523D01*
X30346247Y-43809523D02*
X30584342Y-43809523D01*
X30584342Y-43809523D02*
X30679580Y-43761904D01*
X30679580Y-43761904D02*
X30727200Y-43714285D01*
X30727200Y-43714285D02*
X30774819Y-43619047D01*
X30774819Y-43619047D02*
X30774819Y-43380952D01*
X30774819Y-43380952D02*
X30727200Y-43285714D01*
X30727200Y-43285714D02*
X30679580Y-43238095D01*
X29774819Y-44142857D02*
X29774819Y-44761904D01*
X29774819Y-44761904D02*
X30155771Y-44428571D01*
X30155771Y-44428571D02*
X30155771Y-44571428D01*
X30155771Y-44571428D02*
X30203390Y-44666666D01*
X30203390Y-44666666D02*
X30251009Y-44714285D01*
X30251009Y-44714285D02*
X30346247Y-44761904D01*
X30346247Y-44761904D02*
X30584342Y-44761904D01*
X30584342Y-44761904D02*
X30679580Y-44714285D01*
X30679580Y-44714285D02*
X30727200Y-44666666D01*
X30727200Y-44666666D02*
X30774819Y-44571428D01*
X30774819Y-44571428D02*
X30774819Y-44285714D01*
X30774819Y-44285714D02*
X30727200Y-44190476D01*
X30727200Y-44190476D02*
X30679580Y-44142857D01*
X50789580Y-52607142D02*
X50837200Y-52559523D01*
X50837200Y-52559523D02*
X50884819Y-52416666D01*
X50884819Y-52416666D02*
X50884819Y-52321428D01*
X50884819Y-52321428D02*
X50837200Y-52178571D01*
X50837200Y-52178571D02*
X50741961Y-52083333D01*
X50741961Y-52083333D02*
X50646723Y-52035714D01*
X50646723Y-52035714D02*
X50456247Y-51988095D01*
X50456247Y-51988095D02*
X50313390Y-51988095D01*
X50313390Y-51988095D02*
X50122914Y-52035714D01*
X50122914Y-52035714D02*
X50027676Y-52083333D01*
X50027676Y-52083333D02*
X49932438Y-52178571D01*
X49932438Y-52178571D02*
X49884819Y-52321428D01*
X49884819Y-52321428D02*
X49884819Y-52416666D01*
X49884819Y-52416666D02*
X49932438Y-52559523D01*
X49932438Y-52559523D02*
X49980057Y-52607142D01*
X49884819Y-52940476D02*
X49884819Y-53559523D01*
X49884819Y-53559523D02*
X50265771Y-53226190D01*
X50265771Y-53226190D02*
X50265771Y-53369047D01*
X50265771Y-53369047D02*
X50313390Y-53464285D01*
X50313390Y-53464285D02*
X50361009Y-53511904D01*
X50361009Y-53511904D02*
X50456247Y-53559523D01*
X50456247Y-53559523D02*
X50694342Y-53559523D01*
X50694342Y-53559523D02*
X50789580Y-53511904D01*
X50789580Y-53511904D02*
X50837200Y-53464285D01*
X50837200Y-53464285D02*
X50884819Y-53369047D01*
X50884819Y-53369047D02*
X50884819Y-53083333D01*
X50884819Y-53083333D02*
X50837200Y-52988095D01*
X50837200Y-52988095D02*
X50789580Y-52940476D01*
X49884819Y-54178571D02*
X49884819Y-54273809D01*
X49884819Y-54273809D02*
X49932438Y-54369047D01*
X49932438Y-54369047D02*
X49980057Y-54416666D01*
X49980057Y-54416666D02*
X50075295Y-54464285D01*
X50075295Y-54464285D02*
X50265771Y-54511904D01*
X50265771Y-54511904D02*
X50503866Y-54511904D01*
X50503866Y-54511904D02*
X50694342Y-54464285D01*
X50694342Y-54464285D02*
X50789580Y-54416666D01*
X50789580Y-54416666D02*
X50837200Y-54369047D01*
X50837200Y-54369047D02*
X50884819Y-54273809D01*
X50884819Y-54273809D02*
X50884819Y-54178571D01*
X50884819Y-54178571D02*
X50837200Y-54083333D01*
X50837200Y-54083333D02*
X50789580Y-54035714D01*
X50789580Y-54035714D02*
X50694342Y-53988095D01*
X50694342Y-53988095D02*
X50503866Y-53940476D01*
X50503866Y-53940476D02*
X50265771Y-53940476D01*
X50265771Y-53940476D02*
X50075295Y-53988095D01*
X50075295Y-53988095D02*
X49980057Y-54035714D01*
X49980057Y-54035714D02*
X49932438Y-54083333D01*
X49932438Y-54083333D02*
X49884819Y-54178571D01*
X27204819Y-34607142D02*
X26728628Y-34273809D01*
X27204819Y-34035714D02*
X26204819Y-34035714D01*
X26204819Y-34035714D02*
X26204819Y-34416666D01*
X26204819Y-34416666D02*
X26252438Y-34511904D01*
X26252438Y-34511904D02*
X26300057Y-34559523D01*
X26300057Y-34559523D02*
X26395295Y-34607142D01*
X26395295Y-34607142D02*
X26538152Y-34607142D01*
X26538152Y-34607142D02*
X26633390Y-34559523D01*
X26633390Y-34559523D02*
X26681009Y-34511904D01*
X26681009Y-34511904D02*
X26728628Y-34416666D01*
X26728628Y-34416666D02*
X26728628Y-34035714D01*
X26300057Y-34988095D02*
X26252438Y-35035714D01*
X26252438Y-35035714D02*
X26204819Y-35130952D01*
X26204819Y-35130952D02*
X26204819Y-35369047D01*
X26204819Y-35369047D02*
X26252438Y-35464285D01*
X26252438Y-35464285D02*
X26300057Y-35511904D01*
X26300057Y-35511904D02*
X26395295Y-35559523D01*
X26395295Y-35559523D02*
X26490533Y-35559523D01*
X26490533Y-35559523D02*
X26633390Y-35511904D01*
X26633390Y-35511904D02*
X27204819Y-34940476D01*
X27204819Y-34940476D02*
X27204819Y-35559523D01*
X26538152Y-36416666D02*
X27204819Y-36416666D01*
X26157200Y-36178571D02*
X26871485Y-35940476D01*
X26871485Y-35940476D02*
X26871485Y-36559523D01*
X50789580Y-48857142D02*
X50837200Y-48809523D01*
X50837200Y-48809523D02*
X50884819Y-48666666D01*
X50884819Y-48666666D02*
X50884819Y-48571428D01*
X50884819Y-48571428D02*
X50837200Y-48428571D01*
X50837200Y-48428571D02*
X50741961Y-48333333D01*
X50741961Y-48333333D02*
X50646723Y-48285714D01*
X50646723Y-48285714D02*
X50456247Y-48238095D01*
X50456247Y-48238095D02*
X50313390Y-48238095D01*
X50313390Y-48238095D02*
X50122914Y-48285714D01*
X50122914Y-48285714D02*
X50027676Y-48333333D01*
X50027676Y-48333333D02*
X49932438Y-48428571D01*
X49932438Y-48428571D02*
X49884819Y-48571428D01*
X49884819Y-48571428D02*
X49884819Y-48666666D01*
X49884819Y-48666666D02*
X49932438Y-48809523D01*
X49932438Y-48809523D02*
X49980057Y-48857142D01*
X50218152Y-49714285D02*
X50884819Y-49714285D01*
X49837200Y-49476190D02*
X50551485Y-49238095D01*
X50551485Y-49238095D02*
X50551485Y-49857142D01*
X50884819Y-50285714D02*
X50884819Y-50476190D01*
X50884819Y-50476190D02*
X50837200Y-50571428D01*
X50837200Y-50571428D02*
X50789580Y-50619047D01*
X50789580Y-50619047D02*
X50646723Y-50714285D01*
X50646723Y-50714285D02*
X50456247Y-50761904D01*
X50456247Y-50761904D02*
X50075295Y-50761904D01*
X50075295Y-50761904D02*
X49980057Y-50714285D01*
X49980057Y-50714285D02*
X49932438Y-50666666D01*
X49932438Y-50666666D02*
X49884819Y-50571428D01*
X49884819Y-50571428D02*
X49884819Y-50380952D01*
X49884819Y-50380952D02*
X49932438Y-50285714D01*
X49932438Y-50285714D02*
X49980057Y-50238095D01*
X49980057Y-50238095D02*
X50075295Y-50190476D01*
X50075295Y-50190476D02*
X50313390Y-50190476D01*
X50313390Y-50190476D02*
X50408628Y-50238095D01*
X50408628Y-50238095D02*
X50456247Y-50285714D01*
X50456247Y-50285714D02*
X50503866Y-50380952D01*
X50503866Y-50380952D02*
X50503866Y-50571428D01*
X50503866Y-50571428D02*
X50456247Y-50666666D01*
X50456247Y-50666666D02*
X50408628Y-50714285D01*
X50408628Y-50714285D02*
X50313390Y-50761904D01*
X25179580Y-79333333D02*
X25227200Y-79285714D01*
X25227200Y-79285714D02*
X25274819Y-79142857D01*
X25274819Y-79142857D02*
X25274819Y-79047619D01*
X25274819Y-79047619D02*
X25227200Y-78904762D01*
X25227200Y-78904762D02*
X25131961Y-78809524D01*
X25131961Y-78809524D02*
X25036723Y-78761905D01*
X25036723Y-78761905D02*
X24846247Y-78714286D01*
X24846247Y-78714286D02*
X24703390Y-78714286D01*
X24703390Y-78714286D02*
X24512914Y-78761905D01*
X24512914Y-78761905D02*
X24417676Y-78809524D01*
X24417676Y-78809524D02*
X24322438Y-78904762D01*
X24322438Y-78904762D02*
X24274819Y-79047619D01*
X24274819Y-79047619D02*
X24274819Y-79142857D01*
X24274819Y-79142857D02*
X24322438Y-79285714D01*
X24322438Y-79285714D02*
X24370057Y-79333333D01*
X24274819Y-80190476D02*
X24274819Y-80000000D01*
X24274819Y-80000000D02*
X24322438Y-79904762D01*
X24322438Y-79904762D02*
X24370057Y-79857143D01*
X24370057Y-79857143D02*
X24512914Y-79761905D01*
X24512914Y-79761905D02*
X24703390Y-79714286D01*
X24703390Y-79714286D02*
X25084342Y-79714286D01*
X25084342Y-79714286D02*
X25179580Y-79761905D01*
X25179580Y-79761905D02*
X25227200Y-79809524D01*
X25227200Y-79809524D02*
X25274819Y-79904762D01*
X25274819Y-79904762D02*
X25274819Y-80095238D01*
X25274819Y-80095238D02*
X25227200Y-80190476D01*
X25227200Y-80190476D02*
X25179580Y-80238095D01*
X25179580Y-80238095D02*
X25084342Y-80285714D01*
X25084342Y-80285714D02*
X24846247Y-80285714D01*
X24846247Y-80285714D02*
X24751009Y-80238095D01*
X24751009Y-80238095D02*
X24703390Y-80190476D01*
X24703390Y-80190476D02*
X24655771Y-80095238D01*
X24655771Y-80095238D02*
X24655771Y-79904762D01*
X24655771Y-79904762D02*
X24703390Y-79809524D01*
X24703390Y-79809524D02*
X24751009Y-79761905D01*
X24751009Y-79761905D02*
X24846247Y-79714286D01*
X63274819Y-65357142D02*
X62798628Y-65023809D01*
X63274819Y-64785714D02*
X62274819Y-64785714D01*
X62274819Y-64785714D02*
X62274819Y-65166666D01*
X62274819Y-65166666D02*
X62322438Y-65261904D01*
X62322438Y-65261904D02*
X62370057Y-65309523D01*
X62370057Y-65309523D02*
X62465295Y-65357142D01*
X62465295Y-65357142D02*
X62608152Y-65357142D01*
X62608152Y-65357142D02*
X62703390Y-65309523D01*
X62703390Y-65309523D02*
X62751009Y-65261904D01*
X62751009Y-65261904D02*
X62798628Y-65166666D01*
X62798628Y-65166666D02*
X62798628Y-64785714D01*
X63274819Y-66309523D02*
X63274819Y-65738095D01*
X63274819Y-66023809D02*
X62274819Y-66023809D01*
X62274819Y-66023809D02*
X62417676Y-65928571D01*
X62417676Y-65928571D02*
X62512914Y-65833333D01*
X62512914Y-65833333D02*
X62560533Y-65738095D01*
X62608152Y-67166666D02*
X63274819Y-67166666D01*
X62227200Y-66928571D02*
X62941485Y-66690476D01*
X62941485Y-66690476D02*
X62941485Y-67309523D01*
X44392857Y-73179580D02*
X44440476Y-73227200D01*
X44440476Y-73227200D02*
X44583333Y-73274819D01*
X44583333Y-73274819D02*
X44678571Y-73274819D01*
X44678571Y-73274819D02*
X44821428Y-73227200D01*
X44821428Y-73227200D02*
X44916666Y-73131961D01*
X44916666Y-73131961D02*
X44964285Y-73036723D01*
X44964285Y-73036723D02*
X45011904Y-72846247D01*
X45011904Y-72846247D02*
X45011904Y-72703390D01*
X45011904Y-72703390D02*
X44964285Y-72512914D01*
X44964285Y-72512914D02*
X44916666Y-72417676D01*
X44916666Y-72417676D02*
X44821428Y-72322438D01*
X44821428Y-72322438D02*
X44678571Y-72274819D01*
X44678571Y-72274819D02*
X44583333Y-72274819D01*
X44583333Y-72274819D02*
X44440476Y-72322438D01*
X44440476Y-72322438D02*
X44392857Y-72370057D01*
X43440476Y-73274819D02*
X44011904Y-73274819D01*
X43726190Y-73274819D02*
X43726190Y-72274819D01*
X43726190Y-72274819D02*
X43821428Y-72417676D01*
X43821428Y-72417676D02*
X43916666Y-72512914D01*
X43916666Y-72512914D02*
X44011904Y-72560533D01*
X43107142Y-72274819D02*
X42440476Y-72274819D01*
X42440476Y-72274819D02*
X42869047Y-73274819D01*
X24094819Y-49521905D02*
X23094819Y-49521905D01*
X23094819Y-49521905D02*
X23094819Y-49760000D01*
X23094819Y-49760000D02*
X23142438Y-49902857D01*
X23142438Y-49902857D02*
X23237676Y-49998095D01*
X23237676Y-49998095D02*
X23332914Y-50045714D01*
X23332914Y-50045714D02*
X23523390Y-50093333D01*
X23523390Y-50093333D02*
X23666247Y-50093333D01*
X23666247Y-50093333D02*
X23856723Y-50045714D01*
X23856723Y-50045714D02*
X23951961Y-49998095D01*
X23951961Y-49998095D02*
X24047200Y-49902857D01*
X24047200Y-49902857D02*
X24094819Y-49760000D01*
X24094819Y-49760000D02*
X24094819Y-49521905D01*
X23094819Y-50426667D02*
X23094819Y-51045714D01*
X23094819Y-51045714D02*
X23475771Y-50712381D01*
X23475771Y-50712381D02*
X23475771Y-50855238D01*
X23475771Y-50855238D02*
X23523390Y-50950476D01*
X23523390Y-50950476D02*
X23571009Y-50998095D01*
X23571009Y-50998095D02*
X23666247Y-51045714D01*
X23666247Y-51045714D02*
X23904342Y-51045714D01*
X23904342Y-51045714D02*
X23999580Y-50998095D01*
X23999580Y-50998095D02*
X24047200Y-50950476D01*
X24047200Y-50950476D02*
X24094819Y-50855238D01*
X24094819Y-50855238D02*
X24094819Y-50569524D01*
X24094819Y-50569524D02*
X24047200Y-50474286D01*
X24047200Y-50474286D02*
X23999580Y-50426667D01*
X40257271Y-42914286D02*
X39657271Y-42914286D01*
X40200128Y-43542857D02*
X40228700Y-43514285D01*
X40228700Y-43514285D02*
X40257271Y-43428571D01*
X40257271Y-43428571D02*
X40257271Y-43371428D01*
X40257271Y-43371428D02*
X40228700Y-43285714D01*
X40228700Y-43285714D02*
X40171557Y-43228571D01*
X40171557Y-43228571D02*
X40114414Y-43200000D01*
X40114414Y-43200000D02*
X40000128Y-43171428D01*
X40000128Y-43171428D02*
X39914414Y-43171428D01*
X39914414Y-43171428D02*
X39800128Y-43200000D01*
X39800128Y-43200000D02*
X39742985Y-43228571D01*
X39742985Y-43228571D02*
X39685842Y-43285714D01*
X39685842Y-43285714D02*
X39657271Y-43371428D01*
X39657271Y-43371428D02*
X39657271Y-43428571D01*
X39657271Y-43428571D02*
X39685842Y-43514285D01*
X39685842Y-43514285D02*
X39714414Y-43542857D01*
X39657271Y-43742857D02*
X39657271Y-44114285D01*
X39657271Y-44114285D02*
X39885842Y-43914285D01*
X39885842Y-43914285D02*
X39885842Y-44000000D01*
X39885842Y-44000000D02*
X39914414Y-44057143D01*
X39914414Y-44057143D02*
X39942985Y-44085714D01*
X39942985Y-44085714D02*
X40000128Y-44114285D01*
X40000128Y-44114285D02*
X40142985Y-44114285D01*
X40142985Y-44114285D02*
X40200128Y-44085714D01*
X40200128Y-44085714D02*
X40228700Y-44057143D01*
X40228700Y-44057143D02*
X40257271Y-44000000D01*
X40257271Y-44000000D02*
X40257271Y-43828571D01*
X40257271Y-43828571D02*
X40228700Y-43771428D01*
X40228700Y-43771428D02*
X40200128Y-43742857D01*
X26859580Y-60583333D02*
X26907200Y-60535714D01*
X26907200Y-60535714D02*
X26954819Y-60392857D01*
X26954819Y-60392857D02*
X26954819Y-60297619D01*
X26954819Y-60297619D02*
X26907200Y-60154762D01*
X26907200Y-60154762D02*
X26811961Y-60059524D01*
X26811961Y-60059524D02*
X26716723Y-60011905D01*
X26716723Y-60011905D02*
X26526247Y-59964286D01*
X26526247Y-59964286D02*
X26383390Y-59964286D01*
X26383390Y-59964286D02*
X26192914Y-60011905D01*
X26192914Y-60011905D02*
X26097676Y-60059524D01*
X26097676Y-60059524D02*
X26002438Y-60154762D01*
X26002438Y-60154762D02*
X25954819Y-60297619D01*
X25954819Y-60297619D02*
X25954819Y-60392857D01*
X25954819Y-60392857D02*
X26002438Y-60535714D01*
X26002438Y-60535714D02*
X26050057Y-60583333D01*
X26383390Y-61154762D02*
X26335771Y-61059524D01*
X26335771Y-61059524D02*
X26288152Y-61011905D01*
X26288152Y-61011905D02*
X26192914Y-60964286D01*
X26192914Y-60964286D02*
X26145295Y-60964286D01*
X26145295Y-60964286D02*
X26050057Y-61011905D01*
X26050057Y-61011905D02*
X26002438Y-61059524D01*
X26002438Y-61059524D02*
X25954819Y-61154762D01*
X25954819Y-61154762D02*
X25954819Y-61345238D01*
X25954819Y-61345238D02*
X26002438Y-61440476D01*
X26002438Y-61440476D02*
X26050057Y-61488095D01*
X26050057Y-61488095D02*
X26145295Y-61535714D01*
X26145295Y-61535714D02*
X26192914Y-61535714D01*
X26192914Y-61535714D02*
X26288152Y-61488095D01*
X26288152Y-61488095D02*
X26335771Y-61440476D01*
X26335771Y-61440476D02*
X26383390Y-61345238D01*
X26383390Y-61345238D02*
X26383390Y-61154762D01*
X26383390Y-61154762D02*
X26431009Y-61059524D01*
X26431009Y-61059524D02*
X26478628Y-61011905D01*
X26478628Y-61011905D02*
X26573866Y-60964286D01*
X26573866Y-60964286D02*
X26764342Y-60964286D01*
X26764342Y-60964286D02*
X26859580Y-61011905D01*
X26859580Y-61011905D02*
X26907200Y-61059524D01*
X26907200Y-61059524D02*
X26954819Y-61154762D01*
X26954819Y-61154762D02*
X26954819Y-61345238D01*
X26954819Y-61345238D02*
X26907200Y-61440476D01*
X26907200Y-61440476D02*
X26859580Y-61488095D01*
X26859580Y-61488095D02*
X26764342Y-61535714D01*
X26764342Y-61535714D02*
X26573866Y-61535714D01*
X26573866Y-61535714D02*
X26478628Y-61488095D01*
X26478628Y-61488095D02*
X26431009Y-61440476D01*
X26431009Y-61440476D02*
X26383390Y-61345238D01*
X26204819Y-63511905D02*
X25204819Y-63511905D01*
X25204819Y-63511905D02*
X25204819Y-63750000D01*
X25204819Y-63750000D02*
X25252438Y-63892857D01*
X25252438Y-63892857D02*
X25347676Y-63988095D01*
X25347676Y-63988095D02*
X25442914Y-64035714D01*
X25442914Y-64035714D02*
X25633390Y-64083333D01*
X25633390Y-64083333D02*
X25776247Y-64083333D01*
X25776247Y-64083333D02*
X25966723Y-64035714D01*
X25966723Y-64035714D02*
X26061961Y-63988095D01*
X26061961Y-63988095D02*
X26157200Y-63892857D01*
X26157200Y-63892857D02*
X26204819Y-63750000D01*
X26204819Y-63750000D02*
X26204819Y-63511905D01*
X25204819Y-64940476D02*
X25204819Y-64750000D01*
X25204819Y-64750000D02*
X25252438Y-64654762D01*
X25252438Y-64654762D02*
X25300057Y-64607143D01*
X25300057Y-64607143D02*
X25442914Y-64511905D01*
X25442914Y-64511905D02*
X25633390Y-64464286D01*
X25633390Y-64464286D02*
X26014342Y-64464286D01*
X26014342Y-64464286D02*
X26109580Y-64511905D01*
X26109580Y-64511905D02*
X26157200Y-64559524D01*
X26157200Y-64559524D02*
X26204819Y-64654762D01*
X26204819Y-64654762D02*
X26204819Y-64845238D01*
X26204819Y-64845238D02*
X26157200Y-64940476D01*
X26157200Y-64940476D02*
X26109580Y-64988095D01*
X26109580Y-64988095D02*
X26014342Y-65035714D01*
X26014342Y-65035714D02*
X25776247Y-65035714D01*
X25776247Y-65035714D02*
X25681009Y-64988095D01*
X25681009Y-64988095D02*
X25633390Y-64940476D01*
X25633390Y-64940476D02*
X25585771Y-64845238D01*
X25585771Y-64845238D02*
X25585771Y-64654762D01*
X25585771Y-64654762D02*
X25633390Y-64559524D01*
X25633390Y-64559524D02*
X25681009Y-64511905D01*
X25681009Y-64511905D02*
X25776247Y-64464286D01*
D12*
X31942288Y-63573868D02*
X32669261Y-64300841D01*
X32669261Y-64300841D02*
X32712024Y-64429131D01*
X32712024Y-64429131D02*
X32712024Y-64514657D01*
X32712024Y-64514657D02*
X32669261Y-64642946D01*
X32669261Y-64642946D02*
X32498209Y-64813999D01*
X32498209Y-64813999D02*
X32369919Y-64856762D01*
X32369919Y-64856762D02*
X32284393Y-64856762D01*
X32284393Y-64856762D02*
X32156104Y-64813999D01*
X32156104Y-64813999D02*
X31429131Y-64087026D01*
X30915973Y-65198867D02*
X31514657Y-65797551D01*
X30787684Y-64642946D02*
X31642946Y-65070577D01*
X31642946Y-65070577D02*
X31087026Y-65626498D01*
D11*
X49109580Y-31607142D02*
X49157200Y-31559523D01*
X49157200Y-31559523D02*
X49204819Y-31416666D01*
X49204819Y-31416666D02*
X49204819Y-31321428D01*
X49204819Y-31321428D02*
X49157200Y-31178571D01*
X49157200Y-31178571D02*
X49061961Y-31083333D01*
X49061961Y-31083333D02*
X48966723Y-31035714D01*
X48966723Y-31035714D02*
X48776247Y-30988095D01*
X48776247Y-30988095D02*
X48633390Y-30988095D01*
X48633390Y-30988095D02*
X48442914Y-31035714D01*
X48442914Y-31035714D02*
X48347676Y-31083333D01*
X48347676Y-31083333D02*
X48252438Y-31178571D01*
X48252438Y-31178571D02*
X48204819Y-31321428D01*
X48204819Y-31321428D02*
X48204819Y-31416666D01*
X48204819Y-31416666D02*
X48252438Y-31559523D01*
X48252438Y-31559523D02*
X48300057Y-31607142D01*
X48300057Y-31988095D02*
X48252438Y-32035714D01*
X48252438Y-32035714D02*
X48204819Y-32130952D01*
X48204819Y-32130952D02*
X48204819Y-32369047D01*
X48204819Y-32369047D02*
X48252438Y-32464285D01*
X48252438Y-32464285D02*
X48300057Y-32511904D01*
X48300057Y-32511904D02*
X48395295Y-32559523D01*
X48395295Y-32559523D02*
X48490533Y-32559523D01*
X48490533Y-32559523D02*
X48633390Y-32511904D01*
X48633390Y-32511904D02*
X49204819Y-31940476D01*
X49204819Y-31940476D02*
X49204819Y-32559523D01*
X48538152Y-33416666D02*
X49204819Y-33416666D01*
X48157200Y-33178571D02*
X48871485Y-32940476D01*
X48871485Y-32940476D02*
X48871485Y-33559523D01*
X27109580Y-37607142D02*
X27157200Y-37559523D01*
X27157200Y-37559523D02*
X27204819Y-37416666D01*
X27204819Y-37416666D02*
X27204819Y-37321428D01*
X27204819Y-37321428D02*
X27157200Y-37178571D01*
X27157200Y-37178571D02*
X27061961Y-37083333D01*
X27061961Y-37083333D02*
X26966723Y-37035714D01*
X26966723Y-37035714D02*
X26776247Y-36988095D01*
X26776247Y-36988095D02*
X26633390Y-36988095D01*
X26633390Y-36988095D02*
X26442914Y-37035714D01*
X26442914Y-37035714D02*
X26347676Y-37083333D01*
X26347676Y-37083333D02*
X26252438Y-37178571D01*
X26252438Y-37178571D02*
X26204819Y-37321428D01*
X26204819Y-37321428D02*
X26204819Y-37416666D01*
X26204819Y-37416666D02*
X26252438Y-37559523D01*
X26252438Y-37559523D02*
X26300057Y-37607142D01*
X26204819Y-38511904D02*
X26204819Y-38035714D01*
X26204819Y-38035714D02*
X26681009Y-37988095D01*
X26681009Y-37988095D02*
X26633390Y-38035714D01*
X26633390Y-38035714D02*
X26585771Y-38130952D01*
X26585771Y-38130952D02*
X26585771Y-38369047D01*
X26585771Y-38369047D02*
X26633390Y-38464285D01*
X26633390Y-38464285D02*
X26681009Y-38511904D01*
X26681009Y-38511904D02*
X26776247Y-38559523D01*
X26776247Y-38559523D02*
X27014342Y-38559523D01*
X27014342Y-38559523D02*
X27109580Y-38511904D01*
X27109580Y-38511904D02*
X27157200Y-38464285D01*
X27157200Y-38464285D02*
X27204819Y-38369047D01*
X27204819Y-38369047D02*
X27204819Y-38130952D01*
X27204819Y-38130952D02*
X27157200Y-38035714D01*
X27157200Y-38035714D02*
X27109580Y-37988095D01*
X26538152Y-39416666D02*
X27204819Y-39416666D01*
X26157200Y-39178571D02*
X26871485Y-38940476D01*
X26871485Y-38940476D02*
X26871485Y-39559523D01*
X46892857Y-36454819D02*
X47226190Y-35978628D01*
X47464285Y-36454819D02*
X47464285Y-35454819D01*
X47464285Y-35454819D02*
X47083333Y-35454819D01*
X47083333Y-35454819D02*
X46988095Y-35502438D01*
X46988095Y-35502438D02*
X46940476Y-35550057D01*
X46940476Y-35550057D02*
X46892857Y-35645295D01*
X46892857Y-35645295D02*
X46892857Y-35788152D01*
X46892857Y-35788152D02*
X46940476Y-35883390D01*
X46940476Y-35883390D02*
X46988095Y-35931009D01*
X46988095Y-35931009D02*
X47083333Y-35978628D01*
X47083333Y-35978628D02*
X47464285Y-35978628D01*
X45940476Y-36454819D02*
X46511904Y-36454819D01*
X46226190Y-36454819D02*
X46226190Y-35454819D01*
X46226190Y-35454819D02*
X46321428Y-35597676D01*
X46321428Y-35597676D02*
X46416666Y-35692914D01*
X46416666Y-35692914D02*
X46511904Y-35740533D01*
X45607142Y-35454819D02*
X44940476Y-35454819D01*
X44940476Y-35454819D02*
X45369047Y-36454819D01*
X26594819Y-54771905D02*
X25594819Y-54771905D01*
X25594819Y-54771905D02*
X25594819Y-55010000D01*
X25594819Y-55010000D02*
X25642438Y-55152857D01*
X25642438Y-55152857D02*
X25737676Y-55248095D01*
X25737676Y-55248095D02*
X25832914Y-55295714D01*
X25832914Y-55295714D02*
X26023390Y-55343333D01*
X26023390Y-55343333D02*
X26166247Y-55343333D01*
X26166247Y-55343333D02*
X26356723Y-55295714D01*
X26356723Y-55295714D02*
X26451961Y-55248095D01*
X26451961Y-55248095D02*
X26547200Y-55152857D01*
X26547200Y-55152857D02*
X26594819Y-55010000D01*
X26594819Y-55010000D02*
X26594819Y-54771905D01*
X25928152Y-56200476D02*
X26594819Y-56200476D01*
X25547200Y-55962381D02*
X26261485Y-55724286D01*
X26261485Y-55724286D02*
X26261485Y-56343333D01*
X30289580Y-44333333D02*
X30337200Y-44285714D01*
X30337200Y-44285714D02*
X30384819Y-44142857D01*
X30384819Y-44142857D02*
X30384819Y-44047619D01*
X30384819Y-44047619D02*
X30337200Y-43904762D01*
X30337200Y-43904762D02*
X30241961Y-43809524D01*
X30241961Y-43809524D02*
X30146723Y-43761905D01*
X30146723Y-43761905D02*
X29956247Y-43714286D01*
X29956247Y-43714286D02*
X29813390Y-43714286D01*
X29813390Y-43714286D02*
X29622914Y-43761905D01*
X29622914Y-43761905D02*
X29527676Y-43809524D01*
X29527676Y-43809524D02*
X29432438Y-43904762D01*
X29432438Y-43904762D02*
X29384819Y-44047619D01*
X29384819Y-44047619D02*
X29384819Y-44142857D01*
X29384819Y-44142857D02*
X29432438Y-44285714D01*
X29432438Y-44285714D02*
X29480057Y-44333333D01*
X29384819Y-44666667D02*
X29384819Y-45333333D01*
X29384819Y-45333333D02*
X30384819Y-44904762D01*
X65289580Y-47357142D02*
X65337200Y-47309523D01*
X65337200Y-47309523D02*
X65384819Y-47166666D01*
X65384819Y-47166666D02*
X65384819Y-47071428D01*
X65384819Y-47071428D02*
X65337200Y-46928571D01*
X65337200Y-46928571D02*
X65241961Y-46833333D01*
X65241961Y-46833333D02*
X65146723Y-46785714D01*
X65146723Y-46785714D02*
X64956247Y-46738095D01*
X64956247Y-46738095D02*
X64813390Y-46738095D01*
X64813390Y-46738095D02*
X64622914Y-46785714D01*
X64622914Y-46785714D02*
X64527676Y-46833333D01*
X64527676Y-46833333D02*
X64432438Y-46928571D01*
X64432438Y-46928571D02*
X64384819Y-47071428D01*
X64384819Y-47071428D02*
X64384819Y-47166666D01*
X64384819Y-47166666D02*
X64432438Y-47309523D01*
X64432438Y-47309523D02*
X64480057Y-47357142D01*
X64480057Y-47738095D02*
X64432438Y-47785714D01*
X64432438Y-47785714D02*
X64384819Y-47880952D01*
X64384819Y-47880952D02*
X64384819Y-48119047D01*
X64384819Y-48119047D02*
X64432438Y-48214285D01*
X64432438Y-48214285D02*
X64480057Y-48261904D01*
X64480057Y-48261904D02*
X64575295Y-48309523D01*
X64575295Y-48309523D02*
X64670533Y-48309523D01*
X64670533Y-48309523D02*
X64813390Y-48261904D01*
X64813390Y-48261904D02*
X65384819Y-47690476D01*
X65384819Y-47690476D02*
X65384819Y-48309523D01*
X64813390Y-48880952D02*
X64765771Y-48785714D01*
X64765771Y-48785714D02*
X64718152Y-48738095D01*
X64718152Y-48738095D02*
X64622914Y-48690476D01*
X64622914Y-48690476D02*
X64575295Y-48690476D01*
X64575295Y-48690476D02*
X64480057Y-48738095D01*
X64480057Y-48738095D02*
X64432438Y-48785714D01*
X64432438Y-48785714D02*
X64384819Y-48880952D01*
X64384819Y-48880952D02*
X64384819Y-49071428D01*
X64384819Y-49071428D02*
X64432438Y-49166666D01*
X64432438Y-49166666D02*
X64480057Y-49214285D01*
X64480057Y-49214285D02*
X64575295Y-49261904D01*
X64575295Y-49261904D02*
X64622914Y-49261904D01*
X64622914Y-49261904D02*
X64718152Y-49214285D01*
X64718152Y-49214285D02*
X64765771Y-49166666D01*
X64765771Y-49166666D02*
X64813390Y-49071428D01*
X64813390Y-49071428D02*
X64813390Y-48880952D01*
X64813390Y-48880952D02*
X64861009Y-48785714D01*
X64861009Y-48785714D02*
X64908628Y-48738095D01*
X64908628Y-48738095D02*
X65003866Y-48690476D01*
X65003866Y-48690476D02*
X65194342Y-48690476D01*
X65194342Y-48690476D02*
X65289580Y-48738095D01*
X65289580Y-48738095D02*
X65337200Y-48785714D01*
X65337200Y-48785714D02*
X65384819Y-48880952D01*
X65384819Y-48880952D02*
X65384819Y-49071428D01*
X65384819Y-49071428D02*
X65337200Y-49166666D01*
X65337200Y-49166666D02*
X65289580Y-49214285D01*
X65289580Y-49214285D02*
X65194342Y-49261904D01*
X65194342Y-49261904D02*
X65003866Y-49261904D01*
X65003866Y-49261904D02*
X64908628Y-49214285D01*
X64908628Y-49214285D02*
X64861009Y-49166666D01*
X64861009Y-49166666D02*
X64813390Y-49071428D01*
X51859580Y-29607142D02*
X51907200Y-29559523D01*
X51907200Y-29559523D02*
X51954819Y-29416666D01*
X51954819Y-29416666D02*
X51954819Y-29321428D01*
X51954819Y-29321428D02*
X51907200Y-29178571D01*
X51907200Y-29178571D02*
X51811961Y-29083333D01*
X51811961Y-29083333D02*
X51716723Y-29035714D01*
X51716723Y-29035714D02*
X51526247Y-28988095D01*
X51526247Y-28988095D02*
X51383390Y-28988095D01*
X51383390Y-28988095D02*
X51192914Y-29035714D01*
X51192914Y-29035714D02*
X51097676Y-29083333D01*
X51097676Y-29083333D02*
X51002438Y-29178571D01*
X51002438Y-29178571D02*
X50954819Y-29321428D01*
X50954819Y-29321428D02*
X50954819Y-29416666D01*
X50954819Y-29416666D02*
X51002438Y-29559523D01*
X51002438Y-29559523D02*
X51050057Y-29607142D01*
X51050057Y-29988095D02*
X51002438Y-30035714D01*
X51002438Y-30035714D02*
X50954819Y-30130952D01*
X50954819Y-30130952D02*
X50954819Y-30369047D01*
X50954819Y-30369047D02*
X51002438Y-30464285D01*
X51002438Y-30464285D02*
X51050057Y-30511904D01*
X51050057Y-30511904D02*
X51145295Y-30559523D01*
X51145295Y-30559523D02*
X51240533Y-30559523D01*
X51240533Y-30559523D02*
X51383390Y-30511904D01*
X51383390Y-30511904D02*
X51954819Y-29940476D01*
X51954819Y-29940476D02*
X51954819Y-30559523D01*
X50954819Y-30892857D02*
X50954819Y-31559523D01*
X50954819Y-31559523D02*
X51954819Y-31130952D01*
X21204819Y-31285714D02*
X20204819Y-31285714D01*
X20204819Y-31285714D02*
X20204819Y-31523809D01*
X20204819Y-31523809D02*
X20252438Y-31666666D01*
X20252438Y-31666666D02*
X20347676Y-31761904D01*
X20347676Y-31761904D02*
X20442914Y-31809523D01*
X20442914Y-31809523D02*
X20633390Y-31857142D01*
X20633390Y-31857142D02*
X20776247Y-31857142D01*
X20776247Y-31857142D02*
X20966723Y-31809523D01*
X20966723Y-31809523D02*
X21061961Y-31761904D01*
X21061961Y-31761904D02*
X21157200Y-31666666D01*
X21157200Y-31666666D02*
X21204819Y-31523809D01*
X21204819Y-31523809D02*
X21204819Y-31285714D01*
X21204819Y-32809523D02*
X21204819Y-32238095D01*
X21204819Y-32523809D02*
X20204819Y-32523809D01*
X20204819Y-32523809D02*
X20347676Y-32428571D01*
X20347676Y-32428571D02*
X20442914Y-32333333D01*
X20442914Y-32333333D02*
X20490533Y-32238095D01*
X20633390Y-33380952D02*
X20585771Y-33285714D01*
X20585771Y-33285714D02*
X20538152Y-33238095D01*
X20538152Y-33238095D02*
X20442914Y-33190476D01*
X20442914Y-33190476D02*
X20395295Y-33190476D01*
X20395295Y-33190476D02*
X20300057Y-33238095D01*
X20300057Y-33238095D02*
X20252438Y-33285714D01*
X20252438Y-33285714D02*
X20204819Y-33380952D01*
X20204819Y-33380952D02*
X20204819Y-33571428D01*
X20204819Y-33571428D02*
X20252438Y-33666666D01*
X20252438Y-33666666D02*
X20300057Y-33714285D01*
X20300057Y-33714285D02*
X20395295Y-33761904D01*
X20395295Y-33761904D02*
X20442914Y-33761904D01*
X20442914Y-33761904D02*
X20538152Y-33714285D01*
X20538152Y-33714285D02*
X20585771Y-33666666D01*
X20585771Y-33666666D02*
X20633390Y-33571428D01*
X20633390Y-33571428D02*
X20633390Y-33380952D01*
X20633390Y-33380952D02*
X20681009Y-33285714D01*
X20681009Y-33285714D02*
X20728628Y-33238095D01*
X20728628Y-33238095D02*
X20823866Y-33190476D01*
X20823866Y-33190476D02*
X21014342Y-33190476D01*
X21014342Y-33190476D02*
X21109580Y-33238095D01*
X21109580Y-33238095D02*
X21157200Y-33285714D01*
X21157200Y-33285714D02*
X21204819Y-33380952D01*
X21204819Y-33380952D02*
X21204819Y-33571428D01*
X21204819Y-33571428D02*
X21157200Y-33666666D01*
X21157200Y-33666666D02*
X21109580Y-33714285D01*
X21109580Y-33714285D02*
X21014342Y-33761904D01*
X21014342Y-33761904D02*
X20823866Y-33761904D01*
X20823866Y-33761904D02*
X20728628Y-33714285D01*
X20728628Y-33714285D02*
X20681009Y-33666666D01*
X20681009Y-33666666D02*
X20633390Y-33571428D01*
X33204819Y-34607142D02*
X32728628Y-34273809D01*
X33204819Y-34035714D02*
X32204819Y-34035714D01*
X32204819Y-34035714D02*
X32204819Y-34416666D01*
X32204819Y-34416666D02*
X32252438Y-34511904D01*
X32252438Y-34511904D02*
X32300057Y-34559523D01*
X32300057Y-34559523D02*
X32395295Y-34607142D01*
X32395295Y-34607142D02*
X32538152Y-34607142D01*
X32538152Y-34607142D02*
X32633390Y-34559523D01*
X32633390Y-34559523D02*
X32681009Y-34511904D01*
X32681009Y-34511904D02*
X32728628Y-34416666D01*
X32728628Y-34416666D02*
X32728628Y-34035714D01*
X32300057Y-34988095D02*
X32252438Y-35035714D01*
X32252438Y-35035714D02*
X32204819Y-35130952D01*
X32204819Y-35130952D02*
X32204819Y-35369047D01*
X32204819Y-35369047D02*
X32252438Y-35464285D01*
X32252438Y-35464285D02*
X32300057Y-35511904D01*
X32300057Y-35511904D02*
X32395295Y-35559523D01*
X32395295Y-35559523D02*
X32490533Y-35559523D01*
X32490533Y-35559523D02*
X32633390Y-35511904D01*
X32633390Y-35511904D02*
X33204819Y-34940476D01*
X33204819Y-34940476D02*
X33204819Y-35559523D01*
X32204819Y-35892857D02*
X32204819Y-36559523D01*
X32204819Y-36559523D02*
X33204819Y-36130952D01*
X51859580Y-26107142D02*
X51907200Y-26059523D01*
X51907200Y-26059523D02*
X51954819Y-25916666D01*
X51954819Y-25916666D02*
X51954819Y-25821428D01*
X51954819Y-25821428D02*
X51907200Y-25678571D01*
X51907200Y-25678571D02*
X51811961Y-25583333D01*
X51811961Y-25583333D02*
X51716723Y-25535714D01*
X51716723Y-25535714D02*
X51526247Y-25488095D01*
X51526247Y-25488095D02*
X51383390Y-25488095D01*
X51383390Y-25488095D02*
X51192914Y-25535714D01*
X51192914Y-25535714D02*
X51097676Y-25583333D01*
X51097676Y-25583333D02*
X51002438Y-25678571D01*
X51002438Y-25678571D02*
X50954819Y-25821428D01*
X50954819Y-25821428D02*
X50954819Y-25916666D01*
X50954819Y-25916666D02*
X51002438Y-26059523D01*
X51002438Y-26059523D02*
X51050057Y-26107142D01*
X51050057Y-26488095D02*
X51002438Y-26535714D01*
X51002438Y-26535714D02*
X50954819Y-26630952D01*
X50954819Y-26630952D02*
X50954819Y-26869047D01*
X50954819Y-26869047D02*
X51002438Y-26964285D01*
X51002438Y-26964285D02*
X51050057Y-27011904D01*
X51050057Y-27011904D02*
X51145295Y-27059523D01*
X51145295Y-27059523D02*
X51240533Y-27059523D01*
X51240533Y-27059523D02*
X51383390Y-27011904D01*
X51383390Y-27011904D02*
X51954819Y-26440476D01*
X51954819Y-26440476D02*
X51954819Y-27059523D01*
X51050057Y-27440476D02*
X51002438Y-27488095D01*
X51002438Y-27488095D02*
X50954819Y-27583333D01*
X50954819Y-27583333D02*
X50954819Y-27821428D01*
X50954819Y-27821428D02*
X51002438Y-27916666D01*
X51002438Y-27916666D02*
X51050057Y-27964285D01*
X51050057Y-27964285D02*
X51145295Y-28011904D01*
X51145295Y-28011904D02*
X51240533Y-28011904D01*
X51240533Y-28011904D02*
X51383390Y-27964285D01*
X51383390Y-27964285D02*
X51954819Y-27392857D01*
X51954819Y-27392857D02*
X51954819Y-28011904D01*
X38524819Y-52857142D02*
X38048628Y-52523809D01*
X38524819Y-52285714D02*
X37524819Y-52285714D01*
X37524819Y-52285714D02*
X37524819Y-52666666D01*
X37524819Y-52666666D02*
X37572438Y-52761904D01*
X37572438Y-52761904D02*
X37620057Y-52809523D01*
X37620057Y-52809523D02*
X37715295Y-52857142D01*
X37715295Y-52857142D02*
X37858152Y-52857142D01*
X37858152Y-52857142D02*
X37953390Y-52809523D01*
X37953390Y-52809523D02*
X38001009Y-52761904D01*
X38001009Y-52761904D02*
X38048628Y-52666666D01*
X38048628Y-52666666D02*
X38048628Y-52285714D01*
X38524819Y-53809523D02*
X38524819Y-53238095D01*
X38524819Y-53523809D02*
X37524819Y-53523809D01*
X37524819Y-53523809D02*
X37667676Y-53428571D01*
X37667676Y-53428571D02*
X37762914Y-53333333D01*
X37762914Y-53333333D02*
X37810533Y-53238095D01*
X37953390Y-54380952D02*
X37905771Y-54285714D01*
X37905771Y-54285714D02*
X37858152Y-54238095D01*
X37858152Y-54238095D02*
X37762914Y-54190476D01*
X37762914Y-54190476D02*
X37715295Y-54190476D01*
X37715295Y-54190476D02*
X37620057Y-54238095D01*
X37620057Y-54238095D02*
X37572438Y-54285714D01*
X37572438Y-54285714D02*
X37524819Y-54380952D01*
X37524819Y-54380952D02*
X37524819Y-54571428D01*
X37524819Y-54571428D02*
X37572438Y-54666666D01*
X37572438Y-54666666D02*
X37620057Y-54714285D01*
X37620057Y-54714285D02*
X37715295Y-54761904D01*
X37715295Y-54761904D02*
X37762914Y-54761904D01*
X37762914Y-54761904D02*
X37858152Y-54714285D01*
X37858152Y-54714285D02*
X37905771Y-54666666D01*
X37905771Y-54666666D02*
X37953390Y-54571428D01*
X37953390Y-54571428D02*
X37953390Y-54380952D01*
X37953390Y-54380952D02*
X38001009Y-54285714D01*
X38001009Y-54285714D02*
X38048628Y-54238095D01*
X38048628Y-54238095D02*
X38143866Y-54190476D01*
X38143866Y-54190476D02*
X38334342Y-54190476D01*
X38334342Y-54190476D02*
X38429580Y-54238095D01*
X38429580Y-54238095D02*
X38477200Y-54285714D01*
X38477200Y-54285714D02*
X38524819Y-54380952D01*
X38524819Y-54380952D02*
X38524819Y-54571428D01*
X38524819Y-54571428D02*
X38477200Y-54666666D01*
X38477200Y-54666666D02*
X38429580Y-54714285D01*
X38429580Y-54714285D02*
X38334342Y-54761904D01*
X38334342Y-54761904D02*
X38143866Y-54761904D01*
X38143866Y-54761904D02*
X38048628Y-54714285D01*
X38048628Y-54714285D02*
X38001009Y-54666666D01*
X38001009Y-54666666D02*
X37953390Y-54571428D01*
X63274819Y-68857142D02*
X62798628Y-68523809D01*
X63274819Y-68285714D02*
X62274819Y-68285714D01*
X62274819Y-68285714D02*
X62274819Y-68666666D01*
X62274819Y-68666666D02*
X62322438Y-68761904D01*
X62322438Y-68761904D02*
X62370057Y-68809523D01*
X62370057Y-68809523D02*
X62465295Y-68857142D01*
X62465295Y-68857142D02*
X62608152Y-68857142D01*
X62608152Y-68857142D02*
X62703390Y-68809523D01*
X62703390Y-68809523D02*
X62751009Y-68761904D01*
X62751009Y-68761904D02*
X62798628Y-68666666D01*
X62798628Y-68666666D02*
X62798628Y-68285714D01*
X63274819Y-69809523D02*
X63274819Y-69238095D01*
X63274819Y-69523809D02*
X62274819Y-69523809D01*
X62274819Y-69523809D02*
X62417676Y-69428571D01*
X62417676Y-69428571D02*
X62512914Y-69333333D01*
X62512914Y-69333333D02*
X62560533Y-69238095D01*
X62274819Y-70142857D02*
X62274819Y-70761904D01*
X62274819Y-70761904D02*
X62655771Y-70428571D01*
X62655771Y-70428571D02*
X62655771Y-70571428D01*
X62655771Y-70571428D02*
X62703390Y-70666666D01*
X62703390Y-70666666D02*
X62751009Y-70714285D01*
X62751009Y-70714285D02*
X62846247Y-70761904D01*
X62846247Y-70761904D02*
X63084342Y-70761904D01*
X63084342Y-70761904D02*
X63179580Y-70714285D01*
X63179580Y-70714285D02*
X63227200Y-70666666D01*
X63227200Y-70666666D02*
X63274819Y-70571428D01*
X63274819Y-70571428D02*
X63274819Y-70285714D01*
X63274819Y-70285714D02*
X63227200Y-70190476D01*
X63227200Y-70190476D02*
X63179580Y-70142857D01*
X43055357Y-48634819D02*
X43388690Y-48158628D01*
X43626785Y-48634819D02*
X43626785Y-47634819D01*
X43626785Y-47634819D02*
X43245833Y-47634819D01*
X43245833Y-47634819D02*
X43150595Y-47682438D01*
X43150595Y-47682438D02*
X43102976Y-47730057D01*
X43102976Y-47730057D02*
X43055357Y-47825295D01*
X43055357Y-47825295D02*
X43055357Y-47968152D01*
X43055357Y-47968152D02*
X43102976Y-48063390D01*
X43102976Y-48063390D02*
X43150595Y-48111009D01*
X43150595Y-48111009D02*
X43245833Y-48158628D01*
X43245833Y-48158628D02*
X43626785Y-48158628D01*
X42674404Y-47730057D02*
X42626785Y-47682438D01*
X42626785Y-47682438D02*
X42531547Y-47634819D01*
X42531547Y-47634819D02*
X42293452Y-47634819D01*
X42293452Y-47634819D02*
X42198214Y-47682438D01*
X42198214Y-47682438D02*
X42150595Y-47730057D01*
X42150595Y-47730057D02*
X42102976Y-47825295D01*
X42102976Y-47825295D02*
X42102976Y-47920533D01*
X42102976Y-47920533D02*
X42150595Y-48063390D01*
X42150595Y-48063390D02*
X42722023Y-48634819D01*
X42722023Y-48634819D02*
X42102976Y-48634819D01*
X41722023Y-47730057D02*
X41674404Y-47682438D01*
X41674404Y-47682438D02*
X41579166Y-47634819D01*
X41579166Y-47634819D02*
X41341071Y-47634819D01*
X41341071Y-47634819D02*
X41245833Y-47682438D01*
X41245833Y-47682438D02*
X41198214Y-47730057D01*
X41198214Y-47730057D02*
X41150595Y-47825295D01*
X41150595Y-47825295D02*
X41150595Y-47920533D01*
X41150595Y-47920533D02*
X41198214Y-48063390D01*
X41198214Y-48063390D02*
X41769642Y-48634819D01*
X41769642Y-48634819D02*
X41150595Y-48634819D01*
X32179580Y-71333333D02*
X32227200Y-71285714D01*
X32227200Y-71285714D02*
X32274819Y-71142857D01*
X32274819Y-71142857D02*
X32274819Y-71047619D01*
X32274819Y-71047619D02*
X32227200Y-70904762D01*
X32227200Y-70904762D02*
X32131961Y-70809524D01*
X32131961Y-70809524D02*
X32036723Y-70761905D01*
X32036723Y-70761905D02*
X31846247Y-70714286D01*
X31846247Y-70714286D02*
X31703390Y-70714286D01*
X31703390Y-70714286D02*
X31512914Y-70761905D01*
X31512914Y-70761905D02*
X31417676Y-70809524D01*
X31417676Y-70809524D02*
X31322438Y-70904762D01*
X31322438Y-70904762D02*
X31274819Y-71047619D01*
X31274819Y-71047619D02*
X31274819Y-71142857D01*
X31274819Y-71142857D02*
X31322438Y-71285714D01*
X31322438Y-71285714D02*
X31370057Y-71333333D01*
X31274819Y-71666667D02*
X31274819Y-72285714D01*
X31274819Y-72285714D02*
X31655771Y-71952381D01*
X31655771Y-71952381D02*
X31655771Y-72095238D01*
X31655771Y-72095238D02*
X31703390Y-72190476D01*
X31703390Y-72190476D02*
X31751009Y-72238095D01*
X31751009Y-72238095D02*
X31846247Y-72285714D01*
X31846247Y-72285714D02*
X32084342Y-72285714D01*
X32084342Y-72285714D02*
X32179580Y-72238095D01*
X32179580Y-72238095D02*
X32227200Y-72190476D01*
X32227200Y-72190476D02*
X32274819Y-72095238D01*
X32274819Y-72095238D02*
X32274819Y-71809524D01*
X32274819Y-71809524D02*
X32227200Y-71714286D01*
X32227200Y-71714286D02*
X32179580Y-71666667D01*
X49134819Y-48857142D02*
X48658628Y-48523809D01*
X49134819Y-48285714D02*
X48134819Y-48285714D01*
X48134819Y-48285714D02*
X48134819Y-48666666D01*
X48134819Y-48666666D02*
X48182438Y-48761904D01*
X48182438Y-48761904D02*
X48230057Y-48809523D01*
X48230057Y-48809523D02*
X48325295Y-48857142D01*
X48325295Y-48857142D02*
X48468152Y-48857142D01*
X48468152Y-48857142D02*
X48563390Y-48809523D01*
X48563390Y-48809523D02*
X48611009Y-48761904D01*
X48611009Y-48761904D02*
X48658628Y-48666666D01*
X48658628Y-48666666D02*
X48658628Y-48285714D01*
X48230057Y-49238095D02*
X48182438Y-49285714D01*
X48182438Y-49285714D02*
X48134819Y-49380952D01*
X48134819Y-49380952D02*
X48134819Y-49619047D01*
X48134819Y-49619047D02*
X48182438Y-49714285D01*
X48182438Y-49714285D02*
X48230057Y-49761904D01*
X48230057Y-49761904D02*
X48325295Y-49809523D01*
X48325295Y-49809523D02*
X48420533Y-49809523D01*
X48420533Y-49809523D02*
X48563390Y-49761904D01*
X48563390Y-49761904D02*
X49134819Y-49190476D01*
X49134819Y-49190476D02*
X49134819Y-49809523D01*
X48134819Y-50142857D02*
X48134819Y-50761904D01*
X48134819Y-50761904D02*
X48515771Y-50428571D01*
X48515771Y-50428571D02*
X48515771Y-50571428D01*
X48515771Y-50571428D02*
X48563390Y-50666666D01*
X48563390Y-50666666D02*
X48611009Y-50714285D01*
X48611009Y-50714285D02*
X48706247Y-50761904D01*
X48706247Y-50761904D02*
X48944342Y-50761904D01*
X48944342Y-50761904D02*
X49039580Y-50714285D01*
X49039580Y-50714285D02*
X49087200Y-50666666D01*
X49087200Y-50666666D02*
X49134819Y-50571428D01*
X49134819Y-50571428D02*
X49134819Y-50285714D01*
X49134819Y-50285714D02*
X49087200Y-50190476D01*
X49087200Y-50190476D02*
X49039580Y-50142857D01*
X31916666Y-75884819D02*
X32249999Y-75408628D01*
X32488094Y-75884819D02*
X32488094Y-74884819D01*
X32488094Y-74884819D02*
X32107142Y-74884819D01*
X32107142Y-74884819D02*
X32011904Y-74932438D01*
X32011904Y-74932438D02*
X31964285Y-74980057D01*
X31964285Y-74980057D02*
X31916666Y-75075295D01*
X31916666Y-75075295D02*
X31916666Y-75218152D01*
X31916666Y-75218152D02*
X31964285Y-75313390D01*
X31964285Y-75313390D02*
X32011904Y-75361009D01*
X32011904Y-75361009D02*
X32107142Y-75408628D01*
X32107142Y-75408628D02*
X32488094Y-75408628D01*
X31440475Y-75884819D02*
X31249999Y-75884819D01*
X31249999Y-75884819D02*
X31154761Y-75837200D01*
X31154761Y-75837200D02*
X31107142Y-75789580D01*
X31107142Y-75789580D02*
X31011904Y-75646723D01*
X31011904Y-75646723D02*
X30964285Y-75456247D01*
X30964285Y-75456247D02*
X30964285Y-75075295D01*
X30964285Y-75075295D02*
X31011904Y-74980057D01*
X31011904Y-74980057D02*
X31059523Y-74932438D01*
X31059523Y-74932438D02*
X31154761Y-74884819D01*
X31154761Y-74884819D02*
X31345237Y-74884819D01*
X31345237Y-74884819D02*
X31440475Y-74932438D01*
X31440475Y-74932438D02*
X31488094Y-74980057D01*
X31488094Y-74980057D02*
X31535713Y-75075295D01*
X31535713Y-75075295D02*
X31535713Y-75313390D01*
X31535713Y-75313390D02*
X31488094Y-75408628D01*
X31488094Y-75408628D02*
X31440475Y-75456247D01*
X31440475Y-75456247D02*
X31345237Y-75503866D01*
X31345237Y-75503866D02*
X31154761Y-75503866D01*
X31154761Y-75503866D02*
X31059523Y-75456247D01*
X31059523Y-75456247D02*
X31011904Y-75408628D01*
X31011904Y-75408628D02*
X30964285Y-75313390D01*
X25142857Y-70289580D02*
X25190476Y-70337200D01*
X25190476Y-70337200D02*
X25333333Y-70384819D01*
X25333333Y-70384819D02*
X25428571Y-70384819D01*
X25428571Y-70384819D02*
X25571428Y-70337200D01*
X25571428Y-70337200D02*
X25666666Y-70241961D01*
X25666666Y-70241961D02*
X25714285Y-70146723D01*
X25714285Y-70146723D02*
X25761904Y-69956247D01*
X25761904Y-69956247D02*
X25761904Y-69813390D01*
X25761904Y-69813390D02*
X25714285Y-69622914D01*
X25714285Y-69622914D02*
X25666666Y-69527676D01*
X25666666Y-69527676D02*
X25571428Y-69432438D01*
X25571428Y-69432438D02*
X25428571Y-69384819D01*
X25428571Y-69384819D02*
X25333333Y-69384819D01*
X25333333Y-69384819D02*
X25190476Y-69432438D01*
X25190476Y-69432438D02*
X25142857Y-69480057D01*
X24190476Y-70384819D02*
X24761904Y-70384819D01*
X24476190Y-70384819D02*
X24476190Y-69384819D01*
X24476190Y-69384819D02*
X24571428Y-69527676D01*
X24571428Y-69527676D02*
X24666666Y-69622914D01*
X24666666Y-69622914D02*
X24761904Y-69670533D01*
X23571428Y-69384819D02*
X23476190Y-69384819D01*
X23476190Y-69384819D02*
X23380952Y-69432438D01*
X23380952Y-69432438D02*
X23333333Y-69480057D01*
X23333333Y-69480057D02*
X23285714Y-69575295D01*
X23285714Y-69575295D02*
X23238095Y-69765771D01*
X23238095Y-69765771D02*
X23238095Y-70003866D01*
X23238095Y-70003866D02*
X23285714Y-70194342D01*
X23285714Y-70194342D02*
X23333333Y-70289580D01*
X23333333Y-70289580D02*
X23380952Y-70337200D01*
X23380952Y-70337200D02*
X23476190Y-70384819D01*
X23476190Y-70384819D02*
X23571428Y-70384819D01*
X23571428Y-70384819D02*
X23666666Y-70337200D01*
X23666666Y-70337200D02*
X23714285Y-70289580D01*
X23714285Y-70289580D02*
X23761904Y-70194342D01*
X23761904Y-70194342D02*
X23809523Y-70003866D01*
X23809523Y-70003866D02*
X23809523Y-69765771D01*
X23809523Y-69765771D02*
X23761904Y-69575295D01*
X23761904Y-69575295D02*
X23714285Y-69480057D01*
X23714285Y-69480057D02*
X23666666Y-69432438D01*
X23666666Y-69432438D02*
X23571428Y-69384819D01*
X39109580Y-37357142D02*
X39157200Y-37309523D01*
X39157200Y-37309523D02*
X39204819Y-37166666D01*
X39204819Y-37166666D02*
X39204819Y-37071428D01*
X39204819Y-37071428D02*
X39157200Y-36928571D01*
X39157200Y-36928571D02*
X39061961Y-36833333D01*
X39061961Y-36833333D02*
X38966723Y-36785714D01*
X38966723Y-36785714D02*
X38776247Y-36738095D01*
X38776247Y-36738095D02*
X38633390Y-36738095D01*
X38633390Y-36738095D02*
X38442914Y-36785714D01*
X38442914Y-36785714D02*
X38347676Y-36833333D01*
X38347676Y-36833333D02*
X38252438Y-36928571D01*
X38252438Y-36928571D02*
X38204819Y-37071428D01*
X38204819Y-37071428D02*
X38204819Y-37166666D01*
X38204819Y-37166666D02*
X38252438Y-37309523D01*
X38252438Y-37309523D02*
X38300057Y-37357142D01*
X38204819Y-38261904D02*
X38204819Y-37785714D01*
X38204819Y-37785714D02*
X38681009Y-37738095D01*
X38681009Y-37738095D02*
X38633390Y-37785714D01*
X38633390Y-37785714D02*
X38585771Y-37880952D01*
X38585771Y-37880952D02*
X38585771Y-38119047D01*
X38585771Y-38119047D02*
X38633390Y-38214285D01*
X38633390Y-38214285D02*
X38681009Y-38261904D01*
X38681009Y-38261904D02*
X38776247Y-38309523D01*
X38776247Y-38309523D02*
X39014342Y-38309523D01*
X39014342Y-38309523D02*
X39109580Y-38261904D01*
X39109580Y-38261904D02*
X39157200Y-38214285D01*
X39157200Y-38214285D02*
X39204819Y-38119047D01*
X39204819Y-38119047D02*
X39204819Y-37880952D01*
X39204819Y-37880952D02*
X39157200Y-37785714D01*
X39157200Y-37785714D02*
X39109580Y-37738095D01*
X38204819Y-39166666D02*
X38204819Y-38976190D01*
X38204819Y-38976190D02*
X38252438Y-38880952D01*
X38252438Y-38880952D02*
X38300057Y-38833333D01*
X38300057Y-38833333D02*
X38442914Y-38738095D01*
X38442914Y-38738095D02*
X38633390Y-38690476D01*
X38633390Y-38690476D02*
X39014342Y-38690476D01*
X39014342Y-38690476D02*
X39109580Y-38738095D01*
X39109580Y-38738095D02*
X39157200Y-38785714D01*
X39157200Y-38785714D02*
X39204819Y-38880952D01*
X39204819Y-38880952D02*
X39204819Y-39071428D01*
X39204819Y-39071428D02*
X39157200Y-39166666D01*
X39157200Y-39166666D02*
X39109580Y-39214285D01*
X39109580Y-39214285D02*
X39014342Y-39261904D01*
X39014342Y-39261904D02*
X38776247Y-39261904D01*
X38776247Y-39261904D02*
X38681009Y-39214285D01*
X38681009Y-39214285D02*
X38633390Y-39166666D01*
X38633390Y-39166666D02*
X38585771Y-39071428D01*
X38585771Y-39071428D02*
X38585771Y-38880952D01*
X38585771Y-38880952D02*
X38633390Y-38785714D01*
X38633390Y-38785714D02*
X38681009Y-38738095D01*
X38681009Y-38738095D02*
X38776247Y-38690476D01*
X51859580Y-33107142D02*
X51907200Y-33059523D01*
X51907200Y-33059523D02*
X51954819Y-32916666D01*
X51954819Y-32916666D02*
X51954819Y-32821428D01*
X51954819Y-32821428D02*
X51907200Y-32678571D01*
X51907200Y-32678571D02*
X51811961Y-32583333D01*
X51811961Y-32583333D02*
X51716723Y-32535714D01*
X51716723Y-32535714D02*
X51526247Y-32488095D01*
X51526247Y-32488095D02*
X51383390Y-32488095D01*
X51383390Y-32488095D02*
X51192914Y-32535714D01*
X51192914Y-32535714D02*
X51097676Y-32583333D01*
X51097676Y-32583333D02*
X51002438Y-32678571D01*
X51002438Y-32678571D02*
X50954819Y-32821428D01*
X50954819Y-32821428D02*
X50954819Y-32916666D01*
X50954819Y-32916666D02*
X51002438Y-33059523D01*
X51002438Y-33059523D02*
X51050057Y-33107142D01*
X51050057Y-33488095D02*
X51002438Y-33535714D01*
X51002438Y-33535714D02*
X50954819Y-33630952D01*
X50954819Y-33630952D02*
X50954819Y-33869047D01*
X50954819Y-33869047D02*
X51002438Y-33964285D01*
X51002438Y-33964285D02*
X51050057Y-34011904D01*
X51050057Y-34011904D02*
X51145295Y-34059523D01*
X51145295Y-34059523D02*
X51240533Y-34059523D01*
X51240533Y-34059523D02*
X51383390Y-34011904D01*
X51383390Y-34011904D02*
X51954819Y-33440476D01*
X51954819Y-33440476D02*
X51954819Y-34059523D01*
X50954819Y-34392857D02*
X50954819Y-35011904D01*
X50954819Y-35011904D02*
X51335771Y-34678571D01*
X51335771Y-34678571D02*
X51335771Y-34821428D01*
X51335771Y-34821428D02*
X51383390Y-34916666D01*
X51383390Y-34916666D02*
X51431009Y-34964285D01*
X51431009Y-34964285D02*
X51526247Y-35011904D01*
X51526247Y-35011904D02*
X51764342Y-35011904D01*
X51764342Y-35011904D02*
X51859580Y-34964285D01*
X51859580Y-34964285D02*
X51907200Y-34916666D01*
X51907200Y-34916666D02*
X51954819Y-34821428D01*
X51954819Y-34821428D02*
X51954819Y-34535714D01*
X51954819Y-34535714D02*
X51907200Y-34440476D01*
X51907200Y-34440476D02*
X51859580Y-34392857D01*
X32109580Y-60607142D02*
X32157200Y-60559523D01*
X32157200Y-60559523D02*
X32204819Y-60416666D01*
X32204819Y-60416666D02*
X32204819Y-60321428D01*
X32204819Y-60321428D02*
X32157200Y-60178571D01*
X32157200Y-60178571D02*
X32061961Y-60083333D01*
X32061961Y-60083333D02*
X31966723Y-60035714D01*
X31966723Y-60035714D02*
X31776247Y-59988095D01*
X31776247Y-59988095D02*
X31633390Y-59988095D01*
X31633390Y-59988095D02*
X31442914Y-60035714D01*
X31442914Y-60035714D02*
X31347676Y-60083333D01*
X31347676Y-60083333D02*
X31252438Y-60178571D01*
X31252438Y-60178571D02*
X31204819Y-60321428D01*
X31204819Y-60321428D02*
X31204819Y-60416666D01*
X31204819Y-60416666D02*
X31252438Y-60559523D01*
X31252438Y-60559523D02*
X31300057Y-60607142D01*
X31300057Y-60988095D02*
X31252438Y-61035714D01*
X31252438Y-61035714D02*
X31204819Y-61130952D01*
X31204819Y-61130952D02*
X31204819Y-61369047D01*
X31204819Y-61369047D02*
X31252438Y-61464285D01*
X31252438Y-61464285D02*
X31300057Y-61511904D01*
X31300057Y-61511904D02*
X31395295Y-61559523D01*
X31395295Y-61559523D02*
X31490533Y-61559523D01*
X31490533Y-61559523D02*
X31633390Y-61511904D01*
X31633390Y-61511904D02*
X32204819Y-60940476D01*
X32204819Y-60940476D02*
X32204819Y-61559523D01*
X32204819Y-62511904D02*
X32204819Y-61940476D01*
X32204819Y-62226190D02*
X31204819Y-62226190D01*
X31204819Y-62226190D02*
X31347676Y-62130952D01*
X31347676Y-62130952D02*
X31442914Y-62035714D01*
X31442914Y-62035714D02*
X31490533Y-61940476D01*
X44416666Y-85179580D02*
X44464285Y-85227200D01*
X44464285Y-85227200D02*
X44607142Y-85274819D01*
X44607142Y-85274819D02*
X44702380Y-85274819D01*
X44702380Y-85274819D02*
X44845237Y-85227200D01*
X44845237Y-85227200D02*
X44940475Y-85131961D01*
X44940475Y-85131961D02*
X44988094Y-85036723D01*
X44988094Y-85036723D02*
X45035713Y-84846247D01*
X45035713Y-84846247D02*
X45035713Y-84703390D01*
X45035713Y-84703390D02*
X44988094Y-84512914D01*
X44988094Y-84512914D02*
X44940475Y-84417676D01*
X44940475Y-84417676D02*
X44845237Y-84322438D01*
X44845237Y-84322438D02*
X44702380Y-84274819D01*
X44702380Y-84274819D02*
X44607142Y-84274819D01*
X44607142Y-84274819D02*
X44464285Y-84322438D01*
X44464285Y-84322438D02*
X44416666Y-84370057D01*
X43464285Y-85274819D02*
X44035713Y-85274819D01*
X43749999Y-85274819D02*
X43749999Y-84274819D01*
X43749999Y-84274819D02*
X43845237Y-84417676D01*
X43845237Y-84417676D02*
X43940475Y-84512914D01*
X43940475Y-84512914D02*
X44035713Y-84560533D01*
X47039580Y-45107142D02*
X47087200Y-45059523D01*
X47087200Y-45059523D02*
X47134819Y-44916666D01*
X47134819Y-44916666D02*
X47134819Y-44821428D01*
X47134819Y-44821428D02*
X47087200Y-44678571D01*
X47087200Y-44678571D02*
X46991961Y-44583333D01*
X46991961Y-44583333D02*
X46896723Y-44535714D01*
X46896723Y-44535714D02*
X46706247Y-44488095D01*
X46706247Y-44488095D02*
X46563390Y-44488095D01*
X46563390Y-44488095D02*
X46372914Y-44535714D01*
X46372914Y-44535714D02*
X46277676Y-44583333D01*
X46277676Y-44583333D02*
X46182438Y-44678571D01*
X46182438Y-44678571D02*
X46134819Y-44821428D01*
X46134819Y-44821428D02*
X46134819Y-44916666D01*
X46134819Y-44916666D02*
X46182438Y-45059523D01*
X46182438Y-45059523D02*
X46230057Y-45107142D01*
X46134819Y-45440476D02*
X46134819Y-46059523D01*
X46134819Y-46059523D02*
X46515771Y-45726190D01*
X46515771Y-45726190D02*
X46515771Y-45869047D01*
X46515771Y-45869047D02*
X46563390Y-45964285D01*
X46563390Y-45964285D02*
X46611009Y-46011904D01*
X46611009Y-46011904D02*
X46706247Y-46059523D01*
X46706247Y-46059523D02*
X46944342Y-46059523D01*
X46944342Y-46059523D02*
X47039580Y-46011904D01*
X47039580Y-46011904D02*
X47087200Y-45964285D01*
X47087200Y-45964285D02*
X47134819Y-45869047D01*
X47134819Y-45869047D02*
X47134819Y-45583333D01*
X47134819Y-45583333D02*
X47087200Y-45488095D01*
X47087200Y-45488095D02*
X47039580Y-45440476D01*
X46230057Y-46440476D02*
X46182438Y-46488095D01*
X46182438Y-46488095D02*
X46134819Y-46583333D01*
X46134819Y-46583333D02*
X46134819Y-46821428D01*
X46134819Y-46821428D02*
X46182438Y-46916666D01*
X46182438Y-46916666D02*
X46230057Y-46964285D01*
X46230057Y-46964285D02*
X46325295Y-47011904D01*
X46325295Y-47011904D02*
X46420533Y-47011904D01*
X46420533Y-47011904D02*
X46563390Y-46964285D01*
X46563390Y-46964285D02*
X47134819Y-46392857D01*
X47134819Y-46392857D02*
X47134819Y-47011904D01*
X30359580Y-60583333D02*
X30407200Y-60535714D01*
X30407200Y-60535714D02*
X30454819Y-60392857D01*
X30454819Y-60392857D02*
X30454819Y-60297619D01*
X30454819Y-60297619D02*
X30407200Y-60154762D01*
X30407200Y-60154762D02*
X30311961Y-60059524D01*
X30311961Y-60059524D02*
X30216723Y-60011905D01*
X30216723Y-60011905D02*
X30026247Y-59964286D01*
X30026247Y-59964286D02*
X29883390Y-59964286D01*
X29883390Y-59964286D02*
X29692914Y-60011905D01*
X29692914Y-60011905D02*
X29597676Y-60059524D01*
X29597676Y-60059524D02*
X29502438Y-60154762D01*
X29502438Y-60154762D02*
X29454819Y-60297619D01*
X29454819Y-60297619D02*
X29454819Y-60392857D01*
X29454819Y-60392857D02*
X29502438Y-60535714D01*
X29502438Y-60535714D02*
X29550057Y-60583333D01*
X29550057Y-60964286D02*
X29502438Y-61011905D01*
X29502438Y-61011905D02*
X29454819Y-61107143D01*
X29454819Y-61107143D02*
X29454819Y-61345238D01*
X29454819Y-61345238D02*
X29502438Y-61440476D01*
X29502438Y-61440476D02*
X29550057Y-61488095D01*
X29550057Y-61488095D02*
X29645295Y-61535714D01*
X29645295Y-61535714D02*
X29740533Y-61535714D01*
X29740533Y-61535714D02*
X29883390Y-61488095D01*
X29883390Y-61488095D02*
X30454819Y-60916667D01*
X30454819Y-60916667D02*
X30454819Y-61535714D01*
X44392857Y-74289580D02*
X44440476Y-74337200D01*
X44440476Y-74337200D02*
X44583333Y-74384819D01*
X44583333Y-74384819D02*
X44678571Y-74384819D01*
X44678571Y-74384819D02*
X44821428Y-74337200D01*
X44821428Y-74337200D02*
X44916666Y-74241961D01*
X44916666Y-74241961D02*
X44964285Y-74146723D01*
X44964285Y-74146723D02*
X45011904Y-73956247D01*
X45011904Y-73956247D02*
X45011904Y-73813390D01*
X45011904Y-73813390D02*
X44964285Y-73622914D01*
X44964285Y-73622914D02*
X44916666Y-73527676D01*
X44916666Y-73527676D02*
X44821428Y-73432438D01*
X44821428Y-73432438D02*
X44678571Y-73384819D01*
X44678571Y-73384819D02*
X44583333Y-73384819D01*
X44583333Y-73384819D02*
X44440476Y-73432438D01*
X44440476Y-73432438D02*
X44392857Y-73480057D01*
X43440476Y-74384819D02*
X44011904Y-74384819D01*
X43726190Y-74384819D02*
X43726190Y-73384819D01*
X43726190Y-73384819D02*
X43821428Y-73527676D01*
X43821428Y-73527676D02*
X43916666Y-73622914D01*
X43916666Y-73622914D02*
X44011904Y-73670533D01*
X42583333Y-73384819D02*
X42773809Y-73384819D01*
X42773809Y-73384819D02*
X42869047Y-73432438D01*
X42869047Y-73432438D02*
X42916666Y-73480057D01*
X42916666Y-73480057D02*
X43011904Y-73622914D01*
X43011904Y-73622914D02*
X43059523Y-73813390D01*
X43059523Y-73813390D02*
X43059523Y-74194342D01*
X43059523Y-74194342D02*
X43011904Y-74289580D01*
X43011904Y-74289580D02*
X42964285Y-74337200D01*
X42964285Y-74337200D02*
X42869047Y-74384819D01*
X42869047Y-74384819D02*
X42678571Y-74384819D01*
X42678571Y-74384819D02*
X42583333Y-74337200D01*
X42583333Y-74337200D02*
X42535714Y-74289580D01*
X42535714Y-74289580D02*
X42488095Y-74194342D01*
X42488095Y-74194342D02*
X42488095Y-73956247D01*
X42488095Y-73956247D02*
X42535714Y-73861009D01*
X42535714Y-73861009D02*
X42583333Y-73813390D01*
X42583333Y-73813390D02*
X42678571Y-73765771D01*
X42678571Y-73765771D02*
X42869047Y-73765771D01*
X42869047Y-73765771D02*
X42964285Y-73813390D01*
X42964285Y-73813390D02*
X43011904Y-73861009D01*
X43011904Y-73861009D02*
X43059523Y-73956247D01*
X43055357Y-42039580D02*
X43102976Y-42087200D01*
X43102976Y-42087200D02*
X43245833Y-42134819D01*
X43245833Y-42134819D02*
X43341071Y-42134819D01*
X43341071Y-42134819D02*
X43483928Y-42087200D01*
X43483928Y-42087200D02*
X43579166Y-41991961D01*
X43579166Y-41991961D02*
X43626785Y-41896723D01*
X43626785Y-41896723D02*
X43674404Y-41706247D01*
X43674404Y-41706247D02*
X43674404Y-41563390D01*
X43674404Y-41563390D02*
X43626785Y-41372914D01*
X43626785Y-41372914D02*
X43579166Y-41277676D01*
X43579166Y-41277676D02*
X43483928Y-41182438D01*
X43483928Y-41182438D02*
X43341071Y-41134819D01*
X43341071Y-41134819D02*
X43245833Y-41134819D01*
X43245833Y-41134819D02*
X43102976Y-41182438D01*
X43102976Y-41182438D02*
X43055357Y-41230057D01*
X42722023Y-41134819D02*
X42102976Y-41134819D01*
X42102976Y-41134819D02*
X42436309Y-41515771D01*
X42436309Y-41515771D02*
X42293452Y-41515771D01*
X42293452Y-41515771D02*
X42198214Y-41563390D01*
X42198214Y-41563390D02*
X42150595Y-41611009D01*
X42150595Y-41611009D02*
X42102976Y-41706247D01*
X42102976Y-41706247D02*
X42102976Y-41944342D01*
X42102976Y-41944342D02*
X42150595Y-42039580D01*
X42150595Y-42039580D02*
X42198214Y-42087200D01*
X42198214Y-42087200D02*
X42293452Y-42134819D01*
X42293452Y-42134819D02*
X42579166Y-42134819D01*
X42579166Y-42134819D02*
X42674404Y-42087200D01*
X42674404Y-42087200D02*
X42722023Y-42039580D01*
X41769642Y-41134819D02*
X41150595Y-41134819D01*
X41150595Y-41134819D02*
X41483928Y-41515771D01*
X41483928Y-41515771D02*
X41341071Y-41515771D01*
X41341071Y-41515771D02*
X41245833Y-41563390D01*
X41245833Y-41563390D02*
X41198214Y-41611009D01*
X41198214Y-41611009D02*
X41150595Y-41706247D01*
X41150595Y-41706247D02*
X41150595Y-41944342D01*
X41150595Y-41944342D02*
X41198214Y-42039580D01*
X41198214Y-42039580D02*
X41245833Y-42087200D01*
X41245833Y-42087200D02*
X41341071Y-42134819D01*
X41341071Y-42134819D02*
X41626785Y-42134819D01*
X41626785Y-42134819D02*
X41722023Y-42087200D01*
X41722023Y-42087200D02*
X41769642Y-42039580D01*
X25929580Y-42857142D02*
X25977200Y-42809523D01*
X25977200Y-42809523D02*
X26024819Y-42666666D01*
X26024819Y-42666666D02*
X26024819Y-42571428D01*
X26024819Y-42571428D02*
X25977200Y-42428571D01*
X25977200Y-42428571D02*
X25881961Y-42333333D01*
X25881961Y-42333333D02*
X25786723Y-42285714D01*
X25786723Y-42285714D02*
X25596247Y-42238095D01*
X25596247Y-42238095D02*
X25453390Y-42238095D01*
X25453390Y-42238095D02*
X25262914Y-42285714D01*
X25262914Y-42285714D02*
X25167676Y-42333333D01*
X25167676Y-42333333D02*
X25072438Y-42428571D01*
X25072438Y-42428571D02*
X25024819Y-42571428D01*
X25024819Y-42571428D02*
X25024819Y-42666666D01*
X25024819Y-42666666D02*
X25072438Y-42809523D01*
X25072438Y-42809523D02*
X25120057Y-42857142D01*
X25024819Y-43761904D02*
X25024819Y-43285714D01*
X25024819Y-43285714D02*
X25501009Y-43238095D01*
X25501009Y-43238095D02*
X25453390Y-43285714D01*
X25453390Y-43285714D02*
X25405771Y-43380952D01*
X25405771Y-43380952D02*
X25405771Y-43619047D01*
X25405771Y-43619047D02*
X25453390Y-43714285D01*
X25453390Y-43714285D02*
X25501009Y-43761904D01*
X25501009Y-43761904D02*
X25596247Y-43809523D01*
X25596247Y-43809523D02*
X25834342Y-43809523D01*
X25834342Y-43809523D02*
X25929580Y-43761904D01*
X25929580Y-43761904D02*
X25977200Y-43714285D01*
X25977200Y-43714285D02*
X26024819Y-43619047D01*
X26024819Y-43619047D02*
X26024819Y-43380952D01*
X26024819Y-43380952D02*
X25977200Y-43285714D01*
X25977200Y-43285714D02*
X25929580Y-43238095D01*
X25120057Y-44190476D02*
X25072438Y-44238095D01*
X25072438Y-44238095D02*
X25024819Y-44333333D01*
X25024819Y-44333333D02*
X25024819Y-44571428D01*
X25024819Y-44571428D02*
X25072438Y-44666666D01*
X25072438Y-44666666D02*
X25120057Y-44714285D01*
X25120057Y-44714285D02*
X25215295Y-44761904D01*
X25215295Y-44761904D02*
X25310533Y-44761904D01*
X25310533Y-44761904D02*
X25453390Y-44714285D01*
X25453390Y-44714285D02*
X26024819Y-44142857D01*
X26024819Y-44142857D02*
X26024819Y-44761904D01*
X49039580Y-52607142D02*
X49087200Y-52559523D01*
X49087200Y-52559523D02*
X49134819Y-52416666D01*
X49134819Y-52416666D02*
X49134819Y-52321428D01*
X49134819Y-52321428D02*
X49087200Y-52178571D01*
X49087200Y-52178571D02*
X48991961Y-52083333D01*
X48991961Y-52083333D02*
X48896723Y-52035714D01*
X48896723Y-52035714D02*
X48706247Y-51988095D01*
X48706247Y-51988095D02*
X48563390Y-51988095D01*
X48563390Y-51988095D02*
X48372914Y-52035714D01*
X48372914Y-52035714D02*
X48277676Y-52083333D01*
X48277676Y-52083333D02*
X48182438Y-52178571D01*
X48182438Y-52178571D02*
X48134819Y-52321428D01*
X48134819Y-52321428D02*
X48134819Y-52416666D01*
X48134819Y-52416666D02*
X48182438Y-52559523D01*
X48182438Y-52559523D02*
X48230057Y-52607142D01*
X48468152Y-53464285D02*
X49134819Y-53464285D01*
X48087200Y-53226190D02*
X48801485Y-52988095D01*
X48801485Y-52988095D02*
X48801485Y-53607142D01*
X48230057Y-53940476D02*
X48182438Y-53988095D01*
X48182438Y-53988095D02*
X48134819Y-54083333D01*
X48134819Y-54083333D02*
X48134819Y-54321428D01*
X48134819Y-54321428D02*
X48182438Y-54416666D01*
X48182438Y-54416666D02*
X48230057Y-54464285D01*
X48230057Y-54464285D02*
X48325295Y-54511904D01*
X48325295Y-54511904D02*
X48420533Y-54511904D01*
X48420533Y-54511904D02*
X48563390Y-54464285D01*
X48563390Y-54464285D02*
X49134819Y-53892857D01*
X49134819Y-53892857D02*
X49134819Y-54511904D01*
X56916666Y-44954819D02*
X57392856Y-44954819D01*
X57392856Y-44954819D02*
X57392856Y-43954819D01*
X56059523Y-44954819D02*
X56630951Y-44954819D01*
X56345237Y-44954819D02*
X56345237Y-43954819D01*
X56345237Y-43954819D02*
X56440475Y-44097676D01*
X56440475Y-44097676D02*
X56535713Y-44192914D01*
X56535713Y-44192914D02*
X56630951Y-44240533D01*
X43416666Y-60954819D02*
X43892856Y-60954819D01*
X43892856Y-60954819D02*
X43892856Y-59954819D01*
X43178570Y-59954819D02*
X42559523Y-59954819D01*
X42559523Y-59954819D02*
X42892856Y-60335771D01*
X42892856Y-60335771D02*
X42749999Y-60335771D01*
X42749999Y-60335771D02*
X42654761Y-60383390D01*
X42654761Y-60383390D02*
X42607142Y-60431009D01*
X42607142Y-60431009D02*
X42559523Y-60526247D01*
X42559523Y-60526247D02*
X42559523Y-60764342D01*
X42559523Y-60764342D02*
X42607142Y-60859580D01*
X42607142Y-60859580D02*
X42654761Y-60907200D01*
X42654761Y-60907200D02*
X42749999Y-60954819D01*
X42749999Y-60954819D02*
X43035713Y-60954819D01*
X43035713Y-60954819D02*
X43130951Y-60907200D01*
X43130951Y-60907200D02*
X43178570Y-60859580D01*
X39094819Y-49045714D02*
X38094819Y-49045714D01*
X38094819Y-49045714D02*
X38094819Y-49283809D01*
X38094819Y-49283809D02*
X38142438Y-49426666D01*
X38142438Y-49426666D02*
X38237676Y-49521904D01*
X38237676Y-49521904D02*
X38332914Y-49569523D01*
X38332914Y-49569523D02*
X38523390Y-49617142D01*
X38523390Y-49617142D02*
X38666247Y-49617142D01*
X38666247Y-49617142D02*
X38856723Y-49569523D01*
X38856723Y-49569523D02*
X38951961Y-49521904D01*
X38951961Y-49521904D02*
X39047200Y-49426666D01*
X39047200Y-49426666D02*
X39094819Y-49283809D01*
X39094819Y-49283809D02*
X39094819Y-49045714D01*
X39094819Y-50569523D02*
X39094819Y-49998095D01*
X39094819Y-50283809D02*
X38094819Y-50283809D01*
X38094819Y-50283809D02*
X38237676Y-50188571D01*
X38237676Y-50188571D02*
X38332914Y-50093333D01*
X38332914Y-50093333D02*
X38380533Y-49998095D01*
X38094819Y-51188571D02*
X38094819Y-51283809D01*
X38094819Y-51283809D02*
X38142438Y-51379047D01*
X38142438Y-51379047D02*
X38190057Y-51426666D01*
X38190057Y-51426666D02*
X38285295Y-51474285D01*
X38285295Y-51474285D02*
X38475771Y-51521904D01*
X38475771Y-51521904D02*
X38713866Y-51521904D01*
X38713866Y-51521904D02*
X38904342Y-51474285D01*
X38904342Y-51474285D02*
X38999580Y-51426666D01*
X38999580Y-51426666D02*
X39047200Y-51379047D01*
X39047200Y-51379047D02*
X39094819Y-51283809D01*
X39094819Y-51283809D02*
X39094819Y-51188571D01*
X39094819Y-51188571D02*
X39047200Y-51093333D01*
X39047200Y-51093333D02*
X38999580Y-51045714D01*
X38999580Y-51045714D02*
X38904342Y-50998095D01*
X38904342Y-50998095D02*
X38713866Y-50950476D01*
X38713866Y-50950476D02*
X38475771Y-50950476D01*
X38475771Y-50950476D02*
X38285295Y-50998095D01*
X38285295Y-50998095D02*
X38190057Y-51045714D01*
X38190057Y-51045714D02*
X38142438Y-51093333D01*
X38142438Y-51093333D02*
X38094819Y-51188571D01*
X59261904Y-57454819D02*
X59261904Y-58264342D01*
X59261904Y-58264342D02*
X59214285Y-58359580D01*
X59214285Y-58359580D02*
X59166666Y-58407200D01*
X59166666Y-58407200D02*
X59071428Y-58454819D01*
X59071428Y-58454819D02*
X58880952Y-58454819D01*
X58880952Y-58454819D02*
X58785714Y-58407200D01*
X58785714Y-58407200D02*
X58738095Y-58359580D01*
X58738095Y-58359580D02*
X58690476Y-58264342D01*
X58690476Y-58264342D02*
X58690476Y-57454819D01*
X58071428Y-57883390D02*
X58166666Y-57835771D01*
X58166666Y-57835771D02*
X58214285Y-57788152D01*
X58214285Y-57788152D02*
X58261904Y-57692914D01*
X58261904Y-57692914D02*
X58261904Y-57645295D01*
X58261904Y-57645295D02*
X58214285Y-57550057D01*
X58214285Y-57550057D02*
X58166666Y-57502438D01*
X58166666Y-57502438D02*
X58071428Y-57454819D01*
X58071428Y-57454819D02*
X57880952Y-57454819D01*
X57880952Y-57454819D02*
X57785714Y-57502438D01*
X57785714Y-57502438D02*
X57738095Y-57550057D01*
X57738095Y-57550057D02*
X57690476Y-57645295D01*
X57690476Y-57645295D02*
X57690476Y-57692914D01*
X57690476Y-57692914D02*
X57738095Y-57788152D01*
X57738095Y-57788152D02*
X57785714Y-57835771D01*
X57785714Y-57835771D02*
X57880952Y-57883390D01*
X57880952Y-57883390D02*
X58071428Y-57883390D01*
X58071428Y-57883390D02*
X58166666Y-57931009D01*
X58166666Y-57931009D02*
X58214285Y-57978628D01*
X58214285Y-57978628D02*
X58261904Y-58073866D01*
X58261904Y-58073866D02*
X58261904Y-58264342D01*
X58261904Y-58264342D02*
X58214285Y-58359580D01*
X58214285Y-58359580D02*
X58166666Y-58407200D01*
X58166666Y-58407200D02*
X58071428Y-58454819D01*
X58071428Y-58454819D02*
X57880952Y-58454819D01*
X57880952Y-58454819D02*
X57785714Y-58407200D01*
X57785714Y-58407200D02*
X57738095Y-58359580D01*
X57738095Y-58359580D02*
X57690476Y-58264342D01*
X57690476Y-58264342D02*
X57690476Y-58073866D01*
X57690476Y-58073866D02*
X57738095Y-57978628D01*
X57738095Y-57978628D02*
X57785714Y-57931009D01*
X57785714Y-57931009D02*
X57880952Y-57883390D01*
X34666666Y-54774819D02*
X34999999Y-54298628D01*
X35238094Y-54774819D02*
X35238094Y-53774819D01*
X35238094Y-53774819D02*
X34857142Y-53774819D01*
X34857142Y-53774819D02*
X34761904Y-53822438D01*
X34761904Y-53822438D02*
X34714285Y-53870057D01*
X34714285Y-53870057D02*
X34666666Y-53965295D01*
X34666666Y-53965295D02*
X34666666Y-54108152D01*
X34666666Y-54108152D02*
X34714285Y-54203390D01*
X34714285Y-54203390D02*
X34761904Y-54251009D01*
X34761904Y-54251009D02*
X34857142Y-54298628D01*
X34857142Y-54298628D02*
X35238094Y-54298628D01*
X33714285Y-54774819D02*
X34285713Y-54774819D01*
X33999999Y-54774819D02*
X33999999Y-53774819D01*
X33999999Y-53774819D02*
X34095237Y-53917676D01*
X34095237Y-53917676D02*
X34190475Y-54012914D01*
X34190475Y-54012914D02*
X34285713Y-54060533D01*
D10*
%TO.C,D19*%
X40500000Y-31525000D02*
X40500000Y-33475000D01*
X40500000Y-31525000D02*
X40850000Y-31525000D01*
X40500000Y-33475000D02*
X40850000Y-33475000D01*
X40600000Y-31525000D02*
X40600000Y-33475000D01*
X40700000Y-31525000D02*
X40700000Y-33475000D01*
X42900000Y-31525000D02*
X43150000Y-31525000D01*
X43150000Y-31525000D02*
X43150000Y-31775000D01*
X43150000Y-33250000D02*
X43150000Y-33475000D01*
X43150000Y-33475000D02*
X42850000Y-33475000D01*
%TO.C,D9*%
X33275000Y-48925000D02*
X33275000Y-49275000D01*
X33275000Y-51575000D02*
X33275000Y-51275000D01*
X33500000Y-51575000D02*
X33275000Y-51575000D01*
X35225000Y-48925000D02*
X33275000Y-48925000D01*
X35225000Y-48925000D02*
X35225000Y-49275000D01*
X35225000Y-49025000D02*
X33275000Y-49025000D01*
X35225000Y-49125000D02*
X33275000Y-49125000D01*
X35225000Y-51325000D02*
X35225000Y-51575000D01*
X35225000Y-51575000D02*
X34975000Y-51575000D01*
D13*
%TO.C,R21*%
X22227500Y-79245276D02*
X22227500Y-79754724D01*
X23272500Y-79245276D02*
X23272500Y-79754724D01*
%TO.C,R8*%
X36977500Y-83745276D02*
X36977500Y-84254724D01*
X38022500Y-83745276D02*
X38022500Y-84254724D01*
D14*
%TO.C,D14*%
X49345000Y-59964000D02*
X49980000Y-59964000D01*
X49345000Y-62910400D02*
X53155000Y-62910400D01*
X49345000Y-63240600D02*
X53155000Y-63240600D01*
X49345000Y-64536000D02*
X49345000Y-59964000D01*
X49980000Y-64536000D02*
X49345000Y-64536000D01*
X50775020Y-61965520D02*
X50932500Y-62123000D01*
X50775025Y-61487996D02*
X51250000Y-62123000D01*
X50932500Y-62123000D02*
X51250000Y-62123000D01*
X51250000Y-61284800D02*
X51250000Y-61488000D01*
X51250000Y-61488000D02*
X50775020Y-61488000D01*
X51250000Y-62123000D02*
X51724980Y-61488000D01*
X51250000Y-63232980D02*
X51250000Y-62123000D01*
X51567500Y-62123000D02*
X51250000Y-62123000D01*
X51724980Y-61488000D02*
X51250000Y-61488000D01*
X51724980Y-62280480D02*
X51567500Y-62123000D01*
X52520000Y-64536000D02*
X53155000Y-64536000D01*
X53155000Y-59964000D02*
X52520000Y-59964000D01*
X53155000Y-64536000D02*
X53155000Y-59964000D01*
D13*
%TO.C,C36*%
X55603733Y-57240000D02*
X55896267Y-57240000D01*
X55603733Y-58260000D02*
X55896267Y-58260000D01*
%TO.C,C12*%
X27603733Y-73740000D02*
X27896267Y-73740000D01*
X27603733Y-74760000D02*
X27896267Y-74760000D01*
%TO.C,C15*%
X46396267Y-25740000D02*
X46103733Y-25740000D01*
X46396267Y-26760000D02*
X46103733Y-26760000D01*
%TO.C,R16*%
X39745276Y-73727500D02*
X40254724Y-73727500D01*
X39745276Y-74772500D02*
X40254724Y-74772500D01*
%TO.C,C9*%
X24646267Y-69740000D02*
X24353733Y-69740000D01*
X24646267Y-70760000D02*
X24353733Y-70760000D01*
%TO.C,R15*%
X40254724Y-71977500D02*
X39745276Y-71977500D01*
X40254724Y-73022500D02*
X39745276Y-73022500D01*
%TO.C,C55*%
X24461252Y-36090000D02*
X23038748Y-36090000D01*
X24461252Y-37910000D02*
X23038748Y-37910000D01*
D10*
%TO.C,D17*%
X28425000Y-31525000D02*
X28425000Y-33475000D01*
X28425000Y-31525000D02*
X28775000Y-31525000D01*
X28425000Y-33475000D02*
X28775000Y-33475000D01*
X28525000Y-31525000D02*
X28525000Y-33475000D01*
X28625000Y-31525000D02*
X28625000Y-33475000D01*
X30825000Y-31525000D02*
X31075000Y-31525000D01*
X31075000Y-31525000D02*
X31075000Y-31775000D01*
X31075000Y-33250000D02*
X31075000Y-33475000D01*
X31075000Y-33475000D02*
X30775000Y-33475000D01*
D13*
%TO.C,R11*%
X36727500Y-55004724D02*
X36727500Y-54495276D01*
X37772500Y-55004724D02*
X37772500Y-54495276D01*
%TO.C,C25*%
X23603733Y-17490000D02*
X23896267Y-17490000D01*
X23603733Y-18510000D02*
X23896267Y-18510000D01*
%TO.C,R2*%
X63727500Y-84754724D02*
X63727500Y-84245276D01*
X64772500Y-84754724D02*
X64772500Y-84245276D01*
%TO.C,C34*%
X52396267Y-57240000D02*
X52103733Y-57240000D01*
X52396267Y-58260000D02*
X52103733Y-58260000D01*
D10*
%TO.C,D8*%
X25675000Y-75275000D02*
X25675000Y-77225000D01*
X25675000Y-75275000D02*
X26025000Y-75275000D01*
X25675000Y-77225000D02*
X26025000Y-77225000D01*
X25775000Y-75275000D02*
X25775000Y-77225000D01*
X25875000Y-75275000D02*
X25875000Y-77225000D01*
X28075000Y-75275000D02*
X28325000Y-75275000D01*
X28325000Y-75275000D02*
X28325000Y-75525000D01*
X28325000Y-77000000D02*
X28325000Y-77225000D01*
X28325000Y-77225000D02*
X28025000Y-77225000D01*
D13*
%TO.C,C43*%
X39853733Y-66240000D02*
X40146267Y-66240000D01*
X39853733Y-67260000D02*
X40146267Y-67260000D01*
%TO.C,R25*%
X23829724Y-34227500D02*
X23320276Y-34227500D01*
X23829724Y-35272500D02*
X23320276Y-35272500D01*
D10*
%TO.C,D1*%
X33925000Y-57025000D02*
X34225000Y-57025000D01*
X33925000Y-57250000D02*
X33925000Y-57025000D01*
X33925000Y-58975000D02*
X33925000Y-58725000D01*
X34175000Y-58975000D02*
X33925000Y-58975000D01*
X36375000Y-58975000D02*
X36375000Y-57025000D01*
X36475000Y-58975000D02*
X36475000Y-57025000D01*
X36575000Y-57025000D02*
X36225000Y-57025000D01*
X36575000Y-58975000D02*
X36225000Y-58975000D01*
X36575000Y-58975000D02*
X36575000Y-57025000D01*
D13*
%TO.C,R10*%
X24727500Y-73504724D02*
X24727500Y-72995276D01*
X25772500Y-73504724D02*
X25772500Y-72995276D01*
%TO.C,C51*%
X39853733Y-69740000D02*
X40146267Y-69740000D01*
X39853733Y-70760000D02*
X40146267Y-70760000D01*
%TO.C,C20*%
X52240000Y-37353733D02*
X52240000Y-37646267D01*
X53260000Y-37353733D02*
X53260000Y-37646267D01*
%TO.C,U6*%
X44190000Y-28662500D02*
X44190000Y-29312500D01*
X44190000Y-29962500D02*
X44190000Y-29312500D01*
X47310000Y-28662500D02*
X47310000Y-29312500D01*
X47310000Y-29962500D02*
X47310000Y-29312500D01*
X47590000Y-30715000D02*
X47260000Y-30475000D01*
X47590000Y-30235000D01*
X47590000Y-30715000D01*
G36*
X47590000Y-30715000D02*
G01*
X47260000Y-30475000D01*
X47590000Y-30235000D01*
X47590000Y-30715000D01*
G37*
%TO.C,C26*%
X36990000Y-67896267D02*
X36990000Y-67603733D01*
X38010000Y-67896267D02*
X38010000Y-67603733D01*
%TO.C,C11*%
X34490000Y-70258767D02*
X34490000Y-69966233D01*
X35510000Y-70258767D02*
X35510000Y-69966233D01*
%TO.C,R4*%
X39977500Y-83745276D02*
X39977500Y-84254724D01*
X41022500Y-83745276D02*
X41022500Y-84254724D01*
%TO.C,C31*%
X38990000Y-49853733D02*
X38990000Y-50146267D01*
X40010000Y-49853733D02*
X40010000Y-50146267D01*
%TO.C,C18*%
X29896267Y-68240000D02*
X29603733Y-68240000D01*
X29896267Y-69260000D02*
X29603733Y-69260000D01*
D10*
%TO.C,D15*%
X20525000Y-67675000D02*
X20525000Y-68025000D01*
X20525000Y-70325000D02*
X20525000Y-70025000D01*
X20750000Y-70325000D02*
X20525000Y-70325000D01*
X22475000Y-67675000D02*
X20525000Y-67675000D01*
X22475000Y-67675000D02*
X22475000Y-68025000D01*
X22475000Y-67775000D02*
X20525000Y-67775000D01*
X22475000Y-67875000D02*
X20525000Y-67875000D01*
X22475000Y-70075000D02*
X22475000Y-70325000D01*
X22475000Y-70325000D02*
X22225000Y-70325000D01*
D13*
%TO.C,R20*%
X20477500Y-79245276D02*
X20477500Y-79754724D01*
X21522500Y-79245276D02*
X21522500Y-79754724D01*
D15*
%TO.C,L4*%
X26024200Y-47530100D02*
X26024200Y-54972300D01*
X26024200Y-54972300D02*
X26667960Y-54972300D01*
X26667960Y-47530100D02*
X26024200Y-47530100D01*
X28832040Y-54972300D02*
X29667960Y-54972300D01*
X29667960Y-47530100D02*
X28832040Y-47530100D01*
X31832040Y-54972300D02*
X32475800Y-54972300D01*
X32475800Y-47530100D02*
X31832040Y-47530100D01*
X32475800Y-54972300D02*
X32475800Y-47530100D01*
D13*
%TO.C,U7*%
X54050000Y-33700000D02*
X54050000Y-32200000D01*
X55000000Y-33700000D02*
X54050000Y-33700000D01*
X63500000Y-33700000D02*
X64450000Y-33700000D01*
X64450000Y-33700000D02*
X64450000Y-32200000D01*
X63830000Y-36502500D02*
X63500000Y-36262500D01*
X63830000Y-36022500D01*
X63830000Y-36502500D01*
G36*
X63830000Y-36502500D02*
G01*
X63500000Y-36262500D01*
X63830000Y-36022500D01*
X63830000Y-36502500D01*
G37*
D10*
%TO.C,D2*%
X20775000Y-54175000D02*
X21025000Y-54175000D01*
X20775000Y-54425000D02*
X20775000Y-54175000D01*
X20775000Y-56625000D02*
X22725000Y-56625000D01*
X20775000Y-56725000D02*
X22725000Y-56725000D01*
X20775000Y-56825000D02*
X20775000Y-56475000D01*
X20775000Y-56825000D02*
X22725000Y-56825000D01*
X22500000Y-54175000D02*
X22725000Y-54175000D01*
X22725000Y-54175000D02*
X22725000Y-54475000D01*
X22725000Y-56825000D02*
X22725000Y-56475000D01*
D13*
%TO.C,C5*%
X29740000Y-44353733D02*
X29740000Y-44646267D01*
X30760000Y-44353733D02*
X30760000Y-44646267D01*
%TO.C,C46*%
X29990000Y-71396267D02*
X29990000Y-71103733D01*
X31010000Y-71396267D02*
X31010000Y-71103733D01*
D16*
%TO.C,IC4*%
X20893000Y-41863000D02*
X25797000Y-41863000D01*
X20893000Y-45059000D02*
X20893000Y-41863000D01*
X25797000Y-41863000D02*
X25797000Y-45059000D01*
X25797000Y-45059000D02*
X20893000Y-45059000D01*
X25925000Y-45409000D02*
X25925000Y-46936000D01*
D13*
%TO.C,C39*%
X48990000Y-56603733D02*
X48990000Y-56896267D01*
X50010000Y-56603733D02*
X50010000Y-56896267D01*
%TO.C,U9*%
X40785000Y-49480000D02*
X40785000Y-51430000D01*
X40785000Y-53380000D02*
X40785000Y-51430000D01*
X45905000Y-49480000D02*
X45905000Y-51430000D01*
X45905000Y-53380000D02*
X45905000Y-51430000D01*
X46140000Y-54370000D02*
X45810000Y-54130000D01*
X46140000Y-53890000D01*
X46140000Y-54370000D01*
G36*
X46140000Y-54370000D02*
G01*
X45810000Y-54130000D01*
X46140000Y-53890000D01*
X46140000Y-54370000D01*
G37*
%TO.C,C41*%
X20490000Y-75603733D02*
X20490000Y-75896267D01*
X21510000Y-75603733D02*
X21510000Y-75896267D01*
%TO.C,L2*%
X31690000Y-68285000D02*
X31690000Y-65765000D01*
X33810000Y-68285000D02*
X33810000Y-65765000D01*
%TO.C,R5*%
X23977500Y-79754724D02*
X23977500Y-79245276D01*
X25022500Y-79754724D02*
X25022500Y-79245276D01*
D10*
%TO.C,D20*%
X34425000Y-31525000D02*
X34425000Y-33475000D01*
X34425000Y-31525000D02*
X34775000Y-31525000D01*
X34425000Y-33475000D02*
X34775000Y-33475000D01*
X34525000Y-31525000D02*
X34525000Y-33475000D01*
X34625000Y-31525000D02*
X34625000Y-33475000D01*
X36825000Y-31525000D02*
X37075000Y-31525000D01*
X37075000Y-31525000D02*
X37075000Y-31775000D01*
X37075000Y-33250000D02*
X37075000Y-33475000D01*
X37075000Y-33475000D02*
X36775000Y-33475000D01*
D13*
%TO.C,C38*%
X63740000Y-62353733D02*
X63740000Y-62646267D01*
X64760000Y-62353733D02*
X64760000Y-62646267D01*
D10*
%TO.C,D7*%
X27275000Y-78925000D02*
X27275000Y-79275000D01*
X27275000Y-81575000D02*
X27275000Y-81275000D01*
X27500000Y-81575000D02*
X27275000Y-81575000D01*
X29225000Y-78925000D02*
X27275000Y-78925000D01*
X29225000Y-78925000D02*
X29225000Y-79275000D01*
X29225000Y-79025000D02*
X27275000Y-79025000D01*
X29225000Y-79125000D02*
X27275000Y-79125000D01*
X29225000Y-81325000D02*
X29225000Y-81575000D01*
X29225000Y-81575000D02*
X28975000Y-81575000D01*
D13*
%TO.C,C40*%
X46740000Y-45603733D02*
X46740000Y-45896267D01*
X47760000Y-45603733D02*
X47760000Y-45896267D01*
%TO.C,C14*%
X26490000Y-71146267D02*
X26490000Y-70853733D01*
X27510000Y-71146267D02*
X27510000Y-70853733D01*
%TO.C,R12*%
X63727500Y-73254724D02*
X63727500Y-72745276D01*
X64772500Y-73254724D02*
X64772500Y-72745276D01*
D16*
%TO.C,IC5*%
X32953000Y-41863000D02*
X37857000Y-41863000D01*
X32953000Y-45059000D02*
X32953000Y-41863000D01*
X37857000Y-41863000D02*
X37857000Y-45059000D01*
X37857000Y-45059000D02*
X32953000Y-45059000D01*
X37985000Y-45409000D02*
X37985000Y-46936000D01*
D13*
%TO.C,C44*%
X28240000Y-71396267D02*
X28240000Y-71103733D01*
X29260000Y-71396267D02*
X29260000Y-71103733D01*
%TO.C,C50*%
X43603733Y-67990000D02*
X43896267Y-67990000D01*
X43603733Y-69010000D02*
X43896267Y-69010000D01*
D16*
%TO.C,IC1*%
X52910000Y-68338000D02*
X52910000Y-66813000D01*
X53105000Y-68688000D02*
X63005000Y-68688000D01*
X53105000Y-71888000D02*
X53105000Y-68688000D01*
X63005000Y-68688000D02*
X63005000Y-71888000D01*
X63005000Y-71888000D02*
X53105000Y-71888000D01*
D13*
%TO.C,C35*%
X50740000Y-55146267D02*
X50740000Y-54853733D01*
X51760000Y-55146267D02*
X51760000Y-54853733D01*
D10*
%TO.C,D5*%
X23275000Y-48925000D02*
X23525000Y-48925000D01*
X23275000Y-49175000D02*
X23275000Y-48925000D01*
X23275000Y-51375000D02*
X25225000Y-51375000D01*
X23275000Y-51475000D02*
X25225000Y-51475000D01*
X23275000Y-51575000D02*
X23275000Y-51225000D01*
X23275000Y-51575000D02*
X25225000Y-51575000D01*
X25000000Y-48925000D02*
X25225000Y-48925000D01*
X25225000Y-48925000D02*
X25225000Y-49225000D01*
X25225000Y-51575000D02*
X25225000Y-51225000D01*
D13*
%TO.C,R6*%
X20790000Y-64427064D02*
X20790000Y-60072936D01*
X24210000Y-64427064D02*
X24210000Y-60072936D01*
%TO.C,C47*%
X43896267Y-66240000D02*
X43603733Y-66240000D01*
X43896267Y-67260000D02*
X43603733Y-67260000D01*
%TO.C,C45*%
X39853733Y-67990000D02*
X40146267Y-67990000D01*
X39853733Y-69010000D02*
X40146267Y-69010000D01*
%TO.C,C4*%
X33603733Y-85740000D02*
X33896267Y-85740000D01*
X33603733Y-86760000D02*
X33896267Y-86760000D01*
%TO.C,C57*%
X36461252Y-36090000D02*
X35038748Y-36090000D01*
X36461252Y-37910000D02*
X35038748Y-37910000D01*
%TO.C,D16*%
X45840000Y-66390000D02*
X45840000Y-69110000D01*
X50900000Y-66390000D02*
X45840000Y-66390000D01*
X50900000Y-69110000D02*
X45840000Y-69110000D01*
%TO.C,R7*%
X27727500Y-58504724D02*
X27727500Y-57995276D01*
X28772500Y-58504724D02*
X28772500Y-57995276D01*
%TO.C,C48*%
X43896267Y-69740000D02*
X43603733Y-69740000D01*
X43896267Y-70760000D02*
X43603733Y-70760000D01*
%TO.C,R3*%
X57727500Y-84754724D02*
X57727500Y-84245276D01*
X58772500Y-84754724D02*
X58772500Y-84245276D01*
%TO.C,R19*%
X38977500Y-46245276D02*
X38977500Y-46754724D01*
X40022500Y-46245276D02*
X40022500Y-46754724D01*
D16*
%TO.C,IC2*%
X58000000Y-53525000D02*
X64500000Y-53525000D01*
X58000000Y-55275000D02*
X58000000Y-53525000D01*
X58125000Y-53175000D02*
X58125000Y-50425000D01*
X64500000Y-53525000D02*
X64500000Y-55275000D01*
X64500000Y-55275000D02*
X58000000Y-55275000D01*
D13*
%TO.C,D12*%
X62140000Y-44900000D02*
X62140000Y-39840000D01*
X64860000Y-39840000D02*
X62140000Y-39840000D01*
X64860000Y-44900000D02*
X64860000Y-39840000D01*
%TO.C,Q1*%
X60600000Y-82990000D02*
X61250000Y-82990000D01*
X60600000Y-86110000D02*
X61250000Y-86110000D01*
X61900000Y-82990000D02*
X61250000Y-82990000D01*
X61900000Y-86110000D02*
X61250000Y-86110000D01*
X62412500Y-83040000D02*
X62172500Y-82710000D01*
X62652500Y-82710000D01*
X62412500Y-83040000D01*
G36*
X62412500Y-83040000D02*
G01*
X62172500Y-82710000D01*
X62652500Y-82710000D01*
X62412500Y-83040000D01*
G37*
%TO.C,R26*%
X41754724Y-34227500D02*
X41245276Y-34227500D01*
X41754724Y-35272500D02*
X41245276Y-35272500D01*
%TO.C,C53*%
X31240000Y-43646267D02*
X31240000Y-43353733D01*
X32260000Y-43646267D02*
X32260000Y-43353733D01*
%TO.C,C30*%
X48490000Y-53103733D02*
X48490000Y-53396267D01*
X49510000Y-53103733D02*
X49510000Y-53396267D01*
%TO.C,R24*%
X29754724Y-34227500D02*
X29245276Y-34227500D01*
X29754724Y-35272500D02*
X29245276Y-35272500D01*
%TO.C,C49*%
X48490000Y-49353733D02*
X48490000Y-49646267D01*
X49510000Y-49353733D02*
X49510000Y-49646267D01*
%TO.C,C6*%
X25740000Y-79646267D02*
X25740000Y-79353733D01*
X26760000Y-79646267D02*
X26760000Y-79353733D01*
%TO.C,R14*%
X63727500Y-66254724D02*
X63727500Y-65745276D01*
X64772500Y-66254724D02*
X64772500Y-65745276D01*
%TO.C,C17*%
X43603733Y-73740000D02*
X43896267Y-73740000D01*
X43603733Y-74760000D02*
X43896267Y-74760000D01*
D10*
%TO.C,D3*%
X20775000Y-48925000D02*
X21025000Y-48925000D01*
X20775000Y-49175000D02*
X20775000Y-48925000D01*
X20775000Y-51375000D02*
X22725000Y-51375000D01*
X20775000Y-51475000D02*
X22725000Y-51475000D01*
X20775000Y-51575000D02*
X20775000Y-51225000D01*
X20775000Y-51575000D02*
X22725000Y-51575000D01*
X22500000Y-48925000D02*
X22725000Y-48925000D01*
X22725000Y-48925000D02*
X22725000Y-49225000D01*
X22725000Y-51575000D02*
X22725000Y-51225000D01*
D16*
%TO.C,IC3*%
X40937500Y-42850000D02*
X40937500Y-41650000D01*
X41037500Y-43200000D02*
X43937500Y-43200000D01*
X41037500Y-43800000D02*
X41037500Y-43200000D01*
X43937500Y-43200000D02*
X43937500Y-43800000D01*
X43937500Y-43800000D02*
X41037500Y-43800000D01*
D14*
%TO.C,D13*%
X52845000Y-50964000D02*
X52845000Y-55536000D01*
X52845000Y-55536000D02*
X53480000Y-55536000D01*
X53480000Y-50964000D02*
X52845000Y-50964000D01*
X54275020Y-53219520D02*
X54432500Y-53377000D01*
X54275020Y-54012000D02*
X54750000Y-54012000D01*
X54432500Y-53377000D02*
X54750000Y-53377000D01*
X54750000Y-52267020D02*
X54750000Y-53377000D01*
X54750000Y-53377000D02*
X54275020Y-54012000D01*
X54750000Y-54012000D02*
X55224980Y-54012000D01*
X54750000Y-54215200D02*
X54750000Y-54012000D01*
X55067500Y-53377000D02*
X54750000Y-53377000D01*
X55224975Y-54012004D02*
X54750000Y-53377000D01*
X55224980Y-53534480D02*
X55067500Y-53377000D01*
X56020000Y-50964000D02*
X56655000Y-50964000D01*
X56655000Y-50964000D02*
X56655000Y-55536000D01*
X56655000Y-52259400D02*
X52845000Y-52259400D01*
X56655000Y-52589600D02*
X52845000Y-52589600D01*
X56655000Y-55536000D02*
X56020000Y-55536000D01*
D13*
%TO.C,C8*%
X25990000Y-58103733D02*
X25990000Y-58396267D01*
X27010000Y-58103733D02*
X27010000Y-58396267D01*
D10*
%TO.C,D6*%
X24775000Y-63175000D02*
X25025000Y-63175000D01*
X24775000Y-63425000D02*
X24775000Y-63175000D01*
X24775000Y-65625000D02*
X26725000Y-65625000D01*
X24775000Y-65725000D02*
X26725000Y-65725000D01*
X24775000Y-65825000D02*
X24775000Y-65475000D01*
X24775000Y-65825000D02*
X26725000Y-65825000D01*
X26500000Y-63175000D02*
X26725000Y-63175000D01*
X26725000Y-63175000D02*
X26725000Y-63475000D01*
X26725000Y-65825000D02*
X26725000Y-65475000D01*
D16*
%TO.C,U4*%
X28641332Y-63479810D02*
X28641332Y-63479810D01*
X28782753Y-63338388D02*
X28782753Y-63338388D01*
D10*
X29878769Y-65141511D02*
X28959530Y-64222272D01*
X32141511Y-62878769D02*
X31222272Y-61959530D01*
D16*
X28641332Y-63479810D02*
G75*
G02*
X28782753Y-63338387I70711J70711D01*
G01*
X28782753Y-63338388D02*
G75*
G02*
X28641331Y-63479811I-70710J-70712D01*
G01*
D13*
%TO.C,C24*%
X46103733Y-33490000D02*
X46396267Y-33490000D01*
X46103733Y-34510000D02*
X46396267Y-34510000D01*
%TO.C,C54*%
X30461252Y-36090000D02*
X29038748Y-36090000D01*
X30461252Y-37910000D02*
X29038748Y-37910000D01*
%TO.C,R17*%
X46504724Y-31727500D02*
X45995276Y-31727500D01*
X46504724Y-32772500D02*
X45995276Y-32772500D01*
D10*
%TO.C,D4*%
X23275000Y-54175000D02*
X23525000Y-54175000D01*
X23275000Y-54425000D02*
X23275000Y-54175000D01*
X23275000Y-56625000D02*
X25225000Y-56625000D01*
X23275000Y-56725000D02*
X25225000Y-56725000D01*
X23275000Y-56825000D02*
X23275000Y-56475000D01*
X23275000Y-56825000D02*
X25225000Y-56825000D01*
X25000000Y-54175000D02*
X25225000Y-54175000D01*
X25225000Y-54175000D02*
X25225000Y-54475000D01*
X25225000Y-56825000D02*
X25225000Y-56475000D01*
D13*
%TO.C,C7*%
X27990000Y-44353733D02*
X27990000Y-44646267D01*
X29010000Y-44353733D02*
X29010000Y-44646267D01*
%TO.C,C28*%
X62990000Y-47853733D02*
X62990000Y-48146267D01*
X64010000Y-47853733D02*
X64010000Y-48146267D01*
%TO.C,C27*%
X52240000Y-30103733D02*
X52240000Y-30396267D01*
X53260000Y-30103733D02*
X53260000Y-30396267D01*
D10*
%TO.C,D18*%
X22425000Y-31525000D02*
X22425000Y-33475000D01*
X22425000Y-31525000D02*
X22775000Y-31525000D01*
X22425000Y-33475000D02*
X22775000Y-33475000D01*
X22525000Y-31525000D02*
X22525000Y-33475000D01*
X22625000Y-31525000D02*
X22625000Y-33475000D01*
X24825000Y-31525000D02*
X25075000Y-31525000D01*
X25075000Y-31525000D02*
X25075000Y-31775000D01*
X25075000Y-33250000D02*
X25075000Y-33475000D01*
X25075000Y-33475000D02*
X24775000Y-33475000D01*
D13*
%TO.C,R27*%
X35754724Y-34227500D02*
X35245276Y-34227500D01*
X35754724Y-35272500D02*
X35245276Y-35272500D01*
%TO.C,C22*%
X52240000Y-26603733D02*
X52240000Y-26896267D01*
X53260000Y-26603733D02*
X53260000Y-26896267D01*
%TO.C,R18*%
X38977500Y-53754724D02*
X38977500Y-53245276D01*
X40022500Y-53754724D02*
X40022500Y-53245276D01*
%TO.C,R13*%
X63727500Y-69754724D02*
X63727500Y-69245276D01*
X64772500Y-69754724D02*
X64772500Y-69245276D01*
%TO.C,R22*%
X42667224Y-46227500D02*
X42157776Y-46227500D01*
X42667224Y-47272500D02*
X42157776Y-47272500D01*
%TO.C,C3*%
X32740000Y-71646267D02*
X32740000Y-71353733D01*
X33760000Y-71646267D02*
X33760000Y-71353733D01*
%TO.C,R23*%
X46727500Y-49245276D02*
X46727500Y-49754724D01*
X47772500Y-49245276D02*
X47772500Y-49754724D01*
%TO.C,R9*%
X32004724Y-73477500D02*
X31495276Y-73477500D01*
X32004724Y-74522500D02*
X31495276Y-74522500D01*
%TO.C,C10*%
X24646267Y-67990000D02*
X24353733Y-67990000D01*
X24646267Y-69010000D02*
X24353733Y-69010000D01*
%TO.C,C56*%
X42461252Y-36090000D02*
X41038748Y-36090000D01*
X42461252Y-37910000D02*
X41038748Y-37910000D01*
%TO.C,C23*%
X52240000Y-34008767D02*
X52240000Y-33716233D01*
X53260000Y-34008767D02*
X53260000Y-33716233D01*
%TO.C,C21*%
X31240000Y-58103733D02*
X31240000Y-58396267D01*
X32260000Y-58103733D02*
X32260000Y-58396267D01*
%TO.C,C1*%
X44103733Y-85740000D02*
X44396267Y-85740000D01*
X44103733Y-86760000D02*
X44396267Y-86760000D01*
%TO.C,C32*%
X44740000Y-45603733D02*
X44740000Y-45896267D01*
X45760000Y-45603733D02*
X45760000Y-45896267D01*
%TO.C,C2*%
X29490000Y-58103733D02*
X29490000Y-58396267D01*
X30510000Y-58103733D02*
X30510000Y-58396267D01*
%TO.C,C16*%
X43896267Y-71990000D02*
X43603733Y-71990000D01*
X43896267Y-73010000D02*
X43603733Y-73010000D01*
%TO.C,C33*%
X42558767Y-39740000D02*
X42266233Y-39740000D01*
X42558767Y-40760000D02*
X42266233Y-40760000D01*
%TO.C,C52*%
X26490000Y-43646267D02*
X26490000Y-43353733D01*
X27510000Y-43646267D02*
X27510000Y-43353733D01*
%TO.C,C42*%
X46740000Y-53103733D02*
X46740000Y-53396267D01*
X47760000Y-53103733D02*
X47760000Y-53396267D01*
D15*
%TO.C,L1*%
X52178000Y-39902600D02*
X52178000Y-41589160D01*
X52178000Y-47410840D02*
X52178000Y-49097400D01*
X52178000Y-49097400D02*
X61322000Y-49097400D01*
X61322000Y-39902600D02*
X52178000Y-39902600D01*
X61322000Y-41589160D02*
X61322000Y-39902600D01*
X61322000Y-49097400D02*
X61322000Y-47410840D01*
X62541200Y-44500000D02*
G75*
G02*
X62388800Y-44500000I-76200J0D01*
G01*
X62388800Y-44500000D02*
G75*
G02*
X62541200Y-44500000I76200J0D01*
G01*
%TO.C,L3*%
X38678000Y-55902600D02*
X38678000Y-57589160D01*
X38678000Y-63410840D02*
X38678000Y-65097400D01*
X38678000Y-65097400D02*
X47822000Y-65097400D01*
X47822000Y-55902600D02*
X38678000Y-55902600D01*
X47822000Y-57589160D02*
X47822000Y-55902600D01*
X47822000Y-65097400D02*
X47822000Y-63410840D01*
X49041200Y-60500000D02*
G75*
G02*
X48888800Y-60500000I-76200J0D01*
G01*
X48888800Y-60500000D02*
G75*
G02*
X49041200Y-60500000I76200J0D01*
G01*
D10*
%TO.C,D10*%
X35775000Y-48925000D02*
X36025000Y-48925000D01*
X35775000Y-49175000D02*
X35775000Y-48925000D01*
X35775000Y-51375000D02*
X37725000Y-51375000D01*
X35775000Y-51475000D02*
X37725000Y-51475000D01*
X35775000Y-51575000D02*
X35775000Y-51225000D01*
X35775000Y-51575000D02*
X37725000Y-51575000D01*
X37500000Y-48925000D02*
X37725000Y-48925000D01*
X37725000Y-48925000D02*
X37725000Y-49225000D01*
X37725000Y-51575000D02*
X37725000Y-51225000D01*
D13*
%TO.C,U8*%
X56590000Y-59090000D02*
X60350000Y-59090000D01*
X56590000Y-60350000D02*
X56590000Y-59090000D01*
X56590000Y-64650000D02*
X56590000Y-65910000D01*
X56590000Y-65910000D02*
X60350000Y-65910000D01*
X61630000Y-59190000D02*
X61390000Y-58860000D01*
X61870000Y-58860000D01*
X61630000Y-59190000D01*
G36*
X61630000Y-59190000D02*
G01*
X61390000Y-58860000D01*
X61870000Y-58860000D01*
X61630000Y-59190000D01*
G37*
%TO.C,R1*%
X34245276Y-55227500D02*
X34754724Y-55227500D01*
X34245276Y-56272500D02*
X34754724Y-56272500D01*
%TD*%
M02*
