M48
; DRILL file {KiCad 8.0.4} date 2024-10-12T12:23:13-0400
; FORMAT={-:-/ absolute / inch / decimal}
; #@! TF.CreationDate,2024-10-12T12:23:13-04:00
; #@! TF.GenerationSoftware,Kicad,Pcbnew,8.0.4
; #@! TF.FileFunction,Plated,1,6,PTH
FMAT,2
INCH
; #@! TA.AperFunction,Plated,PTH,ViaDrill
T1C0.0118
; #@! TA.AperFunction,Plated,PTH,ComponentDrill
T2C0.0276
; #@! TA.AperFunction,Plated,PTH,ComponentDrill
T3C0.0300
; #@! TA.AperFunction,Plated,PTH,ComponentDrill
T4C0.0315
; #@! TA.AperFunction,Plated,PTH,ComponentDrill
T5C0.0350
; #@! TA.AperFunction,Plated,PTH,ComponentDrill
T6C0.0350
; #@! TA.AperFunction,Plated,PTH,ComponentDrill
T7C0.0374
; #@! TA.AperFunction,Plated,PTH,ComponentDrill
T8C0.0402
; #@! TA.AperFunction,Plated,PTH,ComponentDrill
T9C0.0425
%
G90
G05
T1
X0.7087Y-0.6693
X0.7087Y-0.7677
X0.7087Y-0.8661
X0.7087Y-0.9646
X0.7087Y-1.063
X0.7087Y-1.1614
X0.7087Y-1.2598
X0.7087Y-1.3583
X0.7087Y-1.4567
X0.7087Y-1.5551
X0.7087Y-1.6535
X0.7087Y-1.752
X0.7087Y-1.8504
X0.7087Y-1.9488
X0.7087Y-2.0472
X0.7087Y-2.1457
X0.7087Y-2.2441
X0.7087Y-2.3425
X0.7087Y-2.4409
X0.7087Y-2.5394
X0.7087Y-2.6378
X0.7087Y-2.7362
X0.7087Y-2.8346
X0.7087Y-2.9331
X0.7087Y-3.0315
X0.7087Y-3.1299
X0.7087Y-3.2283
X0.7087Y-3.3268
X0.7087Y-3.4252
X0.8268Y-3.1299
X0.8366Y-1.1909
X0.8465Y-1.7717
X0.8465Y-2.6969
X0.8563Y-1.2205
X0.8563Y-1.5256
X0.876Y-1.1909
X0.8858Y-2.1654
X0.8957Y-1.2205
X0.8957Y-1.6535
X0.8957Y-1.7224
X0.8957Y-1.7717
X0.9055Y-1.5256
X0.9154Y-1.1909
X0.9252Y-2.1654
X0.935Y-1.2205
X0.935Y-2.628
X0.9449Y-1.7717
X0.9547Y-1.1909
X0.9547Y-1.5256
X0.9547Y-2.3917
X0.9744Y-1.2205
X0.9744Y-2.3425
X0.9744Y-2.4114
X0.9941Y-1.1909
X0.9941Y-1.6535
X0.9941Y-1.7717
X0.9941Y-2.8051
X1.0039Y-1.5256
X1.0039Y-3.1299
X1.0138Y-1.2205
X1.0138Y-2.126
X1.0138Y-2.6476
X1.0335Y-2.6673
X1.0432Y-3.005
X1.0531Y-2.687
X1.0728Y-1.1909
X1.0728Y-2.4606
X1.0728Y-2.7067
X1.0925Y-1.2205
X1.0925Y-1.5256
X1.0925Y-2.7264
X1.0925Y-2.8543
X1.1122Y-1.1909
X1.1122Y-2.5984
X1.127Y-2.4459
X1.1319Y-1.2205
X1.1417Y-1.5256
X1.1516Y-1.1909
X1.1516Y-2.4311
X1.1614Y-2.4606
X1.1713Y-1.2205
X1.1713Y-2.0768
X1.1713Y-2.6378
X1.1713Y-2.6673
X1.1713Y-2.8839
X1.1713Y-2.9134
X1.1909Y-1.1909
X1.1909Y-1.5256
X1.2026Y-2.2932
X1.2106Y-1.2205
X1.2303Y-1.1909
X1.2303Y-2.3917
X1.2402Y-1.5256
X1.249Y-2.9035
X1.25Y-1.2205
X1.25Y-2.0669
X1.2683Y-2.2918
X1.2697Y-2.5689
X1.2697Y-2.7559
X1.2795Y-2.0965
X1.2894Y-1.9094
X1.2894Y-2.313
X1.2894Y-2.7362
X1.3091Y-1.1909
X1.3091Y-2.3327
X1.3091Y-2.7165
X1.3189Y-1.7717
X1.3287Y-1.2205
X1.3287Y-1.5256
X1.3287Y-2.3524
X1.3287Y-2.6969
X1.3484Y-1.1909
X1.3484Y-2.372
X1.3484Y-2.6772
X1.3484Y-2.7657
X1.3681Y-1.2205
X1.3681Y-1.6535
X1.3681Y-1.7717
X1.3681Y-2.6575
X1.378Y-1.5256
X1.3878Y-1.1909
X1.3878Y-2.6378
X1.4075Y-1.2205
X1.4075Y-2.6181
X1.4075Y-2.8642
X1.4173Y-1.7717
X1.4272Y-1.1909
X1.4272Y-1.5256
X1.4272Y-2.5984
X1.437Y-2.8543
X1.4469Y-1.2205
X1.4469Y-2.5787
X1.4665Y-1.1909
X1.4665Y-1.7717
X1.4689Y-1.6535
X1.4764Y-1.5256
X1.4764Y-1.9488
X1.4764Y-2.2539
X1.4764Y-2.7461
X1.4862Y-1.2205
X1.5453Y-1.1909
X1.5453Y-2.5886
X1.565Y-1.2205
X1.565Y-1.5256
X1.565Y-2.0374
X1.5748Y-2.5394
X1.5846Y-1.1909
X1.6043Y-1.2205
X1.6043Y-1.6535
X1.6097Y-1.7815
X1.6142Y-1.5256
X1.624Y-1.1909
X1.6437Y-1.2205
X1.6535Y-2.8543
X1.6535Y-2.8937
X1.6634Y-1.1909
X1.6634Y-1.5256
X1.6634Y-2.185
X1.6729Y-1.8207
X1.6732Y-1.5846
X1.6831Y-1.2205
X1.6929Y-2.185
X1.7028Y-1.1909
X1.7028Y-1.8012
X1.7126Y-1.5256
X1.7126Y-1.7126
X1.713Y-3.2673
X1.7224Y-1.2205
X1.7224Y-2.8937
X1.7323Y-2.185
X1.7323Y-2.2146
X1.7618Y-1.0925
X1.7618Y-1.1417
X1.7618Y-1.6634
X1.7618Y-1.8701
X1.7913Y-1.0728
X1.7913Y-1.378
X1.7913Y-1.9882
X1.7913Y-2.0276
X1.7913Y-2.0669
X1.7913Y-2.6181
X1.8209Y-1.7717
X1.8406Y-1.0925
X1.8406Y-1.1417
X1.8504Y-1.378
X1.8602Y-2.185
X1.8898Y-1.9488
X1.8898Y-1.9882
X1.9685Y-1.8701
X1.9685Y-2.313
X1.9783Y-2.7953
X1.9882Y-2.2047
X1.9976Y-2.815
X2.0177Y-2.5984
X2.0177Y-2.8346
X2.0571Y-2.126
X2.0768Y-2.5394
X2.126Y-2.2835
X2.1358Y-2.874
X2.1443Y-2.7152
X2.2244Y-2.0177
X2.2638Y-1.2992
X2.2638Y-1.3287
X2.2638Y-2.0177
X2.2638Y-2.4606
X2.4311Y-2.3228
X2.4902Y-2.4606
X2.4902Y-2.5394
X2.5098Y-1.3583
X2.5098Y-1.4075
X2.5098Y-1.4567
X2.5098Y-1.5059
X2.5098Y-2.5197
X2.6575Y-0.6693
X2.6575Y-0.7677
X2.6575Y-0.8661
X2.6575Y-0.9646
X2.6575Y-1.063
X2.6575Y-1.1614
X2.6575Y-1.2598
X2.6575Y-1.3583
X2.6575Y-1.4567
X2.6575Y-1.5551
X2.6575Y-1.6535
X2.6575Y-1.752
X2.6575Y-1.8504
X2.6575Y-1.9488
X2.6575Y-2.0472
X2.6575Y-2.1457
X2.6575Y-2.2441
X2.6575Y-2.3425
X2.6575Y-2.4409
X2.6575Y-2.5394
X2.6575Y-2.6378
X2.6575Y-2.7362
X2.6575Y-2.8346
X2.6575Y-2.9331
X2.6575Y-3.0315
X2.6575Y-3.1299
X2.6575Y-3.2283
X2.6575Y-3.3268
X2.6575Y-3.4252
T2
X2.0079Y-1.4961
X2.0079Y-1.6339
X2.0079Y-1.8307
X2.0079Y-1.9685
T3
X0.9157Y-2.8283
X0.9157Y-2.9283
X0.9157Y-3.0283
T4
X1.2516Y-3.3261
X1.3266Y-3.3261
X1.4016Y-3.3261
X1.6689Y-3.3261
X1.7439Y-3.3261
X1.8189Y-3.3261
X2.0996Y-3.3261
X2.1996Y-3.3261
T5
X1.9685Y-1.0892
X1.9685Y-1.2861
T6
X1.9291Y-0.7677
X1.9291Y-0.8465
X2.0079Y-0.7677
X2.0079Y-0.8465
X2.0866Y-0.7677
X2.0866Y-0.8465
X2.1654Y-0.7677
X2.1654Y-0.8465
X2.2441Y-0.7677
X2.2441Y-0.8465
T7
X0.9157Y-3.2283
X1.0157Y-3.2283
T8
X0.8843Y-0.8071
X0.9843Y-0.8071
X1.1402Y-0.8071
X1.2402Y-0.8071
X1.3872Y-0.8071
X1.4872Y-0.8071
T9
X2.412Y-2.9882
X2.412Y-3.0882
X2.412Y-3.1882
X2.512Y-2.9882
X2.512Y-3.0882
X2.512Y-3.1882
M30
