%TF.GenerationSoftware,KiCad,Pcbnew,8.0.4*%
%TF.CreationDate,2024-10-12T12:23:15-04:00*%
%TF.ProjectId,booster-tc-driver,626f6f73-7465-4722-9d74-632d64726976,rev?*%
%TF.SameCoordinates,Original*%
%TF.FileFunction,Soldermask,Bot*%
%TF.FilePolarity,Negative*%
%FSLAX46Y46*%
G04 Gerber Fmt 4.6, Leading zero omitted, Abs format (unit mm)*
G04 Created by KiCad (PCBNEW 8.0.4) date 2024-10-12 12:23:15*
%MOMM*%
%LPD*%
G01*
G04 APERTURE LIST*
G04 Aperture macros list*
%AMRoundRect*
0 Rectangle with rounded corners*
0 $1 Rounding radius*
0 $2 $3 $4 $5 $6 $7 $8 $9 X,Y pos of 4 corners*
0 Add a 4 corners polygon primitive as box body*
4,1,4,$2,$3,$4,$5,$6,$7,$8,$9,$2,$3,0*
0 Add four circle primitives for the rounded corners*
1,1,$1+$1,$2,$3*
1,1,$1+$1,$4,$5*
1,1,$1+$1,$6,$7*
1,1,$1+$1,$8,$9*
0 Add four rect primitives between the rounded corners*
20,1,$1+$1,$2,$3,$4,$5,0*
20,1,$1+$1,$4,$5,$6,$7,0*
20,1,$1+$1,$6,$7,$8,$9,0*
20,1,$1+$1,$8,$9,$2,$3,0*%
%AMRotRect*
0 Rectangle, with rotation*
0 The origin of the aperture is its center*
0 $1 length*
0 $2 width*
0 $3 Rotation angle, in degrees counterclockwise*
0 Add horizontal line*
21,1,$1,$2,0,0,$3*%
G04 Aperture macros list end*
%ADD10C,0.100000*%
%ADD11C,1.524000*%
%ADD12C,1.400000*%
%ADD13C,2.020000*%
%ADD14R,1.397000X1.397000*%
%ADD15C,1.397000*%
%ADD16R,1.100000X1.100000*%
%ADD17C,1.100000*%
%ADD18RoundRect,0.102000X0.810000X-0.810000X0.810000X0.810000X-0.810000X0.810000X-0.810000X-0.810000X0*%
%ADD19C,1.824000*%
%ADD20RoundRect,0.102000X0.620000X0.620000X-0.620000X0.620000X-0.620000X-0.620000X0.620000X-0.620000X0*%
%ADD21C,1.444000*%
%ADD22R,0.900000X0.950000*%
%ADD23R,0.950000X0.900000*%
%ADD24RoundRect,0.237500X0.237500X-0.250000X0.237500X0.250000X-0.237500X0.250000X-0.237500X-0.250000X0*%
%ADD25R,2.179320X1.620520*%
%ADD26RoundRect,0.237500X0.300000X0.237500X-0.300000X0.237500X-0.300000X-0.237500X0.300000X-0.237500X0*%
%ADD27RoundRect,0.237500X-0.300000X-0.237500X0.300000X-0.237500X0.300000X0.237500X-0.300000X0.237500X0*%
%ADD28RoundRect,0.237500X0.250000X0.237500X-0.250000X0.237500X-0.250000X-0.237500X0.250000X-0.237500X0*%
%ADD29RoundRect,0.237500X-0.250000X-0.237500X0.250000X-0.237500X0.250000X0.237500X-0.250000X0.237500X0*%
%ADD30RoundRect,0.250000X-0.412500X-0.650000X0.412500X-0.650000X0.412500X0.650000X-0.412500X0.650000X0*%
%ADD31RoundRect,0.237500X-0.237500X0.250000X-0.237500X-0.250000X0.237500X-0.250000X0.237500X0.250000X0*%
%ADD32RoundRect,0.237500X0.237500X-0.300000X0.237500X0.300000X-0.237500X0.300000X-0.237500X-0.300000X0*%
%ADD33RoundRect,0.150000X0.150000X-0.587500X0.150000X0.587500X-0.150000X0.587500X-0.150000X-0.587500X0*%
%ADD34RoundRect,0.237500X-0.237500X0.300000X-0.237500X-0.300000X0.237500X-0.300000X0.237500X0.300000X0*%
%ADD35R,1.498600X2.489200*%
%ADD36RoundRect,0.250000X0.300000X-2.050000X0.300000X2.050000X-0.300000X2.050000X-0.300000X-2.050000X0*%
%ADD37RoundRect,0.250002X5.149998X-4.449998X5.149998X4.449998X-5.149998X4.449998X-5.149998X-4.449998X0*%
%ADD38R,0.650000X1.528000*%
%ADD39RoundRect,0.150000X0.150000X-0.825000X0.150000X0.825000X-0.150000X0.825000X-0.150000X-0.825000X0*%
%ADD40R,3.000000X2.290000*%
%ADD41R,1.600000X0.550000*%
%ADD42R,0.700000X1.525000*%
%ADD43RoundRect,0.249999X-1.425001X0.450001X-1.425001X-0.450001X1.425001X-0.450001X1.425001X0.450001X0*%
%ADD44RoundRect,0.250000X-0.450000X-0.800000X0.450000X-0.800000X0.450000X0.800000X-0.450000X0.800000X0*%
%ADD45R,0.950000X2.750000*%
%ADD46R,3.250000X2.750000*%
%ADD47RoundRect,0.250000X-0.800000X0.450000X-0.800000X-0.450000X0.800000X-0.450000X0.800000X0.450000X0*%
%ADD48RoundRect,0.150000X0.587500X0.150000X-0.587500X0.150000X-0.587500X-0.150000X0.587500X-0.150000X0*%
%ADD49R,0.450000X1.200000*%
%ADD50RotRect,0.400000X1.900000X45.000000*%
%ADD51R,2.794000X5.156200*%
%ADD52RoundRect,0.375000X0.625000X0.375000X-0.625000X0.375000X-0.625000X-0.375000X0.625000X-0.375000X0*%
%ADD53RoundRect,0.500000X0.500000X1.400000X-0.500000X1.400000X-0.500000X-1.400000X0.500000X-1.400000X0*%
G04 APERTURE END LIST*
D10*
X16000000Y-16000000D02*
X20000000Y-16000000D01*
X20000000Y-88000000D01*
X16000000Y-88000000D01*
X16000000Y-16000000D01*
G36*
X16000000Y-16000000D02*
G01*
X20000000Y-16000000D01*
X20000000Y-88000000D01*
X16000000Y-88000000D01*
X16000000Y-16000000D01*
G37*
X65300000Y-16000000D02*
X69300000Y-16000000D01*
X69300000Y-88000000D01*
X65300000Y-88000000D01*
X65300000Y-16000000D01*
G36*
X65300000Y-16000000D02*
G01*
X69300000Y-16000000D01*
X69300000Y-88000000D01*
X65300000Y-88000000D01*
X65300000Y-16000000D01*
G37*
D11*
%TO.C,SW1*%
X23260000Y-71840000D03*
X23260000Y-82000000D03*
X25800000Y-82000000D03*
X23260000Y-74380000D03*
X23260000Y-76920000D03*
%TD*%
D12*
%TO.C,U3*%
X31790000Y-84482500D03*
X33695000Y-84482500D03*
X35600000Y-84482500D03*
%TD*%
%TO.C,U2*%
X53330000Y-84482500D03*
X55870000Y-84482500D03*
%TD*%
D13*
%TO.C,J9*%
X28960000Y-20500000D03*
X31500000Y-20500000D03*
%TD*%
D14*
%TO.C,C19*%
X50000000Y-27666750D03*
D15*
X50000000Y-32666750D03*
%TD*%
D16*
%TO.C,C37*%
X51000000Y-46500000D03*
D17*
X51000000Y-50000000D03*
%TD*%
D13*
%TO.C,J3*%
X22460000Y-20500000D03*
X25000000Y-20500000D03*
%TD*%
D16*
%TO.C,C29*%
X51000000Y-41500000D03*
D17*
X51000000Y-38000000D03*
%TD*%
D18*
%TO.C,D11*%
X63804000Y-80980000D03*
D19*
X61264000Y-80980000D03*
X63804000Y-78440000D03*
X61264000Y-78440000D03*
X63804000Y-75900000D03*
X61264000Y-75900000D03*
%TD*%
D12*
%TO.C,U1*%
X42390000Y-84482500D03*
X44295000Y-84482500D03*
X46200000Y-84482500D03*
%TD*%
D20*
%TO.C,J2*%
X57000000Y-19500000D03*
D21*
X57000000Y-21500000D03*
X55000000Y-19500000D03*
X55000000Y-21500000D03*
X53000000Y-19500000D03*
X53000000Y-21500000D03*
X51000000Y-19500000D03*
X51000000Y-21500000D03*
X49000000Y-19500000D03*
X49000000Y-21500000D03*
%TD*%
D13*
%TO.C,J10*%
X35235000Y-20500000D03*
X37775000Y-20500000D03*
%TD*%
D22*
%TO.C,D19*%
X43400000Y-32500000D03*
X40250000Y-32500000D03*
%TD*%
D23*
%TO.C,D9*%
X34250000Y-51825000D03*
X34250000Y-48675000D03*
%TD*%
D24*
%TO.C,R21*%
X22750000Y-80412500D03*
X22750000Y-78587500D03*
%TD*%
%TO.C,R8*%
X37500000Y-84912500D03*
X37500000Y-83087500D03*
%TD*%
D25*
%TO.C,D14*%
X51250000Y-60139260D03*
X51250000Y-64360740D03*
%TD*%
D26*
%TO.C,C36*%
X56612500Y-57750000D03*
X54887500Y-57750000D03*
%TD*%
%TO.C,C12*%
X28612500Y-74250000D03*
X26887500Y-74250000D03*
%TD*%
D27*
%TO.C,C15*%
X45387500Y-26250000D03*
X47112500Y-26250000D03*
%TD*%
D28*
%TO.C,R16*%
X40912500Y-74250000D03*
X39087500Y-74250000D03*
%TD*%
D27*
%TO.C,C9*%
X23637500Y-70250000D03*
X25362500Y-70250000D03*
%TD*%
D29*
%TO.C,R15*%
X39087500Y-72500000D03*
X40912500Y-72500000D03*
%TD*%
D30*
%TO.C,C55*%
X22187500Y-37000000D03*
X25312500Y-37000000D03*
%TD*%
D22*
%TO.C,D17*%
X31325000Y-32500000D03*
X28175000Y-32500000D03*
%TD*%
D31*
%TO.C,R11*%
X37250000Y-53837500D03*
X37250000Y-55662500D03*
%TD*%
D26*
%TO.C,C25*%
X24612500Y-18000000D03*
X22887500Y-18000000D03*
%TD*%
D31*
%TO.C,R2*%
X64250000Y-83587500D03*
X64250000Y-85412500D03*
%TD*%
D27*
%TO.C,C34*%
X51387500Y-57750000D03*
X53112500Y-57750000D03*
%TD*%
D22*
%TO.C,D8*%
X28575000Y-76250000D03*
X25425000Y-76250000D03*
%TD*%
D26*
%TO.C,C43*%
X40862500Y-66750000D03*
X39137500Y-66750000D03*
%TD*%
D29*
%TO.C,R25*%
X22662500Y-34750000D03*
X24487500Y-34750000D03*
%TD*%
D22*
%TO.C,D1*%
X33675000Y-58000000D03*
X36825000Y-58000000D03*
%TD*%
D31*
%TO.C,R10*%
X25250000Y-72337500D03*
X25250000Y-74162500D03*
%TD*%
D26*
%TO.C,C51*%
X40862500Y-70250000D03*
X39137500Y-70250000D03*
%TD*%
D32*
%TO.C,C20*%
X52750000Y-38362500D03*
X52750000Y-36637500D03*
%TD*%
D33*
%TO.C,U6*%
X46700000Y-30250000D03*
X44800000Y-30250000D03*
X45750000Y-28375000D03*
%TD*%
D34*
%TO.C,C26*%
X37500000Y-66887500D03*
X37500000Y-68612500D03*
%TD*%
%TO.C,C11*%
X35000000Y-69250000D03*
X35000000Y-70975000D03*
%TD*%
D24*
%TO.C,R4*%
X40500000Y-84912500D03*
X40500000Y-83087500D03*
%TD*%
D32*
%TO.C,C31*%
X39500000Y-50862500D03*
X39500000Y-49137500D03*
%TD*%
D27*
%TO.C,C18*%
X28887500Y-68750000D03*
X30612500Y-68750000D03*
%TD*%
D23*
%TO.C,D15*%
X21500000Y-70575000D03*
X21500000Y-67425000D03*
%TD*%
D24*
%TO.C,R20*%
X21000000Y-80412500D03*
X21000000Y-78587500D03*
%TD*%
D35*
%TO.C,L4*%
X27750000Y-48000000D03*
X30750000Y-48000000D03*
X30750000Y-54502400D03*
X27750000Y-54502400D03*
%TD*%
D36*
%TO.C,U7*%
X62650000Y-36525000D03*
X60950000Y-36525000D03*
X59250000Y-36525000D03*
D37*
X59250000Y-27375000D03*
D36*
X57550000Y-36525000D03*
X55850000Y-36525000D03*
%TD*%
D23*
%TO.C,D2*%
X21750000Y-53925000D03*
X21750000Y-57075000D03*
%TD*%
D32*
%TO.C,C5*%
X30250000Y-45362500D03*
X30250000Y-43637500D03*
%TD*%
D34*
%TO.C,C46*%
X30500000Y-70387500D03*
X30500000Y-72112500D03*
%TD*%
D38*
%TO.C,IC4*%
X25250000Y-46172000D03*
X23980000Y-46172000D03*
X22710000Y-46172000D03*
X21440000Y-46172000D03*
X21440000Y-40750000D03*
X22710000Y-40750000D03*
X23980000Y-40750000D03*
X25250000Y-40750000D03*
%TD*%
D32*
%TO.C,C39*%
X49500000Y-57612500D03*
X49500000Y-55887500D03*
%TD*%
D39*
%TO.C,U9*%
X45250000Y-53905000D03*
X43980000Y-53905000D03*
X42710000Y-53905000D03*
X41440000Y-53905000D03*
X41440000Y-48955000D03*
X42710000Y-48955000D03*
X43980000Y-48955000D03*
X45250000Y-48955000D03*
D40*
X43345000Y-51430000D03*
%TD*%
D32*
%TO.C,C41*%
X21000000Y-76612500D03*
X21000000Y-74887500D03*
%TD*%
D41*
%TO.C,L2*%
X32750000Y-66300000D03*
X32750000Y-67750000D03*
%TD*%
D31*
%TO.C,R5*%
X24500000Y-78587500D03*
X24500000Y-80412500D03*
%TD*%
D22*
%TO.C,D20*%
X37325000Y-32500000D03*
X34175000Y-32500000D03*
%TD*%
D32*
%TO.C,C38*%
X64250000Y-63362500D03*
X64250000Y-61637500D03*
%TD*%
D23*
%TO.C,D7*%
X28250000Y-81825000D03*
X28250000Y-78675000D03*
%TD*%
D32*
%TO.C,C40*%
X47250000Y-46612500D03*
X47250000Y-44887500D03*
%TD*%
D34*
%TO.C,C14*%
X27000000Y-70137500D03*
X27000000Y-71862500D03*
%TD*%
D31*
%TO.C,R12*%
X64250000Y-72087500D03*
X64250000Y-73912500D03*
%TD*%
D38*
%TO.C,IC5*%
X37310000Y-46172000D03*
X36040000Y-46172000D03*
X34770000Y-46172000D03*
X33500000Y-46172000D03*
X33500000Y-40750000D03*
X34770000Y-40750000D03*
X36040000Y-40750000D03*
X37310000Y-40750000D03*
%TD*%
D34*
%TO.C,C44*%
X28750000Y-70387500D03*
X28750000Y-72112500D03*
%TD*%
D26*
%TO.C,C50*%
X44612500Y-68500000D03*
X42887500Y-68500000D03*
%TD*%
D42*
%TO.C,IC1*%
X53610000Y-67576000D03*
X54880000Y-67576000D03*
X56150000Y-67576000D03*
X57420000Y-67576000D03*
X58690000Y-67576000D03*
X59960000Y-67576000D03*
X61230000Y-67576000D03*
X62500000Y-67576000D03*
X62500000Y-73000000D03*
X61230000Y-73000000D03*
X59960000Y-73000000D03*
X58690000Y-73000000D03*
X57420000Y-73000000D03*
X56150000Y-73000000D03*
X54880000Y-73000000D03*
X53610000Y-73000000D03*
%TD*%
D34*
%TO.C,C35*%
X51250000Y-54137500D03*
X51250000Y-55862500D03*
%TD*%
D23*
%TO.C,D5*%
X24250000Y-48675000D03*
X24250000Y-51825000D03*
%TD*%
D43*
%TO.C,R6*%
X22500000Y-59200000D03*
X22500000Y-65300000D03*
%TD*%
D27*
%TO.C,C47*%
X42887500Y-66750000D03*
X44612500Y-66750000D03*
%TD*%
D26*
%TO.C,C45*%
X40862500Y-68500000D03*
X39137500Y-68500000D03*
%TD*%
%TO.C,C4*%
X34612500Y-86250000D03*
X32887500Y-86250000D03*
%TD*%
D30*
%TO.C,C57*%
X34187500Y-37000000D03*
X37312500Y-37000000D03*
%TD*%
D44*
%TO.C,D16*%
X46800000Y-67750000D03*
X51200000Y-67750000D03*
%TD*%
D31*
%TO.C,R7*%
X28250000Y-57337500D03*
X28250000Y-59162500D03*
%TD*%
D27*
%TO.C,C48*%
X42887500Y-70250000D03*
X44612500Y-70250000D03*
%TD*%
D31*
%TO.C,R3*%
X58250000Y-83587500D03*
X58250000Y-85412500D03*
%TD*%
D24*
%TO.C,R19*%
X39500000Y-47412500D03*
X39500000Y-45587500D03*
%TD*%
D45*
%TO.C,IC2*%
X58950000Y-51800000D03*
X61250000Y-51800000D03*
X63550000Y-51800000D03*
D46*
X61250000Y-57000000D03*
%TD*%
D47*
%TO.C,D12*%
X63500000Y-40800000D03*
X63500000Y-45200000D03*
%TD*%
D48*
%TO.C,Q1*%
X62187500Y-83600000D03*
X62187500Y-85500000D03*
X60312500Y-84550000D03*
%TD*%
D29*
%TO.C,R26*%
X40587500Y-34750000D03*
X42412500Y-34750000D03*
%TD*%
D34*
%TO.C,C53*%
X31750000Y-42637500D03*
X31750000Y-44362500D03*
%TD*%
D32*
%TO.C,C30*%
X49000000Y-54112500D03*
X49000000Y-52387500D03*
%TD*%
D29*
%TO.C,R24*%
X28587500Y-34750000D03*
X30412500Y-34750000D03*
%TD*%
D32*
%TO.C,C49*%
X49000000Y-50362500D03*
X49000000Y-48637500D03*
%TD*%
D34*
%TO.C,C6*%
X26250000Y-78637500D03*
X26250000Y-80362500D03*
%TD*%
D31*
%TO.C,R14*%
X64250000Y-65087500D03*
X64250000Y-66912500D03*
%TD*%
D26*
%TO.C,C17*%
X44612500Y-74250000D03*
X42887500Y-74250000D03*
%TD*%
D23*
%TO.C,D3*%
X21750000Y-48675000D03*
X21750000Y-51825000D03*
%TD*%
D49*
%TO.C,IC3*%
X41512500Y-42250000D03*
X42162500Y-42250000D03*
X42812500Y-42250000D03*
X43462500Y-42250000D03*
X43462500Y-44750000D03*
X42812500Y-44750000D03*
X42162500Y-44750000D03*
X41512500Y-44750000D03*
%TD*%
D25*
%TO.C,D13*%
X54750000Y-55360740D03*
X54750000Y-51139260D03*
%TD*%
D32*
%TO.C,C8*%
X26500000Y-59112500D03*
X26500000Y-57387500D03*
%TD*%
D23*
%TO.C,D6*%
X25750000Y-62925000D03*
X25750000Y-66075000D03*
%TD*%
D50*
%TO.C,U4*%
X29701992Y-64399049D03*
X30550520Y-63550520D03*
X31399049Y-62701992D03*
%TD*%
D26*
%TO.C,C24*%
X47112500Y-34000000D03*
X45387500Y-34000000D03*
%TD*%
D30*
%TO.C,C54*%
X28187500Y-37000000D03*
X31312500Y-37000000D03*
%TD*%
D29*
%TO.C,R17*%
X45337500Y-32250000D03*
X47162500Y-32250000D03*
%TD*%
D23*
%TO.C,D4*%
X24250000Y-53925000D03*
X24250000Y-57075000D03*
%TD*%
D32*
%TO.C,C7*%
X28500000Y-45362500D03*
X28500000Y-43637500D03*
%TD*%
%TO.C,C28*%
X63500000Y-48862500D03*
X63500000Y-47137500D03*
%TD*%
%TO.C,C27*%
X52750000Y-31112500D03*
X52750000Y-29387500D03*
%TD*%
D22*
%TO.C,D18*%
X25325000Y-32500000D03*
X22175000Y-32500000D03*
%TD*%
D29*
%TO.C,R27*%
X34587500Y-34750000D03*
X36412500Y-34750000D03*
%TD*%
D32*
%TO.C,C22*%
X52750000Y-27612500D03*
X52750000Y-25887500D03*
%TD*%
D31*
%TO.C,R18*%
X39500000Y-52587500D03*
X39500000Y-54412500D03*
%TD*%
%TO.C,R13*%
X64250000Y-68587500D03*
X64250000Y-70412500D03*
%TD*%
D29*
%TO.C,R22*%
X41500000Y-46750000D03*
X43325000Y-46750000D03*
%TD*%
D34*
%TO.C,C3*%
X33250000Y-70637500D03*
X33250000Y-72362500D03*
%TD*%
D24*
%TO.C,R23*%
X47250000Y-50412500D03*
X47250000Y-48587500D03*
%TD*%
D29*
%TO.C,R9*%
X30837500Y-74000000D03*
X32662500Y-74000000D03*
%TD*%
D27*
%TO.C,C10*%
X23637500Y-68500000D03*
X25362500Y-68500000D03*
%TD*%
D30*
%TO.C,C56*%
X40187500Y-37000000D03*
X43312500Y-37000000D03*
%TD*%
D34*
%TO.C,C23*%
X52750000Y-33000000D03*
X52750000Y-34725000D03*
%TD*%
D32*
%TO.C,C21*%
X31750000Y-59112500D03*
X31750000Y-57387500D03*
%TD*%
D26*
%TO.C,C1*%
X45112500Y-86250000D03*
X43387500Y-86250000D03*
%TD*%
D32*
%TO.C,C32*%
X45250000Y-46612500D03*
X45250000Y-44887500D03*
%TD*%
%TO.C,C2*%
X30000000Y-59112500D03*
X30000000Y-57387500D03*
%TD*%
D27*
%TO.C,C16*%
X42887500Y-72500000D03*
X44612500Y-72500000D03*
%TD*%
%TO.C,C33*%
X41550000Y-40250000D03*
X43275000Y-40250000D03*
%TD*%
D34*
%TO.C,C52*%
X27000000Y-42637500D03*
X27000000Y-44362500D03*
%TD*%
D32*
%TO.C,C42*%
X47250000Y-54112500D03*
X47250000Y-52387500D03*
%TD*%
D51*
%TO.C,L1*%
X60052000Y-44500000D03*
X53448000Y-44500000D03*
%TD*%
%TO.C,L3*%
X46552000Y-60500000D03*
X39948000Y-60500000D03*
%TD*%
D23*
%TO.C,D10*%
X36750000Y-48675000D03*
X36750000Y-51825000D03*
%TD*%
D52*
%TO.C,U8*%
X61650000Y-60200000D03*
X61650000Y-62500000D03*
D53*
X55350000Y-62500000D03*
D52*
X61650000Y-64800000D03*
%TD*%
D28*
%TO.C,R1*%
X35412500Y-55750000D03*
X33587500Y-55750000D03*
%TD*%
M02*
