%TF.GenerationSoftware,KiCad,Pcbnew,8.0.1*%
%TF.CreationDate,2024-06-30T23:47:39-04:00*%
%TF.ProjectId,booster-tc,626f6f73-7465-4722-9d74-632e6b696361,rev?*%
%TF.SameCoordinates,Original*%
%TF.FileFunction,Copper,L2,Bot*%
%TF.FilePolarity,Positive*%
%FSLAX46Y46*%
G04 Gerber Fmt 4.6, Leading zero omitted, Abs format (unit mm)*
G04 Created by KiCad (PCBNEW 8.0.1) date 2024-06-30 23:47:39*
%MOMM*%
%LPD*%
G01*
G04 APERTURE LIST*
%TA.AperFunction,ComponentPad*%
%ADD10R,4.500000X2.500000*%
%TD*%
%TA.AperFunction,ComponentPad*%
%ADD11O,4.500000X2.500000*%
%TD*%
%TA.AperFunction,ComponentPad*%
%ADD12R,1.500000X1.500000*%
%TD*%
%TA.AperFunction,ComponentPad*%
%ADD13C,1.500000*%
%TD*%
%TA.AperFunction,ComponentPad*%
%ADD14R,1.100000X1.100000*%
%TD*%
%TA.AperFunction,ComponentPad*%
%ADD15C,1.100000*%
%TD*%
%TA.AperFunction,ComponentPad*%
%ADD16C,2.300000*%
%TD*%
%TA.AperFunction,ComponentPad*%
%ADD17C,1.612000*%
%TD*%
%TA.AperFunction,ComponentPad*%
%ADD18C,0.500000*%
%TD*%
%TA.AperFunction,ComponentPad*%
%ADD19R,6.000000X9.000000*%
%TD*%
%TA.AperFunction,ComponentPad*%
%ADD20R,1.240000X1.240000*%
%TD*%
%TA.AperFunction,ComponentPad*%
%ADD21C,1.240000*%
%TD*%
%TA.AperFunction,ViaPad*%
%ADD22C,0.600000*%
%TD*%
%TA.AperFunction,Conductor*%
%ADD23C,0.400000*%
%TD*%
%TA.AperFunction,Conductor*%
%ADD24C,0.200000*%
%TD*%
G04 APERTURE END LIST*
D10*
%TO.P,D5,1,A*%
%TO.N,Net-(Q1-C)*%
X152890000Y-124450000D03*
D11*
%TO.P,D5,2,K*%
%TO.N,/Vout+*%
X152890000Y-119000000D03*
%TO.P,D5,3,A*%
%TO.N,Net-(Q1-C)*%
X152890000Y-113550000D03*
%TD*%
D12*
%TO.P,C12,1*%
%TO.N,/Vout+*%
X150825000Y-130500000D03*
D13*
%TO.P,C12,2*%
%TO.N,/Vout-*%
X135825000Y-130500000D03*
%TD*%
D14*
%TO.P,C1,1,+*%
%TO.N,+5V*%
X136250000Y-109000000D03*
D15*
%TO.P,C1,2,-*%
%TO.N,GND*%
X139750000Y-109000000D03*
%TD*%
D16*
%TO.P,J6,1,1*%
%TO.N,/L+*%
X166000000Y-80500000D03*
%TO.P,J6,2,2*%
X166000000Y-83040000D03*
%TO.P,J6,3,3*%
X166000000Y-85580000D03*
%TO.P,J6,4,4*%
X171080000Y-85580000D03*
%TO.P,J6,5,5*%
X171080000Y-83040000D03*
%TO.P,J6,6,6*%
X171080000Y-80500000D03*
%TD*%
D10*
%TO.P,D4,1,K*%
%TO.N,/L+*%
X152890000Y-86450000D03*
D11*
%TO.P,D4,2,A*%
%TO.N,/AC2*%
X152890000Y-81000000D03*
%TO.P,D4,3,G*%
%TO.N,Net-(D4-G)*%
X152890000Y-75550000D03*
%TD*%
D10*
%TO.P,D2,1,K*%
%TO.N,/AC2*%
X183610000Y-75550000D03*
D11*
%TO.P,D2,2,A*%
%TO.N,/Vout-*%
X183610000Y-86450000D03*
%TD*%
D17*
%TO.P,PS1,1,+VIN*%
%TO.N,+24V*%
X208000000Y-92260000D03*
%TO.P,PS1,2,-VIN*%
%TO.N,GND*%
X208000000Y-94800000D03*
%TO.P,PS1,5,-VOUT*%
%TO.N,Net-(C6--)*%
X208000000Y-102420000D03*
%TO.P,PS1,6,OV*%
%TO.N,/Vout-*%
X208000000Y-104960000D03*
%TO.P,PS1,7,+VOUT*%
%TO.N,Net-(C6-+)*%
X208000000Y-107500000D03*
%TD*%
D16*
%TO.P,J5,1,1*%
%TO.N,/Vout-*%
X173500000Y-124500000D03*
%TO.P,J5,2,2*%
X173500000Y-127040000D03*
%TO.P,J5,3,3*%
X173500000Y-129580000D03*
%TO.P,J5,4,4*%
X178580000Y-129580000D03*
%TO.P,J5,5,5*%
X178580000Y-127040000D03*
%TO.P,J5,6,6*%
X178580000Y-124500000D03*
%TD*%
D10*
%TO.P,D1,1,K*%
%TO.N,/AC1*%
X183610000Y-56550000D03*
D11*
%TO.P,D1,2,A*%
%TO.N,/Vout-*%
X183610000Y-67450000D03*
%TD*%
D14*
%TO.P,C2,1,+*%
%TO.N,Net-(C2-+)*%
X133250000Y-71500000D03*
D15*
%TO.P,C2,2,-*%
%TO.N,GND*%
X136750000Y-71500000D03*
%TD*%
D16*
%TO.P,J7,1,1*%
%TO.N,/Vout+*%
X160920000Y-119000000D03*
%TO.P,J7,2,2*%
X160920000Y-121540000D03*
%TO.P,J7,3,3*%
X160920000Y-124080000D03*
%TO.P,J7,4,4*%
X166000000Y-124080000D03*
%TO.P,J7,5,5*%
X166000000Y-121540000D03*
%TO.P,J7,6,6*%
X166000000Y-119000000D03*
%TD*%
D12*
%TO.P,C10,1*%
%TO.N,/Vout+*%
X154175000Y-130500000D03*
D13*
%TO.P,C10,2*%
%TO.N,/Vout-*%
X169175000Y-130500000D03*
%TD*%
D14*
%TO.P,C6,1,+*%
%TO.N,Net-(C6-+)*%
X194750000Y-106250000D03*
D15*
%TO.P,C6,2,-*%
%TO.N,Net-(C6--)*%
X198250000Y-106250000D03*
%TD*%
D12*
%TO.P,U1,1,VCC*%
%TO.N,+5V*%
X191325000Y-101910000D03*
D13*
%TO.P,U1,2,GND*%
%TO.N,GND*%
X191325000Y-100000000D03*
%TO.P,U1,3,VIOUT*%
%TO.N,/I_L*%
X191325000Y-98090000D03*
D18*
%TO.P,U1,4,IP+*%
%TO.N,/L-*%
X169925000Y-98750000D03*
X167925000Y-97600000D03*
X171925000Y-97600000D03*
X167925000Y-96300000D03*
X171925000Y-96300000D03*
X167925000Y-95000000D03*
D19*
X169925000Y-95000000D03*
D18*
X171925000Y-95000000D03*
X167925000Y-93700000D03*
X171925000Y-93700000D03*
X167925000Y-92400000D03*
X171925000Y-92400000D03*
X169925000Y-91250000D03*
%TO.P,U1,5,IP-*%
%TO.N,Net-(Q1-C)*%
X169925000Y-108750000D03*
X167925000Y-107600000D03*
X171925000Y-107600000D03*
X167925000Y-106300000D03*
X171925000Y-106300000D03*
X167925000Y-105000000D03*
D19*
X169925000Y-105000000D03*
D18*
X171925000Y-105000000D03*
X167925000Y-103700000D03*
X171925000Y-103700000D03*
X167925000Y-102400000D03*
X171925000Y-102400000D03*
X169925000Y-101250000D03*
%TD*%
D10*
%TO.P,Q1,1,G*%
%TO.N,Net-(Q1-G)*%
X183610000Y-113550000D03*
D11*
%TO.P,Q1,2,C*%
%TO.N,Net-(Q1-C)*%
X183610000Y-119000000D03*
%TO.P,Q1,3,E*%
%TO.N,/Vout-*%
X183610000Y-124450000D03*
%TD*%
D16*
%TO.P,J8,1,1*%
%TO.N,/L-*%
X157960000Y-92460000D03*
%TO.P,J8,2,2*%
X157960000Y-95000000D03*
%TO.P,J8,3,3*%
X157960000Y-97540000D03*
%TO.P,J8,4,4*%
X163040000Y-97540000D03*
%TO.P,J8,5,5*%
X163040000Y-95000000D03*
%TO.P,J8,6,6*%
X163040000Y-92460000D03*
%TD*%
%TO.P,J1,1,1*%
%TO.N,/AC2*%
X166000000Y-69500000D03*
%TO.P,J1,2,2*%
X166000000Y-72040000D03*
%TO.P,J1,3,3*%
X166000000Y-74580000D03*
%TO.P,J1,4,4*%
X171080000Y-74580000D03*
%TO.P,J1,5,5*%
X171080000Y-72040000D03*
%TO.P,J1,6,6*%
X171080000Y-69500000D03*
%TD*%
D10*
%TO.P,D3,1,K*%
%TO.N,/L+*%
X152890000Y-67450000D03*
D11*
%TO.P,D3,2,A*%
%TO.N,/AC1*%
X152890000Y-62000000D03*
%TO.P,D3,3,G*%
%TO.N,Net-(D3-G)*%
X152890000Y-56550000D03*
%TD*%
D12*
%TO.P,C9,1*%
%TO.N,/L+*%
X191175000Y-71500000D03*
D13*
%TO.P,C9,2*%
%TO.N,/Vout-*%
X206175000Y-71500000D03*
%TD*%
D16*
%TO.P,J9,1,1*%
%TO.N,/AC1*%
X166000000Y-56500000D03*
%TO.P,J9,2,2*%
X166000000Y-59040000D03*
%TO.P,J9,3,3*%
X166000000Y-61580000D03*
%TO.P,J9,4,4*%
X171080000Y-61580000D03*
%TO.P,J9,5,5*%
X171080000Y-59040000D03*
%TO.P,J9,6,6*%
X171080000Y-56500000D03*
%TD*%
D14*
%TO.P,C8,1,+*%
%TO.N,GND*%
X149000000Y-95750000D03*
D15*
%TO.P,C8,2,-*%
%TO.N,-5V*%
X149000000Y-92250000D03*
%TD*%
D20*
%TO.P,J11,01,01*%
%TO.N,/I_L*%
X200000000Y-131500000D03*
D21*
%TO.P,J11,02,02*%
%TO.N,+24V*%
X200000000Y-133500000D03*
%TO.P,J11,03,03*%
%TO.N,GND*%
X198000000Y-131500000D03*
%TO.P,J11,04,04*%
%TO.N,/PFC*%
X198000000Y-133500000D03*
%TO.P,J11,05,05*%
%TO.N,GND*%
X196000000Y-131500000D03*
%TO.P,J11,06,06*%
%TO.N,/SCR*%
X196000000Y-133500000D03*
%TO.P,J11,07,07*%
%TO.N,GND*%
X194000000Y-131500000D03*
%TO.P,J11,08,08*%
%TO.N,/VBUS_SENSE*%
X194000000Y-133500000D03*
%TO.P,J11,09,09*%
%TO.N,+5V*%
X192000000Y-131500000D03*
%TO.P,J11,10,10*%
%TO.N,/VAC_SENSE*%
X192000000Y-133500000D03*
%TD*%
D22*
%TO.N,GND*%
X145000000Y-97000000D03*
X145500000Y-91000000D03*
X128500000Y-69500000D03*
X130000000Y-87000000D03*
X141000000Y-81500000D03*
X145000000Y-96000000D03*
X135000000Y-105000000D03*
X199500000Y-110000000D03*
X136500000Y-96000000D03*
%TO.N,+5V*%
X133500000Y-99500000D03*
X133500000Y-103500000D03*
X132500000Y-96000000D03*
X191500000Y-117000000D03*
%TO.N,/AC1*%
X136500000Y-84000000D03*
%TO.N,/VAC_SENSE*%
X129500000Y-94000000D03*
X129500000Y-104500000D03*
%TO.N,/SCR*%
X126500000Y-105500000D03*
X128000000Y-80000000D03*
%TO.N,/I_L*%
X192500000Y-118000000D03*
%TD*%
D23*
%TO.N,GND*%
X134500000Y-83500000D02*
X136750000Y-81250000D01*
X135150000Y-71500000D02*
X136750000Y-71500000D01*
X133150000Y-69500000D02*
X135150000Y-71500000D01*
X141000000Y-81500000D02*
X141000000Y-84500000D01*
X128500000Y-69500000D02*
X133150000Y-69500000D01*
X136750000Y-81250000D02*
X136750000Y-71500000D01*
%TO.N,+5V*%
X191325000Y-101910000D02*
X191325000Y-116825000D01*
X133500000Y-97000000D02*
X132500000Y-96000000D01*
X133500000Y-99500000D02*
X133500000Y-103500000D01*
X133500000Y-99500000D02*
X133500000Y-97000000D01*
X191325000Y-117175000D02*
X191325000Y-130825000D01*
X191325000Y-116825000D02*
X191500000Y-117000000D01*
X191500000Y-117000000D02*
X191325000Y-117175000D01*
X191325000Y-130825000D02*
X192000000Y-131500000D01*
%TO.N,/AC1*%
X139500000Y-71000000D02*
X139500000Y-71500000D01*
X148500000Y-62000000D02*
X139500000Y-71000000D01*
X139500000Y-71500000D02*
X139500000Y-81000000D01*
X152890000Y-62000000D02*
X148500000Y-62000000D01*
X139500000Y-81000000D02*
X136500000Y-84000000D01*
D24*
%TO.N,/Vout-*%
X210400000Y-102560000D02*
X210400000Y-88400000D01*
X208450000Y-86450000D02*
X183610000Y-86450000D01*
X210400000Y-88400000D02*
X208450000Y-86450000D01*
X208000000Y-104960000D02*
X210400000Y-102560000D01*
D23*
%TO.N,/VAC_SENSE*%
X129500000Y-94000000D02*
X129500000Y-104500000D01*
%TO.N,/SCR*%
X126500000Y-85500000D02*
X126500000Y-105500000D01*
X128000000Y-80000000D02*
X127000000Y-81000000D01*
X127000000Y-85000000D02*
X126500000Y-85500000D01*
X127000000Y-81000000D02*
X127000000Y-85000000D01*
%TO.N,/I_L*%
X192475000Y-99240000D02*
X192500000Y-118000000D01*
X192500000Y-118000000D02*
X192475000Y-117975000D01*
X191325000Y-98090000D02*
X192475000Y-99240000D01*
%TD*%
%TA.AperFunction,Conductor*%
%TO.N,/Vout+*%
G36*
X168000000Y-129148178D02*
G01*
X167980315Y-129215217D01*
X167960341Y-129239077D01*
X167888198Y-129306014D01*
X167724614Y-129511143D01*
X167593432Y-129738356D01*
X167497582Y-129982578D01*
X167497576Y-129982597D01*
X167439197Y-130238374D01*
X167439196Y-130238379D01*
X167419592Y-130499995D01*
X167419592Y-130500004D01*
X167439196Y-130761620D01*
X167439197Y-130761625D01*
X167497576Y-131017402D01*
X167497582Y-131017421D01*
X167593432Y-131261643D01*
X167623660Y-131314000D01*
X167640133Y-131381900D01*
X167617280Y-131447927D01*
X167562359Y-131491118D01*
X167516273Y-131500000D01*
X150124000Y-131500000D01*
X150056961Y-131480315D01*
X150011206Y-131427511D01*
X150000000Y-131376000D01*
X150000000Y-128624000D01*
X150019685Y-128556961D01*
X150072489Y-128511206D01*
X150124000Y-128500000D01*
X159000000Y-128500000D01*
X159000000Y-126000000D01*
X168000000Y-126000000D01*
X168000000Y-129148178D01*
G37*
%TD.AperFunction*%
%TD*%
%TA.AperFunction,Conductor*%
%TO.N,/Vout+*%
G36*
X167943039Y-117019685D02*
G01*
X167988794Y-117072489D01*
X168000000Y-117124000D01*
X168000000Y-126000000D01*
X159000000Y-126000000D01*
X159000000Y-121000000D01*
X150124000Y-121000000D01*
X150056961Y-120980315D01*
X150011206Y-120927511D01*
X150000000Y-120876000D01*
X150000000Y-117124000D01*
X150019685Y-117056961D01*
X150072489Y-117011206D01*
X150124000Y-117000000D01*
X167876000Y-117000000D01*
X167943039Y-117019685D01*
G37*
%TD.AperFunction*%
%TD*%
%TA.AperFunction,Conductor*%
%TO.N,GND*%
G36*
X209742539Y-89019685D02*
G01*
X209788294Y-89072489D01*
X209799500Y-89124000D01*
X209799500Y-102259901D01*
X209779815Y-102326940D01*
X209763181Y-102347582D01*
X209516029Y-102594733D01*
X209454706Y-102628218D01*
X209385014Y-102623234D01*
X209329081Y-102581362D01*
X209304664Y-102515898D01*
X209304819Y-102496252D01*
X209311491Y-102420000D01*
X209291567Y-102192262D01*
X209232398Y-101971444D01*
X209135785Y-101764255D01*
X209004660Y-101576990D01*
X208843010Y-101415340D01*
X208843008Y-101415338D01*
X208843003Y-101415334D01*
X208655752Y-101284219D01*
X208655749Y-101284217D01*
X208655746Y-101284215D01*
X208655742Y-101284213D01*
X208448561Y-101187604D01*
X208448559Y-101187603D01*
X208448556Y-101187602D01*
X208291487Y-101145514D01*
X208227739Y-101128433D01*
X208227732Y-101128432D01*
X208000002Y-101108509D01*
X207999998Y-101108509D01*
X207772267Y-101128432D01*
X207772260Y-101128433D01*
X207644763Y-101162596D01*
X207551444Y-101187602D01*
X207551442Y-101187602D01*
X207551438Y-101187604D01*
X207344258Y-101284213D01*
X207344248Y-101284219D01*
X207156989Y-101415340D01*
X206995340Y-101576989D01*
X206864219Y-101764248D01*
X206864213Y-101764258D01*
X206767604Y-101971438D01*
X206708433Y-102192260D01*
X206708432Y-102192267D01*
X206688509Y-102419997D01*
X206688509Y-102420002D01*
X206703795Y-102594733D01*
X206708433Y-102647738D01*
X206767602Y-102868556D01*
X206767603Y-102868559D01*
X206767604Y-102868561D01*
X206864213Y-103075742D01*
X206864219Y-103075752D01*
X206995334Y-103263003D01*
X206995343Y-103263013D01*
X207156986Y-103424656D01*
X207156996Y-103424665D01*
X207295169Y-103521415D01*
X207344254Y-103555785D01*
X207371008Y-103568260D01*
X207391075Y-103577618D01*
X207443515Y-103623790D01*
X207462667Y-103690983D01*
X207442451Y-103757865D01*
X207391076Y-103802382D01*
X207344255Y-103824215D01*
X207344248Y-103824219D01*
X207156989Y-103955340D01*
X206995340Y-104116989D01*
X206864219Y-104304248D01*
X206864213Y-104304258D01*
X206767604Y-104511438D01*
X206708433Y-104732260D01*
X206708432Y-104732267D01*
X206688509Y-104959997D01*
X206688509Y-104960002D01*
X206708432Y-105187732D01*
X206708433Y-105187739D01*
X206725514Y-105251487D01*
X206767602Y-105408556D01*
X206767603Y-105408559D01*
X206767604Y-105408561D01*
X206864213Y-105615742D01*
X206864219Y-105615752D01*
X206995334Y-105803003D01*
X206995343Y-105803013D01*
X207156986Y-105964656D01*
X207156996Y-105964665D01*
X207323690Y-106081385D01*
X207344254Y-106095785D01*
X207371008Y-106108260D01*
X207391075Y-106117618D01*
X207443515Y-106163790D01*
X207462667Y-106230983D01*
X207442451Y-106297865D01*
X207391076Y-106342382D01*
X207344255Y-106364215D01*
X207344248Y-106364219D01*
X207156989Y-106495340D01*
X206995340Y-106656989D01*
X206864219Y-106844248D01*
X206864213Y-106844258D01*
X206767604Y-107051438D01*
X206708433Y-107272260D01*
X206708432Y-107272267D01*
X206688509Y-107499997D01*
X206688509Y-107500000D01*
X206708433Y-107727738D01*
X206767602Y-107948556D01*
X206767603Y-107948559D01*
X206767604Y-107948561D01*
X206864213Y-108155742D01*
X206864219Y-108155752D01*
X206995334Y-108343003D01*
X206995343Y-108343013D01*
X207156986Y-108504656D01*
X207156996Y-108504665D01*
X207323690Y-108621385D01*
X207344254Y-108635785D01*
X207551444Y-108732398D01*
X207772262Y-108791567D01*
X207934932Y-108805798D01*
X207999998Y-108811491D01*
X208000000Y-108811491D01*
X208000002Y-108811491D01*
X208056934Y-108806510D01*
X208227738Y-108791567D01*
X208448556Y-108732398D01*
X208655746Y-108635785D01*
X208843010Y-108504660D01*
X209004660Y-108343010D01*
X209135785Y-108155746D01*
X209232398Y-107948556D01*
X209291567Y-107727738D01*
X209311491Y-107500000D01*
X209291567Y-107272262D01*
X209232398Y-107051444D01*
X209135785Y-106844255D01*
X209004660Y-106656990D01*
X208843010Y-106495340D01*
X208843008Y-106495338D01*
X208843003Y-106495334D01*
X208655752Y-106364219D01*
X208655751Y-106364218D01*
X208655748Y-106364217D01*
X208655746Y-106364215D01*
X208608921Y-106342380D01*
X208556485Y-106296211D01*
X208537332Y-106229018D01*
X208557547Y-106162136D01*
X208608921Y-106117619D01*
X208655746Y-106095785D01*
X208843010Y-105964660D01*
X209004660Y-105803010D01*
X209135785Y-105615746D01*
X209232398Y-105408556D01*
X209291567Y-105187738D01*
X209311491Y-104960000D01*
X209291567Y-104732262D01*
X209264746Y-104632166D01*
X209266409Y-104562318D01*
X209296838Y-104512395D01*
X210287820Y-103521414D01*
X210349142Y-103487930D01*
X210418834Y-103492914D01*
X210474767Y-103534786D01*
X210499184Y-103600250D01*
X210499500Y-103609096D01*
X210499500Y-136495572D01*
X210499184Y-136504419D01*
X210484869Y-136704557D01*
X210482351Y-136722068D01*
X210440646Y-136913787D01*
X210435662Y-136930763D01*
X210367090Y-137114609D01*
X210359740Y-137130701D01*
X210265711Y-137302904D01*
X210256146Y-137317789D01*
X210138558Y-137474867D01*
X210126972Y-137488237D01*
X209988237Y-137626972D01*
X209974867Y-137638558D01*
X209817789Y-137756146D01*
X209802904Y-137765711D01*
X209630701Y-137859740D01*
X209614609Y-137867090D01*
X209430763Y-137935662D01*
X209413787Y-137940646D01*
X209222068Y-137982351D01*
X209204557Y-137984869D01*
X209023779Y-137997799D01*
X209004417Y-137999184D01*
X208995572Y-137999500D01*
X183500000Y-137999500D01*
X183500000Y-129624000D01*
X183519685Y-129556961D01*
X183572489Y-129511206D01*
X183624000Y-129500000D01*
X189500000Y-129500000D01*
X189500000Y-98090002D01*
X190069723Y-98090002D01*
X190088793Y-98307975D01*
X190088793Y-98307979D01*
X190145422Y-98519322D01*
X190145424Y-98519326D01*
X190145425Y-98519330D01*
X190191661Y-98618484D01*
X190237897Y-98717638D01*
X190262998Y-98753486D01*
X190363402Y-98896877D01*
X190518123Y-99051598D01*
X190697361Y-99177102D01*
X190895670Y-99269575D01*
X191107023Y-99326207D01*
X191289926Y-99342208D01*
X191324998Y-99345277D01*
X191325000Y-99345277D01*
X191325002Y-99345277D01*
X191419058Y-99337048D01*
X191510730Y-99329028D01*
X191579230Y-99342795D01*
X191609218Y-99364875D01*
X191738635Y-99494292D01*
X191772120Y-99555615D01*
X191774954Y-99581808D01*
X191776225Y-100535335D01*
X191756630Y-100602400D01*
X191703887Y-100648226D01*
X191652225Y-100659500D01*
X190527129Y-100659500D01*
X190527123Y-100659501D01*
X190467516Y-100665908D01*
X190332671Y-100716202D01*
X190332664Y-100716206D01*
X190217455Y-100802452D01*
X190217452Y-100802455D01*
X190131206Y-100917664D01*
X190131202Y-100917671D01*
X190080908Y-101052517D01*
X190074501Y-101112116D01*
X190074500Y-101112135D01*
X190074500Y-102707870D01*
X190074501Y-102707876D01*
X190080908Y-102767483D01*
X190131202Y-102902328D01*
X190131206Y-102902335D01*
X190217452Y-103017544D01*
X190217455Y-103017547D01*
X190332664Y-103103793D01*
X190332671Y-103103797D01*
X190467516Y-103154091D01*
X190513757Y-103159063D01*
X190578307Y-103185801D01*
X190618155Y-103243194D01*
X190624500Y-103282352D01*
X190624500Y-116756006D01*
X190624500Y-116893994D01*
X190624500Y-116893996D01*
X190624499Y-116893996D01*
X190640774Y-116975808D01*
X190640777Y-117024177D01*
X190639753Y-117029328D01*
X190624500Y-117106007D01*
X190624500Y-130756006D01*
X190624500Y-130893994D01*
X190624500Y-130893996D01*
X190624499Y-130893996D01*
X190651418Y-131029322D01*
X190651421Y-131029332D01*
X190704222Y-131156807D01*
X190704225Y-131156811D01*
X190780886Y-131271543D01*
X190844958Y-131335615D01*
X190878442Y-131396936D01*
X190880747Y-131434735D01*
X190874700Y-131499997D01*
X190874700Y-131500000D01*
X190893859Y-131706772D01*
X190950688Y-131906502D01*
X190950693Y-131906515D01*
X191043252Y-132092397D01*
X191168390Y-132258107D01*
X191168392Y-132258110D01*
X191321853Y-132398008D01*
X191325880Y-132401049D01*
X191367514Y-132457160D01*
X191372202Y-132526872D01*
X191338457Y-132588053D01*
X191325880Y-132598951D01*
X191321853Y-132601991D01*
X191168392Y-132741889D01*
X191168390Y-132741892D01*
X191043252Y-132907602D01*
X190950693Y-133093484D01*
X190950688Y-133093497D01*
X190893859Y-133293227D01*
X190874700Y-133499999D01*
X190874700Y-133500000D01*
X190893859Y-133706772D01*
X190950688Y-133906502D01*
X190950693Y-133906515D01*
X191043252Y-134092397D01*
X191168390Y-134258107D01*
X191168392Y-134258110D01*
X191321850Y-134398005D01*
X191321852Y-134398006D01*
X191321855Y-134398009D01*
X191421609Y-134459774D01*
X191498407Y-134507325D01*
X191498409Y-134507326D01*
X191498411Y-134507327D01*
X191692047Y-134582342D01*
X191896170Y-134620500D01*
X191896172Y-134620500D01*
X192103828Y-134620500D01*
X192103830Y-134620500D01*
X192307953Y-134582342D01*
X192501589Y-134507327D01*
X192678145Y-134398009D01*
X192831607Y-134258110D01*
X192901047Y-134166155D01*
X192957154Y-134124521D01*
X193026866Y-134119828D01*
X193088048Y-134153570D01*
X193098945Y-134166146D01*
X193147367Y-134230267D01*
X193168394Y-134258112D01*
X193321850Y-134398005D01*
X193321852Y-134398006D01*
X193321855Y-134398009D01*
X193421609Y-134459774D01*
X193498407Y-134507325D01*
X193498409Y-134507326D01*
X193498411Y-134507327D01*
X193692047Y-134582342D01*
X193896170Y-134620500D01*
X193896172Y-134620500D01*
X194103828Y-134620500D01*
X194103830Y-134620500D01*
X194307953Y-134582342D01*
X194501589Y-134507327D01*
X194678145Y-134398009D01*
X194831607Y-134258110D01*
X194901047Y-134166155D01*
X194957154Y-134124521D01*
X195026866Y-134119828D01*
X195088048Y-134153570D01*
X195098945Y-134166146D01*
X195147367Y-134230267D01*
X195168394Y-134258112D01*
X195321850Y-134398005D01*
X195321852Y-134398006D01*
X195321855Y-134398009D01*
X195421609Y-134459774D01*
X195498407Y-134507325D01*
X195498409Y-134507326D01*
X195498411Y-134507327D01*
X195692047Y-134582342D01*
X195896170Y-134620500D01*
X195896172Y-134620500D01*
X196103828Y-134620500D01*
X196103830Y-134620500D01*
X196307953Y-134582342D01*
X196501589Y-134507327D01*
X196678145Y-134398009D01*
X196831607Y-134258110D01*
X196901047Y-134166155D01*
X196957154Y-134124521D01*
X197026866Y-134119828D01*
X197088048Y-134153570D01*
X197098945Y-134166146D01*
X197147367Y-134230267D01*
X197168394Y-134258112D01*
X197321850Y-134398005D01*
X197321852Y-134398006D01*
X197321855Y-134398009D01*
X197421609Y-134459774D01*
X197498407Y-134507325D01*
X197498409Y-134507326D01*
X197498411Y-134507327D01*
X197692047Y-134582342D01*
X197896170Y-134620500D01*
X197896172Y-134620500D01*
X198103828Y-134620500D01*
X198103830Y-134620500D01*
X198307953Y-134582342D01*
X198501589Y-134507327D01*
X198678145Y-134398009D01*
X198831607Y-134258110D01*
X198901047Y-134166155D01*
X198957154Y-134124521D01*
X199026866Y-134119828D01*
X199088048Y-134153570D01*
X199098945Y-134166146D01*
X199147367Y-134230267D01*
X199168394Y-134258112D01*
X199321850Y-134398005D01*
X199321852Y-134398006D01*
X199321855Y-134398009D01*
X199421609Y-134459774D01*
X199498407Y-134507325D01*
X199498409Y-134507326D01*
X199498411Y-134507327D01*
X199692047Y-134582342D01*
X199896170Y-134620500D01*
X199896172Y-134620500D01*
X200103828Y-134620500D01*
X200103830Y-134620500D01*
X200307953Y-134582342D01*
X200501589Y-134507327D01*
X200678145Y-134398009D01*
X200831607Y-134258110D01*
X200956749Y-134092394D01*
X201049311Y-133906505D01*
X201106140Y-133706773D01*
X201125300Y-133500000D01*
X201106140Y-133293227D01*
X201049311Y-133093495D01*
X200956749Y-132907606D01*
X200932487Y-132875478D01*
X200831824Y-132742177D01*
X200807133Y-132676816D01*
X200821698Y-132608481D01*
X200856468Y-132568184D01*
X200862328Y-132563797D01*
X200862331Y-132563796D01*
X200977546Y-132477546D01*
X201063796Y-132362331D01*
X201114091Y-132227483D01*
X201120500Y-132167873D01*
X201120499Y-130832128D01*
X201114091Y-130772517D01*
X201063796Y-130637669D01*
X201063795Y-130637668D01*
X201063793Y-130637664D01*
X200977547Y-130522455D01*
X200977544Y-130522452D01*
X200862335Y-130436206D01*
X200862328Y-130436202D01*
X200727482Y-130385908D01*
X200727483Y-130385908D01*
X200667883Y-130379501D01*
X200667881Y-130379500D01*
X200667873Y-130379500D01*
X200667864Y-130379500D01*
X199332129Y-130379500D01*
X199332123Y-130379501D01*
X199272516Y-130385908D01*
X199137671Y-130436202D01*
X199137664Y-130436206D01*
X199022455Y-130522452D01*
X199022452Y-130522455D01*
X198936206Y-130637664D01*
X198936202Y-130637671D01*
X198885908Y-130772517D01*
X198879501Y-130832116D01*
X198879501Y-130832123D01*
X198879500Y-130832135D01*
X198879500Y-132167870D01*
X198879501Y-132167876D01*
X198885908Y-132227483D01*
X198936202Y-132362328D01*
X198936206Y-132362335D01*
X199005358Y-132454709D01*
X199022454Y-132477546D01*
X199137669Y-132563796D01*
X199143531Y-132568184D01*
X199185402Y-132624118D01*
X199190386Y-132693810D01*
X199168175Y-132742177D01*
X199098955Y-132833841D01*
X199042846Y-132875477D01*
X198973134Y-132880170D01*
X198911952Y-132846428D01*
X198901046Y-132833842D01*
X198831606Y-132741888D01*
X198678149Y-132601994D01*
X198678143Y-132601990D01*
X198673241Y-132598955D01*
X198639744Y-132578214D01*
X198501592Y-132492674D01*
X198501583Y-132492670D01*
X198409919Y-132457160D01*
X198307953Y-132417658D01*
X198103830Y-132379500D01*
X197896170Y-132379500D01*
X197692047Y-132417658D01*
X197498416Y-132492670D01*
X197498407Y-132492674D01*
X197321856Y-132601990D01*
X197321850Y-132601994D01*
X197168393Y-132741888D01*
X197098954Y-132833842D01*
X197042845Y-132875478D01*
X196973133Y-132880169D01*
X196911951Y-132846427D01*
X196901046Y-132833842D01*
X196831606Y-132741888D01*
X196678149Y-132601994D01*
X196678143Y-132601990D01*
X196673241Y-132598955D01*
X196639744Y-132578214D01*
X196501592Y-132492674D01*
X196501583Y-132492670D01*
X196409919Y-132457160D01*
X196307953Y-132417658D01*
X196103830Y-132379500D01*
X195896170Y-132379500D01*
X195692047Y-132417658D01*
X195498416Y-132492670D01*
X195498407Y-132492674D01*
X195321856Y-132601990D01*
X195321850Y-132601994D01*
X195168393Y-132741888D01*
X195098954Y-132833842D01*
X195042845Y-132875478D01*
X194973133Y-132880169D01*
X194911951Y-132846427D01*
X194901046Y-132833842D01*
X194831606Y-132741888D01*
X194678149Y-132601994D01*
X194678143Y-132601990D01*
X194673241Y-132598955D01*
X194639744Y-132578214D01*
X194501592Y-132492674D01*
X194501583Y-132492670D01*
X194409919Y-132457160D01*
X194307953Y-132417658D01*
X194103830Y-132379500D01*
X193896170Y-132379500D01*
X193692047Y-132417658D01*
X193498416Y-132492670D01*
X193498407Y-132492674D01*
X193321856Y-132601990D01*
X193321850Y-132601994D01*
X193168393Y-132741888D01*
X193098954Y-132833842D01*
X193042845Y-132875478D01*
X192973133Y-132880169D01*
X192911951Y-132846427D01*
X192901046Y-132833842D01*
X192831606Y-132741888D01*
X192678149Y-132601995D01*
X192678148Y-132601994D01*
X192678145Y-132601991D01*
X192678137Y-132601986D01*
X192674123Y-132598955D01*
X192632487Y-132542847D01*
X192627794Y-132473135D01*
X192661536Y-132411952D01*
X192674123Y-132401045D01*
X192678130Y-132398017D01*
X192678145Y-132398009D01*
X192831607Y-132258110D01*
X192956749Y-132092394D01*
X193049311Y-131906505D01*
X193106140Y-131706773D01*
X193125300Y-131500000D01*
X193106140Y-131293227D01*
X193049311Y-131093495D01*
X192956749Y-130907606D01*
X192956748Y-130907605D01*
X192956747Y-130907602D01*
X192831609Y-130741892D01*
X192831607Y-130741889D01*
X192678149Y-130601994D01*
X192678143Y-130601990D01*
X192501592Y-130492674D01*
X192501583Y-130492670D01*
X192355831Y-130436206D01*
X192307953Y-130417658D01*
X192126713Y-130383777D01*
X192064434Y-130352109D01*
X192029161Y-130291797D01*
X192025500Y-130261889D01*
X192025500Y-119000000D01*
X201164564Y-119000000D01*
X201184287Y-119300918D01*
X201184288Y-119300930D01*
X201243118Y-119596683D01*
X201243122Y-119596698D01*
X201340053Y-119882247D01*
X201340062Y-119882268D01*
X201473431Y-120152713D01*
X201473435Y-120152720D01*
X201640973Y-120403459D01*
X201839810Y-120630189D01*
X202066540Y-120829026D01*
X202317279Y-120996564D01*
X202317286Y-120996568D01*
X202587731Y-121129937D01*
X202587736Y-121129939D01*
X202587748Y-121129945D01*
X202873309Y-121226880D01*
X203073251Y-121266651D01*
X203169069Y-121285711D01*
X203169070Y-121285711D01*
X203169080Y-121285713D01*
X203470000Y-121305436D01*
X203770920Y-121285713D01*
X204066691Y-121226880D01*
X204352252Y-121129945D01*
X204622718Y-120996566D01*
X204873461Y-120829025D01*
X205100189Y-120630189D01*
X205299025Y-120403461D01*
X205466566Y-120152718D01*
X205599945Y-119882252D01*
X205696880Y-119596691D01*
X205755713Y-119300920D01*
X205775436Y-119000000D01*
X205755713Y-118699080D01*
X205696880Y-118403309D01*
X205599945Y-118117748D01*
X205466566Y-117847282D01*
X205299025Y-117596539D01*
X205250660Y-117541389D01*
X205100189Y-117369810D01*
X204873459Y-117170973D01*
X204622720Y-117003435D01*
X204622713Y-117003431D01*
X204352268Y-116870062D01*
X204352247Y-116870053D01*
X204066698Y-116773122D01*
X204066692Y-116773120D01*
X204066691Y-116773120D01*
X204066689Y-116773119D01*
X204066683Y-116773118D01*
X203770930Y-116714288D01*
X203770921Y-116714287D01*
X203770920Y-116714287D01*
X203470000Y-116694564D01*
X203169080Y-116714287D01*
X203169079Y-116714287D01*
X203169069Y-116714288D01*
X202873316Y-116773118D01*
X202873301Y-116773122D01*
X202587752Y-116870053D01*
X202587731Y-116870062D01*
X202317286Y-117003431D01*
X202317279Y-117003435D01*
X202066540Y-117170973D01*
X201839810Y-117369810D01*
X201640973Y-117596540D01*
X201473435Y-117847279D01*
X201473431Y-117847286D01*
X201340062Y-118117731D01*
X201340053Y-118117752D01*
X201243122Y-118403301D01*
X201243118Y-118403316D01*
X201184288Y-118699069D01*
X201184287Y-118699079D01*
X201184287Y-118699080D01*
X201178631Y-118785369D01*
X201164564Y-119000000D01*
X192025500Y-119000000D01*
X192025500Y-118856819D01*
X192045185Y-118789780D01*
X192097989Y-118744025D01*
X192167147Y-118734081D01*
X192190455Y-118739778D01*
X192320737Y-118785366D01*
X192320743Y-118785367D01*
X192320745Y-118785368D01*
X192320746Y-118785368D01*
X192320750Y-118785369D01*
X192499996Y-118805565D01*
X192500000Y-118805565D01*
X192500004Y-118805565D01*
X192679249Y-118785369D01*
X192679252Y-118785368D01*
X192679255Y-118785368D01*
X192849522Y-118725789D01*
X193002262Y-118629816D01*
X193129816Y-118502262D01*
X193225789Y-118349522D01*
X193285368Y-118179255D01*
X193292300Y-118117731D01*
X193305565Y-118000003D01*
X193305565Y-117999996D01*
X193285369Y-117820750D01*
X193285368Y-117820745D01*
X193225788Y-117650475D01*
X193218938Y-117639574D01*
X193199931Y-117573767D01*
X193185638Y-106847870D01*
X193699500Y-106847870D01*
X193699501Y-106847876D01*
X193705908Y-106907483D01*
X193756202Y-107042328D01*
X193756206Y-107042335D01*
X193842452Y-107157544D01*
X193842455Y-107157547D01*
X193957664Y-107243793D01*
X193957671Y-107243797D01*
X194092517Y-107294091D01*
X194092516Y-107294091D01*
X194099444Y-107294835D01*
X194152127Y-107300500D01*
X195347872Y-107300499D01*
X195407483Y-107294091D01*
X195542331Y-107243796D01*
X195657546Y-107157546D01*
X195743796Y-107042331D01*
X195794091Y-106907483D01*
X195800500Y-106847873D01*
X195800499Y-106250000D01*
X197194417Y-106250000D01*
X197214699Y-106455932D01*
X197226654Y-106495343D01*
X197274768Y-106653954D01*
X197372315Y-106836450D01*
X197378723Y-106844258D01*
X197503589Y-106996410D01*
X197600209Y-107075702D01*
X197663550Y-107127685D01*
X197846046Y-107225232D01*
X198044066Y-107285300D01*
X198044065Y-107285300D01*
X198062529Y-107287118D01*
X198250000Y-107305583D01*
X198455934Y-107285300D01*
X198653954Y-107225232D01*
X198836450Y-107127685D01*
X198996410Y-106996410D01*
X199127685Y-106836450D01*
X199225232Y-106653954D01*
X199285300Y-106455934D01*
X199305583Y-106250000D01*
X199285300Y-106044066D01*
X199225232Y-105846046D01*
X199127685Y-105663550D01*
X199069389Y-105592516D01*
X198996410Y-105503589D01*
X198836452Y-105372317D01*
X198836453Y-105372317D01*
X198836450Y-105372315D01*
X198653954Y-105274768D01*
X198455934Y-105214700D01*
X198455932Y-105214699D01*
X198455934Y-105214699D01*
X198250000Y-105194417D01*
X198044067Y-105214699D01*
X197846043Y-105274769D01*
X197735898Y-105333643D01*
X197663550Y-105372315D01*
X197663548Y-105372316D01*
X197663547Y-105372317D01*
X197503589Y-105503589D01*
X197372317Y-105663547D01*
X197274769Y-105846043D01*
X197214699Y-106044067D01*
X197194417Y-106250000D01*
X195800499Y-106250000D01*
X195800499Y-105652128D01*
X195794091Y-105592517D01*
X195760923Y-105503590D01*
X195743797Y-105457671D01*
X195743793Y-105457664D01*
X195657547Y-105342455D01*
X195657544Y-105342452D01*
X195542335Y-105256206D01*
X195542328Y-105256202D01*
X195407482Y-105205908D01*
X195407483Y-105205908D01*
X195347883Y-105199501D01*
X195347881Y-105199500D01*
X195347873Y-105199500D01*
X195347864Y-105199500D01*
X194152129Y-105199500D01*
X194152123Y-105199501D01*
X194092516Y-105205908D01*
X193957671Y-105256202D01*
X193957664Y-105256206D01*
X193842455Y-105342452D01*
X193842452Y-105342455D01*
X193756206Y-105457664D01*
X193756202Y-105457671D01*
X193705908Y-105592517D01*
X193699501Y-105652116D01*
X193699501Y-105652123D01*
X193699500Y-105652135D01*
X193699500Y-106847870D01*
X193185638Y-106847870D01*
X193175500Y-99239860D01*
X193175500Y-99171006D01*
X193175500Y-99171001D01*
X193175408Y-99170081D01*
X193162015Y-99103215D01*
X193161983Y-99103052D01*
X193148581Y-99035678D01*
X193148580Y-99035672D01*
X193148576Y-99035664D01*
X193148469Y-99035309D01*
X193148414Y-99035129D01*
X193148309Y-99034785D01*
X193148307Y-99034775D01*
X193122072Y-98971676D01*
X193095775Y-98908189D01*
X193095772Y-98908184D01*
X193095537Y-98907746D01*
X193095495Y-98907667D01*
X193095332Y-98907362D01*
X193057385Y-98850735D01*
X193057292Y-98850596D01*
X193019114Y-98793457D01*
X193019110Y-98793453D01*
X193019104Y-98793445D01*
X193018524Y-98792738D01*
X192970233Y-98744575D01*
X192970245Y-98744562D01*
X192970116Y-98744459D01*
X192599875Y-98374218D01*
X192566390Y-98312895D01*
X192564028Y-98275730D01*
X192580277Y-98090002D01*
X192580277Y-98089997D01*
X192576569Y-98047618D01*
X192561207Y-97872023D01*
X192504575Y-97660670D01*
X192412102Y-97462362D01*
X192412100Y-97462359D01*
X192412099Y-97462357D01*
X192286599Y-97283124D01*
X192286596Y-97283121D01*
X192131877Y-97128402D01*
X191952639Y-97002898D01*
X191952640Y-97002898D01*
X191952638Y-97002897D01*
X191853484Y-96956661D01*
X191754330Y-96910425D01*
X191754326Y-96910424D01*
X191754322Y-96910422D01*
X191542977Y-96853793D01*
X191325002Y-96834723D01*
X191324998Y-96834723D01*
X191179682Y-96847436D01*
X191107023Y-96853793D01*
X191107020Y-96853793D01*
X190895677Y-96910422D01*
X190895668Y-96910426D01*
X190697361Y-97002898D01*
X190697357Y-97002900D01*
X190518121Y-97128402D01*
X190363402Y-97283121D01*
X190237900Y-97462357D01*
X190237898Y-97462361D01*
X190145426Y-97660668D01*
X190145422Y-97660677D01*
X190088793Y-97872020D01*
X190088793Y-97872024D01*
X190069723Y-98089997D01*
X190069723Y-98090002D01*
X189500000Y-98090002D01*
X189500000Y-92260000D01*
X206688509Y-92260000D01*
X206708433Y-92487738D01*
X206767602Y-92708556D01*
X206767603Y-92708559D01*
X206767604Y-92708561D01*
X206864213Y-92915742D01*
X206864219Y-92915752D01*
X206995334Y-93103003D01*
X206995343Y-93103013D01*
X207156986Y-93264656D01*
X207156996Y-93264665D01*
X207323690Y-93381385D01*
X207344254Y-93395785D01*
X207551444Y-93492398D01*
X207772262Y-93551567D01*
X207934932Y-93565798D01*
X207999998Y-93571491D01*
X208000000Y-93571491D01*
X208000002Y-93571491D01*
X208056934Y-93566510D01*
X208227738Y-93551567D01*
X208448556Y-93492398D01*
X208655746Y-93395785D01*
X208843010Y-93264660D01*
X209004660Y-93103010D01*
X209135785Y-92915746D01*
X209232398Y-92708556D01*
X209291567Y-92487738D01*
X209311491Y-92260000D01*
X209291567Y-92032262D01*
X209232398Y-91811444D01*
X209135785Y-91604255D01*
X209004660Y-91416990D01*
X208843010Y-91255340D01*
X208843008Y-91255338D01*
X208843003Y-91255334D01*
X208655752Y-91124219D01*
X208655749Y-91124217D01*
X208655746Y-91124215D01*
X208655742Y-91124213D01*
X208448561Y-91027604D01*
X208448559Y-91027603D01*
X208448556Y-91027602D01*
X208291487Y-90985514D01*
X208227739Y-90968433D01*
X208227732Y-90968432D01*
X208000002Y-90948509D01*
X207999998Y-90948509D01*
X207772267Y-90968432D01*
X207772260Y-90968433D01*
X207644763Y-91002596D01*
X207551444Y-91027602D01*
X207551442Y-91027602D01*
X207551438Y-91027604D01*
X207344258Y-91124213D01*
X207344248Y-91124219D01*
X207156989Y-91255340D01*
X206995340Y-91416989D01*
X206864219Y-91604248D01*
X206864213Y-91604258D01*
X206767604Y-91811438D01*
X206708433Y-92032260D01*
X206708432Y-92032267D01*
X206688509Y-92259997D01*
X206688509Y-92260000D01*
X189500000Y-92260000D01*
X189500000Y-89124000D01*
X189519685Y-89056961D01*
X189572489Y-89011206D01*
X189624000Y-89000000D01*
X209675500Y-89000000D01*
X209742539Y-89019685D01*
G37*
%TD.AperFunction*%
%TD*%
%TA.AperFunction,Conductor*%
%TO.N,GND*%
G36*
X154443039Y-90519685D02*
G01*
X154488794Y-90572489D01*
X154500000Y-90624000D01*
X154500000Y-103376000D01*
X154480315Y-103443039D01*
X154427511Y-103488794D01*
X154376000Y-103500000D01*
X141000000Y-103500000D01*
X141000000Y-113500000D01*
X126000500Y-113500000D01*
X126000500Y-109597870D01*
X135199500Y-109597870D01*
X135199501Y-109597876D01*
X135205908Y-109657483D01*
X135256202Y-109792328D01*
X135256206Y-109792335D01*
X135342452Y-109907544D01*
X135342455Y-109907547D01*
X135457664Y-109993793D01*
X135457671Y-109993797D01*
X135592517Y-110044091D01*
X135592516Y-110044091D01*
X135599444Y-110044835D01*
X135652127Y-110050500D01*
X136847872Y-110050499D01*
X136907483Y-110044091D01*
X137042331Y-109993796D01*
X137157546Y-109907546D01*
X137243796Y-109792331D01*
X137294091Y-109657483D01*
X137300500Y-109597873D01*
X137300499Y-108402128D01*
X137294091Y-108342517D01*
X137243796Y-108207669D01*
X137243795Y-108207668D01*
X137243793Y-108207664D01*
X137157547Y-108092455D01*
X137157544Y-108092452D01*
X137042335Y-108006206D01*
X137042328Y-108006202D01*
X136907482Y-107955908D01*
X136907483Y-107955908D01*
X136847883Y-107949501D01*
X136847881Y-107949500D01*
X136847873Y-107949500D01*
X136847864Y-107949500D01*
X135652129Y-107949500D01*
X135652123Y-107949501D01*
X135592516Y-107955908D01*
X135457671Y-108006202D01*
X135457664Y-108006206D01*
X135342455Y-108092452D01*
X135342452Y-108092455D01*
X135256206Y-108207664D01*
X135256202Y-108207671D01*
X135205908Y-108342517D01*
X135199501Y-108402116D01*
X135199501Y-108402123D01*
X135199500Y-108402135D01*
X135199500Y-109597870D01*
X126000500Y-109597870D01*
X126000500Y-106348071D01*
X126020185Y-106281032D01*
X126072989Y-106235277D01*
X126142147Y-106225333D01*
X126165455Y-106231030D01*
X126320737Y-106285366D01*
X126320743Y-106285367D01*
X126320745Y-106285368D01*
X126320746Y-106285368D01*
X126320750Y-106285369D01*
X126499996Y-106305565D01*
X126500000Y-106305565D01*
X126500004Y-106305565D01*
X126679249Y-106285369D01*
X126679252Y-106285368D01*
X126679255Y-106285368D01*
X126849522Y-106225789D01*
X127002262Y-106129816D01*
X127129816Y-106002262D01*
X127225789Y-105849522D01*
X127285368Y-105679255D01*
X127305565Y-105500000D01*
X127285368Y-105320745D01*
X127285367Y-105320743D01*
X127285366Y-105320737D01*
X127225790Y-105150479D01*
X127219506Y-105140478D01*
X127200500Y-105074507D01*
X127200500Y-104500003D01*
X128694435Y-104500003D01*
X128714630Y-104679249D01*
X128714631Y-104679254D01*
X128774211Y-104849523D01*
X128870184Y-105002262D01*
X128997738Y-105129816D01*
X129150478Y-105225789D01*
X129320745Y-105285368D01*
X129320750Y-105285369D01*
X129499996Y-105305565D01*
X129500000Y-105305565D01*
X129500004Y-105305565D01*
X129679249Y-105285369D01*
X129679252Y-105285368D01*
X129679255Y-105285368D01*
X129849522Y-105225789D01*
X130002262Y-105129816D01*
X130129816Y-105002262D01*
X130225789Y-104849522D01*
X130285368Y-104679255D01*
X130305565Y-104500000D01*
X130285368Y-104320745D01*
X130285367Y-104320743D01*
X130285366Y-104320737D01*
X130225790Y-104150479D01*
X130219506Y-104140478D01*
X130200500Y-104074507D01*
X130200500Y-96000003D01*
X131694435Y-96000003D01*
X131714630Y-96179249D01*
X131714631Y-96179254D01*
X131774211Y-96349523D01*
X131870184Y-96502262D01*
X131997738Y-96629816D01*
X132150478Y-96725789D01*
X132253984Y-96762007D01*
X132300710Y-96791367D01*
X132763181Y-97253838D01*
X132796666Y-97315161D01*
X132799500Y-97341519D01*
X132799500Y-99074507D01*
X132780494Y-99140478D01*
X132774209Y-99150479D01*
X132714633Y-99320737D01*
X132714630Y-99320750D01*
X132694435Y-99499996D01*
X132694435Y-99500003D01*
X132714630Y-99679249D01*
X132714631Y-99679254D01*
X132774212Y-99849525D01*
X132780492Y-99859519D01*
X132799500Y-99925493D01*
X132799500Y-103074507D01*
X132780494Y-103140478D01*
X132774209Y-103150479D01*
X132714633Y-103320737D01*
X132714630Y-103320750D01*
X132694435Y-103499996D01*
X132694435Y-103500000D01*
X132714630Y-103679249D01*
X132714631Y-103679254D01*
X132774211Y-103849523D01*
X132870184Y-104002262D01*
X132997738Y-104129816D01*
X133150478Y-104225789D01*
X133320745Y-104285368D01*
X133320750Y-104285369D01*
X133499996Y-104305565D01*
X133500000Y-104305565D01*
X133500004Y-104305565D01*
X133679249Y-104285369D01*
X133679252Y-104285368D01*
X133679255Y-104285368D01*
X133849522Y-104225789D01*
X134002262Y-104129816D01*
X134129816Y-104002262D01*
X134225789Y-103849522D01*
X134285368Y-103679255D01*
X134305565Y-103500000D01*
X134304302Y-103488794D01*
X134285369Y-103320750D01*
X134285366Y-103320737D01*
X134225790Y-103150479D01*
X134219506Y-103140478D01*
X134200500Y-103074507D01*
X134200500Y-99925493D01*
X134219508Y-99859519D01*
X134225787Y-99849525D01*
X134225786Y-99849525D01*
X134225789Y-99849522D01*
X134285368Y-99679255D01*
X134305565Y-99500000D01*
X134285368Y-99320745D01*
X134285367Y-99320743D01*
X134285366Y-99320737D01*
X134225790Y-99150479D01*
X134219506Y-99140478D01*
X134200500Y-99074507D01*
X134200500Y-96931004D01*
X134173581Y-96795677D01*
X134173580Y-96795676D01*
X134173580Y-96795672D01*
X134120775Y-96668189D01*
X134083696Y-96612696D01*
X134044114Y-96553457D01*
X134044111Y-96553453D01*
X133291367Y-95800710D01*
X133262006Y-95753983D01*
X133225788Y-95650476D01*
X133129815Y-95497737D01*
X133002262Y-95370184D01*
X132849523Y-95274211D01*
X132679254Y-95214631D01*
X132679249Y-95214630D01*
X132500004Y-95194435D01*
X132499996Y-95194435D01*
X132320750Y-95214630D01*
X132320745Y-95214631D01*
X132150476Y-95274211D01*
X131997737Y-95370184D01*
X131870184Y-95497737D01*
X131774211Y-95650476D01*
X131714631Y-95820745D01*
X131714630Y-95820750D01*
X131694435Y-95999996D01*
X131694435Y-96000003D01*
X130200500Y-96000003D01*
X130200500Y-94425493D01*
X130219508Y-94359519D01*
X130225787Y-94349525D01*
X130225786Y-94349525D01*
X130225789Y-94349522D01*
X130285368Y-94179255D01*
X130305565Y-94000000D01*
X130285368Y-93820745D01*
X130225789Y-93650478D01*
X130129816Y-93497738D01*
X130002262Y-93370184D01*
X129849523Y-93274211D01*
X129679254Y-93214631D01*
X129679249Y-93214630D01*
X129500004Y-93194435D01*
X129499996Y-93194435D01*
X129320750Y-93214630D01*
X129320745Y-93214631D01*
X129150476Y-93274211D01*
X128997737Y-93370184D01*
X128870184Y-93497737D01*
X128774211Y-93650476D01*
X128714631Y-93820745D01*
X128714630Y-93820750D01*
X128694435Y-93999996D01*
X128694435Y-94000003D01*
X128714630Y-94179249D01*
X128714631Y-94179254D01*
X128774212Y-94349525D01*
X128780492Y-94359519D01*
X128799500Y-94425493D01*
X128799500Y-104074507D01*
X128780494Y-104140478D01*
X128774209Y-104150479D01*
X128714633Y-104320737D01*
X128714630Y-104320750D01*
X128694435Y-104499996D01*
X128694435Y-104500003D01*
X127200500Y-104500003D01*
X127200500Y-92250000D01*
X147944417Y-92250000D01*
X147964699Y-92455932D01*
X147964700Y-92455934D01*
X148024768Y-92653954D01*
X148122315Y-92836450D01*
X148122317Y-92836452D01*
X148253589Y-92996410D01*
X148350209Y-93075702D01*
X148413550Y-93127685D01*
X148596046Y-93225232D01*
X148794066Y-93285300D01*
X148794065Y-93285300D01*
X148812529Y-93287118D01*
X149000000Y-93305583D01*
X149205934Y-93285300D01*
X149403954Y-93225232D01*
X149586450Y-93127685D01*
X149746410Y-92996410D01*
X149877685Y-92836450D01*
X149975232Y-92653954D01*
X150035300Y-92455934D01*
X150055583Y-92250000D01*
X150035300Y-92044066D01*
X149975232Y-91846046D01*
X149877685Y-91663550D01*
X149825702Y-91600209D01*
X149746410Y-91503589D01*
X149586452Y-91372317D01*
X149586453Y-91372317D01*
X149586450Y-91372315D01*
X149403954Y-91274768D01*
X149205934Y-91214700D01*
X149205932Y-91214699D01*
X149205934Y-91214699D01*
X149000000Y-91194417D01*
X148794067Y-91214699D01*
X148596043Y-91274769D01*
X148485898Y-91333643D01*
X148413550Y-91372315D01*
X148413548Y-91372316D01*
X148413547Y-91372317D01*
X148253589Y-91503589D01*
X148122317Y-91663547D01*
X148024769Y-91846043D01*
X147964699Y-92044067D01*
X147944417Y-92250000D01*
X127200500Y-92250000D01*
X127200500Y-90500000D01*
X147500000Y-90500000D01*
X154376000Y-90500000D01*
X154443039Y-90519685D01*
G37*
%TD.AperFunction*%
%TD*%
%TA.AperFunction,Conductor*%
%TO.N,/Vout-*%
G36*
X188000000Y-89000000D02*
G01*
X175500000Y-89000000D01*
X175500000Y-76858028D01*
X180359500Y-76858028D01*
X180359501Y-76858034D01*
X180370113Y-76977415D01*
X180426089Y-77173045D01*
X180426090Y-77173048D01*
X180426091Y-77173049D01*
X180520302Y-77353407D01*
X180520304Y-77353409D01*
X180648890Y-77511109D01*
X180742803Y-77587684D01*
X180806593Y-77639698D01*
X180986951Y-77733909D01*
X181182582Y-77789886D01*
X181301963Y-77800500D01*
X185918036Y-77800499D01*
X186037418Y-77789886D01*
X186233049Y-77733909D01*
X186413407Y-77639698D01*
X186571109Y-77511109D01*
X186699698Y-77353407D01*
X186793909Y-77173049D01*
X186849886Y-76977418D01*
X186860500Y-76858037D01*
X186860499Y-74241964D01*
X186849886Y-74122582D01*
X186793909Y-73926951D01*
X186699698Y-73746593D01*
X186647684Y-73682803D01*
X186571109Y-73588890D01*
X186413409Y-73460304D01*
X186413410Y-73460304D01*
X186413407Y-73460302D01*
X186233049Y-73366091D01*
X186233048Y-73366090D01*
X186233045Y-73366089D01*
X186115829Y-73332550D01*
X186037418Y-73310114D01*
X186037415Y-73310113D01*
X186037413Y-73310113D01*
X185971102Y-73304217D01*
X185918037Y-73299500D01*
X185918032Y-73299500D01*
X181301971Y-73299500D01*
X181301965Y-73299500D01*
X181301964Y-73299501D01*
X181290316Y-73300536D01*
X181182584Y-73310113D01*
X180986954Y-73366089D01*
X180896772Y-73413196D01*
X180806593Y-73460302D01*
X180806591Y-73460303D01*
X180806590Y-73460304D01*
X180648890Y-73588890D01*
X180520304Y-73746590D01*
X180426089Y-73926954D01*
X180370114Y-74122583D01*
X180370113Y-74122586D01*
X180359500Y-74241966D01*
X180359500Y-76858028D01*
X175500000Y-76858028D01*
X175500000Y-65124000D01*
X175519685Y-65056961D01*
X175572489Y-65011206D01*
X175624000Y-65000000D01*
X188000000Y-65000000D01*
X188000000Y-89000000D01*
G37*
%TD.AperFunction*%
%TD*%
%TA.AperFunction,Conductor*%
%TO.N,/AC1*%
G36*
X187943039Y-54519685D02*
G01*
X187988794Y-54572489D01*
X188000000Y-54624000D01*
X188000000Y-63870500D01*
X187980315Y-63937539D01*
X187927511Y-63983294D01*
X187876000Y-63994500D01*
X175624000Y-63994500D01*
X175623347Y-63994503D01*
X175612420Y-63994566D01*
X175612406Y-63994567D01*
X175571441Y-63999211D01*
X175557475Y-64000000D01*
X173000000Y-64000000D01*
X164000000Y-64000000D01*
X162436376Y-64000000D01*
X162423831Y-63999364D01*
X162376001Y-63994500D01*
X162376000Y-63994500D01*
X150124000Y-63994500D01*
X150056961Y-63974815D01*
X150011206Y-63922011D01*
X150000000Y-63870500D01*
X150000000Y-60124000D01*
X150019685Y-60056961D01*
X150072489Y-60011206D01*
X150124000Y-60000000D01*
X157000000Y-60000000D01*
X157000000Y-54624000D01*
X157019685Y-54556961D01*
X157072489Y-54511206D01*
X157124000Y-54500000D01*
X187876000Y-54500000D01*
X187943039Y-54519685D01*
G37*
%TD.AperFunction*%
%TD*%
%TA.AperFunction,Conductor*%
%TO.N,GND*%
G36*
X131910176Y-83012788D02*
G01*
X132147745Y-83129944D01*
X132147755Y-83129948D01*
X132433296Y-83226876D01*
X132433300Y-83226877D01*
X132433309Y-83226880D01*
X132633251Y-83266651D01*
X132729069Y-83285711D01*
X132729070Y-83285711D01*
X132729080Y-83285713D01*
X133030000Y-83305436D01*
X133330920Y-83285713D01*
X133626691Y-83226880D01*
X133626703Y-83226876D01*
X133912244Y-83129948D01*
X133912254Y-83129944D01*
X134149824Y-83012788D01*
X134204668Y-83000000D01*
X136204317Y-83000000D01*
X136271356Y-83019685D01*
X136317111Y-83072489D01*
X136327055Y-83141647D01*
X136298030Y-83205203D01*
X136245272Y-83241041D01*
X136150478Y-83274210D01*
X136150475Y-83274212D01*
X135997737Y-83370184D01*
X135870184Y-83497737D01*
X135774211Y-83650476D01*
X135714631Y-83820745D01*
X135714630Y-83820750D01*
X135694435Y-83999996D01*
X135694435Y-84000003D01*
X135714630Y-84179249D01*
X135714631Y-84179254D01*
X135774211Y-84349523D01*
X135870184Y-84502262D01*
X135997738Y-84629816D01*
X136043358Y-84658481D01*
X136150049Y-84725520D01*
X136150478Y-84725789D01*
X136208701Y-84746162D01*
X136320745Y-84785368D01*
X136320750Y-84785369D01*
X136499996Y-84805565D01*
X136500000Y-84805565D01*
X136500004Y-84805565D01*
X136679249Y-84785369D01*
X136679252Y-84785368D01*
X136679255Y-84785368D01*
X136849522Y-84725789D01*
X137002262Y-84629816D01*
X137129816Y-84502262D01*
X137225789Y-84349522D01*
X137262007Y-84246013D01*
X137291365Y-84199290D01*
X138454337Y-83036318D01*
X138515660Y-83002834D01*
X138542018Y-83000000D01*
X147376000Y-83000000D01*
X147443039Y-83019685D01*
X147488794Y-83072489D01*
X147500000Y-83124000D01*
X147500000Y-90500000D01*
X127200500Y-90500000D01*
X127200500Y-85841519D01*
X127220185Y-85774480D01*
X127236819Y-85753838D01*
X127544112Y-85446545D01*
X127544114Y-85446543D01*
X127620775Y-85331811D01*
X127673580Y-85204328D01*
X127700500Y-85068994D01*
X127700500Y-84931006D01*
X127700500Y-83124000D01*
X127720185Y-83056961D01*
X127772989Y-83011206D01*
X127824500Y-83000000D01*
X131855332Y-83000000D01*
X131910176Y-83012788D01*
G37*
%TD.AperFunction*%
%TD*%
%TA.AperFunction,Conductor*%
%TO.N,Net-(Q1-C)*%
G36*
X172943039Y-100519685D02*
G01*
X172988794Y-100572489D01*
X173000000Y-100624000D01*
X173000000Y-115376000D01*
X172980315Y-115443039D01*
X172927511Y-115488794D01*
X172876000Y-115500000D01*
X167949127Y-115500000D01*
X167939149Y-115499598D01*
X167876010Y-115494500D01*
X167876000Y-115494500D01*
X150124000Y-115494500D01*
X150123989Y-115494500D01*
X150044094Y-115496621D01*
X150044092Y-115496621D01*
X150027196Y-115498894D01*
X150010671Y-115500000D01*
X149000000Y-115500000D01*
X149000000Y-115897795D01*
X148980315Y-115964834D01*
X148961242Y-115987849D01*
X148937760Y-116010075D01*
X148937752Y-116010083D01*
X148937749Y-116010087D01*
X148937747Y-116010090D01*
X148783825Y-116197203D01*
X148661920Y-116406573D01*
X148661914Y-116406586D01*
X148575174Y-116632795D01*
X148555488Y-116699834D01*
X148513995Y-116882503D01*
X148494500Y-117123989D01*
X148494500Y-120876010D01*
X148496621Y-120955905D01*
X148496622Y-120955910D01*
X148524997Y-121166946D01*
X148528908Y-121196030D01*
X148540114Y-121247541D01*
X148545584Y-121271724D01*
X148619779Y-121502369D01*
X148692538Y-121644779D01*
X148730012Y-121718126D01*
X148873417Y-121913394D01*
X148873423Y-121913400D01*
X148873426Y-121913405D01*
X148919181Y-121966209D01*
X149010087Y-122062251D01*
X149197199Y-122216171D01*
X149197203Y-122216174D01*
X149373001Y-122318532D01*
X149406578Y-122338082D01*
X149632801Y-122424828D01*
X149699840Y-122444513D01*
X149882501Y-122486004D01*
X150124000Y-122505500D01*
X156376000Y-122505500D01*
X156443039Y-122525185D01*
X156488794Y-122577989D01*
X156500000Y-122629500D01*
X156500000Y-126876000D01*
X156480315Y-126943039D01*
X156427511Y-126988794D01*
X156376000Y-127000000D01*
X142624000Y-127000000D01*
X142556961Y-126980315D01*
X142511206Y-126927511D01*
X142500000Y-126876000D01*
X142500000Y-105124000D01*
X142519685Y-105056961D01*
X142572489Y-105011206D01*
X142624000Y-105000000D01*
X156000000Y-105000000D01*
X156000000Y-100624000D01*
X156019685Y-100556961D01*
X156072489Y-100511206D01*
X156124000Y-100500000D01*
X172876000Y-100500000D01*
X172943039Y-100519685D01*
G37*
%TD.AperFunction*%
%TD*%
%TA.AperFunction,Conductor*%
%TO.N,/Vout-*%
G36*
X188000000Y-127376000D02*
G01*
X187980315Y-127443039D01*
X187927511Y-127488794D01*
X187876000Y-127500000D01*
X180500000Y-127500000D01*
X180500000Y-122500000D01*
X175500000Y-122500000D01*
X175500000Y-119154471D01*
X179859500Y-119154471D01*
X179894086Y-119461437D01*
X179894089Y-119461455D01*
X179962831Y-119762635D01*
X179962835Y-119762647D01*
X180064862Y-120054222D01*
X180064868Y-120054236D01*
X180198903Y-120332562D01*
X180198905Y-120332565D01*
X180363265Y-120594143D01*
X180555880Y-120835674D01*
X180774326Y-121054120D01*
X181015857Y-121246735D01*
X181277435Y-121411095D01*
X181555771Y-121545135D01*
X181555777Y-121545137D01*
X181847352Y-121647164D01*
X181847364Y-121647168D01*
X182148548Y-121715911D01*
X182148554Y-121715911D01*
X182148562Y-121715913D01*
X182353206Y-121738970D01*
X182455529Y-121750499D01*
X182455532Y-121750500D01*
X182455535Y-121750500D01*
X184764468Y-121750500D01*
X184764469Y-121750499D01*
X184921356Y-121732822D01*
X185071437Y-121715913D01*
X185071442Y-121715912D01*
X185071452Y-121715911D01*
X185372636Y-121647168D01*
X185664229Y-121545135D01*
X185942565Y-121411095D01*
X186204143Y-121246735D01*
X186445674Y-121054120D01*
X186664120Y-120835674D01*
X186856735Y-120594143D01*
X187021095Y-120332565D01*
X187155135Y-120054229D01*
X187257168Y-119762636D01*
X187325911Y-119461452D01*
X187360500Y-119154465D01*
X187360500Y-118845535D01*
X187325911Y-118538548D01*
X187257168Y-118237364D01*
X187155135Y-117945771D01*
X187021095Y-117667435D01*
X186856735Y-117405857D01*
X186664120Y-117164326D01*
X186445674Y-116945880D01*
X186204143Y-116753265D01*
X185942565Y-116588905D01*
X185942562Y-116588903D01*
X185833164Y-116536220D01*
X185781305Y-116489398D01*
X185762992Y-116421971D01*
X185784040Y-116355347D01*
X185837766Y-116310678D01*
X185886966Y-116300500D01*
X185942831Y-116300500D01*
X185942842Y-116300500D01*
X186046237Y-116294081D01*
X186289614Y-116243050D01*
X186289621Y-116243046D01*
X186289625Y-116243046D01*
X186368980Y-116212080D01*
X186521273Y-116152656D01*
X186734894Y-116025366D01*
X186734898Y-116025361D01*
X186734902Y-116025360D01*
X186924649Y-115864651D01*
X186924651Y-115864649D01*
X187085360Y-115674902D01*
X187085361Y-115674898D01*
X187085366Y-115674894D01*
X187212656Y-115461273D01*
X187303050Y-115229614D01*
X187354081Y-114986237D01*
X187360500Y-114882842D01*
X187360500Y-112217158D01*
X187354081Y-112113763D01*
X187303050Y-111870386D01*
X187303048Y-111870381D01*
X187303046Y-111870374D01*
X187212657Y-111638730D01*
X187212656Y-111638727D01*
X187085366Y-111425106D01*
X187085363Y-111425103D01*
X187085360Y-111425097D01*
X186924651Y-111235350D01*
X186924649Y-111235348D01*
X186734902Y-111074639D01*
X186734894Y-111074634D01*
X186521273Y-110947344D01*
X186521271Y-110947343D01*
X186521269Y-110947342D01*
X186289625Y-110856953D01*
X186289615Y-110856950D01*
X186046238Y-110805919D01*
X186046235Y-110805918D01*
X185942850Y-110799500D01*
X185942842Y-110799500D01*
X181277158Y-110799500D01*
X181277149Y-110799500D01*
X181173764Y-110805918D01*
X181173761Y-110805919D01*
X180930384Y-110856950D01*
X180930374Y-110856953D01*
X180698730Y-110947342D01*
X180485097Y-111074639D01*
X180295350Y-111235348D01*
X180295348Y-111235350D01*
X180134639Y-111425097D01*
X180007342Y-111638730D01*
X179916953Y-111870374D01*
X179916950Y-111870384D01*
X179865919Y-112113761D01*
X179865918Y-112113764D01*
X179859500Y-112217149D01*
X179859500Y-114882850D01*
X179865918Y-114986235D01*
X179865919Y-114986238D01*
X179916950Y-115229615D01*
X179916953Y-115229625D01*
X180007342Y-115461269D01*
X180134639Y-115674902D01*
X180295348Y-115864649D01*
X180295350Y-115864651D01*
X180485097Y-116025360D01*
X180485103Y-116025363D01*
X180485106Y-116025366D01*
X180698727Y-116152656D01*
X180698730Y-116152657D01*
X180930374Y-116243046D01*
X180930381Y-116243048D01*
X180930386Y-116243050D01*
X181173763Y-116294081D01*
X181277158Y-116300500D01*
X181333034Y-116300500D01*
X181400073Y-116320185D01*
X181445828Y-116372989D01*
X181455772Y-116442147D01*
X181426747Y-116505703D01*
X181386836Y-116536220D01*
X181277437Y-116588903D01*
X181015858Y-116753264D01*
X180774326Y-116945879D01*
X180555879Y-117164326D01*
X180363264Y-117405858D01*
X180198903Y-117667437D01*
X180064868Y-117945763D01*
X180064862Y-117945777D01*
X179962835Y-118237352D01*
X179962831Y-118237364D01*
X179894089Y-118538544D01*
X179894086Y-118538562D01*
X179859500Y-118845528D01*
X179859500Y-119154471D01*
X175500000Y-119154471D01*
X175500000Y-89000000D01*
X188000000Y-89000000D01*
X188000000Y-127376000D01*
G37*
%TD.AperFunction*%
%TD*%
%TA.AperFunction,Conductor*%
%TO.N,/Vout-*%
G36*
X207443039Y-65019685D02*
G01*
X207488794Y-65072489D01*
X207500000Y-65124000D01*
X207500000Y-77876000D01*
X207480315Y-77943039D01*
X207427511Y-77988794D01*
X207376000Y-78000000D01*
X188000000Y-78000000D01*
X188000000Y-72308028D01*
X189424500Y-72308028D01*
X189424501Y-72308034D01*
X189435113Y-72427415D01*
X189491089Y-72623045D01*
X189491090Y-72623048D01*
X189491091Y-72623049D01*
X189585302Y-72803407D01*
X189585304Y-72803409D01*
X189713890Y-72961109D01*
X189807803Y-73037684D01*
X189871593Y-73089698D01*
X190051951Y-73183909D01*
X190247582Y-73239886D01*
X190366963Y-73250500D01*
X191983036Y-73250499D01*
X192102418Y-73239886D01*
X192298049Y-73183909D01*
X192478407Y-73089698D01*
X192636109Y-72961109D01*
X192764698Y-72803407D01*
X192858909Y-72623049D01*
X192914886Y-72427418D01*
X192925500Y-72308037D01*
X192925499Y-70691964D01*
X192914886Y-70572582D01*
X192858909Y-70376951D01*
X192764698Y-70196593D01*
X192712684Y-70132803D01*
X192636109Y-70038890D01*
X192478409Y-69910304D01*
X192478410Y-69910304D01*
X192478407Y-69910302D01*
X192298049Y-69816091D01*
X192298048Y-69816090D01*
X192298045Y-69816089D01*
X192180829Y-69782550D01*
X192102418Y-69760114D01*
X192102415Y-69760113D01*
X192102413Y-69760113D01*
X192036102Y-69754217D01*
X191983037Y-69749500D01*
X191983032Y-69749500D01*
X190366971Y-69749500D01*
X190366965Y-69749500D01*
X190366964Y-69749501D01*
X190355316Y-69750536D01*
X190247584Y-69760113D01*
X190051954Y-69816089D01*
X189961772Y-69863196D01*
X189871593Y-69910302D01*
X189871591Y-69910303D01*
X189871590Y-69910304D01*
X189713890Y-70038890D01*
X189585304Y-70196590D01*
X189491089Y-70376954D01*
X189435114Y-70572583D01*
X189435113Y-70572586D01*
X189424500Y-70691966D01*
X189424500Y-72308028D01*
X188000000Y-72308028D01*
X188000000Y-65000000D01*
X207376000Y-65000000D01*
X207443039Y-65019685D01*
G37*
%TD.AperFunction*%
%TD*%
%TA.AperFunction,Conductor*%
%TO.N,/Vout-*%
G36*
X180500000Y-127500000D02*
G01*
X180500000Y-131376000D01*
X180480315Y-131443039D01*
X180427511Y-131488794D01*
X180376000Y-131500000D01*
X171624000Y-131500000D01*
X171556961Y-131480315D01*
X171511206Y-131427511D01*
X171500000Y-131376000D01*
X171500000Y-122624000D01*
X171519685Y-122556961D01*
X171572489Y-122511206D01*
X171624000Y-122500000D01*
X175500000Y-122500000D01*
X180500000Y-122500000D01*
X180500000Y-127500000D01*
G37*
%TD.AperFunction*%
%TD*%
%TA.AperFunction,Conductor*%
%TO.N,/L+*%
G36*
X162443039Y-65019685D02*
G01*
X162488794Y-65072489D01*
X162500000Y-65124000D01*
X162500000Y-67000000D01*
X162500000Y-78500000D01*
X172876000Y-78500000D01*
X172943039Y-78519685D01*
X172988794Y-78572489D01*
X173000000Y-78624000D01*
X173000000Y-88876000D01*
X172980315Y-88943039D01*
X172927511Y-88988794D01*
X172876000Y-89000000D01*
X150124000Y-89000000D01*
X150056961Y-88980315D01*
X150011206Y-88927511D01*
X150000000Y-88876000D01*
X150000000Y-82592051D01*
X150019685Y-82525012D01*
X150072489Y-82479257D01*
X150141647Y-82469313D01*
X150205203Y-82498338D01*
X150211681Y-82504370D01*
X150402952Y-82695641D01*
X150402959Y-82695647D01*
X150637006Y-82875238D01*
X150892489Y-83022741D01*
X150892490Y-83022741D01*
X150892493Y-83022743D01*
X151165048Y-83135639D01*
X151450007Y-83211993D01*
X151742494Y-83250500D01*
X151742501Y-83250500D01*
X154037499Y-83250500D01*
X154037506Y-83250500D01*
X154329993Y-83211993D01*
X154614952Y-83135639D01*
X154887507Y-83022743D01*
X155142994Y-82875238D01*
X155377042Y-82695646D01*
X155585646Y-82487042D01*
X155765238Y-82252994D01*
X155912743Y-81997507D01*
X156025639Y-81724952D01*
X156101993Y-81439993D01*
X156140500Y-81147506D01*
X156140500Y-80852494D01*
X156101993Y-80560007D01*
X156025639Y-80275048D01*
X155912743Y-80002493D01*
X155765238Y-79747006D01*
X155598044Y-79529115D01*
X155585647Y-79512959D01*
X155585641Y-79512952D01*
X155377047Y-79304358D01*
X155377040Y-79304352D01*
X155142993Y-79124761D01*
X154887510Y-78977258D01*
X154887500Y-78977254D01*
X154614961Y-78864364D01*
X154614954Y-78864362D01*
X154614952Y-78864361D01*
X154329993Y-78788007D01*
X154281113Y-78781571D01*
X154037513Y-78749500D01*
X154037506Y-78749500D01*
X151742494Y-78749500D01*
X151742486Y-78749500D01*
X151464085Y-78786153D01*
X151450007Y-78788007D01*
X151165048Y-78864361D01*
X151165038Y-78864364D01*
X150892499Y-78977254D01*
X150892489Y-78977258D01*
X150637006Y-79124761D01*
X150402959Y-79304352D01*
X150402952Y-79304358D01*
X150211681Y-79495630D01*
X150150358Y-79529115D01*
X150080666Y-79524131D01*
X150024733Y-79482259D01*
X150000316Y-79416795D01*
X150000000Y-79407949D01*
X150000000Y-77142051D01*
X150019685Y-77075012D01*
X150072489Y-77029257D01*
X150141647Y-77019313D01*
X150205203Y-77048338D01*
X150211681Y-77054370D01*
X150402952Y-77245641D01*
X150402959Y-77245647D01*
X150637006Y-77425238D01*
X150892489Y-77572741D01*
X150892490Y-77572741D01*
X150892493Y-77572743D01*
X151165048Y-77685639D01*
X151450007Y-77761993D01*
X151742494Y-77800500D01*
X151742501Y-77800500D01*
X154037499Y-77800500D01*
X154037506Y-77800500D01*
X154329993Y-77761993D01*
X154614952Y-77685639D01*
X154887507Y-77572743D01*
X155142994Y-77425238D01*
X155377042Y-77245646D01*
X155585646Y-77037042D01*
X155765238Y-76802994D01*
X155912743Y-76547507D01*
X156025639Y-76274952D01*
X156101993Y-75989993D01*
X156140500Y-75697506D01*
X156140500Y-75402494D01*
X156101993Y-75110007D01*
X156025639Y-74825048D01*
X155912743Y-74552493D01*
X155765238Y-74297006D01*
X155598044Y-74079115D01*
X155585647Y-74062959D01*
X155585641Y-74062952D01*
X155377047Y-73854358D01*
X155377040Y-73854352D01*
X155142993Y-73674761D01*
X154887510Y-73527258D01*
X154887500Y-73527254D01*
X154614961Y-73414364D01*
X154614954Y-73414362D01*
X154614952Y-73414361D01*
X154329993Y-73338007D01*
X154281113Y-73331571D01*
X154037513Y-73299500D01*
X154037506Y-73299500D01*
X151742494Y-73299500D01*
X151742486Y-73299500D01*
X151464085Y-73336153D01*
X151450007Y-73338007D01*
X151165048Y-73414361D01*
X151165038Y-73414364D01*
X150892499Y-73527254D01*
X150892489Y-73527258D01*
X150637006Y-73674761D01*
X150402959Y-73854352D01*
X150402952Y-73854358D01*
X150211681Y-74045630D01*
X150150358Y-74079115D01*
X150080666Y-74074131D01*
X150024733Y-74032259D01*
X150000316Y-73966795D01*
X150000000Y-73957949D01*
X150000000Y-65124000D01*
X150019685Y-65056961D01*
X150072489Y-65011206D01*
X150124000Y-65000000D01*
X162376000Y-65000000D01*
X162443039Y-65019685D01*
G37*
%TD.AperFunction*%
%TD*%
%TA.AperFunction,Conductor*%
%TO.N,GND*%
G36*
X141000000Y-133000000D02*
G01*
X183500000Y-133000000D01*
X183500000Y-137999500D01*
X127504428Y-137999500D01*
X127495582Y-137999184D01*
X127473622Y-137997613D01*
X127295442Y-137984869D01*
X127277931Y-137982351D01*
X127086212Y-137940646D01*
X127069236Y-137935662D01*
X126885390Y-137867090D01*
X126869298Y-137859740D01*
X126697095Y-137765711D01*
X126682210Y-137756146D01*
X126525132Y-137638558D01*
X126511762Y-137626972D01*
X126373027Y-137488237D01*
X126361441Y-137474867D01*
X126243849Y-137317784D01*
X126234288Y-137302904D01*
X126140259Y-137130701D01*
X126132909Y-137114609D01*
X126072091Y-136951551D01*
X126064334Y-136930755D01*
X126059355Y-136913797D01*
X126017647Y-136722063D01*
X126015130Y-136704556D01*
X126000816Y-136504418D01*
X126000500Y-136495572D01*
X126000500Y-130500002D01*
X134569723Y-130500002D01*
X134588793Y-130717975D01*
X134588793Y-130717979D01*
X134645422Y-130929322D01*
X134645424Y-130929326D01*
X134645425Y-130929330D01*
X134691661Y-131028484D01*
X134737897Y-131127638D01*
X134737898Y-131127639D01*
X134863402Y-131306877D01*
X135018123Y-131461598D01*
X135197361Y-131587102D01*
X135395670Y-131679575D01*
X135607023Y-131736207D01*
X135789926Y-131752208D01*
X135824998Y-131755277D01*
X135825000Y-131755277D01*
X135825002Y-131755277D01*
X135853254Y-131752805D01*
X136042977Y-131736207D01*
X136254330Y-131679575D01*
X136452639Y-131587102D01*
X136631877Y-131461598D01*
X136786598Y-131306877D01*
X136912102Y-131127639D01*
X137004575Y-130929330D01*
X137061207Y-130717977D01*
X137080277Y-130500000D01*
X137061207Y-130282023D01*
X137004575Y-130070670D01*
X136912102Y-129872362D01*
X136912100Y-129872359D01*
X136912099Y-129872357D01*
X136786599Y-129693124D01*
X136786596Y-129693121D01*
X136631877Y-129538402D01*
X136452639Y-129412898D01*
X136452640Y-129412898D01*
X136452638Y-129412897D01*
X136353484Y-129366661D01*
X136254330Y-129320425D01*
X136254326Y-129320424D01*
X136254322Y-129320422D01*
X136042977Y-129263793D01*
X135825002Y-129244723D01*
X135824998Y-129244723D01*
X135679682Y-129257436D01*
X135607023Y-129263793D01*
X135607020Y-129263793D01*
X135395677Y-129320422D01*
X135395668Y-129320426D01*
X135197361Y-129412898D01*
X135197357Y-129412900D01*
X135018121Y-129538402D01*
X134863402Y-129693121D01*
X134737900Y-129872357D01*
X134737898Y-129872361D01*
X134645426Y-130070668D01*
X134645422Y-130070677D01*
X134588793Y-130282020D01*
X134588793Y-130282024D01*
X134569723Y-130499997D01*
X134569723Y-130500002D01*
X126000500Y-130500002D01*
X126000500Y-119000000D01*
X130724564Y-119000000D01*
X130744287Y-119300918D01*
X130744288Y-119300930D01*
X130803118Y-119596683D01*
X130803122Y-119596698D01*
X130900053Y-119882247D01*
X130900062Y-119882268D01*
X131033431Y-120152713D01*
X131033435Y-120152720D01*
X131200973Y-120403459D01*
X131399810Y-120630189D01*
X131626540Y-120829026D01*
X131877279Y-120996564D01*
X131877286Y-120996568D01*
X132147731Y-121129937D01*
X132147736Y-121129939D01*
X132147748Y-121129945D01*
X132433309Y-121226880D01*
X132633251Y-121266651D01*
X132729069Y-121285711D01*
X132729070Y-121285711D01*
X132729080Y-121285713D01*
X133030000Y-121305436D01*
X133330920Y-121285713D01*
X133626691Y-121226880D01*
X133912252Y-121129945D01*
X134182718Y-120996566D01*
X134433461Y-120829025D01*
X134660189Y-120630189D01*
X134859025Y-120403461D01*
X135026566Y-120152718D01*
X135159945Y-119882252D01*
X135256880Y-119596691D01*
X135315713Y-119300920D01*
X135335436Y-119000000D01*
X135315713Y-118699080D01*
X135256880Y-118403309D01*
X135159945Y-118117748D01*
X135026566Y-117847282D01*
X134859025Y-117596539D01*
X134796152Y-117524846D01*
X134660189Y-117369810D01*
X134433459Y-117170973D01*
X134182720Y-117003435D01*
X134182713Y-117003431D01*
X133912268Y-116870062D01*
X133912247Y-116870053D01*
X133626698Y-116773122D01*
X133626692Y-116773120D01*
X133626691Y-116773120D01*
X133626689Y-116773119D01*
X133626683Y-116773118D01*
X133330930Y-116714288D01*
X133330921Y-116714287D01*
X133330920Y-116714287D01*
X133030000Y-116694564D01*
X132729080Y-116714287D01*
X132729079Y-116714287D01*
X132729069Y-116714288D01*
X132433316Y-116773118D01*
X132433301Y-116773122D01*
X132147752Y-116870053D01*
X132147731Y-116870062D01*
X131877286Y-117003431D01*
X131877279Y-117003435D01*
X131626540Y-117170973D01*
X131399810Y-117369810D01*
X131200973Y-117596540D01*
X131033435Y-117847279D01*
X131033431Y-117847286D01*
X130900062Y-118117731D01*
X130900053Y-118117752D01*
X130803122Y-118403301D01*
X130803118Y-118403316D01*
X130744288Y-118699069D01*
X130744287Y-118699081D01*
X130724564Y-119000000D01*
X126000500Y-119000000D01*
X126000500Y-113500000D01*
X141000000Y-113500000D01*
X141000000Y-133000000D01*
G37*
%TD.AperFunction*%
%TD*%
%TA.AperFunction,Conductor*%
%TO.N,/L-*%
G36*
X172943039Y-90519685D02*
G01*
X172988794Y-90572489D01*
X173000000Y-90624000D01*
X173000000Y-99376000D01*
X172980315Y-99443039D01*
X172927511Y-99488794D01*
X172876000Y-99500000D01*
X156124000Y-99500000D01*
X156056961Y-99480315D01*
X156011206Y-99427511D01*
X156000000Y-99376000D01*
X156000000Y-90624000D01*
X156019685Y-90556961D01*
X156072489Y-90511206D01*
X156124000Y-90500000D01*
X172876000Y-90500000D01*
X172943039Y-90519685D01*
G37*
%TD.AperFunction*%
%TD*%
M02*
