M48
; DRILL file {KiCad 8.0.1} date 2024-06-30T23:47:38-0400
; FORMAT={-:-/ absolute / inch / decimal}
; #@! TF.CreationDate,2024-06-30T23:47:38-04:00
; #@! TF.GenerationSoftware,Kicad,Pcbnew,8.0.1
; #@! TF.FileFunction,Plated,1,2,PTH
FMAT,2
INCH
; #@! TA.AperFunction,Plated,PTH,ViaDrill
T1C0.0118
; #@! TA.AperFunction,Plated,PTH,ComponentDrill
T2C0.0197
; #@! TA.AperFunction,Plated,PTH,ComponentDrill
T3C0.0276
; #@! TA.AperFunction,Plated,PTH,ComponentDrill
T4C0.0315
; #@! TA.AperFunction,Plated,PTH,ComponentDrill
T5C0.0350
; #@! TA.AperFunction,Plated,PTH,ComponentDrill
T6C0.0394
; #@! TA.AperFunction,Plated,PTH,ComponentDrill
T7C0.0423
; #@! TA.AperFunction,Plated,PTH,ComponentDrill
T8C0.0591
; #@! TA.AperFunction,Plated,PTH,ComponentDrill
T9C0.0630
; #@! TA.AperFunction,Plated,PTH,ComponentDrill
T10C0.0787
%
G90
G05
T1
X4.9803Y-4.1535
X5.0394Y-3.1496
X5.0591Y-2.7362
X5.0984Y-3.7008
X5.0984Y-4.1142
X5.1181Y-3.4252
X5.2165Y-3.7795
X5.2559Y-3.9173
X5.2559Y-4.0748
X5.315Y-4.1339
X5.374Y-3.3071
X5.374Y-3.7795
X5.5512Y-3.2087
X5.7087Y-3.7795
X5.7087Y-3.8189
X5.7283Y-3.5827
X7.5394Y-4.6063
X7.5787Y-4.6457
X7.8543Y-4.3307
T2
X6.6112Y-3.6378
X6.6112Y-3.689
X6.6112Y-3.7402
X6.6112Y-3.7913
X6.6112Y-3.8425
X6.6112Y-4.0315
X6.6112Y-4.0827
X6.6112Y-4.1339
X6.6112Y-4.185
X6.6112Y-4.2362
X6.69Y-3.5925
X6.69Y-3.8878
X6.69Y-3.9862
X6.69Y-4.2815
X6.7687Y-3.6378
X6.7687Y-3.689
X6.7687Y-3.7402
X6.7687Y-3.7913
X6.7687Y-3.8425
X6.7687Y-4.0315
X6.7687Y-4.0827
X6.7687Y-4.1339
X6.7687Y-4.185
X6.7687Y-4.2362
T3
X5.2461Y-2.815
X5.3642Y-4.2913
X5.3839Y-2.815
X5.502Y-4.2913
X5.8661Y-3.6319
X5.8661Y-3.7697
X7.6673Y-4.1831
X7.8051Y-4.1831
T4
X7.5325Y-3.8618
X7.5325Y-3.937
X7.5325Y-4.0122
T5
X7.5591Y-5.1772
X7.5591Y-5.2559
X7.6378Y-5.1772
X7.6378Y-5.2559
X7.7165Y-5.1772
X7.7165Y-5.2559
X7.7953Y-5.1772
X7.7953Y-5.2559
X7.874Y-5.1772
X7.874Y-5.2559
T6
X5.3474Y-5.1378
X5.938Y-5.1378
X6.0699Y-5.1378
X6.6604Y-5.1378
X7.5266Y-2.815
X8.1171Y-2.815
T7
X8.189Y-3.6323
X8.189Y-3.7323
X8.189Y-4.0323
X8.189Y-4.1323
X8.189Y-4.2323
T8
X6.0193Y-2.2264
X6.0193Y-2.4409
X6.0193Y-2.6555
X6.0193Y-2.9744
X6.0193Y-3.189
X6.0193Y-3.4035
X6.0193Y-4.4705
X6.0193Y-4.685
X6.0193Y-4.8996
X7.2287Y-2.2264
X7.2287Y-2.6555
X7.2287Y-2.9744
X7.2287Y-3.4035
X7.2287Y-4.4705
X7.2287Y-4.685
X7.2287Y-4.8996
T9
X6.2189Y-3.6402
X6.2189Y-3.7402
X6.2189Y-3.8402
X6.3354Y-4.685
X6.3354Y-4.785
X6.3354Y-4.885
X6.4189Y-3.6402
X6.4189Y-3.7402
X6.4189Y-3.8402
X6.5354Y-2.2244
X6.5354Y-2.3244
X6.5354Y-2.4244
X6.5354Y-2.7362
X6.5354Y-2.8362
X6.5354Y-2.9362
X6.5354Y-3.1693
X6.5354Y-3.2693
X6.5354Y-3.3693
X6.5354Y-4.685
X6.5354Y-4.785
X6.5354Y-4.885
X6.7354Y-2.2244
X6.7354Y-2.3244
X6.7354Y-2.4244
X6.7354Y-2.7362
X6.7354Y-2.8362
X6.7354Y-2.9362
X6.7354Y-3.1693
X6.7354Y-3.2693
X6.7354Y-3.3693
X6.8307Y-4.9016
X6.8307Y-5.0016
X6.8307Y-5.1016
X7.0307Y-4.9016
X7.0307Y-5.0016
X7.0307Y-5.1016
T10
G00X6.69Y-3.8189
M15
G01X6.69Y-3.6614
M16
G05
G00X6.69Y-4.2126
M15
G01X6.69Y-4.0551
M16
G05
M30
